<?xml version="1.0" encoding="UTF-8" standalone="no"?>
<!DOCTYPE svg PUBLIC "-//W3C//DTD SVG 1.1//EN"
 "http://www.w3.org/Graphics/SVG/1.1/DTD/svg11.dtd">
<!-- Generated by graphviz version 2.41.20171026.1811 (20171026.1811)
 -->
<!-- Title: SDK::FEFSubtitleInfo Pages: 1 -->
<svg width="314pt" height="656pt"
 viewBox="0.00 0.00 314.00 656.00" xmlns="http://www.w3.org/2000/svg" xmlns:xlink="http://www.w3.org/1999/xlink">
<g id="graph0" class="graph" transform="scale(1 1) rotate(0) translate(4 652)">
<title>SDK::FEFSubtitleInfo</title>
<polygon fill="white" stroke="transparent" points="-4,4 -4,-652 310,-652 310,4 -4,4"/>
<!-- Node1 -->
<g id="node1" class="node">
<title>Node1</title>
<g id="a_node1"><a xlink:title=" ">
<polygon fill="#bfbfbf" stroke="black" points="106.5,-0.5 106.5,-90.5 218.5,-90.5 218.5,-0.5 106.5,-0.5"/>
<text text-anchor="middle" x="162.5" y="-78.5" font-family="Helvetica,sans-Serif" font-size="10.00">SDK::FEFSubtitleInfo</text>
<polyline fill="none" stroke="black" points="106.5,-71.5 218.5,-71.5 "/>
<text text-anchor="start" x="114.5" y="-59.5" font-family="Helvetica,sans-Serif" font-size="10.00">+ UnknownData00</text>
<text text-anchor="start" x="114.5" y="-48.5" font-family="Helvetica,sans-Serif" font-size="10.00">+ MsgID</text>
<text text-anchor="start" x="114.5" y="-37.5" font-family="Helvetica,sans-Serif" font-size="10.00">+ Duration</text>
<text text-anchor="start" x="114.5" y="-26.5" font-family="Helvetica,sans-Serif" font-size="10.00">+ Time</text>
<polyline fill="none" stroke="black" points="106.5,-19.5 218.5,-19.5 "/>
<text text-anchor="middle" x="162.5" y="-7.5" font-family="Helvetica,sans-Serif" font-size="10.00"> </text>
</a>
</g>
</g>
<!-- Node2 -->
<g id="node2" class="node">
<title>Node2</title>
<g id="a_node2"><a xlink:href="../../df/d1c/classSDK_1_1TEnumAsByte.html" target="_top" xlink:title=" ">
<polygon fill="white" stroke="black" points="0,-138.5 0,-261.5 181,-261.5 181,-138.5 0,-138.5"/>
<text text-anchor="start" x="8" y="-249.5" font-family="Helvetica,sans-Serif" font-size="10.00">SDK::TEnumAsByte&lt; EFGAMEMSG</text>
<text text-anchor="middle" x="90.5" y="-238.5" font-family="Helvetica,sans-Serif" font-size="10.00">_TYPE &gt;</text>
<polyline fill="none" stroke="black" points="0,-231.5 181,-231.5 "/>
<text text-anchor="start" x="8" y="-219.5" font-family="Helvetica,sans-Serif" font-size="10.00">&#45; value</text>
<polyline fill="none" stroke="black" points="0,-212.5 181,-212.5 "/>
<text text-anchor="start" x="8" y="-200.5" font-family="Helvetica,sans-Serif" font-size="10.00">+ TEnumAsByte()</text>
<text text-anchor="start" x="8" y="-189.5" font-family="Helvetica,sans-Serif" font-size="10.00">+ TEnumAsByte()</text>
<text text-anchor="start" x="8" y="-178.5" font-family="Helvetica,sans-Serif" font-size="10.00">+ TEnumAsByte()</text>
<text text-anchor="start" x="8" y="-167.5" font-family="Helvetica,sans-Serif" font-size="10.00">+ TEnumAsByte()</text>
<text text-anchor="start" x="8" y="-156.5" font-family="Helvetica,sans-Serif" font-size="10.00">+ operator EFGAMEMSG_TYPE()</text>
<text text-anchor="start" x="8" y="-145.5" font-family="Helvetica,sans-Serif" font-size="10.00">+ GetValue()</text>
</a>
</g>
</g>
<!-- Node2&#45;&gt;Node1 -->
<g id="edge1" class="edge">
<title>Node2&#45;&gt;Node1</title>
<path fill="none" stroke="#404040" d="M119.16,-138.29C124.87,-126.2 130.83,-113.58 136.44,-101.69"/>
<polygon fill="none" stroke="#404040" points="136.58,-101.41 135.52,-94.28 141.7,-90.56 142.75,-97.69 136.58,-101.41"/>
<text text-anchor="middle" x="157.5" y="-112" font-family="Helvetica,sans-Serif" font-size="10.00"> +MsgType</text>
</g>
<!-- Node3 -->
<g id="node3" class="node">
<title>Node3</title>
<g id="a_node3"><a xlink:href="../../df/d1c/classSDK_1_1TEnumAsByte.html" target="_top" xlink:title=" ">
<polygon fill="white" stroke="black" points="6,-326 6,-438 163,-438 163,-326 6,-326"/>
<text text-anchor="middle" x="84.5" y="-426" font-family="Helvetica,sans-Serif" font-size="10.00">SDK::TEnumAsByte&lt; TEnum &gt;</text>
<polyline fill="none" stroke="black" points="6,-419 163,-419 "/>
<text text-anchor="start" x="14" y="-407" font-family="Helvetica,sans-Serif" font-size="10.00">&#45; value</text>
<polyline fill="none" stroke="black" points="6,-400 163,-400 "/>
<text text-anchor="start" x="14" y="-388" font-family="Helvetica,sans-Serif" font-size="10.00">+ TEnumAsByte()</text>
<text text-anchor="start" x="14" y="-377" font-family="Helvetica,sans-Serif" font-size="10.00">+ TEnumAsByte()</text>
<text text-anchor="start" x="14" y="-366" font-family="Helvetica,sans-Serif" font-size="10.00">+ TEnumAsByte()</text>
<text text-anchor="start" x="14" y="-355" font-family="Helvetica,sans-Serif" font-size="10.00">+ TEnumAsByte()</text>
<text text-anchor="start" x="14" y="-344" font-family="Helvetica,sans-Serif" font-size="10.00">+ operator TEnum()</text>
<text text-anchor="start" x="14" y="-333" font-family="Helvetica,sans-Serif" font-size="10.00">+ GetValue()</text>
</a>
</g>
</g>
<!-- Node3&#45;&gt;Node2 -->
<g id="edge2" class="edge">
<title>Node3&#45;&gt;Node2</title>
<path fill="none" stroke="orange" d="M86.69,-315.36C87.27,-297.8 87.9,-278.89 88.48,-261.61"/>
<polygon fill="orange" stroke="orange" points="83.18,-315.41 86.35,-325.53 90.18,-315.65 83.18,-315.41"/>
<text text-anchor="middle" x="146.5" y="-283" font-family="Helvetica,sans-Serif" font-size="10.00"> &lt; EFGAMEMSG_TYPE &gt;</text>
</g>
<!-- Node4 -->
<g id="node4" class="node">
<title>Node4</title>
<g id="a_node4"><a xlink:href="../../d3/d88/classSDK_1_1FString.html" target="_top" xlink:title=" ">
<polygon fill="white" stroke="black" points="202,-149.5 202,-250.5 277,-250.5 277,-149.5 202,-149.5"/>
<text text-anchor="middle" x="239.5" y="-238.5" font-family="Helvetica,sans-Serif" font-size="10.00">SDK::FString</text>
<polyline fill="none" stroke="black" points="202,-231.5 277,-231.5 "/>
<text text-anchor="middle" x="239.5" y="-219.5" font-family="Helvetica,sans-Serif" font-size="10.00"> </text>
<polyline fill="none" stroke="black" points="202,-212.5 277,-212.5 "/>
<text text-anchor="start" x="210" y="-200.5" font-family="Helvetica,sans-Serif" font-size="10.00">+ FString()</text>
<text text-anchor="start" x="210" y="-189.5" font-family="Helvetica,sans-Serif" font-size="10.00">+ FString()</text>
<text text-anchor="start" x="210" y="-178.5" font-family="Helvetica,sans-Serif" font-size="10.00">+ IsValid()</text>
<text text-anchor="start" x="210" y="-167.5" font-family="Helvetica,sans-Serif" font-size="10.00">+ c_str()</text>
<text text-anchor="start" x="210" y="-156.5" font-family="Helvetica,sans-Serif" font-size="10.00">+ ToString()</text>
</a>
</g>
</g>
<!-- Node4&#45;&gt;Node1 -->
<g id="edge3" class="edge">
<title>Node4&#45;&gt;Node1</title>
<path fill="none" stroke="#404040" d="M214.5,-149.49C206.8,-134.23 198.27,-117.34 190.38,-101.72"/>
<polygon fill="none" stroke="#404040" points="190.19,-101.33 183.91,-97.78 184.78,-90.62 191.05,-94.17 190.19,-101.33"/>
<text text-anchor="middle" x="223.5" y="-112" font-family="Helvetica,sans-Serif" font-size="10.00"> +strMsgID</text>
</g>
<!-- Node5 -->
<g id="node5" class="node">
<title>Node5</title>
<g id="a_node5"><a xlink:href="../../d3/d79/classSDK_1_1TArray.html" target="_top" xlink:title=" ">
<polygon fill="white" stroke="black" points="181,-309.5 181,-454.5 306,-454.5 306,-309.5 181,-309.5"/>
<text text-anchor="middle" x="243.5" y="-442.5" font-family="Helvetica,sans-Serif" font-size="10.00">SDK::TArray&lt; wchar_t &gt;</text>
<polyline fill="none" stroke="black" points="181,-435.5 306,-435.5 "/>
<text text-anchor="start" x="189" y="-423.5" font-family="Helvetica,sans-Serif" font-size="10.00">&#45; Data</text>
<text text-anchor="start" x="189" y="-412.5" font-family="Helvetica,sans-Serif" font-size="10.00">&#45; Count</text>
<text text-anchor="start" x="189" y="-401.5" font-family="Helvetica,sans-Serif" font-size="10.00">&#45; Max</text>
<polyline fill="none" stroke="black" points="181,-394.5 306,-394.5 "/>
<text text-anchor="start" x="189" y="-382.5" font-family="Helvetica,sans-Serif" font-size="10.00">+ TArray()</text>
<text text-anchor="start" x="189" y="-371.5" font-family="Helvetica,sans-Serif" font-size="10.00">+ Num()</text>
<text text-anchor="start" x="189" y="-360.5" font-family="Helvetica,sans-Serif" font-size="10.00">+ operator[]()</text>
<text text-anchor="start" x="189" y="-349.5" font-family="Helvetica,sans-Serif" font-size="10.00">+ operator[]()</text>
<text text-anchor="start" x="189" y="-338.5" font-family="Helvetica,sans-Serif" font-size="10.00">+ IsValidIndex()</text>
<text text-anchor="start" x="189" y="-327.5" font-family="Helvetica,sans-Serif" font-size="10.00">+ GetByIndex()</text>
<text text-anchor="start" x="189" y="-316.5" font-family="Helvetica,sans-Serif" font-size="10.00">+ GetByIndex()</text>
</a>
</g>
</g>
<!-- Node5&#45;&gt;Node4 -->
<g id="edge4" class="edge">
<title>Node5&#45;&gt;Node4</title>
<path fill="none" stroke="midnightblue" d="M241.68,-299.09C241.31,-282.52 240.94,-265.58 240.6,-250.55"/>
<polygon fill="none" stroke="midnightblue" points="238.19,-299.42 241.91,-309.34 245.18,-299.27 238.19,-299.42"/>
</g>
<!-- Node6 -->
<g id="node6" class="node">
<title>Node6</title>
<g id="a_node6"><a xlink:href="../../d3/d79/classSDK_1_1TArray.html" target="_top" xlink:title=" ">
<polygon fill="white" stroke="black" points="195,-502.5 195,-647.5 292,-647.5 292,-502.5 195,-502.5"/>
<text text-anchor="middle" x="243.5" y="-635.5" font-family="Helvetica,sans-Serif" font-size="10.00">SDK::TArray&lt; T &gt;</text>
<polyline fill="none" stroke="black" points="195,-628.5 292,-628.5 "/>
<text text-anchor="start" x="203" y="-616.5" font-family="Helvetica,sans-Serif" font-size="10.00">&#45; Data</text>
<text text-anchor="start" x="203" y="-605.5" font-family="Helvetica,sans-Serif" font-size="10.00">&#45; Count</text>
<text text-anchor="start" x="203" y="-594.5" font-family="Helvetica,sans-Serif" font-size="10.00">&#45; Max</text>
<polyline fill="none" stroke="black" points="195,-587.5 292,-587.5 "/>
<text text-anchor="start" x="203" y="-575.5" font-family="Helvetica,sans-Serif" font-size="10.00">+ TArray()</text>
<text text-anchor="start" x="203" y="-564.5" font-family="Helvetica,sans-Serif" font-size="10.00">+ Num()</text>
<text text-anchor="start" x="203" y="-553.5" font-family="Helvetica,sans-Serif" font-size="10.00">+ operator[]()</text>
<text text-anchor="start" x="203" y="-542.5" font-family="Helvetica,sans-Serif" font-size="10.00">+ operator[]()</text>
<text text-anchor="start" x="203" y="-531.5" font-family="Helvetica,sans-Serif" font-size="10.00">+ IsValidIndex()</text>
<text text-anchor="start" x="203" y="-520.5" font-family="Helvetica,sans-Serif" font-size="10.00">+ GetByIndex()</text>
<text text-anchor="start" x="203" y="-509.5" font-family="Helvetica,sans-Serif" font-size="10.00">+ GetByIndex()</text>
</a>
</g>
</g>
<!-- Node6&#45;&gt;Node5 -->
<g id="edge5" class="edge">
<title>Node6&#45;&gt;Node5</title>
<path fill="none" stroke="orange" d="M243.5,-492.01C243.5,-479.62 243.5,-466.91 243.5,-454.75"/>
<polygon fill="orange" stroke="orange" points="240,-492.34 243.5,-502.34 247,-492.34 240,-492.34"/>
<text text-anchor="middle" x="271.5" y="-476" font-family="Helvetica,sans-Serif" font-size="10.00"> &lt; wchar_t &gt;</text>
</g>
</g>
</svg>
