<?xml version="1.0" encoding="UTF-8" standalone="no"?>
<!DOCTYPE svg PUBLIC "-//W3C//DTD SVG 1.1//EN"
 "http://www.w3.org/Graphics/SVG/1.1/DTD/svg11.dtd">
<!-- Generated by graphviz version 2.41.20171026.1811 (20171026.1811)
 -->
<!-- Title: SDK::UEFActionNotify_AnimEvent_MaterialParamterLinearColor Pages: 1 -->
<svg width="833pt" height="1499pt"
 viewBox="0.00 0.00 832.50 1499.00" xmlns="http://www.w3.org/2000/svg" xmlns:xlink="http://www.w3.org/1999/xlink">
<g id="graph0" class="graph" transform="scale(1 1) rotate(0) translate(4 1495)">
<title>SDK::UEFActionNotify_AnimEvent_MaterialParamterLinearColor</title>
<polygon fill="white" stroke="transparent" points="-4,4 -4,-1495 828.5,-1495 828.5,4 -4,4"/>
<!-- Node1 -->
<g id="node1" class="node">
<title>Node1</title>
<g id="a_node1"><a xlink:title=" ">
<polygon fill="#bfbfbf" stroke="black" points="568.5,-223.5 568.5,-302.5 717.5,-302.5 717.5,-223.5 568.5,-223.5"/>
<text text-anchor="start" x="576.5" y="-290.5" font-family="Helvetica,sans-Serif" font-size="10.00">SDK::UEFActionNotify</text>
<text text-anchor="start" x="576.5" y="-279.5" font-family="Helvetica,sans-Serif" font-size="10.00">_AnimEvent_MaterialParamter</text>
<text text-anchor="middle" x="643" y="-268.5" font-family="Helvetica,sans-Serif" font-size="10.00">LinearColor</text>
<polyline fill="none" stroke="black" points="568.5,-261.5 717.5,-261.5 "/>
<text text-anchor="middle" x="643" y="-249.5" font-family="Helvetica,sans-Serif" font-size="10.00"> </text>
<polyline fill="none" stroke="black" points="568.5,-242.5 717.5,-242.5 "/>
<text text-anchor="start" x="576.5" y="-230.5" font-family="Helvetica,sans-Serif" font-size="10.00">+ StaticClass()</text>
</a>
</g>
</g>
<!-- Node2 -->
<g id="node2" class="node">
<title>Node2</title>
<g id="a_node2"><a xlink:href="../../dc/dde/classSDK_1_1UEFActionNotify__AnimEvent.html" target="_top" xlink:title=" ">
<polygon fill="white" stroke="black" points="489,-383.5 489,-473.5 607,-473.5 607,-383.5 489,-383.5"/>
<text text-anchor="start" x="497" y="-461.5" font-family="Helvetica,sans-Serif" font-size="10.00">SDK::UEFActionNotify</text>
<text text-anchor="middle" x="548" y="-450.5" font-family="Helvetica,sans-Serif" font-size="10.00">_AnimEvent</text>
<polyline fill="none" stroke="black" points="489,-443.5 607,-443.5 "/>
<text text-anchor="start" x="497" y="-431.5" font-family="Helvetica,sans-Serif" font-size="10.00">+ IsActive</text>
<text text-anchor="start" x="497" y="-420.5" font-family="Helvetica,sans-Serif" font-size="10.00">+ StartTime</text>
<text text-anchor="start" x="497" y="-409.5" font-family="Helvetica,sans-Serif" font-size="10.00">+ InterpTime</text>
<polyline fill="none" stroke="black" points="489,-402.5 607,-402.5 "/>
<text text-anchor="start" x="497" y="-390.5" font-family="Helvetica,sans-Serif" font-size="10.00">+ StaticClass()</text>
</a>
</g>
</g>
<!-- Node2&#45;&gt;Node1 -->
<g id="edge1" class="edge">
<title>Node2&#45;&gt;Node1</title>
<path fill="none" stroke="midnightblue" d="M578.8,-374.49C592.38,-351.12 608.05,-324.15 620.51,-302.71"/>
<polygon fill="none" stroke="midnightblue" points="575.71,-372.85 573.71,-383.25 581.76,-376.37 575.71,-372.85"/>
</g>
<!-- Node3 -->
<g id="node3" class="node">
<title>Node3</title>
<g id="a_node3"><a xlink:href="../../d9/d45/classSDK_1_1UObject.html" target="_top" xlink:title=" ">
<polygon fill="white" stroke="black" points="102,-543.5 102,-787.5 300,-787.5 300,-543.5 102,-543.5"/>
<text text-anchor="middle" x="201" y="-775.5" font-family="Helvetica,sans-Serif" font-size="10.00">SDK::UObject</text>
<polyline fill="none" stroke="black" points="102,-768.5 300,-768.5 "/>
<text text-anchor="start" x="110" y="-756.5" font-family="Helvetica,sans-Serif" font-size="10.00">+ ObjectInternalInteger</text>
<text text-anchor="start" x="110" y="-745.5" font-family="Helvetica,sans-Serif" font-size="10.00">+ NetIndex</text>
<polyline fill="none" stroke="black" points="102,-738.5 300,-738.5 "/>
<text text-anchor="start" x="110" y="-726.5" font-family="Helvetica,sans-Serif" font-size="10.00">+ UObject::GetName()</text>
<text text-anchor="start" x="110" y="-715.5" font-family="Helvetica,sans-Serif" font-size="10.00">+ GetFullName()</text>
<text text-anchor="start" x="110" y="-704.5" font-family="Helvetica,sans-Serif" font-size="10.00">+ IsA()</text>
<text text-anchor="start" x="110" y="-693.5" font-family="Helvetica,sans-Serif" font-size="10.00">+ ProcessEvent()</text>
<text text-anchor="start" x="110" y="-682.5" font-family="Helvetica,sans-Serif" font-size="10.00">+ STATIC_ProfNodeEvent()</text>
<text text-anchor="start" x="110" y="-671.5" font-family="Helvetica,sans-Serif" font-size="10.00">+ STATIC_ProfNodeSetDepthThreshold()</text>
<text text-anchor="start" x="110" y="-660.5" font-family="Helvetica,sans-Serif" font-size="10.00">+ STATIC_ProfNodeSetTimeThreshold</text>
<text text-anchor="start" x="110" y="-649.5" font-family="Helvetica,sans-Serif" font-size="10.00">Seconds()</text>
<text text-anchor="start" x="110" y="-638.5" font-family="Helvetica,sans-Serif" font-size="10.00">+ STATIC_ProfNodeStop()</text>
<text text-anchor="start" x="110" y="-627.5" font-family="Helvetica,sans-Serif" font-size="10.00">+ STATIC_ProfNodeStart()</text>
<text text-anchor="start" x="110" y="-616.5" font-family="Helvetica,sans-Serif" font-size="10.00">+ STATIC_GetStringFromGuid()</text>
<text text-anchor="start" x="110" y="-605.5" font-family="Helvetica,sans-Serif" font-size="10.00">and 298 more...</text>
<text text-anchor="start" x="110" y="-594.5" font-family="Helvetica,sans-Serif" font-size="10.00">+ GetGlobalObjects()</text>
<text text-anchor="start" x="110" y="-583.5" font-family="Helvetica,sans-Serif" font-size="10.00">+ FindObject()</text>
<text text-anchor="start" x="110" y="-572.5" font-family="Helvetica,sans-Serif" font-size="10.00">+ FindClass()</text>
<text text-anchor="start" x="110" y="-561.5" font-family="Helvetica,sans-Serif" font-size="10.00">+ GetObjectCasted()</text>
<text text-anchor="start" x="110" y="-550.5" font-family="Helvetica,sans-Serif" font-size="10.00">+ StaticClass()</text>
</a>
</g>
</g>
<!-- Node3&#45;&gt;Node2 -->
<g id="edge2" class="edge">
<title>Node3&#45;&gt;Node2</title>
<path fill="none" stroke="midnightblue" d="M309.07,-606.48C362.09,-576.17 425.83,-536.92 479,-496 487.83,-489.2 496.77,-481.41 505.15,-473.6"/>
<polygon fill="none" stroke="midnightblue" points="307.28,-603.47 300.31,-611.46 310.74,-609.56 307.28,-603.47"/>
</g>
<!-- Node3&#45;&gt;Node3 -->
<g id="edge8" class="edge">
<title>Node3&#45;&gt;Node3</title>
<path fill="none" stroke="#404040" d="M300.01,-688.53C310.94,-684.15 318,-676.48 318,-665.5 318,-658.64 315.24,-653.07 310.51,-648.78"/>
<polygon fill="none" stroke="#404040" points="310.3,-648.66 303.09,-648.99 300.01,-642.47 307.22,-642.14 310.3,-648.66"/>
<text text-anchor="middle" x="357.5" y="-674" font-family="Helvetica,sans-Serif" font-size="10.00"> +Outer</text>
<text text-anchor="middle" x="357.5" y="-663" font-family="Helvetica,sans-Serif" font-size="10.00">+Linker</text>
<text text-anchor="middle" x="357.5" y="-652" font-family="Helvetica,sans-Serif" font-size="10.00">+ObjectArchetype</text>
</g>
<!-- Node9 -->
<g id="node9" class="node">
<title>Node9</title>
<g id="a_node9"><a xlink:href="../../d3/d79/classSDK_1_1TArray.html" target="_top" xlink:title=" ">
<polygon fill="white" stroke="black" points="309.5,-361.5 309.5,-495.5 470.5,-495.5 470.5,-361.5 309.5,-361.5"/>
<text text-anchor="middle" x="390" y="-483.5" font-family="Helvetica,sans-Serif" font-size="10.00">SDK::TArray&lt; SDK::UObject * &gt;</text>
<polyline fill="none" stroke="black" points="309.5,-476.5 470.5,-476.5 "/>
<text text-anchor="start" x="317.5" y="-464.5" font-family="Helvetica,sans-Serif" font-size="10.00">&#45; Count</text>
<text text-anchor="start" x="317.5" y="-453.5" font-family="Helvetica,sans-Serif" font-size="10.00">&#45; Max</text>
<polyline fill="none" stroke="black" points="309.5,-446.5 470.5,-446.5 "/>
<text text-anchor="start" x="317.5" y="-434.5" font-family="Helvetica,sans-Serif" font-size="10.00">+ TArray()</text>
<text text-anchor="start" x="317.5" y="-423.5" font-family="Helvetica,sans-Serif" font-size="10.00">+ Num()</text>
<text text-anchor="start" x="317.5" y="-412.5" font-family="Helvetica,sans-Serif" font-size="10.00">+ operator[]()</text>
<text text-anchor="start" x="317.5" y="-401.5" font-family="Helvetica,sans-Serif" font-size="10.00">+ operator[]()</text>
<text text-anchor="start" x="317.5" y="-390.5" font-family="Helvetica,sans-Serif" font-size="10.00">+ IsValidIndex()</text>
<text text-anchor="start" x="317.5" y="-379.5" font-family="Helvetica,sans-Serif" font-size="10.00">+ GetByIndex()</text>
<text text-anchor="start" x="317.5" y="-368.5" font-family="Helvetica,sans-Serif" font-size="10.00">+ GetByIndex()</text>
</a>
</g>
</g>
<!-- Node3&#45;&gt;Node9 -->
<g id="edge10" class="edge">
<title>Node3&#45;&gt;Node9</title>
<path fill="none" stroke="#404040" d="M263.88,-543.46C270.86,-533.15 278.26,-523.17 286,-514 290.52,-508.65 295.41,-503.39 300.53,-498.27"/>
<polygon fill="none" stroke="#404040" points="300.69,-498.12 302.24,-491.08 309.34,-489.8 307.79,-496.84 300.69,-498.12"/>
<text text-anchor="middle" x="300" y="-517" font-family="Helvetica,sans-Serif" font-size="10.00"> &#45;Data</text>
</g>
<!-- Node11 -->
<g id="node11" class="node">
<title>Node11</title>
<g id="a_node11"><a xlink:href="../../d7/d85/classSDK_1_1UClass.html" target="_top" xlink:title=" ">
<polygon fill="white" stroke="black" points="70.5,-0.5 70.5,-90.5 191.5,-90.5 191.5,-0.5 70.5,-0.5"/>
<text text-anchor="middle" x="131" y="-78.5" font-family="Helvetica,sans-Serif" font-size="10.00">SDK::UClass</text>
<polyline fill="none" stroke="black" points="70.5,-71.5 191.5,-71.5 "/>
<text text-anchor="start" x="78.5" y="-59.5" font-family="Helvetica,sans-Serif" font-size="10.00">+ UnknownData00</text>
<text text-anchor="start" x="78.5" y="-48.5" font-family="Helvetica,sans-Serif" font-size="10.00">+ UnknownData01</text>
<polyline fill="none" stroke="black" points="70.5,-41.5 191.5,-41.5 "/>
<text text-anchor="start" x="78.5" y="-29.5" font-family="Helvetica,sans-Serif" font-size="10.00">+ CreateDefaultObject()</text>
<text text-anchor="start" x="78.5" y="-18.5" font-family="Helvetica,sans-Serif" font-size="10.00">+ CreateDefaultObject()</text>
<text text-anchor="start" x="78.5" y="-7.5" font-family="Helvetica,sans-Serif" font-size="10.00">+ StaticClass()</text>
</a>
</g>
</g>
<!-- Node3&#45;&gt;Node11 -->
<g id="edge20" class="edge">
<title>Node3&#45;&gt;Node11</title>
<path fill="none" stroke="#404040" d="M101.97,-599.75C51.24,-558.12 0,-498.89 0,-429.5 0,-429.5 0,-429.5 0,-156 0,-120.34 28.94,-94.01 59.61,-76.12"/>
<polygon fill="none" stroke="#404040" points="59.97,-75.92 63.3,-69.53 70.48,-70.14 67.15,-76.54 59.97,-75.92"/>
<text text-anchor="middle" x="47.5" y="-260.5" font-family="Helvetica,sans-Serif" font-size="10.00"> +ClassDefaultObject</text>
</g>
<!-- Node14 -->
<g id="node14" class="node">
<title>Node14</title>
<g id="a_node14"><a xlink:href="../../de/dd6/classSDK_1_1UField.html" target="_top" xlink:title=" ">
<polygon fill="white" stroke="black" points="159.5,-400 159.5,-457 242.5,-457 242.5,-400 159.5,-400"/>
<text text-anchor="middle" x="201" y="-445" font-family="Helvetica,sans-Serif" font-size="10.00">SDK::UField</text>
<polyline fill="none" stroke="black" points="159.5,-438 242.5,-438 "/>
<text text-anchor="middle" x="201" y="-426" font-family="Helvetica,sans-Serif" font-size="10.00"> </text>
<polyline fill="none" stroke="black" points="159.5,-419 242.5,-419 "/>
<text text-anchor="start" x="167.5" y="-407" font-family="Helvetica,sans-Serif" font-size="10.00">+ StaticClass()</text>
</a>
</g>
</g>
<!-- Node3&#45;&gt;Node14 -->
<g id="edge17" class="edge">
<title>Node3&#45;&gt;Node14</title>
<path fill="none" stroke="midnightblue" d="M201,-533.01C201,-504.27 201,-476.66 201,-457.19"/>
<polygon fill="none" stroke="midnightblue" points="197.5,-533.21 201,-543.21 204.5,-533.21 197.5,-533.21"/>
</g>
<!-- Node4 -->
<g id="node4" class="node">
<title>Node4</title>
<g id="a_node4"><a xlink:href="../../d0/d22/structSDK_1_1FQWord.html" target="_top" xlink:title=" ">
<polygon fill="white" stroke="black" points="45,-885 45,-953 125,-953 125,-885 45,-885"/>
<text text-anchor="middle" x="85" y="-941" font-family="Helvetica,sans-Serif" font-size="10.00">SDK::FQWord</text>
<polyline fill="none" stroke="black" points="45,-934 125,-934 "/>
<text text-anchor="start" x="53" y="-922" font-family="Helvetica,sans-Serif" font-size="10.00">+ A</text>
<text text-anchor="start" x="53" y="-911" font-family="Helvetica,sans-Serif" font-size="10.00">+ B</text>
<polyline fill="none" stroke="black" points="45,-904 125,-904 "/>
<text text-anchor="middle" x="85" y="-892" font-family="Helvetica,sans-Serif" font-size="10.00"> </text>
</a>
</g>
</g>
<!-- Node4&#45;&gt;Node3 -->
<g id="edge3" class="edge">
<title>Node4&#45;&gt;Node3</title>
<path fill="none" stroke="#404040" d="M97.03,-884.8C105.42,-862.31 117.19,-832.07 129,-806 130.05,-803.67 131.13,-801.33 132.22,-798.97"/>
<polygon fill="none" stroke="#404040" points="132.33,-798.73 131.26,-791.6 137.43,-787.87 138.5,-795 132.33,-798.73"/>
<text text-anchor="middle" x="160" y="-820" font-family="Helvetica,sans-Serif" font-size="10.00"> +ObjectFlags</text>
</g>
<!-- Node5 -->
<g id="node5" class="node">
<title>Node5</title>
<g id="a_node5"><a xlink:href="../../d0/db6/structSDK_1_1FName.html" target="_top" xlink:title=" ">
<polygon fill="white" stroke="black" points="258.5,-857.5 258.5,-980.5 365.5,-980.5 365.5,-857.5 258.5,-857.5"/>
<text text-anchor="middle" x="312" y="-968.5" font-family="Helvetica,sans-Serif" font-size="10.00">SDK::FName</text>
<polyline fill="none" stroke="black" points="258.5,-961.5 365.5,-961.5 "/>
<text text-anchor="start" x="266.5" y="-949.5" font-family="Helvetica,sans-Serif" font-size="10.00">+ Index</text>
<text text-anchor="start" x="266.5" y="-938.5" font-family="Helvetica,sans-Serif" font-size="10.00">+ Number</text>
<polyline fill="none" stroke="black" points="258.5,-931.5 365.5,-931.5 "/>
<text text-anchor="start" x="266.5" y="-919.5" font-family="Helvetica,sans-Serif" font-size="10.00">+ FName()</text>
<text text-anchor="start" x="266.5" y="-908.5" font-family="Helvetica,sans-Serif" font-size="10.00">+ FName()</text>
<text text-anchor="start" x="266.5" y="-897.5" font-family="Helvetica,sans-Serif" font-size="10.00">+ FName()</text>
<text text-anchor="start" x="266.5" y="-886.5" font-family="Helvetica,sans-Serif" font-size="10.00">+ GetName()</text>
<text text-anchor="start" x="266.5" y="-875.5" font-family="Helvetica,sans-Serif" font-size="10.00">+ operator==()</text>
<text text-anchor="start" x="266.5" y="-864.5" font-family="Helvetica,sans-Serif" font-size="10.00">+ GetGlobalNames()</text>
</a>
</g>
</g>
<!-- Node5&#45;&gt;Node3 -->
<g id="edge4" class="edge">
<title>Node5&#45;&gt;Node3</title>
<path fill="none" stroke="#404040" d="M289.86,-857.45C283.42,-840.67 276.18,-822.52 269,-806 267.93,-803.54 266.84,-801.06 265.74,-798.57"/>
<polygon fill="none" stroke="#404040" points="265.71,-798.51 259.6,-794.67 260.79,-787.56 266.9,-791.4 265.71,-798.51"/>
<text text-anchor="middle" x="300" y="-820" font-family="Helvetica,sans-Serif" font-size="10.00"> +Name</text>
</g>
<!-- Node6 -->
<g id="node6" class="node">
<title>Node6</title>
<g id="a_node6"><a xlink:href="../../d3/d79/classSDK_1_1TArray.html" target="_top" xlink:title=" ">
<polygon fill="white" stroke="black" points="219,-1163.5 219,-1297.5 399,-1297.5 399,-1163.5 219,-1163.5"/>
<text text-anchor="middle" x="309" y="-1285.5" font-family="Helvetica,sans-Serif" font-size="10.00">SDK::TArray&lt; SDK::FNameEntry * &gt;</text>
<polyline fill="none" stroke="black" points="219,-1278.5 399,-1278.5 "/>
<text text-anchor="start" x="227" y="-1266.5" font-family="Helvetica,sans-Serif" font-size="10.00">&#45; Count</text>
<text text-anchor="start" x="227" y="-1255.5" font-family="Helvetica,sans-Serif" font-size="10.00">&#45; Max</text>
<polyline fill="none" stroke="black" points="219,-1248.5 399,-1248.5 "/>
<text text-anchor="start" x="227" y="-1236.5" font-family="Helvetica,sans-Serif" font-size="10.00">+ TArray()</text>
<text text-anchor="start" x="227" y="-1225.5" font-family="Helvetica,sans-Serif" font-size="10.00">+ Num()</text>
<text text-anchor="start" x="227" y="-1214.5" font-family="Helvetica,sans-Serif" font-size="10.00">+ operator[]()</text>
<text text-anchor="start" x="227" y="-1203.5" font-family="Helvetica,sans-Serif" font-size="10.00">+ operator[]()</text>
<text text-anchor="start" x="227" y="-1192.5" font-family="Helvetica,sans-Serif" font-size="10.00">+ IsValidIndex()</text>
<text text-anchor="start" x="227" y="-1181.5" font-family="Helvetica,sans-Serif" font-size="10.00">+ GetByIndex()</text>
<text text-anchor="start" x="227" y="-1170.5" font-family="Helvetica,sans-Serif" font-size="10.00">+ GetByIndex()</text>
</a>
</g>
</g>
<!-- Node6&#45;&gt;Node5 -->
<g id="edge5" class="edge">
<title>Node6&#45;&gt;Node5</title>
<path fill="none" stroke="#404040" d="M309.64,-1163.48C310.13,-1113.36 310.79,-1044.46 311.29,-992.75"/>
<polygon fill="none" stroke="#404040" points="311.3,-992.66 307.35,-986.62 311.41,-980.66 315.35,-986.7 311.3,-992.66"/>
<text text-anchor="middle" x="336.5" y="-1069.5" font-family="Helvetica,sans-Serif" font-size="10.00"> +GNames</text>
</g>
<!-- Node7 -->
<g id="node7" class="node">
<title>Node7</title>
<g id="a_node7"><a xlink:href="../../d7/ddf/classSDK_1_1FNameEntry.html" target="_top" xlink:title=" ">
<polygon fill="white" stroke="black" points="208.5,-1384 208.5,-1452 307.5,-1452 307.5,-1384 208.5,-1384"/>
<text text-anchor="middle" x="258" y="-1440" font-family="Helvetica,sans-Serif" font-size="10.00">SDK::FNameEntry</text>
<polyline fill="none" stroke="black" points="208.5,-1433 307.5,-1433 "/>
<text text-anchor="start" x="216.5" y="-1421" font-family="Helvetica,sans-Serif" font-size="10.00">+ UnknownData00</text>
<text text-anchor="start" x="216.5" y="-1410" font-family="Helvetica,sans-Serif" font-size="10.00">+ name</text>
<polyline fill="none" stroke="black" points="208.5,-1403 307.5,-1403 "/>
<text text-anchor="start" x="216.5" y="-1391" font-family="Helvetica,sans-Serif" font-size="10.00">+ GetName()</text>
</a>
</g>
</g>
<!-- Node7&#45;&gt;Node6 -->
<g id="edge6" class="edge">
<title>Node7&#45;&gt;Node6</title>
<path fill="none" stroke="#404040" d="M254.04,-1383.64C252.71,-1363.66 252.87,-1337.96 259,-1316 259.64,-1313.72 260.35,-1311.44 261.13,-1309.17"/>
<polygon fill="none" stroke="#404040" points="261.18,-1309.05 259.64,-1302.01 265.55,-1297.88 267.09,-1304.92 261.18,-1309.05"/>
<text text-anchor="middle" x="273" y="-1319" font-family="Helvetica,sans-Serif" font-size="10.00"> &#45;Data</text>
</g>
<!-- Node8 -->
<g id="node8" class="node">
<title>Node8</title>
<g id="a_node8"><a xlink:href="../../d3/d79/classSDK_1_1TArray.html" target="_top" xlink:title=" ">
<polygon fill="white" stroke="black" points="386.5,-1345.5 386.5,-1490.5 483.5,-1490.5 483.5,-1345.5 386.5,-1345.5"/>
<text text-anchor="middle" x="435" y="-1478.5" font-family="Helvetica,sans-Serif" font-size="10.00">SDK::TArray&lt; T &gt;</text>
<polyline fill="none" stroke="black" points="386.5,-1471.5 483.5,-1471.5 "/>
<text text-anchor="start" x="394.5" y="-1459.5" font-family="Helvetica,sans-Serif" font-size="10.00">&#45; Data</text>
<text text-anchor="start" x="394.5" y="-1448.5" font-family="Helvetica,sans-Serif" font-size="10.00">&#45; Count</text>
<text text-anchor="start" x="394.5" y="-1437.5" font-family="Helvetica,sans-Serif" font-size="10.00">&#45; Max</text>
<polyline fill="none" stroke="black" points="386.5,-1430.5 483.5,-1430.5 "/>
<text text-anchor="start" x="394.5" y="-1418.5" font-family="Helvetica,sans-Serif" font-size="10.00">+ TArray()</text>
<text text-anchor="start" x="394.5" y="-1407.5" font-family="Helvetica,sans-Serif" font-size="10.00">+ Num()</text>
<text text-anchor="start" x="394.5" y="-1396.5" font-family="Helvetica,sans-Serif" font-size="10.00">+ operator[]()</text>
<text text-anchor="start" x="394.5" y="-1385.5" font-family="Helvetica,sans-Serif" font-size="10.00">+ operator[]()</text>
<text text-anchor="start" x="394.5" y="-1374.5" font-family="Helvetica,sans-Serif" font-size="10.00">+ IsValidIndex()</text>
<text text-anchor="start" x="394.5" y="-1363.5" font-family="Helvetica,sans-Serif" font-size="10.00">+ GetByIndex()</text>
<text text-anchor="start" x="394.5" y="-1352.5" font-family="Helvetica,sans-Serif" font-size="10.00">+ GetByIndex()</text>
</a>
</g>
</g>
<!-- Node8&#45;&gt;Node6 -->
<g id="edge7" class="edge">
<title>Node8&#45;&gt;Node6</title>
<path fill="none" stroke="orange" d="M377.33,-1390.85C351.84,-1376.02 324.43,-1354.82 310,-1327 305.34,-1318.02 302.85,-1307.9 301.75,-1297.69"/>
<polygon fill="orange" stroke="orange" points="375.8,-1394 386.24,-1395.82 379.21,-1387.89 375.8,-1394"/>
<text text-anchor="middle" x="365.5" y="-1319" font-family="Helvetica,sans-Serif" font-size="10.00"> &lt; SDK::FNameEntry * &gt;</text>
</g>
<!-- Node8&#45;&gt;Node9 -->
<g id="edge11" class="edge">
<title>Node8&#45;&gt;Node9</title>
<path fill="none" stroke="orange" d="M435,-1334.93C435,-1302.68 435,-1265.35 435,-1231.5 435,-1231.5 435,-1231.5 435,-664.5 435,-606.76 421.73,-542.44 409.61,-495.71"/>
<polygon fill="orange" stroke="orange" points="431.5,-1335.21 435,-1345.21 438.5,-1335.21 431.5,-1335.21"/>
<text text-anchor="middle" x="480.5" y="-916.5" font-family="Helvetica,sans-Serif" font-size="10.00"> &lt; SDK::UObject * &gt;</text>
</g>
<!-- Node16 -->
<g id="node16" class="node">
<title>Node16</title>
<g id="a_node16"><a xlink:href="../../d3/d79/classSDK_1_1TArray.html" target="_top" xlink:title=" ">
<polygon fill="white" stroke="black" points="470.5,-999.5 470.5,-1144.5 595.5,-1144.5 595.5,-999.5 470.5,-999.5"/>
<text text-anchor="middle" x="533" y="-1132.5" font-family="Helvetica,sans-Serif" font-size="10.00">SDK::TArray&lt; wchar_t &gt;</text>
<polyline fill="none" stroke="black" points="470.5,-1125.5 595.5,-1125.5 "/>
<text text-anchor="start" x="478.5" y="-1113.5" font-family="Helvetica,sans-Serif" font-size="10.00">&#45; Data</text>
<text text-anchor="start" x="478.5" y="-1102.5" font-family="Helvetica,sans-Serif" font-size="10.00">&#45; Count</text>
<text text-anchor="start" x="478.5" y="-1091.5" font-family="Helvetica,sans-Serif" font-size="10.00">&#45; Max</text>
<polyline fill="none" stroke="black" points="470.5,-1084.5 595.5,-1084.5 "/>
<text text-anchor="start" x="478.5" y="-1072.5" font-family="Helvetica,sans-Serif" font-size="10.00">+ TArray()</text>
<text text-anchor="start" x="478.5" y="-1061.5" font-family="Helvetica,sans-Serif" font-size="10.00">+ Num()</text>
<text text-anchor="start" x="478.5" y="-1050.5" font-family="Helvetica,sans-Serif" font-size="10.00">+ operator[]()</text>
<text text-anchor="start" x="478.5" y="-1039.5" font-family="Helvetica,sans-Serif" font-size="10.00">+ operator[]()</text>
<text text-anchor="start" x="478.5" y="-1028.5" font-family="Helvetica,sans-Serif" font-size="10.00">+ IsValidIndex()</text>
<text text-anchor="start" x="478.5" y="-1017.5" font-family="Helvetica,sans-Serif" font-size="10.00">+ GetByIndex()</text>
<text text-anchor="start" x="478.5" y="-1006.5" font-family="Helvetica,sans-Serif" font-size="10.00">+ GetByIndex()</text>
</a>
</g>
</g>
<!-- Node8&#45;&gt;Node16 -->
<g id="edge23" class="edge">
<title>Node8&#45;&gt;Node16</title>
<path fill="none" stroke="orange" d="M458.24,-1335.44C474.76,-1277.43 496.75,-1200.23 512.6,-1144.6"/>
<polygon fill="orange" stroke="orange" points="454.8,-1334.73 455.42,-1345.31 461.53,-1336.65 454.8,-1334.73"/>
<text text-anchor="middle" x="492" y="-1319" font-family="Helvetica,sans-Serif" font-size="10.00"> &lt; wchar_t &gt;</text>
</g>
<!-- Node9&#45;&gt;Node3 -->
<g id="edge9" class="edge">
<title>Node9&#45;&gt;Node3</title>
<path fill="none" stroke="#404040" d="M336.82,-495.63C327.16,-507.63 316.8,-520.52 306.25,-533.63"/>
<polygon fill="none" stroke="#404040" points="306.07,-533.86 305.42,-541.05 298.54,-543.21 299.19,-536.03 306.07,-533.86"/>
<text text-anchor="middle" x="343.5" y="-517" font-family="Helvetica,sans-Serif" font-size="10.00"> +GObjects</text>
</g>
<!-- Node10 -->
<g id="node10" class="node">
<title>Node10</title>
<g id="a_node10"><a xlink:href="../../d9/dfa/structSDK_1_1FPointer.html" target="_top" xlink:title=" ">
<polygon fill="white" stroke="black" points="143,-885 143,-953 241,-953 241,-885 143,-885"/>
<text text-anchor="middle" x="192" y="-941" font-family="Helvetica,sans-Serif" font-size="10.00">SDK::FPointer</text>
<polyline fill="none" stroke="black" points="143,-934 241,-934 "/>
<text text-anchor="start" x="151" y="-922" font-family="Helvetica,sans-Serif" font-size="10.00">+ Dummy</text>
<text text-anchor="start" x="151" y="-911" font-family="Helvetica,sans-Serif" font-size="10.00">+ UnknownData00</text>
<polyline fill="none" stroke="black" points="143,-904 241,-904 "/>
<text text-anchor="middle" x="192" y="-892" font-family="Helvetica,sans-Serif" font-size="10.00"> </text>
</a>
</g>
</g>
<!-- Node10&#45;&gt;Node3 -->
<g id="edge12" class="edge">
<title>Node10&#45;&gt;Node3</title>
<path fill="none" stroke="#404040" d="M193.19,-884.86C193.98,-862.57 195.09,-831.56 196.23,-799.9"/>
<polygon fill="none" stroke="#404040" points="196.23,-799.74 192.45,-793.6 196.66,-787.75 200.44,-793.89 196.23,-799.74"/>
<text text-anchor="middle" x="230.5" y="-831" font-family="Helvetica,sans-Serif" font-size="10.00"> +StateFrame</text>
<text text-anchor="middle" x="230.5" y="-820" font-family="Helvetica,sans-Serif" font-size="10.00">+VfTableObject</text>
<text text-anchor="middle" x="230.5" y="-809" font-family="Helvetica,sans-Serif" font-size="10.00">+LinkerIndex</text>
</g>
<!-- Node11&#45;&gt;Node3 -->
<g id="edge13" class="edge">
<title>Node11&#45;&gt;Node3</title>
<path fill="none" stroke="#404040" d="M131,-90.72C131,-110.67 131,-134.52 131,-156 131,-429.5 131,-429.5 131,-429.5 131,-463.39 137.77,-498.93 147.1,-531.82"/>
<polygon fill="none" stroke="#404040" points="147.1,-531.82 152.64,-536.44 150.5,-543.33 144.96,-538.71 147.1,-531.82"/>
<text text-anchor="middle" x="148.5" y="-260.5" font-family="Helvetica,sans-Serif" font-size="10.00"> +Class</text>
</g>
<!-- Node12 -->
<g id="node12" class="node">
<title>Node12</title>
<g id="a_node12"><a xlink:href="../../df/d72/classSDK_1_1UState.html" target="_top" xlink:title=" ">
<polygon fill="white" stroke="black" points="171,-128.5 171,-185.5 269,-185.5 269,-128.5 171,-128.5"/>
<text text-anchor="middle" x="220" y="-173.5" font-family="Helvetica,sans-Serif" font-size="10.00">SDK::UState</text>
<polyline fill="none" stroke="black" points="171,-166.5 269,-166.5 "/>
<text text-anchor="start" x="179" y="-154.5" font-family="Helvetica,sans-Serif" font-size="10.00">+ UnknownData00</text>
<polyline fill="none" stroke="black" points="171,-147.5 269,-147.5 "/>
<text text-anchor="start" x="179" y="-135.5" font-family="Helvetica,sans-Serif" font-size="10.00">+ StaticClass()</text>
</a>
</g>
</g>
<!-- Node12&#45;&gt;Node11 -->
<g id="edge14" class="edge">
<title>Node12&#45;&gt;Node11</title>
<path fill="none" stroke="midnightblue" d="M191.01,-120.33C183.33,-110.89 174.95,-100.58 166.96,-90.74"/>
<polygon fill="none" stroke="midnightblue" points="188.52,-122.82 197.54,-128.37 193.95,-118.4 188.52,-122.82"/>
</g>
<!-- Node13 -->
<g id="node13" class="node">
<title>Node13</title>
<g id="a_node13"><a xlink:href="../../d8/de9/classSDK_1_1UStruct.html" target="_top" xlink:title=" ">
<polygon fill="white" stroke="black" points="184,-223.5 184,-302.5 282,-302.5 282,-223.5 184,-223.5"/>
<text text-anchor="middle" x="233" y="-290.5" font-family="Helvetica,sans-Serif" font-size="10.00">SDK::UStruct</text>
<polyline fill="none" stroke="black" points="184,-283.5 282,-283.5 "/>
<text text-anchor="start" x="192" y="-271.5" font-family="Helvetica,sans-Serif" font-size="10.00">+ UnknownData00</text>
<text text-anchor="start" x="192" y="-260.5" font-family="Helvetica,sans-Serif" font-size="10.00">+ PropertySize</text>
<text text-anchor="start" x="192" y="-249.5" font-family="Helvetica,sans-Serif" font-size="10.00">+ UnknownData01</text>
<polyline fill="none" stroke="black" points="184,-242.5 282,-242.5 "/>
<text text-anchor="start" x="192" y="-230.5" font-family="Helvetica,sans-Serif" font-size="10.00">+ StaticClass()</text>
</a>
</g>
</g>
<!-- Node13&#45;&gt;Node12 -->
<g id="edge15" class="edge">
<title>Node13&#45;&gt;Node12</title>
<path fill="none" stroke="midnightblue" d="M226.9,-213.16C225.72,-203.74 224.52,-194.17 223.46,-185.72"/>
<polygon fill="none" stroke="midnightblue" points="223.45,-213.79 228.16,-223.27 230.39,-212.92 223.45,-213.79"/>
</g>
<!-- Node14&#45;&gt;Node13 -->
<g id="edge16" class="edge">
<title>Node14&#45;&gt;Node13</title>
<path fill="none" stroke="midnightblue" d="M221.53,-390.88C228.54,-376.43 235.49,-359.38 239,-343 241.77,-330.09 241.62,-315.75 240.35,-302.87"/>
<polygon fill="none" stroke="midnightblue" points="218.33,-389.46 216.96,-399.97 224.58,-392.61 218.33,-389.46"/>
</g>
<!-- Node14&#45;&gt;Node13 -->
<g id="edge19" class="edge">
<title>Node14&#45;&gt;Node13</title>
<path fill="none" stroke="#404040" d="M186.65,-399.59C177.39,-377.65 168.8,-346.61 179,-321 180.09,-318.28 181.37,-315.61 182.81,-313"/>
<polygon fill="none" stroke="#404040" points="182.98,-312.75 182.9,-305.54 189.53,-302.69 189.6,-309.9 182.98,-312.75"/>
<text text-anchor="middle" x="207" y="-335" font-family="Helvetica,sans-Serif" font-size="10.00"> +SuperField</text>
<text text-anchor="middle" x="207" y="-324" font-family="Helvetica,sans-Serif" font-size="10.00">+Children</text>
</g>
<!-- Node14&#45;&gt;Node14 -->
<g id="edge18" class="edge">
<title>Node14&#45;&gt;Node14</title>
<path fill="none" stroke="#404040" d="M242.71,-445.11C252.91,-443.88 260.5,-438.34 260.5,-428.5 260.5,-422.96 258.1,-418.79 254.18,-415.98"/>
<polygon fill="none" stroke="#404040" points="254.01,-415.92 247.01,-417.67 242.71,-411.89 249.7,-410.13 254.01,-415.92"/>
<text text-anchor="middle" x="276" y="-426" font-family="Helvetica,sans-Serif" font-size="10.00"> +Next</text>
</g>
<!-- Node15 -->
<g id="node15" class="node">
<title>Node15</title>
<g id="a_node15"><a xlink:href="../../d3/d88/classSDK_1_1FString.html" target="_top" xlink:title=" ">
<polygon fill="white" stroke="black" points="516.5,-615 516.5,-716 591.5,-716 591.5,-615 516.5,-615"/>
<text text-anchor="middle" x="554" y="-704" font-family="Helvetica,sans-Serif" font-size="10.00">SDK::FString</text>
<polyline fill="none" stroke="black" points="516.5,-697 591.5,-697 "/>
<text text-anchor="middle" x="554" y="-685" font-family="Helvetica,sans-Serif" font-size="10.00"> </text>
<polyline fill="none" stroke="black" points="516.5,-678 591.5,-678 "/>
<text text-anchor="start" x="524.5" y="-666" font-family="Helvetica,sans-Serif" font-size="10.00">+ FString()</text>
<text text-anchor="start" x="524.5" y="-655" font-family="Helvetica,sans-Serif" font-size="10.00">+ FString()</text>
<text text-anchor="start" x="524.5" y="-644" font-family="Helvetica,sans-Serif" font-size="10.00">+ IsValid()</text>
<text text-anchor="start" x="524.5" y="-633" font-family="Helvetica,sans-Serif" font-size="10.00">+ c_str()</text>
<text text-anchor="start" x="524.5" y="-622" font-family="Helvetica,sans-Serif" font-size="10.00">+ ToString()</text>
</a>
</g>
</g>
<!-- Node15&#45;&gt;Node1 -->
<g id="edge25" class="edge">
<title>Node15&#45;&gt;Node1</title>
<path fill="none" stroke="#404040" d="M575.76,-614.95C589.4,-581.88 606.2,-537.08 616,-496 630.64,-434.63 637.46,-362.16 640.56,-314.75"/>
<polygon fill="none" stroke="#404040" points="640.56,-314.64 636.94,-308.41 641.3,-302.66 644.92,-308.9 640.56,-314.64"/>
<text text-anchor="middle" x="669" y="-426" font-family="Helvetica,sans-Serif" font-size="10.00"> +ParamName</text>
</g>
<!-- Node15&#45;&gt;Node2 -->
<g id="edge21" class="edge">
<title>Node15&#45;&gt;Node2</title>
<path fill="none" stroke="#404040" d="M552.73,-614.95C551.77,-577.2 550.44,-525.19 549.44,-485.86"/>
<polygon fill="none" stroke="#404040" points="549.44,-485.82 545.29,-479.93 549.13,-473.83 553.28,-479.72 549.44,-485.82"/>
<text text-anchor="middle" x="567.5" y="-517" font-family="Helvetica,sans-Serif" font-size="10.00"> +Desc</text>
</g>
<!-- Node16&#45;&gt;Node15 -->
<g id="edge22" class="edge">
<title>Node16&#45;&gt;Node15</title>
<path fill="none" stroke="midnightblue" d="M537.25,-989.13C541.5,-907.27 547.9,-784.06 551.43,-716.03"/>
<polygon fill="none" stroke="midnightblue" points="533.75,-988.98 536.73,-999.15 540.74,-989.34 533.75,-988.98"/>
</g>
<!-- Node17 -->
<g id="node17" class="node">
<title>Node17</title>
<g id="a_node17"><a xlink:href="../../de/d7c/structSDK_1_1FLinearColor.html" target="_top" xlink:title=" ">
<polygon fill="white" stroke="black" points="725.5,-383.5 725.5,-473.5 824.5,-473.5 824.5,-383.5 725.5,-383.5"/>
<text text-anchor="middle" x="775" y="-461.5" font-family="Helvetica,sans-Serif" font-size="10.00">SDK::FLinearColor</text>
<polyline fill="none" stroke="black" points="725.5,-454.5 824.5,-454.5 "/>
<text text-anchor="start" x="733.5" y="-442.5" font-family="Helvetica,sans-Serif" font-size="10.00">+ R</text>
<text text-anchor="start" x="733.5" y="-431.5" font-family="Helvetica,sans-Serif" font-size="10.00">+ G</text>
<text text-anchor="start" x="733.5" y="-420.5" font-family="Helvetica,sans-Serif" font-size="10.00">+ B</text>
<text text-anchor="start" x="733.5" y="-409.5" font-family="Helvetica,sans-Serif" font-size="10.00">+ A</text>
<polyline fill="none" stroke="black" points="725.5,-402.5 824.5,-402.5 "/>
<text text-anchor="middle" x="775" y="-390.5" font-family="Helvetica,sans-Serif" font-size="10.00"> </text>
</a>
</g>
</g>
<!-- Node17&#45;&gt;Node1 -->
<g id="edge24" class="edge">
<title>Node17&#45;&gt;Node1</title>
<path fill="none" stroke="#404040" d="M739.28,-383.25C721.51,-361.24 700,-334.6 681.82,-312.08"/>
<polygon fill="none" stroke="#404040" points="681.79,-312.05 674.91,-309.89 674.25,-302.71 681.14,-304.87 681.79,-312.05"/>
<text text-anchor="middle" x="733.5" y="-335" font-family="Helvetica,sans-Serif" font-size="10.00"> +StartValue</text>
<text text-anchor="middle" x="733.5" y="-324" font-family="Helvetica,sans-Serif" font-size="10.00">+EndValue</text>
</g>
</g>
</svg>
