<?xml version="1.0" encoding="UTF-8" standalone="no"?>
<!DOCTYPE svg PUBLIC "-//W3C//DTD SVG 1.1//EN"
 "http://www.w3.org/Graphics/SVG/1.1/DTD/svg11.dtd">
<!-- Generated by graphviz version 2.41.20171026.1811 (20171026.1811)
 -->
<!-- Title: SDK::UMaterialExpressionFontSampleParameter Pages: 1 -->
<svg width="206pt" height="810pt"
 viewBox="0.00 0.00 206.00 810.00" xmlns="http://www.w3.org/2000/svg" xmlns:xlink="http://www.w3.org/1999/xlink">
<g id="graph0" class="graph" transform="scale(1 1) rotate(0) translate(4 806)">
<title>SDK::UMaterialExpressionFontSampleParameter</title>
<polygon fill="white" stroke="transparent" points="-4,4 -4,-806 202,-806 202,4 -4,4"/>
<!-- Node1 -->
<g id="node1" class="node">
<title>Node1</title>
<g id="a_node1"><a xlink:title=" ">
<polygon fill="#bfbfbf" stroke="black" points="32,-0.5 32,-90.5 166,-90.5 166,-0.5 32,-0.5"/>
<text text-anchor="start" x="40" y="-78.5" font-family="Helvetica,sans-Serif" font-size="10.00">SDK::UMaterialExpression</text>
<text text-anchor="middle" x="99" y="-67.5" font-family="Helvetica,sans-Serif" font-size="10.00">FontSampleParameter</text>
<polyline fill="none" stroke="black" points="32,-60.5 166,-60.5 "/>
<text text-anchor="start" x="40" y="-48.5" font-family="Helvetica,sans-Serif" font-size="10.00">+ ParameterName</text>
<text text-anchor="start" x="40" y="-37.5" font-family="Helvetica,sans-Serif" font-size="10.00">+ ExpressionGUID</text>
<text text-anchor="start" x="40" y="-26.5" font-family="Helvetica,sans-Serif" font-size="10.00">+ Group</text>
<polyline fill="none" stroke="black" points="32,-19.5 166,-19.5 "/>
<text text-anchor="start" x="40" y="-7.5" font-family="Helvetica,sans-Serif" font-size="10.00">+ StaticClass()</text>
</a>
</g>
</g>
<!-- Node2 -->
<g id="node2" class="node">
<title>Node2</title>
<g id="a_node2"><a xlink:href="../../d1/da0/classSDK_1_1UMaterialExpressionFontSample.html" target="_top" xlink:title=" ">
<polygon fill="white" stroke="black" points="32,-127.5 32,-206.5 166,-206.5 166,-127.5 32,-127.5"/>
<text text-anchor="start" x="40" y="-194.5" font-family="Helvetica,sans-Serif" font-size="10.00">SDK::UMaterialExpression</text>
<text text-anchor="middle" x="99" y="-183.5" font-family="Helvetica,sans-Serif" font-size="10.00">FontSample</text>
<polyline fill="none" stroke="black" points="32,-176.5 166,-176.5 "/>
<text text-anchor="start" x="40" y="-164.5" font-family="Helvetica,sans-Serif" font-size="10.00">+ Font</text>
<text text-anchor="start" x="40" y="-153.5" font-family="Helvetica,sans-Serif" font-size="10.00">+ FontTexturePage</text>
<polyline fill="none" stroke="black" points="32,-146.5 166,-146.5 "/>
<text text-anchor="start" x="40" y="-134.5" font-family="Helvetica,sans-Serif" font-size="10.00">+ StaticClass()</text>
</a>
</g>
</g>
<!-- Node2&#45;&gt;Node1 -->
<g id="edge1" class="edge">
<title>Node2&#45;&gt;Node1</title>
<path fill="none" stroke="midnightblue" d="M99,-117.19C99,-108.49 99,-99.48 99,-90.91"/>
<polygon fill="none" stroke="midnightblue" points="95.5,-117.2 99,-127.2 102.5,-117.2 95.5,-117.2"/>
</g>
<!-- Node3 -->
<g id="node3" class="node">
<title>Node3</title>
<g id="a_node3"><a xlink:href="../../d2/d9a/classSDK_1_1UMaterialExpression.html" target="_top" xlink:title=" ">
<polygon fill="white" stroke="black" points="28.5,-243.5 28.5,-410.5 169.5,-410.5 169.5,-243.5 28.5,-243.5"/>
<text text-anchor="middle" x="99" y="-398.5" font-family="Helvetica,sans-Serif" font-size="10.00">SDK::UMaterialExpression</text>
<polyline fill="none" stroke="black" points="28.5,-391.5 169.5,-391.5 "/>
<text text-anchor="start" x="36.5" y="-379.5" font-family="Helvetica,sans-Serif" font-size="10.00">+ EditorX</text>
<text text-anchor="start" x="36.5" y="-368.5" font-family="Helvetica,sans-Serif" font-size="10.00">+ EditorY</text>
<text text-anchor="start" x="36.5" y="-357.5" font-family="Helvetica,sans-Serif" font-size="10.00">+ MaterialExpressionEditorX</text>
<text text-anchor="start" x="36.5" y="-346.5" font-family="Helvetica,sans-Serif" font-size="10.00">+ MaterialExpressionEditorY</text>
<text text-anchor="start" x="36.5" y="-335.5" font-family="Helvetica,sans-Serif" font-size="10.00">+ bRealtimePreview</text>
<text text-anchor="start" x="36.5" y="-324.5" font-family="Helvetica,sans-Serif" font-size="10.00">+ bNeedToUpdatePreview</text>
<text text-anchor="start" x="36.5" y="-313.5" font-family="Helvetica,sans-Serif" font-size="10.00">+ bIsParameterExpression</text>
<text text-anchor="start" x="36.5" y="-302.5" font-family="Helvetica,sans-Serif" font-size="10.00">+ bShowOutputNameOnPin</text>
<text text-anchor="start" x="36.5" y="-291.5" font-family="Helvetica,sans-Serif" font-size="10.00">+ bHidePreviewWindow</text>
<text text-anchor="start" x="36.5" y="-280.5" font-family="Helvetica,sans-Serif" font-size="10.00">+ bShowInputs</text>
<text text-anchor="start" x="36.5" y="-269.5" font-family="Helvetica,sans-Serif" font-size="10.00">and 9 more...</text>
<polyline fill="none" stroke="black" points="28.5,-262.5 169.5,-262.5 "/>
<text text-anchor="start" x="36.5" y="-250.5" font-family="Helvetica,sans-Serif" font-size="10.00">+ StaticClass()</text>
</a>
</g>
</g>
<!-- Node3&#45;&gt;Node2 -->
<g id="edge2" class="edge">
<title>Node3&#45;&gt;Node2</title>
<path fill="none" stroke="midnightblue" d="M99,-233.12C99,-223.81 99,-214.76 99,-206.52"/>
<polygon fill="none" stroke="midnightblue" points="95.5,-233.3 99,-243.3 102.5,-233.3 95.5,-233.3"/>
</g>
<!-- Node4 -->
<g id="node4" class="node">
<title>Node4</title>
<g id="a_node4"><a xlink:href="../../d9/d45/classSDK_1_1UObject.html" target="_top" xlink:title=" ">
<polygon fill="white" stroke="black" points="0,-447.5 0,-801.5 198,-801.5 198,-447.5 0,-447.5"/>
<text text-anchor="middle" x="99" y="-789.5" font-family="Helvetica,sans-Serif" font-size="10.00">SDK::UObject</text>
<polyline fill="none" stroke="black" points="0,-782.5 198,-782.5 "/>
<text text-anchor="start" x="8" y="-770.5" font-family="Helvetica,sans-Serif" font-size="10.00">+ VfTableObject</text>
<text text-anchor="start" x="8" y="-759.5" font-family="Helvetica,sans-Serif" font-size="10.00">+ ObjectFlags</text>
<text text-anchor="start" x="8" y="-748.5" font-family="Helvetica,sans-Serif" font-size="10.00">+ StateFrame</text>
<text text-anchor="start" x="8" y="-737.5" font-family="Helvetica,sans-Serif" font-size="10.00">+ Linker</text>
<text text-anchor="start" x="8" y="-726.5" font-family="Helvetica,sans-Serif" font-size="10.00">+ LinkerIndex</text>
<text text-anchor="start" x="8" y="-715.5" font-family="Helvetica,sans-Serif" font-size="10.00">+ ObjectInternalInteger</text>
<text text-anchor="start" x="8" y="-704.5" font-family="Helvetica,sans-Serif" font-size="10.00">+ NetIndex</text>
<text text-anchor="start" x="8" y="-693.5" font-family="Helvetica,sans-Serif" font-size="10.00">+ Outer</text>
<text text-anchor="start" x="8" y="-682.5" font-family="Helvetica,sans-Serif" font-size="10.00">+ Name</text>
<text text-anchor="start" x="8" y="-671.5" font-family="Helvetica,sans-Serif" font-size="10.00">+ Class</text>
<text text-anchor="start" x="8" y="-660.5" font-family="Helvetica,sans-Serif" font-size="10.00">+ ObjectArchetype</text>
<text text-anchor="start" x="8" y="-649.5" font-family="Helvetica,sans-Serif" font-size="10.00">+ GObjects</text>
<polyline fill="none" stroke="black" points="0,-642.5 198,-642.5 "/>
<text text-anchor="start" x="8" y="-630.5" font-family="Helvetica,sans-Serif" font-size="10.00">+ UObject::GetName()</text>
<text text-anchor="start" x="8" y="-619.5" font-family="Helvetica,sans-Serif" font-size="10.00">+ GetFullName()</text>
<text text-anchor="start" x="8" y="-608.5" font-family="Helvetica,sans-Serif" font-size="10.00">+ IsA()</text>
<text text-anchor="start" x="8" y="-597.5" font-family="Helvetica,sans-Serif" font-size="10.00">+ ProcessEvent()</text>
<text text-anchor="start" x="8" y="-586.5" font-family="Helvetica,sans-Serif" font-size="10.00">+ STATIC_ProfNodeEvent()</text>
<text text-anchor="start" x="8" y="-575.5" font-family="Helvetica,sans-Serif" font-size="10.00">+ STATIC_ProfNodeSetDepthThreshold()</text>
<text text-anchor="start" x="8" y="-564.5" font-family="Helvetica,sans-Serif" font-size="10.00">+ STATIC_ProfNodeSetTimeThreshold</text>
<text text-anchor="start" x="8" y="-553.5" font-family="Helvetica,sans-Serif" font-size="10.00">Seconds()</text>
<text text-anchor="start" x="8" y="-542.5" font-family="Helvetica,sans-Serif" font-size="10.00">+ STATIC_ProfNodeStop()</text>
<text text-anchor="start" x="8" y="-531.5" font-family="Helvetica,sans-Serif" font-size="10.00">+ STATIC_ProfNodeStart()</text>
<text text-anchor="start" x="8" y="-520.5" font-family="Helvetica,sans-Serif" font-size="10.00">+ STATIC_GetStringFromGuid()</text>
<text text-anchor="start" x="8" y="-509.5" font-family="Helvetica,sans-Serif" font-size="10.00">and 298 more...</text>
<text text-anchor="start" x="8" y="-498.5" font-family="Helvetica,sans-Serif" font-size="10.00">+ GetGlobalObjects()</text>
<text text-anchor="start" x="8" y="-487.5" font-family="Helvetica,sans-Serif" font-size="10.00">+ FindObject()</text>
<text text-anchor="start" x="8" y="-476.5" font-family="Helvetica,sans-Serif" font-size="10.00">+ FindClass()</text>
<text text-anchor="start" x="8" y="-465.5" font-family="Helvetica,sans-Serif" font-size="10.00">+ GetObjectCasted()</text>
<text text-anchor="start" x="8" y="-454.5" font-family="Helvetica,sans-Serif" font-size="10.00">+ StaticClass()</text>
</a>
</g>
</g>
<!-- Node4&#45;&gt;Node3 -->
<g id="edge3" class="edge">
<title>Node4&#45;&gt;Node3</title>
<path fill="none" stroke="midnightblue" d="M99,-437.07C99,-428.04 99,-419.23 99,-410.76"/>
<polygon fill="none" stroke="midnightblue" points="95.5,-437.34 99,-447.34 102.5,-437.34 95.5,-437.34"/>
</g>
</g>
</svg>
