<?xml version="1.0" encoding="UTF-8" standalone="no"?>
<!DOCTYPE svg PUBLIC "-//W3C//DTD SVG 1.1//EN"
 "http://www.w3.org/Graphics/SVG/1.1/DTD/svg11.dtd">
<!-- Generated by graphviz version 2.41.20171026.1811 (20171026.1811)
 -->
<!-- Title: SDK::FParticleRandomSeedInfo Pages: 1 -->
<svg width="313pt" height="780pt"
 viewBox="0.00 0.00 312.50 780.00" xmlns="http://www.w3.org/2000/svg" xmlns:xlink="http://www.w3.org/1999/xlink">
<g id="graph0" class="graph" transform="scale(1 1) rotate(0) translate(4 776)">
<title>SDK::FParticleRandomSeedInfo</title>
<polygon fill="white" stroke="transparent" points="-4,4 -4,-776 308.5,-776 308.5,4 -4,4"/>
<!-- Node1 -->
<g id="node1" class="node">
<title>Node1</title>
<g id="a_node1"><a xlink:title=" ">
<polygon fill="#bfbfbf" stroke="black" points="89.5,-0.5 89.5,-90.5 247.5,-90.5 247.5,-0.5 89.5,-0.5"/>
<text text-anchor="middle" x="168.5" y="-78.5" font-family="Helvetica,sans-Serif" font-size="10.00">SDK::FParticleRandomSeedInfo</text>
<polyline fill="none" stroke="black" points="89.5,-71.5 247.5,-71.5 "/>
<text text-anchor="start" x="97.5" y="-59.5" font-family="Helvetica,sans-Serif" font-size="10.00">+ bGetSeedFromInstance</text>
<text text-anchor="start" x="97.5" y="-48.5" font-family="Helvetica,sans-Serif" font-size="10.00">+ bInstanceSeedIsIndex</text>
<text text-anchor="start" x="97.5" y="-37.5" font-family="Helvetica,sans-Serif" font-size="10.00">+ bResetSeedOnEmitterLooping</text>
<text text-anchor="start" x="97.5" y="-26.5" font-family="Helvetica,sans-Serif" font-size="10.00">+ bRandomlySelectSeedArray</text>
<polyline fill="none" stroke="black" points="89.5,-19.5 247.5,-19.5 "/>
<text text-anchor="middle" x="168.5" y="-7.5" font-family="Helvetica,sans-Serif" font-size="10.00"> </text>
</a>
</g>
</g>
<!-- Node2 -->
<g id="node2" class="node">
<title>Node2</title>
<g id="a_node2"><a xlink:href="../../d0/db6/structSDK_1_1FName.html" target="_top" xlink:title=" ">
<polygon fill="white" stroke="black" points="63,-138.5 63,-261.5 170,-261.5 170,-138.5 63,-138.5"/>
<text text-anchor="middle" x="116.5" y="-249.5" font-family="Helvetica,sans-Serif" font-size="10.00">SDK::FName</text>
<polyline fill="none" stroke="black" points="63,-242.5 170,-242.5 "/>
<text text-anchor="start" x="71" y="-230.5" font-family="Helvetica,sans-Serif" font-size="10.00">+ Index</text>
<text text-anchor="start" x="71" y="-219.5" font-family="Helvetica,sans-Serif" font-size="10.00">+ Number</text>
<polyline fill="none" stroke="black" points="63,-212.5 170,-212.5 "/>
<text text-anchor="start" x="71" y="-200.5" font-family="Helvetica,sans-Serif" font-size="10.00">+ FName()</text>
<text text-anchor="start" x="71" y="-189.5" font-family="Helvetica,sans-Serif" font-size="10.00">+ FName()</text>
<text text-anchor="start" x="71" y="-178.5" font-family="Helvetica,sans-Serif" font-size="10.00">+ FName()</text>
<text text-anchor="start" x="71" y="-167.5" font-family="Helvetica,sans-Serif" font-size="10.00">+ GetName()</text>
<text text-anchor="start" x="71" y="-156.5" font-family="Helvetica,sans-Serif" font-size="10.00">+ operator==()</text>
<text text-anchor="start" x="71" y="-145.5" font-family="Helvetica,sans-Serif" font-size="10.00">+ GetGlobalNames()</text>
</a>
</g>
</g>
<!-- Node2&#45;&gt;Node1 -->
<g id="edge1" class="edge">
<title>Node2&#45;&gt;Node1</title>
<path fill="none" stroke="#404040" d="M119.25,-138.05C120.83,-128.15 123.15,-118.15 126.5,-109 127.43,-106.46 128.49,-103.92 129.64,-101.39"/>
<polygon fill="none" stroke="#404040" points="129.76,-101.17 128.95,-94.01 135.25,-90.5 136.06,-97.67 129.76,-101.17"/>
<text text-anchor="middle" x="167" y="-112" font-family="Helvetica,sans-Serif" font-size="10.00"> +ParameterName</text>
</g>
<!-- Node3 -->
<g id="node3" class="node">
<title>Node3</title>
<g id="a_node3"><a xlink:href="../../d3/d79/classSDK_1_1TArray.html" target="_top" xlink:title=" ">
<polygon fill="white" stroke="black" points="10.5,-444.5 10.5,-578.5 190.5,-578.5 190.5,-444.5 10.5,-444.5"/>
<text text-anchor="middle" x="100.5" y="-566.5" font-family="Helvetica,sans-Serif" font-size="10.00">SDK::TArray&lt; SDK::FNameEntry * &gt;</text>
<polyline fill="none" stroke="black" points="10.5,-559.5 190.5,-559.5 "/>
<text text-anchor="start" x="18.5" y="-547.5" font-family="Helvetica,sans-Serif" font-size="10.00">&#45; Count</text>
<text text-anchor="start" x="18.5" y="-536.5" font-family="Helvetica,sans-Serif" font-size="10.00">&#45; Max</text>
<polyline fill="none" stroke="black" points="10.5,-529.5 190.5,-529.5 "/>
<text text-anchor="start" x="18.5" y="-517.5" font-family="Helvetica,sans-Serif" font-size="10.00">+ TArray()</text>
<text text-anchor="start" x="18.5" y="-506.5" font-family="Helvetica,sans-Serif" font-size="10.00">+ Num()</text>
<text text-anchor="start" x="18.5" y="-495.5" font-family="Helvetica,sans-Serif" font-size="10.00">+ operator[]()</text>
<text text-anchor="start" x="18.5" y="-484.5" font-family="Helvetica,sans-Serif" font-size="10.00">+ operator[]()</text>
<text text-anchor="start" x="18.5" y="-473.5" font-family="Helvetica,sans-Serif" font-size="10.00">+ IsValidIndex()</text>
<text text-anchor="start" x="18.5" y="-462.5" font-family="Helvetica,sans-Serif" font-size="10.00">+ GetByIndex()</text>
<text text-anchor="start" x="18.5" y="-451.5" font-family="Helvetica,sans-Serif" font-size="10.00">+ GetByIndex()</text>
</a>
</g>
</g>
<!-- Node3&#45;&gt;Node2 -->
<g id="edge2" class="edge">
<title>Node3&#45;&gt;Node2</title>
<path fill="none" stroke="#404040" d="M103.91,-444.48C106.5,-394.36 110.07,-325.46 112.74,-273.75"/>
<polygon fill="none" stroke="#404040" points="112.74,-273.65 109.06,-267.45 113.36,-261.66 117.05,-267.86 112.74,-273.65"/>
<text text-anchor="middle" x="137" y="-350.5" font-family="Helvetica,sans-Serif" font-size="10.00"> +GNames</text>
</g>
<!-- Node4 -->
<g id="node4" class="node">
<title>Node4</title>
<g id="a_node4"><a xlink:href="../../d7/ddf/classSDK_1_1FNameEntry.html" target="_top" xlink:title=" ">
<polygon fill="white" stroke="black" points="0,-665 0,-733 99,-733 99,-665 0,-665"/>
<text text-anchor="middle" x="49.5" y="-721" font-family="Helvetica,sans-Serif" font-size="10.00">SDK::FNameEntry</text>
<polyline fill="none" stroke="black" points="0,-714 99,-714 "/>
<text text-anchor="start" x="8" y="-702" font-family="Helvetica,sans-Serif" font-size="10.00">+ UnknownData00</text>
<text text-anchor="start" x="8" y="-691" font-family="Helvetica,sans-Serif" font-size="10.00">+ name</text>
<polyline fill="none" stroke="black" points="0,-684 99,-684 "/>
<text text-anchor="start" x="8" y="-672" font-family="Helvetica,sans-Serif" font-size="10.00">+ GetName()</text>
</a>
</g>
</g>
<!-- Node4&#45;&gt;Node3 -->
<g id="edge3" class="edge">
<title>Node4&#45;&gt;Node3</title>
<path fill="none" stroke="#404040" d="M45.54,-664.64C44.21,-644.66 44.37,-618.96 50.5,-597 51.14,-594.72 51.85,-592.44 52.63,-590.17"/>
<polygon fill="none" stroke="#404040" points="52.68,-590.05 51.14,-583.01 57.05,-578.88 58.59,-585.92 52.68,-590.05"/>
<text text-anchor="middle" x="64.5" y="-600" font-family="Helvetica,sans-Serif" font-size="10.00"> &#45;Data</text>
</g>
<!-- Node5 -->
<g id="node5" class="node">
<title>Node5</title>
<g id="a_node5"><a xlink:href="../../d3/d79/classSDK_1_1TArray.html" target="_top" xlink:title=" ">
<polygon fill="white" stroke="black" points="151,-626.5 151,-771.5 248,-771.5 248,-626.5 151,-626.5"/>
<text text-anchor="middle" x="199.5" y="-759.5" font-family="Helvetica,sans-Serif" font-size="10.00">SDK::TArray&lt; T &gt;</text>
<polyline fill="none" stroke="black" points="151,-752.5 248,-752.5 "/>
<text text-anchor="start" x="159" y="-740.5" font-family="Helvetica,sans-Serif" font-size="10.00">&#45; Data</text>
<text text-anchor="start" x="159" y="-729.5" font-family="Helvetica,sans-Serif" font-size="10.00">&#45; Count</text>
<text text-anchor="start" x="159" y="-718.5" font-family="Helvetica,sans-Serif" font-size="10.00">&#45; Max</text>
<polyline fill="none" stroke="black" points="151,-711.5 248,-711.5 "/>
<text text-anchor="start" x="159" y="-699.5" font-family="Helvetica,sans-Serif" font-size="10.00">+ TArray()</text>
<text text-anchor="start" x="159" y="-688.5" font-family="Helvetica,sans-Serif" font-size="10.00">+ Num()</text>
<text text-anchor="start" x="159" y="-677.5" font-family="Helvetica,sans-Serif" font-size="10.00">+ operator[]()</text>
<text text-anchor="start" x="159" y="-666.5" font-family="Helvetica,sans-Serif" font-size="10.00">+ operator[]()</text>
<text text-anchor="start" x="159" y="-655.5" font-family="Helvetica,sans-Serif" font-size="10.00">+ IsValidIndex()</text>
<text text-anchor="start" x="159" y="-644.5" font-family="Helvetica,sans-Serif" font-size="10.00">+ GetByIndex()</text>
<text text-anchor="start" x="159" y="-633.5" font-family="Helvetica,sans-Serif" font-size="10.00">+ GetByIndex()</text>
</a>
</g>
</g>
<!-- Node5&#45;&gt;Node3 -->
<g id="edge4" class="edge">
<title>Node5&#45;&gt;Node3</title>
<path fill="none" stroke="orange" d="M142.77,-659.94C126.36,-645.75 110.47,-628.13 101.5,-608 97.45,-598.91 95.24,-588.84 94.24,-578.74"/>
<polygon fill="orange" stroke="orange" points="140.91,-662.94 150.84,-666.63 145.37,-657.55 140.91,-662.94"/>
<text text-anchor="middle" x="157" y="-600" font-family="Helvetica,sans-Serif" font-size="10.00"> &lt; SDK::FNameEntry * &gt;</text>
</g>
<!-- Node6 -->
<g id="node6" class="node">
<title>Node6</title>
<g id="a_node6"><a xlink:href="../../d3/d79/classSDK_1_1TArray.html" target="_top" xlink:title=" ">
<polygon fill="white" stroke="black" points="176,-280.5 176,-425.5 277,-425.5 277,-280.5 176,-280.5"/>
<text text-anchor="middle" x="226.5" y="-413.5" font-family="Helvetica,sans-Serif" font-size="10.00">SDK::TArray&lt; int &gt;</text>
<polyline fill="none" stroke="black" points="176,-406.5 277,-406.5 "/>
<text text-anchor="start" x="184" y="-394.5" font-family="Helvetica,sans-Serif" font-size="10.00">&#45; Data</text>
<text text-anchor="start" x="184" y="-383.5" font-family="Helvetica,sans-Serif" font-size="10.00">&#45; Count</text>
<text text-anchor="start" x="184" y="-372.5" font-family="Helvetica,sans-Serif" font-size="10.00">&#45; Max</text>
<polyline fill="none" stroke="black" points="176,-365.5 277,-365.5 "/>
<text text-anchor="start" x="184" y="-353.5" font-family="Helvetica,sans-Serif" font-size="10.00">+ TArray()</text>
<text text-anchor="start" x="184" y="-342.5" font-family="Helvetica,sans-Serif" font-size="10.00">+ Num()</text>
<text text-anchor="start" x="184" y="-331.5" font-family="Helvetica,sans-Serif" font-size="10.00">+ operator[]()</text>
<text text-anchor="start" x="184" y="-320.5" font-family="Helvetica,sans-Serif" font-size="10.00">+ operator[]()</text>
<text text-anchor="start" x="184" y="-309.5" font-family="Helvetica,sans-Serif" font-size="10.00">+ IsValidIndex()</text>
<text text-anchor="start" x="184" y="-298.5" font-family="Helvetica,sans-Serif" font-size="10.00">+ GetByIndex()</text>
<text text-anchor="start" x="184" y="-287.5" font-family="Helvetica,sans-Serif" font-size="10.00">+ GetByIndex()</text>
</a>
</g>
</g>
<!-- Node5&#45;&gt;Node6 -->
<g id="edge6" class="edge">
<title>Node5&#45;&gt;Node6</title>
<path fill="none" stroke="orange" d="M211.63,-616.23C211.94,-613.45 212.23,-610.7 212.5,-608 218.62,-546.58 222.23,-476.53 224.24,-425.57"/>
<polygon fill="orange" stroke="orange" points="208.13,-616.01 210.43,-626.35 215.08,-616.83 208.13,-616.01"/>
<text text-anchor="middle" x="229.5" y="-600" font-family="Helvetica,sans-Serif" font-size="10.00"> &lt; int &gt;</text>
</g>
<!-- Node6&#45;&gt;Node1 -->
<g id="edge5" class="edge">
<title>Node6&#45;&gt;Node1</title>
<path fill="none" stroke="#404040" d="M229.75,-280.33C229.87,-230.99 225.79,-164.57 207.5,-109 206.7,-106.58 205.79,-104.16 204.8,-101.75"/>
<polygon fill="none" stroke="#404040" points="204.67,-101.48 198.49,-97.76 199.55,-90.63 205.73,-94.35 204.67,-101.48"/>
<text text-anchor="middle" x="267.5" y="-197.5" font-family="Helvetica,sans-Serif" font-size="10.00"> +RandomSeeds</text>
</g>
</g>
</svg>
