<?xml version="1.0" encoding="UTF-8" standalone="no"?>
<!DOCTYPE svg PUBLIC "-//W3C//DTD SVG 1.1//EN"
 "http://www.w3.org/Graphics/SVG/1.1/DTD/svg11.dtd">
<!-- Generated by graphviz version 2.41.20171026.1811 (20171026.1811)
 -->
<!-- Title: SDK::URB_StayUprightSetup Pages: 1 -->
<!--zoomable 1474 -->
<svg id="main" version="1.1" xmlns="http://www.w3.org/2000/svg" xmlns:xlink="http://www.w3.org/1999/xlink" xml:space="preserve" onload="init(evt)">
<style type="text/css"><![CDATA[
.edge:hover path { stroke: red; }
.edge:hover polygon { stroke: red; fill: red; }
]]></style>
<script type="text/javascript"><![CDATA[
var edges = document.getElementsByTagName('g');
if (edges && edges.length) {
  for (var i=0;i<edges.length;i++) {
    if (edges[i].id.substr(0,4)=='edge') {
      edges[i].setAttribute('class','edge');
    }
  }
}
]]></script>
        <defs>
                <circle id="rim" cx="0" cy="0" r="7"/>
                <circle id="rim2" cx="0" cy="0" r="3.5"/>
                <g id="zoomPlus">
                        <use xlink:href="#rim" fill="#404040">
                                <set attributeName="fill" to="#808080" begin="zoomplus.mouseover" end="zoomplus.mouseout"/>
                        </use>
                        <path d="M-4,0h8M0,-4v8" fill="none" stroke="white" stroke-width="1.5" pointer-events="none"/>
                </g>
                <g id="zoomMin">
                        <use xlink:href="#rim" fill="#404040">
                                <set attributeName="fill" to="#808080" begin="zoomminus.mouseover" end="zoomminus.mouseout"/>
                        </use>
                        <path d="M-4,0h8" fill="none" stroke="white" stroke-width="1.5" pointer-events="none"/>
                </g>
                <g id="dirArrow">
                        <path fill="none" stroke="white" stroke-width="1.5" d="M0,-3.0v7 M-2.5,-0.5L0,-3.0L2.5,-0.5"/>
                </g>
               <g id="resetDef">
                       <use xlink:href="#rim2" fill="#404040">
                               <set attributeName="fill" to="#808080" begin="reset.mouseover" end="reset.mouseout"/>
                       </use>
               </g>
        </defs>

<script type="text/javascript">
var viewWidth = 764;
var viewHeight = 1474;
var sectionId = 'dynsection-1';
</script>
<script xlink:href="../../svgpan.js"/>
<svg id="graph" class="graph">
<g id="viewport">
<title>SDK::URB_StayUprightSetup</title>
<polygon fill="white" stroke="transparent" points="-4,4 -4,-1470 759.5,-1470 759.5,4 -4,4"/>
<!-- Node1 -->
<g id="node1" class="node">
<title>Node1</title>
<g id="a_node1"><a xlink:title=" ">
<polygon fill="#bfbfbf" stroke="black" points="503.5,-234.5 503.5,-291.5 651.5,-291.5 651.5,-234.5 503.5,-234.5"/>
<text text-anchor="middle" x="577.5" y="-279.5" font-family="Helvetica,sans-Serif" font-size="10.00">SDK::URB_StayUprightSetup</text>
<polyline fill="none" stroke="black" points="503.5,-272.5 651.5,-272.5 "/>
<text text-anchor="middle" x="577.5" y="-260.5" font-family="Helvetica,sans-Serif" font-size="10.00"> </text>
<polyline fill="none" stroke="black" points="503.5,-253.5 651.5,-253.5 "/>
<text text-anchor="start" x="511.5" y="-241.5" font-family="Helvetica,sans-Serif" font-size="10.00">+ StaticClass()</text>
</a>
</g>
</g>
<!-- Node2 -->
<g id="node2" class="node">
<title>Node2</title>
<g id="a_node2"><a xlink:href="../../d4/d2f/classSDK_1_1URB__ConstraintSetup.html" target="_top" xlink:title=" ">
<polygon fill="white" stroke="black" points="507,-361.5 507,-528.5 648,-528.5 648,-361.5 507,-361.5"/>
<text text-anchor="middle" x="577.5" y="-516.5" font-family="Helvetica,sans-Serif" font-size="10.00">SDK::URB_ConstraintSetup</text>
<polyline fill="none" stroke="black" points="507,-509.5 648,-509.5 "/>
<text text-anchor="start" x="515" y="-497.5" font-family="Helvetica,sans-Serif" font-size="10.00">+ bEnableProjection</text>
<text text-anchor="start" x="515" y="-486.5" font-family="Helvetica,sans-Serif" font-size="10.00">+ bLinearLimitSoft</text>
<text text-anchor="start" x="515" y="-475.5" font-family="Helvetica,sans-Serif" font-size="10.00">+ bLinearBreakable</text>
<text text-anchor="start" x="515" y="-464.5" font-family="Helvetica,sans-Serif" font-size="10.00">+ bSwingLimited</text>
<text text-anchor="start" x="515" y="-453.5" font-family="Helvetica,sans-Serif" font-size="10.00">+ bTwistLimited</text>
<text text-anchor="start" x="515" y="-442.5" font-family="Helvetica,sans-Serif" font-size="10.00">+ bSwingLimitSoft</text>
<text text-anchor="start" x="515" y="-431.5" font-family="Helvetica,sans-Serif" font-size="10.00">+ bTwistLimitSoft</text>
<text text-anchor="start" x="515" y="-420.5" font-family="Helvetica,sans-Serif" font-size="10.00">+ bAngularBreakable</text>
<text text-anchor="start" x="515" y="-409.5" font-family="Helvetica,sans-Serif" font-size="10.00">+ bIsPulley</text>
<text text-anchor="start" x="515" y="-398.5" font-family="Helvetica,sans-Serif" font-size="10.00">+ bMaintainMinDistance</text>
<text text-anchor="start" x="515" y="-387.5" font-family="Helvetica,sans-Serif" font-size="10.00">and 12 more...</text>
<polyline fill="none" stroke="black" points="507,-380.5 648,-380.5 "/>
<text text-anchor="start" x="515" y="-368.5" font-family="Helvetica,sans-Serif" font-size="10.00">+ StaticClass()</text>
</a>
</g>
</g>
<!-- Node2&#45;&gt;Node1 -->
<g id="edge1" class="edge">
<title>Node2&#45;&gt;Node1</title>
<path fill="none" stroke="midnightblue" d="M577.5,-351.34C577.5,-329.48 577.5,-307.83 577.5,-291.56"/>
<polygon fill="none" stroke="midnightblue" points="574,-351.38 577.5,-361.38 581,-351.38 574,-351.38"/>
</g>
<!-- Node3 -->
<g id="node3" class="node">
<title>Node3</title>
<g id="a_node3"><a xlink:href="../../d9/d45/classSDK_1_1UObject.html" target="_top" xlink:title=" ">
<polygon fill="white" stroke="black" points="106.5,-653.5 106.5,-897.5 304.5,-897.5 304.5,-653.5 106.5,-653.5"/>
<text text-anchor="middle" x="205.5" y="-885.5" font-family="Helvetica,sans-Serif" font-size="10.00">SDK::UObject</text>
<polyline fill="none" stroke="black" points="106.5,-878.5 304.5,-878.5 "/>
<text text-anchor="start" x="114.5" y="-866.5" font-family="Helvetica,sans-Serif" font-size="10.00">+ ObjectInternalInteger</text>
<text text-anchor="start" x="114.5" y="-855.5" font-family="Helvetica,sans-Serif" font-size="10.00">+ NetIndex</text>
<polyline fill="none" stroke="black" points="106.5,-848.5 304.5,-848.5 "/>
<text text-anchor="start" x="114.5" y="-836.5" font-family="Helvetica,sans-Serif" font-size="10.00">+ UObject::GetName()</text>
<text text-anchor="start" x="114.5" y="-825.5" font-family="Helvetica,sans-Serif" font-size="10.00">+ GetFullName()</text>
<text text-anchor="start" x="114.5" y="-814.5" font-family="Helvetica,sans-Serif" font-size="10.00">+ IsA()</text>
<text text-anchor="start" x="114.5" y="-803.5" font-family="Helvetica,sans-Serif" font-size="10.00">+ ProcessEvent()</text>
<text text-anchor="start" x="114.5" y="-792.5" font-family="Helvetica,sans-Serif" font-size="10.00">+ STATIC_ProfNodeEvent()</text>
<text text-anchor="start" x="114.5" y="-781.5" font-family="Helvetica,sans-Serif" font-size="10.00">+ STATIC_ProfNodeSetDepthThreshold()</text>
<text text-anchor="start" x="114.5" y="-770.5" font-family="Helvetica,sans-Serif" font-size="10.00">+ STATIC_ProfNodeSetTimeThreshold</text>
<text text-anchor="start" x="114.5" y="-759.5" font-family="Helvetica,sans-Serif" font-size="10.00">Seconds()</text>
<text text-anchor="start" x="114.5" y="-748.5" font-family="Helvetica,sans-Serif" font-size="10.00">+ STATIC_ProfNodeStop()</text>
<text text-anchor="start" x="114.5" y="-737.5" font-family="Helvetica,sans-Serif" font-size="10.00">+ STATIC_ProfNodeStart()</text>
<text text-anchor="start" x="114.5" y="-726.5" font-family="Helvetica,sans-Serif" font-size="10.00">+ STATIC_GetStringFromGuid()</text>
<text text-anchor="start" x="114.5" y="-715.5" font-family="Helvetica,sans-Serif" font-size="10.00">and 298 more...</text>
<text text-anchor="start" x="114.5" y="-704.5" font-family="Helvetica,sans-Serif" font-size="10.00">+ GetGlobalObjects()</text>
<text text-anchor="start" x="114.5" y="-693.5" font-family="Helvetica,sans-Serif" font-size="10.00">+ FindObject()</text>
<text text-anchor="start" x="114.5" y="-682.5" font-family="Helvetica,sans-Serif" font-size="10.00">+ FindClass()</text>
<text text-anchor="start" x="114.5" y="-671.5" font-family="Helvetica,sans-Serif" font-size="10.00">+ GetObjectCasted()</text>
<text text-anchor="start" x="114.5" y="-660.5" font-family="Helvetica,sans-Serif" font-size="10.00">+ StaticClass()</text>
</a>
</g>
</g>
<!-- Node3&#45;&gt;Node2 -->
<g id="edge2" class="edge">
<title>Node3&#45;&gt;Node2</title>
<path fill="none" stroke="midnightblue" d="M312.63,-687.07C333.27,-669.94 354.64,-652.01 374.5,-635 419.21,-596.7 427.55,-583.8 473.5,-547 484.19,-538.44 488.18,-538 498.5,-529 501.2,-526.65 503.91,-524.21 506.62,-521.72"/>
<polygon fill="none" stroke="midnightblue" points="310.22,-684.52 304.75,-693.59 314.69,-689.91 310.22,-684.52"/>
</g>
<!-- Node3&#45;&gt;Node3 -->
<g id="edge8" class="edge">
<title>Node3&#45;&gt;Node3</title>
<path fill="none" stroke="#404040" d="M304.51,-800.11C315.44,-795.43 322.5,-787.23 322.5,-775.5 322.5,-768.17 319.74,-762.22 315.01,-757.64"/>
<polygon fill="none" stroke="#404040" points="314.61,-757.38 307.4,-757.5 304.51,-750.89 311.72,-750.77 314.61,-757.38"/>
<text text-anchor="middle" x="362" y="-784" font-family="Helvetica,sans-Serif" font-size="10.00"> +Outer</text>
<text text-anchor="middle" x="362" y="-773" font-family="Helvetica,sans-Serif" font-size="10.00">+Linker</text>
<text text-anchor="middle" x="362" y="-762" font-family="Helvetica,sans-Serif" font-size="10.00">+ObjectArchetype</text>
</g>
<!-- Node9 -->
<g id="node9" class="node">
<title>Node9</title>
<g id="a_node9"><a xlink:href="../../d3/d79/classSDK_1_1TArray.html" target="_top" xlink:title=" ">
<polygon fill="white" stroke="black" points="0,-378 0,-512 161,-512 161,-378 0,-378"/>
<text text-anchor="middle" x="80.5" y="-500" font-family="Helvetica,sans-Serif" font-size="10.00">SDK::TArray&lt; SDK::UObject * &gt;</text>
<polyline fill="none" stroke="black" points="0,-493 161,-493 "/>
<text text-anchor="start" x="8" y="-481" font-family="Helvetica,sans-Serif" font-size="10.00">&#45; Count</text>
<text text-anchor="start" x="8" y="-470" font-family="Helvetica,sans-Serif" font-size="10.00">&#45; Max</text>
<polyline fill="none" stroke="black" points="0,-463 161,-463 "/>
<text text-anchor="start" x="8" y="-451" font-family="Helvetica,sans-Serif" font-size="10.00">+ TArray()</text>
<text text-anchor="start" x="8" y="-440" font-family="Helvetica,sans-Serif" font-size="10.00">+ Num()</text>
<text text-anchor="start" x="8" y="-429" font-family="Helvetica,sans-Serif" font-size="10.00">+ operator[]()</text>
<text text-anchor="start" x="8" y="-418" font-family="Helvetica,sans-Serif" font-size="10.00">+ operator[]()</text>
<text text-anchor="start" x="8" y="-407" font-family="Helvetica,sans-Serif" font-size="10.00">+ IsValidIndex()</text>
<text text-anchor="start" x="8" y="-396" font-family="Helvetica,sans-Serif" font-size="10.00">+ GetByIndex()</text>
<text text-anchor="start" x="8" y="-385" font-family="Helvetica,sans-Serif" font-size="10.00">+ GetByIndex()</text>
</a>
</g>
</g>
<!-- Node3&#45;&gt;Node9 -->
<g id="edge10" class="edge">
<title>Node3&#45;&gt;Node9</title>
<path fill="none" stroke="#404040" d="M161.35,-653.36C159.33,-647.17 157.36,-641.02 155.5,-635 143.56,-596.38 146.95,-584.75 132.5,-547 129.51,-539.18 126.07,-531.17 122.43,-523.25"/>
<polygon fill="none" stroke="#404040" points="122.31,-522.99 116.12,-519.28 117.16,-512.15 123.35,-515.85 122.31,-522.99"/>
<text text-anchor="middle" x="169.5" y="-588.5" font-family="Helvetica,sans-Serif" font-size="10.00"> &#45;Data</text>
</g>
<!-- Node11 -->
<g id="node11" class="node">
<title>Node11</title>
<g id="a_node11"><a xlink:href="../../d7/d85/classSDK_1_1UClass.html" target="_top" xlink:title=" ">
<polygon fill="white" stroke="black" points="268,-0.5 268,-90.5 389,-90.5 389,-0.5 268,-0.5"/>
<text text-anchor="middle" x="328.5" y="-78.5" font-family="Helvetica,sans-Serif" font-size="10.00">SDK::UClass</text>
<polyline fill="none" stroke="black" points="268,-71.5 389,-71.5 "/>
<text text-anchor="start" x="276" y="-59.5" font-family="Helvetica,sans-Serif" font-size="10.00">+ UnknownData00</text>
<text text-anchor="start" x="276" y="-48.5" font-family="Helvetica,sans-Serif" font-size="10.00">+ UnknownData01</text>
<polyline fill="none" stroke="black" points="268,-41.5 389,-41.5 "/>
<text text-anchor="start" x="276" y="-29.5" font-family="Helvetica,sans-Serif" font-size="10.00">+ CreateDefaultObject()</text>
<text text-anchor="start" x="276" y="-18.5" font-family="Helvetica,sans-Serif" font-size="10.00">+ CreateDefaultObject()</text>
<text text-anchor="start" x="276" y="-7.5" font-family="Helvetica,sans-Serif" font-size="10.00">+ StaticClass()</text>
</a>
</g>
</g>
<!-- Node3&#45;&gt;Node11 -->
<g id="edge20" class="edge">
<title>Node3&#45;&gt;Node11</title>
<path fill="none" stroke="#404040" d="M201.14,-653.22C199.27,-591.24 197.5,-514.6 197.5,-446 197.5,-446 197.5,-446 197.5,-156 197.5,-120.34 226.44,-94.01 257.11,-76.12"/>
<polygon fill="none" stroke="#404040" points="257.47,-75.92 260.8,-69.53 267.98,-70.14 264.65,-76.54 257.47,-75.92"/>
<text text-anchor="middle" x="245" y="-260.5" font-family="Helvetica,sans-Serif" font-size="10.00"> +ClassDefaultObject</text>
</g>
<!-- Node14 -->
<g id="node14" class="node">
<title>Node14</title>
<g id="a_node14"><a xlink:href="../../de/dd6/classSDK_1_1UField.html" target="_top" xlink:title=" ">
<polygon fill="white" stroke="black" points="357,-416.5 357,-473.5 440,-473.5 440,-416.5 357,-416.5"/>
<text text-anchor="middle" x="398.5" y="-461.5" font-family="Helvetica,sans-Serif" font-size="10.00">SDK::UField</text>
<polyline fill="none" stroke="black" points="357,-454.5 440,-454.5 "/>
<text text-anchor="middle" x="398.5" y="-442.5" font-family="Helvetica,sans-Serif" font-size="10.00"> </text>
<polyline fill="none" stroke="black" points="357,-435.5 440,-435.5 "/>
<text text-anchor="start" x="365" y="-423.5" font-family="Helvetica,sans-Serif" font-size="10.00">+ StaticClass()</text>
</a>
</g>
</g>
<!-- Node3&#45;&gt;Node14 -->
<g id="edge17" class="edge">
<title>Node3&#45;&gt;Node14</title>
<path fill="none" stroke="midnightblue" d="M311.14,-678.48C322.8,-664.69 333.63,-650.05 342.5,-635 373.32,-582.66 388.33,-512.04 394.63,-473.65"/>
<polygon fill="none" stroke="midnightblue" points="308.48,-676.19 304.58,-686.04 313.78,-680.78 308.48,-676.19"/>
</g>
<!-- Node4 -->
<g id="node4" class="node">
<title>Node4</title>
<g id="a_node4"><a xlink:href="../../d0/d22/structSDK_1_1FQWord.html" target="_top" xlink:title=" ">
<polygon fill="white" stroke="black" points="156.5,-995 156.5,-1063 236.5,-1063 236.5,-995 156.5,-995"/>
<text text-anchor="middle" x="196.5" y="-1051" font-family="Helvetica,sans-Serif" font-size="10.00">SDK::FQWord</text>
<polyline fill="none" stroke="black" points="156.5,-1044 236.5,-1044 "/>
<text text-anchor="start" x="164.5" y="-1032" font-family="Helvetica,sans-Serif" font-size="10.00">+ A</text>
<text text-anchor="start" x="164.5" y="-1021" font-family="Helvetica,sans-Serif" font-size="10.00">+ B</text>
<polyline fill="none" stroke="black" points="156.5,-1014 236.5,-1014 "/>
<text text-anchor="middle" x="196.5" y="-1002" font-family="Helvetica,sans-Serif" font-size="10.00"> </text>
</a>
</g>
</g>
<!-- Node4&#45;&gt;Node3 -->
<g id="edge3" class="edge">
<title>Node4&#45;&gt;Node3</title>
<path fill="none" stroke="#404040" d="M197.69,-994.86C198.48,-972.57 199.59,-941.56 200.73,-909.9"/>
<polygon fill="none" stroke="#404040" points="200.73,-909.74 196.95,-903.6 201.16,-897.75 204.94,-903.89 200.73,-909.74"/>
<text text-anchor="middle" x="231.5" y="-930" font-family="Helvetica,sans-Serif" font-size="10.00"> +ObjectFlags</text>
</g>
<!-- Node5 -->
<g id="node5" class="node">
<title>Node5</title>
<g id="a_node5"><a xlink:href="../../d0/db6/structSDK_1_1FName.html" target="_top" xlink:title=" ">
<polygon fill="white" stroke="black" points="370,-967.5 370,-1090.5 477,-1090.5 477,-967.5 370,-967.5"/>
<text text-anchor="middle" x="423.5" y="-1078.5" font-family="Helvetica,sans-Serif" font-size="10.00">SDK::FName</text>
<polyline fill="none" stroke="black" points="370,-1071.5 477,-1071.5 "/>
<text text-anchor="start" x="378" y="-1059.5" font-family="Helvetica,sans-Serif" font-size="10.00">+ Index</text>
<text text-anchor="start" x="378" y="-1048.5" font-family="Helvetica,sans-Serif" font-size="10.00">+ Number</text>
<polyline fill="none" stroke="black" points="370,-1041.5 477,-1041.5 "/>
<text text-anchor="start" x="378" y="-1029.5" font-family="Helvetica,sans-Serif" font-size="10.00">+ FName()</text>
<text text-anchor="start" x="378" y="-1018.5" font-family="Helvetica,sans-Serif" font-size="10.00">+ FName()</text>
<text text-anchor="start" x="378" y="-1007.5" font-family="Helvetica,sans-Serif" font-size="10.00">+ FName()</text>
<text text-anchor="start" x="378" y="-996.5" font-family="Helvetica,sans-Serif" font-size="10.00">+ GetName()</text>
<text text-anchor="start" x="378" y="-985.5" font-family="Helvetica,sans-Serif" font-size="10.00">+ operator==()</text>
<text text-anchor="start" x="378" y="-974.5" font-family="Helvetica,sans-Serif" font-size="10.00">+ GetGlobalNames()</text>
</a>
</g>
</g>
<!-- Node5&#45;&gt;Node2 -->
<g id="edge21" class="edge">
<title>Node5&#45;&gt;Node2</title>
<path fill="none" stroke="#404040" d="M477.02,-988.77C504.13,-965.65 534.6,-933.92 550.5,-898 577.78,-836.36 580.63,-654.45 579.53,-541.08"/>
<polygon fill="none" stroke="#404040" points="579.53,-540.97 575.47,-535.01 579.4,-528.97 583.47,-534.92 579.53,-540.97"/>
<text text-anchor="middle" x="619.5" y="-784" font-family="Helvetica,sans-Serif" font-size="10.00"> +ConstraintBone1</text>
<text text-anchor="middle" x="619.5" y="-773" font-family="Helvetica,sans-Serif" font-size="10.00">+ConstraintBone2</text>
<text text-anchor="middle" x="619.5" y="-762" font-family="Helvetica,sans-Serif" font-size="10.00">+JointName</text>
</g>
<!-- Node5&#45;&gt;Node3 -->
<g id="edge4" class="edge">
<title>Node5&#45;&gt;Node3</title>
<path fill="none" stroke="#404040" d="M388.27,-967.46C377.28,-950.24 364.59,-931.87 351.5,-916 339.79,-901.8 326.74,-887.56 313.39,-873.89"/>
<polygon fill="none" stroke="#404040" points="313.03,-873.53 305.97,-872.07 304.59,-865 311.66,-866.45 313.03,-873.53"/>
<text text-anchor="middle" x="394.5" y="-930" font-family="Helvetica,sans-Serif" font-size="10.00"> +Name</text>
</g>
<!-- Node6 -->
<g id="node6" class="node">
<title>Node6</title>
<g id="a_node6"><a xlink:href="../../d3/d79/classSDK_1_1TArray.html" target="_top" xlink:title=" ">
<polygon fill="white" stroke="black" points="280.5,-1138.5 280.5,-1272.5 460.5,-1272.5 460.5,-1138.5 280.5,-1138.5"/>
<text text-anchor="middle" x="370.5" y="-1260.5" font-family="Helvetica,sans-Serif" font-size="10.00">SDK::TArray&lt; SDK::FNameEntry * &gt;</text>
<polyline fill="none" stroke="black" points="280.5,-1253.5 460.5,-1253.5 "/>
<text text-anchor="start" x="288.5" y="-1241.5" font-family="Helvetica,sans-Serif" font-size="10.00">&#45; Count</text>
<text text-anchor="start" x="288.5" y="-1230.5" font-family="Helvetica,sans-Serif" font-size="10.00">&#45; Max</text>
<polyline fill="none" stroke="black" points="280.5,-1223.5 460.5,-1223.5 "/>
<text text-anchor="start" x="288.5" y="-1211.5" font-family="Helvetica,sans-Serif" font-size="10.00">+ TArray()</text>
<text text-anchor="start" x="288.5" y="-1200.5" font-family="Helvetica,sans-Serif" font-size="10.00">+ Num()</text>
<text text-anchor="start" x="288.5" y="-1189.5" font-family="Helvetica,sans-Serif" font-size="10.00">+ operator[]()</text>
<text text-anchor="start" x="288.5" y="-1178.5" font-family="Helvetica,sans-Serif" font-size="10.00">+ operator[]()</text>
<text text-anchor="start" x="288.5" y="-1167.5" font-family="Helvetica,sans-Serif" font-size="10.00">+ IsValidIndex()</text>
<text text-anchor="start" x="288.5" y="-1156.5" font-family="Helvetica,sans-Serif" font-size="10.00">+ GetByIndex()</text>
<text text-anchor="start" x="288.5" y="-1145.5" font-family="Helvetica,sans-Serif" font-size="10.00">+ GetByIndex()</text>
</a>
</g>
</g>
<!-- Node6&#45;&gt;Node5 -->
<g id="edge5" class="edge">
<title>Node6&#45;&gt;Node5</title>
<path fill="none" stroke="#404040" d="M390.69,-1138.03C394.24,-1126.33 397.96,-1114.1 401.56,-1102.25"/>
<polygon fill="none" stroke="#404040" points="401.62,-1102.04 399.54,-1095.13 405.11,-1090.56 407.19,-1097.46 401.62,-1102.04"/>
<text text-anchor="middle" x="424" y="-1112" font-family="Helvetica,sans-Serif" font-size="10.00"> +GNames</text>
</g>
<!-- Node7 -->
<g id="node7" class="node">
<title>Node7</title>
<g id="a_node7"><a xlink:href="../../d7/ddf/classSDK_1_1FNameEntry.html" target="_top" xlink:title=" ">
<polygon fill="white" stroke="black" points="321,-1359 321,-1427 420,-1427 420,-1359 321,-1359"/>
<text text-anchor="middle" x="370.5" y="-1415" font-family="Helvetica,sans-Serif" font-size="10.00">SDK::FNameEntry</text>
<polyline fill="none" stroke="black" points="321,-1408 420,-1408 "/>
<text text-anchor="start" x="329" y="-1396" font-family="Helvetica,sans-Serif" font-size="10.00">+ UnknownData00</text>
<text text-anchor="start" x="329" y="-1385" font-family="Helvetica,sans-Serif" font-size="10.00">+ name</text>
<polyline fill="none" stroke="black" points="321,-1378 420,-1378 "/>
<text text-anchor="start" x="329" y="-1366" font-family="Helvetica,sans-Serif" font-size="10.00">+ GetName()</text>
</a>
</g>
</g>
<!-- Node7&#45;&gt;Node6 -->
<g id="edge6" class="edge">
<title>Node7&#45;&gt;Node6</title>
<path fill="none" stroke="#404040" d="M370.5,-1358.84C370.5,-1338.23 370.5,-1310.83 370.5,-1284.95"/>
<polygon fill="none" stroke="#404040" points="370.5,-1284.8 366.5,-1278.8 370.5,-1272.8 374.5,-1278.8 370.5,-1284.8"/>
<text text-anchor="middle" x="384.5" y="-1294" font-family="Helvetica,sans-Serif" font-size="10.00"> &#45;Data</text>
</g>
<!-- Node8 -->
<g id="node8" class="node">
<title>Node8</title>
<g id="a_node8"><a xlink:href="../../d3/d79/classSDK_1_1TArray.html" target="_top" xlink:title=" ">
<polygon fill="white" stroke="black" points="120,-1320.5 120,-1465.5 217,-1465.5 217,-1320.5 120,-1320.5"/>
<text text-anchor="middle" x="168.5" y="-1453.5" font-family="Helvetica,sans-Serif" font-size="10.00">SDK::TArray&lt; T &gt;</text>
<polyline fill="none" stroke="black" points="120,-1446.5 217,-1446.5 "/>
<text text-anchor="start" x="128" y="-1434.5" font-family="Helvetica,sans-Serif" font-size="10.00">&#45; Data</text>
<text text-anchor="start" x="128" y="-1423.5" font-family="Helvetica,sans-Serif" font-size="10.00">&#45; Count</text>
<text text-anchor="start" x="128" y="-1412.5" font-family="Helvetica,sans-Serif" font-size="10.00">&#45; Max</text>
<polyline fill="none" stroke="black" points="120,-1405.5 217,-1405.5 "/>
<text text-anchor="start" x="128" y="-1393.5" font-family="Helvetica,sans-Serif" font-size="10.00">+ TArray()</text>
<text text-anchor="start" x="128" y="-1382.5" font-family="Helvetica,sans-Serif" font-size="10.00">+ Num()</text>
<text text-anchor="start" x="128" y="-1371.5" font-family="Helvetica,sans-Serif" font-size="10.00">+ operator[]()</text>
<text text-anchor="start" x="128" y="-1360.5" font-family="Helvetica,sans-Serif" font-size="10.00">+ operator[]()</text>
<text text-anchor="start" x="128" y="-1349.5" font-family="Helvetica,sans-Serif" font-size="10.00">+ IsValidIndex()</text>
<text text-anchor="start" x="128" y="-1338.5" font-family="Helvetica,sans-Serif" font-size="10.00">+ GetByIndex()</text>
<text text-anchor="start" x="128" y="-1327.5" font-family="Helvetica,sans-Serif" font-size="10.00">+ GetByIndex()</text>
</a>
</g>
</g>
<!-- Node8&#45;&gt;Node6 -->
<g id="edge7" class="edge">
<title>Node8&#45;&gt;Node6</title>
<path fill="none" stroke="orange" d="M224.06,-1323.21C234.11,-1312.04 244.8,-1300.9 255.5,-1291 263.32,-1283.76 271.76,-1276.57 280.38,-1269.62"/>
<polygon fill="orange" stroke="orange" points="221.22,-1321.13 217.21,-1330.93 226.46,-1325.77 221.22,-1321.13"/>
<text text-anchor="middle" x="311" y="-1294" font-family="Helvetica,sans-Serif" font-size="10.00"> &lt; SDK::FNameEntry * &gt;</text>
</g>
<!-- Node8&#45;&gt;Node9 -->
<g id="edge11" class="edge">
<title>Node8&#45;&gt;Node9</title>
<path fill="none" stroke="orange" d="M112.82,-1341.49C81.05,-1307.01 47.5,-1258.33 47.5,-1206.5 47.5,-1206.5 47.5,-1206.5 47.5,-774.5 47.5,-673.11 52.78,-647.71 64.5,-547 65.81,-535.71 67.47,-523.76 69.22,-512.17"/>
<polygon fill="orange" stroke="orange" points="110.57,-1344.2 119.98,-1349.06 115.65,-1339.39 110.57,-1344.2"/>
<text text-anchor="middle" x="93" y="-1026.5" font-family="Helvetica,sans-Serif" font-size="10.00"> &lt; SDK::UObject * &gt;</text>
</g>
<!-- Node9&#45;&gt;Node3 -->
<g id="edge9" class="edge">
<title>Node9&#45;&gt;Node3</title>
<path fill="none" stroke="#404040" d="M69.61,-512.41C66.23,-549.64 66.65,-596.24 81.5,-635 86.12,-647.05 92.3,-658.72 99.44,-669.84"/>
<polygon fill="none" stroke="#404040" points="99.53,-669.97 106.2,-672.69 106.26,-679.9 99.58,-677.18 99.53,-669.97"/>
<text text-anchor="middle" x="107" y="-588.5" font-family="Helvetica,sans-Serif" font-size="10.00"> +GObjects</text>
</g>
<!-- Node10 -->
<g id="node10" class="node">
<title>Node10</title>
<g id="a_node10"><a xlink:href="../../d9/dfa/structSDK_1_1FPointer.html" target="_top" xlink:title=" ">
<polygon fill="white" stroke="black" points="254.5,-995 254.5,-1063 352.5,-1063 352.5,-995 254.5,-995"/>
<text text-anchor="middle" x="303.5" y="-1051" font-family="Helvetica,sans-Serif" font-size="10.00">SDK::FPointer</text>
<polyline fill="none" stroke="black" points="254.5,-1044 352.5,-1044 "/>
<text text-anchor="start" x="262.5" y="-1032" font-family="Helvetica,sans-Serif" font-size="10.00">+ Dummy</text>
<text text-anchor="start" x="262.5" y="-1021" font-family="Helvetica,sans-Serif" font-size="10.00">+ UnknownData00</text>
<polyline fill="none" stroke="black" points="254.5,-1014 352.5,-1014 "/>
<text text-anchor="middle" x="303.5" y="-1002" font-family="Helvetica,sans-Serif" font-size="10.00"> </text>
</a>
</g>
</g>
<!-- Node10&#45;&gt;Node3 -->
<g id="edge12" class="edge">
<title>Node10&#45;&gt;Node3</title>
<path fill="none" stroke="#404040" d="M293.45,-994.88C286.42,-972.43 276.53,-942.2 266.5,-916 265.6,-913.64 264.67,-911.26 263.74,-908.86"/>
<polygon fill="none" stroke="#404040" points="263.68,-908.73 257.75,-904.63 259.25,-897.57 265.18,-901.67 263.68,-908.73"/>
<text text-anchor="middle" x="313" y="-941" font-family="Helvetica,sans-Serif" font-size="10.00"> +StateFrame</text>
<text text-anchor="middle" x="313" y="-930" font-family="Helvetica,sans-Serif" font-size="10.00">+VfTableObject</text>
<text text-anchor="middle" x="313" y="-919" font-family="Helvetica,sans-Serif" font-size="10.00">+LinkerIndex</text>
</g>
<!-- Node11&#45;&gt;Node3 -->
<g id="edge13" class="edge">
<title>Node11&#45;&gt;Node3</title>
<path fill="none" stroke="#404040" d="M328.5,-90.72C328.5,-110.67 328.5,-134.52 328.5,-156 328.5,-446 328.5,-446 328.5,-446 328.5,-513.37 305.53,-583.85 279.45,-642.18"/>
<polygon fill="none" stroke="#404040" points="279.35,-642.39 280.5,-649.5 274.37,-653.3 273.22,-646.18 279.35,-642.39"/>
<text text-anchor="middle" x="346" y="-260.5" font-family="Helvetica,sans-Serif" font-size="10.00"> +Class</text>
</g>
<!-- Node12 -->
<g id="node12" class="node">
<title>Node12</title>
<g id="a_node12"><a xlink:href="../../df/d72/classSDK_1_1UState.html" target="_top" xlink:title=" ">
<polygon fill="white" stroke="black" points="368.5,-128.5 368.5,-185.5 466.5,-185.5 466.5,-128.5 368.5,-128.5"/>
<text text-anchor="middle" x="417.5" y="-173.5" font-family="Helvetica,sans-Serif" font-size="10.00">SDK::UState</text>
<polyline fill="none" stroke="black" points="368.5,-166.5 466.5,-166.5 "/>
<text text-anchor="start" x="376.5" y="-154.5" font-family="Helvetica,sans-Serif" font-size="10.00">+ UnknownData00</text>
<polyline fill="none" stroke="black" points="368.5,-147.5 466.5,-147.5 "/>
<text text-anchor="start" x="376.5" y="-135.5" font-family="Helvetica,sans-Serif" font-size="10.00">+ StaticClass()</text>
</a>
</g>
</g>
<!-- Node12&#45;&gt;Node11 -->
<g id="edge14" class="edge">
<title>Node12&#45;&gt;Node11</title>
<path fill="none" stroke="midnightblue" d="M388.51,-120.33C380.83,-110.89 372.45,-100.58 364.46,-90.74"/>
<polygon fill="none" stroke="midnightblue" points="386.02,-122.82 395.04,-128.37 391.45,-118.4 386.02,-122.82"/>
</g>
<!-- Node13 -->
<g id="node13" class="node">
<title>Node13</title>
<g id="a_node13"><a xlink:href="../../d8/de9/classSDK_1_1UStruct.html" target="_top" xlink:title=" ">
<polygon fill="white" stroke="black" points="381.5,-223.5 381.5,-302.5 479.5,-302.5 479.5,-223.5 381.5,-223.5"/>
<text text-anchor="middle" x="430.5" y="-290.5" font-family="Helvetica,sans-Serif" font-size="10.00">SDK::UStruct</text>
<polyline fill="none" stroke="black" points="381.5,-283.5 479.5,-283.5 "/>
<text text-anchor="start" x="389.5" y="-271.5" font-family="Helvetica,sans-Serif" font-size="10.00">+ UnknownData00</text>
<text text-anchor="start" x="389.5" y="-260.5" font-family="Helvetica,sans-Serif" font-size="10.00">+ PropertySize</text>
<text text-anchor="start" x="389.5" y="-249.5" font-family="Helvetica,sans-Serif" font-size="10.00">+ UnknownData01</text>
<polyline fill="none" stroke="black" points="381.5,-242.5 479.5,-242.5 "/>
<text text-anchor="start" x="389.5" y="-230.5" font-family="Helvetica,sans-Serif" font-size="10.00">+ StaticClass()</text>
</a>
</g>
</g>
<!-- Node13&#45;&gt;Node12 -->
<g id="edge15" class="edge">
<title>Node13&#45;&gt;Node12</title>
<path fill="none" stroke="midnightblue" d="M424.4,-213.16C423.22,-203.74 422.02,-194.17 420.96,-185.72"/>
<polygon fill="none" stroke="midnightblue" points="420.95,-213.79 425.66,-223.27 427.89,-212.92 420.95,-213.79"/>
</g>
<!-- Node14&#45;&gt;Node13 -->
<g id="edge16" class="edge">
<title>Node14&#45;&gt;Node13</title>
<path fill="none" stroke="midnightblue" d="M416.66,-406.78C424.78,-388.11 433.42,-364.87 437.5,-343 439.29,-333.39 438.1,-330.76 437.5,-321 437.13,-315.03 436.56,-308.73 435.88,-302.57"/>
<polygon fill="none" stroke="midnightblue" points="413.39,-405.53 412.49,-416.09 419.77,-408.39 413.39,-405.53"/>
</g>
<!-- Node14&#45;&gt;Node13 -->
<g id="edge19" class="edge">
<title>Node14&#45;&gt;Node13</title>
<path fill="none" stroke="#404040" d="M385.54,-416.26C375.51,-390.75 365.22,-352.25 377.5,-321 378.56,-318.29 379.82,-315.64 381.24,-313.05"/>
<polygon fill="none" stroke="#404040" points="381.35,-312.88 381.22,-305.67 387.82,-302.78 387.95,-309.99 381.35,-312.88"/>
<text text-anchor="middle" x="405.5" y="-335" font-family="Helvetica,sans-Serif" font-size="10.00"> +SuperField</text>
<text text-anchor="middle" x="405.5" y="-324" font-family="Helvetica,sans-Serif" font-size="10.00">+Children</text>
</g>
<!-- Node14&#45;&gt;Node14 -->
<g id="edge18" class="edge">
<title>Node14&#45;&gt;Node14</title>
<path fill="none" stroke="#404040" d="M440.21,-465.67C450.41,-464.14 458,-457.25 458,-445 458,-437.92 455.46,-432.63 451.35,-429.13"/>
<polygon fill="none" stroke="#404040" points="451.23,-429.07 444.13,-430.38 440.21,-424.33 447.3,-423.03 451.23,-429.07"/>
<text text-anchor="middle" x="473.5" y="-442.5" font-family="Helvetica,sans-Serif" font-size="10.00"> +Next</text>
</g>
<!-- Node15 -->
<g id="node15" class="node">
<title>Node15</title>
<g id="a_node15"><a xlink:href="../../dd/d43/structSDK_1_1FVector.html" target="_top" xlink:title=" ">
<polygon fill="white" stroke="black" points="677.5,-736 677.5,-815 755.5,-815 755.5,-736 677.5,-736"/>
<text text-anchor="middle" x="716.5" y="-803" font-family="Helvetica,sans-Serif" font-size="10.00">SDK::FVector</text>
<polyline fill="none" stroke="black" points="677.5,-796 755.5,-796 "/>
<text text-anchor="start" x="685.5" y="-784" font-family="Helvetica,sans-Serif" font-size="10.00">+ X</text>
<text text-anchor="start" x="685.5" y="-773" font-family="Helvetica,sans-Serif" font-size="10.00">+ Y</text>
<text text-anchor="start" x="685.5" y="-762" font-family="Helvetica,sans-Serif" font-size="10.00">+ Z</text>
<polyline fill="none" stroke="black" points="677.5,-755 755.5,-755 "/>
<text text-anchor="middle" x="716.5" y="-743" font-family="Helvetica,sans-Serif" font-size="10.00"> </text>
</a>
</g>
</g>
<!-- Node15&#45;&gt;Node2 -->
<g id="edge22" class="edge">
<title>Node15&#45;&gt;Node2</title>
<path fill="none" stroke="#404040" d="M700.15,-735.85C679.9,-687.99 644.71,-604.85 617.21,-539.85"/>
<polygon fill="none" stroke="#404040" points="617.19,-539.81 611.17,-535.84 612.52,-528.76 618.54,-532.73 617.19,-539.81"/>
<text text-anchor="middle" x="685" y="-627" font-family="Helvetica,sans-Serif" font-size="10.00"> +SecAxis1</text>
<text text-anchor="middle" x="685" y="-616" font-family="Helvetica,sans-Serif" font-size="10.00">+SecAxis2</text>
<text text-anchor="middle" x="685" y="-605" font-family="Helvetica,sans-Serif" font-size="10.00">+PulleyPivot1</text>
<text text-anchor="middle" x="685" y="-594" font-family="Helvetica,sans-Serif" font-size="10.00">+PulleyPivot2</text>
<text text-anchor="middle" x="685" y="-583" font-family="Helvetica,sans-Serif" font-size="10.00">+PriAxis1</text>
<text text-anchor="middle" x="685" y="-572" font-family="Helvetica,sans-Serif" font-size="10.00">+PriAxis2</text>
<text text-anchor="middle" x="685" y="-561" font-family="Helvetica,sans-Serif" font-size="10.00">+Pos1</text>
<text text-anchor="middle" x="685" y="-550" font-family="Helvetica,sans-Serif" font-size="10.00">+Pos2</text>
</g>
<!-- Node16 -->
<g id="node16" class="node">
<title>Node16</title>
<g id="a_node16"><a xlink:href="../../d7/de6/structSDK_1_1FLinearDOFSetup.html" target="_top" xlink:title=" ">
<polygon fill="white" stroke="black" points="419.5,-736 419.5,-815 541.5,-815 541.5,-736 419.5,-736"/>
<text text-anchor="middle" x="480.5" y="-803" font-family="Helvetica,sans-Serif" font-size="10.00">SDK::FLinearDOFSetup</text>
<polyline fill="none" stroke="black" points="419.5,-796 541.5,-796 "/>
<text text-anchor="start" x="427.5" y="-784" font-family="Helvetica,sans-Serif" font-size="10.00">+ bLimited</text>
<text text-anchor="start" x="427.5" y="-773" font-family="Helvetica,sans-Serif" font-size="10.00">+ UnknownData00</text>
<text text-anchor="start" x="427.5" y="-762" font-family="Helvetica,sans-Serif" font-size="10.00">+ LimitSize</text>
<polyline fill="none" stroke="black" points="419.5,-755 541.5,-755 "/>
<text text-anchor="middle" x="480.5" y="-743" font-family="Helvetica,sans-Serif" font-size="10.00"> </text>
</a>
</g>
</g>
<!-- Node16&#45;&gt;Node2 -->
<g id="edge23" class="edge">
<title>Node16&#45;&gt;Node2</title>
<path fill="none" stroke="#404040" d="M476.12,-735.93C472.37,-689.41 470.92,-609.64 495.5,-547 497.12,-542.87 498.98,-538.77 501.02,-534.74"/>
<polygon fill="none" stroke="#404040" points="501.04,-534.7 500.44,-527.52 506.84,-524.2 507.44,-531.39 501.04,-534.7"/>
<text text-anchor="middle" x="529.5" y="-599.5" font-family="Helvetica,sans-Serif" font-size="10.00"> +LinearXSetup</text>
<text text-anchor="middle" x="529.5" y="-588.5" font-family="Helvetica,sans-Serif" font-size="10.00">+LinearYSetup</text>
<text text-anchor="middle" x="529.5" y="-577.5" font-family="Helvetica,sans-Serif" font-size="10.00">+LinearZSetup</text>
</g>
</g>
</svg>
        <g id="navigator" transform="translate(0 0)" fill="#404254">
                <rect fill="#f2f5e9" fill-opacity="0.5" stroke="#606060" stroke-width=".5" x="0" y="0" width="60" height="60"/>
                <use id="zoomplus" xlink:href="#zoomPlus" x="17" y="9" onmousedown="handleZoom(evt,'in')"/>
                <use id="zoomminus" xlink:href="#zoomMin" x="42" y="9" onmousedown="handleZoom(evt,'out')"/>
                <use id="reset" xlink:href="#resetDef" x="30" y="36" onmousedown="handleReset()"/>
                <g id="arrowUp" xlink:href="#dirArrow" transform="translate(30 24)" onmousedown="handlePan(0,-1)">
                  <use xlink:href="#rim" fill="#404040">
                        <set attributeName="fill" to="#808080" begin="arrowUp.mouseover" end="arrowUp.mouseout"/>
                  </use>
                  <path fill="none" stroke="white" stroke-width="1.5" d="M0,-3.0v7 M-2.5,-0.5L0,-3.0L2.5,-0.5"/>
                </g>
                <g id="arrowRight" xlink:href="#dirArrow" transform="rotate(90) translate(36 -43)" onmousedown="handlePan(1,0)">
                  <use xlink:href="#rim" fill="#404040">
                        <set attributeName="fill" to="#808080" begin="arrowRight.mouseover" end="arrowRight.mouseout"/>
                  </use>
                  <path fill="none" stroke="white" stroke-width="1.5" d="M0,-3.0v7 M-2.5,-0.5L0,-3.0L2.5,-0.5"/>
                </g>
                <g id="arrowDown" xlink:href="#dirArrow" transform="rotate(180) translate(-30 -48)" onmousedown="handlePan(0,1)">
                  <use xlink:href="#rim" fill="#404040">
                        <set attributeName="fill" to="#808080" begin="arrowDown.mouseover" end="arrowDown.mouseout"/>
                  </use>
                  <path fill="none" stroke="white" stroke-width="1.5" d="M0,-3.0v7 M-2.5,-0.5L0,-3.0L2.5,-0.5"/>
                </g>
                <g id="arrowLeft" xlink:href="#dirArrow" transform="rotate(270) translate(-36 17)" onmousedown="handlePan(-1,0)">
                  <use xlink:href="#rim" fill="#404040">
                        <set attributeName="fill" to="#808080" begin="arrowLeft.mouseover" end="arrowLeft.mouseout"/>
                  </use>
                  <path fill="none" stroke="white" stroke-width="1.5" d="M0,-3.0v7 M-2.5,-0.5L0,-3.0L2.5,-0.5"/>
                </g>
        </g>
        <svg viewBox="0 0 15 15" width="100%" height="30px" preserveAspectRatio="xMaxYMin meet">
         <g id="arrow_out" transform="scale(0.3 0.3)">
          <a xlink:href="classSDK_1_1URB__StayUprightSetup__coll__graph_org.svg" target="_base">
           <rect id="button" ry="5" rx="5" y="6" x="6" height="38" width="38"
                fill="#f2f5e9" fill-opacity="0.5" stroke="#606060" stroke-width="1.0"/>
           <path id="arrow"
             d="M 11.500037,31.436501 C 11.940474,20.09759 22.043105,11.32322 32.158766,21.979434 L 37.068811,17.246167 C 37.068811,17.246167 37.088388,32 37.088388,32 L 22.160133,31.978069 C 22.160133,31.978069 26.997745,27.140456 26.997745,27.140456 C 18.528582,18.264221 13.291696,25.230495 11.500037,31.436501 z"
             style="fill:#404040;"/>
          </a>
         </g>
        </svg>
</svg>
