<?xml version="1.0" encoding="UTF-8" standalone="no"?>
<!DOCTYPE svg PUBLIC "-//W3C//DTD SVG 1.1//EN"
 "http://www.w3.org/Graphics/SVG/1.1/DTD/svg11.dtd">
<!-- Generated by graphviz version 2.41.20171026.1811 (20171026.1811)
 -->
<!-- Title: SDK::FAttachmentOriginData Pages: 1 -->
<svg width="154pt" height="193pt"
 viewBox="0.00 0.00 154.00 193.00" xmlns="http://www.w3.org/2000/svg" xmlns:xlink="http://www.w3.org/1999/xlink">
<g id="graph0" class="graph" transform="scale(1 1) rotate(0) translate(4 189)">
<title>SDK::FAttachmentOriginData</title>
<polygon fill="white" stroke="transparent" points="-4,4 -4,-189 150,-189 150,4 -4,4"/>
<!-- Node1 -->
<g id="node1" class="node">
<title>Node1</title>
<g id="a_node1"><a xlink:title=" ">
<polygon fill="#bfbfbf" stroke="black" points="0,-0.5 0,-57.5 146,-57.5 146,-0.5 0,-0.5"/>
<text text-anchor="middle" x="73" y="-45.5" font-family="Helvetica,sans-Serif" font-size="10.00">SDK::FAttachmentOriginData</text>
<polyline fill="none" stroke="black" points="0,-38.5 146,-38.5 "/>
<text text-anchor="start" x="8" y="-26.5" font-family="Helvetica,sans-Serif" font-size="10.00">+ Time</text>
<polyline fill="none" stroke="black" points="0,-19.5 146,-19.5 "/>
<text text-anchor="middle" x="73" y="-7.5" font-family="Helvetica,sans-Serif" font-size="10.00"> </text>
</a>
</g>
</g>
<!-- Node2 -->
<g id="node2" class="node">
<title>Node2</title>
<g id="a_node2"><a xlink:href="../../dd/d43/structSDK_1_1FVector.html" target="_top" xlink:title=" ">
<polygon fill="white" stroke="black" points="34,-105.5 34,-184.5 112,-184.5 112,-105.5 34,-105.5"/>
<text text-anchor="middle" x="73" y="-172.5" font-family="Helvetica,sans-Serif" font-size="10.00">SDK::FVector</text>
<polyline fill="none" stroke="black" points="34,-165.5 112,-165.5 "/>
<text text-anchor="start" x="42" y="-153.5" font-family="Helvetica,sans-Serif" font-size="10.00">+ X</text>
<text text-anchor="start" x="42" y="-142.5" font-family="Helvetica,sans-Serif" font-size="10.00">+ Y</text>
<text text-anchor="start" x="42" y="-131.5" font-family="Helvetica,sans-Serif" font-size="10.00">+ Z</text>
<polyline fill="none" stroke="black" points="34,-124.5 112,-124.5 "/>
<text text-anchor="middle" x="73" y="-112.5" font-family="Helvetica,sans-Serif" font-size="10.00"> </text>
</a>
</g>
</g>
<!-- Node2&#45;&gt;Node1 -->
<g id="edge1" class="edge">
<title>Node2&#45;&gt;Node1</title>
<path fill="none" stroke="#404040" d="M73,-105.4C73,-93.93 73,-81.33 73,-69.78"/>
<polygon fill="none" stroke="#404040" points="73,-69.75 69,-63.75 73,-57.75 77,-63.75 73,-69.75"/>
<text text-anchor="middle" x="90.5" y="-79" font-family="Helvetica,sans-Serif" font-size="10.00"> +Origin</text>
</g>
</g>
</svg>
