<?xml version="1.0" encoding="UTF-8" standalone="no"?>
<!DOCTYPE svg PUBLIC "-//W3C//DTD SVG 1.1//EN"
 "http://www.w3.org/Graphics/SVG/1.1/DTD/svg11.dtd">
<!-- Generated by graphviz version 2.41.20171026.1811 (20171026.1811)
 -->
<!-- Title: SDK::UTextureRenderTargetCube Pages: 1 -->
<svg width="206pt" height="915pt"
 viewBox="0.00 0.00 206.00 915.00" xmlns="http://www.w3.org/2000/svg" xmlns:xlink="http://www.w3.org/1999/xlink">
<g id="graph0" class="graph" transform="scale(1 1) rotate(0) translate(4 911)">
<title>SDK::UTextureRenderTargetCube</title>
<polygon fill="white" stroke="transparent" points="-4,4 -4,-911 202,-911 202,4 -4,4"/>
<!-- Node1 -->
<g id="node1" class="node">
<title>Node1</title>
<g id="a_node1"><a xlink:title=" ">
<polygon fill="#bfbfbf" stroke="black" points="15.5,-0.5 15.5,-68.5 182.5,-68.5 182.5,-0.5 15.5,-0.5"/>
<text text-anchor="middle" x="99" y="-56.5" font-family="Helvetica,sans-Serif" font-size="10.00">SDK::UTextureRenderTargetCube</text>
<polyline fill="none" stroke="black" points="15.5,-49.5 182.5,-49.5 "/>
<text text-anchor="start" x="23.5" y="-37.5" font-family="Helvetica,sans-Serif" font-size="10.00">+ SizeX</text>
<text text-anchor="start" x="23.5" y="-26.5" font-family="Helvetica,sans-Serif" font-size="10.00">+ Format</text>
<polyline fill="none" stroke="black" points="15.5,-19.5 182.5,-19.5 "/>
<text text-anchor="start" x="23.5" y="-7.5" font-family="Helvetica,sans-Serif" font-size="10.00">+ StaticClass()</text>
</a>
</g>
</g>
<!-- Node2 -->
<g id="node2" class="node">
<title>Node2</title>
<g id="a_node2"><a xlink:href="../../db/d49/classSDK_1_1UTextureRenderTarget.html" target="_top" xlink:title=" ">
<polygon fill="white" stroke="black" points="27.5,-105.5 27.5,-195.5 170.5,-195.5 170.5,-105.5 27.5,-105.5"/>
<text text-anchor="middle" x="99" y="-183.5" font-family="Helvetica,sans-Serif" font-size="10.00">SDK::UTextureRenderTarget</text>
<polyline fill="none" stroke="black" points="27.5,-176.5 170.5,-176.5 "/>
<text text-anchor="start" x="35.5" y="-164.5" font-family="Helvetica,sans-Serif" font-size="10.00">+ bUpdateImmediate</text>
<text text-anchor="start" x="35.5" y="-153.5" font-family="Helvetica,sans-Serif" font-size="10.00">+ bNeedsTwoCopies</text>
<text text-anchor="start" x="35.5" y="-142.5" font-family="Helvetica,sans-Serif" font-size="10.00">+ bRenderOnce</text>
<text text-anchor="start" x="35.5" y="-131.5" font-family="Helvetica,sans-Serif" font-size="10.00">+ TargetGamma</text>
<polyline fill="none" stroke="black" points="27.5,-124.5 170.5,-124.5 "/>
<text text-anchor="start" x="35.5" y="-112.5" font-family="Helvetica,sans-Serif" font-size="10.00">+ StaticClass()</text>
</a>
</g>
</g>
<!-- Node2&#45;&gt;Node1 -->
<g id="edge1" class="edge">
<title>Node2&#45;&gt;Node1</title>
<path fill="none" stroke="midnightblue" d="M99,-95.32C99,-86.28 99,-77.16 99,-68.85"/>
<polygon fill="none" stroke="midnightblue" points="95.5,-95.42 99,-105.42 102.5,-95.42 95.5,-95.42"/>
</g>
<!-- Node3 -->
<g id="node3" class="node">
<title>Node3</title>
<g id="a_node3"><a xlink:href="../../d8/da8/classSDK_1_1UTexture.html" target="_top" xlink:title=" ">
<polygon fill="white" stroke="black" points="15.5,-232.5 15.5,-399.5 182.5,-399.5 182.5,-232.5 15.5,-232.5"/>
<text text-anchor="middle" x="99" y="-387.5" font-family="Helvetica,sans-Serif" font-size="10.00">SDK::UTexture</text>
<polyline fill="none" stroke="black" points="15.5,-380.5 182.5,-380.5 "/>
<text text-anchor="start" x="23.5" y="-368.5" font-family="Helvetica,sans-Serif" font-size="10.00">+ SRGB</text>
<text text-anchor="start" x="23.5" y="-357.5" font-family="Helvetica,sans-Serif" font-size="10.00">+ RGBE</text>
<text text-anchor="start" x="23.5" y="-346.5" font-family="Helvetica,sans-Serif" font-size="10.00">+ bIsSourceArtUncompressed</text>
<text text-anchor="start" x="23.5" y="-335.5" font-family="Helvetica,sans-Serif" font-size="10.00">+ CompressionNoAlpha</text>
<text text-anchor="start" x="23.5" y="-324.5" font-family="Helvetica,sans-Serif" font-size="10.00">+ CompressionNone</text>
<text text-anchor="start" x="23.5" y="-313.5" font-family="Helvetica,sans-Serif" font-size="10.00">+ CompressionNoMipmaps</text>
<text text-anchor="start" x="23.5" y="-302.5" font-family="Helvetica,sans-Serif" font-size="10.00">+ CompressionFullDynamicRange</text>
<text text-anchor="start" x="23.5" y="-291.5" font-family="Helvetica,sans-Serif" font-size="10.00">+ DeferCompression</text>
<text text-anchor="start" x="23.5" y="-280.5" font-family="Helvetica,sans-Serif" font-size="10.00">+ NeverStream</text>
<text text-anchor="start" x="23.5" y="-269.5" font-family="Helvetica,sans-Serif" font-size="10.00">+ bDitherMipMapAlpha</text>
<text text-anchor="start" x="23.5" y="-258.5" font-family="Helvetica,sans-Serif" font-size="10.00">and 31 more...</text>
<polyline fill="none" stroke="black" points="15.5,-251.5 182.5,-251.5 "/>
<text text-anchor="start" x="23.5" y="-239.5" font-family="Helvetica,sans-Serif" font-size="10.00">+ StaticClass()</text>
</a>
</g>
</g>
<!-- Node3&#45;&gt;Node2 -->
<g id="edge2" class="edge">
<title>Node3&#45;&gt;Node2</title>
<path fill="none" stroke="midnightblue" d="M99,-222.22C99,-212.99 99,-203.95 99,-195.58"/>
<polygon fill="none" stroke="midnightblue" points="95.5,-222.29 99,-232.29 102.5,-222.29 95.5,-222.29"/>
</g>
<!-- Node4 -->
<g id="node4" class="node">
<title>Node4</title>
<g id="a_node4"><a xlink:href="../../de/dd8/classSDK_1_1USurface.html" target="_top" xlink:title=" ">
<polygon fill="white" stroke="black" points="44,-436.5 44,-515.5 154,-515.5 154,-436.5 44,-436.5"/>
<text text-anchor="middle" x="99" y="-503.5" font-family="Helvetica,sans-Serif" font-size="10.00">SDK::USurface</text>
<polyline fill="none" stroke="black" points="44,-496.5 154,-496.5 "/>
<text text-anchor="middle" x="99" y="-484.5" font-family="Helvetica,sans-Serif" font-size="10.00"> </text>
<polyline fill="none" stroke="black" points="44,-477.5 154,-477.5 "/>
<text text-anchor="start" x="52" y="-465.5" font-family="Helvetica,sans-Serif" font-size="10.00">+ GetSurfaceHeight()</text>
<text text-anchor="start" x="52" y="-454.5" font-family="Helvetica,sans-Serif" font-size="10.00">+ GetSurfaceWidth()</text>
<text text-anchor="start" x="52" y="-443.5" font-family="Helvetica,sans-Serif" font-size="10.00">+ StaticClass()</text>
</a>
</g>
</g>
<!-- Node4&#45;&gt;Node3 -->
<g id="edge3" class="edge">
<title>Node4&#45;&gt;Node3</title>
<path fill="none" stroke="midnightblue" d="M99,-426.26C99,-417.74 99,-408.67 99,-399.53"/>
<polygon fill="none" stroke="midnightblue" points="95.5,-426.35 99,-436.35 102.5,-426.35 95.5,-426.35"/>
</g>
<!-- Node5 -->
<g id="node5" class="node">
<title>Node5</title>
<g id="a_node5"><a xlink:href="../../d9/d45/classSDK_1_1UObject.html" target="_top" xlink:title=" ">
<polygon fill="white" stroke="black" points="0,-552.5 0,-906.5 198,-906.5 198,-552.5 0,-552.5"/>
<text text-anchor="middle" x="99" y="-894.5" font-family="Helvetica,sans-Serif" font-size="10.00">SDK::UObject</text>
<polyline fill="none" stroke="black" points="0,-887.5 198,-887.5 "/>
<text text-anchor="start" x="8" y="-875.5" font-family="Helvetica,sans-Serif" font-size="10.00">+ VfTableObject</text>
<text text-anchor="start" x="8" y="-864.5" font-family="Helvetica,sans-Serif" font-size="10.00">+ ObjectFlags</text>
<text text-anchor="start" x="8" y="-853.5" font-family="Helvetica,sans-Serif" font-size="10.00">+ StateFrame</text>
<text text-anchor="start" x="8" y="-842.5" font-family="Helvetica,sans-Serif" font-size="10.00">+ Linker</text>
<text text-anchor="start" x="8" y="-831.5" font-family="Helvetica,sans-Serif" font-size="10.00">+ LinkerIndex</text>
<text text-anchor="start" x="8" y="-820.5" font-family="Helvetica,sans-Serif" font-size="10.00">+ ObjectInternalInteger</text>
<text text-anchor="start" x="8" y="-809.5" font-family="Helvetica,sans-Serif" font-size="10.00">+ NetIndex</text>
<text text-anchor="start" x="8" y="-798.5" font-family="Helvetica,sans-Serif" font-size="10.00">+ Outer</text>
<text text-anchor="start" x="8" y="-787.5" font-family="Helvetica,sans-Serif" font-size="10.00">+ Name</text>
<text text-anchor="start" x="8" y="-776.5" font-family="Helvetica,sans-Serif" font-size="10.00">+ Class</text>
<text text-anchor="start" x="8" y="-765.5" font-family="Helvetica,sans-Serif" font-size="10.00">+ ObjectArchetype</text>
<text text-anchor="start" x="8" y="-754.5" font-family="Helvetica,sans-Serif" font-size="10.00">+ GObjects</text>
<polyline fill="none" stroke="black" points="0,-747.5 198,-747.5 "/>
<text text-anchor="start" x="8" y="-735.5" font-family="Helvetica,sans-Serif" font-size="10.00">+ UObject::GetName()</text>
<text text-anchor="start" x="8" y="-724.5" font-family="Helvetica,sans-Serif" font-size="10.00">+ GetFullName()</text>
<text text-anchor="start" x="8" y="-713.5" font-family="Helvetica,sans-Serif" font-size="10.00">+ IsA()</text>
<text text-anchor="start" x="8" y="-702.5" font-family="Helvetica,sans-Serif" font-size="10.00">+ ProcessEvent()</text>
<text text-anchor="start" x="8" y="-691.5" font-family="Helvetica,sans-Serif" font-size="10.00">+ STATIC_ProfNodeEvent()</text>
<text text-anchor="start" x="8" y="-680.5" font-family="Helvetica,sans-Serif" font-size="10.00">+ STATIC_ProfNodeSetDepthThreshold()</text>
<text text-anchor="start" x="8" y="-669.5" font-family="Helvetica,sans-Serif" font-size="10.00">+ STATIC_ProfNodeSetTimeThreshold</text>
<text text-anchor="start" x="8" y="-658.5" font-family="Helvetica,sans-Serif" font-size="10.00">Seconds()</text>
<text text-anchor="start" x="8" y="-647.5" font-family="Helvetica,sans-Serif" font-size="10.00">+ STATIC_ProfNodeStop()</text>
<text text-anchor="start" x="8" y="-636.5" font-family="Helvetica,sans-Serif" font-size="10.00">+ STATIC_ProfNodeStart()</text>
<text text-anchor="start" x="8" y="-625.5" font-family="Helvetica,sans-Serif" font-size="10.00">+ STATIC_GetStringFromGuid()</text>
<text text-anchor="start" x="8" y="-614.5" font-family="Helvetica,sans-Serif" font-size="10.00">and 298 more...</text>
<text text-anchor="start" x="8" y="-603.5" font-family="Helvetica,sans-Serif" font-size="10.00">+ GetGlobalObjects()</text>
<text text-anchor="start" x="8" y="-592.5" font-family="Helvetica,sans-Serif" font-size="10.00">+ FindObject()</text>
<text text-anchor="start" x="8" y="-581.5" font-family="Helvetica,sans-Serif" font-size="10.00">+ FindClass()</text>
<text text-anchor="start" x="8" y="-570.5" font-family="Helvetica,sans-Serif" font-size="10.00">+ GetObjectCasted()</text>
<text text-anchor="start" x="8" y="-559.5" font-family="Helvetica,sans-Serif" font-size="10.00">+ StaticClass()</text>
</a>
</g>
</g>
<!-- Node5&#45;&gt;Node4 -->
<g id="edge4" class="edge">
<title>Node5&#45;&gt;Node4</title>
<path fill="none" stroke="midnightblue" d="M99,-542.31C99,-532.77 99,-523.84 99,-515.83"/>
<polygon fill="none" stroke="midnightblue" points="95.5,-542.46 99,-552.46 102.5,-542.46 95.5,-542.46"/>
</g>
</g>
</svg>
