<?xml version="1.0" encoding="UTF-8" standalone="no"?>
<!DOCTYPE svg PUBLIC "-//W3C//DTD SVG 1.1//EN"
 "http://www.w3.org/Graphics/SVG/1.1/DTD/svg11.dtd">
<!-- Generated by graphviz version 2.41.20171026.1811 (20171026.1811)
 -->
<!-- Title: SDK::UParticleModuleLocationEmitterDirect Pages: 1 -->
<!--zoomable 1441 -->
<svg id="main" version="1.1" xmlns="http://www.w3.org/2000/svg" xmlns:xlink="http://www.w3.org/1999/xlink" xml:space="preserve" onload="init(evt)">
<style type="text/css"><![CDATA[
.edge:hover path { stroke: red; }
.edge:hover polygon { stroke: red; fill: red; }
]]></style>
<script type="text/javascript"><![CDATA[
var edges = document.getElementsByTagName('g');
if (edges && edges.length) {
  for (var i=0;i<edges.length;i++) {
    if (edges[i].id.substr(0,4)=='edge') {
      edges[i].setAttribute('class','edge');
    }
  }
}
]]></script>
        <defs>
                <circle id="rim" cx="0" cy="0" r="7"/>
                <circle id="rim2" cx="0" cy="0" r="3.5"/>
                <g id="zoomPlus">
                        <use xlink:href="#rim" fill="#404040">
                                <set attributeName="fill" to="#808080" begin="zoomplus.mouseover" end="zoomplus.mouseout"/>
                        </use>
                        <path d="M-4,0h8M0,-4v8" fill="none" stroke="white" stroke-width="1.5" pointer-events="none"/>
                </g>
                <g id="zoomMin">
                        <use xlink:href="#rim" fill="#404040">
                                <set attributeName="fill" to="#808080" begin="zoomminus.mouseover" end="zoomminus.mouseout"/>
                        </use>
                        <path d="M-4,0h8" fill="none" stroke="white" stroke-width="1.5" pointer-events="none"/>
                </g>
                <g id="dirArrow">
                        <path fill="none" stroke="white" stroke-width="1.5" d="M0,-3.0v7 M-2.5,-0.5L0,-3.0L2.5,-0.5"/>
                </g>
               <g id="resetDef">
                       <use xlink:href="#rim2" fill="#404040">
                               <set attributeName="fill" to="#808080" begin="reset.mouseover" end="reset.mouseout"/>
                       </use>
               </g>
        </defs>

<script type="text/javascript">
var viewWidth = 768;
var viewHeight = 1441;
var sectionId = 'dynsection-1';
</script>
<script xlink:href="../../svgpan.js"/>
<svg id="graph" class="graph">
<g id="viewport">
<title>SDK::UParticleModuleLocationEmitterDirect</title>
<polygon fill="white" stroke="transparent" points="-4,4 -4,-1437 763.5,-1437 763.5,4 -4,4"/>
<!-- Node1 -->
<g id="node1" class="node">
<title>Node1</title>
<g id="a_node1"><a xlink:title=" ">
<polygon fill="#bfbfbf" stroke="black" points="452.5,-128.5 452.5,-196.5 604.5,-196.5 604.5,-128.5 452.5,-128.5"/>
<text text-anchor="start" x="460.5" y="-184.5" font-family="Helvetica,sans-Serif" font-size="10.00">SDK::UParticleModuleLocation</text>
<text text-anchor="middle" x="528.5" y="-173.5" font-family="Helvetica,sans-Serif" font-size="10.00">EmitterDirect</text>
<polyline fill="none" stroke="black" points="452.5,-166.5 604.5,-166.5 "/>
<text text-anchor="middle" x="528.5" y="-154.5" font-family="Helvetica,sans-Serif" font-size="10.00"> </text>
<polyline fill="none" stroke="black" points="452.5,-147.5 604.5,-147.5 "/>
<text text-anchor="start" x="460.5" y="-135.5" font-family="Helvetica,sans-Serif" font-size="10.00">+ StaticClass()</text>
</a>
</g>
</g>
<!-- Node2 -->
<g id="node2" class="node">
<title>Node2</title>
<g id="a_node2"><a xlink:href="../../db/df2/classSDK_1_1UParticleModuleLocationBase.html" target="_top" xlink:title=" ">
<polygon fill="white" stroke="black" points="559,-245.5 559,-302.5 734,-302.5 734,-245.5 559,-245.5"/>
<text text-anchor="middle" x="646.5" y="-290.5" font-family="Helvetica,sans-Serif" font-size="10.00">SDK::UParticleModuleLocationBase</text>
<polyline fill="none" stroke="black" points="559,-283.5 734,-283.5 "/>
<text text-anchor="middle" x="646.5" y="-271.5" font-family="Helvetica,sans-Serif" font-size="10.00"> </text>
<polyline fill="none" stroke="black" points="559,-264.5 734,-264.5 "/>
<text text-anchor="start" x="567" y="-252.5" font-family="Helvetica,sans-Serif" font-size="10.00">+ StaticClass()</text>
</a>
</g>
</g>
<!-- Node2&#45;&gt;Node1 -->
<g id="edge1" class="edge">
<title>Node2&#45;&gt;Node1</title>
<path fill="none" stroke="midnightblue" d="M609.38,-238.55C594.94,-225.15 578.45,-209.86 564.15,-196.59"/>
<polygon fill="none" stroke="midnightblue" points="607.01,-241.13 616.72,-245.37 611.77,-236 607.01,-241.13"/>
</g>
<!-- Node3 -->
<g id="node3" class="node">
<title>Node3</title>
<g id="a_node3"><a xlink:href="../../d5/df1/classSDK_1_1UParticleModule.html" target="_top" xlink:title=" ">
<polygon fill="white" stroke="black" points="593,-372.5 593,-572.5 746,-572.5 746,-372.5 593,-372.5"/>
<text text-anchor="middle" x="669.5" y="-560.5" font-family="Helvetica,sans-Serif" font-size="10.00">SDK::UParticleModule</text>
<polyline fill="none" stroke="black" points="593,-553.5 746,-553.5 "/>
<text text-anchor="start" x="601" y="-541.5" font-family="Helvetica,sans-Serif" font-size="10.00">+ bSpawnModule</text>
<text text-anchor="start" x="601" y="-530.5" font-family="Helvetica,sans-Serif" font-size="10.00">+ bUpdateModule</text>
<text text-anchor="start" x="601" y="-519.5" font-family="Helvetica,sans-Serif" font-size="10.00">+ bFinalUpdateModule</text>
<text text-anchor="start" x="601" y="-508.5" font-family="Helvetica,sans-Serif" font-size="10.00">+ bCurvesAsColor</text>
<text text-anchor="start" x="601" y="-497.5" font-family="Helvetica,sans-Serif" font-size="10.00">+ b3DDrawMode</text>
<text text-anchor="start" x="601" y="-486.5" font-family="Helvetica,sans-Serif" font-size="10.00">+ EnableToggle3DDrawMode</text>
<text text-anchor="start" x="601" y="-475.5" font-family="Helvetica,sans-Serif" font-size="10.00">+ bSupported3DDrawMode</text>
<text text-anchor="start" x="601" y="-464.5" font-family="Helvetica,sans-Serif" font-size="10.00">+ bEnabled</text>
<text text-anchor="start" x="601" y="-453.5" font-family="Helvetica,sans-Serif" font-size="10.00">+ bEditable</text>
<text text-anchor="start" x="601" y="-442.5" font-family="Helvetica,sans-Serif" font-size="10.00">+ LODDuplicate</text>
<text text-anchor="start" x="601" y="-431.5" font-family="Helvetica,sans-Serif" font-size="10.00">+ bSupportsRandomSeed</text>
<text text-anchor="start" x="601" y="-420.5" font-family="Helvetica,sans-Serif" font-size="10.00">+ bRequiresLoopingNotification</text>
<text text-anchor="start" x="601" y="-409.5" font-family="Helvetica,sans-Serif" font-size="10.00">+ LODValidity</text>
<text text-anchor="start" x="601" y="-398.5" font-family="Helvetica,sans-Serif" font-size="10.00">+ UnknownData00</text>
<polyline fill="none" stroke="black" points="593,-391.5 746,-391.5 "/>
<text text-anchor="start" x="601" y="-379.5" font-family="Helvetica,sans-Serif" font-size="10.00">+ StaticClass()</text>
</a>
</g>
</g>
<!-- Node3&#45;&gt;Node2 -->
<g id="edge2" class="edge">
<title>Node3&#45;&gt;Node2</title>
<path fill="none" stroke="midnightblue" d="M656.71,-362.22C654.13,-340.18 651.64,-318.88 649.76,-302.86"/>
<polygon fill="none" stroke="midnightblue" points="653.26,-362.86 657.9,-372.39 660.21,-362.05 653.26,-362.86"/>
</g>
<!-- Node4 -->
<g id="node4" class="node">
<title>Node4</title>
<g id="a_node4"><a xlink:href="../../d9/d45/classSDK_1_1UObject.html" target="_top" xlink:title=" ">
<polygon fill="white" stroke="black" points="169.5,-620.5 169.5,-864.5 367.5,-864.5 367.5,-620.5 169.5,-620.5"/>
<text text-anchor="middle" x="268.5" y="-852.5" font-family="Helvetica,sans-Serif" font-size="10.00">SDK::UObject</text>
<polyline fill="none" stroke="black" points="169.5,-845.5 367.5,-845.5 "/>
<text text-anchor="start" x="177.5" y="-833.5" font-family="Helvetica,sans-Serif" font-size="10.00">+ ObjectInternalInteger</text>
<text text-anchor="start" x="177.5" y="-822.5" font-family="Helvetica,sans-Serif" font-size="10.00">+ NetIndex</text>
<polyline fill="none" stroke="black" points="169.5,-815.5 367.5,-815.5 "/>
<text text-anchor="start" x="177.5" y="-803.5" font-family="Helvetica,sans-Serif" font-size="10.00">+ UObject::GetName()</text>
<text text-anchor="start" x="177.5" y="-792.5" font-family="Helvetica,sans-Serif" font-size="10.00">+ GetFullName()</text>
<text text-anchor="start" x="177.5" y="-781.5" font-family="Helvetica,sans-Serif" font-size="10.00">+ IsA()</text>
<text text-anchor="start" x="177.5" y="-770.5" font-family="Helvetica,sans-Serif" font-size="10.00">+ ProcessEvent()</text>
<text text-anchor="start" x="177.5" y="-759.5" font-family="Helvetica,sans-Serif" font-size="10.00">+ STATIC_ProfNodeEvent()</text>
<text text-anchor="start" x="177.5" y="-748.5" font-family="Helvetica,sans-Serif" font-size="10.00">+ STATIC_ProfNodeSetDepthThreshold()</text>
<text text-anchor="start" x="177.5" y="-737.5" font-family="Helvetica,sans-Serif" font-size="10.00">+ STATIC_ProfNodeSetTimeThreshold</text>
<text text-anchor="start" x="177.5" y="-726.5" font-family="Helvetica,sans-Serif" font-size="10.00">Seconds()</text>
<text text-anchor="start" x="177.5" y="-715.5" font-family="Helvetica,sans-Serif" font-size="10.00">+ STATIC_ProfNodeStop()</text>
<text text-anchor="start" x="177.5" y="-704.5" font-family="Helvetica,sans-Serif" font-size="10.00">+ STATIC_ProfNodeStart()</text>
<text text-anchor="start" x="177.5" y="-693.5" font-family="Helvetica,sans-Serif" font-size="10.00">+ STATIC_GetStringFromGuid()</text>
<text text-anchor="start" x="177.5" y="-682.5" font-family="Helvetica,sans-Serif" font-size="10.00">and 298 more...</text>
<text text-anchor="start" x="177.5" y="-671.5" font-family="Helvetica,sans-Serif" font-size="10.00">+ GetGlobalObjects()</text>
<text text-anchor="start" x="177.5" y="-660.5" font-family="Helvetica,sans-Serif" font-size="10.00">+ FindObject()</text>
<text text-anchor="start" x="177.5" y="-649.5" font-family="Helvetica,sans-Serif" font-size="10.00">+ FindClass()</text>
<text text-anchor="start" x="177.5" y="-638.5" font-family="Helvetica,sans-Serif" font-size="10.00">+ GetObjectCasted()</text>
<text text-anchor="start" x="177.5" y="-627.5" font-family="Helvetica,sans-Serif" font-size="10.00">+ StaticClass()</text>
</a>
</g>
</g>
<!-- Node4&#45;&gt;Node3 -->
<g id="edge3" class="edge">
<title>Node4&#45;&gt;Node3</title>
<path fill="none" stroke="midnightblue" d="M376.56,-693.79C438.72,-663.73 516.54,-621.48 578.5,-573 583.29,-569.25 588.05,-565.23 592.73,-561.05"/>
<polygon fill="none" stroke="midnightblue" points="375,-690.66 367.5,-698.14 378.03,-696.97 375,-690.66"/>
</g>
<!-- Node4&#45;&gt;Node4 -->
<g id="edge9" class="edge">
<title>Node4&#45;&gt;Node4</title>
<path fill="none" stroke="#404040" d="M367.51,-765.53C378.44,-761.15 385.5,-753.48 385.5,-742.5 385.5,-735.64 382.74,-730.07 378.01,-725.78"/>
<polygon fill="none" stroke="#404040" points="377.8,-725.66 370.59,-725.99 367.51,-719.47 374.72,-719.14 377.8,-725.66"/>
<text text-anchor="middle" x="425" y="-751" font-family="Helvetica,sans-Serif" font-size="10.00"> +Outer</text>
<text text-anchor="middle" x="425" y="-740" font-family="Helvetica,sans-Serif" font-size="10.00">+Linker</text>
<text text-anchor="middle" x="425" y="-729" font-family="Helvetica,sans-Serif" font-size="10.00">+ObjectArchetype</text>
</g>
<!-- Node10 -->
<g id="node10" class="node">
<title>Node10</title>
<g id="a_node10"><a xlink:href="../../d3/d79/classSDK_1_1TArray.html" target="_top" xlink:title=" ">
<polygon fill="white" stroke="black" points="0,-405.5 0,-539.5 161,-539.5 161,-405.5 0,-405.5"/>
<text text-anchor="middle" x="80.5" y="-527.5" font-family="Helvetica,sans-Serif" font-size="10.00">SDK::TArray&lt; SDK::UObject * &gt;</text>
<polyline fill="none" stroke="black" points="0,-520.5 161,-520.5 "/>
<text text-anchor="start" x="8" y="-508.5" font-family="Helvetica,sans-Serif" font-size="10.00">&#45; Count</text>
<text text-anchor="start" x="8" y="-497.5" font-family="Helvetica,sans-Serif" font-size="10.00">&#45; Max</text>
<polyline fill="none" stroke="black" points="0,-490.5 161,-490.5 "/>
<text text-anchor="start" x="8" y="-478.5" font-family="Helvetica,sans-Serif" font-size="10.00">+ TArray()</text>
<text text-anchor="start" x="8" y="-467.5" font-family="Helvetica,sans-Serif" font-size="10.00">+ Num()</text>
<text text-anchor="start" x="8" y="-456.5" font-family="Helvetica,sans-Serif" font-size="10.00">+ operator[]()</text>
<text text-anchor="start" x="8" y="-445.5" font-family="Helvetica,sans-Serif" font-size="10.00">+ operator[]()</text>
<text text-anchor="start" x="8" y="-434.5" font-family="Helvetica,sans-Serif" font-size="10.00">+ IsValidIndex()</text>
<text text-anchor="start" x="8" y="-423.5" font-family="Helvetica,sans-Serif" font-size="10.00">+ GetByIndex()</text>
<text text-anchor="start" x="8" y="-412.5" font-family="Helvetica,sans-Serif" font-size="10.00">+ GetByIndex()</text>
</a>
</g>
</g>
<!-- Node4&#45;&gt;Node10 -->
<g id="edge11" class="edge">
<title>Node4&#45;&gt;Node10</title>
<path fill="none" stroke="#404040" d="M169.39,-682.76C141,-661 113.02,-633.75 95.5,-602 87.08,-586.74 82.39,-568.93 79.93,-551.51"/>
<polygon fill="none" stroke="#404040" points="79.93,-551.47 75.28,-545.96 78.58,-539.55 83.23,-545.06 79.93,-551.47"/>
<text text-anchor="middle" x="109.5" y="-594" font-family="Helvetica,sans-Serif" font-size="10.00"> &#45;Data</text>
</g>
<!-- Node12 -->
<g id="node12" class="node">
<title>Node12</title>
<g id="a_node12"><a xlink:href="../../d7/d85/classSDK_1_1UClass.html" target="_top" xlink:title=" ">
<polygon fill="white" stroke="black" points="208,-0.5 208,-90.5 329,-90.5 329,-0.5 208,-0.5"/>
<text text-anchor="middle" x="268.5" y="-78.5" font-family="Helvetica,sans-Serif" font-size="10.00">SDK::UClass</text>
<polyline fill="none" stroke="black" points="208,-71.5 329,-71.5 "/>
<text text-anchor="start" x="216" y="-59.5" font-family="Helvetica,sans-Serif" font-size="10.00">+ UnknownData00</text>
<text text-anchor="start" x="216" y="-48.5" font-family="Helvetica,sans-Serif" font-size="10.00">+ UnknownData01</text>
<polyline fill="none" stroke="black" points="208,-41.5 329,-41.5 "/>
<text text-anchor="start" x="216" y="-29.5" font-family="Helvetica,sans-Serif" font-size="10.00">+ CreateDefaultObject()</text>
<text text-anchor="start" x="216" y="-18.5" font-family="Helvetica,sans-Serif" font-size="10.00">+ CreateDefaultObject()</text>
<text text-anchor="start" x="216" y="-7.5" font-family="Helvetica,sans-Serif" font-size="10.00">+ StaticClass()</text>
</a>
</g>
</g>
<!-- Node4&#45;&gt;Node12 -->
<g id="edge21" class="edge">
<title>Node4&#45;&gt;Node12</title>
<path fill="none" stroke="#404040" d="M268.5,-620.43C268.5,-574.42 268.5,-521.54 268.5,-473.5 268.5,-473.5 268.5,-473.5 268.5,-161.5 268.5,-142.43 268.5,-121.58 268.5,-102.93"/>
<polygon fill="none" stroke="#404040" points="268.5,-102.73 264.5,-96.73 268.5,-90.73 272.5,-96.73 268.5,-102.73"/>
<text text-anchor="middle" x="316" y="-271.5" font-family="Helvetica,sans-Serif" font-size="10.00"> +ClassDefaultObject</text>
</g>
<!-- Node15 -->
<g id="node15" class="node">
<title>Node15</title>
<g id="a_node15"><a xlink:href="../../de/dd6/classSDK_1_1UField.html" target="_top" xlink:title=" ">
<polygon fill="white" stroke="black" points="339,-444 339,-501 422,-501 422,-444 339,-444"/>
<text text-anchor="middle" x="380.5" y="-489" font-family="Helvetica,sans-Serif" font-size="10.00">SDK::UField</text>
<polyline fill="none" stroke="black" points="339,-482 422,-482 "/>
<text text-anchor="middle" x="380.5" y="-470" font-family="Helvetica,sans-Serif" font-size="10.00"> </text>
<polyline fill="none" stroke="black" points="339,-463 422,-463 "/>
<text text-anchor="start" x="347" y="-451" font-family="Helvetica,sans-Serif" font-size="10.00">+ StaticClass()</text>
</a>
</g>
</g>
<!-- Node4&#45;&gt;Node15 -->
<g id="edge18" class="edge">
<title>Node4&#45;&gt;Node15</title>
<path fill="none" stroke="midnightblue" d="M323.02,-611.05C340.33,-569.63 357.83,-527.75 368.9,-501.27"/>
<polygon fill="none" stroke="midnightblue" points="319.72,-609.86 319.09,-620.44 326.18,-612.56 319.72,-609.86"/>
</g>
<!-- Node5 -->
<g id="node5" class="node">
<title>Node5</title>
<g id="a_node5"><a xlink:href="../../d0/d22/structSDK_1_1FQWord.html" target="_top" xlink:title=" ">
<polygon fill="white" stroke="black" points="272.5,-962 272.5,-1030 352.5,-1030 352.5,-962 272.5,-962"/>
<text text-anchor="middle" x="312.5" y="-1018" font-family="Helvetica,sans-Serif" font-size="10.00">SDK::FQWord</text>
<polyline fill="none" stroke="black" points="272.5,-1011 352.5,-1011 "/>
<text text-anchor="start" x="280.5" y="-999" font-family="Helvetica,sans-Serif" font-size="10.00">+ A</text>
<text text-anchor="start" x="280.5" y="-988" font-family="Helvetica,sans-Serif" font-size="10.00">+ B</text>
<polyline fill="none" stroke="black" points="272.5,-981 352.5,-981 "/>
<text text-anchor="middle" x="312.5" y="-969" font-family="Helvetica,sans-Serif" font-size="10.00"> </text>
</a>
</g>
</g>
<!-- Node5&#45;&gt;Node4 -->
<g id="edge4" class="edge">
<title>Node5&#45;&gt;Node4</title>
<path fill="none" stroke="#404040" d="M306.7,-961.86C302.8,-939.57 297.38,-908.56 291.84,-876.9"/>
<polygon fill="none" stroke="#404040" points="291.78,-876.57 286.81,-871.35 289.71,-864.75 294.69,-869.97 291.78,-876.57"/>
<text text-anchor="middle" x="329.5" y="-897" font-family="Helvetica,sans-Serif" font-size="10.00"> +ObjectFlags</text>
</g>
<!-- Node6 -->
<g id="node6" class="node">
<title>Node6</title>
<g id="a_node6"><a xlink:href="../../d0/db6/structSDK_1_1FName.html" target="_top" xlink:title=" ">
<polygon fill="white" stroke="black" points="371,-934.5 371,-1057.5 478,-1057.5 478,-934.5 371,-934.5"/>
<text text-anchor="middle" x="424.5" y="-1045.5" font-family="Helvetica,sans-Serif" font-size="10.00">SDK::FName</text>
<polyline fill="none" stroke="black" points="371,-1038.5 478,-1038.5 "/>
<text text-anchor="start" x="379" y="-1026.5" font-family="Helvetica,sans-Serif" font-size="10.00">+ Index</text>
<text text-anchor="start" x="379" y="-1015.5" font-family="Helvetica,sans-Serif" font-size="10.00">+ Number</text>
<polyline fill="none" stroke="black" points="371,-1008.5 478,-1008.5 "/>
<text text-anchor="start" x="379" y="-996.5" font-family="Helvetica,sans-Serif" font-size="10.00">+ FName()</text>
<text text-anchor="start" x="379" y="-985.5" font-family="Helvetica,sans-Serif" font-size="10.00">+ FName()</text>
<text text-anchor="start" x="379" y="-974.5" font-family="Helvetica,sans-Serif" font-size="10.00">+ FName()</text>
<text text-anchor="start" x="379" y="-963.5" font-family="Helvetica,sans-Serif" font-size="10.00">+ GetName()</text>
<text text-anchor="start" x="379" y="-952.5" font-family="Helvetica,sans-Serif" font-size="10.00">+ operator==()</text>
<text text-anchor="start" x="379" y="-941.5" font-family="Helvetica,sans-Serif" font-size="10.00">+ GetGlobalNames()</text>
</a>
</g>
</g>
<!-- Node6&#45;&gt;Node1 -->
<g id="edge23" class="edge">
<title>Node6&#45;&gt;Node1</title>
<path fill="none" stroke="#404040" d="M456.59,-934.31C479.95,-884.48 507.5,-811.32 507.5,-743.5 507.5,-743.5 507.5,-743.5 507.5,-273 507.5,-251.52 511.45,-228.09 515.92,-208.43"/>
<polygon fill="none" stroke="#404040" points="515.92,-208.4 513.44,-201.63 518.74,-196.73 521.22,-203.5 515.92,-208.4"/>
<text text-anchor="middle" x="541" y="-470" font-family="Helvetica,sans-Serif" font-size="10.00"> +EmitterName</text>
</g>
<!-- Node6&#45;&gt;Node4 -->
<g id="edge5" class="edge">
<title>Node6&#45;&gt;Node4</title>
<path fill="none" stroke="#404040" d="M393.64,-934.44C384.61,-917.57 374.49,-899.39 364.5,-883 362.89,-880.36 361.26,-877.71 359.6,-875.04"/>
<polygon fill="none" stroke="#404040" points="359.48,-874.86 352.9,-871.91 353.08,-864.71 359.66,-867.65 359.48,-874.86"/>
<text text-anchor="middle" x="400.5" y="-897" font-family="Helvetica,sans-Serif" font-size="10.00"> +Name</text>
</g>
<!-- Node7 -->
<g id="node7" class="node">
<title>Node7</title>
<g id="a_node7"><a xlink:href="../../d3/d79/classSDK_1_1TArray.html" target="_top" xlink:title=" ">
<polygon fill="white" stroke="black" points="281.5,-1105.5 281.5,-1239.5 461.5,-1239.5 461.5,-1105.5 281.5,-1105.5"/>
<text text-anchor="middle" x="371.5" y="-1227.5" font-family="Helvetica,sans-Serif" font-size="10.00">SDK::TArray&lt; SDK::FNameEntry * &gt;</text>
<polyline fill="none" stroke="black" points="281.5,-1220.5 461.5,-1220.5 "/>
<text text-anchor="start" x="289.5" y="-1208.5" font-family="Helvetica,sans-Serif" font-size="10.00">&#45; Count</text>
<text text-anchor="start" x="289.5" y="-1197.5" font-family="Helvetica,sans-Serif" font-size="10.00">&#45; Max</text>
<polyline fill="none" stroke="black" points="281.5,-1190.5 461.5,-1190.5 "/>
<text text-anchor="start" x="289.5" y="-1178.5" font-family="Helvetica,sans-Serif" font-size="10.00">+ TArray()</text>
<text text-anchor="start" x="289.5" y="-1167.5" font-family="Helvetica,sans-Serif" font-size="10.00">+ Num()</text>
<text text-anchor="start" x="289.5" y="-1156.5" font-family="Helvetica,sans-Serif" font-size="10.00">+ operator[]()</text>
<text text-anchor="start" x="289.5" y="-1145.5" font-family="Helvetica,sans-Serif" font-size="10.00">+ operator[]()</text>
<text text-anchor="start" x="289.5" y="-1134.5" font-family="Helvetica,sans-Serif" font-size="10.00">+ IsValidIndex()</text>
<text text-anchor="start" x="289.5" y="-1123.5" font-family="Helvetica,sans-Serif" font-size="10.00">+ GetByIndex()</text>
<text text-anchor="start" x="289.5" y="-1112.5" font-family="Helvetica,sans-Serif" font-size="10.00">+ GetByIndex()</text>
</a>
</g>
</g>
<!-- Node7&#45;&gt;Node6 -->
<g id="edge6" class="edge">
<title>Node7&#45;&gt;Node6</title>
<path fill="none" stroke="#404040" d="M391.69,-1105.03C395.24,-1093.33 398.96,-1081.1 402.56,-1069.25"/>
<polygon fill="none" stroke="#404040" points="402.62,-1069.04 400.54,-1062.13 406.11,-1057.56 408.19,-1064.46 402.62,-1069.04"/>
<text text-anchor="middle" x="425" y="-1079" font-family="Helvetica,sans-Serif" font-size="10.00"> +GNames</text>
</g>
<!-- Node8 -->
<g id="node8" class="node">
<title>Node8</title>
<g id="a_node8"><a xlink:href="../../d7/ddf/classSDK_1_1FNameEntry.html" target="_top" xlink:title=" ">
<polygon fill="white" stroke="black" points="322,-1326 322,-1394 421,-1394 421,-1326 322,-1326"/>
<text text-anchor="middle" x="371.5" y="-1382" font-family="Helvetica,sans-Serif" font-size="10.00">SDK::FNameEntry</text>
<polyline fill="none" stroke="black" points="322,-1375 421,-1375 "/>
<text text-anchor="start" x="330" y="-1363" font-family="Helvetica,sans-Serif" font-size="10.00">+ UnknownData00</text>
<text text-anchor="start" x="330" y="-1352" font-family="Helvetica,sans-Serif" font-size="10.00">+ name</text>
<polyline fill="none" stroke="black" points="322,-1345 421,-1345 "/>
<text text-anchor="start" x="330" y="-1333" font-family="Helvetica,sans-Serif" font-size="10.00">+ GetName()</text>
</a>
</g>
</g>
<!-- Node8&#45;&gt;Node7 -->
<g id="edge7" class="edge">
<title>Node8&#45;&gt;Node7</title>
<path fill="none" stroke="#404040" d="M371.5,-1325.84C371.5,-1305.23 371.5,-1277.83 371.5,-1251.95"/>
<polygon fill="none" stroke="#404040" points="371.5,-1251.8 367.5,-1245.8 371.5,-1239.8 375.5,-1245.8 371.5,-1251.8"/>
<text text-anchor="middle" x="385.5" y="-1261" font-family="Helvetica,sans-Serif" font-size="10.00"> &#45;Data</text>
</g>
<!-- Node9 -->
<g id="node9" class="node">
<title>Node9</title>
<g id="a_node9"><a xlink:href="../../d3/d79/classSDK_1_1TArray.html" target="_top" xlink:title=" ">
<polygon fill="white" stroke="black" points="121,-1287.5 121,-1432.5 218,-1432.5 218,-1287.5 121,-1287.5"/>
<text text-anchor="middle" x="169.5" y="-1420.5" font-family="Helvetica,sans-Serif" font-size="10.00">SDK::TArray&lt; T &gt;</text>
<polyline fill="none" stroke="black" points="121,-1413.5 218,-1413.5 "/>
<text text-anchor="start" x="129" y="-1401.5" font-family="Helvetica,sans-Serif" font-size="10.00">&#45; Data</text>
<text text-anchor="start" x="129" y="-1390.5" font-family="Helvetica,sans-Serif" font-size="10.00">&#45; Count</text>
<text text-anchor="start" x="129" y="-1379.5" font-family="Helvetica,sans-Serif" font-size="10.00">&#45; Max</text>
<polyline fill="none" stroke="black" points="121,-1372.5 218,-1372.5 "/>
<text text-anchor="start" x="129" y="-1360.5" font-family="Helvetica,sans-Serif" font-size="10.00">+ TArray()</text>
<text text-anchor="start" x="129" y="-1349.5" font-family="Helvetica,sans-Serif" font-size="10.00">+ Num()</text>
<text text-anchor="start" x="129" y="-1338.5" font-family="Helvetica,sans-Serif" font-size="10.00">+ operator[]()</text>
<text text-anchor="start" x="129" y="-1327.5" font-family="Helvetica,sans-Serif" font-size="10.00">+ operator[]()</text>
<text text-anchor="start" x="129" y="-1316.5" font-family="Helvetica,sans-Serif" font-size="10.00">+ IsValidIndex()</text>
<text text-anchor="start" x="129" y="-1305.5" font-family="Helvetica,sans-Serif" font-size="10.00">+ GetByIndex()</text>
<text text-anchor="start" x="129" y="-1294.5" font-family="Helvetica,sans-Serif" font-size="10.00">+ GetByIndex()</text>
</a>
</g>
</g>
<!-- Node9&#45;&gt;Node7 -->
<g id="edge8" class="edge">
<title>Node9&#45;&gt;Node7</title>
<path fill="none" stroke="orange" d="M225.06,-1290.21C235.11,-1279.04 245.8,-1267.9 256.5,-1258 264.32,-1250.76 272.76,-1243.57 281.38,-1236.62"/>
<polygon fill="orange" stroke="orange" points="222.22,-1288.13 218.21,-1297.93 227.46,-1292.77 222.22,-1288.13"/>
<text text-anchor="middle" x="312" y="-1261" font-family="Helvetica,sans-Serif" font-size="10.00"> &lt; SDK::FNameEntry * &gt;</text>
</g>
<!-- Node9&#45;&gt;Node10 -->
<g id="edge12" class="edge">
<title>Node9&#45;&gt;Node10</title>
<path fill="none" stroke="orange" d="M113.69,-1308.93C81.56,-1274.47 47.5,-1225.64 47.5,-1173.5 47.5,-1173.5 47.5,-1173.5 47.5,-741.5 47.5,-672.24 58.49,-593.65 67.79,-539.58"/>
<polygon fill="orange" stroke="orange" points="111.49,-1311.69 120.93,-1316.5 116.55,-1306.86 111.49,-1311.69"/>
<text text-anchor="middle" x="93" y="-993.5" font-family="Helvetica,sans-Serif" font-size="10.00"> &lt; SDK::UObject * &gt;</text>
</g>
<!-- Node10&#45;&gt;Node4 -->
<g id="edge10" class="edge">
<title>Node10&#45;&gt;Node4</title>
<path fill="none" stroke="#404040" d="M101.62,-539.66C109.72,-560.47 120.06,-582.96 132.5,-602 140.98,-614.98 150.77,-627.77 161.15,-640.05"/>
<polygon fill="none" stroke="#404040" points="161.33,-640.25 168.28,-642.17 169.18,-649.32 162.23,-647.4 161.33,-640.25"/>
<text text-anchor="middle" x="158" y="-594" font-family="Helvetica,sans-Serif" font-size="10.00"> +GObjects</text>
</g>
<!-- Node11 -->
<g id="node11" class="node">
<title>Node11</title>
<g id="a_node11"><a xlink:href="../../d9/dfa/structSDK_1_1FPointer.html" target="_top" xlink:title=" ">
<polygon fill="white" stroke="black" points="156.5,-962 156.5,-1030 254.5,-1030 254.5,-962 156.5,-962"/>
<text text-anchor="middle" x="205.5" y="-1018" font-family="Helvetica,sans-Serif" font-size="10.00">SDK::FPointer</text>
<polyline fill="none" stroke="black" points="156.5,-1011 254.5,-1011 "/>
<text text-anchor="start" x="164.5" y="-999" font-family="Helvetica,sans-Serif" font-size="10.00">+ Dummy</text>
<text text-anchor="start" x="164.5" y="-988" font-family="Helvetica,sans-Serif" font-size="10.00">+ UnknownData00</text>
<polyline fill="none" stroke="black" points="156.5,-981 254.5,-981 "/>
<text text-anchor="middle" x="205.5" y="-969" font-family="Helvetica,sans-Serif" font-size="10.00"> </text>
</a>
</g>
</g>
<!-- Node11&#45;&gt;Node4 -->
<g id="edge13" class="edge">
<title>Node11&#45;&gt;Node4</title>
<path fill="none" stroke="#404040" d="M208.2,-961.85C210.45,-939.39 214.31,-909.16 220.5,-883 221.01,-880.85 221.54,-878.69 222.08,-876.51"/>
<polygon fill="none" stroke="#404040" points="222.11,-876.42 219.77,-869.59 225.17,-864.81 227.51,-871.64 222.11,-876.42"/>
<text text-anchor="middle" x="255" y="-908" font-family="Helvetica,sans-Serif" font-size="10.00"> +StateFrame</text>
<text text-anchor="middle" x="255" y="-897" font-family="Helvetica,sans-Serif" font-size="10.00">+VfTableObject</text>
<text text-anchor="middle" x="255" y="-886" font-family="Helvetica,sans-Serif" font-size="10.00">+LinkerIndex</text>
</g>
<!-- Node12&#45;&gt;Node4 -->
<g id="edge14" class="edge">
<title>Node12&#45;&gt;Node4</title>
<path fill="none" stroke="#404040" d="M225.77,-90.59C210.73,-110.6 197.5,-135.57 197.5,-161.5 197.5,-473.5 197.5,-473.5 197.5,-473.5 197.5,-518.36 206.91,-566.08 218.88,-608.63"/>
<polygon fill="none" stroke="#404040" points="218.89,-608.67 224.4,-613.32 222.23,-620.2 216.72,-615.55 218.89,-608.67"/>
<text text-anchor="middle" x="215" y="-271.5" font-family="Helvetica,sans-Serif" font-size="10.00"> +Class</text>
</g>
<!-- Node13 -->
<g id="node13" class="node">
<title>Node13</title>
<g id="a_node13"><a xlink:href="../../df/d72/classSDK_1_1UState.html" target="_top" xlink:title=" ">
<polygon fill="white" stroke="black" points="327.5,-134 327.5,-191 425.5,-191 425.5,-134 327.5,-134"/>
<text text-anchor="middle" x="376.5" y="-179" font-family="Helvetica,sans-Serif" font-size="10.00">SDK::UState</text>
<polyline fill="none" stroke="black" points="327.5,-172 425.5,-172 "/>
<text text-anchor="start" x="335.5" y="-160" font-family="Helvetica,sans-Serif" font-size="10.00">+ UnknownData00</text>
<polyline fill="none" stroke="black" points="327.5,-153 425.5,-153 "/>
<text text-anchor="start" x="335.5" y="-141" font-family="Helvetica,sans-Serif" font-size="10.00">+ StaticClass()</text>
</a>
</g>
</g>
<!-- Node13&#45;&gt;Node12 -->
<g id="edge15" class="edge">
<title>Node13&#45;&gt;Node12</title>
<path fill="none" stroke="midnightblue" d="M343.57,-126.44C333.04,-115.23 321.25,-102.67 310.18,-90.88"/>
<polygon fill="none" stroke="midnightblue" points="341.23,-129.06 350.63,-133.95 346.34,-124.27 341.23,-129.06"/>
</g>
<!-- Node14 -->
<g id="node14" class="node">
<title>Node14</title>
<g id="a_node14"><a xlink:href="../../d8/de9/classSDK_1_1UStruct.html" target="_top" xlink:title=" ">
<polygon fill="white" stroke="black" points="381.5,-234.5 381.5,-313.5 479.5,-313.5 479.5,-234.5 381.5,-234.5"/>
<text text-anchor="middle" x="430.5" y="-301.5" font-family="Helvetica,sans-Serif" font-size="10.00">SDK::UStruct</text>
<polyline fill="none" stroke="black" points="381.5,-294.5 479.5,-294.5 "/>
<text text-anchor="start" x="389.5" y="-282.5" font-family="Helvetica,sans-Serif" font-size="10.00">+ UnknownData00</text>
<text text-anchor="start" x="389.5" y="-271.5" font-family="Helvetica,sans-Serif" font-size="10.00">+ PropertySize</text>
<text text-anchor="start" x="389.5" y="-260.5" font-family="Helvetica,sans-Serif" font-size="10.00">+ UnknownData01</text>
<polyline fill="none" stroke="black" points="381.5,-253.5 479.5,-253.5 "/>
<text text-anchor="start" x="389.5" y="-241.5" font-family="Helvetica,sans-Serif" font-size="10.00">+ StaticClass()</text>
</a>
</g>
</g>
<!-- Node14&#45;&gt;Node13 -->
<g id="edge16" class="edge">
<title>Node14&#45;&gt;Node13</title>
<path fill="none" stroke="midnightblue" d="M406.92,-225.18C401.17,-213.53 395.21,-201.45 390.11,-191.1"/>
<polygon fill="none" stroke="midnightblue" points="403.9,-226.97 411.46,-234.39 410.18,-223.88 403.9,-226.97"/>
</g>
<!-- Node15&#45;&gt;Node14 -->
<g id="edge17" class="edge">
<title>Node15&#45;&gt;Node14</title>
<path fill="none" stroke="midnightblue" d="M384.36,-433.44C387.89,-405.04 394.16,-365.52 404.5,-332 406.36,-325.97 408.71,-319.75 411.24,-313.73"/>
<polygon fill="none" stroke="midnightblue" points="380.84,-433.4 383.14,-443.75 387.8,-434.23 380.84,-433.4"/>
</g>
<!-- Node15&#45;&gt;Node14 -->
<g id="edge20" class="edge">
<title>Node15&#45;&gt;Node14</title>
<path fill="none" stroke="#404040" d="M387.56,-443.76C395.35,-413.12 408.07,-363.14 417.65,-325.5"/>
<polygon fill="none" stroke="#404040" points="417.68,-325.39 415.28,-318.59 420.64,-313.76 423.04,-320.56 417.68,-325.39"/>
<text text-anchor="middle" x="444.5" y="-346" font-family="Helvetica,sans-Serif" font-size="10.00"> +SuperField</text>
<text text-anchor="middle" x="444.5" y="-335" font-family="Helvetica,sans-Serif" font-size="10.00">+Children</text>
</g>
<!-- Node15&#45;&gt;Node15 -->
<g id="edge19" class="edge">
<title>Node15&#45;&gt;Node15</title>
<path fill="none" stroke="#404040" d="M422.21,-495.39C432.41,-493.69 440,-486.06 440,-472.5 440,-464.66 437.46,-458.8 433.35,-454.93"/>
<polygon fill="none" stroke="#404040" points="433.04,-454.78 425.9,-455.81 422.21,-449.61 429.34,-448.59 433.04,-454.78"/>
<text text-anchor="middle" x="455.5" y="-470" font-family="Helvetica,sans-Serif" font-size="10.00"> +Next</text>
</g>
<!-- Node16 -->
<g id="node16" class="node">
<title>Node16</title>
<g id="a_node16"><a xlink:href="../../d4/daf/structSDK_1_1FColor.html" target="_top" xlink:title=" ">
<polygon fill="white" stroke="black" points="633,-692 633,-793 706,-793 706,-692 633,-692"/>
<text text-anchor="middle" x="669.5" y="-781" font-family="Helvetica,sans-Serif" font-size="10.00">SDK::FColor</text>
<polyline fill="none" stroke="black" points="633,-774 706,-774 "/>
<text text-anchor="start" x="641" y="-762" font-family="Helvetica,sans-Serif" font-size="10.00">+ B</text>
<text text-anchor="start" x="641" y="-751" font-family="Helvetica,sans-Serif" font-size="10.00">+ G</text>
<text text-anchor="start" x="641" y="-740" font-family="Helvetica,sans-Serif" font-size="10.00">+ R</text>
<text text-anchor="start" x="641" y="-729" font-family="Helvetica,sans-Serif" font-size="10.00">+ A</text>
<polyline fill="none" stroke="black" points="633,-722 706,-722 "/>
<text text-anchor="start" x="641" y="-710" font-family="Helvetica,sans-Serif" font-size="10.00">+ FColor()</text>
<text text-anchor="start" x="641" y="-699" font-family="Helvetica,sans-Serif" font-size="10.00">+ FColor()</text>
</a>
</g>
</g>
<!-- Node16&#45;&gt;Node3 -->
<g id="edge22" class="edge">
<title>Node16&#45;&gt;Node3</title>
<path fill="none" stroke="#404040" d="M669.5,-691.72C669.5,-661.73 669.5,-622.28 669.5,-585.18"/>
<polygon fill="none" stroke="#404040" points="669.5,-584.7 665.5,-578.7 669.5,-572.7 673.5,-578.7 669.5,-584.7"/>
<text text-anchor="middle" x="714.5" y="-594" font-family="Helvetica,sans-Serif" font-size="10.00"> +ModuleEditorColor</text>
</g>
</g>
</svg>
        <g id="navigator" transform="translate(0 0)" fill="#404254">
                <rect fill="#f2f5e9" fill-opacity="0.5" stroke="#606060" stroke-width=".5" x="0" y="0" width="60" height="60"/>
                <use id="zoomplus" xlink:href="#zoomPlus" x="17" y="9" onmousedown="handleZoom(evt,'in')"/>
                <use id="zoomminus" xlink:href="#zoomMin" x="42" y="9" onmousedown="handleZoom(evt,'out')"/>
                <use id="reset" xlink:href="#resetDef" x="30" y="36" onmousedown="handleReset()"/>
                <g id="arrowUp" xlink:href="#dirArrow" transform="translate(30 24)" onmousedown="handlePan(0,-1)">
                  <use xlink:href="#rim" fill="#404040">
                        <set attributeName="fill" to="#808080" begin="arrowUp.mouseover" end="arrowUp.mouseout"/>
                  </use>
                  <path fill="none" stroke="white" stroke-width="1.5" d="M0,-3.0v7 M-2.5,-0.5L0,-3.0L2.5,-0.5"/>
                </g>
                <g id="arrowRight" xlink:href="#dirArrow" transform="rotate(90) translate(36 -43)" onmousedown="handlePan(1,0)">
                  <use xlink:href="#rim" fill="#404040">
                        <set attributeName="fill" to="#808080" begin="arrowRight.mouseover" end="arrowRight.mouseout"/>
                  </use>
                  <path fill="none" stroke="white" stroke-width="1.5" d="M0,-3.0v7 M-2.5,-0.5L0,-3.0L2.5,-0.5"/>
                </g>
                <g id="arrowDown" xlink:href="#dirArrow" transform="rotate(180) translate(-30 -48)" onmousedown="handlePan(0,1)">
                  <use xlink:href="#rim" fill="#404040">
                        <set attributeName="fill" to="#808080" begin="arrowDown.mouseover" end="arrowDown.mouseout"/>
                  </use>
                  <path fill="none" stroke="white" stroke-width="1.5" d="M0,-3.0v7 M-2.5,-0.5L0,-3.0L2.5,-0.5"/>
                </g>
                <g id="arrowLeft" xlink:href="#dirArrow" transform="rotate(270) translate(-36 17)" onmousedown="handlePan(-1,0)">
                  <use xlink:href="#rim" fill="#404040">
                        <set attributeName="fill" to="#808080" begin="arrowLeft.mouseover" end="arrowLeft.mouseout"/>
                  </use>
                  <path fill="none" stroke="white" stroke-width="1.5" d="M0,-3.0v7 M-2.5,-0.5L0,-3.0L2.5,-0.5"/>
                </g>
        </g>
        <svg viewBox="0 0 15 15" width="100%" height="30px" preserveAspectRatio="xMaxYMin meet">
         <g id="arrow_out" transform="scale(0.3 0.3)">
          <a xlink:href="classSDK_1_1UParticleModuleLocationEmitterDirect__coll__graph_org.svg" target="_base">
           <rect id="button" ry="5" rx="5" y="6" x="6" height="38" width="38"
                fill="#f2f5e9" fill-opacity="0.5" stroke="#606060" stroke-width="1.0"/>
           <path id="arrow"
             d="M 11.500037,31.436501 C 11.940474,20.09759 22.043105,11.32322 32.158766,21.979434 L 37.068811,17.246167 C 37.068811,17.246167 37.088388,32 37.088388,32 L 22.160133,31.978069 C 22.160133,31.978069 26.997745,27.140456 26.997745,27.140456 C 18.528582,18.264221 13.291696,25.230495 11.500037,31.436501 z"
             style="fill:#404040;"/>
          </a>
         </g>
        </svg>
</svg>
