<?xml version="1.0" encoding="UTF-8" standalone="no"?>
<!DOCTYPE svg PUBLIC "-//W3C//DTD SVG 1.1//EN"
 "http://www.w3.org/Graphics/SVG/1.1/DTD/svg11.dtd">
<!-- Generated by graphviz version 2.41.20171026.1811 (20171026.1811)
 -->
<!-- Title: SDK::FEFClientEventTriggerAction_Teleport Pages: 1 -->
<svg width="514pt" height="634pt"
 viewBox="0.00 0.00 514.00 634.00" xmlns="http://www.w3.org/2000/svg" xmlns:xlink="http://www.w3.org/1999/xlink">
<g id="graph0" class="graph" transform="scale(1 1) rotate(0) translate(4 630)">
<title>SDK::FEFClientEventTriggerAction_Teleport</title>
<polygon fill="white" stroke="transparent" points="-4,4 -4,-630 510,-630 510,4 -4,4"/>
<!-- Node1 -->
<g id="node1" class="node">
<title>Node1</title>
<g id="a_node1"><a xlink:title=" ">
<polygon fill="#bfbfbf" stroke="black" points="146.5,-0.5 146.5,-68.5 289.5,-68.5 289.5,-0.5 146.5,-0.5"/>
<text text-anchor="start" x="154.5" y="-56.5" font-family="Helvetica,sans-Serif" font-size="10.00">SDK::FEFClientEventTrigger</text>
<text text-anchor="middle" x="218" y="-45.5" font-family="Helvetica,sans-Serif" font-size="10.00">Action_Teleport</text>
<polyline fill="none" stroke="black" points="146.5,-38.5 289.5,-38.5 "/>
<text text-anchor="middle" x="218" y="-26.5" font-family="Helvetica,sans-Serif" font-size="10.00"> </text>
<polyline fill="none" stroke="black" points="146.5,-19.5 289.5,-19.5 "/>
<text text-anchor="middle" x="218" y="-7.5" font-family="Helvetica,sans-Serif" font-size="10.00"> </text>
</a>
</g>
</g>
<!-- Node2 -->
<g id="node2" class="node">
<title>Node2</title>
<g id="a_node2"><a xlink:href="../../d3/d79/classSDK_1_1TArray.html" target="_top" xlink:title=" ">
<polygon fill="white" stroke="black" points="36.5,-116.5 36.5,-261.5 143.5,-261.5 143.5,-116.5 36.5,-116.5"/>
<text text-anchor="start" x="44.5" y="-249.5" font-family="Helvetica,sans-Serif" font-size="10.00">SDK::TArray&lt; struct</text>
<text text-anchor="middle" x="90" y="-238.5" font-family="Helvetica,sans-Serif" font-size="10.00"> SDK::FVector &gt;</text>
<polyline fill="none" stroke="black" points="36.5,-231.5 143.5,-231.5 "/>
<text text-anchor="start" x="44.5" y="-219.5" font-family="Helvetica,sans-Serif" font-size="10.00">&#45; Count</text>
<text text-anchor="start" x="44.5" y="-208.5" font-family="Helvetica,sans-Serif" font-size="10.00">&#45; Max</text>
<polyline fill="none" stroke="black" points="36.5,-201.5 143.5,-201.5 "/>
<text text-anchor="start" x="44.5" y="-189.5" font-family="Helvetica,sans-Serif" font-size="10.00">+ TArray()</text>
<text text-anchor="start" x="44.5" y="-178.5" font-family="Helvetica,sans-Serif" font-size="10.00">+ Num()</text>
<text text-anchor="start" x="44.5" y="-167.5" font-family="Helvetica,sans-Serif" font-size="10.00">+ operator[]()</text>
<text text-anchor="start" x="44.5" y="-156.5" font-family="Helvetica,sans-Serif" font-size="10.00">+ operator[]()</text>
<text text-anchor="start" x="44.5" y="-145.5" font-family="Helvetica,sans-Serif" font-size="10.00">+ IsValidIndex()</text>
<text text-anchor="start" x="44.5" y="-134.5" font-family="Helvetica,sans-Serif" font-size="10.00">+ GetByIndex()</text>
<text text-anchor="start" x="44.5" y="-123.5" font-family="Helvetica,sans-Serif" font-size="10.00">+ GetByIndex()</text>
</a>
</g>
</g>
<!-- Node2&#45;&gt;Node1 -->
<g id="edge1" class="edge">
<title>Node2&#45;&gt;Node1</title>
<path fill="none" stroke="#404040" d="M130.43,-116.24C137.41,-106.01 145.01,-95.94 153,-87 156.15,-83.48 159.56,-80.01 163.11,-76.65"/>
<polygon fill="none" stroke="#404040" points="163.23,-76.53 165.02,-69.55 172.16,-68.51 170.37,-75.5 163.23,-76.53"/>
<text text-anchor="middle" x="183.5" y="-90" font-family="Helvetica,sans-Serif" font-size="10.00"> +PositionList</text>
</g>
<!-- Node3 -->
<g id="node3" class="node">
<title>Node3</title>
<g id="a_node3"><a xlink:href="../../dd/d43/structSDK_1_1FVector.html" target="_top" xlink:title=" ">
<polygon fill="white" stroke="black" points="0,-353.5 0,-432.5 78,-432.5 78,-353.5 0,-353.5"/>
<text text-anchor="middle" x="39" y="-420.5" font-family="Helvetica,sans-Serif" font-size="10.00">SDK::FVector</text>
<polyline fill="none" stroke="black" points="0,-413.5 78,-413.5 "/>
<text text-anchor="start" x="8" y="-401.5" font-family="Helvetica,sans-Serif" font-size="10.00">+ X</text>
<text text-anchor="start" x="8" y="-390.5" font-family="Helvetica,sans-Serif" font-size="10.00">+ Y</text>
<text text-anchor="start" x="8" y="-379.5" font-family="Helvetica,sans-Serif" font-size="10.00">+ Z</text>
<polyline fill="none" stroke="black" points="0,-372.5 78,-372.5 "/>
<text text-anchor="middle" x="39" y="-360.5" font-family="Helvetica,sans-Serif" font-size="10.00"> </text>
</a>
</g>
</g>
<!-- Node3&#45;&gt;Node2 -->
<g id="edge2" class="edge">
<title>Node3&#45;&gt;Node2</title>
<path fill="none" stroke="#404040" d="M34.69,-353.27C33.41,-331.41 33.72,-303.78 40,-280 40.61,-277.7 41.29,-275.39 42.03,-273.09"/>
<polygon fill="none" stroke="#404040" points="42.1,-272.9 40.4,-265.89 46.22,-261.63 47.92,-268.64 42.1,-272.9"/>
<text text-anchor="middle" x="54" y="-288.5" font-family="Helvetica,sans-Serif" font-size="10.00"> &#45;Data</text>
</g>
<!-- Node4 -->
<g id="node4" class="node">
<title>Node4</title>
<g id="a_node4"><a xlink:href="../../d3/d79/classSDK_1_1TArray.html" target="_top" xlink:title=" ">
<polygon fill="white" stroke="black" points="175.5,-320.5 175.5,-465.5 272.5,-465.5 272.5,-320.5 175.5,-320.5"/>
<text text-anchor="middle" x="224" y="-453.5" font-family="Helvetica,sans-Serif" font-size="10.00">SDK::TArray&lt; T &gt;</text>
<polyline fill="none" stroke="black" points="175.5,-446.5 272.5,-446.5 "/>
<text text-anchor="start" x="183.5" y="-434.5" font-family="Helvetica,sans-Serif" font-size="10.00">&#45; Data</text>
<text text-anchor="start" x="183.5" y="-423.5" font-family="Helvetica,sans-Serif" font-size="10.00">&#45; Count</text>
<text text-anchor="start" x="183.5" y="-412.5" font-family="Helvetica,sans-Serif" font-size="10.00">&#45; Max</text>
<polyline fill="none" stroke="black" points="175.5,-405.5 272.5,-405.5 "/>
<text text-anchor="start" x="183.5" y="-393.5" font-family="Helvetica,sans-Serif" font-size="10.00">+ TArray()</text>
<text text-anchor="start" x="183.5" y="-382.5" font-family="Helvetica,sans-Serif" font-size="10.00">+ Num()</text>
<text text-anchor="start" x="183.5" y="-371.5" font-family="Helvetica,sans-Serif" font-size="10.00">+ operator[]()</text>
<text text-anchor="start" x="183.5" y="-360.5" font-family="Helvetica,sans-Serif" font-size="10.00">+ operator[]()</text>
<text text-anchor="start" x="183.5" y="-349.5" font-family="Helvetica,sans-Serif" font-size="10.00">+ IsValidIndex()</text>
<text text-anchor="start" x="183.5" y="-338.5" font-family="Helvetica,sans-Serif" font-size="10.00">+ GetByIndex()</text>
<text text-anchor="start" x="183.5" y="-327.5" font-family="Helvetica,sans-Serif" font-size="10.00">+ GetByIndex()</text>
</a>
</g>
</g>
<!-- Node4&#45;&gt;Node2 -->
<g id="edge3" class="edge">
<title>Node4&#45;&gt;Node2</title>
<path fill="none" stroke="orange" d="M166.87,-361.58C144.32,-346.64 120.39,-326.53 106,-302 98.84,-289.8 94.45,-275.61 91.82,-261.5"/>
<polygon fill="orange" stroke="orange" points="165.12,-364.62 175.43,-367.06 168.89,-358.72 165.12,-364.62"/>
<text text-anchor="middle" x="161.5" y="-288.5" font-family="Helvetica,sans-Serif" font-size="10.00"> &lt; struct SDK::FVector &gt;</text>
</g>
<!-- Node5 -->
<g id="node5" class="node">
<title>Node5</title>
<g id="a_node5"><a xlink:href="../../d3/d79/classSDK_1_1TArray.html" target="_top" xlink:title=" ">
<polygon fill="white" stroke="black" points="167.5,-116.5 167.5,-261.5 268.5,-261.5 268.5,-116.5 167.5,-116.5"/>
<text text-anchor="middle" x="218" y="-249.5" font-family="Helvetica,sans-Serif" font-size="10.00">SDK::TArray&lt; int &gt;</text>
<polyline fill="none" stroke="black" points="167.5,-242.5 268.5,-242.5 "/>
<text text-anchor="start" x="175.5" y="-230.5" font-family="Helvetica,sans-Serif" font-size="10.00">&#45; Data</text>
<text text-anchor="start" x="175.5" y="-219.5" font-family="Helvetica,sans-Serif" font-size="10.00">&#45; Count</text>
<text text-anchor="start" x="175.5" y="-208.5" font-family="Helvetica,sans-Serif" font-size="10.00">&#45; Max</text>
<polyline fill="none" stroke="black" points="167.5,-201.5 268.5,-201.5 "/>
<text text-anchor="start" x="175.5" y="-189.5" font-family="Helvetica,sans-Serif" font-size="10.00">+ TArray()</text>
<text text-anchor="start" x="175.5" y="-178.5" font-family="Helvetica,sans-Serif" font-size="10.00">+ Num()</text>
<text text-anchor="start" x="175.5" y="-167.5" font-family="Helvetica,sans-Serif" font-size="10.00">+ operator[]()</text>
<text text-anchor="start" x="175.5" y="-156.5" font-family="Helvetica,sans-Serif" font-size="10.00">+ operator[]()</text>
<text text-anchor="start" x="175.5" y="-145.5" font-family="Helvetica,sans-Serif" font-size="10.00">+ IsValidIndex()</text>
<text text-anchor="start" x="175.5" y="-134.5" font-family="Helvetica,sans-Serif" font-size="10.00">+ GetByIndex()</text>
<text text-anchor="start" x="175.5" y="-123.5" font-family="Helvetica,sans-Serif" font-size="10.00">+ GetByIndex()</text>
</a>
</g>
</g>
<!-- Node4&#45;&gt;Node5 -->
<g id="edge5" class="edge">
<title>Node4&#45;&gt;Node5</title>
<path fill="none" stroke="orange" d="M221.57,-310.09C221.09,-294.08 220.6,-277.4 220.13,-261.75"/>
<polygon fill="orange" stroke="orange" points="218.08,-310.61 221.88,-320.5 225.08,-310.4 218.08,-310.61"/>
<text text-anchor="middle" x="238" y="-288.5" font-family="Helvetica,sans-Serif" font-size="10.00"> &lt; int &gt;</text>
</g>
<!-- Node6 -->
<g id="node6" class="node">
<title>Node6</title>
<g id="a_node6"><a xlink:href="../../d3/d79/classSDK_1_1TArray.html" target="_top" xlink:title=" ">
<polygon fill="white" stroke="black" points="287,-116.5 287,-261.5 439,-261.5 439,-116.5 287,-116.5"/>
<text text-anchor="start" x="295" y="-249.5" font-family="Helvetica,sans-Serif" font-size="10.00">SDK::TArray&lt; SDK::TEnumAs</text>
<text text-anchor="middle" x="363" y="-238.5" font-family="Helvetica,sans-Serif" font-size="10.00">Byte&lt; EOceanAreaType &gt; &gt;</text>
<polyline fill="none" stroke="black" points="287,-231.5 439,-231.5 "/>
<text text-anchor="start" x="295" y="-219.5" font-family="Helvetica,sans-Serif" font-size="10.00">&#45; Count</text>
<text text-anchor="start" x="295" y="-208.5" font-family="Helvetica,sans-Serif" font-size="10.00">&#45; Max</text>
<polyline fill="none" stroke="black" points="287,-201.5 439,-201.5 "/>
<text text-anchor="start" x="295" y="-189.5" font-family="Helvetica,sans-Serif" font-size="10.00">+ TArray()</text>
<text text-anchor="start" x="295" y="-178.5" font-family="Helvetica,sans-Serif" font-size="10.00">+ Num()</text>
<text text-anchor="start" x="295" y="-167.5" font-family="Helvetica,sans-Serif" font-size="10.00">+ operator[]()</text>
<text text-anchor="start" x="295" y="-156.5" font-family="Helvetica,sans-Serif" font-size="10.00">+ operator[]()</text>
<text text-anchor="start" x="295" y="-145.5" font-family="Helvetica,sans-Serif" font-size="10.00">+ IsValidIndex()</text>
<text text-anchor="start" x="295" y="-134.5" font-family="Helvetica,sans-Serif" font-size="10.00">+ GetByIndex()</text>
<text text-anchor="start" x="295" y="-123.5" font-family="Helvetica,sans-Serif" font-size="10.00">+ GetByIndex()</text>
</a>
</g>
</g>
<!-- Node4&#45;&gt;Node6 -->
<g id="edge9" class="edge">
<title>Node4&#45;&gt;Node6</title>
<path fill="none" stroke="orange" d="M257.47,-311.31C263.1,-300.47 269.32,-289.73 276,-280 280.24,-273.82 284.92,-267.67 289.84,-261.65"/>
<polygon fill="orange" stroke="orange" points="254.24,-309.93 252.87,-320.43 260.5,-313.08 254.24,-309.93"/>
<text text-anchor="start" x="276" y="-294" font-family="Helvetica,sans-Serif" font-size="10.00"> &lt; SDK::TEnumAsByte</text>
<text text-anchor="middle" x="328.5" y="-283" font-family="Helvetica,sans-Serif" font-size="10.00">&lt; EOceanAreaType &gt; &gt;</text>
</g>
<!-- Node5&#45;&gt;Node1 -->
<g id="edge4" class="edge">
<title>Node5&#45;&gt;Node1</title>
<path fill="none" stroke="#404040" d="M218,-116.22C218,-104.09 218,-91.82 218,-80.62"/>
<polygon fill="none" stroke="#404040" points="218,-80.51 214,-74.51 218,-68.51 222,-74.51 218,-80.51"/>
<text text-anchor="middle" x="260.5" y="-90" font-family="Helvetica,sans-Serif" font-size="10.00"> +TeleportIndexList</text>
</g>
<!-- Node6&#45;&gt;Node1 -->
<g id="edge6" class="edge">
<title>Node6&#45;&gt;Node1</title>
<path fill="none" stroke="#404040" d="M329.77,-116.4C323.11,-105.86 315.5,-95.66 307,-87 303.17,-83.1 298.98,-79.39 294.57,-75.89"/>
<polygon fill="none" stroke="#404040" points="294.29,-75.68 287.08,-75.34 284.63,-68.56 291.83,-68.9 294.29,-75.68"/>
<text text-anchor="middle" x="364" y="-90" font-family="Helvetica,sans-Serif" font-size="10.00"> +OceanAreaTypeList</text>
</g>
<!-- Node7 -->
<g id="node7" class="node">
<title>Node7</title>
<g id="a_node7"><a xlink:href="../../df/d1c/classSDK_1_1TEnumAsByte.html" target="_top" xlink:title=" ">
<polygon fill="white" stroke="black" points="331,-331.5 331,-454.5 483,-454.5 483,-331.5 331,-331.5"/>
<text text-anchor="start" x="339" y="-442.5" font-family="Helvetica,sans-Serif" font-size="10.00">SDK::TEnumAsByte&lt; EOcean</text>
<text text-anchor="middle" x="407" y="-431.5" font-family="Helvetica,sans-Serif" font-size="10.00">AreaType &gt;</text>
<polyline fill="none" stroke="black" points="331,-424.5 483,-424.5 "/>
<text text-anchor="start" x="339" y="-412.5" font-family="Helvetica,sans-Serif" font-size="10.00">&#45; value</text>
<polyline fill="none" stroke="black" points="331,-405.5 483,-405.5 "/>
<text text-anchor="start" x="339" y="-393.5" font-family="Helvetica,sans-Serif" font-size="10.00">+ TEnumAsByte()</text>
<text text-anchor="start" x="339" y="-382.5" font-family="Helvetica,sans-Serif" font-size="10.00">+ TEnumAsByte()</text>
<text text-anchor="start" x="339" y="-371.5" font-family="Helvetica,sans-Serif" font-size="10.00">+ TEnumAsByte()</text>
<text text-anchor="start" x="339" y="-360.5" font-family="Helvetica,sans-Serif" font-size="10.00">+ TEnumAsByte()</text>
<text text-anchor="start" x="339" y="-349.5" font-family="Helvetica,sans-Serif" font-size="10.00">+ operator EOceanAreaType()</text>
<text text-anchor="start" x="339" y="-338.5" font-family="Helvetica,sans-Serif" font-size="10.00">+ GetValue()</text>
</a>
</g>
</g>
<!-- Node7&#45;&gt;Node6 -->
<g id="edge7" class="edge">
<title>Node7&#45;&gt;Node6</title>
<path fill="none" stroke="#404040" d="M395.63,-331.44C392.35,-314.74 388.67,-296.64 385,-280 384.53,-277.85 384.04,-275.68 383.55,-273.49"/>
<polygon fill="none" stroke="#404040" points="383.52,-273.35 378.27,-268.4 380.83,-261.65 386.07,-266.61 383.52,-273.35"/>
<text text-anchor="middle" x="404" y="-288.5" font-family="Helvetica,sans-Serif" font-size="10.00"> &#45;Data</text>
</g>
<!-- Node8 -->
<g id="node8" class="node">
<title>Node8</title>
<g id="a_node8"><a xlink:href="../../df/d1c/classSDK_1_1TEnumAsByte.html" target="_top" xlink:title=" ">
<polygon fill="white" stroke="black" points="328.5,-513.5 328.5,-625.5 485.5,-625.5 485.5,-513.5 328.5,-513.5"/>
<text text-anchor="middle" x="407" y="-613.5" font-family="Helvetica,sans-Serif" font-size="10.00">SDK::TEnumAsByte&lt; TEnum &gt;</text>
<polyline fill="none" stroke="black" points="328.5,-606.5 485.5,-606.5 "/>
<text text-anchor="start" x="336.5" y="-594.5" font-family="Helvetica,sans-Serif" font-size="10.00">&#45; value</text>
<polyline fill="none" stroke="black" points="328.5,-587.5 485.5,-587.5 "/>
<text text-anchor="start" x="336.5" y="-575.5" font-family="Helvetica,sans-Serif" font-size="10.00">+ TEnumAsByte()</text>
<text text-anchor="start" x="336.5" y="-564.5" font-family="Helvetica,sans-Serif" font-size="10.00">+ TEnumAsByte()</text>
<text text-anchor="start" x="336.5" y="-553.5" font-family="Helvetica,sans-Serif" font-size="10.00">+ TEnumAsByte()</text>
<text text-anchor="start" x="336.5" y="-542.5" font-family="Helvetica,sans-Serif" font-size="10.00">+ TEnumAsByte()</text>
<text text-anchor="start" x="336.5" y="-531.5" font-family="Helvetica,sans-Serif" font-size="10.00">+ operator TEnum()</text>
<text text-anchor="start" x="336.5" y="-520.5" font-family="Helvetica,sans-Serif" font-size="10.00">+ GetValue()</text>
</a>
</g>
</g>
<!-- Node8&#45;&gt;Node7 -->
<g id="edge8" class="edge">
<title>Node8&#45;&gt;Node7</title>
<path fill="none" stroke="orange" d="M407,-503.03C407,-487.15 407,-470.24 407,-454.6"/>
<polygon fill="orange" stroke="orange" points="403.5,-503.29 407,-513.29 410.5,-503.29 403.5,-503.29"/>
<text text-anchor="middle" x="456.5" y="-487" font-family="Helvetica,sans-Serif" font-size="10.00"> &lt; EOceanAreaType &gt;</text>
</g>
</g>
</svg>
