<?xml version="1.0" encoding="UTF-8" standalone="no"?>
<!DOCTYPE svg PUBLIC "-//W3C//DTD SVG 1.1//EN"
 "http://www.w3.org/Graphics/SVG/1.1/DTD/svg11.dtd">
<!-- Generated by graphviz version 2.41.20171026.1811 (20171026.1811)
 -->
<!-- Title: SDK::UUIMapSummary Pages: 1 -->
<svg width="977pt" height="2007pt"
 viewBox="0.00 0.00 977.00 2007.00" xmlns="http://www.w3.org/2000/svg" xmlns:xlink="http://www.w3.org/1999/xlink">
<g id="graph0" class="graph" transform="scale(1 1) rotate(0) translate(4 2003)">
<title>SDK::UUIMapSummary</title>
<polygon fill="white" stroke="transparent" points="-4,4 -4,-2003 973,-2003 973,4 -4,4"/>
<!-- Node1 -->
<g id="node1" class="node">
<title>Node1</title>
<g id="a_node1"><a xlink:title=" ">
<polygon fill="#bfbfbf" stroke="black" points="0,-0.5 0,-57.5 122,-57.5 122,-0.5 0,-0.5"/>
<text text-anchor="middle" x="61" y="-45.5" font-family="Helvetica,sans-Serif" font-size="10.00">SDK::UUIMapSummary</text>
<polyline fill="none" stroke="black" points="0,-38.5 122,-38.5 "/>
<text text-anchor="middle" x="61" y="-26.5" font-family="Helvetica,sans-Serif" font-size="10.00"> </text>
<polyline fill="none" stroke="black" points="0,-19.5 122,-19.5 "/>
<text text-anchor="start" x="8" y="-7.5" font-family="Helvetica,sans-Serif" font-size="10.00">+ StaticClass()</text>
</a>
</g>
</g>
<!-- Node2 -->
<g id="node2" class="node">
<title>Node2</title>
<g id="a_node2"><a xlink:href="../../d8/de8/classSDK_1_1UUIResourceDataProvider.html" target="_top" xlink:title=" ">
<polygon fill="white" stroke="black" points="116.5,-95.5 116.5,-163.5 277.5,-163.5 277.5,-95.5 116.5,-95.5"/>
<text text-anchor="middle" x="197" y="-151.5" font-family="Helvetica,sans-Serif" font-size="10.00">SDK::UUIResourceDataProvider</text>
<polyline fill="none" stroke="black" points="116.5,-144.5 277.5,-144.5 "/>
<text text-anchor="start" x="124.5" y="-132.5" font-family="Helvetica,sans-Serif" font-size="10.00">+ bSkipDuringEnumeration</text>
<polyline fill="none" stroke="black" points="116.5,-125.5 277.5,-125.5 "/>
<text text-anchor="start" x="124.5" y="-113.5" font-family="Helvetica,sans-Serif" font-size="10.00">+ InitializeProvider()</text>
<text text-anchor="start" x="124.5" y="-102.5" font-family="Helvetica,sans-Serif" font-size="10.00">+ StaticClass()</text>
</a>
</g>
</g>
<!-- Node2&#45;&gt;Node1 -->
<g id="edge1" class="edge">
<title>Node2&#45;&gt;Node1</title>
<path fill="none" stroke="midnightblue" d="M142.83,-89.27C128.18,-78.66 112.63,-67.39 99.07,-57.57"/>
<polygon fill="none" stroke="midnightblue" points="141.18,-92.4 151.34,-95.43 145.29,-86.73 141.18,-92.4"/>
</g>
<!-- Node3 -->
<g id="node3" class="node">
<title>Node3</title>
<g id="a_node3"><a xlink:href="../../d2/d3a/classSDK_1_1UUIPropertyDataProvider.html" target="_top" xlink:title=" ">
<polygon fill="white" stroke="black" points="213.5,-201.5 213.5,-269.5 394.5,-269.5 394.5,-201.5 213.5,-201.5"/>
<text text-anchor="middle" x="304" y="-257.5" font-family="Helvetica,sans-Serif" font-size="10.00">SDK::UUIPropertyDataProvider</text>
<polyline fill="none" stroke="black" points="213.5,-250.5 394.5,-250.5 "/>
<text text-anchor="middle" x="304" y="-238.5" font-family="Helvetica,sans-Serif" font-size="10.00"> </text>
<polyline fill="none" stroke="black" points="213.5,-231.5 394.5,-231.5 "/>
<text text-anchor="start" x="221.5" y="-219.5" font-family="Helvetica,sans-Serif" font-size="10.00">+ CanSupportComplexPropertyType()</text>
<text text-anchor="start" x="221.5" y="-208.5" font-family="Helvetica,sans-Serif" font-size="10.00">+ StaticClass()</text>
</a>
</g>
</g>
<!-- Node3&#45;&gt;Node2 -->
<g id="edge2" class="edge">
<title>Node3&#45;&gt;Node2</title>
<path fill="none" stroke="midnightblue" d="M262.45,-194.12C252.11,-184.06 241.14,-173.4 231.19,-163.73"/>
<polygon fill="none" stroke="midnightblue" points="260.24,-196.85 269.85,-201.31 265.12,-191.83 260.24,-196.85"/>
</g>
<!-- Node4 -->
<g id="node4" class="node">
<title>Node4</title>
<g id="a_node4"><a xlink:href="../../d7/dd2/classSDK_1_1UUIDataProvider.html" target="_top" xlink:title=" ">
<polygon fill="white" stroke="black" points="147.5,-757.5 147.5,-814.5 266.5,-814.5 266.5,-757.5 147.5,-757.5"/>
<text text-anchor="middle" x="207" y="-802.5" font-family="Helvetica,sans-Serif" font-size="10.00">SDK::UUIDataProvider</text>
<polyline fill="none" stroke="black" points="147.5,-795.5 266.5,-795.5 "/>
<text text-anchor="middle" x="207" y="-783.5" font-family="Helvetica,sans-Serif" font-size="10.00"> </text>
<polyline fill="none" stroke="black" points="147.5,-776.5 266.5,-776.5 "/>
<text text-anchor="start" x="155.5" y="-764.5" font-family="Helvetica,sans-Serif" font-size="10.00">+ StaticClass()</text>
</a>
</g>
</g>
<!-- Node4&#45;&gt;Node3 -->
<g id="edge3" class="edge">
<title>Node4&#45;&gt;Node3</title>
<path fill="none" stroke="midnightblue" d="M221.32,-747.72C230.99,-719.21 242,-678.7 242,-642 242,-642 242,-642 242,-389 242,-345.42 264,-299.64 281.79,-269.75"/>
<polygon fill="none" stroke="midnightblue" points="217.98,-746.68 217.98,-757.27 224.58,-748.99 217.98,-746.68"/>
</g>
<!-- Node5 -->
<g id="node5" class="node">
<title>Node5</title>
<g id="a_node5"><a xlink:href="../../da/dd4/classSDK_1_1UUIRoot.html" target="_top" xlink:title=" ">
<polygon fill="white" stroke="black" points="77,-971.5 77,-1127.5 271,-1127.5 271,-971.5 77,-971.5"/>
<text text-anchor="middle" x="174" y="-1115.5" font-family="Helvetica,sans-Serif" font-size="10.00">SDK::UUIRoot</text>
<polyline fill="none" stroke="black" points="77,-1108.5 271,-1108.5 "/>
<text text-anchor="middle" x="174" y="-1096.5" font-family="Helvetica,sans-Serif" font-size="10.00"> </text>
<polyline fill="none" stroke="black" points="77,-1089.5 271,-1089.5 "/>
<text text-anchor="start" x="85" y="-1077.5" font-family="Helvetica,sans-Serif" font-size="10.00">+ STATIC_SafeCaps()</text>
<text text-anchor="start" x="85" y="-1066.5" font-family="Helvetica,sans-Serif" font-size="10.00">+ STATIC_GetOnlinePlayerInterfaceEx()</text>
<text text-anchor="start" x="85" y="-1055.5" font-family="Helvetica,sans-Serif" font-size="10.00">+ STATIC_GetOnlinePlayerInterface()</text>
<text text-anchor="start" x="85" y="-1044.5" font-family="Helvetica,sans-Serif" font-size="10.00">+ STATIC_GetOnlineGameInterface()</text>
<text text-anchor="start" x="85" y="-1033.5" font-family="Helvetica,sans-Serif" font-size="10.00">+ STATIC_StaticResolveData</text>
<text text-anchor="start" x="85" y="-1022.5" font-family="Helvetica,sans-Serif" font-size="10.00">Store()</text>
<text text-anchor="start" x="85" y="-1011.5" font-family="Helvetica,sans-Serif" font-size="10.00">+ STATIC_GetSceneClient()</text>
<text text-anchor="start" x="85" y="-1000.5" font-family="Helvetica,sans-Serif" font-size="10.00">+ STATIC_GetCurrentUIController()</text>
<text text-anchor="start" x="85" y="-989.5" font-family="Helvetica,sans-Serif" font-size="10.00">+ STATIC_GetInputPlatformType()</text>
<text text-anchor="start" x="85" y="-978.5" font-family="Helvetica,sans-Serif" font-size="10.00">+ StaticClass()</text>
</a>
</g>
</g>
<!-- Node5&#45;&gt;Node4 -->
<g id="edge4" class="edge">
<title>Node5&#45;&gt;Node4</title>
<path fill="none" stroke="midnightblue" d="M184.99,-961.39C191.44,-910.31 199.15,-849.2 203.52,-814.56"/>
<polygon fill="none" stroke="midnightblue" points="181.5,-961.1 183.72,-971.46 188.45,-961.97 181.5,-961.1"/>
</g>
<!-- Node6 -->
<g id="node6" class="node">
<title>Node6</title>
<g id="a_node6"><a xlink:href="../../d9/d45/classSDK_1_1UObject.html" target="_top" xlink:title=" ">
<polygon fill="white" stroke="black" points="369,-1175.5 369,-1419.5 567,-1419.5 567,-1175.5 369,-1175.5"/>
<text text-anchor="middle" x="468" y="-1407.5" font-family="Helvetica,sans-Serif" font-size="10.00">SDK::UObject</text>
<polyline fill="none" stroke="black" points="369,-1400.5 567,-1400.5 "/>
<text text-anchor="start" x="377" y="-1388.5" font-family="Helvetica,sans-Serif" font-size="10.00">+ ObjectInternalInteger</text>
<text text-anchor="start" x="377" y="-1377.5" font-family="Helvetica,sans-Serif" font-size="10.00">+ NetIndex</text>
<polyline fill="none" stroke="black" points="369,-1370.5 567,-1370.5 "/>
<text text-anchor="start" x="377" y="-1358.5" font-family="Helvetica,sans-Serif" font-size="10.00">+ UObject::GetName()</text>
<text text-anchor="start" x="377" y="-1347.5" font-family="Helvetica,sans-Serif" font-size="10.00">+ GetFullName()</text>
<text text-anchor="start" x="377" y="-1336.5" font-family="Helvetica,sans-Serif" font-size="10.00">+ IsA()</text>
<text text-anchor="start" x="377" y="-1325.5" font-family="Helvetica,sans-Serif" font-size="10.00">+ ProcessEvent()</text>
<text text-anchor="start" x="377" y="-1314.5" font-family="Helvetica,sans-Serif" font-size="10.00">+ STATIC_ProfNodeEvent()</text>
<text text-anchor="start" x="377" y="-1303.5" font-family="Helvetica,sans-Serif" font-size="10.00">+ STATIC_ProfNodeSetDepthThreshold()</text>
<text text-anchor="start" x="377" y="-1292.5" font-family="Helvetica,sans-Serif" font-size="10.00">+ STATIC_ProfNodeSetTimeThreshold</text>
<text text-anchor="start" x="377" y="-1281.5" font-family="Helvetica,sans-Serif" font-size="10.00">Seconds()</text>
<text text-anchor="start" x="377" y="-1270.5" font-family="Helvetica,sans-Serif" font-size="10.00">+ STATIC_ProfNodeStop()</text>
<text text-anchor="start" x="377" y="-1259.5" font-family="Helvetica,sans-Serif" font-size="10.00">+ STATIC_ProfNodeStart()</text>
<text text-anchor="start" x="377" y="-1248.5" font-family="Helvetica,sans-Serif" font-size="10.00">+ STATIC_GetStringFromGuid()</text>
<text text-anchor="start" x="377" y="-1237.5" font-family="Helvetica,sans-Serif" font-size="10.00">and 298 more...</text>
<text text-anchor="start" x="377" y="-1226.5" font-family="Helvetica,sans-Serif" font-size="10.00">+ GetGlobalObjects()</text>
<text text-anchor="start" x="377" y="-1215.5" font-family="Helvetica,sans-Serif" font-size="10.00">+ FindObject()</text>
<text text-anchor="start" x="377" y="-1204.5" font-family="Helvetica,sans-Serif" font-size="10.00">+ FindClass()</text>
<text text-anchor="start" x="377" y="-1193.5" font-family="Helvetica,sans-Serif" font-size="10.00">+ GetObjectCasted()</text>
<text text-anchor="start" x="377" y="-1182.5" font-family="Helvetica,sans-Serif" font-size="10.00">+ StaticClass()</text>
</a>
</g>
</g>
<!-- Node6&#45;&gt;Node5 -->
<g id="edge5" class="edge">
<title>Node6&#45;&gt;Node5</title>
<path fill="none" stroke="midnightblue" d="M361.04,-1207C329.97,-1181.01 296.33,-1152.86 266.25,-1127.69"/>
<polygon fill="none" stroke="midnightblue" points="358.96,-1209.83 368.87,-1213.56 363.45,-1204.46 358.96,-1209.83"/>
</g>
<!-- Node6&#45;&gt;Node6 -->
<g id="edge11" class="edge">
<title>Node6&#45;&gt;Node6</title>
<path fill="none" stroke="#404040" d="M567.01,-1320.53C577.94,-1316.15 585,-1308.48 585,-1297.5 585,-1290.64 582.24,-1285.07 577.51,-1280.78"/>
<polygon fill="none" stroke="#404040" points="577.3,-1280.66 570.09,-1280.99 567.01,-1274.47 574.22,-1274.14 577.3,-1280.66"/>
<text text-anchor="middle" x="624.5" y="-1306" font-family="Helvetica,sans-Serif" font-size="10.00"> +Outer</text>
<text text-anchor="middle" x="624.5" y="-1295" font-family="Helvetica,sans-Serif" font-size="10.00">+Linker</text>
<text text-anchor="middle" x="624.5" y="-1284" font-family="Helvetica,sans-Serif" font-size="10.00">+ObjectArchetype</text>
</g>
<!-- Node12 -->
<g id="node12" class="node">
<title>Node12</title>
<g id="a_node12"><a xlink:href="../../d3/d79/classSDK_1_1TArray.html" target="_top" xlink:title=" ">
<polygon fill="white" stroke="black" points="516.5,-982.5 516.5,-1116.5 677.5,-1116.5 677.5,-982.5 516.5,-982.5"/>
<text text-anchor="middle" x="597" y="-1104.5" font-family="Helvetica,sans-Serif" font-size="10.00">SDK::TArray&lt; SDK::UObject * &gt;</text>
<polyline fill="none" stroke="black" points="516.5,-1097.5 677.5,-1097.5 "/>
<text text-anchor="start" x="524.5" y="-1085.5" font-family="Helvetica,sans-Serif" font-size="10.00">&#45; Count</text>
<text text-anchor="start" x="524.5" y="-1074.5" font-family="Helvetica,sans-Serif" font-size="10.00">&#45; Max</text>
<polyline fill="none" stroke="black" points="516.5,-1067.5 677.5,-1067.5 "/>
<text text-anchor="start" x="524.5" y="-1055.5" font-family="Helvetica,sans-Serif" font-size="10.00">+ TArray()</text>
<text text-anchor="start" x="524.5" y="-1044.5" font-family="Helvetica,sans-Serif" font-size="10.00">+ Num()</text>
<text text-anchor="start" x="524.5" y="-1033.5" font-family="Helvetica,sans-Serif" font-size="10.00">+ operator[]()</text>
<text text-anchor="start" x="524.5" y="-1022.5" font-family="Helvetica,sans-Serif" font-size="10.00">+ operator[]()</text>
<text text-anchor="start" x="524.5" y="-1011.5" font-family="Helvetica,sans-Serif" font-size="10.00">+ IsValidIndex()</text>
<text text-anchor="start" x="524.5" y="-1000.5" font-family="Helvetica,sans-Serif" font-size="10.00">+ GetByIndex()</text>
<text text-anchor="start" x="524.5" y="-989.5" font-family="Helvetica,sans-Serif" font-size="10.00">+ GetByIndex()</text>
</a>
</g>
</g>
<!-- Node6&#45;&gt;Node12 -->
<g id="edge13" class="edge">
<title>Node6&#45;&gt;Node12</title>
<path fill="none" stroke="#404040" d="M497.24,-1175.4C501.3,-1165.21 505.87,-1155.27 511,-1146 514.65,-1139.4 518.84,-1132.88 523.36,-1126.54"/>
<polygon fill="none" stroke="#404040" points="523.51,-1126.33 523.9,-1119.13 530.7,-1116.72 530.31,-1123.92 523.51,-1126.33"/>
<text text-anchor="middle" x="525" y="-1149" font-family="Helvetica,sans-Serif" font-size="10.00"> &#45;Data</text>
</g>
<!-- Node14 -->
<g id="node14" class="node">
<title>Node14</title>
<g id="a_node14"><a xlink:href="../../d7/d85/classSDK_1_1UClass.html" target="_top" xlink:title=" ">
<polygon fill="white" stroke="black" points="346.5,-510.5 346.5,-600.5 467.5,-600.5 467.5,-510.5 346.5,-510.5"/>
<text text-anchor="middle" x="407" y="-588.5" font-family="Helvetica,sans-Serif" font-size="10.00">SDK::UClass</text>
<polyline fill="none" stroke="black" points="346.5,-581.5 467.5,-581.5 "/>
<text text-anchor="start" x="354.5" y="-569.5" font-family="Helvetica,sans-Serif" font-size="10.00">+ UnknownData00</text>
<text text-anchor="start" x="354.5" y="-558.5" font-family="Helvetica,sans-Serif" font-size="10.00">+ UnknownData01</text>
<polyline fill="none" stroke="black" points="346.5,-551.5 467.5,-551.5 "/>
<text text-anchor="start" x="354.5" y="-539.5" font-family="Helvetica,sans-Serif" font-size="10.00">+ CreateDefaultObject()</text>
<text text-anchor="start" x="354.5" y="-528.5" font-family="Helvetica,sans-Serif" font-size="10.00">+ CreateDefaultObject()</text>
<text text-anchor="start" x="354.5" y="-517.5" font-family="Helvetica,sans-Serif" font-size="10.00">+ StaticClass()</text>
</a>
</g>
</g>
<!-- Node6&#45;&gt;Node14 -->
<g id="edge23" class="edge">
<title>Node6&#45;&gt;Node14</title>
<path fill="none" stroke="#404040" d="M461.41,-1175.34C456.15,-1113.49 446.75,-1037.48 430,-971 423.22,-944.11 412.2,-940.24 407,-913 387.03,-808.48 393.89,-683.56 400.54,-612.78"/>
<polygon fill="none" stroke="#404040" points="400.56,-612.57 397.16,-606.21 401.73,-600.63 405.13,-606.99 400.56,-612.57"/>
<text text-anchor="middle" x="454.5" y="-870.5" font-family="Helvetica,sans-Serif" font-size="10.00"> +ClassDefaultObject</text>
</g>
<!-- Node17 -->
<g id="node17" class="node">
<title>Node17</title>
<g id="a_node17"><a xlink:href="../../de/dd6/classSDK_1_1UField.html" target="_top" xlink:title=" ">
<polygon fill="white" stroke="black" points="289.5,-1021 289.5,-1078 372.5,-1078 372.5,-1021 289.5,-1021"/>
<text text-anchor="middle" x="331" y="-1066" font-family="Helvetica,sans-Serif" font-size="10.00">SDK::UField</text>
<polyline fill="none" stroke="black" points="289.5,-1059 372.5,-1059 "/>
<text text-anchor="middle" x="331" y="-1047" font-family="Helvetica,sans-Serif" font-size="10.00"> </text>
<polyline fill="none" stroke="black" points="289.5,-1040 372.5,-1040 "/>
<text text-anchor="start" x="297.5" y="-1028" font-family="Helvetica,sans-Serif" font-size="10.00">+ StaticClass()</text>
</a>
</g>
</g>
<!-- Node6&#45;&gt;Node17 -->
<g id="edge20" class="edge">
<title>Node6&#45;&gt;Node17</title>
<path fill="none" stroke="midnightblue" d="M395.52,-1166.35C376.94,-1133 358.76,-1100.35 346.46,-1078.26"/>
<polygon fill="none" stroke="midnightblue" points="392.58,-1168.27 400.5,-1175.3 398.7,-1164.86 392.58,-1168.27"/>
</g>
<!-- Node21 -->
<g id="node21" class="node">
<title>Node21</title>
<g id="a_node21"><a xlink:href="../../dc/dd6/structSDK_1_1FScriptDelegate.html" target="_top" xlink:title=" ">
<polygon fill="white" stroke="black" points="696,-1021 696,-1078 810,-1078 810,-1021 696,-1021"/>
<text text-anchor="middle" x="753" y="-1066" font-family="Helvetica,sans-Serif" font-size="10.00">SDK::FScriptDelegate</text>
<polyline fill="none" stroke="black" points="696,-1059 810,-1059 "/>
<text text-anchor="middle" x="753" y="-1047" font-family="Helvetica,sans-Serif" font-size="10.00"> </text>
<polyline fill="none" stroke="black" points="696,-1040 810,-1040 "/>
<text text-anchor="middle" x="753" y="-1028" font-family="Helvetica,sans-Serif" font-size="10.00"> </text>
</a>
</g>
</g>
<!-- Node6&#45;&gt;Node21 -->
<g id="edge31" class="edge">
<title>Node6&#45;&gt;Node21</title>
<path fill="none" stroke="#404040" d="M567.24,-1227.05C606.08,-1198.13 650.08,-1163.14 687,-1128 699.98,-1115.65 713.03,-1100.92 724.06,-1087.64"/>
<polygon fill="none" stroke="#404040" points="724.12,-1087.58 724.81,-1080.4 731.71,-1078.28 731.01,-1085.46 724.12,-1087.58"/>
<text text-anchor="middle" x="683" y="-1149" font-family="Helvetica,sans-Serif" font-size="10.00"> +Object</text>
</g>
<!-- Node7 -->
<g id="node7" class="node">
<title>Node7</title>
<g id="a_node7"><a xlink:href="../../d0/d22/structSDK_1_1FQWord.html" target="_top" xlink:title=" ">
<polygon fill="white" stroke="black" points="372,-1517 372,-1585 452,-1585 452,-1517 372,-1517"/>
<text text-anchor="middle" x="412" y="-1573" font-family="Helvetica,sans-Serif" font-size="10.00">SDK::FQWord</text>
<polyline fill="none" stroke="black" points="372,-1566 452,-1566 "/>
<text text-anchor="start" x="380" y="-1554" font-family="Helvetica,sans-Serif" font-size="10.00">+ A</text>
<text text-anchor="start" x="380" y="-1543" font-family="Helvetica,sans-Serif" font-size="10.00">+ B</text>
<polyline fill="none" stroke="black" points="372,-1536 452,-1536 "/>
<text text-anchor="middle" x="412" y="-1524" font-family="Helvetica,sans-Serif" font-size="10.00"> </text>
</a>
</g>
</g>
<!-- Node7&#45;&gt;Node6 -->
<g id="edge6" class="edge">
<title>Node7&#45;&gt;Node6</title>
<path fill="none" stroke="#404040" d="M416.86,-1516.52C420.31,-1494.18 425.31,-1464.21 431,-1438 431.47,-1435.84 431.95,-1433.67 432.44,-1431.49"/>
<polygon fill="none" stroke="#404040" points="432.46,-1431.39 429.9,-1424.65 435.14,-1419.69 437.7,-1426.44 432.46,-1431.39"/>
<text text-anchor="middle" x="462" y="-1452" font-family="Helvetica,sans-Serif" font-size="10.00"> +ObjectFlags</text>
</g>
<!-- Node8 -->
<g id="node8" class="node">
<title>Node8</title>
<g id="a_node8"><a xlink:href="../../d0/db6/structSDK_1_1FName.html" target="_top" xlink:title=" ">
<polygon fill="white" stroke="black" points="716.5,-1489.5 716.5,-1612.5 823.5,-1612.5 823.5,-1489.5 716.5,-1489.5"/>
<text text-anchor="middle" x="770" y="-1600.5" font-family="Helvetica,sans-Serif" font-size="10.00">SDK::FName</text>
<polyline fill="none" stroke="black" points="716.5,-1593.5 823.5,-1593.5 "/>
<text text-anchor="start" x="724.5" y="-1581.5" font-family="Helvetica,sans-Serif" font-size="10.00">+ Index</text>
<text text-anchor="start" x="724.5" y="-1570.5" font-family="Helvetica,sans-Serif" font-size="10.00">+ Number</text>
<polyline fill="none" stroke="black" points="716.5,-1563.5 823.5,-1563.5 "/>
<text text-anchor="start" x="724.5" y="-1551.5" font-family="Helvetica,sans-Serif" font-size="10.00">+ FName()</text>
<text text-anchor="start" x="724.5" y="-1540.5" font-family="Helvetica,sans-Serif" font-size="10.00">+ FName()</text>
<text text-anchor="start" x="724.5" y="-1529.5" font-family="Helvetica,sans-Serif" font-size="10.00">+ FName()</text>
<text text-anchor="start" x="724.5" y="-1518.5" font-family="Helvetica,sans-Serif" font-size="10.00">+ GetName()</text>
<text text-anchor="start" x="724.5" y="-1507.5" font-family="Helvetica,sans-Serif" font-size="10.00">+ operator==()</text>
<text text-anchor="start" x="724.5" y="-1496.5" font-family="Helvetica,sans-Serif" font-size="10.00">+ GetGlobalNames()</text>
</a>
</g>
</g>
<!-- Node8&#45;&gt;Node6 -->
<g id="edge7" class="edge">
<title>Node8&#45;&gt;Node6</title>
<path fill="none" stroke="#404040" d="M716.39,-1501.48C711.55,-1497.23 706.7,-1493.02 702,-1489 661.54,-1454.42 616.34,-1417.28 576.53,-1385.06"/>
<polygon fill="none" stroke="#404040" points="576.39,-1384.95 569.21,-1384.29 567.06,-1377.41 574.24,-1378.07 576.39,-1384.95"/>
<text text-anchor="middle" x="695" y="-1452" font-family="Helvetica,sans-Serif" font-size="10.00"> +Name</text>
</g>
<!-- Node8&#45;&gt;Node21 -->
<g id="edge30" class="edge">
<title>Node8&#45;&gt;Node21</title>
<path fill="none" stroke="#404040" d="M767.93,-1489.25C764.41,-1385.65 757.32,-1177.55 754.36,-1090.37"/>
<polygon fill="none" stroke="#404040" points="754.35,-1090.16 750.15,-1084.3 753.94,-1078.17 758.14,-1084.03 754.35,-1090.16"/>
<text text-anchor="middle" x="801.5" y="-1295" font-family="Helvetica,sans-Serif" font-size="10.00"> +FunctionName</text>
</g>
<!-- Node9 -->
<g id="node9" class="node">
<title>Node9</title>
<g id="a_node9"><a xlink:href="../../d3/d79/classSDK_1_1TArray.html" target="_top" xlink:title=" ">
<polygon fill="white" stroke="black" points="646,-1666 646,-1800 826,-1800 826,-1666 646,-1666"/>
<text text-anchor="middle" x="736" y="-1788" font-family="Helvetica,sans-Serif" font-size="10.00">SDK::TArray&lt; SDK::FNameEntry * &gt;</text>
<polyline fill="none" stroke="black" points="646,-1781 826,-1781 "/>
<text text-anchor="start" x="654" y="-1769" font-family="Helvetica,sans-Serif" font-size="10.00">&#45; Count</text>
<text text-anchor="start" x="654" y="-1758" font-family="Helvetica,sans-Serif" font-size="10.00">&#45; Max</text>
<polyline fill="none" stroke="black" points="646,-1751 826,-1751 "/>
<text text-anchor="start" x="654" y="-1739" font-family="Helvetica,sans-Serif" font-size="10.00">+ TArray()</text>
<text text-anchor="start" x="654" y="-1728" font-family="Helvetica,sans-Serif" font-size="10.00">+ Num()</text>
<text text-anchor="start" x="654" y="-1717" font-family="Helvetica,sans-Serif" font-size="10.00">+ operator[]()</text>
<text text-anchor="start" x="654" y="-1706" font-family="Helvetica,sans-Serif" font-size="10.00">+ operator[]()</text>
<text text-anchor="start" x="654" y="-1695" font-family="Helvetica,sans-Serif" font-size="10.00">+ IsValidIndex()</text>
<text text-anchor="start" x="654" y="-1684" font-family="Helvetica,sans-Serif" font-size="10.00">+ GetByIndex()</text>
<text text-anchor="start" x="654" y="-1673" font-family="Helvetica,sans-Serif" font-size="10.00">+ GetByIndex()</text>
</a>
</g>
</g>
<!-- Node9&#45;&gt;Node8 -->
<g id="edge8" class="edge">
<title>Node9&#45;&gt;Node8</title>
<path fill="none" stroke="#404040" d="M748.47,-1666C751.02,-1652.49 753.72,-1638.21 756.31,-1624.5"/>
<polygon fill="none" stroke="#404040" points="756.32,-1624.41 753.5,-1617.78 758.55,-1612.62 761.37,-1619.26 756.32,-1624.41"/>
<text text-anchor="middle" x="779.5" y="-1634" font-family="Helvetica,sans-Serif" font-size="10.00"> +GNames</text>
</g>
<!-- Node10 -->
<g id="node10" class="node">
<title>Node10</title>
<g id="a_node10"><a xlink:href="../../d7/ddf/classSDK_1_1FNameEntry.html" target="_top" xlink:title=" ">
<polygon fill="white" stroke="black" points="724.5,-1892 724.5,-1960 823.5,-1960 823.5,-1892 724.5,-1892"/>
<text text-anchor="middle" x="774" y="-1948" font-family="Helvetica,sans-Serif" font-size="10.00">SDK::FNameEntry</text>
<polyline fill="none" stroke="black" points="724.5,-1941 823.5,-1941 "/>
<text text-anchor="start" x="732.5" y="-1929" font-family="Helvetica,sans-Serif" font-size="10.00">+ UnknownData00</text>
<text text-anchor="start" x="732.5" y="-1918" font-family="Helvetica,sans-Serif" font-size="10.00">+ name</text>
<polyline fill="none" stroke="black" points="724.5,-1911 823.5,-1911 "/>
<text text-anchor="start" x="732.5" y="-1899" font-family="Helvetica,sans-Serif" font-size="10.00">+ GetName()</text>
</a>
</g>
</g>
<!-- Node10&#45;&gt;Node9 -->
<g id="edge9" class="edge">
<title>Node10&#45;&gt;Node9</title>
<path fill="none" stroke="#404040" d="M767.38,-1891.73C762.99,-1869.66 757.04,-1839.73 751.49,-1811.88"/>
<polygon fill="none" stroke="#404040" points="751.49,-1811.87 746.4,-1806.76 749.15,-1800.1 754.24,-1805.2 751.49,-1811.87"/>
<text text-anchor="middle" x="769" y="-1827" font-family="Helvetica,sans-Serif" font-size="10.00"> &#45;Data</text>
</g>
<!-- Node11 -->
<g id="node11" class="node">
<title>Node11</title>
<g id="a_node11"><a xlink:href="../../d3/d79/classSDK_1_1TArray.html" target="_top" xlink:title=" ">
<polygon fill="white" stroke="black" points="558.5,-1853.5 558.5,-1998.5 655.5,-1998.5 655.5,-1853.5 558.5,-1853.5"/>
<text text-anchor="middle" x="607" y="-1986.5" font-family="Helvetica,sans-Serif" font-size="10.00">SDK::TArray&lt; T &gt;</text>
<polyline fill="none" stroke="black" points="558.5,-1979.5 655.5,-1979.5 "/>
<text text-anchor="start" x="566.5" y="-1967.5" font-family="Helvetica,sans-Serif" font-size="10.00">&#45; Data</text>
<text text-anchor="start" x="566.5" y="-1956.5" font-family="Helvetica,sans-Serif" font-size="10.00">&#45; Count</text>
<text text-anchor="start" x="566.5" y="-1945.5" font-family="Helvetica,sans-Serif" font-size="10.00">&#45; Max</text>
<polyline fill="none" stroke="black" points="558.5,-1938.5 655.5,-1938.5 "/>
<text text-anchor="start" x="566.5" y="-1926.5" font-family="Helvetica,sans-Serif" font-size="10.00">+ TArray()</text>
<text text-anchor="start" x="566.5" y="-1915.5" font-family="Helvetica,sans-Serif" font-size="10.00">+ Num()</text>
<text text-anchor="start" x="566.5" y="-1904.5" font-family="Helvetica,sans-Serif" font-size="10.00">+ operator[]()</text>
<text text-anchor="start" x="566.5" y="-1893.5" font-family="Helvetica,sans-Serif" font-size="10.00">+ operator[]()</text>
<text text-anchor="start" x="566.5" y="-1882.5" font-family="Helvetica,sans-Serif" font-size="10.00">+ IsValidIndex()</text>
<text text-anchor="start" x="566.5" y="-1871.5" font-family="Helvetica,sans-Serif" font-size="10.00">+ GetByIndex()</text>
<text text-anchor="start" x="566.5" y="-1860.5" font-family="Helvetica,sans-Serif" font-size="10.00">+ GetByIndex()</text>
</a>
</g>
</g>
<!-- Node11&#45;&gt;Node9 -->
<g id="edge10" class="edge">
<title>Node11&#45;&gt;Node9</title>
<path fill="none" stroke="orange" d="M629.4,-1843.86C632.53,-1836.93 636.05,-1830.21 640,-1824 645.27,-1815.71 651.48,-1807.67 658.17,-1800.02"/>
<polygon fill="orange" stroke="orange" points="626.04,-1842.83 625.38,-1853.4 632.49,-1845.55 626.04,-1842.83"/>
<text text-anchor="middle" x="695.5" y="-1827" font-family="Helvetica,sans-Serif" font-size="10.00"> &lt; SDK::FNameEntry * &gt;</text>
</g>
<!-- Node11&#45;&gt;Node12 -->
<g id="edge14" class="edge">
<title>Node11&#45;&gt;Node12</title>
<path fill="none" stroke="orange" d="M598.29,-1843.4C588.27,-1733.07 577.81,-1543.79 617,-1489 630.5,-1470.13 651.46,-1489.08 666,-1471 689.06,-1442.34 674.01,-1576.33 678,-1157 678.05,-1152.11 679.68,-1150.59 678,-1146 674.26,-1135.8 668.88,-1125.93 662.66,-1116.67"/>
<polygon fill="orange" stroke="orange" points="594.82,-1843.86 599.23,-1853.5 601.79,-1843.22 594.82,-1843.86"/>
<text text-anchor="middle" x="662.5" y="-1548.5" font-family="Helvetica,sans-Serif" font-size="10.00"> &lt; SDK::UObject * &gt;</text>
</g>
<!-- Node18 -->
<g id="node18" class="node">
<title>Node18</title>
<g id="a_node18"><a xlink:href="../../d3/d79/classSDK_1_1TArray.html" target="_top" xlink:title=" ">
<polygon fill="white" stroke="black" points="121.5,-1225 121.5,-1370 228.5,-1370 228.5,-1225 121.5,-1225"/>
<text text-anchor="start" x="129.5" y="-1358" font-family="Helvetica,sans-Serif" font-size="10.00">SDK::TArray&lt; struct</text>
<text text-anchor="middle" x="175" y="-1347" font-family="Helvetica,sans-Serif" font-size="10.00"> SDK::FString &gt;</text>
<polyline fill="none" stroke="black" points="121.5,-1340 228.5,-1340 "/>
<text text-anchor="start" x="129.5" y="-1328" font-family="Helvetica,sans-Serif" font-size="10.00">&#45; Count</text>
<text text-anchor="start" x="129.5" y="-1317" font-family="Helvetica,sans-Serif" font-size="10.00">&#45; Max</text>
<polyline fill="none" stroke="black" points="121.5,-1310 228.5,-1310 "/>
<text text-anchor="start" x="129.5" y="-1298" font-family="Helvetica,sans-Serif" font-size="10.00">+ TArray()</text>
<text text-anchor="start" x="129.5" y="-1287" font-family="Helvetica,sans-Serif" font-size="10.00">+ Num()</text>
<text text-anchor="start" x="129.5" y="-1276" font-family="Helvetica,sans-Serif" font-size="10.00">+ operator[]()</text>
<text text-anchor="start" x="129.5" y="-1265" font-family="Helvetica,sans-Serif" font-size="10.00">+ operator[]()</text>
<text text-anchor="start" x="129.5" y="-1254" font-family="Helvetica,sans-Serif" font-size="10.00">+ IsValidIndex()</text>
<text text-anchor="start" x="129.5" y="-1243" font-family="Helvetica,sans-Serif" font-size="10.00">+ GetByIndex()</text>
<text text-anchor="start" x="129.5" y="-1232" font-family="Helvetica,sans-Serif" font-size="10.00">+ GetByIndex()</text>
</a>
</g>
</g>
<!-- Node11&#45;&gt;Node18 -->
<g id="edge28" class="edge">
<title>Node11&#45;&gt;Node18</title>
<path fill="none" stroke="orange" d="M552.01,-1859.67C500.85,-1797.76 423.62,-1701.37 363,-1613 307.59,-1532.22 250.81,-1434.82 214.36,-1370.02"/>
<polygon fill="orange" stroke="orange" points="549.35,-1861.95 558.43,-1867.42 554.74,-1857.48 549.35,-1861.95"/>
<text text-anchor="middle" x="436" y="-1634" font-family="Helvetica,sans-Serif" font-size="10.00"> &lt; struct SDK::FString &gt;</text>
</g>
<!-- Node20 -->
<g id="node20" class="node">
<title>Node20</title>
<g id="a_node20"><a xlink:href="../../d3/d79/classSDK_1_1TArray.html" target="_top" xlink:title=" ">
<polygon fill="white" stroke="black" points="151.5,-1660.5 151.5,-1805.5 276.5,-1805.5 276.5,-1660.5 151.5,-1660.5"/>
<text text-anchor="middle" x="214" y="-1793.5" font-family="Helvetica,sans-Serif" font-size="10.00">SDK::TArray&lt; wchar_t &gt;</text>
<polyline fill="none" stroke="black" points="151.5,-1786.5 276.5,-1786.5 "/>
<text text-anchor="start" x="159.5" y="-1774.5" font-family="Helvetica,sans-Serif" font-size="10.00">&#45; Data</text>
<text text-anchor="start" x="159.5" y="-1763.5" font-family="Helvetica,sans-Serif" font-size="10.00">&#45; Count</text>
<text text-anchor="start" x="159.5" y="-1752.5" font-family="Helvetica,sans-Serif" font-size="10.00">&#45; Max</text>
<polyline fill="none" stroke="black" points="151.5,-1745.5 276.5,-1745.5 "/>
<text text-anchor="start" x="159.5" y="-1733.5" font-family="Helvetica,sans-Serif" font-size="10.00">+ TArray()</text>
<text text-anchor="start" x="159.5" y="-1722.5" font-family="Helvetica,sans-Serif" font-size="10.00">+ Num()</text>
<text text-anchor="start" x="159.5" y="-1711.5" font-family="Helvetica,sans-Serif" font-size="10.00">+ operator[]()</text>
<text text-anchor="start" x="159.5" y="-1700.5" font-family="Helvetica,sans-Serif" font-size="10.00">+ operator[]()</text>
<text text-anchor="start" x="159.5" y="-1689.5" font-family="Helvetica,sans-Serif" font-size="10.00">+ IsValidIndex()</text>
<text text-anchor="start" x="159.5" y="-1678.5" font-family="Helvetica,sans-Serif" font-size="10.00">+ GetByIndex()</text>
<text text-anchor="start" x="159.5" y="-1667.5" font-family="Helvetica,sans-Serif" font-size="10.00">+ GetByIndex()</text>
</a>
</g>
</g>
<!-- Node11&#45;&gt;Node20 -->
<g id="edge27" class="edge">
<title>Node11&#45;&gt;Node20</title>
<path fill="none" stroke="orange" d="M548.03,-1923.29C474.98,-1918.3 350.14,-1900.03 268,-1835 257.94,-1827.04 249.53,-1816.68 242.56,-1805.63"/>
<polygon fill="orange" stroke="orange" points="548.22,-1926.81 558.42,-1923.94 548.66,-1919.82 548.22,-1926.81"/>
<text text-anchor="middle" x="296" y="-1827" font-family="Helvetica,sans-Serif" font-size="10.00"> &lt; wchar_t &gt;</text>
</g>
<!-- Node22 -->
<g id="node22" class="node">
<title>Node22</title>
<g id="a_node22"><a xlink:href="../../d3/d79/classSDK_1_1TArray.html" target="_top" xlink:title=" ">
<polygon fill="white" stroke="black" points="354.5,-317.5 354.5,-462.5 459.5,-462.5 459.5,-317.5 354.5,-317.5"/>
<text text-anchor="start" x="362.5" y="-450.5" font-family="Helvetica,sans-Serif" font-size="10.00">SDK::TArray&lt; class</text>
<text text-anchor="middle" x="407" y="-439.5" font-family="Helvetica,sans-Serif" font-size="10.00"> SDK::UClass * &gt;</text>
<polyline fill="none" stroke="black" points="354.5,-432.5 459.5,-432.5 "/>
<text text-anchor="start" x="362.5" y="-420.5" font-family="Helvetica,sans-Serif" font-size="10.00">&#45; Count</text>
<text text-anchor="start" x="362.5" y="-409.5" font-family="Helvetica,sans-Serif" font-size="10.00">&#45; Max</text>
<polyline fill="none" stroke="black" points="354.5,-402.5 459.5,-402.5 "/>
<text text-anchor="start" x="362.5" y="-390.5" font-family="Helvetica,sans-Serif" font-size="10.00">+ TArray()</text>
<text text-anchor="start" x="362.5" y="-379.5" font-family="Helvetica,sans-Serif" font-size="10.00">+ Num()</text>
<text text-anchor="start" x="362.5" y="-368.5" font-family="Helvetica,sans-Serif" font-size="10.00">+ operator[]()</text>
<text text-anchor="start" x="362.5" y="-357.5" font-family="Helvetica,sans-Serif" font-size="10.00">+ operator[]()</text>
<text text-anchor="start" x="362.5" y="-346.5" font-family="Helvetica,sans-Serif" font-size="10.00">+ IsValidIndex()</text>
<text text-anchor="start" x="362.5" y="-335.5" font-family="Helvetica,sans-Serif" font-size="10.00">+ GetByIndex()</text>
<text text-anchor="start" x="362.5" y="-324.5" font-family="Helvetica,sans-Serif" font-size="10.00">+ GetByIndex()</text>
</a>
</g>
</g>
<!-- Node11&#45;&gt;Node22 -->
<g id="edge34" class="edge">
<title>Node11&#45;&gt;Node22</title>
<path fill="none" stroke="orange" d="M664.44,-1881.89C680.51,-1871.29 698.41,-1860.77 716,-1853 768.01,-1830.02 800.92,-1851.52 835,-1806 854.84,-1779.51 854,-1767.1 854,-1734 854,-1734 854,-1734 854,-709 854,-668.52 863.53,-651.94 840,-619 746.18,-487.64 553.11,-425.68 459.79,-402.46"/>
<polygon fill="orange" stroke="orange" points="662.05,-1879.28 655.72,-1887.77 665.97,-1885.09 662.05,-1879.28"/>
<text text-anchor="middle" x="911.5" y="-1047" font-family="Helvetica,sans-Serif" font-size="10.00"> &lt; class SDK::UClass * &gt;</text>
</g>
<!-- Node12&#45;&gt;Node6 -->
<g id="edge12" class="edge">
<title>Node12&#45;&gt;Node6</title>
<path fill="none" stroke="#404040" d="M563.83,-1116.53C557,-1129.95 549.81,-1143.95 543,-1157 541.73,-1159.43 540.45,-1161.87 539.16,-1164.34"/>
<polygon fill="none" stroke="#404040" points="539.01,-1164.62 539.75,-1171.79 533.42,-1175.24 532.68,-1168.07 539.01,-1164.62"/>
<text text-anchor="middle" x="572.5" y="-1149" font-family="Helvetica,sans-Serif" font-size="10.00"> +GObjects</text>
</g>
<!-- Node13 -->
<g id="node13" class="node">
<title>Node13</title>
<g id="a_node13"><a xlink:href="../../d9/dfa/structSDK_1_1FPointer.html" target="_top" xlink:title=" ">
<polygon fill="white" stroke="black" points="470,-1517 470,-1585 568,-1585 568,-1517 470,-1517"/>
<text text-anchor="middle" x="519" y="-1573" font-family="Helvetica,sans-Serif" font-size="10.00">SDK::FPointer</text>
<polyline fill="none" stroke="black" points="470,-1566 568,-1566 "/>
<text text-anchor="start" x="478" y="-1554" font-family="Helvetica,sans-Serif" font-size="10.00">+ Dummy</text>
<text text-anchor="start" x="478" y="-1543" font-family="Helvetica,sans-Serif" font-size="10.00">+ UnknownData00</text>
<polyline fill="none" stroke="black" points="470,-1536 568,-1536 "/>
<text text-anchor="middle" x="519" y="-1524" font-family="Helvetica,sans-Serif" font-size="10.00"> </text>
</a>
</g>
</g>
<!-- Node13&#45;&gt;Node6 -->
<g id="edge15" class="edge">
<title>Node13&#45;&gt;Node6</title>
<path fill="none" stroke="#404040" d="M512.28,-1516.86C507.76,-1494.57 501.47,-1463.56 495.05,-1431.9"/>
<polygon fill="none" stroke="#404040" points="494.97,-1431.51 489.86,-1426.43 492.59,-1419.75 497.7,-1424.84 494.97,-1431.51"/>
<text text-anchor="middle" x="537.5" y="-1463" font-family="Helvetica,sans-Serif" font-size="10.00"> +StateFrame</text>
<text text-anchor="middle" x="537.5" y="-1452" font-family="Helvetica,sans-Serif" font-size="10.00">+VfTableObject</text>
<text text-anchor="middle" x="537.5" y="-1441" font-family="Helvetica,sans-Serif" font-size="10.00">+LinkerIndex</text>
</g>
<!-- Node14&#45;&gt;Node6 -->
<g id="edge16" class="edge">
<title>Node14&#45;&gt;Node6</title>
<path fill="none" stroke="#404040" d="M428.21,-600.71C452.61,-654.24 491.22,-747.85 506,-833 516.63,-894.22 500.74,-1049.39 486.38,-1163.4"/>
<polygon fill="none" stroke="#404040" points="486.37,-1163.44 489.58,-1169.9 484.86,-1175.34 481.65,-1168.89 486.37,-1163.44"/>
<text text-anchor="middle" x="527.5" y="-870.5" font-family="Helvetica,sans-Serif" font-size="10.00"> +Class</text>
</g>
<!-- Node14&#45;&gt;Node22 -->
<g id="edge33" class="edge">
<title>Node14&#45;&gt;Node22</title>
<path fill="none" stroke="#404040" d="M407,-510.25C407,-499.26 407,-487.11 407,-474.9"/>
<polygon fill="none" stroke="#404040" points="407,-474.7 403,-468.7 407,-462.7 411,-468.7 407,-474.7"/>
<text text-anchor="middle" x="421" y="-484" font-family="Helvetica,sans-Serif" font-size="10.00"> &#45;Data</text>
</g>
<!-- Node15 -->
<g id="node15" class="node">
<title>Node15</title>
<g id="a_node15"><a xlink:href="../../df/d72/classSDK_1_1UState.html" target="_top" xlink:title=" ">
<polygon fill="white" stroke="black" points="277,-681.5 277,-738.5 375,-738.5 375,-681.5 277,-681.5"/>
<text text-anchor="middle" x="326" y="-726.5" font-family="Helvetica,sans-Serif" font-size="10.00">SDK::UState</text>
<polyline fill="none" stroke="black" points="277,-719.5 375,-719.5 "/>
<text text-anchor="start" x="285" y="-707.5" font-family="Helvetica,sans-Serif" font-size="10.00">+ UnknownData00</text>
<polyline fill="none" stroke="black" points="277,-700.5 375,-700.5 "/>
<text text-anchor="start" x="285" y="-688.5" font-family="Helvetica,sans-Serif" font-size="10.00">+ StaticClass()</text>
</a>
</g>
</g>
<!-- Node15&#45;&gt;Node14 -->
<g id="edge17" class="edge">
<title>Node15&#45;&gt;Node14</title>
<path fill="none" stroke="midnightblue" d="M345.37,-672.53C356.83,-650.95 371.43,-623.46 383.54,-600.66"/>
<polygon fill="none" stroke="midnightblue" points="342.27,-670.91 340.67,-681.38 348.45,-674.19 342.27,-670.91"/>
</g>
<!-- Node16 -->
<g id="node16" class="node">
<title>Node16</title>
<g id="a_node16"><a xlink:href="../../d8/de9/classSDK_1_1UStruct.html" target="_top" xlink:title=" ">
<polygon fill="white" stroke="black" points="273,-833.5 273,-912.5 371,-912.5 371,-833.5 273,-833.5"/>
<text text-anchor="middle" x="322" y="-900.5" font-family="Helvetica,sans-Serif" font-size="10.00">SDK::UStruct</text>
<polyline fill="none" stroke="black" points="273,-893.5 371,-893.5 "/>
<text text-anchor="start" x="281" y="-881.5" font-family="Helvetica,sans-Serif" font-size="10.00">+ UnknownData00</text>
<text text-anchor="start" x="281" y="-870.5" font-family="Helvetica,sans-Serif" font-size="10.00">+ PropertySize</text>
<text text-anchor="start" x="281" y="-859.5" font-family="Helvetica,sans-Serif" font-size="10.00">+ UnknownData01</text>
<polyline fill="none" stroke="black" points="273,-852.5 371,-852.5 "/>
<text text-anchor="start" x="281" y="-840.5" font-family="Helvetica,sans-Serif" font-size="10.00">+ StaticClass()</text>
</a>
</g>
</g>
<!-- Node16&#45;&gt;Node15 -->
<g id="edge18" class="edge">
<title>Node16&#45;&gt;Node15</title>
<path fill="none" stroke="midnightblue" d="M323.21,-823.15C323.9,-795.46 324.74,-761.83 325.31,-738.66"/>
<polygon fill="none" stroke="midnightblue" points="319.71,-823.35 322.96,-833.44 326.71,-823.53 319.71,-823.35"/>
</g>
<!-- Node17&#45;&gt;Node16 -->
<g id="edge19" class="edge">
<title>Node17&#45;&gt;Node16</title>
<path fill="none" stroke="midnightblue" d="M357.62,-1012.3C371.39,-988.99 383.35,-958.1 373,-931 370.54,-924.55 366.97,-918.37 362.85,-912.61"/>
<polygon fill="none" stroke="midnightblue" points="354.61,-1010.5 352.29,-1020.84 360.55,-1014.2 354.61,-1010.5"/>
</g>
<!-- Node17&#45;&gt;Node16 -->
<g id="edge22" class="edge">
<title>Node17&#45;&gt;Node16</title>
<path fill="none" stroke="#404040" d="M323.05,-1020.62C317.17,-996.9 310.58,-961.86 313,-931 313.16,-928.94 313.36,-926.84 313.58,-924.73"/>
<polygon fill="none" stroke="#404040" points="313.61,-924.45 310.37,-918 315.08,-912.54 318.31,-918.98 313.61,-924.45"/>
<text text-anchor="middle" x="341" y="-945" font-family="Helvetica,sans-Serif" font-size="10.00"> +SuperField</text>
<text text-anchor="middle" x="341" y="-934" font-family="Helvetica,sans-Serif" font-size="10.00">+Children</text>
</g>
<!-- Node17&#45;&gt;Node17 -->
<g id="edge21" class="edge">
<title>Node17&#45;&gt;Node17</title>
<path fill="none" stroke="#404040" d="M372.71,-1068.33C382.91,-1066.93 390.5,-1060.66 390.5,-1049.5 390.5,-1043.22 388.1,-1038.49 384.18,-1035.31"/>
<polygon fill="none" stroke="#404040" points="383.83,-1035.17 376.77,-1036.63 372.71,-1030.67 379.77,-1029.21 383.83,-1035.17"/>
<text text-anchor="middle" x="406" y="-1047" font-family="Helvetica,sans-Serif" font-size="10.00"> +Next</text>
</g>
<!-- Node18&#45;&gt;Node5 -->
<g id="edge24" class="edge">
<title>Node18&#45;&gt;Node5</title>
<path fill="none" stroke="#404040" d="M174.71,-1224.69C174.6,-1198.13 174.48,-1167.69 174.36,-1139.77"/>
<polygon fill="none" stroke="#404040" points="174.36,-1139.56 170.34,-1133.57 174.31,-1127.56 178.34,-1133.54 174.36,-1139.56"/>
<text text-anchor="middle" x="228" y="-1149" font-family="Helvetica,sans-Serif" font-size="10.00"> +BadCapsLocContexts</text>
</g>
<!-- Node19 -->
<g id="node19" class="node">
<title>Node19</title>
<g id="a_node19"><a xlink:href="../../d3/d88/classSDK_1_1FString.html" target="_top" xlink:title=" ">
<polygon fill="white" stroke="black" points="137.5,-1500.5 137.5,-1601.5 212.5,-1601.5 212.5,-1500.5 137.5,-1500.5"/>
<text text-anchor="middle" x="175" y="-1589.5" font-family="Helvetica,sans-Serif" font-size="10.00">SDK::FString</text>
<polyline fill="none" stroke="black" points="137.5,-1582.5 212.5,-1582.5 "/>
<text text-anchor="middle" x="175" y="-1570.5" font-family="Helvetica,sans-Serif" font-size="10.00"> </text>
<polyline fill="none" stroke="black" points="137.5,-1563.5 212.5,-1563.5 "/>
<text text-anchor="start" x="145.5" y="-1551.5" font-family="Helvetica,sans-Serif" font-size="10.00">+ FString()</text>
<text text-anchor="start" x="145.5" y="-1540.5" font-family="Helvetica,sans-Serif" font-size="10.00">+ FString()</text>
<text text-anchor="start" x="145.5" y="-1529.5" font-family="Helvetica,sans-Serif" font-size="10.00">+ IsValid()</text>
<text text-anchor="start" x="145.5" y="-1518.5" font-family="Helvetica,sans-Serif" font-size="10.00">+ c_str()</text>
<text text-anchor="start" x="145.5" y="-1507.5" font-family="Helvetica,sans-Serif" font-size="10.00">+ ToString()</text>
</a>
</g>
</g>
<!-- Node19&#45;&gt;Node1 -->
<g id="edge35" class="edge">
<title>Node19&#45;&gt;Node1</title>
<path fill="none" stroke="#404040" d="M137.2,-1506.06C100.08,-1458.3 49,-1378.1 49,-1298.5 49,-1298.5 49,-1298.5 49,-128.5 49,-109.14 51.31,-87.79 53.91,-69.93"/>
<polygon fill="none" stroke="#404040" points="53.93,-69.77 50.9,-63.23 55.77,-57.91 58.81,-64.45 53.93,-69.77"/>
<text text-anchor="middle" x="102" y="-655" font-family="Helvetica,sans-Serif" font-size="10.00"> +ScreenshotPathName</text>
<text text-anchor="middle" x="102" y="-644" font-family="Helvetica,sans-Serif" font-size="10.00">+MapName</text>
<text text-anchor="middle" x="102" y="-633" font-family="Helvetica,sans-Serif" font-size="10.00">+Description</text>
<text text-anchor="middle" x="102" y="-622" font-family="Helvetica,sans-Serif" font-size="10.00">+DisplayName</text>
</g>
<!-- Node19&#45;&gt;Node18 -->
<g id="edge25" class="edge">
<title>Node19&#45;&gt;Node18</title>
<path fill="none" stroke="#404040" d="M175,-1500.31C175,-1466.78 175,-1421.7 175,-1382.65"/>
<polygon fill="none" stroke="#404040" points="175,-1382.47 171,-1376.47 175,-1370.47 179,-1376.47 175,-1382.47"/>
<text text-anchor="middle" x="189" y="-1452" font-family="Helvetica,sans-Serif" font-size="10.00"> &#45;Data</text>
</g>
<!-- Node20&#45;&gt;Node19 -->
<g id="edge26" class="edge">
<title>Node20&#45;&gt;Node19</title>
<path fill="none" stroke="midnightblue" d="M196.36,-1650.56C192.73,-1633.84 189.02,-1616.73 185.74,-1601.55"/>
<polygon fill="none" stroke="midnightblue" points="192.94,-1651.31 198.47,-1660.34 199.78,-1649.83 192.94,-1651.31"/>
</g>
<!-- Node21&#45;&gt;Node3 -->
<g id="edge29" class="edge">
<title>Node21&#45;&gt;Node3</title>
<path fill="none" stroke="#404040" d="M736.55,-1020.86C718.18,-987.33 691,-928.5 691,-874 691,-874 691,-874 691,-389 691,-327.8 521.34,-280.79 406.69,-256"/>
<polygon fill="none" stroke="#404040" points="406.47,-255.96 399.77,-258.62 394.73,-253.46 401.44,-250.79 406.47,-255.96"/>
<text text-anchor="start" x="691" y="-644" font-family="Helvetica,sans-Serif" font-size="10.00"> +__CanSupportComplexProperty</text>
<text text-anchor="middle" x="765" y="-633" font-family="Helvetica,sans-Serif" font-size="10.00">Type__Delegate</text>
</g>
<!-- Node22&#45;&gt;Node3 -->
<g id="edge32" class="edge">
<title>Node22&#45;&gt;Node3</title>
<path fill="none" stroke="#404040" d="M358.52,-317.22C349.8,-304.31 340.97,-291.23 333.02,-279.47"/>
<polygon fill="none" stroke="#404040" points="333.01,-279.45 326.34,-276.72 326.29,-269.51 332.97,-272.24 333.01,-279.45"/>
<text text-anchor="middle" x="400" y="-291" font-family="Helvetica,sans-Serif" font-size="10.00"> +ComplexPropertyTypes</text>
</g>
</g>
</svg>
