<?xml version="1.0" encoding="UTF-8" standalone="no"?>
<!DOCTYPE svg PUBLIC "-//W3C//DTD SVG 1.1//EN"
 "http://www.w3.org/Graphics/SVG/1.1/DTD/svg11.dtd">
<!-- Generated by graphviz version 2.41.20171026.1811 (20171026.1811)
 -->
<!-- Title: SDK::UEFActionNotify_MonsterMoveNextStageConditionChangeTarget Pages: 1 -->
<svg width="206pt" height="937pt"
 viewBox="0.00 0.00 206.00 937.00" xmlns="http://www.w3.org/2000/svg" xmlns:xlink="http://www.w3.org/1999/xlink">
<g id="graph0" class="graph" transform="scale(1 1) rotate(0) translate(4 933)">
<title>SDK::UEFActionNotify_MonsterMoveNextStageConditionChangeTarget</title>
<polygon fill="white" stroke="transparent" points="-4,4 -4,-933 202,-933 202,4 -4,4"/>
<!-- Node1 -->
<g id="node1" class="node">
<title>Node1</title>
<g id="a_node1"><a xlink:title=" ">
<polygon fill="#bfbfbf" stroke="black" points="14.5,-0.5 14.5,-112.5 183.5,-112.5 183.5,-0.5 14.5,-0.5"/>
<text text-anchor="start" x="22.5" y="-100.5" font-family="Helvetica,sans-Serif" font-size="10.00">SDK::UEFActionNotify</text>
<text text-anchor="start" x="22.5" y="-89.5" font-family="Helvetica,sans-Serif" font-size="10.00">_MonsterMoveNextStageCondition</text>
<text text-anchor="middle" x="99" y="-78.5" font-family="Helvetica,sans-Serif" font-size="10.00">ChangeTarget</text>
<polyline fill="none" stroke="black" points="14.5,-71.5 183.5,-71.5 "/>
<text text-anchor="start" x="22.5" y="-59.5" font-family="Helvetica,sans-Serif" font-size="10.00">+ StatusEffectId</text>
<text text-anchor="start" x="22.5" y="-48.5" font-family="Helvetica,sans-Serif" font-size="10.00">+ MinAngle</text>
<text text-anchor="start" x="22.5" y="-37.5" font-family="Helvetica,sans-Serif" font-size="10.00">+ MaxAngle</text>
<text text-anchor="start" x="22.5" y="-26.5" font-family="Helvetica,sans-Serif" font-size="10.00">+ MaxDistance</text>
<polyline fill="none" stroke="black" points="14.5,-19.5 183.5,-19.5 "/>
<text text-anchor="start" x="22.5" y="-7.5" font-family="Helvetica,sans-Serif" font-size="10.00">+ StaticClass()</text>
</a>
</g>
</g>
<!-- Node2 -->
<g id="node2" class="node">
<title>Node2</title>
<g id="a_node2"><a xlink:href="../../db/d95/classSDK_1_1UEFActionNotify__MonsterMoveNextStageConditionBase.html" target="_top" xlink:title=" ">
<polygon fill="white" stroke="black" points="3.5,-149.5 3.5,-228.5 194.5,-228.5 194.5,-149.5 3.5,-149.5"/>
<text text-anchor="start" x="11.5" y="-216.5" font-family="Helvetica,sans-Serif" font-size="10.00">SDK::UEFActionNotify</text>
<text text-anchor="middle" x="99" y="-205.5" font-family="Helvetica,sans-Serif" font-size="10.00">_MonsterMoveNextStageConditionBase</text>
<polyline fill="none" stroke="black" points="3.5,-198.5 194.5,-198.5 "/>
<text text-anchor="start" x="11.5" y="-186.5" font-family="Helvetica,sans-Serif" font-size="10.00">+ OutputStageIndex</text>
<text text-anchor="start" x="11.5" y="-175.5" font-family="Helvetica,sans-Serif" font-size="10.00">+ OutputStageDesc</text>
<polyline fill="none" stroke="black" points="3.5,-168.5 194.5,-168.5 "/>
<text text-anchor="start" x="11.5" y="-156.5" font-family="Helvetica,sans-Serif" font-size="10.00">+ StaticClass()</text>
</a>
</g>
</g>
<!-- Node2&#45;&gt;Node1 -->
<g id="edge1" class="edge">
<title>Node2&#45;&gt;Node1</title>
<path fill="none" stroke="midnightblue" d="M99,-139.01C99,-130.46 99,-121.52 99,-112.81"/>
<polygon fill="none" stroke="midnightblue" points="95.5,-139.2 99,-149.2 102.5,-139.2 95.5,-139.2"/>
</g>
<!-- Node3 -->
<g id="node3" class="node">
<title>Node3</title>
<g id="a_node3"><a xlink:href="../../da/d29/classSDK_1_1UEFActionNotify__MonsterMoveNextStageBase.html" target="_top" xlink:title=" ">
<polygon fill="white" stroke="black" points="24,-265.5 24,-333.5 174,-333.5 174,-265.5 24,-265.5"/>
<text text-anchor="start" x="32" y="-321.5" font-family="Helvetica,sans-Serif" font-size="10.00">SDK::UEFActionNotify</text>
<text text-anchor="middle" x="99" y="-310.5" font-family="Helvetica,sans-Serif" font-size="10.00">_MonsterMoveNextStageBase</text>
<polyline fill="none" stroke="black" points="24,-303.5 174,-303.5 "/>
<text text-anchor="middle" x="99" y="-291.5" font-family="Helvetica,sans-Serif" font-size="10.00"> </text>
<polyline fill="none" stroke="black" points="24,-284.5 174,-284.5 "/>
<text text-anchor="start" x="32" y="-272.5" font-family="Helvetica,sans-Serif" font-size="10.00">+ StaticClass()</text>
</a>
</g>
</g>
<!-- Node3&#45;&gt;Node2 -->
<g id="edge2" class="edge">
<title>Node3&#45;&gt;Node2</title>
<path fill="none" stroke="midnightblue" d="M99,-255.27C99,-246.48 99,-237.28 99,-228.65"/>
<polygon fill="none" stroke="midnightblue" points="95.5,-255.36 99,-265.36 102.5,-255.36 95.5,-255.36"/>
</g>
<!-- Node4 -->
<g id="node4" class="node">
<title>Node4</title>
<g id="a_node4"><a xlink:href="../../df/d32/classSDK_1_1UEFAction__Notify.html" target="_top" xlink:title=" ">
<polygon fill="white" stroke="black" points="37.5,-370.5 37.5,-537.5 160.5,-537.5 160.5,-370.5 37.5,-370.5"/>
<text text-anchor="middle" x="99" y="-525.5" font-family="Helvetica,sans-Serif" font-size="10.00">SDK::UEFAction_Notify</text>
<polyline fill="none" stroke="black" points="37.5,-518.5 160.5,-518.5 "/>
<text text-anchor="start" x="45.5" y="-506.5" font-family="Helvetica,sans-Serif" font-size="10.00">+ TriggerSkillEffectId</text>
<text text-anchor="start" x="45.5" y="-495.5" font-family="Helvetica,sans-Serif" font-size="10.00">+ ActiveByMemoryPos</text>
<text text-anchor="start" x="45.5" y="-484.5" font-family="Helvetica,sans-Serif" font-size="10.00">+ FullRange</text>
<text text-anchor="start" x="45.5" y="-473.5" font-family="Helvetica,sans-Serif" font-size="10.00">+ Enable</text>
<text text-anchor="start" x="45.5" y="-462.5" font-family="Helvetica,sans-Serif" font-size="10.00">+ PrivateTemplate</text>
<text text-anchor="start" x="45.5" y="-451.5" font-family="Helvetica,sans-Serif" font-size="10.00">+ OverwriteTemplate</text>
<text text-anchor="start" x="45.5" y="-440.5" font-family="Helvetica,sans-Serif" font-size="10.00">+ Time</text>
<text text-anchor="start" x="45.5" y="-429.5" font-family="Helvetica,sans-Serif" font-size="10.00">+ OriginalTime</text>
<text text-anchor="start" x="45.5" y="-418.5" font-family="Helvetica,sans-Serif" font-size="10.00">+ Duration</text>
<text text-anchor="start" x="45.5" y="-407.5" font-family="Helvetica,sans-Serif" font-size="10.00">+ NotifyType</text>
<text text-anchor="start" x="45.5" y="-396.5" font-family="Helvetica,sans-Serif" font-size="10.00">and 11 more...</text>
<polyline fill="none" stroke="black" points="37.5,-389.5 160.5,-389.5 "/>
<text text-anchor="start" x="45.5" y="-377.5" font-family="Helvetica,sans-Serif" font-size="10.00">+ StaticClass()</text>
</a>
</g>
</g>
<!-- Node4&#45;&gt;Node3 -->
<g id="edge3" class="edge">
<title>Node4&#45;&gt;Node3</title>
<path fill="none" stroke="midnightblue" d="M99,-359.89C99,-350.63 99,-341.72 99,-333.74"/>
<polygon fill="none" stroke="midnightblue" points="95.5,-360.06 99,-370.06 102.5,-360.06 95.5,-360.06"/>
</g>
<!-- Node5 -->
<g id="node5" class="node">
<title>Node5</title>
<g id="a_node5"><a xlink:href="../../d9/d45/classSDK_1_1UObject.html" target="_top" xlink:title=" ">
<polygon fill="white" stroke="black" points="0,-574.5 0,-928.5 198,-928.5 198,-574.5 0,-574.5"/>
<text text-anchor="middle" x="99" y="-916.5" font-family="Helvetica,sans-Serif" font-size="10.00">SDK::UObject</text>
<polyline fill="none" stroke="black" points="0,-909.5 198,-909.5 "/>
<text text-anchor="start" x="8" y="-897.5" font-family="Helvetica,sans-Serif" font-size="10.00">+ VfTableObject</text>
<text text-anchor="start" x="8" y="-886.5" font-family="Helvetica,sans-Serif" font-size="10.00">+ ObjectFlags</text>
<text text-anchor="start" x="8" y="-875.5" font-family="Helvetica,sans-Serif" font-size="10.00">+ StateFrame</text>
<text text-anchor="start" x="8" y="-864.5" font-family="Helvetica,sans-Serif" font-size="10.00">+ Linker</text>
<text text-anchor="start" x="8" y="-853.5" font-family="Helvetica,sans-Serif" font-size="10.00">+ LinkerIndex</text>
<text text-anchor="start" x="8" y="-842.5" font-family="Helvetica,sans-Serif" font-size="10.00">+ ObjectInternalInteger</text>
<text text-anchor="start" x="8" y="-831.5" font-family="Helvetica,sans-Serif" font-size="10.00">+ NetIndex</text>
<text text-anchor="start" x="8" y="-820.5" font-family="Helvetica,sans-Serif" font-size="10.00">+ Outer</text>
<text text-anchor="start" x="8" y="-809.5" font-family="Helvetica,sans-Serif" font-size="10.00">+ Name</text>
<text text-anchor="start" x="8" y="-798.5" font-family="Helvetica,sans-Serif" font-size="10.00">+ Class</text>
<text text-anchor="start" x="8" y="-787.5" font-family="Helvetica,sans-Serif" font-size="10.00">+ ObjectArchetype</text>
<text text-anchor="start" x="8" y="-776.5" font-family="Helvetica,sans-Serif" font-size="10.00">+ GObjects</text>
<polyline fill="none" stroke="black" points="0,-769.5 198,-769.5 "/>
<text text-anchor="start" x="8" y="-757.5" font-family="Helvetica,sans-Serif" font-size="10.00">+ UObject::GetName()</text>
<text text-anchor="start" x="8" y="-746.5" font-family="Helvetica,sans-Serif" font-size="10.00">+ GetFullName()</text>
<text text-anchor="start" x="8" y="-735.5" font-family="Helvetica,sans-Serif" font-size="10.00">+ IsA()</text>
<text text-anchor="start" x="8" y="-724.5" font-family="Helvetica,sans-Serif" font-size="10.00">+ ProcessEvent()</text>
<text text-anchor="start" x="8" y="-713.5" font-family="Helvetica,sans-Serif" font-size="10.00">+ STATIC_ProfNodeEvent()</text>
<text text-anchor="start" x="8" y="-702.5" font-family="Helvetica,sans-Serif" font-size="10.00">+ STATIC_ProfNodeSetDepthThreshold()</text>
<text text-anchor="start" x="8" y="-691.5" font-family="Helvetica,sans-Serif" font-size="10.00">+ STATIC_ProfNodeSetTimeThreshold</text>
<text text-anchor="start" x="8" y="-680.5" font-family="Helvetica,sans-Serif" font-size="10.00">Seconds()</text>
<text text-anchor="start" x="8" y="-669.5" font-family="Helvetica,sans-Serif" font-size="10.00">+ STATIC_ProfNodeStop()</text>
<text text-anchor="start" x="8" y="-658.5" font-family="Helvetica,sans-Serif" font-size="10.00">+ STATIC_ProfNodeStart()</text>
<text text-anchor="start" x="8" y="-647.5" font-family="Helvetica,sans-Serif" font-size="10.00">+ STATIC_GetStringFromGuid()</text>
<text text-anchor="start" x="8" y="-636.5" font-family="Helvetica,sans-Serif" font-size="10.00">and 298 more...</text>
<text text-anchor="start" x="8" y="-625.5" font-family="Helvetica,sans-Serif" font-size="10.00">+ GetGlobalObjects()</text>
<text text-anchor="start" x="8" y="-614.5" font-family="Helvetica,sans-Serif" font-size="10.00">+ FindObject()</text>
<text text-anchor="start" x="8" y="-603.5" font-family="Helvetica,sans-Serif" font-size="10.00">+ FindClass()</text>
<text text-anchor="start" x="8" y="-592.5" font-family="Helvetica,sans-Serif" font-size="10.00">+ GetObjectCasted()</text>
<text text-anchor="start" x="8" y="-581.5" font-family="Helvetica,sans-Serif" font-size="10.00">+ StaticClass()</text>
</a>
</g>
</g>
<!-- Node5&#45;&gt;Node4 -->
<g id="edge4" class="edge">
<title>Node5&#45;&gt;Node4</title>
<path fill="none" stroke="midnightblue" d="M99,-564.07C99,-555.04 99,-546.23 99,-537.76"/>
<polygon fill="none" stroke="midnightblue" points="95.5,-564.34 99,-574.34 102.5,-564.34 95.5,-564.34"/>
</g>
</g>
</svg>
