<?xml version="1.0" encoding="UTF-8" standalone="no"?>
<!DOCTYPE svg PUBLIC "-//W3C//DTD SVG 1.1//EN"
 "http://www.w3.org/Graphics/SVG/1.1/DTD/svg11.dtd">
<!-- Generated by graphviz version 2.41.20171026.1811 (20171026.1811)
 -->
<!-- Title: SDK::FBoneMirrorExport Pages: 1 -->
<svg width="381pt" height="623pt"
 viewBox="0.00 0.00 381.00 623.00" xmlns="http://www.w3.org/2000/svg" xmlns:xlink="http://www.w3.org/1999/xlink">
<g id="graph0" class="graph" transform="scale(1 1) rotate(0) translate(4 619)">
<title>SDK::FBoneMirrorExport</title>
<polygon fill="white" stroke="transparent" points="-4,4 -4,-619 377,-619 377,4 -4,4"/>
<!-- Node1 -->
<g id="node1" class="node">
<title>Node1</title>
<g id="a_node1"><a xlink:title=" ">
<polygon fill="#bfbfbf" stroke="black" points="143,-0.5 143,-57.5 268,-57.5 268,-0.5 143,-0.5"/>
<text text-anchor="middle" x="205.5" y="-45.5" font-family="Helvetica,sans-Serif" font-size="10.00">SDK::FBoneMirrorExport</text>
<polyline fill="none" stroke="black" points="143,-38.5 268,-38.5 "/>
<text text-anchor="middle" x="205.5" y="-26.5" font-family="Helvetica,sans-Serif" font-size="10.00"> </text>
<polyline fill="none" stroke="black" points="143,-19.5 268,-19.5 "/>
<text text-anchor="middle" x="205.5" y="-7.5" font-family="Helvetica,sans-Serif" font-size="10.00"> </text>
</a>
</g>
</g>
<!-- Node2 -->
<g id="node2" class="node">
<title>Node2</title>
<g id="a_node2"><a xlink:href="../../d0/db6/structSDK_1_1FName.html" target="_top" xlink:title=" ">
<polygon fill="white" stroke="black" points="78,-116.5 78,-239.5 185,-239.5 185,-116.5 78,-116.5"/>
<text text-anchor="middle" x="131.5" y="-227.5" font-family="Helvetica,sans-Serif" font-size="10.00">SDK::FName</text>
<polyline fill="none" stroke="black" points="78,-220.5 185,-220.5 "/>
<text text-anchor="start" x="86" y="-208.5" font-family="Helvetica,sans-Serif" font-size="10.00">+ Index</text>
<text text-anchor="start" x="86" y="-197.5" font-family="Helvetica,sans-Serif" font-size="10.00">+ Number</text>
<polyline fill="none" stroke="black" points="78,-190.5 185,-190.5 "/>
<text text-anchor="start" x="86" y="-178.5" font-family="Helvetica,sans-Serif" font-size="10.00">+ FName()</text>
<text text-anchor="start" x="86" y="-167.5" font-family="Helvetica,sans-Serif" font-size="10.00">+ FName()</text>
<text text-anchor="start" x="86" y="-156.5" font-family="Helvetica,sans-Serif" font-size="10.00">+ FName()</text>
<text text-anchor="start" x="86" y="-145.5" font-family="Helvetica,sans-Serif" font-size="10.00">+ GetName()</text>
<text text-anchor="start" x="86" y="-134.5" font-family="Helvetica,sans-Serif" font-size="10.00">+ operator==()</text>
<text text-anchor="start" x="86" y="-123.5" font-family="Helvetica,sans-Serif" font-size="10.00">+ GetGlobalNames()</text>
</a>
</g>
</g>
<!-- Node2&#45;&gt;Node1 -->
<g id="edge1" class="edge">
<title>Node2&#45;&gt;Node1</title>
<path fill="none" stroke="#404040" d="M146.86,-116.24C151.54,-102.54 157.37,-88.39 164.5,-76 166.22,-73 168.17,-70.02 170.25,-67.11"/>
<polygon fill="none" stroke="#404040" points="170.34,-67 170.88,-59.8 177.72,-57.53 177.18,-64.72 170.34,-67"/>
<text text-anchor="middle" x="209" y="-90" font-family="Helvetica,sans-Serif" font-size="10.00"> +SourceBoneName</text>
<text text-anchor="middle" x="209" y="-79" font-family="Helvetica,sans-Serif" font-size="10.00">+BoneName</text>
</g>
<!-- Node3 -->
<g id="node3" class="node">
<title>Node3</title>
<g id="a_node3"><a xlink:href="../../d3/d79/classSDK_1_1TArray.html" target="_top" xlink:title=" ">
<polygon fill="white" stroke="black" points="17.5,-287.5 17.5,-421.5 197.5,-421.5 197.5,-287.5 17.5,-287.5"/>
<text text-anchor="middle" x="107.5" y="-409.5" font-family="Helvetica,sans-Serif" font-size="10.00">SDK::TArray&lt; SDK::FNameEntry * &gt;</text>
<polyline fill="none" stroke="black" points="17.5,-402.5 197.5,-402.5 "/>
<text text-anchor="start" x="25.5" y="-390.5" font-family="Helvetica,sans-Serif" font-size="10.00">&#45; Count</text>
<text text-anchor="start" x="25.5" y="-379.5" font-family="Helvetica,sans-Serif" font-size="10.00">&#45; Max</text>
<polyline fill="none" stroke="black" points="17.5,-372.5 197.5,-372.5 "/>
<text text-anchor="start" x="25.5" y="-360.5" font-family="Helvetica,sans-Serif" font-size="10.00">+ TArray()</text>
<text text-anchor="start" x="25.5" y="-349.5" font-family="Helvetica,sans-Serif" font-size="10.00">+ Num()</text>
<text text-anchor="start" x="25.5" y="-338.5" font-family="Helvetica,sans-Serif" font-size="10.00">+ operator[]()</text>
<text text-anchor="start" x="25.5" y="-327.5" font-family="Helvetica,sans-Serif" font-size="10.00">+ operator[]()</text>
<text text-anchor="start" x="25.5" y="-316.5" font-family="Helvetica,sans-Serif" font-size="10.00">+ IsValidIndex()</text>
<text text-anchor="start" x="25.5" y="-305.5" font-family="Helvetica,sans-Serif" font-size="10.00">+ GetByIndex()</text>
<text text-anchor="start" x="25.5" y="-294.5" font-family="Helvetica,sans-Serif" font-size="10.00">+ GetByIndex()</text>
</a>
</g>
</g>
<!-- Node3&#45;&gt;Node2 -->
<g id="edge2" class="edge">
<title>Node3&#45;&gt;Node2</title>
<path fill="none" stroke="#404040" d="M116.64,-287.03C118.23,-275.45 119.9,-263.35 121.51,-251.62"/>
<polygon fill="none" stroke="#404040" points="121.54,-251.44 118.39,-244.95 123.17,-239.56 126.32,-246.04 121.54,-251.44"/>
<text text-anchor="middle" x="145" y="-261" font-family="Helvetica,sans-Serif" font-size="10.00"> +GNames</text>
</g>
<!-- Node4 -->
<g id="node4" class="node">
<title>Node4</title>
<g id="a_node4"><a xlink:href="../../d7/ddf/classSDK_1_1FNameEntry.html" target="_top" xlink:title=" ">
<polygon fill="white" stroke="black" points="0,-508 0,-576 99,-576 99,-508 0,-508"/>
<text text-anchor="middle" x="49.5" y="-564" font-family="Helvetica,sans-Serif" font-size="10.00">SDK::FNameEntry</text>
<polyline fill="none" stroke="black" points="0,-557 99,-557 "/>
<text text-anchor="start" x="8" y="-545" font-family="Helvetica,sans-Serif" font-size="10.00">+ UnknownData00</text>
<text text-anchor="start" x="8" y="-534" font-family="Helvetica,sans-Serif" font-size="10.00">+ name</text>
<polyline fill="none" stroke="black" points="0,-527 99,-527 "/>
<text text-anchor="start" x="8" y="-515" font-family="Helvetica,sans-Serif" font-size="10.00">+ GetName()</text>
</a>
</g>
</g>
<!-- Node4&#45;&gt;Node3 -->
<g id="edge3" class="edge">
<title>Node4&#45;&gt;Node3</title>
<path fill="none" stroke="#404040" d="M59.87,-507.84C66.34,-487.14 74.96,-459.58 83.08,-433.6"/>
<polygon fill="none" stroke="#404040" points="83.19,-433.25 81.16,-426.33 86.77,-421.8 88.8,-428.72 83.19,-433.25"/>
<text text-anchor="middle" x="94.5" y="-443" font-family="Helvetica,sans-Serif" font-size="10.00"> &#45;Data</text>
</g>
<!-- Node5 -->
<g id="node5" class="node">
<title>Node5</title>
<g id="a_node5"><a xlink:href="../../d3/d79/classSDK_1_1TArray.html" target="_top" xlink:title=" ">
<polygon fill="white" stroke="black" points="117,-469.5 117,-614.5 214,-614.5 214,-469.5 117,-469.5"/>
<text text-anchor="middle" x="165.5" y="-602.5" font-family="Helvetica,sans-Serif" font-size="10.00">SDK::TArray&lt; T &gt;</text>
<polyline fill="none" stroke="black" points="117,-595.5 214,-595.5 "/>
<text text-anchor="start" x="125" y="-583.5" font-family="Helvetica,sans-Serif" font-size="10.00">&#45; Data</text>
<text text-anchor="start" x="125" y="-572.5" font-family="Helvetica,sans-Serif" font-size="10.00">&#45; Count</text>
<text text-anchor="start" x="125" y="-561.5" font-family="Helvetica,sans-Serif" font-size="10.00">&#45; Max</text>
<polyline fill="none" stroke="black" points="117,-554.5 214,-554.5 "/>
<text text-anchor="start" x="125" y="-542.5" font-family="Helvetica,sans-Serif" font-size="10.00">+ TArray()</text>
<text text-anchor="start" x="125" y="-531.5" font-family="Helvetica,sans-Serif" font-size="10.00">+ Num()</text>
<text text-anchor="start" x="125" y="-520.5" font-family="Helvetica,sans-Serif" font-size="10.00">+ operator[]()</text>
<text text-anchor="start" x="125" y="-509.5" font-family="Helvetica,sans-Serif" font-size="10.00">+ operator[]()</text>
<text text-anchor="start" x="125" y="-498.5" font-family="Helvetica,sans-Serif" font-size="10.00">+ IsValidIndex()</text>
<text text-anchor="start" x="125" y="-487.5" font-family="Helvetica,sans-Serif" font-size="10.00">+ GetByIndex()</text>
<text text-anchor="start" x="125" y="-476.5" font-family="Helvetica,sans-Serif" font-size="10.00">+ GetByIndex()</text>
</a>
</g>
</g>
<!-- Node5&#45;&gt;Node3 -->
<g id="edge4" class="edge">
<title>Node5&#45;&gt;Node3</title>
<path fill="none" stroke="orange" d="M140.06,-459.62C136.08,-446.9 132.01,-433.89 128.16,-421.56"/>
<polygon fill="orange" stroke="orange" points="136.75,-460.78 143.08,-469.28 143.43,-458.69 136.75,-460.78"/>
<text text-anchor="middle" x="192" y="-443" font-family="Helvetica,sans-Serif" font-size="10.00"> &lt; SDK::FNameEntry * &gt;</text>
</g>
<!-- Node6 -->
<g id="node6" class="node">
<title>Node6</title>
<g id="a_node6"><a xlink:href="../../df/d1c/classSDK_1_1TEnumAsByte.html" target="_top" xlink:title=" ">
<polygon fill="white" stroke="black" points="213.5,-122 213.5,-234 365.5,-234 365.5,-122 213.5,-122"/>
<text text-anchor="middle" x="289.5" y="-222" font-family="Helvetica,sans-Serif" font-size="10.00">SDK::TEnumAsByte&lt; EAxis &gt;</text>
<polyline fill="none" stroke="black" points="213.5,-215 365.5,-215 "/>
<text text-anchor="start" x="221.5" y="-203" font-family="Helvetica,sans-Serif" font-size="10.00">&#45; value</text>
<polyline fill="none" stroke="black" points="213.5,-196 365.5,-196 "/>
<text text-anchor="start" x="221.5" y="-184" font-family="Helvetica,sans-Serif" font-size="10.00">+ TEnumAsByte()</text>
<text text-anchor="start" x="221.5" y="-173" font-family="Helvetica,sans-Serif" font-size="10.00">+ TEnumAsByte()</text>
<text text-anchor="start" x="221.5" y="-162" font-family="Helvetica,sans-Serif" font-size="10.00">+ TEnumAsByte()</text>
<text text-anchor="start" x="221.5" y="-151" font-family="Helvetica,sans-Serif" font-size="10.00">+ TEnumAsByte()</text>
<text text-anchor="start" x="221.5" y="-140" font-family="Helvetica,sans-Serif" font-size="10.00">+ operator EAxis()</text>
<text text-anchor="start" x="221.5" y="-129" font-family="Helvetica,sans-Serif" font-size="10.00">+ GetValue()</text>
</a>
</g>
</g>
<!-- Node6&#45;&gt;Node1 -->
<g id="edge5" class="edge">
<title>Node6&#45;&gt;Node1</title>
<path fill="none" stroke="#404040" d="M275.02,-121.89C269.6,-106.35 262.5,-89.91 253.5,-76 251.46,-72.86 249.17,-69.77 246.72,-66.78"/>
<polygon fill="none" stroke="#404040" points="246.49,-66.52 239.51,-64.72 238.49,-57.58 245.47,-59.38 246.49,-66.52"/>
<text text-anchor="middle" x="299" y="-84.5" font-family="Helvetica,sans-Serif" font-size="10.00"> +BoneFlipAxis</text>
</g>
<!-- Node7 -->
<g id="node7" class="node">
<title>Node7</title>
<g id="a_node7"><a xlink:href="../../df/d1c/classSDK_1_1TEnumAsByte.html" target="_top" xlink:title=" ">
<polygon fill="white" stroke="black" points="216,-298.5 216,-410.5 373,-410.5 373,-298.5 216,-298.5"/>
<text text-anchor="middle" x="294.5" y="-398.5" font-family="Helvetica,sans-Serif" font-size="10.00">SDK::TEnumAsByte&lt; TEnum &gt;</text>
<polyline fill="none" stroke="black" points="216,-391.5 373,-391.5 "/>
<text text-anchor="start" x="224" y="-379.5" font-family="Helvetica,sans-Serif" font-size="10.00">&#45; value</text>
<polyline fill="none" stroke="black" points="216,-372.5 373,-372.5 "/>
<text text-anchor="start" x="224" y="-360.5" font-family="Helvetica,sans-Serif" font-size="10.00">+ TEnumAsByte()</text>
<text text-anchor="start" x="224" y="-349.5" font-family="Helvetica,sans-Serif" font-size="10.00">+ TEnumAsByte()</text>
<text text-anchor="start" x="224" y="-338.5" font-family="Helvetica,sans-Serif" font-size="10.00">+ TEnumAsByte()</text>
<text text-anchor="start" x="224" y="-327.5" font-family="Helvetica,sans-Serif" font-size="10.00">+ TEnumAsByte()</text>
<text text-anchor="start" x="224" y="-316.5" font-family="Helvetica,sans-Serif" font-size="10.00">+ operator TEnum()</text>
<text text-anchor="start" x="224" y="-305.5" font-family="Helvetica,sans-Serif" font-size="10.00">+ GetValue()</text>
</a>
</g>
</g>
<!-- Node7&#45;&gt;Node6 -->
<g id="edge6" class="edge">
<title>Node7&#45;&gt;Node6</title>
<path fill="none" stroke="orange" d="M292.62,-288.02C292.12,-270.28 291.57,-251.26 291.08,-234.15"/>
<polygon fill="orange" stroke="orange" points="289.13,-288.39 292.92,-298.29 296.13,-288.19 289.13,-288.39"/>
<text text-anchor="middle" x="316.5" y="-261" font-family="Helvetica,sans-Serif" font-size="10.00"> &lt; EAxis &gt;</text>
</g>
</g>
</svg>
