<?xml version="1.0" encoding="UTF-8" standalone="no"?>
<!DOCTYPE svg PUBLIC "-//W3C//DTD SVG 1.1//EN"
 "http://www.w3.org/Graphics/SVG/1.1/DTD/svg11.dtd">
<!-- Generated by graphviz version 2.41.20171026.1811 (20171026.1811)
 -->
<!-- Title: SDK::FParticleEventCollideData Pages: 1 -->
<svg width="167pt" height="364pt"
 viewBox="0.00 0.00 167.00 364.00" xmlns="http://www.w3.org/2000/svg" xmlns:xlink="http://www.w3.org/1999/xlink">
<g id="graph0" class="graph" transform="scale(1 1) rotate(0) translate(4 360)">
<title>SDK::FParticleEventCollideData</title>
<polygon fill="white" stroke="transparent" points="-4,4 -4,-360 163,-360 163,4 -4,4"/>
<!-- Node1 -->
<g id="node1" class="node">
<title>Node1</title>
<g id="a_node1"><a xlink:title=" ">
<polygon fill="#bfbfbf" stroke="black" points="0,-105.5 0,-206.5 159,-206.5 159,-105.5 0,-105.5"/>
<text text-anchor="middle" x="79.5" y="-194.5" font-family="Helvetica,sans-Serif" font-size="10.00">SDK::FParticleEventCollideData</text>
<polyline fill="none" stroke="black" points="0,-187.5 159,-187.5 "/>
<text text-anchor="start" x="8" y="-175.5" font-family="Helvetica,sans-Serif" font-size="10.00">+ ParticleTime</text>
<text text-anchor="start" x="8" y="-164.5" font-family="Helvetica,sans-Serif" font-size="10.00">+ Normal</text>
<text text-anchor="start" x="8" y="-153.5" font-family="Helvetica,sans-Serif" font-size="10.00">+ Time</text>
<text text-anchor="start" x="8" y="-142.5" font-family="Helvetica,sans-Serif" font-size="10.00">+ Item</text>
<text text-anchor="start" x="8" y="-131.5" font-family="Helvetica,sans-Serif" font-size="10.00">+ BoneName</text>
<polyline fill="none" stroke="black" points="0,-124.5 159,-124.5 "/>
<text text-anchor="middle" x="79.5" y="-112.5" font-family="Helvetica,sans-Serif" font-size="10.00"> </text>
</a>
</g>
</g>
<!-- Node3 -->
<g id="node3" class="node">
<title>Node3</title>
<g id="a_node3"><a xlink:href="../../d6/d60/structSDK_1_1FParticleEventAttractorCollideData.html" target="_top" xlink:title=" ">
<polygon fill="white" stroke="black" points="6.5,-0.5 6.5,-68.5 152.5,-68.5 152.5,-0.5 6.5,-0.5"/>
<text text-anchor="start" x="14.5" y="-56.5" font-family="Helvetica,sans-Serif" font-size="10.00">SDK::FParticleEventAttractor</text>
<text text-anchor="middle" x="79.5" y="-45.5" font-family="Helvetica,sans-Serif" font-size="10.00">CollideData</text>
<polyline fill="none" stroke="black" points="6.5,-38.5 152.5,-38.5 "/>
<text text-anchor="middle" x="79.5" y="-26.5" font-family="Helvetica,sans-Serif" font-size="10.00"> </text>
<polyline fill="none" stroke="black" points="6.5,-19.5 152.5,-19.5 "/>
<text text-anchor="middle" x="79.5" y="-7.5" font-family="Helvetica,sans-Serif" font-size="10.00"> </text>
</a>
</g>
</g>
<!-- Node1&#45;&gt;Node3 -->
<g id="edge2" class="edge">
<title>Node1&#45;&gt;Node3</title>
<path fill="none" stroke="midnightblue" d="M79.5,-95.17C79.5,-86.11 79.5,-77.05 79.5,-68.83"/>
<polygon fill="none" stroke="midnightblue" points="76,-95.36 79.5,-105.36 83,-95.36 76,-95.36"/>
</g>
<!-- Node2 -->
<g id="node2" class="node">
<title>Node2</title>
<g id="a_node2"><a xlink:href="../../dd/da6/structSDK_1_1FParticleEventData.html" target="_top" xlink:title=" ">
<polygon fill="white" stroke="black" points="15,-243.5 15,-355.5 144,-355.5 144,-243.5 15,-243.5"/>
<text text-anchor="middle" x="79.5" y="-343.5" font-family="Helvetica,sans-Serif" font-size="10.00">SDK::FParticleEventData</text>
<polyline fill="none" stroke="black" points="15,-336.5 144,-336.5 "/>
<text text-anchor="start" x="23" y="-324.5" font-family="Helvetica,sans-Serif" font-size="10.00">+ Type</text>
<text text-anchor="start" x="23" y="-313.5" font-family="Helvetica,sans-Serif" font-size="10.00">+ EventName</text>
<text text-anchor="start" x="23" y="-302.5" font-family="Helvetica,sans-Serif" font-size="10.00">+ EmitterTime</text>
<text text-anchor="start" x="23" y="-291.5" font-family="Helvetica,sans-Serif" font-size="10.00">+ Location</text>
<text text-anchor="start" x="23" y="-280.5" font-family="Helvetica,sans-Serif" font-size="10.00">+ Direction</text>
<text text-anchor="start" x="23" y="-269.5" font-family="Helvetica,sans-Serif" font-size="10.00">+ Velocity</text>
<polyline fill="none" stroke="black" points="15,-262.5 144,-262.5 "/>
<text text-anchor="middle" x="79.5" y="-250.5" font-family="Helvetica,sans-Serif" font-size="10.00"> </text>
</a>
</g>
</g>
<!-- Node2&#45;&gt;Node1 -->
<g id="edge1" class="edge">
<title>Node2&#45;&gt;Node1</title>
<path fill="none" stroke="midnightblue" d="M79.5,-233.34C79.5,-224.38 79.5,-215.29 79.5,-206.66"/>
<polygon fill="none" stroke="midnightblue" points="76,-233.39 79.5,-243.39 83,-233.39 76,-233.39"/>
</g>
</g>
</svg>
