<?xml version="1.0" encoding="UTF-8" standalone="no"?>
<!DOCTYPE svg PUBLIC "-//W3C//DTD SVG 1.1//EN"
 "http://www.w3.org/Graphics/SVG/1.1/DTD/svg11.dtd">
<!-- Generated by graphviz version 2.41.20171026.1811 (20171026.1811)
 -->
<!-- Title: SDK::FParticleEventData Pages: 1 -->
<!--zoomable 364 -->
<svg id="main" version="1.1" xmlns="http://www.w3.org/2000/svg" xmlns:xlink="http://www.w3.org/1999/xlink" xml:space="preserve" onload="init(evt)">
<style type="text/css"><![CDATA[
.edge:hover path { stroke: red; }
.edge:hover polygon { stroke: red; fill: red; }
]]></style>
<script type="text/javascript"><![CDATA[
var edges = document.getElementsByTagName('g');
if (edges && edges.length) {
  for (var i=0;i<edges.length;i++) {
    if (edges[i].id.substr(0,4)=='edge') {
      edges[i].setAttribute('class','edge');
    }
  }
}
]]></script>
        <defs>
                <circle id="rim" cx="0" cy="0" r="7"/>
                <circle id="rim2" cx="0" cy="0" r="3.5"/>
                <g id="zoomPlus">
                        <use xlink:href="#rim" fill="#404040">
                                <set attributeName="fill" to="#808080" begin="zoomplus.mouseover" end="zoomplus.mouseout"/>
                        </use>
                        <path d="M-4,0h8M0,-4v8" fill="none" stroke="white" stroke-width="1.5" pointer-events="none"/>
                </g>
                <g id="zoomMin">
                        <use xlink:href="#rim" fill="#404040">
                                <set attributeName="fill" to="#808080" begin="zoomminus.mouseover" end="zoomminus.mouseout"/>
                        </use>
                        <path d="M-4,0h8" fill="none" stroke="white" stroke-width="1.5" pointer-events="none"/>
                </g>
                <g id="dirArrow">
                        <path fill="none" stroke="white" stroke-width="1.5" d="M0,-3.0v7 M-2.5,-0.5L0,-3.0L2.5,-0.5"/>
                </g>
               <g id="resetDef">
                       <use xlink:href="#rim2" fill="#404040">
                               <set attributeName="fill" to="#808080" begin="reset.mouseover" end="reset.mouseout"/>
                       </use>
               </g>
        </defs>

<script type="text/javascript">
var viewWidth = 696;
var viewHeight = 364;
var sectionId = 'dynsection-0';
</script>
<script xlink:href="../../svgpan.js"/>
<svg id="graph" class="graph">
<g id="viewport">
<title>SDK::FParticleEventData</title>
<polygon fill="white" stroke="transparent" points="-4,4 -4,-360 692,-360 692,4 -4,4"/>
<!-- Node1 -->
<g id="node1" class="node">
<title>Node1</title>
<g id="a_node1"><a xlink:title=" ">
<polygon fill="#bfbfbf" stroke="black" points="278,-243.5 278,-355.5 407,-355.5 407,-243.5 278,-243.5"/>
<text text-anchor="middle" x="342.5" y="-343.5" font-family="Helvetica,sans-Serif" font-size="10.00">SDK::FParticleEventData</text>
<polyline fill="none" stroke="black" points="278,-336.5 407,-336.5 "/>
<text text-anchor="start" x="286" y="-324.5" font-family="Helvetica,sans-Serif" font-size="10.00">+ Type</text>
<text text-anchor="start" x="286" y="-313.5" font-family="Helvetica,sans-Serif" font-size="10.00">+ EventName</text>
<text text-anchor="start" x="286" y="-302.5" font-family="Helvetica,sans-Serif" font-size="10.00">+ EmitterTime</text>
<text text-anchor="start" x="286" y="-291.5" font-family="Helvetica,sans-Serif" font-size="10.00">+ Location</text>
<text text-anchor="start" x="286" y="-280.5" font-family="Helvetica,sans-Serif" font-size="10.00">+ Direction</text>
<text text-anchor="start" x="286" y="-269.5" font-family="Helvetica,sans-Serif" font-size="10.00">+ Velocity</text>
<polyline fill="none" stroke="black" points="278,-262.5 407,-262.5 "/>
<text text-anchor="middle" x="342.5" y="-250.5" font-family="Helvetica,sans-Serif" font-size="10.00"> </text>
</a>
</g>
</g>
<!-- Node2 -->
<g id="node2" class="node">
<title>Node2</title>
<g id="a_node2"><a xlink:href="../../da/d33/structSDK_1_1FParticleEventCollideData.html" target="_top" xlink:title=" ">
<polygon fill="white" stroke="black" points="0,-105.5 0,-206.5 159,-206.5 159,-105.5 0,-105.5"/>
<text text-anchor="middle" x="79.5" y="-194.5" font-family="Helvetica,sans-Serif" font-size="10.00">SDK::FParticleEventCollideData</text>
<polyline fill="none" stroke="black" points="0,-187.5 159,-187.5 "/>
<text text-anchor="start" x="8" y="-175.5" font-family="Helvetica,sans-Serif" font-size="10.00">+ ParticleTime</text>
<text text-anchor="start" x="8" y="-164.5" font-family="Helvetica,sans-Serif" font-size="10.00">+ Normal</text>
<text text-anchor="start" x="8" y="-153.5" font-family="Helvetica,sans-Serif" font-size="10.00">+ Time</text>
<text text-anchor="start" x="8" y="-142.5" font-family="Helvetica,sans-Serif" font-size="10.00">+ Item</text>
<text text-anchor="start" x="8" y="-131.5" font-family="Helvetica,sans-Serif" font-size="10.00">+ BoneName</text>
<polyline fill="none" stroke="black" points="0,-124.5 159,-124.5 "/>
<text text-anchor="middle" x="79.5" y="-112.5" font-family="Helvetica,sans-Serif" font-size="10.00"> </text>
</a>
</g>
</g>
<!-- Node1&#45;&gt;Node2 -->
<g id="edge1" class="edge">
<title>Node1&#45;&gt;Node2</title>
<path fill="none" stroke="midnightblue" d="M268.79,-260.31C237.73,-244.07 201.25,-224.81 168.5,-207 165.39,-205.31 162.22,-203.57 159.02,-201.82"/>
<polygon fill="none" stroke="midnightblue" points="267.34,-263.5 277.82,-265.03 270.58,-257.3 267.34,-263.5"/>
</g>
<!-- Node4 -->
<g id="node4" class="node">
<title>Node4</title>
<g id="a_node4"><a xlink:href="../../da/d1f/structSDK_1_1FParticleEventDeathData.html" target="_top" xlink:title=" ">
<polygon fill="white" stroke="black" points="177,-127.5 177,-184.5 332,-184.5 332,-127.5 177,-127.5"/>
<text text-anchor="middle" x="254.5" y="-172.5" font-family="Helvetica,sans-Serif" font-size="10.00">SDK::FParticleEventDeathData</text>
<polyline fill="none" stroke="black" points="177,-165.5 332,-165.5 "/>
<text text-anchor="start" x="185" y="-153.5" font-family="Helvetica,sans-Serif" font-size="10.00">+ ParticleTime</text>
<polyline fill="none" stroke="black" points="177,-146.5 332,-146.5 "/>
<text text-anchor="middle" x="254.5" y="-134.5" font-family="Helvetica,sans-Serif" font-size="10.00"> </text>
</a>
</g>
</g>
<!-- Node1&#45;&gt;Node4 -->
<g id="edge3" class="edge">
<title>Node1&#45;&gt;Node4</title>
<path fill="none" stroke="midnightblue" d="M302.88,-234.79C291.9,-217.14 280.56,-198.9 271.61,-184.52"/>
<polygon fill="none" stroke="midnightblue" points="299.97,-236.74 308.22,-243.39 305.92,-233.05 299.97,-236.74"/>
</g>
<!-- Node5 -->
<g id="node5" class="node">
<title>Node5</title>
<g id="a_node5"><a xlink:href="../../d1/dce/structSDK_1_1FParticleEventKismetData.html" target="_top" xlink:title=" ">
<polygon fill="white" stroke="black" points="350.5,-122 350.5,-190 510.5,-190 510.5,-122 350.5,-122"/>
<text text-anchor="middle" x="430.5" y="-178" font-family="Helvetica,sans-Serif" font-size="10.00">SDK::FParticleEventKismetData</text>
<polyline fill="none" stroke="black" points="350.5,-171 510.5,-171 "/>
<text text-anchor="start" x="358.5" y="-159" font-family="Helvetica,sans-Serif" font-size="10.00">+ UsePSysCompLocation</text>
<text text-anchor="start" x="358.5" y="-148" font-family="Helvetica,sans-Serif" font-size="10.00">+ Normal</text>
<polyline fill="none" stroke="black" points="350.5,-141 510.5,-141 "/>
<text text-anchor="middle" x="430.5" y="-129" font-family="Helvetica,sans-Serif" font-size="10.00"> </text>
</a>
</g>
</g>
<!-- Node1&#45;&gt;Node5 -->
<g id="edge4" class="edge">
<title>Node1&#45;&gt;Node5</title>
<path fill="none" stroke="midnightblue" d="M382.08,-234.86C391.69,-219.4 401.59,-203.48 409.92,-190.1"/>
<polygon fill="none" stroke="midnightblue" points="379.08,-233.05 376.78,-243.39 385.03,-236.74 379.08,-233.05"/>
</g>
<!-- Node6 -->
<g id="node6" class="node">
<title>Node6</title>
<g id="a_node6"><a xlink:href="../../d2/de2/structSDK_1_1FParticleEventSpawnData.html" target="_top" xlink:title=" ">
<polygon fill="white" stroke="black" points="529,-127.5 529,-184.5 688,-184.5 688,-127.5 529,-127.5"/>
<text text-anchor="middle" x="608.5" y="-172.5" font-family="Helvetica,sans-Serif" font-size="10.00">SDK::FParticleEventSpawnData</text>
<polyline fill="none" stroke="black" points="529,-165.5 688,-165.5 "/>
<text text-anchor="middle" x="608.5" y="-153.5" font-family="Helvetica,sans-Serif" font-size="10.00"> </text>
<polyline fill="none" stroke="black" points="529,-146.5 688,-146.5 "/>
<text text-anchor="middle" x="608.5" y="-134.5" font-family="Helvetica,sans-Serif" font-size="10.00"> </text>
</a>
</g>
</g>
<!-- Node1&#45;&gt;Node6 -->
<g id="edge5" class="edge">
<title>Node1&#45;&gt;Node6</title>
<path fill="none" stroke="midnightblue" d="M416.36,-261.04C448.22,-244.7 485.83,-225.15 519.5,-207 532.76,-199.85 547.03,-191.94 560.17,-184.55"/>
<polygon fill="none" stroke="midnightblue" points="414.4,-258.11 407.1,-265.79 417.6,-264.34 414.4,-258.11"/>
</g>
<!-- Node3 -->
<g id="node3" class="node">
<title>Node3</title>
<g id="a_node3"><a xlink:href="../../d6/d60/structSDK_1_1FParticleEventAttractorCollideData.html" target="_top" xlink:title=" ">
<polygon fill="white" stroke="black" points="6.5,-0.5 6.5,-68.5 152.5,-68.5 152.5,-0.5 6.5,-0.5"/>
<text text-anchor="start" x="14.5" y="-56.5" font-family="Helvetica,sans-Serif" font-size="10.00">SDK::FParticleEventAttractor</text>
<text text-anchor="middle" x="79.5" y="-45.5" font-family="Helvetica,sans-Serif" font-size="10.00">CollideData</text>
<polyline fill="none" stroke="black" points="6.5,-38.5 152.5,-38.5 "/>
<text text-anchor="middle" x="79.5" y="-26.5" font-family="Helvetica,sans-Serif" font-size="10.00"> </text>
<polyline fill="none" stroke="black" points="6.5,-19.5 152.5,-19.5 "/>
<text text-anchor="middle" x="79.5" y="-7.5" font-family="Helvetica,sans-Serif" font-size="10.00"> </text>
</a>
</g>
</g>
<!-- Node2&#45;&gt;Node3 -->
<g id="edge2" class="edge">
<title>Node2&#45;&gt;Node3</title>
<path fill="none" stroke="midnightblue" d="M79.5,-95.17C79.5,-86.11 79.5,-77.05 79.5,-68.83"/>
<polygon fill="none" stroke="midnightblue" points="76,-95.36 79.5,-105.36 83,-95.36 76,-95.36"/>
</g>
</g>
</svg>
        <g id="navigator" transform="translate(0 0)" fill="#404254">
                <rect fill="#f2f5e9" fill-opacity="0.5" stroke="#606060" stroke-width=".5" x="0" y="0" width="60" height="60"/>
                <use id="zoomplus" xlink:href="#zoomPlus" x="17" y="9" onmousedown="handleZoom(evt,'in')"/>
                <use id="zoomminus" xlink:href="#zoomMin" x="42" y="9" onmousedown="handleZoom(evt,'out')"/>
                <use id="reset" xlink:href="#resetDef" x="30" y="36" onmousedown="handleReset()"/>
                <g id="arrowUp" xlink:href="#dirArrow" transform="translate(30 24)" onmousedown="handlePan(0,-1)">
                  <use xlink:href="#rim" fill="#404040">
                        <set attributeName="fill" to="#808080" begin="arrowUp.mouseover" end="arrowUp.mouseout"/>
                  </use>
                  <path fill="none" stroke="white" stroke-width="1.5" d="M0,-3.0v7 M-2.5,-0.5L0,-3.0L2.5,-0.5"/>
                </g>
                <g id="arrowRight" xlink:href="#dirArrow" transform="rotate(90) translate(36 -43)" onmousedown="handlePan(1,0)">
                  <use xlink:href="#rim" fill="#404040">
                        <set attributeName="fill" to="#808080" begin="arrowRight.mouseover" end="arrowRight.mouseout"/>
                  </use>
                  <path fill="none" stroke="white" stroke-width="1.5" d="M0,-3.0v7 M-2.5,-0.5L0,-3.0L2.5,-0.5"/>
                </g>
                <g id="arrowDown" xlink:href="#dirArrow" transform="rotate(180) translate(-30 -48)" onmousedown="handlePan(0,1)">
                  <use xlink:href="#rim" fill="#404040">
                        <set attributeName="fill" to="#808080" begin="arrowDown.mouseover" end="arrowDown.mouseout"/>
                  </use>
                  <path fill="none" stroke="white" stroke-width="1.5" d="M0,-3.0v7 M-2.5,-0.5L0,-3.0L2.5,-0.5"/>
                </g>
                <g id="arrowLeft" xlink:href="#dirArrow" transform="rotate(270) translate(-36 17)" onmousedown="handlePan(-1,0)">
                  <use xlink:href="#rim" fill="#404040">
                        <set attributeName="fill" to="#808080" begin="arrowLeft.mouseover" end="arrowLeft.mouseout"/>
                  </use>
                  <path fill="none" stroke="white" stroke-width="1.5" d="M0,-3.0v7 M-2.5,-0.5L0,-3.0L2.5,-0.5"/>
                </g>
        </g>
        <svg viewBox="0 0 15 15" width="100%" height="30px" preserveAspectRatio="xMaxYMin meet">
         <g id="arrow_out" transform="scale(0.3 0.3)">
          <a xlink:href="structSDK_1_1FParticleEventData__inherit__graph_org.svg" target="_base">
           <rect id="button" ry="5" rx="5" y="6" x="6" height="38" width="38"
                fill="#f2f5e9" fill-opacity="0.5" stroke="#606060" stroke-width="1.0"/>
           <path id="arrow"
             d="M 11.500037,31.436501 C 11.940474,20.09759 22.043105,11.32322 32.158766,21.979434 L 37.068811,17.246167 C 37.068811,17.246167 37.088388,32 37.088388,32 L 22.160133,31.978069 C 22.160133,31.978069 26.997745,27.140456 26.997745,27.140456 C 18.528582,18.264221 13.291696,25.230495 11.500037,31.436501 z"
             style="fill:#404040;"/>
          </a>
         </g>
        </svg>
</svg>
