<?xml version="1.0" encoding="UTF-8" standalone="no"?>
<!DOCTYPE svg PUBLIC "-//W3C//DTD SVG 1.1//EN"
 "http://www.w3.org/Graphics/SVG/1.1/DTD/svg11.dtd">
<!-- Generated by graphviz version 2.41.20171026.1811 (20171026.1811)
 -->
<!-- Title: SDK/LA_GameFramework_structs.hpp Pages: 1 -->
<svg width="228pt" height="375pt"
 viewBox="0.00 0.00 227.50 375.00" xmlns="http://www.w3.org/2000/svg" xmlns:xlink="http://www.w3.org/1999/xlink">
<g id="graph0" class="graph" transform="scale(1 1) rotate(0) translate(4 371)">
<title>SDK/LA_GameFramework_structs.hpp</title>
<polygon fill="white" stroke="transparent" points="-4,4 -4,-371 223.5,-371 223.5,4 -4,4"/>
<!-- Node1 -->
<g id="node1" class="node">
<title>Node1</title>
<g id="a_node1"><a xlink:title=" ">
<polygon fill="#bfbfbf" stroke="black" points="37.5,-336.5 37.5,-366.5 170.5,-366.5 170.5,-336.5 37.5,-336.5"/>
<text text-anchor="start" x="45.5" y="-354.5" font-family="Helvetica,sans-Serif" font-size="10.00">SDK/LA_GameFramework</text>
<text text-anchor="middle" x="104" y="-343.5" font-family="Helvetica,sans-Serif" font-size="10.00">_structs.hpp</text>
</a>
</g>
</g>
<!-- Node2 -->
<g id="node2" class="node">
<title>Node2</title>
<g id="a_node2"><a xlink:href="../../d1/db4/LA__Basic_8hpp.html" target="_top" xlink:title=" ">
<polygon fill="white" stroke="black" points="39.5,-56.5 39.5,-75.5 116.5,-75.5 116.5,-56.5 39.5,-56.5"/>
<text text-anchor="middle" x="78" y="-63.5" font-family="Helvetica,sans-Serif" font-size="10.00">LA_Basic.hpp</text>
</a>
</g>
</g>
<!-- Node1&#45;&gt;Node2 -->
<g id="edge1" class="edge">
<title>Node1&#45;&gt;Node2</title>
<path fill="none" stroke="midnightblue" d="M76.26,-336.38C61.75,-327.7 44.81,-315.3 34,-300 16.63,-275.42 15,-265.1 15,-235 15,-235 15,-235 15,-177 15,-139.48 42.95,-103.14 61.61,-83.05"/>
<polygon fill="midnightblue" stroke="midnightblue" points="64.27,-85.34 68.7,-75.72 59.24,-80.48 64.27,-85.34"/>
</g>
<!-- Node5 -->
<g id="node5" class="node">
<title>Node5</title>
<g id="a_node5"><a xlink:href="../../d8/db4/LA__Engine__classes_8hpp.html" target="_top" xlink:title=" ">
<polygon fill="white" stroke="black" points="43,-280.5 43,-299.5 165,-299.5 165,-280.5 43,-280.5"/>
<text text-anchor="middle" x="104" y="-287.5" font-family="Helvetica,sans-Serif" font-size="10.00">LA_Engine_classes.hpp</text>
</a>
</g>
</g>
<!-- Node1&#45;&gt;Node5 -->
<g id="edge4" class="edge">
<title>Node1&#45;&gt;Node5</title>
<path fill="none" stroke="midnightblue" d="M104,-336.4C104,-328.47 104,-318.46 104,-309.86"/>
<polygon fill="midnightblue" stroke="midnightblue" points="107.5,-309.66 104,-299.66 100.5,-309.66 107.5,-309.66"/>
</g>
<!-- Node7 -->
<g id="node7" class="node">
<title>Node7</title>
<g id="a_node7"><a xlink:href="../../d8/dd2/LA__Core__classes_8hpp.html" target="_top" xlink:title=" ">
<polygon fill="white" stroke="black" points="106.5,-168.5 106.5,-187.5 219.5,-187.5 219.5,-168.5 106.5,-168.5"/>
<text text-anchor="middle" x="163" y="-175.5" font-family="Helvetica,sans-Serif" font-size="10.00">LA_Core_classes.hpp</text>
</a>
</g>
</g>
<!-- Node1&#45;&gt;Node7 -->
<g id="edge10" class="edge">
<title>Node1&#45;&gt;Node7</title>
<path fill="none" stroke="midnightblue" d="M135.34,-336.44C149.92,-328.11 165.81,-316.01 174,-300 190.99,-266.79 179.26,-221.73 170.38,-197.03"/>
<polygon fill="midnightblue" stroke="midnightblue" points="173.58,-195.59 166.73,-187.51 167.04,-198.1 173.58,-195.59"/>
</g>
<!-- Node3 -->
<g id="node3" class="node">
<title>Node3</title>
<g id="a_node3"><a xlink:title=" ">
<polygon fill="white" stroke="#bfbfbf" points="0,-0.5 0,-19.5 78,-19.5 78,-0.5 0,-0.5"/>
<text text-anchor="middle" x="39" y="-7.5" font-family="Helvetica,sans-Serif" font-size="10.00">unordered_set</text>
</a>
</g>
</g>
<!-- Node2&#45;&gt;Node3 -->
<g id="edge2" class="edge">
<title>Node2&#45;&gt;Node3</title>
<path fill="none" stroke="midnightblue" d="M71.56,-56.08C66.05,-48.46 57.97,-37.26 51.24,-27.94"/>
<polygon fill="midnightblue" stroke="midnightblue" points="54.01,-25.81 45.32,-19.75 48.34,-29.91 54.01,-25.81"/>
</g>
<!-- Node4 -->
<g id="node4" class="node">
<title>Node4</title>
<g id="a_node4"><a xlink:title=" ">
<polygon fill="white" stroke="#bfbfbf" points="96.5,-0.5 96.5,-19.5 137.5,-19.5 137.5,-0.5 96.5,-0.5"/>
<text text-anchor="middle" x="117" y="-7.5" font-family="Helvetica,sans-Serif" font-size="10.00">string</text>
</a>
</g>
</g>
<!-- Node2&#45;&gt;Node4 -->
<g id="edge3" class="edge">
<title>Node2&#45;&gt;Node4</title>
<path fill="none" stroke="midnightblue" d="M84.44,-56.08C89.95,-48.46 98.03,-37.26 104.76,-27.94"/>
<polygon fill="midnightblue" stroke="midnightblue" points="107.66,-29.91 110.68,-19.75 101.99,-25.81 107.66,-29.91"/>
</g>
<!-- Node6 -->
<g id="node6" class="node">
<title>Node6</title>
<g id="a_node6"><a xlink:href="../../d3/dab/LA__Engine__structs_8hpp.html" target="_top" xlink:title=" ">
<polygon fill="white" stroke="black" points="45,-224.5 45,-243.5 163,-243.5 163,-224.5 45,-224.5"/>
<text text-anchor="middle" x="104" y="-231.5" font-family="Helvetica,sans-Serif" font-size="10.00">LA_Engine_structs.hpp</text>
</a>
</g>
</g>
<!-- Node5&#45;&gt;Node6 -->
<g id="edge5" class="edge">
<title>Node5&#45;&gt;Node6</title>
<path fill="none" stroke="midnightblue" d="M104,-280.08C104,-273.01 104,-262.86 104,-253.99"/>
<polygon fill="midnightblue" stroke="midnightblue" points="107.5,-253.75 104,-243.75 100.5,-253.75 107.5,-253.75"/>
</g>
<!-- Node6&#45;&gt;Node2 -->
<g id="edge6" class="edge">
<title>Node6&#45;&gt;Node2</title>
<path fill="none" stroke="midnightblue" d="M102.6,-224.08C98.51,-197.95 86.49,-121.21 80.91,-85.58"/>
<polygon fill="midnightblue" stroke="midnightblue" points="84.35,-84.91 79.34,-75.57 77.43,-85.99 84.35,-84.91"/>
</g>
<!-- Node6&#45;&gt;Node7 -->
<g id="edge7" class="edge">
<title>Node6&#45;&gt;Node7</title>
<path fill="none" stroke="midnightblue" d="M113.48,-224.32C122.2,-216.34 135.34,-204.31 145.9,-194.65"/>
<polygon fill="midnightblue" stroke="midnightblue" points="148.33,-197.17 153.35,-187.83 143.61,-192 148.33,-197.17"/>
</g>
<!-- Node8 -->
<g id="node8" class="node">
<title>Node8</title>
<g id="a_node8"><a xlink:href="../../de/d77/LA__Core__structs_8hpp.html" target="_top" xlink:title=" ">
<polygon fill="white" stroke="black" points="107.5,-112.5 107.5,-131.5 216.5,-131.5 216.5,-112.5 107.5,-112.5"/>
<text text-anchor="middle" x="162" y="-119.5" font-family="Helvetica,sans-Serif" font-size="10.00">LA_Core_structs.hpp</text>
</a>
</g>
</g>
<!-- Node7&#45;&gt;Node8 -->
<g id="edge8" class="edge">
<title>Node7&#45;&gt;Node8</title>
<path fill="none" stroke="midnightblue" d="M162.83,-168.08C162.7,-161.01 162.52,-150.86 162.35,-141.99"/>
<polygon fill="midnightblue" stroke="midnightblue" points="165.85,-141.68 162.16,-131.75 158.85,-141.81 165.85,-141.68"/>
</g>
<!-- Node8&#45;&gt;Node2 -->
<g id="edge9" class="edge">
<title>Node8&#45;&gt;Node2</title>
<path fill="none" stroke="midnightblue" d="M148.5,-112.32C135.4,-103.9 115.29,-90.97 99.89,-81.07"/>
<polygon fill="midnightblue" stroke="midnightblue" points="101.77,-78.12 91.46,-75.65 97.98,-84.01 101.77,-78.12"/>
</g>
</g>
</svg>
