<?xml version="1.0" encoding="UTF-8" standalone="no"?>
<!DOCTYPE svg PUBLIC "-//W3C//DTD SVG 1.1//EN"
 "http://www.w3.org/Graphics/SVG/1.1/DTD/svg11.dtd">
<!-- Generated by graphviz version 2.41.20171026.1811 (20171026.1811)
 -->
<!-- Title: SDK::UAnimCompress_ACL Pages: 1 -->
<svg width="955pt" height="1590pt"
 viewBox="0.00 0.00 955.00 1590.00" xmlns="http://www.w3.org/2000/svg" xmlns:xlink="http://www.w3.org/1999/xlink">
<g id="graph0" class="graph" transform="scale(1 1) rotate(0) translate(4 1586)">
<title>SDK::UAnimCompress_ACL</title>
<polygon fill="white" stroke="transparent" points="-4,4 -4,-1586 951,-1586 951,4 -4,4"/>
<!-- Node1 -->
<g id="node1" class="node">
<title>Node1</title>
<g id="a_node1"><a xlink:title=" ">
<polygon fill="#bfbfbf" stroke="black" points="107,-223.5 107,-324.5 259,-324.5 259,-223.5 107,-223.5"/>
<text text-anchor="middle" x="183" y="-312.5" font-family="Helvetica,sans-Serif" font-size="10.00">SDK::UAnimCompress_ACL</text>
<polyline fill="none" stroke="black" points="107,-305.5 259,-305.5 "/>
<text text-anchor="start" x="115" y="-293.5" font-family="Helvetica,sans-Serif" font-size="10.00">+ UnknownData00</text>
<text text-anchor="start" x="115" y="-282.5" font-family="Helvetica,sans-Serif" font-size="10.00">+ DefaultVirtualVertexDistance</text>
<text text-anchor="start" x="115" y="-271.5" font-family="Helvetica,sans-Serif" font-size="10.00">+ SafeVirtualVertexDistance</text>
<text text-anchor="start" x="115" y="-260.5" font-family="Helvetica,sans-Serif" font-size="10.00">+ SafetyFallbackThreshold</text>
<text text-anchor="start" x="115" y="-249.5" font-family="Helvetica,sans-Serif" font-size="10.00">+ ErrorThreshold</text>
<polyline fill="none" stroke="black" points="107,-242.5 259,-242.5 "/>
<text text-anchor="start" x="115" y="-230.5" font-family="Helvetica,sans-Serif" font-size="10.00">+ StaticClass()</text>
</a>
</g>
</g>
<!-- Node2 -->
<g id="node2" class="node">
<title>Node2</title>
<g id="a_node2"><a xlink:href="../../d5/dfa/classSDK_1_1UAnimationCompressionAlgorithm.html" target="_top" xlink:title=" ">
<polygon fill="white" stroke="black" points="257,-416.5 257,-484.5 409,-484.5 409,-416.5 257,-416.5"/>
<text text-anchor="start" x="265" y="-472.5" font-family="Helvetica,sans-Serif" font-size="10.00">SDK::UAnimationCompression</text>
<text text-anchor="middle" x="333" y="-461.5" font-family="Helvetica,sans-Serif" font-size="10.00">Algorithm</text>
<polyline fill="none" stroke="black" points="257,-454.5 409,-454.5 "/>
<text text-anchor="start" x="265" y="-442.5" font-family="Helvetica,sans-Serif" font-size="10.00">+ bNeedsSkeleton</text>
<polyline fill="none" stroke="black" points="257,-435.5 409,-435.5 "/>
<text text-anchor="start" x="265" y="-423.5" font-family="Helvetica,sans-Serif" font-size="10.00">+ StaticClass()</text>
</a>
</g>
</g>
<!-- Node2&#45;&gt;Node1 -->
<g id="edge1" class="edge">
<title>Node2&#45;&gt;Node1</title>
<path fill="none" stroke="midnightblue" d="M297.66,-408.39C276.11,-383.32 248.42,-351.11 225.65,-324.62"/>
<polygon fill="none" stroke="midnightblue" points="295.26,-410.97 304.43,-416.27 300.57,-406.4 295.26,-410.97"/>
</g>
<!-- Node3 -->
<g id="node3" class="node">
<title>Node3</title>
<g id="a_node3"><a xlink:href="../../d9/d45/classSDK_1_1UObject.html" target="_top" xlink:title=" ">
<polygon fill="white" stroke="black" points="576,-689.5 576,-933.5 774,-933.5 774,-689.5 576,-689.5"/>
<text text-anchor="middle" x="675" y="-921.5" font-family="Helvetica,sans-Serif" font-size="10.00">SDK::UObject</text>
<polyline fill="none" stroke="black" points="576,-914.5 774,-914.5 "/>
<text text-anchor="start" x="584" y="-902.5" font-family="Helvetica,sans-Serif" font-size="10.00">+ ObjectInternalInteger</text>
<text text-anchor="start" x="584" y="-891.5" font-family="Helvetica,sans-Serif" font-size="10.00">+ NetIndex</text>
<polyline fill="none" stroke="black" points="576,-884.5 774,-884.5 "/>
<text text-anchor="start" x="584" y="-872.5" font-family="Helvetica,sans-Serif" font-size="10.00">+ UObject::GetName()</text>
<text text-anchor="start" x="584" y="-861.5" font-family="Helvetica,sans-Serif" font-size="10.00">+ GetFullName()</text>
<text text-anchor="start" x="584" y="-850.5" font-family="Helvetica,sans-Serif" font-size="10.00">+ IsA()</text>
<text text-anchor="start" x="584" y="-839.5" font-family="Helvetica,sans-Serif" font-size="10.00">+ ProcessEvent()</text>
<text text-anchor="start" x="584" y="-828.5" font-family="Helvetica,sans-Serif" font-size="10.00">+ STATIC_ProfNodeEvent()</text>
<text text-anchor="start" x="584" y="-817.5" font-family="Helvetica,sans-Serif" font-size="10.00">+ STATIC_ProfNodeSetDepthThreshold()</text>
<text text-anchor="start" x="584" y="-806.5" font-family="Helvetica,sans-Serif" font-size="10.00">+ STATIC_ProfNodeSetTimeThreshold</text>
<text text-anchor="start" x="584" y="-795.5" font-family="Helvetica,sans-Serif" font-size="10.00">Seconds()</text>
<text text-anchor="start" x="584" y="-784.5" font-family="Helvetica,sans-Serif" font-size="10.00">+ STATIC_ProfNodeStop()</text>
<text text-anchor="start" x="584" y="-773.5" font-family="Helvetica,sans-Serif" font-size="10.00">+ STATIC_ProfNodeStart()</text>
<text text-anchor="start" x="584" y="-762.5" font-family="Helvetica,sans-Serif" font-size="10.00">+ STATIC_GetStringFromGuid()</text>
<text text-anchor="start" x="584" y="-751.5" font-family="Helvetica,sans-Serif" font-size="10.00">and 298 more...</text>
<text text-anchor="start" x="584" y="-740.5" font-family="Helvetica,sans-Serif" font-size="10.00">+ GetGlobalObjects()</text>
<text text-anchor="start" x="584" y="-729.5" font-family="Helvetica,sans-Serif" font-size="10.00">+ FindObject()</text>
<text text-anchor="start" x="584" y="-718.5" font-family="Helvetica,sans-Serif" font-size="10.00">+ FindClass()</text>
<text text-anchor="start" x="584" y="-707.5" font-family="Helvetica,sans-Serif" font-size="10.00">+ GetObjectCasted()</text>
<text text-anchor="start" x="584" y="-696.5" font-family="Helvetica,sans-Serif" font-size="10.00">+ StaticClass()</text>
</a>
</g>
</g>
<!-- Node3&#45;&gt;Node2 -->
<g id="edge2" class="edge">
<title>Node3&#45;&gt;Node2</title>
<path fill="none" stroke="midnightblue" d="M568.4,-716.98C553.28,-702.13 538.35,-686.53 525,-671 477.68,-615.93 481.62,-589.93 433,-536 416.41,-517.6 395.82,-499.55 377.64,-484.89"/>
<polygon fill="none" stroke="midnightblue" points="566.23,-719.75 575.84,-724.21 571.11,-714.73 566.23,-719.75"/>
</g>
<!-- Node3&#45;&gt;Node3 -->
<g id="edge8" class="edge">
<title>Node3&#45;&gt;Node3</title>
<path fill="none" stroke="#404040" d="M774.01,-841.47C784.94,-835.78 792,-825.79 792,-811.5 792,-802.12 788.96,-794.6 783.78,-788.92"/>
<polygon fill="none" stroke="#404040" points="783.58,-788.77 776.38,-788.34 774.01,-781.53 781.21,-781.96 783.58,-788.77"/>
<text text-anchor="middle" x="831.5" y="-820" font-family="Helvetica,sans-Serif" font-size="10.00"> +Outer</text>
<text text-anchor="middle" x="831.5" y="-809" font-family="Helvetica,sans-Serif" font-size="10.00">+Linker</text>
<text text-anchor="middle" x="831.5" y="-798" font-family="Helvetica,sans-Serif" font-size="10.00">+ObjectArchetype</text>
</g>
<!-- Node9 -->
<g id="node9" class="node">
<title>Node9</title>
<g id="a_node9"><a xlink:href="../../d3/d79/classSDK_1_1TArray.html" target="_top" xlink:title=" ">
<polygon fill="white" stroke="black" points="441.5,-383.5 441.5,-517.5 602.5,-517.5 602.5,-383.5 441.5,-383.5"/>
<text text-anchor="middle" x="522" y="-505.5" font-family="Helvetica,sans-Serif" font-size="10.00">SDK::TArray&lt; SDK::UObject * &gt;</text>
<polyline fill="none" stroke="black" points="441.5,-498.5 602.5,-498.5 "/>
<text text-anchor="start" x="449.5" y="-486.5" font-family="Helvetica,sans-Serif" font-size="10.00">&#45; Count</text>
<text text-anchor="start" x="449.5" y="-475.5" font-family="Helvetica,sans-Serif" font-size="10.00">&#45; Max</text>
<polyline fill="none" stroke="black" points="441.5,-468.5 602.5,-468.5 "/>
<text text-anchor="start" x="449.5" y="-456.5" font-family="Helvetica,sans-Serif" font-size="10.00">+ TArray()</text>
<text text-anchor="start" x="449.5" y="-445.5" font-family="Helvetica,sans-Serif" font-size="10.00">+ Num()</text>
<text text-anchor="start" x="449.5" y="-434.5" font-family="Helvetica,sans-Serif" font-size="10.00">+ operator[]()</text>
<text text-anchor="start" x="449.5" y="-423.5" font-family="Helvetica,sans-Serif" font-size="10.00">+ operator[]()</text>
<text text-anchor="start" x="449.5" y="-412.5" font-family="Helvetica,sans-Serif" font-size="10.00">+ IsValidIndex()</text>
<text text-anchor="start" x="449.5" y="-401.5" font-family="Helvetica,sans-Serif" font-size="10.00">+ GetByIndex()</text>
<text text-anchor="start" x="449.5" y="-390.5" font-family="Helvetica,sans-Serif" font-size="10.00">+ GetByIndex()</text>
</a>
</g>
</g>
<!-- Node3&#45;&gt;Node9 -->
<g id="edge10" class="edge">
<title>Node3&#45;&gt;Node9</title>
<path fill="none" stroke="#404040" d="M637.82,-689.32C636.14,-683.14 634.52,-677.01 633,-671 617.93,-611.6 633.86,-590.05 605,-536 603.54,-533.26 601.96,-530.55 600.28,-527.88"/>
<polygon fill="none" stroke="#404040" points="600.14,-527.67 593.45,-524.97 593.38,-517.75 600.06,-520.46 600.14,-527.67"/>
<text text-anchor="middle" x="647" y="-601" font-family="Helvetica,sans-Serif" font-size="10.00"> &#45;Data</text>
</g>
<!-- Node11 -->
<g id="node11" class="node">
<title>Node11</title>
<g id="a_node11"><a xlink:href="../../d7/d85/classSDK_1_1UClass.html" target="_top" xlink:title=" ">
<polygon fill="white" stroke="black" points="720.5,-0.5 720.5,-90.5 841.5,-90.5 841.5,-0.5 720.5,-0.5"/>
<text text-anchor="middle" x="781" y="-78.5" font-family="Helvetica,sans-Serif" font-size="10.00">SDK::UClass</text>
<polyline fill="none" stroke="black" points="720.5,-71.5 841.5,-71.5 "/>
<text text-anchor="start" x="728.5" y="-59.5" font-family="Helvetica,sans-Serif" font-size="10.00">+ UnknownData00</text>
<text text-anchor="start" x="728.5" y="-48.5" font-family="Helvetica,sans-Serif" font-size="10.00">+ UnknownData01</text>
<polyline fill="none" stroke="black" points="720.5,-41.5 841.5,-41.5 "/>
<text text-anchor="start" x="728.5" y="-29.5" font-family="Helvetica,sans-Serif" font-size="10.00">+ CreateDefaultObject()</text>
<text text-anchor="start" x="728.5" y="-18.5" font-family="Helvetica,sans-Serif" font-size="10.00">+ CreateDefaultObject()</text>
<text text-anchor="start" x="728.5" y="-7.5" font-family="Helvetica,sans-Serif" font-size="10.00">+ StaticClass()</text>
</a>
</g>
</g>
<!-- Node3&#45;&gt;Node11 -->
<g id="edge20" class="edge">
<title>Node3&#45;&gt;Node11</title>
<path fill="none" stroke="#404040" d="M729.55,-689.32C755.53,-620.93 781,-533.06 781,-451.5 781,-451.5 781,-451.5 781,-156 781,-138.71 781,-119.89 781,-102.81"/>
<polygon fill="none" stroke="#404040" points="781,-102.72 777,-96.72 781,-90.72 785,-96.72 781,-102.72"/>
<text text-anchor="middle" x="828.5" y="-271.5" font-family="Helvetica,sans-Serif" font-size="10.00"> +ClassDefaultObject</text>
</g>
<!-- Node14 -->
<g id="node14" class="node">
<title>Node14</title>
<g id="a_node14"><a xlink:href="../../de/dd6/classSDK_1_1UField.html" target="_top" xlink:title=" ">
<polygon fill="white" stroke="black" points="620.5,-422 620.5,-479 703.5,-479 703.5,-422 620.5,-422"/>
<text text-anchor="middle" x="662" y="-467" font-family="Helvetica,sans-Serif" font-size="10.00">SDK::UField</text>
<polyline fill="none" stroke="black" points="620.5,-460 703.5,-460 "/>
<text text-anchor="middle" x="662" y="-448" font-family="Helvetica,sans-Serif" font-size="10.00"> </text>
<polyline fill="none" stroke="black" points="620.5,-441 703.5,-441 "/>
<text text-anchor="start" x="628.5" y="-429" font-family="Helvetica,sans-Serif" font-size="10.00">+ StaticClass()</text>
</a>
</g>
</g>
<!-- Node3&#45;&gt;Node14 -->
<g id="edge17" class="edge">
<title>Node3&#45;&gt;Node14</title>
<path fill="none" stroke="midnightblue" d="M670.25,-679.25C667.61,-606.31 664.55,-521.9 663,-479.24"/>
<polygon fill="none" stroke="midnightblue" points="666.76,-679.59 670.62,-689.46 673.75,-679.34 666.76,-679.59"/>
</g>
<!-- Node4 -->
<g id="node4" class="node">
<title>Node4</title>
<g id="a_node4"><a xlink:href="../../d0/d22/structSDK_1_1FQWord.html" target="_top" xlink:title=" ">
<polygon fill="white" stroke="black" points="862,-1100 862,-1168 942,-1168 942,-1100 862,-1100"/>
<text text-anchor="middle" x="902" y="-1156" font-family="Helvetica,sans-Serif" font-size="10.00">SDK::FQWord</text>
<polyline fill="none" stroke="black" points="862,-1149 942,-1149 "/>
<text text-anchor="start" x="870" y="-1137" font-family="Helvetica,sans-Serif" font-size="10.00">+ A</text>
<text text-anchor="start" x="870" y="-1126" font-family="Helvetica,sans-Serif" font-size="10.00">+ B</text>
<polyline fill="none" stroke="black" points="862,-1119 942,-1119 "/>
<text text-anchor="middle" x="902" y="-1107" font-family="Helvetica,sans-Serif" font-size="10.00"> </text>
</a>
</g>
</g>
<!-- Node4&#45;&gt;Node3 -->
<g id="edge3" class="edge">
<title>Node4&#45;&gt;Node3</title>
<path fill="none" stroke="#404040" d="M895.03,-1099.96C885.84,-1061.8 866.98,-998.33 835,-952 820.54,-931.05 802.24,-911.26 783.22,-893.51"/>
<polygon fill="none" stroke="#404040" points="783.01,-893.32 775.88,-892.24 774.14,-885.24 781.27,-886.32 783.01,-893.32"/>
<text text-anchor="middle" x="912" y="-1000.5" font-family="Helvetica,sans-Serif" font-size="10.00"> +ObjectFlags</text>
</g>
<!-- Node5 -->
<g id="node5" class="node">
<title>Node5</title>
<g id="a_node5"><a xlink:href="../../d0/db6/structSDK_1_1FName.html" target="_top" xlink:title=" ">
<polygon fill="white" stroke="black" points="621.5,-1072.5 621.5,-1195.5 728.5,-1195.5 728.5,-1072.5 621.5,-1072.5"/>
<text text-anchor="middle" x="675" y="-1183.5" font-family="Helvetica,sans-Serif" font-size="10.00">SDK::FName</text>
<polyline fill="none" stroke="black" points="621.5,-1176.5 728.5,-1176.5 "/>
<text text-anchor="start" x="629.5" y="-1164.5" font-family="Helvetica,sans-Serif" font-size="10.00">+ Index</text>
<text text-anchor="start" x="629.5" y="-1153.5" font-family="Helvetica,sans-Serif" font-size="10.00">+ Number</text>
<polyline fill="none" stroke="black" points="621.5,-1146.5 728.5,-1146.5 "/>
<text text-anchor="start" x="629.5" y="-1134.5" font-family="Helvetica,sans-Serif" font-size="10.00">+ FName()</text>
<text text-anchor="start" x="629.5" y="-1123.5" font-family="Helvetica,sans-Serif" font-size="10.00">+ FName()</text>
<text text-anchor="start" x="629.5" y="-1112.5" font-family="Helvetica,sans-Serif" font-size="10.00">+ FName()</text>
<text text-anchor="start" x="629.5" y="-1101.5" font-family="Helvetica,sans-Serif" font-size="10.00">+ GetName()</text>
<text text-anchor="start" x="629.5" y="-1090.5" font-family="Helvetica,sans-Serif" font-size="10.00">+ operator==()</text>
<text text-anchor="start" x="629.5" y="-1079.5" font-family="Helvetica,sans-Serif" font-size="10.00">+ GetGlobalNames()</text>
</a>
</g>
</g>
<!-- Node5&#45;&gt;Node3 -->
<g id="edge4" class="edge">
<title>Node5&#45;&gt;Node3</title>
<path fill="none" stroke="#404040" d="M675,-1072.34C675,-1036.52 675,-989.69 675,-945.67"/>
<polygon fill="none" stroke="#404040" points="675,-945.65 671,-939.65 675,-933.65 679,-939.65 675,-945.65"/>
<text text-anchor="middle" x="693" y="-1000.5" font-family="Helvetica,sans-Serif" font-size="10.00"> +Name</text>
</g>
<!-- Node6 -->
<g id="node6" class="node">
<title>Node6</title>
<g id="a_node6"><a xlink:href="../../d3/d79/classSDK_1_1TArray.html" target="_top" xlink:title=" ">
<polygon fill="white" stroke="black" points="585,-1249 585,-1383 765,-1383 765,-1249 585,-1249"/>
<text text-anchor="middle" x="675" y="-1371" font-family="Helvetica,sans-Serif" font-size="10.00">SDK::TArray&lt; SDK::FNameEntry * &gt;</text>
<polyline fill="none" stroke="black" points="585,-1364 765,-1364 "/>
<text text-anchor="start" x="593" y="-1352" font-family="Helvetica,sans-Serif" font-size="10.00">&#45; Count</text>
<text text-anchor="start" x="593" y="-1341" font-family="Helvetica,sans-Serif" font-size="10.00">&#45; Max</text>
<polyline fill="none" stroke="black" points="585,-1334 765,-1334 "/>
<text text-anchor="start" x="593" y="-1322" font-family="Helvetica,sans-Serif" font-size="10.00">+ TArray()</text>
<text text-anchor="start" x="593" y="-1311" font-family="Helvetica,sans-Serif" font-size="10.00">+ Num()</text>
<text text-anchor="start" x="593" y="-1300" font-family="Helvetica,sans-Serif" font-size="10.00">+ operator[]()</text>
<text text-anchor="start" x="593" y="-1289" font-family="Helvetica,sans-Serif" font-size="10.00">+ operator[]()</text>
<text text-anchor="start" x="593" y="-1278" font-family="Helvetica,sans-Serif" font-size="10.00">+ IsValidIndex()</text>
<text text-anchor="start" x="593" y="-1267" font-family="Helvetica,sans-Serif" font-size="10.00">+ GetByIndex()</text>
<text text-anchor="start" x="593" y="-1256" font-family="Helvetica,sans-Serif" font-size="10.00">+ GetByIndex()</text>
</a>
</g>
</g>
<!-- Node6&#45;&gt;Node5 -->
<g id="edge5" class="edge">
<title>Node6&#45;&gt;Node5</title>
<path fill="none" stroke="#404040" d="M675,-1249C675,-1235.63 675,-1221.5 675,-1207.91"/>
<polygon fill="none" stroke="#404040" points="675,-1207.62 671,-1201.62 675,-1195.62 679,-1201.62 675,-1207.62"/>
<text text-anchor="middle" x="699.5" y="-1217" font-family="Helvetica,sans-Serif" font-size="10.00"> +GNames</text>
</g>
<!-- Node7 -->
<g id="node7" class="node">
<title>Node7</title>
<g id="a_node7"><a xlink:href="../../d7/ddf/classSDK_1_1FNameEntry.html" target="_top" xlink:title=" ">
<polygon fill="white" stroke="black" points="629.5,-1475 629.5,-1543 728.5,-1543 728.5,-1475 629.5,-1475"/>
<text text-anchor="middle" x="679" y="-1531" font-family="Helvetica,sans-Serif" font-size="10.00">SDK::FNameEntry</text>
<polyline fill="none" stroke="black" points="629.5,-1524 728.5,-1524 "/>
<text text-anchor="start" x="637.5" y="-1512" font-family="Helvetica,sans-Serif" font-size="10.00">+ UnknownData00</text>
<text text-anchor="start" x="637.5" y="-1501" font-family="Helvetica,sans-Serif" font-size="10.00">+ name</text>
<polyline fill="none" stroke="black" points="629.5,-1494 728.5,-1494 "/>
<text text-anchor="start" x="637.5" y="-1482" font-family="Helvetica,sans-Serif" font-size="10.00">+ GetName()</text>
</a>
</g>
</g>
<!-- Node7&#45;&gt;Node6 -->
<g id="edge6" class="edge">
<title>Node7&#45;&gt;Node6</title>
<path fill="none" stroke="#404040" d="M678.3,-1474.73C677.84,-1452.76 677.22,-1423 676.64,-1395.25"/>
<polygon fill="none" stroke="#404040" points="676.64,-1395.1 672.51,-1389.18 676.38,-1383.1 680.51,-1389.01 676.64,-1395.1"/>
<text text-anchor="middle" x="691" y="-1410" font-family="Helvetica,sans-Serif" font-size="10.00"> &#45;Data</text>
</g>
<!-- Node8 -->
<g id="node8" class="node">
<title>Node8</title>
<g id="a_node8"><a xlink:href="../../d3/d79/classSDK_1_1TArray.html" target="_top" xlink:title=" ">
<polygon fill="white" stroke="black" points="463.5,-1436.5 463.5,-1581.5 560.5,-1581.5 560.5,-1436.5 463.5,-1436.5"/>
<text text-anchor="middle" x="512" y="-1569.5" font-family="Helvetica,sans-Serif" font-size="10.00">SDK::TArray&lt; T &gt;</text>
<polyline fill="none" stroke="black" points="463.5,-1562.5 560.5,-1562.5 "/>
<text text-anchor="start" x="471.5" y="-1550.5" font-family="Helvetica,sans-Serif" font-size="10.00">&#45; Data</text>
<text text-anchor="start" x="471.5" y="-1539.5" font-family="Helvetica,sans-Serif" font-size="10.00">&#45; Count</text>
<text text-anchor="start" x="471.5" y="-1528.5" font-family="Helvetica,sans-Serif" font-size="10.00">&#45; Max</text>
<polyline fill="none" stroke="black" points="463.5,-1521.5 560.5,-1521.5 "/>
<text text-anchor="start" x="471.5" y="-1509.5" font-family="Helvetica,sans-Serif" font-size="10.00">+ TArray()</text>
<text text-anchor="start" x="471.5" y="-1498.5" font-family="Helvetica,sans-Serif" font-size="10.00">+ Num()</text>
<text text-anchor="start" x="471.5" y="-1487.5" font-family="Helvetica,sans-Serif" font-size="10.00">+ operator[]()</text>
<text text-anchor="start" x="471.5" y="-1476.5" font-family="Helvetica,sans-Serif" font-size="10.00">+ operator[]()</text>
<text text-anchor="start" x="471.5" y="-1465.5" font-family="Helvetica,sans-Serif" font-size="10.00">+ IsValidIndex()</text>
<text text-anchor="start" x="471.5" y="-1454.5" font-family="Helvetica,sans-Serif" font-size="10.00">+ GetByIndex()</text>
<text text-anchor="start" x="471.5" y="-1443.5" font-family="Helvetica,sans-Serif" font-size="10.00">+ GetByIndex()</text>
</a>
</g>
</g>
<!-- Node8&#45;&gt;Node6 -->
<g id="edge7" class="edge">
<title>Node8&#45;&gt;Node6</title>
<path fill="none" stroke="orange" d="M547.86,-1427.22C552.23,-1420.12 556.95,-1413.26 562,-1407 568.85,-1398.51 576.64,-1390.31 584.84,-1382.54"/>
<polygon fill="orange" stroke="orange" points="544.57,-1425.92 542.53,-1436.32 550.6,-1429.46 544.57,-1425.92"/>
<text text-anchor="middle" x="617.5" y="-1410" font-family="Helvetica,sans-Serif" font-size="10.00"> &lt; SDK::FNameEntry * &gt;</text>
</g>
<!-- Node8&#45;&gt;Node9 -->
<g id="edge11" class="edge">
<title>Node8&#45;&gt;Node9</title>
<path fill="none" stroke="orange" d="M512,-1426.06C512,-1392.29 512,-1352.76 512,-1317 512,-1317 512,-1317 512,-810.5 512,-708.25 516.1,-589.67 519.05,-517.65"/>
<polygon fill="orange" stroke="orange" points="508.5,-1426.35 512,-1436.35 515.5,-1426.35 508.5,-1426.35"/>
<text text-anchor="middle" x="557.5" y="-1131.5" font-family="Helvetica,sans-Serif" font-size="10.00"> &lt; SDK::UObject * &gt;</text>
</g>
<!-- Node18 -->
<g id="node18" class="node">
<title>Node18</title>
<g id="a_node18"><a xlink:href="../../d3/d79/classSDK_1_1TArray.html" target="_top" xlink:title=" ">
<polygon fill="white" stroke="black" points="358.5,-1243.5 358.5,-1388.5 483.5,-1388.5 483.5,-1243.5 358.5,-1243.5"/>
<text text-anchor="middle" x="421" y="-1376.5" font-family="Helvetica,sans-Serif" font-size="10.00">SDK::TArray&lt; wchar_t &gt;</text>
<polyline fill="none" stroke="black" points="358.5,-1369.5 483.5,-1369.5 "/>
<text text-anchor="start" x="366.5" y="-1357.5" font-family="Helvetica,sans-Serif" font-size="10.00">&#45; Data</text>
<text text-anchor="start" x="366.5" y="-1346.5" font-family="Helvetica,sans-Serif" font-size="10.00">&#45; Count</text>
<text text-anchor="start" x="366.5" y="-1335.5" font-family="Helvetica,sans-Serif" font-size="10.00">&#45; Max</text>
<polyline fill="none" stroke="black" points="358.5,-1328.5 483.5,-1328.5 "/>
<text text-anchor="start" x="366.5" y="-1316.5" font-family="Helvetica,sans-Serif" font-size="10.00">+ TArray()</text>
<text text-anchor="start" x="366.5" y="-1305.5" font-family="Helvetica,sans-Serif" font-size="10.00">+ Num()</text>
<text text-anchor="start" x="366.5" y="-1294.5" font-family="Helvetica,sans-Serif" font-size="10.00">+ operator[]()</text>
<text text-anchor="start" x="366.5" y="-1283.5" font-family="Helvetica,sans-Serif" font-size="10.00">+ operator[]()</text>
<text text-anchor="start" x="366.5" y="-1272.5" font-family="Helvetica,sans-Serif" font-size="10.00">+ IsValidIndex()</text>
<text text-anchor="start" x="366.5" y="-1261.5" font-family="Helvetica,sans-Serif" font-size="10.00">+ GetByIndex()</text>
<text text-anchor="start" x="366.5" y="-1250.5" font-family="Helvetica,sans-Serif" font-size="10.00">+ GetByIndex()</text>
</a>
</g>
</g>
<!-- Node8&#45;&gt;Node18 -->
<g id="edge25" class="edge">
<title>Node8&#45;&gt;Node18</title>
<path fill="none" stroke="orange" d="M457.56,-1445.19C451.67,-1436.44 446.28,-1427.26 442,-1418 437.75,-1408.81 434.36,-1398.76 431.65,-1388.68"/>
<polygon fill="orange" stroke="orange" points="454.73,-1447.26 463.33,-1453.44 460.47,-1443.24 454.73,-1447.26"/>
<text text-anchor="middle" x="470" y="-1410" font-family="Helvetica,sans-Serif" font-size="10.00"> &lt; wchar_t &gt;</text>
</g>
<!-- Node9&#45;&gt;Node3 -->
<g id="edge9" class="edge">
<title>Node9&#45;&gt;Node3</title>
<path fill="none" stroke="#404040" d="M527.52,-517.57C532.81,-572 541.81,-644.39 554,-671 558.32,-680.42 563.47,-689.69 569.19,-698.69"/>
<polygon fill="none" stroke="#404040" points="569.22,-698.74 575.88,-701.53 575.87,-708.74 569.21,-705.96 569.22,-698.74"/>
<text text-anchor="middle" x="579.5" y="-601" font-family="Helvetica,sans-Serif" font-size="10.00"> +GObjects</text>
</g>
<!-- Node10 -->
<g id="node10" class="node">
<title>Node10</title>
<g id="a_node10"><a xlink:href="../../d9/dfa/structSDK_1_1FPointer.html" target="_top" xlink:title=" ">
<polygon fill="white" stroke="black" points="746,-1100 746,-1168 844,-1168 844,-1100 746,-1100"/>
<text text-anchor="middle" x="795" y="-1156" font-family="Helvetica,sans-Serif" font-size="10.00">SDK::FPointer</text>
<polyline fill="none" stroke="black" points="746,-1149 844,-1149 "/>
<text text-anchor="start" x="754" y="-1137" font-family="Helvetica,sans-Serif" font-size="10.00">+ Dummy</text>
<text text-anchor="start" x="754" y="-1126" font-family="Helvetica,sans-Serif" font-size="10.00">+ UnknownData00</text>
<polyline fill="none" stroke="black" points="746,-1119 844,-1119 "/>
<text text-anchor="middle" x="795" y="-1107" font-family="Helvetica,sans-Serif" font-size="10.00"> </text>
</a>
</g>
</g>
<!-- Node10&#45;&gt;Node3 -->
<g id="edge12" class="edge">
<title>Node10&#45;&gt;Node3</title>
<path fill="none" stroke="#404040" d="M782.61,-1099.91C768.88,-1063.25 745.88,-1001.81 724.66,-945.12"/>
<polygon fill="none" stroke="#404040" points="724.65,-945.1 718.8,-940.88 720.44,-933.86 726.29,-938.07 724.65,-945.1"/>
<text text-anchor="middle" x="796.5" y="-1011.5" font-family="Helvetica,sans-Serif" font-size="10.00"> +StateFrame</text>
<text text-anchor="middle" x="796.5" y="-1000.5" font-family="Helvetica,sans-Serif" font-size="10.00">+VfTableObject</text>
<text text-anchor="middle" x="796.5" y="-989.5" font-family="Helvetica,sans-Serif" font-size="10.00">+LinkerIndex</text>
</g>
<!-- Node11&#45;&gt;Node3 -->
<g id="edge13" class="edge">
<title>Node11&#45;&gt;Node3</title>
<path fill="none" stroke="#404040" d="M841.52,-70.14C875.84,-87.93 912,-116.13 912,-156 912,-451.5 912,-451.5 912,-451.5 912,-552.99 845.21,-647.9 782.55,-714.61"/>
<polygon fill="none" stroke="#404040" points="782.42,-714.74 781.17,-721.84 774.14,-723.42 775.38,-716.32 782.42,-714.74"/>
<text text-anchor="middle" x="929.5" y="-271.5" font-family="Helvetica,sans-Serif" font-size="10.00"> +Class</text>
</g>
<!-- Node12 -->
<g id="node12" class="node">
<title>Node12</title>
<g id="a_node12"><a xlink:href="../../df/d72/classSDK_1_1UState.html" target="_top" xlink:title=" ">
<polygon fill="white" stroke="black" points="653,-128.5 653,-185.5 751,-185.5 751,-128.5 653,-128.5"/>
<text text-anchor="middle" x="702" y="-173.5" font-family="Helvetica,sans-Serif" font-size="10.00">SDK::UState</text>
<polyline fill="none" stroke="black" points="653,-166.5 751,-166.5 "/>
<text text-anchor="start" x="661" y="-154.5" font-family="Helvetica,sans-Serif" font-size="10.00">+ UnknownData00</text>
<polyline fill="none" stroke="black" points="653,-147.5 751,-147.5 "/>
<text text-anchor="start" x="661" y="-135.5" font-family="Helvetica,sans-Serif" font-size="10.00">+ StaticClass()</text>
</a>
</g>
</g>
<!-- Node12&#45;&gt;Node11 -->
<g id="edge14" class="edge">
<title>Node12&#45;&gt;Node11</title>
<path fill="none" stroke="midnightblue" d="M727.94,-120.04C734.7,-110.68 742.06,-100.48 749.08,-90.74"/>
<polygon fill="none" stroke="midnightblue" points="724.95,-118.21 721.94,-128.37 730.62,-122.31 724.95,-118.21"/>
</g>
<!-- Node13 -->
<g id="node13" class="node">
<title>Node13</title>
<g id="a_node13"><a xlink:href="../../d8/de9/classSDK_1_1UStruct.html" target="_top" xlink:title=" ">
<polygon fill="white" stroke="black" points="647,-234.5 647,-313.5 745,-313.5 745,-234.5 647,-234.5"/>
<text text-anchor="middle" x="696" y="-301.5" font-family="Helvetica,sans-Serif" font-size="10.00">SDK::UStruct</text>
<polyline fill="none" stroke="black" points="647,-294.5 745,-294.5 "/>
<text text-anchor="start" x="655" y="-282.5" font-family="Helvetica,sans-Serif" font-size="10.00">+ UnknownData00</text>
<text text-anchor="start" x="655" y="-271.5" font-family="Helvetica,sans-Serif" font-size="10.00">+ PropertySize</text>
<text text-anchor="start" x="655" y="-260.5" font-family="Helvetica,sans-Serif" font-size="10.00">+ UnknownData01</text>
<polyline fill="none" stroke="black" points="647,-253.5 745,-253.5 "/>
<text text-anchor="start" x="655" y="-241.5" font-family="Helvetica,sans-Serif" font-size="10.00">+ StaticClass()</text>
</a>
</g>
</g>
<!-- Node13&#45;&gt;Node12 -->
<g id="edge15" class="edge">
<title>Node13&#45;&gt;Node12</title>
<path fill="none" stroke="midnightblue" d="M698.55,-224.07C699.24,-210.99 699.95,-197.3 700.55,-185.79"/>
<polygon fill="none" stroke="midnightblue" points="695.04,-224.22 698.01,-234.39 702.03,-224.58 695.04,-224.22"/>
</g>
<!-- Node14&#45;&gt;Node13 -->
<g id="edge16" class="edge">
<title>Node14&#45;&gt;Node13</title>
<path fill="none" stroke="midnightblue" d="M682.53,-412.88C689.54,-398.43 696.49,-381.38 700,-365 703.54,-348.48 703.38,-329.89 702.02,-313.9"/>
<polygon fill="none" stroke="midnightblue" points="679.33,-411.46 677.96,-421.97 685.58,-414.61 679.33,-411.46"/>
</g>
<!-- Node14&#45;&gt;Node13 -->
<g id="edge19" class="edge">
<title>Node14&#45;&gt;Node13</title>
<path fill="none" stroke="#404040" d="M648.15,-421.78C639.16,-399.94 630.69,-368.95 640,-343 642.38,-336.36 645.72,-329.91 649.6,-323.78"/>
<polygon fill="none" stroke="#404040" points="649.69,-323.66 649.84,-316.45 656.56,-313.83 656.4,-321.04 649.69,-323.66"/>
<text text-anchor="middle" x="668" y="-357" font-family="Helvetica,sans-Serif" font-size="10.00"> +SuperField</text>
<text text-anchor="middle" x="668" y="-346" font-family="Helvetica,sans-Serif" font-size="10.00">+Children</text>
</g>
<!-- Node14&#45;&gt;Node14 -->
<g id="edge18" class="edge">
<title>Node14&#45;&gt;Node14</title>
<path fill="none" stroke="#404040" d="M703.71,-468.22C713.91,-466.91 721.5,-461 721.5,-450.5 721.5,-444.59 719.1,-440.14 715.18,-437.14"/>
<polygon fill="none" stroke="#404040" points="714.92,-437.04 707.89,-438.65 703.71,-432.78 710.73,-431.17 714.92,-437.04"/>
<text text-anchor="middle" x="737" y="-448" font-family="Helvetica,sans-Serif" font-size="10.00"> +Next</text>
</g>
<!-- Node15 -->
<g id="node15" class="node">
<title>Node15</title>
<g id="a_node15"><a xlink:href="../../df/d1c/classSDK_1_1TEnumAsByte.html" target="_top" xlink:title=" ">
<polygon fill="white" stroke="black" points="157,-744.5 157,-878.5 329,-878.5 329,-744.5 157,-744.5"/>
<text text-anchor="start" x="165" y="-866.5" font-family="Helvetica,sans-Serif" font-size="10.00">SDK::TEnumAsByte&lt; EAnimation</text>
<text text-anchor="middle" x="243" y="-855.5" font-family="Helvetica,sans-Serif" font-size="10.00">CompressionFormat &gt;</text>
<polyline fill="none" stroke="black" points="157,-848.5 329,-848.5 "/>
<text text-anchor="start" x="165" y="-836.5" font-family="Helvetica,sans-Serif" font-size="10.00">&#45; value</text>
<polyline fill="none" stroke="black" points="157,-829.5 329,-829.5 "/>
<text text-anchor="start" x="165" y="-817.5" font-family="Helvetica,sans-Serif" font-size="10.00">+ TEnumAsByte()</text>
<text text-anchor="start" x="165" y="-806.5" font-family="Helvetica,sans-Serif" font-size="10.00">+ TEnumAsByte()</text>
<text text-anchor="start" x="165" y="-795.5" font-family="Helvetica,sans-Serif" font-size="10.00">+ TEnumAsByte()</text>
<text text-anchor="start" x="165" y="-784.5" font-family="Helvetica,sans-Serif" font-size="10.00">+ TEnumAsByte()</text>
<text text-anchor="start" x="165" y="-773.5" font-family="Helvetica,sans-Serif" font-size="10.00">+ operator EAnimationCompression</text>
<text text-anchor="start" x="165" y="-762.5" font-family="Helvetica,sans-Serif" font-size="10.00">Format()</text>
<text text-anchor="start" x="165" y="-751.5" font-family="Helvetica,sans-Serif" font-size="10.00">+ GetValue()</text>
</a>
</g>
</g>
<!-- Node15&#45;&gt;Node2 -->
<g id="edge21" class="edge">
<title>Node15&#45;&gt;Node2</title>
<path fill="none" stroke="#404040" d="M235.14,-744.36C231.02,-687.05 231.54,-603.04 259,-536 265.24,-520.76 275.42,-506.37 286.26,-493.94"/>
<polygon fill="none" stroke="#404040" points="286.51,-493.67 287.62,-486.55 294.62,-484.83 293.51,-491.96 286.51,-493.67"/>
<text text-anchor="middle" x="332" y="-612" font-family="Helvetica,sans-Serif" font-size="10.00"> +TranslationCompressionFormat</text>
<text text-anchor="middle" x="332" y="-601" font-family="Helvetica,sans-Serif" font-size="10.00">+RotationCompressionFormat</text>
<text text-anchor="middle" x="332" y="-590" font-family="Helvetica,sans-Serif" font-size="10.00">+ScaleCompressionFormat</text>
</g>
<!-- Node16 -->
<g id="node16" class="node">
<title>Node16</title>
<g id="a_node16"><a xlink:href="../../df/d1c/classSDK_1_1TEnumAsByte.html" target="_top" xlink:title=" ">
<polygon fill="white" stroke="black" points="85.5,-1078 85.5,-1190 242.5,-1190 242.5,-1078 85.5,-1078"/>
<text text-anchor="middle" x="164" y="-1178" font-family="Helvetica,sans-Serif" font-size="10.00">SDK::TEnumAsByte&lt; TEnum &gt;</text>
<polyline fill="none" stroke="black" points="85.5,-1171 242.5,-1171 "/>
<text text-anchor="start" x="93.5" y="-1159" font-family="Helvetica,sans-Serif" font-size="10.00">&#45; value</text>
<polyline fill="none" stroke="black" points="85.5,-1152 242.5,-1152 "/>
<text text-anchor="start" x="93.5" y="-1140" font-family="Helvetica,sans-Serif" font-size="10.00">+ TEnumAsByte()</text>
<text text-anchor="start" x="93.5" y="-1129" font-family="Helvetica,sans-Serif" font-size="10.00">+ TEnumAsByte()</text>
<text text-anchor="start" x="93.5" y="-1118" font-family="Helvetica,sans-Serif" font-size="10.00">+ TEnumAsByte()</text>
<text text-anchor="start" x="93.5" y="-1107" font-family="Helvetica,sans-Serif" font-size="10.00">+ TEnumAsByte()</text>
<text text-anchor="start" x="93.5" y="-1096" font-family="Helvetica,sans-Serif" font-size="10.00">+ operator TEnum()</text>
<text text-anchor="start" x="93.5" y="-1085" font-family="Helvetica,sans-Serif" font-size="10.00">+ GetValue()</text>
</a>
</g>
</g>
<!-- Node16&#45;&gt;Node15 -->
<g id="edge22" class="edge">
<title>Node16&#45;&gt;Node15</title>
<path fill="none" stroke="orange" d="M211.36,-1069.09C213.88,-1064.12 216.14,-1059.07 218,-1054 229.41,-1022.88 236.23,-938.87 239.8,-878.69"/>
<polygon fill="orange" stroke="orange" points="208.27,-1067.45 206.56,-1077.91 214.41,-1070.8 208.27,-1067.45"/>
<text text-anchor="middle" x="315" y="-1000.5" font-family="Helvetica,sans-Serif" font-size="10.00"> &lt; EAnimationCompressionFormat &gt;</text>
</g>
<!-- Node19 -->
<g id="node19" class="node">
<title>Node19</title>
<g id="a_node19"><a xlink:href="../../df/d1c/classSDK_1_1TEnumAsByte.html" target="_top" xlink:title=" ">
<polygon fill="white" stroke="black" points="0,-536.5 0,-670.5 200,-670.5 200,-536.5 0,-536.5"/>
<text text-anchor="start" x="8" y="-658.5" font-family="Helvetica,sans-Serif" font-size="10.00">SDK::TEnumAsByte&lt; EACLCompression</text>
<text text-anchor="middle" x="100" y="-647.5" font-family="Helvetica,sans-Serif" font-size="10.00">Level &gt;</text>
<polyline fill="none" stroke="black" points="0,-640.5 200,-640.5 "/>
<text text-anchor="start" x="8" y="-628.5" font-family="Helvetica,sans-Serif" font-size="10.00">&#45; value</text>
<polyline fill="none" stroke="black" points="0,-621.5 200,-621.5 "/>
<text text-anchor="start" x="8" y="-609.5" font-family="Helvetica,sans-Serif" font-size="10.00">+ TEnumAsByte()</text>
<text text-anchor="start" x="8" y="-598.5" font-family="Helvetica,sans-Serif" font-size="10.00">+ TEnumAsByte()</text>
<text text-anchor="start" x="8" y="-587.5" font-family="Helvetica,sans-Serif" font-size="10.00">+ TEnumAsByte()</text>
<text text-anchor="start" x="8" y="-576.5" font-family="Helvetica,sans-Serif" font-size="10.00">+ TEnumAsByte()</text>
<text text-anchor="start" x="8" y="-565.5" font-family="Helvetica,sans-Serif" font-size="10.00">+ operator EACLCompression</text>
<text text-anchor="start" x="8" y="-554.5" font-family="Helvetica,sans-Serif" font-size="10.00">Level()</text>
<text text-anchor="start" x="8" y="-543.5" font-family="Helvetica,sans-Serif" font-size="10.00">+ GetValue()</text>
</a>
</g>
</g>
<!-- Node16&#45;&gt;Node19 -->
<g id="edge27" class="edge">
<title>Node16&#45;&gt;Node19</title>
<path fill="none" stroke="orange" d="M93.24,-1069.62C90.04,-1064.61 87.23,-1059.4 85,-1054 32.26,-926.68 59.37,-761.25 81.3,-670.79"/>
<polygon fill="orange" stroke="orange" points="90.39,-1071.66 98.99,-1077.85 96.13,-1067.65 90.39,-1071.66"/>
<text text-anchor="middle" x="149.5" y="-1000.5" font-family="Helvetica,sans-Serif" font-size="10.00"> &lt; EACLCompressionLevel &gt;</text>
</g>
<!-- Node17 -->
<g id="node17" class="node">
<title>Node17</title>
<g id="a_node17"><a xlink:href="../../d3/d88/classSDK_1_1FString.html" target="_top" xlink:title=" ">
<polygon fill="white" stroke="black" points="405.5,-952.5 405.5,-1053.5 480.5,-1053.5 480.5,-952.5 405.5,-952.5"/>
<text text-anchor="middle" x="443" y="-1041.5" font-family="Helvetica,sans-Serif" font-size="10.00">SDK::FString</text>
<polyline fill="none" stroke="black" points="405.5,-1034.5 480.5,-1034.5 "/>
<text text-anchor="middle" x="443" y="-1022.5" font-family="Helvetica,sans-Serif" font-size="10.00"> </text>
<polyline fill="none" stroke="black" points="405.5,-1015.5 480.5,-1015.5 "/>
<text text-anchor="start" x="413.5" y="-1003.5" font-family="Helvetica,sans-Serif" font-size="10.00">+ FString()</text>
<text text-anchor="start" x="413.5" y="-992.5" font-family="Helvetica,sans-Serif" font-size="10.00">+ FString()</text>
<text text-anchor="start" x="413.5" y="-981.5" font-family="Helvetica,sans-Serif" font-size="10.00">+ IsValid()</text>
<text text-anchor="start" x="413.5" y="-970.5" font-family="Helvetica,sans-Serif" font-size="10.00">+ c_str()</text>
<text text-anchor="start" x="413.5" y="-959.5" font-family="Helvetica,sans-Serif" font-size="10.00">+ ToString()</text>
</a>
</g>
</g>
<!-- Node17&#45;&gt;Node2 -->
<g id="edge23" class="edge">
<title>Node17&#45;&gt;Node2</title>
<path fill="none" stroke="#404040" d="M439.78,-952.37C432.12,-836.2 412.89,-555 405,-536 398.7,-520.82 388.61,-506.38 377.95,-493.87"/>
<polygon fill="none" stroke="#404040" points="377.75,-493.64 370.76,-491.84 369.74,-484.7 376.73,-486.5 377.75,-493.64"/>
<text text-anchor="middle" x="467.5" y="-809" font-family="Helvetica,sans-Serif" font-size="10.00"> +Description</text>
</g>
<!-- Node18&#45;&gt;Node17 -->
<g id="edge24" class="edge">
<title>Node18&#45;&gt;Node17</title>
<path fill="none" stroke="midnightblue" d="M426.79,-1233.18C430.82,-1176.13 436.08,-1101.87 439.49,-1053.58"/>
<polygon fill="none" stroke="midnightblue" points="423.29,-1233.04 426.07,-1243.26 430.27,-1233.53 423.29,-1233.04"/>
</g>
<!-- Node19&#45;&gt;Node1 -->
<g id="edge26" class="edge">
<title>Node19&#45;&gt;Node1</title>
<path fill="none" stroke="#404040" d="M116.8,-536.23C131.61,-477.77 153.03,-393.26 167.46,-336.33"/>
<polygon fill="none" stroke="#404040" points="167.48,-336.26 165.07,-329.46 170.42,-324.62 172.83,-331.42 167.48,-336.26"/>
<text text-anchor="middle" x="201.5" y="-448" font-family="Helvetica,sans-Serif" font-size="10.00"> +CompressionLevel</text>
</g>
</g>
</svg>
