<?xml version="1.0" encoding="UTF-8" standalone="no"?>
<!DOCTYPE svg PUBLIC "-//W3C//DTD SVG 1.1//EN"
 "http://www.w3.org/Graphics/SVG/1.1/DTD/svg11.dtd">
<!-- Generated by graphviz version 2.41.20171026.1811 (20171026.1811)
 -->
<!-- Title: SDK::UParticleModuleRotationRateBase Pages: 1 -->
<svg width="826pt" height="937pt"
 viewBox="0.00 0.00 826.00 937.00" xmlns="http://www.w3.org/2000/svg" xmlns:xlink="http://www.w3.org/1999/xlink">
<g id="graph0" class="graph" transform="scale(1 1) rotate(0) translate(4 933)">
<title>SDK::UParticleModuleRotationRateBase</title>
<polygon fill="white" stroke="transparent" points="-4,4 -4,-933 822,-933 822,4 -4,4"/>
<!-- Node1 -->
<g id="node1" class="node">
<title>Node1</title>
<g id="a_node1"><a xlink:title=" ">
<polygon fill="#bfbfbf" stroke="black" points="310,-221.5 310,-289.5 462,-289.5 462,-221.5 310,-221.5"/>
<text text-anchor="start" x="318" y="-277.5" font-family="Helvetica,sans-Serif" font-size="10.00">SDK::UParticleModuleRotation</text>
<text text-anchor="middle" x="386" y="-266.5" font-family="Helvetica,sans-Serif" font-size="10.00">RateBase</text>
<polyline fill="none" stroke="black" points="310,-259.5 462,-259.5 "/>
<text text-anchor="middle" x="386" y="-247.5" font-family="Helvetica,sans-Serif" font-size="10.00"> </text>
<polyline fill="none" stroke="black" points="310,-240.5 462,-240.5 "/>
<text text-anchor="start" x="318" y="-228.5" font-family="Helvetica,sans-Serif" font-size="10.00">+ StaticClass()</text>
</a>
</g>
</g>
<!-- Node4 -->
<g id="node4" class="node">
<title>Node4</title>
<g id="a_node4"><a xlink:href="../../d8/dc5/classSDK_1_1UParticleModuleMeshRotationRate.html" target="_top" xlink:title=" ">
<polygon fill="white" stroke="black" points="0,-111 0,-179 140,-179 140,-111 0,-111"/>
<text text-anchor="start" x="8" y="-167" font-family="Helvetica,sans-Serif" font-size="10.00">SDK::UParticleModuleMesh</text>
<text text-anchor="middle" x="70" y="-156" font-family="Helvetica,sans-Serif" font-size="10.00">RotationRate</text>
<polyline fill="none" stroke="black" points="0,-149 140,-149 "/>
<text text-anchor="start" x="8" y="-137" font-family="Helvetica,sans-Serif" font-size="10.00">+ StartRotationRate</text>
<polyline fill="none" stroke="black" points="0,-130 140,-130 "/>
<text text-anchor="start" x="8" y="-118" font-family="Helvetica,sans-Serif" font-size="10.00">+ StaticClass()</text>
</a>
</g>
</g>
<!-- Node1&#45;&gt;Node4 -->
<g id="edge3" class="edge">
<title>Node1&#45;&gt;Node4</title>
<path fill="none" stroke="midnightblue" d="M300.06,-233.16C254.53,-220.89 198.03,-204.13 149,-185 144.3,-183.17 139.49,-181.16 134.7,-179.05"/>
<polygon fill="none" stroke="midnightblue" points="299.34,-236.59 309.9,-235.78 301.14,-229.82 299.34,-236.59"/>
</g>
<!-- Node6 -->
<g id="node6" class="node">
<title>Node6</title>
<g id="a_node6"><a xlink:href="../../d8/dc0/classSDK_1_1UParticleModuleMeshRotationRateMultiplyLife.html" target="_top" xlink:title=" ">
<polygon fill="white" stroke="black" points="158,-111 158,-179 298,-179 298,-111 158,-111"/>
<text text-anchor="start" x="166" y="-167" font-family="Helvetica,sans-Serif" font-size="10.00">SDK::UParticleModuleMesh</text>
<text text-anchor="middle" x="228" y="-156" font-family="Helvetica,sans-Serif" font-size="10.00">RotationRateMultiplyLife</text>
<polyline fill="none" stroke="black" points="158,-149 298,-149 "/>
<text text-anchor="start" x="166" y="-137" font-family="Helvetica,sans-Serif" font-size="10.00">+ LifeMultiplier</text>
<polyline fill="none" stroke="black" points="158,-130 298,-130 "/>
<text text-anchor="start" x="166" y="-118" font-family="Helvetica,sans-Serif" font-size="10.00">+ StaticClass()</text>
</a>
</g>
</g>
<!-- Node1&#45;&gt;Node6 -->
<g id="edge5" class="edge">
<title>Node1&#45;&gt;Node6</title>
<path fill="none" stroke="midnightblue" d="M329.35,-215.59C311.96,-203.66 293.01,-190.64 276.24,-179.13"/>
<polygon fill="none" stroke="midnightblue" points="327.51,-218.58 337.74,-221.36 331.47,-212.81 327.51,-218.58"/>
</g>
<!-- Node7 -->
<g id="node7" class="node">
<title>Node7</title>
<g id="a_node7"><a xlink:href="../../d7/d98/classSDK_1_1UParticleModuleMeshRotationRateOverLife.html" target="_top" xlink:title=" ">
<polygon fill="white" stroke="black" points="316,-105.5 316,-184.5 456,-184.5 456,-105.5 316,-105.5"/>
<text text-anchor="start" x="324" y="-172.5" font-family="Helvetica,sans-Serif" font-size="10.00">SDK::UParticleModuleMesh</text>
<text text-anchor="middle" x="386" y="-161.5" font-family="Helvetica,sans-Serif" font-size="10.00">RotationRateOverLife</text>
<polyline fill="none" stroke="black" points="316,-154.5 456,-154.5 "/>
<text text-anchor="start" x="324" y="-142.5" font-family="Helvetica,sans-Serif" font-size="10.00">+ RotRate</text>
<text text-anchor="start" x="324" y="-131.5" font-family="Helvetica,sans-Serif" font-size="10.00">+ bScaleRotRate</text>
<polyline fill="none" stroke="black" points="316,-124.5 456,-124.5 "/>
<text text-anchor="start" x="324" y="-112.5" font-family="Helvetica,sans-Serif" font-size="10.00">+ StaticClass()</text>
</a>
</g>
</g>
<!-- Node1&#45;&gt;Node7 -->
<g id="edge6" class="edge">
<title>Node1&#45;&gt;Node7</title>
<path fill="none" stroke="midnightblue" d="M386,-211.27C386,-202.48 386,-193.28 386,-184.65"/>
<polygon fill="none" stroke="midnightblue" points="382.5,-211.36 386,-221.36 389.5,-211.36 382.5,-211.36"/>
</g>
<!-- Node8 -->
<g id="node8" class="node">
<title>Node8</title>
<g id="a_node8"><a xlink:href="../../d6/d4c/classSDK_1_1UParticleModuleRotationRate.html" target="_top" xlink:title=" ">
<polygon fill="white" stroke="black" points="474.5,-116.5 474.5,-173.5 647.5,-173.5 647.5,-116.5 474.5,-116.5"/>
<text text-anchor="middle" x="561" y="-161.5" font-family="Helvetica,sans-Serif" font-size="10.00">SDK::UParticleModuleRotationRate</text>
<polyline fill="none" stroke="black" points="474.5,-154.5 647.5,-154.5 "/>
<text text-anchor="start" x="482.5" y="-142.5" font-family="Helvetica,sans-Serif" font-size="10.00">+ StartRotationRate</text>
<polyline fill="none" stroke="black" points="474.5,-135.5 647.5,-135.5 "/>
<text text-anchor="start" x="482.5" y="-123.5" font-family="Helvetica,sans-Serif" font-size="10.00">+ StaticClass()</text>
</a>
</g>
</g>
<!-- Node1&#45;&gt;Node8 -->
<g id="edge7" class="edge">
<title>Node1&#45;&gt;Node8</title>
<path fill="none" stroke="midnightblue" d="M447.98,-216.08C470.56,-202.07 495.63,-186.53 516.41,-173.65"/>
<polygon fill="none" stroke="midnightblue" points="446.11,-213.11 439.46,-221.36 449.8,-219.06 446.11,-213.11"/>
</g>
<!-- Node10 -->
<g id="node10" class="node">
<title>Node10</title>
<g id="a_node10"><a xlink:href="../../d3/d8a/classSDK_1_1UParticleModuleRotationRateMultiplyLife.html" target="_top" xlink:title=" ">
<polygon fill="white" stroke="black" points="666,-111 666,-179 818,-179 818,-111 666,-111"/>
<text text-anchor="start" x="674" y="-167" font-family="Helvetica,sans-Serif" font-size="10.00">SDK::UParticleModuleRotation</text>
<text text-anchor="middle" x="742" y="-156" font-family="Helvetica,sans-Serif" font-size="10.00">RateMultiplyLife</text>
<polyline fill="none" stroke="black" points="666,-149 818,-149 "/>
<text text-anchor="start" x="674" y="-137" font-family="Helvetica,sans-Serif" font-size="10.00">+ LifeMultiplier</text>
<polyline fill="none" stroke="black" points="666,-130 818,-130 "/>
<text text-anchor="start" x="674" y="-118" font-family="Helvetica,sans-Serif" font-size="10.00">+ StaticClass()</text>
</a>
</g>
</g>
<!-- Node1&#45;&gt;Node10 -->
<g id="edge9" class="edge">
<title>Node1&#45;&gt;Node10</title>
<path fill="none" stroke="midnightblue" d="M472,-236.59C525.87,-224.36 596.34,-206.5 657,-185 662.05,-183.21 667.21,-181.23 672.37,-179.15"/>
<polygon fill="none" stroke="midnightblue" points="471.13,-233.2 462.14,-238.81 472.67,-240.03 471.13,-233.2"/>
</g>
<!-- Node2 -->
<g id="node2" class="node">
<title>Node2</title>
<g id="a_node2"><a xlink:href="../../d5/df1/classSDK_1_1UParticleModule.html" target="_top" xlink:title=" ">
<polygon fill="white" stroke="black" points="309.5,-326.5 309.5,-537.5 462.5,-537.5 462.5,-326.5 309.5,-326.5"/>
<text text-anchor="middle" x="386" y="-525.5" font-family="Helvetica,sans-Serif" font-size="10.00">SDK::UParticleModule</text>
<polyline fill="none" stroke="black" points="309.5,-518.5 462.5,-518.5 "/>
<text text-anchor="start" x="317.5" y="-506.5" font-family="Helvetica,sans-Serif" font-size="10.00">+ bSpawnModule</text>
<text text-anchor="start" x="317.5" y="-495.5" font-family="Helvetica,sans-Serif" font-size="10.00">+ bUpdateModule</text>
<text text-anchor="start" x="317.5" y="-484.5" font-family="Helvetica,sans-Serif" font-size="10.00">+ bFinalUpdateModule</text>
<text text-anchor="start" x="317.5" y="-473.5" font-family="Helvetica,sans-Serif" font-size="10.00">+ bCurvesAsColor</text>
<text text-anchor="start" x="317.5" y="-462.5" font-family="Helvetica,sans-Serif" font-size="10.00">+ b3DDrawMode</text>
<text text-anchor="start" x="317.5" y="-451.5" font-family="Helvetica,sans-Serif" font-size="10.00">+ EnableToggle3DDrawMode</text>
<text text-anchor="start" x="317.5" y="-440.5" font-family="Helvetica,sans-Serif" font-size="10.00">+ bSupported3DDrawMode</text>
<text text-anchor="start" x="317.5" y="-429.5" font-family="Helvetica,sans-Serif" font-size="10.00">+ bEnabled</text>
<text text-anchor="start" x="317.5" y="-418.5" font-family="Helvetica,sans-Serif" font-size="10.00">+ bEditable</text>
<text text-anchor="start" x="317.5" y="-407.5" font-family="Helvetica,sans-Serif" font-size="10.00">+ LODDuplicate</text>
<text text-anchor="start" x="317.5" y="-396.5" font-family="Helvetica,sans-Serif" font-size="10.00">+ bSupportsRandomSeed</text>
<text text-anchor="start" x="317.5" y="-385.5" font-family="Helvetica,sans-Serif" font-size="10.00">+ bRequiresLoopingNotification</text>
<text text-anchor="start" x="317.5" y="-374.5" font-family="Helvetica,sans-Serif" font-size="10.00">+ LODValidity</text>
<text text-anchor="start" x="317.5" y="-363.5" font-family="Helvetica,sans-Serif" font-size="10.00">+ UnknownData00</text>
<text text-anchor="start" x="317.5" y="-352.5" font-family="Helvetica,sans-Serif" font-size="10.00">+ ModuleEditorColor</text>
<polyline fill="none" stroke="black" points="309.5,-345.5 462.5,-345.5 "/>
<text text-anchor="start" x="317.5" y="-333.5" font-family="Helvetica,sans-Serif" font-size="10.00">+ StaticClass()</text>
</a>
</g>
</g>
<!-- Node2&#45;&gt;Node1 -->
<g id="edge1" class="edge">
<title>Node2&#45;&gt;Node1</title>
<path fill="none" stroke="midnightblue" d="M386,-316.38C386,-306.85 386,-297.81 386,-289.77"/>
<polygon fill="none" stroke="midnightblue" points="382.5,-316.47 386,-326.47 389.5,-316.47 382.5,-316.47"/>
</g>
<!-- Node3 -->
<g id="node3" class="node">
<title>Node3</title>
<g id="a_node3"><a xlink:href="../../d9/d45/classSDK_1_1UObject.html" target="_top" xlink:title=" ">
<polygon fill="white" stroke="black" points="287,-574.5 287,-928.5 485,-928.5 485,-574.5 287,-574.5"/>
<text text-anchor="middle" x="386" y="-916.5" font-family="Helvetica,sans-Serif" font-size="10.00">SDK::UObject</text>
<polyline fill="none" stroke="black" points="287,-909.5 485,-909.5 "/>
<text text-anchor="start" x="295" y="-897.5" font-family="Helvetica,sans-Serif" font-size="10.00">+ VfTableObject</text>
<text text-anchor="start" x="295" y="-886.5" font-family="Helvetica,sans-Serif" font-size="10.00">+ ObjectFlags</text>
<text text-anchor="start" x="295" y="-875.5" font-family="Helvetica,sans-Serif" font-size="10.00">+ StateFrame</text>
<text text-anchor="start" x="295" y="-864.5" font-family="Helvetica,sans-Serif" font-size="10.00">+ Linker</text>
<text text-anchor="start" x="295" y="-853.5" font-family="Helvetica,sans-Serif" font-size="10.00">+ LinkerIndex</text>
<text text-anchor="start" x="295" y="-842.5" font-family="Helvetica,sans-Serif" font-size="10.00">+ ObjectInternalInteger</text>
<text text-anchor="start" x="295" y="-831.5" font-family="Helvetica,sans-Serif" font-size="10.00">+ NetIndex</text>
<text text-anchor="start" x="295" y="-820.5" font-family="Helvetica,sans-Serif" font-size="10.00">+ Outer</text>
<text text-anchor="start" x="295" y="-809.5" font-family="Helvetica,sans-Serif" font-size="10.00">+ Name</text>
<text text-anchor="start" x="295" y="-798.5" font-family="Helvetica,sans-Serif" font-size="10.00">+ Class</text>
<text text-anchor="start" x="295" y="-787.5" font-family="Helvetica,sans-Serif" font-size="10.00">+ ObjectArchetype</text>
<text text-anchor="start" x="295" y="-776.5" font-family="Helvetica,sans-Serif" font-size="10.00">+ GObjects</text>
<polyline fill="none" stroke="black" points="287,-769.5 485,-769.5 "/>
<text text-anchor="start" x="295" y="-757.5" font-family="Helvetica,sans-Serif" font-size="10.00">+ UObject::GetName()</text>
<text text-anchor="start" x="295" y="-746.5" font-family="Helvetica,sans-Serif" font-size="10.00">+ GetFullName()</text>
<text text-anchor="start" x="295" y="-735.5" font-family="Helvetica,sans-Serif" font-size="10.00">+ IsA()</text>
<text text-anchor="start" x="295" y="-724.5" font-family="Helvetica,sans-Serif" font-size="10.00">+ ProcessEvent()</text>
<text text-anchor="start" x="295" y="-713.5" font-family="Helvetica,sans-Serif" font-size="10.00">+ STATIC_ProfNodeEvent()</text>
<text text-anchor="start" x="295" y="-702.5" font-family="Helvetica,sans-Serif" font-size="10.00">+ STATIC_ProfNodeSetDepthThreshold()</text>
<text text-anchor="start" x="295" y="-691.5" font-family="Helvetica,sans-Serif" font-size="10.00">+ STATIC_ProfNodeSetTimeThreshold</text>
<text text-anchor="start" x="295" y="-680.5" font-family="Helvetica,sans-Serif" font-size="10.00">Seconds()</text>
<text text-anchor="start" x="295" y="-669.5" font-family="Helvetica,sans-Serif" font-size="10.00">+ STATIC_ProfNodeStop()</text>
<text text-anchor="start" x="295" y="-658.5" font-family="Helvetica,sans-Serif" font-size="10.00">+ STATIC_ProfNodeStart()</text>
<text text-anchor="start" x="295" y="-647.5" font-family="Helvetica,sans-Serif" font-size="10.00">+ STATIC_GetStringFromGuid()</text>
<text text-anchor="start" x="295" y="-636.5" font-family="Helvetica,sans-Serif" font-size="10.00">and 298 more...</text>
<text text-anchor="start" x="295" y="-625.5" font-family="Helvetica,sans-Serif" font-size="10.00">+ GetGlobalObjects()</text>
<text text-anchor="start" x="295" y="-614.5" font-family="Helvetica,sans-Serif" font-size="10.00">+ FindObject()</text>
<text text-anchor="start" x="295" y="-603.5" font-family="Helvetica,sans-Serif" font-size="10.00">+ FindClass()</text>
<text text-anchor="start" x="295" y="-592.5" font-family="Helvetica,sans-Serif" font-size="10.00">+ GetObjectCasted()</text>
<text text-anchor="start" x="295" y="-581.5" font-family="Helvetica,sans-Serif" font-size="10.00">+ StaticClass()</text>
</a>
</g>
</g>
<!-- Node3&#45;&gt;Node2 -->
<g id="edge2" class="edge">
<title>Node3&#45;&gt;Node2</title>
<path fill="none" stroke="midnightblue" d="M386,-563.96C386,-555.01 386,-546.19 386,-537.6"/>
<polygon fill="none" stroke="midnightblue" points="382.5,-564.11 386,-574.11 389.5,-564.11 382.5,-564.11"/>
</g>
<!-- Node5 -->
<g id="node5" class="node">
<title>Node5</title>
<g id="a_node5"><a xlink:href="../../de/d0a/classSDK_1_1UParticleModuleMeshRotationRate__Seeded.html" target="_top" xlink:title=" ">
<polygon fill="white" stroke="black" points="0,-0.5 0,-68.5 140,-68.5 140,-0.5 0,-0.5"/>
<text text-anchor="start" x="8" y="-56.5" font-family="Helvetica,sans-Serif" font-size="10.00">SDK::UParticleModuleMesh</text>
<text text-anchor="middle" x="70" y="-45.5" font-family="Helvetica,sans-Serif" font-size="10.00">RotationRate_Seeded</text>
<polyline fill="none" stroke="black" points="0,-38.5 140,-38.5 "/>
<text text-anchor="start" x="8" y="-26.5" font-family="Helvetica,sans-Serif" font-size="10.00">+ RandomSeedInfo</text>
<polyline fill="none" stroke="black" points="0,-19.5 140,-19.5 "/>
<text text-anchor="start" x="8" y="-7.5" font-family="Helvetica,sans-Serif" font-size="10.00">+ StaticClass()</text>
</a>
</g>
</g>
<!-- Node4&#45;&gt;Node5 -->
<g id="edge4" class="edge">
<title>Node4&#45;&gt;Node5</title>
<path fill="none" stroke="midnightblue" d="M70,-100.54C70,-89.97 70,-78.83 70,-68.81"/>
<polygon fill="none" stroke="midnightblue" points="66.5,-100.86 70,-110.86 73.5,-100.86 66.5,-100.86"/>
</g>
<!-- Node9 -->
<g id="node9" class="node">
<title>Node9</title>
<g id="a_node9"><a xlink:href="../../d7/d6e/classSDK_1_1UParticleModuleRotationRate__Seeded.html" target="_top" xlink:title=" ">
<polygon fill="white" stroke="black" points="485,-0.5 485,-68.5 637,-68.5 637,-0.5 485,-0.5"/>
<text text-anchor="start" x="493" y="-56.5" font-family="Helvetica,sans-Serif" font-size="10.00">SDK::UParticleModuleRotation</text>
<text text-anchor="middle" x="561" y="-45.5" font-family="Helvetica,sans-Serif" font-size="10.00">Rate_Seeded</text>
<polyline fill="none" stroke="black" points="485,-38.5 637,-38.5 "/>
<text text-anchor="start" x="493" y="-26.5" font-family="Helvetica,sans-Serif" font-size="10.00">+ RandomSeedInfo</text>
<polyline fill="none" stroke="black" points="485,-19.5 637,-19.5 "/>
<text text-anchor="start" x="493" y="-7.5" font-family="Helvetica,sans-Serif" font-size="10.00">+ StaticClass()</text>
</a>
</g>
</g>
<!-- Node8&#45;&gt;Node9 -->
<g id="edge8" class="edge">
<title>Node8&#45;&gt;Node9</title>
<path fill="none" stroke="midnightblue" d="M561,-105.99C561,-93.77 561,-80.35 561,-68.52"/>
<polygon fill="none" stroke="midnightblue" points="557.5,-106.34 561,-116.34 564.5,-106.34 557.5,-106.34"/>
</g>
</g>
</svg>
