<?xml version="1.0" encoding="UTF-8" standalone="no"?>
<!DOCTYPE svg PUBLIC "-//W3C//DTD SVG 1.1//EN"
 "http://www.w3.org/Graphics/SVG/1.1/DTD/svg11.dtd">
<!-- Generated by graphviz version 2.41.20171026.1811 (20171026.1811)
 -->
<!-- Title: SDK::FParticleEventCollideData Pages: 1 -->
<svg width="331pt" height="762pt"
 viewBox="0.00 0.00 330.50 762.00" xmlns="http://www.w3.org/2000/svg" xmlns:xlink="http://www.w3.org/1999/xlink">
<g id="graph0" class="graph" transform="scale(1 1) rotate(0) translate(4 758)">
<title>SDK::FParticleEventCollideData</title>
<polygon fill="white" stroke="transparent" points="-4,4 -4,-758 326.5,-758 326.5,4 -4,4"/>
<!-- Node1 -->
<g id="node1" class="node">
<title>Node1</title>
<g id="a_node1"><a xlink:title=" ">
<polygon fill="#bfbfbf" stroke="black" points="119,-0.5 119,-79.5 278,-79.5 278,-0.5 119,-0.5"/>
<text text-anchor="middle" x="198.5" y="-67.5" font-family="Helvetica,sans-Serif" font-size="10.00">SDK::FParticleEventCollideData</text>
<polyline fill="none" stroke="black" points="119,-60.5 278,-60.5 "/>
<text text-anchor="start" x="127" y="-48.5" font-family="Helvetica,sans-Serif" font-size="10.00">+ ParticleTime</text>
<text text-anchor="start" x="127" y="-37.5" font-family="Helvetica,sans-Serif" font-size="10.00">+ Time</text>
<text text-anchor="start" x="127" y="-26.5" font-family="Helvetica,sans-Serif" font-size="10.00">+ Item</text>
<polyline fill="none" stroke="black" points="119,-19.5 278,-19.5 "/>
<text text-anchor="middle" x="198.5" y="-7.5" font-family="Helvetica,sans-Serif" font-size="10.00"> </text>
</a>
</g>
</g>
<!-- Node2 -->
<g id="node2" class="node">
<title>Node2</title>
<g id="a_node2"><a xlink:href="../../dd/da6/structSDK_1_1FParticleEventData.html" target="_top" xlink:title=" ">
<polygon fill="white" stroke="black" points="134,-117.5 134,-185.5 263,-185.5 263,-117.5 134,-117.5"/>
<text text-anchor="middle" x="198.5" y="-173.5" font-family="Helvetica,sans-Serif" font-size="10.00">SDK::FParticleEventData</text>
<polyline fill="none" stroke="black" points="134,-166.5 263,-166.5 "/>
<text text-anchor="start" x="142" y="-154.5" font-family="Helvetica,sans-Serif" font-size="10.00">+ Type</text>
<text text-anchor="start" x="142" y="-143.5" font-family="Helvetica,sans-Serif" font-size="10.00">+ EmitterTime</text>
<polyline fill="none" stroke="black" points="134,-136.5 263,-136.5 "/>
<text text-anchor="middle" x="198.5" y="-124.5" font-family="Helvetica,sans-Serif" font-size="10.00"> </text>
</a>
</g>
</g>
<!-- Node2&#45;&gt;Node1 -->
<g id="edge1" class="edge">
<title>Node2&#45;&gt;Node1</title>
<path fill="none" stroke="midnightblue" d="M198.5,-107.34C198.5,-98.25 198.5,-88.72 198.5,-79.81"/>
<polygon fill="none" stroke="midnightblue" points="195,-107.35 198.5,-117.35 202,-107.35 195,-107.35"/>
</g>
<!-- Node3 -->
<g id="node3" class="node">
<title>Node3</title>
<g id="a_node3"><a xlink:href="../../d0/db6/structSDK_1_1FName.html" target="_top" xlink:title=" ">
<polygon fill="white" stroke="black" points="54,-255.5 54,-378.5 161,-378.5 161,-255.5 54,-255.5"/>
<text text-anchor="middle" x="107.5" y="-366.5" font-family="Helvetica,sans-Serif" font-size="10.00">SDK::FName</text>
<polyline fill="none" stroke="black" points="54,-359.5 161,-359.5 "/>
<text text-anchor="start" x="62" y="-347.5" font-family="Helvetica,sans-Serif" font-size="10.00">+ Index</text>
<text text-anchor="start" x="62" y="-336.5" font-family="Helvetica,sans-Serif" font-size="10.00">+ Number</text>
<polyline fill="none" stroke="black" points="54,-329.5 161,-329.5 "/>
<text text-anchor="start" x="62" y="-317.5" font-family="Helvetica,sans-Serif" font-size="10.00">+ FName()</text>
<text text-anchor="start" x="62" y="-306.5" font-family="Helvetica,sans-Serif" font-size="10.00">+ FName()</text>
<text text-anchor="start" x="62" y="-295.5" font-family="Helvetica,sans-Serif" font-size="10.00">+ FName()</text>
<text text-anchor="start" x="62" y="-284.5" font-family="Helvetica,sans-Serif" font-size="10.00">+ GetName()</text>
<text text-anchor="start" x="62" y="-273.5" font-family="Helvetica,sans-Serif" font-size="10.00">+ operator==()</text>
<text text-anchor="start" x="62" y="-262.5" font-family="Helvetica,sans-Serif" font-size="10.00">+ GetGlobalNames()</text>
</a>
</g>
</g>
<!-- Node3&#45;&gt;Node1 -->
<g id="edge7" class="edge">
<title>Node3&#45;&gt;Node1</title>
<path fill="none" stroke="#404040" d="M74.06,-255.45C56.05,-214.07 42.05,-159.29 66.5,-117 76.36,-99.94 91.67,-86.37 108.42,-75.7"/>
<polygon fill="none" stroke="#404040" points="108.68,-75.55 111.8,-69.05 119,-69.43 115.88,-75.94 108.68,-75.55"/>
<text text-anchor="middle" x="95.5" y="-149" font-family="Helvetica,sans-Serif" font-size="10.00"> +BoneName</text>
</g>
<!-- Node3&#45;&gt;Node2 -->
<g id="edge2" class="edge">
<title>Node3&#45;&gt;Node2</title>
<path fill="none" stroke="#404040" d="M122.36,-255.21C128.09,-237.9 135.69,-219.54 145.5,-204 147.46,-200.9 149.64,-197.85 151.97,-194.88"/>
<polygon fill="none" stroke="#404040" points="152.03,-194.81 152.89,-187.65 159.83,-185.69 158.97,-192.85 152.03,-194.81"/>
<text text-anchor="middle" x="176" y="-218" font-family="Helvetica,sans-Serif" font-size="10.00"> +EventName</text>
</g>
<!-- Node4 -->
<g id="node4" class="node">
<title>Node4</title>
<g id="a_node4"><a xlink:href="../../d3/d79/classSDK_1_1TArray.html" target="_top" xlink:title=" ">
<polygon fill="white" stroke="black" points="17.5,-426.5 17.5,-560.5 197.5,-560.5 197.5,-426.5 17.5,-426.5"/>
<text text-anchor="middle" x="107.5" y="-548.5" font-family="Helvetica,sans-Serif" font-size="10.00">SDK::TArray&lt; SDK::FNameEntry * &gt;</text>
<polyline fill="none" stroke="black" points="17.5,-541.5 197.5,-541.5 "/>
<text text-anchor="start" x="25.5" y="-529.5" font-family="Helvetica,sans-Serif" font-size="10.00">&#45; Count</text>
<text text-anchor="start" x="25.5" y="-518.5" font-family="Helvetica,sans-Serif" font-size="10.00">&#45; Max</text>
<polyline fill="none" stroke="black" points="17.5,-511.5 197.5,-511.5 "/>
<text text-anchor="start" x="25.5" y="-499.5" font-family="Helvetica,sans-Serif" font-size="10.00">+ TArray()</text>
<text text-anchor="start" x="25.5" y="-488.5" font-family="Helvetica,sans-Serif" font-size="10.00">+ Num()</text>
<text text-anchor="start" x="25.5" y="-477.5" font-family="Helvetica,sans-Serif" font-size="10.00">+ operator[]()</text>
<text text-anchor="start" x="25.5" y="-466.5" font-family="Helvetica,sans-Serif" font-size="10.00">+ operator[]()</text>
<text text-anchor="start" x="25.5" y="-455.5" font-family="Helvetica,sans-Serif" font-size="10.00">+ IsValidIndex()</text>
<text text-anchor="start" x="25.5" y="-444.5" font-family="Helvetica,sans-Serif" font-size="10.00">+ GetByIndex()</text>
<text text-anchor="start" x="25.5" y="-433.5" font-family="Helvetica,sans-Serif" font-size="10.00">+ GetByIndex()</text>
</a>
</g>
</g>
<!-- Node4&#45;&gt;Node3 -->
<g id="edge3" class="edge">
<title>Node4&#45;&gt;Node3</title>
<path fill="none" stroke="#404040" d="M107.5,-426.03C107.5,-414.45 107.5,-402.35 107.5,-390.62"/>
<polygon fill="none" stroke="#404040" points="107.5,-390.56 103.5,-384.56 107.5,-378.56 111.5,-384.56 107.5,-390.56"/>
<text text-anchor="middle" x="132" y="-400" font-family="Helvetica,sans-Serif" font-size="10.00"> +GNames</text>
</g>
<!-- Node5 -->
<g id="node5" class="node">
<title>Node5</title>
<g id="a_node5"><a xlink:href="../../d7/ddf/classSDK_1_1FNameEntry.html" target="_top" xlink:title=" ">
<polygon fill="white" stroke="black" points="0,-647 0,-715 99,-715 99,-647 0,-647"/>
<text text-anchor="middle" x="49.5" y="-703" font-family="Helvetica,sans-Serif" font-size="10.00">SDK::FNameEntry</text>
<polyline fill="none" stroke="black" points="0,-696 99,-696 "/>
<text text-anchor="start" x="8" y="-684" font-family="Helvetica,sans-Serif" font-size="10.00">+ UnknownData00</text>
<text text-anchor="start" x="8" y="-673" font-family="Helvetica,sans-Serif" font-size="10.00">+ name</text>
<polyline fill="none" stroke="black" points="0,-666 99,-666 "/>
<text text-anchor="start" x="8" y="-654" font-family="Helvetica,sans-Serif" font-size="10.00">+ GetName()</text>
</a>
</g>
</g>
<!-- Node5&#45;&gt;Node4 -->
<g id="edge4" class="edge">
<title>Node5&#45;&gt;Node4</title>
<path fill="none" stroke="#404040" d="M59.87,-646.84C66.34,-626.14 74.96,-598.58 83.08,-572.6"/>
<polygon fill="none" stroke="#404040" points="83.19,-572.25 81.16,-565.33 86.77,-560.8 88.8,-567.72 83.19,-572.25"/>
<text text-anchor="middle" x="94.5" y="-582" font-family="Helvetica,sans-Serif" font-size="10.00"> &#45;Data</text>
</g>
<!-- Node6 -->
<g id="node6" class="node">
<title>Node6</title>
<g id="a_node6"><a xlink:href="../../d3/d79/classSDK_1_1TArray.html" target="_top" xlink:title=" ">
<polygon fill="white" stroke="black" points="117,-608.5 117,-753.5 214,-753.5 214,-608.5 117,-608.5"/>
<text text-anchor="middle" x="165.5" y="-741.5" font-family="Helvetica,sans-Serif" font-size="10.00">SDK::TArray&lt; T &gt;</text>
<polyline fill="none" stroke="black" points="117,-734.5 214,-734.5 "/>
<text text-anchor="start" x="125" y="-722.5" font-family="Helvetica,sans-Serif" font-size="10.00">&#45; Data</text>
<text text-anchor="start" x="125" y="-711.5" font-family="Helvetica,sans-Serif" font-size="10.00">&#45; Count</text>
<text text-anchor="start" x="125" y="-700.5" font-family="Helvetica,sans-Serif" font-size="10.00">&#45; Max</text>
<polyline fill="none" stroke="black" points="117,-693.5 214,-693.5 "/>
<text text-anchor="start" x="125" y="-681.5" font-family="Helvetica,sans-Serif" font-size="10.00">+ TArray()</text>
<text text-anchor="start" x="125" y="-670.5" font-family="Helvetica,sans-Serif" font-size="10.00">+ Num()</text>
<text text-anchor="start" x="125" y="-659.5" font-family="Helvetica,sans-Serif" font-size="10.00">+ operator[]()</text>
<text text-anchor="start" x="125" y="-648.5" font-family="Helvetica,sans-Serif" font-size="10.00">+ operator[]()</text>
<text text-anchor="start" x="125" y="-637.5" font-family="Helvetica,sans-Serif" font-size="10.00">+ IsValidIndex()</text>
<text text-anchor="start" x="125" y="-626.5" font-family="Helvetica,sans-Serif" font-size="10.00">+ GetByIndex()</text>
<text text-anchor="start" x="125" y="-615.5" font-family="Helvetica,sans-Serif" font-size="10.00">+ GetByIndex()</text>
</a>
</g>
</g>
<!-- Node6&#45;&gt;Node4 -->
<g id="edge5" class="edge">
<title>Node6&#45;&gt;Node4</title>
<path fill="none" stroke="orange" d="M140.06,-598.62C136.08,-585.9 132.01,-572.89 128.16,-560.56"/>
<polygon fill="orange" stroke="orange" points="136.75,-599.78 143.08,-608.28 143.43,-597.69 136.75,-599.78"/>
<text text-anchor="middle" x="192" y="-582" font-family="Helvetica,sans-Serif" font-size="10.00"> &lt; SDK::FNameEntry * &gt;</text>
</g>
<!-- Node7 -->
<g id="node7" class="node">
<title>Node7</title>
<g id="a_node7"><a xlink:href="../../dd/d43/structSDK_1_1FVector.html" target="_top" xlink:title=" ">
<polygon fill="white" stroke="black" points="194.5,-277.5 194.5,-356.5 272.5,-356.5 272.5,-277.5 194.5,-277.5"/>
<text text-anchor="middle" x="233.5" y="-344.5" font-family="Helvetica,sans-Serif" font-size="10.00">SDK::FVector</text>
<polyline fill="none" stroke="black" points="194.5,-337.5 272.5,-337.5 "/>
<text text-anchor="start" x="202.5" y="-325.5" font-family="Helvetica,sans-Serif" font-size="10.00">+ X</text>
<text text-anchor="start" x="202.5" y="-314.5" font-family="Helvetica,sans-Serif" font-size="10.00">+ Y</text>
<text text-anchor="start" x="202.5" y="-303.5" font-family="Helvetica,sans-Serif" font-size="10.00">+ Z</text>
<polyline fill="none" stroke="black" points="194.5,-296.5 272.5,-296.5 "/>
<text text-anchor="middle" x="233.5" y="-284.5" font-family="Helvetica,sans-Serif" font-size="10.00"> </text>
</a>
</g>
</g>
<!-- Node7&#45;&gt;Node1 -->
<g id="edge8" class="edge">
<title>Node7&#45;&gt;Node1</title>
<path fill="none" stroke="#404040" d="M253.76,-277.34C272.39,-236.3 294.11,-170.16 272.5,-117 268.38,-106.85 262.17,-97.32 255.08,-88.66"/>
<polygon fill="none" stroke="#404040" points="255.04,-88.61 248.07,-86.76 247.09,-79.62 254.06,-81.46 255.04,-88.61"/>
<text text-anchor="middle" x="302" y="-149" font-family="Helvetica,sans-Serif" font-size="10.00"> +Normal</text>
</g>
<!-- Node7&#45;&gt;Node2 -->
<g id="edge6" class="edge">
<title>Node7&#45;&gt;Node2</title>
<path fill="none" stroke="#404040" d="M225.21,-277.25C220.08,-253.31 213.48,-222.49 208.13,-197.48"/>
<polygon fill="none" stroke="#404040" points="208.12,-197.45 202.96,-192.42 205.61,-185.72 210.78,-190.75 208.12,-197.45"/>
<text text-anchor="middle" x="239.5" y="-229" font-family="Helvetica,sans-Serif" font-size="10.00"> +Location</text>
<text text-anchor="middle" x="239.5" y="-218" font-family="Helvetica,sans-Serif" font-size="10.00">+Velocity</text>
<text text-anchor="middle" x="239.5" y="-207" font-family="Helvetica,sans-Serif" font-size="10.00">+Direction</text>
</g>
</g>
</svg>
