<?xml version="1.0" encoding="UTF-8" standalone="no"?>
<!DOCTYPE svg PUBLIC "-//W3C//DTD SVG 1.1//EN"
 "http://www.w3.org/Graphics/SVG/1.1/DTD/svg11.dtd">
<!-- Generated by graphviz version 2.41.20171026.1811 (20171026.1811)
 -->
<!-- Title: SDK::UMobileMenuElement Pages: 1 -->
<svg width="600pt" height="1375pt"
 viewBox="0.00 0.00 600.00 1375.00" xmlns="http://www.w3.org/2000/svg" xmlns:xlink="http://www.w3.org/1999/xlink">
<g id="graph0" class="graph" transform="scale(1 1) rotate(0) translate(4 1371)">
<title>SDK::UMobileMenuElement</title>
<polygon fill="white" stroke="transparent" points="-4,4 -4,-1371 596,-1371 596,4 -4,4"/>
<!-- Node1 -->
<g id="node1" class="node">
<title>Node1</title>
<g id="a_node1"><a xlink:title=" ">
<polygon fill="#bfbfbf" stroke="black" points="450.5,-378 450.5,-479 590.5,-479 590.5,-378 450.5,-378"/>
<text text-anchor="middle" x="520.5" y="-467" font-family="Helvetica,sans-Serif" font-size="10.00">SDK::UMobileMenuElement</text>
<polyline fill="none" stroke="black" points="450.5,-460 590.5,-460 "/>
<text text-anchor="start" x="458.5" y="-448" font-family="Helvetica,sans-Serif" font-size="10.00">+ bIsVisible</text>
<text text-anchor="start" x="458.5" y="-437" font-family="Helvetica,sans-Serif" font-size="10.00">+ bIsActive</text>
<polyline fill="none" stroke="black" points="450.5,-430 590.5,-430 "/>
<text text-anchor="start" x="458.5" y="-418" font-family="Helvetica,sans-Serif" font-size="10.00">+ GetIconIndexes()</text>
<text text-anchor="start" x="458.5" y="-407" font-family="Helvetica,sans-Serif" font-size="10.00">+ RenderElement()</text>
<text text-anchor="start" x="458.5" y="-396" font-family="Helvetica,sans-Serif" font-size="10.00">+ OnTouch()</text>
<text text-anchor="start" x="458.5" y="-385" font-family="Helvetica,sans-Serif" font-size="10.00">+ StaticClass()</text>
</a>
</g>
</g>
<!-- Node2 -->
<g id="node2" class="node">
<title>Node2</title>
<g id="a_node2"><a xlink:href="../../d9/d45/classSDK_1_1UObject.html" target="_top" xlink:title=" ">
<polygon fill="white" stroke="black" points="187.5,-554.5 187.5,-798.5 385.5,-798.5 385.5,-554.5 187.5,-554.5"/>
<text text-anchor="middle" x="286.5" y="-786.5" font-family="Helvetica,sans-Serif" font-size="10.00">SDK::UObject</text>
<polyline fill="none" stroke="black" points="187.5,-779.5 385.5,-779.5 "/>
<text text-anchor="start" x="195.5" y="-767.5" font-family="Helvetica,sans-Serif" font-size="10.00">+ ObjectInternalInteger</text>
<text text-anchor="start" x="195.5" y="-756.5" font-family="Helvetica,sans-Serif" font-size="10.00">+ NetIndex</text>
<polyline fill="none" stroke="black" points="187.5,-749.5 385.5,-749.5 "/>
<text text-anchor="start" x="195.5" y="-737.5" font-family="Helvetica,sans-Serif" font-size="10.00">+ UObject::GetName()</text>
<text text-anchor="start" x="195.5" y="-726.5" font-family="Helvetica,sans-Serif" font-size="10.00">+ GetFullName()</text>
<text text-anchor="start" x="195.5" y="-715.5" font-family="Helvetica,sans-Serif" font-size="10.00">+ IsA()</text>
<text text-anchor="start" x="195.5" y="-704.5" font-family="Helvetica,sans-Serif" font-size="10.00">+ ProcessEvent()</text>
<text text-anchor="start" x="195.5" y="-693.5" font-family="Helvetica,sans-Serif" font-size="10.00">+ STATIC_ProfNodeEvent()</text>
<text text-anchor="start" x="195.5" y="-682.5" font-family="Helvetica,sans-Serif" font-size="10.00">+ STATIC_ProfNodeSetDepthThreshold()</text>
<text text-anchor="start" x="195.5" y="-671.5" font-family="Helvetica,sans-Serif" font-size="10.00">+ STATIC_ProfNodeSetTimeThreshold</text>
<text text-anchor="start" x="195.5" y="-660.5" font-family="Helvetica,sans-Serif" font-size="10.00">Seconds()</text>
<text text-anchor="start" x="195.5" y="-649.5" font-family="Helvetica,sans-Serif" font-size="10.00">+ STATIC_ProfNodeStop()</text>
<text text-anchor="start" x="195.5" y="-638.5" font-family="Helvetica,sans-Serif" font-size="10.00">+ STATIC_ProfNodeStart()</text>
<text text-anchor="start" x="195.5" y="-627.5" font-family="Helvetica,sans-Serif" font-size="10.00">+ STATIC_GetStringFromGuid()</text>
<text text-anchor="start" x="195.5" y="-616.5" font-family="Helvetica,sans-Serif" font-size="10.00">and 298 more...</text>
<text text-anchor="start" x="195.5" y="-605.5" font-family="Helvetica,sans-Serif" font-size="10.00">+ GetGlobalObjects()</text>
<text text-anchor="start" x="195.5" y="-594.5" font-family="Helvetica,sans-Serif" font-size="10.00">+ FindObject()</text>
<text text-anchor="start" x="195.5" y="-583.5" font-family="Helvetica,sans-Serif" font-size="10.00">+ FindClass()</text>
<text text-anchor="start" x="195.5" y="-572.5" font-family="Helvetica,sans-Serif" font-size="10.00">+ GetObjectCasted()</text>
<text text-anchor="start" x="195.5" y="-561.5" font-family="Helvetica,sans-Serif" font-size="10.00">+ StaticClass()</text>
</a>
</g>
</g>
<!-- Node2&#45;&gt;Node1 -->
<g id="edge1" class="edge">
<title>Node2&#45;&gt;Node1</title>
<path fill="none" stroke="midnightblue" d="M392.89,-568.97C403.64,-557.9 414.33,-546.77 424.5,-536 441.76,-517.72 460.35,-497.29 476.52,-479.25"/>
<polygon fill="none" stroke="midnightblue" points="390.29,-566.62 385.82,-576.22 395.3,-571.5 390.29,-566.62"/>
</g>
<!-- Node2&#45;&gt;Node2 -->
<g id="edge7" class="edge">
<title>Node2&#45;&gt;Node2</title>
<path fill="none" stroke="#404040" d="M385.51,-700.16C396.44,-695.67 403.5,-687.78 403.5,-676.5 403.5,-669.45 400.74,-663.73 396.01,-659.33"/>
<polygon fill="none" stroke="#404040" points="395.72,-659.15 388.51,-659.4 385.51,-652.84 392.72,-652.59 395.72,-659.15"/>
<text text-anchor="middle" x="443" y="-685" font-family="Helvetica,sans-Serif" font-size="10.00"> +Outer</text>
<text text-anchor="middle" x="443" y="-674" font-family="Helvetica,sans-Serif" font-size="10.00">+Linker</text>
<text text-anchor="middle" x="443" y="-663" font-family="Helvetica,sans-Serif" font-size="10.00">+ObjectArchetype</text>
</g>
<!-- Node8 -->
<g id="node8" class="node">
<title>Node8</title>
<g id="a_node8"><a xlink:href="../../d3/d79/classSDK_1_1TArray.html" target="_top" xlink:title=" ">
<polygon fill="white" stroke="black" points="0,-361.5 0,-495.5 161,-495.5 161,-361.5 0,-361.5"/>
<text text-anchor="middle" x="80.5" y="-483.5" font-family="Helvetica,sans-Serif" font-size="10.00">SDK::TArray&lt; SDK::UObject * &gt;</text>
<polyline fill="none" stroke="black" points="0,-476.5 161,-476.5 "/>
<text text-anchor="start" x="8" y="-464.5" font-family="Helvetica,sans-Serif" font-size="10.00">&#45; Count</text>
<text text-anchor="start" x="8" y="-453.5" font-family="Helvetica,sans-Serif" font-size="10.00">&#45; Max</text>
<polyline fill="none" stroke="black" points="0,-446.5 161,-446.5 "/>
<text text-anchor="start" x="8" y="-434.5" font-family="Helvetica,sans-Serif" font-size="10.00">+ TArray()</text>
<text text-anchor="start" x="8" y="-423.5" font-family="Helvetica,sans-Serif" font-size="10.00">+ Num()</text>
<text text-anchor="start" x="8" y="-412.5" font-family="Helvetica,sans-Serif" font-size="10.00">+ operator[]()</text>
<text text-anchor="start" x="8" y="-401.5" font-family="Helvetica,sans-Serif" font-size="10.00">+ operator[]()</text>
<text text-anchor="start" x="8" y="-390.5" font-family="Helvetica,sans-Serif" font-size="10.00">+ IsValidIndex()</text>
<text text-anchor="start" x="8" y="-379.5" font-family="Helvetica,sans-Serif" font-size="10.00">+ GetByIndex()</text>
<text text-anchor="start" x="8" y="-368.5" font-family="Helvetica,sans-Serif" font-size="10.00">+ GetByIndex()</text>
</a>
</g>
</g>
<!-- Node2&#45;&gt;Node8 -->
<g id="edge9" class="edge">
<title>Node2&#45;&gt;Node8</title>
<path fill="none" stroke="#404040" d="M187.17,-594.91C168.02,-576.73 149.09,-556.66 133.5,-536 126.62,-526.89 120.24,-516.74 114.46,-506.43"/>
<polygon fill="none" stroke="#404040" points="114.36,-506.24 107.99,-502.85 108.67,-495.67 115.03,-499.06 114.36,-506.24"/>
<text text-anchor="middle" x="147.5" y="-522.5" font-family="Helvetica,sans-Serif" font-size="10.00"> &#45;Data</text>
</g>
<!-- Node10 -->
<g id="node10" class="node">
<title>Node10</title>
<g id="a_node10"><a xlink:href="../../d7/d85/classSDK_1_1UClass.html" target="_top" xlink:title=" ">
<polygon fill="white" stroke="black" points="279,-0.5 279,-90.5 400,-90.5 400,-0.5 279,-0.5"/>
<text text-anchor="middle" x="339.5" y="-78.5" font-family="Helvetica,sans-Serif" font-size="10.00">SDK::UClass</text>
<polyline fill="none" stroke="black" points="279,-71.5 400,-71.5 "/>
<text text-anchor="start" x="287" y="-59.5" font-family="Helvetica,sans-Serif" font-size="10.00">+ UnknownData00</text>
<text text-anchor="start" x="287" y="-48.5" font-family="Helvetica,sans-Serif" font-size="10.00">+ UnknownData01</text>
<polyline fill="none" stroke="black" points="279,-41.5 400,-41.5 "/>
<text text-anchor="start" x="287" y="-29.5" font-family="Helvetica,sans-Serif" font-size="10.00">+ CreateDefaultObject()</text>
<text text-anchor="start" x="287" y="-18.5" font-family="Helvetica,sans-Serif" font-size="10.00">+ CreateDefaultObject()</text>
<text text-anchor="start" x="287" y="-7.5" font-family="Helvetica,sans-Serif" font-size="10.00">+ StaticClass()</text>
</a>
</g>
</g>
<!-- Node2&#45;&gt;Node10 -->
<g id="edge19" class="edge">
<title>Node2&#45;&gt;Node10</title>
<path fill="none" stroke="#404040" d="M374.97,-554.26C395,-516.21 410.5,-472.78 410.5,-429.5 410.5,-429.5 410.5,-429.5 410.5,-156 410.5,-136.21 402.23,-117.17 391.34,-100.68"/>
<polygon fill="none" stroke="#404040" points="391.23,-100.53 384.49,-97.96 384.26,-90.75 391,-93.32 391.23,-100.53"/>
<text text-anchor="middle" x="458" y="-260.5" font-family="Helvetica,sans-Serif" font-size="10.00"> +ClassDefaultObject</text>
</g>
<!-- Node13 -->
<g id="node13" class="node">
<title>Node13</title>
<g id="a_node13"><a xlink:href="../../de/dd6/classSDK_1_1UField.html" target="_top" xlink:title=" ">
<polygon fill="white" stroke="black" points="179,-400 179,-457 262,-457 262,-400 179,-400"/>
<text text-anchor="middle" x="220.5" y="-445" font-family="Helvetica,sans-Serif" font-size="10.00">SDK::UField</text>
<polyline fill="none" stroke="black" points="179,-438 262,-438 "/>
<text text-anchor="middle" x="220.5" y="-426" font-family="Helvetica,sans-Serif" font-size="10.00"> </text>
<polyline fill="none" stroke="black" points="179,-419 262,-419 "/>
<text text-anchor="start" x="187" y="-407" font-family="Helvetica,sans-Serif" font-size="10.00">+ StaticClass()</text>
</a>
</g>
</g>
<!-- Node2&#45;&gt;Node13 -->
<g id="edge16" class="edge">
<title>Node2&#45;&gt;Node13</title>
<path fill="none" stroke="midnightblue" d="M268.61,-544.31C266.22,-533.97 263.53,-523.76 260.5,-514 254.39,-494.31 244.5,-473.36 236.08,-457.25"/>
<polygon fill="none" stroke="midnightblue" points="265.23,-545.25 270.81,-554.26 272.07,-543.74 265.23,-545.25"/>
</g>
<!-- Node3 -->
<g id="node3" class="node">
<title>Node3</title>
<g id="a_node3"><a xlink:href="../../d0/d22/structSDK_1_1FQWord.html" target="_top" xlink:title=" ">
<polygon fill="white" stroke="black" points="288.5,-896 288.5,-964 368.5,-964 368.5,-896 288.5,-896"/>
<text text-anchor="middle" x="328.5" y="-952" font-family="Helvetica,sans-Serif" font-size="10.00">SDK::FQWord</text>
<polyline fill="none" stroke="black" points="288.5,-945 368.5,-945 "/>
<text text-anchor="start" x="296.5" y="-933" font-family="Helvetica,sans-Serif" font-size="10.00">+ A</text>
<text text-anchor="start" x="296.5" y="-922" font-family="Helvetica,sans-Serif" font-size="10.00">+ B</text>
<polyline fill="none" stroke="black" points="288.5,-915 368.5,-915 "/>
<text text-anchor="middle" x="328.5" y="-903" font-family="Helvetica,sans-Serif" font-size="10.00"> </text>
</a>
</g>
</g>
<!-- Node3&#45;&gt;Node2 -->
<g id="edge2" class="edge">
<title>Node3&#45;&gt;Node2</title>
<path fill="none" stroke="#404040" d="M322.97,-895.86C319.24,-873.57 314.06,-842.56 308.78,-810.9"/>
<polygon fill="none" stroke="#404040" points="308.73,-810.59 303.79,-805.33 306.75,-798.75 311.68,-804.01 308.73,-810.59"/>
<text text-anchor="middle" x="346.5" y="-831" font-family="Helvetica,sans-Serif" font-size="10.00"> +ObjectFlags</text>
</g>
<!-- Node4 -->
<g id="node4" class="node">
<title>Node4</title>
<g id="a_node4"><a xlink:href="../../d0/db6/structSDK_1_1FName.html" target="_top" xlink:title=" ">
<polygon fill="white" stroke="black" points="163,-868.5 163,-991.5 270,-991.5 270,-868.5 163,-868.5"/>
<text text-anchor="middle" x="216.5" y="-979.5" font-family="Helvetica,sans-Serif" font-size="10.00">SDK::FName</text>
<polyline fill="none" stroke="black" points="163,-972.5 270,-972.5 "/>
<text text-anchor="start" x="171" y="-960.5" font-family="Helvetica,sans-Serif" font-size="10.00">+ Index</text>
<text text-anchor="start" x="171" y="-949.5" font-family="Helvetica,sans-Serif" font-size="10.00">+ Number</text>
<polyline fill="none" stroke="black" points="163,-942.5 270,-942.5 "/>
<text text-anchor="start" x="171" y="-930.5" font-family="Helvetica,sans-Serif" font-size="10.00">+ FName()</text>
<text text-anchor="start" x="171" y="-919.5" font-family="Helvetica,sans-Serif" font-size="10.00">+ FName()</text>
<text text-anchor="start" x="171" y="-908.5" font-family="Helvetica,sans-Serif" font-size="10.00">+ FName()</text>
<text text-anchor="start" x="171" y="-897.5" font-family="Helvetica,sans-Serif" font-size="10.00">+ GetName()</text>
<text text-anchor="start" x="171" y="-886.5" font-family="Helvetica,sans-Serif" font-size="10.00">+ operator==()</text>
<text text-anchor="start" x="171" y="-875.5" font-family="Helvetica,sans-Serif" font-size="10.00">+ GetGlobalNames()</text>
</a>
</g>
</g>
<!-- Node4&#45;&gt;Node2 -->
<g id="edge3" class="edge">
<title>Node4&#45;&gt;Node2</title>
<path fill="none" stroke="#404040" d="M233.36,-868.44C238.28,-850.74 243.87,-830.66 249.53,-810.33"/>
<polygon fill="none" stroke="#404040" points="249.55,-810.25 247.31,-803.39 252.77,-798.69 255.02,-805.54 249.55,-810.25"/>
<text text-anchor="middle" x="265.5" y="-831" font-family="Helvetica,sans-Serif" font-size="10.00"> +Name</text>
</g>
<!-- Node5 -->
<g id="node5" class="node">
<title>Node5</title>
<g id="a_node5"><a xlink:href="../../d3/d79/classSDK_1_1TArray.html" target="_top" xlink:title=" ">
<polygon fill="white" stroke="black" points="126.5,-1039.5 126.5,-1173.5 306.5,-1173.5 306.5,-1039.5 126.5,-1039.5"/>
<text text-anchor="middle" x="216.5" y="-1161.5" font-family="Helvetica,sans-Serif" font-size="10.00">SDK::TArray&lt; SDK::FNameEntry * &gt;</text>
<polyline fill="none" stroke="black" points="126.5,-1154.5 306.5,-1154.5 "/>
<text text-anchor="start" x="134.5" y="-1142.5" font-family="Helvetica,sans-Serif" font-size="10.00">&#45; Count</text>
<text text-anchor="start" x="134.5" y="-1131.5" font-family="Helvetica,sans-Serif" font-size="10.00">&#45; Max</text>
<polyline fill="none" stroke="black" points="126.5,-1124.5 306.5,-1124.5 "/>
<text text-anchor="start" x="134.5" y="-1112.5" font-family="Helvetica,sans-Serif" font-size="10.00">+ TArray()</text>
<text text-anchor="start" x="134.5" y="-1101.5" font-family="Helvetica,sans-Serif" font-size="10.00">+ Num()</text>
<text text-anchor="start" x="134.5" y="-1090.5" font-family="Helvetica,sans-Serif" font-size="10.00">+ operator[]()</text>
<text text-anchor="start" x="134.5" y="-1079.5" font-family="Helvetica,sans-Serif" font-size="10.00">+ operator[]()</text>
<text text-anchor="start" x="134.5" y="-1068.5" font-family="Helvetica,sans-Serif" font-size="10.00">+ IsValidIndex()</text>
<text text-anchor="start" x="134.5" y="-1057.5" font-family="Helvetica,sans-Serif" font-size="10.00">+ GetByIndex()</text>
<text text-anchor="start" x="134.5" y="-1046.5" font-family="Helvetica,sans-Serif" font-size="10.00">+ GetByIndex()</text>
</a>
</g>
</g>
<!-- Node5&#45;&gt;Node4 -->
<g id="edge4" class="edge">
<title>Node5&#45;&gt;Node4</title>
<path fill="none" stroke="#404040" d="M216.5,-1039.03C216.5,-1027.45 216.5,-1015.35 216.5,-1003.62"/>
<polygon fill="none" stroke="#404040" points="216.5,-1003.56 212.5,-997.56 216.5,-991.56 220.5,-997.56 216.5,-1003.56"/>
<text text-anchor="middle" x="241" y="-1013" font-family="Helvetica,sans-Serif" font-size="10.00"> +GNames</text>
</g>
<!-- Node6 -->
<g id="node6" class="node">
<title>Node6</title>
<g id="a_node6"><a xlink:href="../../d7/ddf/classSDK_1_1FNameEntry.html" target="_top" xlink:title=" ">
<polygon fill="white" stroke="black" points="171,-1260 171,-1328 270,-1328 270,-1260 171,-1260"/>
<text text-anchor="middle" x="220.5" y="-1316" font-family="Helvetica,sans-Serif" font-size="10.00">SDK::FNameEntry</text>
<polyline fill="none" stroke="black" points="171,-1309 270,-1309 "/>
<text text-anchor="start" x="179" y="-1297" font-family="Helvetica,sans-Serif" font-size="10.00">+ UnknownData00</text>
<text text-anchor="start" x="179" y="-1286" font-family="Helvetica,sans-Serif" font-size="10.00">+ name</text>
<polyline fill="none" stroke="black" points="171,-1279 270,-1279 "/>
<text text-anchor="start" x="179" y="-1267" font-family="Helvetica,sans-Serif" font-size="10.00">+ GetName()</text>
</a>
</g>
</g>
<!-- Node6&#45;&gt;Node5 -->
<g id="edge5" class="edge">
<title>Node6&#45;&gt;Node5</title>
<path fill="none" stroke="#404040" d="M219.78,-1259.84C219.34,-1239.23 218.75,-1211.83 218.19,-1185.95"/>
<polygon fill="none" stroke="#404040" points="218.19,-1185.8 214.06,-1179.89 217.93,-1173.8 222.06,-1179.71 218.19,-1185.8"/>
<text text-anchor="middle" x="232.5" y="-1195" font-family="Helvetica,sans-Serif" font-size="10.00"> &#45;Data</text>
</g>
<!-- Node7 -->
<g id="node7" class="node">
<title>Node7</title>
<g id="a_node7"><a xlink:href="../../d3/d79/classSDK_1_1TArray.html" target="_top" xlink:title=" ">
<polygon fill="white" stroke="black" points="22,-1221.5 22,-1366.5 119,-1366.5 119,-1221.5 22,-1221.5"/>
<text text-anchor="middle" x="70.5" y="-1354.5" font-family="Helvetica,sans-Serif" font-size="10.00">SDK::TArray&lt; T &gt;</text>
<polyline fill="none" stroke="black" points="22,-1347.5 119,-1347.5 "/>
<text text-anchor="start" x="30" y="-1335.5" font-family="Helvetica,sans-Serif" font-size="10.00">&#45; Data</text>
<text text-anchor="start" x="30" y="-1324.5" font-family="Helvetica,sans-Serif" font-size="10.00">&#45; Count</text>
<text text-anchor="start" x="30" y="-1313.5" font-family="Helvetica,sans-Serif" font-size="10.00">&#45; Max</text>
<polyline fill="none" stroke="black" points="22,-1306.5 119,-1306.5 "/>
<text text-anchor="start" x="30" y="-1294.5" font-family="Helvetica,sans-Serif" font-size="10.00">+ TArray()</text>
<text text-anchor="start" x="30" y="-1283.5" font-family="Helvetica,sans-Serif" font-size="10.00">+ Num()</text>
<text text-anchor="start" x="30" y="-1272.5" font-family="Helvetica,sans-Serif" font-size="10.00">+ operator[]()</text>
<text text-anchor="start" x="30" y="-1261.5" font-family="Helvetica,sans-Serif" font-size="10.00">+ operator[]()</text>
<text text-anchor="start" x="30" y="-1250.5" font-family="Helvetica,sans-Serif" font-size="10.00">+ IsValidIndex()</text>
<text text-anchor="start" x="30" y="-1239.5" font-family="Helvetica,sans-Serif" font-size="10.00">+ GetByIndex()</text>
<text text-anchor="start" x="30" y="-1228.5" font-family="Helvetica,sans-Serif" font-size="10.00">+ GetByIndex()</text>
</a>
</g>
</g>
<!-- Node7&#45;&gt;Node5 -->
<g id="edge6" class="edge">
<title>Node7&#45;&gt;Node5</title>
<path fill="none" stroke="orange" d="M92.01,-1211.72C95.33,-1204.77 99.14,-1198.08 103.5,-1192 110.07,-1182.84 117.92,-1174.25 126.39,-1166.31"/>
<polygon fill="orange" stroke="orange" points="88.61,-1210.77 87.78,-1221.33 95.01,-1213.59 88.61,-1210.77"/>
<text text-anchor="middle" x="159" y="-1195" font-family="Helvetica,sans-Serif" font-size="10.00"> &lt; SDK::FNameEntry * &gt;</text>
</g>
<!-- Node7&#45;&gt;Node8 -->
<g id="edge10" class="edge">
<title>Node7&#45;&gt;Node8</title>
<path fill="none" stroke="orange" d="M59.75,-1211.08C56.37,-1178.85 53.5,-1141.5 53.5,-1107.5 53.5,-1107.5 53.5,-1107.5 53.5,-675.5 53.5,-614.28 61.87,-544.99 69.28,-495.58"/>
<polygon fill="orange" stroke="orange" points="56.3,-1211.78 60.86,-1221.35 63.26,-1211.03 56.3,-1211.78"/>
<text text-anchor="middle" x="99" y="-927.5" font-family="Helvetica,sans-Serif" font-size="10.00"> &lt; SDK::UObject * &gt;</text>
</g>
<!-- Node8&#45;&gt;Node2 -->
<g id="edge8" class="edge">
<title>Node8&#45;&gt;Node2</title>
<path fill="none" stroke="#404040" d="M148.71,-495.51C154.5,-501.66 160.18,-507.88 165.5,-514 174.12,-523.92 182.82,-534.4 191.38,-545.06"/>
<polygon fill="none" stroke="#404040" points="191.39,-545.07 198.25,-547.28 198.86,-554.47 191.99,-552.26 191.39,-545.07"/>
<text text-anchor="middle" x="209" y="-522.5" font-family="Helvetica,sans-Serif" font-size="10.00"> +GObjects</text>
</g>
<!-- Node9 -->
<g id="node9" class="node">
<title>Node9</title>
<g id="a_node9"><a xlink:href="../../d9/dfa/structSDK_1_1FPointer.html" target="_top" xlink:title=" ">
<polygon fill="white" stroke="black" points="386.5,-896 386.5,-964 484.5,-964 484.5,-896 386.5,-896"/>
<text text-anchor="middle" x="435.5" y="-952" font-family="Helvetica,sans-Serif" font-size="10.00">SDK::FPointer</text>
<polyline fill="none" stroke="black" points="386.5,-945 484.5,-945 "/>
<text text-anchor="start" x="394.5" y="-933" font-family="Helvetica,sans-Serif" font-size="10.00">+ Dummy</text>
<text text-anchor="start" x="394.5" y="-922" font-family="Helvetica,sans-Serif" font-size="10.00">+ UnknownData00</text>
<polyline fill="none" stroke="black" points="386.5,-915 484.5,-915 "/>
<text text-anchor="middle" x="435.5" y="-903" font-family="Helvetica,sans-Serif" font-size="10.00"> </text>
</a>
</g>
</g>
<!-- Node9&#45;&gt;Node2 -->
<g id="edge11" class="edge">
<title>Node9&#45;&gt;Node2</title>
<path fill="none" stroke="#404040" d="M421.15,-895.99C410.92,-873.33 396.39,-842.8 381.5,-817 379.96,-814.34 378.39,-811.65 376.79,-808.96"/>
<polygon fill="none" stroke="#404040" points="376.7,-808.81 370.17,-805.75 370.49,-798.55 377.02,-801.61 376.7,-808.81"/>
<text text-anchor="middle" x="433" y="-842" font-family="Helvetica,sans-Serif" font-size="10.00"> +StateFrame</text>
<text text-anchor="middle" x="433" y="-831" font-family="Helvetica,sans-Serif" font-size="10.00">+VfTableObject</text>
<text text-anchor="middle" x="433" y="-820" font-family="Helvetica,sans-Serif" font-size="10.00">+LinkerIndex</text>
</g>
<!-- Node10&#45;&gt;Node2 -->
<g id="edge12" class="edge">
<title>Node10&#45;&gt;Node2</title>
<path fill="none" stroke="#404040" d="M339.5,-90.72C339.5,-110.67 339.5,-134.52 339.5,-156 339.5,-429.5 339.5,-429.5 339.5,-429.5 339.5,-466.49 333.7,-505.93 325.94,-542.14"/>
<polygon fill="none" stroke="#404040" points="325.84,-542.58 328.45,-549.31 323.24,-554.29 320.64,-547.57 325.84,-542.58"/>
<text text-anchor="middle" x="357" y="-260.5" font-family="Helvetica,sans-Serif" font-size="10.00"> +Class</text>
</g>
<!-- Node11 -->
<g id="node11" class="node">
<title>Node11</title>
<g id="a_node11"><a xlink:href="../../df/d72/classSDK_1_1UState.html" target="_top" xlink:title=" ">
<polygon fill="white" stroke="black" points="211.5,-128.5 211.5,-185.5 309.5,-185.5 309.5,-128.5 211.5,-128.5"/>
<text text-anchor="middle" x="260.5" y="-173.5" font-family="Helvetica,sans-Serif" font-size="10.00">SDK::UState</text>
<polyline fill="none" stroke="black" points="211.5,-166.5 309.5,-166.5 "/>
<text text-anchor="start" x="219.5" y="-154.5" font-family="Helvetica,sans-Serif" font-size="10.00">+ UnknownData00</text>
<polyline fill="none" stroke="black" points="211.5,-147.5 309.5,-147.5 "/>
<text text-anchor="start" x="219.5" y="-135.5" font-family="Helvetica,sans-Serif" font-size="10.00">+ StaticClass()</text>
</a>
</g>
</g>
<!-- Node11&#45;&gt;Node10 -->
<g id="edge13" class="edge">
<title>Node11&#45;&gt;Node10</title>
<path fill="none" stroke="midnightblue" d="M286.44,-120.04C293.2,-110.68 300.56,-100.48 307.58,-90.74"/>
<polygon fill="none" stroke="midnightblue" points="283.45,-118.21 280.44,-128.37 289.12,-122.31 283.45,-118.21"/>
</g>
<!-- Node12 -->
<g id="node12" class="node">
<title>Node12</title>
<g id="a_node12"><a xlink:href="../../d8/de9/classSDK_1_1UStruct.html" target="_top" xlink:title=" ">
<polygon fill="white" stroke="black" points="205.5,-223.5 205.5,-302.5 303.5,-302.5 303.5,-223.5 205.5,-223.5"/>
<text text-anchor="middle" x="254.5" y="-290.5" font-family="Helvetica,sans-Serif" font-size="10.00">SDK::UStruct</text>
<polyline fill="none" stroke="black" points="205.5,-283.5 303.5,-283.5 "/>
<text text-anchor="start" x="213.5" y="-271.5" font-family="Helvetica,sans-Serif" font-size="10.00">+ UnknownData00</text>
<text text-anchor="start" x="213.5" y="-260.5" font-family="Helvetica,sans-Serif" font-size="10.00">+ PropertySize</text>
<text text-anchor="start" x="213.5" y="-249.5" font-family="Helvetica,sans-Serif" font-size="10.00">+ UnknownData01</text>
<polyline fill="none" stroke="black" points="205.5,-242.5 303.5,-242.5 "/>
<text text-anchor="start" x="213.5" y="-230.5" font-family="Helvetica,sans-Serif" font-size="10.00">+ StaticClass()</text>
</a>
</g>
</g>
<!-- Node12&#45;&gt;Node11 -->
<g id="edge14" class="edge">
<title>Node12&#45;&gt;Node11</title>
<path fill="none" stroke="midnightblue" d="M257.32,-213.16C257.86,-203.74 258.41,-194.17 258.9,-185.72"/>
<polygon fill="none" stroke="midnightblue" points="253.82,-213.09 256.73,-223.27 260.8,-213.49 253.82,-213.09"/>
</g>
<!-- Node13&#45;&gt;Node12 -->
<g id="edge15" class="edge">
<title>Node13&#45;&gt;Node12</title>
<path fill="none" stroke="midnightblue" d="M241.03,-390.88C248.04,-376.43 254.99,-359.38 258.5,-343 261.27,-330.11 261.39,-315.78 260.47,-302.9"/>
<polygon fill="none" stroke="midnightblue" points="237.83,-389.46 236.46,-399.97 244.08,-392.61 237.83,-389.46"/>
</g>
<!-- Node13&#45;&gt;Node12 -->
<g id="edge18" class="edge">
<title>Node13&#45;&gt;Node12</title>
<path fill="none" stroke="#404040" d="M206.22,-399.99C196.81,-377.99 187.99,-346.69 198.5,-321 199.67,-318.14 201.06,-315.34 202.63,-312.61"/>
<polygon fill="none" stroke="#404040" points="202.73,-312.47 202.76,-305.26 209.43,-302.52 209.4,-309.73 202.73,-312.47"/>
<text text-anchor="middle" x="226.5" y="-335" font-family="Helvetica,sans-Serif" font-size="10.00"> +SuperField</text>
<text text-anchor="middle" x="226.5" y="-324" font-family="Helvetica,sans-Serif" font-size="10.00">+Children</text>
</g>
<!-- Node13&#45;&gt;Node13 -->
<g id="edge17" class="edge">
<title>Node13&#45;&gt;Node13</title>
<path fill="none" stroke="#404040" d="M262.21,-446.22C272.41,-444.91 280,-439 280,-428.5 280,-422.59 277.6,-418.14 273.68,-415.14"/>
<polygon fill="none" stroke="#404040" points="273.42,-415.04 266.39,-416.65 262.21,-410.78 269.23,-409.17 273.42,-415.04"/>
<text text-anchor="middle" x="295.5" y="-426" font-family="Helvetica,sans-Serif" font-size="10.00"> +Next</text>
</g>
<!-- Node14 -->
<g id="node14" class="node">
<title>Node14</title>
<g id="a_node14"><a xlink:href="../../db/da8/structSDK_1_1FVector2D.html" target="_top" xlink:title=" ">
<polygon fill="white" stroke="black" points="501,-642.5 501,-710.5 592,-710.5 592,-642.5 501,-642.5"/>
<text text-anchor="middle" x="546.5" y="-698.5" font-family="Helvetica,sans-Serif" font-size="10.00">SDK::FVector2D</text>
<polyline fill="none" stroke="black" points="501,-691.5 592,-691.5 "/>
<text text-anchor="start" x="509" y="-679.5" font-family="Helvetica,sans-Serif" font-size="10.00">+ X</text>
<text text-anchor="start" x="509" y="-668.5" font-family="Helvetica,sans-Serif" font-size="10.00">+ Y</text>
<polyline fill="none" stroke="black" points="501,-661.5 592,-661.5 "/>
<text text-anchor="middle" x="546.5" y="-649.5" font-family="Helvetica,sans-Serif" font-size="10.00"> </text>
</a>
</g>
</g>
<!-- Node14&#45;&gt;Node1 -->
<g id="edge20" class="edge">
<title>Node14&#45;&gt;Node1</title>
<path fill="none" stroke="#404040" d="M542.99,-642.32C538.91,-603.72 532.09,-539.15 527.03,-491.24"/>
<polygon fill="none" stroke="#404040" points="527.01,-491.07 522.4,-485.52 525.75,-479.13 530.35,-484.68 527.01,-491.07"/>
<text text-anchor="middle" x="552" y="-528" font-family="Helvetica,sans-Serif" font-size="10.00"> +VpSize</text>
<text text-anchor="middle" x="552" y="-517" font-family="Helvetica,sans-Serif" font-size="10.00">+VpPos</text>
</g>
</g>
</svg>
