<?xml version="1.0" encoding="UTF-8" standalone="no"?>
<!DOCTYPE svg PUBLIC "-//W3C//DTD SVG 1.1//EN"
 "http://www.w3.org/Graphics/SVG/1.1/DTD/svg11.dtd">
<!-- Generated by graphviz version 2.41.20171026.1811 (20171026.1811)
 -->
<!-- Title: SDK::FTerrainMaterialMask Pages: 1 -->
<svg width="146pt" height="182pt"
 viewBox="0.00 0.00 146.00 182.00" xmlns="http://www.w3.org/2000/svg" xmlns:xlink="http://www.w3.org/1999/xlink">
<g id="graph0" class="graph" transform="scale(1 1) rotate(0) translate(4 178)">
<title>SDK::FTerrainMaterialMask</title>
<polygon fill="white" stroke="transparent" points="-4,4 -4,-178 142,-178 142,4 -4,4"/>
<!-- Node1 -->
<g id="node1" class="node">
<title>Node1</title>
<g id="a_node1"><a xlink:title=" ">
<polygon fill="#bfbfbf" stroke="black" points="0,-0.5 0,-57.5 138,-57.5 138,-0.5 0,-0.5"/>
<text text-anchor="middle" x="69" y="-45.5" font-family="Helvetica,sans-Serif" font-size="10.00">SDK::FTerrainMaterialMask</text>
<polyline fill="none" stroke="black" points="0,-38.5 138,-38.5 "/>
<text text-anchor="start" x="8" y="-26.5" font-family="Helvetica,sans-Serif" font-size="10.00">+ NumBits</text>
<polyline fill="none" stroke="black" points="0,-19.5 138,-19.5 "/>
<text text-anchor="middle" x="69" y="-7.5" font-family="Helvetica,sans-Serif" font-size="10.00"> </text>
</a>
</g>
</g>
<!-- Node2 -->
<g id="node2" class="node">
<title>Node2</title>
<g id="a_node2"><a xlink:href="../../d0/d22/structSDK_1_1FQWord.html" target="_top" xlink:title=" ">
<polygon fill="white" stroke="black" points="29,-105.5 29,-173.5 109,-173.5 109,-105.5 29,-105.5"/>
<text text-anchor="middle" x="69" y="-161.5" font-family="Helvetica,sans-Serif" font-size="10.00">SDK::FQWord</text>
<polyline fill="none" stroke="black" points="29,-154.5 109,-154.5 "/>
<text text-anchor="start" x="37" y="-142.5" font-family="Helvetica,sans-Serif" font-size="10.00">+ A</text>
<text text-anchor="start" x="37" y="-131.5" font-family="Helvetica,sans-Serif" font-size="10.00">+ B</text>
<polyline fill="none" stroke="black" points="29,-124.5 109,-124.5 "/>
<text text-anchor="middle" x="69" y="-112.5" font-family="Helvetica,sans-Serif" font-size="10.00"> </text>
</a>
</g>
</g>
<!-- Node2&#45;&gt;Node1 -->
<g id="edge1" class="edge">
<title>Node2&#45;&gt;Node1</title>
<path fill="none" stroke="#404040" d="M69,-105.36C69,-94.19 69,-81.61 69,-69.97"/>
<polygon fill="none" stroke="#404040" points="69,-69.83 65,-63.83 69,-57.83 73,-63.83 69,-69.83"/>
<text text-anchor="middle" x="92" y="-79" font-family="Helvetica,sans-Serif" font-size="10.00"> +BitMask</text>
</g>
</g>
</svg>
