<?xml version="1.0" encoding="UTF-8" standalone="no"?>
<!DOCTYPE svg PUBLIC "-//W3C//DTD SVG 1.1//EN"
 "http://www.w3.org/Graphics/SVG/1.1/DTD/svg11.dtd">
<!-- Generated by graphviz version 2.41.20171026.1811 (20171026.1811)
 -->
<!-- Title: SDK::UInterpTrackSound Pages: 1 -->
<svg width="206pt" height="810pt"
 viewBox="0.00 0.00 206.00 810.00" xmlns="http://www.w3.org/2000/svg" xmlns:xlink="http://www.w3.org/1999/xlink">
<g id="graph0" class="graph" transform="scale(1 1) rotate(0) translate(4 806)">
<title>SDK::UInterpTrackSound</title>
<polygon fill="white" stroke="transparent" points="-4,4 -4,-806 202,-806 202,4 -4,4"/>
<!-- Node1 -->
<g id="node1" class="node">
<title>Node1</title>
<g id="a_node1"><a xlink:title=" ">
<polygon fill="#bfbfbf" stroke="black" points="18,-0.5 18,-101.5 180,-101.5 180,-0.5 18,-0.5"/>
<text text-anchor="middle" x="99" y="-89.5" font-family="Helvetica,sans-Serif" font-size="10.00">SDK::UInterpTrackSound</text>
<polyline fill="none" stroke="black" points="18,-82.5 180,-82.5 "/>
<text text-anchor="start" x="26" y="-70.5" font-family="Helvetica,sans-Serif" font-size="10.00">+ Sounds</text>
<text text-anchor="start" x="26" y="-59.5" font-family="Helvetica,sans-Serif" font-size="10.00">+ bPlayOnReverse</text>
<text text-anchor="start" x="26" y="-48.5" font-family="Helvetica,sans-Serif" font-size="10.00">+ bContinueSoundOnMatineeEnd</text>
<text text-anchor="start" x="26" y="-37.5" font-family="Helvetica,sans-Serif" font-size="10.00">+ bSuppressSubtitles</text>
<text text-anchor="start" x="26" y="-26.5" font-family="Helvetica,sans-Serif" font-size="10.00">+ bTreatAsDialogue</text>
<polyline fill="none" stroke="black" points="18,-19.5 180,-19.5 "/>
<text text-anchor="start" x="26" y="-7.5" font-family="Helvetica,sans-Serif" font-size="10.00">+ StaticClass()</text>
</a>
</g>
</g>
<!-- Node2 -->
<g id="node2" class="node">
<title>Node2</title>
<g id="a_node2"><a xlink:href="../../d8/dc4/classSDK_1_1UInterpTrackVectorBase.html" target="_top" xlink:title=" ">
<polygon fill="white" stroke="black" points="23,-138.5 23,-206.5 175,-206.5 175,-138.5 23,-138.5"/>
<text text-anchor="middle" x="99" y="-194.5" font-family="Helvetica,sans-Serif" font-size="10.00">SDK::UInterpTrackVectorBase</text>
<polyline fill="none" stroke="black" points="23,-187.5 175,-187.5 "/>
<text text-anchor="start" x="31" y="-175.5" font-family="Helvetica,sans-Serif" font-size="10.00">+ VectorTrack</text>
<text text-anchor="start" x="31" y="-164.5" font-family="Helvetica,sans-Serif" font-size="10.00">+ CurveTension</text>
<polyline fill="none" stroke="black" points="23,-157.5 175,-157.5 "/>
<text text-anchor="start" x="31" y="-145.5" font-family="Helvetica,sans-Serif" font-size="10.00">+ StaticClass()</text>
</a>
</g>
</g>
<!-- Node2&#45;&gt;Node1 -->
<g id="edge1" class="edge">
<title>Node2&#45;&gt;Node1</title>
<path fill="none" stroke="midnightblue" d="M99,-128.05C99,-119.47 99,-110.41 99,-101.65"/>
<polygon fill="none" stroke="midnightblue" points="95.5,-128.21 99,-138.21 102.5,-128.21 95.5,-128.21"/>
</g>
<!-- Node3 -->
<g id="node3" class="node">
<title>Node3</title>
<g id="a_node3"><a xlink:href="../../d4/d52/classSDK_1_1UInterpTrack.html" target="_top" xlink:title=" ">
<polygon fill="white" stroke="black" points="15.5,-243.5 15.5,-410.5 182.5,-410.5 182.5,-243.5 15.5,-243.5"/>
<text text-anchor="middle" x="99" y="-398.5" font-family="Helvetica,sans-Serif" font-size="10.00">SDK::UInterpTrack</text>
<polyline fill="none" stroke="black" points="15.5,-391.5 182.5,-391.5 "/>
<text text-anchor="start" x="23.5" y="-379.5" font-family="Helvetica,sans-Serif" font-size="10.00">+ VfTable_FInterpEdInputInterface</text>
<text text-anchor="start" x="23.5" y="-368.5" font-family="Helvetica,sans-Serif" font-size="10.00">+ CurveEdVTable</text>
<text text-anchor="start" x="23.5" y="-357.5" font-family="Helvetica,sans-Serif" font-size="10.00">+ SubTracks</text>
<text text-anchor="start" x="23.5" y="-346.5" font-family="Helvetica,sans-Serif" font-size="10.00">+ SubTrackGroups</text>
<text text-anchor="start" x="23.5" y="-335.5" font-family="Helvetica,sans-Serif" font-size="10.00">+ SupportedSubTracks</text>
<text text-anchor="start" x="23.5" y="-324.5" font-family="Helvetica,sans-Serif" font-size="10.00">+ TrackInstClass</text>
<text text-anchor="start" x="23.5" y="-313.5" font-family="Helvetica,sans-Serif" font-size="10.00">+ ActiveCondition</text>
<text text-anchor="start" x="23.5" y="-302.5" font-family="Helvetica,sans-Serif" font-size="10.00">+ UnknownData00</text>
<text text-anchor="start" x="23.5" y="-291.5" font-family="Helvetica,sans-Serif" font-size="10.00">+ TrackTitle</text>
<text text-anchor="start" x="23.5" y="-280.5" font-family="Helvetica,sans-Serif" font-size="10.00">+ bOnePerGroup</text>
<text text-anchor="start" x="23.5" y="-269.5" font-family="Helvetica,sans-Serif" font-size="10.00">and 8 more...</text>
<polyline fill="none" stroke="black" points="15.5,-262.5 182.5,-262.5 "/>
<text text-anchor="start" x="23.5" y="-250.5" font-family="Helvetica,sans-Serif" font-size="10.00">+ StaticClass()</text>
</a>
</g>
</g>
<!-- Node3&#45;&gt;Node2 -->
<g id="edge2" class="edge">
<title>Node3&#45;&gt;Node2</title>
<path fill="none" stroke="midnightblue" d="M99,-232.89C99,-223.63 99,-214.72 99,-206.74"/>
<polygon fill="none" stroke="midnightblue" points="95.5,-233.06 99,-243.06 102.5,-233.06 95.5,-233.06"/>
</g>
<!-- Node4 -->
<g id="node4" class="node">
<title>Node4</title>
<g id="a_node4"><a xlink:href="../../d9/d45/classSDK_1_1UObject.html" target="_top" xlink:title=" ">
<polygon fill="white" stroke="black" points="0,-447.5 0,-801.5 198,-801.5 198,-447.5 0,-447.5"/>
<text text-anchor="middle" x="99" y="-789.5" font-family="Helvetica,sans-Serif" font-size="10.00">SDK::UObject</text>
<polyline fill="none" stroke="black" points="0,-782.5 198,-782.5 "/>
<text text-anchor="start" x="8" y="-770.5" font-family="Helvetica,sans-Serif" font-size="10.00">+ VfTableObject</text>
<text text-anchor="start" x="8" y="-759.5" font-family="Helvetica,sans-Serif" font-size="10.00">+ ObjectFlags</text>
<text text-anchor="start" x="8" y="-748.5" font-family="Helvetica,sans-Serif" font-size="10.00">+ StateFrame</text>
<text text-anchor="start" x="8" y="-737.5" font-family="Helvetica,sans-Serif" font-size="10.00">+ Linker</text>
<text text-anchor="start" x="8" y="-726.5" font-family="Helvetica,sans-Serif" font-size="10.00">+ LinkerIndex</text>
<text text-anchor="start" x="8" y="-715.5" font-family="Helvetica,sans-Serif" font-size="10.00">+ ObjectInternalInteger</text>
<text text-anchor="start" x="8" y="-704.5" font-family="Helvetica,sans-Serif" font-size="10.00">+ NetIndex</text>
<text text-anchor="start" x="8" y="-693.5" font-family="Helvetica,sans-Serif" font-size="10.00">+ Outer</text>
<text text-anchor="start" x="8" y="-682.5" font-family="Helvetica,sans-Serif" font-size="10.00">+ Name</text>
<text text-anchor="start" x="8" y="-671.5" font-family="Helvetica,sans-Serif" font-size="10.00">+ Class</text>
<text text-anchor="start" x="8" y="-660.5" font-family="Helvetica,sans-Serif" font-size="10.00">+ ObjectArchetype</text>
<text text-anchor="start" x="8" y="-649.5" font-family="Helvetica,sans-Serif" font-size="10.00">+ GObjects</text>
<polyline fill="none" stroke="black" points="0,-642.5 198,-642.5 "/>
<text text-anchor="start" x="8" y="-630.5" font-family="Helvetica,sans-Serif" font-size="10.00">+ UObject::GetName()</text>
<text text-anchor="start" x="8" y="-619.5" font-family="Helvetica,sans-Serif" font-size="10.00">+ GetFullName()</text>
<text text-anchor="start" x="8" y="-608.5" font-family="Helvetica,sans-Serif" font-size="10.00">+ IsA()</text>
<text text-anchor="start" x="8" y="-597.5" font-family="Helvetica,sans-Serif" font-size="10.00">+ ProcessEvent()</text>
<text text-anchor="start" x="8" y="-586.5" font-family="Helvetica,sans-Serif" font-size="10.00">+ STATIC_ProfNodeEvent()</text>
<text text-anchor="start" x="8" y="-575.5" font-family="Helvetica,sans-Serif" font-size="10.00">+ STATIC_ProfNodeSetDepthThreshold()</text>
<text text-anchor="start" x="8" y="-564.5" font-family="Helvetica,sans-Serif" font-size="10.00">+ STATIC_ProfNodeSetTimeThreshold</text>
<text text-anchor="start" x="8" y="-553.5" font-family="Helvetica,sans-Serif" font-size="10.00">Seconds()</text>
<text text-anchor="start" x="8" y="-542.5" font-family="Helvetica,sans-Serif" font-size="10.00">+ STATIC_ProfNodeStop()</text>
<text text-anchor="start" x="8" y="-531.5" font-family="Helvetica,sans-Serif" font-size="10.00">+ STATIC_ProfNodeStart()</text>
<text text-anchor="start" x="8" y="-520.5" font-family="Helvetica,sans-Serif" font-size="10.00">+ STATIC_GetStringFromGuid()</text>
<text text-anchor="start" x="8" y="-509.5" font-family="Helvetica,sans-Serif" font-size="10.00">and 298 more...</text>
<text text-anchor="start" x="8" y="-498.5" font-family="Helvetica,sans-Serif" font-size="10.00">+ GetGlobalObjects()</text>
<text text-anchor="start" x="8" y="-487.5" font-family="Helvetica,sans-Serif" font-size="10.00">+ FindObject()</text>
<text text-anchor="start" x="8" y="-476.5" font-family="Helvetica,sans-Serif" font-size="10.00">+ FindClass()</text>
<text text-anchor="start" x="8" y="-465.5" font-family="Helvetica,sans-Serif" font-size="10.00">+ GetObjectCasted()</text>
<text text-anchor="start" x="8" y="-454.5" font-family="Helvetica,sans-Serif" font-size="10.00">+ StaticClass()</text>
</a>
</g>
</g>
<!-- Node4&#45;&gt;Node3 -->
<g id="edge3" class="edge">
<title>Node4&#45;&gt;Node3</title>
<path fill="none" stroke="midnightblue" d="M99,-437.07C99,-428.04 99,-419.23 99,-410.76"/>
<polygon fill="none" stroke="midnightblue" points="95.5,-437.34 99,-447.34 102.5,-437.34 95.5,-437.34"/>
</g>
</g>
</svg>
