<?xml version="1.0" encoding="UTF-8" standalone="no"?>
<!DOCTYPE svg PUBLIC "-//W3C//DTD SVG 1.1//EN"
 "http://www.w3.org/Graphics/SVG/1.1/DTD/svg11.dtd">
<!-- Generated by graphviz version 2.41.20171026.1811 (20171026.1811)
 -->
<!-- Title: SDK::FActiveMorph Pages: 1 -->
<!--zoomable 1499 -->
<svg id="main" version="1.1" xmlns="http://www.w3.org/2000/svg" xmlns:xlink="http://www.w3.org/1999/xlink" xml:space="preserve" onload="init(evt)">
<style type="text/css"><![CDATA[
.edge:hover path { stroke: red; }
.edge:hover polygon { stroke: red; fill: red; }
]]></style>
<script type="text/javascript"><![CDATA[
var edges = document.getElementsByTagName('g');
if (edges && edges.length) {
  for (var i=0;i<edges.length;i++) {
    if (edges[i].id.substr(0,4)=='edge') {
      edges[i].setAttribute('class','edge');
    }
  }
}
]]></script>
        <defs>
                <circle id="rim" cx="0" cy="0" r="7"/>
                <circle id="rim2" cx="0" cy="0" r="3.5"/>
                <g id="zoomPlus">
                        <use xlink:href="#rim" fill="#404040">
                                <set attributeName="fill" to="#808080" begin="zoomplus.mouseover" end="zoomplus.mouseout"/>
                        </use>
                        <path d="M-4,0h8M0,-4v8" fill="none" stroke="white" stroke-width="1.5" pointer-events="none"/>
                </g>
                <g id="zoomMin">
                        <use xlink:href="#rim" fill="#404040">
                                <set attributeName="fill" to="#808080" begin="zoomminus.mouseover" end="zoomminus.mouseout"/>
                        </use>
                        <path d="M-4,0h8" fill="none" stroke="white" stroke-width="1.5" pointer-events="none"/>
                </g>
                <g id="dirArrow">
                        <path fill="none" stroke="white" stroke-width="1.5" d="M0,-3.0v7 M-2.5,-0.5L0,-3.0L2.5,-0.5"/>
                </g>
               <g id="resetDef">
                       <use xlink:href="#rim2" fill="#404040">
                               <set attributeName="fill" to="#808080" begin="reset.mouseover" end="reset.mouseout"/>
                       </use>
               </g>
        </defs>

<script type="text/javascript">
var viewWidth = 696;
var viewHeight = 1499;
var sectionId = 'dynsection-0';
</script>
<script xlink:href="../../svgpan.js"/>
<svg id="graph" class="graph">
<g id="viewport">
<title>SDK::FActiveMorph</title>
<polygon fill="white" stroke="transparent" points="-4,4 -4,-1495 691.5,-1495 691.5,4 -4,4"/>
<!-- Node1 -->
<g id="node1" class="node">
<title>Node1</title>
<g id="a_node1"><a xlink:title=" ">
<polygon fill="#bfbfbf" stroke="black" points="66.5,-234.5 66.5,-291.5 170.5,-291.5 170.5,-234.5 66.5,-234.5"/>
<text text-anchor="middle" x="118.5" y="-279.5" font-family="Helvetica,sans-Serif" font-size="10.00">SDK::FActiveMorph</text>
<polyline fill="none" stroke="black" points="66.5,-272.5 170.5,-272.5 "/>
<text text-anchor="start" x="74.5" y="-260.5" font-family="Helvetica,sans-Serif" font-size="10.00">+ Weight</text>
<polyline fill="none" stroke="black" points="66.5,-253.5 170.5,-253.5 "/>
<text text-anchor="middle" x="118.5" y="-241.5" font-family="Helvetica,sans-Serif" font-size="10.00"> </text>
</a>
</g>
</g>
<!-- Node2 -->
<g id="node2" class="node">
<title>Node2</title>
<g id="a_node2"><a xlink:href="../../db/d61/classSDK_1_1UMorphTarget.html" target="_top" xlink:title=" ">
<polygon fill="white" stroke="black" points="68.5,-400 68.5,-457 174.5,-457 174.5,-400 68.5,-400"/>
<text text-anchor="middle" x="121.5" y="-445" font-family="Helvetica,sans-Serif" font-size="10.00">SDK::UMorphTarget</text>
<polyline fill="none" stroke="black" points="68.5,-438 174.5,-438 "/>
<text text-anchor="start" x="76.5" y="-426" font-family="Helvetica,sans-Serif" font-size="10.00">+ MaterialSlotId</text>
<polyline fill="none" stroke="black" points="68.5,-419 174.5,-419 "/>
<text text-anchor="start" x="76.5" y="-407" font-family="Helvetica,sans-Serif" font-size="10.00">+ StaticClass()</text>
</a>
</g>
</g>
<!-- Node2&#45;&gt;Node1 -->
<g id="edge1" class="edge">
<title>Node2&#45;&gt;Node1</title>
<path fill="none" stroke="#404040" d="M120.99,-399.76C120.51,-373.38 119.77,-333.4 119.23,-303.65"/>
<polygon fill="none" stroke="#404040" points="119.23,-303.6 115.12,-297.67 119.01,-291.6 123.12,-297.52 119.23,-303.6"/>
<text text-anchor="middle" x="139" y="-329.5" font-family="Helvetica,sans-Serif" font-size="10.00"> +Target</text>
</g>
<!-- Node3 -->
<g id="node3" class="node">
<title>Node3</title>
<g id="a_node3"><a xlink:href="../../d9/d45/classSDK_1_1UObject.html" target="_top" xlink:title=" ">
<polygon fill="white" stroke="black" points="273.5,-543.5 273.5,-787.5 471.5,-787.5 471.5,-543.5 273.5,-543.5"/>
<text text-anchor="middle" x="372.5" y="-775.5" font-family="Helvetica,sans-Serif" font-size="10.00">SDK::UObject</text>
<polyline fill="none" stroke="black" points="273.5,-768.5 471.5,-768.5 "/>
<text text-anchor="start" x="281.5" y="-756.5" font-family="Helvetica,sans-Serif" font-size="10.00">+ ObjectInternalInteger</text>
<text text-anchor="start" x="281.5" y="-745.5" font-family="Helvetica,sans-Serif" font-size="10.00">+ NetIndex</text>
<polyline fill="none" stroke="black" points="273.5,-738.5 471.5,-738.5 "/>
<text text-anchor="start" x="281.5" y="-726.5" font-family="Helvetica,sans-Serif" font-size="10.00">+ UObject::GetName()</text>
<text text-anchor="start" x="281.5" y="-715.5" font-family="Helvetica,sans-Serif" font-size="10.00">+ GetFullName()</text>
<text text-anchor="start" x="281.5" y="-704.5" font-family="Helvetica,sans-Serif" font-size="10.00">+ IsA()</text>
<text text-anchor="start" x="281.5" y="-693.5" font-family="Helvetica,sans-Serif" font-size="10.00">+ ProcessEvent()</text>
<text text-anchor="start" x="281.5" y="-682.5" font-family="Helvetica,sans-Serif" font-size="10.00">+ STATIC_ProfNodeEvent()</text>
<text text-anchor="start" x="281.5" y="-671.5" font-family="Helvetica,sans-Serif" font-size="10.00">+ STATIC_ProfNodeSetDepthThreshold()</text>
<text text-anchor="start" x="281.5" y="-660.5" font-family="Helvetica,sans-Serif" font-size="10.00">+ STATIC_ProfNodeSetTimeThreshold</text>
<text text-anchor="start" x="281.5" y="-649.5" font-family="Helvetica,sans-Serif" font-size="10.00">Seconds()</text>
<text text-anchor="start" x="281.5" y="-638.5" font-family="Helvetica,sans-Serif" font-size="10.00">+ STATIC_ProfNodeStop()</text>
<text text-anchor="start" x="281.5" y="-627.5" font-family="Helvetica,sans-Serif" font-size="10.00">+ STATIC_ProfNodeStart()</text>
<text text-anchor="start" x="281.5" y="-616.5" font-family="Helvetica,sans-Serif" font-size="10.00">+ STATIC_GetStringFromGuid()</text>
<text text-anchor="start" x="281.5" y="-605.5" font-family="Helvetica,sans-Serif" font-size="10.00">and 298 more...</text>
<text text-anchor="start" x="281.5" y="-594.5" font-family="Helvetica,sans-Serif" font-size="10.00">+ GetGlobalObjects()</text>
<text text-anchor="start" x="281.5" y="-583.5" font-family="Helvetica,sans-Serif" font-size="10.00">+ FindObject()</text>
<text text-anchor="start" x="281.5" y="-572.5" font-family="Helvetica,sans-Serif" font-size="10.00">+ FindClass()</text>
<text text-anchor="start" x="281.5" y="-561.5" font-family="Helvetica,sans-Serif" font-size="10.00">+ GetObjectCasted()</text>
<text text-anchor="start" x="281.5" y="-550.5" font-family="Helvetica,sans-Serif" font-size="10.00">+ StaticClass()</text>
</a>
</g>
</g>
<!-- Node3&#45;&gt;Node2 -->
<g id="edge2" class="edge">
<title>Node3&#45;&gt;Node2</title>
<path fill="none" stroke="midnightblue" d="M264.74,-546.28C263.01,-545.15 261.26,-544.06 259.5,-543 233.09,-527.09 218,-542.33 192.5,-525 167.38,-507.93 147.7,-478.97 135.49,-457.41"/>
<polygon fill="none" stroke="midnightblue" points="263.1,-549.4 273.33,-552.17 267.06,-543.63 263.1,-549.4"/>
</g>
<!-- Node3&#45;&gt;Node3 -->
<g id="edge8" class="edge">
<title>Node3&#45;&gt;Node3</title>
<path fill="none" stroke="#404040" d="M471.51,-688.53C482.44,-684.15 489.5,-676.48 489.5,-665.5 489.5,-658.64 486.74,-653.07 482.01,-648.78"/>
<polygon fill="none" stroke="#404040" points="481.8,-648.66 474.59,-648.99 471.51,-642.47 478.72,-642.14 481.8,-648.66"/>
<text text-anchor="middle" x="529" y="-674" font-family="Helvetica,sans-Serif" font-size="10.00"> +Outer</text>
<text text-anchor="middle" x="529" y="-663" font-family="Helvetica,sans-Serif" font-size="10.00">+Linker</text>
<text text-anchor="middle" x="529" y="-652" font-family="Helvetica,sans-Serif" font-size="10.00">+ObjectArchetype</text>
</g>
<!-- Node9 -->
<g id="node9" class="node">
<title>Node9</title>
<g id="a_node9"><a xlink:href="../../d3/d79/classSDK_1_1TArray.html" target="_top" xlink:title=" ">
<polygon fill="white" stroke="black" points="516,-361.5 516,-495.5 677,-495.5 677,-361.5 516,-361.5"/>
<text text-anchor="middle" x="596.5" y="-483.5" font-family="Helvetica,sans-Serif" font-size="10.00">SDK::TArray&lt; SDK::UObject * &gt;</text>
<polyline fill="none" stroke="black" points="516,-476.5 677,-476.5 "/>
<text text-anchor="start" x="524" y="-464.5" font-family="Helvetica,sans-Serif" font-size="10.00">&#45; Count</text>
<text text-anchor="start" x="524" y="-453.5" font-family="Helvetica,sans-Serif" font-size="10.00">&#45; Max</text>
<polyline fill="none" stroke="black" points="516,-446.5 677,-446.5 "/>
<text text-anchor="start" x="524" y="-434.5" font-family="Helvetica,sans-Serif" font-size="10.00">+ TArray()</text>
<text text-anchor="start" x="524" y="-423.5" font-family="Helvetica,sans-Serif" font-size="10.00">+ Num()</text>
<text text-anchor="start" x="524" y="-412.5" font-family="Helvetica,sans-Serif" font-size="10.00">+ operator[]()</text>
<text text-anchor="start" x="524" y="-401.5" font-family="Helvetica,sans-Serif" font-size="10.00">+ operator[]()</text>
<text text-anchor="start" x="524" y="-390.5" font-family="Helvetica,sans-Serif" font-size="10.00">+ IsValidIndex()</text>
<text text-anchor="start" x="524" y="-379.5" font-family="Helvetica,sans-Serif" font-size="10.00">+ GetByIndex()</text>
<text text-anchor="start" x="524" y="-368.5" font-family="Helvetica,sans-Serif" font-size="10.00">+ GetByIndex()</text>
</a>
</g>
</g>
<!-- Node3&#45;&gt;Node9 -->
<g id="edge10" class="edge">
<title>Node3&#45;&gt;Node9</title>
<path fill="none" stroke="#404040" d="M471.68,-568.25C485.89,-553.92 500.19,-539.19 513.5,-525 519.54,-518.55 525.73,-511.78 531.88,-504.93"/>
<polygon fill="none" stroke="#404040" points="532.23,-504.54 533.24,-497.4 540.21,-495.58 539.21,-502.72 532.23,-504.54"/>
<text text-anchor="middle" x="536.5" y="-517" font-family="Helvetica,sans-Serif" font-size="10.00"> &#45;Data</text>
</g>
<!-- Node11 -->
<g id="node11" class="node">
<title>Node11</title>
<g id="a_node11"><a xlink:href="../../d7/d85/classSDK_1_1UClass.html" target="_top" xlink:title=" ">
<polygon fill="white" stroke="black" points="277,-0.5 277,-90.5 398,-90.5 398,-0.5 277,-0.5"/>
<text text-anchor="middle" x="337.5" y="-78.5" font-family="Helvetica,sans-Serif" font-size="10.00">SDK::UClass</text>
<polyline fill="none" stroke="black" points="277,-71.5 398,-71.5 "/>
<text text-anchor="start" x="285" y="-59.5" font-family="Helvetica,sans-Serif" font-size="10.00">+ UnknownData00</text>
<text text-anchor="start" x="285" y="-48.5" font-family="Helvetica,sans-Serif" font-size="10.00">+ UnknownData01</text>
<polyline fill="none" stroke="black" points="277,-41.5 398,-41.5 "/>
<text text-anchor="start" x="285" y="-29.5" font-family="Helvetica,sans-Serif" font-size="10.00">+ CreateDefaultObject()</text>
<text text-anchor="start" x="285" y="-18.5" font-family="Helvetica,sans-Serif" font-size="10.00">+ CreateDefaultObject()</text>
<text text-anchor="start" x="285" y="-7.5" font-family="Helvetica,sans-Serif" font-size="10.00">+ StaticClass()</text>
</a>
</g>
</g>
<!-- Node3&#45;&gt;Node11 -->
<g id="edge20" class="edge">
<title>Node3&#45;&gt;Node11</title>
<path fill="none" stroke="#404040" d="M277.62,-543.2C240.44,-493.38 206.5,-443.95 206.5,-429.5 206.5,-429.5 206.5,-429.5 206.5,-156 206.5,-120.34 235.44,-94.01 266.11,-76.12"/>
<polygon fill="none" stroke="#404040" points="266.47,-75.92 269.8,-69.53 276.98,-70.14 273.65,-76.54 266.47,-75.92"/>
<text text-anchor="middle" x="254" y="-260.5" font-family="Helvetica,sans-Serif" font-size="10.00"> +ClassDefaultObject</text>
</g>
<!-- Node14 -->
<g id="node14" class="node">
<title>Node14</title>
<g id="a_node14"><a xlink:href="../../de/dd6/classSDK_1_1UField.html" target="_top" xlink:title=" ">
<polygon fill="white" stroke="black" points="366,-400 366,-457 449,-457 449,-400 366,-400"/>
<text text-anchor="middle" x="407.5" y="-445" font-family="Helvetica,sans-Serif" font-size="10.00">SDK::UField</text>
<polyline fill="none" stroke="black" points="366,-438 449,-438 "/>
<text text-anchor="middle" x="407.5" y="-426" font-family="Helvetica,sans-Serif" font-size="10.00"> </text>
<polyline fill="none" stroke="black" points="366,-419 449,-419 "/>
<text text-anchor="start" x="374" y="-407" font-family="Helvetica,sans-Serif" font-size="10.00">+ StaticClass()</text>
</a>
</g>
</g>
<!-- Node3&#45;&gt;Node14 -->
<g id="edge17" class="edge">
<title>Node3&#45;&gt;Node14</title>
<path fill="none" stroke="midnightblue" d="M392.08,-533.01C396.36,-504.27 400.48,-476.66 403.38,-457.19"/>
<polygon fill="none" stroke="midnightblue" points="388.58,-532.81 390.56,-543.21 395.5,-533.84 388.58,-532.81"/>
</g>
<!-- Node4 -->
<g id="node4" class="node">
<title>Node4</title>
<g id="a_node4"><a xlink:href="../../d0/d22/structSDK_1_1FQWord.html" target="_top" xlink:title=" ">
<polygon fill="white" stroke="black" points="320.5,-885 320.5,-953 400.5,-953 400.5,-885 320.5,-885"/>
<text text-anchor="middle" x="360.5" y="-941" font-family="Helvetica,sans-Serif" font-size="10.00">SDK::FQWord</text>
<polyline fill="none" stroke="black" points="320.5,-934 400.5,-934 "/>
<text text-anchor="start" x="328.5" y="-922" font-family="Helvetica,sans-Serif" font-size="10.00">+ A</text>
<text text-anchor="start" x="328.5" y="-911" font-family="Helvetica,sans-Serif" font-size="10.00">+ B</text>
<polyline fill="none" stroke="black" points="320.5,-904 400.5,-904 "/>
<text text-anchor="middle" x="360.5" y="-892" font-family="Helvetica,sans-Serif" font-size="10.00"> </text>
</a>
</g>
</g>
<!-- Node4&#45;&gt;Node3 -->
<g id="edge3" class="edge">
<title>Node4&#45;&gt;Node3</title>
<path fill="none" stroke="#404040" d="M362.08,-884.86C363.14,-862.57 364.62,-831.56 366.14,-799.9"/>
<polygon fill="none" stroke="#404040" points="366.14,-799.74 362.43,-793.55 366.71,-787.75 370.42,-793.93 366.14,-799.74"/>
<text text-anchor="middle" x="397.5" y="-820" font-family="Helvetica,sans-Serif" font-size="10.00"> +ObjectFlags</text>
</g>
<!-- Node5 -->
<g id="node5" class="node">
<title>Node5</title>
<g id="a_node5"><a xlink:href="../../d0/db6/structSDK_1_1FName.html" target="_top" xlink:title=" ">
<polygon fill="white" stroke="black" points="189,-857.5 189,-980.5 296,-980.5 296,-857.5 189,-857.5"/>
<text text-anchor="middle" x="242.5" y="-968.5" font-family="Helvetica,sans-Serif" font-size="10.00">SDK::FName</text>
<polyline fill="none" stroke="black" points="189,-961.5 296,-961.5 "/>
<text text-anchor="start" x="197" y="-949.5" font-family="Helvetica,sans-Serif" font-size="10.00">+ Index</text>
<text text-anchor="start" x="197" y="-938.5" font-family="Helvetica,sans-Serif" font-size="10.00">+ Number</text>
<polyline fill="none" stroke="black" points="189,-931.5 296,-931.5 "/>
<text text-anchor="start" x="197" y="-919.5" font-family="Helvetica,sans-Serif" font-size="10.00">+ FName()</text>
<text text-anchor="start" x="197" y="-908.5" font-family="Helvetica,sans-Serif" font-size="10.00">+ FName()</text>
<text text-anchor="start" x="197" y="-897.5" font-family="Helvetica,sans-Serif" font-size="10.00">+ FName()</text>
<text text-anchor="start" x="197" y="-886.5" font-family="Helvetica,sans-Serif" font-size="10.00">+ GetName()</text>
<text text-anchor="start" x="197" y="-875.5" font-family="Helvetica,sans-Serif" font-size="10.00">+ operator==()</text>
<text text-anchor="start" x="197" y="-864.5" font-family="Helvetica,sans-Serif" font-size="10.00">+ GetGlobalNames()</text>
</a>
</g>
</g>
<!-- Node5&#45;&gt;Node2 -->
<g id="edge21" class="edge">
<title>Node5&#45;&gt;Node2</title>
<path fill="none" stroke="#404040" d="M192.82,-857.26C178.37,-836.47 164.16,-812.3 155.5,-788 116.18,-677.62 116.21,-536.71 119.05,-469.13"/>
<polygon fill="none" stroke="#404040" points="119.05,-469 115.34,-462.81 119.62,-457.01 123.33,-463.19 119.05,-469"/>
<text text-anchor="middle" x="210" y="-663" font-family="Helvetica,sans-Serif" font-size="10.00"> +ScalarParameterName</text>
</g>
<!-- Node5&#45;&gt;Node3 -->
<g id="edge4" class="edge">
<title>Node5&#45;&gt;Node3</title>
<path fill="none" stroke="#404040" d="M273.8,-857.44C283.08,-839.49 293.62,-819.1 304.28,-798.48"/>
<polygon fill="none" stroke="#404040" points="304.35,-798.35 303.55,-791.18 309.86,-787.69 310.66,-794.85 304.35,-798.35"/>
<text text-anchor="middle" x="318.5" y="-820" font-family="Helvetica,sans-Serif" font-size="10.00"> +Name</text>
</g>
<!-- Node6 -->
<g id="node6" class="node">
<title>Node6</title>
<g id="a_node6"><a xlink:href="../../d3/d79/classSDK_1_1TArray.html" target="_top" xlink:title=" ">
<polygon fill="white" stroke="black" points="152.5,-1163.5 152.5,-1297.5 332.5,-1297.5 332.5,-1163.5 152.5,-1163.5"/>
<text text-anchor="middle" x="242.5" y="-1285.5" font-family="Helvetica,sans-Serif" font-size="10.00">SDK::TArray&lt; SDK::FNameEntry * &gt;</text>
<polyline fill="none" stroke="black" points="152.5,-1278.5 332.5,-1278.5 "/>
<text text-anchor="start" x="160.5" y="-1266.5" font-family="Helvetica,sans-Serif" font-size="10.00">&#45; Count</text>
<text text-anchor="start" x="160.5" y="-1255.5" font-family="Helvetica,sans-Serif" font-size="10.00">&#45; Max</text>
<polyline fill="none" stroke="black" points="152.5,-1248.5 332.5,-1248.5 "/>
<text text-anchor="start" x="160.5" y="-1236.5" font-family="Helvetica,sans-Serif" font-size="10.00">+ TArray()</text>
<text text-anchor="start" x="160.5" y="-1225.5" font-family="Helvetica,sans-Serif" font-size="10.00">+ Num()</text>
<text text-anchor="start" x="160.5" y="-1214.5" font-family="Helvetica,sans-Serif" font-size="10.00">+ operator[]()</text>
<text text-anchor="start" x="160.5" y="-1203.5" font-family="Helvetica,sans-Serif" font-size="10.00">+ operator[]()</text>
<text text-anchor="start" x="160.5" y="-1192.5" font-family="Helvetica,sans-Serif" font-size="10.00">+ IsValidIndex()</text>
<text text-anchor="start" x="160.5" y="-1181.5" font-family="Helvetica,sans-Serif" font-size="10.00">+ GetByIndex()</text>
<text text-anchor="start" x="160.5" y="-1170.5" font-family="Helvetica,sans-Serif" font-size="10.00">+ GetByIndex()</text>
</a>
</g>
</g>
<!-- Node6&#45;&gt;Node5 -->
<g id="edge5" class="edge">
<title>Node6&#45;&gt;Node5</title>
<path fill="none" stroke="#404040" d="M242.5,-1163.48C242.5,-1113.36 242.5,-1044.46 242.5,-992.75"/>
<polygon fill="none" stroke="#404040" points="242.5,-992.66 238.5,-986.66 242.5,-980.66 246.5,-986.66 242.5,-992.66"/>
<text text-anchor="middle" x="267" y="-1069.5" font-family="Helvetica,sans-Serif" font-size="10.00"> +GNames</text>
</g>
<!-- Node7 -->
<g id="node7" class="node">
<title>Node7</title>
<g id="a_node7"><a xlink:href="../../d7/ddf/classSDK_1_1FNameEntry.html" target="_top" xlink:title=" ">
<polygon fill="white" stroke="black" points="137,-1384 137,-1452 236,-1452 236,-1384 137,-1384"/>
<text text-anchor="middle" x="186.5" y="-1440" font-family="Helvetica,sans-Serif" font-size="10.00">SDK::FNameEntry</text>
<polyline fill="none" stroke="black" points="137,-1433 236,-1433 "/>
<text text-anchor="start" x="145" y="-1421" font-family="Helvetica,sans-Serif" font-size="10.00">+ UnknownData00</text>
<text text-anchor="start" x="145" y="-1410" font-family="Helvetica,sans-Serif" font-size="10.00">+ name</text>
<polyline fill="none" stroke="black" points="137,-1403 236,-1403 "/>
<text text-anchor="start" x="145" y="-1391" font-family="Helvetica,sans-Serif" font-size="10.00">+ GetName()</text>
</a>
</g>
</g>
<!-- Node7&#45;&gt;Node6 -->
<g id="edge6" class="edge">
<title>Node7&#45;&gt;Node6</title>
<path fill="none" stroke="#404040" d="M196.51,-1383.84C202.76,-1363.14 211.08,-1335.58 218.92,-1309.6"/>
<polygon fill="none" stroke="#404040" points="219.02,-1309.29 216.92,-1302.39 222.48,-1297.8 224.58,-1304.7 219.02,-1309.29"/>
<text text-anchor="middle" x="230.5" y="-1319" font-family="Helvetica,sans-Serif" font-size="10.00"> &#45;Data</text>
</g>
<!-- Node8 -->
<g id="node8" class="node">
<title>Node8</title>
<g id="a_node8"><a xlink:href="../../d3/d79/classSDK_1_1TArray.html" target="_top" xlink:title=" ">
<polygon fill="white" stroke="black" points="254,-1345.5 254,-1490.5 351,-1490.5 351,-1345.5 254,-1345.5"/>
<text text-anchor="middle" x="302.5" y="-1478.5" font-family="Helvetica,sans-Serif" font-size="10.00">SDK::TArray&lt; T &gt;</text>
<polyline fill="none" stroke="black" points="254,-1471.5 351,-1471.5 "/>
<text text-anchor="start" x="262" y="-1459.5" font-family="Helvetica,sans-Serif" font-size="10.00">&#45; Data</text>
<text text-anchor="start" x="262" y="-1448.5" font-family="Helvetica,sans-Serif" font-size="10.00">&#45; Count</text>
<text text-anchor="start" x="262" y="-1437.5" font-family="Helvetica,sans-Serif" font-size="10.00">&#45; Max</text>
<polyline fill="none" stroke="black" points="254,-1430.5 351,-1430.5 "/>
<text text-anchor="start" x="262" y="-1418.5" font-family="Helvetica,sans-Serif" font-size="10.00">+ TArray()</text>
<text text-anchor="start" x="262" y="-1407.5" font-family="Helvetica,sans-Serif" font-size="10.00">+ Num()</text>
<text text-anchor="start" x="262" y="-1396.5" font-family="Helvetica,sans-Serif" font-size="10.00">+ operator[]()</text>
<text text-anchor="start" x="262" y="-1385.5" font-family="Helvetica,sans-Serif" font-size="10.00">+ operator[]()</text>
<text text-anchor="start" x="262" y="-1374.5" font-family="Helvetica,sans-Serif" font-size="10.00">+ IsValidIndex()</text>
<text text-anchor="start" x="262" y="-1363.5" font-family="Helvetica,sans-Serif" font-size="10.00">+ GetByIndex()</text>
<text text-anchor="start" x="262" y="-1352.5" font-family="Helvetica,sans-Serif" font-size="10.00">+ GetByIndex()</text>
</a>
</g>
</g>
<!-- Node8&#45;&gt;Node6 -->
<g id="edge7" class="edge">
<title>Node8&#45;&gt;Node6</title>
<path fill="none" stroke="orange" d="M276.18,-1335.62C272.06,-1322.9 267.85,-1309.89 263.87,-1297.56"/>
<polygon fill="orange" stroke="orange" points="272.89,-1336.84 279.3,-1345.28 279.55,-1334.69 272.89,-1336.84"/>
<text text-anchor="middle" x="328" y="-1319" font-family="Helvetica,sans-Serif" font-size="10.00"> &lt; SDK::FNameEntry * &gt;</text>
</g>
<!-- Node8&#45;&gt;Node9 -->
<g id="edge11" class="edge">
<title>Node8&#45;&gt;Node9</title>
<path fill="none" stroke="orange" d="M360.92,-1407.22C446.65,-1389.16 596.5,-1341.8 596.5,-1231.5 596.5,-1231.5 596.5,-1231.5 596.5,-664.5 596.5,-607.48 596.5,-542.69 596.5,-495.59"/>
<polygon fill="orange" stroke="orange" points="360.15,-1403.81 351.05,-1409.23 361.55,-1410.67 360.15,-1403.81"/>
<text text-anchor="middle" x="642" y="-916.5" font-family="Helvetica,sans-Serif" font-size="10.00"> &lt; SDK::UObject * &gt;</text>
</g>
<!-- Node15 -->
<g id="node15" class="node">
<title>Node15</title>
<g id="a_node15"><a xlink:href="../../d3/d79/classSDK_1_1TArray.html" target="_top" xlink:title=" ">
<polygon fill="white" stroke="black" points="0,-999.5 0,-1144.5 101,-1144.5 101,-999.5 0,-999.5"/>
<text text-anchor="middle" x="50.5" y="-1132.5" font-family="Helvetica,sans-Serif" font-size="10.00">SDK::TArray&lt; int &gt;</text>
<polyline fill="none" stroke="black" points="0,-1125.5 101,-1125.5 "/>
<text text-anchor="start" x="8" y="-1113.5" font-family="Helvetica,sans-Serif" font-size="10.00">&#45; Data</text>
<text text-anchor="start" x="8" y="-1102.5" font-family="Helvetica,sans-Serif" font-size="10.00">&#45; Count</text>
<text text-anchor="start" x="8" y="-1091.5" font-family="Helvetica,sans-Serif" font-size="10.00">&#45; Max</text>
<polyline fill="none" stroke="black" points="0,-1084.5 101,-1084.5 "/>
<text text-anchor="start" x="8" y="-1072.5" font-family="Helvetica,sans-Serif" font-size="10.00">+ TArray()</text>
<text text-anchor="start" x="8" y="-1061.5" font-family="Helvetica,sans-Serif" font-size="10.00">+ Num()</text>
<text text-anchor="start" x="8" y="-1050.5" font-family="Helvetica,sans-Serif" font-size="10.00">+ operator[]()</text>
<text text-anchor="start" x="8" y="-1039.5" font-family="Helvetica,sans-Serif" font-size="10.00">+ operator[]()</text>
<text text-anchor="start" x="8" y="-1028.5" font-family="Helvetica,sans-Serif" font-size="10.00">+ IsValidIndex()</text>
<text text-anchor="start" x="8" y="-1017.5" font-family="Helvetica,sans-Serif" font-size="10.00">+ GetByIndex()</text>
<text text-anchor="start" x="8" y="-1006.5" font-family="Helvetica,sans-Serif" font-size="10.00">+ GetByIndex()</text>
</a>
</g>
</g>
<!-- Node8&#45;&gt;Node15 -->
<g id="edge23" class="edge">
<title>Node8&#45;&gt;Node15</title>
<path fill="none" stroke="orange" d="M245.7,-1345.8C245.3,-1345.53 244.9,-1345.26 244.5,-1345 219.06,-1328.35 205.48,-1341.02 178.5,-1327 160.57,-1317.69 155.49,-1314.26 143.5,-1298 109.45,-1251.82 85.36,-1191.35 70.24,-1144.73"/>
<polygon fill="orange" stroke="orange" points="243.79,-1348.74 253.88,-1351.98 248.01,-1343.16 243.79,-1348.74"/>
<text text-anchor="middle" x="194.5" y="-1319" font-family="Helvetica,sans-Serif" font-size="10.00"> &lt; int &gt;</text>
</g>
<!-- Node9&#45;&gt;Node3 -->
<g id="edge9" class="edge">
<title>Node9&#45;&gt;Node3</title>
<path fill="none" stroke="#404040" d="M515.85,-491.12C513.06,-492.81 510.28,-494.44 507.5,-496 488.71,-506.54 478.89,-500.02 462.5,-514 455.42,-520.04 448.74,-526.79 442.47,-533.99"/>
<polygon fill="none" stroke="#404040" points="442.4,-534.07 441.66,-541.25 434.76,-543.32 435.5,-536.15 442.4,-534.07"/>
<text text-anchor="middle" x="488" y="-517" font-family="Helvetica,sans-Serif" font-size="10.00"> +GObjects</text>
</g>
<!-- Node10 -->
<g id="node10" class="node">
<title>Node10</title>
<g id="a_node10"><a xlink:href="../../d9/dfa/structSDK_1_1FPointer.html" target="_top" xlink:title=" ">
<polygon fill="white" stroke="black" points="418.5,-885 418.5,-953 516.5,-953 516.5,-885 418.5,-885"/>
<text text-anchor="middle" x="467.5" y="-941" font-family="Helvetica,sans-Serif" font-size="10.00">SDK::FPointer</text>
<polyline fill="none" stroke="black" points="418.5,-934 516.5,-934 "/>
<text text-anchor="start" x="426.5" y="-922" font-family="Helvetica,sans-Serif" font-size="10.00">+ Dummy</text>
<text text-anchor="start" x="426.5" y="-911" font-family="Helvetica,sans-Serif" font-size="10.00">+ UnknownData00</text>
<polyline fill="none" stroke="black" points="418.5,-904 516.5,-904 "/>
<text text-anchor="middle" x="467.5" y="-892" font-family="Helvetica,sans-Serif" font-size="10.00"> </text>
</a>
</g>
</g>
<!-- Node10&#45;&gt;Node3 -->
<g id="edge12" class="edge">
<title>Node10&#45;&gt;Node3</title>
<path fill="none" stroke="#404040" d="M458.12,-884.86C451.53,-862.41 442.19,-832.17 432.5,-806 431.62,-803.63 430.73,-801.25 429.82,-798.85"/>
<polygon fill="none" stroke="#404040" points="429.78,-798.75 423.89,-794.59 425.46,-787.55 431.35,-791.71 429.78,-798.75"/>
<text text-anchor="middle" x="478" y="-831" font-family="Helvetica,sans-Serif" font-size="10.00"> +StateFrame</text>
<text text-anchor="middle" x="478" y="-820" font-family="Helvetica,sans-Serif" font-size="10.00">+VfTableObject</text>
<text text-anchor="middle" x="478" y="-809" font-family="Helvetica,sans-Serif" font-size="10.00">+LinkerIndex</text>
</g>
<!-- Node11&#45;&gt;Node3 -->
<g id="edge13" class="edge">
<title>Node11&#45;&gt;Node3</title>
<path fill="none" stroke="#404040" d="M337.5,-90.72C337.5,-110.67 337.5,-134.52 337.5,-156 337.5,-429.5 337.5,-429.5 337.5,-429.5 337.5,-462.66 340.95,-498.16 345.68,-531.26"/>
<polygon fill="none" stroke="#404040" points="345.72,-531.48 350.56,-536.82 347.48,-543.34 342.64,-538 345.72,-531.48"/>
<text text-anchor="middle" x="355" y="-260.5" font-family="Helvetica,sans-Serif" font-size="10.00"> +Class</text>
</g>
<!-- Node12 -->
<g id="node12" class="node">
<title>Node12</title>
<g id="a_node12"><a xlink:href="../../df/d72/classSDK_1_1UState.html" target="_top" xlink:title=" ">
<polygon fill="white" stroke="black" points="377.5,-128.5 377.5,-185.5 475.5,-185.5 475.5,-128.5 377.5,-128.5"/>
<text text-anchor="middle" x="426.5" y="-173.5" font-family="Helvetica,sans-Serif" font-size="10.00">SDK::UState</text>
<polyline fill="none" stroke="black" points="377.5,-166.5 475.5,-166.5 "/>
<text text-anchor="start" x="385.5" y="-154.5" font-family="Helvetica,sans-Serif" font-size="10.00">+ UnknownData00</text>
<polyline fill="none" stroke="black" points="377.5,-147.5 475.5,-147.5 "/>
<text text-anchor="start" x="385.5" y="-135.5" font-family="Helvetica,sans-Serif" font-size="10.00">+ StaticClass()</text>
</a>
</g>
</g>
<!-- Node12&#45;&gt;Node11 -->
<g id="edge14" class="edge">
<title>Node12&#45;&gt;Node11</title>
<path fill="none" stroke="midnightblue" d="M397.51,-120.33C389.83,-110.89 381.45,-100.58 373.46,-90.74"/>
<polygon fill="none" stroke="midnightblue" points="395.02,-122.82 404.04,-128.37 400.45,-118.4 395.02,-122.82"/>
</g>
<!-- Node13 -->
<g id="node13" class="node">
<title>Node13</title>
<g id="a_node13"><a xlink:href="../../d8/de9/classSDK_1_1UStruct.html" target="_top" xlink:title=" ">
<polygon fill="white" stroke="black" points="390.5,-223.5 390.5,-302.5 488.5,-302.5 488.5,-223.5 390.5,-223.5"/>
<text text-anchor="middle" x="439.5" y="-290.5" font-family="Helvetica,sans-Serif" font-size="10.00">SDK::UStruct</text>
<polyline fill="none" stroke="black" points="390.5,-283.5 488.5,-283.5 "/>
<text text-anchor="start" x="398.5" y="-271.5" font-family="Helvetica,sans-Serif" font-size="10.00">+ UnknownData00</text>
<text text-anchor="start" x="398.5" y="-260.5" font-family="Helvetica,sans-Serif" font-size="10.00">+ PropertySize</text>
<text text-anchor="start" x="398.5" y="-249.5" font-family="Helvetica,sans-Serif" font-size="10.00">+ UnknownData01</text>
<polyline fill="none" stroke="black" points="390.5,-242.5 488.5,-242.5 "/>
<text text-anchor="start" x="398.5" y="-230.5" font-family="Helvetica,sans-Serif" font-size="10.00">+ StaticClass()</text>
</a>
</g>
</g>
<!-- Node13&#45;&gt;Node12 -->
<g id="edge15" class="edge">
<title>Node13&#45;&gt;Node12</title>
<path fill="none" stroke="midnightblue" d="M433.4,-213.16C432.22,-203.74 431.02,-194.17 429.96,-185.72"/>
<polygon fill="none" stroke="midnightblue" points="429.95,-213.79 434.66,-223.27 436.89,-212.92 429.95,-213.79"/>
</g>
<!-- Node14&#45;&gt;Node13 -->
<g id="edge16" class="edge">
<title>Node14&#45;&gt;Node13</title>
<path fill="none" stroke="midnightblue" d="M410.28,-389.47C412.24,-369.01 415.44,-343.44 420.5,-321 421.85,-315 423.59,-308.73 425.47,-302.65"/>
<polygon fill="none" stroke="midnightblue" points="406.77,-389.38 409.36,-399.66 413.75,-390.01 406.77,-389.38"/>
</g>
<!-- Node14&#45;&gt;Node13 -->
<g id="edge19" class="edge">
<title>Node14&#45;&gt;Node13</title>
<path fill="none" stroke="#404040" d="M412.93,-399.76C417.48,-376.51 424.1,-342.7 429.59,-314.64"/>
<polygon fill="none" stroke="#404040" points="429.64,-314.39 426.86,-307.74 431.94,-302.62 434.72,-309.27 429.64,-314.39"/>
<text text-anchor="middle" x="456.5" y="-335" font-family="Helvetica,sans-Serif" font-size="10.00"> +SuperField</text>
<text text-anchor="middle" x="456.5" y="-324" font-family="Helvetica,sans-Serif" font-size="10.00">+Children</text>
</g>
<!-- Node14&#45;&gt;Node14 -->
<g id="edge18" class="edge">
<title>Node14&#45;&gt;Node14</title>
<path fill="none" stroke="#404040" d="M449.21,-445.11C459.41,-443.88 467,-438.34 467,-428.5 467,-422.96 464.6,-418.79 460.68,-415.98"/>
<polygon fill="none" stroke="#404040" points="460.51,-415.92 453.51,-417.67 449.21,-411.89 456.2,-410.13 460.51,-415.92"/>
<text text-anchor="middle" x="482.5" y="-426" font-family="Helvetica,sans-Serif" font-size="10.00"> +Next</text>
</g>
<!-- Node15&#45;&gt;Node2 -->
<g id="edge22" class="edge">
<title>Node15&#45;&gt;Node2</title>
<path fill="none" stroke="#404040" d="M55.53,-999.49C59.5,-946.11 65.53,-871.42 72.5,-806 85.61,-682.9 105.86,-537.78 115.71,-469.21"/>
<polygon fill="none" stroke="#404040" points="115.72,-469.19 112.61,-462.68 117.43,-457.31 120.53,-463.82 115.72,-469.19"/>
<text text-anchor="middle" x="116.5" y="-820" font-family="Helvetica,sans-Serif" font-size="10.00"> +MorphLODModels</text>
</g>
</g>
</svg>
        <g id="navigator" transform="translate(0 0)" fill="#404254">
                <rect fill="#f2f5e9" fill-opacity="0.5" stroke="#606060" stroke-width=".5" x="0" y="0" width="60" height="60"/>
                <use id="zoomplus" xlink:href="#zoomPlus" x="17" y="9" onmousedown="handleZoom(evt,'in')"/>
                <use id="zoomminus" xlink:href="#zoomMin" x="42" y="9" onmousedown="handleZoom(evt,'out')"/>
                <use id="reset" xlink:href="#resetDef" x="30" y="36" onmousedown="handleReset()"/>
                <g id="arrowUp" xlink:href="#dirArrow" transform="translate(30 24)" onmousedown="handlePan(0,-1)">
                  <use xlink:href="#rim" fill="#404040">
                        <set attributeName="fill" to="#808080" begin="arrowUp.mouseover" end="arrowUp.mouseout"/>
                  </use>
                  <path fill="none" stroke="white" stroke-width="1.5" d="M0,-3.0v7 M-2.5,-0.5L0,-3.0L2.5,-0.5"/>
                </g>
                <g id="arrowRight" xlink:href="#dirArrow" transform="rotate(90) translate(36 -43)" onmousedown="handlePan(1,0)">
                  <use xlink:href="#rim" fill="#404040">
                        <set attributeName="fill" to="#808080" begin="arrowRight.mouseover" end="arrowRight.mouseout"/>
                  </use>
                  <path fill="none" stroke="white" stroke-width="1.5" d="M0,-3.0v7 M-2.5,-0.5L0,-3.0L2.5,-0.5"/>
                </g>
                <g id="arrowDown" xlink:href="#dirArrow" transform="rotate(180) translate(-30 -48)" onmousedown="handlePan(0,1)">
                  <use xlink:href="#rim" fill="#404040">
                        <set attributeName="fill" to="#808080" begin="arrowDown.mouseover" end="arrowDown.mouseout"/>
                  </use>
                  <path fill="none" stroke="white" stroke-width="1.5" d="M0,-3.0v7 M-2.5,-0.5L0,-3.0L2.5,-0.5"/>
                </g>
                <g id="arrowLeft" xlink:href="#dirArrow" transform="rotate(270) translate(-36 17)" onmousedown="handlePan(-1,0)">
                  <use xlink:href="#rim" fill="#404040">
                        <set attributeName="fill" to="#808080" begin="arrowLeft.mouseover" end="arrowLeft.mouseout"/>
                  </use>
                  <path fill="none" stroke="white" stroke-width="1.5" d="M0,-3.0v7 M-2.5,-0.5L0,-3.0L2.5,-0.5"/>
                </g>
        </g>
        <svg viewBox="0 0 15 15" width="100%" height="30px" preserveAspectRatio="xMaxYMin meet">
         <g id="arrow_out" transform="scale(0.3 0.3)">
          <a xlink:href="structSDK_1_1FActiveMorph__coll__graph_org.svg" target="_base">
           <rect id="button" ry="5" rx="5" y="6" x="6" height="38" width="38"
                fill="#f2f5e9" fill-opacity="0.5" stroke="#606060" stroke-width="1.0"/>
           <path id="arrow"
             d="M 11.500037,31.436501 C 11.940474,20.09759 22.043105,11.32322 32.158766,21.979434 L 37.068811,17.246167 C 37.068811,17.246167 37.088388,32 37.088388,32 L 22.160133,31.978069 C 22.160133,31.978069 26.997745,27.140456 26.997745,27.140456 C 18.528582,18.264221 13.291696,25.230495 11.500037,31.436501 z"
             style="fill:#404040;"/>
          </a>
         </g>
        </svg>
</svg>
