<?xml version="1.0" encoding="UTF-8" standalone="no"?>
<!DOCTYPE svg PUBLIC "-//W3C//DTD SVG 1.1//EN"
 "http://www.w3.org/Graphics/SVG/1.1/DTD/svg11.dtd">
<!-- Generated by graphviz version 2.41.20171026.1811 (20171026.1811)
 -->
<!-- Title: SDK::FActionNotify_SM_AnimEventData Pages: 1 -->
<svg width="944pt" height="1597pt"
 viewBox="0.00 0.00 943.50 1597.00" xmlns="http://www.w3.org/2000/svg" xmlns:xlink="http://www.w3.org/1999/xlink">
<g id="graph0" class="graph" transform="scale(1 1) rotate(0) translate(4 1593)">
<title>SDK::FActionNotify_SM_AnimEventData</title>
<polygon fill="white" stroke="transparent" points="-4,4 -4,-1593 939.5,-1593 939.5,4 -4,4"/>
<!-- Node1 -->
<g id="node1" class="node">
<title>Node1</title>
<g id="a_node1"><a xlink:title=" ">
<polygon fill="#bfbfbf" stroke="black" points="630,-128.5 630,-196.5 741,-196.5 741,-128.5 630,-128.5"/>
<text text-anchor="start" x="638" y="-184.5" font-family="Helvetica,sans-Serif" font-size="10.00">SDK::FActionNotify</text>
<text text-anchor="middle" x="685.5" y="-173.5" font-family="Helvetica,sans-Serif" font-size="10.00">_SM_AnimEventData</text>
<polyline fill="none" stroke="black" points="630,-166.5 741,-166.5 "/>
<text text-anchor="middle" x="685.5" y="-154.5" font-family="Helvetica,sans-Serif" font-size="10.00"> </text>
<polyline fill="none" stroke="black" points="630,-147.5 741,-147.5 "/>
<text text-anchor="middle" x="685.5" y="-135.5" font-family="Helvetica,sans-Serif" font-size="10.00"> </text>
</a>
</g>
</g>
<!-- Node2 -->
<g id="node2" class="node">
<title>Node2</title>
<g id="a_node2"><a xlink:href="../../d3/d79/classSDK_1_1TArray.html" target="_top" xlink:title=" ">
<polygon fill="white" stroke="black" points="762,-691 762,-836 869,-836 869,-691 762,-691"/>
<text text-anchor="start" x="770" y="-824" font-family="Helvetica,sans-Serif" font-size="10.00">SDK::TArray&lt; struct</text>
<text text-anchor="middle" x="815.5" y="-813" font-family="Helvetica,sans-Serif" font-size="10.00"> SDK::FPointer &gt;</text>
<polyline fill="none" stroke="black" points="762,-806 869,-806 "/>
<text text-anchor="start" x="770" y="-794" font-family="Helvetica,sans-Serif" font-size="10.00">&#45; Count</text>
<text text-anchor="start" x="770" y="-783" font-family="Helvetica,sans-Serif" font-size="10.00">&#45; Max</text>
<polyline fill="none" stroke="black" points="762,-776 869,-776 "/>
<text text-anchor="start" x="770" y="-764" font-family="Helvetica,sans-Serif" font-size="10.00">+ TArray()</text>
<text text-anchor="start" x="770" y="-753" font-family="Helvetica,sans-Serif" font-size="10.00">+ Num()</text>
<text text-anchor="start" x="770" y="-742" font-family="Helvetica,sans-Serif" font-size="10.00">+ operator[]()</text>
<text text-anchor="start" x="770" y="-731" font-family="Helvetica,sans-Serif" font-size="10.00">+ operator[]()</text>
<text text-anchor="start" x="770" y="-720" font-family="Helvetica,sans-Serif" font-size="10.00">+ IsValidIndex()</text>
<text text-anchor="start" x="770" y="-709" font-family="Helvetica,sans-Serif" font-size="10.00">+ GetByIndex()</text>
<text text-anchor="start" x="770" y="-698" font-family="Helvetica,sans-Serif" font-size="10.00">+ GetByIndex()</text>
</a>
</g>
</g>
<!-- Node2&#45;&gt;Node1 -->
<g id="edge1" class="edge">
<title>Node2&#45;&gt;Node1</title>
<path fill="none" stroke="#404040" d="M824.01,-690.89C830.36,-620.78 834.96,-511.34 815.5,-419 795.06,-322.03 776.27,-300.1 725.5,-215 723.84,-212.22 722.06,-209.43 720.2,-206.65"/>
<polygon fill="none" stroke="#404040" points="720.12,-206.54 713.39,-203.94 713.19,-196.73 719.92,-199.33 720.12,-206.54"/>
<text text-anchor="middle" x="877" y="-427.5" font-family="Helvetica,sans-Serif" font-size="10.00"> +AnimEventsPointerArray</text>
</g>
<!-- Node3 -->
<g id="node3" class="node">
<title>Node3</title>
<g id="a_node3"><a xlink:href="../../d9/dfa/structSDK_1_1FPointer.html" target="_top" xlink:title=" ">
<polygon fill="white" stroke="black" points="425.5,-983 425.5,-1051 523.5,-1051 523.5,-983 425.5,-983"/>
<text text-anchor="middle" x="474.5" y="-1039" font-family="Helvetica,sans-Serif" font-size="10.00">SDK::FPointer</text>
<polyline fill="none" stroke="black" points="425.5,-1032 523.5,-1032 "/>
<text text-anchor="start" x="433.5" y="-1020" font-family="Helvetica,sans-Serif" font-size="10.00">+ Dummy</text>
<text text-anchor="start" x="433.5" y="-1009" font-family="Helvetica,sans-Serif" font-size="10.00">+ UnknownData00</text>
<polyline fill="none" stroke="black" points="425.5,-1002 523.5,-1002 "/>
<text text-anchor="middle" x="474.5" y="-990" font-family="Helvetica,sans-Serif" font-size="10.00"> </text>
</a>
</g>
</g>
<!-- Node3&#45;&gt;Node2 -->
<g id="edge2" class="edge">
<title>Node3&#45;&gt;Node2</title>
<path fill="none" stroke="#404040" d="M523.65,-1007.03C586.85,-992.82 695.36,-958.91 753.5,-886 762.94,-874.17 771.53,-860.67 779.1,-847.07"/>
<polygon fill="none" stroke="#404040" points="779.28,-846.75 778.59,-839.57 784.96,-836.18 785.64,-843.36 779.28,-846.75"/>
<text text-anchor="middle" x="750.5" y="-918" font-family="Helvetica,sans-Serif" font-size="10.00"> &#45;Data</text>
</g>
<!-- Node10 -->
<g id="node10" class="node">
<title>Node10</title>
<g id="a_node10"><a xlink:href="../../d9/d45/classSDK_1_1UObject.html" target="_top" xlink:title=" ">
<polygon fill="white" stroke="black" points="145.5,-641.5 145.5,-885.5 343.5,-885.5 343.5,-641.5 145.5,-641.5"/>
<text text-anchor="middle" x="244.5" y="-873.5" font-family="Helvetica,sans-Serif" font-size="10.00">SDK::UObject</text>
<polyline fill="none" stroke="black" points="145.5,-866.5 343.5,-866.5 "/>
<text text-anchor="start" x="153.5" y="-854.5" font-family="Helvetica,sans-Serif" font-size="10.00">+ ObjectInternalInteger</text>
<text text-anchor="start" x="153.5" y="-843.5" font-family="Helvetica,sans-Serif" font-size="10.00">+ NetIndex</text>
<polyline fill="none" stroke="black" points="145.5,-836.5 343.5,-836.5 "/>
<text text-anchor="start" x="153.5" y="-824.5" font-family="Helvetica,sans-Serif" font-size="10.00">+ UObject::GetName()</text>
<text text-anchor="start" x="153.5" y="-813.5" font-family="Helvetica,sans-Serif" font-size="10.00">+ GetFullName()</text>
<text text-anchor="start" x="153.5" y="-802.5" font-family="Helvetica,sans-Serif" font-size="10.00">+ IsA()</text>
<text text-anchor="start" x="153.5" y="-791.5" font-family="Helvetica,sans-Serif" font-size="10.00">+ ProcessEvent()</text>
<text text-anchor="start" x="153.5" y="-780.5" font-family="Helvetica,sans-Serif" font-size="10.00">+ STATIC_ProfNodeEvent()</text>
<text text-anchor="start" x="153.5" y="-769.5" font-family="Helvetica,sans-Serif" font-size="10.00">+ STATIC_ProfNodeSetDepthThreshold()</text>
<text text-anchor="start" x="153.5" y="-758.5" font-family="Helvetica,sans-Serif" font-size="10.00">+ STATIC_ProfNodeSetTimeThreshold</text>
<text text-anchor="start" x="153.5" y="-747.5" font-family="Helvetica,sans-Serif" font-size="10.00">Seconds()</text>
<text text-anchor="start" x="153.5" y="-736.5" font-family="Helvetica,sans-Serif" font-size="10.00">+ STATIC_ProfNodeStop()</text>
<text text-anchor="start" x="153.5" y="-725.5" font-family="Helvetica,sans-Serif" font-size="10.00">+ STATIC_ProfNodeStart()</text>
<text text-anchor="start" x="153.5" y="-714.5" font-family="Helvetica,sans-Serif" font-size="10.00">+ STATIC_GetStringFromGuid()</text>
<text text-anchor="start" x="153.5" y="-703.5" font-family="Helvetica,sans-Serif" font-size="10.00">and 298 more...</text>
<text text-anchor="start" x="153.5" y="-692.5" font-family="Helvetica,sans-Serif" font-size="10.00">+ GetGlobalObjects()</text>
<text text-anchor="start" x="153.5" y="-681.5" font-family="Helvetica,sans-Serif" font-size="10.00">+ FindObject()</text>
<text text-anchor="start" x="153.5" y="-670.5" font-family="Helvetica,sans-Serif" font-size="10.00">+ FindClass()</text>
<text text-anchor="start" x="153.5" y="-659.5" font-family="Helvetica,sans-Serif" font-size="10.00">+ GetObjectCasted()</text>
<text text-anchor="start" x="153.5" y="-648.5" font-family="Helvetica,sans-Serif" font-size="10.00">+ StaticClass()</text>
</a>
</g>
</g>
<!-- Node3&#45;&gt;Node10 -->
<g id="edge17" class="edge">
<title>Node3&#45;&gt;Node10</title>
<path fill="none" stroke="#404040" d="M444.2,-982.86C420.37,-956.81 385.65,-918.85 351.83,-881.86"/>
<polygon fill="none" stroke="#404040" points="351.82,-881.85 344.81,-880.12 343.72,-872.99 350.72,-874.72 351.82,-881.85"/>
<text text-anchor="middle" x="434" y="-929" font-family="Helvetica,sans-Serif" font-size="10.00"> +StateFrame</text>
<text text-anchor="middle" x="434" y="-918" font-family="Helvetica,sans-Serif" font-size="10.00">+VfTableObject</text>
<text text-anchor="middle" x="434" y="-907" font-family="Helvetica,sans-Serif" font-size="10.00">+LinkerIndex</text>
</g>
<!-- Node4 -->
<g id="node4" class="node">
<title>Node4</title>
<g id="a_node4"><a xlink:href="../../d3/d79/classSDK_1_1TArray.html" target="_top" xlink:title=" ">
<polygon fill="white" stroke="black" points="503,-1443.5 503,-1588.5 600,-1588.5 600,-1443.5 503,-1443.5"/>
<text text-anchor="middle" x="551.5" y="-1576.5" font-family="Helvetica,sans-Serif" font-size="10.00">SDK::TArray&lt; T &gt;</text>
<polyline fill="none" stroke="black" points="503,-1569.5 600,-1569.5 "/>
<text text-anchor="start" x="511" y="-1557.5" font-family="Helvetica,sans-Serif" font-size="10.00">&#45; Data</text>
<text text-anchor="start" x="511" y="-1546.5" font-family="Helvetica,sans-Serif" font-size="10.00">&#45; Count</text>
<text text-anchor="start" x="511" y="-1535.5" font-family="Helvetica,sans-Serif" font-size="10.00">&#45; Max</text>
<polyline fill="none" stroke="black" points="503,-1528.5 600,-1528.5 "/>
<text text-anchor="start" x="511" y="-1516.5" font-family="Helvetica,sans-Serif" font-size="10.00">+ TArray()</text>
<text text-anchor="start" x="511" y="-1505.5" font-family="Helvetica,sans-Serif" font-size="10.00">+ Num()</text>
<text text-anchor="start" x="511" y="-1494.5" font-family="Helvetica,sans-Serif" font-size="10.00">+ operator[]()</text>
<text text-anchor="start" x="511" y="-1483.5" font-family="Helvetica,sans-Serif" font-size="10.00">+ operator[]()</text>
<text text-anchor="start" x="511" y="-1472.5" font-family="Helvetica,sans-Serif" font-size="10.00">+ IsValidIndex()</text>
<text text-anchor="start" x="511" y="-1461.5" font-family="Helvetica,sans-Serif" font-size="10.00">+ GetByIndex()</text>
<text text-anchor="start" x="511" y="-1450.5" font-family="Helvetica,sans-Serif" font-size="10.00">+ GetByIndex()</text>
</a>
</g>
</g>
<!-- Node4&#45;&gt;Node2 -->
<g id="edge3" class="edge">
<title>Node4&#45;&gt;Node2</title>
<path fill="none" stroke="orange" d="M608.05,-1467.99C622.14,-1454.87 636.6,-1440.05 648.5,-1425 706.14,-1352.09 721.91,-1331.11 751.5,-1243 798.19,-1103.96 810.95,-931.41 814.36,-836.14"/>
<polygon fill="orange" stroke="orange" points="605.3,-1465.77 600.29,-1475.1 610.03,-1470.93 605.3,-1465.77"/>
<text text-anchor="middle" x="843" y="-1167.5" font-family="Helvetica,sans-Serif" font-size="10.00"> &lt; struct SDK::FPointer &gt;</text>
</g>
<!-- Node6 -->
<g id="node6" class="node">
<title>Node6</title>
<g id="a_node6"><a xlink:href="../../d3/d79/classSDK_1_1TArray.html" target="_top" xlink:title=" ">
<polygon fill="white" stroke="black" points="264.5,-1261.5 264.5,-1395.5 444.5,-1395.5 444.5,-1261.5 264.5,-1261.5"/>
<text text-anchor="middle" x="354.5" y="-1383.5" font-family="Helvetica,sans-Serif" font-size="10.00">SDK::TArray&lt; SDK::FNameEntry * &gt;</text>
<polyline fill="none" stroke="black" points="264.5,-1376.5 444.5,-1376.5 "/>
<text text-anchor="start" x="272.5" y="-1364.5" font-family="Helvetica,sans-Serif" font-size="10.00">&#45; Count</text>
<text text-anchor="start" x="272.5" y="-1353.5" font-family="Helvetica,sans-Serif" font-size="10.00">&#45; Max</text>
<polyline fill="none" stroke="black" points="264.5,-1346.5 444.5,-1346.5 "/>
<text text-anchor="start" x="272.5" y="-1334.5" font-family="Helvetica,sans-Serif" font-size="10.00">+ TArray()</text>
<text text-anchor="start" x="272.5" y="-1323.5" font-family="Helvetica,sans-Serif" font-size="10.00">+ Num()</text>
<text text-anchor="start" x="272.5" y="-1312.5" font-family="Helvetica,sans-Serif" font-size="10.00">+ operator[]()</text>
<text text-anchor="start" x="272.5" y="-1301.5" font-family="Helvetica,sans-Serif" font-size="10.00">+ operator[]()</text>
<text text-anchor="start" x="272.5" y="-1290.5" font-family="Helvetica,sans-Serif" font-size="10.00">+ IsValidIndex()</text>
<text text-anchor="start" x="272.5" y="-1279.5" font-family="Helvetica,sans-Serif" font-size="10.00">+ GetByIndex()</text>
<text text-anchor="start" x="272.5" y="-1268.5" font-family="Helvetica,sans-Serif" font-size="10.00">+ GetByIndex()</text>
</a>
</g>
</g>
<!-- Node4&#45;&gt;Node6 -->
<g id="edge7" class="edge">
<title>Node4&#45;&gt;Node6</title>
<path fill="none" stroke="orange" d="M494.45,-1479.3C472.08,-1463.96 446.92,-1444.98 426.5,-1425 417.37,-1416.07 408.47,-1405.92 400.22,-1395.65"/>
<polygon fill="orange" stroke="orange" points="492.63,-1482.29 502.87,-1484.99 496.55,-1476.49 492.63,-1482.29"/>
<text text-anchor="middle" x="482" y="-1417" font-family="Helvetica,sans-Serif" font-size="10.00"> &lt; SDK::FNameEntry * &gt;</text>
</g>
<!-- Node8 -->
<g id="node8" class="node">
<title>Node8</title>
<g id="a_node8"><a xlink:href="../../d3/d79/classSDK_1_1TArray.html" target="_top" xlink:title=" ">
<polygon fill="white" stroke="black" points="576,-244.5 576,-400.5 697,-400.5 697,-244.5 576,-244.5"/>
<text text-anchor="start" x="584" y="-388.5" font-family="Helvetica,sans-Serif" font-size="10.00">SDK::TArray&lt; class</text>
<text text-anchor="start" x="584" y="-377.5" font-family="Helvetica,sans-Serif" font-size="10.00"> SDK::UEFActionNotify</text>
<text text-anchor="middle" x="636.5" y="-366.5" font-family="Helvetica,sans-Serif" font-size="10.00">_AnimEvent * &gt;</text>
<polyline fill="none" stroke="black" points="576,-359.5 697,-359.5 "/>
<text text-anchor="start" x="584" y="-347.5" font-family="Helvetica,sans-Serif" font-size="10.00">&#45; Count</text>
<text text-anchor="start" x="584" y="-336.5" font-family="Helvetica,sans-Serif" font-size="10.00">&#45; Max</text>
<polyline fill="none" stroke="black" points="576,-329.5 697,-329.5 "/>
<text text-anchor="start" x="584" y="-317.5" font-family="Helvetica,sans-Serif" font-size="10.00">+ TArray()</text>
<text text-anchor="start" x="584" y="-306.5" font-family="Helvetica,sans-Serif" font-size="10.00">+ Num()</text>
<text text-anchor="start" x="584" y="-295.5" font-family="Helvetica,sans-Serif" font-size="10.00">+ operator[]()</text>
<text text-anchor="start" x="584" y="-284.5" font-family="Helvetica,sans-Serif" font-size="10.00">+ operator[]()</text>
<text text-anchor="start" x="584" y="-273.5" font-family="Helvetica,sans-Serif" font-size="10.00">+ IsValidIndex()</text>
<text text-anchor="start" x="584" y="-262.5" font-family="Helvetica,sans-Serif" font-size="10.00">+ GetByIndex()</text>
<text text-anchor="start" x="584" y="-251.5" font-family="Helvetica,sans-Serif" font-size="10.00">+ GetByIndex()</text>
</a>
</g>
</g>
<!-- Node4&#45;&gt;Node8 -->
<g id="edge29" class="edge">
<title>Node4&#45;&gt;Node8</title>
<path fill="none" stroke="orange" d="M551.5,-1432.93C551.5,-1400.68 551.5,-1363.35 551.5,-1329.5 551.5,-1329.5 551.5,-1329.5 551.5,-525.5 551.5,-482.13 568.36,-437.32 587.06,-400.97"/>
<polygon fill="orange" stroke="orange" points="548,-1433.21 551.5,-1443.21 555,-1433.21 548,-1433.21"/>
<text text-anchor="start" x="551.5" y="-923.5" font-family="Helvetica,sans-Serif" font-size="10.00"> &lt; class SDK::UEFActionNotify</text>
<text text-anchor="middle" x="621.5" y="-912.5" font-family="Helvetica,sans-Serif" font-size="10.00">_AnimEvent * &gt;</text>
</g>
<!-- Node12 -->
<g id="node12" class="node">
<title>Node12</title>
<g id="a_node12"><a xlink:href="../../d3/d79/classSDK_1_1TArray.html" target="_top" xlink:title=" ">
<polygon fill="white" stroke="black" points="44,-459.5 44,-593.5 205,-593.5 205,-459.5 44,-459.5"/>
<text text-anchor="middle" x="124.5" y="-581.5" font-family="Helvetica,sans-Serif" font-size="10.00">SDK::TArray&lt; SDK::UObject * &gt;</text>
<polyline fill="none" stroke="black" points="44,-574.5 205,-574.5 "/>
<text text-anchor="start" x="52" y="-562.5" font-family="Helvetica,sans-Serif" font-size="10.00">&#45; Count</text>
<text text-anchor="start" x="52" y="-551.5" font-family="Helvetica,sans-Serif" font-size="10.00">&#45; Max</text>
<polyline fill="none" stroke="black" points="44,-544.5 205,-544.5 "/>
<text text-anchor="start" x="52" y="-532.5" font-family="Helvetica,sans-Serif" font-size="10.00">+ TArray()</text>
<text text-anchor="start" x="52" y="-521.5" font-family="Helvetica,sans-Serif" font-size="10.00">+ Num()</text>
<text text-anchor="start" x="52" y="-510.5" font-family="Helvetica,sans-Serif" font-size="10.00">+ operator[]()</text>
<text text-anchor="start" x="52" y="-499.5" font-family="Helvetica,sans-Serif" font-size="10.00">+ operator[]()</text>
<text text-anchor="start" x="52" y="-488.5" font-family="Helvetica,sans-Serif" font-size="10.00">+ IsValidIndex()</text>
<text text-anchor="start" x="52" y="-477.5" font-family="Helvetica,sans-Serif" font-size="10.00">+ GetByIndex()</text>
<text text-anchor="start" x="52" y="-466.5" font-family="Helvetica,sans-Serif" font-size="10.00">+ GetByIndex()</text>
</a>
</g>
</g>
<!-- Node4&#45;&gt;Node12 -->
<g id="edge16" class="edge">
<title>Node4&#45;&gt;Node12</title>
<path fill="none" stroke="orange" d="M492.74,-1504.1C368.92,-1479.46 92.5,-1414.88 92.5,-1329.5 92.5,-1329.5 92.5,-1329.5 92.5,-762.5 92.5,-705.06 102,-640.44 110.65,-593.52"/>
<polygon fill="orange" stroke="orange" points="492.33,-1507.59 502.81,-1506.08 493.68,-1500.72 492.33,-1507.59"/>
<text text-anchor="middle" x="138" y="-1014.5" font-family="Helvetica,sans-Serif" font-size="10.00"> &lt; SDK::UObject * &gt;</text>
</g>
<!-- Node18 -->
<g id="node18" class="node">
<title>Node18</title>
<g id="a_node18"><a xlink:href="../../d3/d79/classSDK_1_1TArray.html" target="_top" xlink:title=" ">
<polygon fill="white" stroke="black" points="617,-1097.5 617,-1242.5 742,-1242.5 742,-1097.5 617,-1097.5"/>
<text text-anchor="middle" x="679.5" y="-1230.5" font-family="Helvetica,sans-Serif" font-size="10.00">SDK::TArray&lt; wchar_t &gt;</text>
<polyline fill="none" stroke="black" points="617,-1223.5 742,-1223.5 "/>
<text text-anchor="start" x="625" y="-1211.5" font-family="Helvetica,sans-Serif" font-size="10.00">&#45; Data</text>
<text text-anchor="start" x="625" y="-1200.5" font-family="Helvetica,sans-Serif" font-size="10.00">&#45; Count</text>
<text text-anchor="start" x="625" y="-1189.5" font-family="Helvetica,sans-Serif" font-size="10.00">&#45; Max</text>
<polyline fill="none" stroke="black" points="617,-1182.5 742,-1182.5 "/>
<text text-anchor="start" x="625" y="-1170.5" font-family="Helvetica,sans-Serif" font-size="10.00">+ TArray()</text>
<text text-anchor="start" x="625" y="-1159.5" font-family="Helvetica,sans-Serif" font-size="10.00">+ Num()</text>
<text text-anchor="start" x="625" y="-1148.5" font-family="Helvetica,sans-Serif" font-size="10.00">+ operator[]()</text>
<text text-anchor="start" x="625" y="-1137.5" font-family="Helvetica,sans-Serif" font-size="10.00">+ operator[]()</text>
<text text-anchor="start" x="625" y="-1126.5" font-family="Helvetica,sans-Serif" font-size="10.00">+ IsValidIndex()</text>
<text text-anchor="start" x="625" y="-1115.5" font-family="Helvetica,sans-Serif" font-size="10.00">+ GetByIndex()</text>
<text text-anchor="start" x="625" y="-1104.5" font-family="Helvetica,sans-Serif" font-size="10.00">+ GetByIndex()</text>
</a>
</g>
</g>
<!-- Node4&#45;&gt;Node18 -->
<g id="edge28" class="edge">
<title>Node4&#45;&gt;Node18</title>
<path fill="none" stroke="orange" d="M581.72,-1433.8C603.32,-1375.75 632.11,-1298.35 652.86,-1242.6"/>
<polygon fill="orange" stroke="orange" points="578.38,-1432.71 578.18,-1443.31 584.94,-1435.15 578.38,-1432.71"/>
<text text-anchor="middle" x="616.5" y="-1417" font-family="Helvetica,sans-Serif" font-size="10.00"> &lt; wchar_t &gt;</text>
</g>
<!-- Node5 -->
<g id="node5" class="node">
<title>Node5</title>
<g id="a_node5"><a xlink:href="../../d0/db6/structSDK_1_1FName.html" target="_top" xlink:title=" ">
<polygon fill="white" stroke="black" points="301,-955.5 301,-1078.5 408,-1078.5 408,-955.5 301,-955.5"/>
<text text-anchor="middle" x="354.5" y="-1066.5" font-family="Helvetica,sans-Serif" font-size="10.00">SDK::FName</text>
<polyline fill="none" stroke="black" points="301,-1059.5 408,-1059.5 "/>
<text text-anchor="start" x="309" y="-1047.5" font-family="Helvetica,sans-Serif" font-size="10.00">+ Index</text>
<text text-anchor="start" x="309" y="-1036.5" font-family="Helvetica,sans-Serif" font-size="10.00">+ Number</text>
<polyline fill="none" stroke="black" points="301,-1029.5 408,-1029.5 "/>
<text text-anchor="start" x="309" y="-1017.5" font-family="Helvetica,sans-Serif" font-size="10.00">+ FName()</text>
<text text-anchor="start" x="309" y="-1006.5" font-family="Helvetica,sans-Serif" font-size="10.00">+ FName()</text>
<text text-anchor="start" x="309" y="-995.5" font-family="Helvetica,sans-Serif" font-size="10.00">+ FName()</text>
<text text-anchor="start" x="309" y="-984.5" font-family="Helvetica,sans-Serif" font-size="10.00">+ GetName()</text>
<text text-anchor="start" x="309" y="-973.5" font-family="Helvetica,sans-Serif" font-size="10.00">+ operator==()</text>
<text text-anchor="start" x="309" y="-962.5" font-family="Helvetica,sans-Serif" font-size="10.00">+ GetGlobalNames()</text>
</a>
</g>
</g>
<!-- Node5&#45;&gt;Node1 -->
<g id="edge4" class="edge">
<title>Node5&#45;&gt;Node1</title>
<path fill="none" stroke="#404040" d="M403.92,-955.21C424.07,-929.1 443.95,-901.16 449.5,-886 490.48,-774.08 468.5,-737.69 468.5,-618.5 468.5,-618.5 468.5,-618.5 468.5,-321.5 468.5,-246.37 554.56,-203.21 618.29,-181.54"/>
<polygon fill="none" stroke="#404040" points="618.49,-181.47 622.95,-175.81 629.9,-177.74 625.44,-183.41 618.49,-181.47"/>
<text text-anchor="middle" x="496" y="-524" font-family="Helvetica,sans-Serif" font-size="10.00"> +ObjectTag</text>
</g>
<!-- Node5&#45;&gt;Node10 -->
<g id="edge12" class="edge">
<title>Node5&#45;&gt;Node10</title>
<path fill="none" stroke="#404040" d="M330.12,-955.36C323.26,-938.66 315.7,-920.58 308.5,-904 307.48,-901.66 306.45,-899.3 305.41,-896.93"/>
<polygon fill="none" stroke="#404040" points="305.31,-896.7 299.23,-892.83 300.47,-885.72 306.55,-889.6 305.31,-896.7"/>
<text text-anchor="middle" x="339.5" y="-918" font-family="Helvetica,sans-Serif" font-size="10.00"> +Name</text>
</g>
<!-- Node6&#45;&gt;Node5 -->
<g id="edge5" class="edge">
<title>Node6&#45;&gt;Node5</title>
<path fill="none" stroke="#404040" d="M354.5,-1261.48C354.5,-1211.36 354.5,-1142.46 354.5,-1090.75"/>
<polygon fill="none" stroke="#404040" points="354.5,-1090.66 350.5,-1084.66 354.5,-1078.66 358.5,-1084.66 354.5,-1090.66"/>
<text text-anchor="middle" x="379" y="-1167.5" font-family="Helvetica,sans-Serif" font-size="10.00"> +GNames</text>
</g>
<!-- Node7 -->
<g id="node7" class="node">
<title>Node7</title>
<g id="a_node7"><a xlink:href="../../d7/ddf/classSDK_1_1FNameEntry.html" target="_top" xlink:title=" ">
<polygon fill="white" stroke="black" points="0,-1482 0,-1550 99,-1550 99,-1482 0,-1482"/>
<text text-anchor="middle" x="49.5" y="-1538" font-family="Helvetica,sans-Serif" font-size="10.00">SDK::FNameEntry</text>
<polyline fill="none" stroke="black" points="0,-1531 99,-1531 "/>
<text text-anchor="start" x="8" y="-1519" font-family="Helvetica,sans-Serif" font-size="10.00">+ UnknownData00</text>
<text text-anchor="start" x="8" y="-1508" font-family="Helvetica,sans-Serif" font-size="10.00">+ name</text>
<polyline fill="none" stroke="black" points="0,-1501 99,-1501 "/>
<text text-anchor="start" x="8" y="-1489" font-family="Helvetica,sans-Serif" font-size="10.00">+ GetName()</text>
</a>
</g>
</g>
<!-- Node7&#45;&gt;Node6 -->
<g id="edge6" class="edge">
<title>Node7&#45;&gt;Node6</title>
<path fill="none" stroke="#404040" d="M99.18,-1484.78C141.04,-1459.33 202.24,-1422.1 254.23,-1390.48"/>
<polygon fill="none" stroke="#404040" points="254.24,-1390.48 257.29,-1383.94 264.5,-1384.24 261.45,-1390.78 254.24,-1390.48"/>
<text text-anchor="middle" x="225.5" y="-1417" font-family="Helvetica,sans-Serif" font-size="10.00"> &#45;Data</text>
</g>
<!-- Node8&#45;&gt;Node1 -->
<g id="edge8" class="edge">
<title>Node8&#45;&gt;Node1</title>
<path fill="none" stroke="#404040" d="M640.43,-244.45C642.32,-234.35 644.92,-224.29 648.5,-215 649.52,-212.36 650.71,-209.72 652.02,-207.13"/>
<polygon fill="none" stroke="#404040" points="652.02,-207.12 651.54,-199.92 658,-196.71 658.48,-203.91 652.02,-207.12"/>
<text text-anchor="middle" x="680" y="-218" font-family="Helvetica,sans-Serif" font-size="10.00"> +AnimEvents</text>
</g>
<!-- Node9 -->
<g id="node9" class="node">
<title>Node9</title>
<g id="a_node9"><a xlink:href="../../dc/dde/classSDK_1_1UEFActionNotify__AnimEvent.html" target="_top" xlink:title=" ">
<polygon fill="white" stroke="black" points="579.5,-481.5 579.5,-571.5 697.5,-571.5 697.5,-481.5 579.5,-481.5"/>
<text text-anchor="start" x="587.5" y="-559.5" font-family="Helvetica,sans-Serif" font-size="10.00">SDK::UEFActionNotify</text>
<text text-anchor="middle" x="638.5" y="-548.5" font-family="Helvetica,sans-Serif" font-size="10.00">_AnimEvent</text>
<polyline fill="none" stroke="black" points="579.5,-541.5 697.5,-541.5 "/>
<text text-anchor="start" x="587.5" y="-529.5" font-family="Helvetica,sans-Serif" font-size="10.00">+ IsActive</text>
<text text-anchor="start" x="587.5" y="-518.5" font-family="Helvetica,sans-Serif" font-size="10.00">+ StartTime</text>
<text text-anchor="start" x="587.5" y="-507.5" font-family="Helvetica,sans-Serif" font-size="10.00">+ InterpTime</text>
<polyline fill="none" stroke="black" points="579.5,-500.5 697.5,-500.5 "/>
<text text-anchor="start" x="587.5" y="-488.5" font-family="Helvetica,sans-Serif" font-size="10.00">+ StaticClass()</text>
</a>
</g>
</g>
<!-- Node9&#45;&gt;Node8 -->
<g id="edge9" class="edge">
<title>Node9&#45;&gt;Node8</title>
<path fill="none" stroke="#404040" d="M638.06,-481.17C637.86,-461.09 637.62,-436.6 637.39,-412.96"/>
<polygon fill="none" stroke="#404040" points="637.38,-412.71 633.32,-406.75 637.26,-400.71 641.32,-406.67 637.38,-412.71"/>
<text text-anchor="middle" x="651.5" y="-427.5" font-family="Helvetica,sans-Serif" font-size="10.00"> &#45;Data</text>
</g>
<!-- Node10&#45;&gt;Node9 -->
<g id="edge10" class="edge">
<title>Node10&#45;&gt;Node9</title>
<path fill="none" stroke="midnightblue" d="M352.45,-698.32C405.25,-666.9 469.72,-628.51 527.5,-594 544.38,-583.92 562.68,-572.96 579.47,-562.9"/>
<polygon fill="none" stroke="midnightblue" points="350.55,-695.37 343.75,-703.5 354.13,-701.39 350.55,-695.37"/>
</g>
<!-- Node10&#45;&gt;Node10 -->
<g id="edge13" class="edge">
<title>Node10&#45;&gt;Node10</title>
<path fill="none" stroke="#404040" d="M343.51,-786.53C354.44,-782.15 361.5,-774.48 361.5,-763.5 361.5,-756.64 358.74,-751.07 354.01,-746.78"/>
<polygon fill="none" stroke="#404040" points="353.8,-746.66 346.59,-746.99 343.51,-740.47 350.72,-740.14 353.8,-746.66"/>
<text text-anchor="middle" x="401" y="-772" font-family="Helvetica,sans-Serif" font-size="10.00"> +Outer</text>
<text text-anchor="middle" x="401" y="-761" font-family="Helvetica,sans-Serif" font-size="10.00">+Linker</text>
<text text-anchor="middle" x="401" y="-750" font-family="Helvetica,sans-Serif" font-size="10.00">+ObjectArchetype</text>
</g>
<!-- Node10&#45;&gt;Node12 -->
<g id="edge15" class="edge">
<title>Node10&#45;&gt;Node12</title>
<path fill="none" stroke="#404040" d="M192.41,-641.43C187.55,-631.39 182.54,-621.47 177.5,-612 176.16,-609.49 174.77,-606.95 173.35,-604.39"/>
<polygon fill="none" stroke="#404040" points="173.29,-604.29 166.84,-601.06 167.34,-593.87 173.79,-597.09 173.29,-604.29"/>
<text text-anchor="middle" x="196.5" y="-615" font-family="Helvetica,sans-Serif" font-size="10.00"> &#45;Data</text>
</g>
<!-- Node13 -->
<g id="node13" class="node">
<title>Node13</title>
<g id="a_node13"><a xlink:href="../../d7/d85/classSDK_1_1UClass.html" target="_top" xlink:title=" ">
<polygon fill="white" stroke="black" points="225,-0.5 225,-90.5 346,-90.5 346,-0.5 225,-0.5"/>
<text text-anchor="middle" x="285.5" y="-78.5" font-family="Helvetica,sans-Serif" font-size="10.00">SDK::UClass</text>
<polyline fill="none" stroke="black" points="225,-71.5 346,-71.5 "/>
<text text-anchor="start" x="233" y="-59.5" font-family="Helvetica,sans-Serif" font-size="10.00">+ UnknownData00</text>
<text text-anchor="start" x="233" y="-48.5" font-family="Helvetica,sans-Serif" font-size="10.00">+ UnknownData01</text>
<polyline fill="none" stroke="black" points="225,-41.5 346,-41.5 "/>
<text text-anchor="start" x="233" y="-29.5" font-family="Helvetica,sans-Serif" font-size="10.00">+ CreateDefaultObject()</text>
<text text-anchor="start" x="233" y="-18.5" font-family="Helvetica,sans-Serif" font-size="10.00">+ CreateDefaultObject()</text>
<text text-anchor="start" x="233" y="-7.5" font-family="Helvetica,sans-Serif" font-size="10.00">+ StaticClass()</text>
</a>
</g>
</g>
<!-- Node10&#45;&gt;Node13 -->
<g id="edge25" class="edge">
<title>Node10&#45;&gt;Node13</title>
<path fill="none" stroke="#404040" d="M246.77,-641.24C244.19,-584.26 235.76,-516.41 213.5,-459 201.9,-429.08 180.56,-431.47 170.5,-401 148.62,-334.74 152.32,-311.37 170.5,-244 184.69,-191.43 216.72,-138.47 243.37,-100.64"/>
<polygon fill="none" stroke="#404040" points="243.39,-100.62 243.63,-93.42 250.38,-90.87 250.13,-98.08 243.39,-100.62"/>
<text text-anchor="middle" x="218" y="-320" font-family="Helvetica,sans-Serif" font-size="10.00"> +ClassDefaultObject</text>
</g>
<!-- Node16 -->
<g id="node16" class="node">
<title>Node16</title>
<g id="a_node16"><a xlink:href="../../de/dd6/classSDK_1_1UField.html" target="_top" xlink:title=" ">
<polygon fill="white" stroke="black" points="300,-498 300,-555 383,-555 383,-498 300,-498"/>
<text text-anchor="middle" x="341.5" y="-543" font-family="Helvetica,sans-Serif" font-size="10.00">SDK::UField</text>
<polyline fill="none" stroke="black" points="300,-536 383,-536 "/>
<text text-anchor="middle" x="341.5" y="-524" font-family="Helvetica,sans-Serif" font-size="10.00"> </text>
<polyline fill="none" stroke="black" points="300,-517 383,-517 "/>
<text text-anchor="start" x="308" y="-505" font-family="Helvetica,sans-Serif" font-size="10.00">+ StaticClass()</text>
</a>
</g>
</g>
<!-- Node10&#45;&gt;Node16 -->
<g id="edge22" class="edge">
<title>Node10&#45;&gt;Node16</title>
<path fill="none" stroke="midnightblue" d="M298.46,-631.76C310.44,-602.75 321.96,-574.83 330.07,-555.19"/>
<polygon fill="none" stroke="midnightblue" points="295.14,-630.64 294.56,-641.21 301.61,-633.31 295.14,-630.64"/>
</g>
<!-- Node11 -->
<g id="node11" class="node">
<title>Node11</title>
<g id="a_node11"><a xlink:href="../../d0/d22/structSDK_1_1FQWord.html" target="_top" xlink:title=" ">
<polygon fill="white" stroke="black" points="202.5,-983 202.5,-1051 282.5,-1051 282.5,-983 202.5,-983"/>
<text text-anchor="middle" x="242.5" y="-1039" font-family="Helvetica,sans-Serif" font-size="10.00">SDK::FQWord</text>
<polyline fill="none" stroke="black" points="202.5,-1032 282.5,-1032 "/>
<text text-anchor="start" x="210.5" y="-1020" font-family="Helvetica,sans-Serif" font-size="10.00">+ A</text>
<text text-anchor="start" x="210.5" y="-1009" font-family="Helvetica,sans-Serif" font-size="10.00">+ B</text>
<polyline fill="none" stroke="black" points="202.5,-1002 282.5,-1002 "/>
<text text-anchor="middle" x="242.5" y="-990" font-family="Helvetica,sans-Serif" font-size="10.00"> </text>
</a>
</g>
</g>
<!-- Node11&#45;&gt;Node10 -->
<g id="edge11" class="edge">
<title>Node11&#45;&gt;Node10</title>
<path fill="none" stroke="#404040" d="M242.76,-982.86C242.94,-960.57 243.19,-929.56 243.44,-897.9"/>
<polygon fill="none" stroke="#404040" points="243.44,-897.75 239.49,-891.72 243.54,-885.75 247.49,-891.78 243.44,-897.75"/>
<text text-anchor="middle" x="273.5" y="-918" font-family="Helvetica,sans-Serif" font-size="10.00"> +ObjectFlags</text>
</g>
<!-- Node12&#45;&gt;Node10 -->
<g id="edge14" class="edge">
<title>Node12&#45;&gt;Node10</title>
<path fill="none" stroke="#404040" d="M120.06,-593.61C121.03,-603.67 123.01,-613.77 126.5,-623 129.93,-632.07 134.22,-640.96 139.13,-649.59"/>
<polygon fill="none" stroke="#404040" points="139.19,-649.71 145.72,-652.78 145.39,-659.98 138.87,-656.91 139.19,-649.71"/>
<text text-anchor="middle" x="152" y="-615" font-family="Helvetica,sans-Serif" font-size="10.00"> +GObjects</text>
</g>
<!-- Node13&#45;&gt;Node10 -->
<g id="edge18" class="edge">
<title>Node13&#45;&gt;Node10</title>
<path fill="none" stroke="#404040" d="M283.81,-90.65C280.01,-187.24 270.02,-424.54 256.5,-623 256.36,-625.04 256.22,-627.1 256.07,-629.17"/>
<polygon fill="none" stroke="#404040" points="256.07,-629.2 259.62,-635.47 255.2,-641.17 251.64,-634.89 256.07,-629.2"/>
<text text-anchor="middle" x="294" y="-320" font-family="Helvetica,sans-Serif" font-size="10.00"> +Class</text>
</g>
<!-- Node14 -->
<g id="node14" class="node">
<title>Node14</title>
<g id="a_node14"><a xlink:href="../../df/d72/classSDK_1_1UState.html" target="_top" xlink:title=" ">
<polygon fill="white" stroke="black" points="320.5,-134 320.5,-191 418.5,-191 418.5,-134 320.5,-134"/>
<text text-anchor="middle" x="369.5" y="-179" font-family="Helvetica,sans-Serif" font-size="10.00">SDK::UState</text>
<polyline fill="none" stroke="black" points="320.5,-172 418.5,-172 "/>
<text text-anchor="start" x="328.5" y="-160" font-family="Helvetica,sans-Serif" font-size="10.00">+ UnknownData00</text>
<polyline fill="none" stroke="black" points="320.5,-153 418.5,-153 "/>
<text text-anchor="start" x="328.5" y="-141" font-family="Helvetica,sans-Serif" font-size="10.00">+ StaticClass()</text>
</a>
</g>
</g>
<!-- Node14&#45;&gt;Node13 -->
<g id="edge19" class="edge">
<title>Node14&#45;&gt;Node13</title>
<path fill="none" stroke="midnightblue" d="M343.41,-125.79C335.35,-114.74 326.36,-102.44 317.92,-90.88"/>
<polygon fill="none" stroke="midnightblue" points="340.66,-127.94 349.38,-133.95 346.31,-123.81 340.66,-127.94"/>
</g>
<!-- Node15 -->
<g id="node15" class="node">
<title>Node15</title>
<g id="a_node15"><a xlink:href="../../d8/de9/classSDK_1_1UStruct.html" target="_top" xlink:title=" ">
<polygon fill="white" stroke="black" points="338.5,-283 338.5,-362 436.5,-362 436.5,-283 338.5,-283"/>
<text text-anchor="middle" x="387.5" y="-350" font-family="Helvetica,sans-Serif" font-size="10.00">SDK::UStruct</text>
<polyline fill="none" stroke="black" points="338.5,-343 436.5,-343 "/>
<text text-anchor="start" x="346.5" y="-331" font-family="Helvetica,sans-Serif" font-size="10.00">+ UnknownData00</text>
<text text-anchor="start" x="346.5" y="-320" font-family="Helvetica,sans-Serif" font-size="10.00">+ PropertySize</text>
<text text-anchor="start" x="346.5" y="-309" font-family="Helvetica,sans-Serif" font-size="10.00">+ UnknownData01</text>
<polyline fill="none" stroke="black" points="338.5,-302 436.5,-302 "/>
<text text-anchor="start" x="346.5" y="-290" font-family="Helvetica,sans-Serif" font-size="10.00">+ StaticClass()</text>
</a>
</g>
</g>
<!-- Node15&#45;&gt;Node14 -->
<g id="edge20" class="edge">
<title>Node15&#45;&gt;Node14</title>
<path fill="none" stroke="midnightblue" d="M381.96,-272.89C378.91,-246.13 375.24,-213.87 372.67,-191.35"/>
<polygon fill="none" stroke="midnightblue" points="378.49,-273.31 383.1,-282.85 385.44,-272.52 378.49,-273.31"/>
</g>
<!-- Node16&#45;&gt;Node15 -->
<g id="edge21" class="edge">
<title>Node16&#45;&gt;Node15</title>
<path fill="none" stroke="midnightblue" d="M360.84,-488.67C367.58,-474.19 374.46,-457.19 378.5,-441 384.94,-415.19 387.16,-385.3 387.79,-362.12"/>
<polygon fill="none" stroke="midnightblue" points="357.64,-487.26 356.47,-497.79 363.95,-490.29 357.64,-487.26"/>
</g>
<!-- Node16&#45;&gt;Node15 -->
<g id="edge24" class="edge">
<title>Node16&#45;&gt;Node15</title>
<path fill="none" stroke="#404040" d="M327.7,-497.96C318.68,-476.22 310,-445.28 318.5,-419 323.87,-402.4 333.32,-386.26 343.54,-372.12"/>
<polygon fill="none" stroke="#404040" points="343.81,-371.75 344.25,-364.55 351.07,-362.19 350.63,-369.39 343.81,-371.75"/>
<text text-anchor="middle" x="346.5" y="-433" font-family="Helvetica,sans-Serif" font-size="10.00"> +SuperField</text>
<text text-anchor="middle" x="346.5" y="-422" font-family="Helvetica,sans-Serif" font-size="10.00">+Children</text>
</g>
<!-- Node16&#45;&gt;Node16 -->
<g id="edge23" class="edge">
<title>Node16&#45;&gt;Node16</title>
<path fill="none" stroke="#404040" d="M383.21,-543.11C393.41,-541.88 401,-536.34 401,-526.5 401,-520.96 398.6,-516.79 394.68,-513.98"/>
<polygon fill="none" stroke="#404040" points="394.51,-513.92 387.51,-515.67 383.21,-509.89 390.2,-508.13 394.51,-513.92"/>
<text text-anchor="middle" x="416.5" y="-524" font-family="Helvetica,sans-Serif" font-size="10.00"> +Next</text>
</g>
<!-- Node17 -->
<g id="node17" class="node">
<title>Node17</title>
<g id="a_node17"><a xlink:href="../../d3/d88/classSDK_1_1FString.html" target="_top" xlink:title=" ">
<polygon fill="white" stroke="black" points="669,-713 669,-814 744,-814 744,-713 669,-713"/>
<text text-anchor="middle" x="706.5" y="-802" font-family="Helvetica,sans-Serif" font-size="10.00">SDK::FString</text>
<polyline fill="none" stroke="black" points="669,-795 744,-795 "/>
<text text-anchor="middle" x="706.5" y="-783" font-family="Helvetica,sans-Serif" font-size="10.00"> </text>
<polyline fill="none" stroke="black" points="669,-776 744,-776 "/>
<text text-anchor="start" x="677" y="-764" font-family="Helvetica,sans-Serif" font-size="10.00">+ FString()</text>
<text text-anchor="start" x="677" y="-753" font-family="Helvetica,sans-Serif" font-size="10.00">+ FString()</text>
<text text-anchor="start" x="677" y="-742" font-family="Helvetica,sans-Serif" font-size="10.00">+ IsValid()</text>
<text text-anchor="start" x="677" y="-731" font-family="Helvetica,sans-Serif" font-size="10.00">+ c_str()</text>
<text text-anchor="start" x="677" y="-720" font-family="Helvetica,sans-Serif" font-size="10.00">+ ToString()</text>
</a>
</g>
</g>
<!-- Node17&#45;&gt;Node1 -->
<g id="edge30" class="edge">
<title>Node17&#45;&gt;Node1</title>
<path fill="none" stroke="#404040" d="M707.12,-712.94C708.26,-618.31 710.66,-405.3 711.5,-226 711.52,-221.11 712.63,-219.76 711.5,-215 710.95,-212.7 710.28,-210.38 709.52,-208.08"/>
<polygon fill="none" stroke="#404040" points="709.45,-207.88 703.53,-203.76 705.06,-196.71 710.98,-200.83 709.45,-207.88"/>
<text text-anchor="middle" x="760.5" y="-427.5" font-family="Helvetica,sans-Serif" font-size="10.00"> +AnimSequenceName</text>
</g>
<!-- Node17&#45;&gt;Node9 -->
<g id="edge26" class="edge">
<title>Node17&#45;&gt;Node9</title>
<path fill="none" stroke="#404040" d="M692.16,-712.95C681.22,-675.12 666.13,-622.97 654.73,-583.6"/>
<polygon fill="none" stroke="#404040" points="654.66,-583.36 649.15,-578.7 651.33,-571.83 656.84,-576.48 654.66,-583.36"/>
<text text-anchor="middle" x="680" y="-615" font-family="Helvetica,sans-Serif" font-size="10.00"> +Desc</text>
</g>
<!-- Node18&#45;&gt;Node17 -->
<g id="edge27" class="edge">
<title>Node18&#45;&gt;Node17</title>
<path fill="none" stroke="midnightblue" d="M715.17,-1087.73C733.99,-1035.73 751.65,-966.52 743.5,-904 739.55,-873.69 730.96,-840.59 723.05,-814.24"/>
<polygon fill="none" stroke="midnightblue" points="711.84,-1086.65 711.65,-1097.24 718.41,-1089.08 711.84,-1086.65"/>
</g>
</g>
</svg>
