<?xml version="1.0" encoding="UTF-8" standalone="no"?>
<!DOCTYPE svg PUBLIC "-//W3C//DTD SVG 1.1//EN"
 "http://www.w3.org/Graphics/SVG/1.1/DTD/svg11.dtd">
<!-- Generated by graphviz version 2.41.20171026.1811 (20171026.1811)
 -->
<!-- Title: SDK::UEFActionNotify_PlayProjectileDecalEffect Pages: 1 -->
<svg width="1086pt" height="1529pt"
 viewBox="0.00 0.00 1085.50 1529.00" xmlns="http://www.w3.org/2000/svg" xmlns:xlink="http://www.w3.org/1999/xlink">
<g id="graph0" class="graph" transform="scale(1 1) rotate(0) translate(4 1525)">
<title>SDK::UEFActionNotify_PlayProjectileDecalEffect</title>
<polygon fill="white" stroke="transparent" points="-4,4 -4,-1525 1081.5,-1525 1081.5,4 -4,4"/>
<!-- Node1 -->
<g id="node1" class="node">
<title>Node1</title>
<g id="a_node1"><a xlink:title=" ">
<polygon fill="#bfbfbf" stroke="black" points="351.5,-223.5 351.5,-390.5 485.5,-390.5 485.5,-223.5 351.5,-223.5"/>
<text text-anchor="start" x="359.5" y="-378.5" font-family="Helvetica,sans-Serif" font-size="10.00">SDK::UEFActionNotify</text>
<text text-anchor="middle" x="418.5" y="-367.5" font-family="Helvetica,sans-Serif" font-size="10.00">_PlayProjectileDecalEffect</text>
<polyline fill="none" stroke="black" points="351.5,-360.5 485.5,-360.5 "/>
<text text-anchor="start" x="359.5" y="-348.5" font-family="Helvetica,sans-Serif" font-size="10.00">+ DecalTableIndex</text>
<text text-anchor="start" x="359.5" y="-337.5" font-family="Helvetica,sans-Serif" font-size="10.00">+ bPlayActionAgentDecal</text>
<text text-anchor="start" x="359.5" y="-326.5" font-family="Helvetica,sans-Serif" font-size="10.00">+ ForcedOutput</text>
<text text-anchor="start" x="359.5" y="-315.5" font-family="Helvetica,sans-Serif" font-size="10.00">+ SkillEffectId</text>
<text text-anchor="start" x="359.5" y="-304.5" font-family="Helvetica,sans-Serif" font-size="10.00">+ ProjectileSkillEffectId</text>
<text text-anchor="start" x="359.5" y="-293.5" font-family="Helvetica,sans-Serif" font-size="10.00">+ AdjustSize</text>
<text text-anchor="start" x="359.5" y="-282.5" font-family="Helvetica,sans-Serif" font-size="10.00">+ DecalBlendInTime</text>
<text text-anchor="start" x="359.5" y="-271.5" font-family="Helvetica,sans-Serif" font-size="10.00">+ DecalScaleTime</text>
<text text-anchor="start" x="359.5" y="-260.5" font-family="Helvetica,sans-Serif" font-size="10.00">+ DecalFillTime</text>
<text text-anchor="start" x="359.5" y="-249.5" font-family="Helvetica,sans-Serif" font-size="10.00">+ DecalBlendOutTime</text>
<polyline fill="none" stroke="black" points="351.5,-242.5 485.5,-242.5 "/>
<text text-anchor="start" x="359.5" y="-230.5" font-family="Helvetica,sans-Serif" font-size="10.00">+ StaticClass()</text>
</a>
</g>
</g>
<!-- Node2 -->
<g id="node2" class="node">
<title>Node2</title>
<g id="a_node2"><a xlink:href="../../df/d32/classSDK_1_1UEFAction__Notify.html" target="_top" xlink:title=" ">
<polygon fill="white" stroke="black" points="357,-449.5 357,-649.5 480,-649.5 480,-449.5 357,-449.5"/>
<text text-anchor="middle" x="418.5" y="-637.5" font-family="Helvetica,sans-Serif" font-size="10.00">SDK::UEFAction_Notify</text>
<polyline fill="none" stroke="black" points="357,-630.5 480,-630.5 "/>
<text text-anchor="start" x="365" y="-618.5" font-family="Helvetica,sans-Serif" font-size="10.00">+ TriggerSkillEffectId</text>
<text text-anchor="start" x="365" y="-607.5" font-family="Helvetica,sans-Serif" font-size="10.00">+ ActiveByMemoryPos</text>
<text text-anchor="start" x="365" y="-596.5" font-family="Helvetica,sans-Serif" font-size="10.00">+ FullRange</text>
<text text-anchor="start" x="365" y="-585.5" font-family="Helvetica,sans-Serif" font-size="10.00">+ Enable</text>
<text text-anchor="start" x="365" y="-574.5" font-family="Helvetica,sans-Serif" font-size="10.00">+ PrivateTemplate</text>
<text text-anchor="start" x="365" y="-563.5" font-family="Helvetica,sans-Serif" font-size="10.00">+ OverwriteTemplate</text>
<text text-anchor="start" x="365" y="-552.5" font-family="Helvetica,sans-Serif" font-size="10.00">+ Time</text>
<text text-anchor="start" x="365" y="-541.5" font-family="Helvetica,sans-Serif" font-size="10.00">+ OriginalTime</text>
<text text-anchor="start" x="365" y="-530.5" font-family="Helvetica,sans-Serif" font-size="10.00">+ Duration</text>
<text text-anchor="start" x="365" y="-519.5" font-family="Helvetica,sans-Serif" font-size="10.00">+ UnknownData00</text>
<text text-anchor="start" x="365" y="-508.5" font-family="Helvetica,sans-Serif" font-size="10.00">+ RepeatCount</text>
<text text-anchor="start" x="365" y="-497.5" font-family="Helvetica,sans-Serif" font-size="10.00">+ RepeatTerm</text>
<text text-anchor="start" x="365" y="-486.5" font-family="Helvetica,sans-Serif" font-size="10.00">+ SortPriority</text>
<text text-anchor="start" x="365" y="-475.5" font-family="Helvetica,sans-Serif" font-size="10.00">+ Probability</text>
<polyline fill="none" stroke="black" points="357,-468.5 480,-468.5 "/>
<text text-anchor="start" x="365" y="-456.5" font-family="Helvetica,sans-Serif" font-size="10.00">+ StaticClass()</text>
</a>
</g>
</g>
<!-- Node2&#45;&gt;Node1 -->
<g id="edge1" class="edge">
<title>Node2&#45;&gt;Node1</title>
<path fill="none" stroke="midnightblue" d="M418.5,-439.16C418.5,-422.81 418.5,-406.2 418.5,-390.53"/>
<polygon fill="none" stroke="midnightblue" points="415,-439.29 418.5,-449.29 422,-439.29 415,-439.29"/>
</g>
<!-- Node3 -->
<g id="node3" class="node">
<title>Node3</title>
<g id="a_node3"><a xlink:href="../../d9/d45/classSDK_1_1UObject.html" target="_top" xlink:title=" ">
<polygon fill="white" stroke="black" points="663.5,-697.5 663.5,-941.5 861.5,-941.5 861.5,-697.5 663.5,-697.5"/>
<text text-anchor="middle" x="762.5" y="-929.5" font-family="Helvetica,sans-Serif" font-size="10.00">SDK::UObject</text>
<polyline fill="none" stroke="black" points="663.5,-922.5 861.5,-922.5 "/>
<text text-anchor="start" x="671.5" y="-910.5" font-family="Helvetica,sans-Serif" font-size="10.00">+ ObjectInternalInteger</text>
<text text-anchor="start" x="671.5" y="-899.5" font-family="Helvetica,sans-Serif" font-size="10.00">+ NetIndex</text>
<polyline fill="none" stroke="black" points="663.5,-892.5 861.5,-892.5 "/>
<text text-anchor="start" x="671.5" y="-880.5" font-family="Helvetica,sans-Serif" font-size="10.00">+ UObject::GetName()</text>
<text text-anchor="start" x="671.5" y="-869.5" font-family="Helvetica,sans-Serif" font-size="10.00">+ GetFullName()</text>
<text text-anchor="start" x="671.5" y="-858.5" font-family="Helvetica,sans-Serif" font-size="10.00">+ IsA()</text>
<text text-anchor="start" x="671.5" y="-847.5" font-family="Helvetica,sans-Serif" font-size="10.00">+ ProcessEvent()</text>
<text text-anchor="start" x="671.5" y="-836.5" font-family="Helvetica,sans-Serif" font-size="10.00">+ STATIC_ProfNodeEvent()</text>
<text text-anchor="start" x="671.5" y="-825.5" font-family="Helvetica,sans-Serif" font-size="10.00">+ STATIC_ProfNodeSetDepthThreshold()</text>
<text text-anchor="start" x="671.5" y="-814.5" font-family="Helvetica,sans-Serif" font-size="10.00">+ STATIC_ProfNodeSetTimeThreshold</text>
<text text-anchor="start" x="671.5" y="-803.5" font-family="Helvetica,sans-Serif" font-size="10.00">Seconds()</text>
<text text-anchor="start" x="671.5" y="-792.5" font-family="Helvetica,sans-Serif" font-size="10.00">+ STATIC_ProfNodeStop()</text>
<text text-anchor="start" x="671.5" y="-781.5" font-family="Helvetica,sans-Serif" font-size="10.00">+ STATIC_ProfNodeStart()</text>
<text text-anchor="start" x="671.5" y="-770.5" font-family="Helvetica,sans-Serif" font-size="10.00">+ STATIC_GetStringFromGuid()</text>
<text text-anchor="start" x="671.5" y="-759.5" font-family="Helvetica,sans-Serif" font-size="10.00">and 298 more...</text>
<text text-anchor="start" x="671.5" y="-748.5" font-family="Helvetica,sans-Serif" font-size="10.00">+ GetGlobalObjects()</text>
<text text-anchor="start" x="671.5" y="-737.5" font-family="Helvetica,sans-Serif" font-size="10.00">+ FindObject()</text>
<text text-anchor="start" x="671.5" y="-726.5" font-family="Helvetica,sans-Serif" font-size="10.00">+ FindClass()</text>
<text text-anchor="start" x="671.5" y="-715.5" font-family="Helvetica,sans-Serif" font-size="10.00">+ GetObjectCasted()</text>
<text text-anchor="start" x="671.5" y="-704.5" font-family="Helvetica,sans-Serif" font-size="10.00">+ StaticClass()</text>
</a>
</g>
</g>
<!-- Node3&#45;&gt;Node2 -->
<g id="edge2" class="edge">
<title>Node3&#45;&gt;Node2</title>
<path fill="none" stroke="midnightblue" d="M654.74,-700.28C653.01,-699.15 651.26,-698.06 649.5,-697 623.09,-681.09 610.08,-692.79 582.5,-679 545.78,-660.64 509.38,-633.31 480.24,-608.56"/>
<polygon fill="none" stroke="midnightblue" points="653.1,-703.4 663.33,-706.17 657.06,-697.63 653.1,-703.4"/>
</g>
<!-- Node3&#45;&gt;Node3 -->
<g id="edge8" class="edge">
<title>Node3&#45;&gt;Node3</title>
<path fill="none" stroke="#404040" d="M861.51,-842.53C872.44,-838.15 879.5,-830.48 879.5,-819.5 879.5,-812.64 876.74,-807.07 872.01,-802.78"/>
<polygon fill="none" stroke="#404040" points="871.8,-802.66 864.59,-802.99 861.51,-796.47 868.72,-796.14 871.8,-802.66"/>
<text text-anchor="middle" x="919" y="-828" font-family="Helvetica,sans-Serif" font-size="10.00"> +Outer</text>
<text text-anchor="middle" x="919" y="-817" font-family="Helvetica,sans-Serif" font-size="10.00">+Linker</text>
<text text-anchor="middle" x="919" y="-806" font-family="Helvetica,sans-Serif" font-size="10.00">+ObjectArchetype</text>
</g>
<!-- Node9 -->
<g id="node9" class="node">
<title>Node9</title>
<g id="a_node9"><a xlink:href="../../d3/d79/classSDK_1_1TArray.html" target="_top" xlink:title=" ">
<polygon fill="white" stroke="black" points="904,-482.5 904,-616.5 1065,-616.5 1065,-482.5 904,-482.5"/>
<text text-anchor="middle" x="984.5" y="-604.5" font-family="Helvetica,sans-Serif" font-size="10.00">SDK::TArray&lt; SDK::UObject * &gt;</text>
<polyline fill="none" stroke="black" points="904,-597.5 1065,-597.5 "/>
<text text-anchor="start" x="912" y="-585.5" font-family="Helvetica,sans-Serif" font-size="10.00">&#45; Count</text>
<text text-anchor="start" x="912" y="-574.5" font-family="Helvetica,sans-Serif" font-size="10.00">&#45; Max</text>
<polyline fill="none" stroke="black" points="904,-567.5 1065,-567.5 "/>
<text text-anchor="start" x="912" y="-555.5" font-family="Helvetica,sans-Serif" font-size="10.00">+ TArray()</text>
<text text-anchor="start" x="912" y="-544.5" font-family="Helvetica,sans-Serif" font-size="10.00">+ Num()</text>
<text text-anchor="start" x="912" y="-533.5" font-family="Helvetica,sans-Serif" font-size="10.00">+ operator[]()</text>
<text text-anchor="start" x="912" y="-522.5" font-family="Helvetica,sans-Serif" font-size="10.00">+ operator[]()</text>
<text text-anchor="start" x="912" y="-511.5" font-family="Helvetica,sans-Serif" font-size="10.00">+ IsValidIndex()</text>
<text text-anchor="start" x="912" y="-500.5" font-family="Helvetica,sans-Serif" font-size="10.00">+ GetByIndex()</text>
<text text-anchor="start" x="912" y="-489.5" font-family="Helvetica,sans-Serif" font-size="10.00">+ GetByIndex()</text>
</a>
</g>
</g>
<!-- Node3&#45;&gt;Node9 -->
<g id="edge10" class="edge">
<title>Node3&#45;&gt;Node9</title>
<path fill="none" stroke="#404040" d="M820.19,-697.47C828.37,-686.66 837.47,-676.58 847.5,-668 864.81,-653.19 876.69,-662.86 895.5,-650 905.79,-642.96 915.69,-634.48 924.9,-625.49"/>
<polygon fill="none" stroke="#404040" points="925.1,-625.28 926.46,-618.2 933.52,-616.73 932.16,-623.81 925.1,-625.28"/>
<text text-anchor="middle" x="861.5" y="-671" font-family="Helvetica,sans-Serif" font-size="10.00"> &#45;Data</text>
</g>
<!-- Node11 -->
<g id="node11" class="node">
<title>Node11</title>
<g id="a_node11"><a xlink:href="../../d7/d85/classSDK_1_1UClass.html" target="_top" xlink:title=" ">
<polygon fill="white" stroke="black" points="665,-0.5 665,-90.5 786,-90.5 786,-0.5 665,-0.5"/>
<text text-anchor="middle" x="725.5" y="-78.5" font-family="Helvetica,sans-Serif" font-size="10.00">SDK::UClass</text>
<polyline fill="none" stroke="black" points="665,-71.5 786,-71.5 "/>
<text text-anchor="start" x="673" y="-59.5" font-family="Helvetica,sans-Serif" font-size="10.00">+ UnknownData00</text>
<text text-anchor="start" x="673" y="-48.5" font-family="Helvetica,sans-Serif" font-size="10.00">+ UnknownData01</text>
<polyline fill="none" stroke="black" points="665,-41.5 786,-41.5 "/>
<text text-anchor="start" x="673" y="-29.5" font-family="Helvetica,sans-Serif" font-size="10.00">+ CreateDefaultObject()</text>
<text text-anchor="start" x="673" y="-18.5" font-family="Helvetica,sans-Serif" font-size="10.00">+ CreateDefaultObject()</text>
<text text-anchor="start" x="673" y="-7.5" font-family="Helvetica,sans-Serif" font-size="10.00">+ StaticClass()</text>
</a>
</g>
</g>
<!-- Node3&#45;&gt;Node11 -->
<g id="edge20" class="edge">
<title>Node3&#45;&gt;Node11</title>
<path fill="none" stroke="#404040" d="M668.92,-697.42C630.35,-642.62 594.5,-582.97 594.5,-550.5 594.5,-550.5 594.5,-550.5 594.5,-156 594.5,-120.34 623.44,-94.01 654.11,-76.12"/>
<polygon fill="none" stroke="#404040" points="654.47,-75.92 657.8,-69.53 664.98,-70.14 661.65,-76.54 654.47,-75.92"/>
<text text-anchor="middle" x="642" y="-304.5" font-family="Helvetica,sans-Serif" font-size="10.00"> +ClassDefaultObject</text>
</g>
<!-- Node14 -->
<g id="node14" class="node">
<title>Node14</title>
<g id="a_node14"><a xlink:href="../../de/dd6/classSDK_1_1UField.html" target="_top" xlink:title=" ">
<polygon fill="white" stroke="black" points="754,-521 754,-578 837,-578 837,-521 754,-521"/>
<text text-anchor="middle" x="795.5" y="-566" font-family="Helvetica,sans-Serif" font-size="10.00">SDK::UField</text>
<polyline fill="none" stroke="black" points="754,-559 837,-559 "/>
<text text-anchor="middle" x="795.5" y="-547" font-family="Helvetica,sans-Serif" font-size="10.00"> </text>
<polyline fill="none" stroke="black" points="754,-540 837,-540 "/>
<text text-anchor="start" x="762" y="-528" font-family="Helvetica,sans-Serif" font-size="10.00">+ StaticClass()</text>
</a>
</g>
</g>
<!-- Node3&#45;&gt;Node14 -->
<g id="edge17" class="edge">
<title>Node3&#45;&gt;Node14</title>
<path fill="none" stroke="midnightblue" d="M778.66,-687.27C783.73,-646.1 788.84,-604.58 792.08,-578.27"/>
<polygon fill="none" stroke="midnightblue" points="775.16,-687.08 777.41,-697.44 782.1,-687.94 775.16,-687.08"/>
</g>
<!-- Node4 -->
<g id="node4" class="node">
<title>Node4</title>
<g id="a_node4"><a xlink:href="../../d0/d22/structSDK_1_1FQWord.html" target="_top" xlink:title=" ">
<polygon fill="white" stroke="black" points="788.5,-1039 788.5,-1107 868.5,-1107 868.5,-1039 788.5,-1039"/>
<text text-anchor="middle" x="828.5" y="-1095" font-family="Helvetica,sans-Serif" font-size="10.00">SDK::FQWord</text>
<polyline fill="none" stroke="black" points="788.5,-1088 868.5,-1088 "/>
<text text-anchor="start" x="796.5" y="-1076" font-family="Helvetica,sans-Serif" font-size="10.00">+ A</text>
<text text-anchor="start" x="796.5" y="-1065" font-family="Helvetica,sans-Serif" font-size="10.00">+ B</text>
<polyline fill="none" stroke="black" points="788.5,-1058 868.5,-1058 "/>
<text text-anchor="middle" x="828.5" y="-1046" font-family="Helvetica,sans-Serif" font-size="10.00"> </text>
</a>
</g>
</g>
<!-- Node4&#45;&gt;Node3 -->
<g id="edge3" class="edge">
<title>Node4&#45;&gt;Node3</title>
<path fill="none" stroke="#404040" d="M819.8,-1038.86C813.93,-1016.47 805.74,-985.28 797.4,-953.48"/>
<polygon fill="none" stroke="#404040" points="797.37,-953.36 791.97,-948.57 794.32,-941.75 799.71,-946.54 797.37,-953.36"/>
<text text-anchor="middle" x="837.5" y="-974" font-family="Helvetica,sans-Serif" font-size="10.00"> +ObjectFlags</text>
</g>
<!-- Node5 -->
<g id="node5" class="node">
<title>Node5</title>
<g id="a_node5"><a xlink:href="../../d0/db6/structSDK_1_1FName.html" target="_top" xlink:title=" ">
<polygon fill="white" stroke="black" points="663,-1011.5 663,-1134.5 770,-1134.5 770,-1011.5 663,-1011.5"/>
<text text-anchor="middle" x="716.5" y="-1122.5" font-family="Helvetica,sans-Serif" font-size="10.00">SDK::FName</text>
<polyline fill="none" stroke="black" points="663,-1115.5 770,-1115.5 "/>
<text text-anchor="start" x="671" y="-1103.5" font-family="Helvetica,sans-Serif" font-size="10.00">+ Index</text>
<text text-anchor="start" x="671" y="-1092.5" font-family="Helvetica,sans-Serif" font-size="10.00">+ Number</text>
<polyline fill="none" stroke="black" points="663,-1085.5 770,-1085.5 "/>
<text text-anchor="start" x="671" y="-1073.5" font-family="Helvetica,sans-Serif" font-size="10.00">+ FName()</text>
<text text-anchor="start" x="671" y="-1062.5" font-family="Helvetica,sans-Serif" font-size="10.00">+ FName()</text>
<text text-anchor="start" x="671" y="-1051.5" font-family="Helvetica,sans-Serif" font-size="10.00">+ FName()</text>
<text text-anchor="start" x="671" y="-1040.5" font-family="Helvetica,sans-Serif" font-size="10.00">+ GetName()</text>
<text text-anchor="start" x="671" y="-1029.5" font-family="Helvetica,sans-Serif" font-size="10.00">+ operator==()</text>
<text text-anchor="start" x="671" y="-1018.5" font-family="Helvetica,sans-Serif" font-size="10.00">+ GetGlobalNames()</text>
</a>
</g>
</g>
<!-- Node5&#45;&gt;Node3 -->
<g id="edge4" class="edge">
<title>Node5&#45;&gt;Node3</title>
<path fill="none" stroke="#404040" d="M727.58,-1011.44C730.8,-993.82 734.45,-973.84 738.15,-953.61"/>
<polygon fill="none" stroke="#404040" points="738.18,-953.49 735.32,-946.87 740.33,-941.69 743.19,-948.31 738.18,-953.49"/>
<text text-anchor="middle" x="754.5" y="-974" font-family="Helvetica,sans-Serif" font-size="10.00"> +Name</text>
</g>
<!-- Node6 -->
<g id="node6" class="node">
<title>Node6</title>
<g id="a_node6"><a xlink:href="../../d3/d79/classSDK_1_1TArray.html" target="_top" xlink:title=" ">
<polygon fill="white" stroke="black" points="626.5,-1188 626.5,-1322 806.5,-1322 806.5,-1188 626.5,-1188"/>
<text text-anchor="middle" x="716.5" y="-1310" font-family="Helvetica,sans-Serif" font-size="10.00">SDK::TArray&lt; SDK::FNameEntry * &gt;</text>
<polyline fill="none" stroke="black" points="626.5,-1303 806.5,-1303 "/>
<text text-anchor="start" x="634.5" y="-1291" font-family="Helvetica,sans-Serif" font-size="10.00">&#45; Count</text>
<text text-anchor="start" x="634.5" y="-1280" font-family="Helvetica,sans-Serif" font-size="10.00">&#45; Max</text>
<polyline fill="none" stroke="black" points="626.5,-1273 806.5,-1273 "/>
<text text-anchor="start" x="634.5" y="-1261" font-family="Helvetica,sans-Serif" font-size="10.00">+ TArray()</text>
<text text-anchor="start" x="634.5" y="-1250" font-family="Helvetica,sans-Serif" font-size="10.00">+ Num()</text>
<text text-anchor="start" x="634.5" y="-1239" font-family="Helvetica,sans-Serif" font-size="10.00">+ operator[]()</text>
<text text-anchor="start" x="634.5" y="-1228" font-family="Helvetica,sans-Serif" font-size="10.00">+ operator[]()</text>
<text text-anchor="start" x="634.5" y="-1217" font-family="Helvetica,sans-Serif" font-size="10.00">+ IsValidIndex()</text>
<text text-anchor="start" x="634.5" y="-1206" font-family="Helvetica,sans-Serif" font-size="10.00">+ GetByIndex()</text>
<text text-anchor="start" x="634.5" y="-1195" font-family="Helvetica,sans-Serif" font-size="10.00">+ GetByIndex()</text>
</a>
</g>
</g>
<!-- Node6&#45;&gt;Node5 -->
<g id="edge5" class="edge">
<title>Node6&#45;&gt;Node5</title>
<path fill="none" stroke="#404040" d="M716.5,-1188C716.5,-1174.63 716.5,-1160.5 716.5,-1146.91"/>
<polygon fill="none" stroke="#404040" points="716.5,-1146.62 712.5,-1140.62 716.5,-1134.62 720.5,-1140.62 716.5,-1146.62"/>
<text text-anchor="middle" x="741" y="-1156" font-family="Helvetica,sans-Serif" font-size="10.00"> +GNames</text>
</g>
<!-- Node7 -->
<g id="node7" class="node">
<title>Node7</title>
<g id="a_node7"><a xlink:href="../../d7/ddf/classSDK_1_1FNameEntry.html" target="_top" xlink:title=" ">
<polygon fill="white" stroke="black" points="970,-1414 970,-1482 1069,-1482 1069,-1414 970,-1414"/>
<text text-anchor="middle" x="1019.5" y="-1470" font-family="Helvetica,sans-Serif" font-size="10.00">SDK::FNameEntry</text>
<polyline fill="none" stroke="black" points="970,-1463 1069,-1463 "/>
<text text-anchor="start" x="978" y="-1451" font-family="Helvetica,sans-Serif" font-size="10.00">+ UnknownData00</text>
<text text-anchor="start" x="978" y="-1440" font-family="Helvetica,sans-Serif" font-size="10.00">+ name</text>
<polyline fill="none" stroke="black" points="970,-1433 1069,-1433 "/>
<text text-anchor="start" x="978" y="-1421" font-family="Helvetica,sans-Serif" font-size="10.00">+ GetName()</text>
</a>
</g>
</g>
<!-- Node7&#45;&gt;Node6 -->
<g id="edge6" class="edge">
<title>Node7&#45;&gt;Node6</title>
<path fill="none" stroke="#404040" d="M969.81,-1415.67C928.5,-1389.63 868.39,-1351.75 817.1,-1319.41"/>
<polygon fill="none" stroke="#404040" points="816.78,-1319.21 809.57,-1319.4 806.63,-1312.81 813.84,-1312.63 816.78,-1319.21"/>
<text text-anchor="middle" x="881.5" y="-1349" font-family="Helvetica,sans-Serif" font-size="10.00"> &#45;Data</text>
</g>
<!-- Node8 -->
<g id="node8" class="node">
<title>Node8</title>
<g id="a_node8"><a xlink:href="../../d3/d79/classSDK_1_1TArray.html" target="_top" xlink:title=" ">
<polygon fill="white" stroke="black" points="478,-1375.5 478,-1520.5 575,-1520.5 575,-1375.5 478,-1375.5"/>
<text text-anchor="middle" x="526.5" y="-1508.5" font-family="Helvetica,sans-Serif" font-size="10.00">SDK::TArray&lt; T &gt;</text>
<polyline fill="none" stroke="black" points="478,-1501.5 575,-1501.5 "/>
<text text-anchor="start" x="486" y="-1489.5" font-family="Helvetica,sans-Serif" font-size="10.00">&#45; Data</text>
<text text-anchor="start" x="486" y="-1478.5" font-family="Helvetica,sans-Serif" font-size="10.00">&#45; Count</text>
<text text-anchor="start" x="486" y="-1467.5" font-family="Helvetica,sans-Serif" font-size="10.00">&#45; Max</text>
<polyline fill="none" stroke="black" points="478,-1460.5 575,-1460.5 "/>
<text text-anchor="start" x="486" y="-1448.5" font-family="Helvetica,sans-Serif" font-size="10.00">+ TArray()</text>
<text text-anchor="start" x="486" y="-1437.5" font-family="Helvetica,sans-Serif" font-size="10.00">+ Num()</text>
<text text-anchor="start" x="486" y="-1426.5" font-family="Helvetica,sans-Serif" font-size="10.00">+ operator[]()</text>
<text text-anchor="start" x="486" y="-1415.5" font-family="Helvetica,sans-Serif" font-size="10.00">+ operator[]()</text>
<text text-anchor="start" x="486" y="-1404.5" font-family="Helvetica,sans-Serif" font-size="10.00">+ IsValidIndex()</text>
<text text-anchor="start" x="486" y="-1393.5" font-family="Helvetica,sans-Serif" font-size="10.00">+ GetByIndex()</text>
<text text-anchor="start" x="486" y="-1382.5" font-family="Helvetica,sans-Serif" font-size="10.00">+ GetByIndex()</text>
</a>
</g>
</g>
<!-- Node8&#45;&gt;Node6 -->
<g id="edge7" class="edge">
<title>Node8&#45;&gt;Node6</title>
<path fill="none" stroke="orange" d="M582.54,-1390.67C603.87,-1369.22 628.38,-1344.59 650.55,-1322.3"/>
<polygon fill="orange" stroke="orange" points="580,-1388.25 575.43,-1397.81 584.96,-1393.19 580,-1388.25"/>
<text text-anchor="middle" x="677" y="-1349" font-family="Helvetica,sans-Serif" font-size="10.00"> &lt; SDK::FNameEntry * &gt;</text>
</g>
<!-- Node8&#45;&gt;Node9 -->
<g id="edge11" class="edge">
<title>Node8&#45;&gt;Node9</title>
<path fill="none" stroke="orange" d="M585.39,-1435.48C709.47,-1409.5 986.5,-1341.89 986.5,-1256 986.5,-1256 986.5,-1256 986.5,-818.5 986.5,-749.64 985.83,-670.82 985.27,-616.58"/>
<polygon fill="orange" stroke="orange" points="584.37,-1432.11 575.29,-1437.57 585.79,-1438.96 584.37,-1432.11"/>
<text text-anchor="middle" x="1032" y="-1070.5" font-family="Helvetica,sans-Serif" font-size="10.00"> &lt; SDK::UObject * &gt;</text>
</g>
<!-- Node16 -->
<g id="node16" class="node">
<title>Node16</title>
<g id="a_node16"><a xlink:href="../../d3/d79/classSDK_1_1TArray.html" target="_top" xlink:title=" ">
<polygon fill="white" stroke="black" points="307,-747 307,-892 414,-892 414,-747 307,-747"/>
<text text-anchor="start" x="315" y="-880" font-family="Helvetica,sans-Serif" font-size="10.00">SDK::TArray&lt; struct</text>
<text text-anchor="middle" x="360.5" y="-869" font-family="Helvetica,sans-Serif" font-size="10.00"> SDK::FString &gt;</text>
<polyline fill="none" stroke="black" points="307,-862 414,-862 "/>
<text text-anchor="start" x="315" y="-850" font-family="Helvetica,sans-Serif" font-size="10.00">&#45; Count</text>
<text text-anchor="start" x="315" y="-839" font-family="Helvetica,sans-Serif" font-size="10.00">&#45; Max</text>
<polyline fill="none" stroke="black" points="307,-832 414,-832 "/>
<text text-anchor="start" x="315" y="-820" font-family="Helvetica,sans-Serif" font-size="10.00">+ TArray()</text>
<text text-anchor="start" x="315" y="-809" font-family="Helvetica,sans-Serif" font-size="10.00">+ Num()</text>
<text text-anchor="start" x="315" y="-798" font-family="Helvetica,sans-Serif" font-size="10.00">+ operator[]()</text>
<text text-anchor="start" x="315" y="-787" font-family="Helvetica,sans-Serif" font-size="10.00">+ operator[]()</text>
<text text-anchor="start" x="315" y="-776" font-family="Helvetica,sans-Serif" font-size="10.00">+ IsValidIndex()</text>
<text text-anchor="start" x="315" y="-765" font-family="Helvetica,sans-Serif" font-size="10.00">+ GetByIndex()</text>
<text text-anchor="start" x="315" y="-754" font-family="Helvetica,sans-Serif" font-size="10.00">+ GetByIndex()</text>
</a>
</g>
</g>
<!-- Node8&#45;&gt;Node16 -->
<g id="edge27" class="edge">
<title>Node8&#45;&gt;Node16</title>
<path fill="none" stroke="orange" d="M505.41,-1365.35C491.82,-1312.93 473.74,-1243.42 457.5,-1182 430.89,-1081.33 399.58,-965.04 379.89,-892.13"/>
<polygon fill="orange" stroke="orange" points="502.08,-1366.46 507.97,-1375.26 508.86,-1364.7 502.08,-1366.46"/>
<text text-anchor="middle" x="506.5" y="-1156" font-family="Helvetica,sans-Serif" font-size="10.00"> &lt; struct SDK::FString &gt;</text>
</g>
<!-- Node18 -->
<g id="node18" class="node">
<title>Node18</title>
<g id="a_node18"><a xlink:href="../../d3/d79/classSDK_1_1TArray.html" target="_top" xlink:title=" ">
<polygon fill="white" stroke="black" points="323,-1182.5 323,-1327.5 448,-1327.5 448,-1182.5 323,-1182.5"/>
<text text-anchor="middle" x="385.5" y="-1315.5" font-family="Helvetica,sans-Serif" font-size="10.00">SDK::TArray&lt; wchar_t &gt;</text>
<polyline fill="none" stroke="black" points="323,-1308.5 448,-1308.5 "/>
<text text-anchor="start" x="331" y="-1296.5" font-family="Helvetica,sans-Serif" font-size="10.00">&#45; Data</text>
<text text-anchor="start" x="331" y="-1285.5" font-family="Helvetica,sans-Serif" font-size="10.00">&#45; Count</text>
<text text-anchor="start" x="331" y="-1274.5" font-family="Helvetica,sans-Serif" font-size="10.00">&#45; Max</text>
<polyline fill="none" stroke="black" points="323,-1267.5 448,-1267.5 "/>
<text text-anchor="start" x="331" y="-1255.5" font-family="Helvetica,sans-Serif" font-size="10.00">+ TArray()</text>
<text text-anchor="start" x="331" y="-1244.5" font-family="Helvetica,sans-Serif" font-size="10.00">+ Num()</text>
<text text-anchor="start" x="331" y="-1233.5" font-family="Helvetica,sans-Serif" font-size="10.00">+ operator[]()</text>
<text text-anchor="start" x="331" y="-1222.5" font-family="Helvetica,sans-Serif" font-size="10.00">+ operator[]()</text>
<text text-anchor="start" x="331" y="-1211.5" font-family="Helvetica,sans-Serif" font-size="10.00">+ IsValidIndex()</text>
<text text-anchor="start" x="331" y="-1200.5" font-family="Helvetica,sans-Serif" font-size="10.00">+ GetByIndex()</text>
<text text-anchor="start" x="331" y="-1189.5" font-family="Helvetica,sans-Serif" font-size="10.00">+ GetByIndex()</text>
</a>
</g>
</g>
<!-- Node8&#45;&gt;Node18 -->
<g id="edge26" class="edge">
<title>Node8&#45;&gt;Node18</title>
<path fill="none" stroke="orange" d="M469.7,-1412.03C449.74,-1397.24 428.76,-1378.45 414.5,-1357 408.59,-1348.11 403.87,-1338.01 400.1,-1327.72"/>
<polygon fill="orange" stroke="orange" points="467.71,-1414.91 477.87,-1417.91 471.8,-1409.23 467.71,-1414.91"/>
<text text-anchor="middle" x="442.5" y="-1349" font-family="Helvetica,sans-Serif" font-size="10.00"> &lt; wchar_t &gt;</text>
</g>
<!-- Node9&#45;&gt;Node3 -->
<g id="edge9" class="edge">
<title>Node9&#45;&gt;Node3</title>
<path fill="none" stroke="#404040" d="M929.68,-616.68C911.39,-638.75 890.34,-664.17 869.48,-689.35"/>
<polygon fill="none" stroke="#404040" points="869.47,-689.37 868.72,-696.54 861.81,-698.61 862.56,-691.44 869.47,-689.37"/>
<text text-anchor="middle" x="912" y="-671" font-family="Helvetica,sans-Serif" font-size="10.00"> +GObjects</text>
</g>
<!-- Node10 -->
<g id="node10" class="node">
<title>Node10</title>
<g id="a_node10"><a xlink:href="../../d9/dfa/structSDK_1_1FPointer.html" target="_top" xlink:title=" ">
<polygon fill="white" stroke="black" points="535.5,-1039 535.5,-1107 633.5,-1107 633.5,-1039 535.5,-1039"/>
<text text-anchor="middle" x="584.5" y="-1095" font-family="Helvetica,sans-Serif" font-size="10.00">SDK::FPointer</text>
<polyline fill="none" stroke="black" points="535.5,-1088 633.5,-1088 "/>
<text text-anchor="start" x="543.5" y="-1076" font-family="Helvetica,sans-Serif" font-size="10.00">+ Dummy</text>
<text text-anchor="start" x="543.5" y="-1065" font-family="Helvetica,sans-Serif" font-size="10.00">+ UnknownData00</text>
<polyline fill="none" stroke="black" points="535.5,-1058 633.5,-1058 "/>
<text text-anchor="middle" x="584.5" y="-1046" font-family="Helvetica,sans-Serif" font-size="10.00"> </text>
</a>
</g>
</g>
<!-- Node10&#45;&gt;Node2 -->
<g id="edge21" class="edge">
<title>Node10&#45;&gt;Node2</title>
<path fill="none" stroke="#404040" d="M574.75,-1038.84C567.33,-1012.71 557.27,-975.26 550.5,-942 525.89,-821.14 560.81,-778.74 506.5,-668 500.91,-656.61 494.18,-645.21 486.94,-634.23"/>
<polygon fill="none" stroke="#404040" points="486.92,-634.21 480.24,-631.49 480.18,-624.28 486.86,-627 486.92,-634.21"/>
<text text-anchor="middle" x="602.5" y="-817" font-family="Helvetica,sans-Serif" font-size="10.00"> +TmpActionNotifyData</text>
</g>
<!-- Node10&#45;&gt;Node3 -->
<g id="edge12" class="edge">
<title>Node10&#45;&gt;Node3</title>
<path fill="none" stroke="#404040" d="M605.32,-1038.77C619.62,-1016.28 639.25,-986.04 657.5,-960 659.39,-957.3 661.31,-954.58 663.26,-951.84"/>
<polygon fill="none" stroke="#404040" points="663.4,-951.64 663.64,-944.43 670.38,-941.87 670.15,-949.08 663.4,-951.64"/>
<text text-anchor="middle" x="692" y="-985" font-family="Helvetica,sans-Serif" font-size="10.00"> +StateFrame</text>
<text text-anchor="middle" x="692" y="-974" font-family="Helvetica,sans-Serif" font-size="10.00">+VfTableObject</text>
<text text-anchor="middle" x="692" y="-963" font-family="Helvetica,sans-Serif" font-size="10.00">+LinkerIndex</text>
</g>
<!-- Node11&#45;&gt;Node3 -->
<g id="edge13" class="edge">
<title>Node11&#45;&gt;Node3</title>
<path fill="none" stroke="#404040" d="M725.5,-90.72C725.5,-110.67 725.5,-134.52 725.5,-156 725.5,-550.5 725.5,-550.5 725.5,-550.5 725.5,-594.61 730.48,-642.43 736.79,-685.3"/>
<polygon fill="none" stroke="#404040" points="736.8,-685.38 741.65,-690.72 738.6,-697.25 733.74,-691.92 736.8,-685.38"/>
<text text-anchor="middle" x="743" y="-304.5" font-family="Helvetica,sans-Serif" font-size="10.00"> +Class</text>
</g>
<!-- Node12 -->
<g id="node12" class="node">
<title>Node12</title>
<g id="a_node12"><a xlink:href="../../df/d72/classSDK_1_1UState.html" target="_top" xlink:title=" ">
<polygon fill="white" stroke="black" points="765.5,-128.5 765.5,-185.5 863.5,-185.5 863.5,-128.5 765.5,-128.5"/>
<text text-anchor="middle" x="814.5" y="-173.5" font-family="Helvetica,sans-Serif" font-size="10.00">SDK::UState</text>
<polyline fill="none" stroke="black" points="765.5,-166.5 863.5,-166.5 "/>
<text text-anchor="start" x="773.5" y="-154.5" font-family="Helvetica,sans-Serif" font-size="10.00">+ UnknownData00</text>
<polyline fill="none" stroke="black" points="765.5,-147.5 863.5,-147.5 "/>
<text text-anchor="start" x="773.5" y="-135.5" font-family="Helvetica,sans-Serif" font-size="10.00">+ StaticClass()</text>
</a>
</g>
</g>
<!-- Node12&#45;&gt;Node11 -->
<g id="edge14" class="edge">
<title>Node12&#45;&gt;Node11</title>
<path fill="none" stroke="midnightblue" d="M785.51,-120.33C777.83,-110.89 769.45,-100.58 761.46,-90.74"/>
<polygon fill="none" stroke="midnightblue" points="783.02,-122.82 792.04,-128.37 788.45,-118.4 783.02,-122.82"/>
</g>
<!-- Node13 -->
<g id="node13" class="node">
<title>Node13</title>
<g id="a_node13"><a xlink:href="../../d8/de9/classSDK_1_1UStruct.html" target="_top" xlink:title=" ">
<polygon fill="white" stroke="black" points="778.5,-267.5 778.5,-346.5 876.5,-346.5 876.5,-267.5 778.5,-267.5"/>
<text text-anchor="middle" x="827.5" y="-334.5" font-family="Helvetica,sans-Serif" font-size="10.00">SDK::UStruct</text>
<polyline fill="none" stroke="black" points="778.5,-327.5 876.5,-327.5 "/>
<text text-anchor="start" x="786.5" y="-315.5" font-family="Helvetica,sans-Serif" font-size="10.00">+ UnknownData00</text>
<text text-anchor="start" x="786.5" y="-304.5" font-family="Helvetica,sans-Serif" font-size="10.00">+ PropertySize</text>
<text text-anchor="start" x="786.5" y="-293.5" font-family="Helvetica,sans-Serif" font-size="10.00">+ UnknownData01</text>
<polyline fill="none" stroke="black" points="778.5,-286.5 876.5,-286.5 "/>
<text text-anchor="start" x="786.5" y="-274.5" font-family="Helvetica,sans-Serif" font-size="10.00">+ StaticClass()</text>
</a>
</g>
</g>
<!-- Node13&#45;&gt;Node12 -->
<g id="edge15" class="edge">
<title>Node13&#45;&gt;Node12</title>
<path fill="none" stroke="midnightblue" d="M823.19,-256.92C821.11,-233.31 818.7,-205.86 816.95,-185.88"/>
<polygon fill="none" stroke="midnightblue" points="819.72,-257.46 824.08,-267.11 826.7,-256.85 819.72,-257.46"/>
</g>
<!-- Node14&#45;&gt;Node13 -->
<g id="edge16" class="edge">
<title>Node14&#45;&gt;Node13</title>
<path fill="none" stroke="midnightblue" d="M798.07,-510.69C800.21,-482.56 803.69,-443.28 808.5,-409 811.4,-388.33 815.62,-365.45 819.34,-346.71"/>
<polygon fill="none" stroke="midnightblue" points="794.56,-510.65 797.31,-520.88 801.54,-511.17 794.56,-510.65"/>
</g>
<!-- Node14&#45;&gt;Node13 -->
<g id="edge19" class="edge">
<title>Node14&#45;&gt;Node13</title>
<path fill="none" stroke="#404040" d="M799.17,-520.91C804.42,-481.44 814.17,-408.18 820.75,-358.76"/>
<polygon fill="none" stroke="#404040" points="820.76,-358.64 817.59,-352.16 822.34,-346.74 825.52,-353.22 820.76,-358.64"/>
<text text-anchor="middle" x="840.5" y="-423" font-family="Helvetica,sans-Serif" font-size="10.00"> +SuperField</text>
<text text-anchor="middle" x="840.5" y="-412" font-family="Helvetica,sans-Serif" font-size="10.00">+Children</text>
</g>
<!-- Node14&#45;&gt;Node14 -->
<g id="edge18" class="edge">
<title>Node14&#45;&gt;Node14</title>
<path fill="none" stroke="#404040" d="M837.21,-572.39C847.41,-570.69 855,-563.06 855,-549.5 855,-541.66 852.46,-535.8 848.35,-531.93"/>
<polygon fill="none" stroke="#404040" points="848.04,-531.78 840.9,-532.81 837.21,-526.61 844.34,-525.59 848.04,-531.78"/>
<text text-anchor="middle" x="870.5" y="-547" font-family="Helvetica,sans-Serif" font-size="10.00"> +Next</text>
</g>
<!-- Node15 -->
<g id="node15" class="node">
<title>Node15</title>
<g id="a_node15"><a xlink:href="../../d4/daf/structSDK_1_1FColor.html" target="_top" xlink:title=" ">
<polygon fill="white" stroke="black" points="432,-769 432,-870 505,-870 505,-769 432,-769"/>
<text text-anchor="middle" x="468.5" y="-858" font-family="Helvetica,sans-Serif" font-size="10.00">SDK::FColor</text>
<polyline fill="none" stroke="black" points="432,-851 505,-851 "/>
<text text-anchor="start" x="440" y="-839" font-family="Helvetica,sans-Serif" font-size="10.00">+ B</text>
<text text-anchor="start" x="440" y="-828" font-family="Helvetica,sans-Serif" font-size="10.00">+ G</text>
<text text-anchor="start" x="440" y="-817" font-family="Helvetica,sans-Serif" font-size="10.00">+ R</text>
<text text-anchor="start" x="440" y="-806" font-family="Helvetica,sans-Serif" font-size="10.00">+ A</text>
<polyline fill="none" stroke="black" points="432,-799 505,-799 "/>
<text text-anchor="start" x="440" y="-787" font-family="Helvetica,sans-Serif" font-size="10.00">+ FColor()</text>
<text text-anchor="start" x="440" y="-776" font-family="Helvetica,sans-Serif" font-size="10.00">+ FColor()</text>
</a>
</g>
</g>
<!-- Node15&#45;&gt;Node2 -->
<g id="edge22" class="edge">
<title>Node15&#45;&gt;Node2</title>
<path fill="none" stroke="#404040" d="M460.33,-768.95C455.39,-739.57 448.83,-701.61 442.5,-668 442.09,-665.83 441.68,-663.64 441.25,-661.43"/>
<polygon fill="none" stroke="#404040" points="441.22,-661.29 436.16,-656.15 438.95,-649.5 444.01,-654.64 441.22,-661.29"/>
<text text-anchor="middle" x="473" y="-671" font-family="Helvetica,sans-Serif" font-size="10.00"> +NotifyColor</text>
</g>
<!-- Node16&#45;&gt;Node2 -->
<g id="edge23" class="edge">
<title>Node16&#45;&gt;Node2</title>
<path fill="none" stroke="#404040" d="M357.22,-746.94C357.54,-721.71 359.61,-693.34 365.5,-668 366.03,-665.71 366.61,-663.41 367.23,-661.11"/>
<polygon fill="none" stroke="#404040" points="367.24,-661.07 365.1,-654.19 370.64,-649.57 372.78,-656.46 367.24,-661.07"/>
<text text-anchor="middle" x="402" y="-671" font-family="Helvetica,sans-Serif" font-size="10.00"> +ViewGroupList</text>
</g>
<!-- Node17 -->
<g id="node17" class="node">
<title>Node17</title>
<g id="a_node17"><a xlink:href="../../d3/d88/classSDK_1_1FString.html" target="_top" xlink:title=" ">
<polygon fill="white" stroke="black" points="323,-1022.5 323,-1123.5 398,-1123.5 398,-1022.5 323,-1022.5"/>
<text text-anchor="middle" x="360.5" y="-1111.5" font-family="Helvetica,sans-Serif" font-size="10.00">SDK::FString</text>
<polyline fill="none" stroke="black" points="323,-1104.5 398,-1104.5 "/>
<text text-anchor="middle" x="360.5" y="-1092.5" font-family="Helvetica,sans-Serif" font-size="10.00"> </text>
<polyline fill="none" stroke="black" points="323,-1085.5 398,-1085.5 "/>
<text text-anchor="start" x="331" y="-1073.5" font-family="Helvetica,sans-Serif" font-size="10.00">+ FString()</text>
<text text-anchor="start" x="331" y="-1062.5" font-family="Helvetica,sans-Serif" font-size="10.00">+ FString()</text>
<text text-anchor="start" x="331" y="-1051.5" font-family="Helvetica,sans-Serif" font-size="10.00">+ IsValid()</text>
<text text-anchor="start" x="331" y="-1040.5" font-family="Helvetica,sans-Serif" font-size="10.00">+ c_str()</text>
<text text-anchor="start" x="331" y="-1029.5" font-family="Helvetica,sans-Serif" font-size="10.00">+ ToString()</text>
</a>
</g>
</g>
<!-- Node17&#45;&gt;Node2 -->
<g id="edge28" class="edge">
<title>Node17&#45;&gt;Node2</title>
<path fill="none" stroke="#404040" d="M322.98,-1044.78C294.04,-1021.28 256.2,-984.47 239.5,-942 199.64,-840.67 192.88,-795.4 239.5,-697 261.68,-650.19 306.94,-613.37 346.4,-588.34"/>
<polygon fill="none" stroke="#404040" points="346.61,-588.22 349.61,-581.66 356.82,-581.92 353.81,-588.47 346.61,-588.22"/>
<text text-anchor="middle" x="269" y="-828" font-family="Helvetica,sans-Serif" font-size="10.00"> +ToolTip</text>
<text text-anchor="middle" x="269" y="-817" font-family="Helvetica,sans-Serif" font-size="10.00">+GroupName</text>
<text text-anchor="middle" x="269" y="-806" font-family="Helvetica,sans-Serif" font-size="10.00">+NotifyName</text>
</g>
<!-- Node17&#45;&gt;Node16 -->
<g id="edge24" class="edge">
<title>Node17&#45;&gt;Node16</title>
<path fill="none" stroke="#404040" d="M360.5,-1022.31C360.5,-988.78 360.5,-943.7 360.5,-904.65"/>
<polygon fill="none" stroke="#404040" points="360.5,-904.47 356.5,-898.47 360.5,-892.47 364.5,-898.47 360.5,-904.47"/>
<text text-anchor="middle" x="374.5" y="-974" font-family="Helvetica,sans-Serif" font-size="10.00"> &#45;Data</text>
</g>
<!-- Node18&#45;&gt;Node17 -->
<g id="edge25" class="edge">
<title>Node18&#45;&gt;Node17</title>
<path fill="none" stroke="midnightblue" d="M374.12,-1172.09C371.82,-1155.52 369.47,-1138.58 367.38,-1123.55"/>
<polygon fill="none" stroke="midnightblue" points="370.71,-1172.92 375.55,-1182.34 377.64,-1171.96 370.71,-1172.92"/>
</g>
<!-- Node19 -->
<g id="node19" class="node">
<title>Node19</title>
<g id="a_node19"><a xlink:href="../../df/d1c/classSDK_1_1TEnumAsByte.html" target="_top" xlink:title=" ">
<polygon fill="white" stroke="black" points="20.5,-752.5 20.5,-886.5 174.5,-886.5 174.5,-752.5 20.5,-752.5"/>
<text text-anchor="start" x="28.5" y="-874.5" font-family="Helvetica,sans-Serif" font-size="10.00">SDK::TEnumAsByte&lt; ECTE</text>
<text text-anchor="middle" x="97.5" y="-863.5" font-family="Helvetica,sans-Serif" font-size="10.00">_NOTIFY_ACTIVATE_TYPE &gt;</text>
<polyline fill="none" stroke="black" points="20.5,-856.5 174.5,-856.5 "/>
<text text-anchor="start" x="28.5" y="-844.5" font-family="Helvetica,sans-Serif" font-size="10.00">&#45; value</text>
<polyline fill="none" stroke="black" points="20.5,-837.5 174.5,-837.5 "/>
<text text-anchor="start" x="28.5" y="-825.5" font-family="Helvetica,sans-Serif" font-size="10.00">+ TEnumAsByte()</text>
<text text-anchor="start" x="28.5" y="-814.5" font-family="Helvetica,sans-Serif" font-size="10.00">+ TEnumAsByte()</text>
<text text-anchor="start" x="28.5" y="-803.5" font-family="Helvetica,sans-Serif" font-size="10.00">+ TEnumAsByte()</text>
<text text-anchor="start" x="28.5" y="-792.5" font-family="Helvetica,sans-Serif" font-size="10.00">+ TEnumAsByte()</text>
<text text-anchor="start" x="28.5" y="-781.5" font-family="Helvetica,sans-Serif" font-size="10.00">+ operator ECTE_NOTIFY</text>
<text text-anchor="start" x="28.5" y="-770.5" font-family="Helvetica,sans-Serif" font-size="10.00">_ACTIVATE_TYPE()</text>
<text text-anchor="start" x="28.5" y="-759.5" font-family="Helvetica,sans-Serif" font-size="10.00">+ GetValue()</text>
</a>
</g>
</g>
<!-- Node19&#45;&gt;Node2 -->
<g id="edge29" class="edge">
<title>Node19&#45;&gt;Node2</title>
<path fill="none" stroke="#404040" d="M111.93,-752.33C121,-723.54 135.33,-691.16 157.5,-668 208.29,-614.94 287.45,-583.98 345.28,-567.29"/>
<polygon fill="none" stroke="#404040" points="345.35,-567.27 350.05,-561.8 356.91,-564.04 352.21,-569.51 345.35,-567.27"/>
<text text-anchor="middle" x="186.5" y="-671" font-family="Helvetica,sans-Serif" font-size="10.00"> +NotifyType</text>
</g>
<!-- Node20 -->
<g id="node20" class="node">
<title>Node20</title>
<g id="a_node20"><a xlink:href="../../df/d1c/classSDK_1_1TEnumAsByte.html" target="_top" xlink:title=" ">
<polygon fill="white" stroke="black" points="0,-1017 0,-1129 157,-1129 157,-1017 0,-1017"/>
<text text-anchor="middle" x="78.5" y="-1117" font-family="Helvetica,sans-Serif" font-size="10.00">SDK::TEnumAsByte&lt; TEnum &gt;</text>
<polyline fill="none" stroke="black" points="0,-1110 157,-1110 "/>
<text text-anchor="start" x="8" y="-1098" font-family="Helvetica,sans-Serif" font-size="10.00">&#45; value</text>
<polyline fill="none" stroke="black" points="0,-1091 157,-1091 "/>
<text text-anchor="start" x="8" y="-1079" font-family="Helvetica,sans-Serif" font-size="10.00">+ TEnumAsByte()</text>
<text text-anchor="start" x="8" y="-1068" font-family="Helvetica,sans-Serif" font-size="10.00">+ TEnumAsByte()</text>
<text text-anchor="start" x="8" y="-1057" font-family="Helvetica,sans-Serif" font-size="10.00">+ TEnumAsByte()</text>
<text text-anchor="start" x="8" y="-1046" font-family="Helvetica,sans-Serif" font-size="10.00">+ TEnumAsByte()</text>
<text text-anchor="start" x="8" y="-1035" font-family="Helvetica,sans-Serif" font-size="10.00">+ operator TEnum()</text>
<text text-anchor="start" x="8" y="-1024" font-family="Helvetica,sans-Serif" font-size="10.00">+ GetValue()</text>
</a>
</g>
</g>
<!-- Node20&#45;&gt;Node19 -->
<g id="edge30" class="edge">
<title>Node20&#45;&gt;Node19</title>
<path fill="none" stroke="orange" d="M77.77,-1006.56C77.97,-991.27 78.47,-975.05 79.5,-960 81.15,-936 84.19,-909.82 87.32,-886.69"/>
<polygon fill="orange" stroke="orange" points="74.27,-1006.95 77.68,-1016.98 81.27,-1007.01 74.27,-1006.95"/>
<text text-anchor="start" x="79.5" y="-979.5" font-family="Helvetica,sans-Serif" font-size="10.00"> &lt; ECTE_NOTIFY_ACTIVATE</text>
<text text-anchor="middle" x="147.5" y="-968.5" font-family="Helvetica,sans-Serif" font-size="10.00">_TYPE &gt;</text>
</g>
</g>
</svg>
