<?xml version="1.0" encoding="UTF-8" standalone="no"?>
<!DOCTYPE svg PUBLIC "-//W3C//DTD SVG 1.1//EN"
 "http://www.w3.org/Graphics/SVG/1.1/DTD/svg11.dtd">
<!-- Generated by graphviz version 2.41.20171026.1811 (20171026.1811)
 -->
<!-- Title: Graphical Class Hierarchy Pages: 1 -->
<svg width="290pt" height="142pt"
 viewBox="0.00 0.00 290.00 142.00" xmlns="http://www.w3.org/2000/svg" xmlns:xlink="http://www.w3.org/1999/xlink">
<g id="graph0" class="graph" transform="scale(1 1) rotate(0) translate(4 138)">
<title>Graphical Class Hierarchy</title>
<polygon fill="white" stroke="transparent" points="-4,4 -4,-138 286,-138 286,4 -4,4"/>
<!-- Node0 -->
<g id="node1" class="node">
<title>Node0</title>
<g id="a_node1"><a xlink:href="d6/d72/structSDK_1_1FMaterialInput.html" target="_top" xlink:title=" ">
<polygon fill="white" stroke="black" points="0,-57.5 0,-76.5 106,-76.5 106,-57.5 0,-57.5"/>
<text text-anchor="middle" x="53" y="-64.5" font-family="Helvetica,sans-Serif" font-size="10.00">SDK::FMaterialInput</text>
</a>
</g>
</g>
<!-- Node1 -->
<g id="node2" class="node">
<title>Node1</title>
<g id="a_node2"><a xlink:href="d5/ddc/structSDK_1_1FColorMaterialInput.html" target="_top" xlink:title=" ">
<polygon fill="white" stroke="black" points="147.5,-114.5 147.5,-133.5 276.5,-133.5 276.5,-114.5 147.5,-114.5"/>
<text text-anchor="middle" x="212" y="-121.5" font-family="Helvetica,sans-Serif" font-size="10.00">SDK::FColorMaterialInput</text>
</a>
</g>
</g>
<!-- Node0&#45;&gt;Node1 -->
<g id="edge1" class="edge">
<title>Node0&#45;&gt;Node1</title>
<path fill="none" stroke="midnightblue" d="M83.3,-80.87C100.23,-88.57 122.05,-97.98 142,-105 151.85,-108.46 162.66,-111.7 172.75,-114.48"/>
<polygon fill="midnightblue" stroke="midnightblue" points="84.5,-77.57 73.96,-76.56 81.57,-83.93 84.5,-77.57"/>
</g>
<!-- Node2 -->
<g id="node3" class="node">
<title>Node2</title>
<g id="a_node3"><a xlink:href="db/d5f/structSDK_1_1FScalarMaterialInput.html" target="_top" xlink:title=" ">
<polygon fill="white" stroke="black" points="145,-76.5 145,-95.5 279,-95.5 279,-76.5 145,-76.5"/>
<text text-anchor="middle" x="212" y="-83.5" font-family="Helvetica,sans-Serif" font-size="10.00">SDK::FScalarMaterialInput</text>
</a>
</g>
</g>
<!-- Node0&#45;&gt;Node2 -->
<g id="edge2" class="edge">
<title>Node0&#45;&gt;Node2</title>
<path fill="none" stroke="midnightblue" d="M116.34,-74.54C125.76,-75.68 135.5,-76.86 144.98,-78.01"/>
<polygon fill="midnightblue" stroke="midnightblue" points="116.63,-71.05 106.28,-73.33 115.79,-78 116.63,-71.05"/>
</g>
<!-- Node3 -->
<g id="node4" class="node">
<title>Node3</title>
<g id="a_node4"><a xlink:href="de/dac/structSDK_1_1FVector2MaterialInput.html" target="_top" xlink:title=" ">
<polygon fill="white" stroke="black" points="142,-38.5 142,-57.5 282,-57.5 282,-38.5 142,-38.5"/>
<text text-anchor="middle" x="212" y="-45.5" font-family="Helvetica,sans-Serif" font-size="10.00">SDK::FVector2MaterialInput</text>
</a>
</g>
</g>
<!-- Node0&#45;&gt;Node3 -->
<g id="edge3" class="edge">
<title>Node0&#45;&gt;Node3</title>
<path fill="none" stroke="midnightblue" d="M116.36,-59.45C124.76,-58.44 133.41,-57.39 141.91,-56.36"/>
<polygon fill="midnightblue" stroke="midnightblue" points="115.79,-56 106.28,-60.67 116.63,-62.95 115.79,-56"/>
</g>
<!-- Node4 -->
<g id="node5" class="node">
<title>Node4</title>
<g id="a_node5"><a xlink:href="d3/dae/structSDK_1_1FVectorMaterialInput.html" target="_top" xlink:title=" ">
<polygon fill="white" stroke="black" points="145,-0.5 145,-19.5 279,-19.5 279,-0.5 145,-0.5"/>
<text text-anchor="middle" x="212" y="-7.5" font-family="Helvetica,sans-Serif" font-size="10.00">SDK::FVectorMaterialInput</text>
</a>
</g>
</g>
<!-- Node0&#45;&gt;Node4 -->
<g id="edge4" class="edge">
<title>Node0&#45;&gt;Node4</title>
<path fill="none" stroke="midnightblue" d="M83.3,-53.13C100.23,-45.43 122.05,-36.02 142,-29 151.85,-25.54 162.66,-22.3 172.75,-19.52"/>
<polygon fill="midnightblue" stroke="midnightblue" points="81.57,-50.07 73.96,-57.44 84.5,-56.43 81.57,-50.07"/>
</g>
</g>
</svg>
