<?xml version="1.0" encoding="UTF-8" standalone="no"?>
<!DOCTYPE svg PUBLIC "-//W3C//DTD SVG 1.1//EN"
 "http://www.w3.org/Graphics/SVG/1.1/DTD/svg11.dtd">
<!-- Generated by graphviz version 2.41.20171026.1811 (20171026.1811)
 -->
<!-- Title: Graphical Class Hierarchy Pages: 1 -->
<svg width="341pt" height="88pt"
 viewBox="0.00 0.00 341.00 88.00" xmlns="http://www.w3.org/2000/svg" xmlns:xlink="http://www.w3.org/1999/xlink">
<g id="graph0" class="graph" transform="scale(1 1) rotate(0) translate(4 84)">
<title>Graphical Class Hierarchy</title>
<polygon fill="white" stroke="transparent" points="-4,4 -4,-84 337,-84 337,4 -4,4"/>
<!-- Node0 -->
<g id="node1" class="node">
<title>Node0</title>
<g id="a_node1"><a xlink:href="d5/dc6/structSDK_1_1FEFPropSubCollisionElem.html" target="_top" xlink:title=" ">
<polygon fill="white" stroke="black" points="0,-30 0,-49 160,-49 160,-30 0,-30"/>
<text text-anchor="middle" x="80" y="-37" font-family="Helvetica,sans-Serif" font-size="10.00">SDK::FEFPropSubCollisionElem</text>
</a>
</g>
</g>
<!-- Node1 -->
<g id="node2" class="node">
<title>Node1</title>
<g id="a_node2"><a xlink:href="d7/de2/structSDK_1_1FEFPropSubCollisionBoxElem.html" target="_top" xlink:title=" ">
<polygon fill="white" stroke="black" points="196,-49.5 196,-79.5 333,-79.5 333,-49.5 196,-49.5"/>
<text text-anchor="start" x="204" y="-67.5" font-family="Helvetica,sans-Serif" font-size="10.00">SDK::FEFPropSubCollision</text>
<text text-anchor="middle" x="264.5" y="-56.5" font-family="Helvetica,sans-Serif" font-size="10.00">BoxElem</text>
</a>
</g>
</g>
<!-- Node0&#45;&gt;Node1 -->
<g id="edge1" class="edge">
<title>Node0&#45;&gt;Node1</title>
<path fill="none" stroke="midnightblue" d="M160.76,-50.43C172.51,-52.04 184.51,-53.68 195.99,-55.25"/>
<polygon fill="midnightblue" stroke="midnightblue" points="160.9,-46.91 150.52,-49.02 159.95,-53.85 160.9,-46.91"/>
</g>
<!-- Node2 -->
<g id="node3" class="node">
<title>Node2</title>
<g id="a_node3"><a xlink:href="d3/de3/structSDK_1_1FEFPropSubCollisionCylinderElem.html" target="_top" xlink:title=" ">
<polygon fill="white" stroke="black" points="196,-0.5 196,-30.5 333,-30.5 333,-0.5 196,-0.5"/>
<text text-anchor="start" x="204" y="-18.5" font-family="Helvetica,sans-Serif" font-size="10.00">SDK::FEFPropSubCollision</text>
<text text-anchor="middle" x="264.5" y="-7.5" font-family="Helvetica,sans-Serif" font-size="10.00">CylinderElem</text>
</a>
</g>
</g>
<!-- Node0&#45;&gt;Node2 -->
<g id="edge2" class="edge">
<title>Node0&#45;&gt;Node2</title>
<path fill="none" stroke="midnightblue" d="M163.34,-28.67C174.25,-27.24 185.33,-25.78 195.95,-24.38"/>
<polygon fill="midnightblue" stroke="midnightblue" points="162.85,-25.21 153.39,-29.98 163.76,-32.15 162.85,-25.21"/>
</g>
</g>
</svg>
