<?xml version="1.0" encoding="UTF-8" standalone="no"?>
<!DOCTYPE svg PUBLIC "-//W3C//DTD SVG 1.1//EN"
 "http://www.w3.org/Graphics/SVG/1.1/DTD/svg11.dtd">
<!-- Generated by graphviz version 2.41.20171026.1811 (20171026.1811)
 -->
<!-- Title: SDK::UUIDataStore_Registry Pages: 1 -->
<svg width="206pt" height="981pt"
 viewBox="0.00 0.00 206.00 981.00" xmlns="http://www.w3.org/2000/svg" xmlns:xlink="http://www.w3.org/1999/xlink">
<g id="graph0" class="graph" transform="scale(1 1) rotate(0) translate(4 977)">
<title>SDK::UUIDataStore_Registry</title>
<polygon fill="white" stroke="transparent" points="-4,4 -4,-977 202,-977 202,4 -4,4"/>
<!-- Node1 -->
<g id="node1" class="node">
<title>Node1</title>
<g id="a_node1"><a xlink:title=" ">
<polygon fill="#bfbfbf" stroke="black" points="25,-0.5 25,-79.5 173,-79.5 173,-0.5 25,-0.5"/>
<text text-anchor="middle" x="99" y="-67.5" font-family="Helvetica,sans-Serif" font-size="10.00">SDK::UUIDataStore_Registry</text>
<polyline fill="none" stroke="black" points="25,-60.5 173,-60.5 "/>
<text text-anchor="start" x="33" y="-48.5" font-family="Helvetica,sans-Serif" font-size="10.00">+ RegistryData</text>
<polyline fill="none" stroke="black" points="25,-41.5 173,-41.5 "/>
<text text-anchor="start" x="33" y="-29.5" font-family="Helvetica,sans-Serif" font-size="10.00">+ SetData()</text>
<text text-anchor="start" x="33" y="-18.5" font-family="Helvetica,sans-Serif" font-size="10.00">+ GetData()</text>
<text text-anchor="start" x="33" y="-7.5" font-family="Helvetica,sans-Serif" font-size="10.00">+ StaticClass()</text>
</a>
</g>
</g>
<!-- Node2 -->
<g id="node2" class="node">
<title>Node2</title>
<g id="a_node2"><a xlink:href="../../de/d7a/classSDK_1_1UUIDataStore.html" target="_top" xlink:title=" ">
<polygon fill="white" stroke="black" points="21.5,-116.5 21.5,-294.5 176.5,-294.5 176.5,-116.5 21.5,-116.5"/>
<text text-anchor="middle" x="99" y="-282.5" font-family="Helvetica,sans-Serif" font-size="10.00">SDK::UUIDataStore</text>
<polyline fill="none" stroke="black" points="21.5,-275.5 176.5,-275.5 "/>
<text text-anchor="start" x="29.5" y="-263.5" font-family="Helvetica,sans-Serif" font-size="10.00">+ Tag</text>
<text text-anchor="start" x="29.5" y="-252.5" font-family="Helvetica,sans-Serif" font-size="10.00">+ RefreshSubscriberNotifies</text>
<text text-anchor="start" x="29.5" y="-241.5" font-family="Helvetica,sans-Serif" font-size="10.00">+ __OnDataStoreValueUpdated</text>
<text text-anchor="start" x="29.5" y="-230.5" font-family="Helvetica,sans-Serif" font-size="10.00">__Delegate</text>
<polyline fill="none" stroke="black" points="21.5,-223.5 176.5,-223.5 "/>
<text text-anchor="start" x="29.5" y="-211.5" font-family="Helvetica,sans-Serif" font-size="10.00">+ GetDataStoreClient()</text>
<text text-anchor="start" x="29.5" y="-200.5" font-family="Helvetica,sans-Serif" font-size="10.00">+ RefreshSubscribers()</text>
<text text-anchor="start" x="29.5" y="-189.5" font-family="Helvetica,sans-Serif" font-size="10.00">+ NotifyGameSessionEnded()</text>
<text text-anchor="start" x="29.5" y="-178.5" font-family="Helvetica,sans-Serif" font-size="10.00">+ SubscriberDetached()</text>
<text text-anchor="start" x="29.5" y="-167.5" font-family="Helvetica,sans-Serif" font-size="10.00">+ SubscriberAttached()</text>
<text text-anchor="start" x="29.5" y="-156.5" font-family="Helvetica,sans-Serif" font-size="10.00">+ Unregistered()</text>
<text text-anchor="start" x="29.5" y="-145.5" font-family="Helvetica,sans-Serif" font-size="10.00">+ Registered()</text>
<text text-anchor="start" x="29.5" y="-134.5" font-family="Helvetica,sans-Serif" font-size="10.00">+ OnDataStoreValueUpdated()</text>
<text text-anchor="start" x="29.5" y="-123.5" font-family="Helvetica,sans-Serif" font-size="10.00">+ StaticClass()</text>
</a>
</g>
</g>
<!-- Node2&#45;&gt;Node1 -->
<g id="edge1" class="edge">
<title>Node2&#45;&gt;Node1</title>
<path fill="none" stroke="midnightblue" d="M99,-105.93C99,-96.69 99,-87.74 99,-79.6"/>
<polygon fill="none" stroke="midnightblue" points="95.5,-106.05 99,-116.05 102.5,-106.05 95.5,-106.05"/>
</g>
<!-- Node3 -->
<g id="node3" class="node">
<title>Node3</title>
<g id="a_node3"><a xlink:href="../../d7/dd2/classSDK_1_1UUIDataProvider.html" target="_top" xlink:title=" ">
<polygon fill="white" stroke="black" points="39.5,-331.5 39.5,-388.5 158.5,-388.5 158.5,-331.5 39.5,-331.5"/>
<text text-anchor="middle" x="99" y="-376.5" font-family="Helvetica,sans-Serif" font-size="10.00">SDK::UUIDataProvider</text>
<polyline fill="none" stroke="black" points="39.5,-369.5 158.5,-369.5 "/>
<text text-anchor="middle" x="99" y="-357.5" font-family="Helvetica,sans-Serif" font-size="10.00"> </text>
<polyline fill="none" stroke="black" points="39.5,-350.5 158.5,-350.5 "/>
<text text-anchor="start" x="47.5" y="-338.5" font-family="Helvetica,sans-Serif" font-size="10.00">+ StaticClass()</text>
</a>
</g>
</g>
<!-- Node3&#45;&gt;Node2 -->
<g id="edge2" class="edge">
<title>Node3&#45;&gt;Node2</title>
<path fill="none" stroke="midnightblue" d="M99,-321.37C99,-313.09 99,-303.98 99,-294.62"/>
<polygon fill="none" stroke="midnightblue" points="95.5,-321.38 99,-331.38 102.5,-321.38 95.5,-321.38"/>
</g>
<!-- Node4 -->
<g id="node4" class="node">
<title>Node4</title>
<g id="a_node4"><a xlink:href="../../da/dd4/classSDK_1_1UUIRoot.html" target="_top" xlink:title=" ">
<polygon fill="white" stroke="black" points="2,-425.5 2,-581.5 196,-581.5 196,-425.5 2,-425.5"/>
<text text-anchor="middle" x="99" y="-569.5" font-family="Helvetica,sans-Serif" font-size="10.00">SDK::UUIRoot</text>
<polyline fill="none" stroke="black" points="2,-562.5 196,-562.5 "/>
<text text-anchor="start" x="10" y="-550.5" font-family="Helvetica,sans-Serif" font-size="10.00">+ BadCapsLocContexts</text>
<polyline fill="none" stroke="black" points="2,-543.5 196,-543.5 "/>
<text text-anchor="start" x="10" y="-531.5" font-family="Helvetica,sans-Serif" font-size="10.00">+ STATIC_SafeCaps()</text>
<text text-anchor="start" x="10" y="-520.5" font-family="Helvetica,sans-Serif" font-size="10.00">+ STATIC_GetOnlinePlayerInterfaceEx()</text>
<text text-anchor="start" x="10" y="-509.5" font-family="Helvetica,sans-Serif" font-size="10.00">+ STATIC_GetOnlinePlayerInterface()</text>
<text text-anchor="start" x="10" y="-498.5" font-family="Helvetica,sans-Serif" font-size="10.00">+ STATIC_GetOnlineGameInterface()</text>
<text text-anchor="start" x="10" y="-487.5" font-family="Helvetica,sans-Serif" font-size="10.00">+ STATIC_StaticResolveData</text>
<text text-anchor="start" x="10" y="-476.5" font-family="Helvetica,sans-Serif" font-size="10.00">Store()</text>
<text text-anchor="start" x="10" y="-465.5" font-family="Helvetica,sans-Serif" font-size="10.00">+ STATIC_GetSceneClient()</text>
<text text-anchor="start" x="10" y="-454.5" font-family="Helvetica,sans-Serif" font-size="10.00">+ STATIC_GetCurrentUIController()</text>
<text text-anchor="start" x="10" y="-443.5" font-family="Helvetica,sans-Serif" font-size="10.00">+ STATIC_GetInputPlatformType()</text>
<text text-anchor="start" x="10" y="-432.5" font-family="Helvetica,sans-Serif" font-size="10.00">+ StaticClass()</text>
</a>
</g>
</g>
<!-- Node4&#45;&gt;Node3 -->
<g id="edge3" class="edge">
<title>Node4&#45;&gt;Node3</title>
<path fill="none" stroke="midnightblue" d="M99,-414.84C99,-405.48 99,-396.54 99,-388.72"/>
<polygon fill="none" stroke="midnightblue" points="95.5,-415.13 99,-425.13 102.5,-415.13 95.5,-415.13"/>
</g>
<!-- Node5 -->
<g id="node5" class="node">
<title>Node5</title>
<g id="a_node5"><a xlink:href="../../d9/d45/classSDK_1_1UObject.html" target="_top" xlink:title=" ">
<polygon fill="white" stroke="black" points="0,-618.5 0,-972.5 198,-972.5 198,-618.5 0,-618.5"/>
<text text-anchor="middle" x="99" y="-960.5" font-family="Helvetica,sans-Serif" font-size="10.00">SDK::UObject</text>
<polyline fill="none" stroke="black" points="0,-953.5 198,-953.5 "/>
<text text-anchor="start" x="8" y="-941.5" font-family="Helvetica,sans-Serif" font-size="10.00">+ VfTableObject</text>
<text text-anchor="start" x="8" y="-930.5" font-family="Helvetica,sans-Serif" font-size="10.00">+ ObjectFlags</text>
<text text-anchor="start" x="8" y="-919.5" font-family="Helvetica,sans-Serif" font-size="10.00">+ StateFrame</text>
<text text-anchor="start" x="8" y="-908.5" font-family="Helvetica,sans-Serif" font-size="10.00">+ Linker</text>
<text text-anchor="start" x="8" y="-897.5" font-family="Helvetica,sans-Serif" font-size="10.00">+ LinkerIndex</text>
<text text-anchor="start" x="8" y="-886.5" font-family="Helvetica,sans-Serif" font-size="10.00">+ ObjectInternalInteger</text>
<text text-anchor="start" x="8" y="-875.5" font-family="Helvetica,sans-Serif" font-size="10.00">+ NetIndex</text>
<text text-anchor="start" x="8" y="-864.5" font-family="Helvetica,sans-Serif" font-size="10.00">+ Outer</text>
<text text-anchor="start" x="8" y="-853.5" font-family="Helvetica,sans-Serif" font-size="10.00">+ Name</text>
<text text-anchor="start" x="8" y="-842.5" font-family="Helvetica,sans-Serif" font-size="10.00">+ Class</text>
<text text-anchor="start" x="8" y="-831.5" font-family="Helvetica,sans-Serif" font-size="10.00">+ ObjectArchetype</text>
<text text-anchor="start" x="8" y="-820.5" font-family="Helvetica,sans-Serif" font-size="10.00">+ GObjects</text>
<polyline fill="none" stroke="black" points="0,-813.5 198,-813.5 "/>
<text text-anchor="start" x="8" y="-801.5" font-family="Helvetica,sans-Serif" font-size="10.00">+ UObject::GetName()</text>
<text text-anchor="start" x="8" y="-790.5" font-family="Helvetica,sans-Serif" font-size="10.00">+ GetFullName()</text>
<text text-anchor="start" x="8" y="-779.5" font-family="Helvetica,sans-Serif" font-size="10.00">+ IsA()</text>
<text text-anchor="start" x="8" y="-768.5" font-family="Helvetica,sans-Serif" font-size="10.00">+ ProcessEvent()</text>
<text text-anchor="start" x="8" y="-757.5" font-family="Helvetica,sans-Serif" font-size="10.00">+ STATIC_ProfNodeEvent()</text>
<text text-anchor="start" x="8" y="-746.5" font-family="Helvetica,sans-Serif" font-size="10.00">+ STATIC_ProfNodeSetDepthThreshold()</text>
<text text-anchor="start" x="8" y="-735.5" font-family="Helvetica,sans-Serif" font-size="10.00">+ STATIC_ProfNodeSetTimeThreshold</text>
<text text-anchor="start" x="8" y="-724.5" font-family="Helvetica,sans-Serif" font-size="10.00">Seconds()</text>
<text text-anchor="start" x="8" y="-713.5" font-family="Helvetica,sans-Serif" font-size="10.00">+ STATIC_ProfNodeStop()</text>
<text text-anchor="start" x="8" y="-702.5" font-family="Helvetica,sans-Serif" font-size="10.00">+ STATIC_ProfNodeStart()</text>
<text text-anchor="start" x="8" y="-691.5" font-family="Helvetica,sans-Serif" font-size="10.00">+ STATIC_GetStringFromGuid()</text>
<text text-anchor="start" x="8" y="-680.5" font-family="Helvetica,sans-Serif" font-size="10.00">and 298 more...</text>
<text text-anchor="start" x="8" y="-669.5" font-family="Helvetica,sans-Serif" font-size="10.00">+ GetGlobalObjects()</text>
<text text-anchor="start" x="8" y="-658.5" font-family="Helvetica,sans-Serif" font-size="10.00">+ FindObject()</text>
<text text-anchor="start" x="8" y="-647.5" font-family="Helvetica,sans-Serif" font-size="10.00">+ FindClass()</text>
<text text-anchor="start" x="8" y="-636.5" font-family="Helvetica,sans-Serif" font-size="10.00">+ GetObjectCasted()</text>
<text text-anchor="start" x="8" y="-625.5" font-family="Helvetica,sans-Serif" font-size="10.00">+ StaticClass()</text>
</a>
</g>
</g>
<!-- Node5&#45;&gt;Node4 -->
<g id="edge4" class="edge">
<title>Node5&#45;&gt;Node4</title>
<path fill="none" stroke="midnightblue" d="M99,-608.25C99,-599.08 99,-590.15 99,-581.63"/>
<polygon fill="none" stroke="midnightblue" points="95.5,-608.28 99,-618.28 102.5,-608.28 95.5,-608.28"/>
</g>
</g>
</svg>
