<?xml version="1.0" encoding="UTF-8" standalone="no"?>
<!DOCTYPE svg PUBLIC "-//W3C//DTD SVG 1.1//EN"
 "http://www.w3.org/Graphics/SVG/1.1/DTD/svg11.dtd">
<!-- Generated by graphviz version 2.41.20171026.1811 (20171026.1811)
 -->
<!-- Title: SDK::FEFParamRootMotionBeHit Pages: 1 -->
<!--zoomable 496 -->
<svg id="main" version="1.1" xmlns="http://www.w3.org/2000/svg" xmlns:xlink="http://www.w3.org/1999/xlink" xml:space="preserve" onload="init(evt)">
<style type="text/css"><![CDATA[
.edge:hover path { stroke: red; }
.edge:hover polygon { stroke: red; fill: red; }
]]></style>
<script type="text/javascript"><![CDATA[
var edges = document.getElementsByTagName('g');
if (edges && edges.length) {
  for (var i=0;i<edges.length;i++) {
    if (edges[i].id.substr(0,4)=='edge') {
      edges[i].setAttribute('class','edge');
    }
  }
}
]]></script>
        <defs>
                <circle id="rim" cx="0" cy="0" r="7"/>
                <circle id="rim2" cx="0" cy="0" r="3.5"/>
                <g id="zoomPlus">
                        <use xlink:href="#rim" fill="#404040">
                                <set attributeName="fill" to="#808080" begin="zoomplus.mouseover" end="zoomplus.mouseout"/>
                        </use>
                        <path d="M-4,0h8M0,-4v8" fill="none" stroke="white" stroke-width="1.5" pointer-events="none"/>
                </g>
                <g id="zoomMin">
                        <use xlink:href="#rim" fill="#404040">
                                <set attributeName="fill" to="#808080" begin="zoomminus.mouseover" end="zoomminus.mouseout"/>
                        </use>
                        <path d="M-4,0h8" fill="none" stroke="white" stroke-width="1.5" pointer-events="none"/>
                </g>
                <g id="dirArrow">
                        <path fill="none" stroke="white" stroke-width="1.5" d="M0,-3.0v7 M-2.5,-0.5L0,-3.0L2.5,-0.5"/>
                </g>
               <g id="resetDef">
                       <use xlink:href="#rim2" fill="#404040">
                               <set attributeName="fill" to="#808080" begin="reset.mouseover" end="reset.mouseout"/>
                       </use>
               </g>
        </defs>

<script type="text/javascript">
var viewWidth = 343;
var viewHeight = 496;
var sectionId = 'dynsection-0';
</script>
<script xlink:href="../../svgpan.js"/>
<svg id="graph" class="graph">
<g id="viewport">
<title>SDK::FEFParamRootMotionBeHit</title>
<polygon fill="white" stroke="transparent" points="-4,4 -4,-492 339,-492 339,4 -4,4"/>
<!-- Node1 -->
<g id="node1" class="node">
<title>Node1</title>
<g id="a_node1"><a xlink:title=" ">
<polygon fill="#bfbfbf" stroke="black" points="39.5,-0.5 39.5,-90.5 205.5,-90.5 205.5,-0.5 39.5,-0.5"/>
<text text-anchor="middle" x="122.5" y="-78.5" font-family="Helvetica,sans-Serif" font-size="10.00">SDK::FEFParamRootMotionBeHit</text>
<polyline fill="none" stroke="black" points="39.5,-71.5 205.5,-71.5 "/>
<text text-anchor="start" x="47.5" y="-59.5" font-family="Helvetica,sans-Serif" font-size="10.00">+ cBehitType</text>
<text text-anchor="start" x="47.5" y="-48.5" font-family="Helvetica,sans-Serif" font-size="10.00">+ cTime</text>
<text text-anchor="start" x="47.5" y="-37.5" font-family="Helvetica,sans-Serif" font-size="10.00">+ cDistance</text>
<text text-anchor="start" x="47.5" y="-26.5" font-family="Helvetica,sans-Serif" font-size="10.00">+ GetupSkillEnableTime</text>
<polyline fill="none" stroke="black" points="39.5,-19.5 205.5,-19.5 "/>
<text text-anchor="middle" x="122.5" y="-7.5" font-family="Helvetica,sans-Serif" font-size="10.00"> </text>
</a>
</g>
</g>
<!-- Node2 -->
<g id="node2" class="node">
<title>Node2</title>
<g id="a_node2"><a xlink:href="../../d3/d79/classSDK_1_1TArray.html" target="_top" xlink:title=" ">
<polygon fill="white" stroke="black" points="0,-138.5 0,-283.5 101,-283.5 101,-138.5 0,-138.5"/>
<text text-anchor="middle" x="50.5" y="-271.5" font-family="Helvetica,sans-Serif" font-size="10.00">SDK::TArray&lt; int &gt;</text>
<polyline fill="none" stroke="black" points="0,-264.5 101,-264.5 "/>
<text text-anchor="start" x="8" y="-252.5" font-family="Helvetica,sans-Serif" font-size="10.00">&#45; Data</text>
<text text-anchor="start" x="8" y="-241.5" font-family="Helvetica,sans-Serif" font-size="10.00">&#45; Count</text>
<text text-anchor="start" x="8" y="-230.5" font-family="Helvetica,sans-Serif" font-size="10.00">&#45; Max</text>
<polyline fill="none" stroke="black" points="0,-223.5 101,-223.5 "/>
<text text-anchor="start" x="8" y="-211.5" font-family="Helvetica,sans-Serif" font-size="10.00">+ TArray()</text>
<text text-anchor="start" x="8" y="-200.5" font-family="Helvetica,sans-Serif" font-size="10.00">+ Num()</text>
<text text-anchor="start" x="8" y="-189.5" font-family="Helvetica,sans-Serif" font-size="10.00">+ operator[]()</text>
<text text-anchor="start" x="8" y="-178.5" font-family="Helvetica,sans-Serif" font-size="10.00">+ operator[]()</text>
<text text-anchor="start" x="8" y="-167.5" font-family="Helvetica,sans-Serif" font-size="10.00">+ IsValidIndex()</text>
<text text-anchor="start" x="8" y="-156.5" font-family="Helvetica,sans-Serif" font-size="10.00">+ GetByIndex()</text>
<text text-anchor="start" x="8" y="-145.5" font-family="Helvetica,sans-Serif" font-size="10.00">+ GetByIndex()</text>
</a>
</g>
</g>
<!-- Node2&#45;&gt;Node1 -->
<g id="edge1" class="edge">
<title>Node2&#45;&gt;Node1</title>
<path fill="none" stroke="#404040" d="M54.03,-138.3C56.15,-128.17 59.19,-118.11 63.5,-109 64.81,-106.23 66.3,-103.5 67.91,-100.82"/>
<polygon fill="none" stroke="#404040" points="67.99,-100.7 68.06,-93.49 74.74,-90.78 74.67,-97.99 67.99,-100.7"/>
<text text-anchor="middle" x="116.5" y="-112" font-family="Helvetica,sans-Serif" font-size="10.00"> +RootMotionSeparation</text>
</g>
<!-- Node3 -->
<g id="node3" class="node">
<title>Node3</title>
<g id="a_node3"><a xlink:href="../../d3/d79/classSDK_1_1TArray.html" target="_top" xlink:title=" ">
<polygon fill="white" stroke="black" points="29,-342.5 29,-487.5 126,-487.5 126,-342.5 29,-342.5"/>
<text text-anchor="middle" x="77.5" y="-475.5" font-family="Helvetica,sans-Serif" font-size="10.00">SDK::TArray&lt; T &gt;</text>
<polyline fill="none" stroke="black" points="29,-468.5 126,-468.5 "/>
<text text-anchor="start" x="37" y="-456.5" font-family="Helvetica,sans-Serif" font-size="10.00">&#45; Data</text>
<text text-anchor="start" x="37" y="-445.5" font-family="Helvetica,sans-Serif" font-size="10.00">&#45; Count</text>
<text text-anchor="start" x="37" y="-434.5" font-family="Helvetica,sans-Serif" font-size="10.00">&#45; Max</text>
<polyline fill="none" stroke="black" points="29,-427.5 126,-427.5 "/>
<text text-anchor="start" x="37" y="-415.5" font-family="Helvetica,sans-Serif" font-size="10.00">+ TArray()</text>
<text text-anchor="start" x="37" y="-404.5" font-family="Helvetica,sans-Serif" font-size="10.00">+ Num()</text>
<text text-anchor="start" x="37" y="-393.5" font-family="Helvetica,sans-Serif" font-size="10.00">+ operator[]()</text>
<text text-anchor="start" x="37" y="-382.5" font-family="Helvetica,sans-Serif" font-size="10.00">+ operator[]()</text>
<text text-anchor="start" x="37" y="-371.5" font-family="Helvetica,sans-Serif" font-size="10.00">+ IsValidIndex()</text>
<text text-anchor="start" x="37" y="-360.5" font-family="Helvetica,sans-Serif" font-size="10.00">+ GetByIndex()</text>
<text text-anchor="start" x="37" y="-349.5" font-family="Helvetica,sans-Serif" font-size="10.00">+ GetByIndex()</text>
</a>
</g>
</g>
<!-- Node3&#45;&gt;Node2 -->
<g id="edge2" class="edge">
<title>Node3&#45;&gt;Node2</title>
<path fill="none" stroke="orange" d="M52.85,-332.18C52.35,-329.43 51.89,-326.7 51.5,-324 49.6,-311.01 48.64,-297.09 48.24,-283.62"/>
<polygon fill="orange" stroke="orange" points="49.46,-333.07 54.88,-342.17 56.32,-331.67 49.46,-333.07"/>
<text text-anchor="middle" x="67.5" y="-310.5" font-family="Helvetica,sans-Serif" font-size="10.00"> &lt; int &gt;</text>
</g>
<!-- Node4 -->
<g id="node4" class="node">
<title>Node4</title>
<g id="a_node4"><a xlink:href="../../d3/d79/classSDK_1_1TArray.html" target="_top" xlink:title=" ">
<polygon fill="white" stroke="black" points="119,-138.5 119,-283.5 272,-283.5 272,-138.5 119,-138.5"/>
<text text-anchor="start" x="127" y="-271.5" font-family="Helvetica,sans-Serif" font-size="10.00">SDK::TArray&lt; struct</text>
<text text-anchor="middle" x="195.5" y="-260.5" font-family="Helvetica,sans-Serif" font-size="10.00"> SDK::FEFParamRootMotion &gt;</text>
<polyline fill="none" stroke="black" points="119,-253.5 272,-253.5 "/>
<text text-anchor="start" x="127" y="-241.5" font-family="Helvetica,sans-Serif" font-size="10.00">&#45; Count</text>
<text text-anchor="start" x="127" y="-230.5" font-family="Helvetica,sans-Serif" font-size="10.00">&#45; Max</text>
<polyline fill="none" stroke="black" points="119,-223.5 272,-223.5 "/>
<text text-anchor="start" x="127" y="-211.5" font-family="Helvetica,sans-Serif" font-size="10.00">+ TArray()</text>
<text text-anchor="start" x="127" y="-200.5" font-family="Helvetica,sans-Serif" font-size="10.00">+ Num()</text>
<text text-anchor="start" x="127" y="-189.5" font-family="Helvetica,sans-Serif" font-size="10.00">+ operator[]()</text>
<text text-anchor="start" x="127" y="-178.5" font-family="Helvetica,sans-Serif" font-size="10.00">+ operator[]()</text>
<text text-anchor="start" x="127" y="-167.5" font-family="Helvetica,sans-Serif" font-size="10.00">+ IsValidIndex()</text>
<text text-anchor="start" x="127" y="-156.5" font-family="Helvetica,sans-Serif" font-size="10.00">+ GetByIndex()</text>
<text text-anchor="start" x="127" y="-145.5" font-family="Helvetica,sans-Serif" font-size="10.00">+ GetByIndex()</text>
</a>
</g>
</g>
<!-- Node3&#45;&gt;Node4 -->
<g id="edge5" class="edge">
<title>Node3&#45;&gt;Node4</title>
<path fill="none" stroke="orange" d="M89.74,-332.59C93.03,-321.93 97.21,-311.45 102.5,-302 107.11,-293.77 112.71,-285.81 118.86,-278.27"/>
<polygon fill="orange" stroke="orange" points="86.32,-331.82 86.97,-342.4 93.06,-333.73 86.32,-331.82"/>
<text text-anchor="start" x="102.5" y="-316" font-family="Helvetica,sans-Serif" font-size="10.00"> &lt; struct SDK::FEFParamRoot</text>
<text text-anchor="middle" x="170.5" y="-305" font-family="Helvetica,sans-Serif" font-size="10.00">Motion &gt;</text>
</g>
<!-- Node4&#45;&gt;Node1 -->
<g id="edge3" class="edge">
<title>Node4&#45;&gt;Node1</title>
<path fill="none" stroke="#404040" d="M180.82,-138.38C177.68,-128.29 173.93,-118.22 169.5,-109 168.19,-106.27 166.75,-103.54 165.21,-100.83"/>
<polygon fill="none" stroke="#404040" points="165.16,-100.76 158.61,-97.75 158.87,-90.54 165.42,-93.56 165.16,-100.76"/>
<text text-anchor="middle" x="210" y="-112" font-family="Helvetica,sans-Serif" font-size="10.00"> +RootMotionArr</text>
</g>
<!-- Node5 -->
<g id="node5" class="node">
<title>Node5</title>
<g id="a_node5"><a xlink:href="../../d9/d3d/structSDK_1_1FEFParamRootMotion.html" target="_top" xlink:title=" ">
<polygon fill="white" stroke="black" points="194,-375.5 194,-454.5 335,-454.5 335,-375.5 194,-375.5"/>
<text text-anchor="middle" x="264.5" y="-442.5" font-family="Helvetica,sans-Serif" font-size="10.00">SDK::FEFParamRootMotion</text>
<polyline fill="none" stroke="black" points="194,-435.5 335,-435.5 "/>
<text text-anchor="start" x="202" y="-423.5" font-family="Helvetica,sans-Serif" font-size="10.00">+ cAccPosX</text>
<text text-anchor="start" x="202" y="-412.5" font-family="Helvetica,sans-Serif" font-size="10.00">+ cAccPosY</text>
<text text-anchor="start" x="202" y="-401.5" font-family="Helvetica,sans-Serif" font-size="10.00">+ cAccPosZ</text>
<polyline fill="none" stroke="black" points="194,-394.5 335,-394.5 "/>
<text text-anchor="middle" x="264.5" y="-382.5" font-family="Helvetica,sans-Serif" font-size="10.00"> </text>
</a>
</g>
</g>
<!-- Node5&#45;&gt;Node4 -->
<g id="edge4" class="edge">
<title>Node5&#45;&gt;Node4</title>
<path fill="none" stroke="#404040" d="M259.72,-375.43C256.32,-353.5 250.84,-325.75 242.5,-302 241.67,-299.63 240.78,-297.24 239.85,-294.85"/>
<polygon fill="none" stroke="#404040" points="239.8,-294.73 233.81,-290.72 235.21,-283.64 241.2,-287.65 239.8,-294.73"/>
<text text-anchor="middle" x="262.5" y="-310.5" font-family="Helvetica,sans-Serif" font-size="10.00"> &#45;Data</text>
</g>
</g>
</svg>
        <g id="navigator" transform="translate(0 0)" fill="#404254">
                <rect fill="#f2f5e9" fill-opacity="0.5" stroke="#606060" stroke-width=".5" x="0" y="0" width="60" height="60"/>
                <use id="zoomplus" xlink:href="#zoomPlus" x="17" y="9" onmousedown="handleZoom(evt,'in')"/>
                <use id="zoomminus" xlink:href="#zoomMin" x="42" y="9" onmousedown="handleZoom(evt,'out')"/>
                <use id="reset" xlink:href="#resetDef" x="30" y="36" onmousedown="handleReset()"/>
                <g id="arrowUp" xlink:href="#dirArrow" transform="translate(30 24)" onmousedown="handlePan(0,-1)">
                  <use xlink:href="#rim" fill="#404040">
                        <set attributeName="fill" to="#808080" begin="arrowUp.mouseover" end="arrowUp.mouseout"/>
                  </use>
                  <path fill="none" stroke="white" stroke-width="1.5" d="M0,-3.0v7 M-2.5,-0.5L0,-3.0L2.5,-0.5"/>
                </g>
                <g id="arrowRight" xlink:href="#dirArrow" transform="rotate(90) translate(36 -43)" onmousedown="handlePan(1,0)">
                  <use xlink:href="#rim" fill="#404040">
                        <set attributeName="fill" to="#808080" begin="arrowRight.mouseover" end="arrowRight.mouseout"/>
                  </use>
                  <path fill="none" stroke="white" stroke-width="1.5" d="M0,-3.0v7 M-2.5,-0.5L0,-3.0L2.5,-0.5"/>
                </g>
                <g id="arrowDown" xlink:href="#dirArrow" transform="rotate(180) translate(-30 -48)" onmousedown="handlePan(0,1)">
                  <use xlink:href="#rim" fill="#404040">
                        <set attributeName="fill" to="#808080" begin="arrowDown.mouseover" end="arrowDown.mouseout"/>
                  </use>
                  <path fill="none" stroke="white" stroke-width="1.5" d="M0,-3.0v7 M-2.5,-0.5L0,-3.0L2.5,-0.5"/>
                </g>
                <g id="arrowLeft" xlink:href="#dirArrow" transform="rotate(270) translate(-36 17)" onmousedown="handlePan(-1,0)">
                  <use xlink:href="#rim" fill="#404040">
                        <set attributeName="fill" to="#808080" begin="arrowLeft.mouseover" end="arrowLeft.mouseout"/>
                  </use>
                  <path fill="none" stroke="white" stroke-width="1.5" d="M0,-3.0v7 M-2.5,-0.5L0,-3.0L2.5,-0.5"/>
                </g>
        </g>
        <svg viewBox="0 0 15 15" width="100%" height="30px" preserveAspectRatio="xMaxYMin meet">
         <g id="arrow_out" transform="scale(0.3 0.3)">
          <a xlink:href="structSDK_1_1FEFParamRootMotionBeHit__coll__graph_org.svg" target="_base">
           <rect id="button" ry="5" rx="5" y="6" x="6" height="38" width="38"
                fill="#f2f5e9" fill-opacity="0.5" stroke="#606060" stroke-width="1.0"/>
           <path id="arrow"
             d="M 11.500037,31.436501 C 11.940474,20.09759 22.043105,11.32322 32.158766,21.979434 L 37.068811,17.246167 C 37.068811,17.246167 37.088388,32 37.088388,32 L 22.160133,31.978069 C 22.160133,31.978069 26.997745,27.140456 26.997745,27.140456 C 18.528582,18.264221 13.291696,25.230495 11.500037,31.436501 z"
             style="fill:#404040;"/>
          </a>
         </g>
        </svg>
</svg>
