<?xml version="1.0" encoding="UTF-8" standalone="no"?>
<!DOCTYPE svg PUBLIC "-//W3C//DTD SVG 1.1//EN"
 "http://www.w3.org/Graphics/SVG/1.1/DTD/svg11.dtd">
<!-- Generated by graphviz version 2.41.20171026.1811 (20171026.1811)
 -->
<!-- Title: SDK::UEFInterpTrackAutoBlendVectorProp Pages: 1 -->
<!--zoomable 904 -->
<svg id="main" version="1.1" xmlns="http://www.w3.org/2000/svg" xmlns:xlink="http://www.w3.org/1999/xlink" xml:space="preserve" onload="init(evt)">
<style type="text/css"><![CDATA[
.edge:hover path { stroke: red; }
.edge:hover polygon { stroke: red; fill: red; }
]]></style>
<script type="text/javascript"><![CDATA[
var edges = document.getElementsByTagName('g');
if (edges && edges.length) {
  for (var i=0;i<edges.length;i++) {
    if (edges[i].id.substr(0,4)=='edge') {
      edges[i].setAttribute('class','edge');
    }
  }
}
]]></script>
        <defs>
                <circle id="rim" cx="0" cy="0" r="7"/>
                <circle id="rim2" cx="0" cy="0" r="3.5"/>
                <g id="zoomPlus">
                        <use xlink:href="#rim" fill="#404040">
                                <set attributeName="fill" to="#808080" begin="zoomplus.mouseover" end="zoomplus.mouseout"/>
                        </use>
                        <path d="M-4,0h8M0,-4v8" fill="none" stroke="white" stroke-width="1.5" pointer-events="none"/>
                </g>
                <g id="zoomMin">
                        <use xlink:href="#rim" fill="#404040">
                                <set attributeName="fill" to="#808080" begin="zoomminus.mouseover" end="zoomminus.mouseout"/>
                        </use>
                        <path d="M-4,0h8" fill="none" stroke="white" stroke-width="1.5" pointer-events="none"/>
                </g>
                <g id="dirArrow">
                        <path fill="none" stroke="white" stroke-width="1.5" d="M0,-3.0v7 M-2.5,-0.5L0,-3.0L2.5,-0.5"/>
                </g>
               <g id="resetDef">
                       <use xlink:href="#rim2" fill="#404040">
                               <set attributeName="fill" to="#808080" begin="reset.mouseover" end="reset.mouseout"/>
                       </use>
               </g>
        </defs>

<script type="text/javascript">
var viewWidth = 206;
var viewHeight = 904;
var sectionId = 'dynsection-0';
</script>
<script xlink:href="../../svgpan.js"/>
<svg id="graph" class="graph">
<g id="viewport">
<title>SDK::UEFInterpTrackAutoBlendVectorProp</title>
<polygon fill="white" stroke="transparent" points="-4,4 -4,-900 202,-900 202,4 -4,4"/>
<!-- Node1 -->
<g id="node1" class="node">
<title>Node1</title>
<g id="a_node1"><a xlink:title=" ">
<polygon fill="#bfbfbf" stroke="black" points="20,-0.5 20,-101.5 178,-101.5 178,-0.5 20,-0.5"/>
<text text-anchor="start" x="28" y="-89.5" font-family="Helvetica,sans-Serif" font-size="10.00">SDK::UEFInterpTrackAutoBlend</text>
<text text-anchor="middle" x="99" y="-78.5" font-family="Helvetica,sans-Serif" font-size="10.00">VectorProp</text>
<polyline fill="none" stroke="black" points="20,-71.5 178,-71.5 "/>
<text text-anchor="start" x="28" y="-59.5" font-family="Helvetica,sans-Serif" font-size="10.00">+ VfTable_IEFInterpTrackAuto</text>
<text text-anchor="start" x="28" y="-48.5" font-family="Helvetica,sans-Serif" font-size="10.00">BlendBase</text>
<text text-anchor="start" x="28" y="-37.5" font-family="Helvetica,sans-Serif" font-size="10.00">+ BlendInTimeFromOriginal</text>
<text text-anchor="start" x="28" y="-26.5" font-family="Helvetica,sans-Serif" font-size="10.00">+ BlendOutTimeToOriginal</text>
<polyline fill="none" stroke="black" points="20,-19.5 178,-19.5 "/>
<text text-anchor="start" x="28" y="-7.5" font-family="Helvetica,sans-Serif" font-size="10.00">+ StaticClass()</text>
</a>
</g>
</g>
<!-- Node2 -->
<g id="node2" class="node">
<title>Node2</title>
<g id="a_node2"><a xlink:href="../../d4/dd5/classSDK_1_1UInterpTrackVectorProp.html" target="_top" xlink:title=" ">
<polygon fill="white" stroke="black" points="24.5,-138.5 24.5,-195.5 173.5,-195.5 173.5,-138.5 24.5,-138.5"/>
<text text-anchor="middle" x="99" y="-183.5" font-family="Helvetica,sans-Serif" font-size="10.00">SDK::UInterpTrackVectorProp</text>
<polyline fill="none" stroke="black" points="24.5,-176.5 173.5,-176.5 "/>
<text text-anchor="start" x="32.5" y="-164.5" font-family="Helvetica,sans-Serif" font-size="10.00">+ PropertyName</text>
<polyline fill="none" stroke="black" points="24.5,-157.5 173.5,-157.5 "/>
<text text-anchor="start" x="32.5" y="-145.5" font-family="Helvetica,sans-Serif" font-size="10.00">+ StaticClass()</text>
</a>
</g>
</g>
<!-- Node2&#45;&gt;Node1 -->
<g id="edge1" class="edge">
<title>Node2&#45;&gt;Node1</title>
<path fill="none" stroke="midnightblue" d="M99,-128.35C99,-119.8 99,-110.58 99,-101.61"/>
<polygon fill="none" stroke="midnightblue" points="95.5,-128.4 99,-138.4 102.5,-128.4 95.5,-128.4"/>
</g>
<!-- Node3 -->
<g id="node3" class="node">
<title>Node3</title>
<g id="a_node3"><a xlink:href="../../d8/dc4/classSDK_1_1UInterpTrackVectorBase.html" target="_top" xlink:title=" ">
<polygon fill="white" stroke="black" points="23,-232.5 23,-300.5 175,-300.5 175,-232.5 23,-232.5"/>
<text text-anchor="middle" x="99" y="-288.5" font-family="Helvetica,sans-Serif" font-size="10.00">SDK::UInterpTrackVectorBase</text>
<polyline fill="none" stroke="black" points="23,-281.5 175,-281.5 "/>
<text text-anchor="start" x="31" y="-269.5" font-family="Helvetica,sans-Serif" font-size="10.00">+ VectorTrack</text>
<text text-anchor="start" x="31" y="-258.5" font-family="Helvetica,sans-Serif" font-size="10.00">+ CurveTension</text>
<polyline fill="none" stroke="black" points="23,-251.5 175,-251.5 "/>
<text text-anchor="start" x="31" y="-239.5" font-family="Helvetica,sans-Serif" font-size="10.00">+ StaticClass()</text>
</a>
</g>
</g>
<!-- Node3&#45;&gt;Node2 -->
<g id="edge2" class="edge">
<title>Node3&#45;&gt;Node2</title>
<path fill="none" stroke="midnightblue" d="M99,-222.45C99,-213.4 99,-204.09 99,-195.78"/>
<polygon fill="none" stroke="midnightblue" points="95.5,-222.49 99,-232.49 102.5,-222.49 95.5,-222.49"/>
</g>
<!-- Node4 -->
<g id="node4" class="node">
<title>Node4</title>
<g id="a_node4"><a xlink:href="../../d4/d52/classSDK_1_1UInterpTrack.html" target="_top" xlink:title=" ">
<polygon fill="white" stroke="black" points="15.5,-337.5 15.5,-504.5 182.5,-504.5 182.5,-337.5 15.5,-337.5"/>
<text text-anchor="middle" x="99" y="-492.5" font-family="Helvetica,sans-Serif" font-size="10.00">SDK::UInterpTrack</text>
<polyline fill="none" stroke="black" points="15.5,-485.5 182.5,-485.5 "/>
<text text-anchor="start" x="23.5" y="-473.5" font-family="Helvetica,sans-Serif" font-size="10.00">+ VfTable_FInterpEdInputInterface</text>
<text text-anchor="start" x="23.5" y="-462.5" font-family="Helvetica,sans-Serif" font-size="10.00">+ CurveEdVTable</text>
<text text-anchor="start" x="23.5" y="-451.5" font-family="Helvetica,sans-Serif" font-size="10.00">+ SubTracks</text>
<text text-anchor="start" x="23.5" y="-440.5" font-family="Helvetica,sans-Serif" font-size="10.00">+ SubTrackGroups</text>
<text text-anchor="start" x="23.5" y="-429.5" font-family="Helvetica,sans-Serif" font-size="10.00">+ SupportedSubTracks</text>
<text text-anchor="start" x="23.5" y="-418.5" font-family="Helvetica,sans-Serif" font-size="10.00">+ TrackInstClass</text>
<text text-anchor="start" x="23.5" y="-407.5" font-family="Helvetica,sans-Serif" font-size="10.00">+ ActiveCondition</text>
<text text-anchor="start" x="23.5" y="-396.5" font-family="Helvetica,sans-Serif" font-size="10.00">+ UnknownData00</text>
<text text-anchor="start" x="23.5" y="-385.5" font-family="Helvetica,sans-Serif" font-size="10.00">+ TrackTitle</text>
<text text-anchor="start" x="23.5" y="-374.5" font-family="Helvetica,sans-Serif" font-size="10.00">+ bOnePerGroup</text>
<text text-anchor="start" x="23.5" y="-363.5" font-family="Helvetica,sans-Serif" font-size="10.00">and 8 more...</text>
<polyline fill="none" stroke="black" points="15.5,-356.5 182.5,-356.5 "/>
<text text-anchor="start" x="23.5" y="-344.5" font-family="Helvetica,sans-Serif" font-size="10.00">+ StaticClass()</text>
</a>
</g>
</g>
<!-- Node4&#45;&gt;Node3 -->
<g id="edge3" class="edge">
<title>Node4&#45;&gt;Node3</title>
<path fill="none" stroke="midnightblue" d="M99,-326.89C99,-317.63 99,-308.72 99,-300.74"/>
<polygon fill="none" stroke="midnightblue" points="95.5,-327.06 99,-337.06 102.5,-327.06 95.5,-327.06"/>
</g>
<!-- Node5 -->
<g id="node5" class="node">
<title>Node5</title>
<g id="a_node5"><a xlink:href="../../d9/d45/classSDK_1_1UObject.html" target="_top" xlink:title=" ">
<polygon fill="white" stroke="black" points="0,-541.5 0,-895.5 198,-895.5 198,-541.5 0,-541.5"/>
<text text-anchor="middle" x="99" y="-883.5" font-family="Helvetica,sans-Serif" font-size="10.00">SDK::UObject</text>
<polyline fill="none" stroke="black" points="0,-876.5 198,-876.5 "/>
<text text-anchor="start" x="8" y="-864.5" font-family="Helvetica,sans-Serif" font-size="10.00">+ VfTableObject</text>
<text text-anchor="start" x="8" y="-853.5" font-family="Helvetica,sans-Serif" font-size="10.00">+ ObjectFlags</text>
<text text-anchor="start" x="8" y="-842.5" font-family="Helvetica,sans-Serif" font-size="10.00">+ StateFrame</text>
<text text-anchor="start" x="8" y="-831.5" font-family="Helvetica,sans-Serif" font-size="10.00">+ Linker</text>
<text text-anchor="start" x="8" y="-820.5" font-family="Helvetica,sans-Serif" font-size="10.00">+ LinkerIndex</text>
<text text-anchor="start" x="8" y="-809.5" font-family="Helvetica,sans-Serif" font-size="10.00">+ ObjectInternalInteger</text>
<text text-anchor="start" x="8" y="-798.5" font-family="Helvetica,sans-Serif" font-size="10.00">+ NetIndex</text>
<text text-anchor="start" x="8" y="-787.5" font-family="Helvetica,sans-Serif" font-size="10.00">+ Outer</text>
<text text-anchor="start" x="8" y="-776.5" font-family="Helvetica,sans-Serif" font-size="10.00">+ Name</text>
<text text-anchor="start" x="8" y="-765.5" font-family="Helvetica,sans-Serif" font-size="10.00">+ Class</text>
<text text-anchor="start" x="8" y="-754.5" font-family="Helvetica,sans-Serif" font-size="10.00">+ ObjectArchetype</text>
<text text-anchor="start" x="8" y="-743.5" font-family="Helvetica,sans-Serif" font-size="10.00">+ GObjects</text>
<polyline fill="none" stroke="black" points="0,-736.5 198,-736.5 "/>
<text text-anchor="start" x="8" y="-724.5" font-family="Helvetica,sans-Serif" font-size="10.00">+ UObject::GetName()</text>
<text text-anchor="start" x="8" y="-713.5" font-family="Helvetica,sans-Serif" font-size="10.00">+ GetFullName()</text>
<text text-anchor="start" x="8" y="-702.5" font-family="Helvetica,sans-Serif" font-size="10.00">+ IsA()</text>
<text text-anchor="start" x="8" y="-691.5" font-family="Helvetica,sans-Serif" font-size="10.00">+ ProcessEvent()</text>
<text text-anchor="start" x="8" y="-680.5" font-family="Helvetica,sans-Serif" font-size="10.00">+ STATIC_ProfNodeEvent()</text>
<text text-anchor="start" x="8" y="-669.5" font-family="Helvetica,sans-Serif" font-size="10.00">+ STATIC_ProfNodeSetDepthThreshold()</text>
<text text-anchor="start" x="8" y="-658.5" font-family="Helvetica,sans-Serif" font-size="10.00">+ STATIC_ProfNodeSetTimeThreshold</text>
<text text-anchor="start" x="8" y="-647.5" font-family="Helvetica,sans-Serif" font-size="10.00">Seconds()</text>
<text text-anchor="start" x="8" y="-636.5" font-family="Helvetica,sans-Serif" font-size="10.00">+ STATIC_ProfNodeStop()</text>
<text text-anchor="start" x="8" y="-625.5" font-family="Helvetica,sans-Serif" font-size="10.00">+ STATIC_ProfNodeStart()</text>
<text text-anchor="start" x="8" y="-614.5" font-family="Helvetica,sans-Serif" font-size="10.00">+ STATIC_GetStringFromGuid()</text>
<text text-anchor="start" x="8" y="-603.5" font-family="Helvetica,sans-Serif" font-size="10.00">and 298 more...</text>
<text text-anchor="start" x="8" y="-592.5" font-family="Helvetica,sans-Serif" font-size="10.00">+ GetGlobalObjects()</text>
<text text-anchor="start" x="8" y="-581.5" font-family="Helvetica,sans-Serif" font-size="10.00">+ FindObject()</text>
<text text-anchor="start" x="8" y="-570.5" font-family="Helvetica,sans-Serif" font-size="10.00">+ FindClass()</text>
<text text-anchor="start" x="8" y="-559.5" font-family="Helvetica,sans-Serif" font-size="10.00">+ GetObjectCasted()</text>
<text text-anchor="start" x="8" y="-548.5" font-family="Helvetica,sans-Serif" font-size="10.00">+ StaticClass()</text>
</a>
</g>
</g>
<!-- Node5&#45;&gt;Node4 -->
<g id="edge4" class="edge">
<title>Node5&#45;&gt;Node4</title>
<path fill="none" stroke="midnightblue" d="M99,-531.07C99,-522.04 99,-513.23 99,-504.76"/>
<polygon fill="none" stroke="midnightblue" points="95.5,-531.34 99,-541.34 102.5,-531.34 95.5,-531.34"/>
</g>
</g>
</svg>
        <g id="navigator" transform="translate(0 0)" fill="#404254">
                <rect fill="#f2f5e9" fill-opacity="0.5" stroke="#606060" stroke-width=".5" x="0" y="0" width="60" height="60"/>
                <use id="zoomplus" xlink:href="#zoomPlus" x="17" y="9" onmousedown="handleZoom(evt,'in')"/>
                <use id="zoomminus" xlink:href="#zoomMin" x="42" y="9" onmousedown="handleZoom(evt,'out')"/>
                <use id="reset" xlink:href="#resetDef" x="30" y="36" onmousedown="handleReset()"/>
                <g id="arrowUp" xlink:href="#dirArrow" transform="translate(30 24)" onmousedown="handlePan(0,-1)">
                  <use xlink:href="#rim" fill="#404040">
                        <set attributeName="fill" to="#808080" begin="arrowUp.mouseover" end="arrowUp.mouseout"/>
                  </use>
                  <path fill="none" stroke="white" stroke-width="1.5" d="M0,-3.0v7 M-2.5,-0.5L0,-3.0L2.5,-0.5"/>
                </g>
                <g id="arrowRight" xlink:href="#dirArrow" transform="rotate(90) translate(36 -43)" onmousedown="handlePan(1,0)">
                  <use xlink:href="#rim" fill="#404040">
                        <set attributeName="fill" to="#808080" begin="arrowRight.mouseover" end="arrowRight.mouseout"/>
                  </use>
                  <path fill="none" stroke="white" stroke-width="1.5" d="M0,-3.0v7 M-2.5,-0.5L0,-3.0L2.5,-0.5"/>
                </g>
                <g id="arrowDown" xlink:href="#dirArrow" transform="rotate(180) translate(-30 -48)" onmousedown="handlePan(0,1)">
                  <use xlink:href="#rim" fill="#404040">
                        <set attributeName="fill" to="#808080" begin="arrowDown.mouseover" end="arrowDown.mouseout"/>
                  </use>
                  <path fill="none" stroke="white" stroke-width="1.5" d="M0,-3.0v7 M-2.5,-0.5L0,-3.0L2.5,-0.5"/>
                </g>
                <g id="arrowLeft" xlink:href="#dirArrow" transform="rotate(270) translate(-36 17)" onmousedown="handlePan(-1,0)">
                  <use xlink:href="#rim" fill="#404040">
                        <set attributeName="fill" to="#808080" begin="arrowLeft.mouseover" end="arrowLeft.mouseout"/>
                  </use>
                  <path fill="none" stroke="white" stroke-width="1.5" d="M0,-3.0v7 M-2.5,-0.5L0,-3.0L2.5,-0.5"/>
                </g>
        </g>
        <svg viewBox="0 0 15 15" width="100%" height="30px" preserveAspectRatio="xMaxYMin meet">
         <g id="arrow_out" transform="scale(0.3 0.3)">
          <a xlink:href="classSDK_1_1UEFInterpTrackAutoBlendVectorProp__inherit__graph_org.svg" target="_base">
           <rect id="button" ry="5" rx="5" y="6" x="6" height="38" width="38"
                fill="#f2f5e9" fill-opacity="0.5" stroke="#606060" stroke-width="1.0"/>
           <path id="arrow"
             d="M 11.500037,31.436501 C 11.940474,20.09759 22.043105,11.32322 32.158766,21.979434 L 37.068811,17.246167 C 37.068811,17.246167 37.088388,32 37.088388,32 L 22.160133,31.978069 C 22.160133,31.978069 26.997745,27.140456 26.997745,27.140456 C 18.528582,18.264221 13.291696,25.230495 11.500037,31.436501 z"
             style="fill:#404040;"/>
          </a>
         </g>
        </svg>
</svg>
