<?xml version="1.0" encoding="UTF-8" standalone="no"?>
<!DOCTYPE svg PUBLIC "-//W3C//DTD SVG 1.1//EN"
 "http://www.w3.org/Graphics/SVG/1.1/DTD/svg11.dtd">
<!-- Generated by graphviz version 2.41.20171026.1811 (20171026.1811)
 -->
<!-- Title: SDK::FFontRenderInfo Pages: 1 -->
<svg width="216pt" height="331pt"
 viewBox="0.00 0.00 216.00 331.00" xmlns="http://www.w3.org/2000/svg" xmlns:xlink="http://www.w3.org/1999/xlink">
<g id="graph0" class="graph" transform="scale(1 1) rotate(0) translate(4 327)">
<title>SDK::FFontRenderInfo</title>
<polygon fill="white" stroke="transparent" points="-4,4 -4,-327 212,-327 212,4 -4,4"/>
<!-- Node1 -->
<g id="node1" class="node">
<title>Node1</title>
<g id="a_node1"><a xlink:title=" ">
<polygon fill="#bfbfbf" stroke="black" points="43,-0.5 43,-68.5 160,-68.5 160,-0.5 43,-0.5"/>
<text text-anchor="middle" x="101.5" y="-56.5" font-family="Helvetica,sans-Serif" font-size="10.00">SDK::FFontRenderInfo</text>
<polyline fill="none" stroke="black" points="43,-49.5 160,-49.5 "/>
<text text-anchor="start" x="51" y="-37.5" font-family="Helvetica,sans-Serif" font-size="10.00">+ bClipText</text>
<text text-anchor="start" x="51" y="-26.5" font-family="Helvetica,sans-Serif" font-size="10.00">+ bEnableShadow</text>
<polyline fill="none" stroke="black" points="43,-19.5 160,-19.5 "/>
<text text-anchor="middle" x="101.5" y="-7.5" font-family="Helvetica,sans-Serif" font-size="10.00"> </text>
</a>
</g>
</g>
<!-- Node2 -->
<g id="node2" class="node">
<title>Node2</title>
<g id="a_node2"><a xlink:href="../../de/de2/structSDK_1_1FDepthFieldGlowInfo.html" target="_top" xlink:title=" ">
<polygon fill="white" stroke="black" points="33.5,-116.5 33.5,-173.5 169.5,-173.5 169.5,-116.5 33.5,-116.5"/>
<text text-anchor="middle" x="101.5" y="-161.5" font-family="Helvetica,sans-Serif" font-size="10.00">SDK::FDepthFieldGlowInfo</text>
<polyline fill="none" stroke="black" points="33.5,-154.5 169.5,-154.5 "/>
<text text-anchor="start" x="41.5" y="-142.5" font-family="Helvetica,sans-Serif" font-size="10.00">+ bEnableGlow</text>
<polyline fill="none" stroke="black" points="33.5,-135.5 169.5,-135.5 "/>
<text text-anchor="middle" x="101.5" y="-123.5" font-family="Helvetica,sans-Serif" font-size="10.00"> </text>
</a>
</g>
</g>
<!-- Node2&#45;&gt;Node1 -->
<g id="edge1" class="edge">
<title>Node2&#45;&gt;Node1</title>
<path fill="none" stroke="#404040" d="M101.5,-116.34C101.5,-105.53 101.5,-92.85 101.5,-80.77"/>
<polygon fill="none" stroke="#404040" points="101.5,-80.52 97.5,-74.52 101.5,-68.52 105.5,-74.52 101.5,-80.52"/>
<text text-anchor="middle" x="126" y="-90" font-family="Helvetica,sans-Serif" font-size="10.00"> +GlowInfo</text>
</g>
<!-- Node3 -->
<g id="node3" class="node">
<title>Node3</title>
<g id="a_node3"><a xlink:href="../../db/da8/structSDK_1_1FVector2D.html" target="_top" xlink:title=" ">
<polygon fill="white" stroke="black" points="0,-243.5 0,-311.5 91,-311.5 91,-243.5 0,-243.5"/>
<text text-anchor="middle" x="45.5" y="-299.5" font-family="Helvetica,sans-Serif" font-size="10.00">SDK::FVector2D</text>
<polyline fill="none" stroke="black" points="0,-292.5 91,-292.5 "/>
<text text-anchor="start" x="8" y="-280.5" font-family="Helvetica,sans-Serif" font-size="10.00">+ X</text>
<text text-anchor="start" x="8" y="-269.5" font-family="Helvetica,sans-Serif" font-size="10.00">+ Y</text>
<polyline fill="none" stroke="black" points="0,-262.5 91,-262.5 "/>
<text text-anchor="middle" x="45.5" y="-250.5" font-family="Helvetica,sans-Serif" font-size="10.00"> </text>
</a>
</g>
</g>
<!-- Node3&#45;&gt;Node2 -->
<g id="edge2" class="edge">
<title>Node3&#45;&gt;Node2</title>
<path fill="none" stroke="#404040" d="M42.29,-243.35C42.07,-227.13 43.9,-207.77 51.5,-192 53.01,-188.86 54.84,-185.84 56.89,-182.94"/>
<polygon fill="none" stroke="#404040" points="56.96,-182.86 57.69,-175.68 64.59,-173.6 63.86,-180.77 56.96,-182.86"/>
<text text-anchor="middle" x="94" y="-206" font-family="Helvetica,sans-Serif" font-size="10.00"> +GlowInnerRadius</text>
<text text-anchor="middle" x="94" y="-195" font-family="Helvetica,sans-Serif" font-size="10.00">+GlowOuterRadius</text>
</g>
<!-- Node4 -->
<g id="node4" class="node">
<title>Node4</title>
<g id="a_node4"><a xlink:href="../../de/d7c/structSDK_1_1FLinearColor.html" target="_top" xlink:title=" ">
<polygon fill="white" stroke="black" points="109,-232.5 109,-322.5 208,-322.5 208,-232.5 109,-232.5"/>
<text text-anchor="middle" x="158.5" y="-310.5" font-family="Helvetica,sans-Serif" font-size="10.00">SDK::FLinearColor</text>
<polyline fill="none" stroke="black" points="109,-303.5 208,-303.5 "/>
<text text-anchor="start" x="117" y="-291.5" font-family="Helvetica,sans-Serif" font-size="10.00">+ R</text>
<text text-anchor="start" x="117" y="-280.5" font-family="Helvetica,sans-Serif" font-size="10.00">+ G</text>
<text text-anchor="start" x="117" y="-269.5" font-family="Helvetica,sans-Serif" font-size="10.00">+ B</text>
<text text-anchor="start" x="117" y="-258.5" font-family="Helvetica,sans-Serif" font-size="10.00">+ A</text>
<polyline fill="none" stroke="black" points="109,-251.5 208,-251.5 "/>
<text text-anchor="middle" x="158.5" y="-239.5" font-family="Helvetica,sans-Serif" font-size="10.00"> </text>
</a>
</g>
</g>
<!-- Node4&#45;&gt;Node2 -->
<g id="edge3" class="edge">
<title>Node4&#45;&gt;Node2</title>
<path fill="none" stroke="#404040" d="M150.49,-232.34C147.15,-218.98 142.6,-204.54 136.5,-192 135.16,-189.24 133.63,-186.48 131.99,-183.76"/>
<polygon fill="none" stroke="#404040" points="131.86,-183.55 125.21,-180.77 125.22,-173.56 131.87,-176.34 131.86,-183.55"/>
<text text-anchor="middle" x="172" y="-200.5" font-family="Helvetica,sans-Serif" font-size="10.00"> +GlowColor</text>
</g>
</g>
</svg>
