<?xml version="1.0" encoding="UTF-8" standalone="no"?>
<!DOCTYPE svg PUBLIC "-//W3C//DTD SVG 1.1//EN"
 "http://www.w3.org/Graphics/SVG/1.1/DTD/svg11.dtd">
<!-- Generated by graphviz version 2.41.20171026.1811 (20171026.1811)
 -->
<!-- Title: SDK::UEFActionNotify_AnimEvent_CancelParticles Pages: 1 -->
<svg width="628pt" height="1444pt"
 viewBox="0.00 0.00 628.00 1444.00" xmlns="http://www.w3.org/2000/svg" xmlns:xlink="http://www.w3.org/1999/xlink">
<g id="graph0" class="graph" transform="scale(1 1) rotate(0) translate(4 1440)">
<title>SDK::UEFActionNotify_AnimEvent_CancelParticles</title>
<polygon fill="white" stroke="transparent" points="-4,4 -4,-1440 624,-1440 624,4 -4,4"/>
<!-- Node1 -->
<g id="node1" class="node">
<title>Node1</title>
<g id="a_node1"><a xlink:title=" ">
<polygon fill="#bfbfbf" stroke="black" points="476,-229 476,-297 620,-297 620,-229 476,-229"/>
<text text-anchor="start" x="484" y="-285" font-family="Helvetica,sans-Serif" font-size="10.00">SDK::UEFActionNotify</text>
<text text-anchor="middle" x="548" y="-274" font-family="Helvetica,sans-Serif" font-size="10.00">_AnimEvent_CancelParticles</text>
<polyline fill="none" stroke="black" points="476,-267 620,-267 "/>
<text text-anchor="middle" x="548" y="-255" font-family="Helvetica,sans-Serif" font-size="10.00"> </text>
<polyline fill="none" stroke="black" points="476,-248 620,-248 "/>
<text text-anchor="start" x="484" y="-236" font-family="Helvetica,sans-Serif" font-size="10.00">+ StaticClass()</text>
</a>
</g>
</g>
<!-- Node2 -->
<g id="node2" class="node">
<title>Node2</title>
<g id="a_node2"><a xlink:href="../../dc/dde/classSDK_1_1UEFActionNotify__AnimEvent.html" target="_top" xlink:title=" ">
<polygon fill="white" stroke="black" points="489,-383.5 489,-473.5 607,-473.5 607,-383.5 489,-383.5"/>
<text text-anchor="start" x="497" y="-461.5" font-family="Helvetica,sans-Serif" font-size="10.00">SDK::UEFActionNotify</text>
<text text-anchor="middle" x="548" y="-450.5" font-family="Helvetica,sans-Serif" font-size="10.00">_AnimEvent</text>
<polyline fill="none" stroke="black" points="489,-443.5 607,-443.5 "/>
<text text-anchor="start" x="497" y="-431.5" font-family="Helvetica,sans-Serif" font-size="10.00">+ IsActive</text>
<text text-anchor="start" x="497" y="-420.5" font-family="Helvetica,sans-Serif" font-size="10.00">+ StartTime</text>
<text text-anchor="start" x="497" y="-409.5" font-family="Helvetica,sans-Serif" font-size="10.00">+ InterpTime</text>
<polyline fill="none" stroke="black" points="489,-402.5 607,-402.5 "/>
<text text-anchor="start" x="497" y="-390.5" font-family="Helvetica,sans-Serif" font-size="10.00">+ StaticClass()</text>
</a>
</g>
</g>
<!-- Node2&#45;&gt;Node1 -->
<g id="edge1" class="edge">
<title>Node2&#45;&gt;Node1</title>
<path fill="none" stroke="midnightblue" d="M548,-373.11C548,-347.97 548,-318.92 548,-297.12"/>
<polygon fill="none" stroke="midnightblue" points="544.5,-373.25 548,-383.25 551.5,-373.25 544.5,-373.25"/>
</g>
<!-- Node3 -->
<g id="node3" class="node">
<title>Node3</title>
<g id="a_node3"><a xlink:href="../../d9/d45/classSDK_1_1UObject.html" target="_top" xlink:title=" ">
<polygon fill="white" stroke="black" points="102,-543.5 102,-787.5 300,-787.5 300,-543.5 102,-543.5"/>
<text text-anchor="middle" x="201" y="-775.5" font-family="Helvetica,sans-Serif" font-size="10.00">SDK::UObject</text>
<polyline fill="none" stroke="black" points="102,-768.5 300,-768.5 "/>
<text text-anchor="start" x="110" y="-756.5" font-family="Helvetica,sans-Serif" font-size="10.00">+ ObjectInternalInteger</text>
<text text-anchor="start" x="110" y="-745.5" font-family="Helvetica,sans-Serif" font-size="10.00">+ NetIndex</text>
<polyline fill="none" stroke="black" points="102,-738.5 300,-738.5 "/>
<text text-anchor="start" x="110" y="-726.5" font-family="Helvetica,sans-Serif" font-size="10.00">+ UObject::GetName()</text>
<text text-anchor="start" x="110" y="-715.5" font-family="Helvetica,sans-Serif" font-size="10.00">+ GetFullName()</text>
<text text-anchor="start" x="110" y="-704.5" font-family="Helvetica,sans-Serif" font-size="10.00">+ IsA()</text>
<text text-anchor="start" x="110" y="-693.5" font-family="Helvetica,sans-Serif" font-size="10.00">+ ProcessEvent()</text>
<text text-anchor="start" x="110" y="-682.5" font-family="Helvetica,sans-Serif" font-size="10.00">+ STATIC_ProfNodeEvent()</text>
<text text-anchor="start" x="110" y="-671.5" font-family="Helvetica,sans-Serif" font-size="10.00">+ STATIC_ProfNodeSetDepthThreshold()</text>
<text text-anchor="start" x="110" y="-660.5" font-family="Helvetica,sans-Serif" font-size="10.00">+ STATIC_ProfNodeSetTimeThreshold</text>
<text text-anchor="start" x="110" y="-649.5" font-family="Helvetica,sans-Serif" font-size="10.00">Seconds()</text>
<text text-anchor="start" x="110" y="-638.5" font-family="Helvetica,sans-Serif" font-size="10.00">+ STATIC_ProfNodeStop()</text>
<text text-anchor="start" x="110" y="-627.5" font-family="Helvetica,sans-Serif" font-size="10.00">+ STATIC_ProfNodeStart()</text>
<text text-anchor="start" x="110" y="-616.5" font-family="Helvetica,sans-Serif" font-size="10.00">+ STATIC_GetStringFromGuid()</text>
<text text-anchor="start" x="110" y="-605.5" font-family="Helvetica,sans-Serif" font-size="10.00">and 298 more...</text>
<text text-anchor="start" x="110" y="-594.5" font-family="Helvetica,sans-Serif" font-size="10.00">+ GetGlobalObjects()</text>
<text text-anchor="start" x="110" y="-583.5" font-family="Helvetica,sans-Serif" font-size="10.00">+ FindObject()</text>
<text text-anchor="start" x="110" y="-572.5" font-family="Helvetica,sans-Serif" font-size="10.00">+ FindClass()</text>
<text text-anchor="start" x="110" y="-561.5" font-family="Helvetica,sans-Serif" font-size="10.00">+ GetObjectCasted()</text>
<text text-anchor="start" x="110" y="-550.5" font-family="Helvetica,sans-Serif" font-size="10.00">+ StaticClass()</text>
</a>
</g>
</g>
<!-- Node3&#45;&gt;Node2 -->
<g id="edge2" class="edge">
<title>Node3&#45;&gt;Node2</title>
<path fill="none" stroke="midnightblue" d="M308.96,-607.07C362.34,-576.76 426.59,-537.34 480,-496 488.75,-489.23 497.58,-481.45 505.84,-473.65"/>
<polygon fill="none" stroke="midnightblue" points="307.14,-604.08 300.15,-612.04 310.58,-610.17 307.14,-604.08"/>
</g>
<!-- Node3&#45;&gt;Node3 -->
<g id="edge8" class="edge">
<title>Node3&#45;&gt;Node3</title>
<path fill="none" stroke="#404040" d="M300.01,-688.53C310.94,-684.15 318,-676.48 318,-665.5 318,-658.64 315.24,-653.07 310.51,-648.78"/>
<polygon fill="none" stroke="#404040" points="310.3,-648.66 303.09,-648.99 300.01,-642.47 307.22,-642.14 310.3,-648.66"/>
<text text-anchor="middle" x="357.5" y="-674" font-family="Helvetica,sans-Serif" font-size="10.00"> +Outer</text>
<text text-anchor="middle" x="357.5" y="-663" font-family="Helvetica,sans-Serif" font-size="10.00">+Linker</text>
<text text-anchor="middle" x="357.5" y="-652" font-family="Helvetica,sans-Serif" font-size="10.00">+ObjectArchetype</text>
</g>
<!-- Node9 -->
<g id="node9" class="node">
<title>Node9</title>
<g id="a_node9"><a xlink:href="../../d3/d79/classSDK_1_1TArray.html" target="_top" xlink:title=" ">
<polygon fill="white" stroke="black" points="309.5,-361.5 309.5,-495.5 470.5,-495.5 470.5,-361.5 309.5,-361.5"/>
<text text-anchor="middle" x="390" y="-483.5" font-family="Helvetica,sans-Serif" font-size="10.00">SDK::TArray&lt; SDK::UObject * &gt;</text>
<polyline fill="none" stroke="black" points="309.5,-476.5 470.5,-476.5 "/>
<text text-anchor="start" x="317.5" y="-464.5" font-family="Helvetica,sans-Serif" font-size="10.00">&#45; Count</text>
<text text-anchor="start" x="317.5" y="-453.5" font-family="Helvetica,sans-Serif" font-size="10.00">&#45; Max</text>
<polyline fill="none" stroke="black" points="309.5,-446.5 470.5,-446.5 "/>
<text text-anchor="start" x="317.5" y="-434.5" font-family="Helvetica,sans-Serif" font-size="10.00">+ TArray()</text>
<text text-anchor="start" x="317.5" y="-423.5" font-family="Helvetica,sans-Serif" font-size="10.00">+ Num()</text>
<text text-anchor="start" x="317.5" y="-412.5" font-family="Helvetica,sans-Serif" font-size="10.00">+ operator[]()</text>
<text text-anchor="start" x="317.5" y="-401.5" font-family="Helvetica,sans-Serif" font-size="10.00">+ operator[]()</text>
<text text-anchor="start" x="317.5" y="-390.5" font-family="Helvetica,sans-Serif" font-size="10.00">+ IsValidIndex()</text>
<text text-anchor="start" x="317.5" y="-379.5" font-family="Helvetica,sans-Serif" font-size="10.00">+ GetByIndex()</text>
<text text-anchor="start" x="317.5" y="-368.5" font-family="Helvetica,sans-Serif" font-size="10.00">+ GetByIndex()</text>
</a>
</g>
</g>
<!-- Node3&#45;&gt;Node9 -->
<g id="edge10" class="edge">
<title>Node3&#45;&gt;Node9</title>
<path fill="none" stroke="#404040" d="M263,-543.41C269.92,-533.11 277.28,-523.15 285,-514 289.8,-508.31 295.04,-502.73 300.52,-497.32"/>
<polygon fill="none" stroke="#404040" points="300.61,-497.23 302.2,-490.19 309.31,-488.96 307.71,-495.99 300.61,-497.23"/>
<text text-anchor="middle" x="299" y="-517" font-family="Helvetica,sans-Serif" font-size="10.00"> &#45;Data</text>
</g>
<!-- Node11 -->
<g id="node11" class="node">
<title>Node11</title>
<g id="a_node11"><a xlink:href="../../d7/d85/classSDK_1_1UClass.html" target="_top" xlink:title=" ">
<polygon fill="white" stroke="black" points="70.5,-0.5 70.5,-90.5 191.5,-90.5 191.5,-0.5 70.5,-0.5"/>
<text text-anchor="middle" x="131" y="-78.5" font-family="Helvetica,sans-Serif" font-size="10.00">SDK::UClass</text>
<polyline fill="none" stroke="black" points="70.5,-71.5 191.5,-71.5 "/>
<text text-anchor="start" x="78.5" y="-59.5" font-family="Helvetica,sans-Serif" font-size="10.00">+ UnknownData00</text>
<text text-anchor="start" x="78.5" y="-48.5" font-family="Helvetica,sans-Serif" font-size="10.00">+ UnknownData01</text>
<polyline fill="none" stroke="black" points="70.5,-41.5 191.5,-41.5 "/>
<text text-anchor="start" x="78.5" y="-29.5" font-family="Helvetica,sans-Serif" font-size="10.00">+ CreateDefaultObject()</text>
<text text-anchor="start" x="78.5" y="-18.5" font-family="Helvetica,sans-Serif" font-size="10.00">+ CreateDefaultObject()</text>
<text text-anchor="start" x="78.5" y="-7.5" font-family="Helvetica,sans-Serif" font-size="10.00">+ StaticClass()</text>
</a>
</g>
</g>
<!-- Node3&#45;&gt;Node11 -->
<g id="edge20" class="edge">
<title>Node3&#45;&gt;Node11</title>
<path fill="none" stroke="#404040" d="M101.97,-599.75C51.24,-558.12 0,-498.89 0,-429.5 0,-429.5 0,-429.5 0,-156 0,-120.34 28.94,-94.01 59.61,-76.12"/>
<polygon fill="none" stroke="#404040" points="59.97,-75.92 63.3,-69.53 70.48,-70.14 67.15,-76.54 59.97,-75.92"/>
<text text-anchor="middle" x="47.5" y="-260.5" font-family="Helvetica,sans-Serif" font-size="10.00"> +ClassDefaultObject</text>
</g>
<!-- Node14 -->
<g id="node14" class="node">
<title>Node14</title>
<g id="a_node14"><a xlink:href="../../de/dd6/classSDK_1_1UField.html" target="_top" xlink:title=" ">
<polygon fill="white" stroke="black" points="159.5,-400 159.5,-457 242.5,-457 242.5,-400 159.5,-400"/>
<text text-anchor="middle" x="201" y="-445" font-family="Helvetica,sans-Serif" font-size="10.00">SDK::UField</text>
<polyline fill="none" stroke="black" points="159.5,-438 242.5,-438 "/>
<text text-anchor="middle" x="201" y="-426" font-family="Helvetica,sans-Serif" font-size="10.00"> </text>
<polyline fill="none" stroke="black" points="159.5,-419 242.5,-419 "/>
<text text-anchor="start" x="167.5" y="-407" font-family="Helvetica,sans-Serif" font-size="10.00">+ StaticClass()</text>
</a>
</g>
</g>
<!-- Node3&#45;&gt;Node14 -->
<g id="edge17" class="edge">
<title>Node3&#45;&gt;Node14</title>
<path fill="none" stroke="midnightblue" d="M201,-533.01C201,-504.27 201,-476.66 201,-457.19"/>
<polygon fill="none" stroke="midnightblue" points="197.5,-533.21 201,-543.21 204.5,-533.21 197.5,-533.21"/>
</g>
<!-- Node4 -->
<g id="node4" class="node">
<title>Node4</title>
<g id="a_node4"><a xlink:href="../../d0/d22/structSDK_1_1FQWord.html" target="_top" xlink:title=" ">
<polygon fill="white" stroke="black" points="49,-954 49,-1022 129,-1022 129,-954 49,-954"/>
<text text-anchor="middle" x="89" y="-1010" font-family="Helvetica,sans-Serif" font-size="10.00">SDK::FQWord</text>
<polyline fill="none" stroke="black" points="49,-1003 129,-1003 "/>
<text text-anchor="start" x="57" y="-991" font-family="Helvetica,sans-Serif" font-size="10.00">+ A</text>
<text text-anchor="start" x="57" y="-980" font-family="Helvetica,sans-Serif" font-size="10.00">+ B</text>
<polyline fill="none" stroke="black" points="49,-973 129,-973 "/>
<text text-anchor="middle" x="89" y="-961" font-family="Helvetica,sans-Serif" font-size="10.00"> </text>
</a>
</g>
</g>
<!-- Node4&#45;&gt;Node3 -->
<g id="edge3" class="edge">
<title>Node4&#45;&gt;Node3</title>
<path fill="none" stroke="#404040" d="M94.24,-953.96C100.63,-917.15 112.87,-856.21 131,-806 131.81,-803.75 132.65,-801.5 133.51,-799.23"/>
<polygon fill="none" stroke="#404040" points="133.59,-799.03 132.08,-791.97 138.01,-787.87 139.52,-794.92 133.59,-799.03"/>
<text text-anchor="middle" x="162" y="-854.5" font-family="Helvetica,sans-Serif" font-size="10.00"> +ObjectFlags</text>
</g>
<!-- Node5 -->
<g id="node5" class="node">
<title>Node5</title>
<g id="a_node5"><a xlink:href="../../d0/db6/structSDK_1_1FName.html" target="_top" xlink:title=" ">
<polygon fill="white" stroke="black" points="262.5,-926.5 262.5,-1049.5 369.5,-1049.5 369.5,-926.5 262.5,-926.5"/>
<text text-anchor="middle" x="316" y="-1037.5" font-family="Helvetica,sans-Serif" font-size="10.00">SDK::FName</text>
<polyline fill="none" stroke="black" points="262.5,-1030.5 369.5,-1030.5 "/>
<text text-anchor="start" x="270.5" y="-1018.5" font-family="Helvetica,sans-Serif" font-size="10.00">+ Index</text>
<text text-anchor="start" x="270.5" y="-1007.5" font-family="Helvetica,sans-Serif" font-size="10.00">+ Number</text>
<polyline fill="none" stroke="black" points="262.5,-1000.5 369.5,-1000.5 "/>
<text text-anchor="start" x="270.5" y="-988.5" font-family="Helvetica,sans-Serif" font-size="10.00">+ FName()</text>
<text text-anchor="start" x="270.5" y="-977.5" font-family="Helvetica,sans-Serif" font-size="10.00">+ FName()</text>
<text text-anchor="start" x="270.5" y="-966.5" font-family="Helvetica,sans-Serif" font-size="10.00">+ FName()</text>
<text text-anchor="start" x="270.5" y="-955.5" font-family="Helvetica,sans-Serif" font-size="10.00">+ GetName()</text>
<text text-anchor="start" x="270.5" y="-944.5" font-family="Helvetica,sans-Serif" font-size="10.00">+ operator==()</text>
<text text-anchor="start" x="270.5" y="-933.5" font-family="Helvetica,sans-Serif" font-size="10.00">+ GetGlobalNames()</text>
</a>
</g>
</g>
<!-- Node5&#45;&gt;Node3 -->
<g id="edge4" class="edge">
<title>Node5&#45;&gt;Node3</title>
<path fill="none" stroke="#404040" d="M304.47,-926.48C296.81,-890.83 285.49,-845.17 271,-806 270.12,-803.62 269.21,-801.22 268.27,-798.82"/>
<polygon fill="none" stroke="#404040" points="268.2,-798.65 262.25,-794.59 263.71,-787.52 269.67,-791.59 268.2,-798.65"/>
<text text-anchor="middle" x="318" y="-854.5" font-family="Helvetica,sans-Serif" font-size="10.00"> +Name</text>
</g>
<!-- Node6 -->
<g id="node6" class="node">
<title>Node6</title>
<g id="a_node6"><a xlink:href="../../d3/d79/classSDK_1_1TArray.html" target="_top" xlink:title=" ">
<polygon fill="white" stroke="black" points="213,-1103 213,-1237 393,-1237 393,-1103 213,-1103"/>
<text text-anchor="middle" x="303" y="-1225" font-family="Helvetica,sans-Serif" font-size="10.00">SDK::TArray&lt; SDK::FNameEntry * &gt;</text>
<polyline fill="none" stroke="black" points="213,-1218 393,-1218 "/>
<text text-anchor="start" x="221" y="-1206" font-family="Helvetica,sans-Serif" font-size="10.00">&#45; Count</text>
<text text-anchor="start" x="221" y="-1195" font-family="Helvetica,sans-Serif" font-size="10.00">&#45; Max</text>
<polyline fill="none" stroke="black" points="213,-1188 393,-1188 "/>
<text text-anchor="start" x="221" y="-1176" font-family="Helvetica,sans-Serif" font-size="10.00">+ TArray()</text>
<text text-anchor="start" x="221" y="-1165" font-family="Helvetica,sans-Serif" font-size="10.00">+ Num()</text>
<text text-anchor="start" x="221" y="-1154" font-family="Helvetica,sans-Serif" font-size="10.00">+ operator[]()</text>
<text text-anchor="start" x="221" y="-1143" font-family="Helvetica,sans-Serif" font-size="10.00">+ operator[]()</text>
<text text-anchor="start" x="221" y="-1132" font-family="Helvetica,sans-Serif" font-size="10.00">+ IsValidIndex()</text>
<text text-anchor="start" x="221" y="-1121" font-family="Helvetica,sans-Serif" font-size="10.00">+ GetByIndex()</text>
<text text-anchor="start" x="221" y="-1110" font-family="Helvetica,sans-Serif" font-size="10.00">+ GetByIndex()</text>
</a>
</g>
</g>
<!-- Node6&#45;&gt;Node5 -->
<g id="edge5" class="edge">
<title>Node6&#45;&gt;Node5</title>
<path fill="none" stroke="#404040" d="M307.77,-1103C308.73,-1089.63 309.75,-1075.5 310.73,-1061.91"/>
<polygon fill="none" stroke="#404040" points="310.76,-1061.59 307.2,-1055.32 311.62,-1049.62 315.18,-1055.89 310.76,-1061.59"/>
<text text-anchor="middle" x="334.5" y="-1071" font-family="Helvetica,sans-Serif" font-size="10.00"> +GNames</text>
</g>
<!-- Node7 -->
<g id="node7" class="node">
<title>Node7</title>
<g id="a_node7"><a xlink:href="../../d7/ddf/classSDK_1_1FNameEntry.html" target="_top" xlink:title=" ">
<polygon fill="white" stroke="black" points="202.5,-1329 202.5,-1397 301.5,-1397 301.5,-1329 202.5,-1329"/>
<text text-anchor="middle" x="252" y="-1385" font-family="Helvetica,sans-Serif" font-size="10.00">SDK::FNameEntry</text>
<polyline fill="none" stroke="black" points="202.5,-1378 301.5,-1378 "/>
<text text-anchor="start" x="210.5" y="-1366" font-family="Helvetica,sans-Serif" font-size="10.00">+ UnknownData00</text>
<text text-anchor="start" x="210.5" y="-1355" font-family="Helvetica,sans-Serif" font-size="10.00">+ name</text>
<polyline fill="none" stroke="black" points="202.5,-1348 301.5,-1348 "/>
<text text-anchor="start" x="210.5" y="-1336" font-family="Helvetica,sans-Serif" font-size="10.00">+ GetName()</text>
</a>
</g>
</g>
<!-- Node7&#45;&gt;Node6 -->
<g id="edge6" class="edge">
<title>Node7&#45;&gt;Node6</title>
<path fill="none" stroke="#404040" d="M248.25,-1328.7C247.01,-1308.74 247.17,-1283.04 253,-1261 254.13,-1256.73 255.51,-1252.45 257.07,-1248.19"/>
<polygon fill="none" stroke="#404040" points="257.09,-1248.14 255.65,-1241.07 261.62,-1237.03 263.06,-1244.09 257.09,-1248.14"/>
<text text-anchor="middle" x="267" y="-1264" font-family="Helvetica,sans-Serif" font-size="10.00"> &#45;Data</text>
</g>
<!-- Node8 -->
<g id="node8" class="node">
<title>Node8</title>
<g id="a_node8"><a xlink:href="../../d3/d79/classSDK_1_1TArray.html" target="_top" xlink:title=" ">
<polygon fill="white" stroke="black" points="380.5,-1290.5 380.5,-1435.5 477.5,-1435.5 477.5,-1290.5 380.5,-1290.5"/>
<text text-anchor="middle" x="429" y="-1423.5" font-family="Helvetica,sans-Serif" font-size="10.00">SDK::TArray&lt; T &gt;</text>
<polyline fill="none" stroke="black" points="380.5,-1416.5 477.5,-1416.5 "/>
<text text-anchor="start" x="388.5" y="-1404.5" font-family="Helvetica,sans-Serif" font-size="10.00">&#45; Data</text>
<text text-anchor="start" x="388.5" y="-1393.5" font-family="Helvetica,sans-Serif" font-size="10.00">&#45; Count</text>
<text text-anchor="start" x="388.5" y="-1382.5" font-family="Helvetica,sans-Serif" font-size="10.00">&#45; Max</text>
<polyline fill="none" stroke="black" points="380.5,-1375.5 477.5,-1375.5 "/>
<text text-anchor="start" x="388.5" y="-1363.5" font-family="Helvetica,sans-Serif" font-size="10.00">+ TArray()</text>
<text text-anchor="start" x="388.5" y="-1352.5" font-family="Helvetica,sans-Serif" font-size="10.00">+ Num()</text>
<text text-anchor="start" x="388.5" y="-1341.5" font-family="Helvetica,sans-Serif" font-size="10.00">+ operator[]()</text>
<text text-anchor="start" x="388.5" y="-1330.5" font-family="Helvetica,sans-Serif" font-size="10.00">+ operator[]()</text>
<text text-anchor="start" x="388.5" y="-1319.5" font-family="Helvetica,sans-Serif" font-size="10.00">+ IsValidIndex()</text>
<text text-anchor="start" x="388.5" y="-1308.5" font-family="Helvetica,sans-Serif" font-size="10.00">+ GetByIndex()</text>
<text text-anchor="start" x="388.5" y="-1297.5" font-family="Helvetica,sans-Serif" font-size="10.00">+ GetByIndex()</text>
</a>
</g>
</g>
<!-- Node8&#45;&gt;Node6 -->
<g id="edge7" class="edge">
<title>Node8&#45;&gt;Node6</title>
<path fill="none" stroke="orange" d="M371.32,-1335.85C345.83,-1321.03 318.42,-1299.82 304,-1272 298.47,-1261.34 295.83,-1249.15 294.93,-1237.01"/>
<polygon fill="orange" stroke="orange" points="369.79,-1339 380.23,-1340.83 373.21,-1332.89 369.79,-1339"/>
<text text-anchor="middle" x="359.5" y="-1264" font-family="Helvetica,sans-Serif" font-size="10.00"> &lt; SDK::FNameEntry * &gt;</text>
</g>
<!-- Node8&#45;&gt;Node9 -->
<g id="edge11" class="edge">
<title>Node8&#45;&gt;Node9</title>
<path fill="none" stroke="orange" d="M429,-1280.06C429,-1246.29 429,-1206.76 429,-1171 429,-1171 429,-1171 429,-664.5 429,-606.91 417.46,-542.44 406.94,-495.62"/>
<polygon fill="orange" stroke="orange" points="425.5,-1280.35 429,-1290.35 432.5,-1280.35 425.5,-1280.35"/>
<text text-anchor="middle" x="474.5" y="-985.5" font-family="Helvetica,sans-Serif" font-size="10.00"> &lt; SDK::UObject * &gt;</text>
</g>
<!-- Node16 -->
<g id="node16" class="node">
<title>Node16</title>
<g id="a_node16"><a xlink:href="../../d3/d79/classSDK_1_1TArray.html" target="_top" xlink:title=" ">
<polygon fill="white" stroke="black" points="471.5,-1097.5 471.5,-1242.5 596.5,-1242.5 596.5,-1097.5 471.5,-1097.5"/>
<text text-anchor="middle" x="534" y="-1230.5" font-family="Helvetica,sans-Serif" font-size="10.00">SDK::TArray&lt; wchar_t &gt;</text>
<polyline fill="none" stroke="black" points="471.5,-1223.5 596.5,-1223.5 "/>
<text text-anchor="start" x="479.5" y="-1211.5" font-family="Helvetica,sans-Serif" font-size="10.00">&#45; Data</text>
<text text-anchor="start" x="479.5" y="-1200.5" font-family="Helvetica,sans-Serif" font-size="10.00">&#45; Count</text>
<text text-anchor="start" x="479.5" y="-1189.5" font-family="Helvetica,sans-Serif" font-size="10.00">&#45; Max</text>
<polyline fill="none" stroke="black" points="471.5,-1182.5 596.5,-1182.5 "/>
<text text-anchor="start" x="479.5" y="-1170.5" font-family="Helvetica,sans-Serif" font-size="10.00">+ TArray()</text>
<text text-anchor="start" x="479.5" y="-1159.5" font-family="Helvetica,sans-Serif" font-size="10.00">+ Num()</text>
<text text-anchor="start" x="479.5" y="-1148.5" font-family="Helvetica,sans-Serif" font-size="10.00">+ operator[]()</text>
<text text-anchor="start" x="479.5" y="-1137.5" font-family="Helvetica,sans-Serif" font-size="10.00">+ operator[]()</text>
<text text-anchor="start" x="479.5" y="-1126.5" font-family="Helvetica,sans-Serif" font-size="10.00">+ IsValidIndex()</text>
<text text-anchor="start" x="479.5" y="-1115.5" font-family="Helvetica,sans-Serif" font-size="10.00">+ GetByIndex()</text>
<text text-anchor="start" x="479.5" y="-1104.5" font-family="Helvetica,sans-Serif" font-size="10.00">+ GetByIndex()</text>
</a>
</g>
</g>
<!-- Node8&#45;&gt;Node16 -->
<g id="edge23" class="edge">
<title>Node8&#45;&gt;Node16</title>
<path fill="none" stroke="orange" d="M473.25,-1281.5C480.33,-1268.63 487.61,-1255.39 494.56,-1242.75"/>
<polygon fill="orange" stroke="orange" points="470.15,-1279.89 468.4,-1290.34 476.28,-1283.26 470.15,-1279.89"/>
<text text-anchor="middle" x="509" y="-1264" font-family="Helvetica,sans-Serif" font-size="10.00"> &lt; wchar_t &gt;</text>
</g>
<!-- Node9&#45;&gt;Node3 -->
<g id="edge9" class="edge">
<title>Node9&#45;&gt;Node3</title>
<path fill="none" stroke="#404040" d="M336.82,-495.63C327.16,-507.63 316.8,-520.52 306.25,-533.63"/>
<polygon fill="none" stroke="#404040" points="306.07,-533.86 305.42,-541.05 298.54,-543.21 299.19,-536.03 306.07,-533.86"/>
<text text-anchor="middle" x="342.5" y="-517" font-family="Helvetica,sans-Serif" font-size="10.00"> +GObjects</text>
</g>
<!-- Node10 -->
<g id="node10" class="node">
<title>Node10</title>
<g id="a_node10"><a xlink:href="../../d9/dfa/structSDK_1_1FPointer.html" target="_top" xlink:title=" ">
<polygon fill="white" stroke="black" points="147,-954 147,-1022 245,-1022 245,-954 147,-954"/>
<text text-anchor="middle" x="196" y="-1010" font-family="Helvetica,sans-Serif" font-size="10.00">SDK::FPointer</text>
<polyline fill="none" stroke="black" points="147,-1003 245,-1003 "/>
<text text-anchor="start" x="155" y="-991" font-family="Helvetica,sans-Serif" font-size="10.00">+ Dummy</text>
<text text-anchor="start" x="155" y="-980" font-family="Helvetica,sans-Serif" font-size="10.00">+ UnknownData00</text>
<polyline fill="none" stroke="black" points="147,-973 245,-973 "/>
<text text-anchor="middle" x="196" y="-961" font-family="Helvetica,sans-Serif" font-size="10.00"> </text>
</a>
</g>
</g>
<!-- Node10&#45;&gt;Node3 -->
<g id="edge12" class="edge">
<title>Node10&#45;&gt;Node3</title>
<path fill="none" stroke="#404040" d="M196.52,-953.91C197.08,-917.48 198.03,-856.57 198.91,-800.19"/>
<polygon fill="none" stroke="#404040" points="198.92,-799.86 195.01,-793.8 199.11,-787.86 203.01,-793.92 198.92,-799.86"/>
<text text-anchor="middle" x="232.5" y="-865.5" font-family="Helvetica,sans-Serif" font-size="10.00"> +StateFrame</text>
<text text-anchor="middle" x="232.5" y="-854.5" font-family="Helvetica,sans-Serif" font-size="10.00">+VfTableObject</text>
<text text-anchor="middle" x="232.5" y="-843.5" font-family="Helvetica,sans-Serif" font-size="10.00">+LinkerIndex</text>
</g>
<!-- Node11&#45;&gt;Node3 -->
<g id="edge13" class="edge">
<title>Node11&#45;&gt;Node3</title>
<path fill="none" stroke="#404040" d="M131,-90.72C131,-110.67 131,-134.52 131,-156 131,-429.5 131,-429.5 131,-429.5 131,-463.39 137.77,-498.93 147.1,-531.82"/>
<polygon fill="none" stroke="#404040" points="147.1,-531.82 152.64,-536.44 150.5,-543.33 144.96,-538.71 147.1,-531.82"/>
<text text-anchor="middle" x="148.5" y="-260.5" font-family="Helvetica,sans-Serif" font-size="10.00"> +Class</text>
</g>
<!-- Node12 -->
<g id="node12" class="node">
<title>Node12</title>
<g id="a_node12"><a xlink:href="../../df/d72/classSDK_1_1UState.html" target="_top" xlink:title=" ">
<polygon fill="white" stroke="black" points="171,-128.5 171,-185.5 269,-185.5 269,-128.5 171,-128.5"/>
<text text-anchor="middle" x="220" y="-173.5" font-family="Helvetica,sans-Serif" font-size="10.00">SDK::UState</text>
<polyline fill="none" stroke="black" points="171,-166.5 269,-166.5 "/>
<text text-anchor="start" x="179" y="-154.5" font-family="Helvetica,sans-Serif" font-size="10.00">+ UnknownData00</text>
<polyline fill="none" stroke="black" points="171,-147.5 269,-147.5 "/>
<text text-anchor="start" x="179" y="-135.5" font-family="Helvetica,sans-Serif" font-size="10.00">+ StaticClass()</text>
</a>
</g>
</g>
<!-- Node12&#45;&gt;Node11 -->
<g id="edge14" class="edge">
<title>Node12&#45;&gt;Node11</title>
<path fill="none" stroke="midnightblue" d="M191.01,-120.33C183.33,-110.89 174.95,-100.58 166.96,-90.74"/>
<polygon fill="none" stroke="midnightblue" points="188.52,-122.82 197.54,-128.37 193.95,-118.4 188.52,-122.82"/>
</g>
<!-- Node13 -->
<g id="node13" class="node">
<title>Node13</title>
<g id="a_node13"><a xlink:href="../../d8/de9/classSDK_1_1UStruct.html" target="_top" xlink:title=" ">
<polygon fill="white" stroke="black" points="184,-223.5 184,-302.5 282,-302.5 282,-223.5 184,-223.5"/>
<text text-anchor="middle" x="233" y="-290.5" font-family="Helvetica,sans-Serif" font-size="10.00">SDK::UStruct</text>
<polyline fill="none" stroke="black" points="184,-283.5 282,-283.5 "/>
<text text-anchor="start" x="192" y="-271.5" font-family="Helvetica,sans-Serif" font-size="10.00">+ UnknownData00</text>
<text text-anchor="start" x="192" y="-260.5" font-family="Helvetica,sans-Serif" font-size="10.00">+ PropertySize</text>
<text text-anchor="start" x="192" y="-249.5" font-family="Helvetica,sans-Serif" font-size="10.00">+ UnknownData01</text>
<polyline fill="none" stroke="black" points="184,-242.5 282,-242.5 "/>
<text text-anchor="start" x="192" y="-230.5" font-family="Helvetica,sans-Serif" font-size="10.00">+ StaticClass()</text>
</a>
</g>
</g>
<!-- Node13&#45;&gt;Node12 -->
<g id="edge15" class="edge">
<title>Node13&#45;&gt;Node12</title>
<path fill="none" stroke="midnightblue" d="M226.9,-213.16C225.72,-203.74 224.52,-194.17 223.46,-185.72"/>
<polygon fill="none" stroke="midnightblue" points="223.45,-213.79 228.16,-223.27 230.39,-212.92 223.45,-213.79"/>
</g>
<!-- Node14&#45;&gt;Node13 -->
<g id="edge16" class="edge">
<title>Node14&#45;&gt;Node13</title>
<path fill="none" stroke="midnightblue" d="M221.53,-390.88C228.54,-376.43 235.49,-359.38 239,-343 241.77,-330.09 241.62,-315.75 240.35,-302.87"/>
<polygon fill="none" stroke="midnightblue" points="218.33,-389.46 216.96,-399.97 224.58,-392.61 218.33,-389.46"/>
</g>
<!-- Node14&#45;&gt;Node13 -->
<g id="edge19" class="edge">
<title>Node14&#45;&gt;Node13</title>
<path fill="none" stroke="#404040" d="M186.65,-399.59C177.39,-377.65 168.8,-346.61 179,-321 180.09,-318.28 181.37,-315.61 182.81,-313"/>
<polygon fill="none" stroke="#404040" points="182.98,-312.75 182.9,-305.54 189.53,-302.69 189.6,-309.9 182.98,-312.75"/>
<text text-anchor="middle" x="207" y="-335" font-family="Helvetica,sans-Serif" font-size="10.00"> +SuperField</text>
<text text-anchor="middle" x="207" y="-324" font-family="Helvetica,sans-Serif" font-size="10.00">+Children</text>
</g>
<!-- Node14&#45;&gt;Node14 -->
<g id="edge18" class="edge">
<title>Node14&#45;&gt;Node14</title>
<path fill="none" stroke="#404040" d="M242.71,-445.11C252.91,-443.88 260.5,-438.34 260.5,-428.5 260.5,-422.96 258.1,-418.79 254.18,-415.98"/>
<polygon fill="none" stroke="#404040" points="254.01,-415.92 247.01,-417.67 242.71,-411.89 249.7,-410.13 254.01,-415.92"/>
<text text-anchor="middle" x="276" y="-426" font-family="Helvetica,sans-Serif" font-size="10.00"> +Next</text>
</g>
<!-- Node15 -->
<g id="node15" class="node">
<title>Node15</title>
<g id="a_node15"><a xlink:href="../../d3/d88/classSDK_1_1FString.html" target="_top" xlink:title=" ">
<polygon fill="white" stroke="black" points="510.5,-806.5 510.5,-907.5 585.5,-907.5 585.5,-806.5 510.5,-806.5"/>
<text text-anchor="middle" x="548" y="-895.5" font-family="Helvetica,sans-Serif" font-size="10.00">SDK::FString</text>
<polyline fill="none" stroke="black" points="510.5,-888.5 585.5,-888.5 "/>
<text text-anchor="middle" x="548" y="-876.5" font-family="Helvetica,sans-Serif" font-size="10.00"> </text>
<polyline fill="none" stroke="black" points="510.5,-869.5 585.5,-869.5 "/>
<text text-anchor="start" x="518.5" y="-857.5" font-family="Helvetica,sans-Serif" font-size="10.00">+ FString()</text>
<text text-anchor="start" x="518.5" y="-846.5" font-family="Helvetica,sans-Serif" font-size="10.00">+ FString()</text>
<text text-anchor="start" x="518.5" y="-835.5" font-family="Helvetica,sans-Serif" font-size="10.00">+ IsValid()</text>
<text text-anchor="start" x="518.5" y="-824.5" font-family="Helvetica,sans-Serif" font-size="10.00">+ c_str()</text>
<text text-anchor="start" x="518.5" y="-813.5" font-family="Helvetica,sans-Serif" font-size="10.00">+ ToString()</text>
</a>
</g>
</g>
<!-- Node15&#45;&gt;Node2 -->
<g id="edge21" class="edge">
<title>Node15&#45;&gt;Node2</title>
<path fill="none" stroke="#404040" d="M548,-806.24C548,-726.32 548,-569.82 548,-485.88"/>
<polygon fill="none" stroke="#404040" points="548,-485.8 544,-479.8 548,-473.8 552,-479.8 548,-485.8"/>
<text text-anchor="middle" x="564.5" y="-663" font-family="Helvetica,sans-Serif" font-size="10.00"> +Desc</text>
</g>
<!-- Node16&#45;&gt;Node15 -->
<g id="edge22" class="edge">
<title>Node16&#45;&gt;Node15</title>
<path fill="none" stroke="midnightblue" d="M537.68,-1087.18C540.25,-1030.13 543.59,-955.87 545.77,-907.58"/>
<polygon fill="none" stroke="midnightblue" points="534.18,-1087.11 537.23,-1097.26 541.18,-1087.43 534.18,-1087.11"/>
</g>
</g>
</svg>
