<?xml version="1.0" encoding="UTF-8" standalone="no"?>
<!DOCTYPE svg PUBLIC "-//W3C//DTD SVG 1.1//EN"
 "http://www.w3.org/Graphics/SVG/1.1/DTD/svg11.dtd">
<!-- Generated by graphviz version 2.41.20171026.1811 (20171026.1811)
 -->
<!-- Title: SDK/LA_Engine_structs.hpp Pages: 1 -->
<svg width="876pt" height="386pt"
 viewBox="0.00 0.00 876.07 386.00" xmlns="http://www.w3.org/2000/svg" xmlns:xlink="http://www.w3.org/1999/xlink">
<g id="graph0" class="graph" transform="scale(1 1) rotate(0) translate(4 382)">
<title>SDK/LA_Engine_structs.hpp</title>
<polygon fill="white" stroke="transparent" points="-4,4 -4,-382 872.07,-382 872.07,4 -4,4"/>
<!-- Node1 -->
<g id="node1" class="node">
<title>Node1</title>
<g id="a_node1"><a xlink:title=" ">
<polygon fill="#bfbfbf" stroke="black" points="305.57,-358.5 305.57,-377.5 447.57,-377.5 447.57,-358.5 305.57,-358.5"/>
<text text-anchor="middle" x="376.57" y="-365.5" font-family="Helvetica,sans-Serif" font-size="10.00">SDK/LA_Engine_structs.hpp</text>
</a>
</g>
</g>
<!-- Node2 -->
<g id="node2" class="node">
<title>Node2</title>
<g id="a_node2"><a xlink:href="../../d8/db4/LA__Engine__classes_8hpp.html" target="_top" xlink:title=" ">
<polygon fill="white" stroke="black" points="303.57,-302.5 303.57,-321.5 449.57,-321.5 449.57,-302.5 303.57,-302.5"/>
<text text-anchor="middle" x="376.57" y="-309.5" font-family="Helvetica,sans-Serif" font-size="10.00">SDK/LA_Engine_classes.hpp</text>
</a>
</g>
</g>
<!-- Node1&#45;&gt;Node2 -->
<g id="edge1" class="edge">
<title>Node1&#45;&gt;Node2</title>
<path fill="none" stroke="midnightblue" d="M376.57,-347.8C376.57,-338.91 376.57,-328.78 376.57,-321.75"/>
<polygon fill="midnightblue" stroke="midnightblue" points="373.07,-348.08 376.57,-358.08 380.07,-348.08 373.07,-348.08"/>
</g>
<!-- Node3 -->
<g id="node3" class="node">
<title>Node3</title>
<g id="a_node3"><a xlink:href="../../d1/dff/LA__AkAudio__structs_8hpp.html" target="_top" xlink:title=" ">
<polygon fill="white" stroke="black" points="33.07,-241 33.07,-260 182.07,-260 182.07,-241 33.07,-241"/>
<text text-anchor="middle" x="107.57" y="-248" font-family="Helvetica,sans-Serif" font-size="10.00">SDK/LA_AkAudio_structs.hpp</text>
</a>
</g>
</g>
<!-- Node2&#45;&gt;Node3 -->
<g id="edge2" class="edge">
<title>Node2&#45;&gt;Node3</title>
<path fill="none" stroke="midnightblue" d="M328.01,-300.26C275.82,-288.72 193.95,-270.61 146.04,-260.01"/>
<polygon fill="midnightblue" stroke="midnightblue" points="327.51,-303.73 338.03,-302.48 329.02,-296.9 327.51,-303.73"/>
</g>
<!-- Node5 -->
<g id="node5" class="node">
<title>Node5</title>
<g id="a_node5"><a xlink:href="../../de/d8d/LA__EFGame__structs_8hpp.html" target="_top" xlink:title=" ">
<polygon fill="white" stroke="black" points="301.07,-112.5 301.07,-131.5 452.07,-131.5 452.07,-112.5 301.07,-112.5"/>
<text text-anchor="middle" x="376.57" y="-119.5" font-family="Helvetica,sans-Serif" font-size="10.00">SDK/LA_EFGame_structs.hpp</text>
</a>
</g>
</g>
<!-- Node2&#45;&gt;Node5 -->
<g id="edge20" class="edge">
<title>Node2&#45;&gt;Node5</title>
<path fill="none" stroke="midnightblue" d="M376.57,-292.24C376.57,-252.31 376.57,-160.2 376.57,-131.62"/>
<polygon fill="midnightblue" stroke="midnightblue" points="373.07,-292.43 376.57,-302.43 380.07,-292.43 373.07,-292.43"/>
</g>
<!-- Node7 -->
<g id="node7" class="node">
<title>Node7</title>
<g id="a_node7"><a xlink:href="../../d8/d98/SDK_8hpp.html" target="_top" xlink:title=" ">
<polygon fill="white" stroke="black" points="348.57,-0.5 348.57,-19.5 404.57,-19.5 404.57,-0.5 348.57,-0.5"/>
<text text-anchor="middle" x="376.57" y="-7.5" font-family="Helvetica,sans-Serif" font-size="10.00">SDK.hpp</text>
</a>
</g>
</g>
<!-- Node2&#45;&gt;Node7 -->
<g id="edge24" class="edge">
<title>Node2&#45;&gt;Node7</title>
<path fill="none" stroke="midnightblue" d="M293.11,-310.77C201.61,-308.77 62.57,-299.99 23.57,-266 -4.71,-241.35 1.57,-222.02 1.57,-184.5 1.57,-184.5 1.57,-184.5 1.57,-121 1.57,-48.74 261.17,-20.58 348.38,-13.15"/>
<polygon fill="midnightblue" stroke="midnightblue" points="293.13,-314.27 303.2,-310.97 293.27,-307.28 293.13,-314.27"/>
</g>
<!-- Node8 -->
<g id="node8" class="node">
<title>Node8</title>
<g id="a_node8"><a xlink:href="../../d6/d1d/LA__WinDrv__structs_8hpp.html" target="_top" xlink:title=" ">
<polygon fill="white" stroke="black" points="203.07,-241 203.07,-260 348.07,-260 348.07,-241 203.07,-241"/>
<text text-anchor="middle" x="275.57" y="-248" font-family="Helvetica,sans-Serif" font-size="10.00">SDK/LA_WinDrv_structs.hpp</text>
</a>
</g>
</g>
<!-- Node2&#45;&gt;Node8 -->
<g id="edge8" class="edge">
<title>Node2&#45;&gt;Node8</title>
<path fill="none" stroke="midnightblue" d="M353.22,-297.24C333.71,-285.75 306.5,-269.72 290.01,-260.01"/>
<polygon fill="midnightblue" stroke="midnightblue" points="351.71,-300.41 362.1,-302.48 355.26,-294.38 351.71,-300.41"/>
</g>
<!-- Node10 -->
<g id="node10" class="node">
<title>Node10</title>
<g id="a_node10"><a xlink:href="../../d7/d34/LA__GameFramework__structs_8hpp.html" target="_top" xlink:title=" ">
<polygon fill="white" stroke="black" points="405.07,-235.5 405.07,-265.5 538.07,-265.5 538.07,-235.5 405.07,-235.5"/>
<text text-anchor="start" x="413.07" y="-253.5" font-family="Helvetica,sans-Serif" font-size="10.00">SDK/LA_GameFramework</text>
<text text-anchor="middle" x="471.57" y="-242.5" font-family="Helvetica,sans-Serif" font-size="10.00">_structs.hpp</text>
</a>
</g>
</g>
<!-- Node2&#45;&gt;Node10 -->
<g id="edge12" class="edge">
<title>Node2&#45;&gt;Node10</title>
<path fill="none" stroke="midnightblue" d="M398.91,-297.01C414.06,-287.52 434.02,-275.02 449.18,-265.52"/>
<polygon fill="midnightblue" stroke="midnightblue" points="396.8,-294.2 390.18,-302.48 400.51,-300.13 396.8,-294.2"/>
</g>
<!-- Node12 -->
<g id="node12" class="node">
<title>Node12</title>
<g id="a_node12"><a xlink:href="../../d7/d16/LA__GFxUI__structs_8hpp.html" target="_top" xlink:title=" ">
<polygon fill="white" stroke="black" points="557.07,-241 557.07,-260 698.07,-260 698.07,-241 557.07,-241"/>
<text text-anchor="middle" x="627.57" y="-248" font-family="Helvetica,sans-Serif" font-size="10.00">SDK/LA_GFxUI_structs.hpp</text>
</a>
</g>
</g>
<!-- Node2&#45;&gt;Node12 -->
<g id="edge16" class="edge">
<title>Node2&#45;&gt;Node12</title>
<path fill="none" stroke="midnightblue" d="M422.49,-300.11C471.21,-288.57 547.16,-270.56 591.67,-260.01"/>
<polygon fill="midnightblue" stroke="midnightblue" points="421.46,-296.76 412.53,-302.48 423.07,-303.57 421.46,-296.76"/>
</g>
<!-- Node14 -->
<g id="node14" class="node">
<title>Node14</title>
<g id="a_node14"><a xlink:href="../../d4/de1/LA__XAudio2__structs_8hpp.html" target="_top" xlink:title=" ">
<polygon fill="white" stroke="black" points="719.07,-174 719.07,-193 868.07,-193 868.07,-174 719.07,-174"/>
<text text-anchor="middle" x="793.57" y="-181" font-family="Helvetica,sans-Serif" font-size="10.00">SDK/LA_XAudio2_structs.hpp</text>
</a>
</g>
</g>
<!-- Node2&#45;&gt;Node14 -->
<g id="edge21" class="edge">
<title>Node2&#45;&gt;Node14</title>
<path fill="none" stroke="midnightblue" d="M459.82,-305.52C543.2,-299 665.08,-286.36 707.57,-266 743.74,-248.67 774.71,-210.45 787.41,-193.22"/>
<polygon fill="midnightblue" stroke="midnightblue" points="459.29,-302.05 449.59,-306.31 459.83,-309.03 459.29,-302.05"/>
</g>
<!-- Node4 -->
<g id="node4" class="node">
<title>Node4</title>
<g id="a_node4"><a xlink:href="../../d8/d17/LA__AkAudio__classes_8hpp.html" target="_top" xlink:title=" ">
<polygon fill="white" stroke="black" points="29.57,-174 29.57,-193 181.57,-193 181.57,-174 29.57,-174"/>
<text text-anchor="middle" x="105.57" y="-181" font-family="Helvetica,sans-Serif" font-size="10.00">SDK/LA_AkAudio_classes.hpp</text>
</a>
</g>
</g>
<!-- Node3&#45;&gt;Node4 -->
<g id="edge3" class="edge">
<title>Node3&#45;&gt;Node4</title>
<path fill="none" stroke="midnightblue" d="M106.99,-230.54C106.61,-218.17 106.13,-202.62 105.84,-193.13"/>
<polygon fill="midnightblue" stroke="midnightblue" points="103.49,-230.85 107.3,-240.73 110.49,-230.63 103.49,-230.85"/>
</g>
<!-- Node4&#45;&gt;Node5 -->
<g id="edge4" class="edge">
<title>Node4&#45;&gt;Node5</title>
<path fill="none" stroke="midnightblue" d="M154.17,-171.83C206.72,-160.29 289.45,-142.13 337.81,-131.51"/>
<polygon fill="midnightblue" stroke="midnightblue" points="153.41,-168.41 144.4,-173.98 154.92,-175.25 153.41,-168.41"/>
</g>
<!-- Node4&#45;&gt;Node7 -->
<g id="edge7" class="edge">
<title>Node4&#45;&gt;Node7</title>
<path fill="none" stroke="midnightblue" d="M123.22,-167.29C153.14,-142 216.33,-90.67 275.57,-56 301.09,-41.07 332.45,-27.82 353.4,-19.63"/>
<polygon fill="midnightblue" stroke="midnightblue" points="120.72,-164.82 115.37,-173.97 125.26,-170.15 120.72,-164.82"/>
</g>
<!-- Node6 -->
<g id="node6" class="node">
<title>Node6</title>
<g id="a_node6"><a xlink:href="../../d7/d36/LA__EFGame__classes_8hpp.html" target="_top" xlink:title=" ">
<polygon fill="white" stroke="black" points="299.07,-56.5 299.07,-75.5 454.07,-75.5 454.07,-56.5 299.07,-56.5"/>
<text text-anchor="middle" x="376.57" y="-63.5" font-family="Helvetica,sans-Serif" font-size="10.00">SDK/LA_EFGame_classes.hpp</text>
</a>
</g>
</g>
<!-- Node5&#45;&gt;Node6 -->
<g id="edge5" class="edge">
<title>Node5&#45;&gt;Node6</title>
<path fill="none" stroke="midnightblue" d="M376.57,-101.8C376.57,-92.91 376.57,-82.78 376.57,-75.75"/>
<polygon fill="midnightblue" stroke="midnightblue" points="373.07,-102.08 376.57,-112.08 380.07,-102.08 373.07,-102.08"/>
</g>
<!-- Node6&#45;&gt;Node7 -->
<g id="edge6" class="edge">
<title>Node6&#45;&gt;Node7</title>
<path fill="none" stroke="midnightblue" d="M376.57,-45.8C376.57,-36.91 376.57,-26.78 376.57,-19.75"/>
<polygon fill="midnightblue" stroke="midnightblue" points="373.07,-46.08 376.57,-56.08 380.07,-46.08 373.07,-46.08"/>
</g>
<!-- Node9 -->
<g id="node9" class="node">
<title>Node9</title>
<g id="a_node9"><a xlink:href="../../dc/dbe/LA__WinDrv__classes_8hpp.html" target="_top" xlink:title=" ">
<polygon fill="white" stroke="black" points="200.07,-174 200.07,-193 349.07,-193 349.07,-174 200.07,-174"/>
<text text-anchor="middle" x="274.57" y="-181" font-family="Helvetica,sans-Serif" font-size="10.00">SDK/LA_WinDrv_classes.hpp</text>
</a>
</g>
</g>
<!-- Node8&#45;&gt;Node9 -->
<g id="edge9" class="edge">
<title>Node8&#45;&gt;Node9</title>
<path fill="none" stroke="midnightblue" d="M275.28,-230.54C275.09,-218.17 274.85,-202.62 274.7,-193.13"/>
<polygon fill="midnightblue" stroke="midnightblue" points="271.78,-230.79 275.44,-240.73 278.78,-230.68 271.78,-230.79"/>
</g>
<!-- Node9&#45;&gt;Node5 -->
<g id="edge10" class="edge">
<title>Node9&#45;&gt;Node5</title>
<path fill="none" stroke="midnightblue" d="M297.88,-168.9C317.61,-157.4 345.26,-141.27 361.98,-131.51"/>
<polygon fill="midnightblue" stroke="midnightblue" points="296.06,-165.91 289.18,-173.98 299.59,-171.96 296.06,-165.91"/>
</g>
<!-- Node9&#45;&gt;Node7 -->
<g id="edge11" class="edge">
<title>Node9&#45;&gt;Node7</title>
<path fill="none" stroke="midnightblue" d="M271.89,-163.69C269.14,-137.19 268.01,-88.46 290.57,-56 304.13,-36.49 328.84,-24.82 348.31,-18.27"/>
<polygon fill="midnightblue" stroke="midnightblue" points="268.44,-164.38 273.14,-173.88 275.39,-163.52 268.44,-164.38"/>
</g>
<!-- Node11 -->
<g id="node11" class="node">
<title>Node11</title>
<g id="a_node11"><a xlink:href="../../d0/d23/LA__GameFramework__classes_8hpp.html" target="_top" xlink:title=" ">
<polygon fill="white" stroke="black" points="405.07,-168.5 405.07,-198.5 538.07,-198.5 538.07,-168.5 405.07,-168.5"/>
<text text-anchor="start" x="413.07" y="-186.5" font-family="Helvetica,sans-Serif" font-size="10.00">SDK/LA_GameFramework</text>
<text text-anchor="middle" x="471.57" y="-175.5" font-family="Helvetica,sans-Serif" font-size="10.00">_classes.hpp</text>
</a>
</g>
</g>
<!-- Node10&#45;&gt;Node11 -->
<g id="edge13" class="edge">
<title>Node10&#45;&gt;Node11</title>
<path fill="none" stroke="midnightblue" d="M471.57,-225.11C471.57,-216.15 471.57,-206.32 471.57,-198.58"/>
<polygon fill="midnightblue" stroke="midnightblue" points="468.07,-225.4 471.57,-235.4 475.07,-225.4 468.07,-225.4"/>
</g>
<!-- Node11&#45;&gt;Node5 -->
<g id="edge14" class="edge">
<title>Node11&#45;&gt;Node5</title>
<path fill="none" stroke="midnightblue" d="M440.55,-163.07C423.61,-152.46 403.49,-139.86 390.39,-131.66"/>
<polygon fill="midnightblue" stroke="midnightblue" points="438.72,-166.06 449.06,-168.4 442.44,-160.13 438.72,-166.06"/>
</g>
<!-- Node11&#45;&gt;Node7 -->
<g id="edge15" class="edge">
<title>Node11&#45;&gt;Node7</title>
<path fill="none" stroke="midnightblue" d="M476.64,-158.35C480.95,-131.15 483.64,-86.75 463.57,-56 450.28,-35.64 424.69,-23.98 404.69,-17.66"/>
<polygon fill="midnightblue" stroke="midnightblue" points="473.19,-157.74 474.88,-168.2 480.08,-158.97 473.19,-157.74"/>
</g>
<!-- Node13 -->
<g id="node13" class="node">
<title>Node13</title>
<g id="a_node13"><a xlink:href="../../dc/d61/LA__GFxUI__classes_8hpp.html" target="_top" xlink:title=" ">
<polygon fill="white" stroke="black" points="556.07,-174 556.07,-193 701.07,-193 701.07,-174 556.07,-174"/>
<text text-anchor="middle" x="628.57" y="-181" font-family="Helvetica,sans-Serif" font-size="10.00">SDK/LA_GFxUI_classes.hpp</text>
</a>
</g>
</g>
<!-- Node12&#45;&gt;Node13 -->
<g id="edge17" class="edge">
<title>Node12&#45;&gt;Node13</title>
<path fill="none" stroke="midnightblue" d="M627.86,-230.54C628.05,-218.17 628.29,-202.62 628.44,-193.13"/>
<polygon fill="midnightblue" stroke="midnightblue" points="624.36,-230.68 627.71,-240.73 631.36,-230.79 624.36,-230.68"/>
</g>
<!-- Node13&#45;&gt;Node5 -->
<g id="edge18" class="edge">
<title>Node13&#45;&gt;Node5</title>
<path fill="none" stroke="midnightblue" d="M582.46,-171.61C533.55,-160.07 457.3,-142.06 412.61,-131.51"/>
<polygon fill="midnightblue" stroke="midnightblue" points="581.93,-175.08 592.46,-173.98 583.54,-168.27 581.93,-175.08"/>
</g>
<!-- Node13&#45;&gt;Node7 -->
<g id="edge19" class="edge">
<title>Node13&#45;&gt;Node7</title>
<path fill="none" stroke="midnightblue" d="M613.11,-166.31C587.64,-140.34 534.41,-88.96 481.57,-56 456.16,-40.15 424.2,-27.34 402.25,-19.5"/>
<polygon fill="midnightblue" stroke="midnightblue" points="610.89,-169.05 620.37,-173.79 615.92,-164.17 610.89,-169.05"/>
</g>
<!-- Node15 -->
<g id="node15" class="node">
<title>Node15</title>
<g id="a_node15"><a xlink:href="../../d9/d85/LA__XAudio2__classes_8hpp.html" target="_top" xlink:title=" ">
<polygon fill="white" stroke="black" points="659.57,-112.5 659.57,-131.5 811.57,-131.5 811.57,-112.5 659.57,-112.5"/>
<text text-anchor="middle" x="735.57" y="-119.5" font-family="Helvetica,sans-Serif" font-size="10.00">SDK/LA_XAudio2_classes.hpp</text>
</a>
</g>
</g>
<!-- Node14&#45;&gt;Node15 -->
<g id="edge22" class="edge">
<title>Node14&#45;&gt;Node15</title>
<path fill="none" stroke="midnightblue" d="M777.97,-166.5C766.99,-155.24 752.73,-140.6 743.86,-131.51"/>
<polygon fill="midnightblue" stroke="midnightblue" points="775.77,-169.26 785.26,-173.98 780.79,-164.37 775.77,-169.26"/>
</g>
<!-- Node15&#45;&gt;Node7 -->
<g id="edge23" class="edge">
<title>Node15&#45;&gt;Node7</title>
<path fill="none" stroke="midnightblue" d="M710.29,-107.89C681.49,-93.41 632.7,-70.27 588.57,-56 524.31,-35.22 445.94,-21.46 404.83,-15.09"/>
<polygon fill="midnightblue" stroke="midnightblue" points="708.75,-111.03 719.26,-112.44 711.92,-104.79 708.75,-111.03"/>
</g>
</g>
</svg>
