<?xml version="1.0" encoding="UTF-8" standalone="no"?>
<!DOCTYPE svg PUBLIC "-//W3C//DTD SVG 1.1//EN"
 "http://www.w3.org/Graphics/SVG/1.1/DTD/svg11.dtd">
<!-- Generated by graphviz version 2.41.20171026.1811 (20171026.1811)
 -->
<!-- Title: SDK::UInterpTrackInstToggle Pages: 1 -->
<svg width="811pt" height="1364pt"
 viewBox="0.00 0.00 811.00 1364.00" xmlns="http://www.w3.org/2000/svg" xmlns:xlink="http://www.w3.org/1999/xlink">
<g id="graph0" class="graph" transform="scale(1 1) rotate(0) translate(4 1360)">
<title>SDK::UInterpTrackInstToggle</title>
<polygon fill="white" stroke="transparent" points="-4,4 -4,-1360 807,-1360 807,4 -4,4"/>
<!-- Node1 -->
<g id="node1" class="node">
<title>Node1</title>
<g id="a_node1"><a xlink:title=" ">
<polygon fill="#bfbfbf" stroke="black" points="125,-223.5 125,-302.5 271,-302.5 271,-223.5 125,-223.5"/>
<text text-anchor="middle" x="198" y="-290.5" font-family="Helvetica,sans-Serif" font-size="10.00">SDK::UInterpTrackInstToggle</text>
<polyline fill="none" stroke="black" points="125,-283.5 271,-283.5 "/>
<text text-anchor="start" x="133" y="-271.5" font-family="Helvetica,sans-Serif" font-size="10.00">+ UnknownData00</text>
<text text-anchor="start" x="133" y="-260.5" font-family="Helvetica,sans-Serif" font-size="10.00">+ LastUpdatePosition</text>
<text text-anchor="start" x="133" y="-249.5" font-family="Helvetica,sans-Serif" font-size="10.00">+ bSavedActiveState</text>
<polyline fill="none" stroke="black" points="125,-242.5 271,-242.5 "/>
<text text-anchor="start" x="133" y="-230.5" font-family="Helvetica,sans-Serif" font-size="10.00">+ StaticClass()</text>
</a>
</g>
</g>
<!-- Node2 -->
<g id="node2" class="node">
<title>Node2</title>
<g id="a_node2"><a xlink:href="../../d8/d3d/classSDK_1_1UInterpTrackInst.html" target="_top" xlink:title=" ">
<polygon fill="white" stroke="black" points="176.5,-400 176.5,-457 293.5,-457 293.5,-400 176.5,-400"/>
<text text-anchor="middle" x="235" y="-445" font-family="Helvetica,sans-Serif" font-size="10.00">SDK::UInterpTrackInst</text>
<polyline fill="none" stroke="black" points="176.5,-438 293.5,-438 "/>
<text text-anchor="middle" x="235" y="-426" font-family="Helvetica,sans-Serif" font-size="10.00"> </text>
<polyline fill="none" stroke="black" points="176.5,-419 293.5,-419 "/>
<text text-anchor="start" x="184.5" y="-407" font-family="Helvetica,sans-Serif" font-size="10.00">+ StaticClass()</text>
</a>
</g>
</g>
<!-- Node2&#45;&gt;Node1 -->
<g id="edge1" class="edge">
<title>Node2&#45;&gt;Node1</title>
<path fill="none" stroke="midnightblue" d="M226.48,-389.85C220.56,-363.7 212.7,-328.97 206.74,-302.62"/>
<polygon fill="none" stroke="midnightblue" points="223.1,-390.78 228.72,-399.76 229.93,-389.24 223.1,-390.78"/>
</g>
<!-- Node3 -->
<g id="node3" class="node">
<title>Node3</title>
<g id="a_node3"><a xlink:href="../../d9/d45/classSDK_1_1UObject.html" target="_top" xlink:title=" ">
<polygon fill="white" stroke="black" points="389,-543.5 389,-787.5 587,-787.5 587,-543.5 389,-543.5"/>
<text text-anchor="middle" x="488" y="-775.5" font-family="Helvetica,sans-Serif" font-size="10.00">SDK::UObject</text>
<polyline fill="none" stroke="black" points="389,-768.5 587,-768.5 "/>
<text text-anchor="start" x="397" y="-756.5" font-family="Helvetica,sans-Serif" font-size="10.00">+ ObjectInternalInteger</text>
<text text-anchor="start" x="397" y="-745.5" font-family="Helvetica,sans-Serif" font-size="10.00">+ NetIndex</text>
<polyline fill="none" stroke="black" points="389,-738.5 587,-738.5 "/>
<text text-anchor="start" x="397" y="-726.5" font-family="Helvetica,sans-Serif" font-size="10.00">+ UObject::GetName()</text>
<text text-anchor="start" x="397" y="-715.5" font-family="Helvetica,sans-Serif" font-size="10.00">+ GetFullName()</text>
<text text-anchor="start" x="397" y="-704.5" font-family="Helvetica,sans-Serif" font-size="10.00">+ IsA()</text>
<text text-anchor="start" x="397" y="-693.5" font-family="Helvetica,sans-Serif" font-size="10.00">+ ProcessEvent()</text>
<text text-anchor="start" x="397" y="-682.5" font-family="Helvetica,sans-Serif" font-size="10.00">+ STATIC_ProfNodeEvent()</text>
<text text-anchor="start" x="397" y="-671.5" font-family="Helvetica,sans-Serif" font-size="10.00">+ STATIC_ProfNodeSetDepthThreshold()</text>
<text text-anchor="start" x="397" y="-660.5" font-family="Helvetica,sans-Serif" font-size="10.00">+ STATIC_ProfNodeSetTimeThreshold</text>
<text text-anchor="start" x="397" y="-649.5" font-family="Helvetica,sans-Serif" font-size="10.00">Seconds()</text>
<text text-anchor="start" x="397" y="-638.5" font-family="Helvetica,sans-Serif" font-size="10.00">+ STATIC_ProfNodeStop()</text>
<text text-anchor="start" x="397" y="-627.5" font-family="Helvetica,sans-Serif" font-size="10.00">+ STATIC_ProfNodeStart()</text>
<text text-anchor="start" x="397" y="-616.5" font-family="Helvetica,sans-Serif" font-size="10.00">+ STATIC_GetStringFromGuid()</text>
<text text-anchor="start" x="397" y="-605.5" font-family="Helvetica,sans-Serif" font-size="10.00">and 298 more...</text>
<text text-anchor="start" x="397" y="-594.5" font-family="Helvetica,sans-Serif" font-size="10.00">+ GetGlobalObjects()</text>
<text text-anchor="start" x="397" y="-583.5" font-family="Helvetica,sans-Serif" font-size="10.00">+ FindObject()</text>
<text text-anchor="start" x="397" y="-572.5" font-family="Helvetica,sans-Serif" font-size="10.00">+ FindClass()</text>
<text text-anchor="start" x="397" y="-561.5" font-family="Helvetica,sans-Serif" font-size="10.00">+ GetObjectCasted()</text>
<text text-anchor="start" x="397" y="-550.5" font-family="Helvetica,sans-Serif" font-size="10.00">+ StaticClass()</text>
</a>
</g>
</g>
<!-- Node3&#45;&gt;Node2 -->
<g id="edge2" class="edge">
<title>Node3&#45;&gt;Node2</title>
<path fill="none" stroke="midnightblue" d="M380.8,-588.73C355.84,-569.15 330.13,-547.27 308,-525 287.26,-504.12 267.22,-477.27 253.4,-457.36"/>
<polygon fill="none" stroke="midnightblue" points="378.82,-591.63 388.86,-595.01 383.12,-586.11 378.82,-591.63"/>
</g>
<!-- Node3&#45;&gt;Node3 -->
<g id="edge8" class="edge">
<title>Node3&#45;&gt;Node3</title>
<path fill="none" stroke="#404040" d="M587.01,-688.53C597.94,-684.15 605,-676.48 605,-665.5 605,-658.64 602.24,-653.07 597.51,-648.78"/>
<polygon fill="none" stroke="#404040" points="597.3,-648.66 590.09,-648.99 587.01,-642.47 594.22,-642.14 597.3,-648.66"/>
<text text-anchor="middle" x="644.5" y="-674" font-family="Helvetica,sans-Serif" font-size="10.00"> +Outer</text>
<text text-anchor="middle" x="644.5" y="-663" font-family="Helvetica,sans-Serif" font-size="10.00">+Linker</text>
<text text-anchor="middle" x="644.5" y="-652" font-family="Helvetica,sans-Serif" font-size="10.00">+ObjectArchetype</text>
</g>
<!-- Node9 -->
<g id="node9" class="node">
<title>Node9</title>
<g id="a_node9"><a xlink:href="../../d3/d79/classSDK_1_1TArray.html" target="_top" xlink:title=" ">
<polygon fill="white" stroke="black" points="631.5,-361.5 631.5,-495.5 792.5,-495.5 792.5,-361.5 631.5,-361.5"/>
<text text-anchor="middle" x="712" y="-483.5" font-family="Helvetica,sans-Serif" font-size="10.00">SDK::TArray&lt; SDK::UObject * &gt;</text>
<polyline fill="none" stroke="black" points="631.5,-476.5 792.5,-476.5 "/>
<text text-anchor="start" x="639.5" y="-464.5" font-family="Helvetica,sans-Serif" font-size="10.00">&#45; Count</text>
<text text-anchor="start" x="639.5" y="-453.5" font-family="Helvetica,sans-Serif" font-size="10.00">&#45; Max</text>
<polyline fill="none" stroke="black" points="631.5,-446.5 792.5,-446.5 "/>
<text text-anchor="start" x="639.5" y="-434.5" font-family="Helvetica,sans-Serif" font-size="10.00">+ TArray()</text>
<text text-anchor="start" x="639.5" y="-423.5" font-family="Helvetica,sans-Serif" font-size="10.00">+ Num()</text>
<text text-anchor="start" x="639.5" y="-412.5" font-family="Helvetica,sans-Serif" font-size="10.00">+ operator[]()</text>
<text text-anchor="start" x="639.5" y="-401.5" font-family="Helvetica,sans-Serif" font-size="10.00">+ operator[]()</text>
<text text-anchor="start" x="639.5" y="-390.5" font-family="Helvetica,sans-Serif" font-size="10.00">+ IsValidIndex()</text>
<text text-anchor="start" x="639.5" y="-379.5" font-family="Helvetica,sans-Serif" font-size="10.00">+ GetByIndex()</text>
<text text-anchor="start" x="639.5" y="-368.5" font-family="Helvetica,sans-Serif" font-size="10.00">+ GetByIndex()</text>
</a>
</g>
</g>
<!-- Node3&#45;&gt;Node9 -->
<g id="edge10" class="edge">
<title>Node3&#45;&gt;Node9</title>
<path fill="none" stroke="#404040" d="M587.35,-570.91C602.57,-555.81 617.89,-540.16 632,-525 637.98,-518.58 644.07,-511.79 650.08,-504.92"/>
<polygon fill="none" stroke="#404040" points="650.37,-504.59 651.28,-497.44 658.23,-495.52 657.32,-502.68 650.37,-504.59"/>
<text text-anchor="middle" x="655" y="-517" font-family="Helvetica,sans-Serif" font-size="10.00"> &#45;Data</text>
</g>
<!-- Node11 -->
<g id="node11" class="node">
<title>Node11</title>
<g id="a_node11"><a xlink:href="../../d7/d85/classSDK_1_1UClass.html" target="_top" xlink:title=" ">
<polygon fill="white" stroke="black" points="392.5,-0.5 392.5,-90.5 513.5,-90.5 513.5,-0.5 392.5,-0.5"/>
<text text-anchor="middle" x="453" y="-78.5" font-family="Helvetica,sans-Serif" font-size="10.00">SDK::UClass</text>
<polyline fill="none" stroke="black" points="392.5,-71.5 513.5,-71.5 "/>
<text text-anchor="start" x="400.5" y="-59.5" font-family="Helvetica,sans-Serif" font-size="10.00">+ UnknownData00</text>
<text text-anchor="start" x="400.5" y="-48.5" font-family="Helvetica,sans-Serif" font-size="10.00">+ UnknownData01</text>
<polyline fill="none" stroke="black" points="392.5,-41.5 513.5,-41.5 "/>
<text text-anchor="start" x="400.5" y="-29.5" font-family="Helvetica,sans-Serif" font-size="10.00">+ CreateDefaultObject()</text>
<text text-anchor="start" x="400.5" y="-18.5" font-family="Helvetica,sans-Serif" font-size="10.00">+ CreateDefaultObject()</text>
<text text-anchor="start" x="400.5" y="-7.5" font-family="Helvetica,sans-Serif" font-size="10.00">+ StaticClass()</text>
</a>
</g>
</g>
<!-- Node3&#45;&gt;Node11 -->
<g id="edge20" class="edge">
<title>Node3&#45;&gt;Node11</title>
<path fill="none" stroke="#404040" d="M388.8,-577.37C353.35,-536.72 322,-485.07 322,-429.5 322,-429.5 322,-429.5 322,-156 322,-120.34 350.94,-94.01 381.61,-76.12"/>
<polygon fill="none" stroke="#404040" points="381.97,-75.92 385.3,-69.53 392.48,-70.14 389.15,-76.54 381.97,-75.92"/>
<text text-anchor="middle" x="369.5" y="-260.5" font-family="Helvetica,sans-Serif" font-size="10.00"> +ClassDefaultObject</text>
</g>
<!-- Node14 -->
<g id="node14" class="node">
<title>Node14</title>
<g id="a_node14"><a xlink:href="../../de/dd6/classSDK_1_1UField.html" target="_top" xlink:title=" ">
<polygon fill="white" stroke="black" points="481.5,-400 481.5,-457 564.5,-457 564.5,-400 481.5,-400"/>
<text text-anchor="middle" x="523" y="-445" font-family="Helvetica,sans-Serif" font-size="10.00">SDK::UField</text>
<polyline fill="none" stroke="black" points="481.5,-438 564.5,-438 "/>
<text text-anchor="middle" x="523" y="-426" font-family="Helvetica,sans-Serif" font-size="10.00"> </text>
<polyline fill="none" stroke="black" points="481.5,-419 564.5,-419 "/>
<text text-anchor="start" x="489.5" y="-407" font-family="Helvetica,sans-Serif" font-size="10.00">+ StaticClass()</text>
</a>
</g>
</g>
<!-- Node3&#45;&gt;Node14 -->
<g id="edge17" class="edge">
<title>Node3&#45;&gt;Node14</title>
<path fill="none" stroke="midnightblue" d="M507.58,-533.01C511.86,-504.27 515.98,-476.66 518.88,-457.19"/>
<polygon fill="none" stroke="midnightblue" points="504.08,-532.81 506.06,-543.21 511,-533.84 504.08,-532.81"/>
</g>
<!-- Node4 -->
<g id="node4" class="node">
<title>Node4</title>
<g id="a_node4"><a xlink:href="../../d0/d22/structSDK_1_1FQWord.html" target="_top" xlink:title=" ">
<polygon fill="white" stroke="black" points="346,-885 346,-953 426,-953 426,-885 346,-885"/>
<text text-anchor="middle" x="386" y="-941" font-family="Helvetica,sans-Serif" font-size="10.00">SDK::FQWord</text>
<polyline fill="none" stroke="black" points="346,-934 426,-934 "/>
<text text-anchor="start" x="354" y="-922" font-family="Helvetica,sans-Serif" font-size="10.00">+ A</text>
<text text-anchor="start" x="354" y="-911" font-family="Helvetica,sans-Serif" font-size="10.00">+ B</text>
<polyline fill="none" stroke="black" points="346,-904 426,-904 "/>
<text text-anchor="middle" x="386" y="-892" font-family="Helvetica,sans-Serif" font-size="10.00"> </text>
</a>
</g>
</g>
<!-- Node4&#45;&gt;Node3 -->
<g id="edge3" class="edge">
<title>Node4&#45;&gt;Node3</title>
<path fill="none" stroke="#404040" d="M397.49,-884.96C405.44,-862.55 416.44,-832.33 427,-806 427.94,-803.65 428.9,-801.29 429.87,-798.9"/>
<polygon fill="none" stroke="#404040" points="429.92,-798.77 428.51,-791.7 434.49,-787.67 435.9,-794.74 429.92,-798.77"/>
<text text-anchor="middle" x="458" y="-820" font-family="Helvetica,sans-Serif" font-size="10.00"> +ObjectFlags</text>
</g>
<!-- Node5 -->
<g id="node5" class="node">
<title>Node5</title>
<g id="a_node5"><a xlink:href="../../d0/db6/structSDK_1_1FName.html" target="_top" xlink:title=" ">
<polygon fill="white" stroke="black" points="444.5,-857.5 444.5,-980.5 551.5,-980.5 551.5,-857.5 444.5,-857.5"/>
<text text-anchor="middle" x="498" y="-968.5" font-family="Helvetica,sans-Serif" font-size="10.00">SDK::FName</text>
<polyline fill="none" stroke="black" points="444.5,-961.5 551.5,-961.5 "/>
<text text-anchor="start" x="452.5" y="-949.5" font-family="Helvetica,sans-Serif" font-size="10.00">+ Index</text>
<text text-anchor="start" x="452.5" y="-938.5" font-family="Helvetica,sans-Serif" font-size="10.00">+ Number</text>
<polyline fill="none" stroke="black" points="444.5,-931.5 551.5,-931.5 "/>
<text text-anchor="start" x="452.5" y="-919.5" font-family="Helvetica,sans-Serif" font-size="10.00">+ FName()</text>
<text text-anchor="start" x="452.5" y="-908.5" font-family="Helvetica,sans-Serif" font-size="10.00">+ FName()</text>
<text text-anchor="start" x="452.5" y="-897.5" font-family="Helvetica,sans-Serif" font-size="10.00">+ FName()</text>
<text text-anchor="start" x="452.5" y="-886.5" font-family="Helvetica,sans-Serif" font-size="10.00">+ GetName()</text>
<text text-anchor="start" x="452.5" y="-875.5" font-family="Helvetica,sans-Serif" font-size="10.00">+ operator==()</text>
<text text-anchor="start" x="452.5" y="-864.5" font-family="Helvetica,sans-Serif" font-size="10.00">+ GetGlobalNames()</text>
</a>
</g>
</g>
<!-- Node5&#45;&gt;Node3 -->
<g id="edge4" class="edge">
<title>Node5&#45;&gt;Node3</title>
<path fill="none" stroke="#404040" d="M495.59,-857.44C494.89,-839.9 494.1,-820.03 493.3,-799.9"/>
<polygon fill="none" stroke="#404040" points="493.3,-799.68 489.06,-793.84 492.82,-787.69 497.05,-793.52 493.3,-799.68"/>
<text text-anchor="middle" x="512" y="-820" font-family="Helvetica,sans-Serif" font-size="10.00"> +Name</text>
</g>
<!-- Node6 -->
<g id="node6" class="node">
<title>Node6</title>
<g id="a_node6"><a xlink:href="../../d3/d79/classSDK_1_1TArray.html" target="_top" xlink:title=" ">
<polygon fill="white" stroke="black" points="431,-1028.5 431,-1162.5 611,-1162.5 611,-1028.5 431,-1028.5"/>
<text text-anchor="middle" x="521" y="-1150.5" font-family="Helvetica,sans-Serif" font-size="10.00">SDK::TArray&lt; SDK::FNameEntry * &gt;</text>
<polyline fill="none" stroke="black" points="431,-1143.5 611,-1143.5 "/>
<text text-anchor="start" x="439" y="-1131.5" font-family="Helvetica,sans-Serif" font-size="10.00">&#45; Count</text>
<text text-anchor="start" x="439" y="-1120.5" font-family="Helvetica,sans-Serif" font-size="10.00">&#45; Max</text>
<polyline fill="none" stroke="black" points="431,-1113.5 611,-1113.5 "/>
<text text-anchor="start" x="439" y="-1101.5" font-family="Helvetica,sans-Serif" font-size="10.00">+ TArray()</text>
<text text-anchor="start" x="439" y="-1090.5" font-family="Helvetica,sans-Serif" font-size="10.00">+ Num()</text>
<text text-anchor="start" x="439" y="-1079.5" font-family="Helvetica,sans-Serif" font-size="10.00">+ operator[]()</text>
<text text-anchor="start" x="439" y="-1068.5" font-family="Helvetica,sans-Serif" font-size="10.00">+ operator[]()</text>
<text text-anchor="start" x="439" y="-1057.5" font-family="Helvetica,sans-Serif" font-size="10.00">+ IsValidIndex()</text>
<text text-anchor="start" x="439" y="-1046.5" font-family="Helvetica,sans-Serif" font-size="10.00">+ GetByIndex()</text>
<text text-anchor="start" x="439" y="-1035.5" font-family="Helvetica,sans-Serif" font-size="10.00">+ GetByIndex()</text>
</a>
</g>
</g>
<!-- Node6&#45;&gt;Node5 -->
<g id="edge5" class="edge">
<title>Node6&#45;&gt;Node5</title>
<path fill="none" stroke="#404040" d="M512.24,-1028.03C510.71,-1016.45 509.12,-1004.35 507.57,-992.62"/>
<polygon fill="none" stroke="#404040" points="507.55,-992.45 502.8,-987.03 505.98,-980.56 510.73,-985.98 507.55,-992.45"/>
<text text-anchor="middle" x="533.5" y="-1002" font-family="Helvetica,sans-Serif" font-size="10.00"> +GNames</text>
</g>
<!-- Node7 -->
<g id="node7" class="node">
<title>Node7</title>
<g id="a_node7"><a xlink:href="../../d7/ddf/classSDK_1_1FNameEntry.html" target="_top" xlink:title=" ">
<polygon fill="white" stroke="black" points="471.5,-1249 471.5,-1317 570.5,-1317 570.5,-1249 471.5,-1249"/>
<text text-anchor="middle" x="521" y="-1305" font-family="Helvetica,sans-Serif" font-size="10.00">SDK::FNameEntry</text>
<polyline fill="none" stroke="black" points="471.5,-1298 570.5,-1298 "/>
<text text-anchor="start" x="479.5" y="-1286" font-family="Helvetica,sans-Serif" font-size="10.00">+ UnknownData00</text>
<text text-anchor="start" x="479.5" y="-1275" font-family="Helvetica,sans-Serif" font-size="10.00">+ name</text>
<polyline fill="none" stroke="black" points="471.5,-1268 570.5,-1268 "/>
<text text-anchor="start" x="479.5" y="-1256" font-family="Helvetica,sans-Serif" font-size="10.00">+ GetName()</text>
</a>
</g>
</g>
<!-- Node7&#45;&gt;Node6 -->
<g id="edge6" class="edge">
<title>Node7&#45;&gt;Node6</title>
<path fill="none" stroke="#404040" d="M521,-1248.84C521,-1228.23 521,-1200.83 521,-1174.95"/>
<polygon fill="none" stroke="#404040" points="521,-1174.8 517,-1168.8 521,-1162.8 525,-1168.8 521,-1174.8"/>
<text text-anchor="middle" x="535" y="-1184" font-family="Helvetica,sans-Serif" font-size="10.00"> &#45;Data</text>
</g>
<!-- Node8 -->
<g id="node8" class="node">
<title>Node8</title>
<g id="a_node8"><a xlink:href="../../d3/d79/classSDK_1_1TArray.html" target="_top" xlink:title=" ">
<polygon fill="white" stroke="black" points="618.5,-1210.5 618.5,-1355.5 715.5,-1355.5 715.5,-1210.5 618.5,-1210.5"/>
<text text-anchor="middle" x="667" y="-1343.5" font-family="Helvetica,sans-Serif" font-size="10.00">SDK::TArray&lt; T &gt;</text>
<polyline fill="none" stroke="black" points="618.5,-1336.5 715.5,-1336.5 "/>
<text text-anchor="start" x="626.5" y="-1324.5" font-family="Helvetica,sans-Serif" font-size="10.00">&#45; Data</text>
<text text-anchor="start" x="626.5" y="-1313.5" font-family="Helvetica,sans-Serif" font-size="10.00">&#45; Count</text>
<text text-anchor="start" x="626.5" y="-1302.5" font-family="Helvetica,sans-Serif" font-size="10.00">&#45; Max</text>
<polyline fill="none" stroke="black" points="618.5,-1295.5 715.5,-1295.5 "/>
<text text-anchor="start" x="626.5" y="-1283.5" font-family="Helvetica,sans-Serif" font-size="10.00">+ TArray()</text>
<text text-anchor="start" x="626.5" y="-1272.5" font-family="Helvetica,sans-Serif" font-size="10.00">+ Num()</text>
<text text-anchor="start" x="626.5" y="-1261.5" font-family="Helvetica,sans-Serif" font-size="10.00">+ operator[]()</text>
<text text-anchor="start" x="626.5" y="-1250.5" font-family="Helvetica,sans-Serif" font-size="10.00">+ operator[]()</text>
<text text-anchor="start" x="626.5" y="-1239.5" font-family="Helvetica,sans-Serif" font-size="10.00">+ IsValidIndex()</text>
<text text-anchor="start" x="626.5" y="-1228.5" font-family="Helvetica,sans-Serif" font-size="10.00">+ GetByIndex()</text>
<text text-anchor="start" x="626.5" y="-1217.5" font-family="Helvetica,sans-Serif" font-size="10.00">+ GetByIndex()</text>
</a>
</g>
</g>
<!-- Node8&#45;&gt;Node6 -->
<g id="edge7" class="edge">
<title>Node8&#45;&gt;Node6</title>
<path fill="none" stroke="orange" d="M611.4,-1221.46C603.02,-1211.77 594.64,-1201.73 587,-1192 579.66,-1182.65 572.19,-1172.53 565.05,-1162.51"/>
<polygon fill="orange" stroke="orange" points="608.89,-1223.91 618.1,-1229.14 614.16,-1219.3 608.89,-1223.91"/>
<text text-anchor="middle" x="642.5" y="-1184" font-family="Helvetica,sans-Serif" font-size="10.00"> &lt; SDK::FNameEntry * &gt;</text>
</g>
<!-- Node8&#45;&gt;Node9 -->
<g id="edge11" class="edge">
<title>Node8&#45;&gt;Node9</title>
<path fill="none" stroke="orange" d="M695.83,-1200.44C696.59,-1197.61 697.32,-1194.78 698,-1192 708.14,-1150.32 712,-1139.4 712,-1096.5 712,-1096.5 712,-1096.5 712,-664.5 712,-607.48 712,-542.69 712,-495.59"/>
<polygon fill="orange" stroke="orange" points="692.44,-1199.56 693.07,-1210.14 699.17,-1201.48 692.44,-1199.56"/>
<text text-anchor="middle" x="757.5" y="-916.5" font-family="Helvetica,sans-Serif" font-size="10.00"> &lt; SDK::UObject * &gt;</text>
</g>
<!-- Node9&#45;&gt;Node3 -->
<g id="edge9" class="edge">
<title>Node9&#45;&gt;Node3</title>
<path fill="none" stroke="#404040" d="M631.3,-491.03C628.53,-492.75 625.76,-494.41 623,-496 605.41,-506.15 596.39,-500.75 581,-514 573.96,-520.06 567.29,-526.79 561,-533.94"/>
<polygon fill="none" stroke="#404040" points="560.94,-534.02 560.15,-541.19 553.23,-543.21 554.02,-536.05 560.94,-534.02"/>
<text text-anchor="middle" x="606.5" y="-517" font-family="Helvetica,sans-Serif" font-size="10.00"> +GObjects</text>
</g>
<!-- Node10 -->
<g id="node10" class="node">
<title>Node10</title>
<g id="a_node10"><a xlink:href="../../d9/dfa/structSDK_1_1FPointer.html" target="_top" xlink:title=" ">
<polygon fill="white" stroke="black" points="569,-885 569,-953 667,-953 667,-885 569,-885"/>
<text text-anchor="middle" x="618" y="-941" font-family="Helvetica,sans-Serif" font-size="10.00">SDK::FPointer</text>
<polyline fill="none" stroke="black" points="569,-934 667,-934 "/>
<text text-anchor="start" x="577" y="-922" font-family="Helvetica,sans-Serif" font-size="10.00">+ Dummy</text>
<text text-anchor="start" x="577" y="-911" font-family="Helvetica,sans-Serif" font-size="10.00">+ UnknownData00</text>
<polyline fill="none" stroke="black" points="569,-904 667,-904 "/>
<text text-anchor="middle" x="618" y="-892" font-family="Helvetica,sans-Serif" font-size="10.00"> </text>
</a>
</g>
</g>
<!-- Node10&#45;&gt;Node3 -->
<g id="edge12" class="edge">
<title>Node10&#45;&gt;Node3</title>
<path fill="none" stroke="#404040" d="M600.87,-884.86C589.19,-862.27 572.89,-830.74 556.3,-798.64"/>
<polygon fill="none" stroke="#404040" points="556.18,-798.41 549.88,-794.92 550.67,-787.75 556.98,-791.24 556.18,-798.41"/>
<text text-anchor="middle" x="609.5" y="-831" font-family="Helvetica,sans-Serif" font-size="10.00"> +StateFrame</text>
<text text-anchor="middle" x="609.5" y="-820" font-family="Helvetica,sans-Serif" font-size="10.00">+VfTableObject</text>
<text text-anchor="middle" x="609.5" y="-809" font-family="Helvetica,sans-Serif" font-size="10.00">+LinkerIndex</text>
</g>
<!-- Node11&#45;&gt;Node3 -->
<g id="edge13" class="edge">
<title>Node11&#45;&gt;Node3</title>
<path fill="none" stroke="#404040" d="M453,-90.72C453,-110.67 453,-134.52 453,-156 453,-429.5 453,-429.5 453,-429.5 453,-462.66 456.45,-498.16 461.18,-531.26"/>
<polygon fill="none" stroke="#404040" points="461.22,-531.48 466.06,-536.82 462.98,-543.34 458.14,-538 461.22,-531.48"/>
<text text-anchor="middle" x="470.5" y="-260.5" font-family="Helvetica,sans-Serif" font-size="10.00"> +Class</text>
</g>
<!-- Node12 -->
<g id="node12" class="node">
<title>Node12</title>
<g id="a_node12"><a xlink:href="../../df/d72/classSDK_1_1UState.html" target="_top" xlink:title=" ">
<polygon fill="white" stroke="black" points="493,-128.5 493,-185.5 591,-185.5 591,-128.5 493,-128.5"/>
<text text-anchor="middle" x="542" y="-173.5" font-family="Helvetica,sans-Serif" font-size="10.00">SDK::UState</text>
<polyline fill="none" stroke="black" points="493,-166.5 591,-166.5 "/>
<text text-anchor="start" x="501" y="-154.5" font-family="Helvetica,sans-Serif" font-size="10.00">+ UnknownData00</text>
<polyline fill="none" stroke="black" points="493,-147.5 591,-147.5 "/>
<text text-anchor="start" x="501" y="-135.5" font-family="Helvetica,sans-Serif" font-size="10.00">+ StaticClass()</text>
</a>
</g>
</g>
<!-- Node12&#45;&gt;Node11 -->
<g id="edge14" class="edge">
<title>Node12&#45;&gt;Node11</title>
<path fill="none" stroke="midnightblue" d="M513.01,-120.33C505.33,-110.89 496.95,-100.58 488.96,-90.74"/>
<polygon fill="none" stroke="midnightblue" points="510.52,-122.82 519.54,-128.37 515.95,-118.4 510.52,-122.82"/>
</g>
<!-- Node13 -->
<g id="node13" class="node">
<title>Node13</title>
<g id="a_node13"><a xlink:href="../../d8/de9/classSDK_1_1UStruct.html" target="_top" xlink:title=" ">
<polygon fill="white" stroke="black" points="506,-223.5 506,-302.5 604,-302.5 604,-223.5 506,-223.5"/>
<text text-anchor="middle" x="555" y="-290.5" font-family="Helvetica,sans-Serif" font-size="10.00">SDK::UStruct</text>
<polyline fill="none" stroke="black" points="506,-283.5 604,-283.5 "/>
<text text-anchor="start" x="514" y="-271.5" font-family="Helvetica,sans-Serif" font-size="10.00">+ UnknownData00</text>
<text text-anchor="start" x="514" y="-260.5" font-family="Helvetica,sans-Serif" font-size="10.00">+ PropertySize</text>
<text text-anchor="start" x="514" y="-249.5" font-family="Helvetica,sans-Serif" font-size="10.00">+ UnknownData01</text>
<polyline fill="none" stroke="black" points="506,-242.5 604,-242.5 "/>
<text text-anchor="start" x="514" y="-230.5" font-family="Helvetica,sans-Serif" font-size="10.00">+ StaticClass()</text>
</a>
</g>
</g>
<!-- Node13&#45;&gt;Node12 -->
<g id="edge15" class="edge">
<title>Node13&#45;&gt;Node12</title>
<path fill="none" stroke="midnightblue" d="M548.9,-213.16C547.72,-203.74 546.52,-194.17 545.46,-185.72"/>
<polygon fill="none" stroke="midnightblue" points="545.45,-213.79 550.16,-223.27 552.39,-212.92 545.45,-213.79"/>
</g>
<!-- Node14&#45;&gt;Node13 -->
<g id="edge16" class="edge">
<title>Node14&#45;&gt;Node13</title>
<path fill="none" stroke="midnightblue" d="M525.78,-389.47C527.74,-369.01 530.94,-343.44 536,-321 537.35,-315 539.09,-308.73 540.97,-302.65"/>
<polygon fill="none" stroke="midnightblue" points="522.27,-389.38 524.86,-399.66 529.25,-390.01 522.27,-389.38"/>
</g>
<!-- Node14&#45;&gt;Node13 -->
<g id="edge19" class="edge">
<title>Node14&#45;&gt;Node13</title>
<path fill="none" stroke="#404040" d="M528.43,-399.76C532.98,-376.51 539.6,-342.7 545.09,-314.64"/>
<polygon fill="none" stroke="#404040" points="545.14,-314.39 542.36,-307.74 547.44,-302.62 550.22,-309.27 545.14,-314.39"/>
<text text-anchor="middle" x="571" y="-335" font-family="Helvetica,sans-Serif" font-size="10.00"> +SuperField</text>
<text text-anchor="middle" x="571" y="-324" font-family="Helvetica,sans-Serif" font-size="10.00">+Children</text>
</g>
<!-- Node14&#45;&gt;Node14 -->
<g id="edge18" class="edge">
<title>Node14&#45;&gt;Node14</title>
<path fill="none" stroke="#404040" d="M564.71,-445.11C574.91,-443.88 582.5,-438.34 582.5,-428.5 582.5,-422.96 580.1,-418.79 576.18,-415.98"/>
<polygon fill="none" stroke="#404040" points="576.01,-415.92 569.01,-417.67 564.71,-411.89 571.7,-410.13 576.01,-415.92"/>
<text text-anchor="middle" x="598" y="-426" font-family="Helvetica,sans-Serif" font-size="10.00"> +Next</text>
</g>
<!-- Node15 -->
<g id="node15" class="node">
<title>Node15</title>
<g id="a_node15"><a xlink:href="../../df/d1c/classSDK_1_1TEnumAsByte.html" target="_top" xlink:title=" ">
<polygon fill="white" stroke="black" points="0,-367 0,-490 158,-490 158,-367 0,-367"/>
<text text-anchor="start" x="8" y="-478" font-family="Helvetica,sans-Serif" font-size="10.00">SDK::TEnumAsByte&lt; ETrack</text>
<text text-anchor="middle" x="79" y="-467" font-family="Helvetica,sans-Serif" font-size="10.00">ToggleAction &gt;</text>
<polyline fill="none" stroke="black" points="0,-460 158,-460 "/>
<text text-anchor="start" x="8" y="-448" font-family="Helvetica,sans-Serif" font-size="10.00">&#45; value</text>
<polyline fill="none" stroke="black" points="0,-441 158,-441 "/>
<text text-anchor="start" x="8" y="-429" font-family="Helvetica,sans-Serif" font-size="10.00">+ TEnumAsByte()</text>
<text text-anchor="start" x="8" y="-418" font-family="Helvetica,sans-Serif" font-size="10.00">+ TEnumAsByte()</text>
<text text-anchor="start" x="8" y="-407" font-family="Helvetica,sans-Serif" font-size="10.00">+ TEnumAsByte()</text>
<text text-anchor="start" x="8" y="-396" font-family="Helvetica,sans-Serif" font-size="10.00">+ TEnumAsByte()</text>
<text text-anchor="start" x="8" y="-385" font-family="Helvetica,sans-Serif" font-size="10.00">+ operator ETrackToggleAction()</text>
<text text-anchor="start" x="8" y="-374" font-family="Helvetica,sans-Serif" font-size="10.00">+ GetValue()</text>
</a>
</g>
</g>
<!-- Node15&#45;&gt;Node1 -->
<g id="edge21" class="edge">
<title>Node15&#45;&gt;Node1</title>
<path fill="none" stroke="#404040" d="M123.31,-366.62C136.35,-348.71 150.43,-329.36 162.81,-312.35"/>
<polygon fill="none" stroke="#404040" points="162.82,-312.33 163.12,-305.13 169.88,-302.63 169.59,-309.84 162.82,-312.33"/>
<text text-anchor="middle" x="175.5" y="-329.5" font-family="Helvetica,sans-Serif" font-size="10.00"> +Action</text>
</g>
<!-- Node16 -->
<g id="node16" class="node">
<title>Node16</title>
<g id="a_node16"><a xlink:href="../../df/d1c/classSDK_1_1TEnumAsByte.html" target="_top" xlink:title=" ">
<polygon fill="white" stroke="black" points="0.5,-609.5 0.5,-721.5 157.5,-721.5 157.5,-609.5 0.5,-609.5"/>
<text text-anchor="middle" x="79" y="-709.5" font-family="Helvetica,sans-Serif" font-size="10.00">SDK::TEnumAsByte&lt; TEnum &gt;</text>
<polyline fill="none" stroke="black" points="0.5,-702.5 157.5,-702.5 "/>
<text text-anchor="start" x="8.5" y="-690.5" font-family="Helvetica,sans-Serif" font-size="10.00">&#45; value</text>
<polyline fill="none" stroke="black" points="0.5,-683.5 157.5,-683.5 "/>
<text text-anchor="start" x="8.5" y="-671.5" font-family="Helvetica,sans-Serif" font-size="10.00">+ TEnumAsByte()</text>
<text text-anchor="start" x="8.5" y="-660.5" font-family="Helvetica,sans-Serif" font-size="10.00">+ TEnumAsByte()</text>
<text text-anchor="start" x="8.5" y="-649.5" font-family="Helvetica,sans-Serif" font-size="10.00">+ TEnumAsByte()</text>
<text text-anchor="start" x="8.5" y="-638.5" font-family="Helvetica,sans-Serif" font-size="10.00">+ TEnumAsByte()</text>
<text text-anchor="start" x="8.5" y="-627.5" font-family="Helvetica,sans-Serif" font-size="10.00">+ operator TEnum()</text>
<text text-anchor="start" x="8.5" y="-616.5" font-family="Helvetica,sans-Serif" font-size="10.00">+ GetValue()</text>
</a>
</g>
</g>
<!-- Node16&#45;&gt;Node15 -->
<g id="edge22" class="edge">
<title>Node16&#45;&gt;Node15</title>
<path fill="none" stroke="orange" d="M79,-599.06C79,-564.92 79,-523.42 79,-490.03"/>
<polygon fill="orange" stroke="orange" points="75.5,-599.4 79,-609.4 82.5,-599.4 75.5,-599.4"/>
<text text-anchor="middle" x="134" y="-517" font-family="Helvetica,sans-Serif" font-size="10.00"> &lt; ETrackToggleAction &gt;</text>
</g>
</g>
</svg>
