<?xml version="1.0" encoding="UTF-8" standalone="no"?>
<!DOCTYPE svg PUBLIC "-//W3C//DTD SVG 1.1//EN"
 "http://www.w3.org/Graphics/SVG/1.1/DTD/svg11.dtd">
<!-- Generated by graphviz version 2.41.20171026.1811 (20171026.1811)
 -->
<!-- Title: SDK::UComponentProperty Pages: 1 -->
<!--zoomable 1119 -->
<svg id="main" version="1.1" xmlns="http://www.w3.org/2000/svg" xmlns:xlink="http://www.w3.org/1999/xlink" xml:space="preserve" onload="init(evt)">
<style type="text/css"><![CDATA[
.edge:hover path { stroke: red; }
.edge:hover polygon { stroke: red; fill: red; }
]]></style>
<script type="text/javascript"><![CDATA[
var edges = document.getElementsByTagName('g');
if (edges && edges.length) {
  for (var i=0;i<edges.length;i++) {
    if (edges[i].id.substr(0,4)=='edge') {
      edges[i].setAttribute('class','edge');
    }
  }
}
]]></script>
        <defs>
                <circle id="rim" cx="0" cy="0" r="7"/>
                <circle id="rim2" cx="0" cy="0" r="3.5"/>
                <g id="zoomPlus">
                        <use xlink:href="#rim" fill="#404040">
                                <set attributeName="fill" to="#808080" begin="zoomplus.mouseover" end="zoomplus.mouseout"/>
                        </use>
                        <path d="M-4,0h8M0,-4v8" fill="none" stroke="white" stroke-width="1.5" pointer-events="none"/>
                </g>
                <g id="zoomMin">
                        <use xlink:href="#rim" fill="#404040">
                                <set attributeName="fill" to="#808080" begin="zoomminus.mouseover" end="zoomminus.mouseout"/>
                        </use>
                        <path d="M-4,0h8" fill="none" stroke="white" stroke-width="1.5" pointer-events="none"/>
                </g>
                <g id="dirArrow">
                        <path fill="none" stroke="white" stroke-width="1.5" d="M0,-3.0v7 M-2.5,-0.5L0,-3.0L2.5,-0.5"/>
                </g>
               <g id="resetDef">
                       <use xlink:href="#rim2" fill="#404040">
                               <set attributeName="fill" to="#808080" begin="reset.mouseover" end="reset.mouseout"/>
                       </use>
               </g>
        </defs>

<script type="text/javascript">
var viewWidth = 790;
var viewHeight = 1119;
var sectionId = 'dynsection-1';
</script>
<script xlink:href="../../svgpan.js"/>
<svg id="graph" class="graph">
<g id="viewport">
<title>SDK::UComponentProperty</title>
<polygon fill="white" stroke="transparent" points="-4,4 -4,-1115 786,-1115 786,4 -4,4"/>
<!-- Node1 -->
<g id="node1" class="node">
<title>Node1</title>
<g id="a_node1"><a xlink:title=" ">
<polygon fill="#bfbfbf" stroke="black" points="0,-529.5 0,-586.5 138,-586.5 138,-529.5 0,-529.5"/>
<text text-anchor="middle" x="69" y="-574.5" font-family="Helvetica,sans-Serif" font-size="10.00">SDK::UComponentProperty</text>
<polyline fill="none" stroke="black" points="0,-567.5 138,-567.5 "/>
<text text-anchor="middle" x="69" y="-555.5" font-family="Helvetica,sans-Serif" font-size="10.00"> </text>
<polyline fill="none" stroke="black" points="0,-548.5 138,-548.5 "/>
<text text-anchor="start" x="8" y="-536.5" font-family="Helvetica,sans-Serif" font-size="10.00">+ StaticClass()</text>
</a>
</g>
</g>
<!-- Node2 -->
<g id="node2" class="node">
<title>Node2</title>
<g id="a_node2"><a xlink:href="../../d9/d82/classSDK_1_1UObjectProperty.html" target="_top" xlink:title=" ">
<polygon fill="white" stroke="black" points="17,-706 17,-763 133,-763 133,-706 17,-706"/>
<text text-anchor="middle" x="75" y="-751" font-family="Helvetica,sans-Serif" font-size="10.00">SDK::UObjectProperty</text>
<polyline fill="none" stroke="black" points="17,-744 133,-744 "/>
<text text-anchor="start" x="25" y="-732" font-family="Helvetica,sans-Serif" font-size="10.00">+ UnknownData00</text>
<polyline fill="none" stroke="black" points="17,-725 133,-725 "/>
<text text-anchor="start" x="25" y="-713" font-family="Helvetica,sans-Serif" font-size="10.00">+ StaticClass()</text>
</a>
</g>
</g>
<!-- Node2&#45;&gt;Node1 -->
<g id="edge1" class="edge">
<title>Node2&#45;&gt;Node1</title>
<path fill="none" stroke="midnightblue" d="M73.7,-695.71C72.57,-662.83 70.96,-615.95 69.95,-586.52"/>
<polygon fill="none" stroke="midnightblue" points="70.21,-695.98 74.05,-705.85 77.2,-695.74 70.21,-695.98"/>
</g>
<!-- Node3 -->
<g id="node3" class="node">
<title>Node3</title>
<g id="a_node3"><a xlink:href="../../de/d1f/classSDK_1_1UProperty.html" target="_top" xlink:title=" ">
<polygon fill="white" stroke="black" points="35,-893.5 35,-950.5 133,-950.5 133,-893.5 35,-893.5"/>
<text text-anchor="middle" x="84" y="-938.5" font-family="Helvetica,sans-Serif" font-size="10.00">SDK::UProperty</text>
<polyline fill="none" stroke="black" points="35,-931.5 133,-931.5 "/>
<text text-anchor="start" x="43" y="-919.5" font-family="Helvetica,sans-Serif" font-size="10.00">+ UnknownData00</text>
<polyline fill="none" stroke="black" points="35,-912.5 133,-912.5 "/>
<text text-anchor="start" x="43" y="-900.5" font-family="Helvetica,sans-Serif" font-size="10.00">+ StaticClass()</text>
</a>
</g>
</g>
<!-- Node3&#45;&gt;Node2 -->
<g id="edge2" class="edge">
<title>Node3&#45;&gt;Node2</title>
<path fill="none" stroke="midnightblue" d="M82.17,-883.21C80.44,-847.58 77.89,-795.03 76.34,-763.16"/>
<polygon fill="none" stroke="midnightblue" points="78.67,-883.41 82.65,-893.23 85.66,-883.07 78.67,-883.41"/>
</g>
<!-- Node4 -->
<g id="node4" class="node">
<title>Node4</title>
<g id="a_node4"><a xlink:href="../../de/dd6/classSDK_1_1UField.html" target="_top" xlink:title=" ">
<polygon fill="white" stroke="black" points="136.5,-1053.5 136.5,-1110.5 219.5,-1110.5 219.5,-1053.5 136.5,-1053.5"/>
<text text-anchor="middle" x="178" y="-1098.5" font-family="Helvetica,sans-Serif" font-size="10.00">SDK::UField</text>
<polyline fill="none" stroke="black" points="136.5,-1091.5 219.5,-1091.5 "/>
<text text-anchor="middle" x="178" y="-1079.5" font-family="Helvetica,sans-Serif" font-size="10.00"> </text>
<polyline fill="none" stroke="black" points="136.5,-1072.5 219.5,-1072.5 "/>
<text text-anchor="start" x="144.5" y="-1060.5" font-family="Helvetica,sans-Serif" font-size="10.00">+ StaticClass()</text>
</a>
</g>
</g>
<!-- Node4&#45;&gt;Node3 -->
<g id="edge3" class="edge">
<title>Node4&#45;&gt;Node3</title>
<path fill="none" stroke="midnightblue" d="M156.34,-1044.6C139.34,-1016.02 116.02,-976.82 100.5,-950.74"/>
<polygon fill="none" stroke="midnightblue" points="153.51,-1046.67 161.63,-1053.48 159.52,-1043.09 153.51,-1046.67"/>
</g>
<!-- Node4&#45;&gt;Node4 -->
<g id="edge21" class="edge">
<title>Node4&#45;&gt;Node4</title>
<path fill="none" stroke="#404040" d="M219.71,-1092.71C229.91,-1091.91 237.5,-1088.34 237.5,-1082 237.5,-1078.53 235.23,-1075.89 231.5,-1074.08"/>
<polygon fill="none" stroke="#404040" points="231.38,-1074.05 224.62,-1076.57 219.71,-1071.29 226.46,-1068.78 231.38,-1074.05"/>
<text text-anchor="middle" x="253" y="-1079.5" font-family="Helvetica,sans-Serif" font-size="10.00"> +Next</text>
</g>
<!-- Node15 -->
<g id="node15" class="node">
<title>Node15</title>
<g id="a_node15"><a xlink:href="../../d8/de9/classSDK_1_1UStruct.html" target="_top" xlink:title=" ">
<polygon fill="white" stroke="black" points="194,-882.5 194,-961.5 292,-961.5 292,-882.5 194,-882.5"/>
<text text-anchor="middle" x="243" y="-949.5" font-family="Helvetica,sans-Serif" font-size="10.00">SDK::UStruct</text>
<polyline fill="none" stroke="black" points="194,-942.5 292,-942.5 "/>
<text text-anchor="start" x="202" y="-930.5" font-family="Helvetica,sans-Serif" font-size="10.00">+ UnknownData00</text>
<text text-anchor="start" x="202" y="-919.5" font-family="Helvetica,sans-Serif" font-size="10.00">+ PropertySize</text>
<text text-anchor="start" x="202" y="-908.5" font-family="Helvetica,sans-Serif" font-size="10.00">+ UnknownData01</text>
<polyline fill="none" stroke="black" points="194,-901.5 292,-901.5 "/>
<text text-anchor="start" x="202" y="-889.5" font-family="Helvetica,sans-Serif" font-size="10.00">+ StaticClass()</text>
</a>
</g>
</g>
<!-- Node4&#45;&gt;Node15 -->
<g id="edge18" class="edge">
<title>Node4&#45;&gt;Node15</title>
<path fill="none" stroke="midnightblue" d="M193.19,-1044.08C203.36,-1019.35 216.73,-986.85 227.06,-961.75"/>
<polygon fill="none" stroke="midnightblue" points="189.89,-1042.9 189.32,-1053.48 196.36,-1045.56 189.89,-1042.9"/>
</g>
<!-- Node4&#45;&gt;Node15 -->
<g id="edge19" class="edge">
<title>Node4&#45;&gt;Node15</title>
<path fill="none" stroke="#404040" d="M203.35,-1053.36C207.71,-1047.59 211.85,-1041.33 215,-1035 224.49,-1015.9 230.93,-993.33 235.21,-973.47"/>
<polygon fill="none" stroke="#404040" points="235.25,-973.27 232.51,-966.61 237.61,-961.51 240.35,-968.18 235.25,-973.27"/>
<text text-anchor="middle" x="252" y="-1027" font-family="Helvetica,sans-Serif" font-size="10.00"> +SuperField</text>
<text text-anchor="middle" x="252" y="-1016" font-family="Helvetica,sans-Serif" font-size="10.00">+Children</text>
</g>
<!-- Node5 -->
<g id="node5" class="node">
<title>Node5</title>
<g id="a_node5"><a xlink:href="../../d9/d45/classSDK_1_1UObject.html" target="_top" xlink:title=" ">
<polygon fill="white" stroke="black" points="332,-182.5 332,-426.5 530,-426.5 530,-182.5 332,-182.5"/>
<text text-anchor="middle" x="431" y="-414.5" font-family="Helvetica,sans-Serif" font-size="10.00">SDK::UObject</text>
<polyline fill="none" stroke="black" points="332,-407.5 530,-407.5 "/>
<text text-anchor="start" x="340" y="-395.5" font-family="Helvetica,sans-Serif" font-size="10.00">+ ObjectInternalInteger</text>
<text text-anchor="start" x="340" y="-384.5" font-family="Helvetica,sans-Serif" font-size="10.00">+ NetIndex</text>
<polyline fill="none" stroke="black" points="332,-377.5 530,-377.5 "/>
<text text-anchor="start" x="340" y="-365.5" font-family="Helvetica,sans-Serif" font-size="10.00">+ UObject::GetName()</text>
<text text-anchor="start" x="340" y="-354.5" font-family="Helvetica,sans-Serif" font-size="10.00">+ GetFullName()</text>
<text text-anchor="start" x="340" y="-343.5" font-family="Helvetica,sans-Serif" font-size="10.00">+ IsA()</text>
<text text-anchor="start" x="340" y="-332.5" font-family="Helvetica,sans-Serif" font-size="10.00">+ ProcessEvent()</text>
<text text-anchor="start" x="340" y="-321.5" font-family="Helvetica,sans-Serif" font-size="10.00">+ STATIC_ProfNodeEvent()</text>
<text text-anchor="start" x="340" y="-310.5" font-family="Helvetica,sans-Serif" font-size="10.00">+ STATIC_ProfNodeSetDepthThreshold()</text>
<text text-anchor="start" x="340" y="-299.5" font-family="Helvetica,sans-Serif" font-size="10.00">+ STATIC_ProfNodeSetTimeThreshold</text>
<text text-anchor="start" x="340" y="-288.5" font-family="Helvetica,sans-Serif" font-size="10.00">Seconds()</text>
<text text-anchor="start" x="340" y="-277.5" font-family="Helvetica,sans-Serif" font-size="10.00">+ STATIC_ProfNodeStop()</text>
<text text-anchor="start" x="340" y="-266.5" font-family="Helvetica,sans-Serif" font-size="10.00">+ STATIC_ProfNodeStart()</text>
<text text-anchor="start" x="340" y="-255.5" font-family="Helvetica,sans-Serif" font-size="10.00">+ STATIC_GetStringFromGuid()</text>
<text text-anchor="start" x="340" y="-244.5" font-family="Helvetica,sans-Serif" font-size="10.00">and 298 more...</text>
<text text-anchor="start" x="340" y="-233.5" font-family="Helvetica,sans-Serif" font-size="10.00">+ GetGlobalObjects()</text>
<text text-anchor="start" x="340" y="-222.5" font-family="Helvetica,sans-Serif" font-size="10.00">+ FindObject()</text>
<text text-anchor="start" x="340" y="-211.5" font-family="Helvetica,sans-Serif" font-size="10.00">+ FindClass()</text>
<text text-anchor="start" x="340" y="-200.5" font-family="Helvetica,sans-Serif" font-size="10.00">+ GetObjectCasted()</text>
<text text-anchor="start" x="340" y="-189.5" font-family="Helvetica,sans-Serif" font-size="10.00">+ StaticClass()</text>
</a>
</g>
</g>
<!-- Node5&#45;&gt;Node4 -->
<g id="edge4" class="edge">
<title>Node5&#45;&gt;Node4</title>
<path fill="none" stroke="midnightblue" d="M323.06,-355.44C249.73,-397.6 166,-465.73 166,-557 166,-923 166,-923 166,-923 166,-968.8 171.08,-1021.86 174.63,-1053.36"/>
<polygon fill="none" stroke="midnightblue" points="324.96,-358.38 331.95,-350.42 321.52,-352.29 324.96,-358.38"/>
</g>
<!-- Node5&#45;&gt;Node5 -->
<g id="edge10" class="edge">
<title>Node5&#45;&gt;Node5</title>
<path fill="none" stroke="#404040" d="M530.01,-327.53C540.94,-323.15 548,-315.48 548,-304.5 548,-297.64 545.24,-292.07 540.51,-287.78"/>
<polygon fill="none" stroke="#404040" points="540.3,-287.66 533.09,-287.99 530.01,-281.47 537.22,-281.14 540.3,-287.66"/>
<text text-anchor="middle" x="587.5" y="-313" font-family="Helvetica,sans-Serif" font-size="10.00"> +Outer</text>
<text text-anchor="middle" x="587.5" y="-302" font-family="Helvetica,sans-Serif" font-size="10.00">+Linker</text>
<text text-anchor="middle" x="587.5" y="-291" font-family="Helvetica,sans-Serif" font-size="10.00">+ObjectArchetype</text>
</g>
<!-- Node11 -->
<g id="node11" class="node">
<title>Node11</title>
<g id="a_node11"><a xlink:href="../../d3/d79/classSDK_1_1TArray.html" target="_top" xlink:title=" ">
<polygon fill="white" stroke="black" points="424.5,-0.5 424.5,-134.5 585.5,-134.5 585.5,-0.5 424.5,-0.5"/>
<text text-anchor="middle" x="505" y="-122.5" font-family="Helvetica,sans-Serif" font-size="10.00">SDK::TArray&lt; SDK::UObject * &gt;</text>
<polyline fill="none" stroke="black" points="424.5,-115.5 585.5,-115.5 "/>
<text text-anchor="start" x="432.5" y="-103.5" font-family="Helvetica,sans-Serif" font-size="10.00">&#45; Count</text>
<text text-anchor="start" x="432.5" y="-92.5" font-family="Helvetica,sans-Serif" font-size="10.00">&#45; Max</text>
<polyline fill="none" stroke="black" points="424.5,-85.5 585.5,-85.5 "/>
<text text-anchor="start" x="432.5" y="-73.5" font-family="Helvetica,sans-Serif" font-size="10.00">+ TArray()</text>
<text text-anchor="start" x="432.5" y="-62.5" font-family="Helvetica,sans-Serif" font-size="10.00">+ Num()</text>
<text text-anchor="start" x="432.5" y="-51.5" font-family="Helvetica,sans-Serif" font-size="10.00">+ operator[]()</text>
<text text-anchor="start" x="432.5" y="-40.5" font-family="Helvetica,sans-Serif" font-size="10.00">+ operator[]()</text>
<text text-anchor="start" x="432.5" y="-29.5" font-family="Helvetica,sans-Serif" font-size="10.00">+ IsValidIndex()</text>
<text text-anchor="start" x="432.5" y="-18.5" font-family="Helvetica,sans-Serif" font-size="10.00">+ GetByIndex()</text>
<text text-anchor="start" x="432.5" y="-7.5" font-family="Helvetica,sans-Serif" font-size="10.00">+ GetByIndex()</text>
</a>
</g>
</g>
<!-- Node5&#45;&gt;Node11 -->
<g id="edge12" class="edge">
<title>Node5&#45;&gt;Node11</title>
<path fill="none" stroke="#404040" d="M477.2,-182.47C479.23,-176.25 481.18,-170.07 483,-164 484.73,-158.24 486.4,-152.25 488,-146.2"/>
<polygon fill="none" stroke="#404040" points="488,-146.18 485.61,-139.38 490.97,-134.55 493.36,-141.36 488,-146.18"/>
<text text-anchor="middle" x="500" y="-156" font-family="Helvetica,sans-Serif" font-size="10.00"> &#45;Data</text>
</g>
<!-- Node13 -->
<g id="node13" class="node">
<title>Node13</title>
<g id="a_node13"><a xlink:href="../../d7/d85/classSDK_1_1UClass.html" target="_top" xlink:title=" ">
<polygon fill="white" stroke="black" points="194.5,-513 194.5,-603 315.5,-603 315.5,-513 194.5,-513"/>
<text text-anchor="middle" x="255" y="-591" font-family="Helvetica,sans-Serif" font-size="10.00">SDK::UClass</text>
<polyline fill="none" stroke="black" points="194.5,-584 315.5,-584 "/>
<text text-anchor="start" x="202.5" y="-572" font-family="Helvetica,sans-Serif" font-size="10.00">+ UnknownData00</text>
<text text-anchor="start" x="202.5" y="-561" font-family="Helvetica,sans-Serif" font-size="10.00">+ UnknownData01</text>
<polyline fill="none" stroke="black" points="194.5,-554 315.5,-554 "/>
<text text-anchor="start" x="202.5" y="-542" font-family="Helvetica,sans-Serif" font-size="10.00">+ CreateDefaultObject()</text>
<text text-anchor="start" x="202.5" y="-531" font-family="Helvetica,sans-Serif" font-size="10.00">+ CreateDefaultObject()</text>
<text text-anchor="start" x="202.5" y="-520" font-family="Helvetica,sans-Serif" font-size="10.00">+ StaticClass()</text>
</a>
</g>
</g>
<!-- Node5&#45;&gt;Node13 -->
<g id="edge20" class="edge">
<title>Node5&#45;&gt;Node13</title>
<path fill="none" stroke="#404040" d="M331.85,-414.6C324.13,-424.63 316.73,-434.85 310,-445 303.13,-455.36 291.37,-478.92 280.49,-501.78"/>
<polygon fill="none" stroke="#404040" points="280.37,-502.04 281.42,-509.17 275.24,-512.89 274.19,-505.75 280.37,-502.04"/>
<text text-anchor="middle" x="357.5" y="-459" font-family="Helvetica,sans-Serif" font-size="10.00"> +ClassDefaultObject</text>
</g>
<!-- Node6 -->
<g id="node6" class="node">
<title>Node6</title>
<g id="a_node6"><a xlink:href="../../d0/d22/structSDK_1_1FQWord.html" target="_top" xlink:title=" ">
<polygon fill="white" stroke="black" points="459,-524 459,-592 539,-592 539,-524 459,-524"/>
<text text-anchor="middle" x="499" y="-580" font-family="Helvetica,sans-Serif" font-size="10.00">SDK::FQWord</text>
<polyline fill="none" stroke="black" points="459,-573 539,-573 "/>
<text text-anchor="start" x="467" y="-561" font-family="Helvetica,sans-Serif" font-size="10.00">+ A</text>
<text text-anchor="start" x="467" y="-550" font-family="Helvetica,sans-Serif" font-size="10.00">+ B</text>
<polyline fill="none" stroke="black" points="459,-543 539,-543 "/>
<text text-anchor="middle" x="499" y="-531" font-family="Helvetica,sans-Serif" font-size="10.00"> </text>
</a>
</g>
</g>
<!-- Node6&#45;&gt;Node5 -->
<g id="edge5" class="edge">
<title>Node6&#45;&gt;Node5</title>
<path fill="none" stroke="#404040" d="M490.04,-523.86C483.99,-501.47 475.55,-470.28 466.95,-438.48"/>
<polygon fill="none" stroke="#404040" points="466.92,-438.33 461.49,-433.59 463.78,-426.75 469.21,-431.5 466.92,-438.33"/>
<text text-anchor="middle" x="509" y="-459" font-family="Helvetica,sans-Serif" font-size="10.00"> +ObjectFlags</text>
</g>
<!-- Node7 -->
<g id="node7" class="node">
<title>Node7</title>
<g id="a_node7"><a xlink:href="../../d0/db6/structSDK_1_1FName.html" target="_top" xlink:title=" ">
<polygon fill="white" stroke="black" points="333.5,-496.5 333.5,-619.5 440.5,-619.5 440.5,-496.5 333.5,-496.5"/>
<text text-anchor="middle" x="387" y="-607.5" font-family="Helvetica,sans-Serif" font-size="10.00">SDK::FName</text>
<polyline fill="none" stroke="black" points="333.5,-600.5 440.5,-600.5 "/>
<text text-anchor="start" x="341.5" y="-588.5" font-family="Helvetica,sans-Serif" font-size="10.00">+ Index</text>
<text text-anchor="start" x="341.5" y="-577.5" font-family="Helvetica,sans-Serif" font-size="10.00">+ Number</text>
<polyline fill="none" stroke="black" points="333.5,-570.5 440.5,-570.5 "/>
<text text-anchor="start" x="341.5" y="-558.5" font-family="Helvetica,sans-Serif" font-size="10.00">+ FName()</text>
<text text-anchor="start" x="341.5" y="-547.5" font-family="Helvetica,sans-Serif" font-size="10.00">+ FName()</text>
<text text-anchor="start" x="341.5" y="-536.5" font-family="Helvetica,sans-Serif" font-size="10.00">+ FName()</text>
<text text-anchor="start" x="341.5" y="-525.5" font-family="Helvetica,sans-Serif" font-size="10.00">+ GetName()</text>
<text text-anchor="start" x="341.5" y="-514.5" font-family="Helvetica,sans-Serif" font-size="10.00">+ operator==()</text>
<text text-anchor="start" x="341.5" y="-503.5" font-family="Helvetica,sans-Serif" font-size="10.00">+ GetGlobalNames()</text>
</a>
</g>
</g>
<!-- Node7&#45;&gt;Node5 -->
<g id="edge6" class="edge">
<title>Node7&#45;&gt;Node5</title>
<path fill="none" stroke="#404040" d="M404.83,-496.4C406.36,-490.21 407.79,-484 409,-478 411.56,-465.31 413.88,-452.04 415.97,-438.72"/>
<polygon fill="none" stroke="#404040" points="416.03,-438.37 412.97,-431.84 417.82,-426.5 420.88,-433.04 416.03,-438.37"/>
<text text-anchor="middle" x="433" y="-459" font-family="Helvetica,sans-Serif" font-size="10.00"> +Name</text>
</g>
<!-- Node8 -->
<g id="node8" class="node">
<title>Node8</title>
<g id="a_node8"><a xlink:href="../../d3/d79/classSDK_1_1TArray.html" target="_top" xlink:title=" ">
<polygon fill="white" stroke="black" points="343,-667.5 343,-801.5 523,-801.5 523,-667.5 343,-667.5"/>
<text text-anchor="middle" x="433" y="-789.5" font-family="Helvetica,sans-Serif" font-size="10.00">SDK::TArray&lt; SDK::FNameEntry * &gt;</text>
<polyline fill="none" stroke="black" points="343,-782.5 523,-782.5 "/>
<text text-anchor="start" x="351" y="-770.5" font-family="Helvetica,sans-Serif" font-size="10.00">&#45; Count</text>
<text text-anchor="start" x="351" y="-759.5" font-family="Helvetica,sans-Serif" font-size="10.00">&#45; Max</text>
<polyline fill="none" stroke="black" points="343,-752.5 523,-752.5 "/>
<text text-anchor="start" x="351" y="-740.5" font-family="Helvetica,sans-Serif" font-size="10.00">+ TArray()</text>
<text text-anchor="start" x="351" y="-729.5" font-family="Helvetica,sans-Serif" font-size="10.00">+ Num()</text>
<text text-anchor="start" x="351" y="-718.5" font-family="Helvetica,sans-Serif" font-size="10.00">+ operator[]()</text>
<text text-anchor="start" x="351" y="-707.5" font-family="Helvetica,sans-Serif" font-size="10.00">+ operator[]()</text>
<text text-anchor="start" x="351" y="-696.5" font-family="Helvetica,sans-Serif" font-size="10.00">+ IsValidIndex()</text>
<text text-anchor="start" x="351" y="-685.5" font-family="Helvetica,sans-Serif" font-size="10.00">+ GetByIndex()</text>
<text text-anchor="start" x="351" y="-674.5" font-family="Helvetica,sans-Serif" font-size="10.00">+ GetByIndex()</text>
</a>
</g>
</g>
<!-- Node8&#45;&gt;Node7 -->
<g id="edge7" class="edge">
<title>Node8&#45;&gt;Node7</title>
<path fill="none" stroke="#404040" d="M415.48,-667.03C412.39,-655.33 409.17,-643.1 406.04,-631.25"/>
<polygon fill="none" stroke="#404040" points="406.02,-631.16 400.62,-626.38 402.96,-619.56 408.36,-624.34 406.02,-631.16"/>
<text text-anchor="middle" x="434.5" y="-641" font-family="Helvetica,sans-Serif" font-size="10.00"> +GNames</text>
</g>
<!-- Node9 -->
<g id="node9" class="node">
<title>Node9</title>
<g id="a_node9"><a xlink:href="../../d7/ddf/classSDK_1_1FNameEntry.html" target="_top" xlink:title=" ">
<polygon fill="white" stroke="black" points="383.5,-888 383.5,-956 482.5,-956 482.5,-888 383.5,-888"/>
<text text-anchor="middle" x="433" y="-944" font-family="Helvetica,sans-Serif" font-size="10.00">SDK::FNameEntry</text>
<polyline fill="none" stroke="black" points="383.5,-937 482.5,-937 "/>
<text text-anchor="start" x="391.5" y="-925" font-family="Helvetica,sans-Serif" font-size="10.00">+ UnknownData00</text>
<text text-anchor="start" x="391.5" y="-914" font-family="Helvetica,sans-Serif" font-size="10.00">+ name</text>
<polyline fill="none" stroke="black" points="383.5,-907 482.5,-907 "/>
<text text-anchor="start" x="391.5" y="-895" font-family="Helvetica,sans-Serif" font-size="10.00">+ GetName()</text>
</a>
</g>
</g>
<!-- Node9&#45;&gt;Node8 -->
<g id="edge8" class="edge">
<title>Node9&#45;&gt;Node8</title>
<path fill="none" stroke="#404040" d="M433,-887.84C433,-867.23 433,-839.83 433,-813.95"/>
<polygon fill="none" stroke="#404040" points="433,-813.8 429,-807.8 433,-801.8 437,-807.8 433,-813.8"/>
<text text-anchor="middle" x="447" y="-823" font-family="Helvetica,sans-Serif" font-size="10.00"> &#45;Data</text>
</g>
<!-- Node10 -->
<g id="node10" class="node">
<title>Node10</title>
<g id="a_node10"><a xlink:href="../../d3/d79/classSDK_1_1TArray.html" target="_top" xlink:title=" ">
<polygon fill="white" stroke="black" points="571.5,-849.5 571.5,-994.5 668.5,-994.5 668.5,-849.5 571.5,-849.5"/>
<text text-anchor="middle" x="620" y="-982.5" font-family="Helvetica,sans-Serif" font-size="10.00">SDK::TArray&lt; T &gt;</text>
<polyline fill="none" stroke="black" points="571.5,-975.5 668.5,-975.5 "/>
<text text-anchor="start" x="579.5" y="-963.5" font-family="Helvetica,sans-Serif" font-size="10.00">&#45; Data</text>
<text text-anchor="start" x="579.5" y="-952.5" font-family="Helvetica,sans-Serif" font-size="10.00">&#45; Count</text>
<text text-anchor="start" x="579.5" y="-941.5" font-family="Helvetica,sans-Serif" font-size="10.00">&#45; Max</text>
<polyline fill="none" stroke="black" points="571.5,-934.5 668.5,-934.5 "/>
<text text-anchor="start" x="579.5" y="-922.5" font-family="Helvetica,sans-Serif" font-size="10.00">+ TArray()</text>
<text text-anchor="start" x="579.5" y="-911.5" font-family="Helvetica,sans-Serif" font-size="10.00">+ Num()</text>
<text text-anchor="start" x="579.5" y="-900.5" font-family="Helvetica,sans-Serif" font-size="10.00">+ operator[]()</text>
<text text-anchor="start" x="579.5" y="-889.5" font-family="Helvetica,sans-Serif" font-size="10.00">+ operator[]()</text>
<text text-anchor="start" x="579.5" y="-878.5" font-family="Helvetica,sans-Serif" font-size="10.00">+ IsValidIndex()</text>
<text text-anchor="start" x="579.5" y="-867.5" font-family="Helvetica,sans-Serif" font-size="10.00">+ GetByIndex()</text>
<text text-anchor="start" x="579.5" y="-856.5" font-family="Helvetica,sans-Serif" font-size="10.00">+ GetByIndex()</text>
</a>
</g>
</g>
<!-- Node10&#45;&gt;Node8 -->
<g id="edge9" class="edge">
<title>Node10&#45;&gt;Node8</title>
<path fill="none" stroke="orange" d="M564.04,-865.49C543.81,-845.42 520.76,-822.56 499.7,-801.67"/>
<polygon fill="orange" stroke="orange" points="561.79,-868.19 571.36,-872.75 566.72,-863.22 561.79,-868.19"/>
<text text-anchor="middle" x="582.5" y="-823" font-family="Helvetica,sans-Serif" font-size="10.00"> &lt; SDK::FNameEntry * &gt;</text>
</g>
<!-- Node10&#45;&gt;Node11 -->
<g id="edge13" class="edge">
<title>Node10&#45;&gt;Node11</title>
<path fill="none" stroke="orange" d="M665.46,-840.18C679.34,-808.53 691,-771.28 691,-735.5 691,-735.5 691,-735.5 691,-303.5 691,-230.92 635.77,-167.66 585.5,-125.11"/>
<polygon fill="orange" stroke="orange" points="662.23,-838.83 661.3,-849.38 668.61,-841.71 662.23,-838.83"/>
<text text-anchor="middle" x="736.5" y="-555.5" font-family="Helvetica,sans-Serif" font-size="10.00"> &lt; SDK::UObject * &gt;</text>
</g>
<!-- Node11&#45;&gt;Node5 -->
<g id="edge11" class="edge">
<title>Node11&#45;&gt;Node5</title>
<path fill="none" stroke="#404040" d="M440.91,-134.75C437.4,-140.63 434.35,-146.74 432,-153 429.93,-158.52 428.21,-164.23 426.8,-170.07"/>
<polygon fill="none" stroke="#404040" points="426.73,-170.42 429.46,-177.1 424.34,-182.18 421.62,-175.51 426.73,-170.42"/>
<text text-anchor="middle" x="457.5" y="-156" font-family="Helvetica,sans-Serif" font-size="10.00"> +GObjects</text>
</g>
<!-- Node12 -->
<g id="node12" class="node">
<title>Node12</title>
<g id="a_node12"><a xlink:href="../../d9/dfa/structSDK_1_1FPointer.html" target="_top" xlink:title=" ">
<polygon fill="white" stroke="black" points="557,-524 557,-592 655,-592 655,-524 557,-524"/>
<text text-anchor="middle" x="606" y="-580" font-family="Helvetica,sans-Serif" font-size="10.00">SDK::FPointer</text>
<polyline fill="none" stroke="black" points="557,-573 655,-573 "/>
<text text-anchor="start" x="565" y="-561" font-family="Helvetica,sans-Serif" font-size="10.00">+ Dummy</text>
<text text-anchor="start" x="565" y="-550" font-family="Helvetica,sans-Serif" font-size="10.00">+ UnknownData00</text>
<polyline fill="none" stroke="black" points="557,-543 655,-543 "/>
<text text-anchor="middle" x="606" y="-531" font-family="Helvetica,sans-Serif" font-size="10.00"> </text>
</a>
</g>
</g>
<!-- Node12&#45;&gt;Node5 -->
<g id="edge14" class="edge">
<title>Node12&#45;&gt;Node5</title>
<path fill="none" stroke="#404040" d="M589.55,-523.76C577.82,-500.99 561.15,-470.43 544,-445 541.78,-441.71 539.5,-438.39 537.17,-435.07"/>
<polygon fill="none" stroke="#404040" points="537.02,-434.87 530.28,-432.3 530.05,-425.1 536.79,-427.66 537.02,-434.87"/>
<text text-anchor="middle" x="599.5" y="-470" font-family="Helvetica,sans-Serif" font-size="10.00"> +StateFrame</text>
<text text-anchor="middle" x="599.5" y="-459" font-family="Helvetica,sans-Serif" font-size="10.00">+VfTableObject</text>
<text text-anchor="middle" x="599.5" y="-448" font-family="Helvetica,sans-Serif" font-size="10.00">+LinkerIndex</text>
</g>
<!-- Node13&#45;&gt;Node5 -->
<g id="edge15" class="edge">
<title>Node13&#45;&gt;Node5</title>
<path fill="none" stroke="#404040" d="M246.84,-512.98C244.94,-491.47 245.86,-465.8 256,-445 270.78,-414.67 295.66,-388.86 322.1,-368"/>
<polygon fill="none" stroke="#404040" points="322.35,-367.82 324.7,-361 331.9,-360.54 329.55,-367.36 322.35,-367.82"/>
<text text-anchor="middle" x="273.5" y="-459" font-family="Helvetica,sans-Serif" font-size="10.00"> +Class</text>
</g>
<!-- Node14 -->
<g id="node14" class="node">
<title>Node14</title>
<g id="a_node14"><a xlink:href="../../df/d72/classSDK_1_1UState.html" target="_top" xlink:title=" ">
<polygon fill="white" stroke="black" points="199,-706 199,-763 297,-763 297,-706 199,-706"/>
<text text-anchor="middle" x="248" y="-751" font-family="Helvetica,sans-Serif" font-size="10.00">SDK::UState</text>
<polyline fill="none" stroke="black" points="199,-744 297,-744 "/>
<text text-anchor="start" x="207" y="-732" font-family="Helvetica,sans-Serif" font-size="10.00">+ UnknownData00</text>
<polyline fill="none" stroke="black" points="199,-725 297,-725 "/>
<text text-anchor="start" x="207" y="-713" font-family="Helvetica,sans-Serif" font-size="10.00">+ StaticClass()</text>
</a>
</g>
</g>
<!-- Node14&#45;&gt;Node13 -->
<g id="edge16" class="edge">
<title>Node14&#45;&gt;Node13</title>
<path fill="none" stroke="midnightblue" d="M249.52,-695.57C250.61,-668.38 252.08,-631.68 253.23,-603.17"/>
<polygon fill="none" stroke="midnightblue" points="246.01,-695.72 249.11,-705.85 253.01,-696 246.01,-695.72"/>
</g>
<!-- Node15&#45;&gt;Node14 -->
<g id="edge17" class="edge">
<title>Node15&#45;&gt;Node14</title>
<path fill="none" stroke="midnightblue" d="M244.33,-871.71C245.26,-836.99 246.48,-791.78 247.25,-763.19"/>
<polygon fill="none" stroke="midnightblue" points="240.82,-872.02 244.05,-882.11 247.82,-872.21 240.82,-872.02"/>
</g>
</g>
</svg>
        <g id="navigator" transform="translate(0 0)" fill="#404254">
                <rect fill="#f2f5e9" fill-opacity="0.5" stroke="#606060" stroke-width=".5" x="0" y="0" width="60" height="60"/>
                <use id="zoomplus" xlink:href="#zoomPlus" x="17" y="9" onmousedown="handleZoom(evt,'in')"/>
                <use id="zoomminus" xlink:href="#zoomMin" x="42" y="9" onmousedown="handleZoom(evt,'out')"/>
                <use id="reset" xlink:href="#resetDef" x="30" y="36" onmousedown="handleReset()"/>
                <g id="arrowUp" xlink:href="#dirArrow" transform="translate(30 24)" onmousedown="handlePan(0,-1)">
                  <use xlink:href="#rim" fill="#404040">
                        <set attributeName="fill" to="#808080" begin="arrowUp.mouseover" end="arrowUp.mouseout"/>
                  </use>
                  <path fill="none" stroke="white" stroke-width="1.5" d="M0,-3.0v7 M-2.5,-0.5L0,-3.0L2.5,-0.5"/>
                </g>
                <g id="arrowRight" xlink:href="#dirArrow" transform="rotate(90) translate(36 -43)" onmousedown="handlePan(1,0)">
                  <use xlink:href="#rim" fill="#404040">
                        <set attributeName="fill" to="#808080" begin="arrowRight.mouseover" end="arrowRight.mouseout"/>
                  </use>
                  <path fill="none" stroke="white" stroke-width="1.5" d="M0,-3.0v7 M-2.5,-0.5L0,-3.0L2.5,-0.5"/>
                </g>
                <g id="arrowDown" xlink:href="#dirArrow" transform="rotate(180) translate(-30 -48)" onmousedown="handlePan(0,1)">
                  <use xlink:href="#rim" fill="#404040">
                        <set attributeName="fill" to="#808080" begin="arrowDown.mouseover" end="arrowDown.mouseout"/>
                  </use>
                  <path fill="none" stroke="white" stroke-width="1.5" d="M0,-3.0v7 M-2.5,-0.5L0,-3.0L2.5,-0.5"/>
                </g>
                <g id="arrowLeft" xlink:href="#dirArrow" transform="rotate(270) translate(-36 17)" onmousedown="handlePan(-1,0)">
                  <use xlink:href="#rim" fill="#404040">
                        <set attributeName="fill" to="#808080" begin="arrowLeft.mouseover" end="arrowLeft.mouseout"/>
                  </use>
                  <path fill="none" stroke="white" stroke-width="1.5" d="M0,-3.0v7 M-2.5,-0.5L0,-3.0L2.5,-0.5"/>
                </g>
        </g>
        <svg viewBox="0 0 15 15" width="100%" height="30px" preserveAspectRatio="xMaxYMin meet">
         <g id="arrow_out" transform="scale(0.3 0.3)">
          <a xlink:href="classSDK_1_1UComponentProperty__coll__graph_org.svg" target="_base">
           <rect id="button" ry="5" rx="5" y="6" x="6" height="38" width="38"
                fill="#f2f5e9" fill-opacity="0.5" stroke="#606060" stroke-width="1.0"/>
           <path id="arrow"
             d="M 11.500037,31.436501 C 11.940474,20.09759 22.043105,11.32322 32.158766,21.979434 L 37.068811,17.246167 C 37.068811,17.246167 37.088388,32 37.088388,32 L 22.160133,31.978069 C 22.160133,31.978069 26.997745,27.140456 26.997745,27.140456 C 18.528582,18.264221 13.291696,25.230495 11.500037,31.436501 z"
             style="fill:#404040;"/>
          </a>
         </g>
        </svg>
</svg>
