<?xml version="1.0" encoding="UTF-8" standalone="no"?>
<!DOCTYPE svg PUBLIC "-//W3C//DTD SVG 1.1//EN"
 "http://www.w3.org/Graphics/SVG/1.1/DTD/svg11.dtd">
<!-- Generated by graphviz version 2.41.20171026.1811 (20171026.1811)
 -->
<!-- Title: SDK::UEFAN_Params Pages: 1 -->
<svg width="274pt" height="650pt"
 viewBox="0.00 0.00 274.00 650.00" xmlns="http://www.w3.org/2000/svg" xmlns:xlink="http://www.w3.org/1999/xlink">
<g id="graph0" class="graph" transform="scale(1 1) rotate(0) translate(4 646)">
<title>SDK::UEFAN_Params</title>
<polygon fill="white" stroke="transparent" points="-4,4 -4,-646 270,-646 270,4 -4,4"/>
<!-- Node1 -->
<g id="node1" class="node">
<title>Node1</title>
<g id="a_node1"><a xlink:title=" ">
<polygon fill="#bfbfbf" stroke="black" points="74.5,-160.5 74.5,-250.5 191.5,-250.5 191.5,-160.5 74.5,-160.5"/>
<text text-anchor="middle" x="133" y="-238.5" font-family="Helvetica,sans-Serif" font-size="10.00">SDK::UEFAN_Params</text>
<polyline fill="none" stroke="black" points="74.5,-231.5 191.5,-231.5 "/>
<text text-anchor="start" x="82.5" y="-219.5" font-family="Helvetica,sans-Serif" font-size="10.00">+ Desc</text>
<text text-anchor="start" x="82.5" y="-208.5" font-family="Helvetica,sans-Serif" font-size="10.00">+ IsActive</text>
<text text-anchor="start" x="82.5" y="-197.5" font-family="Helvetica,sans-Serif" font-size="10.00">+ StartTime</text>
<text text-anchor="start" x="82.5" y="-186.5" font-family="Helvetica,sans-Serif" font-size="10.00">+ InterpTime</text>
<polyline fill="none" stroke="black" points="74.5,-179.5 191.5,-179.5 "/>
<text text-anchor="start" x="82.5" y="-167.5" font-family="Helvetica,sans-Serif" font-size="10.00">+ StaticClass()</text>
</a>
</g>
</g>
<!-- Node3 -->
<g id="node3" class="node">
<title>Node3</title>
<g id="a_node3"><a xlink:href="../../da/d24/classSDK_1_1UEFAN__Particle.html" target="_top" xlink:title=" ">
<polygon fill="white" stroke="black" points="0,-6 0,-118 124,-118 124,-6 0,-6"/>
<text text-anchor="middle" x="62" y="-106" font-family="Helvetica,sans-Serif" font-size="10.00">SDK::UEFAN_Particle</text>
<polyline fill="none" stroke="black" points="0,-99 124,-99 "/>
<text text-anchor="start" x="8" y="-87" font-family="Helvetica,sans-Serif" font-size="10.00">+ LookInfoKey</text>
<text text-anchor="start" x="8" y="-76" font-family="Helvetica,sans-Serif" font-size="10.00">+ RelativeSpawnTime</text>
<text text-anchor="start" x="8" y="-65" font-family="Helvetica,sans-Serif" font-size="10.00">+ DurationTime</text>
<text text-anchor="start" x="8" y="-54" font-family="Helvetica,sans-Serif" font-size="10.00">+ ParticleInfo</text>
<text text-anchor="start" x="8" y="-43" font-family="Helvetica,sans-Serif" font-size="10.00">+ ParticleDataInfo</text>
<text text-anchor="start" x="8" y="-32" font-family="Helvetica,sans-Serif" font-size="10.00">+ bSkipIfOwnerIsHidden</text>
<polyline fill="none" stroke="black" points="0,-25 124,-25 "/>
<text text-anchor="start" x="8" y="-13" font-family="Helvetica,sans-Serif" font-size="10.00">+ StaticClass()</text>
</a>
</g>
</g>
<!-- Node1&#45;&gt;Node3 -->
<g id="edge2" class="edge">
<title>Node1&#45;&gt;Node3</title>
<path fill="none" stroke="midnightblue" d="M106.1,-150.89C100.73,-140.19 95.08,-128.93 89.69,-118.19"/>
<polygon fill="none" stroke="midnightblue" points="103.12,-152.75 110.73,-160.12 109.37,-149.61 103.12,-152.75"/>
</g>
<!-- Node4 -->
<g id="node4" class="node">
<title>Node4</title>
<g id="a_node4"><a xlink:href="../../d1/d37/classSDK_1_1UEFAN__Trail.html" target="_top" xlink:title=" ">
<polygon fill="white" stroke="black" points="142,-0.5 142,-123.5 266,-123.5 266,-0.5 142,-0.5"/>
<text text-anchor="middle" x="204" y="-111.5" font-family="Helvetica,sans-Serif" font-size="10.00">SDK::UEFAN_Trail</text>
<polyline fill="none" stroke="black" points="142,-104.5 266,-104.5 "/>
<text text-anchor="start" x="150" y="-92.5" font-family="Helvetica,sans-Serif" font-size="10.00">+ RelativeSpawnTime</text>
<text text-anchor="start" x="150" y="-81.5" font-family="Helvetica,sans-Serif" font-size="10.00">+ Duration</text>
<text text-anchor="start" x="150" y="-70.5" font-family="Helvetica,sans-Serif" font-size="10.00">+ AnimTrails</text>
<text text-anchor="start" x="150" y="-59.5" font-family="Helvetica,sans-Serif" font-size="10.00">+ TrailParts</text>
<text text-anchor="start" x="150" y="-48.5" font-family="Helvetica,sans-Serif" font-size="10.00">+ UnknownData00</text>
<text text-anchor="start" x="150" y="-37.5" font-family="Helvetica,sans-Serif" font-size="10.00">+ TrailPartsIndex</text>
<text text-anchor="start" x="150" y="-26.5" font-family="Helvetica,sans-Serif" font-size="10.00">+ bSkipIfOwnerIsHidden</text>
<polyline fill="none" stroke="black" points="142,-19.5 266,-19.5 "/>
<text text-anchor="start" x="150" y="-7.5" font-family="Helvetica,sans-Serif" font-size="10.00">+ StaticClass()</text>
</a>
</g>
</g>
<!-- Node1&#45;&gt;Node4 -->
<g id="edge3" class="edge">
<title>Node1&#45;&gt;Node4</title>
<path fill="none" stroke="midnightblue" d="M159.87,-150.96C164.36,-142.01 169.04,-132.67 173.61,-123.56"/>
<polygon fill="none" stroke="midnightblue" points="156.63,-149.61 155.27,-160.12 162.88,-152.75 156.63,-149.61"/>
</g>
<!-- Node2 -->
<g id="node2" class="node">
<title>Node2</title>
<g id="a_node2"><a xlink:href="../../d9/d45/classSDK_1_1UObject.html" target="_top" xlink:title=" ">
<polygon fill="white" stroke="black" points="34,-287.5 34,-641.5 232,-641.5 232,-287.5 34,-287.5"/>
<text text-anchor="middle" x="133" y="-629.5" font-family="Helvetica,sans-Serif" font-size="10.00">SDK::UObject</text>
<polyline fill="none" stroke="black" points="34,-622.5 232,-622.5 "/>
<text text-anchor="start" x="42" y="-610.5" font-family="Helvetica,sans-Serif" font-size="10.00">+ VfTableObject</text>
<text text-anchor="start" x="42" y="-599.5" font-family="Helvetica,sans-Serif" font-size="10.00">+ ObjectFlags</text>
<text text-anchor="start" x="42" y="-588.5" font-family="Helvetica,sans-Serif" font-size="10.00">+ StateFrame</text>
<text text-anchor="start" x="42" y="-577.5" font-family="Helvetica,sans-Serif" font-size="10.00">+ Linker</text>
<text text-anchor="start" x="42" y="-566.5" font-family="Helvetica,sans-Serif" font-size="10.00">+ LinkerIndex</text>
<text text-anchor="start" x="42" y="-555.5" font-family="Helvetica,sans-Serif" font-size="10.00">+ ObjectInternalInteger</text>
<text text-anchor="start" x="42" y="-544.5" font-family="Helvetica,sans-Serif" font-size="10.00">+ NetIndex</text>
<text text-anchor="start" x="42" y="-533.5" font-family="Helvetica,sans-Serif" font-size="10.00">+ Outer</text>
<text text-anchor="start" x="42" y="-522.5" font-family="Helvetica,sans-Serif" font-size="10.00">+ Name</text>
<text text-anchor="start" x="42" y="-511.5" font-family="Helvetica,sans-Serif" font-size="10.00">+ Class</text>
<text text-anchor="start" x="42" y="-500.5" font-family="Helvetica,sans-Serif" font-size="10.00">+ ObjectArchetype</text>
<text text-anchor="start" x="42" y="-489.5" font-family="Helvetica,sans-Serif" font-size="10.00">+ GObjects</text>
<polyline fill="none" stroke="black" points="34,-482.5 232,-482.5 "/>
<text text-anchor="start" x="42" y="-470.5" font-family="Helvetica,sans-Serif" font-size="10.00">+ UObject::GetName()</text>
<text text-anchor="start" x="42" y="-459.5" font-family="Helvetica,sans-Serif" font-size="10.00">+ GetFullName()</text>
<text text-anchor="start" x="42" y="-448.5" font-family="Helvetica,sans-Serif" font-size="10.00">+ IsA()</text>
<text text-anchor="start" x="42" y="-437.5" font-family="Helvetica,sans-Serif" font-size="10.00">+ ProcessEvent()</text>
<text text-anchor="start" x="42" y="-426.5" font-family="Helvetica,sans-Serif" font-size="10.00">+ STATIC_ProfNodeEvent()</text>
<text text-anchor="start" x="42" y="-415.5" font-family="Helvetica,sans-Serif" font-size="10.00">+ STATIC_ProfNodeSetDepthThreshold()</text>
<text text-anchor="start" x="42" y="-404.5" font-family="Helvetica,sans-Serif" font-size="10.00">+ STATIC_ProfNodeSetTimeThreshold</text>
<text text-anchor="start" x="42" y="-393.5" font-family="Helvetica,sans-Serif" font-size="10.00">Seconds()</text>
<text text-anchor="start" x="42" y="-382.5" font-family="Helvetica,sans-Serif" font-size="10.00">+ STATIC_ProfNodeStop()</text>
<text text-anchor="start" x="42" y="-371.5" font-family="Helvetica,sans-Serif" font-size="10.00">+ STATIC_ProfNodeStart()</text>
<text text-anchor="start" x="42" y="-360.5" font-family="Helvetica,sans-Serif" font-size="10.00">+ STATIC_GetStringFromGuid()</text>
<text text-anchor="start" x="42" y="-349.5" font-family="Helvetica,sans-Serif" font-size="10.00">and 298 more...</text>
<text text-anchor="start" x="42" y="-338.5" font-family="Helvetica,sans-Serif" font-size="10.00">+ GetGlobalObjects()</text>
<text text-anchor="start" x="42" y="-327.5" font-family="Helvetica,sans-Serif" font-size="10.00">+ FindObject()</text>
<text text-anchor="start" x="42" y="-316.5" font-family="Helvetica,sans-Serif" font-size="10.00">+ FindClass()</text>
<text text-anchor="start" x="42" y="-305.5" font-family="Helvetica,sans-Serif" font-size="10.00">+ GetObjectCasted()</text>
<text text-anchor="start" x="42" y="-294.5" font-family="Helvetica,sans-Serif" font-size="10.00">+ StaticClass()</text>
</a>
</g>
</g>
<!-- Node2&#45;&gt;Node1 -->
<g id="edge1" class="edge">
<title>Node2&#45;&gt;Node1</title>
<path fill="none" stroke="midnightblue" d="M133,-277.43C133,-267.97 133,-259.04 133,-250.91"/>
<polygon fill="none" stroke="midnightblue" points="129.5,-277.46 133,-287.46 136.5,-277.46 129.5,-277.46"/>
</g>
</g>
</svg>
