<?xml version="1.0" encoding="UTF-8" standalone="no"?>
<!DOCTYPE svg PUBLIC "-//W3C//DTD SVG 1.1//EN"
 "http://www.w3.org/Graphics/SVG/1.1/DTD/svg11.dtd">
<!-- Generated by graphviz version 2.41.20171026.1811 (20171026.1811)
 -->
<!-- Title: SDK::UPath_WithinDistanceEnvelope Pages: 1 -->
<!--zoomable 1441 -->
<svg id="main" version="1.1" xmlns="http://www.w3.org/2000/svg" xmlns:xlink="http://www.w3.org/1999/xlink" xml:space="preserve" onload="init(evt)">
<style type="text/css"><![CDATA[
.edge:hover path { stroke: red; }
.edge:hover polygon { stroke: red; fill: red; }
]]></style>
<script type="text/javascript"><![CDATA[
var edges = document.getElementsByTagName('g');
if (edges && edges.length) {
  for (var i=0;i<edges.length;i++) {
    if (edges[i].id.substr(0,4)=='edge') {
      edges[i].setAttribute('class','edge');
    }
  }
}
]]></script>
        <defs>
                <circle id="rim" cx="0" cy="0" r="7"/>
                <circle id="rim2" cx="0" cy="0" r="3.5"/>
                <g id="zoomPlus">
                        <use xlink:href="#rim" fill="#404040">
                                <set attributeName="fill" to="#808080" begin="zoomplus.mouseover" end="zoomplus.mouseout"/>
                        </use>
                        <path d="M-4,0h8M0,-4v8" fill="none" stroke="white" stroke-width="1.5" pointer-events="none"/>
                </g>
                <g id="zoomMin">
                        <use xlink:href="#rim" fill="#404040">
                                <set attributeName="fill" to="#808080" begin="zoomminus.mouseover" end="zoomminus.mouseout"/>
                        </use>
                        <path d="M-4,0h8" fill="none" stroke="white" stroke-width="1.5" pointer-events="none"/>
                </g>
                <g id="dirArrow">
                        <path fill="none" stroke="white" stroke-width="1.5" d="M0,-3.0v7 M-2.5,-0.5L0,-3.0L2.5,-0.5"/>
                </g>
               <g id="resetDef">
                       <use xlink:href="#rim2" fill="#404040">
                               <set attributeName="fill" to="#808080" begin="reset.mouseover" end="reset.mouseout"/>
                       </use>
               </g>
        </defs>

<script type="text/javascript">
var viewWidth = 813;
var viewHeight = 1441;
var sectionId = 'dynsection-1';
</script>
<script xlink:href="../../svgpan.js"/>
<svg id="graph" class="graph">
<g id="viewport">
<title>SDK::UPath_WithinDistanceEnvelope</title>
<polygon fill="white" stroke="transparent" points="-4,4 -4,-1437 809,-1437 809,4 -4,4"/>
<!-- Node1 -->
<g id="node1" class="node">
<title>Node1</title>
<g id="a_node1"><a xlink:title=" ">
<polygon fill="#bfbfbf" stroke="black" points="190.5,-223.5 190.5,-379.5 358.5,-379.5 358.5,-223.5 190.5,-223.5"/>
<text text-anchor="start" x="198.5" y="-367.5" font-family="Helvetica,sans-Serif" font-size="10.00">SDK::UPath_WithinDistance</text>
<text text-anchor="middle" x="274.5" y="-356.5" font-family="Helvetica,sans-Serif" font-size="10.00">Envelope</text>
<polyline fill="none" stroke="black" points="190.5,-349.5 358.5,-349.5 "/>
<text text-anchor="start" x="198.5" y="-337.5" font-family="Helvetica,sans-Serif" font-size="10.00">+ MaxDistance</text>
<text text-anchor="start" x="198.5" y="-326.5" font-family="Helvetica,sans-Serif" font-size="10.00">+ MinDistance</text>
<text text-anchor="start" x="198.5" y="-315.5" font-family="Helvetica,sans-Serif" font-size="10.00">+ bSoft</text>
<text text-anchor="start" x="198.5" y="-304.5" font-family="Helvetica,sans-Serif" font-size="10.00">+ bOnlyThrowOutNodesThatLeave</text>
<text text-anchor="start" x="198.5" y="-293.5" font-family="Helvetica,sans-Serif" font-size="10.00">Envelope</text>
<text text-anchor="start" x="198.5" y="-282.5" font-family="Helvetica,sans-Serif" font-size="10.00">+ SoftStartPenalty</text>
<polyline fill="none" stroke="black" points="190.5,-275.5 358.5,-275.5 "/>
<text text-anchor="start" x="198.5" y="-263.5" font-family="Helvetica,sans-Serif" font-size="10.00">+ Recycle()</text>
<text text-anchor="start" x="198.5" y="-252.5" font-family="Helvetica,sans-Serif" font-size="10.00">+ STATIC_StayWithinEnvelope</text>
<text text-anchor="start" x="198.5" y="-241.5" font-family="Helvetica,sans-Serif" font-size="10.00">ToLoc()</text>
<text text-anchor="start" x="198.5" y="-230.5" font-family="Helvetica,sans-Serif" font-size="10.00">+ StaticClass()</text>
</a>
</g>
</g>
<!-- Node2 -->
<g id="node2" class="node">
<title>Node2</title>
<g id="a_node2"><a xlink:href="../../db/d23/classSDK_1_1UPathConstraint.html" target="_top" xlink:title=" ">
<polygon fill="white" stroke="black" points="275.5,-466 275.5,-545 391.5,-545 391.5,-466 275.5,-466"/>
<text text-anchor="middle" x="333.5" y="-533" font-family="Helvetica,sans-Serif" font-size="10.00">SDK::UPathConstraint</text>
<polyline fill="none" stroke="black" points="275.5,-526 391.5,-526 "/>
<text text-anchor="start" x="283.5" y="-514" font-family="Helvetica,sans-Serif" font-size="10.00">+ CacheIdx</text>
<polyline fill="none" stroke="black" points="275.5,-507 391.5,-507 "/>
<text text-anchor="start" x="283.5" y="-495" font-family="Helvetica,sans-Serif" font-size="10.00">+ GetDumpString()</text>
<text text-anchor="start" x="283.5" y="-484" font-family="Helvetica,sans-Serif" font-size="10.00">+ Recycle()</text>
<text text-anchor="start" x="283.5" y="-473" font-family="Helvetica,sans-Serif" font-size="10.00">+ StaticClass()</text>
</a>
</g>
</g>
<!-- Node2&#45;&gt;Node1 -->
<g id="edge1" class="edge">
<title>Node2&#45;&gt;Node1</title>
<path fill="none" stroke="midnightblue" d="M327.77,-455.89C324.97,-437.53 320.98,-416.59 315.5,-398 313.72,-391.94 311.65,-385.76 309.42,-379.59"/>
<polygon fill="none" stroke="midnightblue" points="324.31,-456.41 329.22,-465.8 331.24,-455.4 324.31,-456.41"/>
</g>
<!-- Node2&#45;&gt;Node2 -->
<g id="edge21" class="edge">
<title>Node2&#45;&gt;Node2</title>
<path fill="none" stroke="#404040" d="M391.81,-521.39C402.23,-519.32 409.5,-514.03 409.5,-505.5 409.5,-500.57 407.07,-496.72 403.01,-493.95"/>
<polygon fill="none" stroke="#404040" points="403,-493.95 395.96,-495.51 391.81,-489.61 398.85,-488.05 403,-493.95"/>
<text text-anchor="middle" x="447.5" y="-503" font-family="Helvetica,sans-Serif" font-size="10.00"> +NextConstraint</text>
</g>
<!-- Node3 -->
<g id="node3" class="node">
<title>Node3</title>
<g id="a_node3"><a xlink:href="../../d9/d45/classSDK_1_1UObject.html" target="_top" xlink:title=" ">
<polygon fill="white" stroke="black" points="266.5,-620.5 266.5,-864.5 464.5,-864.5 464.5,-620.5 266.5,-620.5"/>
<text text-anchor="middle" x="365.5" y="-852.5" font-family="Helvetica,sans-Serif" font-size="10.00">SDK::UObject</text>
<polyline fill="none" stroke="black" points="266.5,-845.5 464.5,-845.5 "/>
<text text-anchor="start" x="274.5" y="-833.5" font-family="Helvetica,sans-Serif" font-size="10.00">+ ObjectInternalInteger</text>
<text text-anchor="start" x="274.5" y="-822.5" font-family="Helvetica,sans-Serif" font-size="10.00">+ NetIndex</text>
<polyline fill="none" stroke="black" points="266.5,-815.5 464.5,-815.5 "/>
<text text-anchor="start" x="274.5" y="-803.5" font-family="Helvetica,sans-Serif" font-size="10.00">+ UObject::GetName()</text>
<text text-anchor="start" x="274.5" y="-792.5" font-family="Helvetica,sans-Serif" font-size="10.00">+ GetFullName()</text>
<text text-anchor="start" x="274.5" y="-781.5" font-family="Helvetica,sans-Serif" font-size="10.00">+ IsA()</text>
<text text-anchor="start" x="274.5" y="-770.5" font-family="Helvetica,sans-Serif" font-size="10.00">+ ProcessEvent()</text>
<text text-anchor="start" x="274.5" y="-759.5" font-family="Helvetica,sans-Serif" font-size="10.00">+ STATIC_ProfNodeEvent()</text>
<text text-anchor="start" x="274.5" y="-748.5" font-family="Helvetica,sans-Serif" font-size="10.00">+ STATIC_ProfNodeSetDepthThreshold()</text>
<text text-anchor="start" x="274.5" y="-737.5" font-family="Helvetica,sans-Serif" font-size="10.00">+ STATIC_ProfNodeSetTimeThreshold</text>
<text text-anchor="start" x="274.5" y="-726.5" font-family="Helvetica,sans-Serif" font-size="10.00">Seconds()</text>
<text text-anchor="start" x="274.5" y="-715.5" font-family="Helvetica,sans-Serif" font-size="10.00">+ STATIC_ProfNodeStop()</text>
<text text-anchor="start" x="274.5" y="-704.5" font-family="Helvetica,sans-Serif" font-size="10.00">+ STATIC_ProfNodeStart()</text>
<text text-anchor="start" x="274.5" y="-693.5" font-family="Helvetica,sans-Serif" font-size="10.00">+ STATIC_GetStringFromGuid()</text>
<text text-anchor="start" x="274.5" y="-682.5" font-family="Helvetica,sans-Serif" font-size="10.00">and 298 more...</text>
<text text-anchor="start" x="274.5" y="-671.5" font-family="Helvetica,sans-Serif" font-size="10.00">+ GetGlobalObjects()</text>
<text text-anchor="start" x="274.5" y="-660.5" font-family="Helvetica,sans-Serif" font-size="10.00">+ FindObject()</text>
<text text-anchor="start" x="274.5" y="-649.5" font-family="Helvetica,sans-Serif" font-size="10.00">+ FindClass()</text>
<text text-anchor="start" x="274.5" y="-638.5" font-family="Helvetica,sans-Serif" font-size="10.00">+ GetObjectCasted()</text>
<text text-anchor="start" x="274.5" y="-627.5" font-family="Helvetica,sans-Serif" font-size="10.00">+ StaticClass()</text>
</a>
</g>
</g>
<!-- Node3&#45;&gt;Node2 -->
<g id="edge2" class="edge">
<title>Node3&#45;&gt;Node2</title>
<path fill="none" stroke="midnightblue" d="M347.6,-610.01C344.36,-586.29 341.24,-563.34 338.76,-545.1"/>
<polygon fill="none" stroke="midnightblue" points="344.17,-610.78 348.98,-620.21 351.1,-609.83 344.17,-610.78"/>
</g>
<!-- Node3&#45;&gt;Node3 -->
<g id="edge8" class="edge">
<title>Node3&#45;&gt;Node3</title>
<path fill="none" stroke="#404040" d="M464.51,-765.53C475.44,-761.15 482.5,-753.48 482.5,-742.5 482.5,-735.64 479.74,-730.07 475.01,-725.78"/>
<polygon fill="none" stroke="#404040" points="474.8,-725.66 467.59,-725.99 464.51,-719.47 471.72,-719.14 474.8,-725.66"/>
<text text-anchor="middle" x="522" y="-751" font-family="Helvetica,sans-Serif" font-size="10.00"> +Outer</text>
<text text-anchor="middle" x="522" y="-740" font-family="Helvetica,sans-Serif" font-size="10.00">+Linker</text>
<text text-anchor="middle" x="522" y="-729" font-family="Helvetica,sans-Serif" font-size="10.00">+ObjectArchetype</text>
</g>
<!-- Node9 -->
<g id="node9" class="node">
<title>Node9</title>
<g id="a_node9"><a xlink:href="../../d3/d79/classSDK_1_1TArray.html" target="_top" xlink:title=" ">
<polygon fill="white" stroke="black" points="0,-438.5 0,-572.5 161,-572.5 161,-438.5 0,-438.5"/>
<text text-anchor="middle" x="80.5" y="-560.5" font-family="Helvetica,sans-Serif" font-size="10.00">SDK::TArray&lt; SDK::UObject * &gt;</text>
<polyline fill="none" stroke="black" points="0,-553.5 161,-553.5 "/>
<text text-anchor="start" x="8" y="-541.5" font-family="Helvetica,sans-Serif" font-size="10.00">&#45; Count</text>
<text text-anchor="start" x="8" y="-530.5" font-family="Helvetica,sans-Serif" font-size="10.00">&#45; Max</text>
<polyline fill="none" stroke="black" points="0,-523.5 161,-523.5 "/>
<text text-anchor="start" x="8" y="-511.5" font-family="Helvetica,sans-Serif" font-size="10.00">+ TArray()</text>
<text text-anchor="start" x="8" y="-500.5" font-family="Helvetica,sans-Serif" font-size="10.00">+ Num()</text>
<text text-anchor="start" x="8" y="-489.5" font-family="Helvetica,sans-Serif" font-size="10.00">+ operator[]()</text>
<text text-anchor="start" x="8" y="-478.5" font-family="Helvetica,sans-Serif" font-size="10.00">+ operator[]()</text>
<text text-anchor="start" x="8" y="-467.5" font-family="Helvetica,sans-Serif" font-size="10.00">+ IsValidIndex()</text>
<text text-anchor="start" x="8" y="-456.5" font-family="Helvetica,sans-Serif" font-size="10.00">+ GetByIndex()</text>
<text text-anchor="start" x="8" y="-445.5" font-family="Helvetica,sans-Serif" font-size="10.00">+ GetByIndex()</text>
</a>
</g>
</g>
<!-- Node3&#45;&gt;Node9 -->
<g id="edge10" class="edge">
<title>Node3&#45;&gt;Node9</title>
<path fill="none" stroke="#404040" d="M266.48,-684.34C230.06,-661.08 189.65,-632.49 156.5,-602 149.7,-595.75 143.01,-588.85 136.6,-581.72"/>
<polygon fill="none" stroke="#404040" points="136.52,-581.63 129.56,-579.74 128.63,-572.59 135.59,-574.48 136.52,-581.63"/>
<text text-anchor="middle" x="170.5" y="-594" font-family="Helvetica,sans-Serif" font-size="10.00"> &#45;Data</text>
</g>
<!-- Node11 -->
<g id="node11" class="node">
<title>Node11</title>
<g id="a_node11"><a xlink:href="../../d7/d85/classSDK_1_1UClass.html" target="_top" xlink:title=" ">
<polygon fill="white" stroke="black" points="584,-0.5 584,-90.5 705,-90.5 705,-0.5 584,-0.5"/>
<text text-anchor="middle" x="644.5" y="-78.5" font-family="Helvetica,sans-Serif" font-size="10.00">SDK::UClass</text>
<polyline fill="none" stroke="black" points="584,-71.5 705,-71.5 "/>
<text text-anchor="start" x="592" y="-59.5" font-family="Helvetica,sans-Serif" font-size="10.00">+ UnknownData00</text>
<text text-anchor="start" x="592" y="-48.5" font-family="Helvetica,sans-Serif" font-size="10.00">+ UnknownData01</text>
<polyline fill="none" stroke="black" points="584,-41.5 705,-41.5 "/>
<text text-anchor="start" x="592" y="-29.5" font-family="Helvetica,sans-Serif" font-size="10.00">+ CreateDefaultObject()</text>
<text text-anchor="start" x="592" y="-18.5" font-family="Helvetica,sans-Serif" font-size="10.00">+ CreateDefaultObject()</text>
<text text-anchor="start" x="592" y="-7.5" font-family="Helvetica,sans-Serif" font-size="10.00">+ StaticClass()</text>
</a>
</g>
</g>
<!-- Node3&#45;&gt;Node11 -->
<g id="edge20" class="edge">
<title>Node3&#45;&gt;Node11</title>
<path fill="none" stroke="#404040" d="M464.63,-638.03C491.59,-599.73 513.5,-553.99 513.5,-506.5 513.5,-506.5 513.5,-506.5 513.5,-156 513.5,-120.34 542.44,-94.01 573.11,-76.12"/>
<polygon fill="none" stroke="#404040" points="573.47,-75.92 576.8,-69.53 583.98,-70.14 580.65,-76.54 573.47,-75.92"/>
<text text-anchor="middle" x="561" y="-299" font-family="Helvetica,sans-Serif" font-size="10.00"> +ClassDefaultObject</text>
</g>
<!-- Node14 -->
<g id="node14" class="node">
<title>Node14</title>
<g id="a_node14"><a xlink:href="../../de/dd6/classSDK_1_1UField.html" target="_top" xlink:title=" ">
<polygon fill="white" stroke="black" points="673,-477 673,-534 756,-534 756,-477 673,-477"/>
<text text-anchor="middle" x="714.5" y="-522" font-family="Helvetica,sans-Serif" font-size="10.00">SDK::UField</text>
<polyline fill="none" stroke="black" points="673,-515 756,-515 "/>
<text text-anchor="middle" x="714.5" y="-503" font-family="Helvetica,sans-Serif" font-size="10.00"> </text>
<polyline fill="none" stroke="black" points="673,-496 756,-496 "/>
<text text-anchor="start" x="681" y="-484" font-family="Helvetica,sans-Serif" font-size="10.00">+ StaticClass()</text>
</a>
</g>
</g>
<!-- Node3&#45;&gt;Node14 -->
<g id="edge17" class="edge">
<title>Node3&#45;&gt;Node14</title>
<path fill="none" stroke="midnightblue" d="M474.28,-707.5C533.85,-684.8 605.99,-650.18 658.5,-602 679.04,-583.16 694.27,-555.02 703.63,-534.17"/>
<polygon fill="none" stroke="midnightblue" points="472.97,-704.26 464.84,-711.05 475.43,-710.81 472.97,-704.26"/>
</g>
<!-- Node4 -->
<g id="node4" class="node">
<title>Node4</title>
<g id="a_node4"><a xlink:href="../../d0/d22/structSDK_1_1FQWord.html" target="_top" xlink:title=" ">
<polygon fill="white" stroke="black" points="432.5,-962 432.5,-1030 512.5,-1030 512.5,-962 432.5,-962"/>
<text text-anchor="middle" x="472.5" y="-1018" font-family="Helvetica,sans-Serif" font-size="10.00">SDK::FQWord</text>
<polyline fill="none" stroke="black" points="432.5,-1011 512.5,-1011 "/>
<text text-anchor="start" x="440.5" y="-999" font-family="Helvetica,sans-Serif" font-size="10.00">+ A</text>
<text text-anchor="start" x="440.5" y="-988" font-family="Helvetica,sans-Serif" font-size="10.00">+ B</text>
<polyline fill="none" stroke="black" points="432.5,-981 512.5,-981 "/>
<text text-anchor="middle" x="472.5" y="-969" font-family="Helvetica,sans-Serif" font-size="10.00"> </text>
</a>
</g>
</g>
<!-- Node4&#45;&gt;Node3 -->
<g id="edge3" class="edge">
<title>Node4&#45;&gt;Node3</title>
<path fill="none" stroke="#404040" d="M464.12,-961.6C458.04,-939.03 449.04,-908.77 438.5,-883 437.53,-880.63 436.53,-878.24 435.51,-875.85"/>
<polygon fill="none" stroke="#404040" points="435.39,-875.58 429.32,-871.69 430.57,-864.59 436.65,-868.48 435.39,-875.58"/>
<text text-anchor="middle" x="480.5" y="-897" font-family="Helvetica,sans-Serif" font-size="10.00"> +ObjectFlags</text>
</g>
<!-- Node5 -->
<g id="node5" class="node">
<title>Node5</title>
<g id="a_node5"><a xlink:href="../../d0/db6/structSDK_1_1FName.html" target="_top" xlink:title=" ">
<polygon fill="white" stroke="black" points="192,-934.5 192,-1057.5 299,-1057.5 299,-934.5 192,-934.5"/>
<text text-anchor="middle" x="245.5" y="-1045.5" font-family="Helvetica,sans-Serif" font-size="10.00">SDK::FName</text>
<polyline fill="none" stroke="black" points="192,-1038.5 299,-1038.5 "/>
<text text-anchor="start" x="200" y="-1026.5" font-family="Helvetica,sans-Serif" font-size="10.00">+ Index</text>
<text text-anchor="start" x="200" y="-1015.5" font-family="Helvetica,sans-Serif" font-size="10.00">+ Number</text>
<polyline fill="none" stroke="black" points="192,-1008.5 299,-1008.5 "/>
<text text-anchor="start" x="200" y="-996.5" font-family="Helvetica,sans-Serif" font-size="10.00">+ FName()</text>
<text text-anchor="start" x="200" y="-985.5" font-family="Helvetica,sans-Serif" font-size="10.00">+ FName()</text>
<text text-anchor="start" x="200" y="-974.5" font-family="Helvetica,sans-Serif" font-size="10.00">+ FName()</text>
<text text-anchor="start" x="200" y="-963.5" font-family="Helvetica,sans-Serif" font-size="10.00">+ GetName()</text>
<text text-anchor="start" x="200" y="-952.5" font-family="Helvetica,sans-Serif" font-size="10.00">+ operator==()</text>
<text text-anchor="start" x="200" y="-941.5" font-family="Helvetica,sans-Serif" font-size="10.00">+ GetGlobalNames()</text>
</a>
</g>
</g>
<!-- Node5&#45;&gt;Node3 -->
<g id="edge4" class="edge">
<title>Node5&#45;&gt;Node3</title>
<path fill="none" stroke="#404040" d="M274.4,-934.44C282.92,-916.57 292.6,-896.28 302.39,-875.76"/>
<polygon fill="none" stroke="#404040" points="302.51,-875.52 301.48,-868.38 307.68,-864.69 308.7,-871.82 302.51,-875.52"/>
<text text-anchor="middle" x="315.5" y="-897" font-family="Helvetica,sans-Serif" font-size="10.00"> +Name</text>
</g>
<!-- Node6 -->
<g id="node6" class="node">
<title>Node6</title>
<g id="a_node6"><a xlink:href="../../d3/d79/classSDK_1_1TArray.html" target="_top" xlink:title=" ">
<polygon fill="white" stroke="black" points="155.5,-1105.5 155.5,-1239.5 335.5,-1239.5 335.5,-1105.5 155.5,-1105.5"/>
<text text-anchor="middle" x="245.5" y="-1227.5" font-family="Helvetica,sans-Serif" font-size="10.00">SDK::TArray&lt; SDK::FNameEntry * &gt;</text>
<polyline fill="none" stroke="black" points="155.5,-1220.5 335.5,-1220.5 "/>
<text text-anchor="start" x="163.5" y="-1208.5" font-family="Helvetica,sans-Serif" font-size="10.00">&#45; Count</text>
<text text-anchor="start" x="163.5" y="-1197.5" font-family="Helvetica,sans-Serif" font-size="10.00">&#45; Max</text>
<polyline fill="none" stroke="black" points="155.5,-1190.5 335.5,-1190.5 "/>
<text text-anchor="start" x="163.5" y="-1178.5" font-family="Helvetica,sans-Serif" font-size="10.00">+ TArray()</text>
<text text-anchor="start" x="163.5" y="-1167.5" font-family="Helvetica,sans-Serif" font-size="10.00">+ Num()</text>
<text text-anchor="start" x="163.5" y="-1156.5" font-family="Helvetica,sans-Serif" font-size="10.00">+ operator[]()</text>
<text text-anchor="start" x="163.5" y="-1145.5" font-family="Helvetica,sans-Serif" font-size="10.00">+ operator[]()</text>
<text text-anchor="start" x="163.5" y="-1134.5" font-family="Helvetica,sans-Serif" font-size="10.00">+ IsValidIndex()</text>
<text text-anchor="start" x="163.5" y="-1123.5" font-family="Helvetica,sans-Serif" font-size="10.00">+ GetByIndex()</text>
<text text-anchor="start" x="163.5" y="-1112.5" font-family="Helvetica,sans-Serif" font-size="10.00">+ GetByIndex()</text>
</a>
</g>
</g>
<!-- Node6&#45;&gt;Node5 -->
<g id="edge5" class="edge">
<title>Node6&#45;&gt;Node5</title>
<path fill="none" stroke="#404040" d="M245.5,-1105.03C245.5,-1093.45 245.5,-1081.35 245.5,-1069.62"/>
<polygon fill="none" stroke="#404040" points="245.5,-1069.56 241.5,-1063.56 245.5,-1057.56 249.5,-1063.56 245.5,-1069.56"/>
<text text-anchor="middle" x="270" y="-1079" font-family="Helvetica,sans-Serif" font-size="10.00"> +GNames</text>
</g>
<!-- Node7 -->
<g id="node7" class="node">
<title>Node7</title>
<g id="a_node7"><a xlink:href="../../d7/ddf/classSDK_1_1FNameEntry.html" target="_top" xlink:title=" ">
<polygon fill="white" stroke="black" points="198,-1326 198,-1394 297,-1394 297,-1326 198,-1326"/>
<text text-anchor="middle" x="247.5" y="-1382" font-family="Helvetica,sans-Serif" font-size="10.00">SDK::FNameEntry</text>
<polyline fill="none" stroke="black" points="198,-1375 297,-1375 "/>
<text text-anchor="start" x="206" y="-1363" font-family="Helvetica,sans-Serif" font-size="10.00">+ UnknownData00</text>
<text text-anchor="start" x="206" y="-1352" font-family="Helvetica,sans-Serif" font-size="10.00">+ name</text>
<polyline fill="none" stroke="black" points="198,-1345 297,-1345 "/>
<text text-anchor="start" x="206" y="-1333" font-family="Helvetica,sans-Serif" font-size="10.00">+ GetName()</text>
</a>
</g>
</g>
<!-- Node7&#45;&gt;Node6 -->
<g id="edge6" class="edge">
<title>Node7&#45;&gt;Node6</title>
<path fill="none" stroke="#404040" d="M247.14,-1325.84C246.92,-1305.23 246.62,-1277.83 246.35,-1251.95"/>
<polygon fill="none" stroke="#404040" points="246.34,-1251.8 242.28,-1245.84 246.21,-1239.8 250.28,-1245.76 246.34,-1251.8"/>
<text text-anchor="middle" x="260.5" y="-1261" font-family="Helvetica,sans-Serif" font-size="10.00"> &#45;Data</text>
</g>
<!-- Node8 -->
<g id="node8" class="node">
<title>Node8</title>
<g id="a_node8"><a xlink:href="../../d3/d79/classSDK_1_1TArray.html" target="_top" xlink:title=" ">
<polygon fill="white" stroke="black" points="49,-1287.5 49,-1432.5 146,-1432.5 146,-1287.5 49,-1287.5"/>
<text text-anchor="middle" x="97.5" y="-1420.5" font-family="Helvetica,sans-Serif" font-size="10.00">SDK::TArray&lt; T &gt;</text>
<polyline fill="none" stroke="black" points="49,-1413.5 146,-1413.5 "/>
<text text-anchor="start" x="57" y="-1401.5" font-family="Helvetica,sans-Serif" font-size="10.00">&#45; Data</text>
<text text-anchor="start" x="57" y="-1390.5" font-family="Helvetica,sans-Serif" font-size="10.00">&#45; Count</text>
<text text-anchor="start" x="57" y="-1379.5" font-family="Helvetica,sans-Serif" font-size="10.00">&#45; Max</text>
<polyline fill="none" stroke="black" points="49,-1372.5 146,-1372.5 "/>
<text text-anchor="start" x="57" y="-1360.5" font-family="Helvetica,sans-Serif" font-size="10.00">+ TArray()</text>
<text text-anchor="start" x="57" y="-1349.5" font-family="Helvetica,sans-Serif" font-size="10.00">+ Num()</text>
<text text-anchor="start" x="57" y="-1338.5" font-family="Helvetica,sans-Serif" font-size="10.00">+ operator[]()</text>
<text text-anchor="start" x="57" y="-1327.5" font-family="Helvetica,sans-Serif" font-size="10.00">+ operator[]()</text>
<text text-anchor="start" x="57" y="-1316.5" font-family="Helvetica,sans-Serif" font-size="10.00">+ IsValidIndex()</text>
<text text-anchor="start" x="57" y="-1305.5" font-family="Helvetica,sans-Serif" font-size="10.00">+ GetByIndex()</text>
<text text-anchor="start" x="57" y="-1294.5" font-family="Helvetica,sans-Serif" font-size="10.00">+ GetByIndex()</text>
</a>
</g>
</g>
<!-- Node8&#45;&gt;Node6 -->
<g id="edge7" class="edge">
<title>Node8&#45;&gt;Node6</title>
<path fill="none" stroke="orange" d="M118.96,-1277.68C122.29,-1270.74 126.11,-1264.06 130.5,-1258 137.62,-1248.17 146.22,-1239 155.49,-1230.61"/>
<polygon fill="orange" stroke="orange" points="115.55,-1276.72 114.71,-1287.29 121.96,-1279.55 115.55,-1276.72"/>
<text text-anchor="middle" x="186" y="-1261" font-family="Helvetica,sans-Serif" font-size="10.00"> &lt; SDK::FNameEntry * &gt;</text>
</g>
<!-- Node8&#45;&gt;Node9 -->
<g id="edge11" class="edge">
<title>Node8&#45;&gt;Node9</title>
<path fill="none" stroke="orange" d="M86.75,-1277.08C83.37,-1244.85 80.5,-1207.5 80.5,-1173.5 80.5,-1173.5 80.5,-1173.5 80.5,-741.5 80.5,-684.48 80.5,-619.69 80.5,-572.59"/>
<polygon fill="orange" stroke="orange" points="83.3,-1277.78 87.86,-1287.35 90.26,-1277.03 83.3,-1277.78"/>
<text text-anchor="middle" x="126" y="-993.5" font-family="Helvetica,sans-Serif" font-size="10.00"> &lt; SDK::UObject * &gt;</text>
</g>
<!-- Node9&#45;&gt;Node3 -->
<g id="edge9" class="edge">
<title>Node9&#45;&gt;Node3</title>
<path fill="none" stroke="#404040" d="M160.61,-572.56C190.46,-597.17 224.85,-625.52 256.83,-651.89"/>
<polygon fill="none" stroke="#404040" points="256.96,-652 264.14,-652.74 266.22,-659.64 259.05,-658.91 256.96,-652"/>
<text text-anchor="middle" x="214" y="-594" font-family="Helvetica,sans-Serif" font-size="10.00"> +GObjects</text>
</g>
<!-- Node10 -->
<g id="node10" class="node">
<title>Node10</title>
<g id="a_node10"><a xlink:href="../../d9/dfa/structSDK_1_1FPointer.html" target="_top" xlink:title=" ">
<polygon fill="white" stroke="black" points="316.5,-962 316.5,-1030 414.5,-1030 414.5,-962 316.5,-962"/>
<text text-anchor="middle" x="365.5" y="-1018" font-family="Helvetica,sans-Serif" font-size="10.00">SDK::FPointer</text>
<polyline fill="none" stroke="black" points="316.5,-1011 414.5,-1011 "/>
<text text-anchor="start" x="324.5" y="-999" font-family="Helvetica,sans-Serif" font-size="10.00">+ Dummy</text>
<text text-anchor="start" x="324.5" y="-988" font-family="Helvetica,sans-Serif" font-size="10.00">+ UnknownData00</text>
<polyline fill="none" stroke="black" points="316.5,-981 414.5,-981 "/>
<text text-anchor="middle" x="365.5" y="-969" font-family="Helvetica,sans-Serif" font-size="10.00"> </text>
</a>
</g>
</g>
<!-- Node10&#45;&gt;Node3 -->
<g id="edge12" class="edge">
<title>Node10&#45;&gt;Node3</title>
<path fill="none" stroke="#404040" d="M365.5,-961.86C365.5,-939.57 365.5,-908.56 365.5,-876.9"/>
<polygon fill="none" stroke="#404040" points="365.5,-876.75 361.5,-870.75 365.5,-864.75 369.5,-870.75 365.5,-876.75"/>
<text text-anchor="middle" x="400" y="-908" font-family="Helvetica,sans-Serif" font-size="10.00"> +StateFrame</text>
<text text-anchor="middle" x="400" y="-897" font-family="Helvetica,sans-Serif" font-size="10.00">+VfTableObject</text>
<text text-anchor="middle" x="400" y="-886" font-family="Helvetica,sans-Serif" font-size="10.00">+LinkerIndex</text>
</g>
<!-- Node11&#45;&gt;Node3 -->
<g id="edge13" class="edge">
<title>Node11&#45;&gt;Node3</title>
<path fill="none" stroke="#404040" d="M644.5,-90.72C644.5,-110.67 644.5,-134.52 644.5,-156 644.5,-506.5 644.5,-506.5 644.5,-506.5 644.5,-599.04 553.6,-662.51 475.56,-699.93"/>
<polygon fill="none" stroke="#404040" points="475.52,-699.96 471.78,-706.12 464.65,-705.04 468.39,-698.88 475.52,-699.96"/>
<text text-anchor="middle" x="662" y="-299" font-family="Helvetica,sans-Serif" font-size="10.00"> +Class</text>
</g>
<!-- Node12 -->
<g id="node12" class="node">
<title>Node12</title>
<g id="a_node12"><a xlink:href="../../df/d72/classSDK_1_1UState.html" target="_top" xlink:title=" ">
<polygon fill="white" stroke="black" points="684.5,-128.5 684.5,-185.5 782.5,-185.5 782.5,-128.5 684.5,-128.5"/>
<text text-anchor="middle" x="733.5" y="-173.5" font-family="Helvetica,sans-Serif" font-size="10.00">SDK::UState</text>
<polyline fill="none" stroke="black" points="684.5,-166.5 782.5,-166.5 "/>
<text text-anchor="start" x="692.5" y="-154.5" font-family="Helvetica,sans-Serif" font-size="10.00">+ UnknownData00</text>
<polyline fill="none" stroke="black" points="684.5,-147.5 782.5,-147.5 "/>
<text text-anchor="start" x="692.5" y="-135.5" font-family="Helvetica,sans-Serif" font-size="10.00">+ StaticClass()</text>
</a>
</g>
</g>
<!-- Node12&#45;&gt;Node11 -->
<g id="edge14" class="edge">
<title>Node12&#45;&gt;Node11</title>
<path fill="none" stroke="midnightblue" d="M704.51,-120.33C696.83,-110.89 688.45,-100.58 680.46,-90.74"/>
<polygon fill="none" stroke="midnightblue" points="702.02,-122.82 711.04,-128.37 707.45,-118.4 702.02,-122.82"/>
</g>
<!-- Node13 -->
<g id="node13" class="node">
<title>Node13</title>
<g id="a_node13"><a xlink:href="../../d8/de9/classSDK_1_1UStruct.html" target="_top" xlink:title=" ">
<polygon fill="white" stroke="black" points="697.5,-262 697.5,-341 795.5,-341 795.5,-262 697.5,-262"/>
<text text-anchor="middle" x="746.5" y="-329" font-family="Helvetica,sans-Serif" font-size="10.00">SDK::UStruct</text>
<polyline fill="none" stroke="black" points="697.5,-322 795.5,-322 "/>
<text text-anchor="start" x="705.5" y="-310" font-family="Helvetica,sans-Serif" font-size="10.00">+ UnknownData00</text>
<text text-anchor="start" x="705.5" y="-299" font-family="Helvetica,sans-Serif" font-size="10.00">+ PropertySize</text>
<text text-anchor="start" x="705.5" y="-288" font-family="Helvetica,sans-Serif" font-size="10.00">+ UnknownData01</text>
<polyline fill="none" stroke="black" points="697.5,-281 795.5,-281 "/>
<text text-anchor="start" x="705.5" y="-269" font-family="Helvetica,sans-Serif" font-size="10.00">+ StaticClass()</text>
</a>
</g>
</g>
<!-- Node13&#45;&gt;Node12 -->
<g id="edge15" class="edge">
<title>Node13&#45;&gt;Node12</title>
<path fill="none" stroke="midnightblue" d="M742.05,-251.75C740.04,-229.71 737.74,-204.48 736.03,-185.75"/>
<polygon fill="none" stroke="midnightblue" points="738.59,-252.3 742.98,-261.94 745.56,-251.66 738.59,-252.3"/>
</g>
<!-- Node14&#45;&gt;Node13 -->
<g id="edge16" class="edge">
<title>Node14&#45;&gt;Node13</title>
<path fill="none" stroke="midnightblue" d="M718.42,-466.69C720.71,-446.29 723.86,-420.71 727.5,-398 730.5,-379.31 734.51,-358.69 738.07,-341.41"/>
<polygon fill="none" stroke="midnightblue" points="714.92,-466.51 717.3,-476.84 721.87,-467.28 714.92,-466.51"/>
</g>
<!-- Node14&#45;&gt;Node13 -->
<g id="edge19" class="edge">
<title>Node14&#45;&gt;Node13</title>
<path fill="none" stroke="#404040" d="M718.88,-476.84C723.91,-445.08 732.27,-392.34 738.47,-353.17"/>
<polygon fill="none" stroke="#404040" points="738.49,-353.08 735.48,-346.53 740.37,-341.23 743.38,-347.78 738.49,-353.08"/>
<text text-anchor="middle" x="758.5" y="-412" font-family="Helvetica,sans-Serif" font-size="10.00"> +SuperField</text>
<text text-anchor="middle" x="758.5" y="-401" font-family="Helvetica,sans-Serif" font-size="10.00">+Children</text>
</g>
<!-- Node14&#45;&gt;Node14 -->
<g id="edge18" class="edge">
<title>Node14&#45;&gt;Node14</title>
<path fill="none" stroke="#404040" d="M756.21,-522.11C766.41,-520.88 774,-515.34 774,-505.5 774,-499.96 771.6,-495.79 767.68,-492.98"/>
<polygon fill="none" stroke="#404040" points="767.51,-492.92 760.51,-494.67 756.21,-488.89 763.2,-487.13 767.51,-492.92"/>
<text text-anchor="middle" x="789.5" y="-503" font-family="Helvetica,sans-Serif" font-size="10.00"> +Next</text>
</g>
<!-- Node15 -->
<g id="node15" class="node">
<title>Node15</title>
<g id="a_node15"><a xlink:href="../../dd/d43/structSDK_1_1FVector.html" target="_top" xlink:title=" ">
<polygon fill="white" stroke="black" points="179.5,-466 179.5,-545 257.5,-545 257.5,-466 179.5,-466"/>
<text text-anchor="middle" x="218.5" y="-533" font-family="Helvetica,sans-Serif" font-size="10.00">SDK::FVector</text>
<polyline fill="none" stroke="black" points="179.5,-526 257.5,-526 "/>
<text text-anchor="start" x="187.5" y="-514" font-family="Helvetica,sans-Serif" font-size="10.00">+ X</text>
<text text-anchor="start" x="187.5" y="-503" font-family="Helvetica,sans-Serif" font-size="10.00">+ Y</text>
<text text-anchor="start" x="187.5" y="-492" font-family="Helvetica,sans-Serif" font-size="10.00">+ Z</text>
<polyline fill="none" stroke="black" points="179.5,-485 257.5,-485 "/>
<text text-anchor="middle" x="218.5" y="-473" font-family="Helvetica,sans-Serif" font-size="10.00"> </text>
</a>
</g>
</g>
<!-- Node15&#45;&gt;Node1 -->
<g id="edge22" class="edge">
<title>Node15&#45;&gt;Node1</title>
<path fill="none" stroke="#404040" d="M216.25,-465.91C216.07,-445.39 217.46,-419.95 223.5,-398 224.13,-395.72 224.82,-393.44 225.56,-391.16"/>
<polygon fill="none" stroke="#404040" points="225.6,-391.05 223.88,-384.05 229.68,-379.76 231.4,-386.77 225.6,-391.05"/>
<text text-anchor="middle" x="269.5" y="-406.5" font-family="Helvetica,sans-Serif" font-size="10.00"> +EnvelopeTestPoint</text>
</g>
</g>
</svg>
        <g id="navigator" transform="translate(0 0)" fill="#404254">
                <rect fill="#f2f5e9" fill-opacity="0.5" stroke="#606060" stroke-width=".5" x="0" y="0" width="60" height="60"/>
                <use id="zoomplus" xlink:href="#zoomPlus" x="17" y="9" onmousedown="handleZoom(evt,'in')"/>
                <use id="zoomminus" xlink:href="#zoomMin" x="42" y="9" onmousedown="handleZoom(evt,'out')"/>
                <use id="reset" xlink:href="#resetDef" x="30" y="36" onmousedown="handleReset()"/>
                <g id="arrowUp" xlink:href="#dirArrow" transform="translate(30 24)" onmousedown="handlePan(0,-1)">
                  <use xlink:href="#rim" fill="#404040">
                        <set attributeName="fill" to="#808080" begin="arrowUp.mouseover" end="arrowUp.mouseout"/>
                  </use>
                  <path fill="none" stroke="white" stroke-width="1.5" d="M0,-3.0v7 M-2.5,-0.5L0,-3.0L2.5,-0.5"/>
                </g>
                <g id="arrowRight" xlink:href="#dirArrow" transform="rotate(90) translate(36 -43)" onmousedown="handlePan(1,0)">
                  <use xlink:href="#rim" fill="#404040">
                        <set attributeName="fill" to="#808080" begin="arrowRight.mouseover" end="arrowRight.mouseout"/>
                  </use>
                  <path fill="none" stroke="white" stroke-width="1.5" d="M0,-3.0v7 M-2.5,-0.5L0,-3.0L2.5,-0.5"/>
                </g>
                <g id="arrowDown" xlink:href="#dirArrow" transform="rotate(180) translate(-30 -48)" onmousedown="handlePan(0,1)">
                  <use xlink:href="#rim" fill="#404040">
                        <set attributeName="fill" to="#808080" begin="arrowDown.mouseover" end="arrowDown.mouseout"/>
                  </use>
                  <path fill="none" stroke="white" stroke-width="1.5" d="M0,-3.0v7 M-2.5,-0.5L0,-3.0L2.5,-0.5"/>
                </g>
                <g id="arrowLeft" xlink:href="#dirArrow" transform="rotate(270) translate(-36 17)" onmousedown="handlePan(-1,0)">
                  <use xlink:href="#rim" fill="#404040">
                        <set attributeName="fill" to="#808080" begin="arrowLeft.mouseover" end="arrowLeft.mouseout"/>
                  </use>
                  <path fill="none" stroke="white" stroke-width="1.5" d="M0,-3.0v7 M-2.5,-0.5L0,-3.0L2.5,-0.5"/>
                </g>
        </g>
        <svg viewBox="0 0 15 15" width="100%" height="30px" preserveAspectRatio="xMaxYMin meet">
         <g id="arrow_out" transform="scale(0.3 0.3)">
          <a xlink:href="classSDK_1_1UPath__WithinDistanceEnvelope__coll__graph_org.svg" target="_base">
           <rect id="button" ry="5" rx="5" y="6" x="6" height="38" width="38"
                fill="#f2f5e9" fill-opacity="0.5" stroke="#606060" stroke-width="1.0"/>
           <path id="arrow"
             d="M 11.500037,31.436501 C 11.940474,20.09759 22.043105,11.32322 32.158766,21.979434 L 37.068811,17.246167 C 37.068811,17.246167 37.088388,32 37.088388,32 L 22.160133,31.978069 C 22.160133,31.978069 26.997745,27.140456 26.997745,27.140456 C 18.528582,18.264221 13.291696,25.230495 11.500037,31.436501 z"
             style="fill:#404040;"/>
          </a>
         </g>
        </svg>
</svg>
