<?xml version="1.0" encoding="UTF-8" standalone="no"?>
<!DOCTYPE svg PUBLIC "-//W3C//DTD SVG 1.1//EN"
 "http://www.w3.org/Graphics/SVG/1.1/DTD/svg11.dtd">
<!-- Generated by graphviz version 2.41.20171026.1811 (20171026.1811)
 -->
<!-- Title: SDK::UEFActionNotify_IdentityParts Pages: 1 -->
<!--zoomable 1452 -->
<svg id="main" version="1.1" xmlns="http://www.w3.org/2000/svg" xmlns:xlink="http://www.w3.org/1999/xlink" xml:space="preserve" onload="init(evt)">
<style type="text/css"><![CDATA[
.edge:hover path { stroke: red; }
.edge:hover polygon { stroke: red; fill: red; }
]]></style>
<script type="text/javascript"><![CDATA[
var edges = document.getElementsByTagName('g');
if (edges && edges.length) {
  for (var i=0;i<edges.length;i++) {
    if (edges[i].id.substr(0,4)=='edge') {
      edges[i].setAttribute('class','edge');
    }
  }
}
]]></script>
        <defs>
                <circle id="rim" cx="0" cy="0" r="7"/>
                <circle id="rim2" cx="0" cy="0" r="3.5"/>
                <g id="zoomPlus">
                        <use xlink:href="#rim" fill="#404040">
                                <set attributeName="fill" to="#808080" begin="zoomplus.mouseover" end="zoomplus.mouseout"/>
                        </use>
                        <path d="M-4,0h8M0,-4v8" fill="none" stroke="white" stroke-width="1.5" pointer-events="none"/>
                </g>
                <g id="zoomMin">
                        <use xlink:href="#rim" fill="#404040">
                                <set attributeName="fill" to="#808080" begin="zoomminus.mouseover" end="zoomminus.mouseout"/>
                        </use>
                        <path d="M-4,0h8" fill="none" stroke="white" stroke-width="1.5" pointer-events="none"/>
                </g>
                <g id="dirArrow">
                        <path fill="none" stroke="white" stroke-width="1.5" d="M0,-3.0v7 M-2.5,-0.5L0,-3.0L2.5,-0.5"/>
                </g>
               <g id="resetDef">
                       <use xlink:href="#rim2" fill="#404040">
                               <set attributeName="fill" to="#808080" begin="reset.mouseover" end="reset.mouseout"/>
                       </use>
               </g>
        </defs>

<script type="text/javascript">
var viewWidth = 1086;
var viewHeight = 1452;
var sectionId = 'dynsection-1';
</script>
<script xlink:href="../../svgpan.js"/>
<svg id="graph" class="graph">
<g id="viewport">
<title>SDK::UEFActionNotify_IdentityParts</title>
<polygon fill="white" stroke="transparent" points="-4,4 -4,-1448 1081.5,-1448 1081.5,4 -4,4"/>
<!-- Node1 -->
<g id="node1" class="node">
<title>Node1</title>
<g id="a_node1"><a xlink:title=" ">
<polygon fill="#bfbfbf" stroke="black" points="359.5,-223.5 359.5,-313.5 477.5,-313.5 477.5,-223.5 359.5,-223.5"/>
<text text-anchor="start" x="367.5" y="-301.5" font-family="Helvetica,sans-Serif" font-size="10.00">SDK::UEFActionNotify</text>
<text text-anchor="middle" x="418.5" y="-290.5" font-family="Helvetica,sans-Serif" font-size="10.00">_IdentityParts</text>
<polyline fill="none" stroke="black" points="359.5,-283.5 477.5,-283.5 "/>
<text text-anchor="start" x="367.5" y="-271.5" font-family="Helvetica,sans-Serif" font-size="10.00">+ MakeParts</text>
<text text-anchor="start" x="367.5" y="-260.5" font-family="Helvetica,sans-Serif" font-size="10.00">+ FailCompleteCancel</text>
<text text-anchor="start" x="367.5" y="-249.5" font-family="Helvetica,sans-Serif" font-size="10.00">+ changeStance</text>
<polyline fill="none" stroke="black" points="359.5,-242.5 477.5,-242.5 "/>
<text text-anchor="start" x="367.5" y="-230.5" font-family="Helvetica,sans-Serif" font-size="10.00">+ StaticClass()</text>
</a>
</g>
</g>
<!-- Node2 -->
<g id="node2" class="node">
<title>Node2</title>
<g id="a_node2"><a xlink:href="../../df/d32/classSDK_1_1UEFAction__Notify.html" target="_top" xlink:title=" ">
<polygon fill="white" stroke="black" points="357,-372.5 357,-572.5 480,-572.5 480,-372.5 357,-372.5"/>
<text text-anchor="middle" x="418.5" y="-560.5" font-family="Helvetica,sans-Serif" font-size="10.00">SDK::UEFAction_Notify</text>
<polyline fill="none" stroke="black" points="357,-553.5 480,-553.5 "/>
<text text-anchor="start" x="365" y="-541.5" font-family="Helvetica,sans-Serif" font-size="10.00">+ TriggerSkillEffectId</text>
<text text-anchor="start" x="365" y="-530.5" font-family="Helvetica,sans-Serif" font-size="10.00">+ ActiveByMemoryPos</text>
<text text-anchor="start" x="365" y="-519.5" font-family="Helvetica,sans-Serif" font-size="10.00">+ FullRange</text>
<text text-anchor="start" x="365" y="-508.5" font-family="Helvetica,sans-Serif" font-size="10.00">+ Enable</text>
<text text-anchor="start" x="365" y="-497.5" font-family="Helvetica,sans-Serif" font-size="10.00">+ PrivateTemplate</text>
<text text-anchor="start" x="365" y="-486.5" font-family="Helvetica,sans-Serif" font-size="10.00">+ OverwriteTemplate</text>
<text text-anchor="start" x="365" y="-475.5" font-family="Helvetica,sans-Serif" font-size="10.00">+ Time</text>
<text text-anchor="start" x="365" y="-464.5" font-family="Helvetica,sans-Serif" font-size="10.00">+ OriginalTime</text>
<text text-anchor="start" x="365" y="-453.5" font-family="Helvetica,sans-Serif" font-size="10.00">+ Duration</text>
<text text-anchor="start" x="365" y="-442.5" font-family="Helvetica,sans-Serif" font-size="10.00">+ UnknownData00</text>
<text text-anchor="start" x="365" y="-431.5" font-family="Helvetica,sans-Serif" font-size="10.00">+ RepeatCount</text>
<text text-anchor="start" x="365" y="-420.5" font-family="Helvetica,sans-Serif" font-size="10.00">+ RepeatTerm</text>
<text text-anchor="start" x="365" y="-409.5" font-family="Helvetica,sans-Serif" font-size="10.00">+ SortPriority</text>
<text text-anchor="start" x="365" y="-398.5" font-family="Helvetica,sans-Serif" font-size="10.00">+ Probability</text>
<polyline fill="none" stroke="black" points="357,-391.5 480,-391.5 "/>
<text text-anchor="start" x="365" y="-379.5" font-family="Helvetica,sans-Serif" font-size="10.00">+ StaticClass()</text>
</a>
</g>
</g>
<!-- Node2&#45;&gt;Node1 -->
<g id="edge1" class="edge">
<title>Node2&#45;&gt;Node1</title>
<path fill="none" stroke="midnightblue" d="M418.5,-362.17C418.5,-345.03 418.5,-328.22 418.5,-313.73"/>
<polygon fill="none" stroke="midnightblue" points="415,-362.28 418.5,-372.28 422,-362.28 415,-362.28"/>
</g>
<!-- Node3 -->
<g id="node3" class="node">
<title>Node3</title>
<g id="a_node3"><a xlink:href="../../d9/d45/classSDK_1_1UObject.html" target="_top" xlink:title=" ">
<polygon fill="white" stroke="black" points="663.5,-620.5 663.5,-864.5 861.5,-864.5 861.5,-620.5 663.5,-620.5"/>
<text text-anchor="middle" x="762.5" y="-852.5" font-family="Helvetica,sans-Serif" font-size="10.00">SDK::UObject</text>
<polyline fill="none" stroke="black" points="663.5,-845.5 861.5,-845.5 "/>
<text text-anchor="start" x="671.5" y="-833.5" font-family="Helvetica,sans-Serif" font-size="10.00">+ ObjectInternalInteger</text>
<text text-anchor="start" x="671.5" y="-822.5" font-family="Helvetica,sans-Serif" font-size="10.00">+ NetIndex</text>
<polyline fill="none" stroke="black" points="663.5,-815.5 861.5,-815.5 "/>
<text text-anchor="start" x="671.5" y="-803.5" font-family="Helvetica,sans-Serif" font-size="10.00">+ UObject::GetName()</text>
<text text-anchor="start" x="671.5" y="-792.5" font-family="Helvetica,sans-Serif" font-size="10.00">+ GetFullName()</text>
<text text-anchor="start" x="671.5" y="-781.5" font-family="Helvetica,sans-Serif" font-size="10.00">+ IsA()</text>
<text text-anchor="start" x="671.5" y="-770.5" font-family="Helvetica,sans-Serif" font-size="10.00">+ ProcessEvent()</text>
<text text-anchor="start" x="671.5" y="-759.5" font-family="Helvetica,sans-Serif" font-size="10.00">+ STATIC_ProfNodeEvent()</text>
<text text-anchor="start" x="671.5" y="-748.5" font-family="Helvetica,sans-Serif" font-size="10.00">+ STATIC_ProfNodeSetDepthThreshold()</text>
<text text-anchor="start" x="671.5" y="-737.5" font-family="Helvetica,sans-Serif" font-size="10.00">+ STATIC_ProfNodeSetTimeThreshold</text>
<text text-anchor="start" x="671.5" y="-726.5" font-family="Helvetica,sans-Serif" font-size="10.00">Seconds()</text>
<text text-anchor="start" x="671.5" y="-715.5" font-family="Helvetica,sans-Serif" font-size="10.00">+ STATIC_ProfNodeStop()</text>
<text text-anchor="start" x="671.5" y="-704.5" font-family="Helvetica,sans-Serif" font-size="10.00">+ STATIC_ProfNodeStart()</text>
<text text-anchor="start" x="671.5" y="-693.5" font-family="Helvetica,sans-Serif" font-size="10.00">+ STATIC_GetStringFromGuid()</text>
<text text-anchor="start" x="671.5" y="-682.5" font-family="Helvetica,sans-Serif" font-size="10.00">and 298 more...</text>
<text text-anchor="start" x="671.5" y="-671.5" font-family="Helvetica,sans-Serif" font-size="10.00">+ GetGlobalObjects()</text>
<text text-anchor="start" x="671.5" y="-660.5" font-family="Helvetica,sans-Serif" font-size="10.00">+ FindObject()</text>
<text text-anchor="start" x="671.5" y="-649.5" font-family="Helvetica,sans-Serif" font-size="10.00">+ FindClass()</text>
<text text-anchor="start" x="671.5" y="-638.5" font-family="Helvetica,sans-Serif" font-size="10.00">+ GetObjectCasted()</text>
<text text-anchor="start" x="671.5" y="-627.5" font-family="Helvetica,sans-Serif" font-size="10.00">+ StaticClass()</text>
</a>
</g>
</g>
<!-- Node3&#45;&gt;Node2 -->
<g id="edge2" class="edge">
<title>Node3&#45;&gt;Node2</title>
<path fill="none" stroke="midnightblue" d="M654.74,-623.28C653.01,-622.15 651.26,-621.06 649.5,-620 623.09,-604.09 610.08,-615.79 582.5,-602 545.78,-583.64 509.38,-556.31 480.24,-531.56"/>
<polygon fill="none" stroke="midnightblue" points="653.1,-626.4 663.33,-629.17 657.06,-620.63 653.1,-626.4"/>
</g>
<!-- Node3&#45;&gt;Node3 -->
<g id="edge8" class="edge">
<title>Node3&#45;&gt;Node3</title>
<path fill="none" stroke="#404040" d="M861.51,-765.53C872.44,-761.15 879.5,-753.48 879.5,-742.5 879.5,-735.64 876.74,-730.07 872.01,-725.78"/>
<polygon fill="none" stroke="#404040" points="871.8,-725.66 864.59,-725.99 861.51,-719.47 868.72,-719.14 871.8,-725.66"/>
<text text-anchor="middle" x="919" y="-751" font-family="Helvetica,sans-Serif" font-size="10.00"> +Outer</text>
<text text-anchor="middle" x="919" y="-740" font-family="Helvetica,sans-Serif" font-size="10.00">+Linker</text>
<text text-anchor="middle" x="919" y="-729" font-family="Helvetica,sans-Serif" font-size="10.00">+ObjectArchetype</text>
</g>
<!-- Node9 -->
<g id="node9" class="node">
<title>Node9</title>
<g id="a_node9"><a xlink:href="../../d3/d79/classSDK_1_1TArray.html" target="_top" xlink:title=" ">
<polygon fill="white" stroke="black" points="904,-405.5 904,-539.5 1065,-539.5 1065,-405.5 904,-405.5"/>
<text text-anchor="middle" x="984.5" y="-527.5" font-family="Helvetica,sans-Serif" font-size="10.00">SDK::TArray&lt; SDK::UObject * &gt;</text>
<polyline fill="none" stroke="black" points="904,-520.5 1065,-520.5 "/>
<text text-anchor="start" x="912" y="-508.5" font-family="Helvetica,sans-Serif" font-size="10.00">&#45; Count</text>
<text text-anchor="start" x="912" y="-497.5" font-family="Helvetica,sans-Serif" font-size="10.00">&#45; Max</text>
<polyline fill="none" stroke="black" points="904,-490.5 1065,-490.5 "/>
<text text-anchor="start" x="912" y="-478.5" font-family="Helvetica,sans-Serif" font-size="10.00">+ TArray()</text>
<text text-anchor="start" x="912" y="-467.5" font-family="Helvetica,sans-Serif" font-size="10.00">+ Num()</text>
<text text-anchor="start" x="912" y="-456.5" font-family="Helvetica,sans-Serif" font-size="10.00">+ operator[]()</text>
<text text-anchor="start" x="912" y="-445.5" font-family="Helvetica,sans-Serif" font-size="10.00">+ operator[]()</text>
<text text-anchor="start" x="912" y="-434.5" font-family="Helvetica,sans-Serif" font-size="10.00">+ IsValidIndex()</text>
<text text-anchor="start" x="912" y="-423.5" font-family="Helvetica,sans-Serif" font-size="10.00">+ GetByIndex()</text>
<text text-anchor="start" x="912" y="-412.5" font-family="Helvetica,sans-Serif" font-size="10.00">+ GetByIndex()</text>
</a>
</g>
</g>
<!-- Node3&#45;&gt;Node9 -->
<g id="edge10" class="edge">
<title>Node3&#45;&gt;Node9</title>
<path fill="none" stroke="#404040" d="M820.19,-620.47C828.37,-609.66 837.47,-599.58 847.5,-591 864.81,-576.19 876.69,-585.86 895.5,-573 905.79,-565.96 915.69,-557.48 924.9,-548.49"/>
<polygon fill="none" stroke="#404040" points="925.1,-548.28 926.46,-541.2 933.52,-539.73 932.16,-546.81 925.1,-548.28"/>
<text text-anchor="middle" x="861.5" y="-594" font-family="Helvetica,sans-Serif" font-size="10.00"> &#45;Data</text>
</g>
<!-- Node11 -->
<g id="node11" class="node">
<title>Node11</title>
<g id="a_node11"><a xlink:href="../../d7/d85/classSDK_1_1UClass.html" target="_top" xlink:title=" ">
<polygon fill="white" stroke="black" points="665,-0.5 665,-90.5 786,-90.5 786,-0.5 665,-0.5"/>
<text text-anchor="middle" x="725.5" y="-78.5" font-family="Helvetica,sans-Serif" font-size="10.00">SDK::UClass</text>
<polyline fill="none" stroke="black" points="665,-71.5 786,-71.5 "/>
<text text-anchor="start" x="673" y="-59.5" font-family="Helvetica,sans-Serif" font-size="10.00">+ UnknownData00</text>
<text text-anchor="start" x="673" y="-48.5" font-family="Helvetica,sans-Serif" font-size="10.00">+ UnknownData01</text>
<polyline fill="none" stroke="black" points="665,-41.5 786,-41.5 "/>
<text text-anchor="start" x="673" y="-29.5" font-family="Helvetica,sans-Serif" font-size="10.00">+ CreateDefaultObject()</text>
<text text-anchor="start" x="673" y="-18.5" font-family="Helvetica,sans-Serif" font-size="10.00">+ CreateDefaultObject()</text>
<text text-anchor="start" x="673" y="-7.5" font-family="Helvetica,sans-Serif" font-size="10.00">+ StaticClass()</text>
</a>
</g>
</g>
<!-- Node3&#45;&gt;Node11 -->
<g id="edge20" class="edge">
<title>Node3&#45;&gt;Node11</title>
<path fill="none" stroke="#404040" d="M668.92,-620.42C630.35,-565.62 594.5,-505.97 594.5,-473.5 594.5,-473.5 594.5,-473.5 594.5,-156 594.5,-120.34 623.44,-94.01 654.11,-76.12"/>
<polygon fill="none" stroke="#404040" points="654.47,-75.92 657.8,-69.53 664.98,-70.14 661.65,-76.54 654.47,-75.92"/>
<text text-anchor="middle" x="642" y="-266" font-family="Helvetica,sans-Serif" font-size="10.00"> +ClassDefaultObject</text>
</g>
<!-- Node14 -->
<g id="node14" class="node">
<title>Node14</title>
<g id="a_node14"><a xlink:href="../../de/dd6/classSDK_1_1UField.html" target="_top" xlink:title=" ">
<polygon fill="white" stroke="black" points="754,-444 754,-501 837,-501 837,-444 754,-444"/>
<text text-anchor="middle" x="795.5" y="-489" font-family="Helvetica,sans-Serif" font-size="10.00">SDK::UField</text>
<polyline fill="none" stroke="black" points="754,-482 837,-482 "/>
<text text-anchor="middle" x="795.5" y="-470" font-family="Helvetica,sans-Serif" font-size="10.00"> </text>
<polyline fill="none" stroke="black" points="754,-463 837,-463 "/>
<text text-anchor="start" x="762" y="-451" font-family="Helvetica,sans-Serif" font-size="10.00">+ StaticClass()</text>
</a>
</g>
</g>
<!-- Node3&#45;&gt;Node14 -->
<g id="edge17" class="edge">
<title>Node3&#45;&gt;Node14</title>
<path fill="none" stroke="midnightblue" d="M778.66,-610.27C783.73,-569.1 788.84,-527.58 792.08,-501.27"/>
<polygon fill="none" stroke="midnightblue" points="775.16,-610.08 777.41,-620.44 782.1,-610.94 775.16,-610.08"/>
</g>
<!-- Node4 -->
<g id="node4" class="node">
<title>Node4</title>
<g id="a_node4"><a xlink:href="../../d0/d22/structSDK_1_1FQWord.html" target="_top" xlink:title=" ">
<polygon fill="white" stroke="black" points="788.5,-962 788.5,-1030 868.5,-1030 868.5,-962 788.5,-962"/>
<text text-anchor="middle" x="828.5" y="-1018" font-family="Helvetica,sans-Serif" font-size="10.00">SDK::FQWord</text>
<polyline fill="none" stroke="black" points="788.5,-1011 868.5,-1011 "/>
<text text-anchor="start" x="796.5" y="-999" font-family="Helvetica,sans-Serif" font-size="10.00">+ A</text>
<text text-anchor="start" x="796.5" y="-988" font-family="Helvetica,sans-Serif" font-size="10.00">+ B</text>
<polyline fill="none" stroke="black" points="788.5,-981 868.5,-981 "/>
<text text-anchor="middle" x="828.5" y="-969" font-family="Helvetica,sans-Serif" font-size="10.00"> </text>
</a>
</g>
</g>
<!-- Node4&#45;&gt;Node3 -->
<g id="edge3" class="edge">
<title>Node4&#45;&gt;Node3</title>
<path fill="none" stroke="#404040" d="M819.8,-961.86C813.93,-939.47 805.74,-908.28 797.4,-876.48"/>
<polygon fill="none" stroke="#404040" points="797.37,-876.36 791.97,-871.57 794.32,-864.75 799.71,-869.54 797.37,-876.36"/>
<text text-anchor="middle" x="837.5" y="-897" font-family="Helvetica,sans-Serif" font-size="10.00"> +ObjectFlags</text>
</g>
<!-- Node5 -->
<g id="node5" class="node">
<title>Node5</title>
<g id="a_node5"><a xlink:href="../../d0/db6/structSDK_1_1FName.html" target="_top" xlink:title=" ">
<polygon fill="white" stroke="black" points="663,-934.5 663,-1057.5 770,-1057.5 770,-934.5 663,-934.5"/>
<text text-anchor="middle" x="716.5" y="-1045.5" font-family="Helvetica,sans-Serif" font-size="10.00">SDK::FName</text>
<polyline fill="none" stroke="black" points="663,-1038.5 770,-1038.5 "/>
<text text-anchor="start" x="671" y="-1026.5" font-family="Helvetica,sans-Serif" font-size="10.00">+ Index</text>
<text text-anchor="start" x="671" y="-1015.5" font-family="Helvetica,sans-Serif" font-size="10.00">+ Number</text>
<polyline fill="none" stroke="black" points="663,-1008.5 770,-1008.5 "/>
<text text-anchor="start" x="671" y="-996.5" font-family="Helvetica,sans-Serif" font-size="10.00">+ FName()</text>
<text text-anchor="start" x="671" y="-985.5" font-family="Helvetica,sans-Serif" font-size="10.00">+ FName()</text>
<text text-anchor="start" x="671" y="-974.5" font-family="Helvetica,sans-Serif" font-size="10.00">+ FName()</text>
<text text-anchor="start" x="671" y="-963.5" font-family="Helvetica,sans-Serif" font-size="10.00">+ GetName()</text>
<text text-anchor="start" x="671" y="-952.5" font-family="Helvetica,sans-Serif" font-size="10.00">+ operator==()</text>
<text text-anchor="start" x="671" y="-941.5" font-family="Helvetica,sans-Serif" font-size="10.00">+ GetGlobalNames()</text>
</a>
</g>
</g>
<!-- Node5&#45;&gt;Node3 -->
<g id="edge4" class="edge">
<title>Node5&#45;&gt;Node3</title>
<path fill="none" stroke="#404040" d="M727.58,-934.44C730.8,-916.82 734.45,-896.84 738.15,-876.61"/>
<polygon fill="none" stroke="#404040" points="738.18,-876.49 735.32,-869.87 740.33,-864.69 743.19,-871.31 738.18,-876.49"/>
<text text-anchor="middle" x="754.5" y="-897" font-family="Helvetica,sans-Serif" font-size="10.00"> +Name</text>
</g>
<!-- Node6 -->
<g id="node6" class="node">
<title>Node6</title>
<g id="a_node6"><a xlink:href="../../d3/d79/classSDK_1_1TArray.html" target="_top" xlink:title=" ">
<polygon fill="white" stroke="black" points="626.5,-1111 626.5,-1245 806.5,-1245 806.5,-1111 626.5,-1111"/>
<text text-anchor="middle" x="716.5" y="-1233" font-family="Helvetica,sans-Serif" font-size="10.00">SDK::TArray&lt; SDK::FNameEntry * &gt;</text>
<polyline fill="none" stroke="black" points="626.5,-1226 806.5,-1226 "/>
<text text-anchor="start" x="634.5" y="-1214" font-family="Helvetica,sans-Serif" font-size="10.00">&#45; Count</text>
<text text-anchor="start" x="634.5" y="-1203" font-family="Helvetica,sans-Serif" font-size="10.00">&#45; Max</text>
<polyline fill="none" stroke="black" points="626.5,-1196 806.5,-1196 "/>
<text text-anchor="start" x="634.5" y="-1184" font-family="Helvetica,sans-Serif" font-size="10.00">+ TArray()</text>
<text text-anchor="start" x="634.5" y="-1173" font-family="Helvetica,sans-Serif" font-size="10.00">+ Num()</text>
<text text-anchor="start" x="634.5" y="-1162" font-family="Helvetica,sans-Serif" font-size="10.00">+ operator[]()</text>
<text text-anchor="start" x="634.5" y="-1151" font-family="Helvetica,sans-Serif" font-size="10.00">+ operator[]()</text>
<text text-anchor="start" x="634.5" y="-1140" font-family="Helvetica,sans-Serif" font-size="10.00">+ IsValidIndex()</text>
<text text-anchor="start" x="634.5" y="-1129" font-family="Helvetica,sans-Serif" font-size="10.00">+ GetByIndex()</text>
<text text-anchor="start" x="634.5" y="-1118" font-family="Helvetica,sans-Serif" font-size="10.00">+ GetByIndex()</text>
</a>
</g>
</g>
<!-- Node6&#45;&gt;Node5 -->
<g id="edge5" class="edge">
<title>Node6&#45;&gt;Node5</title>
<path fill="none" stroke="#404040" d="M716.5,-1111C716.5,-1097.63 716.5,-1083.5 716.5,-1069.91"/>
<polygon fill="none" stroke="#404040" points="716.5,-1069.62 712.5,-1063.62 716.5,-1057.62 720.5,-1063.62 716.5,-1069.62"/>
<text text-anchor="middle" x="741" y="-1079" font-family="Helvetica,sans-Serif" font-size="10.00"> +GNames</text>
</g>
<!-- Node7 -->
<g id="node7" class="node">
<title>Node7</title>
<g id="a_node7"><a xlink:href="../../d7/ddf/classSDK_1_1FNameEntry.html" target="_top" xlink:title=" ">
<polygon fill="white" stroke="black" points="970,-1337 970,-1405 1069,-1405 1069,-1337 970,-1337"/>
<text text-anchor="middle" x="1019.5" y="-1393" font-family="Helvetica,sans-Serif" font-size="10.00">SDK::FNameEntry</text>
<polyline fill="none" stroke="black" points="970,-1386 1069,-1386 "/>
<text text-anchor="start" x="978" y="-1374" font-family="Helvetica,sans-Serif" font-size="10.00">+ UnknownData00</text>
<text text-anchor="start" x="978" y="-1363" font-family="Helvetica,sans-Serif" font-size="10.00">+ name</text>
<polyline fill="none" stroke="black" points="970,-1356 1069,-1356 "/>
<text text-anchor="start" x="978" y="-1344" font-family="Helvetica,sans-Serif" font-size="10.00">+ GetName()</text>
</a>
</g>
</g>
<!-- Node7&#45;&gt;Node6 -->
<g id="edge6" class="edge">
<title>Node7&#45;&gt;Node6</title>
<path fill="none" stroke="#404040" d="M969.81,-1338.67C928.5,-1312.63 868.39,-1274.75 817.1,-1242.41"/>
<polygon fill="none" stroke="#404040" points="816.78,-1242.21 809.57,-1242.4 806.63,-1235.81 813.84,-1235.63 816.78,-1242.21"/>
<text text-anchor="middle" x="881.5" y="-1272" font-family="Helvetica,sans-Serif" font-size="10.00"> &#45;Data</text>
</g>
<!-- Node8 -->
<g id="node8" class="node">
<title>Node8</title>
<g id="a_node8"><a xlink:href="../../d3/d79/classSDK_1_1TArray.html" target="_top" xlink:title=" ">
<polygon fill="white" stroke="black" points="478,-1298.5 478,-1443.5 575,-1443.5 575,-1298.5 478,-1298.5"/>
<text text-anchor="middle" x="526.5" y="-1431.5" font-family="Helvetica,sans-Serif" font-size="10.00">SDK::TArray&lt; T &gt;</text>
<polyline fill="none" stroke="black" points="478,-1424.5 575,-1424.5 "/>
<text text-anchor="start" x="486" y="-1412.5" font-family="Helvetica,sans-Serif" font-size="10.00">&#45; Data</text>
<text text-anchor="start" x="486" y="-1401.5" font-family="Helvetica,sans-Serif" font-size="10.00">&#45; Count</text>
<text text-anchor="start" x="486" y="-1390.5" font-family="Helvetica,sans-Serif" font-size="10.00">&#45; Max</text>
<polyline fill="none" stroke="black" points="478,-1383.5 575,-1383.5 "/>
<text text-anchor="start" x="486" y="-1371.5" font-family="Helvetica,sans-Serif" font-size="10.00">+ TArray()</text>
<text text-anchor="start" x="486" y="-1360.5" font-family="Helvetica,sans-Serif" font-size="10.00">+ Num()</text>
<text text-anchor="start" x="486" y="-1349.5" font-family="Helvetica,sans-Serif" font-size="10.00">+ operator[]()</text>
<text text-anchor="start" x="486" y="-1338.5" font-family="Helvetica,sans-Serif" font-size="10.00">+ operator[]()</text>
<text text-anchor="start" x="486" y="-1327.5" font-family="Helvetica,sans-Serif" font-size="10.00">+ IsValidIndex()</text>
<text text-anchor="start" x="486" y="-1316.5" font-family="Helvetica,sans-Serif" font-size="10.00">+ GetByIndex()</text>
<text text-anchor="start" x="486" y="-1305.5" font-family="Helvetica,sans-Serif" font-size="10.00">+ GetByIndex()</text>
</a>
</g>
</g>
<!-- Node8&#45;&gt;Node6 -->
<g id="edge7" class="edge">
<title>Node8&#45;&gt;Node6</title>
<path fill="none" stroke="orange" d="M582.54,-1313.67C603.87,-1292.22 628.38,-1267.59 650.55,-1245.3"/>
<polygon fill="orange" stroke="orange" points="580,-1311.25 575.43,-1320.81 584.96,-1316.19 580,-1311.25"/>
<text text-anchor="middle" x="677" y="-1272" font-family="Helvetica,sans-Serif" font-size="10.00"> &lt; SDK::FNameEntry * &gt;</text>
</g>
<!-- Node8&#45;&gt;Node9 -->
<g id="edge11" class="edge">
<title>Node8&#45;&gt;Node9</title>
<path fill="none" stroke="orange" d="M585.39,-1358.48C709.47,-1332.5 986.5,-1264.89 986.5,-1179 986.5,-1179 986.5,-1179 986.5,-741.5 986.5,-672.64 985.83,-593.82 985.27,-539.58"/>
<polygon fill="orange" stroke="orange" points="584.37,-1355.11 575.29,-1360.57 585.79,-1361.96 584.37,-1355.11"/>
<text text-anchor="middle" x="1032" y="-993.5" font-family="Helvetica,sans-Serif" font-size="10.00"> &lt; SDK::UObject * &gt;</text>
</g>
<!-- Node16 -->
<g id="node16" class="node">
<title>Node16</title>
<g id="a_node16"><a xlink:href="../../d3/d79/classSDK_1_1TArray.html" target="_top" xlink:title=" ">
<polygon fill="white" stroke="black" points="307,-670 307,-815 414,-815 414,-670 307,-670"/>
<text text-anchor="start" x="315" y="-803" font-family="Helvetica,sans-Serif" font-size="10.00">SDK::TArray&lt; struct</text>
<text text-anchor="middle" x="360.5" y="-792" font-family="Helvetica,sans-Serif" font-size="10.00"> SDK::FString &gt;</text>
<polyline fill="none" stroke="black" points="307,-785 414,-785 "/>
<text text-anchor="start" x="315" y="-773" font-family="Helvetica,sans-Serif" font-size="10.00">&#45; Count</text>
<text text-anchor="start" x="315" y="-762" font-family="Helvetica,sans-Serif" font-size="10.00">&#45; Max</text>
<polyline fill="none" stroke="black" points="307,-755 414,-755 "/>
<text text-anchor="start" x="315" y="-743" font-family="Helvetica,sans-Serif" font-size="10.00">+ TArray()</text>
<text text-anchor="start" x="315" y="-732" font-family="Helvetica,sans-Serif" font-size="10.00">+ Num()</text>
<text text-anchor="start" x="315" y="-721" font-family="Helvetica,sans-Serif" font-size="10.00">+ operator[]()</text>
<text text-anchor="start" x="315" y="-710" font-family="Helvetica,sans-Serif" font-size="10.00">+ operator[]()</text>
<text text-anchor="start" x="315" y="-699" font-family="Helvetica,sans-Serif" font-size="10.00">+ IsValidIndex()</text>
<text text-anchor="start" x="315" y="-688" font-family="Helvetica,sans-Serif" font-size="10.00">+ GetByIndex()</text>
<text text-anchor="start" x="315" y="-677" font-family="Helvetica,sans-Serif" font-size="10.00">+ GetByIndex()</text>
</a>
</g>
</g>
<!-- Node8&#45;&gt;Node16 -->
<g id="edge27" class="edge">
<title>Node8&#45;&gt;Node16</title>
<path fill="none" stroke="orange" d="M505.41,-1288.35C491.82,-1235.93 473.74,-1166.42 457.5,-1105 430.89,-1004.33 399.58,-888.04 379.89,-815.13"/>
<polygon fill="orange" stroke="orange" points="502.08,-1289.46 507.97,-1298.26 508.86,-1287.7 502.08,-1289.46"/>
<text text-anchor="middle" x="506.5" y="-1079" font-family="Helvetica,sans-Serif" font-size="10.00"> &lt; struct SDK::FString &gt;</text>
</g>
<!-- Node18 -->
<g id="node18" class="node">
<title>Node18</title>
<g id="a_node18"><a xlink:href="../../d3/d79/classSDK_1_1TArray.html" target="_top" xlink:title=" ">
<polygon fill="white" stroke="black" points="323,-1105.5 323,-1250.5 448,-1250.5 448,-1105.5 323,-1105.5"/>
<text text-anchor="middle" x="385.5" y="-1238.5" font-family="Helvetica,sans-Serif" font-size="10.00">SDK::TArray&lt; wchar_t &gt;</text>
<polyline fill="none" stroke="black" points="323,-1231.5 448,-1231.5 "/>
<text text-anchor="start" x="331" y="-1219.5" font-family="Helvetica,sans-Serif" font-size="10.00">&#45; Data</text>
<text text-anchor="start" x="331" y="-1208.5" font-family="Helvetica,sans-Serif" font-size="10.00">&#45; Count</text>
<text text-anchor="start" x="331" y="-1197.5" font-family="Helvetica,sans-Serif" font-size="10.00">&#45; Max</text>
<polyline fill="none" stroke="black" points="323,-1190.5 448,-1190.5 "/>
<text text-anchor="start" x="331" y="-1178.5" font-family="Helvetica,sans-Serif" font-size="10.00">+ TArray()</text>
<text text-anchor="start" x="331" y="-1167.5" font-family="Helvetica,sans-Serif" font-size="10.00">+ Num()</text>
<text text-anchor="start" x="331" y="-1156.5" font-family="Helvetica,sans-Serif" font-size="10.00">+ operator[]()</text>
<text text-anchor="start" x="331" y="-1145.5" font-family="Helvetica,sans-Serif" font-size="10.00">+ operator[]()</text>
<text text-anchor="start" x="331" y="-1134.5" font-family="Helvetica,sans-Serif" font-size="10.00">+ IsValidIndex()</text>
<text text-anchor="start" x="331" y="-1123.5" font-family="Helvetica,sans-Serif" font-size="10.00">+ GetByIndex()</text>
<text text-anchor="start" x="331" y="-1112.5" font-family="Helvetica,sans-Serif" font-size="10.00">+ GetByIndex()</text>
</a>
</g>
</g>
<!-- Node8&#45;&gt;Node18 -->
<g id="edge26" class="edge">
<title>Node8&#45;&gt;Node18</title>
<path fill="none" stroke="orange" d="M469.7,-1335.03C449.74,-1320.24 428.76,-1301.45 414.5,-1280 408.59,-1271.11 403.87,-1261.01 400.1,-1250.72"/>
<polygon fill="orange" stroke="orange" points="467.71,-1337.91 477.87,-1340.91 471.8,-1332.23 467.71,-1337.91"/>
<text text-anchor="middle" x="442.5" y="-1272" font-family="Helvetica,sans-Serif" font-size="10.00"> &lt; wchar_t &gt;</text>
</g>
<!-- Node9&#45;&gt;Node3 -->
<g id="edge9" class="edge">
<title>Node9&#45;&gt;Node3</title>
<path fill="none" stroke="#404040" d="M929.68,-539.68C911.39,-561.75 890.34,-587.17 869.48,-612.35"/>
<polygon fill="none" stroke="#404040" points="869.47,-612.37 868.72,-619.54 861.81,-621.61 862.56,-614.44 869.47,-612.37"/>
<text text-anchor="middle" x="912" y="-594" font-family="Helvetica,sans-Serif" font-size="10.00"> +GObjects</text>
</g>
<!-- Node10 -->
<g id="node10" class="node">
<title>Node10</title>
<g id="a_node10"><a xlink:href="../../d9/dfa/structSDK_1_1FPointer.html" target="_top" xlink:title=" ">
<polygon fill="white" stroke="black" points="535.5,-962 535.5,-1030 633.5,-1030 633.5,-962 535.5,-962"/>
<text text-anchor="middle" x="584.5" y="-1018" font-family="Helvetica,sans-Serif" font-size="10.00">SDK::FPointer</text>
<polyline fill="none" stroke="black" points="535.5,-1011 633.5,-1011 "/>
<text text-anchor="start" x="543.5" y="-999" font-family="Helvetica,sans-Serif" font-size="10.00">+ Dummy</text>
<text text-anchor="start" x="543.5" y="-988" font-family="Helvetica,sans-Serif" font-size="10.00">+ UnknownData00</text>
<polyline fill="none" stroke="black" points="535.5,-981 633.5,-981 "/>
<text text-anchor="middle" x="584.5" y="-969" font-family="Helvetica,sans-Serif" font-size="10.00"> </text>
</a>
</g>
</g>
<!-- Node10&#45;&gt;Node2 -->
<g id="edge21" class="edge">
<title>Node10&#45;&gt;Node2</title>
<path fill="none" stroke="#404040" d="M574.75,-961.84C567.33,-935.71 557.27,-898.26 550.5,-865 525.89,-744.14 560.81,-701.74 506.5,-591 500.91,-579.61 494.18,-568.21 486.94,-557.23"/>
<polygon fill="none" stroke="#404040" points="486.92,-557.21 480.24,-554.49 480.18,-547.28 486.86,-550 486.92,-557.21"/>
<text text-anchor="middle" x="602.5" y="-740" font-family="Helvetica,sans-Serif" font-size="10.00"> +TmpActionNotifyData</text>
</g>
<!-- Node10&#45;&gt;Node3 -->
<g id="edge12" class="edge">
<title>Node10&#45;&gt;Node3</title>
<path fill="none" stroke="#404040" d="M605.32,-961.77C619.62,-939.28 639.25,-909.04 657.5,-883 659.39,-880.3 661.31,-877.58 663.26,-874.84"/>
<polygon fill="none" stroke="#404040" points="663.4,-874.64 663.64,-867.43 670.38,-864.87 670.15,-872.08 663.4,-874.64"/>
<text text-anchor="middle" x="692" y="-908" font-family="Helvetica,sans-Serif" font-size="10.00"> +StateFrame</text>
<text text-anchor="middle" x="692" y="-897" font-family="Helvetica,sans-Serif" font-size="10.00">+VfTableObject</text>
<text text-anchor="middle" x="692" y="-886" font-family="Helvetica,sans-Serif" font-size="10.00">+LinkerIndex</text>
</g>
<!-- Node11&#45;&gt;Node3 -->
<g id="edge13" class="edge">
<title>Node11&#45;&gt;Node3</title>
<path fill="none" stroke="#404040" d="M725.5,-90.72C725.5,-110.67 725.5,-134.52 725.5,-156 725.5,-473.5 725.5,-473.5 725.5,-473.5 725.5,-517.61 730.48,-565.43 736.79,-608.3"/>
<polygon fill="none" stroke="#404040" points="736.8,-608.38 741.65,-613.72 738.6,-620.25 733.74,-614.92 736.8,-608.38"/>
<text text-anchor="middle" x="743" y="-266" font-family="Helvetica,sans-Serif" font-size="10.00"> +Class</text>
</g>
<!-- Node12 -->
<g id="node12" class="node">
<title>Node12</title>
<g id="a_node12"><a xlink:href="../../df/d72/classSDK_1_1UState.html" target="_top" xlink:title=" ">
<polygon fill="white" stroke="black" points="765.5,-128.5 765.5,-185.5 863.5,-185.5 863.5,-128.5 765.5,-128.5"/>
<text text-anchor="middle" x="814.5" y="-173.5" font-family="Helvetica,sans-Serif" font-size="10.00">SDK::UState</text>
<polyline fill="none" stroke="black" points="765.5,-166.5 863.5,-166.5 "/>
<text text-anchor="start" x="773.5" y="-154.5" font-family="Helvetica,sans-Serif" font-size="10.00">+ UnknownData00</text>
<polyline fill="none" stroke="black" points="765.5,-147.5 863.5,-147.5 "/>
<text text-anchor="start" x="773.5" y="-135.5" font-family="Helvetica,sans-Serif" font-size="10.00">+ StaticClass()</text>
</a>
</g>
</g>
<!-- Node12&#45;&gt;Node11 -->
<g id="edge14" class="edge">
<title>Node12&#45;&gt;Node11</title>
<path fill="none" stroke="midnightblue" d="M785.51,-120.33C777.83,-110.89 769.45,-100.58 761.46,-90.74"/>
<polygon fill="none" stroke="midnightblue" points="783.02,-122.82 792.04,-128.37 788.45,-118.4 783.02,-122.82"/>
</g>
<!-- Node13 -->
<g id="node13" class="node">
<title>Node13</title>
<g id="a_node13"><a xlink:href="../../d8/de9/classSDK_1_1UStruct.html" target="_top" xlink:title=" ">
<polygon fill="white" stroke="black" points="778.5,-229 778.5,-308 876.5,-308 876.5,-229 778.5,-229"/>
<text text-anchor="middle" x="827.5" y="-296" font-family="Helvetica,sans-Serif" font-size="10.00">SDK::UStruct</text>
<polyline fill="none" stroke="black" points="778.5,-289 876.5,-289 "/>
<text text-anchor="start" x="786.5" y="-277" font-family="Helvetica,sans-Serif" font-size="10.00">+ UnknownData00</text>
<text text-anchor="start" x="786.5" y="-266" font-family="Helvetica,sans-Serif" font-size="10.00">+ PropertySize</text>
<text text-anchor="start" x="786.5" y="-255" font-family="Helvetica,sans-Serif" font-size="10.00">+ UnknownData01</text>
<polyline fill="none" stroke="black" points="778.5,-248 876.5,-248 "/>
<text text-anchor="start" x="786.5" y="-236" font-family="Helvetica,sans-Serif" font-size="10.00">+ StaticClass()</text>
</a>
</g>
</g>
<!-- Node13&#45;&gt;Node12 -->
<g id="edge15" class="edge">
<title>Node13&#45;&gt;Node12</title>
<path fill="none" stroke="midnightblue" d="M821.7,-218.64C820.35,-207.31 818.97,-195.64 817.78,-185.6"/>
<polygon fill="none" stroke="midnightblue" points="818.26,-219.38 822.92,-228.89 825.21,-218.55 818.26,-219.38"/>
</g>
<!-- Node14&#45;&gt;Node13 -->
<g id="edge16" class="edge">
<title>Node14&#45;&gt;Node13</title>
<path fill="none" stroke="midnightblue" d="M796.97,-433.5C798.55,-405.28 801.83,-365.97 808.5,-332 810.03,-324.21 812.14,-316.01 814.41,-308.2"/>
<polygon fill="none" stroke="midnightblue" points="793.46,-433.57 796.44,-443.74 800.45,-433.93 793.46,-433.57"/>
</g>
<!-- Node14&#45;&gt;Node13 -->
<g id="edge19" class="edge">
<title>Node14&#45;&gt;Node13</title>
<path fill="none" stroke="#404040" d="M799.88,-443.84C804.91,-412.08 813.27,-359.34 819.47,-320.17"/>
<polygon fill="none" stroke="#404040" points="819.49,-320.08 816.48,-313.53 821.37,-308.23 824.38,-314.78 819.49,-320.08"/>
<text text-anchor="middle" x="844.5" y="-346" font-family="Helvetica,sans-Serif" font-size="10.00"> +SuperField</text>
<text text-anchor="middle" x="844.5" y="-335" font-family="Helvetica,sans-Serif" font-size="10.00">+Children</text>
</g>
<!-- Node14&#45;&gt;Node14 -->
<g id="edge18" class="edge">
<title>Node14&#45;&gt;Node14</title>
<path fill="none" stroke="#404040" d="M837.21,-495.39C847.41,-493.69 855,-486.06 855,-472.5 855,-464.66 852.46,-458.8 848.35,-454.93"/>
<polygon fill="none" stroke="#404040" points="848.04,-454.78 840.9,-455.81 837.21,-449.61 844.34,-448.59 848.04,-454.78"/>
<text text-anchor="middle" x="870.5" y="-470" font-family="Helvetica,sans-Serif" font-size="10.00"> +Next</text>
</g>
<!-- Node15 -->
<g id="node15" class="node">
<title>Node15</title>
<g id="a_node15"><a xlink:href="../../d4/daf/structSDK_1_1FColor.html" target="_top" xlink:title=" ">
<polygon fill="white" stroke="black" points="432,-692 432,-793 505,-793 505,-692 432,-692"/>
<text text-anchor="middle" x="468.5" y="-781" font-family="Helvetica,sans-Serif" font-size="10.00">SDK::FColor</text>
<polyline fill="none" stroke="black" points="432,-774 505,-774 "/>
<text text-anchor="start" x="440" y="-762" font-family="Helvetica,sans-Serif" font-size="10.00">+ B</text>
<text text-anchor="start" x="440" y="-751" font-family="Helvetica,sans-Serif" font-size="10.00">+ G</text>
<text text-anchor="start" x="440" y="-740" font-family="Helvetica,sans-Serif" font-size="10.00">+ R</text>
<text text-anchor="start" x="440" y="-729" font-family="Helvetica,sans-Serif" font-size="10.00">+ A</text>
<polyline fill="none" stroke="black" points="432,-722 505,-722 "/>
<text text-anchor="start" x="440" y="-710" font-family="Helvetica,sans-Serif" font-size="10.00">+ FColor()</text>
<text text-anchor="start" x="440" y="-699" font-family="Helvetica,sans-Serif" font-size="10.00">+ FColor()</text>
</a>
</g>
</g>
<!-- Node15&#45;&gt;Node2 -->
<g id="edge22" class="edge">
<title>Node15&#45;&gt;Node2</title>
<path fill="none" stroke="#404040" d="M460.33,-691.95C455.39,-662.57 448.83,-624.61 442.5,-591 442.09,-588.83 441.68,-586.64 441.25,-584.43"/>
<polygon fill="none" stroke="#404040" points="441.22,-584.29 436.16,-579.15 438.95,-572.5 444.01,-577.64 441.22,-584.29"/>
<text text-anchor="middle" x="473" y="-594" font-family="Helvetica,sans-Serif" font-size="10.00"> +NotifyColor</text>
</g>
<!-- Node16&#45;&gt;Node2 -->
<g id="edge23" class="edge">
<title>Node16&#45;&gt;Node2</title>
<path fill="none" stroke="#404040" d="M357.22,-669.94C357.54,-644.71 359.61,-616.34 365.5,-591 366.03,-588.71 366.61,-586.41 367.23,-584.11"/>
<polygon fill="none" stroke="#404040" points="367.24,-584.07 365.1,-577.19 370.64,-572.57 372.78,-579.46 367.24,-584.07"/>
<text text-anchor="middle" x="402" y="-594" font-family="Helvetica,sans-Serif" font-size="10.00"> +ViewGroupList</text>
</g>
<!-- Node17 -->
<g id="node17" class="node">
<title>Node17</title>
<g id="a_node17"><a xlink:href="../../d3/d88/classSDK_1_1FString.html" target="_top" xlink:title=" ">
<polygon fill="white" stroke="black" points="323,-945.5 323,-1046.5 398,-1046.5 398,-945.5 323,-945.5"/>
<text text-anchor="middle" x="360.5" y="-1034.5" font-family="Helvetica,sans-Serif" font-size="10.00">SDK::FString</text>
<polyline fill="none" stroke="black" points="323,-1027.5 398,-1027.5 "/>
<text text-anchor="middle" x="360.5" y="-1015.5" font-family="Helvetica,sans-Serif" font-size="10.00"> </text>
<polyline fill="none" stroke="black" points="323,-1008.5 398,-1008.5 "/>
<text text-anchor="start" x="331" y="-996.5" font-family="Helvetica,sans-Serif" font-size="10.00">+ FString()</text>
<text text-anchor="start" x="331" y="-985.5" font-family="Helvetica,sans-Serif" font-size="10.00">+ FString()</text>
<text text-anchor="start" x="331" y="-974.5" font-family="Helvetica,sans-Serif" font-size="10.00">+ IsValid()</text>
<text text-anchor="start" x="331" y="-963.5" font-family="Helvetica,sans-Serif" font-size="10.00">+ c_str()</text>
<text text-anchor="start" x="331" y="-952.5" font-family="Helvetica,sans-Serif" font-size="10.00">+ ToString()</text>
</a>
</g>
</g>
<!-- Node17&#45;&gt;Node2 -->
<g id="edge28" class="edge">
<title>Node17&#45;&gt;Node2</title>
<path fill="none" stroke="#404040" d="M322.98,-967.78C294.04,-944.28 256.2,-907.47 239.5,-865 199.64,-763.67 192.88,-718.4 239.5,-620 261.68,-573.19 306.94,-536.37 346.4,-511.34"/>
<polygon fill="none" stroke="#404040" points="346.61,-511.22 349.61,-504.66 356.82,-504.92 353.81,-511.47 346.61,-511.22"/>
<text text-anchor="middle" x="269" y="-751" font-family="Helvetica,sans-Serif" font-size="10.00"> +ToolTip</text>
<text text-anchor="middle" x="269" y="-740" font-family="Helvetica,sans-Serif" font-size="10.00">+GroupName</text>
<text text-anchor="middle" x="269" y="-729" font-family="Helvetica,sans-Serif" font-size="10.00">+NotifyName</text>
</g>
<!-- Node17&#45;&gt;Node16 -->
<g id="edge24" class="edge">
<title>Node17&#45;&gt;Node16</title>
<path fill="none" stroke="#404040" d="M360.5,-945.31C360.5,-911.78 360.5,-866.7 360.5,-827.65"/>
<polygon fill="none" stroke="#404040" points="360.5,-827.47 356.5,-821.47 360.5,-815.47 364.5,-821.47 360.5,-827.47"/>
<text text-anchor="middle" x="374.5" y="-897" font-family="Helvetica,sans-Serif" font-size="10.00"> &#45;Data</text>
</g>
<!-- Node18&#45;&gt;Node17 -->
<g id="edge25" class="edge">
<title>Node18&#45;&gt;Node17</title>
<path fill="none" stroke="midnightblue" d="M374.12,-1095.09C371.82,-1078.52 369.47,-1061.58 367.38,-1046.55"/>
<polygon fill="none" stroke="midnightblue" points="370.71,-1095.92 375.55,-1105.34 377.64,-1094.96 370.71,-1095.92"/>
</g>
<!-- Node19 -->
<g id="node19" class="node">
<title>Node19</title>
<g id="a_node19"><a xlink:href="../../df/d1c/classSDK_1_1TEnumAsByte.html" target="_top" xlink:title=" ">
<polygon fill="white" stroke="black" points="20.5,-675.5 20.5,-809.5 174.5,-809.5 174.5,-675.5 20.5,-675.5"/>
<text text-anchor="start" x="28.5" y="-797.5" font-family="Helvetica,sans-Serif" font-size="10.00">SDK::TEnumAsByte&lt; ECTE</text>
<text text-anchor="middle" x="97.5" y="-786.5" font-family="Helvetica,sans-Serif" font-size="10.00">_NOTIFY_ACTIVATE_TYPE &gt;</text>
<polyline fill="none" stroke="black" points="20.5,-779.5 174.5,-779.5 "/>
<text text-anchor="start" x="28.5" y="-767.5" font-family="Helvetica,sans-Serif" font-size="10.00">&#45; value</text>
<polyline fill="none" stroke="black" points="20.5,-760.5 174.5,-760.5 "/>
<text text-anchor="start" x="28.5" y="-748.5" font-family="Helvetica,sans-Serif" font-size="10.00">+ TEnumAsByte()</text>
<text text-anchor="start" x="28.5" y="-737.5" font-family="Helvetica,sans-Serif" font-size="10.00">+ TEnumAsByte()</text>
<text text-anchor="start" x="28.5" y="-726.5" font-family="Helvetica,sans-Serif" font-size="10.00">+ TEnumAsByte()</text>
<text text-anchor="start" x="28.5" y="-715.5" font-family="Helvetica,sans-Serif" font-size="10.00">+ TEnumAsByte()</text>
<text text-anchor="start" x="28.5" y="-704.5" font-family="Helvetica,sans-Serif" font-size="10.00">+ operator ECTE_NOTIFY</text>
<text text-anchor="start" x="28.5" y="-693.5" font-family="Helvetica,sans-Serif" font-size="10.00">_ACTIVATE_TYPE()</text>
<text text-anchor="start" x="28.5" y="-682.5" font-family="Helvetica,sans-Serif" font-size="10.00">+ GetValue()</text>
</a>
</g>
</g>
<!-- Node19&#45;&gt;Node2 -->
<g id="edge29" class="edge">
<title>Node19&#45;&gt;Node2</title>
<path fill="none" stroke="#404040" d="M111.93,-675.33C121,-646.54 135.33,-614.16 157.5,-591 208.29,-537.94 287.45,-506.98 345.28,-490.29"/>
<polygon fill="none" stroke="#404040" points="345.35,-490.27 350.05,-484.8 356.91,-487.04 352.21,-492.51 345.35,-490.27"/>
<text text-anchor="middle" x="186.5" y="-594" font-family="Helvetica,sans-Serif" font-size="10.00"> +NotifyType</text>
</g>
<!-- Node20 -->
<g id="node20" class="node">
<title>Node20</title>
<g id="a_node20"><a xlink:href="../../df/d1c/classSDK_1_1TEnumAsByte.html" target="_top" xlink:title=" ">
<polygon fill="white" stroke="black" points="0,-940 0,-1052 157,-1052 157,-940 0,-940"/>
<text text-anchor="middle" x="78.5" y="-1040" font-family="Helvetica,sans-Serif" font-size="10.00">SDK::TEnumAsByte&lt; TEnum &gt;</text>
<polyline fill="none" stroke="black" points="0,-1033 157,-1033 "/>
<text text-anchor="start" x="8" y="-1021" font-family="Helvetica,sans-Serif" font-size="10.00">&#45; value</text>
<polyline fill="none" stroke="black" points="0,-1014 157,-1014 "/>
<text text-anchor="start" x="8" y="-1002" font-family="Helvetica,sans-Serif" font-size="10.00">+ TEnumAsByte()</text>
<text text-anchor="start" x="8" y="-991" font-family="Helvetica,sans-Serif" font-size="10.00">+ TEnumAsByte()</text>
<text text-anchor="start" x="8" y="-980" font-family="Helvetica,sans-Serif" font-size="10.00">+ TEnumAsByte()</text>
<text text-anchor="start" x="8" y="-969" font-family="Helvetica,sans-Serif" font-size="10.00">+ TEnumAsByte()</text>
<text text-anchor="start" x="8" y="-958" font-family="Helvetica,sans-Serif" font-size="10.00">+ operator TEnum()</text>
<text text-anchor="start" x="8" y="-947" font-family="Helvetica,sans-Serif" font-size="10.00">+ GetValue()</text>
</a>
</g>
</g>
<!-- Node20&#45;&gt;Node19 -->
<g id="edge30" class="edge">
<title>Node20&#45;&gt;Node19</title>
<path fill="none" stroke="orange" d="M77.77,-929.56C77.97,-914.27 78.47,-898.05 79.5,-883 81.15,-859 84.19,-832.82 87.32,-809.69"/>
<polygon fill="orange" stroke="orange" points="74.27,-929.95 77.68,-939.98 81.27,-930.01 74.27,-929.95"/>
<text text-anchor="start" x="79.5" y="-902.5" font-family="Helvetica,sans-Serif" font-size="10.00"> &lt; ECTE_NOTIFY_ACTIVATE</text>
<text text-anchor="middle" x="147.5" y="-891.5" font-family="Helvetica,sans-Serif" font-size="10.00">_TYPE &gt;</text>
</g>
</g>
</svg>
        <g id="navigator" transform="translate(0 0)" fill="#404254">
                <rect fill="#f2f5e9" fill-opacity="0.5" stroke="#606060" stroke-width=".5" x="0" y="0" width="60" height="60"/>
                <use id="zoomplus" xlink:href="#zoomPlus" x="17" y="9" onmousedown="handleZoom(evt,'in')"/>
                <use id="zoomminus" xlink:href="#zoomMin" x="42" y="9" onmousedown="handleZoom(evt,'out')"/>
                <use id="reset" xlink:href="#resetDef" x="30" y="36" onmousedown="handleReset()"/>
                <g id="arrowUp" xlink:href="#dirArrow" transform="translate(30 24)" onmousedown="handlePan(0,-1)">
                  <use xlink:href="#rim" fill="#404040">
                        <set attributeName="fill" to="#808080" begin="arrowUp.mouseover" end="arrowUp.mouseout"/>
                  </use>
                  <path fill="none" stroke="white" stroke-width="1.5" d="M0,-3.0v7 M-2.5,-0.5L0,-3.0L2.5,-0.5"/>
                </g>
                <g id="arrowRight" xlink:href="#dirArrow" transform="rotate(90) translate(36 -43)" onmousedown="handlePan(1,0)">
                  <use xlink:href="#rim" fill="#404040">
                        <set attributeName="fill" to="#808080" begin="arrowRight.mouseover" end="arrowRight.mouseout"/>
                  </use>
                  <path fill="none" stroke="white" stroke-width="1.5" d="M0,-3.0v7 M-2.5,-0.5L0,-3.0L2.5,-0.5"/>
                </g>
                <g id="arrowDown" xlink:href="#dirArrow" transform="rotate(180) translate(-30 -48)" onmousedown="handlePan(0,1)">
                  <use xlink:href="#rim" fill="#404040">
                        <set attributeName="fill" to="#808080" begin="arrowDown.mouseover" end="arrowDown.mouseout"/>
                  </use>
                  <path fill="none" stroke="white" stroke-width="1.5" d="M0,-3.0v7 M-2.5,-0.5L0,-3.0L2.5,-0.5"/>
                </g>
                <g id="arrowLeft" xlink:href="#dirArrow" transform="rotate(270) translate(-36 17)" onmousedown="handlePan(-1,0)">
                  <use xlink:href="#rim" fill="#404040">
                        <set attributeName="fill" to="#808080" begin="arrowLeft.mouseover" end="arrowLeft.mouseout"/>
                  </use>
                  <path fill="none" stroke="white" stroke-width="1.5" d="M0,-3.0v7 M-2.5,-0.5L0,-3.0L2.5,-0.5"/>
                </g>
        </g>
        <svg viewBox="0 0 15 15" width="100%" height="30px" preserveAspectRatio="xMaxYMin meet">
         <g id="arrow_out" transform="scale(0.3 0.3)">
          <a xlink:href="classSDK_1_1UEFActionNotify__IdentityParts__coll__graph_org.svg" target="_base">
           <rect id="button" ry="5" rx="5" y="6" x="6" height="38" width="38"
                fill="#f2f5e9" fill-opacity="0.5" stroke="#606060" stroke-width="1.0"/>
           <path id="arrow"
             d="M 11.500037,31.436501 C 11.940474,20.09759 22.043105,11.32322 32.158766,21.979434 L 37.068811,17.246167 C 37.068811,17.246167 37.088388,32 37.088388,32 L 22.160133,31.978069 C 22.160133,31.978069 26.997745,27.140456 26.997745,27.140456 C 18.528582,18.264221 13.291696,25.230495 11.500037,31.436501 z"
             style="fill:#404040;"/>
          </a>
         </g>
        </svg>
</svg>
