<?xml version="1.0" encoding="UTF-8" standalone="no"?>
<!DOCTYPE svg PUBLIC "-//W3C//DTD SVG 1.1//EN"
 "http://www.w3.org/Graphics/SVG/1.1/DTD/svg11.dtd">
<!-- Generated by graphviz version 2.41.20171026.1811 (20171026.1811)
 -->
<!-- Title: SDK::UBookMark2D Pages: 1 -->
<!--zoomable 1364 -->
<svg id="main" version="1.1" xmlns="http://www.w3.org/2000/svg" xmlns:xlink="http://www.w3.org/1999/xlink" xml:space="preserve" onload="init(evt)">
<style type="text/css"><![CDATA[
.edge:hover path { stroke: red; }
.edge:hover polygon { stroke: red; fill: red; }
]]></style>
<script type="text/javascript"><![CDATA[
var edges = document.getElementsByTagName('g');
if (edges && edges.length) {
  for (var i=0;i<edges.length;i++) {
    if (edges[i].id.substr(0,4)=='edge') {
      edges[i].setAttribute('class','edge');
    }
  }
}
]]></script>
        <defs>
                <circle id="rim" cx="0" cy="0" r="7"/>
                <circle id="rim2" cx="0" cy="0" r="3.5"/>
                <g id="zoomPlus">
                        <use xlink:href="#rim" fill="#404040">
                                <set attributeName="fill" to="#808080" begin="zoomplus.mouseover" end="zoomplus.mouseout"/>
                        </use>
                        <path d="M-4,0h8M0,-4v8" fill="none" stroke="white" stroke-width="1.5" pointer-events="none"/>
                </g>
                <g id="zoomMin">
                        <use xlink:href="#rim" fill="#404040">
                                <set attributeName="fill" to="#808080" begin="zoomminus.mouseover" end="zoomminus.mouseout"/>
                        </use>
                        <path d="M-4,0h8" fill="none" stroke="white" stroke-width="1.5" pointer-events="none"/>
                </g>
                <g id="dirArrow">
                        <path fill="none" stroke="white" stroke-width="1.5" d="M0,-3.0v7 M-2.5,-0.5L0,-3.0L2.5,-0.5"/>
                </g>
               <g id="resetDef">
                       <use xlink:href="#rim2" fill="#404040">
                               <set attributeName="fill" to="#808080" begin="reset.mouseover" end="reset.mouseout"/>
                       </use>
               </g>
        </defs>

<script type="text/javascript">
var viewWidth = 569;
var viewHeight = 1364;
var sectionId = 'dynsection-1';
</script>
<script xlink:href="../../svgpan.js"/>
<svg id="graph" class="graph">
<g id="viewport">
<title>SDK::UBookMark2D</title>
<polygon fill="white" stroke="transparent" points="-4,4 -4,-1360 565,-1360 565,4 -4,4"/>
<!-- Node1 -->
<g id="node1" class="node">
<title>Node1</title>
<g id="a_node1"><a xlink:title=" ">
<polygon fill="#bfbfbf" stroke="black" points="443.5,-400 443.5,-457 551.5,-457 551.5,-400 443.5,-400"/>
<text text-anchor="middle" x="497.5" y="-445" font-family="Helvetica,sans-Serif" font-size="10.00">SDK::UBookMark2D</text>
<polyline fill="none" stroke="black" points="443.5,-438 551.5,-438 "/>
<text text-anchor="start" x="451.5" y="-426" font-family="Helvetica,sans-Serif" font-size="10.00">+ Zoom2D</text>
<polyline fill="none" stroke="black" points="443.5,-419 551.5,-419 "/>
<text text-anchor="start" x="451.5" y="-407" font-family="Helvetica,sans-Serif" font-size="10.00">+ StaticClass()</text>
</a>
</g>
</g>
<!-- Node2 -->
<g id="node2" class="node">
<title>Node2</title>
<g id="a_node2"><a xlink:href="../../d9/d45/classSDK_1_1UObject.html" target="_top" xlink:title=" ">
<polygon fill="white" stroke="black" points="164.5,-543.5 164.5,-787.5 362.5,-787.5 362.5,-543.5 164.5,-543.5"/>
<text text-anchor="middle" x="263.5" y="-775.5" font-family="Helvetica,sans-Serif" font-size="10.00">SDK::UObject</text>
<polyline fill="none" stroke="black" points="164.5,-768.5 362.5,-768.5 "/>
<text text-anchor="start" x="172.5" y="-756.5" font-family="Helvetica,sans-Serif" font-size="10.00">+ ObjectInternalInteger</text>
<text text-anchor="start" x="172.5" y="-745.5" font-family="Helvetica,sans-Serif" font-size="10.00">+ NetIndex</text>
<polyline fill="none" stroke="black" points="164.5,-738.5 362.5,-738.5 "/>
<text text-anchor="start" x="172.5" y="-726.5" font-family="Helvetica,sans-Serif" font-size="10.00">+ UObject::GetName()</text>
<text text-anchor="start" x="172.5" y="-715.5" font-family="Helvetica,sans-Serif" font-size="10.00">+ GetFullName()</text>
<text text-anchor="start" x="172.5" y="-704.5" font-family="Helvetica,sans-Serif" font-size="10.00">+ IsA()</text>
<text text-anchor="start" x="172.5" y="-693.5" font-family="Helvetica,sans-Serif" font-size="10.00">+ ProcessEvent()</text>
<text text-anchor="start" x="172.5" y="-682.5" font-family="Helvetica,sans-Serif" font-size="10.00">+ STATIC_ProfNodeEvent()</text>
<text text-anchor="start" x="172.5" y="-671.5" font-family="Helvetica,sans-Serif" font-size="10.00">+ STATIC_ProfNodeSetDepthThreshold()</text>
<text text-anchor="start" x="172.5" y="-660.5" font-family="Helvetica,sans-Serif" font-size="10.00">+ STATIC_ProfNodeSetTimeThreshold</text>
<text text-anchor="start" x="172.5" y="-649.5" font-family="Helvetica,sans-Serif" font-size="10.00">Seconds()</text>
<text text-anchor="start" x="172.5" y="-638.5" font-family="Helvetica,sans-Serif" font-size="10.00">+ STATIC_ProfNodeStop()</text>
<text text-anchor="start" x="172.5" y="-627.5" font-family="Helvetica,sans-Serif" font-size="10.00">+ STATIC_ProfNodeStart()</text>
<text text-anchor="start" x="172.5" y="-616.5" font-family="Helvetica,sans-Serif" font-size="10.00">+ STATIC_GetStringFromGuid()</text>
<text text-anchor="start" x="172.5" y="-605.5" font-family="Helvetica,sans-Serif" font-size="10.00">and 298 more...</text>
<text text-anchor="start" x="172.5" y="-594.5" font-family="Helvetica,sans-Serif" font-size="10.00">+ GetGlobalObjects()</text>
<text text-anchor="start" x="172.5" y="-583.5" font-family="Helvetica,sans-Serif" font-size="10.00">+ FindObject()</text>
<text text-anchor="start" x="172.5" y="-572.5" font-family="Helvetica,sans-Serif" font-size="10.00">+ FindClass()</text>
<text text-anchor="start" x="172.5" y="-561.5" font-family="Helvetica,sans-Serif" font-size="10.00">+ GetObjectCasted()</text>
<text text-anchor="start" x="172.5" y="-550.5" font-family="Helvetica,sans-Serif" font-size="10.00">+ StaticClass()</text>
</a>
</g>
</g>
<!-- Node2&#45;&gt;Node1 -->
<g id="edge1" class="edge">
<title>Node2&#45;&gt;Node1</title>
<path fill="none" stroke="midnightblue" d="M370.54,-578.9C389.88,-561.78 409.33,-543.39 426.5,-525 446.38,-503.71 465.9,-476.9 479.42,-457.11"/>
<polygon fill="none" stroke="midnightblue" points="368.06,-576.42 362.85,-585.64 372.68,-581.68 368.06,-576.42"/>
</g>
<!-- Node2&#45;&gt;Node2 -->
<g id="edge7" class="edge">
<title>Node2&#45;&gt;Node2</title>
<path fill="none" stroke="#404040" d="M362.51,-688.53C373.44,-684.15 380.5,-676.48 380.5,-665.5 380.5,-658.64 377.74,-653.07 373.01,-648.78"/>
<polygon fill="none" stroke="#404040" points="372.8,-648.66 365.59,-648.99 362.51,-642.47 369.72,-642.14 372.8,-648.66"/>
<text text-anchor="middle" x="420" y="-674" font-family="Helvetica,sans-Serif" font-size="10.00"> +Outer</text>
<text text-anchor="middle" x="420" y="-663" font-family="Helvetica,sans-Serif" font-size="10.00">+Linker</text>
<text text-anchor="middle" x="420" y="-652" font-family="Helvetica,sans-Serif" font-size="10.00">+ObjectArchetype</text>
</g>
<!-- Node8 -->
<g id="node8" class="node">
<title>Node8</title>
<g id="a_node8"><a xlink:href="../../d3/d79/classSDK_1_1TArray.html" target="_top" xlink:title=" ">
<polygon fill="white" stroke="black" points="2,-361.5 2,-495.5 163,-495.5 163,-361.5 2,-361.5"/>
<text text-anchor="middle" x="82.5" y="-483.5" font-family="Helvetica,sans-Serif" font-size="10.00">SDK::TArray&lt; SDK::UObject * &gt;</text>
<polyline fill="none" stroke="black" points="2,-476.5 163,-476.5 "/>
<text text-anchor="start" x="10" y="-464.5" font-family="Helvetica,sans-Serif" font-size="10.00">&#45; Count</text>
<text text-anchor="start" x="10" y="-453.5" font-family="Helvetica,sans-Serif" font-size="10.00">&#45; Max</text>
<polyline fill="none" stroke="black" points="2,-446.5 163,-446.5 "/>
<text text-anchor="start" x="10" y="-434.5" font-family="Helvetica,sans-Serif" font-size="10.00">+ TArray()</text>
<text text-anchor="start" x="10" y="-423.5" font-family="Helvetica,sans-Serif" font-size="10.00">+ Num()</text>
<text text-anchor="start" x="10" y="-412.5" font-family="Helvetica,sans-Serif" font-size="10.00">+ operator[]()</text>
<text text-anchor="start" x="10" y="-401.5" font-family="Helvetica,sans-Serif" font-size="10.00">+ operator[]()</text>
<text text-anchor="start" x="10" y="-390.5" font-family="Helvetica,sans-Serif" font-size="10.00">+ IsValidIndex()</text>
<text text-anchor="start" x="10" y="-379.5" font-family="Helvetica,sans-Serif" font-size="10.00">+ GetByIndex()</text>
<text text-anchor="start" x="10" y="-368.5" font-family="Helvetica,sans-Serif" font-size="10.00">+ GetByIndex()</text>
</a>
</g>
</g>
<!-- Node2&#45;&gt;Node8 -->
<g id="edge9" class="edge">
<title>Node2&#45;&gt;Node8</title>
<path fill="none" stroke="#404040" d="M164.26,-561.65C154.14,-549.63 144.34,-537.27 135.5,-525 131.17,-518.99 126.93,-512.6 122.85,-506.07"/>
<polygon fill="none" stroke="#404040" points="122.81,-506 116.27,-502.95 116.58,-495.74 123.11,-498.8 122.81,-506"/>
<text text-anchor="middle" x="149.5" y="-517" font-family="Helvetica,sans-Serif" font-size="10.00"> &#45;Data</text>
</g>
<!-- Node10 -->
<g id="node10" class="node">
<title>Node10</title>
<g id="a_node10"><a xlink:href="../../d7/d85/classSDK_1_1UClass.html" target="_top" xlink:title=" ">
<polygon fill="white" stroke="black" points="281,-0.5 281,-90.5 402,-90.5 402,-0.5 281,-0.5"/>
<text text-anchor="middle" x="341.5" y="-78.5" font-family="Helvetica,sans-Serif" font-size="10.00">SDK::UClass</text>
<polyline fill="none" stroke="black" points="281,-71.5 402,-71.5 "/>
<text text-anchor="start" x="289" y="-59.5" font-family="Helvetica,sans-Serif" font-size="10.00">+ UnknownData00</text>
<text text-anchor="start" x="289" y="-48.5" font-family="Helvetica,sans-Serif" font-size="10.00">+ UnknownData01</text>
<polyline fill="none" stroke="black" points="281,-41.5 402,-41.5 "/>
<text text-anchor="start" x="289" y="-29.5" font-family="Helvetica,sans-Serif" font-size="10.00">+ CreateDefaultObject()</text>
<text text-anchor="start" x="289" y="-18.5" font-family="Helvetica,sans-Serif" font-size="10.00">+ CreateDefaultObject()</text>
<text text-anchor="start" x="289" y="-7.5" font-family="Helvetica,sans-Serif" font-size="10.00">+ StaticClass()</text>
</a>
</g>
</g>
<!-- Node2&#45;&gt;Node10 -->
<g id="edge19" class="edge">
<title>Node2&#45;&gt;Node10</title>
<path fill="none" stroke="#404040" d="M362.68,-562.01C390.1,-523.54 412.5,-477.45 412.5,-429.5 412.5,-429.5 412.5,-429.5 412.5,-156 412.5,-136.21 404.23,-117.17 393.34,-100.68"/>
<polygon fill="none" stroke="#404040" points="393.23,-100.53 386.49,-97.96 386.26,-90.75 393,-93.32 393.23,-100.53"/>
<text text-anchor="middle" x="460" y="-260.5" font-family="Helvetica,sans-Serif" font-size="10.00"> +ClassDefaultObject</text>
</g>
<!-- Node13 -->
<g id="node13" class="node">
<title>Node13</title>
<g id="a_node13"><a xlink:href="../../de/dd6/classSDK_1_1UField.html" target="_top" xlink:title=" ">
<polygon fill="white" stroke="black" points="181,-400 181,-457 264,-457 264,-400 181,-400"/>
<text text-anchor="middle" x="222.5" y="-445" font-family="Helvetica,sans-Serif" font-size="10.00">SDK::UField</text>
<polyline fill="none" stroke="black" points="181,-438 264,-438 "/>
<text text-anchor="middle" x="222.5" y="-426" font-family="Helvetica,sans-Serif" font-size="10.00"> </text>
<polyline fill="none" stroke="black" points="181,-419 264,-419 "/>
<text text-anchor="start" x="189" y="-407" font-family="Helvetica,sans-Serif" font-size="10.00">+ StaticClass()</text>
</a>
</g>
</g>
<!-- Node2&#45;&gt;Node13 -->
<g id="edge16" class="edge">
<title>Node2&#45;&gt;Node13</title>
<path fill="none" stroke="midnightblue" d="M250.97,-533.18C249.9,-526.68 248.75,-520.26 247.5,-514 243.67,-494.8 237.42,-473.67 232.13,-457.35"/>
<polygon fill="none" stroke="midnightblue" points="247.57,-534.12 252.58,-543.46 254.49,-533.03 247.57,-534.12"/>
</g>
<!-- Node3 -->
<g id="node3" class="node">
<title>Node3</title>
<g id="a_node3"><a xlink:href="../../d0/d22/structSDK_1_1FQWord.html" target="_top" xlink:title=" ">
<polygon fill="white" stroke="black" points="266.5,-885 266.5,-953 346.5,-953 346.5,-885 266.5,-885"/>
<text text-anchor="middle" x="306.5" y="-941" font-family="Helvetica,sans-Serif" font-size="10.00">SDK::FQWord</text>
<polyline fill="none" stroke="black" points="266.5,-934 346.5,-934 "/>
<text text-anchor="start" x="274.5" y="-922" font-family="Helvetica,sans-Serif" font-size="10.00">+ A</text>
<text text-anchor="start" x="274.5" y="-911" font-family="Helvetica,sans-Serif" font-size="10.00">+ B</text>
<polyline fill="none" stroke="black" points="266.5,-904 346.5,-904 "/>
<text text-anchor="middle" x="306.5" y="-892" font-family="Helvetica,sans-Serif" font-size="10.00"> </text>
</a>
</g>
</g>
<!-- Node3&#45;&gt;Node2 -->
<g id="edge2" class="edge">
<title>Node3&#45;&gt;Node2</title>
<path fill="none" stroke="#404040" d="M300.83,-884.86C297.02,-862.57 291.72,-831.56 286.31,-799.9"/>
<polygon fill="none" stroke="#404040" points="286.25,-799.58 281.3,-794.34 284.23,-787.75 289.18,-792.99 286.25,-799.58"/>
<text text-anchor="middle" x="324.5" y="-820" font-family="Helvetica,sans-Serif" font-size="10.00"> +ObjectFlags</text>
</g>
<!-- Node4 -->
<g id="node4" class="node">
<title>Node4</title>
<g id="a_node4"><a xlink:href="../../d0/db6/structSDK_1_1FName.html" target="_top" xlink:title=" ">
<polygon fill="white" stroke="black" points="141,-857.5 141,-980.5 248,-980.5 248,-857.5 141,-857.5"/>
<text text-anchor="middle" x="194.5" y="-968.5" font-family="Helvetica,sans-Serif" font-size="10.00">SDK::FName</text>
<polyline fill="none" stroke="black" points="141,-961.5 248,-961.5 "/>
<text text-anchor="start" x="149" y="-949.5" font-family="Helvetica,sans-Serif" font-size="10.00">+ Index</text>
<text text-anchor="start" x="149" y="-938.5" font-family="Helvetica,sans-Serif" font-size="10.00">+ Number</text>
<polyline fill="none" stroke="black" points="141,-931.5 248,-931.5 "/>
<text text-anchor="start" x="149" y="-919.5" font-family="Helvetica,sans-Serif" font-size="10.00">+ FName()</text>
<text text-anchor="start" x="149" y="-908.5" font-family="Helvetica,sans-Serif" font-size="10.00">+ FName()</text>
<text text-anchor="start" x="149" y="-897.5" font-family="Helvetica,sans-Serif" font-size="10.00">+ FName()</text>
<text text-anchor="start" x="149" y="-886.5" font-family="Helvetica,sans-Serif" font-size="10.00">+ GetName()</text>
<text text-anchor="start" x="149" y="-875.5" font-family="Helvetica,sans-Serif" font-size="10.00">+ operator==()</text>
<text text-anchor="start" x="149" y="-864.5" font-family="Helvetica,sans-Serif" font-size="10.00">+ GetGlobalNames()</text>
</a>
</g>
</g>
<!-- Node4&#45;&gt;Node2 -->
<g id="edge3" class="edge">
<title>Node4&#45;&gt;Node2</title>
<path fill="none" stroke="#404040" d="M211.12,-857.44C215.97,-839.74 221.48,-819.66 227.06,-799.33"/>
<polygon fill="none" stroke="#404040" points="227.08,-799.26 224.81,-792.41 230.25,-787.69 232.52,-794.53 227.08,-799.26"/>
<text text-anchor="middle" x="243.5" y="-820" font-family="Helvetica,sans-Serif" font-size="10.00"> +Name</text>
</g>
<!-- Node5 -->
<g id="node5" class="node">
<title>Node5</title>
<g id="a_node5"><a xlink:href="../../d3/d79/classSDK_1_1TArray.html" target="_top" xlink:title=" ">
<polygon fill="white" stroke="black" points="104.5,-1028.5 104.5,-1162.5 284.5,-1162.5 284.5,-1028.5 104.5,-1028.5"/>
<text text-anchor="middle" x="194.5" y="-1150.5" font-family="Helvetica,sans-Serif" font-size="10.00">SDK::TArray&lt; SDK::FNameEntry * &gt;</text>
<polyline fill="none" stroke="black" points="104.5,-1143.5 284.5,-1143.5 "/>
<text text-anchor="start" x="112.5" y="-1131.5" font-family="Helvetica,sans-Serif" font-size="10.00">&#45; Count</text>
<text text-anchor="start" x="112.5" y="-1120.5" font-family="Helvetica,sans-Serif" font-size="10.00">&#45; Max</text>
<polyline fill="none" stroke="black" points="104.5,-1113.5 284.5,-1113.5 "/>
<text text-anchor="start" x="112.5" y="-1101.5" font-family="Helvetica,sans-Serif" font-size="10.00">+ TArray()</text>
<text text-anchor="start" x="112.5" y="-1090.5" font-family="Helvetica,sans-Serif" font-size="10.00">+ Num()</text>
<text text-anchor="start" x="112.5" y="-1079.5" font-family="Helvetica,sans-Serif" font-size="10.00">+ operator[]()</text>
<text text-anchor="start" x="112.5" y="-1068.5" font-family="Helvetica,sans-Serif" font-size="10.00">+ operator[]()</text>
<text text-anchor="start" x="112.5" y="-1057.5" font-family="Helvetica,sans-Serif" font-size="10.00">+ IsValidIndex()</text>
<text text-anchor="start" x="112.5" y="-1046.5" font-family="Helvetica,sans-Serif" font-size="10.00">+ GetByIndex()</text>
<text text-anchor="start" x="112.5" y="-1035.5" font-family="Helvetica,sans-Serif" font-size="10.00">+ GetByIndex()</text>
</a>
</g>
</g>
<!-- Node5&#45;&gt;Node4 -->
<g id="edge4" class="edge">
<title>Node5&#45;&gt;Node4</title>
<path fill="none" stroke="#404040" d="M194.5,-1028.03C194.5,-1016.45 194.5,-1004.35 194.5,-992.62"/>
<polygon fill="none" stroke="#404040" points="194.5,-992.56 190.5,-986.56 194.5,-980.56 198.5,-986.56 194.5,-992.56"/>
<text text-anchor="middle" x="219" y="-1002" font-family="Helvetica,sans-Serif" font-size="10.00"> +GNames</text>
</g>
<!-- Node6 -->
<g id="node6" class="node">
<title>Node6</title>
<g id="a_node6"><a xlink:href="../../d7/ddf/classSDK_1_1FNameEntry.html" target="_top" xlink:title=" ">
<polygon fill="white" stroke="black" points="149,-1249 149,-1317 248,-1317 248,-1249 149,-1249"/>
<text text-anchor="middle" x="198.5" y="-1305" font-family="Helvetica,sans-Serif" font-size="10.00">SDK::FNameEntry</text>
<polyline fill="none" stroke="black" points="149,-1298 248,-1298 "/>
<text text-anchor="start" x="157" y="-1286" font-family="Helvetica,sans-Serif" font-size="10.00">+ UnknownData00</text>
<text text-anchor="start" x="157" y="-1275" font-family="Helvetica,sans-Serif" font-size="10.00">+ name</text>
<polyline fill="none" stroke="black" points="149,-1268 248,-1268 "/>
<text text-anchor="start" x="157" y="-1256" font-family="Helvetica,sans-Serif" font-size="10.00">+ GetName()</text>
</a>
</g>
</g>
<!-- Node6&#45;&gt;Node5 -->
<g id="edge5" class="edge">
<title>Node6&#45;&gt;Node5</title>
<path fill="none" stroke="#404040" d="M197.78,-1248.84C197.34,-1228.23 196.75,-1200.83 196.19,-1174.95"/>
<polygon fill="none" stroke="#404040" points="196.19,-1174.8 192.06,-1168.89 195.93,-1162.8 200.06,-1168.71 196.19,-1174.8"/>
<text text-anchor="middle" x="210.5" y="-1184" font-family="Helvetica,sans-Serif" font-size="10.00"> &#45;Data</text>
</g>
<!-- Node7 -->
<g id="node7" class="node">
<title>Node7</title>
<g id="a_node7"><a xlink:href="../../d3/d79/classSDK_1_1TArray.html" target="_top" xlink:title=" ">
<polygon fill="white" stroke="black" points="0,-1210.5 0,-1355.5 97,-1355.5 97,-1210.5 0,-1210.5"/>
<text text-anchor="middle" x="48.5" y="-1343.5" font-family="Helvetica,sans-Serif" font-size="10.00">SDK::TArray&lt; T &gt;</text>
<polyline fill="none" stroke="black" points="0,-1336.5 97,-1336.5 "/>
<text text-anchor="start" x="8" y="-1324.5" font-family="Helvetica,sans-Serif" font-size="10.00">&#45; Data</text>
<text text-anchor="start" x="8" y="-1313.5" font-family="Helvetica,sans-Serif" font-size="10.00">&#45; Count</text>
<text text-anchor="start" x="8" y="-1302.5" font-family="Helvetica,sans-Serif" font-size="10.00">&#45; Max</text>
<polyline fill="none" stroke="black" points="0,-1295.5 97,-1295.5 "/>
<text text-anchor="start" x="8" y="-1283.5" font-family="Helvetica,sans-Serif" font-size="10.00">+ TArray()</text>
<text text-anchor="start" x="8" y="-1272.5" font-family="Helvetica,sans-Serif" font-size="10.00">+ Num()</text>
<text text-anchor="start" x="8" y="-1261.5" font-family="Helvetica,sans-Serif" font-size="10.00">+ operator[]()</text>
<text text-anchor="start" x="8" y="-1250.5" font-family="Helvetica,sans-Serif" font-size="10.00">+ operator[]()</text>
<text text-anchor="start" x="8" y="-1239.5" font-family="Helvetica,sans-Serif" font-size="10.00">+ IsValidIndex()</text>
<text text-anchor="start" x="8" y="-1228.5" font-family="Helvetica,sans-Serif" font-size="10.00">+ GetByIndex()</text>
<text text-anchor="start" x="8" y="-1217.5" font-family="Helvetica,sans-Serif" font-size="10.00">+ GetByIndex()</text>
</a>
</g>
</g>
<!-- Node7&#45;&gt;Node5 -->
<g id="edge6" class="edge">
<title>Node7&#45;&gt;Node5</title>
<path fill="none" stroke="orange" d="M70.01,-1200.72C73.33,-1193.77 77.14,-1187.08 81.5,-1181 88.07,-1171.84 95.92,-1163.25 104.39,-1155.31"/>
<polygon fill="orange" stroke="orange" points="66.61,-1199.77 65.78,-1210.33 73.01,-1202.59 66.61,-1199.77"/>
<text text-anchor="middle" x="137" y="-1184" font-family="Helvetica,sans-Serif" font-size="10.00"> &lt; SDK::FNameEntry * &gt;</text>
</g>
<!-- Node7&#45;&gt;Node8 -->
<g id="edge10" class="edge">
<title>Node7&#45;&gt;Node8</title>
<path fill="none" stroke="orange" d="M37.75,-1200.08C34.37,-1167.85 31.5,-1130.5 31.5,-1096.5 31.5,-1096.5 31.5,-1096.5 31.5,-664.5 31.5,-606.47 46.54,-542.18 60.28,-495.53"/>
<polygon fill="orange" stroke="orange" points="34.3,-1200.78 38.86,-1210.35 41.26,-1200.03 34.3,-1200.78"/>
<text text-anchor="middle" x="77" y="-916.5" font-family="Helvetica,sans-Serif" font-size="10.00"> &lt; SDK::UObject * &gt;</text>
</g>
<!-- Node8&#45;&gt;Node2 -->
<g id="edge8" class="edge">
<title>Node8&#45;&gt;Node2</title>
<path fill="none" stroke="#404040" d="M151.65,-495.57C157.18,-501.65 162.54,-507.84 167.5,-514 172.53,-520.24 177.52,-526.76 182.43,-533.44"/>
<polygon fill="none" stroke="#404040" points="182.54,-533.58 189.3,-536.1 189.57,-543.31 182.81,-540.79 182.54,-533.58"/>
<text text-anchor="middle" x="199" y="-517" font-family="Helvetica,sans-Serif" font-size="10.00"> +GObjects</text>
</g>
<!-- Node9 -->
<g id="node9" class="node">
<title>Node9</title>
<g id="a_node9"><a xlink:href="../../d9/dfa/structSDK_1_1FPointer.html" target="_top" xlink:title=" ">
<polygon fill="white" stroke="black" points="364.5,-885 364.5,-953 462.5,-953 462.5,-885 364.5,-885"/>
<text text-anchor="middle" x="413.5" y="-941" font-family="Helvetica,sans-Serif" font-size="10.00">SDK::FPointer</text>
<polyline fill="none" stroke="black" points="364.5,-934 462.5,-934 "/>
<text text-anchor="start" x="372.5" y="-922" font-family="Helvetica,sans-Serif" font-size="10.00">+ Dummy</text>
<text text-anchor="start" x="372.5" y="-911" font-family="Helvetica,sans-Serif" font-size="10.00">+ UnknownData00</text>
<polyline fill="none" stroke="black" points="364.5,-904 462.5,-904 "/>
<text text-anchor="middle" x="413.5" y="-892" font-family="Helvetica,sans-Serif" font-size="10.00"> </text>
</a>
</g>
</g>
<!-- Node9&#45;&gt;Node2 -->
<g id="edge11" class="edge">
<title>Node9&#45;&gt;Node2</title>
<path fill="none" stroke="#404040" d="M399.19,-884.97C388.98,-862.3 374.46,-831.76 359.5,-806 357.95,-803.33 356.37,-800.65 354.75,-797.95"/>
<polygon fill="none" stroke="#404040" points="354.64,-797.77 348.1,-794.72 348.4,-787.52 354.94,-790.56 354.64,-797.77"/>
<text text-anchor="middle" x="411" y="-831" font-family="Helvetica,sans-Serif" font-size="10.00"> +StateFrame</text>
<text text-anchor="middle" x="411" y="-820" font-family="Helvetica,sans-Serif" font-size="10.00">+VfTableObject</text>
<text text-anchor="middle" x="411" y="-809" font-family="Helvetica,sans-Serif" font-size="10.00">+LinkerIndex</text>
</g>
<!-- Node10&#45;&gt;Node2 -->
<g id="edge12" class="edge">
<title>Node10&#45;&gt;Node2</title>
<path fill="none" stroke="#404040" d="M341.5,-90.72C341.5,-110.67 341.5,-134.52 341.5,-156 341.5,-429.5 341.5,-429.5 341.5,-429.5 341.5,-463.53 334.04,-498.99 323.74,-531.73"/>
<polygon fill="none" stroke="#404040" points="323.72,-531.79 325.65,-538.74 319.98,-543.2 318.05,-536.25 323.72,-531.79"/>
<text text-anchor="middle" x="359" y="-260.5" font-family="Helvetica,sans-Serif" font-size="10.00"> +Class</text>
</g>
<!-- Node11 -->
<g id="node11" class="node">
<title>Node11</title>
<g id="a_node11"><a xlink:href="../../df/d72/classSDK_1_1UState.html" target="_top" xlink:title=" ">
<polygon fill="white" stroke="black" points="213.5,-128.5 213.5,-185.5 311.5,-185.5 311.5,-128.5 213.5,-128.5"/>
<text text-anchor="middle" x="262.5" y="-173.5" font-family="Helvetica,sans-Serif" font-size="10.00">SDK::UState</text>
<polyline fill="none" stroke="black" points="213.5,-166.5 311.5,-166.5 "/>
<text text-anchor="start" x="221.5" y="-154.5" font-family="Helvetica,sans-Serif" font-size="10.00">+ UnknownData00</text>
<polyline fill="none" stroke="black" points="213.5,-147.5 311.5,-147.5 "/>
<text text-anchor="start" x="221.5" y="-135.5" font-family="Helvetica,sans-Serif" font-size="10.00">+ StaticClass()</text>
</a>
</g>
</g>
<!-- Node11&#45;&gt;Node10 -->
<g id="edge13" class="edge">
<title>Node11&#45;&gt;Node10</title>
<path fill="none" stroke="midnightblue" d="M288.44,-120.04C295.2,-110.68 302.56,-100.48 309.58,-90.74"/>
<polygon fill="none" stroke="midnightblue" points="285.45,-118.21 282.44,-128.37 291.12,-122.31 285.45,-118.21"/>
</g>
<!-- Node12 -->
<g id="node12" class="node">
<title>Node12</title>
<g id="a_node12"><a xlink:href="../../d8/de9/classSDK_1_1UStruct.html" target="_top" xlink:title=" ">
<polygon fill="white" stroke="black" points="207.5,-223.5 207.5,-302.5 305.5,-302.5 305.5,-223.5 207.5,-223.5"/>
<text text-anchor="middle" x="256.5" y="-290.5" font-family="Helvetica,sans-Serif" font-size="10.00">SDK::UStruct</text>
<polyline fill="none" stroke="black" points="207.5,-283.5 305.5,-283.5 "/>
<text text-anchor="start" x="215.5" y="-271.5" font-family="Helvetica,sans-Serif" font-size="10.00">+ UnknownData00</text>
<text text-anchor="start" x="215.5" y="-260.5" font-family="Helvetica,sans-Serif" font-size="10.00">+ PropertySize</text>
<text text-anchor="start" x="215.5" y="-249.5" font-family="Helvetica,sans-Serif" font-size="10.00">+ UnknownData01</text>
<polyline fill="none" stroke="black" points="207.5,-242.5 305.5,-242.5 "/>
<text text-anchor="start" x="215.5" y="-230.5" font-family="Helvetica,sans-Serif" font-size="10.00">+ StaticClass()</text>
</a>
</g>
</g>
<!-- Node12&#45;&gt;Node11 -->
<g id="edge14" class="edge">
<title>Node12&#45;&gt;Node11</title>
<path fill="none" stroke="midnightblue" d="M259.32,-213.16C259.86,-203.74 260.41,-194.17 260.9,-185.72"/>
<polygon fill="none" stroke="midnightblue" points="255.82,-213.09 258.73,-223.27 262.8,-213.49 255.82,-213.09"/>
</g>
<!-- Node13&#45;&gt;Node12 -->
<g id="edge15" class="edge">
<title>Node13&#45;&gt;Node12</title>
<path fill="none" stroke="midnightblue" d="M243.03,-390.88C250.04,-376.43 256.99,-359.38 260.5,-343 263.27,-330.11 263.39,-315.78 262.47,-302.9"/>
<polygon fill="none" stroke="midnightblue" points="239.83,-389.46 238.46,-399.97 246.08,-392.61 239.83,-389.46"/>
</g>
<!-- Node13&#45;&gt;Node12 -->
<g id="edge18" class="edge">
<title>Node13&#45;&gt;Node12</title>
<path fill="none" stroke="#404040" d="M208.22,-399.99C198.81,-377.99 189.99,-346.69 200.5,-321 201.67,-318.14 203.06,-315.34 204.63,-312.61"/>
<polygon fill="none" stroke="#404040" points="204.73,-312.47 204.76,-305.26 211.43,-302.52 211.4,-309.73 204.73,-312.47"/>
<text text-anchor="middle" x="228.5" y="-335" font-family="Helvetica,sans-Serif" font-size="10.00"> +SuperField</text>
<text text-anchor="middle" x="228.5" y="-324" font-family="Helvetica,sans-Serif" font-size="10.00">+Children</text>
</g>
<!-- Node13&#45;&gt;Node13 -->
<g id="edge17" class="edge">
<title>Node13&#45;&gt;Node13</title>
<path fill="none" stroke="#404040" d="M264.21,-445.11C274.41,-443.88 282,-438.34 282,-428.5 282,-422.96 279.6,-418.79 275.68,-415.98"/>
<polygon fill="none" stroke="#404040" points="275.51,-415.92 268.51,-417.67 264.21,-411.89 271.2,-410.13 275.51,-415.92"/>
<text text-anchor="middle" x="297.5" y="-426" font-family="Helvetica,sans-Serif" font-size="10.00"> +Next</text>
</g>
<!-- Node14 -->
<g id="node14" class="node">
<title>Node14</title>
<g id="a_node14"><a xlink:href="../../df/d3f/structSDK_1_1FIntPoint.html" target="_top" xlink:title=" ">
<polygon fill="white" stroke="black" points="478,-631.5 478,-699.5 561,-699.5 561,-631.5 478,-631.5"/>
<text text-anchor="middle" x="519.5" y="-687.5" font-family="Helvetica,sans-Serif" font-size="10.00">SDK::FIntPoint</text>
<polyline fill="none" stroke="black" points="478,-680.5 561,-680.5 "/>
<text text-anchor="start" x="486" y="-668.5" font-family="Helvetica,sans-Serif" font-size="10.00">+ X</text>
<text text-anchor="start" x="486" y="-657.5" font-family="Helvetica,sans-Serif" font-size="10.00">+ Y</text>
<polyline fill="none" stroke="black" points="478,-650.5 561,-650.5 "/>
<text text-anchor="middle" x="519.5" y="-638.5" font-family="Helvetica,sans-Serif" font-size="10.00"> </text>
</a>
</g>
</g>
<!-- Node14&#45;&gt;Node1 -->
<g id="edge20" class="edge">
<title>Node14&#45;&gt;Node1</title>
<path fill="none" stroke="#404040" d="M516.39,-631.33C512.4,-588.66 505.47,-514.62 501.2,-469.06"/>
<polygon fill="none" stroke="#404040" points="501.19,-468.96 496.65,-463.36 500.08,-457.01 504.62,-462.61 501.19,-468.96"/>
<text text-anchor="middle" x="529.5" y="-517" font-family="Helvetica,sans-Serif" font-size="10.00"> +Location</text>
</g>
</g>
</svg>
        <g id="navigator" transform="translate(0 0)" fill="#404254">
                <rect fill="#f2f5e9" fill-opacity="0.5" stroke="#606060" stroke-width=".5" x="0" y="0" width="60" height="60"/>
                <use id="zoomplus" xlink:href="#zoomPlus" x="17" y="9" onmousedown="handleZoom(evt,'in')"/>
                <use id="zoomminus" xlink:href="#zoomMin" x="42" y="9" onmousedown="handleZoom(evt,'out')"/>
                <use id="reset" xlink:href="#resetDef" x="30" y="36" onmousedown="handleReset()"/>
                <g id="arrowUp" xlink:href="#dirArrow" transform="translate(30 24)" onmousedown="handlePan(0,-1)">
                  <use xlink:href="#rim" fill="#404040">
                        <set attributeName="fill" to="#808080" begin="arrowUp.mouseover" end="arrowUp.mouseout"/>
                  </use>
                  <path fill="none" stroke="white" stroke-width="1.5" d="M0,-3.0v7 M-2.5,-0.5L0,-3.0L2.5,-0.5"/>
                </g>
                <g id="arrowRight" xlink:href="#dirArrow" transform="rotate(90) translate(36 -43)" onmousedown="handlePan(1,0)">
                  <use xlink:href="#rim" fill="#404040">
                        <set attributeName="fill" to="#808080" begin="arrowRight.mouseover" end="arrowRight.mouseout"/>
                  </use>
                  <path fill="none" stroke="white" stroke-width="1.5" d="M0,-3.0v7 M-2.5,-0.5L0,-3.0L2.5,-0.5"/>
                </g>
                <g id="arrowDown" xlink:href="#dirArrow" transform="rotate(180) translate(-30 -48)" onmousedown="handlePan(0,1)">
                  <use xlink:href="#rim" fill="#404040">
                        <set attributeName="fill" to="#808080" begin="arrowDown.mouseover" end="arrowDown.mouseout"/>
                  </use>
                  <path fill="none" stroke="white" stroke-width="1.5" d="M0,-3.0v7 M-2.5,-0.5L0,-3.0L2.5,-0.5"/>
                </g>
                <g id="arrowLeft" xlink:href="#dirArrow" transform="rotate(270) translate(-36 17)" onmousedown="handlePan(-1,0)">
                  <use xlink:href="#rim" fill="#404040">
                        <set attributeName="fill" to="#808080" begin="arrowLeft.mouseover" end="arrowLeft.mouseout"/>
                  </use>
                  <path fill="none" stroke="white" stroke-width="1.5" d="M0,-3.0v7 M-2.5,-0.5L0,-3.0L2.5,-0.5"/>
                </g>
        </g>
        <svg viewBox="0 0 15 15" width="100%" height="30px" preserveAspectRatio="xMaxYMin meet">
         <g id="arrow_out" transform="scale(0.3 0.3)">
          <a xlink:href="classSDK_1_1UBookMark2D__coll__graph_org.svg" target="_base">
           <rect id="button" ry="5" rx="5" y="6" x="6" height="38" width="38"
                fill="#f2f5e9" fill-opacity="0.5" stroke="#606060" stroke-width="1.0"/>
           <path id="arrow"
             d="M 11.500037,31.436501 C 11.940474,20.09759 22.043105,11.32322 32.158766,21.979434 L 37.068811,17.246167 C 37.068811,17.246167 37.088388,32 37.088388,32 L 22.160133,31.978069 C 22.160133,31.978069 26.997745,27.140456 26.997745,27.140456 C 18.528582,18.264221 13.291696,25.230495 11.500037,31.436501 z"
             style="fill:#404040;"/>
          </a>
         </g>
        </svg>
</svg>
