<?xml version="1.0" encoding="UTF-8" standalone="no"?>
<!DOCTYPE svg PUBLIC "-//W3C//DTD SVG 1.1//EN"
 "http://www.w3.org/Graphics/SVG/1.1/DTD/svg11.dtd">
<!-- Generated by graphviz version 2.41.20171026.1811 (20171026.1811)
 -->
<!-- Title: SDK::UParticleModuleEventBase Pages: 1 -->
<!--zoomable 981 -->
<svg id="main" version="1.1" xmlns="http://www.w3.org/2000/svg" xmlns:xlink="http://www.w3.org/1999/xlink" xml:space="preserve" onload="init(evt)">
<style type="text/css"><![CDATA[
.edge:hover path { stroke: red; }
.edge:hover polygon { stroke: red; fill: red; }
]]></style>
<script type="text/javascript"><![CDATA[
var edges = document.getElementsByTagName('g');
if (edges && edges.length) {
  for (var i=0;i<edges.length;i++) {
    if (edges[i].id.substr(0,4)=='edge') {
      edges[i].setAttribute('class','edge');
    }
  }
}
]]></script>
        <defs>
                <circle id="rim" cx="0" cy="0" r="7"/>
                <circle id="rim2" cx="0" cy="0" r="3.5"/>
                <g id="zoomPlus">
                        <use xlink:href="#rim" fill="#404040">
                                <set attributeName="fill" to="#808080" begin="zoomplus.mouseover" end="zoomplus.mouseout"/>
                        </use>
                        <path d="M-4,0h8M0,-4v8" fill="none" stroke="white" stroke-width="1.5" pointer-events="none"/>
                </g>
                <g id="zoomMin">
                        <use xlink:href="#rim" fill="#404040">
                                <set attributeName="fill" to="#808080" begin="zoomminus.mouseover" end="zoomminus.mouseout"/>
                        </use>
                        <path d="M-4,0h8" fill="none" stroke="white" stroke-width="1.5" pointer-events="none"/>
                </g>
                <g id="dirArrow">
                        <path fill="none" stroke="white" stroke-width="1.5" d="M0,-3.0v7 M-2.5,-0.5L0,-3.0L2.5,-0.5"/>
                </g>
               <g id="resetDef">
                       <use xlink:href="#rim2" fill="#404040">
                               <set attributeName="fill" to="#808080" begin="reset.mouseover" end="reset.mouseout"/>
                       </use>
               </g>
        </defs>

<script type="text/javascript">
var viewWidth = 387;
var viewHeight = 981;
var sectionId = 'dynsection-0';
</script>
<script xlink:href="../../svgpan.js"/>
<svg id="graph" class="graph">
<g id="viewport">
<title>SDK::UParticleModuleEventBase</title>
<polygon fill="white" stroke="transparent" points="-4,4 -4,-977 383,-977 383,4 -4,4"/>
<!-- Node1 -->
<g id="node1" class="node">
<title>Node1</title>
<g id="a_node1"><a xlink:title=" ">
<polygon fill="#bfbfbf" stroke="black" points="67.5,-276.5 67.5,-333.5 231.5,-333.5 231.5,-276.5 67.5,-276.5"/>
<text text-anchor="middle" x="149.5" y="-321.5" font-family="Helvetica,sans-Serif" font-size="10.00">SDK::UParticleModuleEventBase</text>
<polyline fill="none" stroke="black" points="67.5,-314.5 231.5,-314.5 "/>
<text text-anchor="middle" x="149.5" y="-302.5" font-family="Helvetica,sans-Serif" font-size="10.00"> </text>
<polyline fill="none" stroke="black" points="67.5,-295.5 231.5,-295.5 "/>
<text text-anchor="start" x="75.5" y="-283.5" font-family="Helvetica,sans-Serif" font-size="10.00">+ StaticClass()</text>
</a>
</g>
</g>
<!-- Node4 -->
<g id="node4" class="node">
<title>Node4</title>
<g id="a_node4"><a xlink:href="../../d9/d8a/classSDK_1_1UParticleModuleEventGenerator.html" target="_top" xlink:title=" ">
<polygon fill="white" stroke="black" points="0,-160.5 0,-228.5 141,-228.5 141,-160.5 0,-160.5"/>
<text text-anchor="start" x="8" y="-216.5" font-family="Helvetica,sans-Serif" font-size="10.00">SDK::UParticleModuleEvent</text>
<text text-anchor="middle" x="70.5" y="-205.5" font-family="Helvetica,sans-Serif" font-size="10.00">Generator</text>
<polyline fill="none" stroke="black" points="0,-198.5 141,-198.5 "/>
<text text-anchor="start" x="8" y="-186.5" font-family="Helvetica,sans-Serif" font-size="10.00">+ Events</text>
<polyline fill="none" stroke="black" points="0,-179.5 141,-179.5 "/>
<text text-anchor="start" x="8" y="-167.5" font-family="Helvetica,sans-Serif" font-size="10.00">+ StaticClass()</text>
</a>
</g>
</g>
<!-- Node1&#45;&gt;Node4 -->
<g id="edge3" class="edge">
<title>Node1&#45;&gt;Node4</title>
<path fill="none" stroke="midnightblue" d="M123.43,-268.19C114.12,-255.4 103.67,-241.06 94.54,-228.52"/>
<polygon fill="none" stroke="midnightblue" points="120.64,-270.32 129.36,-276.34 126.3,-266.2 120.64,-270.32"/>
</g>
<!-- Node5 -->
<g id="node5" class="node">
<title>Node5</title>
<g id="a_node5"><a xlink:href="../../d7/d1a/classSDK_1_1UParticleModuleEventReceiverBase.html" target="_top" xlink:title=" ">
<polygon fill="white" stroke="black" points="159,-149.5 159,-239.5 300,-239.5 300,-149.5 159,-149.5"/>
<text text-anchor="start" x="167" y="-227.5" font-family="Helvetica,sans-Serif" font-size="10.00">SDK::UParticleModuleEvent</text>
<text text-anchor="middle" x="229.5" y="-216.5" font-family="Helvetica,sans-Serif" font-size="10.00">ReceiverBase</text>
<polyline fill="none" stroke="black" points="159,-209.5 300,-209.5 "/>
<text text-anchor="start" x="167" y="-197.5" font-family="Helvetica,sans-Serif" font-size="10.00">+ EventGeneratorType</text>
<text text-anchor="start" x="167" y="-186.5" font-family="Helvetica,sans-Serif" font-size="10.00">+ UnknownData00</text>
<text text-anchor="start" x="167" y="-175.5" font-family="Helvetica,sans-Serif" font-size="10.00">+ EventName</text>
<polyline fill="none" stroke="black" points="159,-168.5 300,-168.5 "/>
<text text-anchor="start" x="167" y="-156.5" font-family="Helvetica,sans-Serif" font-size="10.00">+ StaticClass()</text>
</a>
</g>
</g>
<!-- Node1&#45;&gt;Node5 -->
<g id="edge4" class="edge">
<title>Node1&#45;&gt;Node5</title>
<path fill="none" stroke="midnightblue" d="M175.91,-268.19C182.66,-259.03 190,-249.07 197.02,-239.55"/>
<polygon fill="none" stroke="midnightblue" points="173.01,-266.21 169.89,-276.34 178.65,-270.37 173.01,-266.21"/>
</g>
<!-- Node2 -->
<g id="node2" class="node">
<title>Node2</title>
<g id="a_node2"><a xlink:href="../../d5/df1/classSDK_1_1UParticleModule.html" target="_top" xlink:title=" ">
<polygon fill="white" stroke="black" points="73,-370.5 73,-581.5 226,-581.5 226,-370.5 73,-370.5"/>
<text text-anchor="middle" x="149.5" y="-569.5" font-family="Helvetica,sans-Serif" font-size="10.00">SDK::UParticleModule</text>
<polyline fill="none" stroke="black" points="73,-562.5 226,-562.5 "/>
<text text-anchor="start" x="81" y="-550.5" font-family="Helvetica,sans-Serif" font-size="10.00">+ bSpawnModule</text>
<text text-anchor="start" x="81" y="-539.5" font-family="Helvetica,sans-Serif" font-size="10.00">+ bUpdateModule</text>
<text text-anchor="start" x="81" y="-528.5" font-family="Helvetica,sans-Serif" font-size="10.00">+ bFinalUpdateModule</text>
<text text-anchor="start" x="81" y="-517.5" font-family="Helvetica,sans-Serif" font-size="10.00">+ bCurvesAsColor</text>
<text text-anchor="start" x="81" y="-506.5" font-family="Helvetica,sans-Serif" font-size="10.00">+ b3DDrawMode</text>
<text text-anchor="start" x="81" y="-495.5" font-family="Helvetica,sans-Serif" font-size="10.00">+ EnableToggle3DDrawMode</text>
<text text-anchor="start" x="81" y="-484.5" font-family="Helvetica,sans-Serif" font-size="10.00">+ bSupported3DDrawMode</text>
<text text-anchor="start" x="81" y="-473.5" font-family="Helvetica,sans-Serif" font-size="10.00">+ bEnabled</text>
<text text-anchor="start" x="81" y="-462.5" font-family="Helvetica,sans-Serif" font-size="10.00">+ bEditable</text>
<text text-anchor="start" x="81" y="-451.5" font-family="Helvetica,sans-Serif" font-size="10.00">+ LODDuplicate</text>
<text text-anchor="start" x="81" y="-440.5" font-family="Helvetica,sans-Serif" font-size="10.00">+ bSupportsRandomSeed</text>
<text text-anchor="start" x="81" y="-429.5" font-family="Helvetica,sans-Serif" font-size="10.00">+ bRequiresLoopingNotification</text>
<text text-anchor="start" x="81" y="-418.5" font-family="Helvetica,sans-Serif" font-size="10.00">+ LODValidity</text>
<text text-anchor="start" x="81" y="-407.5" font-family="Helvetica,sans-Serif" font-size="10.00">+ UnknownData00</text>
<text text-anchor="start" x="81" y="-396.5" font-family="Helvetica,sans-Serif" font-size="10.00">+ ModuleEditorColor</text>
<polyline fill="none" stroke="black" points="73,-389.5 226,-389.5 "/>
<text text-anchor="start" x="81" y="-377.5" font-family="Helvetica,sans-Serif" font-size="10.00">+ StaticClass()</text>
</a>
</g>
</g>
<!-- Node2&#45;&gt;Node1 -->
<g id="edge1" class="edge">
<title>Node2&#45;&gt;Node1</title>
<path fill="none" stroke="midnightblue" d="M149.5,-360.1C149.5,-350.43 149.5,-341.37 149.5,-333.53"/>
<polygon fill="none" stroke="midnightblue" points="146,-360.37 149.5,-370.37 153,-360.37 146,-360.37"/>
</g>
<!-- Node3 -->
<g id="node3" class="node">
<title>Node3</title>
<g id="a_node3"><a xlink:href="../../d9/d45/classSDK_1_1UObject.html" target="_top" xlink:title=" ">
<polygon fill="white" stroke="black" points="50.5,-618.5 50.5,-972.5 248.5,-972.5 248.5,-618.5 50.5,-618.5"/>
<text text-anchor="middle" x="149.5" y="-960.5" font-family="Helvetica,sans-Serif" font-size="10.00">SDK::UObject</text>
<polyline fill="none" stroke="black" points="50.5,-953.5 248.5,-953.5 "/>
<text text-anchor="start" x="58.5" y="-941.5" font-family="Helvetica,sans-Serif" font-size="10.00">+ VfTableObject</text>
<text text-anchor="start" x="58.5" y="-930.5" font-family="Helvetica,sans-Serif" font-size="10.00">+ ObjectFlags</text>
<text text-anchor="start" x="58.5" y="-919.5" font-family="Helvetica,sans-Serif" font-size="10.00">+ StateFrame</text>
<text text-anchor="start" x="58.5" y="-908.5" font-family="Helvetica,sans-Serif" font-size="10.00">+ Linker</text>
<text text-anchor="start" x="58.5" y="-897.5" font-family="Helvetica,sans-Serif" font-size="10.00">+ LinkerIndex</text>
<text text-anchor="start" x="58.5" y="-886.5" font-family="Helvetica,sans-Serif" font-size="10.00">+ ObjectInternalInteger</text>
<text text-anchor="start" x="58.5" y="-875.5" font-family="Helvetica,sans-Serif" font-size="10.00">+ NetIndex</text>
<text text-anchor="start" x="58.5" y="-864.5" font-family="Helvetica,sans-Serif" font-size="10.00">+ Outer</text>
<text text-anchor="start" x="58.5" y="-853.5" font-family="Helvetica,sans-Serif" font-size="10.00">+ Name</text>
<text text-anchor="start" x="58.5" y="-842.5" font-family="Helvetica,sans-Serif" font-size="10.00">+ Class</text>
<text text-anchor="start" x="58.5" y="-831.5" font-family="Helvetica,sans-Serif" font-size="10.00">+ ObjectArchetype</text>
<text text-anchor="start" x="58.5" y="-820.5" font-family="Helvetica,sans-Serif" font-size="10.00">+ GObjects</text>
<polyline fill="none" stroke="black" points="50.5,-813.5 248.5,-813.5 "/>
<text text-anchor="start" x="58.5" y="-801.5" font-family="Helvetica,sans-Serif" font-size="10.00">+ UObject::GetName()</text>
<text text-anchor="start" x="58.5" y="-790.5" font-family="Helvetica,sans-Serif" font-size="10.00">+ GetFullName()</text>
<text text-anchor="start" x="58.5" y="-779.5" font-family="Helvetica,sans-Serif" font-size="10.00">+ IsA()</text>
<text text-anchor="start" x="58.5" y="-768.5" font-family="Helvetica,sans-Serif" font-size="10.00">+ ProcessEvent()</text>
<text text-anchor="start" x="58.5" y="-757.5" font-family="Helvetica,sans-Serif" font-size="10.00">+ STATIC_ProfNodeEvent()</text>
<text text-anchor="start" x="58.5" y="-746.5" font-family="Helvetica,sans-Serif" font-size="10.00">+ STATIC_ProfNodeSetDepthThreshold()</text>
<text text-anchor="start" x="58.5" y="-735.5" font-family="Helvetica,sans-Serif" font-size="10.00">+ STATIC_ProfNodeSetTimeThreshold</text>
<text text-anchor="start" x="58.5" y="-724.5" font-family="Helvetica,sans-Serif" font-size="10.00">Seconds()</text>
<text text-anchor="start" x="58.5" y="-713.5" font-family="Helvetica,sans-Serif" font-size="10.00">+ STATIC_ProfNodeStop()</text>
<text text-anchor="start" x="58.5" y="-702.5" font-family="Helvetica,sans-Serif" font-size="10.00">+ STATIC_ProfNodeStart()</text>
<text text-anchor="start" x="58.5" y="-691.5" font-family="Helvetica,sans-Serif" font-size="10.00">+ STATIC_GetStringFromGuid()</text>
<text text-anchor="start" x="58.5" y="-680.5" font-family="Helvetica,sans-Serif" font-size="10.00">and 298 more...</text>
<text text-anchor="start" x="58.5" y="-669.5" font-family="Helvetica,sans-Serif" font-size="10.00">+ GetGlobalObjects()</text>
<text text-anchor="start" x="58.5" y="-658.5" font-family="Helvetica,sans-Serif" font-size="10.00">+ FindObject()</text>
<text text-anchor="start" x="58.5" y="-647.5" font-family="Helvetica,sans-Serif" font-size="10.00">+ FindClass()</text>
<text text-anchor="start" x="58.5" y="-636.5" font-family="Helvetica,sans-Serif" font-size="10.00">+ GetObjectCasted()</text>
<text text-anchor="start" x="58.5" y="-625.5" font-family="Helvetica,sans-Serif" font-size="10.00">+ StaticClass()</text>
</a>
</g>
</g>
<!-- Node3&#45;&gt;Node2 -->
<g id="edge2" class="edge">
<title>Node3&#45;&gt;Node2</title>
<path fill="none" stroke="midnightblue" d="M149.5,-607.96C149.5,-599.01 149.5,-590.19 149.5,-581.6"/>
<polygon fill="none" stroke="midnightblue" points="146,-608.11 149.5,-618.11 153,-608.11 146,-608.11"/>
</g>
<!-- Node6 -->
<g id="node6" class="node">
<title>Node6</title>
<g id="a_node6"><a xlink:href="../../df/dd3/classSDK_1_1UParticleModuleEventReceiverKillParticles.html" target="_top" xlink:title=" ">
<polygon fill="white" stroke="black" points="79,-22.5 79,-90.5 220,-90.5 220,-22.5 79,-22.5"/>
<text text-anchor="start" x="87" y="-78.5" font-family="Helvetica,sans-Serif" font-size="10.00">SDK::UParticleModuleEvent</text>
<text text-anchor="middle" x="149.5" y="-67.5" font-family="Helvetica,sans-Serif" font-size="10.00">ReceiverKillParticles</text>
<polyline fill="none" stroke="black" points="79,-60.5 220,-60.5 "/>
<text text-anchor="start" x="87" y="-48.5" font-family="Helvetica,sans-Serif" font-size="10.00">+ bStopSpawning</text>
<polyline fill="none" stroke="black" points="79,-41.5 220,-41.5 "/>
<text text-anchor="start" x="87" y="-29.5" font-family="Helvetica,sans-Serif" font-size="10.00">+ StaticClass()</text>
</a>
</g>
</g>
<!-- Node5&#45;&gt;Node6 -->
<g id="edge5" class="edge">
<title>Node5&#45;&gt;Node6</title>
<path fill="none" stroke="midnightblue" d="M198.43,-140.68C188.53,-123.84 177.85,-105.7 169.01,-90.66"/>
<polygon fill="none" stroke="midnightblue" points="195.44,-142.5 203.53,-149.34 201.47,-138.95 195.44,-142.5"/>
</g>
<!-- Node7 -->
<g id="node7" class="node">
<title>Node7</title>
<g id="a_node7"><a xlink:href="../../d4/da2/classSDK_1_1UParticleModuleEventReceiverSpawn.html" target="_top" xlink:title=" ">
<polygon fill="white" stroke="black" points="238,-0.5 238,-112.5 379,-112.5 379,-0.5 238,-0.5"/>
<text text-anchor="start" x="246" y="-100.5" font-family="Helvetica,sans-Serif" font-size="10.00">SDK::UParticleModuleEvent</text>
<text text-anchor="middle" x="308.5" y="-89.5" font-family="Helvetica,sans-Serif" font-size="10.00">ReceiverSpawn</text>
<polyline fill="none" stroke="black" points="238,-82.5 379,-82.5 "/>
<text text-anchor="start" x="246" y="-70.5" font-family="Helvetica,sans-Serif" font-size="10.00">+ SpawnCount</text>
<text text-anchor="start" x="246" y="-59.5" font-family="Helvetica,sans-Serif" font-size="10.00">+ bUseParticleTime</text>
<text text-anchor="start" x="246" y="-48.5" font-family="Helvetica,sans-Serif" font-size="10.00">+ bUsePSysLocation</text>
<text text-anchor="start" x="246" y="-37.5" font-family="Helvetica,sans-Serif" font-size="10.00">+ bInheritVelocity</text>
<text text-anchor="start" x="246" y="-26.5" font-family="Helvetica,sans-Serif" font-size="10.00">+ InheritVelocityScale</text>
<polyline fill="none" stroke="black" points="238,-19.5 379,-19.5 "/>
<text text-anchor="start" x="246" y="-7.5" font-family="Helvetica,sans-Serif" font-size="10.00">+ StaticClass()</text>
</a>
</g>
</g>
<!-- Node5&#45;&gt;Node7 -->
<g id="edge6" class="edge">
<title>Node5&#45;&gt;Node7</title>
<path fill="none" stroke="midnightblue" d="M260.32,-140.44C265.58,-131.4 271.05,-121.97 276.34,-112.87"/>
<polygon fill="none" stroke="midnightblue" points="257.15,-138.94 255.15,-149.34 263.2,-142.46 257.15,-138.94"/>
</g>
</g>
</svg>
        <g id="navigator" transform="translate(0 0)" fill="#404254">
                <rect fill="#f2f5e9" fill-opacity="0.5" stroke="#606060" stroke-width=".5" x="0" y="0" width="60" height="60"/>
                <use id="zoomplus" xlink:href="#zoomPlus" x="17" y="9" onmousedown="handleZoom(evt,'in')"/>
                <use id="zoomminus" xlink:href="#zoomMin" x="42" y="9" onmousedown="handleZoom(evt,'out')"/>
                <use id="reset" xlink:href="#resetDef" x="30" y="36" onmousedown="handleReset()"/>
                <g id="arrowUp" xlink:href="#dirArrow" transform="translate(30 24)" onmousedown="handlePan(0,-1)">
                  <use xlink:href="#rim" fill="#404040">
                        <set attributeName="fill" to="#808080" begin="arrowUp.mouseover" end="arrowUp.mouseout"/>
                  </use>
                  <path fill="none" stroke="white" stroke-width="1.5" d="M0,-3.0v7 M-2.5,-0.5L0,-3.0L2.5,-0.5"/>
                </g>
                <g id="arrowRight" xlink:href="#dirArrow" transform="rotate(90) translate(36 -43)" onmousedown="handlePan(1,0)">
                  <use xlink:href="#rim" fill="#404040">
                        <set attributeName="fill" to="#808080" begin="arrowRight.mouseover" end="arrowRight.mouseout"/>
                  </use>
                  <path fill="none" stroke="white" stroke-width="1.5" d="M0,-3.0v7 M-2.5,-0.5L0,-3.0L2.5,-0.5"/>
                </g>
                <g id="arrowDown" xlink:href="#dirArrow" transform="rotate(180) translate(-30 -48)" onmousedown="handlePan(0,1)">
                  <use xlink:href="#rim" fill="#404040">
                        <set attributeName="fill" to="#808080" begin="arrowDown.mouseover" end="arrowDown.mouseout"/>
                  </use>
                  <path fill="none" stroke="white" stroke-width="1.5" d="M0,-3.0v7 M-2.5,-0.5L0,-3.0L2.5,-0.5"/>
                </g>
                <g id="arrowLeft" xlink:href="#dirArrow" transform="rotate(270) translate(-36 17)" onmousedown="handlePan(-1,0)">
                  <use xlink:href="#rim" fill="#404040">
                        <set attributeName="fill" to="#808080" begin="arrowLeft.mouseover" end="arrowLeft.mouseout"/>
                  </use>
                  <path fill="none" stroke="white" stroke-width="1.5" d="M0,-3.0v7 M-2.5,-0.5L0,-3.0L2.5,-0.5"/>
                </g>
        </g>
        <svg viewBox="0 0 15 15" width="100%" height="30px" preserveAspectRatio="xMaxYMin meet">
         <g id="arrow_out" transform="scale(0.3 0.3)">
          <a xlink:href="classSDK_1_1UParticleModuleEventBase__inherit__graph_org.svg" target="_base">
           <rect id="button" ry="5" rx="5" y="6" x="6" height="38" width="38"
                fill="#f2f5e9" fill-opacity="0.5" stroke="#606060" stroke-width="1.0"/>
           <path id="arrow"
             d="M 11.500037,31.436501 C 11.940474,20.09759 22.043105,11.32322 32.158766,21.979434 L 37.068811,17.246167 C 37.068811,17.246167 37.088388,32 37.088388,32 L 22.160133,31.978069 C 22.160133,31.978069 26.997745,27.140456 26.997745,27.140456 C 18.528582,18.264221 13.291696,25.230495 11.500037,31.436501 z"
             style="fill:#404040;"/>
          </a>
         </g>
        </svg>
</svg>
