<?xml version="1.0" encoding="UTF-8" standalone="no"?>
<!DOCTYPE svg PUBLIC "-//W3C//DTD SVG 1.1//EN"
 "http://www.w3.org/Graphics/SVG/1.1/DTD/svg11.dtd">
<!-- Generated by graphviz version 2.41.20171026.1811 (20171026.1811)
 -->
<!-- Title: SDK::UEFParticleSoundDataWeaponFXDir Pages: 1 -->
<svg width="206pt" height="810pt"
 viewBox="0.00 0.00 206.00 810.00" xmlns="http://www.w3.org/2000/svg" xmlns:xlink="http://www.w3.org/1999/xlink">
<g id="graph0" class="graph" transform="scale(1 1) rotate(0) translate(4 806)">
<title>SDK::UEFParticleSoundDataWeaponFXDir</title>
<polygon fill="white" stroke="transparent" points="-4,4 -4,-806 202,-806 202,4 -4,4"/>
<!-- Node1 -->
<g id="node1" class="node">
<title>Node1</title>
<g id="a_node1"><a xlink:title=" ">
<polygon fill="#bfbfbf" stroke="black" points="26,-105.5 26,-239.5 172,-239.5 172,-105.5 26,-105.5"/>
<text text-anchor="start" x="34" y="-227.5" font-family="Helvetica,sans-Serif" font-size="10.00">SDK::UEFParticleSoundData</text>
<text text-anchor="middle" x="99" y="-216.5" font-family="Helvetica,sans-Serif" font-size="10.00">WeaponFXDir</text>
<polyline fill="none" stroke="black" points="26,-209.5 172,-209.5 "/>
<text text-anchor="start" x="34" y="-197.5" font-family="Helvetica,sans-Serif" font-size="10.00">+ MaxSpawn</text>
<text text-anchor="start" x="34" y="-186.5" font-family="Helvetica,sans-Serif" font-size="10.00">+ FXIndex</text>
<text text-anchor="start" x="34" y="-175.5" font-family="Helvetica,sans-Serif" font-size="10.00">+ AttackerParticles</text>
<text text-anchor="start" x="34" y="-164.5" font-family="Helvetica,sans-Serif" font-size="10.00">+ Particles</text>
<text text-anchor="start" x="34" y="-153.5" font-family="Helvetica,sans-Serif" font-size="10.00">+ BloodParticle</text>
<text text-anchor="start" x="34" y="-142.5" font-family="Helvetica,sans-Serif" font-size="10.00">+ RandomBloods</text>
<text text-anchor="start" x="34" y="-131.5" font-family="Helvetica,sans-Serif" font-size="10.00">+ NewHitCameraShake</text>
<polyline fill="none" stroke="black" points="26,-124.5 172,-124.5 "/>
<text text-anchor="start" x="34" y="-112.5" font-family="Helvetica,sans-Serif" font-size="10.00">+ StaticClass()</text>
</a>
</g>
</g>
<!-- Node4 -->
<g id="node4" class="node">
<title>Node4</title>
<g id="a_node4"><a xlink:href="../../d9/ddf/classSDK_1_1UEFParticleSoundDataBuffWeaponFXDir.html" target="_top" xlink:title=" ">
<polygon fill="white" stroke="black" points="26,-0.5 26,-68.5 172,-68.5 172,-0.5 26,-0.5"/>
<text text-anchor="start" x="34" y="-56.5" font-family="Helvetica,sans-Serif" font-size="10.00">SDK::UEFParticleSoundData</text>
<text text-anchor="middle" x="99" y="-45.5" font-family="Helvetica,sans-Serif" font-size="10.00">BuffWeaponFXDir</text>
<polyline fill="none" stroke="black" points="26,-38.5 172,-38.5 "/>
<text text-anchor="start" x="34" y="-26.5" font-family="Helvetica,sans-Serif" font-size="10.00">+ ChangeFXIndex</text>
<polyline fill="none" stroke="black" points="26,-19.5 172,-19.5 "/>
<text text-anchor="start" x="34" y="-7.5" font-family="Helvetica,sans-Serif" font-size="10.00">+ StaticClass()</text>
</a>
</g>
</g>
<!-- Node1&#45;&gt;Node4 -->
<g id="edge3" class="edge">
<title>Node1&#45;&gt;Node4</title>
<path fill="none" stroke="midnightblue" d="M99,-95.37C99,-86.08 99,-77 99,-68.83"/>
<polygon fill="none" stroke="midnightblue" points="95.5,-95.49 99,-105.49 102.5,-95.49 95.5,-95.49"/>
</g>
<!-- Node2 -->
<g id="node2" class="node">
<title>Node2</title>
<g id="a_node2"><a xlink:href="../../d6/d7d/classSDK_1_1UEFParticleSoundData.html" target="_top" xlink:title=" ">
<polygon fill="white" stroke="black" points="26,-276.5 26,-410.5 172,-410.5 172,-276.5 26,-276.5"/>
<text text-anchor="middle" x="99" y="-398.5" font-family="Helvetica,sans-Serif" font-size="10.00">SDK::UEFParticleSoundData</text>
<polyline fill="none" stroke="black" points="26,-391.5 172,-391.5 "/>
<text text-anchor="start" x="34" y="-379.5" font-family="Helvetica,sans-Serif" font-size="10.00">+ X</text>
<text text-anchor="start" x="34" y="-368.5" font-family="Helvetica,sans-Serif" font-size="10.00">+ Y</text>
<text text-anchor="start" x="34" y="-357.5" font-family="Helvetica,sans-Serif" font-size="10.00">+ Image</text>
<text text-anchor="start" x="34" y="-346.5" font-family="Helvetica,sans-Serif" font-size="10.00">+ Desc</text>
<text text-anchor="start" x="34" y="-335.5" font-family="Helvetica,sans-Serif" font-size="10.00">+ Keyword</text>
<text text-anchor="start" x="34" y="-324.5" font-family="Helvetica,sans-Serif" font-size="10.00">+ EditorDirty</text>
<text text-anchor="start" x="34" y="-313.5" font-family="Helvetica,sans-Serif" font-size="10.00">+ DataIndex</text>
<text text-anchor="start" x="34" y="-302.5" font-family="Helvetica,sans-Serif" font-size="10.00">+ ParticleSoundDataName</text>
<polyline fill="none" stroke="black" points="26,-295.5 172,-295.5 "/>
<text text-anchor="start" x="34" y="-283.5" font-family="Helvetica,sans-Serif" font-size="10.00">+ StaticClass()</text>
</a>
</g>
</g>
<!-- Node2&#45;&gt;Node1 -->
<g id="edge1" class="edge">
<title>Node2&#45;&gt;Node1</title>
<path fill="none" stroke="midnightblue" d="M99,-265.95C99,-257.16 99,-248.25 99,-239.62"/>
<polygon fill="none" stroke="midnightblue" points="95.5,-266.19 99,-276.19 102.5,-266.19 95.5,-266.19"/>
</g>
<!-- Node3 -->
<g id="node3" class="node">
<title>Node3</title>
<g id="a_node3"><a xlink:href="../../d9/d45/classSDK_1_1UObject.html" target="_top" xlink:title=" ">
<polygon fill="white" stroke="black" points="0,-447.5 0,-801.5 198,-801.5 198,-447.5 0,-447.5"/>
<text text-anchor="middle" x="99" y="-789.5" font-family="Helvetica,sans-Serif" font-size="10.00">SDK::UObject</text>
<polyline fill="none" stroke="black" points="0,-782.5 198,-782.5 "/>
<text text-anchor="start" x="8" y="-770.5" font-family="Helvetica,sans-Serif" font-size="10.00">+ VfTableObject</text>
<text text-anchor="start" x="8" y="-759.5" font-family="Helvetica,sans-Serif" font-size="10.00">+ ObjectFlags</text>
<text text-anchor="start" x="8" y="-748.5" font-family="Helvetica,sans-Serif" font-size="10.00">+ StateFrame</text>
<text text-anchor="start" x="8" y="-737.5" font-family="Helvetica,sans-Serif" font-size="10.00">+ Linker</text>
<text text-anchor="start" x="8" y="-726.5" font-family="Helvetica,sans-Serif" font-size="10.00">+ LinkerIndex</text>
<text text-anchor="start" x="8" y="-715.5" font-family="Helvetica,sans-Serif" font-size="10.00">+ ObjectInternalInteger</text>
<text text-anchor="start" x="8" y="-704.5" font-family="Helvetica,sans-Serif" font-size="10.00">+ NetIndex</text>
<text text-anchor="start" x="8" y="-693.5" font-family="Helvetica,sans-Serif" font-size="10.00">+ Outer</text>
<text text-anchor="start" x="8" y="-682.5" font-family="Helvetica,sans-Serif" font-size="10.00">+ Name</text>
<text text-anchor="start" x="8" y="-671.5" font-family="Helvetica,sans-Serif" font-size="10.00">+ Class</text>
<text text-anchor="start" x="8" y="-660.5" font-family="Helvetica,sans-Serif" font-size="10.00">+ ObjectArchetype</text>
<text text-anchor="start" x="8" y="-649.5" font-family="Helvetica,sans-Serif" font-size="10.00">+ GObjects</text>
<polyline fill="none" stroke="black" points="0,-642.5 198,-642.5 "/>
<text text-anchor="start" x="8" y="-630.5" font-family="Helvetica,sans-Serif" font-size="10.00">+ UObject::GetName()</text>
<text text-anchor="start" x="8" y="-619.5" font-family="Helvetica,sans-Serif" font-size="10.00">+ GetFullName()</text>
<text text-anchor="start" x="8" y="-608.5" font-family="Helvetica,sans-Serif" font-size="10.00">+ IsA()</text>
<text text-anchor="start" x="8" y="-597.5" font-family="Helvetica,sans-Serif" font-size="10.00">+ ProcessEvent()</text>
<text text-anchor="start" x="8" y="-586.5" font-family="Helvetica,sans-Serif" font-size="10.00">+ STATIC_ProfNodeEvent()</text>
<text text-anchor="start" x="8" y="-575.5" font-family="Helvetica,sans-Serif" font-size="10.00">+ STATIC_ProfNodeSetDepthThreshold()</text>
<text text-anchor="start" x="8" y="-564.5" font-family="Helvetica,sans-Serif" font-size="10.00">+ STATIC_ProfNodeSetTimeThreshold</text>
<text text-anchor="start" x="8" y="-553.5" font-family="Helvetica,sans-Serif" font-size="10.00">Seconds()</text>
<text text-anchor="start" x="8" y="-542.5" font-family="Helvetica,sans-Serif" font-size="10.00">+ STATIC_ProfNodeStop()</text>
<text text-anchor="start" x="8" y="-531.5" font-family="Helvetica,sans-Serif" font-size="10.00">+ STATIC_ProfNodeStart()</text>
<text text-anchor="start" x="8" y="-520.5" font-family="Helvetica,sans-Serif" font-size="10.00">+ STATIC_GetStringFromGuid()</text>
<text text-anchor="start" x="8" y="-509.5" font-family="Helvetica,sans-Serif" font-size="10.00">and 298 more...</text>
<text text-anchor="start" x="8" y="-498.5" font-family="Helvetica,sans-Serif" font-size="10.00">+ GetGlobalObjects()</text>
<text text-anchor="start" x="8" y="-487.5" font-family="Helvetica,sans-Serif" font-size="10.00">+ FindObject()</text>
<text text-anchor="start" x="8" y="-476.5" font-family="Helvetica,sans-Serif" font-size="10.00">+ FindClass()</text>
<text text-anchor="start" x="8" y="-465.5" font-family="Helvetica,sans-Serif" font-size="10.00">+ GetObjectCasted()</text>
<text text-anchor="start" x="8" y="-454.5" font-family="Helvetica,sans-Serif" font-size="10.00">+ StaticClass()</text>
</a>
</g>
</g>
<!-- Node3&#45;&gt;Node2 -->
<g id="edge2" class="edge">
<title>Node3&#45;&gt;Node2</title>
<path fill="none" stroke="midnightblue" d="M99,-437.1C99,-427.9 99,-419.01 99,-410.61"/>
<polygon fill="none" stroke="midnightblue" points="95.5,-437.2 99,-447.2 102.5,-437.2 95.5,-437.2"/>
</g>
</g>
</svg>
