<?xml version="1.0" encoding="UTF-8" standalone="no"?>
<!DOCTYPE svg PUBLIC "-//W3C//DTD SVG 1.1//EN"
 "http://www.w3.org/Graphics/SVG/1.1/DTD/svg11.dtd">
<!-- Generated by graphviz version 2.41.20171026.1811 (20171026.1811)
 -->
<!-- Title: SDK::UParticleModuleBeamBase Pages: 1 -->
<svg width="626pt" height="931pt"
 viewBox="0.00 0.00 626.00 931.00" xmlns="http://www.w3.org/2000/svg" xmlns:xlink="http://www.w3.org/1999/xlink">
<g id="graph0" class="graph" transform="scale(1 1) rotate(0) translate(4 927)">
<title>SDK::UParticleModuleBeamBase</title>
<polygon fill="white" stroke="transparent" points="-4,4 -4,-927 622,-927 622,4 -4,4"/>
<!-- Node1 -->
<g id="node1" class="node">
<title>Node1</title>
<g id="a_node1"><a xlink:title=" ">
<polygon fill="#bfbfbf" stroke="black" points="226.5,-226.5 226.5,-283.5 390.5,-283.5 390.5,-226.5 226.5,-226.5"/>
<text text-anchor="middle" x="308.5" y="-271.5" font-family="Helvetica,sans-Serif" font-size="10.00">SDK::UParticleModuleBeamBase</text>
<polyline fill="none" stroke="black" points="226.5,-264.5 390.5,-264.5 "/>
<text text-anchor="middle" x="308.5" y="-252.5" font-family="Helvetica,sans-Serif" font-size="10.00"> </text>
<polyline fill="none" stroke="black" points="226.5,-245.5 390.5,-245.5 "/>
<text text-anchor="start" x="234.5" y="-233.5" font-family="Helvetica,sans-Serif" font-size="10.00">+ StaticClass()</text>
</a>
</g>
</g>
<!-- Node4 -->
<g id="node4" class="node">
<title>Node4</title>
<g id="a_node4"><a xlink:href="../../d2/d80/classSDK_1_1UParticleModuleBeamModifier.html" target="_top" xlink:title=" ">
<polygon fill="white" stroke="black" points="0,-17 0,-173 141,-173 141,-17 0,-17"/>
<text text-anchor="start" x="8" y="-161" font-family="Helvetica,sans-Serif" font-size="10.00">SDK::UParticleModuleBeam</text>
<text text-anchor="middle" x="70.5" y="-150" font-family="Helvetica,sans-Serif" font-size="10.00">Modifier</text>
<polyline fill="none" stroke="black" points="0,-143 141,-143 "/>
<text text-anchor="start" x="8" y="-131" font-family="Helvetica,sans-Serif" font-size="10.00">+ ModifierType</text>
<text text-anchor="start" x="8" y="-120" font-family="Helvetica,sans-Serif" font-size="10.00">+ UnknownData00</text>
<text text-anchor="start" x="8" y="-109" font-family="Helvetica,sans-Serif" font-size="10.00">+ PositionOptions</text>
<text text-anchor="start" x="8" y="-98" font-family="Helvetica,sans-Serif" font-size="10.00">+ Position</text>
<text text-anchor="start" x="8" y="-87" font-family="Helvetica,sans-Serif" font-size="10.00">+ TangentOptions</text>
<text text-anchor="start" x="8" y="-76" font-family="Helvetica,sans-Serif" font-size="10.00">+ Tangent</text>
<text text-anchor="start" x="8" y="-65" font-family="Helvetica,sans-Serif" font-size="10.00">+ bAbsoluteTangent</text>
<text text-anchor="start" x="8" y="-54" font-family="Helvetica,sans-Serif" font-size="10.00">+ StrengthOptions</text>
<text text-anchor="start" x="8" y="-43" font-family="Helvetica,sans-Serif" font-size="10.00">+ Strength</text>
<polyline fill="none" stroke="black" points="0,-36 141,-36 "/>
<text text-anchor="start" x="8" y="-24" font-family="Helvetica,sans-Serif" font-size="10.00">+ StaticClass()</text>
</a>
</g>
</g>
<!-- Node1&#45;&gt;Node4 -->
<g id="edge3" class="edge">
<title>Node1&#45;&gt;Node4</title>
<path fill="none" stroke="midnightblue" d="M216.61,-225.85C193.52,-216.46 169.62,-204.58 149.5,-190 142.6,-185 135.92,-179.26 129.57,-173.14"/>
<polygon fill="none" stroke="midnightblue" points="215.51,-229.18 226.09,-229.59 218.07,-222.66 215.51,-229.18"/>
</g>
<!-- Node5 -->
<g id="node5" class="node">
<title>Node5</title>
<g id="a_node5"><a xlink:href="../../dd/d70/classSDK_1_1UParticleModuleBeamNoise.html" target="_top" xlink:title=" ">
<polygon fill="white" stroke="black" points="159,-6 159,-184 300,-184 300,-6 159,-6"/>
<text text-anchor="start" x="167" y="-172" font-family="Helvetica,sans-Serif" font-size="10.00">SDK::UParticleModuleBeam</text>
<text text-anchor="middle" x="229.5" y="-161" font-family="Helvetica,sans-Serif" font-size="10.00">Noise</text>
<polyline fill="none" stroke="black" points="159,-154 300,-154 "/>
<text text-anchor="start" x="167" y="-142" font-family="Helvetica,sans-Serif" font-size="10.00">+ bLowFreq_Enabled</text>
<text text-anchor="start" x="167" y="-131" font-family="Helvetica,sans-Serif" font-size="10.00">+ bNRScaleEmitterTime</text>
<text text-anchor="start" x="167" y="-120" font-family="Helvetica,sans-Serif" font-size="10.00">+ bSmooth</text>
<text text-anchor="start" x="167" y="-109" font-family="Helvetica,sans-Serif" font-size="10.00">+ bNoiseLock</text>
<text text-anchor="start" x="167" y="-98" font-family="Helvetica,sans-Serif" font-size="10.00">+ bOscillate</text>
<text text-anchor="start" x="167" y="-87" font-family="Helvetica,sans-Serif" font-size="10.00">+ bUseNoiseTangents</text>
<text text-anchor="start" x="167" y="-76" font-family="Helvetica,sans-Serif" font-size="10.00">+ bTargetNoise</text>
<text text-anchor="start" x="167" y="-65" font-family="Helvetica,sans-Serif" font-size="10.00">+ bApplyNoiseScale</text>
<text text-anchor="start" x="167" y="-54" font-family="Helvetica,sans-Serif" font-size="10.00">+ Frequency</text>
<text text-anchor="start" x="167" y="-43" font-family="Helvetica,sans-Serif" font-size="10.00">+ Frequency_LowRange</text>
<text text-anchor="start" x="167" y="-32" font-family="Helvetica,sans-Serif" font-size="10.00">and 10 more...</text>
<polyline fill="none" stroke="black" points="159,-25 300,-25 "/>
<text text-anchor="start" x="167" y="-13" font-family="Helvetica,sans-Serif" font-size="10.00">+ StaticClass()</text>
</a>
</g>
</g>
<!-- Node1&#45;&gt;Node5 -->
<g id="edge4" class="edge">
<title>Node1&#45;&gt;Node5</title>
<path fill="none" stroke="midnightblue" d="M290.14,-217.28C285.12,-207.24 279.45,-195.9 273.65,-184.3"/>
<polygon fill="none" stroke="midnightblue" points="287.14,-219.1 294.74,-226.48 293.4,-215.97 287.14,-219.1"/>
</g>
<!-- Node6 -->
<g id="node6" class="node">
<title>Node6</title>
<g id="a_node6"><a xlink:href="../../d1/d25/classSDK_1_1UParticleModuleBeamSource.html" target="_top" xlink:title=" ">
<polygon fill="white" stroke="black" points="318,-6 318,-184 459,-184 459,-6 318,-6"/>
<text text-anchor="start" x="326" y="-172" font-family="Helvetica,sans-Serif" font-size="10.00">SDK::UParticleModuleBeam</text>
<text text-anchor="middle" x="388.5" y="-161" font-family="Helvetica,sans-Serif" font-size="10.00">Source</text>
<polyline fill="none" stroke="black" points="318,-154 459,-154 "/>
<text text-anchor="start" x="326" y="-142" font-family="Helvetica,sans-Serif" font-size="10.00">+ SourceMethod</text>
<text text-anchor="start" x="326" y="-131" font-family="Helvetica,sans-Serif" font-size="10.00">+ SourceTangentMethod</text>
<text text-anchor="start" x="326" y="-120" font-family="Helvetica,sans-Serif" font-size="10.00">+ UnknownData00</text>
<text text-anchor="start" x="326" y="-109" font-family="Helvetica,sans-Serif" font-size="10.00">+ SourceName</text>
<text text-anchor="start" x="326" y="-98" font-family="Helvetica,sans-Serif" font-size="10.00">+ bSourceAbsolute</text>
<text text-anchor="start" x="326" y="-87" font-family="Helvetica,sans-Serif" font-size="10.00">+ bLockSource</text>
<text text-anchor="start" x="326" y="-76" font-family="Helvetica,sans-Serif" font-size="10.00">+ bLockSourceTangent</text>
<text text-anchor="start" x="326" y="-65" font-family="Helvetica,sans-Serif" font-size="10.00">+ bLockSourceStength</text>
<text text-anchor="start" x="326" y="-54" font-family="Helvetica,sans-Serif" font-size="10.00">+ Source</text>
<text text-anchor="start" x="326" y="-43" font-family="Helvetica,sans-Serif" font-size="10.00">+ SourceTangent</text>
<text text-anchor="start" x="326" y="-32" font-family="Helvetica,sans-Serif" font-size="10.00">+ SourceStrength</text>
<polyline fill="none" stroke="black" points="318,-25 459,-25 "/>
<text text-anchor="start" x="326" y="-13" font-family="Helvetica,sans-Serif" font-size="10.00">+ StaticClass()</text>
</a>
</g>
</g>
<!-- Node1&#45;&gt;Node6 -->
<g id="edge5" class="edge">
<title>Node1&#45;&gt;Node6</title>
<path fill="none" stroke="midnightblue" d="M327.09,-217.28C332.18,-207.24 337.92,-195.9 343.79,-184.3"/>
<polygon fill="none" stroke="midnightblue" points="323.83,-215.98 322.43,-226.48 330.07,-219.14 323.83,-215.98"/>
</g>
<!-- Node7 -->
<g id="node7" class="node">
<title>Node7</title>
<g id="a_node7"><a xlink:href="../../d2/d11/classSDK_1_1UParticleModuleBeamTarget.html" target="_top" xlink:title=" ">
<polygon fill="white" stroke="black" points="477,-0.5 477,-189.5 618,-189.5 618,-0.5 477,-0.5"/>
<text text-anchor="start" x="485" y="-177.5" font-family="Helvetica,sans-Serif" font-size="10.00">SDK::UParticleModuleBeam</text>
<text text-anchor="middle" x="547.5" y="-166.5" font-family="Helvetica,sans-Serif" font-size="10.00">Target</text>
<polyline fill="none" stroke="black" points="477,-159.5 618,-159.5 "/>
<text text-anchor="start" x="485" y="-147.5" font-family="Helvetica,sans-Serif" font-size="10.00">+ TargetMethod</text>
<text text-anchor="start" x="485" y="-136.5" font-family="Helvetica,sans-Serif" font-size="10.00">+ TargetTangentMethod</text>
<text text-anchor="start" x="485" y="-125.5" font-family="Helvetica,sans-Serif" font-size="10.00">+ UnknownData00</text>
<text text-anchor="start" x="485" y="-114.5" font-family="Helvetica,sans-Serif" font-size="10.00">+ TargetName</text>
<text text-anchor="start" x="485" y="-103.5" font-family="Helvetica,sans-Serif" font-size="10.00">+ Target</text>
<text text-anchor="start" x="485" y="-92.5" font-family="Helvetica,sans-Serif" font-size="10.00">+ bTargetAbsolute</text>
<text text-anchor="start" x="485" y="-81.5" font-family="Helvetica,sans-Serif" font-size="10.00">+ bLockTarget</text>
<text text-anchor="start" x="485" y="-70.5" font-family="Helvetica,sans-Serif" font-size="10.00">+ bLockTargetTangent</text>
<text text-anchor="start" x="485" y="-59.5" font-family="Helvetica,sans-Serif" font-size="10.00">+ bLockTargetStength</text>
<text text-anchor="start" x="485" y="-48.5" font-family="Helvetica,sans-Serif" font-size="10.00">+ TargetTangent</text>
<text text-anchor="start" x="485" y="-37.5" font-family="Helvetica,sans-Serif" font-size="10.00">+ TargetStrength</text>
<text text-anchor="start" x="485" y="-26.5" font-family="Helvetica,sans-Serif" font-size="10.00">+ LockRadius</text>
<polyline fill="none" stroke="black" points="477,-19.5 618,-19.5 "/>
<text text-anchor="start" x="485" y="-7.5" font-family="Helvetica,sans-Serif" font-size="10.00">+ StaticClass()</text>
</a>
</g>
</g>
<!-- Node1&#45;&gt;Node7 -->
<g id="edge6" class="edge">
<title>Node1&#45;&gt;Node7</title>
<path fill="none" stroke="midnightblue" d="M399.92,-226.35C423.48,-216.9 447.96,-204.86 468.5,-190 471.35,-187.94 474.16,-185.75 476.93,-183.47"/>
<polygon fill="none" stroke="midnightblue" points="398.65,-223.09 390.6,-229.98 401.19,-229.61 398.65,-223.09"/>
</g>
<!-- Node2 -->
<g id="node2" class="node">
<title>Node2</title>
<g id="a_node2"><a xlink:href="../../d5/df1/classSDK_1_1UParticleModule.html" target="_top" xlink:title=" ">
<polygon fill="white" stroke="black" points="232,-320.5 232,-531.5 385,-531.5 385,-320.5 232,-320.5"/>
<text text-anchor="middle" x="308.5" y="-519.5" font-family="Helvetica,sans-Serif" font-size="10.00">SDK::UParticleModule</text>
<polyline fill="none" stroke="black" points="232,-512.5 385,-512.5 "/>
<text text-anchor="start" x="240" y="-500.5" font-family="Helvetica,sans-Serif" font-size="10.00">+ bSpawnModule</text>
<text text-anchor="start" x="240" y="-489.5" font-family="Helvetica,sans-Serif" font-size="10.00">+ bUpdateModule</text>
<text text-anchor="start" x="240" y="-478.5" font-family="Helvetica,sans-Serif" font-size="10.00">+ bFinalUpdateModule</text>
<text text-anchor="start" x="240" y="-467.5" font-family="Helvetica,sans-Serif" font-size="10.00">+ bCurvesAsColor</text>
<text text-anchor="start" x="240" y="-456.5" font-family="Helvetica,sans-Serif" font-size="10.00">+ b3DDrawMode</text>
<text text-anchor="start" x="240" y="-445.5" font-family="Helvetica,sans-Serif" font-size="10.00">+ EnableToggle3DDrawMode</text>
<text text-anchor="start" x="240" y="-434.5" font-family="Helvetica,sans-Serif" font-size="10.00">+ bSupported3DDrawMode</text>
<text text-anchor="start" x="240" y="-423.5" font-family="Helvetica,sans-Serif" font-size="10.00">+ bEnabled</text>
<text text-anchor="start" x="240" y="-412.5" font-family="Helvetica,sans-Serif" font-size="10.00">+ bEditable</text>
<text text-anchor="start" x="240" y="-401.5" font-family="Helvetica,sans-Serif" font-size="10.00">+ LODDuplicate</text>
<text text-anchor="start" x="240" y="-390.5" font-family="Helvetica,sans-Serif" font-size="10.00">+ bSupportsRandomSeed</text>
<text text-anchor="start" x="240" y="-379.5" font-family="Helvetica,sans-Serif" font-size="10.00">+ bRequiresLoopingNotification</text>
<text text-anchor="start" x="240" y="-368.5" font-family="Helvetica,sans-Serif" font-size="10.00">+ LODValidity</text>
<text text-anchor="start" x="240" y="-357.5" font-family="Helvetica,sans-Serif" font-size="10.00">+ UnknownData00</text>
<text text-anchor="start" x="240" y="-346.5" font-family="Helvetica,sans-Serif" font-size="10.00">+ ModuleEditorColor</text>
<polyline fill="none" stroke="black" points="232,-339.5 385,-339.5 "/>
<text text-anchor="start" x="240" y="-327.5" font-family="Helvetica,sans-Serif" font-size="10.00">+ StaticClass()</text>
</a>
</g>
</g>
<!-- Node2&#45;&gt;Node1 -->
<g id="edge1" class="edge">
<title>Node2&#45;&gt;Node1</title>
<path fill="none" stroke="midnightblue" d="M308.5,-310.1C308.5,-300.43 308.5,-291.37 308.5,-283.53"/>
<polygon fill="none" stroke="midnightblue" points="305,-310.37 308.5,-320.37 312,-310.37 305,-310.37"/>
</g>
<!-- Node3 -->
<g id="node3" class="node">
<title>Node3</title>
<g id="a_node3"><a xlink:href="../../d9/d45/classSDK_1_1UObject.html" target="_top" xlink:title=" ">
<polygon fill="white" stroke="black" points="209.5,-568.5 209.5,-922.5 407.5,-922.5 407.5,-568.5 209.5,-568.5"/>
<text text-anchor="middle" x="308.5" y="-910.5" font-family="Helvetica,sans-Serif" font-size="10.00">SDK::UObject</text>
<polyline fill="none" stroke="black" points="209.5,-903.5 407.5,-903.5 "/>
<text text-anchor="start" x="217.5" y="-891.5" font-family="Helvetica,sans-Serif" font-size="10.00">+ VfTableObject</text>
<text text-anchor="start" x="217.5" y="-880.5" font-family="Helvetica,sans-Serif" font-size="10.00">+ ObjectFlags</text>
<text text-anchor="start" x="217.5" y="-869.5" font-family="Helvetica,sans-Serif" font-size="10.00">+ StateFrame</text>
<text text-anchor="start" x="217.5" y="-858.5" font-family="Helvetica,sans-Serif" font-size="10.00">+ Linker</text>
<text text-anchor="start" x="217.5" y="-847.5" font-family="Helvetica,sans-Serif" font-size="10.00">+ LinkerIndex</text>
<text text-anchor="start" x="217.5" y="-836.5" font-family="Helvetica,sans-Serif" font-size="10.00">+ ObjectInternalInteger</text>
<text text-anchor="start" x="217.5" y="-825.5" font-family="Helvetica,sans-Serif" font-size="10.00">+ NetIndex</text>
<text text-anchor="start" x="217.5" y="-814.5" font-family="Helvetica,sans-Serif" font-size="10.00">+ Outer</text>
<text text-anchor="start" x="217.5" y="-803.5" font-family="Helvetica,sans-Serif" font-size="10.00">+ Name</text>
<text text-anchor="start" x="217.5" y="-792.5" font-family="Helvetica,sans-Serif" font-size="10.00">+ Class</text>
<text text-anchor="start" x="217.5" y="-781.5" font-family="Helvetica,sans-Serif" font-size="10.00">+ ObjectArchetype</text>
<text text-anchor="start" x="217.5" y="-770.5" font-family="Helvetica,sans-Serif" font-size="10.00">+ GObjects</text>
<polyline fill="none" stroke="black" points="209.5,-763.5 407.5,-763.5 "/>
<text text-anchor="start" x="217.5" y="-751.5" font-family="Helvetica,sans-Serif" font-size="10.00">+ UObject::GetName()</text>
<text text-anchor="start" x="217.5" y="-740.5" font-family="Helvetica,sans-Serif" font-size="10.00">+ GetFullName()</text>
<text text-anchor="start" x="217.5" y="-729.5" font-family="Helvetica,sans-Serif" font-size="10.00">+ IsA()</text>
<text text-anchor="start" x="217.5" y="-718.5" font-family="Helvetica,sans-Serif" font-size="10.00">+ ProcessEvent()</text>
<text text-anchor="start" x="217.5" y="-707.5" font-family="Helvetica,sans-Serif" font-size="10.00">+ STATIC_ProfNodeEvent()</text>
<text text-anchor="start" x="217.5" y="-696.5" font-family="Helvetica,sans-Serif" font-size="10.00">+ STATIC_ProfNodeSetDepthThreshold()</text>
<text text-anchor="start" x="217.5" y="-685.5" font-family="Helvetica,sans-Serif" font-size="10.00">+ STATIC_ProfNodeSetTimeThreshold</text>
<text text-anchor="start" x="217.5" y="-674.5" font-family="Helvetica,sans-Serif" font-size="10.00">Seconds()</text>
<text text-anchor="start" x="217.5" y="-663.5" font-family="Helvetica,sans-Serif" font-size="10.00">+ STATIC_ProfNodeStop()</text>
<text text-anchor="start" x="217.5" y="-652.5" font-family="Helvetica,sans-Serif" font-size="10.00">+ STATIC_ProfNodeStart()</text>
<text text-anchor="start" x="217.5" y="-641.5" font-family="Helvetica,sans-Serif" font-size="10.00">+ STATIC_GetStringFromGuid()</text>
<text text-anchor="start" x="217.5" y="-630.5" font-family="Helvetica,sans-Serif" font-size="10.00">and 298 more...</text>
<text text-anchor="start" x="217.5" y="-619.5" font-family="Helvetica,sans-Serif" font-size="10.00">+ GetGlobalObjects()</text>
<text text-anchor="start" x="217.5" y="-608.5" font-family="Helvetica,sans-Serif" font-size="10.00">+ FindObject()</text>
<text text-anchor="start" x="217.5" y="-597.5" font-family="Helvetica,sans-Serif" font-size="10.00">+ FindClass()</text>
<text text-anchor="start" x="217.5" y="-586.5" font-family="Helvetica,sans-Serif" font-size="10.00">+ GetObjectCasted()</text>
<text text-anchor="start" x="217.5" y="-575.5" font-family="Helvetica,sans-Serif" font-size="10.00">+ StaticClass()</text>
</a>
</g>
</g>
<!-- Node3&#45;&gt;Node2 -->
<g id="edge2" class="edge">
<title>Node3&#45;&gt;Node2</title>
<path fill="none" stroke="midnightblue" d="M308.5,-557.96C308.5,-549.01 308.5,-540.19 308.5,-531.6"/>
<polygon fill="none" stroke="midnightblue" points="305,-558.11 308.5,-568.11 312,-558.11 305,-558.11"/>
</g>
</g>
</svg>
