<?xml version="1.0" encoding="UTF-8" standalone="no"?>
<!DOCTYPE svg PUBLIC "-//W3C//DTD SVG 1.1//EN"
 "http://www.w3.org/Graphics/SVG/1.1/DTD/svg11.dtd">
<!-- Generated by graphviz version 2.41.20171026.1811 (20171026.1811)
 -->
<!-- Title: SDK::ADirectionalLight Pages: 1 -->
<!--zoomable 1130 -->
<svg id="main" version="1.1" xmlns="http://www.w3.org/2000/svg" xmlns:xlink="http://www.w3.org/1999/xlink" xml:space="preserve" onload="init(evt)">
<style type="text/css"><![CDATA[
.edge:hover path { stroke: red; }
.edge:hover polygon { stroke: red; fill: red; }
]]></style>
<script type="text/javascript"><![CDATA[
var edges = document.getElementsByTagName('g');
if (edges && edges.length) {
  for (var i=0;i<edges.length;i++) {
    if (edges[i].id.substr(0,4)=='edge') {
      edges[i].setAttribute('class','edge');
    }
  }
}
]]></script>
        <defs>
                <circle id="rim" cx="0" cy="0" r="7"/>
                <circle id="rim2" cx="0" cy="0" r="3.5"/>
                <g id="zoomPlus">
                        <use xlink:href="#rim" fill="#404040">
                                <set attributeName="fill" to="#808080" begin="zoomplus.mouseover" end="zoomplus.mouseout"/>
                        </use>
                        <path d="M-4,0h8M0,-4v8" fill="none" stroke="white" stroke-width="1.5" pointer-events="none"/>
                </g>
                <g id="zoomMin">
                        <use xlink:href="#rim" fill="#404040">
                                <set attributeName="fill" to="#808080" begin="zoomminus.mouseover" end="zoomminus.mouseout"/>
                        </use>
                        <path d="M-4,0h8" fill="none" stroke="white" stroke-width="1.5" pointer-events="none"/>
                </g>
                <g id="dirArrow">
                        <path fill="none" stroke="white" stroke-width="1.5" d="M0,-3.0v7 M-2.5,-0.5L0,-3.0L2.5,-0.5"/>
                </g>
               <g id="resetDef">
                       <use xlink:href="#rim2" fill="#404040">
                               <set attributeName="fill" to="#808080" begin="reset.mouseover" end="reset.mouseout"/>
                       </use>
               </g>
        </defs>

<script type="text/javascript">
var viewWidth = 503;
var viewHeight = 1130;
var sectionId = 'dynsection-0';
</script>
<script xlink:href="../../svgpan.js"/>
<svg id="graph" class="graph">
<g id="viewport">
<title>SDK::ADirectionalLight</title>
<polygon fill="white" stroke="transparent" points="-4,4 -4,-1126 499,-1126 499,4 -4,4"/>
<!-- Node1 -->
<g id="node1" class="node">
<title>Node1</title>
<g id="a_node1"><a xlink:title=" ">
<polygon fill="#bfbfbf" stroke="black" points="196.5,-210.5 196.5,-267.5 314.5,-267.5 314.5,-210.5 196.5,-210.5"/>
<text text-anchor="middle" x="255.5" y="-255.5" font-family="Helvetica,sans-Serif" font-size="10.00">SDK::ADirectionalLight</text>
<polyline fill="none" stroke="black" points="196.5,-248.5 314.5,-248.5 "/>
<text text-anchor="middle" x="255.5" y="-236.5" font-family="Helvetica,sans-Serif" font-size="10.00"> </text>
<polyline fill="none" stroke="black" points="196.5,-229.5 314.5,-229.5 "/>
<text text-anchor="start" x="204.5" y="-217.5" font-family="Helvetica,sans-Serif" font-size="10.00">+ StaticClass()</text>
</a>
</g>
</g>
<!-- Node5 -->
<g id="node5" class="node">
<title>Node5</title>
<g id="a_node5"><a xlink:href="../../d4/d4c/classSDK_1_1ADirectionalLightMovable.html" target="_top" xlink:title=" ">
<polygon fill="white" stroke="black" points="0,-111 0,-168 155,-168 155,-111 0,-111"/>
<text text-anchor="middle" x="77.5" y="-156" font-family="Helvetica,sans-Serif" font-size="10.00">SDK::ADirectionalLightMovable</text>
<polyline fill="none" stroke="black" points="0,-149 155,-149 "/>
<text text-anchor="middle" x="77.5" y="-137" font-family="Helvetica,sans-Serif" font-size="10.00"> </text>
<polyline fill="none" stroke="black" points="0,-130 155,-130 "/>
<text text-anchor="start" x="8" y="-118" font-family="Helvetica,sans-Serif" font-size="10.00">+ StaticClass()</text>
</a>
</g>
</g>
<!-- Node1&#45;&gt;Node5 -->
<g id="edge4" class="edge">
<title>Node1&#45;&gt;Node5</title>
<path fill="none" stroke="midnightblue" d="M196,-205.41C173.9,-193.3 149.06,-179.7 127.85,-168.08"/>
<polygon fill="none" stroke="midnightblue" points="194.52,-208.59 204.97,-210.32 197.88,-202.45 194.52,-208.59"/>
</g>
<!-- Node6 -->
<g id="node6" class="node">
<title>Node6</title>
<g id="a_node6"><a xlink:href="../../d6/d9d/classSDK_1_1ADirectionalLightToggleable.html" target="_top" xlink:title=" ">
<polygon fill="white" stroke="black" points="173,-111 173,-168 338,-168 338,-111 173,-111"/>
<text text-anchor="middle" x="255.5" y="-156" font-family="Helvetica,sans-Serif" font-size="10.00">SDK::ADirectionalLightToggleable</text>
<polyline fill="none" stroke="black" points="173,-149 338,-149 "/>
<text text-anchor="middle" x="255.5" y="-137" font-family="Helvetica,sans-Serif" font-size="10.00"> </text>
<polyline fill="none" stroke="black" points="173,-130 338,-130 "/>
<text text-anchor="start" x="181" y="-118" font-family="Helvetica,sans-Serif" font-size="10.00">+ StaticClass()</text>
</a>
</g>
</g>
<!-- Node1&#45;&gt;Node6 -->
<g id="edge5" class="edge">
<title>Node1&#45;&gt;Node6</title>
<path fill="none" stroke="midnightblue" d="M255.5,-200.04C255.5,-189.45 255.5,-178.14 255.5,-168.25"/>
<polygon fill="none" stroke="midnightblue" points="252,-200.32 255.5,-210.32 259,-200.32 252,-200.32"/>
</g>
<!-- Node7 -->
<g id="node7" class="node">
<title>Node7</title>
<g id="a_node7"><a xlink:href="../../d3/df1/classSDK_1_1ADominantDirectionalLight.html" target="_top" xlink:title=" ">
<polygon fill="white" stroke="black" points="356,-105.5 356,-173.5 495,-173.5 495,-105.5 356,-105.5"/>
<text text-anchor="start" x="364" y="-161.5" font-family="Helvetica,sans-Serif" font-size="10.00">SDK::ADominantDirectional</text>
<text text-anchor="middle" x="425.5" y="-150.5" font-family="Helvetica,sans-Serif" font-size="10.00">Light</text>
<polyline fill="none" stroke="black" points="356,-143.5 495,-143.5 "/>
<text text-anchor="start" x="364" y="-131.5" font-family="Helvetica,sans-Serif" font-size="10.00">+ ExcludeVolumes</text>
<polyline fill="none" stroke="black" points="356,-124.5 495,-124.5 "/>
<text text-anchor="start" x="364" y="-112.5" font-family="Helvetica,sans-Serif" font-size="10.00">+ StaticClass()</text>
</a>
</g>
</g>
<!-- Node1&#45;&gt;Node7 -->
<g id="edge6" class="edge">
<title>Node1&#45;&gt;Node7</title>
<path fill="none" stroke="midnightblue" d="M312.84,-205.12C330.54,-194.96 350.04,-183.78 367.77,-173.61"/>
<polygon fill="none" stroke="midnightblue" points="310.69,-202.31 303.76,-210.32 314.18,-208.38 310.69,-202.31"/>
</g>
<!-- Node2 -->
<g id="node2" class="node">
<title>Node2</title>
<g id="a_node2"><a xlink:href="../../d0/dd7/classSDK_1_1ALight.html" target="_top" xlink:title=" ">
<polygon fill="white" stroke="black" points="203.5,-304.5 203.5,-394.5 307.5,-394.5 307.5,-304.5 203.5,-304.5"/>
<text text-anchor="middle" x="255.5" y="-382.5" font-family="Helvetica,sans-Serif" font-size="10.00">SDK::ALight</text>
<polyline fill="none" stroke="black" points="203.5,-375.5 307.5,-375.5 "/>
<text text-anchor="start" x="211.5" y="-363.5" font-family="Helvetica,sans-Serif" font-size="10.00">+ LightComponent</text>
<text text-anchor="start" x="211.5" y="-352.5" font-family="Helvetica,sans-Serif" font-size="10.00">+ bEnabled</text>
<polyline fill="none" stroke="black" points="203.5,-345.5 307.5,-345.5 "/>
<text text-anchor="start" x="211.5" y="-333.5" font-family="Helvetica,sans-Serif" font-size="10.00">+ OnToggle()</text>
<text text-anchor="start" x="211.5" y="-322.5" font-family="Helvetica,sans-Serif" font-size="10.00">+ ReplicatedEvent()</text>
<text text-anchor="start" x="211.5" y="-311.5" font-family="Helvetica,sans-Serif" font-size="10.00">+ StaticClass()</text>
</a>
</g>
</g>
<!-- Node2&#45;&gt;Node1 -->
<g id="edge1" class="edge">
<title>Node2&#45;&gt;Node1</title>
<path fill="none" stroke="midnightblue" d="M255.5,-294.35C255.5,-285.07 255.5,-275.79 255.5,-267.59"/>
<polygon fill="none" stroke="midnightblue" points="252,-294.37 255.5,-304.37 259,-294.37 252,-294.37"/>
</g>
<!-- Node3 -->
<g id="node3" class="node">
<title>Node3</title>
<g id="a_node3"><a xlink:href="../../d3/dfc/classSDK_1_1AActor.html" target="_top" xlink:title=" ">
<polygon fill="white" stroke="black" points="182.5,-431.5 182.5,-730.5 328.5,-730.5 328.5,-431.5 182.5,-431.5"/>
<text text-anchor="middle" x="255.5" y="-718.5" font-family="Helvetica,sans-Serif" font-size="10.00">SDK::AActor</text>
<polyline fill="none" stroke="black" points="182.5,-711.5 328.5,-711.5 "/>
<text text-anchor="start" x="190.5" y="-699.5" font-family="Helvetica,sans-Serif" font-size="10.00">+ TerrainColType</text>
<text text-anchor="start" x="190.5" y="-688.5" font-family="Helvetica,sans-Serif" font-size="10.00">+ Physics</text>
<text text-anchor="start" x="190.5" y="-677.5" font-family="Helvetica,sans-Serif" font-size="10.00">+ RemoteRole</text>
<text text-anchor="start" x="190.5" y="-666.5" font-family="Helvetica,sans-Serif" font-size="10.00">+ Role</text>
<text text-anchor="start" x="190.5" y="-655.5" font-family="Helvetica,sans-Serif" font-size="10.00">+ CollisionType</text>
<text text-anchor="start" x="190.5" y="-644.5" font-family="Helvetica,sans-Serif" font-size="10.00">+ ReplicatedCollisionType</text>
<text text-anchor="start" x="190.5" y="-633.5" font-family="Helvetica,sans-Serif" font-size="10.00">+ SkipCollidePawns</text>
<text text-anchor="start" x="190.5" y="-622.5" font-family="Helvetica,sans-Serif" font-size="10.00">+ TickGroup</text>
<text text-anchor="start" x="190.5" y="-611.5" font-family="Helvetica,sans-Serif" font-size="10.00">+ ColOption</text>
<text text-anchor="start" x="190.5" y="-600.5" font-family="Helvetica,sans-Serif" font-size="10.00">+ Components</text>
<text text-anchor="start" x="190.5" y="-589.5" font-family="Helvetica,sans-Serif" font-size="10.00">and 155 more...</text>
<polyline fill="none" stroke="black" points="182.5,-582.5 328.5,-582.5 "/>
<text text-anchor="start" x="190.5" y="-570.5" font-family="Helvetica,sans-Serif" font-size="10.00">+ GetActorSpriteComponent()</text>
<text text-anchor="start" x="190.5" y="-559.5" font-family="Helvetica,sans-Serif" font-size="10.00">+ GetActorMetrics()</text>
<text text-anchor="start" x="190.5" y="-548.5" font-family="Helvetica,sans-Serif" font-size="10.00">+ OnMobileTouch()</text>
<text text-anchor="start" x="190.5" y="-537.5" font-family="Helvetica,sans-Serif" font-size="10.00">+ IsMobileTouchEnabled()</text>
<text text-anchor="start" x="190.5" y="-526.5" font-family="Helvetica,sans-Serif" font-size="10.00">+ ShouldBeHiddenBySHOW</text>
<text text-anchor="start" x="190.5" y="-515.5" font-family="Helvetica,sans-Serif" font-size="10.00">_NavigationNodes()</text>
<text text-anchor="start" x="190.5" y="-504.5" font-family="Helvetica,sans-Serif" font-size="10.00">+ WillOverlap()</text>
<text text-anchor="start" x="190.5" y="-493.5" font-family="Helvetica,sans-Serif" font-size="10.00">+ GetAvoidanceVector()</text>
<text text-anchor="start" x="190.5" y="-482.5" font-family="Helvetica,sans-Serif" font-size="10.00">+ ReplicationEnded()</text>
<text text-anchor="start" x="190.5" y="-471.5" font-family="Helvetica,sans-Serif" font-size="10.00">+ PostDemoRewind()</text>
<text text-anchor="start" x="190.5" y="-460.5" font-family="Helvetica,sans-Serif" font-size="10.00">+ AnimTreeUpdated()</text>
<text text-anchor="start" x="190.5" y="-449.5" font-family="Helvetica,sans-Serif" font-size="10.00">and 252 more...</text>
<text text-anchor="start" x="190.5" y="-438.5" font-family="Helvetica,sans-Serif" font-size="10.00">+ StaticClass()</text>
</a>
</g>
</g>
<!-- Node3&#45;&gt;Node2 -->
<g id="edge2" class="edge">
<title>Node3&#45;&gt;Node2</title>
<path fill="none" stroke="midnightblue" d="M255.5,-421.13C255.5,-411.8 255.5,-402.93 255.5,-394.83"/>
<polygon fill="none" stroke="midnightblue" points="252,-421.41 255.5,-431.41 259,-421.41 252,-421.41"/>
</g>
<!-- Node4 -->
<g id="node4" class="node">
<title>Node4</title>
<g id="a_node4"><a xlink:href="../../d9/d45/classSDK_1_1UObject.html" target="_top" xlink:title=" ">
<polygon fill="white" stroke="black" points="156.5,-767.5 156.5,-1121.5 354.5,-1121.5 354.5,-767.5 156.5,-767.5"/>
<text text-anchor="middle" x="255.5" y="-1109.5" font-family="Helvetica,sans-Serif" font-size="10.00">SDK::UObject</text>
<polyline fill="none" stroke="black" points="156.5,-1102.5 354.5,-1102.5 "/>
<text text-anchor="start" x="164.5" y="-1090.5" font-family="Helvetica,sans-Serif" font-size="10.00">+ VfTableObject</text>
<text text-anchor="start" x="164.5" y="-1079.5" font-family="Helvetica,sans-Serif" font-size="10.00">+ ObjectFlags</text>
<text text-anchor="start" x="164.5" y="-1068.5" font-family="Helvetica,sans-Serif" font-size="10.00">+ StateFrame</text>
<text text-anchor="start" x="164.5" y="-1057.5" font-family="Helvetica,sans-Serif" font-size="10.00">+ Linker</text>
<text text-anchor="start" x="164.5" y="-1046.5" font-family="Helvetica,sans-Serif" font-size="10.00">+ LinkerIndex</text>
<text text-anchor="start" x="164.5" y="-1035.5" font-family="Helvetica,sans-Serif" font-size="10.00">+ ObjectInternalInteger</text>
<text text-anchor="start" x="164.5" y="-1024.5" font-family="Helvetica,sans-Serif" font-size="10.00">+ NetIndex</text>
<text text-anchor="start" x="164.5" y="-1013.5" font-family="Helvetica,sans-Serif" font-size="10.00">+ Outer</text>
<text text-anchor="start" x="164.5" y="-1002.5" font-family="Helvetica,sans-Serif" font-size="10.00">+ Name</text>
<text text-anchor="start" x="164.5" y="-991.5" font-family="Helvetica,sans-Serif" font-size="10.00">+ Class</text>
<text text-anchor="start" x="164.5" y="-980.5" font-family="Helvetica,sans-Serif" font-size="10.00">+ ObjectArchetype</text>
<text text-anchor="start" x="164.5" y="-969.5" font-family="Helvetica,sans-Serif" font-size="10.00">+ GObjects</text>
<polyline fill="none" stroke="black" points="156.5,-962.5 354.5,-962.5 "/>
<text text-anchor="start" x="164.5" y="-950.5" font-family="Helvetica,sans-Serif" font-size="10.00">+ UObject::GetName()</text>
<text text-anchor="start" x="164.5" y="-939.5" font-family="Helvetica,sans-Serif" font-size="10.00">+ GetFullName()</text>
<text text-anchor="start" x="164.5" y="-928.5" font-family="Helvetica,sans-Serif" font-size="10.00">+ IsA()</text>
<text text-anchor="start" x="164.5" y="-917.5" font-family="Helvetica,sans-Serif" font-size="10.00">+ ProcessEvent()</text>
<text text-anchor="start" x="164.5" y="-906.5" font-family="Helvetica,sans-Serif" font-size="10.00">+ STATIC_ProfNodeEvent()</text>
<text text-anchor="start" x="164.5" y="-895.5" font-family="Helvetica,sans-Serif" font-size="10.00">+ STATIC_ProfNodeSetDepthThreshold()</text>
<text text-anchor="start" x="164.5" y="-884.5" font-family="Helvetica,sans-Serif" font-size="10.00">+ STATIC_ProfNodeSetTimeThreshold</text>
<text text-anchor="start" x="164.5" y="-873.5" font-family="Helvetica,sans-Serif" font-size="10.00">Seconds()</text>
<text text-anchor="start" x="164.5" y="-862.5" font-family="Helvetica,sans-Serif" font-size="10.00">+ STATIC_ProfNodeStop()</text>
<text text-anchor="start" x="164.5" y="-851.5" font-family="Helvetica,sans-Serif" font-size="10.00">+ STATIC_ProfNodeStart()</text>
<text text-anchor="start" x="164.5" y="-840.5" font-family="Helvetica,sans-Serif" font-size="10.00">+ STATIC_GetStringFromGuid()</text>
<text text-anchor="start" x="164.5" y="-829.5" font-family="Helvetica,sans-Serif" font-size="10.00">and 298 more...</text>
<text text-anchor="start" x="164.5" y="-818.5" font-family="Helvetica,sans-Serif" font-size="10.00">+ GetGlobalObjects()</text>
<text text-anchor="start" x="164.5" y="-807.5" font-family="Helvetica,sans-Serif" font-size="10.00">+ FindObject()</text>
<text text-anchor="start" x="164.5" y="-796.5" font-family="Helvetica,sans-Serif" font-size="10.00">+ FindClass()</text>
<text text-anchor="start" x="164.5" y="-785.5" font-family="Helvetica,sans-Serif" font-size="10.00">+ GetObjectCasted()</text>
<text text-anchor="start" x="164.5" y="-774.5" font-family="Helvetica,sans-Serif" font-size="10.00">+ StaticClass()</text>
</a>
</g>
</g>
<!-- Node4&#45;&gt;Node3 -->
<g id="edge3" class="edge">
<title>Node4&#45;&gt;Node3</title>
<path fill="none" stroke="midnightblue" d="M255.5,-757.17C255.5,-748.24 255.5,-739.33 255.5,-730.53"/>
<polygon fill="none" stroke="midnightblue" points="252,-757.25 255.5,-767.25 259,-757.25 252,-757.25"/>
</g>
<!-- Node8 -->
<g id="node8" class="node">
<title>Node8</title>
<g id="a_node8"><a xlink:href="../../dd/d4c/classSDK_1_1ADominantDirectionalLightMovable.html" target="_top" xlink:title=" ">
<polygon fill="white" stroke="black" points="356,-0.5 356,-68.5 495,-68.5 495,-0.5 356,-0.5"/>
<text text-anchor="start" x="364" y="-56.5" font-family="Helvetica,sans-Serif" font-size="10.00">SDK::ADominantDirectional</text>
<text text-anchor="middle" x="425.5" y="-45.5" font-family="Helvetica,sans-Serif" font-size="10.00">LightMovable</text>
<polyline fill="none" stroke="black" points="356,-38.5 495,-38.5 "/>
<text text-anchor="middle" x="425.5" y="-26.5" font-family="Helvetica,sans-Serif" font-size="10.00"> </text>
<polyline fill="none" stroke="black" points="356,-19.5 495,-19.5 "/>
<text text-anchor="start" x="364" y="-7.5" font-family="Helvetica,sans-Serif" font-size="10.00">+ StaticClass()</text>
</a>
</g>
</g>
<!-- Node7&#45;&gt;Node8 -->
<g id="edge7" class="edge">
<title>Node7&#45;&gt;Node8</title>
<path fill="none" stroke="midnightblue" d="M425.5,-95.14C425.5,-86.26 425.5,-77.04 425.5,-68.59"/>
<polygon fill="none" stroke="midnightblue" points="422,-95.34 425.5,-105.34 429,-95.34 422,-95.34"/>
</g>
</g>
</svg>
        <g id="navigator" transform="translate(0 0)" fill="#404254">
                <rect fill="#f2f5e9" fill-opacity="0.5" stroke="#606060" stroke-width=".5" x="0" y="0" width="60" height="60"/>
                <use id="zoomplus" xlink:href="#zoomPlus" x="17" y="9" onmousedown="handleZoom(evt,'in')"/>
                <use id="zoomminus" xlink:href="#zoomMin" x="42" y="9" onmousedown="handleZoom(evt,'out')"/>
                <use id="reset" xlink:href="#resetDef" x="30" y="36" onmousedown="handleReset()"/>
                <g id="arrowUp" xlink:href="#dirArrow" transform="translate(30 24)" onmousedown="handlePan(0,-1)">
                  <use xlink:href="#rim" fill="#404040">
                        <set attributeName="fill" to="#808080" begin="arrowUp.mouseover" end="arrowUp.mouseout"/>
                  </use>
                  <path fill="none" stroke="white" stroke-width="1.5" d="M0,-3.0v7 M-2.5,-0.5L0,-3.0L2.5,-0.5"/>
                </g>
                <g id="arrowRight" xlink:href="#dirArrow" transform="rotate(90) translate(36 -43)" onmousedown="handlePan(1,0)">
                  <use xlink:href="#rim" fill="#404040">
                        <set attributeName="fill" to="#808080" begin="arrowRight.mouseover" end="arrowRight.mouseout"/>
                  </use>
                  <path fill="none" stroke="white" stroke-width="1.5" d="M0,-3.0v7 M-2.5,-0.5L0,-3.0L2.5,-0.5"/>
                </g>
                <g id="arrowDown" xlink:href="#dirArrow" transform="rotate(180) translate(-30 -48)" onmousedown="handlePan(0,1)">
                  <use xlink:href="#rim" fill="#404040">
                        <set attributeName="fill" to="#808080" begin="arrowDown.mouseover" end="arrowDown.mouseout"/>
                  </use>
                  <path fill="none" stroke="white" stroke-width="1.5" d="M0,-3.0v7 M-2.5,-0.5L0,-3.0L2.5,-0.5"/>
                </g>
                <g id="arrowLeft" xlink:href="#dirArrow" transform="rotate(270) translate(-36 17)" onmousedown="handlePan(-1,0)">
                  <use xlink:href="#rim" fill="#404040">
                        <set attributeName="fill" to="#808080" begin="arrowLeft.mouseover" end="arrowLeft.mouseout"/>
                  </use>
                  <path fill="none" stroke="white" stroke-width="1.5" d="M0,-3.0v7 M-2.5,-0.5L0,-3.0L2.5,-0.5"/>
                </g>
        </g>
        <svg viewBox="0 0 15 15" width="100%" height="30px" preserveAspectRatio="xMaxYMin meet">
         <g id="arrow_out" transform="scale(0.3 0.3)">
          <a xlink:href="classSDK_1_1ADirectionalLight__inherit__graph_org.svg" target="_base">
           <rect id="button" ry="5" rx="5" y="6" x="6" height="38" width="38"
                fill="#f2f5e9" fill-opacity="0.5" stroke="#606060" stroke-width="1.0"/>
           <path id="arrow"
             d="M 11.500037,31.436501 C 11.940474,20.09759 22.043105,11.32322 32.158766,21.979434 L 37.068811,17.246167 C 37.068811,17.246167 37.088388,32 37.088388,32 L 22.160133,31.978069 C 22.160133,31.978069 26.997745,27.140456 26.997745,27.140456 C 18.528582,18.264221 13.291696,25.230495 11.500037,31.436501 z"
             style="fill:#404040;"/>
          </a>
         </g>
        </svg>
</svg>
