<?xml version="1.0" encoding="UTF-8" standalone="no"?>
<!DOCTYPE svg PUBLIC "-//W3C//DTD SVG 1.1//EN"
 "http://www.w3.org/Graphics/SVG/1.1/DTD/svg11.dtd">
<!-- Generated by graphviz version 2.41.20171026.1811 (20171026.1811)
 -->
<!-- Title: SDK::FOnlineCrossTitleContent Pages: 1 -->
<!--zoomable 955 -->
<svg id="main" version="1.1" xmlns="http://www.w3.org/2000/svg" xmlns:xlink="http://www.w3.org/1999/xlink" xml:space="preserve" onload="init(evt)">
<style type="text/css"><![CDATA[
.edge:hover path { stroke: red; }
.edge:hover polygon { stroke: red; fill: red; }
]]></style>
<script type="text/javascript"><![CDATA[
var edges = document.getElementsByTagName('g');
if (edges && edges.length) {
  for (var i=0;i<edges.length;i++) {
    if (edges[i].id.substr(0,4)=='edge') {
      edges[i].setAttribute('class','edge');
    }
  }
}
]]></script>
        <defs>
                <circle id="rim" cx="0" cy="0" r="7"/>
                <circle id="rim2" cx="0" cy="0" r="3.5"/>
                <g id="zoomPlus">
                        <use xlink:href="#rim" fill="#404040">
                                <set attributeName="fill" to="#808080" begin="zoomplus.mouseover" end="zoomplus.mouseout"/>
                        </use>
                        <path d="M-4,0h8M0,-4v8" fill="none" stroke="white" stroke-width="1.5" pointer-events="none"/>
                </g>
                <g id="zoomMin">
                        <use xlink:href="#rim" fill="#404040">
                                <set attributeName="fill" to="#808080" begin="zoomminus.mouseover" end="zoomminus.mouseout"/>
                        </use>
                        <path d="M-4,0h8" fill="none" stroke="white" stroke-width="1.5" pointer-events="none"/>
                </g>
                <g id="dirArrow">
                        <path fill="none" stroke="white" stroke-width="1.5" d="M0,-3.0v7 M-2.5,-0.5L0,-3.0L2.5,-0.5"/>
                </g>
               <g id="resetDef">
                       <use xlink:href="#rim2" fill="#404040">
                               <set attributeName="fill" to="#808080" begin="reset.mouseover" end="reset.mouseout"/>
                       </use>
               </g>
        </defs>

<script type="text/javascript">
var viewWidth = 420;
var viewHeight = 955;
var sectionId = 'dynsection-1';
</script>
<script xlink:href="../../svgpan.js"/>
<svg id="graph" class="graph">
<g id="viewport">
<title>SDK::FOnlineCrossTitleContent</title>
<polygon fill="white" stroke="transparent" points="-4,4 -4,-951 415.5,-951 415.5,4 -4,4"/>
<!-- Node1 -->
<g id="node1" class="node">
<title>Node1</title>
<g id="a_node1"><a xlink:title=" ">
<polygon fill="#bfbfbf" stroke="black" points="147,-0.5 147,-57.5 304,-57.5 304,-0.5 147,-0.5"/>
<text text-anchor="middle" x="225.5" y="-45.5" font-family="Helvetica,sans-Serif" font-size="10.00">SDK::FOnlineCrossTitleContent</text>
<polyline fill="none" stroke="black" points="147,-38.5 304,-38.5 "/>
<text text-anchor="start" x="155" y="-26.5" font-family="Helvetica,sans-Serif" font-size="10.00">+ TitleId</text>
<polyline fill="none" stroke="black" points="147,-19.5 304,-19.5 "/>
<text text-anchor="middle" x="225.5" y="-7.5" font-family="Helvetica,sans-Serif" font-size="10.00"> </text>
</a>
</g>
</g>
<!-- Node2 -->
<g id="node2" class="node">
<title>Node2</title>
<g id="a_node2"><a xlink:href="../../d7/d1a/structSDK_1_1FOnlineContent.html" target="_top" xlink:title=" ">
<polygon fill="white" stroke="black" points="169.5,-95.5 169.5,-196.5 281.5,-196.5 281.5,-95.5 169.5,-95.5"/>
<text text-anchor="middle" x="225.5" y="-184.5" font-family="Helvetica,sans-Serif" font-size="10.00">SDK::FOnlineContent</text>
<polyline fill="none" stroke="black" points="169.5,-177.5 281.5,-177.5 "/>
<text text-anchor="start" x="177.5" y="-165.5" font-family="Helvetica,sans-Serif" font-size="10.00">+ UserIndex</text>
<text text-anchor="start" x="177.5" y="-154.5" font-family="Helvetica,sans-Serif" font-size="10.00">+ UnknownData00</text>
<text text-anchor="start" x="177.5" y="-143.5" font-family="Helvetica,sans-Serif" font-size="10.00">+ bIsCorrupt</text>
<text text-anchor="start" x="177.5" y="-132.5" font-family="Helvetica,sans-Serif" font-size="10.00">+ DeviceID</text>
<text text-anchor="start" x="177.5" y="-121.5" font-family="Helvetica,sans-Serif" font-size="10.00">+ LicenseMask</text>
<polyline fill="none" stroke="black" points="169.5,-114.5 281.5,-114.5 "/>
<text text-anchor="middle" x="225.5" y="-102.5" font-family="Helvetica,sans-Serif" font-size="10.00"> </text>
</a>
</g>
</g>
<!-- Node2&#45;&gt;Node1 -->
<g id="edge1" class="edge">
<title>Node2&#45;&gt;Node1</title>
<path fill="none" stroke="midnightblue" d="M225.5,-85.22C225.5,-75.59 225.5,-66.06 225.5,-57.68"/>
<polygon fill="none" stroke="midnightblue" points="222,-85.23 225.5,-95.23 229,-85.23 222,-85.23"/>
</g>
<!-- Node3 -->
<g id="node3" class="node">
<title>Node3</title>
<g id="a_node3"><a xlink:href="../../df/d1c/classSDK_1_1TEnumAsByte.html" target="_top" xlink:title=" ">
<polygon fill="white" stroke="black" points="0,-266.5 0,-389.5 161,-389.5 161,-266.5 0,-266.5"/>
<text text-anchor="start" x="8" y="-377.5" font-family="Helvetica,sans-Serif" font-size="10.00">SDK::TEnumAsByte&lt; EOnline</text>
<text text-anchor="middle" x="80.5" y="-366.5" font-family="Helvetica,sans-Serif" font-size="10.00">ContentType &gt;</text>
<polyline fill="none" stroke="black" points="0,-359.5 161,-359.5 "/>
<text text-anchor="start" x="8" y="-347.5" font-family="Helvetica,sans-Serif" font-size="10.00">&#45; value</text>
<polyline fill="none" stroke="black" points="0,-340.5 161,-340.5 "/>
<text text-anchor="start" x="8" y="-328.5" font-family="Helvetica,sans-Serif" font-size="10.00">+ TEnumAsByte()</text>
<text text-anchor="start" x="8" y="-317.5" font-family="Helvetica,sans-Serif" font-size="10.00">+ TEnumAsByte()</text>
<text text-anchor="start" x="8" y="-306.5" font-family="Helvetica,sans-Serif" font-size="10.00">+ TEnumAsByte()</text>
<text text-anchor="start" x="8" y="-295.5" font-family="Helvetica,sans-Serif" font-size="10.00">+ TEnumAsByte()</text>
<text text-anchor="start" x="8" y="-284.5" font-family="Helvetica,sans-Serif" font-size="10.00">+ operator EOnlineContentType()</text>
<text text-anchor="start" x="8" y="-273.5" font-family="Helvetica,sans-Serif" font-size="10.00">+ GetValue()</text>
</a>
</g>
</g>
<!-- Node3&#45;&gt;Node2 -->
<g id="edge2" class="edge">
<title>Node3&#45;&gt;Node2</title>
<path fill="none" stroke="#404040" d="M117.77,-266.33C129.18,-249.2 142.24,-230.91 155.5,-215 158.13,-211.85 160.89,-208.68 163.73,-205.53"/>
<polygon fill="none" stroke="#404040" points="163.74,-205.52 164.89,-198.41 171.91,-196.74 170.75,-203.85 163.74,-205.52"/>
<text text-anchor="middle" x="188.5" y="-223.5" font-family="Helvetica,sans-Serif" font-size="10.00"> +ContentType</text>
</g>
<!-- Node4 -->
<g id="node4" class="node">
<title>Node4</title>
<g id="a_node4"><a xlink:href="../../df/d1c/classSDK_1_1TEnumAsByte.html" target="_top" xlink:title=" ">
<polygon fill="white" stroke="black" points="2,-448.5 2,-560.5 159,-560.5 159,-448.5 2,-448.5"/>
<text text-anchor="middle" x="80.5" y="-548.5" font-family="Helvetica,sans-Serif" font-size="10.00">SDK::TEnumAsByte&lt; TEnum &gt;</text>
<polyline fill="none" stroke="black" points="2,-541.5 159,-541.5 "/>
<text text-anchor="start" x="10" y="-529.5" font-family="Helvetica,sans-Serif" font-size="10.00">&#45; value</text>
<polyline fill="none" stroke="black" points="2,-522.5 159,-522.5 "/>
<text text-anchor="start" x="10" y="-510.5" font-family="Helvetica,sans-Serif" font-size="10.00">+ TEnumAsByte()</text>
<text text-anchor="start" x="10" y="-499.5" font-family="Helvetica,sans-Serif" font-size="10.00">+ TEnumAsByte()</text>
<text text-anchor="start" x="10" y="-488.5" font-family="Helvetica,sans-Serif" font-size="10.00">+ TEnumAsByte()</text>
<text text-anchor="start" x="10" y="-477.5" font-family="Helvetica,sans-Serif" font-size="10.00">+ TEnumAsByte()</text>
<text text-anchor="start" x="10" y="-466.5" font-family="Helvetica,sans-Serif" font-size="10.00">+ operator TEnum()</text>
<text text-anchor="start" x="10" y="-455.5" font-family="Helvetica,sans-Serif" font-size="10.00">+ GetValue()</text>
</a>
</g>
</g>
<!-- Node4&#45;&gt;Node3 -->
<g id="edge3" class="edge">
<title>Node4&#45;&gt;Node3</title>
<path fill="none" stroke="orange" d="M80.5,-438.03C80.5,-422.15 80.5,-405.24 80.5,-389.6"/>
<polygon fill="orange" stroke="orange" points="77,-438.29 80.5,-448.29 84,-438.29 77,-438.29"/>
<text text-anchor="middle" x="136.5" y="-422" font-family="Helvetica,sans-Serif" font-size="10.00"> &lt; EOnlineContentType &gt;</text>
</g>
<!-- Node5 -->
<g id="node5" class="node">
<title>Node5</title>
<g id="a_node5"><a xlink:href="../../d3/d79/classSDK_1_1TArray.html" target="_top" xlink:title=" ">
<polygon fill="white" stroke="black" points="179,-255.5 179,-400.5 286,-400.5 286,-255.5 179,-255.5"/>
<text text-anchor="start" x="187" y="-388.5" font-family="Helvetica,sans-Serif" font-size="10.00">SDK::TArray&lt; struct</text>
<text text-anchor="middle" x="232.5" y="-377.5" font-family="Helvetica,sans-Serif" font-size="10.00"> SDK::FString &gt;</text>
<polyline fill="none" stroke="black" points="179,-370.5 286,-370.5 "/>
<text text-anchor="start" x="187" y="-358.5" font-family="Helvetica,sans-Serif" font-size="10.00">&#45; Count</text>
<text text-anchor="start" x="187" y="-347.5" font-family="Helvetica,sans-Serif" font-size="10.00">&#45; Max</text>
<polyline fill="none" stroke="black" points="179,-340.5 286,-340.5 "/>
<text text-anchor="start" x="187" y="-328.5" font-family="Helvetica,sans-Serif" font-size="10.00">+ TArray()</text>
<text text-anchor="start" x="187" y="-317.5" font-family="Helvetica,sans-Serif" font-size="10.00">+ Num()</text>
<text text-anchor="start" x="187" y="-306.5" font-family="Helvetica,sans-Serif" font-size="10.00">+ operator[]()</text>
<text text-anchor="start" x="187" y="-295.5" font-family="Helvetica,sans-Serif" font-size="10.00">+ operator[]()</text>
<text text-anchor="start" x="187" y="-284.5" font-family="Helvetica,sans-Serif" font-size="10.00">+ IsValidIndex()</text>
<text text-anchor="start" x="187" y="-273.5" font-family="Helvetica,sans-Serif" font-size="10.00">+ GetByIndex()</text>
<text text-anchor="start" x="187" y="-262.5" font-family="Helvetica,sans-Serif" font-size="10.00">+ GetByIndex()</text>
</a>
</g>
</g>
<!-- Node5&#45;&gt;Node2 -->
<g id="edge4" class="edge">
<title>Node5&#45;&gt;Node2</title>
<path fill="none" stroke="#404040" d="M227.36,-255.3C227.03,-249.11 226.73,-242.95 226.5,-237 226.15,-227.88 225.9,-218.24 225.73,-208.78"/>
<polygon fill="none" stroke="#404040" points="225.73,-208.53 221.64,-202.58 225.56,-196.53 229.64,-202.47 225.73,-208.53"/>
<text text-anchor="middle" x="270.5" y="-229" font-family="Helvetica,sans-Serif" font-size="10.00"> +ContentPackages</text>
<text text-anchor="middle" x="270.5" y="-218" font-family="Helvetica,sans-Serif" font-size="10.00">+ContentFiles</text>
</g>
<!-- Node6 -->
<g id="node6" class="node">
<title>Node6</title>
<g id="a_node6"><a xlink:href="../../d3/d88/classSDK_1_1FString.html" target="_top" xlink:title=" ">
<polygon fill="white" stroke="black" points="291,-454 291,-555 366,-555 366,-454 291,-454"/>
<text text-anchor="middle" x="328.5" y="-543" font-family="Helvetica,sans-Serif" font-size="10.00">SDK::FString</text>
<polyline fill="none" stroke="black" points="291,-536 366,-536 "/>
<text text-anchor="middle" x="328.5" y="-524" font-family="Helvetica,sans-Serif" font-size="10.00"> </text>
<polyline fill="none" stroke="black" points="291,-517 366,-517 "/>
<text text-anchor="start" x="299" y="-505" font-family="Helvetica,sans-Serif" font-size="10.00">+ FString()</text>
<text text-anchor="start" x="299" y="-494" font-family="Helvetica,sans-Serif" font-size="10.00">+ FString()</text>
<text text-anchor="start" x="299" y="-483" font-family="Helvetica,sans-Serif" font-size="10.00">+ IsValid()</text>
<text text-anchor="start" x="299" y="-472" font-family="Helvetica,sans-Serif" font-size="10.00">+ c_str()</text>
<text text-anchor="start" x="299" y="-461" font-family="Helvetica,sans-Serif" font-size="10.00">+ ToString()</text>
</a>
</g>
</g>
<!-- Node6&#45;&gt;Node2 -->
<g id="edge9" class="edge">
<title>Node6&#45;&gt;Node2</title>
<path fill="none" stroke="#404040" d="M338.16,-453.79C347.26,-393.54 354.24,-290.7 314.5,-215 308.81,-204.15 300.52,-194.53 291.27,-186.18"/>
<polygon fill="none" stroke="#404040" points="290.98,-185.93 283.81,-185.17 281.76,-178.26 288.93,-179.02 290.98,-185.93"/>
<text text-anchor="middle" x="378" y="-336.5" font-family="Helvetica,sans-Serif" font-size="10.00"> +Filename</text>
<text text-anchor="middle" x="378" y="-325.5" font-family="Helvetica,sans-Serif" font-size="10.00">+ContentPath</text>
<text text-anchor="middle" x="378" y="-314.5" font-family="Helvetica,sans-Serif" font-size="10.00">+FriendlyName</text>
</g>
<!-- Node6&#45;&gt;Node5 -->
<g id="edge5" class="edge">
<title>Node6&#45;&gt;Node5</title>
<path fill="none" stroke="#404040" d="M299.84,-453.79C295.34,-445.85 290.77,-437.72 286.5,-430 283.14,-423.92 279.69,-417.63 276.24,-411.28"/>
<polygon fill="none" stroke="#404040" points="276.17,-411.14 269.79,-407.77 270.45,-400.59 276.83,-403.96 276.17,-411.14"/>
<text text-anchor="middle" x="300.5" y="-422" font-family="Helvetica,sans-Serif" font-size="10.00"> &#45;Data</text>
</g>
<!-- Node7 -->
<g id="node7" class="node">
<title>Node7</title>
<g id="a_node7"><a xlink:href="../../d3/d79/classSDK_1_1TArray.html" target="_top" xlink:title=" ">
<polygon fill="white" stroke="black" points="265,-608.5 265,-753.5 390,-753.5 390,-608.5 265,-608.5"/>
<text text-anchor="middle" x="327.5" y="-741.5" font-family="Helvetica,sans-Serif" font-size="10.00">SDK::TArray&lt; wchar_t &gt;</text>
<polyline fill="none" stroke="black" points="265,-734.5 390,-734.5 "/>
<text text-anchor="start" x="273" y="-722.5" font-family="Helvetica,sans-Serif" font-size="10.00">&#45; Data</text>
<text text-anchor="start" x="273" y="-711.5" font-family="Helvetica,sans-Serif" font-size="10.00">&#45; Count</text>
<text text-anchor="start" x="273" y="-700.5" font-family="Helvetica,sans-Serif" font-size="10.00">&#45; Max</text>
<polyline fill="none" stroke="black" points="265,-693.5 390,-693.5 "/>
<text text-anchor="start" x="273" y="-681.5" font-family="Helvetica,sans-Serif" font-size="10.00">+ TArray()</text>
<text text-anchor="start" x="273" y="-670.5" font-family="Helvetica,sans-Serif" font-size="10.00">+ Num()</text>
<text text-anchor="start" x="273" y="-659.5" font-family="Helvetica,sans-Serif" font-size="10.00">+ operator[]()</text>
<text text-anchor="start" x="273" y="-648.5" font-family="Helvetica,sans-Serif" font-size="10.00">+ operator[]()</text>
<text text-anchor="start" x="273" y="-637.5" font-family="Helvetica,sans-Serif" font-size="10.00">+ IsValidIndex()</text>
<text text-anchor="start" x="273" y="-626.5" font-family="Helvetica,sans-Serif" font-size="10.00">+ GetByIndex()</text>
<text text-anchor="start" x="273" y="-615.5" font-family="Helvetica,sans-Serif" font-size="10.00">+ GetByIndex()</text>
</a>
</g>
</g>
<!-- Node7&#45;&gt;Node6 -->
<g id="edge6" class="edge">
<title>Node7&#45;&gt;Node6</title>
<path fill="none" stroke="midnightblue" d="M329.49,-598.11C329.53,-591.64 329.54,-585.21 329.5,-579 329.45,-571.34 329.37,-563.24 329.27,-555.32"/>
<polygon fill="none" stroke="midnightblue" points="325.99,-598.24 329.39,-608.28 332.99,-598.31 325.99,-598.24"/>
</g>
<!-- Node8 -->
<g id="node8" class="node">
<title>Node8</title>
<g id="a_node8"><a xlink:href="../../d3/d79/classSDK_1_1TArray.html" target="_top" xlink:title=" ">
<polygon fill="white" stroke="black" points="188,-801.5 188,-946.5 285,-946.5 285,-801.5 188,-801.5"/>
<text text-anchor="middle" x="236.5" y="-934.5" font-family="Helvetica,sans-Serif" font-size="10.00">SDK::TArray&lt; T &gt;</text>
<polyline fill="none" stroke="black" points="188,-927.5 285,-927.5 "/>
<text text-anchor="start" x="196" y="-915.5" font-family="Helvetica,sans-Serif" font-size="10.00">&#45; Data</text>
<text text-anchor="start" x="196" y="-904.5" font-family="Helvetica,sans-Serif" font-size="10.00">&#45; Count</text>
<text text-anchor="start" x="196" y="-893.5" font-family="Helvetica,sans-Serif" font-size="10.00">&#45; Max</text>
<polyline fill="none" stroke="black" points="188,-886.5 285,-886.5 "/>
<text text-anchor="start" x="196" y="-874.5" font-family="Helvetica,sans-Serif" font-size="10.00">+ TArray()</text>
<text text-anchor="start" x="196" y="-863.5" font-family="Helvetica,sans-Serif" font-size="10.00">+ Num()</text>
<text text-anchor="start" x="196" y="-852.5" font-family="Helvetica,sans-Serif" font-size="10.00">+ operator[]()</text>
<text text-anchor="start" x="196" y="-841.5" font-family="Helvetica,sans-Serif" font-size="10.00">+ operator[]()</text>
<text text-anchor="start" x="196" y="-830.5" font-family="Helvetica,sans-Serif" font-size="10.00">+ IsValidIndex()</text>
<text text-anchor="start" x="196" y="-819.5" font-family="Helvetica,sans-Serif" font-size="10.00">+ GetByIndex()</text>
<text text-anchor="start" x="196" y="-808.5" font-family="Helvetica,sans-Serif" font-size="10.00">+ GetByIndex()</text>
</a>
</g>
</g>
<!-- Node8&#45;&gt;Node5 -->
<g id="edge8" class="edge">
<title>Node8&#45;&gt;Node5</title>
<path fill="none" stroke="orange" d="M227.09,-791.47C221.29,-732.51 215.35,-650.89 217.5,-579 219.3,-518.81 223.55,-450.57 227.06,-400.61"/>
<polygon fill="orange" stroke="orange" points="223.61,-791.87 228.09,-801.48 230.57,-791.18 223.61,-791.87"/>
<text text-anchor="middle" x="271.5" y="-582" font-family="Helvetica,sans-Serif" font-size="10.00"> &lt; struct SDK::FString &gt;</text>
</g>
<!-- Node8&#45;&gt;Node7 -->
<g id="edge7" class="edge">
<title>Node8&#45;&gt;Node7</title>
<path fill="none" stroke="orange" d="M275.03,-792.13C281.11,-779.38 287.35,-766.27 293.32,-753.75"/>
<polygon fill="orange" stroke="orange" points="271.79,-790.8 270.64,-801.34 278.1,-793.81 271.79,-790.8"/>
<text text-anchor="middle" x="309.5" y="-775" font-family="Helvetica,sans-Serif" font-size="10.00"> &lt; wchar_t &gt;</text>
</g>
</g>
</svg>
        <g id="navigator" transform="translate(0 0)" fill="#404254">
                <rect fill="#f2f5e9" fill-opacity="0.5" stroke="#606060" stroke-width=".5" x="0" y="0" width="60" height="60"/>
                <use id="zoomplus" xlink:href="#zoomPlus" x="17" y="9" onmousedown="handleZoom(evt,'in')"/>
                <use id="zoomminus" xlink:href="#zoomMin" x="42" y="9" onmousedown="handleZoom(evt,'out')"/>
                <use id="reset" xlink:href="#resetDef" x="30" y="36" onmousedown="handleReset()"/>
                <g id="arrowUp" xlink:href="#dirArrow" transform="translate(30 24)" onmousedown="handlePan(0,-1)">
                  <use xlink:href="#rim" fill="#404040">
                        <set attributeName="fill" to="#808080" begin="arrowUp.mouseover" end="arrowUp.mouseout"/>
                  </use>
                  <path fill="none" stroke="white" stroke-width="1.5" d="M0,-3.0v7 M-2.5,-0.5L0,-3.0L2.5,-0.5"/>
                </g>
                <g id="arrowRight" xlink:href="#dirArrow" transform="rotate(90) translate(36 -43)" onmousedown="handlePan(1,0)">
                  <use xlink:href="#rim" fill="#404040">
                        <set attributeName="fill" to="#808080" begin="arrowRight.mouseover" end="arrowRight.mouseout"/>
                  </use>
                  <path fill="none" stroke="white" stroke-width="1.5" d="M0,-3.0v7 M-2.5,-0.5L0,-3.0L2.5,-0.5"/>
                </g>
                <g id="arrowDown" xlink:href="#dirArrow" transform="rotate(180) translate(-30 -48)" onmousedown="handlePan(0,1)">
                  <use xlink:href="#rim" fill="#404040">
                        <set attributeName="fill" to="#808080" begin="arrowDown.mouseover" end="arrowDown.mouseout"/>
                  </use>
                  <path fill="none" stroke="white" stroke-width="1.5" d="M0,-3.0v7 M-2.5,-0.5L0,-3.0L2.5,-0.5"/>
                </g>
                <g id="arrowLeft" xlink:href="#dirArrow" transform="rotate(270) translate(-36 17)" onmousedown="handlePan(-1,0)">
                  <use xlink:href="#rim" fill="#404040">
                        <set attributeName="fill" to="#808080" begin="arrowLeft.mouseover" end="arrowLeft.mouseout"/>
                  </use>
                  <path fill="none" stroke="white" stroke-width="1.5" d="M0,-3.0v7 M-2.5,-0.5L0,-3.0L2.5,-0.5"/>
                </g>
        </g>
        <svg viewBox="0 0 15 15" width="100%" height="30px" preserveAspectRatio="xMaxYMin meet">
         <g id="arrow_out" transform="scale(0.3 0.3)">
          <a xlink:href="structSDK_1_1FOnlineCrossTitleContent__coll__graph_org.svg" target="_base">
           <rect id="button" ry="5" rx="5" y="6" x="6" height="38" width="38"
                fill="#f2f5e9" fill-opacity="0.5" stroke="#606060" stroke-width="1.0"/>
           <path id="arrow"
             d="M 11.500037,31.436501 C 11.940474,20.09759 22.043105,11.32322 32.158766,21.979434 L 37.068811,17.246167 C 37.068811,17.246167 37.088388,32 37.088388,32 L 22.160133,31.978069 C 22.160133,31.978069 26.997745,27.140456 26.997745,27.140456 C 18.528582,18.264221 13.291696,25.230495 11.500037,31.436501 z"
             style="fill:#404040;"/>
          </a>
         </g>
        </svg>
</svg>
