<?xml version="1.0" encoding="UTF-8" standalone="no"?>
<!DOCTYPE svg PUBLIC "-//W3C//DTD SVG 1.1//EN"
 "http://www.w3.org/Graphics/SVG/1.1/DTD/svg11.dtd">
<!-- Generated by graphviz version 2.41.20171026.1811 (20171026.1811)
 -->
<!-- Title: SDK::FFriendsQuery Pages: 1 -->
<svg width="116pt" height="287pt"
 viewBox="0.00 0.00 116.00 287.00" xmlns="http://www.w3.org/2000/svg" xmlns:xlink="http://www.w3.org/1999/xlink">
<g id="graph0" class="graph" transform="scale(1 1) rotate(0) translate(4 283)">
<title>SDK::FFriendsQuery</title>
<polygon fill="white" stroke="transparent" points="-4,4 -4,-283 112,-283 112,4 -4,4"/>
<!-- Node1 -->
<g id="node1" class="node">
<title>Node1</title>
<g id="a_node1"><a xlink:title=" ">
<polygon fill="#bfbfbf" stroke="black" points="0,-0.5 0,-57.5 108,-57.5 108,-0.5 0,-0.5"/>
<text text-anchor="middle" x="54" y="-45.5" font-family="Helvetica,sans-Serif" font-size="10.00">SDK::FFriendsQuery</text>
<polyline fill="none" stroke="black" points="0,-38.5 108,-38.5 "/>
<text text-anchor="start" x="8" y="-26.5" font-family="Helvetica,sans-Serif" font-size="10.00">+ bIsFriend</text>
<polyline fill="none" stroke="black" points="0,-19.5 108,-19.5 "/>
<text text-anchor="middle" x="54" y="-7.5" font-family="Helvetica,sans-Serif" font-size="10.00"> </text>
</a>
</g>
</g>
<!-- Node2 -->
<g id="node2" class="node">
<title>Node2</title>
<g id="a_node2"><a xlink:href="../../d4/d7a/structSDK_1_1FUniqueNetId.html" target="_top" xlink:title=" ">
<polygon fill="white" stroke="black" points="2,-105.5 2,-162.5 106,-162.5 106,-105.5 2,-105.5"/>
<text text-anchor="middle" x="54" y="-150.5" font-family="Helvetica,sans-Serif" font-size="10.00">SDK::FUniqueNetId</text>
<polyline fill="none" stroke="black" points="2,-143.5 106,-143.5 "/>
<text text-anchor="middle" x="54" y="-131.5" font-family="Helvetica,sans-Serif" font-size="10.00"> </text>
<polyline fill="none" stroke="black" points="2,-124.5 106,-124.5 "/>
<text text-anchor="middle" x="54" y="-112.5" font-family="Helvetica,sans-Serif" font-size="10.00"> </text>
</a>
</g>
</g>
<!-- Node2&#45;&gt;Node1 -->
<g id="edge1" class="edge">
<title>Node2&#45;&gt;Node1</title>
<path fill="none" stroke="#404040" d="M54,-105.4C54,-94.55 54,-81.87 54,-70.05"/>
<polygon fill="none" stroke="#404040" points="54,-69.68 50,-63.68 54,-57.68 58,-63.68 54,-69.68"/>
<text text-anchor="middle" x="78.5" y="-79" font-family="Helvetica,sans-Serif" font-size="10.00"> +UniqueId</text>
</g>
<!-- Node3 -->
<g id="node3" class="node">
<title>Node3</title>
<g id="a_node3"><a xlink:href="../../d0/d22/structSDK_1_1FQWord.html" target="_top" xlink:title=" ">
<polygon fill="white" stroke="black" points="14,-210.5 14,-278.5 94,-278.5 94,-210.5 14,-210.5"/>
<text text-anchor="middle" x="54" y="-266.5" font-family="Helvetica,sans-Serif" font-size="10.00">SDK::FQWord</text>
<polyline fill="none" stroke="black" points="14,-259.5 94,-259.5 "/>
<text text-anchor="start" x="22" y="-247.5" font-family="Helvetica,sans-Serif" font-size="10.00">+ A</text>
<text text-anchor="start" x="22" y="-236.5" font-family="Helvetica,sans-Serif" font-size="10.00">+ B</text>
<polyline fill="none" stroke="black" points="14,-229.5 94,-229.5 "/>
<text text-anchor="middle" x="54" y="-217.5" font-family="Helvetica,sans-Serif" font-size="10.00"> </text>
</a>
</g>
</g>
<!-- Node3&#45;&gt;Node2 -->
<g id="edge2" class="edge">
<title>Node3&#45;&gt;Node2</title>
<path fill="none" stroke="#404040" d="M54,-210.36C54,-199.19 54,-186.61 54,-174.97"/>
<polygon fill="none" stroke="#404040" points="54,-174.83 50,-168.83 54,-162.83 58,-168.83 54,-174.83"/>
<text text-anchor="middle" x="66.5" y="-184" font-family="Helvetica,sans-Serif" font-size="10.00"> +Uid</text>
</g>
</g>
</svg>
