<?xml version="1.0" encoding="UTF-8" standalone="no"?>
<!DOCTYPE svg PUBLIC "-//W3C//DTD SVG 1.1//EN"
 "http://www.w3.org/Graphics/SVG/1.1/DTD/svg11.dtd">
<!-- Generated by graphviz version 2.41.20171026.1811 (20171026.1811)
 -->
<!-- Title: SDK::UGFxClikWidget Pages: 1 -->
<svg width="926pt" height="2162pt"
 viewBox="0.00 0.00 925.50 2162.00" xmlns="http://www.w3.org/2000/svg" xmlns:xlink="http://www.w3.org/1999/xlink">
<g id="graph0" class="graph" transform="scale(1 1) rotate(0) translate(4 2158)">
<title>SDK::UGFxClikWidget</title>
<polygon fill="white" stroke="transparent" points="-4,4 -4,-2158 921.5,-2158 921.5,4 -4,4"/>
<!-- Node1 -->
<g id="node1" class="node">
<title>Node1</title>
<g id="a_node1"><a xlink:title=" ">
<polygon fill="#bfbfbf" stroke="black" points="0,-0.5 0,-145.5 167,-145.5 167,-0.5 0,-0.5"/>
<text text-anchor="middle" x="83.5" y="-133.5" font-family="Helvetica,sans-Serif" font-size="10.00">SDK::UGFxClikWidget</text>
<polyline fill="none" stroke="black" points="0,-126.5 167,-126.5 "/>
<text text-anchor="middle" x="83.5" y="-114.5" font-family="Helvetica,sans-Serif" font-size="10.00"> </text>
<polyline fill="none" stroke="black" points="0,-107.5 167,-107.5 "/>
<text text-anchor="start" x="8" y="-95.5" font-family="Helvetica,sans-Serif" font-size="10.00">+ ASRemoveAllEventListeners()</text>
<text text-anchor="start" x="8" y="-84.5" font-family="Helvetica,sans-Serif" font-size="10.00">+ AS3AddEventListener()</text>
<text text-anchor="start" x="8" y="-73.5" font-family="Helvetica,sans-Serif" font-size="10.00">+ ASAddEventListener()</text>
<text text-anchor="start" x="8" y="-62.5" font-family="Helvetica,sans-Serif" font-size="10.00">+ SetListener()</text>
<text text-anchor="start" x="8" y="-51.5" font-family="Helvetica,sans-Serif" font-size="10.00">+ GetEventStringFromTypename()</text>
<text text-anchor="start" x="8" y="-40.5" font-family="Helvetica,sans-Serif" font-size="10.00">+ RemoveAllEventListeners()</text>
<text text-anchor="start" x="8" y="-29.5" font-family="Helvetica,sans-Serif" font-size="10.00">+ AddEventListener()</text>
<text text-anchor="start" x="8" y="-18.5" font-family="Helvetica,sans-Serif" font-size="10.00">+ EventListener()</text>
<text text-anchor="start" x="8" y="-7.5" font-family="Helvetica,sans-Serif" font-size="10.00">+ StaticClass()</text>
</a>
</g>
</g>
<!-- Node2 -->
<g id="node2" class="node">
<title>Node2</title>
<g id="a_node2"><a xlink:href="../../d2/d23/classSDK_1_1UGFxObject.html" target="_top" xlink:title=" ">
<polygon fill="white" stroke="black" points="622,-183.5 622,-372.5 771,-372.5 771,-183.5 622,-183.5"/>
<text text-anchor="middle" x="696.5" y="-360.5" font-family="Helvetica,sans-Serif" font-size="10.00">SDK::UGFxObject</text>
<polyline fill="none" stroke="black" points="622,-353.5 771,-353.5 "/>
<text text-anchor="start" x="630" y="-341.5" font-family="Helvetica,sans-Serif" font-size="10.00">+ Value</text>
<text text-anchor="start" x="630" y="-330.5" font-family="Helvetica,sans-Serif" font-size="10.00">+ bListenExternalInterfaceCall</text>
<polyline fill="none" stroke="black" points="622,-323.5 771,-323.5 "/>
<text text-anchor="start" x="630" y="-311.5" font-family="Helvetica,sans-Serif" font-size="10.00">+ DestroyGFxObject()</text>
<text text-anchor="start" x="630" y="-300.5" font-family="Helvetica,sans-Serif" font-size="10.00">+ WidgetUnloaded()</text>
<text text-anchor="start" x="630" y="-289.5" font-family="Helvetica,sans-Serif" font-size="10.00">+ WidgetInitialized()</text>
<text text-anchor="start" x="630" y="-278.5" font-family="Helvetica,sans-Serif" font-size="10.00">+ GotoAndStopI()</text>
<text text-anchor="start" x="630" y="-267.5" font-family="Helvetica,sans-Serif" font-size="10.00">+ GotoAndStop()</text>
<text text-anchor="start" x="630" y="-256.5" font-family="Helvetica,sans-Serif" font-size="10.00">+ GotoAndPlayI()</text>
<text text-anchor="start" x="630" y="-245.5" font-family="Helvetica,sans-Serif" font-size="10.00">+ GotoAndPlay()</text>
<text text-anchor="start" x="630" y="-234.5" font-family="Helvetica,sans-Serif" font-size="10.00">+ ActionScriptString()</text>
<text text-anchor="start" x="630" y="-223.5" font-family="Helvetica,sans-Serif" font-size="10.00">+ ActionScriptFloat()</text>
<text text-anchor="start" x="630" y="-212.5" font-family="Helvetica,sans-Serif" font-size="10.00">+ ActionScriptInt()</text>
<text text-anchor="start" x="630" y="-201.5" font-family="Helvetica,sans-Serif" font-size="10.00">and 69 more...</text>
<text text-anchor="start" x="630" y="-190.5" font-family="Helvetica,sans-Serif" font-size="10.00">+ StaticClass()</text>
</a>
</g>
</g>
<!-- Node2&#45;&gt;Node1 -->
<g id="edge1" class="edge">
<title>Node2&#45;&gt;Node1</title>
<path fill="none" stroke="midnightblue" d="M612.29,-249.11C495.15,-210.32 284.26,-140.48 167.32,-101.76"/>
<polygon fill="none" stroke="midnightblue" points="611.35,-252.49 621.95,-252.31 613.55,-245.84 611.35,-252.49"/>
</g>
<!-- Node3 -->
<g id="node3" class="node">
<title>Node3</title>
<g id="a_node3"><a xlink:href="../../d9/d45/classSDK_1_1UObject.html" target="_top" xlink:title=" ">
<polygon fill="white" stroke="black" points="461.5,-1261.5 461.5,-1505.5 659.5,-1505.5 659.5,-1261.5 461.5,-1261.5"/>
<text text-anchor="middle" x="560.5" y="-1493.5" font-family="Helvetica,sans-Serif" font-size="10.00">SDK::UObject</text>
<polyline fill="none" stroke="black" points="461.5,-1486.5 659.5,-1486.5 "/>
<text text-anchor="start" x="469.5" y="-1474.5" font-family="Helvetica,sans-Serif" font-size="10.00">+ ObjectInternalInteger</text>
<text text-anchor="start" x="469.5" y="-1463.5" font-family="Helvetica,sans-Serif" font-size="10.00">+ NetIndex</text>
<polyline fill="none" stroke="black" points="461.5,-1456.5 659.5,-1456.5 "/>
<text text-anchor="start" x="469.5" y="-1444.5" font-family="Helvetica,sans-Serif" font-size="10.00">+ UObject::GetName()</text>
<text text-anchor="start" x="469.5" y="-1433.5" font-family="Helvetica,sans-Serif" font-size="10.00">+ GetFullName()</text>
<text text-anchor="start" x="469.5" y="-1422.5" font-family="Helvetica,sans-Serif" font-size="10.00">+ IsA()</text>
<text text-anchor="start" x="469.5" y="-1411.5" font-family="Helvetica,sans-Serif" font-size="10.00">+ ProcessEvent()</text>
<text text-anchor="start" x="469.5" y="-1400.5" font-family="Helvetica,sans-Serif" font-size="10.00">+ STATIC_ProfNodeEvent()</text>
<text text-anchor="start" x="469.5" y="-1389.5" font-family="Helvetica,sans-Serif" font-size="10.00">+ STATIC_ProfNodeSetDepthThreshold()</text>
<text text-anchor="start" x="469.5" y="-1378.5" font-family="Helvetica,sans-Serif" font-size="10.00">+ STATIC_ProfNodeSetTimeThreshold</text>
<text text-anchor="start" x="469.5" y="-1367.5" font-family="Helvetica,sans-Serif" font-size="10.00">Seconds()</text>
<text text-anchor="start" x="469.5" y="-1356.5" font-family="Helvetica,sans-Serif" font-size="10.00">+ STATIC_ProfNodeStop()</text>
<text text-anchor="start" x="469.5" y="-1345.5" font-family="Helvetica,sans-Serif" font-size="10.00">+ STATIC_ProfNodeStart()</text>
<text text-anchor="start" x="469.5" y="-1334.5" font-family="Helvetica,sans-Serif" font-size="10.00">+ STATIC_GetStringFromGuid()</text>
<text text-anchor="start" x="469.5" y="-1323.5" font-family="Helvetica,sans-Serif" font-size="10.00">and 298 more...</text>
<text text-anchor="start" x="469.5" y="-1312.5" font-family="Helvetica,sans-Serif" font-size="10.00">+ GetGlobalObjects()</text>
<text text-anchor="start" x="469.5" y="-1301.5" font-family="Helvetica,sans-Serif" font-size="10.00">+ FindObject()</text>
<text text-anchor="start" x="469.5" y="-1290.5" font-family="Helvetica,sans-Serif" font-size="10.00">+ FindClass()</text>
<text text-anchor="start" x="469.5" y="-1279.5" font-family="Helvetica,sans-Serif" font-size="10.00">+ GetObjectCasted()</text>
<text text-anchor="start" x="469.5" y="-1268.5" font-family="Helvetica,sans-Serif" font-size="10.00">+ StaticClass()</text>
</a>
</g>
</g>
<!-- Node3&#45;&gt;Node2 -->
<g id="edge2" class="edge">
<title>Node3&#45;&gt;Node2</title>
<path fill="none" stroke="midnightblue" d="M668.89,-1337.45C742.11,-1298.99 825.5,-1235.81 825.5,-1147.5 825.5,-1147.5 825.5,-1147.5 825.5,-492 825.5,-442.5 799.69,-394.67 771.17,-356.92"/>
<polygon fill="none" stroke="midnightblue" points="666.85,-1334.56 659.55,-1342.25 670.05,-1340.79 666.85,-1334.56"/>
</g>
<!-- Node3&#45;&gt;Node3 -->
<g id="edge8" class="edge">
<title>Node3&#45;&gt;Node3</title>
<path fill="none" stroke="#404040" d="M659.51,-1406.53C670.44,-1402.15 677.5,-1394.48 677.5,-1383.5 677.5,-1376.64 674.74,-1371.07 670.01,-1366.78"/>
<polygon fill="none" stroke="#404040" points="669.8,-1366.66 662.59,-1366.99 659.51,-1360.47 666.72,-1360.14 669.8,-1366.66"/>
<text text-anchor="middle" x="717" y="-1392" font-family="Helvetica,sans-Serif" font-size="10.00"> +Outer</text>
<text text-anchor="middle" x="717" y="-1381" font-family="Helvetica,sans-Serif" font-size="10.00">+Linker</text>
<text text-anchor="middle" x="717" y="-1370" font-family="Helvetica,sans-Serif" font-size="10.00">+ObjectArchetype</text>
</g>
<!-- Node9 -->
<g id="node9" class="node">
<title>Node9</title>
<g id="a_node9"><a xlink:href="../../d3/d79/classSDK_1_1TArray.html" target="_top" xlink:title=" ">
<polygon fill="white" stroke="black" points="359,-1079.5 359,-1213.5 520,-1213.5 520,-1079.5 359,-1079.5"/>
<text text-anchor="middle" x="439.5" y="-1201.5" font-family="Helvetica,sans-Serif" font-size="10.00">SDK::TArray&lt; SDK::UObject * &gt;</text>
<polyline fill="none" stroke="black" points="359,-1194.5 520,-1194.5 "/>
<text text-anchor="start" x="367" y="-1182.5" font-family="Helvetica,sans-Serif" font-size="10.00">&#45; Count</text>
<text text-anchor="start" x="367" y="-1171.5" font-family="Helvetica,sans-Serif" font-size="10.00">&#45; Max</text>
<polyline fill="none" stroke="black" points="359,-1164.5 520,-1164.5 "/>
<text text-anchor="start" x="367" y="-1152.5" font-family="Helvetica,sans-Serif" font-size="10.00">+ TArray()</text>
<text text-anchor="start" x="367" y="-1141.5" font-family="Helvetica,sans-Serif" font-size="10.00">+ Num()</text>
<text text-anchor="start" x="367" y="-1130.5" font-family="Helvetica,sans-Serif" font-size="10.00">+ operator[]()</text>
<text text-anchor="start" x="367" y="-1119.5" font-family="Helvetica,sans-Serif" font-size="10.00">+ operator[]()</text>
<text text-anchor="start" x="367" y="-1108.5" font-family="Helvetica,sans-Serif" font-size="10.00">+ IsValidIndex()</text>
<text text-anchor="start" x="367" y="-1097.5" font-family="Helvetica,sans-Serif" font-size="10.00">+ GetByIndex()</text>
<text text-anchor="start" x="367" y="-1086.5" font-family="Helvetica,sans-Serif" font-size="10.00">+ GetByIndex()</text>
</a>
</g>
</g>
<!-- Node3&#45;&gt;Node9 -->
<g id="edge10" class="edge">
<title>Node3&#45;&gt;Node9</title>
<path fill="none" stroke="#404040" d="M463.29,-1261.34C460.08,-1255.28 457.12,-1249.16 454.5,-1243 452.11,-1237.4 450.1,-1231.47 448.41,-1225.42"/>
<polygon fill="none" stroke="#404040" points="448.39,-1225.34 443.07,-1220.46 445.53,-1213.68 450.84,-1218.56 448.39,-1225.34"/>
<text text-anchor="middle" x="468.5" y="-1235" font-family="Helvetica,sans-Serif" font-size="10.00"> &#45;Data</text>
</g>
<!-- Node11 -->
<g id="node11" class="node">
<title>Node11</title>
<g id="a_node11"><a xlink:href="../../d7/d85/classSDK_1_1UClass.html" target="_top" xlink:title=" ">
<polygon fill="white" stroke="black" points="491,-718.5 491,-808.5 612,-808.5 612,-718.5 491,-718.5"/>
<text text-anchor="middle" x="551.5" y="-796.5" font-family="Helvetica,sans-Serif" font-size="10.00">SDK::UClass</text>
<polyline fill="none" stroke="black" points="491,-789.5 612,-789.5 "/>
<text text-anchor="start" x="499" y="-777.5" font-family="Helvetica,sans-Serif" font-size="10.00">+ UnknownData00</text>
<text text-anchor="start" x="499" y="-766.5" font-family="Helvetica,sans-Serif" font-size="10.00">+ UnknownData01</text>
<polyline fill="none" stroke="black" points="491,-759.5 612,-759.5 "/>
<text text-anchor="start" x="499" y="-747.5" font-family="Helvetica,sans-Serif" font-size="10.00">+ CreateDefaultObject()</text>
<text text-anchor="start" x="499" y="-736.5" font-family="Helvetica,sans-Serif" font-size="10.00">+ CreateDefaultObject()</text>
<text text-anchor="start" x="499" y="-725.5" font-family="Helvetica,sans-Serif" font-size="10.00">+ StaticClass()</text>
</a>
</g>
</g>
<!-- Node3&#45;&gt;Node11 -->
<g id="edge20" class="edge">
<title>Node3&#45;&gt;Node11</title>
<path fill="none" stroke="#404040" d="M579.05,-1261.42C583.25,-1224.9 586.5,-1184.65 586.5,-1147.5 586.5,-1147.5 586.5,-1147.5 586.5,-874 586.5,-855.92 582.12,-836.92 576.45,-819.92"/>
<polygon fill="none" stroke="#404040" points="576.41,-819.81 570.62,-815.51 572.37,-808.51 578.15,-812.81 576.41,-819.81"/>
<text text-anchor="middle" x="634" y="-978.5" font-family="Helvetica,sans-Serif" font-size="10.00"> +ClassDefaultObject</text>
</g>
<!-- Node14 -->
<g id="node14" class="node">
<title>Node14</title>
<g id="a_node14"><a xlink:href="../../de/dd6/classSDK_1_1UField.html" target="_top" xlink:title=" ">
<polygon fill="white" stroke="black" points="665,-1118 665,-1175 748,-1175 748,-1118 665,-1118"/>
<text text-anchor="middle" x="706.5" y="-1163" font-family="Helvetica,sans-Serif" font-size="10.00">SDK::UField</text>
<polyline fill="none" stroke="black" points="665,-1156 748,-1156 "/>
<text text-anchor="middle" x="706.5" y="-1144" font-family="Helvetica,sans-Serif" font-size="10.00"> </text>
<polyline fill="none" stroke="black" points="665,-1137 748,-1137 "/>
<text text-anchor="start" x="673" y="-1125" font-family="Helvetica,sans-Serif" font-size="10.00">+ StaticClass()</text>
</a>
</g>
</g>
<!-- Node3&#45;&gt;Node14 -->
<g id="edge17" class="edge">
<title>Node3&#45;&gt;Node14</title>
<path fill="none" stroke="midnightblue" d="M641.25,-1252.52C659.45,-1223.24 676.99,-1195 689.3,-1175.19"/>
<polygon fill="none" stroke="midnightblue" points="638.16,-1250.87 635.85,-1261.21 644.1,-1254.57 638.16,-1250.87"/>
</g>
<!-- Node19 -->
<g id="node19" class="node">
<title>Node19</title>
<g id="a_node19"><a xlink:href="../../dc/dd6/structSDK_1_1FScriptDelegate.html" target="_top" xlink:title=" ">
<polygon fill="white" stroke="black" points="74.5,-1118 74.5,-1175 188.5,-1175 188.5,-1118 74.5,-1118"/>
<text text-anchor="middle" x="131.5" y="-1163" font-family="Helvetica,sans-Serif" font-size="10.00">SDK::FScriptDelegate</text>
<polyline fill="none" stroke="black" points="74.5,-1156 188.5,-1156 "/>
<text text-anchor="middle" x="131.5" y="-1144" font-family="Helvetica,sans-Serif" font-size="10.00"> </text>
<polyline fill="none" stroke="black" points="74.5,-1137 188.5,-1137 "/>
<text text-anchor="middle" x="131.5" y="-1125" font-family="Helvetica,sans-Serif" font-size="10.00"> </text>
</a>
</g>
</g>
<!-- Node3&#45;&gt;Node19 -->
<g id="edge31" class="edge">
<title>Node3&#45;&gt;Node19</title>
<path fill="none" stroke="#404040" d="M461.27,-1328.14C378.34,-1282.72 262.72,-1219.38 192.71,-1181.03"/>
<polygon fill="none" stroke="#404040" points="192.4,-1180.86 185.22,-1181.49 181.88,-1175.1 189.06,-1174.47 192.4,-1180.86"/>
<text text-anchor="middle" x="314.5" y="-1235" font-family="Helvetica,sans-Serif" font-size="10.00"> +Object</text>
</g>
<!-- Node4 -->
<g id="node4" class="node">
<title>Node4</title>
<g id="a_node4"><a xlink:href="../../d0/d22/structSDK_1_1FQWord.html" target="_top" xlink:title=" ">
<polygon fill="white" stroke="black" points="519.5,-1672 519.5,-1740 599.5,-1740 599.5,-1672 519.5,-1672"/>
<text text-anchor="middle" x="559.5" y="-1728" font-family="Helvetica,sans-Serif" font-size="10.00">SDK::FQWord</text>
<polyline fill="none" stroke="black" points="519.5,-1721 599.5,-1721 "/>
<text text-anchor="start" x="527.5" y="-1709" font-family="Helvetica,sans-Serif" font-size="10.00">+ A</text>
<text text-anchor="start" x="527.5" y="-1698" font-family="Helvetica,sans-Serif" font-size="10.00">+ B</text>
<polyline fill="none" stroke="black" points="519.5,-1691 599.5,-1691 "/>
<text text-anchor="middle" x="559.5" y="-1679" font-family="Helvetica,sans-Serif" font-size="10.00"> </text>
</a>
</g>
</g>
<!-- Node4&#45;&gt;Node3 -->
<g id="edge3" class="edge">
<title>Node4&#45;&gt;Node3</title>
<path fill="none" stroke="#404040" d="M559.6,-1671.91C559.72,-1635.48 559.91,-1574.57 560.08,-1518.19"/>
<polygon fill="none" stroke="#404040" points="560.08,-1517.86 556.1,-1511.85 560.12,-1505.86 564.1,-1511.87 560.08,-1517.86"/>
<text text-anchor="middle" x="591.5" y="-1572.5" font-family="Helvetica,sans-Serif" font-size="10.00"> +ObjectFlags</text>
</g>
<!-- Node5 -->
<g id="node5" class="node">
<title>Node5</title>
<g id="a_node5"><a xlink:href="../../d0/db6/structSDK_1_1FName.html" target="_top" xlink:title=" ">
<polygon fill="white" stroke="black" points="252,-1644.5 252,-1767.5 359,-1767.5 359,-1644.5 252,-1644.5"/>
<text text-anchor="middle" x="305.5" y="-1755.5" font-family="Helvetica,sans-Serif" font-size="10.00">SDK::FName</text>
<polyline fill="none" stroke="black" points="252,-1748.5 359,-1748.5 "/>
<text text-anchor="start" x="260" y="-1736.5" font-family="Helvetica,sans-Serif" font-size="10.00">+ Index</text>
<text text-anchor="start" x="260" y="-1725.5" font-family="Helvetica,sans-Serif" font-size="10.00">+ Number</text>
<polyline fill="none" stroke="black" points="252,-1718.5 359,-1718.5 "/>
<text text-anchor="start" x="260" y="-1706.5" font-family="Helvetica,sans-Serif" font-size="10.00">+ FName()</text>
<text text-anchor="start" x="260" y="-1695.5" font-family="Helvetica,sans-Serif" font-size="10.00">+ FName()</text>
<text text-anchor="start" x="260" y="-1684.5" font-family="Helvetica,sans-Serif" font-size="10.00">+ FName()</text>
<text text-anchor="start" x="260" y="-1673.5" font-family="Helvetica,sans-Serif" font-size="10.00">+ GetName()</text>
<text text-anchor="start" x="260" y="-1662.5" font-family="Helvetica,sans-Serif" font-size="10.00">+ operator==()</text>
<text text-anchor="start" x="260" y="-1651.5" font-family="Helvetica,sans-Serif" font-size="10.00">+ GetGlobalNames()</text>
</a>
</g>
</g>
<!-- Node5&#45;&gt;Node3 -->
<g id="edge4" class="edge">
<title>Node5&#45;&gt;Node3</title>
<path fill="none" stroke="#404040" d="M353.76,-1644.34C382.81,-1607.83 420.95,-1559.89 456.56,-1515.14"/>
<polygon fill="none" stroke="#404040" points="456.64,-1515.04 457.25,-1507.85 464.11,-1505.65 463.51,-1512.83 456.64,-1515.04"/>
<text text-anchor="middle" x="466.5" y="-1572.5" font-family="Helvetica,sans-Serif" font-size="10.00"> +Name</text>
</g>
<!-- Node16 -->
<g id="node16" class="node">
<title>Node16</title>
<g id="a_node16"><a xlink:href="../../d0/d8a/structSDK_1_1FGFxWidgetBinding.html" target="_top" xlink:title=" ">
<polygon fill="white" stroke="black" points="345,-613.5 345,-670.5 476,-670.5 476,-613.5 345,-613.5"/>
<text text-anchor="middle" x="410.5" y="-658.5" font-family="Helvetica,sans-Serif" font-size="10.00">SDK::FGFxWidgetBinding</text>
<polyline fill="none" stroke="black" points="345,-651.5 476,-651.5 "/>
<text text-anchor="middle" x="410.5" y="-639.5" font-family="Helvetica,sans-Serif" font-size="10.00"> </text>
<polyline fill="none" stroke="black" points="345,-632.5 476,-632.5 "/>
<text text-anchor="middle" x="410.5" y="-620.5" font-family="Helvetica,sans-Serif" font-size="10.00"> </text>
</a>
</g>
</g>
<!-- Node5&#45;&gt;Node16 -->
<g id="edge23" class="edge">
<title>Node5&#45;&gt;Node16</title>
<path fill="none" stroke="#404040" d="M309.83,-1644.46C321.8,-1476.51 354.5,-1014.89 354.5,-982 354.5,-982 354.5,-982 354.5,-762.5 354.5,-733.23 368.45,-703.41 382.42,-680.88"/>
<polygon fill="none" stroke="#404040" points="382.47,-680.81 382.38,-673.6 389.01,-670.75 389.09,-677.97 382.47,-680.81"/>
<text text-anchor="middle" x="388" y="-978.5" font-family="Helvetica,sans-Serif" font-size="10.00"> +WidgetName</text>
</g>
<!-- Node5&#45;&gt;Node19 -->
<g id="edge30" class="edge">
<title>Node5&#45;&gt;Node19</title>
<path fill="none" stroke="#404040" d="M284.42,-1644.21C270.95,-1604.9 253.28,-1552.56 238.5,-1506 201.85,-1390.55 161.82,-1253.07 142.78,-1186.91"/>
<polygon fill="none" stroke="#404040" points="142.68,-1186.57 137.18,-1181.91 139.36,-1175.03 144.87,-1179.7 142.68,-1186.57"/>
<text text-anchor="middle" x="275" y="-1381" font-family="Helvetica,sans-Serif" font-size="10.00"> +FunctionName</text>
</g>
<!-- Node6 -->
<g id="node6" class="node">
<title>Node6</title>
<g id="a_node6"><a xlink:href="../../d3/d79/classSDK_1_1TArray.html" target="_top" xlink:title=" ">
<polygon fill="white" stroke="black" points="201.5,-1821 201.5,-1955 381.5,-1955 381.5,-1821 201.5,-1821"/>
<text text-anchor="middle" x="291.5" y="-1943" font-family="Helvetica,sans-Serif" font-size="10.00">SDK::TArray&lt; SDK::FNameEntry * &gt;</text>
<polyline fill="none" stroke="black" points="201.5,-1936 381.5,-1936 "/>
<text text-anchor="start" x="209.5" y="-1924" font-family="Helvetica,sans-Serif" font-size="10.00">&#45; Count</text>
<text text-anchor="start" x="209.5" y="-1913" font-family="Helvetica,sans-Serif" font-size="10.00">&#45; Max</text>
<polyline fill="none" stroke="black" points="201.5,-1906 381.5,-1906 "/>
<text text-anchor="start" x="209.5" y="-1894" font-family="Helvetica,sans-Serif" font-size="10.00">+ TArray()</text>
<text text-anchor="start" x="209.5" y="-1883" font-family="Helvetica,sans-Serif" font-size="10.00">+ Num()</text>
<text text-anchor="start" x="209.5" y="-1872" font-family="Helvetica,sans-Serif" font-size="10.00">+ operator[]()</text>
<text text-anchor="start" x="209.5" y="-1861" font-family="Helvetica,sans-Serif" font-size="10.00">+ operator[]()</text>
<text text-anchor="start" x="209.5" y="-1850" font-family="Helvetica,sans-Serif" font-size="10.00">+ IsValidIndex()</text>
<text text-anchor="start" x="209.5" y="-1839" font-family="Helvetica,sans-Serif" font-size="10.00">+ GetByIndex()</text>
<text text-anchor="start" x="209.5" y="-1828" font-family="Helvetica,sans-Serif" font-size="10.00">+ GetByIndex()</text>
</a>
</g>
</g>
<!-- Node6&#45;&gt;Node5 -->
<g id="edge5" class="edge">
<title>Node6&#45;&gt;Node5</title>
<path fill="none" stroke="#404040" d="M296.63,-1821C297.67,-1807.63 298.77,-1793.5 299.83,-1779.91"/>
<polygon fill="none" stroke="#404040" points="299.85,-1779.59 296.33,-1773.29 300.78,-1767.62 304.31,-1773.91 299.85,-1779.59"/>
<text text-anchor="middle" x="324" y="-1789" font-family="Helvetica,sans-Serif" font-size="10.00"> +GNames</text>
</g>
<!-- Node7 -->
<g id="node7" class="node">
<title>Node7</title>
<g id="a_node7"><a xlink:href="../../d7/ddf/classSDK_1_1FNameEntry.html" target="_top" xlink:title=" ">
<polygon fill="white" stroke="black" points="81,-2047 81,-2115 180,-2115 180,-2047 81,-2047"/>
<text text-anchor="middle" x="130.5" y="-2103" font-family="Helvetica,sans-Serif" font-size="10.00">SDK::FNameEntry</text>
<polyline fill="none" stroke="black" points="81,-2096 180,-2096 "/>
<text text-anchor="start" x="89" y="-2084" font-family="Helvetica,sans-Serif" font-size="10.00">+ UnknownData00</text>
<text text-anchor="start" x="89" y="-2073" font-family="Helvetica,sans-Serif" font-size="10.00">+ name</text>
<polyline fill="none" stroke="black" points="81,-2066 180,-2066 "/>
<text text-anchor="start" x="89" y="-2054" font-family="Helvetica,sans-Serif" font-size="10.00">+ GetName()</text>
</a>
</g>
</g>
<!-- Node7&#45;&gt;Node6 -->
<g id="edge6" class="edge">
<title>Node7&#45;&gt;Node6</title>
<path fill="none" stroke="#404040" d="M158.54,-2046.73C177.73,-2023.97 203.96,-1992.86 228.05,-1964.28"/>
<polygon fill="none" stroke="#404040" points="228.05,-1964.27 228.86,-1957.11 235.78,-1955.1 234.97,-1962.26 228.05,-1964.27"/>
<text text-anchor="middle" x="225.5" y="-1982" font-family="Helvetica,sans-Serif" font-size="10.00"> &#45;Data</text>
</g>
<!-- Node8 -->
<g id="node8" class="node">
<title>Node8</title>
<g id="a_node8"><a xlink:href="../../d3/d79/classSDK_1_1TArray.html" target="_top" xlink:title=" ">
<polygon fill="white" stroke="black" points="298,-2008.5 298,-2153.5 395,-2153.5 395,-2008.5 298,-2008.5"/>
<text text-anchor="middle" x="346.5" y="-2141.5" font-family="Helvetica,sans-Serif" font-size="10.00">SDK::TArray&lt; T &gt;</text>
<polyline fill="none" stroke="black" points="298,-2134.5 395,-2134.5 "/>
<text text-anchor="start" x="306" y="-2122.5" font-family="Helvetica,sans-Serif" font-size="10.00">&#45; Data</text>
<text text-anchor="start" x="306" y="-2111.5" font-family="Helvetica,sans-Serif" font-size="10.00">&#45; Count</text>
<text text-anchor="start" x="306" y="-2100.5" font-family="Helvetica,sans-Serif" font-size="10.00">&#45; Max</text>
<polyline fill="none" stroke="black" points="298,-2093.5 395,-2093.5 "/>
<text text-anchor="start" x="306" y="-2081.5" font-family="Helvetica,sans-Serif" font-size="10.00">+ TArray()</text>
<text text-anchor="start" x="306" y="-2070.5" font-family="Helvetica,sans-Serif" font-size="10.00">+ Num()</text>
<text text-anchor="start" x="306" y="-2059.5" font-family="Helvetica,sans-Serif" font-size="10.00">+ operator[]()</text>
<text text-anchor="start" x="306" y="-2048.5" font-family="Helvetica,sans-Serif" font-size="10.00">+ operator[]()</text>
<text text-anchor="start" x="306" y="-2037.5" font-family="Helvetica,sans-Serif" font-size="10.00">+ IsValidIndex()</text>
<text text-anchor="start" x="306" y="-2026.5" font-family="Helvetica,sans-Serif" font-size="10.00">+ GetByIndex()</text>
<text text-anchor="start" x="306" y="-2015.5" font-family="Helvetica,sans-Serif" font-size="10.00">+ GetByIndex()</text>
</a>
</g>
</g>
<!-- Node8&#45;&gt;Node6 -->
<g id="edge7" class="edge">
<title>Node8&#45;&gt;Node6</title>
<path fill="none" stroke="orange" d="M292.98,-2010.6C289.59,-2003.89 286.67,-1996.98 284.5,-1990 281.05,-1978.92 279.85,-1966.84 279.96,-1955.02"/>
<polygon fill="orange" stroke="orange" points="290.03,-2012.5 297.88,-2019.61 296.18,-2009.16 290.03,-2012.5"/>
<text text-anchor="middle" x="340" y="-1982" font-family="Helvetica,sans-Serif" font-size="10.00"> &lt; SDK::FNameEntry * &gt;</text>
</g>
<!-- Node8&#45;&gt;Node9 -->
<g id="edge11" class="edge">
<title>Node8&#45;&gt;Node9</title>
<path fill="none" stroke="orange" d="M392.9,-1998.9C393.87,-1995.94 394.75,-1992.96 395.5,-1990 421.05,-1889.65 401.19,-1627.4 395.5,-1524 388.6,-1398.54 371.4,-1368.46 364.5,-1243 364.23,-1238.12 362.76,-1236.57 364.5,-1232 366.9,-1225.67 370.02,-1219.52 373.62,-1213.6"/>
<polygon fill="orange" stroke="orange" points="389.59,-1997.74 389.47,-2008.33 396.17,-2000.13 389.59,-1997.74"/>
<text text-anchor="middle" x="453" y="-1703.5" font-family="Helvetica,sans-Serif" font-size="10.00"> &lt; SDK::UObject * &gt;</text>
</g>
<!-- Node15 -->
<g id="node15" class="node">
<title>Node15</title>
<g id="a_node15"><a xlink:href="../../d3/d79/classSDK_1_1TArray.html" target="_top" xlink:title=" ">
<polygon fill="white" stroke="black" points="339,-420.5 339,-565.5 482,-565.5 482,-420.5 339,-420.5"/>
<text text-anchor="start" x="347" y="-553.5" font-family="Helvetica,sans-Serif" font-size="10.00">SDK::TArray&lt; struct</text>
<text text-anchor="middle" x="410.5" y="-542.5" font-family="Helvetica,sans-Serif" font-size="10.00"> SDK::FGFxWidgetBinding &gt;</text>
<polyline fill="none" stroke="black" points="339,-535.5 482,-535.5 "/>
<text text-anchor="start" x="347" y="-523.5" font-family="Helvetica,sans-Serif" font-size="10.00">&#45; Count</text>
<text text-anchor="start" x="347" y="-512.5" font-family="Helvetica,sans-Serif" font-size="10.00">&#45; Max</text>
<polyline fill="none" stroke="black" points="339,-505.5 482,-505.5 "/>
<text text-anchor="start" x="347" y="-493.5" font-family="Helvetica,sans-Serif" font-size="10.00">+ TArray()</text>
<text text-anchor="start" x="347" y="-482.5" font-family="Helvetica,sans-Serif" font-size="10.00">+ Num()</text>
<text text-anchor="start" x="347" y="-471.5" font-family="Helvetica,sans-Serif" font-size="10.00">+ operator[]()</text>
<text text-anchor="start" x="347" y="-460.5" font-family="Helvetica,sans-Serif" font-size="10.00">+ operator[]()</text>
<text text-anchor="start" x="347" y="-449.5" font-family="Helvetica,sans-Serif" font-size="10.00">+ IsValidIndex()</text>
<text text-anchor="start" x="347" y="-438.5" font-family="Helvetica,sans-Serif" font-size="10.00">+ GetByIndex()</text>
<text text-anchor="start" x="347" y="-427.5" font-family="Helvetica,sans-Serif" font-size="10.00">+ GetByIndex()</text>
</a>
</g>
</g>
<!-- Node8&#45;&gt;Node15 -->
<g id="edge25" class="edge">
<title>Node8&#45;&gt;Node15</title>
<path fill="none" stroke="orange" d="M289.21,-2048.67C256.32,-2027.89 216.84,-1997.71 192.5,-1961 174.21,-1933.42 173.5,-1922.1 173.5,-1889 173.5,-1889 173.5,-1889 173.5,-1574 173.5,-1434.75 167.05,-1398.74 187.5,-1261 195.15,-1209.5 216.5,-1199.57 216.5,-1147.5 216.5,-1147.5 216.5,-1147.5 216.5,-641 216.5,-577.4 283.55,-537.78 338.81,-515.92"/>
<polygon fill="orange" stroke="orange" points="287.51,-2051.73 297.85,-2054.01 291.19,-2045.78 287.51,-2051.73"/>
<text text-anchor="start" x="216.5" y="-1053" font-family="Helvetica,sans-Serif" font-size="10.00"> &lt; struct SDK::FGFxWidget</text>
<text text-anchor="middle" x="278" y="-1042" font-family="Helvetica,sans-Serif" font-size="10.00">Binding &gt;</text>
</g>
<!-- Node18 -->
<g id="node18" class="node">
<title>Node18</title>
<g id="a_node18"><a xlink:href="../../d3/d79/classSDK_1_1TArray.html" target="_top" xlink:title=" ">
<polygon fill="white" stroke="black" points="626,-1815.5 626,-1960.5 751,-1960.5 751,-1815.5 626,-1815.5"/>
<text text-anchor="middle" x="688.5" y="-1948.5" font-family="Helvetica,sans-Serif" font-size="10.00">SDK::TArray&lt; wchar_t &gt;</text>
<polyline fill="none" stroke="black" points="626,-1941.5 751,-1941.5 "/>
<text text-anchor="start" x="634" y="-1929.5" font-family="Helvetica,sans-Serif" font-size="10.00">&#45; Data</text>
<text text-anchor="start" x="634" y="-1918.5" font-family="Helvetica,sans-Serif" font-size="10.00">&#45; Count</text>
<text text-anchor="start" x="634" y="-1907.5" font-family="Helvetica,sans-Serif" font-size="10.00">&#45; Max</text>
<polyline fill="none" stroke="black" points="626,-1900.5 751,-1900.5 "/>
<text text-anchor="start" x="634" y="-1888.5" font-family="Helvetica,sans-Serif" font-size="10.00">+ TArray()</text>
<text text-anchor="start" x="634" y="-1877.5" font-family="Helvetica,sans-Serif" font-size="10.00">+ Num()</text>
<text text-anchor="start" x="634" y="-1866.5" font-family="Helvetica,sans-Serif" font-size="10.00">+ operator[]()</text>
<text text-anchor="start" x="634" y="-1855.5" font-family="Helvetica,sans-Serif" font-size="10.00">+ operator[]()</text>
<text text-anchor="start" x="634" y="-1844.5" font-family="Helvetica,sans-Serif" font-size="10.00">+ IsValidIndex()</text>
<text text-anchor="start" x="634" y="-1833.5" font-family="Helvetica,sans-Serif" font-size="10.00">+ GetByIndex()</text>
<text text-anchor="start" x="634" y="-1822.5" font-family="Helvetica,sans-Serif" font-size="10.00">+ GetByIndex()</text>
</a>
</g>
</g>
<!-- Node8&#45;&gt;Node18 -->
<g id="edge28" class="edge">
<title>Node8&#45;&gt;Node18</title>
<path fill="none" stroke="orange" d="M403.93,-2047.93C465.35,-2013.63 562.44,-1959.4 625.81,-1924.01"/>
<polygon fill="orange" stroke="orange" points="402.16,-2044.91 395.14,-2052.84 405.57,-2051.02 402.16,-2044.91"/>
<text text-anchor="middle" x="545.5" y="-1982" font-family="Helvetica,sans-Serif" font-size="10.00"> &lt; wchar_t &gt;</text>
</g>
<!-- Node9&#45;&gt;Node3 -->
<g id="edge9" class="edge">
<title>Node9&#45;&gt;Node3</title>
<path fill="none" stroke="#404040" d="M473.55,-1213.63C479.55,-1225.28 485.98,-1237.77 492.53,-1250.49"/>
<polygon fill="none" stroke="#404040" points="492.56,-1250.55 498.86,-1254.05 498.05,-1261.21 491.75,-1257.71 492.56,-1250.55"/>
<text text-anchor="middle" x="512" y="-1235" font-family="Helvetica,sans-Serif" font-size="10.00"> +GObjects</text>
</g>
<!-- Node10 -->
<g id="node10" class="node">
<title>Node10</title>
<g id="a_node10"><a xlink:href="../../d9/dfa/structSDK_1_1FPointer.html" target="_top" xlink:title=" ">
<polygon fill="white" stroke="black" points="617.5,-1672 617.5,-1740 715.5,-1740 715.5,-1672 617.5,-1672"/>
<text text-anchor="middle" x="666.5" y="-1728" font-family="Helvetica,sans-Serif" font-size="10.00">SDK::FPointer</text>
<polyline fill="none" stroke="black" points="617.5,-1721 715.5,-1721 "/>
<text text-anchor="start" x="625.5" y="-1709" font-family="Helvetica,sans-Serif" font-size="10.00">+ Dummy</text>
<text text-anchor="start" x="625.5" y="-1698" font-family="Helvetica,sans-Serif" font-size="10.00">+ UnknownData00</text>
<polyline fill="none" stroke="black" points="617.5,-1691 715.5,-1691 "/>
<text text-anchor="middle" x="666.5" y="-1679" font-family="Helvetica,sans-Serif" font-size="10.00"> </text>
</a>
</g>
</g>
<!-- Node10&#45;&gt;Node3 -->
<g id="edge12" class="edge">
<title>Node10&#45;&gt;Node3</title>
<path fill="none" stroke="#404040" d="M661.45,-1671.69C655.34,-1634.91 643.69,-1574.24 626.5,-1524 625.69,-1521.62 624.84,-1519.23 623.98,-1516.84"/>
<polygon fill="none" stroke="#404040" points="623.96,-1516.79 618.11,-1512.59 619.74,-1505.56 625.59,-1509.77 623.96,-1516.79"/>
<text text-anchor="middle" x="687" y="-1583.5" font-family="Helvetica,sans-Serif" font-size="10.00"> +StateFrame</text>
<text text-anchor="middle" x="687" y="-1572.5" font-family="Helvetica,sans-Serif" font-size="10.00">+VfTableObject</text>
<text text-anchor="middle" x="687" y="-1561.5" font-family="Helvetica,sans-Serif" font-size="10.00">+LinkerIndex</text>
</g>
<!-- Node11&#45;&gt;Node3 -->
<g id="edge13" class="edge">
<title>Node11&#45;&gt;Node3</title>
<path fill="none" stroke="#404040" d="M544.46,-808.6C539.15,-844.22 532.31,-895.69 529.5,-941 527.3,-976.49 527.98,-985.48 529.5,-1021 532.74,-1096.69 539.78,-1181.06 546.33,-1249.24"/>
<polygon fill="none" stroke="#404040" points="546.35,-1249.4 550.91,-1254.98 547.5,-1261.34 542.94,-1255.76 546.35,-1249.4"/>
<text text-anchor="middle" x="547" y="-978.5" font-family="Helvetica,sans-Serif" font-size="10.00"> +Class</text>
</g>
<!-- Node11&#45;&gt;Node16 -->
<g id="edge24" class="edge">
<title>Node11&#45;&gt;Node16</title>
<path fill="none" stroke="#404040" d="M499.4,-718.34C483.95,-705.25 467.24,-691.09 452.52,-678.61"/>
<polygon fill="none" stroke="#404040" points="452.32,-678.45 445.16,-677.62 443.17,-670.69 450.33,-671.52 452.32,-678.45"/>
<text text-anchor="middle" x="510.5" y="-692" font-family="Helvetica,sans-Serif" font-size="10.00"> +WidgetClass</text>
</g>
<!-- Node12 -->
<g id="node12" class="node">
<title>Node12</title>
<g id="a_node12"><a xlink:href="../../df/d72/classSDK_1_1UState.html" target="_top" xlink:title=" ">
<polygon fill="white" stroke="black" points="648.5,-846.5 648.5,-903.5 746.5,-903.5 746.5,-846.5 648.5,-846.5"/>
<text text-anchor="middle" x="697.5" y="-891.5" font-family="Helvetica,sans-Serif" font-size="10.00">SDK::UState</text>
<polyline fill="none" stroke="black" points="648.5,-884.5 746.5,-884.5 "/>
<text text-anchor="start" x="656.5" y="-872.5" font-family="Helvetica,sans-Serif" font-size="10.00">+ UnknownData00</text>
<polyline fill="none" stroke="black" points="648.5,-865.5 746.5,-865.5 "/>
<text text-anchor="start" x="656.5" y="-853.5" font-family="Helvetica,sans-Serif" font-size="10.00">+ StaticClass()</text>
</a>
</g>
</g>
<!-- Node12&#45;&gt;Node11 -->
<g id="edge14" class="edge">
<title>Node12&#45;&gt;Node11</title>
<path fill="none" stroke="midnightblue" d="M652.54,-840.28C639.17,-830.25 624.32,-819.11 610.21,-808.53"/>
<polygon fill="none" stroke="midnightblue" points="650.56,-843.17 660.66,-846.37 654.76,-837.57 650.56,-843.17"/>
</g>
<!-- Node13 -->
<g id="node13" class="node">
<title>Node13</title>
<g id="a_node13"><a xlink:href="../../d8/de9/classSDK_1_1UStruct.html" target="_top" xlink:title=" ">
<polygon fill="white" stroke="black" points="699.5,-941.5 699.5,-1020.5 797.5,-1020.5 797.5,-941.5 699.5,-941.5"/>
<text text-anchor="middle" x="748.5" y="-1008.5" font-family="Helvetica,sans-Serif" font-size="10.00">SDK::UStruct</text>
<polyline fill="none" stroke="black" points="699.5,-1001.5 797.5,-1001.5 "/>
<text text-anchor="start" x="707.5" y="-989.5" font-family="Helvetica,sans-Serif" font-size="10.00">+ UnknownData00</text>
<text text-anchor="start" x="707.5" y="-978.5" font-family="Helvetica,sans-Serif" font-size="10.00">+ PropertySize</text>
<text text-anchor="start" x="707.5" y="-967.5" font-family="Helvetica,sans-Serif" font-size="10.00">+ UnknownData01</text>
<polyline fill="none" stroke="black" points="699.5,-960.5 797.5,-960.5 "/>
<text text-anchor="start" x="707.5" y="-948.5" font-family="Helvetica,sans-Serif" font-size="10.00">+ StaticClass()</text>
</a>
</g>
</g>
<!-- Node13&#45;&gt;Node12 -->
<g id="edge15" class="edge">
<title>Node13&#45;&gt;Node12</title>
<path fill="none" stroke="midnightblue" d="M724.99,-932.06C720.23,-922.35 715.37,-912.44 711.09,-903.72"/>
<polygon fill="none" stroke="midnightblue" points="721.96,-933.84 729.51,-941.27 728.25,-930.75 721.96,-933.84"/>
</g>
<!-- Node14&#45;&gt;Node13 -->
<g id="edge16" class="edge">
<title>Node14&#45;&gt;Node13</title>
<path fill="none" stroke="midnightblue" d="M710.68,-1108.01C713.52,-1087.38 717.96,-1061.49 724.5,-1039 726.27,-1032.92 728.5,-1026.61 730.88,-1020.51"/>
<polygon fill="none" stroke="midnightblue" points="707.21,-1107.6 709.38,-1117.97 714.15,-1108.51 707.21,-1107.6"/>
</g>
<!-- Node14&#45;&gt;Node13 -->
<g id="edge19" class="edge">
<title>Node14&#45;&gt;Node13</title>
<path fill="none" stroke="#404040" d="M713.62,-1117.76C719.62,-1094.41 728.36,-1060.4 735.59,-1032.27"/>
<polygon fill="none" stroke="#404040" points="735.59,-1032.24 733.21,-1025.43 738.58,-1020.62 740.96,-1027.42 735.59,-1032.24"/>
<text text-anchor="middle" x="761.5" y="-1053" font-family="Helvetica,sans-Serif" font-size="10.00"> +SuperField</text>
<text text-anchor="middle" x="761.5" y="-1042" font-family="Helvetica,sans-Serif" font-size="10.00">+Children</text>
</g>
<!-- Node14&#45;&gt;Node14 -->
<g id="edge18" class="edge">
<title>Node14&#45;&gt;Node14</title>
<path fill="none" stroke="#404040" d="M748.21,-1163.11C758.41,-1161.88 766,-1156.34 766,-1146.5 766,-1140.96 763.6,-1136.79 759.68,-1133.98"/>
<polygon fill="none" stroke="#404040" points="759.51,-1133.92 752.51,-1135.67 748.21,-1129.89 755.2,-1128.13 759.51,-1133.92"/>
<text text-anchor="middle" x="781.5" y="-1144" font-family="Helvetica,sans-Serif" font-size="10.00"> +Next</text>
</g>
<!-- Node15&#45;&gt;Node2 -->
<g id="edge21" class="edge">
<title>Node15&#45;&gt;Node2</title>
<path fill="none" stroke="#404040" d="M482.3,-438.53C521.75,-409.15 570.9,-372.54 612.16,-341.81"/>
<polygon fill="none" stroke="#404040" points="612.3,-341.71 614.72,-334.92 621.92,-334.54 619.5,-341.33 612.3,-341.71"/>
<text text-anchor="middle" x="593" y="-394" font-family="Helvetica,sans-Serif" font-size="10.00"> +SubWidgetBindings</text>
</g>
<!-- Node16&#45;&gt;Node15 -->
<g id="edge22" class="edge">
<title>Node16&#45;&gt;Node15</title>
<path fill="none" stroke="#404040" d="M410.5,-613.35C410.5,-603.01 410.5,-590.66 410.5,-577.89"/>
<polygon fill="none" stroke="#404040" points="410.5,-577.56 406.5,-571.56 410.5,-565.56 414.5,-571.56 410.5,-577.56"/>
<text text-anchor="middle" x="424.5" y="-587" font-family="Helvetica,sans-Serif" font-size="10.00"> &#45;Data</text>
</g>
<!-- Node17 -->
<g id="node17" class="node">
<title>Node17</title>
<g id="a_node17"><a xlink:href="../../d3/d88/classSDK_1_1FString.html" target="_top" xlink:title=" ">
<polygon fill="white" stroke="black" points="788,-1524.5 788,-1625.5 863,-1625.5 863,-1524.5 788,-1524.5"/>
<text text-anchor="middle" x="825.5" y="-1613.5" font-family="Helvetica,sans-Serif" font-size="10.00">SDK::FString</text>
<polyline fill="none" stroke="black" points="788,-1606.5 863,-1606.5 "/>
<text text-anchor="middle" x="825.5" y="-1594.5" font-family="Helvetica,sans-Serif" font-size="10.00"> </text>
<polyline fill="none" stroke="black" points="788,-1587.5 863,-1587.5 "/>
<text text-anchor="start" x="796" y="-1575.5" font-family="Helvetica,sans-Serif" font-size="10.00">+ FString()</text>
<text text-anchor="start" x="796" y="-1564.5" font-family="Helvetica,sans-Serif" font-size="10.00">+ FString()</text>
<text text-anchor="start" x="796" y="-1553.5" font-family="Helvetica,sans-Serif" font-size="10.00">+ IsValid()</text>
<text text-anchor="start" x="796" y="-1542.5" font-family="Helvetica,sans-Serif" font-size="10.00">+ c_str()</text>
<text text-anchor="start" x="796" y="-1531.5" font-family="Helvetica,sans-Serif" font-size="10.00">+ ToString()</text>
</a>
</g>
</g>
<!-- Node17&#45;&gt;Node2 -->
<g id="edge26" class="edge">
<title>Node17&#45;&gt;Node2</title>
<path fill="none" stroke="#404040" d="M836.64,-1524.27C850.25,-1459.03 871.5,-1340.8 871.5,-1238.5 871.5,-1238.5 871.5,-1238.5 871.5,-492 871.5,-429.22 825.56,-374.86 780.75,-336.76"/>
<polygon fill="none" stroke="#404040" points="780.47,-336.53 773.3,-335.79 771.22,-328.89 778.4,-329.63 780.47,-336.53"/>
<text text-anchor="middle" x="894.5" y="-872.5" font-family="Helvetica,sans-Serif" font-size="10.00"> +PathInfo</text>
</g>
<!-- Node18&#45;&gt;Node17 -->
<g id="edge27" class="edge">
<title>Node18&#45;&gt;Node17</title>
<path fill="none" stroke="midnightblue" d="M724.23,-1805.89C749.4,-1748.74 782.3,-1674.07 803.66,-1625.58"/>
<polygon fill="none" stroke="midnightblue" points="720.93,-1804.7 720.1,-1815.26 727.34,-1807.52 720.93,-1804.7"/>
</g>
<!-- Node19&#45;&gt;Node1 -->
<g id="edge29" class="edge">
<title>Node19&#45;&gt;Node1</title>
<path fill="none" stroke="#404040" d="M114.63,-1117.98C96.88,-1086.36 71.5,-1032.34 71.5,-982 71.5,-982 71.5,-982 71.5,-277 71.5,-237.83 73.75,-194.48 76.31,-157.93"/>
<polygon fill="none" stroke="#404040" points="76.32,-157.78 72.76,-151.51 77.18,-145.81 80.74,-152.08 76.32,-157.78"/>
<text text-anchor="middle" x="136.5" y="-692" font-family="Helvetica,sans-Serif" font-size="10.00"> +__EventListener__Delegate</text>
</g>
</g>
</svg>
