<?xml version="1.0" encoding="UTF-8" standalone="no"?>
<!DOCTYPE svg PUBLIC "-//W3C//DTD SVG 1.1//EN"
 "http://www.w3.org/Graphics/SVG/1.1/DTD/svg11.dtd">
<!-- Generated by graphviz version 2.41.20171026.1811 (20171026.1811)
 -->
<!-- Title: SDK::FPlatformInterfaceData Pages: 1 -->
<!--zoomable 1444 -->
<svg id="main" version="1.1" xmlns="http://www.w3.org/2000/svg" xmlns:xlink="http://www.w3.org/1999/xlink" xml:space="preserve" onload="init(evt)">
<style type="text/css"><![CDATA[
.edge:hover path { stroke: red; }
.edge:hover polygon { stroke: red; fill: red; }
]]></style>
<script type="text/javascript"><![CDATA[
var edges = document.getElementsByTagName('g');
if (edges && edges.length) {
  for (var i=0;i<edges.length;i++) {
    if (edges[i].id.substr(0,4)=='edge') {
      edges[i].setAttribute('class','edge');
    }
  }
}
]]></script>
        <defs>
                <circle id="rim" cx="0" cy="0" r="7"/>
                <circle id="rim2" cx="0" cy="0" r="3.5"/>
                <g id="zoomPlus">
                        <use xlink:href="#rim" fill="#404040">
                                <set attributeName="fill" to="#808080" begin="zoomplus.mouseover" end="zoomplus.mouseout"/>
                        </use>
                        <path d="M-4,0h8M0,-4v8" fill="none" stroke="white" stroke-width="1.5" pointer-events="none"/>
                </g>
                <g id="zoomMin">
                        <use xlink:href="#rim" fill="#404040">
                                <set attributeName="fill" to="#808080" begin="zoomminus.mouseover" end="zoomminus.mouseout"/>
                        </use>
                        <path d="M-4,0h8" fill="none" stroke="white" stroke-width="1.5" pointer-events="none"/>
                </g>
                <g id="dirArrow">
                        <path fill="none" stroke="white" stroke-width="1.5" d="M0,-3.0v7 M-2.5,-0.5L0,-3.0L2.5,-0.5"/>
                </g>
               <g id="resetDef">
                       <use xlink:href="#rim2" fill="#404040">
                               <set attributeName="fill" to="#808080" begin="reset.mouseover" end="reset.mouseout"/>
                       </use>
               </g>
        </defs>

<script type="text/javascript">
var viewWidth = 803;
var viewHeight = 1444;
var sectionId = 'dynsection-0';
</script>
<script xlink:href="../../svgpan.js"/>
<svg id="graph" class="graph">
<g id="viewport">
<title>SDK::FPlatformInterfaceData</title>
<polygon fill="white" stroke="transparent" points="-4,4 -4,-1440 798.5,-1440 798.5,4 -4,4"/>
<!-- Node1 -->
<g id="node1" class="node">
<title>Node1</title>
<g id="a_node1"><a xlink:title=" ">
<polygon fill="#bfbfbf" stroke="black" points="129.5,-389 129.5,-468 275.5,-468 275.5,-389 129.5,-389"/>
<text text-anchor="middle" x="202.5" y="-456" font-family="Helvetica,sans-Serif" font-size="10.00">SDK::FPlatformInterfaceData</text>
<polyline fill="none" stroke="black" points="129.5,-449 275.5,-449 "/>
<text text-anchor="start" x="137.5" y="-437" font-family="Helvetica,sans-Serif" font-size="10.00">+ UnknownData00</text>
<text text-anchor="start" x="137.5" y="-426" font-family="Helvetica,sans-Serif" font-size="10.00">+ IntValue</text>
<text text-anchor="start" x="137.5" y="-415" font-family="Helvetica,sans-Serif" font-size="10.00">+ FloatValue</text>
<polyline fill="none" stroke="black" points="129.5,-408 275.5,-408 "/>
<text text-anchor="middle" x="202.5" y="-396" font-family="Helvetica,sans-Serif" font-size="10.00"> </text>
</a>
</g>
</g>
<!-- Node2 -->
<g id="node2" class="node">
<title>Node2</title>
<g id="a_node2"><a xlink:href="../../d9/d45/classSDK_1_1UObject.html" target="_top" xlink:title=" ">
<polygon fill="white" stroke="black" points="380.5,-543.5 380.5,-787.5 578.5,-787.5 578.5,-543.5 380.5,-543.5"/>
<text text-anchor="middle" x="479.5" y="-775.5" font-family="Helvetica,sans-Serif" font-size="10.00">SDK::UObject</text>
<polyline fill="none" stroke="black" points="380.5,-768.5 578.5,-768.5 "/>
<text text-anchor="start" x="388.5" y="-756.5" font-family="Helvetica,sans-Serif" font-size="10.00">+ ObjectInternalInteger</text>
<text text-anchor="start" x="388.5" y="-745.5" font-family="Helvetica,sans-Serif" font-size="10.00">+ NetIndex</text>
<polyline fill="none" stroke="black" points="380.5,-738.5 578.5,-738.5 "/>
<text text-anchor="start" x="388.5" y="-726.5" font-family="Helvetica,sans-Serif" font-size="10.00">+ UObject::GetName()</text>
<text text-anchor="start" x="388.5" y="-715.5" font-family="Helvetica,sans-Serif" font-size="10.00">+ GetFullName()</text>
<text text-anchor="start" x="388.5" y="-704.5" font-family="Helvetica,sans-Serif" font-size="10.00">+ IsA()</text>
<text text-anchor="start" x="388.5" y="-693.5" font-family="Helvetica,sans-Serif" font-size="10.00">+ ProcessEvent()</text>
<text text-anchor="start" x="388.5" y="-682.5" font-family="Helvetica,sans-Serif" font-size="10.00">+ STATIC_ProfNodeEvent()</text>
<text text-anchor="start" x="388.5" y="-671.5" font-family="Helvetica,sans-Serif" font-size="10.00">+ STATIC_ProfNodeSetDepthThreshold()</text>
<text text-anchor="start" x="388.5" y="-660.5" font-family="Helvetica,sans-Serif" font-size="10.00">+ STATIC_ProfNodeSetTimeThreshold</text>
<text text-anchor="start" x="388.5" y="-649.5" font-family="Helvetica,sans-Serif" font-size="10.00">Seconds()</text>
<text text-anchor="start" x="388.5" y="-638.5" font-family="Helvetica,sans-Serif" font-size="10.00">+ STATIC_ProfNodeStop()</text>
<text text-anchor="start" x="388.5" y="-627.5" font-family="Helvetica,sans-Serif" font-size="10.00">+ STATIC_ProfNodeStart()</text>
<text text-anchor="start" x="388.5" y="-616.5" font-family="Helvetica,sans-Serif" font-size="10.00">+ STATIC_GetStringFromGuid()</text>
<text text-anchor="start" x="388.5" y="-605.5" font-family="Helvetica,sans-Serif" font-size="10.00">and 298 more...</text>
<text text-anchor="start" x="388.5" y="-594.5" font-family="Helvetica,sans-Serif" font-size="10.00">+ GetGlobalObjects()</text>
<text text-anchor="start" x="388.5" y="-583.5" font-family="Helvetica,sans-Serif" font-size="10.00">+ FindObject()</text>
<text text-anchor="start" x="388.5" y="-572.5" font-family="Helvetica,sans-Serif" font-size="10.00">+ FindClass()</text>
<text text-anchor="start" x="388.5" y="-561.5" font-family="Helvetica,sans-Serif" font-size="10.00">+ GetObjectCasted()</text>
<text text-anchor="start" x="388.5" y="-550.5" font-family="Helvetica,sans-Serif" font-size="10.00">+ StaticClass()</text>
</a>
</g>
</g>
<!-- Node2&#45;&gt;Node1 -->
<g id="edge1" class="edge">
<title>Node2&#45;&gt;Node1</title>
<path fill="none" stroke="#404040" d="M380.32,-555.21C375.73,-551 371.11,-546.91 366.5,-543 337.63,-518.53 326.67,-517.45 295.5,-496 285.81,-489.33 275.63,-482.19 265.69,-475.15"/>
<polygon fill="none" stroke="#404040" points="265.65,-475.12 258.44,-474.9 255.87,-468.16 263.08,-468.38 265.65,-475.12"/>
<text text-anchor="middle" x="373" y="-517" font-family="Helvetica,sans-Serif" font-size="10.00"> +ObjectValue</text>
</g>
<!-- Node2&#45;&gt;Node2 -->
<g id="edge7" class="edge">
<title>Node2&#45;&gt;Node2</title>
<path fill="none" stroke="#404040" d="M578.51,-688.53C589.44,-684.15 596.5,-676.48 596.5,-665.5 596.5,-658.64 593.74,-653.07 589.01,-648.78"/>
<polygon fill="none" stroke="#404040" points="588.8,-648.66 581.59,-648.99 578.51,-642.47 585.72,-642.14 588.8,-648.66"/>
<text text-anchor="middle" x="636" y="-674" font-family="Helvetica,sans-Serif" font-size="10.00"> +Outer</text>
<text text-anchor="middle" x="636" y="-663" font-family="Helvetica,sans-Serif" font-size="10.00">+Linker</text>
<text text-anchor="middle" x="636" y="-652" font-family="Helvetica,sans-Serif" font-size="10.00">+ObjectArchetype</text>
</g>
<!-- Node8 -->
<g id="node8" class="node">
<title>Node8</title>
<g id="a_node8"><a xlink:href="../../d3/d79/classSDK_1_1TArray.html" target="_top" xlink:title=" ">
<polygon fill="white" stroke="black" points="564,-361.5 564,-495.5 725,-495.5 725,-361.5 564,-361.5"/>
<text text-anchor="middle" x="644.5" y="-483.5" font-family="Helvetica,sans-Serif" font-size="10.00">SDK::TArray&lt; SDK::UObject * &gt;</text>
<polyline fill="none" stroke="black" points="564,-476.5 725,-476.5 "/>
<text text-anchor="start" x="572" y="-464.5" font-family="Helvetica,sans-Serif" font-size="10.00">&#45; Count</text>
<text text-anchor="start" x="572" y="-453.5" font-family="Helvetica,sans-Serif" font-size="10.00">&#45; Max</text>
<polyline fill="none" stroke="black" points="564,-446.5 725,-446.5 "/>
<text text-anchor="start" x="572" y="-434.5" font-family="Helvetica,sans-Serif" font-size="10.00">+ TArray()</text>
<text text-anchor="start" x="572" y="-423.5" font-family="Helvetica,sans-Serif" font-size="10.00">+ Num()</text>
<text text-anchor="start" x="572" y="-412.5" font-family="Helvetica,sans-Serif" font-size="10.00">+ operator[]()</text>
<text text-anchor="start" x="572" y="-401.5" font-family="Helvetica,sans-Serif" font-size="10.00">+ operator[]()</text>
<text text-anchor="start" x="572" y="-390.5" font-family="Helvetica,sans-Serif" font-size="10.00">+ IsValidIndex()</text>
<text text-anchor="start" x="572" y="-379.5" font-family="Helvetica,sans-Serif" font-size="10.00">+ GetByIndex()</text>
<text text-anchor="start" x="572" y="-368.5" font-family="Helvetica,sans-Serif" font-size="10.00">+ GetByIndex()</text>
</a>
</g>
</g>
<!-- Node2&#45;&gt;Node8 -->
<g id="edge9" class="edge">
<title>Node2&#45;&gt;Node8</title>
<path fill="none" stroke="#404040" d="M555.04,-543.32C561.81,-533.3 568.69,-523.42 575.5,-514 577.53,-511.19 579.62,-508.36 581.76,-505.51"/>
<polygon fill="none" stroke="#404040" points="581.87,-505.36 582.33,-498.16 589.15,-495.81 588.69,-503.01 581.87,-505.36"/>
<text text-anchor="middle" x="589.5" y="-517" font-family="Helvetica,sans-Serif" font-size="10.00"> &#45;Data</text>
</g>
<!-- Node10 -->
<g id="node10" class="node">
<title>Node10</title>
<g id="a_node10"><a xlink:href="../../d7/d85/classSDK_1_1UClass.html" target="_top" xlink:title=" ">
<polygon fill="white" stroke="black" points="404,-0.5 404,-90.5 525,-90.5 525,-0.5 404,-0.5"/>
<text text-anchor="middle" x="464.5" y="-78.5" font-family="Helvetica,sans-Serif" font-size="10.00">SDK::UClass</text>
<polyline fill="none" stroke="black" points="404,-71.5 525,-71.5 "/>
<text text-anchor="start" x="412" y="-59.5" font-family="Helvetica,sans-Serif" font-size="10.00">+ UnknownData00</text>
<text text-anchor="start" x="412" y="-48.5" font-family="Helvetica,sans-Serif" font-size="10.00">+ UnknownData01</text>
<polyline fill="none" stroke="black" points="404,-41.5 525,-41.5 "/>
<text text-anchor="start" x="412" y="-29.5" font-family="Helvetica,sans-Serif" font-size="10.00">+ CreateDefaultObject()</text>
<text text-anchor="start" x="412" y="-18.5" font-family="Helvetica,sans-Serif" font-size="10.00">+ CreateDefaultObject()</text>
<text text-anchor="start" x="412" y="-7.5" font-family="Helvetica,sans-Serif" font-size="10.00">+ StaticClass()</text>
</a>
</g>
</g>
<!-- Node2&#45;&gt;Node10 -->
<g id="edge19" class="edge">
<title>Node2&#45;&gt;Node10</title>
<path fill="none" stroke="#404040" d="M519.75,-543.22C528.66,-507.05 535.5,-467.04 535.5,-429.5 535.5,-429.5 535.5,-429.5 535.5,-156 535.5,-136.21 527.23,-117.17 516.34,-100.68"/>
<polygon fill="none" stroke="#404040" points="516.23,-100.53 509.49,-97.96 509.26,-90.75 516,-93.32 516.23,-100.53"/>
<text text-anchor="middle" x="583" y="-260.5" font-family="Helvetica,sans-Serif" font-size="10.00"> +ClassDefaultObject</text>
</g>
<!-- Node13 -->
<g id="node13" class="node">
<title>Node13</title>
<g id="a_node13"><a xlink:href="../../de/dd6/classSDK_1_1UField.html" target="_top" xlink:title=" ">
<polygon fill="white" stroke="black" points="304,-400 304,-457 387,-457 387,-400 304,-400"/>
<text text-anchor="middle" x="345.5" y="-445" font-family="Helvetica,sans-Serif" font-size="10.00">SDK::UField</text>
<polyline fill="none" stroke="black" points="304,-438 387,-438 "/>
<text text-anchor="middle" x="345.5" y="-426" font-family="Helvetica,sans-Serif" font-size="10.00"> </text>
<polyline fill="none" stroke="black" points="304,-419 387,-419 "/>
<text text-anchor="start" x="312" y="-407" font-family="Helvetica,sans-Serif" font-size="10.00">+ StaticClass()</text>
</a>
</g>
</g>
<!-- Node2&#45;&gt;Node13 -->
<g id="edge16" class="edge">
<title>Node2&#45;&gt;Node13</title>
<path fill="none" stroke="midnightblue" d="M433.91,-534.43C430.31,-527.39 426.51,-520.53 422.5,-514 409.63,-493.03 391.16,-472.54 375.54,-457"/>
<polygon fill="none" stroke="midnightblue" points="430.79,-536.01 438.35,-543.43 437.06,-532.92 430.79,-536.01"/>
</g>
<!-- Node3 -->
<g id="node3" class="node">
<title>Node3</title>
<g id="a_node3"><a xlink:href="../../d0/d22/structSDK_1_1FQWord.html" target="_top" xlink:title=" ">
<polygon fill="white" stroke="black" points="429.5,-954 429.5,-1022 509.5,-1022 509.5,-954 429.5,-954"/>
<text text-anchor="middle" x="469.5" y="-1010" font-family="Helvetica,sans-Serif" font-size="10.00">SDK::FQWord</text>
<polyline fill="none" stroke="black" points="429.5,-1003 509.5,-1003 "/>
<text text-anchor="start" x="437.5" y="-991" font-family="Helvetica,sans-Serif" font-size="10.00">+ A</text>
<text text-anchor="start" x="437.5" y="-980" font-family="Helvetica,sans-Serif" font-size="10.00">+ B</text>
<polyline fill="none" stroke="black" points="429.5,-973 509.5,-973 "/>
<text text-anchor="middle" x="469.5" y="-961" font-family="Helvetica,sans-Serif" font-size="10.00"> </text>
</a>
</g>
</g>
<!-- Node3&#45;&gt;Node2 -->
<g id="edge2" class="edge">
<title>Node3&#45;&gt;Node2</title>
<path fill="none" stroke="#404040" d="M470.53,-953.91C471.67,-917.48 473.57,-856.57 475.33,-800.19"/>
<polygon fill="none" stroke="#404040" points="475.34,-799.85 471.53,-793.73 475.71,-787.86 479.52,-793.98 475.34,-799.85"/>
<text text-anchor="middle" x="505.5" y="-854.5" font-family="Helvetica,sans-Serif" font-size="10.00"> +ObjectFlags</text>
</g>
<!-- Node4 -->
<g id="node4" class="node">
<title>Node4</title>
<g id="a_node4"><a xlink:href="../../d0/db6/structSDK_1_1FName.html" target="_top" xlink:title=" ">
<polygon fill="white" stroke="black" points="293,-926.5 293,-1049.5 400,-1049.5 400,-926.5 293,-926.5"/>
<text text-anchor="middle" x="346.5" y="-1037.5" font-family="Helvetica,sans-Serif" font-size="10.00">SDK::FName</text>
<polyline fill="none" stroke="black" points="293,-1030.5 400,-1030.5 "/>
<text text-anchor="start" x="301" y="-1018.5" font-family="Helvetica,sans-Serif" font-size="10.00">+ Index</text>
<text text-anchor="start" x="301" y="-1007.5" font-family="Helvetica,sans-Serif" font-size="10.00">+ Number</text>
<polyline fill="none" stroke="black" points="293,-1000.5 400,-1000.5 "/>
<text text-anchor="start" x="301" y="-988.5" font-family="Helvetica,sans-Serif" font-size="10.00">+ FName()</text>
<text text-anchor="start" x="301" y="-977.5" font-family="Helvetica,sans-Serif" font-size="10.00">+ FName()</text>
<text text-anchor="start" x="301" y="-966.5" font-family="Helvetica,sans-Serif" font-size="10.00">+ FName()</text>
<text text-anchor="start" x="301" y="-955.5" font-family="Helvetica,sans-Serif" font-size="10.00">+ GetName()</text>
<text text-anchor="start" x="301" y="-944.5" font-family="Helvetica,sans-Serif" font-size="10.00">+ operator==()</text>
<text text-anchor="start" x="301" y="-933.5" font-family="Helvetica,sans-Serif" font-size="10.00">+ GetGlobalNames()</text>
</a>
</g>
</g>
<!-- Node4&#45;&gt;Node1 -->
<g id="edge20" class="edge">
<title>Node4&#45;&gt;Node1</title>
<path fill="none" stroke="#404040" d="M336.48,-926.07C330.06,-886.7 321.63,-834.34 314.5,-788 297.76,-679.22 318.09,-645.69 278.5,-543 269.64,-520.01 255.45,-496.99 241.72,-477.75"/>
<polygon fill="none" stroke="#404040" points="241.71,-477.73 234.94,-475.25 234.62,-468.05 241.39,-470.52 241.71,-477.73"/>
<text text-anchor="middle" x="343" y="-663" font-family="Helvetica,sans-Serif" font-size="10.00"> +DataName</text>
</g>
<!-- Node4&#45;&gt;Node2 -->
<g id="edge3" class="edge">
<title>Node4&#45;&gt;Node2</title>
<path fill="none" stroke="#404040" d="M371.67,-926.34C386.63,-890.29 406.22,-843.09 424.59,-798.83"/>
<polygon fill="none" stroke="#404040" points="424.63,-798.73 423.23,-791.66 429.23,-787.65 430.62,-794.72 424.63,-798.73"/>
<text text-anchor="middle" x="438.5" y="-854.5" font-family="Helvetica,sans-Serif" font-size="10.00"> +Name</text>
</g>
<!-- Node5 -->
<g id="node5" class="node">
<title>Node5</title>
<g id="a_node5"><a xlink:href="../../d3/d79/classSDK_1_1TArray.html" target="_top" xlink:title=" ">
<polygon fill="white" stroke="black" points="256.5,-1103 256.5,-1237 436.5,-1237 436.5,-1103 256.5,-1103"/>
<text text-anchor="middle" x="346.5" y="-1225" font-family="Helvetica,sans-Serif" font-size="10.00">SDK::TArray&lt; SDK::FNameEntry * &gt;</text>
<polyline fill="none" stroke="black" points="256.5,-1218 436.5,-1218 "/>
<text text-anchor="start" x="264.5" y="-1206" font-family="Helvetica,sans-Serif" font-size="10.00">&#45; Count</text>
<text text-anchor="start" x="264.5" y="-1195" font-family="Helvetica,sans-Serif" font-size="10.00">&#45; Max</text>
<polyline fill="none" stroke="black" points="256.5,-1188 436.5,-1188 "/>
<text text-anchor="start" x="264.5" y="-1176" font-family="Helvetica,sans-Serif" font-size="10.00">+ TArray()</text>
<text text-anchor="start" x="264.5" y="-1165" font-family="Helvetica,sans-Serif" font-size="10.00">+ Num()</text>
<text text-anchor="start" x="264.5" y="-1154" font-family="Helvetica,sans-Serif" font-size="10.00">+ operator[]()</text>
<text text-anchor="start" x="264.5" y="-1143" font-family="Helvetica,sans-Serif" font-size="10.00">+ operator[]()</text>
<text text-anchor="start" x="264.5" y="-1132" font-family="Helvetica,sans-Serif" font-size="10.00">+ IsValidIndex()</text>
<text text-anchor="start" x="264.5" y="-1121" font-family="Helvetica,sans-Serif" font-size="10.00">+ GetByIndex()</text>
<text text-anchor="start" x="264.5" y="-1110" font-family="Helvetica,sans-Serif" font-size="10.00">+ GetByIndex()</text>
</a>
</g>
</g>
<!-- Node5&#45;&gt;Node4 -->
<g id="edge4" class="edge">
<title>Node5&#45;&gt;Node4</title>
<path fill="none" stroke="#404040" d="M346.5,-1103C346.5,-1089.63 346.5,-1075.5 346.5,-1061.91"/>
<polygon fill="none" stroke="#404040" points="346.5,-1061.62 342.5,-1055.62 346.5,-1049.62 350.5,-1055.62 346.5,-1061.62"/>
<text text-anchor="middle" x="371" y="-1071" font-family="Helvetica,sans-Serif" font-size="10.00"> +GNames</text>
</g>
<!-- Node6 -->
<g id="node6" class="node">
<title>Node6</title>
<g id="a_node6"><a xlink:href="../../d7/ddf/classSDK_1_1FNameEntry.html" target="_top" xlink:title=" ">
<polygon fill="white" stroke="black" points="232,-1329 232,-1397 331,-1397 331,-1329 232,-1329"/>
<text text-anchor="middle" x="281.5" y="-1385" font-family="Helvetica,sans-Serif" font-size="10.00">SDK::FNameEntry</text>
<polyline fill="none" stroke="black" points="232,-1378 331,-1378 "/>
<text text-anchor="start" x="240" y="-1366" font-family="Helvetica,sans-Serif" font-size="10.00">+ UnknownData00</text>
<text text-anchor="start" x="240" y="-1355" font-family="Helvetica,sans-Serif" font-size="10.00">+ name</text>
<polyline fill="none" stroke="black" points="232,-1348 331,-1348 "/>
<text text-anchor="start" x="240" y="-1336" font-family="Helvetica,sans-Serif" font-size="10.00">+ GetName()</text>
</a>
</g>
</g>
<!-- Node6&#45;&gt;Node5 -->
<g id="edge5" class="edge">
<title>Node6&#45;&gt;Node5</title>
<path fill="none" stroke="#404040" d="M276.91,-1328.9C275.31,-1308.78 275.4,-1282.85 282.5,-1261 283.9,-1256.69 285.59,-1252.41 287.5,-1248.18"/>
<polygon fill="none" stroke="#404040" points="287.64,-1247.9 286.76,-1240.74 293.03,-1237.17 293.91,-1244.33 287.64,-1247.9"/>
<text text-anchor="middle" x="296.5" y="-1264" font-family="Helvetica,sans-Serif" font-size="10.00"> &#45;Data</text>
</g>
<!-- Node7 -->
<g id="node7" class="node">
<title>Node7</title>
<g id="a_node7"><a xlink:href="../../d3/d79/classSDK_1_1TArray.html" target="_top" xlink:title=" ">
<polygon fill="white" stroke="black" points="363,-1290.5 363,-1435.5 460,-1435.5 460,-1290.5 363,-1290.5"/>
<text text-anchor="middle" x="411.5" y="-1423.5" font-family="Helvetica,sans-Serif" font-size="10.00">SDK::TArray&lt; T &gt;</text>
<polyline fill="none" stroke="black" points="363,-1416.5 460,-1416.5 "/>
<text text-anchor="start" x="371" y="-1404.5" font-family="Helvetica,sans-Serif" font-size="10.00">&#45; Data</text>
<text text-anchor="start" x="371" y="-1393.5" font-family="Helvetica,sans-Serif" font-size="10.00">&#45; Count</text>
<text text-anchor="start" x="371" y="-1382.5" font-family="Helvetica,sans-Serif" font-size="10.00">&#45; Max</text>
<polyline fill="none" stroke="black" points="363,-1375.5 460,-1375.5 "/>
<text text-anchor="start" x="371" y="-1363.5" font-family="Helvetica,sans-Serif" font-size="10.00">+ TArray()</text>
<text text-anchor="start" x="371" y="-1352.5" font-family="Helvetica,sans-Serif" font-size="10.00">+ Num()</text>
<text text-anchor="start" x="371" y="-1341.5" font-family="Helvetica,sans-Serif" font-size="10.00">+ operator[]()</text>
<text text-anchor="start" x="371" y="-1330.5" font-family="Helvetica,sans-Serif" font-size="10.00">+ operator[]()</text>
<text text-anchor="start" x="371" y="-1319.5" font-family="Helvetica,sans-Serif" font-size="10.00">+ IsValidIndex()</text>
<text text-anchor="start" x="371" y="-1308.5" font-family="Helvetica,sans-Serif" font-size="10.00">+ GetByIndex()</text>
<text text-anchor="start" x="371" y="-1297.5" font-family="Helvetica,sans-Serif" font-size="10.00">+ GetByIndex()</text>
</a>
</g>
</g>
<!-- Node7&#45;&gt;Node5 -->
<g id="edge6" class="edge">
<title>Node7&#45;&gt;Node5</title>
<path fill="none" stroke="orange" d="M395.46,-1280.49C393.64,-1273.84 391.65,-1267.27 389.5,-1261 386.81,-1253.14 383.61,-1245.06 380.2,-1237.12"/>
<polygon fill="orange" stroke="orange" points="392.1,-1281.47 398.03,-1290.25 398.87,-1279.69 392.1,-1281.47"/>
<text text-anchor="middle" x="448" y="-1264" font-family="Helvetica,sans-Serif" font-size="10.00"> &lt; SDK::FNameEntry * &gt;</text>
</g>
<!-- Node7&#45;&gt;Node8 -->
<g id="edge10" class="edge">
<title>Node7&#45;&gt;Node8</title>
<path fill="none" stroke="orange" d="M469.86,-1351.15C555.06,-1331.56 703.5,-1281.57 703.5,-1171 703.5,-1171 703.5,-1171 703.5,-664.5 703.5,-606.14 686.17,-542 670.29,-495.5"/>
<polygon fill="orange" stroke="orange" points="469.05,-1347.75 460.05,-1353.34 470.57,-1354.58 469.05,-1347.75"/>
<text text-anchor="middle" x="749" y="-985.5" font-family="Helvetica,sans-Serif" font-size="10.00"> &lt; SDK::UObject * &gt;</text>
</g>
<!-- Node17 -->
<g id="node17" class="node">
<title>Node17</title>
<g id="a_node17"><a xlink:href="../../d3/d79/classSDK_1_1TArray.html" target="_top" xlink:title=" ">
<polygon fill="white" stroke="black" points="70,-1097.5 70,-1242.5 195,-1242.5 195,-1097.5 70,-1097.5"/>
<text text-anchor="middle" x="132.5" y="-1230.5" font-family="Helvetica,sans-Serif" font-size="10.00">SDK::TArray&lt; wchar_t &gt;</text>
<polyline fill="none" stroke="black" points="70,-1223.5 195,-1223.5 "/>
<text text-anchor="start" x="78" y="-1211.5" font-family="Helvetica,sans-Serif" font-size="10.00">&#45; Data</text>
<text text-anchor="start" x="78" y="-1200.5" font-family="Helvetica,sans-Serif" font-size="10.00">&#45; Count</text>
<text text-anchor="start" x="78" y="-1189.5" font-family="Helvetica,sans-Serif" font-size="10.00">&#45; Max</text>
<polyline fill="none" stroke="black" points="70,-1182.5 195,-1182.5 "/>
<text text-anchor="start" x="78" y="-1170.5" font-family="Helvetica,sans-Serif" font-size="10.00">+ TArray()</text>
<text text-anchor="start" x="78" y="-1159.5" font-family="Helvetica,sans-Serif" font-size="10.00">+ Num()</text>
<text text-anchor="start" x="78" y="-1148.5" font-family="Helvetica,sans-Serif" font-size="10.00">+ operator[]()</text>
<text text-anchor="start" x="78" y="-1137.5" font-family="Helvetica,sans-Serif" font-size="10.00">+ operator[]()</text>
<text text-anchor="start" x="78" y="-1126.5" font-family="Helvetica,sans-Serif" font-size="10.00">+ IsValidIndex()</text>
<text text-anchor="start" x="78" y="-1115.5" font-family="Helvetica,sans-Serif" font-size="10.00">+ GetByIndex()</text>
<text text-anchor="start" x="78" y="-1104.5" font-family="Helvetica,sans-Serif" font-size="10.00">+ GetByIndex()</text>
</a>
</g>
</g>
<!-- Node7&#45;&gt;Node17 -->
<g id="edge25" class="edge">
<title>Node7&#45;&gt;Node17</title>
<path fill="none" stroke="orange" d="M355.42,-1304.88C350.39,-1299.83 345.36,-1294.81 340.5,-1290 327.32,-1276.95 326.56,-1270.27 310.5,-1261 285.28,-1246.45 274.1,-1254.84 247.5,-1243 229.85,-1235.14 211.71,-1224.93 195.21,-1214.68"/>
<polygon fill="orange" stroke="orange" points="353.23,-1307.64 362.77,-1312.27 358.2,-1302.71 353.23,-1307.64"/>
<text text-anchor="middle" x="352.5" y="-1264" font-family="Helvetica,sans-Serif" font-size="10.00"> &lt; wchar_t &gt;</text>
</g>
<!-- Node8&#45;&gt;Node2 -->
<g id="edge8" class="edge">
<title>Node8&#45;&gt;Node2</title>
<path fill="none" stroke="#404040" d="M622.66,-495.53C618.24,-505.71 613.18,-515.86 607.5,-525 601.06,-535.37 593.79,-545.66 586.08,-555.69"/>
<polygon fill="none" stroke="#404040" points="585.99,-555.79 585.41,-562.98 578.55,-565.21 579.13,-558.02 585.99,-555.79"/>
<text text-anchor="middle" x="638" y="-517" font-family="Helvetica,sans-Serif" font-size="10.00"> +GObjects</text>
</g>
<!-- Node9 -->
<g id="node9" class="node">
<title>Node9</title>
<g id="a_node9"><a xlink:href="../../d9/dfa/structSDK_1_1FPointer.html" target="_top" xlink:title=" ">
<polygon fill="white" stroke="black" points="527.5,-954 527.5,-1022 625.5,-1022 625.5,-954 527.5,-954"/>
<text text-anchor="middle" x="576.5" y="-1010" font-family="Helvetica,sans-Serif" font-size="10.00">SDK::FPointer</text>
<polyline fill="none" stroke="black" points="527.5,-1003 625.5,-1003 "/>
<text text-anchor="start" x="535.5" y="-991" font-family="Helvetica,sans-Serif" font-size="10.00">+ Dummy</text>
<text text-anchor="start" x="535.5" y="-980" font-family="Helvetica,sans-Serif" font-size="10.00">+ UnknownData00</text>
<polyline fill="none" stroke="black" points="527.5,-973 625.5,-973 "/>
<text text-anchor="middle" x="576.5" y="-961" font-family="Helvetica,sans-Serif" font-size="10.00"> </text>
</a>
</g>
</g>
<!-- Node9&#45;&gt;Node2 -->
<g id="edge11" class="edge">
<title>Node9&#45;&gt;Node2</title>
<path fill="none" stroke="#404040" d="M572.09,-953.77C566.72,-917.05 556.34,-856.44 540.5,-806 539.79,-803.73 539.05,-801.45 538.29,-799.16"/>
<polygon fill="none" stroke="#404040" points="538.23,-798.98 532.49,-794.62 534.31,-787.64 540.05,-792 538.23,-798.98"/>
<text text-anchor="middle" x="598" y="-865.5" font-family="Helvetica,sans-Serif" font-size="10.00"> +StateFrame</text>
<text text-anchor="middle" x="598" y="-854.5" font-family="Helvetica,sans-Serif" font-size="10.00">+VfTableObject</text>
<text text-anchor="middle" x="598" y="-843.5" font-family="Helvetica,sans-Serif" font-size="10.00">+LinkerIndex</text>
</g>
<!-- Node10&#45;&gt;Node2 -->
<g id="edge12" class="edge">
<title>Node10&#45;&gt;Node2</title>
<path fill="none" stroke="#404040" d="M464.5,-90.72C464.5,-110.67 464.5,-134.52 464.5,-156 464.5,-429.5 464.5,-429.5 464.5,-429.5 464.5,-462.45 465.99,-497.95 468.02,-531.12"/>
<polygon fill="none" stroke="#404040" points="468.03,-531.25 472.41,-536.99 468.8,-543.23 464.42,-537.5 468.03,-531.25"/>
<text text-anchor="middle" x="482" y="-260.5" font-family="Helvetica,sans-Serif" font-size="10.00"> +Class</text>
</g>
<!-- Node11 -->
<g id="node11" class="node">
<title>Node11</title>
<g id="a_node11"><a xlink:href="../../df/d72/classSDK_1_1UState.html" target="_top" xlink:title=" ">
<polygon fill="white" stroke="black" points="336.5,-128.5 336.5,-185.5 434.5,-185.5 434.5,-128.5 336.5,-128.5"/>
<text text-anchor="middle" x="385.5" y="-173.5" font-family="Helvetica,sans-Serif" font-size="10.00">SDK::UState</text>
<polyline fill="none" stroke="black" points="336.5,-166.5 434.5,-166.5 "/>
<text text-anchor="start" x="344.5" y="-154.5" font-family="Helvetica,sans-Serif" font-size="10.00">+ UnknownData00</text>
<polyline fill="none" stroke="black" points="336.5,-147.5 434.5,-147.5 "/>
<text text-anchor="start" x="344.5" y="-135.5" font-family="Helvetica,sans-Serif" font-size="10.00">+ StaticClass()</text>
</a>
</g>
</g>
<!-- Node11&#45;&gt;Node10 -->
<g id="edge13" class="edge">
<title>Node11&#45;&gt;Node10</title>
<path fill="none" stroke="midnightblue" d="M411.44,-120.04C418.2,-110.68 425.56,-100.48 432.58,-90.74"/>
<polygon fill="none" stroke="midnightblue" points="408.45,-118.21 405.44,-128.37 414.12,-122.31 408.45,-118.21"/>
</g>
<!-- Node12 -->
<g id="node12" class="node">
<title>Node12</title>
<g id="a_node12"><a xlink:href="../../d8/de9/classSDK_1_1UStruct.html" target="_top" xlink:title=" ">
<polygon fill="white" stroke="black" points="330.5,-223.5 330.5,-302.5 428.5,-302.5 428.5,-223.5 330.5,-223.5"/>
<text text-anchor="middle" x="379.5" y="-290.5" font-family="Helvetica,sans-Serif" font-size="10.00">SDK::UStruct</text>
<polyline fill="none" stroke="black" points="330.5,-283.5 428.5,-283.5 "/>
<text text-anchor="start" x="338.5" y="-271.5" font-family="Helvetica,sans-Serif" font-size="10.00">+ UnknownData00</text>
<text text-anchor="start" x="338.5" y="-260.5" font-family="Helvetica,sans-Serif" font-size="10.00">+ PropertySize</text>
<text text-anchor="start" x="338.5" y="-249.5" font-family="Helvetica,sans-Serif" font-size="10.00">+ UnknownData01</text>
<polyline fill="none" stroke="black" points="330.5,-242.5 428.5,-242.5 "/>
<text text-anchor="start" x="338.5" y="-230.5" font-family="Helvetica,sans-Serif" font-size="10.00">+ StaticClass()</text>
</a>
</g>
</g>
<!-- Node12&#45;&gt;Node11 -->
<g id="edge14" class="edge">
<title>Node12&#45;&gt;Node11</title>
<path fill="none" stroke="midnightblue" d="M382.32,-213.16C382.86,-203.74 383.41,-194.17 383.9,-185.72"/>
<polygon fill="none" stroke="midnightblue" points="378.82,-213.09 381.73,-223.27 385.8,-213.49 378.82,-213.09"/>
</g>
<!-- Node13&#45;&gt;Node12 -->
<g id="edge15" class="edge">
<title>Node13&#45;&gt;Node12</title>
<path fill="none" stroke="midnightblue" d="M366.03,-390.88C373.04,-376.43 379.99,-359.38 383.5,-343 386.27,-330.11 386.39,-315.78 385.47,-302.9"/>
<polygon fill="none" stroke="midnightblue" points="362.83,-389.46 361.46,-399.97 369.08,-392.61 362.83,-389.46"/>
</g>
<!-- Node13&#45;&gt;Node12 -->
<g id="edge18" class="edge">
<title>Node13&#45;&gt;Node12</title>
<path fill="none" stroke="#404040" d="M331.22,-399.99C321.81,-377.99 312.99,-346.69 323.5,-321 324.67,-318.14 326.06,-315.34 327.63,-312.61"/>
<polygon fill="none" stroke="#404040" points="327.73,-312.47 327.76,-305.26 334.43,-302.52 334.4,-309.73 327.73,-312.47"/>
<text text-anchor="middle" x="351.5" y="-335" font-family="Helvetica,sans-Serif" font-size="10.00"> +SuperField</text>
<text text-anchor="middle" x="351.5" y="-324" font-family="Helvetica,sans-Serif" font-size="10.00">+Children</text>
</g>
<!-- Node13&#45;&gt;Node13 -->
<g id="edge17" class="edge">
<title>Node13&#45;&gt;Node13</title>
<path fill="none" stroke="#404040" d="M387.21,-445.11C397.41,-443.88 405,-438.34 405,-428.5 405,-422.96 402.6,-418.79 398.68,-415.98"/>
<polygon fill="none" stroke="#404040" points="398.51,-415.92 391.51,-417.67 387.21,-411.89 394.2,-410.13 398.51,-415.92"/>
<text text-anchor="middle" x="420.5" y="-426" font-family="Helvetica,sans-Serif" font-size="10.00"> +Next</text>
</g>
<!-- Node14 -->
<g id="node14" class="node">
<title>Node14</title>
<g id="a_node14"><a xlink:href="../../df/d1c/classSDK_1_1TEnumAsByte.html" target="_top" xlink:title=" ">
<polygon fill="white" stroke="black" points="109.5,-598.5 109.5,-732.5 269.5,-732.5 269.5,-598.5 109.5,-598.5"/>
<text text-anchor="start" x="117.5" y="-720.5" font-family="Helvetica,sans-Serif" font-size="10.00">SDK::TEnumAsByte&lt; EPlatform</text>
<text text-anchor="middle" x="189.5" y="-709.5" font-family="Helvetica,sans-Serif" font-size="10.00">InterfaceDataType &gt;</text>
<polyline fill="none" stroke="black" points="109.5,-702.5 269.5,-702.5 "/>
<text text-anchor="start" x="117.5" y="-690.5" font-family="Helvetica,sans-Serif" font-size="10.00">&#45; value</text>
<polyline fill="none" stroke="black" points="109.5,-683.5 269.5,-683.5 "/>
<text text-anchor="start" x="117.5" y="-671.5" font-family="Helvetica,sans-Serif" font-size="10.00">+ TEnumAsByte()</text>
<text text-anchor="start" x="117.5" y="-660.5" font-family="Helvetica,sans-Serif" font-size="10.00">+ TEnumAsByte()</text>
<text text-anchor="start" x="117.5" y="-649.5" font-family="Helvetica,sans-Serif" font-size="10.00">+ TEnumAsByte()</text>
<text text-anchor="start" x="117.5" y="-638.5" font-family="Helvetica,sans-Serif" font-size="10.00">+ TEnumAsByte()</text>
<text text-anchor="start" x="117.5" y="-627.5" font-family="Helvetica,sans-Serif" font-size="10.00">+ operator EPlatformInterface</text>
<text text-anchor="start" x="117.5" y="-616.5" font-family="Helvetica,sans-Serif" font-size="10.00">DataType()</text>
<text text-anchor="start" x="117.5" y="-605.5" font-family="Helvetica,sans-Serif" font-size="10.00">+ GetValue()</text>
</a>
</g>
</g>
<!-- Node14&#45;&gt;Node1 -->
<g id="edge21" class="edge">
<title>Node14&#45;&gt;Node1</title>
<path fill="none" stroke="#404040" d="M193.16,-598.41C195.22,-561.05 197.77,-515.05 199.68,-480.5"/>
<polygon fill="none" stroke="#404040" points="199.69,-480.3 196.03,-474.09 200.35,-468.32 204.01,-474.53 199.69,-480.3"/>
<text text-anchor="middle" x="213" y="-517" font-family="Helvetica,sans-Serif" font-size="10.00"> +Type</text>
</g>
<!-- Node15 -->
<g id="node15" class="node">
<title>Node15</title>
<g id="a_node15"><a xlink:href="../../df/d1c/classSDK_1_1TEnumAsByte.html" target="_top" xlink:title=" ">
<polygon fill="white" stroke="black" points="97,-932 97,-1044 254,-1044 254,-932 97,-932"/>
<text text-anchor="middle" x="175.5" y="-1032" font-family="Helvetica,sans-Serif" font-size="10.00">SDK::TEnumAsByte&lt; TEnum &gt;</text>
<polyline fill="none" stroke="black" points="97,-1025 254,-1025 "/>
<text text-anchor="start" x="105" y="-1013" font-family="Helvetica,sans-Serif" font-size="10.00">&#45; value</text>
<polyline fill="none" stroke="black" points="97,-1006 254,-1006 "/>
<text text-anchor="start" x="105" y="-994" font-family="Helvetica,sans-Serif" font-size="10.00">+ TEnumAsByte()</text>
<text text-anchor="start" x="105" y="-983" font-family="Helvetica,sans-Serif" font-size="10.00">+ TEnumAsByte()</text>
<text text-anchor="start" x="105" y="-972" font-family="Helvetica,sans-Serif" font-size="10.00">+ TEnumAsByte()</text>
<text text-anchor="start" x="105" y="-961" font-family="Helvetica,sans-Serif" font-size="10.00">+ TEnumAsByte()</text>
<text text-anchor="start" x="105" y="-950" font-family="Helvetica,sans-Serif" font-size="10.00">+ operator TEnum()</text>
<text text-anchor="start" x="105" y="-939" font-family="Helvetica,sans-Serif" font-size="10.00">+ GetValue()</text>
</a>
</g>
</g>
<!-- Node15&#45;&gt;Node14 -->
<g id="edge22" class="edge">
<title>Node15&#45;&gt;Node14</title>
<path fill="none" stroke="orange" d="M174.48,-921.52C174.3,-887.12 174.62,-844.26 176.5,-806 177.68,-782.07 179.88,-755.9 182.13,-732.76"/>
<polygon fill="orange" stroke="orange" points="170.99,-921.94 174.56,-931.91 177.99,-921.89 170.99,-921.94"/>
<text text-anchor="start" x="176.5" y="-860" font-family="Helvetica,sans-Serif" font-size="10.00"> &lt; EPlatformInterfaceData</text>
<text text-anchor="middle" x="234" y="-849" font-family="Helvetica,sans-Serif" font-size="10.00">Type &gt;</text>
</g>
<!-- Node16 -->
<g id="node16" class="node">
<title>Node16</title>
<g id="a_node16"><a xlink:href="../../d3/d88/classSDK_1_1FString.html" target="_top" xlink:title=" ">
<polygon fill="white" stroke="black" points="0,-806.5 0,-907.5 75,-907.5 75,-806.5 0,-806.5"/>
<text text-anchor="middle" x="37.5" y="-895.5" font-family="Helvetica,sans-Serif" font-size="10.00">SDK::FString</text>
<polyline fill="none" stroke="black" points="0,-888.5 75,-888.5 "/>
<text text-anchor="middle" x="37.5" y="-876.5" font-family="Helvetica,sans-Serif" font-size="10.00"> </text>
<polyline fill="none" stroke="black" points="0,-869.5 75,-869.5 "/>
<text text-anchor="start" x="8" y="-857.5" font-family="Helvetica,sans-Serif" font-size="10.00">+ FString()</text>
<text text-anchor="start" x="8" y="-846.5" font-family="Helvetica,sans-Serif" font-size="10.00">+ FString()</text>
<text text-anchor="start" x="8" y="-835.5" font-family="Helvetica,sans-Serif" font-size="10.00">+ IsValid()</text>
<text text-anchor="start" x="8" y="-824.5" font-family="Helvetica,sans-Serif" font-size="10.00">+ c_str()</text>
<text text-anchor="start" x="8" y="-813.5" font-family="Helvetica,sans-Serif" font-size="10.00">+ ToString()</text>
</a>
</g>
</g>
<!-- Node16&#45;&gt;Node1 -->
<g id="edge23" class="edge">
<title>Node16&#45;&gt;Node1</title>
<path fill="none" stroke="#404040" d="M23.46,-806.23C8.13,-741.46 -8.81,-626.68 35.5,-543 53.41,-509.18 86.41,-483.57 118.37,-465.31"/>
<polygon fill="none" stroke="#404040" points="118.63,-465.17 121.96,-458.78 129.15,-459.4 125.81,-465.79 118.63,-465.17"/>
<text text-anchor="middle" x="68" y="-668.5" font-family="Helvetica,sans-Serif" font-size="10.00"> +StringValue2</text>
<text text-anchor="middle" x="68" y="-657.5" font-family="Helvetica,sans-Serif" font-size="10.00">+StringValue</text>
</g>
<!-- Node17&#45;&gt;Node16 -->
<g id="edge24" class="edge">
<title>Node17&#45;&gt;Node16</title>
<path fill="none" stroke="midnightblue" d="M100.49,-1087.83C95.91,-1075.24 91.42,-1062.33 87.5,-1050 72.3,-1002.24 58.23,-946.75 48.91,-907.74"/>
<polygon fill="none" stroke="midnightblue" points="97.27,-1089.21 104.01,-1097.38 103.83,-1086.79 97.27,-1089.21"/>
</g>
</g>
</svg>
        <g id="navigator" transform="translate(0 0)" fill="#404254">
                <rect fill="#f2f5e9" fill-opacity="0.5" stroke="#606060" stroke-width=".5" x="0" y="0" width="60" height="60"/>
                <use id="zoomplus" xlink:href="#zoomPlus" x="17" y="9" onmousedown="handleZoom(evt,'in')"/>
                <use id="zoomminus" xlink:href="#zoomMin" x="42" y="9" onmousedown="handleZoom(evt,'out')"/>
                <use id="reset" xlink:href="#resetDef" x="30" y="36" onmousedown="handleReset()"/>
                <g id="arrowUp" xlink:href="#dirArrow" transform="translate(30 24)" onmousedown="handlePan(0,-1)">
                  <use xlink:href="#rim" fill="#404040">
                        <set attributeName="fill" to="#808080" begin="arrowUp.mouseover" end="arrowUp.mouseout"/>
                  </use>
                  <path fill="none" stroke="white" stroke-width="1.5" d="M0,-3.0v7 M-2.5,-0.5L0,-3.0L2.5,-0.5"/>
                </g>
                <g id="arrowRight" xlink:href="#dirArrow" transform="rotate(90) translate(36 -43)" onmousedown="handlePan(1,0)">
                  <use xlink:href="#rim" fill="#404040">
                        <set attributeName="fill" to="#808080" begin="arrowRight.mouseover" end="arrowRight.mouseout"/>
                  </use>
                  <path fill="none" stroke="white" stroke-width="1.5" d="M0,-3.0v7 M-2.5,-0.5L0,-3.0L2.5,-0.5"/>
                </g>
                <g id="arrowDown" xlink:href="#dirArrow" transform="rotate(180) translate(-30 -48)" onmousedown="handlePan(0,1)">
                  <use xlink:href="#rim" fill="#404040">
                        <set attributeName="fill" to="#808080" begin="arrowDown.mouseover" end="arrowDown.mouseout"/>
                  </use>
                  <path fill="none" stroke="white" stroke-width="1.5" d="M0,-3.0v7 M-2.5,-0.5L0,-3.0L2.5,-0.5"/>
                </g>
                <g id="arrowLeft" xlink:href="#dirArrow" transform="rotate(270) translate(-36 17)" onmousedown="handlePan(-1,0)">
                  <use xlink:href="#rim" fill="#404040">
                        <set attributeName="fill" to="#808080" begin="arrowLeft.mouseover" end="arrowLeft.mouseout"/>
                  </use>
                  <path fill="none" stroke="white" stroke-width="1.5" d="M0,-3.0v7 M-2.5,-0.5L0,-3.0L2.5,-0.5"/>
                </g>
        </g>
        <svg viewBox="0 0 15 15" width="100%" height="30px" preserveAspectRatio="xMaxYMin meet">
         <g id="arrow_out" transform="scale(0.3 0.3)">
          <a xlink:href="structSDK_1_1FPlatformInterfaceData__coll__graph_org.svg" target="_base">
           <rect id="button" ry="5" rx="5" y="6" x="6" height="38" width="38"
                fill="#f2f5e9" fill-opacity="0.5" stroke="#606060" stroke-width="1.0"/>
           <path id="arrow"
             d="M 11.500037,31.436501 C 11.940474,20.09759 22.043105,11.32322 32.158766,21.979434 L 37.068811,17.246167 C 37.068811,17.246167 37.088388,32 37.088388,32 L 22.160133,31.978069 C 22.160133,31.978069 26.997745,27.140456 26.997745,27.140456 C 18.528582,18.264221 13.291696,25.230495 11.500037,31.436501 z"
             style="fill:#404040;"/>
          </a>
         </g>
        </svg>
</svg>
