<?xml version="1.0" encoding="UTF-8" standalone="no"?>
<!DOCTYPE svg PUBLIC "-//W3C//DTD SVG 1.1//EN"
 "http://www.w3.org/Graphics/SVG/1.1/DTD/svg11.dtd">
<!-- Generated by graphviz version 2.41.20171026.1811 (20171026.1811)
 -->
<!-- Title: SDK::USoundNodeRandom Pages: 1 -->
<!--zoomable 1689 -->
<svg id="main" version="1.1" xmlns="http://www.w3.org/2000/svg" xmlns:xlink="http://www.w3.org/1999/xlink" xml:space="preserve" onload="init(evt)">
<style type="text/css"><![CDATA[
.edge:hover path { stroke: red; }
.edge:hover polygon { stroke: red; fill: red; }
]]></style>
<script type="text/javascript"><![CDATA[
var edges = document.getElementsByTagName('g');
if (edges && edges.length) {
  for (var i=0;i<edges.length;i++) {
    if (edges[i].id.substr(0,4)=='edge') {
      edges[i].setAttribute('class','edge');
    }
  }
}
]]></script>
        <defs>
                <circle id="rim" cx="0" cy="0" r="7"/>
                <circle id="rim2" cx="0" cy="0" r="3.5"/>
                <g id="zoomPlus">
                        <use xlink:href="#rim" fill="#404040">
                                <set attributeName="fill" to="#808080" begin="zoomplus.mouseover" end="zoomplus.mouseout"/>
                        </use>
                        <path d="M-4,0h8M0,-4v8" fill="none" stroke="white" stroke-width="1.5" pointer-events="none"/>
                </g>
                <g id="zoomMin">
                        <use xlink:href="#rim" fill="#404040">
                                <set attributeName="fill" to="#808080" begin="zoomminus.mouseover" end="zoomminus.mouseout"/>
                        </use>
                        <path d="M-4,0h8" fill="none" stroke="white" stroke-width="1.5" pointer-events="none"/>
                </g>
                <g id="dirArrow">
                        <path fill="none" stroke="white" stroke-width="1.5" d="M0,-3.0v7 M-2.5,-0.5L0,-3.0L2.5,-0.5"/>
                </g>
               <g id="resetDef">
                       <use xlink:href="#rim2" fill="#404040">
                               <set attributeName="fill" to="#808080" begin="reset.mouseover" end="reset.mouseout"/>
                       </use>
               </g>
        </defs>

<script type="text/javascript">
var viewWidth = 819;
var viewHeight = 1689;
var sectionId = 'dynsection-1';
</script>
<script xlink:href="../../svgpan.js"/>
<svg id="graph" class="graph">
<g id="viewport">
<title>SDK::USoundNodeRandom</title>
<polygon fill="white" stroke="transparent" points="-4,4 -4,-1685 815,-1685 815,4 -4,4"/>
<!-- Node1 -->
<g id="node1" class="node">
<title>Node1</title>
<g id="a_node1"><a xlink:title=" ">
<polygon fill="#bfbfbf" stroke="black" points="36,-256.5 36,-335.5 208,-335.5 208,-256.5 36,-256.5"/>
<text text-anchor="middle" x="122" y="-323.5" font-family="Helvetica,sans-Serif" font-size="10.00">SDK::USoundNodeRandom</text>
<polyline fill="none" stroke="black" points="36,-316.5 208,-316.5 "/>
<text text-anchor="start" x="44" y="-304.5" font-family="Helvetica,sans-Serif" font-size="10.00">+ PreselectAtLevelLoad</text>
<text text-anchor="start" x="44" y="-293.5" font-family="Helvetica,sans-Serif" font-size="10.00">+ bRandomizeWithoutReplacement</text>
<text text-anchor="start" x="44" y="-282.5" font-family="Helvetica,sans-Serif" font-size="10.00">+ NumRandomUsed</text>
<polyline fill="none" stroke="black" points="36,-275.5 208,-275.5 "/>
<text text-anchor="start" x="44" y="-263.5" font-family="Helvetica,sans-Serif" font-size="10.00">+ StaticClass()</text>
</a>
</g>
</g>
<!-- Node2 -->
<g id="node2" class="node">
<title>Node2</title>
<g id="a_node2"><a xlink:href="../../dd/d78/classSDK_1_1USoundNode.html" target="_top" xlink:title=" ">
<polygon fill="white" stroke="black" points="268,-466 268,-523 370,-523 370,-466 268,-466"/>
<text text-anchor="middle" x="319" y="-511" font-family="Helvetica,sans-Serif" font-size="10.00">SDK::USoundNode</text>
<polyline fill="none" stroke="black" points="268,-504 370,-504 "/>
<text text-anchor="start" x="276" y="-492" font-family="Helvetica,sans-Serif" font-size="10.00">+ NodeUpdateHint</text>
<polyline fill="none" stroke="black" points="268,-485 370,-485 "/>
<text text-anchor="start" x="276" y="-473" font-family="Helvetica,sans-Serif" font-size="10.00">+ StaticClass()</text>
</a>
</g>
</g>
<!-- Node2&#45;&gt;Node1 -->
<g id="edge1" class="edge">
<title>Node2&#45;&gt;Node1</title>
<path fill="none" stroke="midnightblue" d="M284.11,-458.7C249.55,-424.22 196.73,-371.55 160.86,-335.76"/>
<polygon fill="none" stroke="midnightblue" points="281.64,-461.18 291.19,-465.76 286.58,-456.22 281.64,-461.18"/>
</g>
<!-- Node15 -->
<g id="node15" class="node">
<title>Node15</title>
<g id="a_node15"><a xlink:href="../../d3/d79/classSDK_1_1TArray.html" target="_top" xlink:title=" ">
<polygon fill="white" stroke="black" points="226.5,-223.5 226.5,-368.5 347.5,-368.5 347.5,-223.5 226.5,-223.5"/>
<text text-anchor="start" x="234.5" y="-356.5" font-family="Helvetica,sans-Serif" font-size="10.00">SDK::TArray&lt; class</text>
<text text-anchor="middle" x="287" y="-345.5" font-family="Helvetica,sans-Serif" font-size="10.00"> SDK::USoundNode * &gt;</text>
<polyline fill="none" stroke="black" points="226.5,-338.5 347.5,-338.5 "/>
<text text-anchor="start" x="234.5" y="-326.5" font-family="Helvetica,sans-Serif" font-size="10.00">&#45; Count</text>
<text text-anchor="start" x="234.5" y="-315.5" font-family="Helvetica,sans-Serif" font-size="10.00">&#45; Max</text>
<polyline fill="none" stroke="black" points="226.5,-308.5 347.5,-308.5 "/>
<text text-anchor="start" x="234.5" y="-296.5" font-family="Helvetica,sans-Serif" font-size="10.00">+ TArray()</text>
<text text-anchor="start" x="234.5" y="-285.5" font-family="Helvetica,sans-Serif" font-size="10.00">+ Num()</text>
<text text-anchor="start" x="234.5" y="-274.5" font-family="Helvetica,sans-Serif" font-size="10.00">+ operator[]()</text>
<text text-anchor="start" x="234.5" y="-263.5" font-family="Helvetica,sans-Serif" font-size="10.00">+ operator[]()</text>
<text text-anchor="start" x="234.5" y="-252.5" font-family="Helvetica,sans-Serif" font-size="10.00">+ IsValidIndex()</text>
<text text-anchor="start" x="234.5" y="-241.5" font-family="Helvetica,sans-Serif" font-size="10.00">+ GetByIndex()</text>
<text text-anchor="start" x="234.5" y="-230.5" font-family="Helvetica,sans-Serif" font-size="10.00">+ GetByIndex()</text>
</a>
</g>
</g>
<!-- Node2&#45;&gt;Node15 -->
<g id="edge22" class="edge">
<title>Node2&#45;&gt;Node15</title>
<path fill="none" stroke="#404040" d="M303.04,-465.97C294.67,-449.93 285.28,-428.97 281,-409 279.05,-399.9 278.03,-390.29 277.68,-380.68"/>
<polygon fill="none" stroke="#404040" points="277.67,-380.54 273.61,-374.58 277.55,-368.54 281.61,-374.5 277.67,-380.54"/>
<text text-anchor="middle" x="295" y="-395.5" font-family="Helvetica,sans-Serif" font-size="10.00"> &#45;Data</text>
</g>
<!-- Node3 -->
<g id="node3" class="node">
<title>Node3</title>
<g id="a_node3"><a xlink:href="../../d9/d45/classSDK_1_1UObject.html" target="_top" xlink:title=" ">
<polygon fill="white" stroke="black" points="487,-609.5 487,-853.5 685,-853.5 685,-609.5 487,-609.5"/>
<text text-anchor="middle" x="586" y="-841.5" font-family="Helvetica,sans-Serif" font-size="10.00">SDK::UObject</text>
<polyline fill="none" stroke="black" points="487,-834.5 685,-834.5 "/>
<text text-anchor="start" x="495" y="-822.5" font-family="Helvetica,sans-Serif" font-size="10.00">+ ObjectInternalInteger</text>
<text text-anchor="start" x="495" y="-811.5" font-family="Helvetica,sans-Serif" font-size="10.00">+ NetIndex</text>
<polyline fill="none" stroke="black" points="487,-804.5 685,-804.5 "/>
<text text-anchor="start" x="495" y="-792.5" font-family="Helvetica,sans-Serif" font-size="10.00">+ UObject::GetName()</text>
<text text-anchor="start" x="495" y="-781.5" font-family="Helvetica,sans-Serif" font-size="10.00">+ GetFullName()</text>
<text text-anchor="start" x="495" y="-770.5" font-family="Helvetica,sans-Serif" font-size="10.00">+ IsA()</text>
<text text-anchor="start" x="495" y="-759.5" font-family="Helvetica,sans-Serif" font-size="10.00">+ ProcessEvent()</text>
<text text-anchor="start" x="495" y="-748.5" font-family="Helvetica,sans-Serif" font-size="10.00">+ STATIC_ProfNodeEvent()</text>
<text text-anchor="start" x="495" y="-737.5" font-family="Helvetica,sans-Serif" font-size="10.00">+ STATIC_ProfNodeSetDepthThreshold()</text>
<text text-anchor="start" x="495" y="-726.5" font-family="Helvetica,sans-Serif" font-size="10.00">+ STATIC_ProfNodeSetTimeThreshold</text>
<text text-anchor="start" x="495" y="-715.5" font-family="Helvetica,sans-Serif" font-size="10.00">Seconds()</text>
<text text-anchor="start" x="495" y="-704.5" font-family="Helvetica,sans-Serif" font-size="10.00">+ STATIC_ProfNodeStop()</text>
<text text-anchor="start" x="495" y="-693.5" font-family="Helvetica,sans-Serif" font-size="10.00">+ STATIC_ProfNodeStart()</text>
<text text-anchor="start" x="495" y="-682.5" font-family="Helvetica,sans-Serif" font-size="10.00">+ STATIC_GetStringFromGuid()</text>
<text text-anchor="start" x="495" y="-671.5" font-family="Helvetica,sans-Serif" font-size="10.00">and 298 more...</text>
<text text-anchor="start" x="495" y="-660.5" font-family="Helvetica,sans-Serif" font-size="10.00">+ GetGlobalObjects()</text>
<text text-anchor="start" x="495" y="-649.5" font-family="Helvetica,sans-Serif" font-size="10.00">+ FindObject()</text>
<text text-anchor="start" x="495" y="-638.5" font-family="Helvetica,sans-Serif" font-size="10.00">+ FindClass()</text>
<text text-anchor="start" x="495" y="-627.5" font-family="Helvetica,sans-Serif" font-size="10.00">+ GetObjectCasted()</text>
<text text-anchor="start" x="495" y="-616.5" font-family="Helvetica,sans-Serif" font-size="10.00">+ StaticClass()</text>
</a>
</g>
</g>
<!-- Node3&#45;&gt;Node2 -->
<g id="edge2" class="edge">
<title>Node3&#45;&gt;Node2</title>
<path fill="none" stroke="midnightblue" d="M478.48,-658.33C450.82,-637.87 421.87,-614.68 397,-591 375.14,-570.19 353.7,-543.33 338.84,-523.4"/>
<polygon fill="none" stroke="midnightblue" points="476.49,-661.22 486.63,-664.31 480.63,-655.57 476.49,-661.22"/>
</g>
<!-- Node3&#45;&gt;Node3 -->
<g id="edge8" class="edge">
<title>Node3&#45;&gt;Node3</title>
<path fill="none" stroke="#404040" d="M685.01,-754.53C695.94,-750.15 703,-742.48 703,-731.5 703,-724.64 700.24,-719.07 695.51,-714.78"/>
<polygon fill="none" stroke="#404040" points="695.3,-714.66 688.09,-714.99 685.01,-708.47 692.22,-708.14 695.3,-714.66"/>
<text text-anchor="middle" x="742.5" y="-740" font-family="Helvetica,sans-Serif" font-size="10.00"> +Outer</text>
<text text-anchor="middle" x="742.5" y="-729" font-family="Helvetica,sans-Serif" font-size="10.00">+Linker</text>
<text text-anchor="middle" x="742.5" y="-718" font-family="Helvetica,sans-Serif" font-size="10.00">+ObjectArchetype</text>
</g>
<!-- Node9 -->
<g id="node9" class="node">
<title>Node9</title>
<g id="a_node9"><a xlink:href="../../d3/d79/classSDK_1_1TArray.html" target="_top" xlink:title=" ">
<polygon fill="white" stroke="black" points="439.5,-427.5 439.5,-561.5 600.5,-561.5 600.5,-427.5 439.5,-427.5"/>
<text text-anchor="middle" x="520" y="-549.5" font-family="Helvetica,sans-Serif" font-size="10.00">SDK::TArray&lt; SDK::UObject * &gt;</text>
<polyline fill="none" stroke="black" points="439.5,-542.5 600.5,-542.5 "/>
<text text-anchor="start" x="447.5" y="-530.5" font-family="Helvetica,sans-Serif" font-size="10.00">&#45; Count</text>
<text text-anchor="start" x="447.5" y="-519.5" font-family="Helvetica,sans-Serif" font-size="10.00">&#45; Max</text>
<polyline fill="none" stroke="black" points="439.5,-512.5 600.5,-512.5 "/>
<text text-anchor="start" x="447.5" y="-500.5" font-family="Helvetica,sans-Serif" font-size="10.00">+ TArray()</text>
<text text-anchor="start" x="447.5" y="-489.5" font-family="Helvetica,sans-Serif" font-size="10.00">+ Num()</text>
<text text-anchor="start" x="447.5" y="-478.5" font-family="Helvetica,sans-Serif" font-size="10.00">+ operator[]()</text>
<text text-anchor="start" x="447.5" y="-467.5" font-family="Helvetica,sans-Serif" font-size="10.00">+ operator[]()</text>
<text text-anchor="start" x="447.5" y="-456.5" font-family="Helvetica,sans-Serif" font-size="10.00">+ IsValidIndex()</text>
<text text-anchor="start" x="447.5" y="-445.5" font-family="Helvetica,sans-Serif" font-size="10.00">+ GetByIndex()</text>
<text text-anchor="start" x="447.5" y="-434.5" font-family="Helvetica,sans-Serif" font-size="10.00">+ GetByIndex()</text>
</a>
</g>
</g>
<!-- Node3&#45;&gt;Node9 -->
<g id="edge10" class="edge">
<title>Node3&#45;&gt;Node9</title>
<path fill="none" stroke="#404040" d="M571.93,-609.33C569.67,-599.31 567.05,-589.42 564,-580 563.28,-577.76 562.49,-575.5 561.67,-573.24"/>
<polygon fill="none" stroke="#404040" points="561.61,-573.11 555.68,-569.01 557.17,-561.96 563.11,-566.05 561.61,-573.11"/>
<text text-anchor="middle" x="580" y="-583" font-family="Helvetica,sans-Serif" font-size="10.00"> &#45;Data</text>
</g>
<!-- Node11 -->
<g id="node11" class="node">
<title>Node11</title>
<g id="a_node11"><a xlink:href="../../d7/d85/classSDK_1_1UClass.html" target="_top" xlink:title=" ">
<polygon fill="white" stroke="black" points="568.5,-0.5 568.5,-90.5 689.5,-90.5 689.5,-0.5 568.5,-0.5"/>
<text text-anchor="middle" x="629" y="-78.5" font-family="Helvetica,sans-Serif" font-size="10.00">SDK::UClass</text>
<polyline fill="none" stroke="black" points="568.5,-71.5 689.5,-71.5 "/>
<text text-anchor="start" x="576.5" y="-59.5" font-family="Helvetica,sans-Serif" font-size="10.00">+ UnknownData00</text>
<text text-anchor="start" x="576.5" y="-48.5" font-family="Helvetica,sans-Serif" font-size="10.00">+ UnknownData01</text>
<polyline fill="none" stroke="black" points="568.5,-41.5 689.5,-41.5 "/>
<text text-anchor="start" x="576.5" y="-29.5" font-family="Helvetica,sans-Serif" font-size="10.00">+ CreateDefaultObject()</text>
<text text-anchor="start" x="576.5" y="-18.5" font-family="Helvetica,sans-Serif" font-size="10.00">+ CreateDefaultObject()</text>
<text text-anchor="start" x="576.5" y="-7.5" font-family="Helvetica,sans-Serif" font-size="10.00">+ StaticClass()</text>
</a>
</g>
</g>
<!-- Node3&#45;&gt;Node11 -->
<g id="edge20" class="edge">
<title>Node3&#45;&gt;Node11</title>
<path fill="none" stroke="#404040" d="M486.99,-650.26C447.4,-608.99 411,-554.89 411,-495.5 411,-495.5 411,-495.5 411,-156 411,-89.55 492.88,-63.42 556.27,-53.15"/>
<polygon fill="none" stroke="#404040" points="556.41,-53.13 561.75,-48.29 568.27,-51.36 562.93,-56.2 556.41,-53.13"/>
<text text-anchor="middle" x="458.5" y="-293.5" font-family="Helvetica,sans-Serif" font-size="10.00"> +ClassDefaultObject</text>
</g>
<!-- Node14 -->
<g id="node14" class="node">
<title>Node14</title>
<g id="a_node14"><a xlink:href="../../de/dd6/classSDK_1_1UField.html" target="_top" xlink:title=" ">
<polygon fill="white" stroke="black" points="657.5,-466 657.5,-523 740.5,-523 740.5,-466 657.5,-466"/>
<text text-anchor="middle" x="699" y="-511" font-family="Helvetica,sans-Serif" font-size="10.00">SDK::UField</text>
<polyline fill="none" stroke="black" points="657.5,-504 740.5,-504 "/>
<text text-anchor="middle" x="699" y="-492" font-family="Helvetica,sans-Serif" font-size="10.00"> </text>
<polyline fill="none" stroke="black" points="657.5,-485 740.5,-485 "/>
<text text-anchor="start" x="665.5" y="-473" font-family="Helvetica,sans-Serif" font-size="10.00">+ StaticClass()</text>
</a>
</g>
</g>
<!-- Node3&#45;&gt;Node14 -->
<g id="edge17" class="edge">
<title>Node3&#45;&gt;Node14</title>
<path fill="none" stroke="midnightblue" d="M648.68,-600.14C662.7,-570.99 676.2,-542.91 685.68,-523.19"/>
<polygon fill="none" stroke="midnightblue" points="645.5,-598.68 644.32,-609.21 651.81,-601.72 645.5,-598.68"/>
</g>
<!-- Node4 -->
<g id="node4" class="node">
<title>Node4</title>
<g id="a_node4"><a xlink:href="../../d0/d22/structSDK_1_1FQWord.html" target="_top" xlink:title=" ">
<polygon fill="white" stroke="black" points="731,-1064 731,-1132 811,-1132 811,-1064 731,-1064"/>
<text text-anchor="middle" x="771" y="-1120" font-family="Helvetica,sans-Serif" font-size="10.00">SDK::FQWord</text>
<polyline fill="none" stroke="black" points="731,-1113 811,-1113 "/>
<text text-anchor="start" x="739" y="-1101" font-family="Helvetica,sans-Serif" font-size="10.00">+ A</text>
<text text-anchor="start" x="739" y="-1090" font-family="Helvetica,sans-Serif" font-size="10.00">+ B</text>
<polyline fill="none" stroke="black" points="731,-1083 811,-1083 "/>
<text text-anchor="middle" x="771" y="-1071" font-family="Helvetica,sans-Serif" font-size="10.00"> </text>
</a>
</g>
</g>
<!-- Node4&#45;&gt;Node3 -->
<g id="edge3" class="edge">
<title>Node4&#45;&gt;Node3</title>
<path fill="none" stroke="#404040" d="M761.9,-1063.73C748.88,-1018.71 722.64,-936.57 688,-872 686.62,-869.43 685.21,-866.86 683.75,-864.29"/>
<polygon fill="none" stroke="#404040" points="683.62,-864.07 677.14,-860.91 677.57,-853.71 684.05,-856.88 683.62,-864.07"/>
<text text-anchor="middle" x="777" y="-942.5" font-family="Helvetica,sans-Serif" font-size="10.00"> +ObjectFlags</text>
</g>
<!-- Node5 -->
<g id="node5" class="node">
<title>Node5</title>
<g id="a_node5"><a xlink:href="../../d0/db6/structSDK_1_1FName.html" target="_top" xlink:title=" ">
<polygon fill="white" stroke="black" points="605.5,-1036.5 605.5,-1159.5 712.5,-1159.5 712.5,-1036.5 605.5,-1036.5"/>
<text text-anchor="middle" x="659" y="-1147.5" font-family="Helvetica,sans-Serif" font-size="10.00">SDK::FName</text>
<polyline fill="none" stroke="black" points="605.5,-1140.5 712.5,-1140.5 "/>
<text text-anchor="start" x="613.5" y="-1128.5" font-family="Helvetica,sans-Serif" font-size="10.00">+ Index</text>
<text text-anchor="start" x="613.5" y="-1117.5" font-family="Helvetica,sans-Serif" font-size="10.00">+ Number</text>
<polyline fill="none" stroke="black" points="605.5,-1110.5 712.5,-1110.5 "/>
<text text-anchor="start" x="613.5" y="-1098.5" font-family="Helvetica,sans-Serif" font-size="10.00">+ FName()</text>
<text text-anchor="start" x="613.5" y="-1087.5" font-family="Helvetica,sans-Serif" font-size="10.00">+ FName()</text>
<text text-anchor="start" x="613.5" y="-1076.5" font-family="Helvetica,sans-Serif" font-size="10.00">+ FName()</text>
<text text-anchor="start" x="613.5" y="-1065.5" font-family="Helvetica,sans-Serif" font-size="10.00">+ GetName()</text>
<text text-anchor="start" x="613.5" y="-1054.5" font-family="Helvetica,sans-Serif" font-size="10.00">+ operator==()</text>
<text text-anchor="start" x="613.5" y="-1043.5" font-family="Helvetica,sans-Serif" font-size="10.00">+ GetGlobalNames()</text>
</a>
</g>
</g>
<!-- Node5&#45;&gt;Node3 -->
<g id="edge4" class="edge">
<title>Node5&#45;&gt;Node3</title>
<path fill="none" stroke="#404040" d="M650.94,-1036.05C644.52,-990.61 634.69,-927.15 623,-872 622.54,-869.84 622.07,-867.67 621.59,-865.48"/>
<polygon fill="none" stroke="#404040" points="621.57,-865.38 616.35,-860.41 618.92,-853.68 624.15,-858.65 621.57,-865.38"/>
<text text-anchor="middle" x="666" y="-942.5" font-family="Helvetica,sans-Serif" font-size="10.00"> +Name</text>
</g>
<!-- Node6 -->
<g id="node6" class="node">
<title>Node6</title>
<g id="a_node6"><a xlink:href="../../d3/d79/classSDK_1_1TArray.html" target="_top" xlink:title=" ">
<polygon fill="white" stroke="black" points="541,-1353.5 541,-1487.5 721,-1487.5 721,-1353.5 541,-1353.5"/>
<text text-anchor="middle" x="631" y="-1475.5" font-family="Helvetica,sans-Serif" font-size="10.00">SDK::TArray&lt; SDK::FNameEntry * &gt;</text>
<polyline fill="none" stroke="black" points="541,-1468.5 721,-1468.5 "/>
<text text-anchor="start" x="549" y="-1456.5" font-family="Helvetica,sans-Serif" font-size="10.00">&#45; Count</text>
<text text-anchor="start" x="549" y="-1445.5" font-family="Helvetica,sans-Serif" font-size="10.00">&#45; Max</text>
<polyline fill="none" stroke="black" points="541,-1438.5 721,-1438.5 "/>
<text text-anchor="start" x="549" y="-1426.5" font-family="Helvetica,sans-Serif" font-size="10.00">+ TArray()</text>
<text text-anchor="start" x="549" y="-1415.5" font-family="Helvetica,sans-Serif" font-size="10.00">+ Num()</text>
<text text-anchor="start" x="549" y="-1404.5" font-family="Helvetica,sans-Serif" font-size="10.00">+ operator[]()</text>
<text text-anchor="start" x="549" y="-1393.5" font-family="Helvetica,sans-Serif" font-size="10.00">+ operator[]()</text>
<text text-anchor="start" x="549" y="-1382.5" font-family="Helvetica,sans-Serif" font-size="10.00">+ IsValidIndex()</text>
<text text-anchor="start" x="549" y="-1371.5" font-family="Helvetica,sans-Serif" font-size="10.00">+ GetByIndex()</text>
<text text-anchor="start" x="549" y="-1360.5" font-family="Helvetica,sans-Serif" font-size="10.00">+ GetByIndex()</text>
</a>
</g>
</g>
<!-- Node6&#45;&gt;Node5 -->
<g id="edge5" class="edge">
<title>Node6&#45;&gt;Node5</title>
<path fill="none" stroke="#404040" d="M636.77,-1353.48C641.4,-1300.5 647.89,-1226.2 652.66,-1171.56"/>
<polygon fill="none" stroke="#404040" points="652.67,-1171.47 649.21,-1165.15 653.71,-1159.52 657.18,-1165.84 652.67,-1171.47"/>
<text text-anchor="middle" x="675.5" y="-1254" font-family="Helvetica,sans-Serif" font-size="10.00"> +GNames</text>
</g>
<!-- Node7 -->
<g id="node7" class="node">
<title>Node7</title>
<g id="a_node7"><a xlink:href="../../d7/ddf/classSDK_1_1FNameEntry.html" target="_top" xlink:title=" ">
<polygon fill="white" stroke="black" points="581.5,-1574 581.5,-1642 680.5,-1642 680.5,-1574 581.5,-1574"/>
<text text-anchor="middle" x="631" y="-1630" font-family="Helvetica,sans-Serif" font-size="10.00">SDK::FNameEntry</text>
<polyline fill="none" stroke="black" points="581.5,-1623 680.5,-1623 "/>
<text text-anchor="start" x="589.5" y="-1611" font-family="Helvetica,sans-Serif" font-size="10.00">+ UnknownData00</text>
<text text-anchor="start" x="589.5" y="-1600" font-family="Helvetica,sans-Serif" font-size="10.00">+ name</text>
<polyline fill="none" stroke="black" points="581.5,-1593 680.5,-1593 "/>
<text text-anchor="start" x="589.5" y="-1581" font-family="Helvetica,sans-Serif" font-size="10.00">+ GetName()</text>
</a>
</g>
</g>
<!-- Node7&#45;&gt;Node6 -->
<g id="edge6" class="edge">
<title>Node7&#45;&gt;Node6</title>
<path fill="none" stroke="#404040" d="M631,-1573.84C631,-1553.23 631,-1525.83 631,-1499.95"/>
<polygon fill="none" stroke="#404040" points="631,-1499.8 627,-1493.8 631,-1487.8 635,-1493.8 631,-1499.8"/>
<text text-anchor="middle" x="645" y="-1509" font-family="Helvetica,sans-Serif" font-size="10.00"> &#45;Data</text>
</g>
<!-- Node8 -->
<g id="node8" class="node">
<title>Node8</title>
<g id="a_node8"><a xlink:href="../../d3/d79/classSDK_1_1TArray.html" target="_top" xlink:title=" ">
<polygon fill="white" stroke="black" points="177.5,-1535.5 177.5,-1680.5 274.5,-1680.5 274.5,-1535.5 177.5,-1535.5"/>
<text text-anchor="middle" x="226" y="-1668.5" font-family="Helvetica,sans-Serif" font-size="10.00">SDK::TArray&lt; T &gt;</text>
<polyline fill="none" stroke="black" points="177.5,-1661.5 274.5,-1661.5 "/>
<text text-anchor="start" x="185.5" y="-1649.5" font-family="Helvetica,sans-Serif" font-size="10.00">&#45; Data</text>
<text text-anchor="start" x="185.5" y="-1638.5" font-family="Helvetica,sans-Serif" font-size="10.00">&#45; Count</text>
<text text-anchor="start" x="185.5" y="-1627.5" font-family="Helvetica,sans-Serif" font-size="10.00">&#45; Max</text>
<polyline fill="none" stroke="black" points="177.5,-1620.5 274.5,-1620.5 "/>
<text text-anchor="start" x="185.5" y="-1608.5" font-family="Helvetica,sans-Serif" font-size="10.00">+ TArray()</text>
<text text-anchor="start" x="185.5" y="-1597.5" font-family="Helvetica,sans-Serif" font-size="10.00">+ Num()</text>
<text text-anchor="start" x="185.5" y="-1586.5" font-family="Helvetica,sans-Serif" font-size="10.00">+ operator[]()</text>
<text text-anchor="start" x="185.5" y="-1575.5" font-family="Helvetica,sans-Serif" font-size="10.00">+ operator[]()</text>
<text text-anchor="start" x="185.5" y="-1564.5" font-family="Helvetica,sans-Serif" font-size="10.00">+ IsValidIndex()</text>
<text text-anchor="start" x="185.5" y="-1553.5" font-family="Helvetica,sans-Serif" font-size="10.00">+ GetByIndex()</text>
<text text-anchor="start" x="185.5" y="-1542.5" font-family="Helvetica,sans-Serif" font-size="10.00">+ GetByIndex()</text>
</a>
</g>
</g>
<!-- Node8&#45;&gt;Node6 -->
<g id="edge7" class="edge">
<title>Node8&#45;&gt;Node6</title>
<path fill="none" stroke="orange" d="M284.02,-1580.42C351.14,-1549.68 462.45,-1498.7 540.87,-1462.78"/>
<polygon fill="orange" stroke="orange" points="282.49,-1577.28 274.85,-1584.62 285.4,-1583.64 282.49,-1577.28"/>
<text text-anchor="middle" x="495.5" y="-1509" font-family="Helvetica,sans-Serif" font-size="10.00"> &lt; SDK::FNameEntry * &gt;</text>
</g>
<!-- Node8&#45;&gt;Node9 -->
<g id="edge11" class="edge">
<title>Node8&#45;&gt;Node9</title>
<path fill="none" stroke="orange" d="M282.75,-1571.03C327,-1538.09 381,-1484.91 381,-1421.5 381,-1421.5 381,-1421.5 381,-730.5 381,-667.22 418.8,-606.03 454.98,-561.96"/>
<polygon fill="orange" stroke="orange" points="280.65,-1568.23 274.62,-1576.94 284.76,-1573.89 280.65,-1568.23"/>
<text text-anchor="middle" x="426.5" y="-1095.5" font-family="Helvetica,sans-Serif" font-size="10.00"> &lt; SDK::UObject * &gt;</text>
</g>
<!-- Node8&#45;&gt;Node15 -->
<g id="edge23" class="edge">
<title>Node8&#45;&gt;Node15</title>
<path fill="none" stroke="orange" d="M226,-1524.93C226,-1492.68 226,-1455.35 226,-1421.5 226,-1421.5 226,-1421.5 226,-493.5 226,-450.81 239.29,-405.16 253.47,-368.61"/>
<polygon fill="orange" stroke="orange" points="222.5,-1525.21 226,-1535.21 229.5,-1525.21 222.5,-1525.21"/>
<text text-anchor="middle" x="296" y="-942.5" font-family="Helvetica,sans-Serif" font-size="10.00"> &lt; class SDK::USoundNode * &gt;</text>
</g>
<!-- Node16 -->
<g id="node16" class="node">
<title>Node16</title>
<g id="a_node16"><a xlink:href="../../d3/d79/classSDK_1_1TArray.html" target="_top" xlink:title=" ">
<polygon fill="white" stroke="black" points="69.5,-1178.5 69.5,-1334.5 190.5,-1334.5 190.5,-1178.5 69.5,-1178.5"/>
<text text-anchor="start" x="77.5" y="-1322.5" font-family="Helvetica,sans-Serif" font-size="10.00">SDK::TArray&lt; unsigned</text>
<text text-anchor="middle" x="130" y="-1311.5" font-family="Helvetica,sans-Serif" font-size="10.00"> long &gt;</text>
<polyline fill="none" stroke="black" points="69.5,-1304.5 190.5,-1304.5 "/>
<text text-anchor="start" x="77.5" y="-1292.5" font-family="Helvetica,sans-Serif" font-size="10.00">&#45; Data</text>
<text text-anchor="start" x="77.5" y="-1281.5" font-family="Helvetica,sans-Serif" font-size="10.00">&#45; Count</text>
<text text-anchor="start" x="77.5" y="-1270.5" font-family="Helvetica,sans-Serif" font-size="10.00">&#45; Max</text>
<polyline fill="none" stroke="black" points="69.5,-1263.5 190.5,-1263.5 "/>
<text text-anchor="start" x="77.5" y="-1251.5" font-family="Helvetica,sans-Serif" font-size="10.00">+ TArray()</text>
<text text-anchor="start" x="77.5" y="-1240.5" font-family="Helvetica,sans-Serif" font-size="10.00">+ Num()</text>
<text text-anchor="start" x="77.5" y="-1229.5" font-family="Helvetica,sans-Serif" font-size="10.00">+ operator[]()</text>
<text text-anchor="start" x="77.5" y="-1218.5" font-family="Helvetica,sans-Serif" font-size="10.00">+ operator[]()</text>
<text text-anchor="start" x="77.5" y="-1207.5" font-family="Helvetica,sans-Serif" font-size="10.00">+ IsValidIndex()</text>
<text text-anchor="start" x="77.5" y="-1196.5" font-family="Helvetica,sans-Serif" font-size="10.00">+ GetByIndex()</text>
<text text-anchor="start" x="77.5" y="-1185.5" font-family="Helvetica,sans-Serif" font-size="10.00">+ GetByIndex()</text>
</a>
</g>
</g>
<!-- Node8&#45;&gt;Node16 -->
<g id="edge25" class="edge">
<title>Node8&#45;&gt;Node16</title>
<path fill="none" stroke="orange" d="M169.63,-1568.21C153.78,-1554.11 138.55,-1536.73 130,-1517 105.11,-1459.54 107.25,-1387.97 114.4,-1334.56"/>
<polygon fill="orange" stroke="orange" points="167.56,-1571.04 177.44,-1574.86 172.1,-1565.71 167.56,-1571.04"/>
<text text-anchor="middle" x="171" y="-1509" font-family="Helvetica,sans-Serif" font-size="10.00"> &lt; unsigned long &gt;</text>
</g>
<!-- Node17 -->
<g id="node17" class="node">
<title>Node17</title>
<g id="a_node17"><a xlink:href="../../d3/d79/classSDK_1_1TArray.html" target="_top" xlink:title=" ">
<polygon fill="white" stroke="black" points="0,-872.5 0,-1017.5 110,-1017.5 110,-872.5 0,-872.5"/>
<text text-anchor="middle" x="55" y="-1005.5" font-family="Helvetica,sans-Serif" font-size="10.00">SDK::TArray&lt; float &gt;</text>
<polyline fill="none" stroke="black" points="0,-998.5 110,-998.5 "/>
<text text-anchor="start" x="8" y="-986.5" font-family="Helvetica,sans-Serif" font-size="10.00">&#45; Data</text>
<text text-anchor="start" x="8" y="-975.5" font-family="Helvetica,sans-Serif" font-size="10.00">&#45; Count</text>
<text text-anchor="start" x="8" y="-964.5" font-family="Helvetica,sans-Serif" font-size="10.00">&#45; Max</text>
<polyline fill="none" stroke="black" points="0,-957.5 110,-957.5 "/>
<text text-anchor="start" x="8" y="-945.5" font-family="Helvetica,sans-Serif" font-size="10.00">+ TArray()</text>
<text text-anchor="start" x="8" y="-934.5" font-family="Helvetica,sans-Serif" font-size="10.00">+ Num()</text>
<text text-anchor="start" x="8" y="-923.5" font-family="Helvetica,sans-Serif" font-size="10.00">+ operator[]()</text>
<text text-anchor="start" x="8" y="-912.5" font-family="Helvetica,sans-Serif" font-size="10.00">+ operator[]()</text>
<text text-anchor="start" x="8" y="-901.5" font-family="Helvetica,sans-Serif" font-size="10.00">+ IsValidIndex()</text>
<text text-anchor="start" x="8" y="-890.5" font-family="Helvetica,sans-Serif" font-size="10.00">+ GetByIndex()</text>
<text text-anchor="start" x="8" y="-879.5" font-family="Helvetica,sans-Serif" font-size="10.00">+ GetByIndex()</text>
</a>
</g>
</g>
<!-- Node8&#45;&gt;Node17 -->
<g id="edge27" class="edge">
<title>Node8&#45;&gt;Node17</title>
<path fill="none" stroke="orange" d="M168.06,-1580.85C131.66,-1561.02 87.63,-1529.99 66,-1488 -12.46,-1335.73 15.08,-1126.03 37.56,-1017.51"/>
<polygon fill="orange" stroke="orange" points="166.65,-1584.07 177.13,-1585.65 169.93,-1577.88 166.65,-1584.07"/>
<text text-anchor="middle" x="86" y="-1418" font-family="Helvetica,sans-Serif" font-size="10.00"> &lt; float &gt;</text>
</g>
<!-- Node9&#45;&gt;Node3 -->
<g id="edge9" class="edge">
<title>Node9&#45;&gt;Node3</title>
<path fill="none" stroke="#404040" d="M509.78,-561.71C509.8,-571.61 510.7,-581.64 513,-591 513.56,-593.29 514.17,-595.58 514.82,-597.88"/>
<polygon fill="none" stroke="#404040" points="514.82,-597.89 520.43,-602.43 518.39,-609.35 512.79,-604.81 514.82,-597.89"/>
<text text-anchor="middle" x="538.5" y="-583" font-family="Helvetica,sans-Serif" font-size="10.00"> +GObjects</text>
</g>
<!-- Node10 -->
<g id="node10" class="node">
<title>Node10</title>
<g id="a_node10"><a xlink:href="../../d9/dfa/structSDK_1_1FPointer.html" target="_top" xlink:title=" ">
<polygon fill="white" stroke="black" points="490,-1064 490,-1132 588,-1132 588,-1064 490,-1064"/>
<text text-anchor="middle" x="539" y="-1120" font-family="Helvetica,sans-Serif" font-size="10.00">SDK::FPointer</text>
<polyline fill="none" stroke="black" points="490,-1113 588,-1113 "/>
<text text-anchor="start" x="498" y="-1101" font-family="Helvetica,sans-Serif" font-size="10.00">+ Dummy</text>
<text text-anchor="start" x="498" y="-1090" font-family="Helvetica,sans-Serif" font-size="10.00">+ UnknownData00</text>
<polyline fill="none" stroke="black" points="490,-1083 588,-1083 "/>
<text text-anchor="middle" x="539" y="-1071" font-family="Helvetica,sans-Serif" font-size="10.00"> </text>
</a>
</g>
</g>
<!-- Node10&#45;&gt;Node3 -->
<g id="edge12" class="edge">
<title>Node10&#45;&gt;Node3</title>
<path fill="none" stroke="#404040" d="M539.57,-1063.66C540.7,-1019.58 544.06,-939.59 554,-872 554.3,-869.93 554.62,-867.84 554.96,-865.75"/>
<polygon fill="none" stroke="#404040" points="555,-865.47 552.06,-858.89 557,-853.64 559.94,-860.22 555,-865.47"/>
<text text-anchor="middle" x="588.5" y="-953.5" font-family="Helvetica,sans-Serif" font-size="10.00"> +StateFrame</text>
<text text-anchor="middle" x="588.5" y="-942.5" font-family="Helvetica,sans-Serif" font-size="10.00">+VfTableObject</text>
<text text-anchor="middle" x="588.5" y="-931.5" font-family="Helvetica,sans-Serif" font-size="10.00">+LinkerIndex</text>
</g>
<!-- Node11&#45;&gt;Node3 -->
<g id="edge13" class="edge">
<title>Node11&#45;&gt;Node3</title>
<path fill="none" stroke="#404040" d="M629,-90.72C629,-110.67 629,-134.52 629,-156 629,-495.5 629,-495.5 629,-495.5 629,-528.75 624.78,-564.21 618.99,-597.25"/>
<polygon fill="none" stroke="#404040" points="618.95,-597.49 621.81,-604.12 616.79,-609.3 613.94,-602.68 618.95,-597.49"/>
<text text-anchor="middle" x="646.5" y="-293.5" font-family="Helvetica,sans-Serif" font-size="10.00"> +Class</text>
</g>
<!-- Node12 -->
<g id="node12" class="node">
<title>Node12</title>
<g id="a_node12"><a xlink:href="../../df/d72/classSDK_1_1UState.html" target="_top" xlink:title=" ">
<polygon fill="white" stroke="black" points="669,-128.5 669,-185.5 767,-185.5 767,-128.5 669,-128.5"/>
<text text-anchor="middle" x="718" y="-173.5" font-family="Helvetica,sans-Serif" font-size="10.00">SDK::UState</text>
<polyline fill="none" stroke="black" points="669,-166.5 767,-166.5 "/>
<text text-anchor="start" x="677" y="-154.5" font-family="Helvetica,sans-Serif" font-size="10.00">+ UnknownData00</text>
<polyline fill="none" stroke="black" points="669,-147.5 767,-147.5 "/>
<text text-anchor="start" x="677" y="-135.5" font-family="Helvetica,sans-Serif" font-size="10.00">+ StaticClass()</text>
</a>
</g>
</g>
<!-- Node12&#45;&gt;Node11 -->
<g id="edge14" class="edge">
<title>Node12&#45;&gt;Node11</title>
<path fill="none" stroke="midnightblue" d="M689.01,-120.33C681.33,-110.89 672.95,-100.58 664.96,-90.74"/>
<polygon fill="none" stroke="midnightblue" points="686.52,-122.82 695.54,-128.37 691.95,-118.4 686.52,-122.82"/>
</g>
<!-- Node13 -->
<g id="node13" class="node">
<title>Node13</title>
<g id="a_node13"><a xlink:href="../../d8/de9/classSDK_1_1UStruct.html" target="_top" xlink:title=" ">
<polygon fill="white" stroke="black" points="682,-256.5 682,-335.5 780,-335.5 780,-256.5 682,-256.5"/>
<text text-anchor="middle" x="731" y="-323.5" font-family="Helvetica,sans-Serif" font-size="10.00">SDK::UStruct</text>
<polyline fill="none" stroke="black" points="682,-316.5 780,-316.5 "/>
<text text-anchor="start" x="690" y="-304.5" font-family="Helvetica,sans-Serif" font-size="10.00">+ UnknownData00</text>
<text text-anchor="start" x="690" y="-293.5" font-family="Helvetica,sans-Serif" font-size="10.00">+ PropertySize</text>
<text text-anchor="start" x="690" y="-282.5" font-family="Helvetica,sans-Serif" font-size="10.00">+ UnknownData01</text>
<polyline fill="none" stroke="black" points="682,-275.5 780,-275.5 "/>
<text text-anchor="start" x="690" y="-263.5" font-family="Helvetica,sans-Serif" font-size="10.00">+ StaticClass()</text>
</a>
</g>
</g>
<!-- Node13&#45;&gt;Node12 -->
<g id="edge15" class="edge">
<title>Node13&#45;&gt;Node12</title>
<path fill="none" stroke="midnightblue" d="M726.39,-246.43C724.46,-226.11 722.29,-203.22 720.64,-185.82"/>
<polygon fill="none" stroke="midnightblue" points="722.92,-246.85 727.34,-256.47 729.88,-246.19 722.92,-246.85"/>
</g>
<!-- Node14&#45;&gt;Node13 -->
<g id="edge16" class="edge">
<title>Node14&#45;&gt;Node13</title>
<path fill="none" stroke="midnightblue" d="M702.81,-455.67C705.07,-435.27 708.23,-409.69 712,-387 714.8,-370.14 718.58,-351.66 722.03,-335.84"/>
<polygon fill="none" stroke="midnightblue" points="699.31,-455.5 701.71,-465.82 706.27,-456.26 699.31,-455.5"/>
</g>
<!-- Node14&#45;&gt;Node13 -->
<g id="edge19" class="edge">
<title>Node14&#45;&gt;Node13</title>
<path fill="none" stroke="#404040" d="M703.52,-465.76C708.49,-435.25 716.58,-385.57 722.7,-347.99"/>
<polygon fill="none" stroke="#404040" points="722.76,-347.6 719.78,-341.04 724.69,-335.76 727.67,-342.32 722.76,-347.6"/>
<text text-anchor="middle" x="743" y="-401" font-family="Helvetica,sans-Serif" font-size="10.00"> +SuperField</text>
<text text-anchor="middle" x="743" y="-390" font-family="Helvetica,sans-Serif" font-size="10.00">+Children</text>
</g>
<!-- Node14&#45;&gt;Node14 -->
<g id="edge18" class="edge">
<title>Node14&#45;&gt;Node14</title>
<path fill="none" stroke="#404040" d="M740.71,-511.11C750.91,-509.88 758.5,-504.34 758.5,-494.5 758.5,-488.96 756.1,-484.79 752.18,-481.98"/>
<polygon fill="none" stroke="#404040" points="752.01,-481.92 745.01,-483.67 740.71,-477.89 747.7,-476.13 752.01,-481.92"/>
<text text-anchor="middle" x="774" y="-492" font-family="Helvetica,sans-Serif" font-size="10.00"> +Next</text>
</g>
<!-- Node15&#45;&gt;Node2 -->
<g id="edge21" class="edge">
<title>Node15&#45;&gt;Node2</title>
<path fill="none" stroke="#404040" d="M309.31,-368.88C310.73,-374.97 311.99,-381.07 313,-387 316.72,-408.82 318.27,-433.48 318.87,-453.57"/>
<polygon fill="none" stroke="#404040" points="318.88,-453.73 323.01,-459.64 319.14,-465.73 315.01,-459.81 318.88,-453.73"/>
<text text-anchor="middle" x="345.5" y="-395.5" font-family="Helvetica,sans-Serif" font-size="10.00"> +ChildNodes</text>
</g>
<!-- Node16&#45;&gt;Node1 -->
<g id="edge24" class="edge">
<title>Node16&#45;&gt;Node1</title>
<path fill="none" stroke="#404040" d="M128.06,-1178.24C126.65,-1115.63 125,-1025.13 125,-946 125,-946 125,-946 125,-493.5 125,-443.98 124.04,-387.45 123.2,-347.77"/>
<polygon fill="none" stroke="#404040" points="123.2,-347.77 119.07,-341.86 122.94,-335.77 127.07,-341.68 123.2,-347.77"/>
<text text-anchor="middle" x="161.5" y="-729" font-family="Helvetica,sans-Serif" font-size="10.00"> +HasBeenUsed</text>
</g>
<!-- Node17&#45;&gt;Node1 -->
<g id="edge26" class="edge">
<title>Node17&#45;&gt;Node1</title>
<path fill="none" stroke="#404040" d="M53.36,-872.26C52.52,-798.66 53.53,-680.97 65,-580 74.35,-497.65 95.41,-403.6 109.14,-347.33"/>
<polygon fill="none" stroke="#404040" points="109.17,-347.23 106.72,-340.45 112.04,-335.58 114.49,-342.36 109.17,-347.23"/>
<text text-anchor="middle" x="88" y="-583" font-family="Helvetica,sans-Serif" font-size="10.00"> +Weights</text>
</g>
</g>
</svg>
        <g id="navigator" transform="translate(0 0)" fill="#404254">
                <rect fill="#f2f5e9" fill-opacity="0.5" stroke="#606060" stroke-width=".5" x="0" y="0" width="60" height="60"/>
                <use id="zoomplus" xlink:href="#zoomPlus" x="17" y="9" onmousedown="handleZoom(evt,'in')"/>
                <use id="zoomminus" xlink:href="#zoomMin" x="42" y="9" onmousedown="handleZoom(evt,'out')"/>
                <use id="reset" xlink:href="#resetDef" x="30" y="36" onmousedown="handleReset()"/>
                <g id="arrowUp" xlink:href="#dirArrow" transform="translate(30 24)" onmousedown="handlePan(0,-1)">
                  <use xlink:href="#rim" fill="#404040">
                        <set attributeName="fill" to="#808080" begin="arrowUp.mouseover" end="arrowUp.mouseout"/>
                  </use>
                  <path fill="none" stroke="white" stroke-width="1.5" d="M0,-3.0v7 M-2.5,-0.5L0,-3.0L2.5,-0.5"/>
                </g>
                <g id="arrowRight" xlink:href="#dirArrow" transform="rotate(90) translate(36 -43)" onmousedown="handlePan(1,0)">
                  <use xlink:href="#rim" fill="#404040">
                        <set attributeName="fill" to="#808080" begin="arrowRight.mouseover" end="arrowRight.mouseout"/>
                  </use>
                  <path fill="none" stroke="white" stroke-width="1.5" d="M0,-3.0v7 M-2.5,-0.5L0,-3.0L2.5,-0.5"/>
                </g>
                <g id="arrowDown" xlink:href="#dirArrow" transform="rotate(180) translate(-30 -48)" onmousedown="handlePan(0,1)">
                  <use xlink:href="#rim" fill="#404040">
                        <set attributeName="fill" to="#808080" begin="arrowDown.mouseover" end="arrowDown.mouseout"/>
                  </use>
                  <path fill="none" stroke="white" stroke-width="1.5" d="M0,-3.0v7 M-2.5,-0.5L0,-3.0L2.5,-0.5"/>
                </g>
                <g id="arrowLeft" xlink:href="#dirArrow" transform="rotate(270) translate(-36 17)" onmousedown="handlePan(-1,0)">
                  <use xlink:href="#rim" fill="#404040">
                        <set attributeName="fill" to="#808080" begin="arrowLeft.mouseover" end="arrowLeft.mouseout"/>
                  </use>
                  <path fill="none" stroke="white" stroke-width="1.5" d="M0,-3.0v7 M-2.5,-0.5L0,-3.0L2.5,-0.5"/>
                </g>
        </g>
        <svg viewBox="0 0 15 15" width="100%" height="30px" preserveAspectRatio="xMaxYMin meet">
         <g id="arrow_out" transform="scale(0.3 0.3)">
          <a xlink:href="classSDK_1_1USoundNodeRandom__coll__graph_org.svg" target="_base">
           <rect id="button" ry="5" rx="5" y="6" x="6" height="38" width="38"
                fill="#f2f5e9" fill-opacity="0.5" stroke="#606060" stroke-width="1.0"/>
           <path id="arrow"
             d="M 11.500037,31.436501 C 11.940474,20.09759 22.043105,11.32322 32.158766,21.979434 L 37.068811,17.246167 C 37.068811,17.246167 37.088388,32 37.088388,32 L 22.160133,31.978069 C 22.160133,31.978069 26.997745,27.140456 26.997745,27.140456 C 18.528582,18.264221 13.291696,25.230495 11.500037,31.436501 z"
             style="fill:#404040;"/>
          </a>
         </g>
        </svg>
</svg>
