<?xml version="1.0" encoding="UTF-8" standalone="no"?>
<!DOCTYPE svg PUBLIC "-//W3C//DTD SVG 1.1//EN"
 "http://www.w3.org/Graphics/SVG/1.1/DTD/svg11.dtd">
<!-- Generated by graphviz version 2.41.20171026.1811 (20171026.1811)
 -->
<!-- Title: SDK::UAnimNotify_Scripted Pages: 1 -->
<svg width="510pt" height="926pt"
 viewBox="0.00 0.00 509.50 926.00" xmlns="http://www.w3.org/2000/svg" xmlns:xlink="http://www.w3.org/1999/xlink">
<g id="graph0" class="graph" transform="scale(1 1) rotate(0) translate(4 922)">
<title>SDK::UAnimNotify_Scripted</title>
<polygon fill="white" stroke="transparent" points="-4,4 -4,-922 505.5,-922 505.5,4 -4,4"/>
<!-- Node1 -->
<g id="node1" class="node">
<title>Node1</title>
<g id="a_node1"><a xlink:title=" ">
<polygon fill="#bfbfbf" stroke="black" points="184.5,-331.5 184.5,-410.5 325.5,-410.5 325.5,-331.5 184.5,-331.5"/>
<text text-anchor="middle" x="255" y="-398.5" font-family="Helvetica,sans-Serif" font-size="10.00">SDK::UAnimNotify_Scripted</text>
<polyline fill="none" stroke="black" points="184.5,-391.5 325.5,-391.5 "/>
<text text-anchor="middle" x="255" y="-379.5" font-family="Helvetica,sans-Serif" font-size="10.00"> </text>
<polyline fill="none" stroke="black" points="184.5,-372.5 325.5,-372.5 "/>
<text text-anchor="start" x="192.5" y="-360.5" font-family="Helvetica,sans-Serif" font-size="10.00">+ NotifyEnd()</text>
<text text-anchor="start" x="192.5" y="-349.5" font-family="Helvetica,sans-Serif" font-size="10.00">+ Notify()</text>
<text text-anchor="start" x="192.5" y="-338.5" font-family="Helvetica,sans-Serif" font-size="10.00">+ StaticClass()</text>
</a>
</g>
</g>
<!-- Node4 -->
<g id="node4" class="node">
<title>Node4</title>
<g id="a_node4"><a xlink:href="../../d6/d74/classSDK_1_1UAnimNotify__PawnMaterialParam.html" target="_top" xlink:title=" ">
<polygon fill="white" stroke="black" points="0,-160.5 0,-239.5 164,-239.5 164,-160.5 0,-160.5"/>
<text text-anchor="start" x="8" y="-227.5" font-family="Helvetica,sans-Serif" font-size="10.00">SDK::UAnimNotify_PawnMaterial</text>
<text text-anchor="middle" x="82" y="-216.5" font-family="Helvetica,sans-Serif" font-size="10.00">Param</text>
<polyline fill="none" stroke="black" points="0,-209.5 164,-209.5 "/>
<text text-anchor="start" x="8" y="-197.5" font-family="Helvetica,sans-Serif" font-size="10.00">+ ScalarParameterInterpArray</text>
<polyline fill="none" stroke="black" points="0,-190.5 164,-190.5 "/>
<text text-anchor="start" x="8" y="-178.5" font-family="Helvetica,sans-Serif" font-size="10.00">+ Notify()</text>
<text text-anchor="start" x="8" y="-167.5" font-family="Helvetica,sans-Serif" font-size="10.00">+ StaticClass()</text>
</a>
</g>
</g>
<!-- Node1&#45;&gt;Node4 -->
<g id="edge3" class="edge">
<title>Node1&#45;&gt;Node4</title>
<path fill="none" stroke="midnightblue" d="M204.08,-324.31C193.69,-314.74 182.91,-304.63 173,-295 154.76,-277.27 135.06,-257.06 118.67,-239.94"/>
<polygon fill="none" stroke="midnightblue" points="201.82,-326.99 211.56,-331.17 206.55,-321.83 201.82,-326.99"/>
</g>
<!-- Node5 -->
<g id="node5" class="node">
<title>Node5</title>
<g id="a_node5"><a xlink:href="../../db/deb/classSDK_1_1UAnimNotify__PlayFaceFXAnim.html" target="_top" xlink:title=" ">
<polygon fill="white" stroke="black" points="182,-127.5 182,-272.5 328,-272.5 328,-127.5 182,-127.5"/>
<text text-anchor="start" x="190" y="-260.5" font-family="Helvetica,sans-Serif" font-size="10.00">SDK::UAnimNotify_PlayFace</text>
<text text-anchor="middle" x="255" y="-249.5" font-family="Helvetica,sans-Serif" font-size="10.00">FXAnim</text>
<polyline fill="none" stroke="black" points="182,-242.5 328,-242.5 "/>
<text text-anchor="start" x="190" y="-230.5" font-family="Helvetica,sans-Serif" font-size="10.00">+ FaceFXAnimSetRef</text>
<text text-anchor="start" x="190" y="-219.5" font-family="Helvetica,sans-Serif" font-size="10.00">+ GroupName</text>
<text text-anchor="start" x="190" y="-208.5" font-family="Helvetica,sans-Serif" font-size="10.00">+ AnimName</text>
<text text-anchor="start" x="190" y="-197.5" font-family="Helvetica,sans-Serif" font-size="10.00">+ SoundCueToPlay</text>
<text text-anchor="start" x="190" y="-186.5" font-family="Helvetica,sans-Serif" font-size="10.00">+ AkEventToPlay</text>
<text text-anchor="start" x="190" y="-175.5" font-family="Helvetica,sans-Serif" font-size="10.00">+ bOverridePlayingAnim</text>
<text text-anchor="start" x="190" y="-164.5" font-family="Helvetica,sans-Serif" font-size="10.00">+ PlayFrequency</text>
<polyline fill="none" stroke="black" points="182,-157.5 328,-157.5 "/>
<text text-anchor="start" x="190" y="-145.5" font-family="Helvetica,sans-Serif" font-size="10.00">+ Notify()</text>
<text text-anchor="start" x="190" y="-134.5" font-family="Helvetica,sans-Serif" font-size="10.00">+ StaticClass()</text>
</a>
</g>
</g>
<!-- Node1&#45;&gt;Node5 -->
<g id="edge4" class="edge">
<title>Node1&#45;&gt;Node5</title>
<path fill="none" stroke="midnightblue" d="M255,-321.11C255,-306.03 255,-289.1 255,-272.81"/>
<polygon fill="none" stroke="midnightblue" points="251.5,-321.23 255,-331.23 258.5,-321.23 251.5,-321.23"/>
</g>
<!-- Node6 -->
<g id="node6" class="node">
<title>Node6</title>
<g id="a_node6"><a xlink:href="../../d2/d66/classSDK_1_1UAnimNotify__ViewShake.html" target="_top" xlink:title=" ">
<polygon fill="white" stroke="black" points="346.5,-105.5 346.5,-294.5 501.5,-294.5 501.5,-105.5 346.5,-105.5"/>
<text text-anchor="middle" x="424" y="-282.5" font-family="Helvetica,sans-Serif" font-size="10.00">SDK::UAnimNotify_ViewShake</text>
<polyline fill="none" stroke="black" points="346.5,-275.5 501.5,-275.5 "/>
<text text-anchor="start" x="354.5" y="-263.5" font-family="Helvetica,sans-Serif" font-size="10.00">+ Duration</text>
<text text-anchor="start" x="354.5" y="-252.5" font-family="Helvetica,sans-Serif" font-size="10.00">+ RotAmplitude</text>
<text text-anchor="start" x="354.5" y="-241.5" font-family="Helvetica,sans-Serif" font-size="10.00">+ RotFrequency</text>
<text text-anchor="start" x="354.5" y="-230.5" font-family="Helvetica,sans-Serif" font-size="10.00">+ LocAmplitude</text>
<text text-anchor="start" x="354.5" y="-219.5" font-family="Helvetica,sans-Serif" font-size="10.00">+ LocFrequency</text>
<text text-anchor="start" x="354.5" y="-208.5" font-family="Helvetica,sans-Serif" font-size="10.00">+ FOVAmplitude</text>
<text text-anchor="start" x="354.5" y="-197.5" font-family="Helvetica,sans-Serif" font-size="10.00">+ FOVFrequency</text>
<text text-anchor="start" x="354.5" y="-186.5" font-family="Helvetica,sans-Serif" font-size="10.00">+ bDoControllerVibration</text>
<text text-anchor="start" x="354.5" y="-175.5" font-family="Helvetica,sans-Serif" font-size="10.00">+ bUseBoneLocation</text>
<text text-anchor="start" x="354.5" y="-164.5" font-family="Helvetica,sans-Serif" font-size="10.00">+ ShakeRadius</text>
<text text-anchor="start" x="354.5" y="-153.5" font-family="Helvetica,sans-Serif" font-size="10.00">+ BoneName</text>
<text text-anchor="start" x="354.5" y="-142.5" font-family="Helvetica,sans-Serif" font-size="10.00">+ ShakeParams</text>
<polyline fill="none" stroke="black" points="346.5,-135.5 501.5,-135.5 "/>
<text text-anchor="start" x="354.5" y="-123.5" font-family="Helvetica,sans-Serif" font-size="10.00">+ Notify()</text>
<text text-anchor="start" x="354.5" y="-112.5" font-family="Helvetica,sans-Serif" font-size="10.00">+ StaticClass()</text>
</a>
</g>
</g>
<!-- Node1&#45;&gt;Node6 -->
<g id="edge5" class="edge">
<title>Node1&#45;&gt;Node6</title>
<path fill="none" stroke="midnightblue" d="M306.09,-324.48C316.47,-314.9 327.2,-304.74 337,-295 340,-292.02 343.03,-288.97 346.07,-285.86"/>
<polygon fill="none" stroke="midnightblue" points="303.61,-322.01 298.61,-331.35 308.35,-327.16 303.61,-322.01"/>
</g>
<!-- Node2 -->
<g id="node2" class="node">
<title>Node2</title>
<g id="a_node2"><a xlink:href="../../d8/dc5/classSDK_1_1UAnimNotify.html" target="_top" xlink:title=" ">
<polygon fill="white" stroke="black" points="188,-447.5 188,-526.5 322,-526.5 322,-447.5 188,-447.5"/>
<text text-anchor="middle" x="255" y="-514.5" font-family="Helvetica,sans-Serif" font-size="10.00">SDK::UAnimNotify</text>
<polyline fill="none" stroke="black" points="188,-507.5 322,-507.5 "/>
<text text-anchor="start" x="196" y="-495.5" font-family="Helvetica,sans-Serif" font-size="10.00">+ NotifyColor</text>
<text text-anchor="start" x="196" y="-484.5" font-family="Helvetica,sans-Serif" font-size="10.00">+ DrawNodeIndex</text>
<polyline fill="none" stroke="black" points="188,-477.5 322,-477.5 "/>
<text text-anchor="start" x="196" y="-465.5" font-family="Helvetica,sans-Serif" font-size="10.00">+ FindNextNotifyOfClass()</text>
<text text-anchor="start" x="196" y="-454.5" font-family="Helvetica,sans-Serif" font-size="10.00">+ StaticClass()</text>
</a>
</g>
</g>
<!-- Node2&#45;&gt;Node1 -->
<g id="edge1" class="edge">
<title>Node2&#45;&gt;Node1</title>
<path fill="none" stroke="midnightblue" d="M255,-437.15C255,-428.26 255,-419.1 255,-410.56"/>
<polygon fill="none" stroke="midnightblue" points="251.5,-437.4 255,-447.4 258.5,-437.4 251.5,-437.4"/>
</g>
<!-- Node3 -->
<g id="node3" class="node">
<title>Node3</title>
<g id="a_node3"><a xlink:href="../../d9/d45/classSDK_1_1UObject.html" target="_top" xlink:title=" ">
<polygon fill="white" stroke="black" points="156,-563.5 156,-917.5 354,-917.5 354,-563.5 156,-563.5"/>
<text text-anchor="middle" x="255" y="-905.5" font-family="Helvetica,sans-Serif" font-size="10.00">SDK::UObject</text>
<polyline fill="none" stroke="black" points="156,-898.5 354,-898.5 "/>
<text text-anchor="start" x="164" y="-886.5" font-family="Helvetica,sans-Serif" font-size="10.00">+ VfTableObject</text>
<text text-anchor="start" x="164" y="-875.5" font-family="Helvetica,sans-Serif" font-size="10.00">+ ObjectFlags</text>
<text text-anchor="start" x="164" y="-864.5" font-family="Helvetica,sans-Serif" font-size="10.00">+ StateFrame</text>
<text text-anchor="start" x="164" y="-853.5" font-family="Helvetica,sans-Serif" font-size="10.00">+ Linker</text>
<text text-anchor="start" x="164" y="-842.5" font-family="Helvetica,sans-Serif" font-size="10.00">+ LinkerIndex</text>
<text text-anchor="start" x="164" y="-831.5" font-family="Helvetica,sans-Serif" font-size="10.00">+ ObjectInternalInteger</text>
<text text-anchor="start" x="164" y="-820.5" font-family="Helvetica,sans-Serif" font-size="10.00">+ NetIndex</text>
<text text-anchor="start" x="164" y="-809.5" font-family="Helvetica,sans-Serif" font-size="10.00">+ Outer</text>
<text text-anchor="start" x="164" y="-798.5" font-family="Helvetica,sans-Serif" font-size="10.00">+ Name</text>
<text text-anchor="start" x="164" y="-787.5" font-family="Helvetica,sans-Serif" font-size="10.00">+ Class</text>
<text text-anchor="start" x="164" y="-776.5" font-family="Helvetica,sans-Serif" font-size="10.00">+ ObjectArchetype</text>
<text text-anchor="start" x="164" y="-765.5" font-family="Helvetica,sans-Serif" font-size="10.00">+ GObjects</text>
<polyline fill="none" stroke="black" points="156,-758.5 354,-758.5 "/>
<text text-anchor="start" x="164" y="-746.5" font-family="Helvetica,sans-Serif" font-size="10.00">+ UObject::GetName()</text>
<text text-anchor="start" x="164" y="-735.5" font-family="Helvetica,sans-Serif" font-size="10.00">+ GetFullName()</text>
<text text-anchor="start" x="164" y="-724.5" font-family="Helvetica,sans-Serif" font-size="10.00">+ IsA()</text>
<text text-anchor="start" x="164" y="-713.5" font-family="Helvetica,sans-Serif" font-size="10.00">+ ProcessEvent()</text>
<text text-anchor="start" x="164" y="-702.5" font-family="Helvetica,sans-Serif" font-size="10.00">+ STATIC_ProfNodeEvent()</text>
<text text-anchor="start" x="164" y="-691.5" font-family="Helvetica,sans-Serif" font-size="10.00">+ STATIC_ProfNodeSetDepthThreshold()</text>
<text text-anchor="start" x="164" y="-680.5" font-family="Helvetica,sans-Serif" font-size="10.00">+ STATIC_ProfNodeSetTimeThreshold</text>
<text text-anchor="start" x="164" y="-669.5" font-family="Helvetica,sans-Serif" font-size="10.00">Seconds()</text>
<text text-anchor="start" x="164" y="-658.5" font-family="Helvetica,sans-Serif" font-size="10.00">+ STATIC_ProfNodeStop()</text>
<text text-anchor="start" x="164" y="-647.5" font-family="Helvetica,sans-Serif" font-size="10.00">+ STATIC_ProfNodeStart()</text>
<text text-anchor="start" x="164" y="-636.5" font-family="Helvetica,sans-Serif" font-size="10.00">+ STATIC_GetStringFromGuid()</text>
<text text-anchor="start" x="164" y="-625.5" font-family="Helvetica,sans-Serif" font-size="10.00">and 298 more...</text>
<text text-anchor="start" x="164" y="-614.5" font-family="Helvetica,sans-Serif" font-size="10.00">+ GetGlobalObjects()</text>
<text text-anchor="start" x="164" y="-603.5" font-family="Helvetica,sans-Serif" font-size="10.00">+ FindObject()</text>
<text text-anchor="start" x="164" y="-592.5" font-family="Helvetica,sans-Serif" font-size="10.00">+ FindClass()</text>
<text text-anchor="start" x="164" y="-581.5" font-family="Helvetica,sans-Serif" font-size="10.00">+ GetObjectCasted()</text>
<text text-anchor="start" x="164" y="-570.5" font-family="Helvetica,sans-Serif" font-size="10.00">+ StaticClass()</text>
</a>
</g>
</g>
<!-- Node3&#45;&gt;Node2 -->
<g id="edge2" class="edge">
<title>Node3&#45;&gt;Node2</title>
<path fill="none" stroke="midnightblue" d="M255,-553.31C255,-543.77 255,-534.84 255,-526.83"/>
<polygon fill="none" stroke="midnightblue" points="251.5,-553.46 255,-563.46 258.5,-553.46 251.5,-553.46"/>
</g>
<!-- Node7 -->
<g id="node7" class="node">
<title>Node7</title>
<g id="a_node7"><a xlink:href="../../d3/d2f/classSDK_1_1UEFAnimNotify__ViewShake.html" target="_top" xlink:title=" ">
<polygon fill="white" stroke="black" points="367.5,-0.5 367.5,-68.5 480.5,-68.5 480.5,-0.5 367.5,-0.5"/>
<text text-anchor="start" x="375.5" y="-56.5" font-family="Helvetica,sans-Serif" font-size="10.00">SDK::UEFAnimNotify</text>
<text text-anchor="middle" x="424" y="-45.5" font-family="Helvetica,sans-Serif" font-size="10.00">_ViewShake</text>
<polyline fill="none" stroke="black" points="367.5,-38.5 480.5,-38.5 "/>
<text text-anchor="middle" x="424" y="-26.5" font-family="Helvetica,sans-Serif" font-size="10.00"> </text>
<polyline fill="none" stroke="black" points="367.5,-19.5 480.5,-19.5 "/>
<text text-anchor="start" x="375.5" y="-7.5" font-family="Helvetica,sans-Serif" font-size="10.00">+ StaticClass()</text>
</a>
</g>
</g>
<!-- Node6&#45;&gt;Node7 -->
<g id="edge6" class="edge">
<title>Node6&#45;&gt;Node7</title>
<path fill="none" stroke="midnightblue" d="M424,-95.27C424,-85.75 424,-76.67 424,-68.58"/>
<polygon fill="none" stroke="midnightblue" points="420.5,-95.31 424,-105.31 427.5,-95.31 420.5,-95.31"/>
</g>
</g>
</svg>
