<?xml version="1.0" encoding="UTF-8" standalone="no"?>
<!DOCTYPE svg PUBLIC "-//W3C//DTD SVG 1.1//EN"
 "http://www.w3.org/Graphics/SVG/1.1/DTD/svg11.dtd">
<!-- Generated by graphviz version 2.41.20171026.1811 (20171026.1811)
 -->
<!-- Title: SDK::UParticleModuleSizeBase Pages: 1 -->
<svg width="695pt" height="1430pt"
 viewBox="0.00 0.00 694.50 1430.00" xmlns="http://www.w3.org/2000/svg" xmlns:xlink="http://www.w3.org/1999/xlink">
<g id="graph0" class="graph" transform="scale(1 1) rotate(0) translate(4 1426)">
<title>SDK::UParticleModuleSizeBase</title>
<polygon fill="white" stroke="transparent" points="-4,4 -4,-1426 690.5,-1426 690.5,4 -4,4"/>
<!-- Node1 -->
<g id="node1" class="node">
<title>Node1</title>
<g id="a_node1"><a xlink:title=" ">
<polygon fill="#bfbfbf" stroke="black" points="523.5,-234.5 523.5,-291.5 681.5,-291.5 681.5,-234.5 523.5,-234.5"/>
<text text-anchor="middle" x="602.5" y="-279.5" font-family="Helvetica,sans-Serif" font-size="10.00">SDK::UParticleModuleSizeBase</text>
<polyline fill="none" stroke="black" points="523.5,-272.5 681.5,-272.5 "/>
<text text-anchor="middle" x="602.5" y="-260.5" font-family="Helvetica,sans-Serif" font-size="10.00"> </text>
<polyline fill="none" stroke="black" points="523.5,-253.5 681.5,-253.5 "/>
<text text-anchor="start" x="531.5" y="-241.5" font-family="Helvetica,sans-Serif" font-size="10.00">+ StaticClass()</text>
</a>
</g>
</g>
<!-- Node2 -->
<g id="node2" class="node">
<title>Node2</title>
<g id="a_node2"><a xlink:href="../../d5/df1/classSDK_1_1UParticleModule.html" target="_top" xlink:title=" ">
<polygon fill="white" stroke="black" points="520,-361.5 520,-561.5 673,-561.5 673,-361.5 520,-361.5"/>
<text text-anchor="middle" x="596.5" y="-549.5" font-family="Helvetica,sans-Serif" font-size="10.00">SDK::UParticleModule</text>
<polyline fill="none" stroke="black" points="520,-542.5 673,-542.5 "/>
<text text-anchor="start" x="528" y="-530.5" font-family="Helvetica,sans-Serif" font-size="10.00">+ bSpawnModule</text>
<text text-anchor="start" x="528" y="-519.5" font-family="Helvetica,sans-Serif" font-size="10.00">+ bUpdateModule</text>
<text text-anchor="start" x="528" y="-508.5" font-family="Helvetica,sans-Serif" font-size="10.00">+ bFinalUpdateModule</text>
<text text-anchor="start" x="528" y="-497.5" font-family="Helvetica,sans-Serif" font-size="10.00">+ bCurvesAsColor</text>
<text text-anchor="start" x="528" y="-486.5" font-family="Helvetica,sans-Serif" font-size="10.00">+ b3DDrawMode</text>
<text text-anchor="start" x="528" y="-475.5" font-family="Helvetica,sans-Serif" font-size="10.00">+ EnableToggle3DDrawMode</text>
<text text-anchor="start" x="528" y="-464.5" font-family="Helvetica,sans-Serif" font-size="10.00">+ bSupported3DDrawMode</text>
<text text-anchor="start" x="528" y="-453.5" font-family="Helvetica,sans-Serif" font-size="10.00">+ bEnabled</text>
<text text-anchor="start" x="528" y="-442.5" font-family="Helvetica,sans-Serif" font-size="10.00">+ bEditable</text>
<text text-anchor="start" x="528" y="-431.5" font-family="Helvetica,sans-Serif" font-size="10.00">+ LODDuplicate</text>
<text text-anchor="start" x="528" y="-420.5" font-family="Helvetica,sans-Serif" font-size="10.00">+ bSupportsRandomSeed</text>
<text text-anchor="start" x="528" y="-409.5" font-family="Helvetica,sans-Serif" font-size="10.00">+ bRequiresLoopingNotification</text>
<text text-anchor="start" x="528" y="-398.5" font-family="Helvetica,sans-Serif" font-size="10.00">+ LODValidity</text>
<text text-anchor="start" x="528" y="-387.5" font-family="Helvetica,sans-Serif" font-size="10.00">+ UnknownData00</text>
<polyline fill="none" stroke="black" points="520,-380.5 673,-380.5 "/>
<text text-anchor="start" x="528" y="-368.5" font-family="Helvetica,sans-Serif" font-size="10.00">+ StaticClass()</text>
</a>
</g>
</g>
<!-- Node2&#45;&gt;Node1 -->
<g id="edge1" class="edge">
<title>Node2&#45;&gt;Node1</title>
<path fill="none" stroke="midnightblue" d="M599.84,-351.22C600.51,-329.18 601.16,-307.88 601.65,-291.86"/>
<polygon fill="none" stroke="midnightblue" points="596.33,-351.28 599.53,-361.39 603.33,-351.5 596.33,-351.28"/>
</g>
<!-- Node3 -->
<g id="node3" class="node">
<title>Node3</title>
<g id="a_node3"><a xlink:href="../../d9/d45/classSDK_1_1UObject.html" target="_top" xlink:title=" ">
<polygon fill="white" stroke="black" points="240.5,-609.5 240.5,-853.5 438.5,-853.5 438.5,-609.5 240.5,-609.5"/>
<text text-anchor="middle" x="339.5" y="-841.5" font-family="Helvetica,sans-Serif" font-size="10.00">SDK::UObject</text>
<polyline fill="none" stroke="black" points="240.5,-834.5 438.5,-834.5 "/>
<text text-anchor="start" x="248.5" y="-822.5" font-family="Helvetica,sans-Serif" font-size="10.00">+ ObjectInternalInteger</text>
<text text-anchor="start" x="248.5" y="-811.5" font-family="Helvetica,sans-Serif" font-size="10.00">+ NetIndex</text>
<polyline fill="none" stroke="black" points="240.5,-804.5 438.5,-804.5 "/>
<text text-anchor="start" x="248.5" y="-792.5" font-family="Helvetica,sans-Serif" font-size="10.00">+ UObject::GetName()</text>
<text text-anchor="start" x="248.5" y="-781.5" font-family="Helvetica,sans-Serif" font-size="10.00">+ GetFullName()</text>
<text text-anchor="start" x="248.5" y="-770.5" font-family="Helvetica,sans-Serif" font-size="10.00">+ IsA()</text>
<text text-anchor="start" x="248.5" y="-759.5" font-family="Helvetica,sans-Serif" font-size="10.00">+ ProcessEvent()</text>
<text text-anchor="start" x="248.5" y="-748.5" font-family="Helvetica,sans-Serif" font-size="10.00">+ STATIC_ProfNodeEvent()</text>
<text text-anchor="start" x="248.5" y="-737.5" font-family="Helvetica,sans-Serif" font-size="10.00">+ STATIC_ProfNodeSetDepthThreshold()</text>
<text text-anchor="start" x="248.5" y="-726.5" font-family="Helvetica,sans-Serif" font-size="10.00">+ STATIC_ProfNodeSetTimeThreshold</text>
<text text-anchor="start" x="248.5" y="-715.5" font-family="Helvetica,sans-Serif" font-size="10.00">Seconds()</text>
<text text-anchor="start" x="248.5" y="-704.5" font-family="Helvetica,sans-Serif" font-size="10.00">+ STATIC_ProfNodeStop()</text>
<text text-anchor="start" x="248.5" y="-693.5" font-family="Helvetica,sans-Serif" font-size="10.00">+ STATIC_ProfNodeStart()</text>
<text text-anchor="start" x="248.5" y="-682.5" font-family="Helvetica,sans-Serif" font-size="10.00">+ STATIC_GetStringFromGuid()</text>
<text text-anchor="start" x="248.5" y="-671.5" font-family="Helvetica,sans-Serif" font-size="10.00">and 298 more...</text>
<text text-anchor="start" x="248.5" y="-660.5" font-family="Helvetica,sans-Serif" font-size="10.00">+ GetGlobalObjects()</text>
<text text-anchor="start" x="248.5" y="-649.5" font-family="Helvetica,sans-Serif" font-size="10.00">+ FindObject()</text>
<text text-anchor="start" x="248.5" y="-638.5" font-family="Helvetica,sans-Serif" font-size="10.00">+ FindClass()</text>
<text text-anchor="start" x="248.5" y="-627.5" font-family="Helvetica,sans-Serif" font-size="10.00">+ GetObjectCasted()</text>
<text text-anchor="start" x="248.5" y="-616.5" font-family="Helvetica,sans-Serif" font-size="10.00">+ StaticClass()</text>
</a>
</g>
</g>
<!-- Node3&#45;&gt;Node2 -->
<g id="edge2" class="edge">
<title>Node3&#45;&gt;Node2</title>
<path fill="none" stroke="midnightblue" d="M445.82,-619.63C470.6,-593.79 496.51,-566.77 519.72,-542.57"/>
<polygon fill="none" stroke="midnightblue" points="443.26,-617.24 438.86,-626.88 448.31,-622.09 443.26,-617.24"/>
</g>
<!-- Node3&#45;&gt;Node3 -->
<g id="edge8" class="edge">
<title>Node3&#45;&gt;Node3</title>
<path fill="none" stroke="#404040" d="M438.51,-754.53C449.44,-750.15 456.5,-742.48 456.5,-731.5 456.5,-724.64 453.74,-719.07 449.01,-714.78"/>
<polygon fill="none" stroke="#404040" points="448.8,-714.66 441.59,-714.99 438.51,-708.47 445.72,-708.14 448.8,-714.66"/>
<text text-anchor="middle" x="496" y="-740" font-family="Helvetica,sans-Serif" font-size="10.00"> +Outer</text>
<text text-anchor="middle" x="496" y="-729" font-family="Helvetica,sans-Serif" font-size="10.00">+Linker</text>
<text text-anchor="middle" x="496" y="-718" font-family="Helvetica,sans-Serif" font-size="10.00">+ObjectArchetype</text>
</g>
<!-- Node9 -->
<g id="node9" class="node">
<title>Node9</title>
<g id="a_node9"><a xlink:href="../../d3/d79/classSDK_1_1TArray.html" target="_top" xlink:title=" ">
<polygon fill="white" stroke="black" points="0,-394.5 0,-528.5 161,-528.5 161,-394.5 0,-394.5"/>
<text text-anchor="middle" x="80.5" y="-516.5" font-family="Helvetica,sans-Serif" font-size="10.00">SDK::TArray&lt; SDK::UObject * &gt;</text>
<polyline fill="none" stroke="black" points="0,-509.5 161,-509.5 "/>
<text text-anchor="start" x="8" y="-497.5" font-family="Helvetica,sans-Serif" font-size="10.00">&#45; Count</text>
<text text-anchor="start" x="8" y="-486.5" font-family="Helvetica,sans-Serif" font-size="10.00">&#45; Max</text>
<polyline fill="none" stroke="black" points="0,-479.5 161,-479.5 "/>
<text text-anchor="start" x="8" y="-467.5" font-family="Helvetica,sans-Serif" font-size="10.00">+ TArray()</text>
<text text-anchor="start" x="8" y="-456.5" font-family="Helvetica,sans-Serif" font-size="10.00">+ Num()</text>
<text text-anchor="start" x="8" y="-445.5" font-family="Helvetica,sans-Serif" font-size="10.00">+ operator[]()</text>
<text text-anchor="start" x="8" y="-434.5" font-family="Helvetica,sans-Serif" font-size="10.00">+ operator[]()</text>
<text text-anchor="start" x="8" y="-423.5" font-family="Helvetica,sans-Serif" font-size="10.00">+ IsValidIndex()</text>
<text text-anchor="start" x="8" y="-412.5" font-family="Helvetica,sans-Serif" font-size="10.00">+ GetByIndex()</text>
<text text-anchor="start" x="8" y="-401.5" font-family="Helvetica,sans-Serif" font-size="10.00">+ GetByIndex()</text>
</a>
</g>
</g>
<!-- Node3&#45;&gt;Node9 -->
<g id="edge10" class="edge">
<title>Node3&#45;&gt;Node9</title>
<path fill="none" stroke="#404040" d="M240.31,-666.43C210.94,-644.66 180.1,-618.75 155.5,-591 141.75,-575.49 129.25,-557.07 118.57,-539.1"/>
<polygon fill="none" stroke="#404040" points="118.5,-538.98 112.04,-535.79 112.49,-528.59 118.96,-531.79 118.5,-538.98"/>
<text text-anchor="middle" x="169.5" y="-583" font-family="Helvetica,sans-Serif" font-size="10.00"> &#45;Data</text>
</g>
<!-- Node11 -->
<g id="node11" class="node">
<title>Node11</title>
<g id="a_node11"><a xlink:href="../../d7/d85/classSDK_1_1UClass.html" target="_top" xlink:title=" ">
<polygon fill="white" stroke="black" points="279,-0.5 279,-90.5 400,-90.5 400,-0.5 279,-0.5"/>
<text text-anchor="middle" x="339.5" y="-78.5" font-family="Helvetica,sans-Serif" font-size="10.00">SDK::UClass</text>
<polyline fill="none" stroke="black" points="279,-71.5 400,-71.5 "/>
<text text-anchor="start" x="287" y="-59.5" font-family="Helvetica,sans-Serif" font-size="10.00">+ UnknownData00</text>
<text text-anchor="start" x="287" y="-48.5" font-family="Helvetica,sans-Serif" font-size="10.00">+ UnknownData01</text>
<polyline fill="none" stroke="black" points="279,-41.5 400,-41.5 "/>
<text text-anchor="start" x="287" y="-29.5" font-family="Helvetica,sans-Serif" font-size="10.00">+ CreateDefaultObject()</text>
<text text-anchor="start" x="287" y="-18.5" font-family="Helvetica,sans-Serif" font-size="10.00">+ CreateDefaultObject()</text>
<text text-anchor="start" x="287" y="-7.5" font-family="Helvetica,sans-Serif" font-size="10.00">+ StaticClass()</text>
</a>
</g>
</g>
<!-- Node3&#45;&gt;Node11 -->
<g id="edge20" class="edge">
<title>Node3&#45;&gt;Node11</title>
<path fill="none" stroke="#404040" d="M385.77,-609.2C399.28,-563.86 410.5,-511.48 410.5,-462.5 410.5,-462.5 410.5,-462.5 410.5,-156 410.5,-136.21 402.23,-117.17 391.34,-100.68"/>
<polygon fill="none" stroke="#404040" points="391.23,-100.53 384.49,-97.96 384.26,-90.75 391,-93.32 391.23,-100.53"/>
<text text-anchor="middle" x="458" y="-260.5" font-family="Helvetica,sans-Serif" font-size="10.00"> +ClassDefaultObject</text>
</g>
<!-- Node14 -->
<g id="node14" class="node">
<title>Node14</title>
<g id="a_node14"><a xlink:href="../../de/dd6/classSDK_1_1UField.html" target="_top" xlink:title=" ">
<polygon fill="white" stroke="black" points="179,-433 179,-490 262,-490 262,-433 179,-433"/>
<text text-anchor="middle" x="220.5" y="-478" font-family="Helvetica,sans-Serif" font-size="10.00">SDK::UField</text>
<polyline fill="none" stroke="black" points="179,-471 262,-471 "/>
<text text-anchor="middle" x="220.5" y="-459" font-family="Helvetica,sans-Serif" font-size="10.00"> </text>
<polyline fill="none" stroke="black" points="179,-452 262,-452 "/>
<text text-anchor="start" x="187" y="-440" font-family="Helvetica,sans-Serif" font-size="10.00">+ StaticClass()</text>
</a>
</g>
</g>
<!-- Node3&#45;&gt;Node14 -->
<g id="edge17" class="edge">
<title>Node3&#45;&gt;Node14</title>
<path fill="none" stroke="midnightblue" d="M281.58,-600.05C263.18,-558.63 244.59,-516.75 232.83,-490.27"/>
<polygon fill="none" stroke="midnightblue" points="278.49,-601.72 285.74,-609.44 284.89,-598.88 278.49,-601.72"/>
</g>
<!-- Node4 -->
<g id="node4" class="node">
<title>Node4</title>
<g id="a_node4"><a xlink:href="../../d0/d22/structSDK_1_1FQWord.html" target="_top" xlink:title=" ">
<polygon fill="white" stroke="black" points="307.5,-951 307.5,-1019 387.5,-1019 387.5,-951 307.5,-951"/>
<text text-anchor="middle" x="347.5" y="-1007" font-family="Helvetica,sans-Serif" font-size="10.00">SDK::FQWord</text>
<polyline fill="none" stroke="black" points="307.5,-1000 387.5,-1000 "/>
<text text-anchor="start" x="315.5" y="-988" font-family="Helvetica,sans-Serif" font-size="10.00">+ A</text>
<text text-anchor="start" x="315.5" y="-977" font-family="Helvetica,sans-Serif" font-size="10.00">+ B</text>
<polyline fill="none" stroke="black" points="307.5,-970 387.5,-970 "/>
<text text-anchor="middle" x="347.5" y="-958" font-family="Helvetica,sans-Serif" font-size="10.00"> </text>
</a>
</g>
</g>
<!-- Node4&#45;&gt;Node3 -->
<g id="edge3" class="edge">
<title>Node4&#45;&gt;Node3</title>
<path fill="none" stroke="#404040" d="M346.45,-950.86C345.74,-928.57 344.75,-897.56 343.74,-865.9"/>
<polygon fill="none" stroke="#404040" points="343.74,-865.74 339.55,-859.87 343.36,-853.75 347.55,-859.62 343.74,-865.74"/>
<text text-anchor="middle" x="376.5" y="-886" font-family="Helvetica,sans-Serif" font-size="10.00"> +ObjectFlags</text>
</g>
<!-- Node5 -->
<g id="node5" class="node">
<title>Node5</title>
<g id="a_node5"><a xlink:href="../../d0/db6/structSDK_1_1FName.html" target="_top" xlink:title=" ">
<polygon fill="white" stroke="black" points="182,-923.5 182,-1046.5 289,-1046.5 289,-923.5 182,-923.5"/>
<text text-anchor="middle" x="235.5" y="-1034.5" font-family="Helvetica,sans-Serif" font-size="10.00">SDK::FName</text>
<polyline fill="none" stroke="black" points="182,-1027.5 289,-1027.5 "/>
<text text-anchor="start" x="190" y="-1015.5" font-family="Helvetica,sans-Serif" font-size="10.00">+ Index</text>
<text text-anchor="start" x="190" y="-1004.5" font-family="Helvetica,sans-Serif" font-size="10.00">+ Number</text>
<polyline fill="none" stroke="black" points="182,-997.5 289,-997.5 "/>
<text text-anchor="start" x="190" y="-985.5" font-family="Helvetica,sans-Serif" font-size="10.00">+ FName()</text>
<text text-anchor="start" x="190" y="-974.5" font-family="Helvetica,sans-Serif" font-size="10.00">+ FName()</text>
<text text-anchor="start" x="190" y="-963.5" font-family="Helvetica,sans-Serif" font-size="10.00">+ FName()</text>
<text text-anchor="start" x="190" y="-952.5" font-family="Helvetica,sans-Serif" font-size="10.00">+ GetName()</text>
<text text-anchor="start" x="190" y="-941.5" font-family="Helvetica,sans-Serif" font-size="10.00">+ operator==()</text>
<text text-anchor="start" x="190" y="-930.5" font-family="Helvetica,sans-Serif" font-size="10.00">+ GetGlobalNames()</text>
</a>
</g>
</g>
<!-- Node5&#45;&gt;Node3 -->
<g id="edge4" class="edge">
<title>Node5&#45;&gt;Node3</title>
<path fill="none" stroke="#404040" d="M260.54,-923.44C267.9,-905.66 276.24,-885.47 284.69,-865.04"/>
<polygon fill="none" stroke="#404040" points="284.8,-864.77 283.4,-857.7 289.39,-853.69 290.79,-860.76 284.8,-864.77"/>
<text text-anchor="middle" x="299.5" y="-886" font-family="Helvetica,sans-Serif" font-size="10.00"> +Name</text>
</g>
<!-- Node6 -->
<g id="node6" class="node">
<title>Node6</title>
<g id="a_node6"><a xlink:href="../../d3/d79/classSDK_1_1TArray.html" target="_top" xlink:title=" ">
<polygon fill="white" stroke="black" points="145.5,-1094.5 145.5,-1228.5 325.5,-1228.5 325.5,-1094.5 145.5,-1094.5"/>
<text text-anchor="middle" x="235.5" y="-1216.5" font-family="Helvetica,sans-Serif" font-size="10.00">SDK::TArray&lt; SDK::FNameEntry * &gt;</text>
<polyline fill="none" stroke="black" points="145.5,-1209.5 325.5,-1209.5 "/>
<text text-anchor="start" x="153.5" y="-1197.5" font-family="Helvetica,sans-Serif" font-size="10.00">&#45; Count</text>
<text text-anchor="start" x="153.5" y="-1186.5" font-family="Helvetica,sans-Serif" font-size="10.00">&#45; Max</text>
<polyline fill="none" stroke="black" points="145.5,-1179.5 325.5,-1179.5 "/>
<text text-anchor="start" x="153.5" y="-1167.5" font-family="Helvetica,sans-Serif" font-size="10.00">+ TArray()</text>
<text text-anchor="start" x="153.5" y="-1156.5" font-family="Helvetica,sans-Serif" font-size="10.00">+ Num()</text>
<text text-anchor="start" x="153.5" y="-1145.5" font-family="Helvetica,sans-Serif" font-size="10.00">+ operator[]()</text>
<text text-anchor="start" x="153.5" y="-1134.5" font-family="Helvetica,sans-Serif" font-size="10.00">+ operator[]()</text>
<text text-anchor="start" x="153.5" y="-1123.5" font-family="Helvetica,sans-Serif" font-size="10.00">+ IsValidIndex()</text>
<text text-anchor="start" x="153.5" y="-1112.5" font-family="Helvetica,sans-Serif" font-size="10.00">+ GetByIndex()</text>
<text text-anchor="start" x="153.5" y="-1101.5" font-family="Helvetica,sans-Serif" font-size="10.00">+ GetByIndex()</text>
</a>
</g>
</g>
<!-- Node6&#45;&gt;Node5 -->
<g id="edge5" class="edge">
<title>Node6&#45;&gt;Node5</title>
<path fill="none" stroke="#404040" d="M235.5,-1094.03C235.5,-1082.45 235.5,-1070.35 235.5,-1058.62"/>
<polygon fill="none" stroke="#404040" points="235.5,-1058.56 231.5,-1052.56 235.5,-1046.56 239.5,-1052.56 235.5,-1058.56"/>
<text text-anchor="middle" x="260" y="-1068" font-family="Helvetica,sans-Serif" font-size="10.00"> +GNames</text>
</g>
<!-- Node7 -->
<g id="node7" class="node">
<title>Node7</title>
<g id="a_node7"><a xlink:href="../../d7/ddf/classSDK_1_1FNameEntry.html" target="_top" xlink:title=" ">
<polygon fill="white" stroke="black" points="190,-1315 190,-1383 289,-1383 289,-1315 190,-1315"/>
<text text-anchor="middle" x="239.5" y="-1371" font-family="Helvetica,sans-Serif" font-size="10.00">SDK::FNameEntry</text>
<polyline fill="none" stroke="black" points="190,-1364 289,-1364 "/>
<text text-anchor="start" x="198" y="-1352" font-family="Helvetica,sans-Serif" font-size="10.00">+ UnknownData00</text>
<text text-anchor="start" x="198" y="-1341" font-family="Helvetica,sans-Serif" font-size="10.00">+ name</text>
<polyline fill="none" stroke="black" points="190,-1334 289,-1334 "/>
<text text-anchor="start" x="198" y="-1322" font-family="Helvetica,sans-Serif" font-size="10.00">+ GetName()</text>
</a>
</g>
</g>
<!-- Node7&#45;&gt;Node6 -->
<g id="edge6" class="edge">
<title>Node7&#45;&gt;Node6</title>
<path fill="none" stroke="#404040" d="M238.78,-1314.84C238.34,-1294.23 237.75,-1266.83 237.19,-1240.95"/>
<polygon fill="none" stroke="#404040" points="237.19,-1240.8 233.06,-1234.89 236.93,-1228.8 241.06,-1234.71 237.19,-1240.8"/>
<text text-anchor="middle" x="251.5" y="-1250" font-family="Helvetica,sans-Serif" font-size="10.00"> &#45;Data</text>
</g>
<!-- Node8 -->
<g id="node8" class="node">
<title>Node8</title>
<g id="a_node8"><a xlink:href="../../d3/d79/classSDK_1_1TArray.html" target="_top" xlink:title=" ">
<polygon fill="white" stroke="black" points="41,-1276.5 41,-1421.5 138,-1421.5 138,-1276.5 41,-1276.5"/>
<text text-anchor="middle" x="89.5" y="-1409.5" font-family="Helvetica,sans-Serif" font-size="10.00">SDK::TArray&lt; T &gt;</text>
<polyline fill="none" stroke="black" points="41,-1402.5 138,-1402.5 "/>
<text text-anchor="start" x="49" y="-1390.5" font-family="Helvetica,sans-Serif" font-size="10.00">&#45; Data</text>
<text text-anchor="start" x="49" y="-1379.5" font-family="Helvetica,sans-Serif" font-size="10.00">&#45; Count</text>
<text text-anchor="start" x="49" y="-1368.5" font-family="Helvetica,sans-Serif" font-size="10.00">&#45; Max</text>
<polyline fill="none" stroke="black" points="41,-1361.5 138,-1361.5 "/>
<text text-anchor="start" x="49" y="-1349.5" font-family="Helvetica,sans-Serif" font-size="10.00">+ TArray()</text>
<text text-anchor="start" x="49" y="-1338.5" font-family="Helvetica,sans-Serif" font-size="10.00">+ Num()</text>
<text text-anchor="start" x="49" y="-1327.5" font-family="Helvetica,sans-Serif" font-size="10.00">+ operator[]()</text>
<text text-anchor="start" x="49" y="-1316.5" font-family="Helvetica,sans-Serif" font-size="10.00">+ operator[]()</text>
<text text-anchor="start" x="49" y="-1305.5" font-family="Helvetica,sans-Serif" font-size="10.00">+ IsValidIndex()</text>
<text text-anchor="start" x="49" y="-1294.5" font-family="Helvetica,sans-Serif" font-size="10.00">+ GetByIndex()</text>
<text text-anchor="start" x="49" y="-1283.5" font-family="Helvetica,sans-Serif" font-size="10.00">+ GetByIndex()</text>
</a>
</g>
</g>
<!-- Node8&#45;&gt;Node6 -->
<g id="edge7" class="edge">
<title>Node8&#45;&gt;Node6</title>
<path fill="none" stroke="orange" d="M111.01,-1266.72C114.33,-1259.77 118.14,-1253.08 122.5,-1247 129.07,-1237.84 136.92,-1229.25 145.39,-1221.31"/>
<polygon fill="orange" stroke="orange" points="107.61,-1265.77 106.78,-1276.33 114.01,-1268.59 107.61,-1265.77"/>
<text text-anchor="middle" x="178" y="-1250" font-family="Helvetica,sans-Serif" font-size="10.00"> &lt; SDK::FNameEntry * &gt;</text>
</g>
<!-- Node8&#45;&gt;Node9 -->
<g id="edge11" class="edge">
<title>Node8&#45;&gt;Node9</title>
<path fill="none" stroke="orange" d="M78.75,-1266.08C75.37,-1233.85 72.5,-1196.5 72.5,-1162.5 72.5,-1162.5 72.5,-1162.5 72.5,-730.5 72.5,-661.61 75.17,-582.8 77.43,-528.57"/>
<polygon fill="orange" stroke="orange" points="75.3,-1266.78 79.86,-1276.35 82.26,-1266.03 75.3,-1266.78"/>
<text text-anchor="middle" x="118" y="-982.5" font-family="Helvetica,sans-Serif" font-size="10.00"> &lt; SDK::UObject * &gt;</text>
</g>
<!-- Node9&#45;&gt;Node3 -->
<g id="edge9" class="edge">
<title>Node9&#45;&gt;Node3</title>
<path fill="none" stroke="#404040" d="M138.59,-528.57C148.78,-539.83 159.36,-551.33 169.5,-562 189.25,-582.79 210.7,-604.61 231.5,-625.39"/>
<polygon fill="none" stroke="#404040" points="231.56,-625.45 238.63,-626.85 240.06,-633.92 232.98,-632.52 231.56,-625.45"/>
<text text-anchor="middle" x="223" y="-583" font-family="Helvetica,sans-Serif" font-size="10.00"> +GObjects</text>
</g>
<!-- Node10 -->
<g id="node10" class="node">
<title>Node10</title>
<g id="a_node10"><a xlink:href="../../d9/dfa/structSDK_1_1FPointer.html" target="_top" xlink:title=" ">
<polygon fill="white" stroke="black" points="405.5,-951 405.5,-1019 503.5,-1019 503.5,-951 405.5,-951"/>
<text text-anchor="middle" x="454.5" y="-1007" font-family="Helvetica,sans-Serif" font-size="10.00">SDK::FPointer</text>
<polyline fill="none" stroke="black" points="405.5,-1000 503.5,-1000 "/>
<text text-anchor="start" x="413.5" y="-988" font-family="Helvetica,sans-Serif" font-size="10.00">+ Dummy</text>
<text text-anchor="start" x="413.5" y="-977" font-family="Helvetica,sans-Serif" font-size="10.00">+ UnknownData00</text>
<polyline fill="none" stroke="black" points="405.5,-970 503.5,-970 "/>
<text text-anchor="middle" x="454.5" y="-958" font-family="Helvetica,sans-Serif" font-size="10.00"> </text>
</a>
</g>
</g>
<!-- Node10&#45;&gt;Node3 -->
<g id="edge12" class="edge">
<title>Node10&#45;&gt;Node3</title>
<path fill="none" stroke="#404040" d="M442.83,-950.77C434.67,-928.28 423.17,-898.04 411.5,-872 410.45,-869.67 409.39,-867.32 408.31,-864.96"/>
<polygon fill="none" stroke="#404040" points="408.2,-864.72 402.04,-860.97 403.13,-853.85 409.29,-857.59 408.2,-864.72"/>
<text text-anchor="middle" x="459" y="-897" font-family="Helvetica,sans-Serif" font-size="10.00"> +StateFrame</text>
<text text-anchor="middle" x="459" y="-886" font-family="Helvetica,sans-Serif" font-size="10.00">+VfTableObject</text>
<text text-anchor="middle" x="459" y="-875" font-family="Helvetica,sans-Serif" font-size="10.00">+LinkerIndex</text>
</g>
<!-- Node11&#45;&gt;Node3 -->
<g id="edge13" class="edge">
<title>Node11&#45;&gt;Node3</title>
<path fill="none" stroke="#404040" d="M339.5,-90.72C339.5,-110.67 339.5,-134.52 339.5,-156 339.5,-462.5 339.5,-462.5 339.5,-462.5 339.5,-506.41 339.5,-554.37 339.5,-597.42"/>
<polygon fill="none" stroke="#404040" points="339.5,-597.43 343.5,-603.43 339.5,-609.43 335.5,-603.43 339.5,-597.43"/>
<text text-anchor="middle" x="357" y="-260.5" font-family="Helvetica,sans-Serif" font-size="10.00"> +Class</text>
</g>
<!-- Node12 -->
<g id="node12" class="node">
<title>Node12</title>
<g id="a_node12"><a xlink:href="../../df/d72/classSDK_1_1UState.html" target="_top" xlink:title=" ">
<polygon fill="white" stroke="black" points="211.5,-128.5 211.5,-185.5 309.5,-185.5 309.5,-128.5 211.5,-128.5"/>
<text text-anchor="middle" x="260.5" y="-173.5" font-family="Helvetica,sans-Serif" font-size="10.00">SDK::UState</text>
<polyline fill="none" stroke="black" points="211.5,-166.5 309.5,-166.5 "/>
<text text-anchor="start" x="219.5" y="-154.5" font-family="Helvetica,sans-Serif" font-size="10.00">+ UnknownData00</text>
<polyline fill="none" stroke="black" points="211.5,-147.5 309.5,-147.5 "/>
<text text-anchor="start" x="219.5" y="-135.5" font-family="Helvetica,sans-Serif" font-size="10.00">+ StaticClass()</text>
</a>
</g>
</g>
<!-- Node12&#45;&gt;Node11 -->
<g id="edge14" class="edge">
<title>Node12&#45;&gt;Node11</title>
<path fill="none" stroke="midnightblue" d="M286.44,-120.04C293.2,-110.68 300.56,-100.48 307.58,-90.74"/>
<polygon fill="none" stroke="midnightblue" points="283.45,-118.21 280.44,-128.37 289.12,-122.31 283.45,-118.21"/>
</g>
<!-- Node13 -->
<g id="node13" class="node">
<title>Node13</title>
<g id="a_node13"><a xlink:href="../../d8/de9/classSDK_1_1UStruct.html" target="_top" xlink:title=" ">
<polygon fill="white" stroke="black" points="205.5,-223.5 205.5,-302.5 303.5,-302.5 303.5,-223.5 205.5,-223.5"/>
<text text-anchor="middle" x="254.5" y="-290.5" font-family="Helvetica,sans-Serif" font-size="10.00">SDK::UStruct</text>
<polyline fill="none" stroke="black" points="205.5,-283.5 303.5,-283.5 "/>
<text text-anchor="start" x="213.5" y="-271.5" font-family="Helvetica,sans-Serif" font-size="10.00">+ UnknownData00</text>
<text text-anchor="start" x="213.5" y="-260.5" font-family="Helvetica,sans-Serif" font-size="10.00">+ PropertySize</text>
<text text-anchor="start" x="213.5" y="-249.5" font-family="Helvetica,sans-Serif" font-size="10.00">+ UnknownData01</text>
<polyline fill="none" stroke="black" points="205.5,-242.5 303.5,-242.5 "/>
<text text-anchor="start" x="213.5" y="-230.5" font-family="Helvetica,sans-Serif" font-size="10.00">+ StaticClass()</text>
</a>
</g>
</g>
<!-- Node13&#45;&gt;Node12 -->
<g id="edge15" class="edge">
<title>Node13&#45;&gt;Node12</title>
<path fill="none" stroke="midnightblue" d="M257.32,-213.16C257.86,-203.74 258.41,-194.17 258.9,-185.72"/>
<polygon fill="none" stroke="midnightblue" points="253.82,-213.09 256.73,-223.27 260.8,-213.49 253.82,-213.09"/>
</g>
<!-- Node14&#45;&gt;Node13 -->
<g id="edge16" class="edge">
<title>Node14&#45;&gt;Node13</title>
<path fill="none" stroke="midnightblue" d="M235.94,-423.03C244.46,-400.31 254.17,-370.49 258.5,-343 260.02,-333.34 258.84,-330.77 258.5,-321 258.29,-315.05 257.96,-308.76 257.58,-302.61"/>
<polygon fill="none" stroke="midnightblue" points="232.58,-422.03 232.26,-432.62 239.11,-424.54 232.58,-422.03"/>
</g>
<!-- Node14&#45;&gt;Node13 -->
<g id="edge19" class="edge">
<title>Node14&#45;&gt;Node13</title>
<path fill="none" stroke="#404040" d="M207.7,-432.76C196.27,-403.86 183.46,-357.76 198.5,-321 199.67,-318.14 201.06,-315.34 202.63,-312.61"/>
<polygon fill="none" stroke="#404040" points="202.73,-312.47 202.76,-305.26 209.43,-302.52 209.4,-309.73 202.73,-312.47"/>
<text text-anchor="middle" x="226.5" y="-335" font-family="Helvetica,sans-Serif" font-size="10.00"> +SuperField</text>
<text text-anchor="middle" x="226.5" y="-324" font-family="Helvetica,sans-Serif" font-size="10.00">+Children</text>
</g>
<!-- Node14&#45;&gt;Node14 -->
<g id="edge18" class="edge">
<title>Node14&#45;&gt;Node14</title>
<path fill="none" stroke="#404040" d="M262.21,-484.39C272.41,-482.69 280,-475.06 280,-461.5 280,-453.66 277.46,-447.8 273.35,-443.93"/>
<polygon fill="none" stroke="#404040" points="273.04,-443.78 265.9,-444.81 262.21,-438.61 269.34,-437.59 273.04,-443.78"/>
<text text-anchor="middle" x="295.5" y="-459" font-family="Helvetica,sans-Serif" font-size="10.00"> +Next</text>
</g>
<!-- Node15 -->
<g id="node15" class="node">
<title>Node15</title>
<g id="a_node15"><a xlink:href="../../d4/daf/structSDK_1_1FColor.html" target="_top" xlink:title=" ">
<polygon fill="white" stroke="black" points="560,-681 560,-782 633,-782 633,-681 560,-681"/>
<text text-anchor="middle" x="596.5" y="-770" font-family="Helvetica,sans-Serif" font-size="10.00">SDK::FColor</text>
<polyline fill="none" stroke="black" points="560,-763 633,-763 "/>
<text text-anchor="start" x="568" y="-751" font-family="Helvetica,sans-Serif" font-size="10.00">+ B</text>
<text text-anchor="start" x="568" y="-740" font-family="Helvetica,sans-Serif" font-size="10.00">+ G</text>
<text text-anchor="start" x="568" y="-729" font-family="Helvetica,sans-Serif" font-size="10.00">+ R</text>
<text text-anchor="start" x="568" y="-718" font-family="Helvetica,sans-Serif" font-size="10.00">+ A</text>
<polyline fill="none" stroke="black" points="560,-711 633,-711 "/>
<text text-anchor="start" x="568" y="-699" font-family="Helvetica,sans-Serif" font-size="10.00">+ FColor()</text>
<text text-anchor="start" x="568" y="-688" font-family="Helvetica,sans-Serif" font-size="10.00">+ FColor()</text>
</a>
</g>
</g>
<!-- Node15&#45;&gt;Node2 -->
<g id="edge21" class="edge">
<title>Node15&#45;&gt;Node2</title>
<path fill="none" stroke="#404040" d="M596.5,-680.72C596.5,-650.73 596.5,-611.28 596.5,-574.18"/>
<polygon fill="none" stroke="#404040" points="596.5,-573.7 592.5,-567.7 596.5,-561.7 600.5,-567.7 596.5,-573.7"/>
<text text-anchor="middle" x="641.5" y="-583" font-family="Helvetica,sans-Serif" font-size="10.00"> +ModuleEditorColor</text>
</g>
</g>
</svg>
