<?xml version="1.0" encoding="UTF-8" standalone="no"?>
<!DOCTYPE svg PUBLIC "-//W3C//DTD SVG 1.1//EN"
 "http://www.w3.org/Graphics/SVG/1.1/DTD/svg11.dtd">
<!-- Generated by graphviz version 2.41.20171026.1811 (20171026.1811)
 -->
<!-- Title: SDK::FEFDestructionPartsMatActionUnit Pages: 1 -->
<!--zoomable 1078 -->
<svg id="main" version="1.1" xmlns="http://www.w3.org/2000/svg" xmlns:xlink="http://www.w3.org/1999/xlink" xml:space="preserve" onload="init(evt)">
<style type="text/css"><![CDATA[
.edge:hover path { stroke: red; }
.edge:hover polygon { stroke: red; fill: red; }
]]></style>
<script type="text/javascript"><![CDATA[
var edges = document.getElementsByTagName('g');
if (edges && edges.length) {
  for (var i=0;i<edges.length;i++) {
    if (edges[i].id.substr(0,4)=='edge') {
      edges[i].setAttribute('class','edge');
    }
  }
}
]]></script>
        <defs>
                <circle id="rim" cx="0" cy="0" r="7"/>
                <circle id="rim2" cx="0" cy="0" r="3.5"/>
                <g id="zoomPlus">
                        <use xlink:href="#rim" fill="#404040">
                                <set attributeName="fill" to="#808080" begin="zoomplus.mouseover" end="zoomplus.mouseout"/>
                        </use>
                        <path d="M-4,0h8M0,-4v8" fill="none" stroke="white" stroke-width="1.5" pointer-events="none"/>
                </g>
                <g id="zoomMin">
                        <use xlink:href="#rim" fill="#404040">
                                <set attributeName="fill" to="#808080" begin="zoomminus.mouseover" end="zoomminus.mouseout"/>
                        </use>
                        <path d="M-4,0h8" fill="none" stroke="white" stroke-width="1.5" pointer-events="none"/>
                </g>
                <g id="dirArrow">
                        <path fill="none" stroke="white" stroke-width="1.5" d="M0,-3.0v7 M-2.5,-0.5L0,-3.0L2.5,-0.5"/>
                </g>
               <g id="resetDef">
                       <use xlink:href="#rim2" fill="#404040">
                               <set attributeName="fill" to="#808080" begin="reset.mouseover" end="reset.mouseout"/>
                       </use>
               </g>
        </defs>

<script type="text/javascript">
var viewWidth = 437;
var viewHeight = 1078;
var sectionId = 'dynsection-0';
</script>
<script xlink:href="../../svgpan.js"/>
<svg id="graph" class="graph">
<g id="viewport">
<title>SDK::FEFDestructionPartsMatActionUnit</title>
<polygon fill="white" stroke="transparent" points="-4,4 -4,-1074 432.5,-1074 432.5,4 -4,4"/>
<!-- Node1 -->
<g id="node1" class="node">
<title>Node1</title>
<g id="a_node1"><a xlink:title=" ">
<polygon fill="#bfbfbf" stroke="black" points="103.5,-0.5 103.5,-68.5 239.5,-68.5 239.5,-0.5 103.5,-0.5"/>
<text text-anchor="start" x="111.5" y="-56.5" font-family="Helvetica,sans-Serif" font-size="10.00">SDK::FEFDestructionParts</text>
<text text-anchor="middle" x="171.5" y="-45.5" font-family="Helvetica,sans-Serif" font-size="10.00">MatActionUnit</text>
<polyline fill="none" stroke="black" points="103.5,-38.5 239.5,-38.5 "/>
<text text-anchor="middle" x="171.5" y="-26.5" font-family="Helvetica,sans-Serif" font-size="10.00"> </text>
<polyline fill="none" stroke="black" points="103.5,-19.5 239.5,-19.5 "/>
<text text-anchor="middle" x="171.5" y="-7.5" font-family="Helvetica,sans-Serif" font-size="10.00"> </text>
</a>
</g>
</g>
<!-- Node2 -->
<g id="node2" class="node">
<title>Node2</title>
<g id="a_node2"><a xlink:href="../../d0/df9/structSDK_1_1FInterpCurveFloat.html" target="_top" xlink:title=" ">
<polygon fill="white" stroke="black" points="33.5,-149.5 33.5,-206.5 155.5,-206.5 155.5,-149.5 33.5,-149.5"/>
<text text-anchor="middle" x="94.5" y="-194.5" font-family="Helvetica,sans-Serif" font-size="10.00">SDK::FInterpCurveFloat</text>
<polyline fill="none" stroke="black" points="33.5,-187.5 155.5,-187.5 "/>
<text text-anchor="middle" x="94.5" y="-175.5" font-family="Helvetica,sans-Serif" font-size="10.00"> </text>
<polyline fill="none" stroke="black" points="33.5,-168.5 155.5,-168.5 "/>
<text text-anchor="middle" x="94.5" y="-156.5" font-family="Helvetica,sans-Serif" font-size="10.00"> </text>
</a>
</g>
</g>
<!-- Node2&#45;&gt;Node1 -->
<g id="edge1" class="edge">
<title>Node2&#45;&gt;Node1</title>
<path fill="none" stroke="#404040" d="M88.43,-149.37C85.8,-130.66 85.29,-105.99 95.5,-87 97.29,-83.67 99.4,-80.51 101.76,-77.53"/>
<polygon fill="none" stroke="#404040" points="101.89,-77.38 103.03,-70.26 110.04,-68.57 108.9,-75.69 101.89,-77.38"/>
<text text-anchor="start" x="95.5" y="-101" font-family="Helvetica,sans-Serif" font-size="10.00"> +sStartParameterValueCurve</text>
<text text-anchor="middle" x="161.5" y="-90" font-family="Helvetica,sans-Serif" font-size="10.00">Float</text>
</g>
<!-- Node3 -->
<g id="node3" class="node">
<title>Node3</title>
<g id="a_node3"><a xlink:href="../../d3/d79/classSDK_1_1TArray.html" target="_top" xlink:title=" ">
<polygon fill="white" stroke="black" points="12,-276.5 12,-421.5 169,-421.5 169,-276.5 12,-276.5"/>
<text text-anchor="start" x="20" y="-409.5" font-family="Helvetica,sans-Serif" font-size="10.00">SDK::TArray&lt; struct</text>
<text text-anchor="middle" x="90.5" y="-398.5" font-family="Helvetica,sans-Serif" font-size="10.00"> SDK::FInterpCurvePointFloat &gt;</text>
<polyline fill="none" stroke="black" points="12,-391.5 169,-391.5 "/>
<text text-anchor="start" x="20" y="-379.5" font-family="Helvetica,sans-Serif" font-size="10.00">&#45; Count</text>
<text text-anchor="start" x="20" y="-368.5" font-family="Helvetica,sans-Serif" font-size="10.00">&#45; Max</text>
<polyline fill="none" stroke="black" points="12,-361.5 169,-361.5 "/>
<text text-anchor="start" x="20" y="-349.5" font-family="Helvetica,sans-Serif" font-size="10.00">+ TArray()</text>
<text text-anchor="start" x="20" y="-338.5" font-family="Helvetica,sans-Serif" font-size="10.00">+ Num()</text>
<text text-anchor="start" x="20" y="-327.5" font-family="Helvetica,sans-Serif" font-size="10.00">+ operator[]()</text>
<text text-anchor="start" x="20" y="-316.5" font-family="Helvetica,sans-Serif" font-size="10.00">+ operator[]()</text>
<text text-anchor="start" x="20" y="-305.5" font-family="Helvetica,sans-Serif" font-size="10.00">+ IsValidIndex()</text>
<text text-anchor="start" x="20" y="-294.5" font-family="Helvetica,sans-Serif" font-size="10.00">+ GetByIndex()</text>
<text text-anchor="start" x="20" y="-283.5" font-family="Helvetica,sans-Serif" font-size="10.00">+ GetByIndex()</text>
</a>
</g>
</g>
<!-- Node3&#45;&gt;Node2 -->
<g id="edge2" class="edge">
<title>Node3&#45;&gt;Node2</title>
<path fill="none" stroke="#404040" d="M92.2,-276.33C92.66,-256.59 93.15,-235.89 93.56,-218.69"/>
<polygon fill="none" stroke="#404040" points="93.56,-218.56 89.71,-212.46 93.85,-206.56 97.7,-212.65 93.56,-218.56"/>
<text text-anchor="middle" x="112" y="-250" font-family="Helvetica,sans-Serif" font-size="10.00"> +Points</text>
</g>
<!-- Node4 -->
<g id="node4" class="node">
<title>Node4</title>
<g id="a_node4"><a xlink:href="../../d4/d01/structSDK_1_1FInterpCurvePointFloat.html" target="_top" xlink:title=" ">
<polygon fill="white" stroke="black" points="0,-508 0,-598 145,-598 145,-508 0,-508"/>
<text text-anchor="middle" x="72.5" y="-586" font-family="Helvetica,sans-Serif" font-size="10.00">SDK::FInterpCurvePointFloat</text>
<polyline fill="none" stroke="black" points="0,-579 145,-579 "/>
<text text-anchor="start" x="8" y="-567" font-family="Helvetica,sans-Serif" font-size="10.00">+ InVal</text>
<text text-anchor="start" x="8" y="-556" font-family="Helvetica,sans-Serif" font-size="10.00">+ OutVal</text>
<text text-anchor="start" x="8" y="-545" font-family="Helvetica,sans-Serif" font-size="10.00">+ ArriveTangent</text>
<text text-anchor="start" x="8" y="-534" font-family="Helvetica,sans-Serif" font-size="10.00">+ LeaveTangent</text>
<polyline fill="none" stroke="black" points="0,-527 145,-527 "/>
<text text-anchor="middle" x="72.5" y="-515" font-family="Helvetica,sans-Serif" font-size="10.00"> </text>
</a>
</g>
</g>
<!-- Node4&#45;&gt;Node3 -->
<g id="edge3" class="edge">
<title>Node4&#45;&gt;Node3</title>
<path fill="none" stroke="#404040" d="M61,-507.98C57.13,-487.28 54.65,-462.3 58.5,-440 58.87,-437.83 59.3,-435.64 59.76,-433.44"/>
<polygon fill="none" stroke="#404040" points="59.79,-433.3 57.31,-426.53 62.6,-421.63 65.09,-428.4 59.79,-433.3"/>
<text text-anchor="middle" x="72.5" y="-448.5" font-family="Helvetica,sans-Serif" font-size="10.00"> &#45;Data</text>
</g>
<!-- Node5 -->
<g id="node5" class="node">
<title>Node5</title>
<g id="a_node5"><a xlink:href="../../df/d1c/classSDK_1_1TEnumAsByte.html" target="_top" xlink:title=" ">
<polygon fill="white" stroke="black" points="56.5,-786.5 56.5,-909.5 208.5,-909.5 208.5,-786.5 56.5,-786.5"/>
<text text-anchor="start" x="64.5" y="-897.5" font-family="Helvetica,sans-Serif" font-size="10.00">SDK::TEnumAsByte&lt; EInterp</text>
<text text-anchor="middle" x="132.5" y="-886.5" font-family="Helvetica,sans-Serif" font-size="10.00">CurveMode &gt;</text>
<polyline fill="none" stroke="black" points="56.5,-879.5 208.5,-879.5 "/>
<text text-anchor="start" x="64.5" y="-867.5" font-family="Helvetica,sans-Serif" font-size="10.00">&#45; value</text>
<polyline fill="none" stroke="black" points="56.5,-860.5 208.5,-860.5 "/>
<text text-anchor="start" x="64.5" y="-848.5" font-family="Helvetica,sans-Serif" font-size="10.00">+ TEnumAsByte()</text>
<text text-anchor="start" x="64.5" y="-837.5" font-family="Helvetica,sans-Serif" font-size="10.00">+ TEnumAsByte()</text>
<text text-anchor="start" x="64.5" y="-826.5" font-family="Helvetica,sans-Serif" font-size="10.00">+ TEnumAsByte()</text>
<text text-anchor="start" x="64.5" y="-815.5" font-family="Helvetica,sans-Serif" font-size="10.00">+ TEnumAsByte()</text>
<text text-anchor="start" x="64.5" y="-804.5" font-family="Helvetica,sans-Serif" font-size="10.00">+ operator EInterpCurveMode()</text>
<text text-anchor="start" x="64.5" y="-793.5" font-family="Helvetica,sans-Serif" font-size="10.00">+ GetValue()</text>
</a>
</g>
</g>
<!-- Node5&#45;&gt;Node4 -->
<g id="edge4" class="edge">
<title>Node5&#45;&gt;Node4</title>
<path fill="none" stroke="#404040" d="M120.07,-786.29C109.48,-734.57 94.37,-660.82 84.05,-610.38"/>
<polygon fill="none" stroke="#404040" points="84,-610.16 78.88,-605.09 81.59,-598.41 86.72,-603.48 84,-610.16"/>
<text text-anchor="middle" x="144.5" y="-703.5" font-family="Helvetica,sans-Serif" font-size="10.00"> +InterpMode</text>
</g>
<!-- Node6 -->
<g id="node6" class="node">
<title>Node6</title>
<g id="a_node6"><a xlink:href="../../df/d1c/classSDK_1_1TEnumAsByte.html" target="_top" xlink:title=" ">
<polygon fill="white" stroke="black" points="121,-957.5 121,-1069.5 278,-1069.5 278,-957.5 121,-957.5"/>
<text text-anchor="middle" x="199.5" y="-1057.5" font-family="Helvetica,sans-Serif" font-size="10.00">SDK::TEnumAsByte&lt; TEnum &gt;</text>
<polyline fill="none" stroke="black" points="121,-1050.5 278,-1050.5 "/>
<text text-anchor="start" x="129" y="-1038.5" font-family="Helvetica,sans-Serif" font-size="10.00">&#45; value</text>
<polyline fill="none" stroke="black" points="121,-1031.5 278,-1031.5 "/>
<text text-anchor="start" x="129" y="-1019.5" font-family="Helvetica,sans-Serif" font-size="10.00">+ TEnumAsByte()</text>
<text text-anchor="start" x="129" y="-1008.5" font-family="Helvetica,sans-Serif" font-size="10.00">+ TEnumAsByte()</text>
<text text-anchor="start" x="129" y="-997.5" font-family="Helvetica,sans-Serif" font-size="10.00">+ TEnumAsByte()</text>
<text text-anchor="start" x="129" y="-986.5" font-family="Helvetica,sans-Serif" font-size="10.00">+ TEnumAsByte()</text>
<text text-anchor="start" x="129" y="-975.5" font-family="Helvetica,sans-Serif" font-size="10.00">+ operator TEnum()</text>
<text text-anchor="start" x="129" y="-964.5" font-family="Helvetica,sans-Serif" font-size="10.00">+ GetValue()</text>
</a>
</g>
</g>
<!-- Node6&#45;&gt;Node5 -->
<g id="edge5" class="edge">
<title>Node6&#45;&gt;Node5</title>
<path fill="none" stroke="orange" d="M143.93,-948.58C142.29,-945.43 140.8,-942.23 139.5,-939 135.83,-929.83 133.54,-919.73 132.17,-909.7"/>
<polygon fill="orange" stroke="orange" points="140.93,-950.38 148.94,-957.32 147,-946.9 140.93,-950.38"/>
<text text-anchor="middle" x="191" y="-931" font-family="Helvetica,sans-Serif" font-size="10.00"> &lt; EInterpCurveMode &gt;</text>
</g>
<!-- Node8 -->
<g id="node8" class="node">
<title>Node8</title>
<g id="a_node8"><a xlink:href="../../df/d1c/classSDK_1_1TEnumAsByte.html" target="_top" xlink:title=" ">
<polygon fill="white" stroke="black" points="215,-644.5 215,-767.5 370,-767.5 370,-644.5 215,-644.5"/>
<text text-anchor="start" x="223" y="-755.5" font-family="Helvetica,sans-Serif" font-size="10.00">SDK::TEnumAsByte&lt; EInterp</text>
<text text-anchor="middle" x="292.5" y="-744.5" font-family="Helvetica,sans-Serif" font-size="10.00">MethodType &gt;</text>
<polyline fill="none" stroke="black" points="215,-737.5 370,-737.5 "/>
<text text-anchor="start" x="223" y="-725.5" font-family="Helvetica,sans-Serif" font-size="10.00">&#45; value</text>
<polyline fill="none" stroke="black" points="215,-718.5 370,-718.5 "/>
<text text-anchor="start" x="223" y="-706.5" font-family="Helvetica,sans-Serif" font-size="10.00">+ TEnumAsByte()</text>
<text text-anchor="start" x="223" y="-695.5" font-family="Helvetica,sans-Serif" font-size="10.00">+ TEnumAsByte()</text>
<text text-anchor="start" x="223" y="-684.5" font-family="Helvetica,sans-Serif" font-size="10.00">+ TEnumAsByte()</text>
<text text-anchor="start" x="223" y="-673.5" font-family="Helvetica,sans-Serif" font-size="10.00">+ TEnumAsByte()</text>
<text text-anchor="start" x="223" y="-662.5" font-family="Helvetica,sans-Serif" font-size="10.00">+ operator EInterpMethodType()</text>
<text text-anchor="start" x="223" y="-651.5" font-family="Helvetica,sans-Serif" font-size="10.00">+ GetValue()</text>
</a>
</g>
</g>
<!-- Node6&#45;&gt;Node8 -->
<g id="edge8" class="edge">
<title>Node6&#45;&gt;Node8</title>
<path fill="none" stroke="orange" d="M238.65,-948.13C240.03,-945.08 241.32,-942.03 242.5,-939 264.3,-882.93 277.5,-815.36 284.81,-767.64"/>
<polygon fill="orange" stroke="orange" points="235.45,-946.71 234.28,-957.24 241.76,-949.74 235.45,-946.71"/>
<text text-anchor="middle" x="300" y="-931" font-family="Helvetica,sans-Serif" font-size="10.00"> &lt; EInterpMethodType &gt;</text>
</g>
<!-- Node7 -->
<g id="node7" class="node">
<title>Node7</title>
<g id="a_node7"><a xlink:href="../../d3/d79/classSDK_1_1TArray.html" target="_top" xlink:title=" ">
<polygon fill="white" stroke="black" points="178,-480.5 178,-625.5 275,-625.5 275,-480.5 178,-480.5"/>
<text text-anchor="middle" x="226.5" y="-613.5" font-family="Helvetica,sans-Serif" font-size="10.00">SDK::TArray&lt; T &gt;</text>
<polyline fill="none" stroke="black" points="178,-606.5 275,-606.5 "/>
<text text-anchor="start" x="186" y="-594.5" font-family="Helvetica,sans-Serif" font-size="10.00">&#45; Data</text>
<text text-anchor="start" x="186" y="-583.5" font-family="Helvetica,sans-Serif" font-size="10.00">&#45; Count</text>
<text text-anchor="start" x="186" y="-572.5" font-family="Helvetica,sans-Serif" font-size="10.00">&#45; Max</text>
<polyline fill="none" stroke="black" points="178,-565.5 275,-565.5 "/>
<text text-anchor="start" x="186" y="-553.5" font-family="Helvetica,sans-Serif" font-size="10.00">+ TArray()</text>
<text text-anchor="start" x="186" y="-542.5" font-family="Helvetica,sans-Serif" font-size="10.00">+ Num()</text>
<text text-anchor="start" x="186" y="-531.5" font-family="Helvetica,sans-Serif" font-size="10.00">+ operator[]()</text>
<text text-anchor="start" x="186" y="-520.5" font-family="Helvetica,sans-Serif" font-size="10.00">+ operator[]()</text>
<text text-anchor="start" x="186" y="-509.5" font-family="Helvetica,sans-Serif" font-size="10.00">+ IsValidIndex()</text>
<text text-anchor="start" x="186" y="-498.5" font-family="Helvetica,sans-Serif" font-size="10.00">+ GetByIndex()</text>
<text text-anchor="start" x="186" y="-487.5" font-family="Helvetica,sans-Serif" font-size="10.00">+ GetByIndex()</text>
</a>
</g>
</g>
<!-- Node7&#45;&gt;Node3 -->
<g id="edge6" class="edge">
<title>Node7&#45;&gt;Node3</title>
<path fill="none" stroke="orange" d="M169.97,-492.26C164.61,-487.85 159.09,-483.69 153.5,-480 135.87,-468.36 122.71,-478.49 109.5,-462 100.32,-450.53 94.87,-436.25 91.76,-421.77"/>
<polygon fill="orange" stroke="orange" points="167.82,-495.03 177.68,-498.88 172.38,-489.72 167.82,-495.03"/>
<text text-anchor="start" x="109.5" y="-454" font-family="Helvetica,sans-Serif" font-size="10.00"> &lt; struct SDK::FInterpCurve</text>
<text text-anchor="middle" x="171.5" y="-443" font-family="Helvetica,sans-Serif" font-size="10.00">PointFloat &gt;</text>
</g>
<!-- Node10 -->
<g id="node10" class="node">
<title>Node10</title>
<g id="a_node10"><a xlink:href="../../d3/d79/classSDK_1_1TArray.html" target="_top" xlink:title=" ">
<polygon fill="white" stroke="black" points="187,-276.5 187,-421.5 312,-421.5 312,-276.5 187,-276.5"/>
<text text-anchor="middle" x="249.5" y="-409.5" font-family="Helvetica,sans-Serif" font-size="10.00">SDK::TArray&lt; wchar_t &gt;</text>
<polyline fill="none" stroke="black" points="187,-402.5 312,-402.5 "/>
<text text-anchor="start" x="195" y="-390.5" font-family="Helvetica,sans-Serif" font-size="10.00">&#45; Data</text>
<text text-anchor="start" x="195" y="-379.5" font-family="Helvetica,sans-Serif" font-size="10.00">&#45; Count</text>
<text text-anchor="start" x="195" y="-368.5" font-family="Helvetica,sans-Serif" font-size="10.00">&#45; Max</text>
<polyline fill="none" stroke="black" points="187,-361.5 312,-361.5 "/>
<text text-anchor="start" x="195" y="-349.5" font-family="Helvetica,sans-Serif" font-size="10.00">+ TArray()</text>
<text text-anchor="start" x="195" y="-338.5" font-family="Helvetica,sans-Serif" font-size="10.00">+ Num()</text>
<text text-anchor="start" x="195" y="-327.5" font-family="Helvetica,sans-Serif" font-size="10.00">+ operator[]()</text>
<text text-anchor="start" x="195" y="-316.5" font-family="Helvetica,sans-Serif" font-size="10.00">+ operator[]()</text>
<text text-anchor="start" x="195" y="-305.5" font-family="Helvetica,sans-Serif" font-size="10.00">+ IsValidIndex()</text>
<text text-anchor="start" x="195" y="-294.5" font-family="Helvetica,sans-Serif" font-size="10.00">+ GetByIndex()</text>
<text text-anchor="start" x="195" y="-283.5" font-family="Helvetica,sans-Serif" font-size="10.00">+ GetByIndex()</text>
</a>
</g>
</g>
<!-- Node7&#45;&gt;Node10 -->
<g id="edge11" class="edge">
<title>Node7&#45;&gt;Node10</title>
<path fill="none" stroke="orange" d="M235.77,-470.55C237.61,-454.39 239.53,-437.55 241.33,-421.75"/>
<polygon fill="orange" stroke="orange" points="232.3,-470.17 234.64,-480.5 239.25,-470.96 232.3,-470.17"/>
<text text-anchor="middle" x="267.5" y="-448.5" font-family="Helvetica,sans-Serif" font-size="10.00"> &lt; wchar_t &gt;</text>
</g>
<!-- Node8&#45;&gt;Node2 -->
<g id="edge7" class="edge">
<title>Node8&#45;&gt;Node2</title>
<path fill="none" stroke="#404040" d="M318.1,-644.16C351.18,-555.04 396.11,-387.5 320.5,-276 288.82,-229.28 254.36,-251.31 202.5,-229 189.88,-223.57 176.52,-217.58 163.67,-211.7"/>
<polygon fill="none" stroke="#404040" points="163.43,-211.59 156.31,-212.72 152.53,-206.57 159.65,-205.45 163.43,-211.59"/>
<text text-anchor="middle" x="395" y="-448.5" font-family="Helvetica,sans-Serif" font-size="10.00"> +InterpMethod</text>
</g>
<!-- Node9 -->
<g id="node9" class="node">
<title>Node9</title>
<g id="a_node9"><a xlink:href="../../d3/d88/classSDK_1_1FString.html" target="_top" xlink:title=" ">
<polygon fill="white" stroke="black" points="212,-127.5 212,-228.5 287,-228.5 287,-127.5 212,-127.5"/>
<text text-anchor="middle" x="249.5" y="-216.5" font-family="Helvetica,sans-Serif" font-size="10.00">SDK::FString</text>
<polyline fill="none" stroke="black" points="212,-209.5 287,-209.5 "/>
<text text-anchor="middle" x="249.5" y="-197.5" font-family="Helvetica,sans-Serif" font-size="10.00"> </text>
<polyline fill="none" stroke="black" points="212,-190.5 287,-190.5 "/>
<text text-anchor="start" x="220" y="-178.5" font-family="Helvetica,sans-Serif" font-size="10.00">+ FString()</text>
<text text-anchor="start" x="220" y="-167.5" font-family="Helvetica,sans-Serif" font-size="10.00">+ FString()</text>
<text text-anchor="start" x="220" y="-156.5" font-family="Helvetica,sans-Serif" font-size="10.00">+ IsValid()</text>
<text text-anchor="start" x="220" y="-145.5" font-family="Helvetica,sans-Serif" font-size="10.00">+ c_str()</text>
<text text-anchor="start" x="220" y="-134.5" font-family="Helvetica,sans-Serif" font-size="10.00">+ ToString()</text>
</a>
</g>
</g>
<!-- Node9&#45;&gt;Node1 -->
<g id="edge9" class="edge">
<title>Node9&#45;&gt;Node1</title>
<path fill="none" stroke="#404040" d="M242.81,-127.34C239.55,-113.63 234.7,-99.19 227.5,-87 225.71,-83.96 223.68,-81 221.48,-78.12"/>
<polygon fill="none" stroke="#404040" points="221.25,-77.86 214.32,-75.89 213.47,-68.73 220.4,-70.7 221.25,-77.86"/>
<text text-anchor="middle" x="283.5" y="-95.5" font-family="Helvetica,sans-Serif" font-size="10.00"> +strMatParamName</text>
</g>
<!-- Node10&#45;&gt;Node9 -->
<g id="edge10" class="edge">
<title>Node10&#45;&gt;Node9</title>
<path fill="none" stroke="midnightblue" d="M249.5,-266.08C249.5,-253.24 249.5,-240.33 249.5,-228.52"/>
<polygon fill="none" stroke="midnightblue" points="246,-266.33 249.5,-276.33 253,-266.33 246,-266.33"/>
</g>
</g>
</svg>
        <g id="navigator" transform="translate(0 0)" fill="#404254">
                <rect fill="#f2f5e9" fill-opacity="0.5" stroke="#606060" stroke-width=".5" x="0" y="0" width="60" height="60"/>
                <use id="zoomplus" xlink:href="#zoomPlus" x="17" y="9" onmousedown="handleZoom(evt,'in')"/>
                <use id="zoomminus" xlink:href="#zoomMin" x="42" y="9" onmousedown="handleZoom(evt,'out')"/>
                <use id="reset" xlink:href="#resetDef" x="30" y="36" onmousedown="handleReset()"/>
                <g id="arrowUp" xlink:href="#dirArrow" transform="translate(30 24)" onmousedown="handlePan(0,-1)">
                  <use xlink:href="#rim" fill="#404040">
                        <set attributeName="fill" to="#808080" begin="arrowUp.mouseover" end="arrowUp.mouseout"/>
                  </use>
                  <path fill="none" stroke="white" stroke-width="1.5" d="M0,-3.0v7 M-2.5,-0.5L0,-3.0L2.5,-0.5"/>
                </g>
                <g id="arrowRight" xlink:href="#dirArrow" transform="rotate(90) translate(36 -43)" onmousedown="handlePan(1,0)">
                  <use xlink:href="#rim" fill="#404040">
                        <set attributeName="fill" to="#808080" begin="arrowRight.mouseover" end="arrowRight.mouseout"/>
                  </use>
                  <path fill="none" stroke="white" stroke-width="1.5" d="M0,-3.0v7 M-2.5,-0.5L0,-3.0L2.5,-0.5"/>
                </g>
                <g id="arrowDown" xlink:href="#dirArrow" transform="rotate(180) translate(-30 -48)" onmousedown="handlePan(0,1)">
                  <use xlink:href="#rim" fill="#404040">
                        <set attributeName="fill" to="#808080" begin="arrowDown.mouseover" end="arrowDown.mouseout"/>
                  </use>
                  <path fill="none" stroke="white" stroke-width="1.5" d="M0,-3.0v7 M-2.5,-0.5L0,-3.0L2.5,-0.5"/>
                </g>
                <g id="arrowLeft" xlink:href="#dirArrow" transform="rotate(270) translate(-36 17)" onmousedown="handlePan(-1,0)">
                  <use xlink:href="#rim" fill="#404040">
                        <set attributeName="fill" to="#808080" begin="arrowLeft.mouseover" end="arrowLeft.mouseout"/>
                  </use>
                  <path fill="none" stroke="white" stroke-width="1.5" d="M0,-3.0v7 M-2.5,-0.5L0,-3.0L2.5,-0.5"/>
                </g>
        </g>
        <svg viewBox="0 0 15 15" width="100%" height="30px" preserveAspectRatio="xMaxYMin meet">
         <g id="arrow_out" transform="scale(0.3 0.3)">
          <a xlink:href="structSDK_1_1FEFDestructionPartsMatActionUnit__coll__graph_org.svg" target="_base">
           <rect id="button" ry="5" rx="5" y="6" x="6" height="38" width="38"
                fill="#f2f5e9" fill-opacity="0.5" stroke="#606060" stroke-width="1.0"/>
           <path id="arrow"
             d="M 11.500037,31.436501 C 11.940474,20.09759 22.043105,11.32322 32.158766,21.979434 L 37.068811,17.246167 C 37.068811,17.246167 37.088388,32 37.088388,32 L 22.160133,31.978069 C 22.160133,31.978069 26.997745,27.140456 26.997745,27.140456 C 18.528582,18.264221 13.291696,25.230495 11.500037,31.436501 z"
             style="fill:#404040;"/>
          </a>
         </g>
        </svg>
</svg>
