<?xml version="1.0" encoding="UTF-8" standalone="no"?>
<!DOCTYPE svg PUBLIC "-//W3C//DTD SVG 1.1//EN"
 "http://www.w3.org/Graphics/SVG/1.1/DTD/svg11.dtd">
<!-- Generated by graphviz version 2.41.20171026.1811 (20171026.1811)
 -->
<!-- Title: SDK::FLinearColorParameterValueOverTime Pages: 1 -->
<svg width="794pt" height="1100pt"
 viewBox="0.00 0.00 793.50 1100.00" xmlns="http://www.w3.org/2000/svg" xmlns:xlink="http://www.w3.org/1999/xlink">
<g id="graph0" class="graph" transform="scale(1 1) rotate(0) translate(4 1096)">
<title>SDK::FLinearColorParameterValueOverTime</title>
<polygon fill="white" stroke="transparent" points="-4,4 -4,-1096 789.5,-1096 789.5,4 -4,4"/>
<!-- Node1 -->
<g id="node1" class="node">
<title>Node1</title>
<g id="a_node1"><a xlink:title=" ">
<polygon fill="#bfbfbf" stroke="black" points="302.5,-0.5 302.5,-68.5 446.5,-68.5 446.5,-0.5 302.5,-0.5"/>
<text text-anchor="start" x="310.5" y="-56.5" font-family="Helvetica,sans-Serif" font-size="10.00">SDK::FLinearColorParameter</text>
<text text-anchor="middle" x="374.5" y="-45.5" font-family="Helvetica,sans-Serif" font-size="10.00">ValueOverTime</text>
<polyline fill="none" stroke="black" points="302.5,-38.5 446.5,-38.5 "/>
<text text-anchor="middle" x="374.5" y="-26.5" font-family="Helvetica,sans-Serif" font-size="10.00"> </text>
<polyline fill="none" stroke="black" points="302.5,-19.5 446.5,-19.5 "/>
<text text-anchor="middle" x="374.5" y="-7.5" font-family="Helvetica,sans-Serif" font-size="10.00"> </text>
</a>
</g>
</g>
<!-- Node2 -->
<g id="node2" class="node">
<title>Node2</title>
<g id="a_node2"><a xlink:href="../../de/d42/structSDK_1_1FParameterValueOverTime.html" target="_top" xlink:title=" ">
<polygon fill="white" stroke="black" points="106.5,-116.5 106.5,-239.5 268.5,-239.5 268.5,-116.5 106.5,-116.5"/>
<text text-anchor="middle" x="187.5" y="-227.5" font-family="Helvetica,sans-Serif" font-size="10.00">SDK::FParameterValueOverTime</text>
<polyline fill="none" stroke="black" points="106.5,-220.5 268.5,-220.5 "/>
<text text-anchor="start" x="114.5" y="-208.5" font-family="Helvetica,sans-Serif" font-size="10.00">+ StartTime</text>
<text text-anchor="start" x="114.5" y="-197.5" font-family="Helvetica,sans-Serif" font-size="10.00">+ bLoop</text>
<text text-anchor="start" x="114.5" y="-186.5" font-family="Helvetica,sans-Serif" font-size="10.00">+ bAutoActivate</text>
<text text-anchor="start" x="114.5" y="-175.5" font-family="Helvetica,sans-Serif" font-size="10.00">+ CycleTime</text>
<text text-anchor="start" x="114.5" y="-164.5" font-family="Helvetica,sans-Serif" font-size="10.00">+ bNormalizeTime</text>
<text text-anchor="start" x="114.5" y="-153.5" font-family="Helvetica,sans-Serif" font-size="10.00">+ OffsetTime</text>
<text text-anchor="start" x="114.5" y="-142.5" font-family="Helvetica,sans-Serif" font-size="10.00">+ bOffsetFromEnd</text>
<polyline fill="none" stroke="black" points="106.5,-135.5 268.5,-135.5 "/>
<text text-anchor="middle" x="187.5" y="-123.5" font-family="Helvetica,sans-Serif" font-size="10.00"> </text>
</a>
</g>
</g>
<!-- Node2&#45;&gt;Node1 -->
<g id="edge1" class="edge">
<title>Node2&#45;&gt;Node1</title>
<path fill="none" stroke="midnightblue" d="M275.8,-110.19C294.94,-95.7 314.38,-80.99 330.88,-68.5"/>
<polygon fill="none" stroke="midnightblue" points="273.48,-107.55 267.62,-116.38 277.7,-113.13 273.48,-107.55"/>
</g>
<!-- Node3 -->
<g id="node3" class="node">
<title>Node3</title>
<g id="a_node3"><a xlink:href="../../d0/db6/structSDK_1_1FName.html" target="_top" xlink:title=" ">
<polygon fill="white" stroke="black" points="134,-304 134,-427 241,-427 241,-304 134,-304"/>
<text text-anchor="middle" x="187.5" y="-415" font-family="Helvetica,sans-Serif" font-size="10.00">SDK::FName</text>
<polyline fill="none" stroke="black" points="134,-408 241,-408 "/>
<text text-anchor="start" x="142" y="-396" font-family="Helvetica,sans-Serif" font-size="10.00">+ Index</text>
<text text-anchor="start" x="142" y="-385" font-family="Helvetica,sans-Serif" font-size="10.00">+ Number</text>
<polyline fill="none" stroke="black" points="134,-378 241,-378 "/>
<text text-anchor="start" x="142" y="-366" font-family="Helvetica,sans-Serif" font-size="10.00">+ FName()</text>
<text text-anchor="start" x="142" y="-355" font-family="Helvetica,sans-Serif" font-size="10.00">+ FName()</text>
<text text-anchor="start" x="142" y="-344" font-family="Helvetica,sans-Serif" font-size="10.00">+ FName()</text>
<text text-anchor="start" x="142" y="-333" font-family="Helvetica,sans-Serif" font-size="10.00">+ GetName()</text>
<text text-anchor="start" x="142" y="-322" font-family="Helvetica,sans-Serif" font-size="10.00">+ operator==()</text>
<text text-anchor="start" x="142" y="-311" font-family="Helvetica,sans-Serif" font-size="10.00">+ GetGlobalNames()</text>
</a>
</g>
</g>
<!-- Node3&#45;&gt;Node2 -->
<g id="edge2" class="edge">
<title>Node3&#45;&gt;Node2</title>
<path fill="none" stroke="#404040" d="M187.5,-303.76C187.5,-287.1 187.5,-268.87 187.5,-251.61"/>
<polygon fill="none" stroke="#404040" points="187.5,-251.56 183.5,-245.56 187.5,-239.56 191.5,-245.56 187.5,-251.56"/>
<text text-anchor="middle" x="228" y="-261" font-family="Helvetica,sans-Serif" font-size="10.00"> +ParameterName</text>
</g>
<!-- Node4 -->
<g id="node4" class="node">
<title>Node4</title>
<g id="a_node4"><a xlink:href="../../d3/d79/classSDK_1_1TArray.html" target="_top" xlink:title=" ">
<polygon fill="white" stroke="black" points="86.5,-491.5 86.5,-625.5 266.5,-625.5 266.5,-491.5 86.5,-491.5"/>
<text text-anchor="middle" x="176.5" y="-613.5" font-family="Helvetica,sans-Serif" font-size="10.00">SDK::TArray&lt; SDK::FNameEntry * &gt;</text>
<polyline fill="none" stroke="black" points="86.5,-606.5 266.5,-606.5 "/>
<text text-anchor="start" x="94.5" y="-594.5" font-family="Helvetica,sans-Serif" font-size="10.00">&#45; Count</text>
<text text-anchor="start" x="94.5" y="-583.5" font-family="Helvetica,sans-Serif" font-size="10.00">&#45; Max</text>
<polyline fill="none" stroke="black" points="86.5,-576.5 266.5,-576.5 "/>
<text text-anchor="start" x="94.5" y="-564.5" font-family="Helvetica,sans-Serif" font-size="10.00">+ TArray()</text>
<text text-anchor="start" x="94.5" y="-553.5" font-family="Helvetica,sans-Serif" font-size="10.00">+ Num()</text>
<text text-anchor="start" x="94.5" y="-542.5" font-family="Helvetica,sans-Serif" font-size="10.00">+ operator[]()</text>
<text text-anchor="start" x="94.5" y="-531.5" font-family="Helvetica,sans-Serif" font-size="10.00">+ operator[]()</text>
<text text-anchor="start" x="94.5" y="-520.5" font-family="Helvetica,sans-Serif" font-size="10.00">+ IsValidIndex()</text>
<text text-anchor="start" x="94.5" y="-509.5" font-family="Helvetica,sans-Serif" font-size="10.00">+ GetByIndex()</text>
<text text-anchor="start" x="94.5" y="-498.5" font-family="Helvetica,sans-Serif" font-size="10.00">+ GetByIndex()</text>
</a>
</g>
</g>
<!-- Node4&#45;&gt;Node3 -->
<g id="edge3" class="edge">
<title>Node4&#45;&gt;Node3</title>
<path fill="none" stroke="#404040" d="M180.32,-491.23C181.28,-474.5 182.32,-456.44 183.3,-439.4"/>
<polygon fill="none" stroke="#404040" points="183.31,-439.19 179.67,-432.97 184,-427.21 187.65,-433.43 183.31,-439.19"/>
<text text-anchor="middle" x="207" y="-465" font-family="Helvetica,sans-Serif" font-size="10.00"> +GNames</text>
</g>
<!-- Node5 -->
<g id="node5" class="node">
<title>Node5</title>
<g id="a_node5"><a xlink:href="../../d7/ddf/classSDK_1_1FNameEntry.html" target="_top" xlink:title=" ">
<polygon fill="white" stroke="black" points="0,-825 0,-893 99,-893 99,-825 0,-825"/>
<text text-anchor="middle" x="49.5" y="-881" font-family="Helvetica,sans-Serif" font-size="10.00">SDK::FNameEntry</text>
<polyline fill="none" stroke="black" points="0,-874 99,-874 "/>
<text text-anchor="start" x="8" y="-862" font-family="Helvetica,sans-Serif" font-size="10.00">+ UnknownData00</text>
<text text-anchor="start" x="8" y="-851" font-family="Helvetica,sans-Serif" font-size="10.00">+ name</text>
<polyline fill="none" stroke="black" points="0,-844 99,-844 "/>
<text text-anchor="start" x="8" y="-832" font-family="Helvetica,sans-Serif" font-size="10.00">+ GetName()</text>
</a>
</g>
</g>
<!-- Node5&#45;&gt;Node4 -->
<g id="edge4" class="edge">
<title>Node5&#45;&gt;Node4</title>
<path fill="none" stroke="#404040" d="M39.31,-824.81C27.75,-780.59 14.29,-701.26 45.5,-644 53.09,-630.08 64.06,-618.11 76.47,-607.92"/>
<polygon fill="none" stroke="#404040" points="76.67,-607.76 79.01,-600.94 86.21,-600.47 83.87,-607.29 76.67,-607.76"/>
<text text-anchor="middle" x="59.5" y="-703.5" font-family="Helvetica,sans-Serif" font-size="10.00"> &#45;Data</text>
</g>
<!-- Node6 -->
<g id="node6" class="node">
<title>Node6</title>
<g id="a_node6"><a xlink:href="../../d3/d79/classSDK_1_1TArray.html" target="_top" xlink:title=" ">
<polygon fill="white" stroke="black" points="235,-786.5 235,-931.5 332,-931.5 332,-786.5 235,-786.5"/>
<text text-anchor="middle" x="283.5" y="-919.5" font-family="Helvetica,sans-Serif" font-size="10.00">SDK::TArray&lt; T &gt;</text>
<polyline fill="none" stroke="black" points="235,-912.5 332,-912.5 "/>
<text text-anchor="start" x="243" y="-900.5" font-family="Helvetica,sans-Serif" font-size="10.00">&#45; Data</text>
<text text-anchor="start" x="243" y="-889.5" font-family="Helvetica,sans-Serif" font-size="10.00">&#45; Count</text>
<text text-anchor="start" x="243" y="-878.5" font-family="Helvetica,sans-Serif" font-size="10.00">&#45; Max</text>
<polyline fill="none" stroke="black" points="235,-871.5 332,-871.5 "/>
<text text-anchor="start" x="243" y="-859.5" font-family="Helvetica,sans-Serif" font-size="10.00">+ TArray()</text>
<text text-anchor="start" x="243" y="-848.5" font-family="Helvetica,sans-Serif" font-size="10.00">+ Num()</text>
<text text-anchor="start" x="243" y="-837.5" font-family="Helvetica,sans-Serif" font-size="10.00">+ operator[]()</text>
<text text-anchor="start" x="243" y="-826.5" font-family="Helvetica,sans-Serif" font-size="10.00">+ operator[]()</text>
<text text-anchor="start" x="243" y="-815.5" font-family="Helvetica,sans-Serif" font-size="10.00">+ IsValidIndex()</text>
<text text-anchor="start" x="243" y="-804.5" font-family="Helvetica,sans-Serif" font-size="10.00">+ GetByIndex()</text>
<text text-anchor="start" x="243" y="-793.5" font-family="Helvetica,sans-Serif" font-size="10.00">+ GetByIndex()</text>
</a>
</g>
</g>
<!-- Node6&#45;&gt;Node4 -->
<g id="edge5" class="edge">
<title>Node6&#45;&gt;Node4</title>
<path fill="none" stroke="orange" d="M264.31,-776.51C263.69,-773.64 263.09,-770.8 262.5,-768 251.02,-713.14 261.95,-695.36 239.5,-644 236.79,-637.8 233.54,-631.62 229.98,-625.59"/>
<polygon fill="orange" stroke="orange" points="260.91,-777.33 266.47,-786.34 267.74,-775.83 260.91,-777.33"/>
<text text-anchor="middle" x="318" y="-703.5" font-family="Helvetica,sans-Serif" font-size="10.00"> &lt; SDK::FNameEntry * &gt;</text>
</g>
<!-- Node10 -->
<g id="node10" class="node">
<title>Node10</title>
<g id="a_node10"><a xlink:href="../../d3/d79/classSDK_1_1TArray.html" target="_top" xlink:title=" ">
<polygon fill="white" stroke="black" points="322.5,-287.5 322.5,-443.5 474.5,-443.5 474.5,-287.5 322.5,-287.5"/>
<text text-anchor="start" x="330.5" y="-431.5" font-family="Helvetica,sans-Serif" font-size="10.00">SDK::TArray&lt; struct</text>
<text text-anchor="start" x="330.5" y="-420.5" font-family="Helvetica,sans-Serif" font-size="10.00"> SDK::FInterpCurvePointLinear</text>
<text text-anchor="middle" x="398.5" y="-409.5" font-family="Helvetica,sans-Serif" font-size="10.00">Color &gt;</text>
<polyline fill="none" stroke="black" points="322.5,-402.5 474.5,-402.5 "/>
<text text-anchor="start" x="330.5" y="-390.5" font-family="Helvetica,sans-Serif" font-size="10.00">&#45; Count</text>
<text text-anchor="start" x="330.5" y="-379.5" font-family="Helvetica,sans-Serif" font-size="10.00">&#45; Max</text>
<polyline fill="none" stroke="black" points="322.5,-372.5 474.5,-372.5 "/>
<text text-anchor="start" x="330.5" y="-360.5" font-family="Helvetica,sans-Serif" font-size="10.00">+ TArray()</text>
<text text-anchor="start" x="330.5" y="-349.5" font-family="Helvetica,sans-Serif" font-size="10.00">+ Num()</text>
<text text-anchor="start" x="330.5" y="-338.5" font-family="Helvetica,sans-Serif" font-size="10.00">+ operator[]()</text>
<text text-anchor="start" x="330.5" y="-327.5" font-family="Helvetica,sans-Serif" font-size="10.00">+ operator[]()</text>
<text text-anchor="start" x="330.5" y="-316.5" font-family="Helvetica,sans-Serif" font-size="10.00">+ IsValidIndex()</text>
<text text-anchor="start" x="330.5" y="-305.5" font-family="Helvetica,sans-Serif" font-size="10.00">+ GetByIndex()</text>
<text text-anchor="start" x="330.5" y="-294.5" font-family="Helvetica,sans-Serif" font-size="10.00">+ GetByIndex()</text>
</a>
</g>
</g>
<!-- Node6&#45;&gt;Node10 -->
<g id="edge14" class="edge">
<title>Node6&#45;&gt;Node10</title>
<path fill="none" stroke="orange" d="M339.88,-814.2C353.2,-800.88 365.76,-785.17 373.5,-768 386.44,-739.31 393.55,-551.98 396.63,-443.62"/>
<polygon fill="orange" stroke="orange" points="337.22,-811.9 332.43,-821.35 342.07,-816.95 337.22,-811.9"/>
<text text-anchor="start" x="394.5" y="-561.5" font-family="Helvetica,sans-Serif" font-size="10.00"> &lt; struct SDK::FInterpCurve</text>
<text text-anchor="middle" x="456.5" y="-550.5" font-family="Helvetica,sans-Serif" font-size="10.00">PointLinearColor &gt;</text>
</g>
<!-- Node7 -->
<g id="node7" class="node">
<title>Node7</title>
<g id="a_node7"><a xlink:href="../../dc/d32/structSDK_1_1FGuid.html" target="_top" xlink:title=" ">
<polygon fill="white" stroke="black" points="45.5,-320.5 45.5,-410.5 115.5,-410.5 115.5,-320.5 45.5,-320.5"/>
<text text-anchor="middle" x="80.5" y="-398.5" font-family="Helvetica,sans-Serif" font-size="10.00">SDK::FGuid</text>
<polyline fill="none" stroke="black" points="45.5,-391.5 115.5,-391.5 "/>
<text text-anchor="start" x="53.5" y="-379.5" font-family="Helvetica,sans-Serif" font-size="10.00">+ A</text>
<text text-anchor="start" x="53.5" y="-368.5" font-family="Helvetica,sans-Serif" font-size="10.00">+ B</text>
<text text-anchor="start" x="53.5" y="-357.5" font-family="Helvetica,sans-Serif" font-size="10.00">+ C</text>
<text text-anchor="start" x="53.5" y="-346.5" font-family="Helvetica,sans-Serif" font-size="10.00">+ D</text>
<polyline fill="none" stroke="black" points="45.5,-339.5 115.5,-339.5 "/>
<text text-anchor="middle" x="80.5" y="-327.5" font-family="Helvetica,sans-Serif" font-size="10.00"> </text>
</a>
</g>
</g>
<!-- Node7&#45;&gt;Node2 -->
<g id="edge6" class="edge">
<title>Node7&#45;&gt;Node2</title>
<path fill="none" stroke="#404040" d="M81.88,-320.34C84.09,-300.28 89,-276.87 99.5,-258 101.08,-255.15 102.81,-252.36 104.65,-249.62"/>
<polygon fill="none" stroke="#404040" points="104.67,-249.59 105.02,-242.39 111.8,-239.94 111.45,-247.14 104.67,-249.59"/>
<text text-anchor="middle" x="141.5" y="-261" font-family="Helvetica,sans-Serif" font-size="10.00"> +ExpressionGUID</text>
</g>
<!-- Node8 -->
<g id="node8" class="node">
<title>Node8</title>
<g id="a_node8"><a xlink:href="../../de/d7c/structSDK_1_1FLinearColor.html" target="_top" xlink:title=" ">
<polygon fill="white" stroke="black" points="596,-814 596,-904 695,-904 695,-814 596,-814"/>
<text text-anchor="middle" x="645.5" y="-892" font-family="Helvetica,sans-Serif" font-size="10.00">SDK::FLinearColor</text>
<polyline fill="none" stroke="black" points="596,-885 695,-885 "/>
<text text-anchor="start" x="604" y="-873" font-family="Helvetica,sans-Serif" font-size="10.00">+ R</text>
<text text-anchor="start" x="604" y="-862" font-family="Helvetica,sans-Serif" font-size="10.00">+ G</text>
<text text-anchor="start" x="604" y="-851" font-family="Helvetica,sans-Serif" font-size="10.00">+ B</text>
<text text-anchor="start" x="604" y="-840" font-family="Helvetica,sans-Serif" font-size="10.00">+ A</text>
<polyline fill="none" stroke="black" points="596,-833 695,-833 "/>
<text text-anchor="middle" x="645.5" y="-821" font-family="Helvetica,sans-Serif" font-size="10.00"> </text>
</a>
</g>
</g>
<!-- Node8&#45;&gt;Node1 -->
<g id="edge7" class="edge">
<title>Node8&#45;&gt;Node1</title>
<path fill="none" stroke="#404040" d="M673.25,-813.74C680.8,-799.63 688.11,-783.61 692.5,-768 717.64,-678.59 706.5,-652.38 706.5,-559.5 706.5,-559.5 706.5,-559.5 706.5,-177 706.5,-69.34 556.92,-42.45 458.56,-36.42"/>
<polygon fill="none" stroke="#404040" points="458.52,-36.41 452.31,-40.08 446.54,-35.76 452.75,-32.09 458.52,-36.41"/>
<text text-anchor="middle" x="746" y="-363" font-family="Helvetica,sans-Serif" font-size="10.00"> +ParameterValue</text>
</g>
<!-- Node11 -->
<g id="node11" class="node">
<title>Node11</title>
<g id="a_node11"><a xlink:href="../../d0/d3f/structSDK_1_1FInterpCurvePointLinearColor.html" target="_top" xlink:title=" ">
<polygon fill="white" stroke="black" points="530,-524.5 530,-592.5 679,-592.5 679,-524.5 530,-524.5"/>
<text text-anchor="start" x="538" y="-580.5" font-family="Helvetica,sans-Serif" font-size="10.00">SDK::FInterpCurvePointLinear</text>
<text text-anchor="middle" x="604.5" y="-569.5" font-family="Helvetica,sans-Serif" font-size="10.00">Color</text>
<polyline fill="none" stroke="black" points="530,-562.5 679,-562.5 "/>
<text text-anchor="start" x="538" y="-550.5" font-family="Helvetica,sans-Serif" font-size="10.00">+ InVal</text>
<polyline fill="none" stroke="black" points="530,-543.5 679,-543.5 "/>
<text text-anchor="middle" x="604.5" y="-531.5" font-family="Helvetica,sans-Serif" font-size="10.00"> </text>
</a>
</g>
</g>
<!-- Node8&#45;&gt;Node11 -->
<g id="edge11" class="edge">
<title>Node8&#45;&gt;Node11</title>
<path fill="none" stroke="#404040" d="M633.95,-813.83C630.49,-799.31 626.96,-783.04 624.5,-768 615.34,-712.11 609.92,-647.04 607.08,-604.66"/>
<polygon fill="none" stroke="#404040" points="607.08,-604.51 602.7,-598.78 606.3,-592.54 610.68,-598.27 607.08,-604.51"/>
<text text-anchor="middle" x="658.5" y="-714.5" font-family="Helvetica,sans-Serif" font-size="10.00"> +OutVal</text>
<text text-anchor="middle" x="658.5" y="-703.5" font-family="Helvetica,sans-Serif" font-size="10.00">+LeaveTangent</text>
<text text-anchor="middle" x="658.5" y="-692.5" font-family="Helvetica,sans-Serif" font-size="10.00">+ArriveTangent</text>
</g>
<!-- Node9 -->
<g id="node9" class="node">
<title>Node9</title>
<g id="a_node9"><a xlink:href="../../d6/de4/structSDK_1_1FInterpCurveLinearColor.html" target="_top" xlink:title=" ">
<polygon fill="white" stroke="black" points="299.5,-149.5 299.5,-206.5 449.5,-206.5 449.5,-149.5 299.5,-149.5"/>
<text text-anchor="middle" x="374.5" y="-194.5" font-family="Helvetica,sans-Serif" font-size="10.00">SDK::FInterpCurveLinearColor</text>
<polyline fill="none" stroke="black" points="299.5,-187.5 449.5,-187.5 "/>
<text text-anchor="middle" x="374.5" y="-175.5" font-family="Helvetica,sans-Serif" font-size="10.00"> </text>
<polyline fill="none" stroke="black" points="299.5,-168.5 449.5,-168.5 "/>
<text text-anchor="middle" x="374.5" y="-156.5" font-family="Helvetica,sans-Serif" font-size="10.00"> </text>
</a>
</g>
</g>
<!-- Node9&#45;&gt;Node1 -->
<g id="edge8" class="edge">
<title>Node9&#45;&gt;Node1</title>
<path fill="none" stroke="#404040" d="M374.5,-149.38C374.5,-129.84 374.5,-103.19 374.5,-80.59"/>
<polygon fill="none" stroke="#404040" points="374.5,-80.52 370.5,-74.52 374.5,-68.52 378.5,-74.52 374.5,-80.52"/>
<text text-anchor="middle" x="427.5" y="-90" font-family="Helvetica,sans-Serif" font-size="10.00"> +ParameterValueCurve</text>
</g>
<!-- Node10&#45;&gt;Node9 -->
<g id="edge9" class="edge">
<title>Node10&#45;&gt;Node9</title>
<path fill="none" stroke="#404040" d="M388.53,-287.44C385.47,-263.81 382.24,-238.79 379.64,-218.73"/>
<polygon fill="none" stroke="#404040" points="379.62,-218.55 374.88,-213.11 378.08,-206.65 382.81,-212.08 379.62,-218.55"/>
<text text-anchor="middle" x="404" y="-261" font-family="Helvetica,sans-Serif" font-size="10.00"> +Points</text>
</g>
<!-- Node11&#45;&gt;Node10 -->
<g id="edge10" class="edge">
<title>Node11&#45;&gt;Node10</title>
<path fill="none" stroke="#404040" d="M568.62,-524.23C545.22,-502.53 513.63,-473.25 484.03,-445.8"/>
<polygon fill="none" stroke="#404040" points="483.71,-445.51 476.59,-444.36 474.91,-437.35 482.03,-438.5 483.71,-445.51"/>
<text text-anchor="middle" x="521.5" y="-465" font-family="Helvetica,sans-Serif" font-size="10.00"> &#45;Data</text>
</g>
<!-- Node12 -->
<g id="node12" class="node">
<title>Node12</title>
<g id="a_node12"><a xlink:href="../../df/d1c/classSDK_1_1TEnumAsByte.html" target="_top" xlink:title=" ">
<polygon fill="white" stroke="black" points="372.5,-797.5 372.5,-920.5 524.5,-920.5 524.5,-797.5 372.5,-797.5"/>
<text text-anchor="start" x="380.5" y="-908.5" font-family="Helvetica,sans-Serif" font-size="10.00">SDK::TEnumAsByte&lt; EInterp</text>
<text text-anchor="middle" x="448.5" y="-897.5" font-family="Helvetica,sans-Serif" font-size="10.00">CurveMode &gt;</text>
<polyline fill="none" stroke="black" points="372.5,-890.5 524.5,-890.5 "/>
<text text-anchor="start" x="380.5" y="-878.5" font-family="Helvetica,sans-Serif" font-size="10.00">&#45; value</text>
<polyline fill="none" stroke="black" points="372.5,-871.5 524.5,-871.5 "/>
<text text-anchor="start" x="380.5" y="-859.5" font-family="Helvetica,sans-Serif" font-size="10.00">+ TEnumAsByte()</text>
<text text-anchor="start" x="380.5" y="-848.5" font-family="Helvetica,sans-Serif" font-size="10.00">+ TEnumAsByte()</text>
<text text-anchor="start" x="380.5" y="-837.5" font-family="Helvetica,sans-Serif" font-size="10.00">+ TEnumAsByte()</text>
<text text-anchor="start" x="380.5" y="-826.5" font-family="Helvetica,sans-Serif" font-size="10.00">+ TEnumAsByte()</text>
<text text-anchor="start" x="380.5" y="-815.5" font-family="Helvetica,sans-Serif" font-size="10.00">+ operator EInterpCurveMode()</text>
<text text-anchor="start" x="380.5" y="-804.5" font-family="Helvetica,sans-Serif" font-size="10.00">+ GetValue()</text>
</a>
</g>
</g>
<!-- Node12&#45;&gt;Node11 -->
<g id="edge12" class="edge">
<title>Node12&#45;&gt;Node11</title>
<path fill="none" stroke="#404040" d="M473.52,-797.22C492.19,-753.67 519.25,-694.1 547.5,-644 555.25,-630.26 564.51,-615.83 573.3,-602.88"/>
<polygon fill="none" stroke="#404040" points="573.41,-602.72 573.51,-595.51 580.21,-592.84 580.1,-600.05 573.41,-602.72"/>
<text text-anchor="middle" x="576.5" y="-703.5" font-family="Helvetica,sans-Serif" font-size="10.00"> +InterpMode</text>
</g>
<!-- Node13 -->
<g id="node13" class="node">
<title>Node13</title>
<g id="a_node13"><a xlink:href="../../df/d1c/classSDK_1_1TEnumAsByte.html" target="_top" xlink:title=" ">
<polygon fill="white" stroke="black" points="170,-979.5 170,-1091.5 327,-1091.5 327,-979.5 170,-979.5"/>
<text text-anchor="middle" x="248.5" y="-1079.5" font-family="Helvetica,sans-Serif" font-size="10.00">SDK::TEnumAsByte&lt; TEnum &gt;</text>
<polyline fill="none" stroke="black" points="170,-1072.5 327,-1072.5 "/>
<text text-anchor="start" x="178" y="-1060.5" font-family="Helvetica,sans-Serif" font-size="10.00">&#45; value</text>
<polyline fill="none" stroke="black" points="170,-1053.5 327,-1053.5 "/>
<text text-anchor="start" x="178" y="-1041.5" font-family="Helvetica,sans-Serif" font-size="10.00">+ TEnumAsByte()</text>
<text text-anchor="start" x="178" y="-1030.5" font-family="Helvetica,sans-Serif" font-size="10.00">+ TEnumAsByte()</text>
<text text-anchor="start" x="178" y="-1019.5" font-family="Helvetica,sans-Serif" font-size="10.00">+ TEnumAsByte()</text>
<text text-anchor="start" x="178" y="-1008.5" font-family="Helvetica,sans-Serif" font-size="10.00">+ TEnumAsByte()</text>
<text text-anchor="start" x="178" y="-997.5" font-family="Helvetica,sans-Serif" font-size="10.00">+ operator TEnum()</text>
<text text-anchor="start" x="178" y="-986.5" font-family="Helvetica,sans-Serif" font-size="10.00">+ GetValue()</text>
</a>
</g>
</g>
<!-- Node13&#45;&gt;Node12 -->
<g id="edge13" class="edge">
<title>Node13&#45;&gt;Node12</title>
<path fill="none" stroke="orange" d="M319.4,-972.64C338.78,-955.73 359.75,-937.44 379.04,-920.6"/>
<polygon fill="orange" stroke="orange" points="317.02,-970.08 311.78,-979.29 321.62,-975.35 317.02,-970.08"/>
<text text-anchor="middle" x="394" y="-953" font-family="Helvetica,sans-Serif" font-size="10.00"> &lt; EInterpCurveMode &gt;</text>
</g>
<!-- Node14 -->
<g id="node14" class="node">
<title>Node14</title>
<g id="a_node14"><a xlink:href="../../df/d1c/classSDK_1_1TEnumAsByte.html" target="_top" xlink:title=" ">
<polygon fill="white" stroke="black" points="83,-644.5 83,-767.5 238,-767.5 238,-644.5 83,-644.5"/>
<text text-anchor="start" x="91" y="-755.5" font-family="Helvetica,sans-Serif" font-size="10.00">SDK::TEnumAsByte&lt; EInterp</text>
<text text-anchor="middle" x="160.5" y="-744.5" font-family="Helvetica,sans-Serif" font-size="10.00">MethodType &gt;</text>
<polyline fill="none" stroke="black" points="83,-737.5 238,-737.5 "/>
<text text-anchor="start" x="91" y="-725.5" font-family="Helvetica,sans-Serif" font-size="10.00">&#45; value</text>
<polyline fill="none" stroke="black" points="83,-718.5 238,-718.5 "/>
<text text-anchor="start" x="91" y="-706.5" font-family="Helvetica,sans-Serif" font-size="10.00">+ TEnumAsByte()</text>
<text text-anchor="start" x="91" y="-695.5" font-family="Helvetica,sans-Serif" font-size="10.00">+ TEnumAsByte()</text>
<text text-anchor="start" x="91" y="-684.5" font-family="Helvetica,sans-Serif" font-size="10.00">+ TEnumAsByte()</text>
<text text-anchor="start" x="91" y="-673.5" font-family="Helvetica,sans-Serif" font-size="10.00">+ TEnumAsByte()</text>
<text text-anchor="start" x="91" y="-662.5" font-family="Helvetica,sans-Serif" font-size="10.00">+ operator EInterpMethodType()</text>
<text text-anchor="start" x="91" y="-651.5" font-family="Helvetica,sans-Serif" font-size="10.00">+ GetValue()</text>
</a>
</g>
</g>
<!-- Node13&#45;&gt;Node14 -->
<g id="edge16" class="edge">
<title>Node13&#45;&gt;Node14</title>
<path fill="none" stroke="orange" d="M227.94,-969.45C227.11,-966.6 226.29,-963.77 225.5,-961 206.8,-895.21 187.66,-819.15 175.04,-767.54"/>
<polygon fill="orange" stroke="orange" points="224.64,-970.63 230.86,-979.21 231.35,-968.63 224.64,-970.63"/>
<text text-anchor="middle" x="279" y="-953" font-family="Helvetica,sans-Serif" font-size="10.00"> &lt; EInterpMethodType &gt;</text>
</g>
<!-- Node14&#45;&gt;Node9 -->
<g id="edge15" class="edge">
<title>Node14&#45;&gt;Node9</title>
<path fill="none" stroke="#404040" d="M238.45,-646.63C239.8,-645.74 241.16,-644.86 242.5,-644 256.57,-634.99 266.18,-639.87 275.5,-626 360.04,-500.15 266.83,-431.25 313.5,-287 321.48,-262.34 335.44,-236.99 347.99,-217.06"/>
<polygon fill="none" stroke="#404040" points="348.07,-216.94 347.97,-209.73 354.58,-206.87 354.68,-214.08 348.07,-216.94"/>
<text text-anchor="middle" x="343" y="-465" font-family="Helvetica,sans-Serif" font-size="10.00"> +InterpMethod</text>
</g>
</g>
</svg>
