<?xml version="1.0" encoding="UTF-8" standalone="no"?>
<!DOCTYPE svg PUBLIC "-//W3C//DTD SVG 1.1//EN"
 "http://www.w3.org/Graphics/SVG/1.1/DTD/svg11.dtd">
<!-- Generated by graphviz version 2.41.20171026.1811 (20171026.1811)
 -->
<!-- Title: SDK::UKillZDamageType Pages: 1 -->
<!--zoomable 1485 -->
<svg id="main" version="1.1" xmlns="http://www.w3.org/2000/svg" xmlns:xlink="http://www.w3.org/1999/xlink" xml:space="preserve" onload="init(evt)">
<style type="text/css"><![CDATA[
.edge:hover path { stroke: red; }
.edge:hover polygon { stroke: red; fill: red; }
]]></style>
<script type="text/javascript"><![CDATA[
var edges = document.getElementsByTagName('g');
if (edges && edges.length) {
  for (var i=0;i<edges.length;i++) {
    if (edges[i].id.substr(0,4)=='edge') {
      edges[i].setAttribute('class','edge');
    }
  }
}
]]></script>
        <defs>
                <circle id="rim" cx="0" cy="0" r="7"/>
                <circle id="rim2" cx="0" cy="0" r="3.5"/>
                <g id="zoomPlus">
                        <use xlink:href="#rim" fill="#404040">
                                <set attributeName="fill" to="#808080" begin="zoomplus.mouseover" end="zoomplus.mouseout"/>
                        </use>
                        <path d="M-4,0h8M0,-4v8" fill="none" stroke="white" stroke-width="1.5" pointer-events="none"/>
                </g>
                <g id="zoomMin">
                        <use xlink:href="#rim" fill="#404040">
                                <set attributeName="fill" to="#808080" begin="zoomminus.mouseover" end="zoomminus.mouseout"/>
                        </use>
                        <path d="M-4,0h8" fill="none" stroke="white" stroke-width="1.5" pointer-events="none"/>
                </g>
                <g id="dirArrow">
                        <path fill="none" stroke="white" stroke-width="1.5" d="M0,-3.0v7 M-2.5,-0.5L0,-3.0L2.5,-0.5"/>
                </g>
               <g id="resetDef">
                       <use xlink:href="#rim2" fill="#404040">
                               <set attributeName="fill" to="#808080" begin="reset.mouseover" end="reset.mouseout"/>
                       </use>
               </g>
        </defs>

<script type="text/javascript">
var viewWidth = 689;
var viewHeight = 1485;
var sectionId = 'dynsection-1';
</script>
<script xlink:href="../../svgpan.js"/>
<svg id="graph" class="graph">
<g id="viewport">
<title>SDK::UKillZDamageType</title>
<polygon fill="white" stroke="transparent" points="-4,4 -4,-1481 684.5,-1481 684.5,4 -4,4"/>
<!-- Node1 -->
<g id="node1" class="node">
<title>Node1</title>
<g id="a_node1"><a xlink:title=" ">
<polygon fill="#bfbfbf" stroke="black" points="40,-128.5 40,-185.5 169,-185.5 169,-128.5 40,-128.5"/>
<text text-anchor="middle" x="104.5" y="-173.5" font-family="Helvetica,sans-Serif" font-size="10.00">SDK::UKillZDamageType</text>
<polyline fill="none" stroke="black" points="40,-166.5 169,-166.5 "/>
<text text-anchor="middle" x="104.5" y="-154.5" font-family="Helvetica,sans-Serif" font-size="10.00"> </text>
<polyline fill="none" stroke="black" points="40,-147.5 169,-147.5 "/>
<text text-anchor="start" x="48" y="-135.5" font-family="Helvetica,sans-Serif" font-size="10.00">+ StaticClass()</text>
</a>
</g>
</g>
<!-- Node2 -->
<g id="node2" class="node">
<title>Node2</title>
<g id="a_node2"><a xlink:href="../../d1/d70/classSDK_1_1UDamageType.html" target="_top" xlink:title=" ">
<polygon fill="white" stroke="black" points="10.5,-223.5 10.5,-412.5 198.5,-412.5 198.5,-223.5 10.5,-223.5"/>
<text text-anchor="middle" x="104.5" y="-400.5" font-family="Helvetica,sans-Serif" font-size="10.00">SDK::UDamageType</text>
<polyline fill="none" stroke="black" points="10.5,-393.5 198.5,-393.5 "/>
<text text-anchor="start" x="18.5" y="-381.5" font-family="Helvetica,sans-Serif" font-size="10.00">+ bArmorStops</text>
<text text-anchor="start" x="18.5" y="-370.5" font-family="Helvetica,sans-Serif" font-size="10.00">+ bCausedByWorld</text>
<text text-anchor="start" x="18.5" y="-359.5" font-family="Helvetica,sans-Serif" font-size="10.00">+ bExtraMomentumZ</text>
<text text-anchor="start" x="18.5" y="-348.5" font-family="Helvetica,sans-Serif" font-size="10.00">+ bCausesFracture</text>
<text text-anchor="start" x="18.5" y="-337.5" font-family="Helvetica,sans-Serif" font-size="10.00">+ bRadialDamageVelChange</text>
<text text-anchor="start" x="18.5" y="-326.5" font-family="Helvetica,sans-Serif" font-size="10.00">+ KDamageImpulse</text>
<text text-anchor="start" x="18.5" y="-315.5" font-family="Helvetica,sans-Serif" font-size="10.00">+ KDeathVel</text>
<text text-anchor="start" x="18.5" y="-304.5" font-family="Helvetica,sans-Serif" font-size="10.00">+ KDeathUpKick</text>
<text text-anchor="start" x="18.5" y="-293.5" font-family="Helvetica,sans-Serif" font-size="10.00">+ RadialDamageImpulse</text>
<text text-anchor="start" x="18.5" y="-282.5" font-family="Helvetica,sans-Serif" font-size="10.00">+ VehicleDamageScaling</text>
<text text-anchor="start" x="18.5" y="-271.5" font-family="Helvetica,sans-Serif" font-size="10.00">+ VehicleMomentumScaling</text>
<text text-anchor="start" x="18.5" y="-260.5" font-family="Helvetica,sans-Serif" font-size="10.00">+ FracturedMeshDamage</text>
<polyline fill="none" stroke="black" points="10.5,-253.5 198.5,-253.5 "/>
<text text-anchor="start" x="18.5" y="-241.5" font-family="Helvetica,sans-Serif" font-size="10.00">+ STATIC_VehicleDamageScalingFor()</text>
<text text-anchor="start" x="18.5" y="-230.5" font-family="Helvetica,sans-Serif" font-size="10.00">+ StaticClass()</text>
</a>
</g>
</g>
<!-- Node2&#45;&gt;Node1 -->
<g id="edge1" class="edge">
<title>Node2&#45;&gt;Node1</title>
<path fill="none" stroke="midnightblue" d="M104.5,-213.08C104.5,-203.19 104.5,-193.85 104.5,-185.78"/>
<polygon fill="none" stroke="midnightblue" points="101,-213.13 104.5,-223.13 108,-213.13 101,-213.13"/>
</g>
<!-- Node3 -->
<g id="node3" class="node">
<title>Node3</title>
<g id="a_node3"><a xlink:href="../../d9/d45/classSDK_1_1UObject.html" target="_top" xlink:title=" ">
<polygon fill="white" stroke="black" points="244.5,-653.5 244.5,-897.5 442.5,-897.5 442.5,-653.5 244.5,-653.5"/>
<text text-anchor="middle" x="343.5" y="-885.5" font-family="Helvetica,sans-Serif" font-size="10.00">SDK::UObject</text>
<polyline fill="none" stroke="black" points="244.5,-878.5 442.5,-878.5 "/>
<text text-anchor="start" x="252.5" y="-866.5" font-family="Helvetica,sans-Serif" font-size="10.00">+ ObjectInternalInteger</text>
<text text-anchor="start" x="252.5" y="-855.5" font-family="Helvetica,sans-Serif" font-size="10.00">+ NetIndex</text>
<polyline fill="none" stroke="black" points="244.5,-848.5 442.5,-848.5 "/>
<text text-anchor="start" x="252.5" y="-836.5" font-family="Helvetica,sans-Serif" font-size="10.00">+ UObject::GetName()</text>
<text text-anchor="start" x="252.5" y="-825.5" font-family="Helvetica,sans-Serif" font-size="10.00">+ GetFullName()</text>
<text text-anchor="start" x="252.5" y="-814.5" font-family="Helvetica,sans-Serif" font-size="10.00">+ IsA()</text>
<text text-anchor="start" x="252.5" y="-803.5" font-family="Helvetica,sans-Serif" font-size="10.00">+ ProcessEvent()</text>
<text text-anchor="start" x="252.5" y="-792.5" font-family="Helvetica,sans-Serif" font-size="10.00">+ STATIC_ProfNodeEvent()</text>
<text text-anchor="start" x="252.5" y="-781.5" font-family="Helvetica,sans-Serif" font-size="10.00">+ STATIC_ProfNodeSetDepthThreshold()</text>
<text text-anchor="start" x="252.5" y="-770.5" font-family="Helvetica,sans-Serif" font-size="10.00">+ STATIC_ProfNodeSetTimeThreshold</text>
<text text-anchor="start" x="252.5" y="-759.5" font-family="Helvetica,sans-Serif" font-size="10.00">Seconds()</text>
<text text-anchor="start" x="252.5" y="-748.5" font-family="Helvetica,sans-Serif" font-size="10.00">+ STATIC_ProfNodeStop()</text>
<text text-anchor="start" x="252.5" y="-737.5" font-family="Helvetica,sans-Serif" font-size="10.00">+ STATIC_ProfNodeStart()</text>
<text text-anchor="start" x="252.5" y="-726.5" font-family="Helvetica,sans-Serif" font-size="10.00">+ STATIC_GetStringFromGuid()</text>
<text text-anchor="start" x="252.5" y="-715.5" font-family="Helvetica,sans-Serif" font-size="10.00">and 298 more...</text>
<text text-anchor="start" x="252.5" y="-704.5" font-family="Helvetica,sans-Serif" font-size="10.00">+ GetGlobalObjects()</text>
<text text-anchor="start" x="252.5" y="-693.5" font-family="Helvetica,sans-Serif" font-size="10.00">+ FindObject()</text>
<text text-anchor="start" x="252.5" y="-682.5" font-family="Helvetica,sans-Serif" font-size="10.00">+ FindClass()</text>
<text text-anchor="start" x="252.5" y="-671.5" font-family="Helvetica,sans-Serif" font-size="10.00">+ GetObjectCasted()</text>
<text text-anchor="start" x="252.5" y="-660.5" font-family="Helvetica,sans-Serif" font-size="10.00">+ StaticClass()</text>
</a>
</g>
</g>
<!-- Node3&#45;&gt;Node2 -->
<g id="edge2" class="edge">
<title>Node3&#45;&gt;Node2</title>
<path fill="none" stroke="midnightblue" d="M240.83,-644.18C239.31,-641.13 237.87,-638.07 236.5,-635 198.96,-550.76 237.88,-514.39 198.5,-431 195.57,-424.8 192.22,-418.67 188.56,-412.65"/>
<polygon fill="none" stroke="midnightblue" points="237.86,-646.04 245.59,-653.29 244.06,-642.8 237.86,-646.04"/>
</g>
<!-- Node3&#45;&gt;Node3 -->
<g id="edge8" class="edge">
<title>Node3&#45;&gt;Node3</title>
<path fill="none" stroke="#404040" d="M442.51,-798.53C453.44,-794.15 460.5,-786.48 460.5,-775.5 460.5,-768.64 457.74,-763.07 453.01,-758.78"/>
<polygon fill="none" stroke="#404040" points="452.8,-758.66 445.59,-758.99 442.51,-752.47 449.72,-752.14 452.8,-758.66"/>
<text text-anchor="middle" x="500" y="-784" font-family="Helvetica,sans-Serif" font-size="10.00"> +Outer</text>
<text text-anchor="middle" x="500" y="-773" font-family="Helvetica,sans-Serif" font-size="10.00">+Linker</text>
<text text-anchor="middle" x="500" y="-762" font-family="Helvetica,sans-Serif" font-size="10.00">+ObjectArchetype</text>
</g>
<!-- Node9 -->
<g id="node9" class="node">
<title>Node9</title>
<g id="a_node9"><a xlink:href="../../d3/d79/classSDK_1_1TArray.html" target="_top" xlink:title=" ">
<polygon fill="white" stroke="black" points="468,-471.5 468,-605.5 629,-605.5 629,-471.5 468,-471.5"/>
<text text-anchor="middle" x="548.5" y="-593.5" font-family="Helvetica,sans-Serif" font-size="10.00">SDK::TArray&lt; SDK::UObject * &gt;</text>
<polyline fill="none" stroke="black" points="468,-586.5 629,-586.5 "/>
<text text-anchor="start" x="476" y="-574.5" font-family="Helvetica,sans-Serif" font-size="10.00">&#45; Count</text>
<text text-anchor="start" x="476" y="-563.5" font-family="Helvetica,sans-Serif" font-size="10.00">&#45; Max</text>
<polyline fill="none" stroke="black" points="468,-556.5 629,-556.5 "/>
<text text-anchor="start" x="476" y="-544.5" font-family="Helvetica,sans-Serif" font-size="10.00">+ TArray()</text>
<text text-anchor="start" x="476" y="-533.5" font-family="Helvetica,sans-Serif" font-size="10.00">+ Num()</text>
<text text-anchor="start" x="476" y="-522.5" font-family="Helvetica,sans-Serif" font-size="10.00">+ operator[]()</text>
<text text-anchor="start" x="476" y="-511.5" font-family="Helvetica,sans-Serif" font-size="10.00">+ operator[]()</text>
<text text-anchor="start" x="476" y="-500.5" font-family="Helvetica,sans-Serif" font-size="10.00">+ IsValidIndex()</text>
<text text-anchor="start" x="476" y="-489.5" font-family="Helvetica,sans-Serif" font-size="10.00">+ GetByIndex()</text>
<text text-anchor="start" x="476" y="-478.5" font-family="Helvetica,sans-Serif" font-size="10.00">+ GetByIndex()</text>
</a>
</g>
</g>
<!-- Node3&#45;&gt;Node9 -->
<g id="edge10" class="edge">
<title>Node3&#45;&gt;Node9</title>
<path fill="none" stroke="#404040" d="M442.76,-716.47C472.95,-694.43 503.62,-666.85 524.5,-635 528.13,-629.46 531.21,-623.41 533.83,-617.13"/>
<polygon fill="none" stroke="#404040" points="533.91,-616.9 532.23,-609.89 538.05,-605.64 539.74,-612.65 533.91,-616.9"/>
<text text-anchor="middle" x="543.5" y="-627" font-family="Helvetica,sans-Serif" font-size="10.00"> &#45;Data</text>
</g>
<!-- Node11 -->
<g id="node11" class="node">
<title>Node11</title>
<g id="a_node11"><a xlink:href="../../d7/d85/classSDK_1_1UClass.html" target="_top" xlink:title=" ">
<polygon fill="white" stroke="black" points="293,-0.5 293,-90.5 414,-90.5 414,-0.5 293,-0.5"/>
<text text-anchor="middle" x="353.5" y="-78.5" font-family="Helvetica,sans-Serif" font-size="10.00">SDK::UClass</text>
<polyline fill="none" stroke="black" points="293,-71.5 414,-71.5 "/>
<text text-anchor="start" x="301" y="-59.5" font-family="Helvetica,sans-Serif" font-size="10.00">+ UnknownData00</text>
<text text-anchor="start" x="301" y="-48.5" font-family="Helvetica,sans-Serif" font-size="10.00">+ UnknownData01</text>
<polyline fill="none" stroke="black" points="293,-41.5 414,-41.5 "/>
<text text-anchor="start" x="301" y="-29.5" font-family="Helvetica,sans-Serif" font-size="10.00">+ CreateDefaultObject()</text>
<text text-anchor="start" x="301" y="-18.5" font-family="Helvetica,sans-Serif" font-size="10.00">+ CreateDefaultObject()</text>
<text text-anchor="start" x="301" y="-7.5" font-family="Helvetica,sans-Serif" font-size="10.00">+ StaticClass()</text>
</a>
</g>
</g>
<!-- Node3&#45;&gt;Node11 -->
<g id="edge20" class="edge">
<title>Node3&#45;&gt;Node11</title>
<path fill="none" stroke="#404040" d="M413.52,-653.21C428.28,-617.72 439.5,-578.06 439.5,-539.5 439.5,-539.5 439.5,-539.5 439.5,-156 439.5,-135.29 429.87,-116.17 417.05,-99.91"/>
<polygon fill="none" stroke="#404040" points="416.96,-99.81 410.02,-97.83 409.18,-90.67 416.12,-92.64 416.96,-99.81"/>
<text text-anchor="middle" x="487" y="-315.5" font-family="Helvetica,sans-Serif" font-size="10.00"> +ClassDefaultObject</text>
</g>
<!-- Node14 -->
<g id="node14" class="node">
<title>Node14</title>
<g id="a_node14"><a xlink:href="../../de/dd6/classSDK_1_1UField.html" target="_top" xlink:title=" ">
<polygon fill="white" stroke="black" points="279,-510 279,-567 362,-567 362,-510 279,-510"/>
<text text-anchor="middle" x="320.5" y="-555" font-family="Helvetica,sans-Serif" font-size="10.00">SDK::UField</text>
<polyline fill="none" stroke="black" points="279,-548 362,-548 "/>
<text text-anchor="middle" x="320.5" y="-536" font-family="Helvetica,sans-Serif" font-size="10.00"> </text>
<polyline fill="none" stroke="black" points="279,-529 362,-529 "/>
<text text-anchor="start" x="287" y="-517" font-family="Helvetica,sans-Serif" font-size="10.00">+ StaticClass()</text>
</a>
</g>
</g>
<!-- Node3&#45;&gt;Node14 -->
<g id="edge17" class="edge">
<title>Node3&#45;&gt;Node14</title>
<path fill="none" stroke="midnightblue" d="M330.63,-643.01C327.82,-614.27 325.12,-586.66 323.21,-567.19"/>
<polygon fill="none" stroke="midnightblue" points="327.17,-643.6 331.63,-653.21 334.14,-642.92 327.17,-643.6"/>
</g>
<!-- Node15 -->
<g id="node15" class="node">
<title>Node15</title>
<g id="a_node15"><a xlink:href="../../da/db0/classSDK_1_1UForceFeedbackWaveform.html" target="_top" xlink:title=" ">
<polygon fill="white" stroke="black" points="12.5,-499 12.5,-578 176.5,-578 176.5,-499 12.5,-499"/>
<text text-anchor="middle" x="94.5" y="-566" font-family="Helvetica,sans-Serif" font-size="10.00">SDK::UForceFeedbackWaveform</text>
<polyline fill="none" stroke="black" points="12.5,-559 176.5,-559 "/>
<text text-anchor="start" x="20.5" y="-547" font-family="Helvetica,sans-Serif" font-size="10.00">+ bIsLooping</text>
<text text-anchor="start" x="20.5" y="-536" font-family="Helvetica,sans-Serif" font-size="10.00">+ WaveformFalloffStartDistance</text>
<text text-anchor="start" x="20.5" y="-525" font-family="Helvetica,sans-Serif" font-size="10.00">+ MaxWaveformDistance</text>
<polyline fill="none" stroke="black" points="12.5,-518 176.5,-518 "/>
<text text-anchor="start" x="20.5" y="-506" font-family="Helvetica,sans-Serif" font-size="10.00">+ StaticClass()</text>
</a>
</g>
</g>
<!-- Node3&#45;&gt;Node15 -->
<g id="edge22" class="edge">
<title>Node3&#45;&gt;Node15</title>
<path fill="none" stroke="midnightblue" d="M236.77,-673.77C200.97,-639.98 163.17,-604.31 135.54,-578.23"/>
<polygon fill="none" stroke="midnightblue" points="234.7,-676.63 244.37,-680.95 239.5,-671.54 234.7,-676.63"/>
</g>
<!-- Node4 -->
<g id="node4" class="node">
<title>Node4</title>
<g id="a_node4"><a xlink:href="../../d0/d22/structSDK_1_1FQWord.html" target="_top" xlink:title=" ">
<polygon fill="white" stroke="black" points="473.5,-995 473.5,-1063 553.5,-1063 553.5,-995 473.5,-995"/>
<text text-anchor="middle" x="513.5" y="-1051" font-family="Helvetica,sans-Serif" font-size="10.00">SDK::FQWord</text>
<polyline fill="none" stroke="black" points="473.5,-1044 553.5,-1044 "/>
<text text-anchor="start" x="481.5" y="-1032" font-family="Helvetica,sans-Serif" font-size="10.00">+ A</text>
<text text-anchor="start" x="481.5" y="-1021" font-family="Helvetica,sans-Serif" font-size="10.00">+ B</text>
<polyline fill="none" stroke="black" points="473.5,-1014 553.5,-1014 "/>
<text text-anchor="middle" x="513.5" y="-1002" font-family="Helvetica,sans-Serif" font-size="10.00"> </text>
</a>
</g>
</g>
<!-- Node4&#45;&gt;Node3 -->
<g id="edge3" class="edge">
<title>Node4&#45;&gt;Node3</title>
<path fill="none" stroke="#404040" d="M491.1,-994.86C475.7,-972.08 454.14,-940.19 432.26,-907.81"/>
<polygon fill="none" stroke="#404040" points="432.18,-907.69 425.5,-904.96 425.46,-897.75 432.13,-900.48 432.18,-907.69"/>
<text text-anchor="middle" x="489.5" y="-930" font-family="Helvetica,sans-Serif" font-size="10.00"> +ObjectFlags</text>
</g>
<!-- Node5 -->
<g id="node5" class="node">
<title>Node5</title>
<g id="a_node5"><a xlink:href="../../d0/db6/structSDK_1_1FName.html" target="_top" xlink:title=" ">
<polygon fill="white" stroke="black" points="348,-967.5 348,-1090.5 455,-1090.5 455,-967.5 348,-967.5"/>
<text text-anchor="middle" x="401.5" y="-1078.5" font-family="Helvetica,sans-Serif" font-size="10.00">SDK::FName</text>
<polyline fill="none" stroke="black" points="348,-1071.5 455,-1071.5 "/>
<text text-anchor="start" x="356" y="-1059.5" font-family="Helvetica,sans-Serif" font-size="10.00">+ Index</text>
<text text-anchor="start" x="356" y="-1048.5" font-family="Helvetica,sans-Serif" font-size="10.00">+ Number</text>
<polyline fill="none" stroke="black" points="348,-1041.5 455,-1041.5 "/>
<text text-anchor="start" x="356" y="-1029.5" font-family="Helvetica,sans-Serif" font-size="10.00">+ FName()</text>
<text text-anchor="start" x="356" y="-1018.5" font-family="Helvetica,sans-Serif" font-size="10.00">+ FName()</text>
<text text-anchor="start" x="356" y="-1007.5" font-family="Helvetica,sans-Serif" font-size="10.00">+ FName()</text>
<text text-anchor="start" x="356" y="-996.5" font-family="Helvetica,sans-Serif" font-size="10.00">+ GetName()</text>
<text text-anchor="start" x="356" y="-985.5" font-family="Helvetica,sans-Serif" font-size="10.00">+ operator==()</text>
<text text-anchor="start" x="356" y="-974.5" font-family="Helvetica,sans-Serif" font-size="10.00">+ GetGlobalNames()</text>
</a>
</g>
</g>
<!-- Node5&#45;&gt;Node3 -->
<g id="edge4" class="edge">
<title>Node5&#45;&gt;Node3</title>
<path fill="none" stroke="#404040" d="M387.53,-967.44C383.47,-949.82 378.86,-929.84 374.2,-909.61"/>
<polygon fill="none" stroke="#404040" points="374.14,-909.38 368.9,-904.43 371.45,-897.69 376.69,-902.63 374.14,-909.38"/>
<text text-anchor="middle" x="400.5" y="-930" font-family="Helvetica,sans-Serif" font-size="10.00"> +Name</text>
</g>
<!-- Node6 -->
<g id="node6" class="node">
<title>Node6</title>
<g id="a_node6"><a xlink:href="../../d3/d79/classSDK_1_1TArray.html" target="_top" xlink:title=" ">
<polygon fill="white" stroke="black" points="357.5,-1149.5 357.5,-1283.5 537.5,-1283.5 537.5,-1149.5 357.5,-1149.5"/>
<text text-anchor="middle" x="447.5" y="-1271.5" font-family="Helvetica,sans-Serif" font-size="10.00">SDK::TArray&lt; SDK::FNameEntry * &gt;</text>
<polyline fill="none" stroke="black" points="357.5,-1264.5 537.5,-1264.5 "/>
<text text-anchor="start" x="365.5" y="-1252.5" font-family="Helvetica,sans-Serif" font-size="10.00">&#45; Count</text>
<text text-anchor="start" x="365.5" y="-1241.5" font-family="Helvetica,sans-Serif" font-size="10.00">&#45; Max</text>
<polyline fill="none" stroke="black" points="357.5,-1234.5 537.5,-1234.5 "/>
<text text-anchor="start" x="365.5" y="-1222.5" font-family="Helvetica,sans-Serif" font-size="10.00">+ TArray()</text>
<text text-anchor="start" x="365.5" y="-1211.5" font-family="Helvetica,sans-Serif" font-size="10.00">+ Num()</text>
<text text-anchor="start" x="365.5" y="-1200.5" font-family="Helvetica,sans-Serif" font-size="10.00">+ operator[]()</text>
<text text-anchor="start" x="365.5" y="-1189.5" font-family="Helvetica,sans-Serif" font-size="10.00">+ operator[]()</text>
<text text-anchor="start" x="365.5" y="-1178.5" font-family="Helvetica,sans-Serif" font-size="10.00">+ IsValidIndex()</text>
<text text-anchor="start" x="365.5" y="-1167.5" font-family="Helvetica,sans-Serif" font-size="10.00">+ GetByIndex()</text>
<text text-anchor="start" x="365.5" y="-1156.5" font-family="Helvetica,sans-Serif" font-size="10.00">+ GetByIndex()</text>
</a>
</g>
</g>
<!-- Node6&#45;&gt;Node5 -->
<g id="edge5" class="edge">
<title>Node6&#45;&gt;Node5</title>
<path fill="none" stroke="#404040" d="M431.09,-1149.32C427.3,-1134.06 423.26,-1117.76 419.42,-1102.26"/>
<polygon fill="none" stroke="#404040" points="419.41,-1102.24 414.09,-1097.38 416.53,-1090.59 421.85,-1095.45 419.41,-1102.24"/>
<text text-anchor="middle" x="450" y="-1117.5" font-family="Helvetica,sans-Serif" font-size="10.00"> +GNames</text>
</g>
<!-- Node7 -->
<g id="node7" class="node">
<title>Node7</title>
<g id="a_node7"><a xlink:href="../../d7/ddf/classSDK_1_1FNameEntry.html" target="_top" xlink:title=" ">
<polygon fill="white" stroke="black" points="573,-1370 573,-1438 672,-1438 672,-1370 573,-1370"/>
<text text-anchor="middle" x="622.5" y="-1426" font-family="Helvetica,sans-Serif" font-size="10.00">SDK::FNameEntry</text>
<polyline fill="none" stroke="black" points="573,-1419 672,-1419 "/>
<text text-anchor="start" x="581" y="-1407" font-family="Helvetica,sans-Serif" font-size="10.00">+ UnknownData00</text>
<text text-anchor="start" x="581" y="-1396" font-family="Helvetica,sans-Serif" font-size="10.00">+ name</text>
<polyline fill="none" stroke="black" points="573,-1389 672,-1389 "/>
<text text-anchor="start" x="581" y="-1377" font-family="Helvetica,sans-Serif" font-size="10.00">+ GetName()</text>
</a>
</g>
</g>
<!-- Node7&#45;&gt;Node6 -->
<g id="edge6" class="edge">
<title>Node7&#45;&gt;Node6</title>
<path fill="none" stroke="#404040" d="M607.12,-1369.84C596.44,-1348.97 580.86,-1322.25 562.5,-1302 557.53,-1296.52 552.16,-1291.17 546.54,-1285.99"/>
<polygon fill="none" stroke="#404040" points="546.51,-1285.97 539.37,-1284.98 537.53,-1278 544.68,-1278.99 546.51,-1285.97"/>
<text text-anchor="middle" x="584.5" y="-1305" font-family="Helvetica,sans-Serif" font-size="10.00"> &#45;Data</text>
</g>
<!-- Node8 -->
<g id="node8" class="node">
<title>Node8</title>
<g id="a_node8"><a xlink:href="../../d3/d79/classSDK_1_1TArray.html" target="_top" xlink:title=" ">
<polygon fill="white" stroke="black" points="399,-1331.5 399,-1476.5 496,-1476.5 496,-1331.5 399,-1331.5"/>
<text text-anchor="middle" x="447.5" y="-1464.5" font-family="Helvetica,sans-Serif" font-size="10.00">SDK::TArray&lt; T &gt;</text>
<polyline fill="none" stroke="black" points="399,-1457.5 496,-1457.5 "/>
<text text-anchor="start" x="407" y="-1445.5" font-family="Helvetica,sans-Serif" font-size="10.00">&#45; Data</text>
<text text-anchor="start" x="407" y="-1434.5" font-family="Helvetica,sans-Serif" font-size="10.00">&#45; Count</text>
<text text-anchor="start" x="407" y="-1423.5" font-family="Helvetica,sans-Serif" font-size="10.00">&#45; Max</text>
<polyline fill="none" stroke="black" points="399,-1416.5 496,-1416.5 "/>
<text text-anchor="start" x="407" y="-1404.5" font-family="Helvetica,sans-Serif" font-size="10.00">+ TArray()</text>
<text text-anchor="start" x="407" y="-1393.5" font-family="Helvetica,sans-Serif" font-size="10.00">+ Num()</text>
<text text-anchor="start" x="407" y="-1382.5" font-family="Helvetica,sans-Serif" font-size="10.00">+ operator[]()</text>
<text text-anchor="start" x="407" y="-1371.5" font-family="Helvetica,sans-Serif" font-size="10.00">+ operator[]()</text>
<text text-anchor="start" x="407" y="-1360.5" font-family="Helvetica,sans-Serif" font-size="10.00">+ IsValidIndex()</text>
<text text-anchor="start" x="407" y="-1349.5" font-family="Helvetica,sans-Serif" font-size="10.00">+ GetByIndex()</text>
<text text-anchor="start" x="407" y="-1338.5" font-family="Helvetica,sans-Serif" font-size="10.00">+ GetByIndex()</text>
</a>
</g>
</g>
<!-- Node8&#45;&gt;Node6 -->
<g id="edge7" class="edge">
<title>Node8&#45;&gt;Node6</title>
<path fill="none" stroke="orange" d="M447.5,-1321.25C447.5,-1308.65 447.5,-1295.77 447.5,-1283.56"/>
<polygon fill="orange" stroke="orange" points="444,-1321.28 447.5,-1331.28 451,-1321.28 444,-1321.28"/>
<text text-anchor="middle" x="503" y="-1305" font-family="Helvetica,sans-Serif" font-size="10.00"> &lt; SDK::FNameEntry * &gt;</text>
</g>
<!-- Node8&#45;&gt;Node9 -->
<g id="edge11" class="edge">
<title>Node8&#45;&gt;Node9</title>
<path fill="none" stroke="orange" d="M504.29,-1369.47C525.26,-1354.56 547.53,-1335.3 562.5,-1313 587.08,-1276.38 589.5,-1261.61 589.5,-1217.5 589.5,-1217.5 589.5,-1217.5 589.5,-774.5 589.5,-716.83 577.37,-652.37 566.3,-605.57"/>
<polygon fill="orange" stroke="orange" points="502.27,-1366.61 496.03,-1375.17 506.25,-1372.37 502.27,-1366.61"/>
<text text-anchor="middle" x="635" y="-1026.5" font-family="Helvetica,sans-Serif" font-size="10.00"> &lt; SDK::UObject * &gt;</text>
</g>
<!-- Node16 -->
<g id="node16" class="node">
<title>Node16</title>
<g id="a_node16"><a xlink:href="../../d3/d79/classSDK_1_1TArray.html" target="_top" xlink:title=" ">
<polygon fill="white" stroke="black" points="24.5,-703 24.5,-848 164.5,-848 164.5,-703 24.5,-703"/>
<text text-anchor="start" x="32.5" y="-836" font-family="Helvetica,sans-Serif" font-size="10.00">SDK::TArray&lt; struct</text>
<text text-anchor="middle" x="94.5" y="-825" font-family="Helvetica,sans-Serif" font-size="10.00"> SDK::FWaveformSample &gt;</text>
<polyline fill="none" stroke="black" points="24.5,-818 164.5,-818 "/>
<text text-anchor="start" x="32.5" y="-806" font-family="Helvetica,sans-Serif" font-size="10.00">&#45; Count</text>
<text text-anchor="start" x="32.5" y="-795" font-family="Helvetica,sans-Serif" font-size="10.00">&#45; Max</text>
<polyline fill="none" stroke="black" points="24.5,-788 164.5,-788 "/>
<text text-anchor="start" x="32.5" y="-776" font-family="Helvetica,sans-Serif" font-size="10.00">+ TArray()</text>
<text text-anchor="start" x="32.5" y="-765" font-family="Helvetica,sans-Serif" font-size="10.00">+ Num()</text>
<text text-anchor="start" x="32.5" y="-754" font-family="Helvetica,sans-Serif" font-size="10.00">+ operator[]()</text>
<text text-anchor="start" x="32.5" y="-743" font-family="Helvetica,sans-Serif" font-size="10.00">+ operator[]()</text>
<text text-anchor="start" x="32.5" y="-732" font-family="Helvetica,sans-Serif" font-size="10.00">+ IsValidIndex()</text>
<text text-anchor="start" x="32.5" y="-721" font-family="Helvetica,sans-Serif" font-size="10.00">+ GetByIndex()</text>
<text text-anchor="start" x="32.5" y="-710" font-family="Helvetica,sans-Serif" font-size="10.00">+ GetByIndex()</text>
</a>
</g>
</g>
<!-- Node8&#45;&gt;Node16 -->
<g id="edge27" class="edge">
<title>Node8&#45;&gt;Node16</title>
<path fill="none" stroke="orange" d="M392.11,-1339.26C377.49,-1321.69 362.04,-1302.4 348.5,-1284 287.93,-1201.68 270.87,-1181.55 223.5,-1091 181.37,-1010.47 143.25,-913.02 119.55,-848.14"/>
<polygon fill="orange" stroke="orange" points="389.65,-1341.78 398.75,-1347.21 395.02,-1337.29 389.65,-1341.78"/>
<text text-anchor="middle" x="324.5" y="-1117.5" font-family="Helvetica,sans-Serif" font-size="10.00"> &lt; struct SDK::FWaveformSample &gt;</text>
</g>
<!-- Node9&#45;&gt;Node3 -->
<g id="edge9" class="edge">
<title>Node9&#45;&gt;Node3</title>
<path fill="none" stroke="#404040" d="M489.46,-605.85C484.05,-611.98 478.67,-618.1 473.5,-624 466.07,-632.48 458.42,-641.25 450.73,-650.09"/>
<polygon fill="none" stroke="#404040" points="450.58,-650.27 449.66,-657.42 442.71,-659.32 443.63,-652.17 450.58,-650.27"/>
<text text-anchor="middle" x="499" y="-627" font-family="Helvetica,sans-Serif" font-size="10.00"> +GObjects</text>
</g>
<!-- Node10 -->
<g id="node10" class="node">
<title>Node10</title>
<g id="a_node10"><a xlink:href="../../d9/dfa/structSDK_1_1FPointer.html" target="_top" xlink:title=" ">
<polygon fill="white" stroke="black" points="232.5,-995 232.5,-1063 330.5,-1063 330.5,-995 232.5,-995"/>
<text text-anchor="middle" x="281.5" y="-1051" font-family="Helvetica,sans-Serif" font-size="10.00">SDK::FPointer</text>
<polyline fill="none" stroke="black" points="232.5,-1044 330.5,-1044 "/>
<text text-anchor="start" x="240.5" y="-1032" font-family="Helvetica,sans-Serif" font-size="10.00">+ Dummy</text>
<text text-anchor="start" x="240.5" y="-1021" font-family="Helvetica,sans-Serif" font-size="10.00">+ UnknownData00</text>
<polyline fill="none" stroke="black" points="232.5,-1014 330.5,-1014 "/>
<text text-anchor="middle" x="281.5" y="-1002" font-family="Helvetica,sans-Serif" font-size="10.00"> </text>
</a>
</g>
</g>
<!-- Node10&#45;&gt;Node3 -->
<g id="edge12" class="edge">
<title>Node10&#45;&gt;Node3</title>
<path fill="none" stroke="#404040" d="M286.79,-994.98C290.6,-972.58 296.17,-942.35 302.5,-916 303.02,-913.84 303.55,-911.66 304.09,-909.47"/>
<polygon fill="none" stroke="#404040" points="304.14,-909.29 301.74,-902.49 307.1,-897.66 309.49,-904.46 304.14,-909.29"/>
<text text-anchor="middle" x="337" y="-941" font-family="Helvetica,sans-Serif" font-size="10.00"> +StateFrame</text>
<text text-anchor="middle" x="337" y="-930" font-family="Helvetica,sans-Serif" font-size="10.00">+VfTableObject</text>
<text text-anchor="middle" x="337" y="-919" font-family="Helvetica,sans-Serif" font-size="10.00">+LinkerIndex</text>
</g>
<!-- Node11&#45;&gt;Node3 -->
<g id="edge13" class="edge">
<title>Node11&#45;&gt;Node3</title>
<path fill="none" stroke="#404040" d="M292.99,-83.22C270.57,-101.72 250.5,-126.51 250.5,-156 250.5,-539.5 250.5,-539.5 250.5,-539.5 250.5,-573.94 259.24,-609.36 271.37,-641.91"/>
<polygon fill="none" stroke="#404040" points="271.45,-642.11 277.35,-646.26 275.79,-653.3 269.89,-649.15 271.45,-642.11"/>
<text text-anchor="middle" x="268" y="-315.5" font-family="Helvetica,sans-Serif" font-size="10.00"> +Class</text>
</g>
<!-- Node12 -->
<g id="node12" class="node">
<title>Node12</title>
<g id="a_node12"><a xlink:href="../../df/d72/classSDK_1_1UState.html" target="_top" xlink:title=" ">
<polygon fill="white" stroke="black" points="304.5,-128.5 304.5,-185.5 402.5,-185.5 402.5,-128.5 304.5,-128.5"/>
<text text-anchor="middle" x="353.5" y="-173.5" font-family="Helvetica,sans-Serif" font-size="10.00">SDK::UState</text>
<polyline fill="none" stroke="black" points="304.5,-166.5 402.5,-166.5 "/>
<text text-anchor="start" x="312.5" y="-154.5" font-family="Helvetica,sans-Serif" font-size="10.00">+ UnknownData00</text>
<polyline fill="none" stroke="black" points="304.5,-147.5 402.5,-147.5 "/>
<text text-anchor="start" x="312.5" y="-135.5" font-family="Helvetica,sans-Serif" font-size="10.00">+ StaticClass()</text>
</a>
</g>
</g>
<!-- Node12&#45;&gt;Node11 -->
<g id="edge14" class="edge">
<title>Node12&#45;&gt;Node11</title>
<path fill="none" stroke="midnightblue" d="M353.5,-118.31C353.5,-109.43 353.5,-99.88 353.5,-90.74"/>
<polygon fill="none" stroke="midnightblue" points="350,-118.37 353.5,-128.37 357,-118.37 350,-118.37"/>
</g>
<!-- Node13 -->
<g id="node13" class="node">
<title>Node13</title>
<g id="a_node13"><a xlink:href="../../d8/de9/classSDK_1_1UStruct.html" target="_top" xlink:title=" ">
<polygon fill="white" stroke="black" points="304.5,-278.5 304.5,-357.5 402.5,-357.5 402.5,-278.5 304.5,-278.5"/>
<text text-anchor="middle" x="353.5" y="-345.5" font-family="Helvetica,sans-Serif" font-size="10.00">SDK::UStruct</text>
<polyline fill="none" stroke="black" points="304.5,-338.5 402.5,-338.5 "/>
<text text-anchor="start" x="312.5" y="-326.5" font-family="Helvetica,sans-Serif" font-size="10.00">+ UnknownData00</text>
<text text-anchor="start" x="312.5" y="-315.5" font-family="Helvetica,sans-Serif" font-size="10.00">+ PropertySize</text>
<text text-anchor="start" x="312.5" y="-304.5" font-family="Helvetica,sans-Serif" font-size="10.00">+ UnknownData01</text>
<polyline fill="none" stroke="black" points="304.5,-297.5 402.5,-297.5 "/>
<text text-anchor="start" x="312.5" y="-285.5" font-family="Helvetica,sans-Serif" font-size="10.00">+ StaticClass()</text>
</a>
</g>
</g>
<!-- Node13&#45;&gt;Node12 -->
<g id="edge15" class="edge">
<title>Node13&#45;&gt;Node12</title>
<path fill="none" stroke="midnightblue" d="M353.5,-268.02C353.5,-240.9 353.5,-208.2 353.5,-185.53"/>
<polygon fill="none" stroke="midnightblue" points="350,-268.1 353.5,-278.1 357,-268.1 350,-268.1"/>
</g>
<!-- Node14&#45;&gt;Node13 -->
<g id="edge16" class="edge">
<title>Node14&#45;&gt;Node13</title>
<path fill="none" stroke="midnightblue" d="M341.74,-500.6C348.87,-486.23 355.92,-469.31 359.5,-453 366.44,-421.38 364.08,-384.6 360.47,-357.57"/>
<polygon fill="none" stroke="midnightblue" points="338.55,-499.15 337.08,-509.64 344.77,-502.36 338.55,-499.15"/>
</g>
<!-- Node14&#45;&gt;Node13 -->
<g id="edge19" class="edge">
<title>Node14&#45;&gt;Node13</title>
<path fill="none" stroke="#404040" d="M308.65,-509.82C300.96,-488.27 293.41,-457.64 299.5,-431 304.42,-409.45 314.05,-387.22 323.83,-368.3"/>
<polygon fill="none" stroke="#404040" points="323.9,-368.16 323.21,-360.98 329.57,-357.58 330.26,-364.75 323.9,-368.16"/>
<text text-anchor="middle" x="327.5" y="-445" font-family="Helvetica,sans-Serif" font-size="10.00"> +SuperField</text>
<text text-anchor="middle" x="327.5" y="-434" font-family="Helvetica,sans-Serif" font-size="10.00">+Children</text>
</g>
<!-- Node14&#45;&gt;Node14 -->
<g id="edge18" class="edge">
<title>Node14&#45;&gt;Node14</title>
<path fill="none" stroke="#404040" d="M362.21,-555.11C372.41,-553.88 380,-548.34 380,-538.5 380,-532.96 377.6,-528.79 373.68,-525.98"/>
<polygon fill="none" stroke="#404040" points="373.51,-525.92 366.51,-527.67 362.21,-521.89 369.2,-520.13 373.51,-525.92"/>
<text text-anchor="middle" x="395.5" y="-536" font-family="Helvetica,sans-Serif" font-size="10.00"> +Next</text>
</g>
<!-- Node15&#45;&gt;Node2 -->
<g id="edge21" class="edge">
<title>Node15&#45;&gt;Node2</title>
<path fill="none" stroke="#404040" d="M91.73,-498.82C90.83,-484.44 89.94,-467.98 89.5,-453 89.21,-443.23 88.85,-440.76 89.5,-431 89.64,-428.95 89.79,-426.88 89.95,-424.79"/>
<polygon fill="none" stroke="#404040" points="89.96,-424.67 86.5,-418.34 91.01,-412.71 94.47,-419.04 89.96,-424.67"/>
<text text-anchor="middle" x="144" y="-445" font-family="Helvetica,sans-Serif" font-size="10.00"> +DamagedFFWaveform</text>
<text text-anchor="middle" x="144" y="-434" font-family="Helvetica,sans-Serif" font-size="10.00">+KilledFFWaveform</text>
</g>
<!-- Node16&#45;&gt;Node15 -->
<g id="edge23" class="edge">
<title>Node16&#45;&gt;Node15</title>
<path fill="none" stroke="#404040" d="M94.5,-702.72C94.5,-666.33 94.5,-623.02 94.5,-590.15"/>
<polygon fill="none" stroke="#404040" points="94.5,-590.11 90.5,-584.11 94.5,-578.11 98.5,-584.11 94.5,-590.11"/>
<text text-anchor="middle" x="118.5" y="-627" font-family="Helvetica,sans-Serif" font-size="10.00"> +Samples</text>
</g>
<!-- Node17 -->
<g id="node17" class="node">
<title>Node17</title>
<g id="a_node17"><a xlink:href="../../db/df4/structSDK_1_1FWaveformSample.html" target="_top" xlink:title=" ">
<polygon fill="white" stroke="black" points="28.5,-989.5 28.5,-1068.5 156.5,-1068.5 156.5,-989.5 28.5,-989.5"/>
<text text-anchor="middle" x="92.5" y="-1056.5" font-family="Helvetica,sans-Serif" font-size="10.00">SDK::FWaveformSample</text>
<polyline fill="none" stroke="black" points="28.5,-1049.5 156.5,-1049.5 "/>
<text text-anchor="start" x="36.5" y="-1037.5" font-family="Helvetica,sans-Serif" font-size="10.00">+ LeftAmplitude</text>
<text text-anchor="start" x="36.5" y="-1026.5" font-family="Helvetica,sans-Serif" font-size="10.00">+ RightAmplitude</text>
<text text-anchor="start" x="36.5" y="-1015.5" font-family="Helvetica,sans-Serif" font-size="10.00">+ Duration</text>
<polyline fill="none" stroke="black" points="28.5,-1008.5 156.5,-1008.5 "/>
<text text-anchor="middle" x="92.5" y="-996.5" font-family="Helvetica,sans-Serif" font-size="10.00"> </text>
</a>
</g>
</g>
<!-- Node17&#45;&gt;Node16 -->
<g id="edge24" class="edge">
<title>Node17&#45;&gt;Node16</title>
<path fill="none" stroke="#404040" d="M92.81,-989.25C93.08,-955 93.49,-903.84 93.83,-860.28"/>
<polygon fill="none" stroke="#404040" points="93.83,-860.21 89.88,-854.18 93.93,-848.21 97.88,-854.24 93.83,-860.21"/>
<text text-anchor="middle" x="107.5" y="-930" font-family="Helvetica,sans-Serif" font-size="10.00"> &#45;Data</text>
</g>
<!-- Node18 -->
<g id="node18" class="node">
<title>Node18</title>
<g id="a_node18"><a xlink:href="../../df/d1c/classSDK_1_1TEnumAsByte.html" target="_top" xlink:title=" ">
<polygon fill="white" stroke="black" points="1.5,-1155 1.5,-1278 169.5,-1278 169.5,-1155 1.5,-1155"/>
<text text-anchor="start" x="9.5" y="-1266" font-family="Helvetica,sans-Serif" font-size="10.00">SDK::TEnumAsByte&lt; EWaveform</text>
<text text-anchor="middle" x="85.5" y="-1255" font-family="Helvetica,sans-Serif" font-size="10.00">Function &gt;</text>
<polyline fill="none" stroke="black" points="1.5,-1248 169.5,-1248 "/>
<text text-anchor="start" x="9.5" y="-1236" font-family="Helvetica,sans-Serif" font-size="10.00">&#45; value</text>
<polyline fill="none" stroke="black" points="1.5,-1229 169.5,-1229 "/>
<text text-anchor="start" x="9.5" y="-1217" font-family="Helvetica,sans-Serif" font-size="10.00">+ TEnumAsByte()</text>
<text text-anchor="start" x="9.5" y="-1206" font-family="Helvetica,sans-Serif" font-size="10.00">+ TEnumAsByte()</text>
<text text-anchor="start" x="9.5" y="-1195" font-family="Helvetica,sans-Serif" font-size="10.00">+ TEnumAsByte()</text>
<text text-anchor="start" x="9.5" y="-1184" font-family="Helvetica,sans-Serif" font-size="10.00">+ TEnumAsByte()</text>
<text text-anchor="start" x="9.5" y="-1173" font-family="Helvetica,sans-Serif" font-size="10.00">+ operator EWaveformFunction()</text>
<text text-anchor="start" x="9.5" y="-1162" font-family="Helvetica,sans-Serif" font-size="10.00">+ GetValue()</text>
</a>
</g>
</g>
<!-- Node18&#45;&gt;Node17 -->
<g id="edge25" class="edge">
<title>Node18&#45;&gt;Node17</title>
<path fill="none" stroke="#404040" d="M87.79,-1154.76C88.69,-1130.87 89.72,-1103.74 90.58,-1080.9"/>
<polygon fill="none" stroke="#404040" points="90.59,-1080.69 86.82,-1074.55 91.04,-1068.7 94.81,-1074.85 90.59,-1080.69"/>
<text text-anchor="middle" x="124.5" y="-1123" font-family="Helvetica,sans-Serif" font-size="10.00"> +RightFunction</text>
<text text-anchor="middle" x="124.5" y="-1112" font-family="Helvetica,sans-Serif" font-size="10.00">+LeftFunction</text>
</g>
<!-- Node19 -->
<g id="node19" class="node">
<title>Node19</title>
<g id="a_node19"><a xlink:href="../../df/d1c/classSDK_1_1TEnumAsByte.html" target="_top" xlink:title=" ">
<polygon fill="white" stroke="black" points="0,-1348 0,-1460 157,-1460 157,-1348 0,-1348"/>
<text text-anchor="middle" x="78.5" y="-1448" font-family="Helvetica,sans-Serif" font-size="10.00">SDK::TEnumAsByte&lt; TEnum &gt;</text>
<polyline fill="none" stroke="black" points="0,-1441 157,-1441 "/>
<text text-anchor="start" x="8" y="-1429" font-family="Helvetica,sans-Serif" font-size="10.00">&#45; value</text>
<polyline fill="none" stroke="black" points="0,-1422 157,-1422 "/>
<text text-anchor="start" x="8" y="-1410" font-family="Helvetica,sans-Serif" font-size="10.00">+ TEnumAsByte()</text>
<text text-anchor="start" x="8" y="-1399" font-family="Helvetica,sans-Serif" font-size="10.00">+ TEnumAsByte()</text>
<text text-anchor="start" x="8" y="-1388" font-family="Helvetica,sans-Serif" font-size="10.00">+ TEnumAsByte()</text>
<text text-anchor="start" x="8" y="-1377" font-family="Helvetica,sans-Serif" font-size="10.00">+ TEnumAsByte()</text>
<text text-anchor="start" x="8" y="-1366" font-family="Helvetica,sans-Serif" font-size="10.00">+ operator TEnum()</text>
<text text-anchor="start" x="8" y="-1355" font-family="Helvetica,sans-Serif" font-size="10.00">+ GetValue()</text>
</a>
</g>
</g>
<!-- Node19&#45;&gt;Node18 -->
<g id="edge26" class="edge">
<title>Node19&#45;&gt;Node18</title>
<path fill="none" stroke="orange" d="M78.56,-1337.65C78.74,-1325.78 79.03,-1313.52 79.5,-1302 79.81,-1294.36 80.24,-1286.34 80.73,-1278.4"/>
<polygon fill="orange" stroke="orange" points="75.06,-1337.9 78.44,-1347.95 82.06,-1337.99 75.06,-1337.9"/>
<text text-anchor="middle" x="135" y="-1305" font-family="Helvetica,sans-Serif" font-size="10.00"> &lt; EWaveformFunction &gt;</text>
</g>
</g>
</svg>
        <g id="navigator" transform="translate(0 0)" fill="#404254">
                <rect fill="#f2f5e9" fill-opacity="0.5" stroke="#606060" stroke-width=".5" x="0" y="0" width="60" height="60"/>
                <use id="zoomplus" xlink:href="#zoomPlus" x="17" y="9" onmousedown="handleZoom(evt,'in')"/>
                <use id="zoomminus" xlink:href="#zoomMin" x="42" y="9" onmousedown="handleZoom(evt,'out')"/>
                <use id="reset" xlink:href="#resetDef" x="30" y="36" onmousedown="handleReset()"/>
                <g id="arrowUp" xlink:href="#dirArrow" transform="translate(30 24)" onmousedown="handlePan(0,-1)">
                  <use xlink:href="#rim" fill="#404040">
                        <set attributeName="fill" to="#808080" begin="arrowUp.mouseover" end="arrowUp.mouseout"/>
                  </use>
                  <path fill="none" stroke="white" stroke-width="1.5" d="M0,-3.0v7 M-2.5,-0.5L0,-3.0L2.5,-0.5"/>
                </g>
                <g id="arrowRight" xlink:href="#dirArrow" transform="rotate(90) translate(36 -43)" onmousedown="handlePan(1,0)">
                  <use xlink:href="#rim" fill="#404040">
                        <set attributeName="fill" to="#808080" begin="arrowRight.mouseover" end="arrowRight.mouseout"/>
                  </use>
                  <path fill="none" stroke="white" stroke-width="1.5" d="M0,-3.0v7 M-2.5,-0.5L0,-3.0L2.5,-0.5"/>
                </g>
                <g id="arrowDown" xlink:href="#dirArrow" transform="rotate(180) translate(-30 -48)" onmousedown="handlePan(0,1)">
                  <use xlink:href="#rim" fill="#404040">
                        <set attributeName="fill" to="#808080" begin="arrowDown.mouseover" end="arrowDown.mouseout"/>
                  </use>
                  <path fill="none" stroke="white" stroke-width="1.5" d="M0,-3.0v7 M-2.5,-0.5L0,-3.0L2.5,-0.5"/>
                </g>
                <g id="arrowLeft" xlink:href="#dirArrow" transform="rotate(270) translate(-36 17)" onmousedown="handlePan(-1,0)">
                  <use xlink:href="#rim" fill="#404040">
                        <set attributeName="fill" to="#808080" begin="arrowLeft.mouseover" end="arrowLeft.mouseout"/>
                  </use>
                  <path fill="none" stroke="white" stroke-width="1.5" d="M0,-3.0v7 M-2.5,-0.5L0,-3.0L2.5,-0.5"/>
                </g>
        </g>
        <svg viewBox="0 0 15 15" width="100%" height="30px" preserveAspectRatio="xMaxYMin meet">
         <g id="arrow_out" transform="scale(0.3 0.3)">
          <a xlink:href="classSDK_1_1UKillZDamageType__coll__graph_org.svg" target="_base">
           <rect id="button" ry="5" rx="5" y="6" x="6" height="38" width="38"
                fill="#f2f5e9" fill-opacity="0.5" stroke="#606060" stroke-width="1.0"/>
           <path id="arrow"
             d="M 11.500037,31.436501 C 11.940474,20.09759 22.043105,11.32322 32.158766,21.979434 L 37.068811,17.246167 C 37.068811,17.246167 37.088388,32 37.088388,32 L 22.160133,31.978069 C 22.160133,31.978069 26.997745,27.140456 26.997745,27.140456 C 18.528582,18.264221 13.291696,25.230495 11.500037,31.436501 z"
             style="fill:#404040;"/>
          </a>
         </g>
        </svg>
</svg>
