<?xml version="1.0" encoding="UTF-8" standalone="no"?>
<!DOCTYPE svg PUBLIC "-//W3C//DTD SVG 1.1//EN"
 "http://www.w3.org/Graphics/SVG/1.1/DTD/svg11.dtd">
<!-- Generated by graphviz version 2.41.20171026.1811 (20171026.1811)
 -->
<!-- Title: SDK::FstMaterialExpressionScalarParameter Pages: 1 -->
<svg width="597pt" height="990pt"
 viewBox="0.00 0.00 597.00 990.00" xmlns="http://www.w3.org/2000/svg" xmlns:xlink="http://www.w3.org/1999/xlink">
<g id="graph0" class="graph" transform="scale(1 1) rotate(0) translate(4 986)">
<title>SDK::FstMaterialExpressionScalarParameter</title>
<polygon fill="white" stroke="transparent" points="-4,4 -4,-986 593,-986 593,4 -4,4"/>
<!-- Node1 -->
<g id="node1" class="node">
<title>Node1</title>
<g id="a_node1"><a xlink:title=" ">
<polygon fill="#bfbfbf" stroke="black" points="344,-0.5 344,-68.5 485,-68.5 485,-0.5 344,-0.5"/>
<text text-anchor="start" x="352" y="-56.5" font-family="Helvetica,sans-Serif" font-size="10.00">SDK::FstMaterialExpression</text>
<text text-anchor="middle" x="414.5" y="-45.5" font-family="Helvetica,sans-Serif" font-size="10.00">ScalarParameter</text>
<polyline fill="none" stroke="black" points="344,-38.5 485,-38.5 "/>
<text text-anchor="start" x="352" y="-26.5" font-family="Helvetica,sans-Serif" font-size="10.00">+ fDefault</text>
<polyline fill="none" stroke="black" points="344,-19.5 485,-19.5 "/>
<text text-anchor="middle" x="414.5" y="-7.5" font-family="Helvetica,sans-Serif" font-size="10.00"> </text>
</a>
</g>
</g>
<!-- Node2 -->
<g id="node2" class="node">
<title>Node2</title>
<g id="a_node2"><a xlink:href="../../dc/d85/structSDK_1_1FstMaterialExpressionParameter.html" target="_top" xlink:title=" ">
<polygon fill="white" stroke="black" points="257,-122 257,-190 398,-190 398,-122 257,-122"/>
<text text-anchor="start" x="265" y="-178" font-family="Helvetica,sans-Serif" font-size="10.00">SDK::FstMaterialExpression</text>
<text text-anchor="middle" x="327.5" y="-167" font-family="Helvetica,sans-Serif" font-size="10.00">Parameter</text>
<polyline fill="none" stroke="black" points="257,-160 398,-160 "/>
<text text-anchor="middle" x="327.5" y="-148" font-family="Helvetica,sans-Serif" font-size="10.00"> </text>
<polyline fill="none" stroke="black" points="257,-141 398,-141 "/>
<text text-anchor="middle" x="327.5" y="-129" font-family="Helvetica,sans-Serif" font-size="10.00"> </text>
</a>
</g>
</g>
<!-- Node2&#45;&gt;Node1 -->
<g id="edge1" class="edge">
<title>Node2&#45;&gt;Node1</title>
<path fill="none" stroke="midnightblue" d="M357.85,-113.31C368.51,-98.67 380.32,-82.44 390.4,-68.61"/>
<polygon fill="none" stroke="midnightblue" points="354.79,-111.57 351.73,-121.71 360.45,-115.69 354.79,-111.57"/>
</g>
<!-- Node3 -->
<g id="node3" class="node">
<title>Node3</title>
<g id="a_node3"><a xlink:href="../../d5/da8/structSDK_1_1FstGameMsgID.html" target="_top" xlink:title=" ">
<polygon fill="white" stroke="black" points="186,-254.5 186,-311.5 299,-311.5 299,-254.5 186,-254.5"/>
<text text-anchor="middle" x="242.5" y="-299.5" font-family="Helvetica,sans-Serif" font-size="10.00">SDK::FstGameMsgID</text>
<polyline fill="none" stroke="black" points="186,-292.5 299,-292.5 "/>
<text text-anchor="start" x="194" y="-280.5" font-family="Helvetica,sans-Serif" font-size="10.00">+ UnknownData00</text>
<polyline fill="none" stroke="black" points="186,-273.5 299,-273.5 "/>
<text text-anchor="middle" x="242.5" y="-261.5" font-family="Helvetica,sans-Serif" font-size="10.00"> </text>
</a>
</g>
</g>
<!-- Node3&#45;&gt;Node2 -->
<g id="edge2" class="edge">
<title>Node3&#45;&gt;Node2</title>
<path fill="none" stroke="#404040" d="M242.37,-254.26C243.42,-241.26 246.34,-226.02 253.5,-214 256.74,-208.57 260.71,-203.47 265.11,-198.72"/>
<polygon fill="none" stroke="#404040" points="265.43,-198.41 266.94,-191.36 274.03,-190.05 272.52,-197.1 265.43,-198.41"/>
<text text-anchor="start" x="253.5" y="-228" font-family="Helvetica,sans-Serif" font-size="10.00"> +MaterialExpressionParameter</text>
<text text-anchor="middle" x="322.5" y="-217" font-family="Helvetica,sans-Serif" font-size="10.00">MsgID</text>
</g>
<!-- Node4 -->
<g id="node4" class="node">
<title>Node4</title>
<g id="a_node4"><a xlink:href="../../df/d1c/classSDK_1_1TEnumAsByte.html" target="_top" xlink:title=" ">
<polygon fill="white" stroke="black" points="0,-472.5 0,-595.5 181,-595.5 181,-472.5 0,-472.5"/>
<text text-anchor="start" x="8" y="-583.5" font-family="Helvetica,sans-Serif" font-size="10.00">SDK::TEnumAsByte&lt; EFGAMEMSG</text>
<text text-anchor="middle" x="90.5" y="-572.5" font-family="Helvetica,sans-Serif" font-size="10.00">_TYPE &gt;</text>
<polyline fill="none" stroke="black" points="0,-565.5 181,-565.5 "/>
<text text-anchor="start" x="8" y="-553.5" font-family="Helvetica,sans-Serif" font-size="10.00">&#45; value</text>
<polyline fill="none" stroke="black" points="0,-546.5 181,-546.5 "/>
<text text-anchor="start" x="8" y="-534.5" font-family="Helvetica,sans-Serif" font-size="10.00">+ TEnumAsByte()</text>
<text text-anchor="start" x="8" y="-523.5" font-family="Helvetica,sans-Serif" font-size="10.00">+ TEnumAsByte()</text>
<text text-anchor="start" x="8" y="-512.5" font-family="Helvetica,sans-Serif" font-size="10.00">+ TEnumAsByte()</text>
<text text-anchor="start" x="8" y="-501.5" font-family="Helvetica,sans-Serif" font-size="10.00">+ TEnumAsByte()</text>
<text text-anchor="start" x="8" y="-490.5" font-family="Helvetica,sans-Serif" font-size="10.00">+ operator EFGAMEMSG_TYPE()</text>
<text text-anchor="start" x="8" y="-479.5" font-family="Helvetica,sans-Serif" font-size="10.00">+ GetValue()</text>
</a>
</g>
</g>
<!-- Node4&#45;&gt;Node3 -->
<g id="edge3" class="edge">
<title>Node4&#45;&gt;Node3</title>
<path fill="none" stroke="#404040" d="M109.58,-472.41C125,-429.7 149.72,-372.72 183.5,-330 186.28,-326.48 189.39,-323.08 192.68,-319.82"/>
<polygon fill="none" stroke="#404040" points="192.86,-319.64 194.6,-312.64 201.72,-311.55 199.99,-318.55 192.86,-319.64"/>
<text text-anchor="middle" x="211" y="-389.5" font-family="Helvetica,sans-Serif" font-size="10.00"> +eMsgType</text>
</g>
<!-- Node5 -->
<g id="node5" class="node">
<title>Node5</title>
<g id="a_node5"><a xlink:href="../../df/d1c/classSDK_1_1TEnumAsByte.html" target="_top" xlink:title=" ">
<polygon fill="white" stroke="black" points="5,-660 5,-772 162,-772 162,-660 5,-660"/>
<text text-anchor="middle" x="83.5" y="-760" font-family="Helvetica,sans-Serif" font-size="10.00">SDK::TEnumAsByte&lt; TEnum &gt;</text>
<polyline fill="none" stroke="black" points="5,-753 162,-753 "/>
<text text-anchor="start" x="13" y="-741" font-family="Helvetica,sans-Serif" font-size="10.00">&#45; value</text>
<polyline fill="none" stroke="black" points="5,-734 162,-734 "/>
<text text-anchor="start" x="13" y="-722" font-family="Helvetica,sans-Serif" font-size="10.00">+ TEnumAsByte()</text>
<text text-anchor="start" x="13" y="-711" font-family="Helvetica,sans-Serif" font-size="10.00">+ TEnumAsByte()</text>
<text text-anchor="start" x="13" y="-700" font-family="Helvetica,sans-Serif" font-size="10.00">+ TEnumAsByte()</text>
<text text-anchor="start" x="13" y="-689" font-family="Helvetica,sans-Serif" font-size="10.00">+ TEnumAsByte()</text>
<text text-anchor="start" x="13" y="-678" font-family="Helvetica,sans-Serif" font-size="10.00">+ operator TEnum()</text>
<text text-anchor="start" x="13" y="-667" font-family="Helvetica,sans-Serif" font-size="10.00">+ GetValue()</text>
</a>
</g>
</g>
<!-- Node5&#45;&gt;Node4 -->
<g id="edge4" class="edge">
<title>Node5&#45;&gt;Node4</title>
<path fill="none" stroke="orange" d="M86.05,-649.36C86.74,-631.8 87.47,-612.89 88.14,-595.61"/>
<polygon fill="orange" stroke="orange" points="82.55,-649.4 85.66,-659.53 89.54,-649.67 82.55,-649.4"/>
<text text-anchor="middle" x="146.5" y="-617" font-family="Helvetica,sans-Serif" font-size="10.00"> &lt; EFGAMEMSG_TYPE &gt;</text>
</g>
<!-- Node6 -->
<g id="node6" class="node">
<title>Node6</title>
<g id="a_node6"><a xlink:href="../../d3/d88/classSDK_1_1FString.html" target="_top" xlink:title=" ">
<polygon fill="white" stroke="black" points="205,-483.5 205,-584.5 280,-584.5 280,-483.5 205,-483.5"/>
<text text-anchor="middle" x="242.5" y="-572.5" font-family="Helvetica,sans-Serif" font-size="10.00">SDK::FString</text>
<polyline fill="none" stroke="black" points="205,-565.5 280,-565.5 "/>
<text text-anchor="middle" x="242.5" y="-553.5" font-family="Helvetica,sans-Serif" font-size="10.00"> </text>
<polyline fill="none" stroke="black" points="205,-546.5 280,-546.5 "/>
<text text-anchor="start" x="213" y="-534.5" font-family="Helvetica,sans-Serif" font-size="10.00">+ FString()</text>
<text text-anchor="start" x="213" y="-523.5" font-family="Helvetica,sans-Serif" font-size="10.00">+ FString()</text>
<text text-anchor="start" x="213" y="-512.5" font-family="Helvetica,sans-Serif" font-size="10.00">+ IsValid()</text>
<text text-anchor="start" x="213" y="-501.5" font-family="Helvetica,sans-Serif" font-size="10.00">+ c_str()</text>
<text text-anchor="start" x="213" y="-490.5" font-family="Helvetica,sans-Serif" font-size="10.00">+ ToString()</text>
</a>
</g>
</g>
<!-- Node6&#45;&gt;Node3 -->
<g id="edge5" class="edge">
<title>Node6&#45;&gt;Node3</title>
<path fill="none" stroke="#404040" d="M242.5,-483.21C242.5,-436.32 242.5,-367 242.5,-323.71"/>
<polygon fill="none" stroke="#404040" points="242.5,-323.7 238.5,-317.7 242.5,-311.7 246.5,-317.7 242.5,-323.7"/>
<text text-anchor="middle" x="267.5" y="-395" font-family="Helvetica,sans-Serif" font-size="10.00"> +strMsgID</text>
<text text-anchor="middle" x="267.5" y="-384" font-family="Helvetica,sans-Serif" font-size="10.00">+strMsg</text>
</g>
<!-- Node7 -->
<g id="node7" class="node">
<title>Node7</title>
<g id="a_node7"><a xlink:href="../../d3/d79/classSDK_1_1TArray.html" target="_top" xlink:title=" ">
<polygon fill="white" stroke="black" points="180,-643.5 180,-788.5 305,-788.5 305,-643.5 180,-643.5"/>
<text text-anchor="middle" x="242.5" y="-776.5" font-family="Helvetica,sans-Serif" font-size="10.00">SDK::TArray&lt; wchar_t &gt;</text>
<polyline fill="none" stroke="black" points="180,-769.5 305,-769.5 "/>
<text text-anchor="start" x="188" y="-757.5" font-family="Helvetica,sans-Serif" font-size="10.00">&#45; Data</text>
<text text-anchor="start" x="188" y="-746.5" font-family="Helvetica,sans-Serif" font-size="10.00">&#45; Count</text>
<text text-anchor="start" x="188" y="-735.5" font-family="Helvetica,sans-Serif" font-size="10.00">&#45; Max</text>
<polyline fill="none" stroke="black" points="180,-728.5 305,-728.5 "/>
<text text-anchor="start" x="188" y="-716.5" font-family="Helvetica,sans-Serif" font-size="10.00">+ TArray()</text>
<text text-anchor="start" x="188" y="-705.5" font-family="Helvetica,sans-Serif" font-size="10.00">+ Num()</text>
<text text-anchor="start" x="188" y="-694.5" font-family="Helvetica,sans-Serif" font-size="10.00">+ operator[]()</text>
<text text-anchor="start" x="188" y="-683.5" font-family="Helvetica,sans-Serif" font-size="10.00">+ operator[]()</text>
<text text-anchor="start" x="188" y="-672.5" font-family="Helvetica,sans-Serif" font-size="10.00">+ IsValidIndex()</text>
<text text-anchor="start" x="188" y="-661.5" font-family="Helvetica,sans-Serif" font-size="10.00">+ GetByIndex()</text>
<text text-anchor="start" x="188" y="-650.5" font-family="Helvetica,sans-Serif" font-size="10.00">+ GetByIndex()</text>
</a>
</g>
</g>
<!-- Node7&#45;&gt;Node6 -->
<g id="edge6" class="edge">
<title>Node7&#45;&gt;Node6</title>
<path fill="none" stroke="midnightblue" d="M242.5,-633.09C242.5,-616.52 242.5,-599.58 242.5,-584.55"/>
<polygon fill="none" stroke="midnightblue" points="239,-633.34 242.5,-643.34 246,-633.34 239,-633.34"/>
</g>
<!-- Node8 -->
<g id="node8" class="node">
<title>Node8</title>
<g id="a_node8"><a xlink:href="../../d3/d79/classSDK_1_1TArray.html" target="_top" xlink:title=" ">
<polygon fill="white" stroke="black" points="234,-836.5 234,-981.5 331,-981.5 331,-836.5 234,-836.5"/>
<text text-anchor="middle" x="282.5" y="-969.5" font-family="Helvetica,sans-Serif" font-size="10.00">SDK::TArray&lt; T &gt;</text>
<polyline fill="none" stroke="black" points="234,-962.5 331,-962.5 "/>
<text text-anchor="start" x="242" y="-950.5" font-family="Helvetica,sans-Serif" font-size="10.00">&#45; Data</text>
<text text-anchor="start" x="242" y="-939.5" font-family="Helvetica,sans-Serif" font-size="10.00">&#45; Count</text>
<text text-anchor="start" x="242" y="-928.5" font-family="Helvetica,sans-Serif" font-size="10.00">&#45; Max</text>
<polyline fill="none" stroke="black" points="234,-921.5 331,-921.5 "/>
<text text-anchor="start" x="242" y="-909.5" font-family="Helvetica,sans-Serif" font-size="10.00">+ TArray()</text>
<text text-anchor="start" x="242" y="-898.5" font-family="Helvetica,sans-Serif" font-size="10.00">+ Num()</text>
<text text-anchor="start" x="242" y="-887.5" font-family="Helvetica,sans-Serif" font-size="10.00">+ operator[]()</text>
<text text-anchor="start" x="242" y="-876.5" font-family="Helvetica,sans-Serif" font-size="10.00">+ operator[]()</text>
<text text-anchor="start" x="242" y="-865.5" font-family="Helvetica,sans-Serif" font-size="10.00">+ IsValidIndex()</text>
<text text-anchor="start" x="242" y="-854.5" font-family="Helvetica,sans-Serif" font-size="10.00">+ GetByIndex()</text>
<text text-anchor="start" x="242" y="-843.5" font-family="Helvetica,sans-Serif" font-size="10.00">+ GetByIndex()</text>
</a>
</g>
</g>
<!-- Node8&#45;&gt;Node7 -->
<g id="edge7" class="edge">
<title>Node8&#45;&gt;Node7</title>
<path fill="none" stroke="orange" d="M245.58,-826.6C244.8,-823.72 244.11,-820.85 243.5,-818 241.5,-808.57 240.31,-798.52 239.67,-788.57"/>
<polygon fill="orange" stroke="orange" points="242.29,-827.8 248.5,-836.38 248.99,-825.79 242.29,-827.8"/>
<text text-anchor="middle" x="271.5" y="-810" font-family="Helvetica,sans-Serif" font-size="10.00"> &lt; wchar_t &gt;</text>
</g>
<!-- Node10 -->
<g id="node10" class="node">
<title>Node10</title>
<g id="a_node10"><a xlink:href="../../d3/d79/classSDK_1_1TArray.html" target="_top" xlink:title=" ">
<polygon fill="white" stroke="black" points="323.5,-649 323.5,-783 503.5,-783 503.5,-649 323.5,-649"/>
<text text-anchor="middle" x="413.5" y="-771" font-family="Helvetica,sans-Serif" font-size="10.00">SDK::TArray&lt; SDK::FNameEntry * &gt;</text>
<polyline fill="none" stroke="black" points="323.5,-764 503.5,-764 "/>
<text text-anchor="start" x="331.5" y="-752" font-family="Helvetica,sans-Serif" font-size="10.00">&#45; Count</text>
<text text-anchor="start" x="331.5" y="-741" font-family="Helvetica,sans-Serif" font-size="10.00">&#45; Max</text>
<polyline fill="none" stroke="black" points="323.5,-734 503.5,-734 "/>
<text text-anchor="start" x="331.5" y="-722" font-family="Helvetica,sans-Serif" font-size="10.00">+ TArray()</text>
<text text-anchor="start" x="331.5" y="-711" font-family="Helvetica,sans-Serif" font-size="10.00">+ Num()</text>
<text text-anchor="start" x="331.5" y="-700" font-family="Helvetica,sans-Serif" font-size="10.00">+ operator[]()</text>
<text text-anchor="start" x="331.5" y="-689" font-family="Helvetica,sans-Serif" font-size="10.00">+ operator[]()</text>
<text text-anchor="start" x="331.5" y="-678" font-family="Helvetica,sans-Serif" font-size="10.00">+ IsValidIndex()</text>
<text text-anchor="start" x="331.5" y="-667" font-family="Helvetica,sans-Serif" font-size="10.00">+ GetByIndex()</text>
<text text-anchor="start" x="331.5" y="-656" font-family="Helvetica,sans-Serif" font-size="10.00">+ GetByIndex()</text>
</a>
</g>
</g>
<!-- Node8&#45;&gt;Node10 -->
<g id="edge11" class="edge">
<title>Node8&#45;&gt;Node10</title>
<path fill="none" stroke="orange" d="M307.49,-826.89C310.79,-819.95 314.45,-813.22 318.5,-807 323.83,-798.81 330.05,-790.84 336.72,-783.24"/>
<polygon fill="orange" stroke="orange" points="304.1,-825.88 303.22,-836.44 310.49,-828.74 304.1,-825.88"/>
<text text-anchor="middle" x="374" y="-810" font-family="Helvetica,sans-Serif" font-size="10.00"> &lt; SDK::FNameEntry * &gt;</text>
</g>
<!-- Node9 -->
<g id="node9" class="node">
<title>Node9</title>
<g id="a_node9"><a xlink:href="../../d0/db6/structSDK_1_1FName.html" target="_top" xlink:title=" ">
<polygon fill="white" stroke="black" points="356,-330.5 356,-453.5 463,-453.5 463,-330.5 356,-330.5"/>
<text text-anchor="middle" x="409.5" y="-441.5" font-family="Helvetica,sans-Serif" font-size="10.00">SDK::FName</text>
<polyline fill="none" stroke="black" points="356,-434.5 463,-434.5 "/>
<text text-anchor="start" x="364" y="-422.5" font-family="Helvetica,sans-Serif" font-size="10.00">+ Index</text>
<text text-anchor="start" x="364" y="-411.5" font-family="Helvetica,sans-Serif" font-size="10.00">+ Number</text>
<polyline fill="none" stroke="black" points="356,-404.5 463,-404.5 "/>
<text text-anchor="start" x="364" y="-392.5" font-family="Helvetica,sans-Serif" font-size="10.00">+ FName()</text>
<text text-anchor="start" x="364" y="-381.5" font-family="Helvetica,sans-Serif" font-size="10.00">+ FName()</text>
<text text-anchor="start" x="364" y="-370.5" font-family="Helvetica,sans-Serif" font-size="10.00">+ FName()</text>
<text text-anchor="start" x="364" y="-359.5" font-family="Helvetica,sans-Serif" font-size="10.00">+ GetName()</text>
<text text-anchor="start" x="364" y="-348.5" font-family="Helvetica,sans-Serif" font-size="10.00">+ operator==()</text>
<text text-anchor="start" x="364" y="-337.5" font-family="Helvetica,sans-Serif" font-size="10.00">+ GetGlobalNames()</text>
</a>
</g>
</g>
<!-- Node9&#45;&gt;Node2 -->
<g id="edge8" class="edge">
<title>Node9&#45;&gt;Node2</title>
<path fill="none" stroke="#404040" d="M413.99,-330.15C414.09,-294.5 409.7,-249.62 391.5,-214 388.85,-208.81 385.51,-203.87 381.75,-199.23"/>
<polygon fill="none" stroke="#404040" points="381.59,-199.05 374.6,-197.27 373.55,-190.14 380.54,-191.91 381.59,-199.05"/>
<text text-anchor="middle" x="479.5" y="-280.5" font-family="Helvetica,sans-Serif" font-size="10.00"> +ExpressionParameterName</text>
</g>
<!-- Node10&#45;&gt;Node9 -->
<g id="edge9" class="edge">
<title>Node10&#45;&gt;Node9</title>
<path fill="none" stroke="#404040" d="M412.68,-648.67C412.01,-595.36 411.08,-520.56 410.4,-465.63"/>
<polygon fill="none" stroke="#404040" points="410.4,-465.53 406.33,-459.58 410.25,-453.53 414.33,-459.48 410.4,-465.53"/>
<text text-anchor="middle" x="437" y="-617" font-family="Helvetica,sans-Serif" font-size="10.00"> +GNames</text>
</g>
<!-- Node11 -->
<g id="node11" class="node">
<title>Node11</title>
<g id="a_node11"><a xlink:href="../../d7/ddf/classSDK_1_1FNameEntry.html" target="_top" xlink:title=" ">
<polygon fill="white" stroke="black" points="406,-875 406,-943 505,-943 505,-875 406,-875"/>
<text text-anchor="middle" x="455.5" y="-931" font-family="Helvetica,sans-Serif" font-size="10.00">SDK::FNameEntry</text>
<polyline fill="none" stroke="black" points="406,-924 505,-924 "/>
<text text-anchor="start" x="414" y="-912" font-family="Helvetica,sans-Serif" font-size="10.00">+ UnknownData00</text>
<text text-anchor="start" x="414" y="-901" font-family="Helvetica,sans-Serif" font-size="10.00">+ name</text>
<polyline fill="none" stroke="black" points="406,-894 505,-894 "/>
<text text-anchor="start" x="414" y="-882" font-family="Helvetica,sans-Serif" font-size="10.00">+ GetName()</text>
</a>
</g>
</g>
<!-- Node11&#45;&gt;Node10 -->
<g id="edge10" class="edge">
<title>Node11&#45;&gt;Node10</title>
<path fill="none" stroke="#404040" d="M448.3,-874.78C444.02,-855.08 438.47,-829.61 433.5,-807 432.66,-803.17 431.79,-799.25 430.92,-795.29"/>
<polygon fill="none" stroke="#404040" points="430.87,-795.06 425.67,-790.07 428.28,-783.35 433.48,-788.34 430.87,-795.06"/>
<text text-anchor="middle" x="450.5" y="-810" font-family="Helvetica,sans-Serif" font-size="10.00"> &#45;Data</text>
</g>
<!-- Node12 -->
<g id="node12" class="node">
<title>Node12</title>
<g id="a_node12"><a xlink:href="../../d7/dd1/structSDK_1_1FstMeterialScalarInterpolationRange.html" target="_top" xlink:title=" ">
<polygon fill="white" stroke="black" points="416,-116.5 416,-195.5 589,-195.5 589,-116.5 416,-116.5"/>
<text text-anchor="start" x="424" y="-183.5" font-family="Helvetica,sans-Serif" font-size="10.00">SDK::FstMeterialScalarInterpolation</text>
<text text-anchor="middle" x="502.5" y="-172.5" font-family="Helvetica,sans-Serif" font-size="10.00">Range</text>
<polyline fill="none" stroke="black" points="416,-165.5 589,-165.5 "/>
<text text-anchor="start" x="424" y="-153.5" font-family="Helvetica,sans-Serif" font-size="10.00">+ fInterpolationMin</text>
<text text-anchor="start" x="424" y="-142.5" font-family="Helvetica,sans-Serif" font-size="10.00">+ fInterpolationMax</text>
<polyline fill="none" stroke="black" points="416,-135.5 589,-135.5 "/>
<text text-anchor="middle" x="502.5" y="-123.5" font-family="Helvetica,sans-Serif" font-size="10.00"> </text>
</a>
</g>
</g>
<!-- Node12&#45;&gt;Node1 -->
<g id="edge12" class="edge">
<title>Node12&#45;&gt;Node1</title>
<path fill="none" stroke="#404040" d="M473.93,-116.2C465.15,-104.28 455.42,-91.07 446.43,-78.86"/>
<polygon fill="none" stroke="#404040" points="446.2,-78.55 439.42,-76.09 439.09,-68.89 445.86,-71.35 446.2,-78.55"/>
<text text-anchor="middle" x="504" y="-90" font-family="Helvetica,sans-Serif" font-size="10.00"> +InterpolationRange</text>
</g>
</g>
</svg>
