<?xml version="1.0" encoding="UTF-8" standalone="no"?>
<!DOCTYPE svg PUBLIC "-//W3C//DTD SVG 1.1//EN"
 "http://www.w3.org/Graphics/SVG/1.1/DTD/svg11.dtd">
<!-- Generated by graphviz version 2.41.20171026.1811 (20171026.1811)
 -->
<!-- Title: SDK::UUIDataStorePublisher Pages: 1 -->
<svg width="206pt" height="722pt"
 viewBox="0.00 0.00 206.00 722.00" xmlns="http://www.w3.org/2000/svg" xmlns:xlink="http://www.w3.org/1999/xlink">
<g id="graph0" class="graph" transform="scale(1 1) rotate(0) translate(4 718)">
<title>SDK::UUIDataStorePublisher</title>
<polygon fill="white" stroke="transparent" points="-4,4 -4,-718 202,-718 202,4 -4,4"/>
<!-- Node1 -->
<g id="node1" class="node">
<title>Node1</title>
<g id="a_node1"><a xlink:title=" ">
<polygon fill="#bfbfbf" stroke="black" points="26,-0.5 26,-68.5 172,-68.5 172,-0.5 26,-0.5"/>
<text text-anchor="middle" x="99" y="-56.5" font-family="Helvetica,sans-Serif" font-size="10.00">SDK::UUIDataStorePublisher</text>
<polyline fill="none" stroke="black" points="26,-49.5 172,-49.5 "/>
<text text-anchor="middle" x="99" y="-37.5" font-family="Helvetica,sans-Serif" font-size="10.00"> </text>
<polyline fill="none" stroke="black" points="26,-30.5 172,-30.5 "/>
<text text-anchor="start" x="34" y="-18.5" font-family="Helvetica,sans-Serif" font-size="10.00">+ SaveSubscriberValue()</text>
<text text-anchor="start" x="34" y="-7.5" font-family="Helvetica,sans-Serif" font-size="10.00">+ StaticClass()</text>
</a>
</g>
</g>
<!-- Node2 -->
<g id="node2" class="node">
<title>Node2</title>
<g id="a_node2"><a xlink:href="../../da/df3/classSDK_1_1UUIDataStoreSubscriber.html" target="_top" xlink:title=" ">
<polygon fill="white" stroke="black" points="17,-105.5 17,-228.5 181,-228.5 181,-105.5 17,-105.5"/>
<text text-anchor="middle" x="99" y="-216.5" font-family="Helvetica,sans-Serif" font-size="10.00">SDK::UUIDataStoreSubscriber</text>
<polyline fill="none" stroke="black" points="17,-209.5 181,-209.5 "/>
<text text-anchor="middle" x="99" y="-197.5" font-family="Helvetica,sans-Serif" font-size="10.00"> </text>
<polyline fill="none" stroke="black" points="17,-190.5 181,-190.5 "/>
<text text-anchor="start" x="25" y="-178.5" font-family="Helvetica,sans-Serif" font-size="10.00">+ ClearBoundDataStores()</text>
<text text-anchor="start" x="25" y="-167.5" font-family="Helvetica,sans-Serif" font-size="10.00">+ GetBoundDataStores()</text>
<text text-anchor="start" x="25" y="-156.5" font-family="Helvetica,sans-Serif" font-size="10.00">+ NotifyDataStoreValueUpdated()</text>
<text text-anchor="start" x="25" y="-145.5" font-family="Helvetica,sans-Serif" font-size="10.00">+ RefreshSubscriberValue()</text>
<text text-anchor="start" x="25" y="-134.5" font-family="Helvetica,sans-Serif" font-size="10.00">+ GetDataStoreBinding()</text>
<text text-anchor="start" x="25" y="-123.5" font-family="Helvetica,sans-Serif" font-size="10.00">+ SetDataStoreBinding()</text>
<text text-anchor="start" x="25" y="-112.5" font-family="Helvetica,sans-Serif" font-size="10.00">+ StaticClass()</text>
</a>
</g>
</g>
<!-- Node2&#45;&gt;Node1 -->
<g id="edge1" class="edge">
<title>Node2&#45;&gt;Node1</title>
<path fill="none" stroke="midnightblue" d="M99,-95.24C99,-85.97 99,-76.84 99,-68.62"/>
<polygon fill="none" stroke="midnightblue" points="95.5,-95.33 99,-105.33 102.5,-95.33 95.5,-95.33"/>
</g>
<!-- Node3 -->
<g id="node3" class="node">
<title>Node3</title>
<g id="a_node3"><a xlink:href="../../d0/d97/classSDK_1_1UInterface.html" target="_top" xlink:title=" ">
<polygon fill="white" stroke="black" points="54.5,-265.5 54.5,-322.5 143.5,-322.5 143.5,-265.5 54.5,-265.5"/>
<text text-anchor="middle" x="99" y="-310.5" font-family="Helvetica,sans-Serif" font-size="10.00">SDK::UInterface</text>
<polyline fill="none" stroke="black" points="54.5,-303.5 143.5,-303.5 "/>
<text text-anchor="middle" x="99" y="-291.5" font-family="Helvetica,sans-Serif" font-size="10.00"> </text>
<polyline fill="none" stroke="black" points="54.5,-284.5 143.5,-284.5 "/>
<text text-anchor="start" x="62.5" y="-272.5" font-family="Helvetica,sans-Serif" font-size="10.00">+ StaticClass()</text>
</a>
</g>
</g>
<!-- Node3&#45;&gt;Node2 -->
<g id="edge2" class="edge">
<title>Node3&#45;&gt;Node2</title>
<path fill="none" stroke="midnightblue" d="M99,-255.1C99,-246.74 99,-237.68 99,-228.67"/>
<polygon fill="none" stroke="midnightblue" points="95.5,-255.26 99,-265.26 102.5,-255.26 95.5,-255.26"/>
</g>
<!-- Node4 -->
<g id="node4" class="node">
<title>Node4</title>
<g id="a_node4"><a xlink:href="../../d9/d45/classSDK_1_1UObject.html" target="_top" xlink:title=" ">
<polygon fill="white" stroke="black" points="0,-359.5 0,-713.5 198,-713.5 198,-359.5 0,-359.5"/>
<text text-anchor="middle" x="99" y="-701.5" font-family="Helvetica,sans-Serif" font-size="10.00">SDK::UObject</text>
<polyline fill="none" stroke="black" points="0,-694.5 198,-694.5 "/>
<text text-anchor="start" x="8" y="-682.5" font-family="Helvetica,sans-Serif" font-size="10.00">+ VfTableObject</text>
<text text-anchor="start" x="8" y="-671.5" font-family="Helvetica,sans-Serif" font-size="10.00">+ ObjectFlags</text>
<text text-anchor="start" x="8" y="-660.5" font-family="Helvetica,sans-Serif" font-size="10.00">+ StateFrame</text>
<text text-anchor="start" x="8" y="-649.5" font-family="Helvetica,sans-Serif" font-size="10.00">+ Linker</text>
<text text-anchor="start" x="8" y="-638.5" font-family="Helvetica,sans-Serif" font-size="10.00">+ LinkerIndex</text>
<text text-anchor="start" x="8" y="-627.5" font-family="Helvetica,sans-Serif" font-size="10.00">+ ObjectInternalInteger</text>
<text text-anchor="start" x="8" y="-616.5" font-family="Helvetica,sans-Serif" font-size="10.00">+ NetIndex</text>
<text text-anchor="start" x="8" y="-605.5" font-family="Helvetica,sans-Serif" font-size="10.00">+ Outer</text>
<text text-anchor="start" x="8" y="-594.5" font-family="Helvetica,sans-Serif" font-size="10.00">+ Name</text>
<text text-anchor="start" x="8" y="-583.5" font-family="Helvetica,sans-Serif" font-size="10.00">+ Class</text>
<text text-anchor="start" x="8" y="-572.5" font-family="Helvetica,sans-Serif" font-size="10.00">+ ObjectArchetype</text>
<text text-anchor="start" x="8" y="-561.5" font-family="Helvetica,sans-Serif" font-size="10.00">+ GObjects</text>
<polyline fill="none" stroke="black" points="0,-554.5 198,-554.5 "/>
<text text-anchor="start" x="8" y="-542.5" font-family="Helvetica,sans-Serif" font-size="10.00">+ UObject::GetName()</text>
<text text-anchor="start" x="8" y="-531.5" font-family="Helvetica,sans-Serif" font-size="10.00">+ GetFullName()</text>
<text text-anchor="start" x="8" y="-520.5" font-family="Helvetica,sans-Serif" font-size="10.00">+ IsA()</text>
<text text-anchor="start" x="8" y="-509.5" font-family="Helvetica,sans-Serif" font-size="10.00">+ ProcessEvent()</text>
<text text-anchor="start" x="8" y="-498.5" font-family="Helvetica,sans-Serif" font-size="10.00">+ STATIC_ProfNodeEvent()</text>
<text text-anchor="start" x="8" y="-487.5" font-family="Helvetica,sans-Serif" font-size="10.00">+ STATIC_ProfNodeSetDepthThreshold()</text>
<text text-anchor="start" x="8" y="-476.5" font-family="Helvetica,sans-Serif" font-size="10.00">+ STATIC_ProfNodeSetTimeThreshold</text>
<text text-anchor="start" x="8" y="-465.5" font-family="Helvetica,sans-Serif" font-size="10.00">Seconds()</text>
<text text-anchor="start" x="8" y="-454.5" font-family="Helvetica,sans-Serif" font-size="10.00">+ STATIC_ProfNodeStop()</text>
<text text-anchor="start" x="8" y="-443.5" font-family="Helvetica,sans-Serif" font-size="10.00">+ STATIC_ProfNodeStart()</text>
<text text-anchor="start" x="8" y="-432.5" font-family="Helvetica,sans-Serif" font-size="10.00">+ STATIC_GetStringFromGuid()</text>
<text text-anchor="start" x="8" y="-421.5" font-family="Helvetica,sans-Serif" font-size="10.00">and 298 more...</text>
<text text-anchor="start" x="8" y="-410.5" font-family="Helvetica,sans-Serif" font-size="10.00">+ GetGlobalObjects()</text>
<text text-anchor="start" x="8" y="-399.5" font-family="Helvetica,sans-Serif" font-size="10.00">+ FindObject()</text>
<text text-anchor="start" x="8" y="-388.5" font-family="Helvetica,sans-Serif" font-size="10.00">+ FindClass()</text>
<text text-anchor="start" x="8" y="-377.5" font-family="Helvetica,sans-Serif" font-size="10.00">+ GetObjectCasted()</text>
<text text-anchor="start" x="8" y="-366.5" font-family="Helvetica,sans-Serif" font-size="10.00">+ StaticClass()</text>
</a>
</g>
</g>
<!-- Node4&#45;&gt;Node3 -->
<g id="edge3" class="edge">
<title>Node4&#45;&gt;Node3</title>
<path fill="none" stroke="midnightblue" d="M99,-349.28C99,-339.39 99,-330.36 99,-322.62"/>
<polygon fill="none" stroke="midnightblue" points="95.5,-349.45 99,-359.45 102.5,-349.45 95.5,-349.45"/>
</g>
</g>
</svg>
