<?xml version="1.0" encoding="UTF-8" standalone="no"?>
<!DOCTYPE svg PUBLIC "-//W3C//DTD SVG 1.1//EN"
 "http://www.w3.org/Graphics/SVG/1.1/DTD/svg11.dtd">
<!-- Generated by graphviz version 2.41.20171026.1811 (20171026.1811)
 -->
<!-- Title: SDK::FEFInterpCurveLinearColor Pages: 1 -->
<!--zoomable 929 -->
<svg id="main" version="1.1" xmlns="http://www.w3.org/2000/svg" xmlns:xlink="http://www.w3.org/1999/xlink" xml:space="preserve" onload="init(evt)">
<style type="text/css"><![CDATA[
.edge:hover path { stroke: red; }
.edge:hover polygon { stroke: red; fill: red; }
]]></style>
<script type="text/javascript"><![CDATA[
var edges = document.getElementsByTagName('g');
if (edges && edges.length) {
  for (var i=0;i<edges.length;i++) {
    if (edges[i].id.substr(0,4)=='edge') {
      edges[i].setAttribute('class','edge');
    }
  }
}
]]></script>
        <defs>
                <circle id="rim" cx="0" cy="0" r="7"/>
                <circle id="rim2" cx="0" cy="0" r="3.5"/>
                <g id="zoomPlus">
                        <use xlink:href="#rim" fill="#404040">
                                <set attributeName="fill" to="#808080" begin="zoomplus.mouseover" end="zoomplus.mouseout"/>
                        </use>
                        <path d="M-4,0h8M0,-4v8" fill="none" stroke="white" stroke-width="1.5" pointer-events="none"/>
                </g>
                <g id="zoomMin">
                        <use xlink:href="#rim" fill="#404040">
                                <set attributeName="fill" to="#808080" begin="zoomminus.mouseover" end="zoomminus.mouseout"/>
                        </use>
                        <path d="M-4,0h8" fill="none" stroke="white" stroke-width="1.5" pointer-events="none"/>
                </g>
                <g id="dirArrow">
                        <path fill="none" stroke="white" stroke-width="1.5" d="M0,-3.0v7 M-2.5,-0.5L0,-3.0L2.5,-0.5"/>
                </g>
               <g id="resetDef">
                       <use xlink:href="#rim2" fill="#404040">
                               <set attributeName="fill" to="#808080" begin="reset.mouseover" end="reset.mouseout"/>
                       </use>
               </g>
        </defs>

<script type="text/javascript">
var viewWidth = 457;
var viewHeight = 929;
var sectionId = 'dynsection-0';
</script>
<script xlink:href="../../svgpan.js"/>
<svg id="graph" class="graph">
<g id="viewport">
<title>SDK::FEFInterpCurveLinearColor</title>
<polygon fill="white" stroke="transparent" points="-4,4 -4,-925 452.5,-925 452.5,4 -4,4"/>
<!-- Node1 -->
<g id="node1" class="node">
<title>Node1</title>
<g id="a_node1"><a xlink:title=" ">
<polygon fill="#bfbfbf" stroke="black" points="221,-0.5 221,-68.5 361,-68.5 361,-0.5 221,-0.5"/>
<text text-anchor="start" x="229" y="-56.5" font-family="Helvetica,sans-Serif" font-size="10.00">SDK::FEFInterpCurveLinear</text>
<text text-anchor="middle" x="291" y="-45.5" font-family="Helvetica,sans-Serif" font-size="10.00">Color</text>
<polyline fill="none" stroke="black" points="221,-38.5 361,-38.5 "/>
<text text-anchor="middle" x="291" y="-26.5" font-family="Helvetica,sans-Serif" font-size="10.00"> </text>
<polyline fill="none" stroke="black" points="221,-19.5 361,-19.5 "/>
<text text-anchor="middle" x="291" y="-7.5" font-family="Helvetica,sans-Serif" font-size="10.00"> </text>
</a>
</g>
</g>
<!-- Node2 -->
<g id="node2" class="node">
<title>Node2</title>
<g id="a_node2"><a xlink:href="../../d3/d79/classSDK_1_1TArray.html" target="_top" xlink:title=" ">
<polygon fill="white" stroke="black" points="128.5,-116.5 128.5,-272.5 293.5,-272.5 293.5,-116.5 128.5,-116.5"/>
<text text-anchor="start" x="136.5" y="-260.5" font-family="Helvetica,sans-Serif" font-size="10.00">SDK::TArray&lt; struct</text>
<text text-anchor="start" x="136.5" y="-249.5" font-family="Helvetica,sans-Serif" font-size="10.00"> SDK::FEFInterpCurvePointLinear</text>
<text text-anchor="middle" x="211" y="-238.5" font-family="Helvetica,sans-Serif" font-size="10.00">Color &gt;</text>
<polyline fill="none" stroke="black" points="128.5,-231.5 293.5,-231.5 "/>
<text text-anchor="start" x="136.5" y="-219.5" font-family="Helvetica,sans-Serif" font-size="10.00">&#45; Count</text>
<text text-anchor="start" x="136.5" y="-208.5" font-family="Helvetica,sans-Serif" font-size="10.00">&#45; Max</text>
<polyline fill="none" stroke="black" points="128.5,-201.5 293.5,-201.5 "/>
<text text-anchor="start" x="136.5" y="-189.5" font-family="Helvetica,sans-Serif" font-size="10.00">+ TArray()</text>
<text text-anchor="start" x="136.5" y="-178.5" font-family="Helvetica,sans-Serif" font-size="10.00">+ Num()</text>
<text text-anchor="start" x="136.5" y="-167.5" font-family="Helvetica,sans-Serif" font-size="10.00">+ operator[]()</text>
<text text-anchor="start" x="136.5" y="-156.5" font-family="Helvetica,sans-Serif" font-size="10.00">+ operator[]()</text>
<text text-anchor="start" x="136.5" y="-145.5" font-family="Helvetica,sans-Serif" font-size="10.00">+ IsValidIndex()</text>
<text text-anchor="start" x="136.5" y="-134.5" font-family="Helvetica,sans-Serif" font-size="10.00">+ GetByIndex()</text>
<text text-anchor="start" x="136.5" y="-123.5" font-family="Helvetica,sans-Serif" font-size="10.00">+ GetByIndex()</text>
</a>
</g>
</g>
<!-- Node2&#45;&gt;Node1 -->
<g id="edge1" class="edge">
<title>Node2&#45;&gt;Node1</title>
<path fill="none" stroke="#404040" d="M250.06,-116.35C256.43,-103.78 262.83,-91.14 268.61,-79.72"/>
<polygon fill="none" stroke="#404040" points="268.74,-79.45 267.89,-72.29 274.17,-68.75 275.02,-75.91 268.74,-79.45"/>
<text text-anchor="middle" x="280.5" y="-90" font-family="Helvetica,sans-Serif" font-size="10.00"> +Points</text>
</g>
<!-- Node3 -->
<g id="node3" class="node">
<title>Node3</title>
<g id="a_node3"><a xlink:href="../../d8/d48/structSDK_1_1FEFInterpCurvePointLinearColor.html" target="_top" xlink:title=" ">
<polygon fill="white" stroke="black" points="8,-370 8,-438 144,-438 144,-370 8,-370"/>
<text text-anchor="start" x="16" y="-426" font-family="Helvetica,sans-Serif" font-size="10.00">SDK::FEFInterpCurvePoint</text>
<text text-anchor="middle" x="76" y="-415" font-family="Helvetica,sans-Serif" font-size="10.00">LinearColor</text>
<polyline fill="none" stroke="black" points="8,-408 144,-408 "/>
<text text-anchor="start" x="16" y="-396" font-family="Helvetica,sans-Serif" font-size="10.00">+ InVal</text>
<polyline fill="none" stroke="black" points="8,-389 144,-389 "/>
<text text-anchor="middle" x="76" y="-377" font-family="Helvetica,sans-Serif" font-size="10.00"> </text>
</a>
</g>
</g>
<!-- Node3&#45;&gt;Node2 -->
<g id="edge2" class="edge">
<title>Node3&#45;&gt;Node2</title>
<path fill="none" stroke="#404040" d="M97.69,-369.66C112.96,-346.19 134.15,-313.63 154.07,-283"/>
<polygon fill="none" stroke="#404040" points="154.23,-282.76 154.15,-275.55 160.77,-272.7 160.85,-279.91 154.23,-282.76"/>
<text text-anchor="middle" x="162" y="-299.5" font-family="Helvetica,sans-Serif" font-size="10.00"> &#45;Data</text>
</g>
<!-- Node4 -->
<g id="node4" class="node">
<title>Node4</title>
<g id="a_node4"><a xlink:href="../../de/d7c/structSDK_1_1FLinearColor.html" target="_top" xlink:title=" ">
<polygon fill="white" stroke="black" points="170.5,-654 170.5,-744 269.5,-744 269.5,-654 170.5,-654"/>
<text text-anchor="middle" x="220" y="-732" font-family="Helvetica,sans-Serif" font-size="10.00">SDK::FLinearColor</text>
<polyline fill="none" stroke="black" points="170.5,-725 269.5,-725 "/>
<text text-anchor="start" x="178.5" y="-713" font-family="Helvetica,sans-Serif" font-size="10.00">+ R</text>
<text text-anchor="start" x="178.5" y="-702" font-family="Helvetica,sans-Serif" font-size="10.00">+ G</text>
<text text-anchor="start" x="178.5" y="-691" font-family="Helvetica,sans-Serif" font-size="10.00">+ B</text>
<text text-anchor="start" x="178.5" y="-680" font-family="Helvetica,sans-Serif" font-size="10.00">+ A</text>
<polyline fill="none" stroke="black" points="170.5,-673 269.5,-673 "/>
<text text-anchor="middle" x="220" y="-661" font-family="Helvetica,sans-Serif" font-size="10.00"> </text>
</a>
</g>
</g>
<!-- Node4&#45;&gt;Node3 -->
<g id="edge3" class="edge">
<title>Node4&#45;&gt;Node3</title>
<path fill="none" stroke="#404040" d="M205.38,-653.98C190.71,-612 166.27,-547.55 138,-495 129.46,-479.13 118.73,-462.66 108.6,-448.2"/>
<polygon fill="none" stroke="#404040" points="108.35,-447.84 101.61,-445.28 101.38,-438.07 108.12,-440.64 108.35,-447.84"/>
<text text-anchor="middle" x="226" y="-565.5" font-family="Helvetica,sans-Serif" font-size="10.00"> +OutVal</text>
<text text-anchor="middle" x="226" y="-554.5" font-family="Helvetica,sans-Serif" font-size="10.00">+LeaveTangent</text>
<text text-anchor="middle" x="226" y="-543.5" font-family="Helvetica,sans-Serif" font-size="10.00">+ArriveTangent</text>
</g>
<!-- Node5 -->
<g id="node5" class="node">
<title>Node5</title>
<g id="a_node5"><a xlink:href="../../df/d1c/classSDK_1_1TEnumAsByte.html" target="_top" xlink:title=" ">
<polygon fill="white" stroke="black" points="0,-637.5 0,-760.5 152,-760.5 152,-637.5 0,-637.5"/>
<text text-anchor="start" x="8" y="-748.5" font-family="Helvetica,sans-Serif" font-size="10.00">SDK::TEnumAsByte&lt; EInterp</text>
<text text-anchor="middle" x="76" y="-737.5" font-family="Helvetica,sans-Serif" font-size="10.00">CurveMode &gt;</text>
<polyline fill="none" stroke="black" points="0,-730.5 152,-730.5 "/>
<text text-anchor="start" x="8" y="-718.5" font-family="Helvetica,sans-Serif" font-size="10.00">&#45; value</text>
<polyline fill="none" stroke="black" points="0,-711.5 152,-711.5 "/>
<text text-anchor="start" x="8" y="-699.5" font-family="Helvetica,sans-Serif" font-size="10.00">+ TEnumAsByte()</text>
<text text-anchor="start" x="8" y="-688.5" font-family="Helvetica,sans-Serif" font-size="10.00">+ TEnumAsByte()</text>
<text text-anchor="start" x="8" y="-677.5" font-family="Helvetica,sans-Serif" font-size="10.00">+ TEnumAsByte()</text>
<text text-anchor="start" x="8" y="-666.5" font-family="Helvetica,sans-Serif" font-size="10.00">+ TEnumAsByte()</text>
<text text-anchor="start" x="8" y="-655.5" font-family="Helvetica,sans-Serif" font-size="10.00">+ operator EInterpCurveMode()</text>
<text text-anchor="start" x="8" y="-644.5" font-family="Helvetica,sans-Serif" font-size="10.00">+ GetValue()</text>
</a>
</g>
</g>
<!-- Node5&#45;&gt;Node3 -->
<g id="edge4" class="edge">
<title>Node5&#45;&gt;Node3</title>
<path fill="none" stroke="#404040" d="M76,-637.29C76,-581.66 76,-500.55 76,-450.37"/>
<polygon fill="none" stroke="#404040" points="76,-450.31 72,-444.31 76,-438.31 80,-444.31 76,-450.31"/>
<text text-anchor="middle" x="105" y="-554.5" font-family="Helvetica,sans-Serif" font-size="10.00"> +InterpMode</text>
</g>
<!-- Node6 -->
<g id="node6" class="node">
<title>Node6</title>
<g id="a_node6"><a xlink:href="../../df/d1c/classSDK_1_1TEnumAsByte.html" target="_top" xlink:title=" ">
<polygon fill="white" stroke="black" points="144.5,-808.5 144.5,-920.5 301.5,-920.5 301.5,-808.5 144.5,-808.5"/>
<text text-anchor="middle" x="223" y="-908.5" font-family="Helvetica,sans-Serif" font-size="10.00">SDK::TEnumAsByte&lt; TEnum &gt;</text>
<polyline fill="none" stroke="black" points="144.5,-901.5 301.5,-901.5 "/>
<text text-anchor="start" x="152.5" y="-889.5" font-family="Helvetica,sans-Serif" font-size="10.00">&#45; value</text>
<polyline fill="none" stroke="black" points="144.5,-882.5 301.5,-882.5 "/>
<text text-anchor="start" x="152.5" y="-870.5" font-family="Helvetica,sans-Serif" font-size="10.00">+ TEnumAsByte()</text>
<text text-anchor="start" x="152.5" y="-859.5" font-family="Helvetica,sans-Serif" font-size="10.00">+ TEnumAsByte()</text>
<text text-anchor="start" x="152.5" y="-848.5" font-family="Helvetica,sans-Serif" font-size="10.00">+ TEnumAsByte()</text>
<text text-anchor="start" x="152.5" y="-837.5" font-family="Helvetica,sans-Serif" font-size="10.00">+ TEnumAsByte()</text>
<text text-anchor="start" x="152.5" y="-826.5" font-family="Helvetica,sans-Serif" font-size="10.00">+ operator TEnum()</text>
<text text-anchor="start" x="152.5" y="-815.5" font-family="Helvetica,sans-Serif" font-size="10.00">+ GetValue()</text>
</a>
</g>
</g>
<!-- Node6&#45;&gt;Node5 -->
<g id="edge5" class="edge">
<title>Node6&#45;&gt;Node5</title>
<path fill="none" stroke="orange" d="M166.38,-800.52C154.6,-787.42 142.21,-773.64 130.51,-760.63"/>
<polygon fill="orange" stroke="orange" points="163.94,-803.05 173.23,-808.15 169.15,-798.37 163.94,-803.05"/>
<text text-anchor="middle" x="205.5" y="-782" font-family="Helvetica,sans-Serif" font-size="10.00"> &lt; EInterpCurveMode &gt;</text>
</g>
<!-- Node8 -->
<g id="node8" class="node">
<title>Node8</title>
<g id="a_node8"><a xlink:href="../../df/d1c/classSDK_1_1TEnumAsByte.html" target="_top" xlink:title=" ">
<polygon fill="white" stroke="black" points="293.5,-495.5 293.5,-618.5 448.5,-618.5 448.5,-495.5 293.5,-495.5"/>
<text text-anchor="start" x="301.5" y="-606.5" font-family="Helvetica,sans-Serif" font-size="10.00">SDK::TEnumAsByte&lt; EInterp</text>
<text text-anchor="middle" x="371" y="-595.5" font-family="Helvetica,sans-Serif" font-size="10.00">MethodType &gt;</text>
<polyline fill="none" stroke="black" points="293.5,-588.5 448.5,-588.5 "/>
<text text-anchor="start" x="301.5" y="-576.5" font-family="Helvetica,sans-Serif" font-size="10.00">&#45; value</text>
<polyline fill="none" stroke="black" points="293.5,-569.5 448.5,-569.5 "/>
<text text-anchor="start" x="301.5" y="-557.5" font-family="Helvetica,sans-Serif" font-size="10.00">+ TEnumAsByte()</text>
<text text-anchor="start" x="301.5" y="-546.5" font-family="Helvetica,sans-Serif" font-size="10.00">+ TEnumAsByte()</text>
<text text-anchor="start" x="301.5" y="-535.5" font-family="Helvetica,sans-Serif" font-size="10.00">+ TEnumAsByte()</text>
<text text-anchor="start" x="301.5" y="-524.5" font-family="Helvetica,sans-Serif" font-size="10.00">+ TEnumAsByte()</text>
<text text-anchor="start" x="301.5" y="-513.5" font-family="Helvetica,sans-Serif" font-size="10.00">+ operator EInterpMethodType()</text>
<text text-anchor="start" x="301.5" y="-502.5" font-family="Helvetica,sans-Serif" font-size="10.00">+ GetValue()</text>
</a>
</g>
</g>
<!-- Node6&#45;&gt;Node8 -->
<g id="edge8" class="edge">
<title>Node6&#45;&gt;Node8</title>
<path fill="none" stroke="orange" d="M259.05,-799.26C265.85,-786.66 272.77,-773.48 279,-761 302.58,-713.74 327.17,-659.16 344.99,-618.51"/>
<polygon fill="orange" stroke="orange" points="255.83,-797.85 254.13,-808.31 261.98,-801.19 255.83,-797.85"/>
<text text-anchor="middle" x="322.5" y="-782" font-family="Helvetica,sans-Serif" font-size="10.00"> &lt; EInterpMethodType &gt;</text>
</g>
<!-- Node7 -->
<g id="node7" class="node">
<title>Node7</title>
<g id="a_node7"><a xlink:href="../../d3/d79/classSDK_1_1TArray.html" target="_top" xlink:title=" ">
<polygon fill="white" stroke="black" points="162.5,-331.5 162.5,-476.5 259.5,-476.5 259.5,-331.5 162.5,-331.5"/>
<text text-anchor="middle" x="211" y="-464.5" font-family="Helvetica,sans-Serif" font-size="10.00">SDK::TArray&lt; T &gt;</text>
<polyline fill="none" stroke="black" points="162.5,-457.5 259.5,-457.5 "/>
<text text-anchor="start" x="170.5" y="-445.5" font-family="Helvetica,sans-Serif" font-size="10.00">&#45; Data</text>
<text text-anchor="start" x="170.5" y="-434.5" font-family="Helvetica,sans-Serif" font-size="10.00">&#45; Count</text>
<text text-anchor="start" x="170.5" y="-423.5" font-family="Helvetica,sans-Serif" font-size="10.00">&#45; Max</text>
<polyline fill="none" stroke="black" points="162.5,-416.5 259.5,-416.5 "/>
<text text-anchor="start" x="170.5" y="-404.5" font-family="Helvetica,sans-Serif" font-size="10.00">+ TArray()</text>
<text text-anchor="start" x="170.5" y="-393.5" font-family="Helvetica,sans-Serif" font-size="10.00">+ Num()</text>
<text text-anchor="start" x="170.5" y="-382.5" font-family="Helvetica,sans-Serif" font-size="10.00">+ operator[]()</text>
<text text-anchor="start" x="170.5" y="-371.5" font-family="Helvetica,sans-Serif" font-size="10.00">+ operator[]()</text>
<text text-anchor="start" x="170.5" y="-360.5" font-family="Helvetica,sans-Serif" font-size="10.00">+ IsValidIndex()</text>
<text text-anchor="start" x="170.5" y="-349.5" font-family="Helvetica,sans-Serif" font-size="10.00">+ GetByIndex()</text>
<text text-anchor="start" x="170.5" y="-338.5" font-family="Helvetica,sans-Serif" font-size="10.00">+ GetByIndex()</text>
</a>
</g>
</g>
<!-- Node7&#45;&gt;Node2 -->
<g id="edge6" class="edge">
<title>Node7&#45;&gt;Node2</title>
<path fill="none" stroke="orange" d="M211,-320.93C211,-304.98 211,-288.3 211,-272.51"/>
<polygon fill="orange" stroke="orange" points="207.5,-321.3 211,-331.3 214.5,-321.3 207.5,-321.3"/>
<text text-anchor="start" x="211" y="-305" font-family="Helvetica,sans-Serif" font-size="10.00"> &lt; struct SDK::FEFInterpCurve</text>
<text text-anchor="middle" x="279.5" y="-294" font-family="Helvetica,sans-Serif" font-size="10.00">PointLinearColor &gt;</text>
</g>
<!-- Node8&#45;&gt;Node1 -->
<g id="edge7" class="edge">
<title>Node8&#45;&gt;Node1</title>
<path fill="none" stroke="#404040" d="M368.37,-495.47C365.46,-441.57 359.7,-360.7 349,-291 334.9,-199.13 323.77,-177.59 303,-87 302.51,-84.88 302.01,-82.71 301.51,-80.51"/>
<polygon fill="none" stroke="#404040" points="301.49,-80.43 296.24,-75.48 298.78,-68.74 304.03,-73.68 301.49,-80.43"/>
<text text-anchor="middle" x="384.5" y="-299.5" font-family="Helvetica,sans-Serif" font-size="10.00"> +InterpMethod</text>
</g>
</g>
</svg>
        <g id="navigator" transform="translate(0 0)" fill="#404254">
                <rect fill="#f2f5e9" fill-opacity="0.5" stroke="#606060" stroke-width=".5" x="0" y="0" width="60" height="60"/>
                <use id="zoomplus" xlink:href="#zoomPlus" x="17" y="9" onmousedown="handleZoom(evt,'in')"/>
                <use id="zoomminus" xlink:href="#zoomMin" x="42" y="9" onmousedown="handleZoom(evt,'out')"/>
                <use id="reset" xlink:href="#resetDef" x="30" y="36" onmousedown="handleReset()"/>
                <g id="arrowUp" xlink:href="#dirArrow" transform="translate(30 24)" onmousedown="handlePan(0,-1)">
                  <use xlink:href="#rim" fill="#404040">
                        <set attributeName="fill" to="#808080" begin="arrowUp.mouseover" end="arrowUp.mouseout"/>
                  </use>
                  <path fill="none" stroke="white" stroke-width="1.5" d="M0,-3.0v7 M-2.5,-0.5L0,-3.0L2.5,-0.5"/>
                </g>
                <g id="arrowRight" xlink:href="#dirArrow" transform="rotate(90) translate(36 -43)" onmousedown="handlePan(1,0)">
                  <use xlink:href="#rim" fill="#404040">
                        <set attributeName="fill" to="#808080" begin="arrowRight.mouseover" end="arrowRight.mouseout"/>
                  </use>
                  <path fill="none" stroke="white" stroke-width="1.5" d="M0,-3.0v7 M-2.5,-0.5L0,-3.0L2.5,-0.5"/>
                </g>
                <g id="arrowDown" xlink:href="#dirArrow" transform="rotate(180) translate(-30 -48)" onmousedown="handlePan(0,1)">
                  <use xlink:href="#rim" fill="#404040">
                        <set attributeName="fill" to="#808080" begin="arrowDown.mouseover" end="arrowDown.mouseout"/>
                  </use>
                  <path fill="none" stroke="white" stroke-width="1.5" d="M0,-3.0v7 M-2.5,-0.5L0,-3.0L2.5,-0.5"/>
                </g>
                <g id="arrowLeft" xlink:href="#dirArrow" transform="rotate(270) translate(-36 17)" onmousedown="handlePan(-1,0)">
                  <use xlink:href="#rim" fill="#404040">
                        <set attributeName="fill" to="#808080" begin="arrowLeft.mouseover" end="arrowLeft.mouseout"/>
                  </use>
                  <path fill="none" stroke="white" stroke-width="1.5" d="M0,-3.0v7 M-2.5,-0.5L0,-3.0L2.5,-0.5"/>
                </g>
        </g>
        <svg viewBox="0 0 15 15" width="100%" height="30px" preserveAspectRatio="xMaxYMin meet">
         <g id="arrow_out" transform="scale(0.3 0.3)">
          <a xlink:href="structSDK_1_1FEFInterpCurveLinearColor__coll__graph_org.svg" target="_base">
           <rect id="button" ry="5" rx="5" y="6" x="6" height="38" width="38"
                fill="#f2f5e9" fill-opacity="0.5" stroke="#606060" stroke-width="1.0"/>
           <path id="arrow"
             d="M 11.500037,31.436501 C 11.940474,20.09759 22.043105,11.32322 32.158766,21.979434 L 37.068811,17.246167 C 37.068811,17.246167 37.088388,32 37.088388,32 L 22.160133,31.978069 C 22.160133,31.978069 26.997745,27.140456 26.997745,27.140456 C 18.528582,18.264221 13.291696,25.230495 11.500037,31.436501 z"
             style="fill:#404040;"/>
          </a>
         </g>
        </svg>
</svg>
