<?xml version="1.0" encoding="UTF-8" standalone="no"?>
<!DOCTYPE svg PUBLIC "-//W3C//DTD SVG 1.1//EN"
 "http://www.w3.org/Graphics/SVG/1.1/DTD/svg11.dtd">
<!-- Generated by graphviz version 2.41.20171026.1811 (20171026.1811)
 -->
<!-- Title: SDK::ATrigger Pages: 1 -->
<svg width="711pt" height="1041pt"
 viewBox="0.00 0.00 711.00 1041.00" xmlns="http://www.w3.org/2000/svg" xmlns:xlink="http://www.w3.org/1999/xlink">
<g id="graph0" class="graph" transform="scale(1 1) rotate(0) translate(4 1037)">
<title>SDK::ATrigger</title>
<polygon fill="white" stroke="transparent" points="-4,4 -4,-1037 707,-1037 707,4 -4,4"/>
<!-- Node1 -->
<g id="node1" class="node">
<title>Node1</title>
<g id="a_node1"><a xlink:title=" ">
<polygon fill="#bfbfbf" stroke="black" points="256,-138.5 256,-305.5 404,-305.5 404,-138.5 256,-138.5"/>
<text text-anchor="middle" x="330" y="-293.5" font-family="Helvetica,sans-Serif" font-size="10.00">SDK::ATrigger</text>
<polyline fill="none" stroke="black" points="256,-286.5 404,-286.5 "/>
<text text-anchor="start" x="264" y="-274.5" font-family="Helvetica,sans-Serif" font-size="10.00">+ CylinderComponent</text>
<text text-anchor="start" x="264" y="-263.5" font-family="Helvetica,sans-Serif" font-size="10.00">+ bRecentlyTriggered</text>
<text text-anchor="start" x="264" y="-252.5" font-family="Helvetica,sans-Serif" font-size="10.00">+ AITriggerDelay</text>
<polyline fill="none" stroke="black" points="256,-245.5 404,-245.5 "/>
<text text-anchor="start" x="264" y="-233.5" font-family="Helvetica,sans-Serif" font-size="10.00">+ ApplyCheckpointRecord()</text>
<text text-anchor="start" x="264" y="-222.5" font-family="Helvetica,sans-Serif" font-size="10.00">+ CreateCheckpointRecord()</text>
<text text-anchor="start" x="264" y="-211.5" font-family="Helvetica,sans-Serif" font-size="10.00">+ ShouldSaveForCheckpoint()</text>
<text text-anchor="start" x="264" y="-200.5" font-family="Helvetica,sans-Serif" font-size="10.00">+ StopsProjectile()</text>
<text text-anchor="start" x="264" y="-189.5" font-family="Helvetica,sans-Serif" font-size="10.00">+ UnTrigger()</text>
<text text-anchor="start" x="264" y="-178.5" font-family="Helvetica,sans-Serif" font-size="10.00">+ NotifyTriggered()</text>
<text text-anchor="start" x="264" y="-167.5" font-family="Helvetica,sans-Serif" font-size="10.00">+ Touch()</text>
<text text-anchor="start" x="264" y="-156.5" font-family="Helvetica,sans-Serif" font-size="10.00">+ PostBeginPlay()</text>
<text text-anchor="start" x="264" y="-145.5" font-family="Helvetica,sans-Serif" font-size="10.00">+ StaticClass()</text>
</a>
</g>
</g>
<!-- Node4 -->
<g id="node4" class="node">
<title>Node4</title>
<g id="a_node4"><a xlink:href="../../d7/d2d/classSDK_1_1AEFLocalTrigger.html" target="_top" xlink:title=" ">
<polygon fill="white" stroke="black" points="0,-0.5 0,-101.5 116,-101.5 116,-0.5 0,-0.5"/>
<text text-anchor="middle" x="58" y="-89.5" font-family="Helvetica,sans-Serif" font-size="10.00">SDK::AEFLocalTrigger</text>
<polyline fill="none" stroke="black" points="0,-82.5 116,-82.5 "/>
<text text-anchor="start" x="8" y="-70.5" font-family="Helvetica,sans-Serif" font-size="10.00">+ bCinematicControl</text>
<polyline fill="none" stroke="black" points="0,-63.5 116,-63.5 "/>
<text text-anchor="start" x="8" y="-51.5" font-family="Helvetica,sans-Serif" font-size="10.00">+ Touch()</text>
<text text-anchor="start" x="8" y="-40.5" font-family="Helvetica,sans-Serif" font-size="10.00">+ PostBeginPlay()</text>
<text text-anchor="start" x="8" y="-29.5" font-family="Helvetica,sans-Serif" font-size="10.00">+ IsCinematicControl()</text>
<text text-anchor="start" x="8" y="-18.5" font-family="Helvetica,sans-Serif" font-size="10.00">+ IsLocalMode()</text>
<text text-anchor="start" x="8" y="-7.5" font-family="Helvetica,sans-Serif" font-size="10.00">+ StaticClass()</text>
</a>
</g>
</g>
<!-- Node1&#45;&gt;Node4 -->
<g id="edge3" class="edge">
<title>Node1&#45;&gt;Node4</title>
<path fill="none" stroke="midnightblue" d="M246.76,-175.56C208.98,-154.21 164.11,-127.82 125,-102 122.09,-100.08 119.14,-98.08 116.18,-96.04"/>
<polygon fill="none" stroke="midnightblue" points="245.27,-178.74 255.7,-180.6 248.7,-172.64 245.27,-178.74"/>
</g>
<!-- Node5 -->
<g id="node5" class="node">
<title>Node5</title>
<g id="a_node5"><a xlink:href="../../d9/d2c/classSDK_1_1ATrigger__Dynamic.html" target="_top" xlink:title=" ">
<polygon fill="white" stroke="black" points="134.5,-22.5 134.5,-79.5 259.5,-79.5 259.5,-22.5 134.5,-22.5"/>
<text text-anchor="middle" x="197" y="-67.5" font-family="Helvetica,sans-Serif" font-size="10.00">SDK::ATrigger_Dynamic</text>
<polyline fill="none" stroke="black" points="134.5,-60.5 259.5,-60.5 "/>
<text text-anchor="middle" x="197" y="-48.5" font-family="Helvetica,sans-Serif" font-size="10.00"> </text>
<polyline fill="none" stroke="black" points="134.5,-41.5 259.5,-41.5 "/>
<text text-anchor="start" x="142.5" y="-29.5" font-family="Helvetica,sans-Serif" font-size="10.00">+ StaticClass()</text>
</a>
</g>
</g>
<!-- Node1&#45;&gt;Node5 -->
<g id="edge4" class="edge">
<title>Node1&#45;&gt;Node5</title>
<path fill="none" stroke="midnightblue" d="M258.78,-130.5C244.15,-111.92 229.83,-93.72 218.67,-79.53"/>
<polygon fill="none" stroke="midnightblue" points="256.12,-132.79 265.06,-138.48 261.62,-128.46 256.12,-132.79"/>
</g>
<!-- Node6 -->
<g id="node6" class="node">
<title>Node6</title>
<g id="a_node6"><a xlink:href="../../db/dde/classSDK_1_1ATrigger__LOS.html" target="_top" xlink:title=" ">
<polygon fill="white" stroke="black" points="277.5,-17 277.5,-85 382.5,-85 382.5,-17 277.5,-17"/>
<text text-anchor="middle" x="330" y="-73" font-family="Helvetica,sans-Serif" font-size="10.00">SDK::ATrigger_LOS</text>
<polyline fill="none" stroke="black" points="277.5,-66 382.5,-66 "/>
<text text-anchor="start" x="285.5" y="-54" font-family="Helvetica,sans-Serif" font-size="10.00">+ PCsWithLOS</text>
<polyline fill="none" stroke="black" points="277.5,-47 382.5,-47 "/>
<text text-anchor="start" x="285.5" y="-35" font-family="Helvetica,sans-Serif" font-size="10.00">+ Tick()</text>
<text text-anchor="start" x="285.5" y="-24" font-family="Helvetica,sans-Serif" font-size="10.00">+ StaticClass()</text>
</a>
</g>
</g>
<!-- Node1&#45;&gt;Node6 -->
<g id="edge5" class="edge">
<title>Node1&#45;&gt;Node6</title>
<path fill="none" stroke="midnightblue" d="M330,-128.28C330,-112.81 330,-97.71 330,-85.08"/>
<polygon fill="none" stroke="midnightblue" points="326.5,-128.48 330,-138.48 333.5,-128.48 326.5,-128.48"/>
</g>
<!-- Node7 -->
<g id="node7" class="node">
<title>Node7</title>
<g id="a_node7"><a xlink:href="../../d1/dd5/classSDK_1_1ATrigger__PawnsOnly.html" target="_top" xlink:title=" ">
<polygon fill="white" stroke="black" points="401,-22.5 401,-79.5 537,-79.5 537,-22.5 401,-22.5"/>
<text text-anchor="middle" x="469" y="-67.5" font-family="Helvetica,sans-Serif" font-size="10.00">SDK::ATrigger_PawnsOnly</text>
<polyline fill="none" stroke="black" points="401,-60.5 537,-60.5 "/>
<text text-anchor="middle" x="469" y="-48.5" font-family="Helvetica,sans-Serif" font-size="10.00"> </text>
<polyline fill="none" stroke="black" points="401,-41.5 537,-41.5 "/>
<text text-anchor="start" x="409" y="-29.5" font-family="Helvetica,sans-Serif" font-size="10.00">+ StaticClass()</text>
</a>
</g>
</g>
<!-- Node1&#45;&gt;Node7 -->
<g id="edge6" class="edge">
<title>Node1&#45;&gt;Node7</title>
<path fill="none" stroke="midnightblue" d="M404.43,-130.5C419.72,-111.92 434.68,-93.72 446.35,-79.53"/>
<polygon fill="none" stroke="midnightblue" points="401.52,-128.53 397.87,-138.48 406.93,-132.98 401.52,-128.53"/>
</g>
<!-- Node8 -->
<g id="node8" class="node">
<title>Node8</title>
<g id="a_node8"><a xlink:href="../../d0/dd6/classSDK_1_1ATriggerStreamingLevel.html" target="_top" xlink:title=" ">
<polygon fill="white" stroke="black" points="555,-17 555,-85 703,-85 703,-17 555,-17"/>
<text text-anchor="middle" x="629" y="-73" font-family="Helvetica,sans-Serif" font-size="10.00">SDK::ATriggerStreamingLevel</text>
<polyline fill="none" stroke="black" points="555,-66 703,-66 "/>
<text text-anchor="start" x="563" y="-54" font-family="Helvetica,sans-Serif" font-size="10.00">+ Levels</text>
<polyline fill="none" stroke="black" points="555,-47 703,-47 "/>
<text text-anchor="start" x="563" y="-35" font-family="Helvetica,sans-Serif" font-size="10.00">+ Touch()</text>
<text text-anchor="start" x="563" y="-24" font-family="Helvetica,sans-Serif" font-size="10.00">+ StaticClass()</text>
</a>
</g>
</g>
<!-- Node1&#45;&gt;Node8 -->
<g id="edge7" class="edge">
<title>Node1&#45;&gt;Node8</title>
<path fill="none" stroke="midnightblue" d="M413.36,-176.05C453.64,-154.09 502.55,-127.04 546,-102 555.33,-96.62 565.18,-90.81 574.71,-85.11"/>
<polygon fill="none" stroke="midnightblue" points="411.48,-173.09 404.37,-180.95 414.83,-179.24 411.48,-173.09"/>
</g>
<!-- Node2 -->
<g id="node2" class="node">
<title>Node2</title>
<g id="a_node2"><a xlink:href="../../d3/dfc/classSDK_1_1AActor.html" target="_top" xlink:title=" ">
<polygon fill="white" stroke="black" points="257,-342.5 257,-641.5 403,-641.5 403,-342.5 257,-342.5"/>
<text text-anchor="middle" x="330" y="-629.5" font-family="Helvetica,sans-Serif" font-size="10.00">SDK::AActor</text>
<polyline fill="none" stroke="black" points="257,-622.5 403,-622.5 "/>
<text text-anchor="start" x="265" y="-610.5" font-family="Helvetica,sans-Serif" font-size="10.00">+ TerrainColType</text>
<text text-anchor="start" x="265" y="-599.5" font-family="Helvetica,sans-Serif" font-size="10.00">+ Physics</text>
<text text-anchor="start" x="265" y="-588.5" font-family="Helvetica,sans-Serif" font-size="10.00">+ RemoteRole</text>
<text text-anchor="start" x="265" y="-577.5" font-family="Helvetica,sans-Serif" font-size="10.00">+ Role</text>
<text text-anchor="start" x="265" y="-566.5" font-family="Helvetica,sans-Serif" font-size="10.00">+ CollisionType</text>
<text text-anchor="start" x="265" y="-555.5" font-family="Helvetica,sans-Serif" font-size="10.00">+ ReplicatedCollisionType</text>
<text text-anchor="start" x="265" y="-544.5" font-family="Helvetica,sans-Serif" font-size="10.00">+ SkipCollidePawns</text>
<text text-anchor="start" x="265" y="-533.5" font-family="Helvetica,sans-Serif" font-size="10.00">+ TickGroup</text>
<text text-anchor="start" x="265" y="-522.5" font-family="Helvetica,sans-Serif" font-size="10.00">+ ColOption</text>
<text text-anchor="start" x="265" y="-511.5" font-family="Helvetica,sans-Serif" font-size="10.00">+ Components</text>
<text text-anchor="start" x="265" y="-500.5" font-family="Helvetica,sans-Serif" font-size="10.00">and 155 more...</text>
<polyline fill="none" stroke="black" points="257,-493.5 403,-493.5 "/>
<text text-anchor="start" x="265" y="-481.5" font-family="Helvetica,sans-Serif" font-size="10.00">+ GetActorSpriteComponent()</text>
<text text-anchor="start" x="265" y="-470.5" font-family="Helvetica,sans-Serif" font-size="10.00">+ GetActorMetrics()</text>
<text text-anchor="start" x="265" y="-459.5" font-family="Helvetica,sans-Serif" font-size="10.00">+ OnMobileTouch()</text>
<text text-anchor="start" x="265" y="-448.5" font-family="Helvetica,sans-Serif" font-size="10.00">+ IsMobileTouchEnabled()</text>
<text text-anchor="start" x="265" y="-437.5" font-family="Helvetica,sans-Serif" font-size="10.00">+ ShouldBeHiddenBySHOW</text>
<text text-anchor="start" x="265" y="-426.5" font-family="Helvetica,sans-Serif" font-size="10.00">_NavigationNodes()</text>
<text text-anchor="start" x="265" y="-415.5" font-family="Helvetica,sans-Serif" font-size="10.00">+ WillOverlap()</text>
<text text-anchor="start" x="265" y="-404.5" font-family="Helvetica,sans-Serif" font-size="10.00">+ GetAvoidanceVector()</text>
<text text-anchor="start" x="265" y="-393.5" font-family="Helvetica,sans-Serif" font-size="10.00">+ ReplicationEnded()</text>
<text text-anchor="start" x="265" y="-382.5" font-family="Helvetica,sans-Serif" font-size="10.00">+ PostDemoRewind()</text>
<text text-anchor="start" x="265" y="-371.5" font-family="Helvetica,sans-Serif" font-size="10.00">+ AnimTreeUpdated()</text>
<text text-anchor="start" x="265" y="-360.5" font-family="Helvetica,sans-Serif" font-size="10.00">and 252 more...</text>
<text text-anchor="start" x="265" y="-349.5" font-family="Helvetica,sans-Serif" font-size="10.00">+ StaticClass()</text>
</a>
</g>
</g>
<!-- Node2&#45;&gt;Node1 -->
<g id="edge1" class="edge">
<title>Node2&#45;&gt;Node1</title>
<path fill="none" stroke="midnightblue" d="M330,-332.24C330,-323.21 330,-314.33 330,-305.78"/>
<polygon fill="none" stroke="midnightblue" points="326.5,-332.5 330,-342.5 333.5,-332.5 326.5,-332.5"/>
</g>
<!-- Node3 -->
<g id="node3" class="node">
<title>Node3</title>
<g id="a_node3"><a xlink:href="../../d9/d45/classSDK_1_1UObject.html" target="_top" xlink:title=" ">
<polygon fill="white" stroke="black" points="231,-678.5 231,-1032.5 429,-1032.5 429,-678.5 231,-678.5"/>
<text text-anchor="middle" x="330" y="-1020.5" font-family="Helvetica,sans-Serif" font-size="10.00">SDK::UObject</text>
<polyline fill="none" stroke="black" points="231,-1013.5 429,-1013.5 "/>
<text text-anchor="start" x="239" y="-1001.5" font-family="Helvetica,sans-Serif" font-size="10.00">+ VfTableObject</text>
<text text-anchor="start" x="239" y="-990.5" font-family="Helvetica,sans-Serif" font-size="10.00">+ ObjectFlags</text>
<text text-anchor="start" x="239" y="-979.5" font-family="Helvetica,sans-Serif" font-size="10.00">+ StateFrame</text>
<text text-anchor="start" x="239" y="-968.5" font-family="Helvetica,sans-Serif" font-size="10.00">+ Linker</text>
<text text-anchor="start" x="239" y="-957.5" font-family="Helvetica,sans-Serif" font-size="10.00">+ LinkerIndex</text>
<text text-anchor="start" x="239" y="-946.5" font-family="Helvetica,sans-Serif" font-size="10.00">+ ObjectInternalInteger</text>
<text text-anchor="start" x="239" y="-935.5" font-family="Helvetica,sans-Serif" font-size="10.00">+ NetIndex</text>
<text text-anchor="start" x="239" y="-924.5" font-family="Helvetica,sans-Serif" font-size="10.00">+ Outer</text>
<text text-anchor="start" x="239" y="-913.5" font-family="Helvetica,sans-Serif" font-size="10.00">+ Name</text>
<text text-anchor="start" x="239" y="-902.5" font-family="Helvetica,sans-Serif" font-size="10.00">+ Class</text>
<text text-anchor="start" x="239" y="-891.5" font-family="Helvetica,sans-Serif" font-size="10.00">+ ObjectArchetype</text>
<text text-anchor="start" x="239" y="-880.5" font-family="Helvetica,sans-Serif" font-size="10.00">+ GObjects</text>
<polyline fill="none" stroke="black" points="231,-873.5 429,-873.5 "/>
<text text-anchor="start" x="239" y="-861.5" font-family="Helvetica,sans-Serif" font-size="10.00">+ UObject::GetName()</text>
<text text-anchor="start" x="239" y="-850.5" font-family="Helvetica,sans-Serif" font-size="10.00">+ GetFullName()</text>
<text text-anchor="start" x="239" y="-839.5" font-family="Helvetica,sans-Serif" font-size="10.00">+ IsA()</text>
<text text-anchor="start" x="239" y="-828.5" font-family="Helvetica,sans-Serif" font-size="10.00">+ ProcessEvent()</text>
<text text-anchor="start" x="239" y="-817.5" font-family="Helvetica,sans-Serif" font-size="10.00">+ STATIC_ProfNodeEvent()</text>
<text text-anchor="start" x="239" y="-806.5" font-family="Helvetica,sans-Serif" font-size="10.00">+ STATIC_ProfNodeSetDepthThreshold()</text>
<text text-anchor="start" x="239" y="-795.5" font-family="Helvetica,sans-Serif" font-size="10.00">+ STATIC_ProfNodeSetTimeThreshold</text>
<text text-anchor="start" x="239" y="-784.5" font-family="Helvetica,sans-Serif" font-size="10.00">Seconds()</text>
<text text-anchor="start" x="239" y="-773.5" font-family="Helvetica,sans-Serif" font-size="10.00">+ STATIC_ProfNodeStop()</text>
<text text-anchor="start" x="239" y="-762.5" font-family="Helvetica,sans-Serif" font-size="10.00">+ STATIC_ProfNodeStart()</text>
<text text-anchor="start" x="239" y="-751.5" font-family="Helvetica,sans-Serif" font-size="10.00">+ STATIC_GetStringFromGuid()</text>
<text text-anchor="start" x="239" y="-740.5" font-family="Helvetica,sans-Serif" font-size="10.00">and 298 more...</text>
<text text-anchor="start" x="239" y="-729.5" font-family="Helvetica,sans-Serif" font-size="10.00">+ GetGlobalObjects()</text>
<text text-anchor="start" x="239" y="-718.5" font-family="Helvetica,sans-Serif" font-size="10.00">+ FindObject()</text>
<text text-anchor="start" x="239" y="-707.5" font-family="Helvetica,sans-Serif" font-size="10.00">+ FindClass()</text>
<text text-anchor="start" x="239" y="-696.5" font-family="Helvetica,sans-Serif" font-size="10.00">+ GetObjectCasted()</text>
<text text-anchor="start" x="239" y="-685.5" font-family="Helvetica,sans-Serif" font-size="10.00">+ StaticClass()</text>
</a>
</g>
</g>
<!-- Node3&#45;&gt;Node2 -->
<g id="edge2" class="edge">
<title>Node3&#45;&gt;Node2</title>
<path fill="none" stroke="midnightblue" d="M330,-668.17C330,-659.24 330,-650.33 330,-641.53"/>
<polygon fill="none" stroke="midnightblue" points="326.5,-668.25 330,-678.25 333.5,-668.25 326.5,-668.25"/>
</g>
</g>
</svg>
