<?xml version="1.0" encoding="UTF-8" standalone="no"?>
<!DOCTYPE svg PUBLIC "-//W3C//DTD SVG 1.1//EN"
 "http://www.w3.org/Graphics/SVG/1.1/DTD/svg11.dtd">
<!-- Generated by graphviz version 2.41.20171026.1811 (20171026.1811)
 -->
<!-- Title: SDK::FBox Pages: 1 -->
<svg width="86pt" height="204pt"
 viewBox="0.00 0.00 86.00 204.00" xmlns="http://www.w3.org/2000/svg" xmlns:xlink="http://www.w3.org/1999/xlink">
<g id="graph0" class="graph" transform="scale(1 1) rotate(0) translate(4 200)">
<title>SDK::FBox</title>
<polygon fill="white" stroke="transparent" points="-4,4 -4,-200 82,-200 82,4 -4,4"/>
<!-- Node1 -->
<g id="node1" class="node">
<title>Node1</title>
<g id="a_node1"><a xlink:title=" ">
<polygon fill="#bfbfbf" stroke="black" points="5.5,-0.5 5.5,-57.5 72.5,-57.5 72.5,-0.5 5.5,-0.5"/>
<text text-anchor="middle" x="39" y="-45.5" font-family="Helvetica,sans-Serif" font-size="10.00">SDK::FBox</text>
<polyline fill="none" stroke="black" points="5.5,-38.5 72.5,-38.5 "/>
<text text-anchor="start" x="13.5" y="-26.5" font-family="Helvetica,sans-Serif" font-size="10.00">+ IsValid</text>
<polyline fill="none" stroke="black" points="5.5,-19.5 72.5,-19.5 "/>
<text text-anchor="middle" x="39" y="-7.5" font-family="Helvetica,sans-Serif" font-size="10.00"> </text>
</a>
</g>
</g>
<!-- Node2 -->
<g id="node2" class="node">
<title>Node2</title>
<g id="a_node2"><a xlink:href="../../dd/d43/structSDK_1_1FVector.html" target="_top" xlink:title=" ">
<polygon fill="white" stroke="black" points="0,-116.5 0,-195.5 78,-195.5 78,-116.5 0,-116.5"/>
<text text-anchor="middle" x="39" y="-183.5" font-family="Helvetica,sans-Serif" font-size="10.00">SDK::FVector</text>
<polyline fill="none" stroke="black" points="0,-176.5 78,-176.5 "/>
<text text-anchor="start" x="8" y="-164.5" font-family="Helvetica,sans-Serif" font-size="10.00">+ X</text>
<text text-anchor="start" x="8" y="-153.5" font-family="Helvetica,sans-Serif" font-size="10.00">+ Y</text>
<text text-anchor="start" x="8" y="-142.5" font-family="Helvetica,sans-Serif" font-size="10.00">+ Z</text>
<polyline fill="none" stroke="black" points="0,-135.5 78,-135.5 "/>
<text text-anchor="middle" x="39" y="-123.5" font-family="Helvetica,sans-Serif" font-size="10.00"> </text>
</a>
</g>
</g>
<!-- Node2&#45;&gt;Node1 -->
<g id="edge1" class="edge">
<title>Node2&#45;&gt;Node1</title>
<path fill="none" stroke="#404040" d="M39,-116.48C39,-101.83 39,-85.11 39,-70.3"/>
<polygon fill="none" stroke="#404040" points="39,-69.88 35,-63.88 39,-57.88 43,-63.88 39,-69.88"/>
<text text-anchor="middle" x="51.5" y="-90" font-family="Helvetica,sans-Serif" font-size="10.00"> +Min</text>
<text text-anchor="middle" x="51.5" y="-79" font-family="Helvetica,sans-Serif" font-size="10.00">+Max</text>
</g>
</g>
</svg>
