<?xml version="1.0" encoding="UTF-8" standalone="no"?>
<!DOCTYPE svg PUBLIC "-//W3C//DTD SVG 1.1//EN"
 "http://www.w3.org/Graphics/SVG/1.1/DTD/svg11.dtd">
<!-- Generated by graphviz version 2.41.20171026.1811 (20171026.1811)
 -->
<!-- Title: SDK::UClient Pages: 1 -->
<svg width="641pt" height="1364pt"
 viewBox="0.00 0.00 641.00 1364.00" xmlns="http://www.w3.org/2000/svg" xmlns:xlink="http://www.w3.org/1999/xlink">
<g id="graph0" class="graph" transform="scale(1 1) rotate(0) translate(4 1360)">
<title>SDK::UClient</title>
<polygon fill="white" stroke="transparent" points="-4,4 -4,-1360 637,-1360 637,4 -4,4"/>
<!-- Node1 -->
<g id="node1" class="node">
<title>Node1</title>
<g id="a_node1"><a xlink:title=" ">
<polygon fill="#bfbfbf" stroke="black" points="179.5,-378 179.5,-479 313.5,-479 313.5,-378 179.5,-378"/>
<text text-anchor="middle" x="246.5" y="-467" font-family="Helvetica,sans-Serif" font-size="10.00">SDK::UClient</text>
<polyline fill="none" stroke="black" points="179.5,-460 313.5,-460 "/>
<text text-anchor="start" x="187.5" y="-448" font-family="Helvetica,sans-Serif" font-size="10.00">+ UnknownData00</text>
<text text-anchor="start" x="187.5" y="-437" font-family="Helvetica,sans-Serif" font-size="10.00">+ MinDesiredFrameRate</text>
<text text-anchor="start" x="187.5" y="-426" font-family="Helvetica,sans-Serif" font-size="10.00">+ DisplayGamma</text>
<text text-anchor="start" x="187.5" y="-415" font-family="Helvetica,sans-Serif" font-size="10.00">+ InitialButtonRepeatDelay</text>
<text text-anchor="start" x="187.5" y="-404" font-family="Helvetica,sans-Serif" font-size="10.00">+ ButtonRepeatDelay</text>
<polyline fill="none" stroke="black" points="179.5,-397 313.5,-397 "/>
<text text-anchor="start" x="187.5" y="-385" font-family="Helvetica,sans-Serif" font-size="10.00">+ StaticClass()</text>
</a>
</g>
</g>
<!-- Node2 -->
<g id="node2" class="node">
<title>Node2</title>
<g id="a_node2"><a xlink:href="../../d9/d45/classSDK_1_1UObject.html" target="_top" xlink:title=" ">
<polygon fill="white" stroke="black" points="242.5,-543.5 242.5,-787.5 440.5,-787.5 440.5,-543.5 242.5,-543.5"/>
<text text-anchor="middle" x="341.5" y="-775.5" font-family="Helvetica,sans-Serif" font-size="10.00">SDK::UObject</text>
<polyline fill="none" stroke="black" points="242.5,-768.5 440.5,-768.5 "/>
<text text-anchor="start" x="250.5" y="-756.5" font-family="Helvetica,sans-Serif" font-size="10.00">+ ObjectInternalInteger</text>
<text text-anchor="start" x="250.5" y="-745.5" font-family="Helvetica,sans-Serif" font-size="10.00">+ NetIndex</text>
<polyline fill="none" stroke="black" points="242.5,-738.5 440.5,-738.5 "/>
<text text-anchor="start" x="250.5" y="-726.5" font-family="Helvetica,sans-Serif" font-size="10.00">+ UObject::GetName()</text>
<text text-anchor="start" x="250.5" y="-715.5" font-family="Helvetica,sans-Serif" font-size="10.00">+ GetFullName()</text>
<text text-anchor="start" x="250.5" y="-704.5" font-family="Helvetica,sans-Serif" font-size="10.00">+ IsA()</text>
<text text-anchor="start" x="250.5" y="-693.5" font-family="Helvetica,sans-Serif" font-size="10.00">+ ProcessEvent()</text>
<text text-anchor="start" x="250.5" y="-682.5" font-family="Helvetica,sans-Serif" font-size="10.00">+ STATIC_ProfNodeEvent()</text>
<text text-anchor="start" x="250.5" y="-671.5" font-family="Helvetica,sans-Serif" font-size="10.00">+ STATIC_ProfNodeSetDepthThreshold()</text>
<text text-anchor="start" x="250.5" y="-660.5" font-family="Helvetica,sans-Serif" font-size="10.00">+ STATIC_ProfNodeSetTimeThreshold</text>
<text text-anchor="start" x="250.5" y="-649.5" font-family="Helvetica,sans-Serif" font-size="10.00">Seconds()</text>
<text text-anchor="start" x="250.5" y="-638.5" font-family="Helvetica,sans-Serif" font-size="10.00">+ STATIC_ProfNodeStop()</text>
<text text-anchor="start" x="250.5" y="-627.5" font-family="Helvetica,sans-Serif" font-size="10.00">+ STATIC_ProfNodeStart()</text>
<text text-anchor="start" x="250.5" y="-616.5" font-family="Helvetica,sans-Serif" font-size="10.00">+ STATIC_GetStringFromGuid()</text>
<text text-anchor="start" x="250.5" y="-605.5" font-family="Helvetica,sans-Serif" font-size="10.00">and 298 more...</text>
<text text-anchor="start" x="250.5" y="-594.5" font-family="Helvetica,sans-Serif" font-size="10.00">+ GetGlobalObjects()</text>
<text text-anchor="start" x="250.5" y="-583.5" font-family="Helvetica,sans-Serif" font-size="10.00">+ FindObject()</text>
<text text-anchor="start" x="250.5" y="-572.5" font-family="Helvetica,sans-Serif" font-size="10.00">+ FindClass()</text>
<text text-anchor="start" x="250.5" y="-561.5" font-family="Helvetica,sans-Serif" font-size="10.00">+ GetObjectCasted()</text>
<text text-anchor="start" x="250.5" y="-550.5" font-family="Helvetica,sans-Serif" font-size="10.00">+ StaticClass()</text>
</a>
</g>
</g>
<!-- Node2&#45;&gt;Node1 -->
<g id="edge1" class="edge">
<title>Node2&#45;&gt;Node1</title>
<path fill="none" stroke="midnightblue" d="M288.72,-533.93C280.85,-514.46 273.17,-495.48 266.57,-479.15"/>
<polygon fill="none" stroke="midnightblue" points="285.48,-535.25 292.47,-543.21 291.97,-532.63 285.48,-535.25"/>
</g>
<!-- Node2&#45;&gt;Node2 -->
<g id="edge7" class="edge">
<title>Node2&#45;&gt;Node2</title>
<path fill="none" stroke="#404040" d="M440.51,-688.53C451.44,-684.15 458.5,-676.48 458.5,-665.5 458.5,-658.64 455.74,-653.07 451.01,-648.78"/>
<polygon fill="none" stroke="#404040" points="450.8,-648.66 443.59,-648.99 440.51,-642.47 447.72,-642.14 450.8,-648.66"/>
<text text-anchor="middle" x="498" y="-674" font-family="Helvetica,sans-Serif" font-size="10.00"> +Outer</text>
<text text-anchor="middle" x="498" y="-663" font-family="Helvetica,sans-Serif" font-size="10.00">+Linker</text>
<text text-anchor="middle" x="498" y="-652" font-family="Helvetica,sans-Serif" font-size="10.00">+ObjectArchetype</text>
</g>
<!-- Node8 -->
<g id="node8" class="node">
<title>Node8</title>
<g id="a_node8"><a xlink:href="../../d3/d79/classSDK_1_1TArray.html" target="_top" xlink:title=" ">
<polygon fill="white" stroke="black" points="0,-361.5 0,-495.5 161,-495.5 161,-361.5 0,-361.5"/>
<text text-anchor="middle" x="80.5" y="-483.5" font-family="Helvetica,sans-Serif" font-size="10.00">SDK::TArray&lt; SDK::UObject * &gt;</text>
<polyline fill="none" stroke="black" points="0,-476.5 161,-476.5 "/>
<text text-anchor="start" x="8" y="-464.5" font-family="Helvetica,sans-Serif" font-size="10.00">&#45; Count</text>
<text text-anchor="start" x="8" y="-453.5" font-family="Helvetica,sans-Serif" font-size="10.00">&#45; Max</text>
<polyline fill="none" stroke="black" points="0,-446.5 161,-446.5 "/>
<text text-anchor="start" x="8" y="-434.5" font-family="Helvetica,sans-Serif" font-size="10.00">+ TArray()</text>
<text text-anchor="start" x="8" y="-423.5" font-family="Helvetica,sans-Serif" font-size="10.00">+ Num()</text>
<text text-anchor="start" x="8" y="-412.5" font-family="Helvetica,sans-Serif" font-size="10.00">+ operator[]()</text>
<text text-anchor="start" x="8" y="-401.5" font-family="Helvetica,sans-Serif" font-size="10.00">+ operator[]()</text>
<text text-anchor="start" x="8" y="-390.5" font-family="Helvetica,sans-Serif" font-size="10.00">+ IsValidIndex()</text>
<text text-anchor="start" x="8" y="-379.5" font-family="Helvetica,sans-Serif" font-size="10.00">+ GetByIndex()</text>
<text text-anchor="start" x="8" y="-368.5" font-family="Helvetica,sans-Serif" font-size="10.00">+ GetByIndex()</text>
</a>
</g>
</g>
<!-- Node2&#45;&gt;Node8 -->
<g id="edge9" class="edge">
<title>Node2&#45;&gt;Node8</title>
<path fill="none" stroke="#404040" d="M242.34,-602.14C210.6,-579.82 176.46,-553.16 148.5,-525 142.44,-518.89 136.52,-512.2 130.87,-505.28"/>
<polygon fill="none" stroke="#404040" points="130.77,-505.15 123.92,-502.92 123.34,-495.73 130.2,-497.96 130.77,-505.15"/>
<text text-anchor="middle" x="162.5" y="-517" font-family="Helvetica,sans-Serif" font-size="10.00"> &#45;Data</text>
</g>
<!-- Node10 -->
<g id="node10" class="node">
<title>Node10</title>
<g id="a_node10"><a xlink:href="../../d7/d85/classSDK_1_1UClass.html" target="_top" xlink:title=" ">
<polygon fill="white" stroke="black" points="412,-0.5 412,-90.5 533,-90.5 533,-0.5 412,-0.5"/>
<text text-anchor="middle" x="472.5" y="-78.5" font-family="Helvetica,sans-Serif" font-size="10.00">SDK::UClass</text>
<polyline fill="none" stroke="black" points="412,-71.5 533,-71.5 "/>
<text text-anchor="start" x="420" y="-59.5" font-family="Helvetica,sans-Serif" font-size="10.00">+ UnknownData00</text>
<text text-anchor="start" x="420" y="-48.5" font-family="Helvetica,sans-Serif" font-size="10.00">+ UnknownData01</text>
<polyline fill="none" stroke="black" points="412,-41.5 533,-41.5 "/>
<text text-anchor="start" x="420" y="-29.5" font-family="Helvetica,sans-Serif" font-size="10.00">+ CreateDefaultObject()</text>
<text text-anchor="start" x="420" y="-18.5" font-family="Helvetica,sans-Serif" font-size="10.00">+ CreateDefaultObject()</text>
<text text-anchor="start" x="420" y="-7.5" font-family="Helvetica,sans-Serif" font-size="10.00">+ StaticClass()</text>
</a>
</g>
</g>
<!-- Node2&#45;&gt;Node10 -->
<g id="edge19" class="edge">
<title>Node2&#45;&gt;Node10</title>
<path fill="none" stroke="#404040" d="M341.5,-543.44C341.5,-506.83 341.5,-466.52 341.5,-429.5 341.5,-429.5 341.5,-429.5 341.5,-156 341.5,-120.34 370.44,-94.01 401.11,-76.12"/>
<polygon fill="none" stroke="#404040" points="401.47,-75.92 404.8,-69.53 411.98,-70.14 408.65,-76.54 401.47,-75.92"/>
<text text-anchor="middle" x="389" y="-260.5" font-family="Helvetica,sans-Serif" font-size="10.00"> +ClassDefaultObject</text>
</g>
<!-- Node13 -->
<g id="node13" class="node">
<title>Node13</title>
<g id="a_node13"><a xlink:href="../../de/dd6/classSDK_1_1UField.html" target="_top" xlink:title=" ">
<polygon fill="white" stroke="black" points="501,-400 501,-457 584,-457 584,-400 501,-400"/>
<text text-anchor="middle" x="542.5" y="-445" font-family="Helvetica,sans-Serif" font-size="10.00">SDK::UField</text>
<polyline fill="none" stroke="black" points="501,-438 584,-438 "/>
<text text-anchor="middle" x="542.5" y="-426" font-family="Helvetica,sans-Serif" font-size="10.00"> </text>
<polyline fill="none" stroke="black" points="501,-419 584,-419 "/>
<text text-anchor="start" x="509" y="-407" font-family="Helvetica,sans-Serif" font-size="10.00">+ StaticClass()</text>
</a>
</g>
</g>
<!-- Node2&#45;&gt;Node13 -->
<g id="edge16" class="edge">
<title>Node2&#45;&gt;Node13</title>
<path fill="none" stroke="midnightblue" d="M448,-568.73C461.58,-554.63 474.81,-539.83 486.5,-525 503.28,-503.72 518.56,-476.91 528.91,-457.12"/>
<polygon fill="none" stroke="midnightblue" points="445.35,-566.44 440.87,-576.04 450.36,-571.33 445.35,-566.44"/>
</g>
<!-- Node3 -->
<g id="node3" class="node">
<title>Node3</title>
<g id="a_node3"><a xlink:href="../../d0/d22/structSDK_1_1FQWord.html" target="_top" xlink:title=" ">
<polygon fill="white" stroke="black" points="413.5,-885 413.5,-953 493.5,-953 493.5,-885 413.5,-885"/>
<text text-anchor="middle" x="453.5" y="-941" font-family="Helvetica,sans-Serif" font-size="10.00">SDK::FQWord</text>
<polyline fill="none" stroke="black" points="413.5,-934 493.5,-934 "/>
<text text-anchor="start" x="421.5" y="-922" font-family="Helvetica,sans-Serif" font-size="10.00">+ A</text>
<text text-anchor="start" x="421.5" y="-911" font-family="Helvetica,sans-Serif" font-size="10.00">+ B</text>
<polyline fill="none" stroke="black" points="413.5,-904 493.5,-904 "/>
<text text-anchor="middle" x="453.5" y="-892" font-family="Helvetica,sans-Serif" font-size="10.00"> </text>
</a>
</g>
</g>
<!-- Node3&#45;&gt;Node2 -->
<g id="edge2" class="edge">
<title>Node3&#45;&gt;Node2</title>
<path fill="none" stroke="#404040" d="M444.95,-884.53C438.71,-861.94 429.46,-831.67 418.5,-806 417.44,-803.52 416.35,-801.03 415.23,-798.52"/>
<polygon fill="none" stroke="#404040" points="415.18,-798.41 409.04,-794.63 410.17,-787.51 416.31,-791.29 415.18,-798.41"/>
<text text-anchor="middle" x="460.5" y="-820" font-family="Helvetica,sans-Serif" font-size="10.00"> +ObjectFlags</text>
</g>
<!-- Node4 -->
<g id="node4" class="node">
<title>Node4</title>
<g id="a_node4"><a xlink:href="../../d0/db6/structSDK_1_1FName.html" target="_top" xlink:title=" ">
<polygon fill="white" stroke="black" points="173,-857.5 173,-980.5 280,-980.5 280,-857.5 173,-857.5"/>
<text text-anchor="middle" x="226.5" y="-968.5" font-family="Helvetica,sans-Serif" font-size="10.00">SDK::FName</text>
<polyline fill="none" stroke="black" points="173,-961.5 280,-961.5 "/>
<text text-anchor="start" x="181" y="-949.5" font-family="Helvetica,sans-Serif" font-size="10.00">+ Index</text>
<text text-anchor="start" x="181" y="-938.5" font-family="Helvetica,sans-Serif" font-size="10.00">+ Number</text>
<polyline fill="none" stroke="black" points="173,-931.5 280,-931.5 "/>
<text text-anchor="start" x="181" y="-919.5" font-family="Helvetica,sans-Serif" font-size="10.00">+ FName()</text>
<text text-anchor="start" x="181" y="-908.5" font-family="Helvetica,sans-Serif" font-size="10.00">+ FName()</text>
<text text-anchor="start" x="181" y="-897.5" font-family="Helvetica,sans-Serif" font-size="10.00">+ FName()</text>
<text text-anchor="start" x="181" y="-886.5" font-family="Helvetica,sans-Serif" font-size="10.00">+ GetName()</text>
<text text-anchor="start" x="181" y="-875.5" font-family="Helvetica,sans-Serif" font-size="10.00">+ operator==()</text>
<text text-anchor="start" x="181" y="-864.5" font-family="Helvetica,sans-Serif" font-size="10.00">+ GetGlobalNames()</text>
</a>
</g>
</g>
<!-- Node4&#45;&gt;Node2 -->
<g id="edge3" class="edge">
<title>Node4&#45;&gt;Node2</title>
<path fill="none" stroke="#404040" d="M254.19,-857.44C262.36,-839.57 271.64,-819.28 281.02,-798.76"/>
<polygon fill="none" stroke="#404040" points="281.1,-798.6 279.95,-791.48 286.09,-787.69 287.23,-794.81 281.1,-798.6"/>
<text text-anchor="middle" x="295.5" y="-820" font-family="Helvetica,sans-Serif" font-size="10.00"> +Name</text>
</g>
<!-- Node5 -->
<g id="node5" class="node">
<title>Node5</title>
<g id="a_node5"><a xlink:href="../../d3/d79/classSDK_1_1TArray.html" target="_top" xlink:title=" ">
<polygon fill="white" stroke="black" points="136.5,-1028.5 136.5,-1162.5 316.5,-1162.5 316.5,-1028.5 136.5,-1028.5"/>
<text text-anchor="middle" x="226.5" y="-1150.5" font-family="Helvetica,sans-Serif" font-size="10.00">SDK::TArray&lt; SDK::FNameEntry * &gt;</text>
<polyline fill="none" stroke="black" points="136.5,-1143.5 316.5,-1143.5 "/>
<text text-anchor="start" x="144.5" y="-1131.5" font-family="Helvetica,sans-Serif" font-size="10.00">&#45; Count</text>
<text text-anchor="start" x="144.5" y="-1120.5" font-family="Helvetica,sans-Serif" font-size="10.00">&#45; Max</text>
<polyline fill="none" stroke="black" points="136.5,-1113.5 316.5,-1113.5 "/>
<text text-anchor="start" x="144.5" y="-1101.5" font-family="Helvetica,sans-Serif" font-size="10.00">+ TArray()</text>
<text text-anchor="start" x="144.5" y="-1090.5" font-family="Helvetica,sans-Serif" font-size="10.00">+ Num()</text>
<text text-anchor="start" x="144.5" y="-1079.5" font-family="Helvetica,sans-Serif" font-size="10.00">+ operator[]()</text>
<text text-anchor="start" x="144.5" y="-1068.5" font-family="Helvetica,sans-Serif" font-size="10.00">+ operator[]()</text>
<text text-anchor="start" x="144.5" y="-1057.5" font-family="Helvetica,sans-Serif" font-size="10.00">+ IsValidIndex()</text>
<text text-anchor="start" x="144.5" y="-1046.5" font-family="Helvetica,sans-Serif" font-size="10.00">+ GetByIndex()</text>
<text text-anchor="start" x="144.5" y="-1035.5" font-family="Helvetica,sans-Serif" font-size="10.00">+ GetByIndex()</text>
</a>
</g>
</g>
<!-- Node5&#45;&gt;Node4 -->
<g id="edge4" class="edge">
<title>Node5&#45;&gt;Node4</title>
<path fill="none" stroke="#404040" d="M226.5,-1028.03C226.5,-1016.45 226.5,-1004.35 226.5,-992.62"/>
<polygon fill="none" stroke="#404040" points="226.5,-992.56 222.5,-986.56 226.5,-980.56 230.5,-986.56 226.5,-992.56"/>
<text text-anchor="middle" x="251" y="-1002" font-family="Helvetica,sans-Serif" font-size="10.00"> +GNames</text>
</g>
<!-- Node6 -->
<g id="node6" class="node">
<title>Node6</title>
<g id="a_node6"><a xlink:href="../../d7/ddf/classSDK_1_1FNameEntry.html" target="_top" xlink:title=" ">
<polygon fill="white" stroke="black" points="181,-1249 181,-1317 280,-1317 280,-1249 181,-1249"/>
<text text-anchor="middle" x="230.5" y="-1305" font-family="Helvetica,sans-Serif" font-size="10.00">SDK::FNameEntry</text>
<polyline fill="none" stroke="black" points="181,-1298 280,-1298 "/>
<text text-anchor="start" x="189" y="-1286" font-family="Helvetica,sans-Serif" font-size="10.00">+ UnknownData00</text>
<text text-anchor="start" x="189" y="-1275" font-family="Helvetica,sans-Serif" font-size="10.00">+ name</text>
<polyline fill="none" stroke="black" points="181,-1268 280,-1268 "/>
<text text-anchor="start" x="189" y="-1256" font-family="Helvetica,sans-Serif" font-size="10.00">+ GetName()</text>
</a>
</g>
</g>
<!-- Node6&#45;&gt;Node5 -->
<g id="edge5" class="edge">
<title>Node6&#45;&gt;Node5</title>
<path fill="none" stroke="#404040" d="M229.78,-1248.84C229.34,-1228.23 228.75,-1200.83 228.19,-1174.95"/>
<polygon fill="none" stroke="#404040" points="228.19,-1174.8 224.06,-1168.89 227.93,-1162.8 232.06,-1168.71 228.19,-1174.8"/>
<text text-anchor="middle" x="242.5" y="-1184" font-family="Helvetica,sans-Serif" font-size="10.00"> &#45;Data</text>
</g>
<!-- Node7 -->
<g id="node7" class="node">
<title>Node7</title>
<g id="a_node7"><a xlink:href="../../d3/d79/classSDK_1_1TArray.html" target="_top" xlink:title=" ">
<polygon fill="white" stroke="black" points="32,-1210.5 32,-1355.5 129,-1355.5 129,-1210.5 32,-1210.5"/>
<text text-anchor="middle" x="80.5" y="-1343.5" font-family="Helvetica,sans-Serif" font-size="10.00">SDK::TArray&lt; T &gt;</text>
<polyline fill="none" stroke="black" points="32,-1336.5 129,-1336.5 "/>
<text text-anchor="start" x="40" y="-1324.5" font-family="Helvetica,sans-Serif" font-size="10.00">&#45; Data</text>
<text text-anchor="start" x="40" y="-1313.5" font-family="Helvetica,sans-Serif" font-size="10.00">&#45; Count</text>
<text text-anchor="start" x="40" y="-1302.5" font-family="Helvetica,sans-Serif" font-size="10.00">&#45; Max</text>
<polyline fill="none" stroke="black" points="32,-1295.5 129,-1295.5 "/>
<text text-anchor="start" x="40" y="-1283.5" font-family="Helvetica,sans-Serif" font-size="10.00">+ TArray()</text>
<text text-anchor="start" x="40" y="-1272.5" font-family="Helvetica,sans-Serif" font-size="10.00">+ Num()</text>
<text text-anchor="start" x="40" y="-1261.5" font-family="Helvetica,sans-Serif" font-size="10.00">+ operator[]()</text>
<text text-anchor="start" x="40" y="-1250.5" font-family="Helvetica,sans-Serif" font-size="10.00">+ operator[]()</text>
<text text-anchor="start" x="40" y="-1239.5" font-family="Helvetica,sans-Serif" font-size="10.00">+ IsValidIndex()</text>
<text text-anchor="start" x="40" y="-1228.5" font-family="Helvetica,sans-Serif" font-size="10.00">+ GetByIndex()</text>
<text text-anchor="start" x="40" y="-1217.5" font-family="Helvetica,sans-Serif" font-size="10.00">+ GetByIndex()</text>
</a>
</g>
</g>
<!-- Node7&#45;&gt;Node5 -->
<g id="edge6" class="edge">
<title>Node7&#45;&gt;Node5</title>
<path fill="none" stroke="orange" d="M102.01,-1200.72C105.33,-1193.77 109.14,-1187.08 113.5,-1181 120.07,-1171.84 127.92,-1163.25 136.39,-1155.31"/>
<polygon fill="orange" stroke="orange" points="98.61,-1199.77 97.78,-1210.33 105.01,-1202.59 98.61,-1199.77"/>
<text text-anchor="middle" x="169" y="-1184" font-family="Helvetica,sans-Serif" font-size="10.00"> &lt; SDK::FNameEntry * &gt;</text>
</g>
<!-- Node7&#45;&gt;Node8 -->
<g id="edge10" class="edge">
<title>Node7&#45;&gt;Node8</title>
<path fill="none" stroke="orange" d="M69.75,-1200.08C66.37,-1167.85 63.5,-1130.5 63.5,-1096.5 63.5,-1096.5 63.5,-1096.5 63.5,-664.5 63.5,-607.33 68.57,-542.55 73.17,-495.5"/>
<polygon fill="orange" stroke="orange" points="66.3,-1200.78 70.86,-1210.35 73.26,-1200.03 66.3,-1200.78"/>
<text text-anchor="middle" x="109" y="-916.5" font-family="Helvetica,sans-Serif" font-size="10.00"> &lt; SDK::UObject * &gt;</text>
</g>
<!-- Node8&#45;&gt;Node2 -->
<g id="edge8" class="edge">
<title>Node8&#45;&gt;Node2</title>
<path fill="none" stroke="#404040" d="M153.87,-495.56C178.56,-517.79 206.64,-543.08 233.43,-567.19"/>
<polygon fill="none" stroke="#404040" points="233.54,-567.29 240.67,-568.33 242.45,-575.32 235.32,-574.28 233.54,-567.29"/>
<text text-anchor="middle" x="206" y="-517" font-family="Helvetica,sans-Serif" font-size="10.00"> +GObjects</text>
</g>
<!-- Node9 -->
<g id="node9" class="node">
<title>Node9</title>
<g id="a_node9"><a xlink:href="../../d9/dfa/structSDK_1_1FPointer.html" target="_top" xlink:title=" ">
<polygon fill="white" stroke="black" points="297.5,-885 297.5,-953 395.5,-953 395.5,-885 297.5,-885"/>
<text text-anchor="middle" x="346.5" y="-941" font-family="Helvetica,sans-Serif" font-size="10.00">SDK::FPointer</text>
<polyline fill="none" stroke="black" points="297.5,-934 395.5,-934 "/>
<text text-anchor="start" x="305.5" y="-922" font-family="Helvetica,sans-Serif" font-size="10.00">+ Dummy</text>
<text text-anchor="start" x="305.5" y="-911" font-family="Helvetica,sans-Serif" font-size="10.00">+ UnknownData00</text>
<polyline fill="none" stroke="black" points="297.5,-904 395.5,-904 "/>
<text text-anchor="middle" x="346.5" y="-892" font-family="Helvetica,sans-Serif" font-size="10.00"> </text>
</a>
</g>
</g>
<!-- Node9&#45;&gt;Node2 -->
<g id="edge11" class="edge">
<title>Node9&#45;&gt;Node2</title>
<path fill="none" stroke="#404040" d="M345.84,-884.86C345.4,-862.57 344.78,-831.56 344.15,-799.9"/>
<polygon fill="none" stroke="#404040" points="344.15,-799.75 340.03,-793.83 343.91,-787.75 348.03,-793.67 344.15,-799.75"/>
<text text-anchor="middle" x="380" y="-831" font-family="Helvetica,sans-Serif" font-size="10.00"> +StateFrame</text>
<text text-anchor="middle" x="380" y="-820" font-family="Helvetica,sans-Serif" font-size="10.00">+VfTableObject</text>
<text text-anchor="middle" x="380" y="-809" font-family="Helvetica,sans-Serif" font-size="10.00">+LinkerIndex</text>
</g>
<!-- Node10&#45;&gt;Node2 -->
<g id="edge12" class="edge">
<title>Node10&#45;&gt;Node2</title>
<path fill="none" stroke="#404040" d="M472.5,-90.72C472.5,-110.67 472.5,-134.52 472.5,-156 472.5,-429.5 472.5,-429.5 472.5,-429.5 472.5,-465.28 460.77,-500.68 444.34,-532.73"/>
<polygon fill="none" stroke="#404040" points="444.25,-532.89 444.95,-540.07 438.59,-543.47 437.9,-536.29 444.25,-532.89"/>
<text text-anchor="middle" x="490" y="-260.5" font-family="Helvetica,sans-Serif" font-size="10.00"> +Class</text>
</g>
<!-- Node11 -->
<g id="node11" class="node">
<title>Node11</title>
<g id="a_node11"><a xlink:href="../../df/d72/classSDK_1_1UState.html" target="_top" xlink:title=" ">
<polygon fill="white" stroke="black" points="512.5,-128.5 512.5,-185.5 610.5,-185.5 610.5,-128.5 512.5,-128.5"/>
<text text-anchor="middle" x="561.5" y="-173.5" font-family="Helvetica,sans-Serif" font-size="10.00">SDK::UState</text>
<polyline fill="none" stroke="black" points="512.5,-166.5 610.5,-166.5 "/>
<text text-anchor="start" x="520.5" y="-154.5" font-family="Helvetica,sans-Serif" font-size="10.00">+ UnknownData00</text>
<polyline fill="none" stroke="black" points="512.5,-147.5 610.5,-147.5 "/>
<text text-anchor="start" x="520.5" y="-135.5" font-family="Helvetica,sans-Serif" font-size="10.00">+ StaticClass()</text>
</a>
</g>
</g>
<!-- Node11&#45;&gt;Node10 -->
<g id="edge13" class="edge">
<title>Node11&#45;&gt;Node10</title>
<path fill="none" stroke="midnightblue" d="M532.51,-120.33C524.83,-110.89 516.45,-100.58 508.46,-90.74"/>
<polygon fill="none" stroke="midnightblue" points="530.02,-122.82 539.04,-128.37 535.45,-118.4 530.02,-122.82"/>
</g>
<!-- Node12 -->
<g id="node12" class="node">
<title>Node12</title>
<g id="a_node12"><a xlink:href="../../d8/de9/classSDK_1_1UStruct.html" target="_top" xlink:title=" ">
<polygon fill="white" stroke="black" points="525.5,-223.5 525.5,-302.5 623.5,-302.5 623.5,-223.5 525.5,-223.5"/>
<text text-anchor="middle" x="574.5" y="-290.5" font-family="Helvetica,sans-Serif" font-size="10.00">SDK::UStruct</text>
<polyline fill="none" stroke="black" points="525.5,-283.5 623.5,-283.5 "/>
<text text-anchor="start" x="533.5" y="-271.5" font-family="Helvetica,sans-Serif" font-size="10.00">+ UnknownData00</text>
<text text-anchor="start" x="533.5" y="-260.5" font-family="Helvetica,sans-Serif" font-size="10.00">+ PropertySize</text>
<text text-anchor="start" x="533.5" y="-249.5" font-family="Helvetica,sans-Serif" font-size="10.00">+ UnknownData01</text>
<polyline fill="none" stroke="black" points="525.5,-242.5 623.5,-242.5 "/>
<text text-anchor="start" x="533.5" y="-230.5" font-family="Helvetica,sans-Serif" font-size="10.00">+ StaticClass()</text>
</a>
</g>
</g>
<!-- Node12&#45;&gt;Node11 -->
<g id="edge14" class="edge">
<title>Node12&#45;&gt;Node11</title>
<path fill="none" stroke="midnightblue" d="M568.4,-213.16C567.22,-203.74 566.02,-194.17 564.96,-185.72"/>
<polygon fill="none" stroke="midnightblue" points="564.95,-213.79 569.66,-223.27 571.89,-212.92 564.95,-213.79"/>
</g>
<!-- Node13&#45;&gt;Node12 -->
<g id="edge15" class="edge">
<title>Node13&#45;&gt;Node12</title>
<path fill="none" stroke="midnightblue" d="M545.28,-389.47C547.24,-369.01 550.44,-343.44 555.5,-321 556.85,-315 558.59,-308.73 560.47,-302.65"/>
<polygon fill="none" stroke="midnightblue" points="541.77,-389.38 544.36,-399.66 548.75,-390.01 541.77,-389.38"/>
</g>
<!-- Node13&#45;&gt;Node12 -->
<g id="edge18" class="edge">
<title>Node13&#45;&gt;Node12</title>
<path fill="none" stroke="#404040" d="M547.93,-399.76C552.48,-376.51 559.1,-342.7 564.59,-314.64"/>
<polygon fill="none" stroke="#404040" points="564.64,-314.39 561.86,-307.74 566.94,-302.62 569.72,-309.27 564.64,-314.39"/>
<text text-anchor="middle" x="590.5" y="-335" font-family="Helvetica,sans-Serif" font-size="10.00"> +SuperField</text>
<text text-anchor="middle" x="590.5" y="-324" font-family="Helvetica,sans-Serif" font-size="10.00">+Children</text>
</g>
<!-- Node13&#45;&gt;Node13 -->
<g id="edge17" class="edge">
<title>Node13&#45;&gt;Node13</title>
<path fill="none" stroke="#404040" d="M584.21,-445.11C594.41,-443.88 602,-438.34 602,-428.5 602,-422.96 599.6,-418.79 595.68,-415.98"/>
<polygon fill="none" stroke="#404040" points="595.51,-415.92 588.51,-417.67 584.21,-411.89 591.2,-410.13 595.51,-415.92"/>
<text text-anchor="middle" x="617.5" y="-426" font-family="Helvetica,sans-Serif" font-size="10.00"> +Next</text>
</g>
</g>
</svg>
