<?xml version="1.0" encoding="UTF-8" standalone="no"?>
<!DOCTYPE svg PUBLIC "-//W3C//DTD SVG 1.1//EN"
 "http://www.w3.org/Graphics/SVG/1.1/DTD/svg11.dtd">
<!-- Generated by graphviz version 2.41.20171026.1811 (20171026.1811)
 -->
<!-- Title: SDK/LA_Core_structs.hpp Pages: 1 -->
<svg width="951pt" height="498pt"
 viewBox="0.00 0.00 950.50 498.00" xmlns="http://www.w3.org/2000/svg" xmlns:xlink="http://www.w3.org/1999/xlink">
<g id="graph0" class="graph" transform="scale(1 1) rotate(0) translate(4 494)">
<title>SDK/LA_Core_structs.hpp</title>
<polygon fill="white" stroke="transparent" points="-4,4 -4,-494 946.5,-494 946.5,4 -4,4"/>
<!-- Node1 -->
<g id="node1" class="node">
<title>Node1</title>
<g id="a_node1"><a xlink:title=" ">
<polygon fill="#bfbfbf" stroke="black" points="501.5,-470.5 501.5,-489.5 634.5,-489.5 634.5,-470.5 501.5,-470.5"/>
<text text-anchor="middle" x="568" y="-477.5" font-family="Helvetica,sans-Serif" font-size="10.00">SDK/LA_Core_structs.hpp</text>
</a>
</g>
</g>
<!-- Node2 -->
<g id="node2" class="node">
<title>Node2</title>
<g id="a_node2"><a xlink:href="../../d8/dd2/LA__Core__classes_8hpp.html" target="_top" xlink:title=" ">
<polygon fill="white" stroke="black" points="499.5,-414.5 499.5,-433.5 636.5,-433.5 636.5,-414.5 499.5,-414.5"/>
<text text-anchor="middle" x="568" y="-421.5" font-family="Helvetica,sans-Serif" font-size="10.00">SDK/LA_Core_classes.hpp</text>
</a>
</g>
</g>
<!-- Node1&#45;&gt;Node2 -->
<g id="edge1" class="edge">
<title>Node1&#45;&gt;Node2</title>
<path fill="none" stroke="midnightblue" d="M568,-459.8C568,-450.91 568,-440.78 568,-433.75"/>
<polygon fill="midnightblue" stroke="midnightblue" points="564.5,-460.08 568,-470.08 571.5,-460.08 564.5,-460.08"/>
</g>
<!-- Node3 -->
<g id="node3" class="node">
<title>Node3</title>
<g id="a_node3"><a xlink:href="../../d3/dab/LA__Engine__structs_8hpp.html" target="_top" xlink:title=" ">
<polygon fill="white" stroke="black" points="447,-358.5 447,-377.5 589,-377.5 589,-358.5 447,-358.5"/>
<text text-anchor="middle" x="518" y="-365.5" font-family="Helvetica,sans-Serif" font-size="10.00">SDK/LA_Engine_structs.hpp</text>
</a>
</g>
</g>
<!-- Node2&#45;&gt;Node3 -->
<g id="edge2" class="edge">
<title>Node2&#45;&gt;Node3</title>
<path fill="none" stroke="midnightblue" d="M552.92,-406.72C544.11,-397.2 533.33,-385.56 526.1,-377.75"/>
<polygon fill="midnightblue" stroke="midnightblue" points="550.38,-409.12 559.74,-414.08 555.52,-404.37 550.38,-409.12"/>
</g>
<!-- Node5 -->
<g id="node5" class="node">
<title>Node5</title>
<g id="a_node5"><a xlink:href="../../d1/dff/LA__AkAudio__structs_8hpp.html" target="_top" xlink:title=" ">
<polygon fill="white" stroke="black" points="163.5,-241 163.5,-260 312.5,-260 312.5,-241 163.5,-241"/>
<text text-anchor="middle" x="238" y="-248" font-family="Helvetica,sans-Serif" font-size="10.00">SDK/LA_AkAudio_structs.hpp</text>
</a>
</g>
</g>
<!-- Node2&#45;&gt;Node5 -->
<g id="edge27" class="edge">
<title>Node2&#45;&gt;Node5</title>
<path fill="none" stroke="midnightblue" d="M527.41,-411.6C501.28,-403.62 466.91,-391.92 438,-378 362.11,-341.47 279.51,-282.33 249.61,-260.21"/>
<polygon fill="midnightblue" stroke="midnightblue" points="526.41,-414.95 537,-414.47 528.42,-408.25 526.41,-414.95"/>
</g>
<!-- Node7 -->
<g id="node7" class="node">
<title>Node7</title>
<g id="a_node7"><a xlink:href="../../de/d8d/LA__EFGame__structs_8hpp.html" target="_top" xlink:title=" ">
<polygon fill="white" stroke="black" points="536.5,-112.5 536.5,-131.5 687.5,-131.5 687.5,-112.5 536.5,-112.5"/>
<text text-anchor="middle" x="612" y="-119.5" font-family="Helvetica,sans-Serif" font-size="10.00">SDK/LA_EFGame_structs.hpp</text>
</a>
</g>
</g>
<!-- Node2&#45;&gt;Node7 -->
<g id="edge29" class="edge">
<title>Node2&#45;&gt;Node7</title>
<path fill="none" stroke="midnightblue" d="M580.95,-406.44C595.76,-385.79 618,-348.82 618,-313 618,-313 618,-313 618,-249.5 618,-205.09 614.26,-152 612.69,-131.58"/>
<polygon fill="midnightblue" stroke="midnightblue" points="578.12,-404.37 574.95,-414.48 583.73,-408.55 578.12,-404.37"/>
</g>
<!-- Node9 -->
<g id="node9" class="node">
<title>Node9</title>
<g id="a_node9"><a xlink:href="../../d8/d98/SDK_8hpp.html" target="_top" xlink:title=" ">
<polygon fill="white" stroke="black" points="453,-0.5 453,-19.5 509,-19.5 509,-0.5 453,-0.5"/>
<text text-anchor="middle" x="481" y="-7.5" font-family="Helvetica,sans-Serif" font-size="10.00">SDK.hpp</text>
</a>
</g>
</g>
<!-- Node2&#45;&gt;Node9 -->
<g id="edge31" class="edge">
<title>Node2&#45;&gt;Node9</title>
<path fill="none" stroke="midnightblue" d="M489.48,-423.93C333.61,-423.64 0,-411.53 0,-313 0,-313 0,-313 0,-121 0,-27.52 349.6,-13.48 452.71,-11.37"/>
<polygon fill="midnightblue" stroke="midnightblue" points="489.49,-427.43 499.49,-423.93 489.49,-420.43 489.49,-427.43"/>
</g>
<!-- Node12 -->
<g id="node12" class="node">
<title>Node12</title>
<g id="a_node12"><a xlink:href="../../d7/d34/LA__GameFramework__structs_8hpp.html" target="_top" xlink:title=" ">
<polygon fill="white" stroke="black" points="646.5,-235.5 646.5,-265.5 779.5,-265.5 779.5,-235.5 646.5,-235.5"/>
<text text-anchor="start" x="654.5" y="-253.5" font-family="Helvetica,sans-Serif" font-size="10.00">SDK/LA_GameFramework</text>
<text text-anchor="middle" x="713" y="-242.5" font-family="Helvetica,sans-Serif" font-size="10.00">_structs.hpp</text>
</a>
</g>
</g>
<!-- Node2&#45;&gt;Node12 -->
<g id="edge28" class="edge">
<title>Node2&#45;&gt;Node12</title>
<path fill="none" stroke="midnightblue" d="M592.23,-409.13C604.99,-401.09 620.36,-390.16 632,-378 666.09,-342.4 693.99,-290.42 706.26,-265.64"/>
<polygon fill="midnightblue" stroke="midnightblue" points="590.21,-406.26 583.49,-414.46 593.85,-412.24 590.21,-406.26"/>
</g>
<!-- Node14 -->
<g id="node14" class="node">
<title>Node14</title>
<g id="a_node14"><a xlink:href="../../d7/d16/LA__GFxUI__structs_8hpp.html" target="_top" xlink:title=" ">
<polygon fill="white" stroke="black" points="797.5,-241 797.5,-260 938.5,-260 938.5,-241 797.5,-241"/>
<text text-anchor="middle" x="868" y="-248" font-family="Helvetica,sans-Serif" font-size="10.00">SDK/LA_GFxUI_structs.hpp</text>
</a>
</g>
</g>
<!-- Node2&#45;&gt;Node14 -->
<g id="edge30" class="edge">
<title>Node2&#45;&gt;Node14</title>
<path fill="none" stroke="midnightblue" d="M594.31,-409.68C611.43,-400.9 634.18,-389.03 654,-378 730.55,-335.39 820.26,-280.81 854.12,-260.04"/>
<polygon fill="midnightblue" stroke="midnightblue" points="592.26,-406.8 584.95,-414.46 595.44,-413.03 592.26,-406.8"/>
</g>
<!-- Node4 -->
<g id="node4" class="node">
<title>Node4</title>
<g id="a_node4"><a xlink:href="../../d8/db4/LA__Engine__classes_8hpp.html" target="_top" xlink:title=" ">
<polygon fill="white" stroke="black" points="444,-302.5 444,-321.5 590,-321.5 590,-302.5 444,-302.5"/>
<text text-anchor="middle" x="517" y="-309.5" font-family="Helvetica,sans-Serif" font-size="10.00">SDK/LA_Engine_classes.hpp</text>
</a>
</g>
</g>
<!-- Node3&#45;&gt;Node4 -->
<g id="edge3" class="edge">
<title>Node3&#45;&gt;Node4</title>
<path fill="none" stroke="midnightblue" d="M517.64,-347.8C517.48,-338.91 517.29,-328.78 517.16,-321.75"/>
<polygon fill="midnightblue" stroke="midnightblue" points="514.15,-348.15 517.83,-358.08 521.15,-348.02 514.15,-348.15"/>
</g>
<!-- Node4&#45;&gt;Node5 -->
<g id="edge4" class="edge">
<title>Node4&#45;&gt;Node5</title>
<path fill="none" stroke="midnightblue" d="M466.97,-300.33C412.86,-288.79 327.69,-270.63 277.9,-260.01"/>
<polygon fill="midnightblue" stroke="midnightblue" points="466.52,-303.81 477.03,-302.48 467.98,-296.97 466.52,-303.81"/>
</g>
<!-- Node4&#45;&gt;Node7 -->
<g id="edge22" class="edge">
<title>Node4&#45;&gt;Node7</title>
<path fill="none" stroke="midnightblue" d="M533.18,-295.07C540.84,-286.9 549.66,-276.48 556,-266 584.55,-218.77 603.54,-154.42 609.77,-131.52"/>
<polygon fill="midnightblue" stroke="midnightblue" points="530.51,-292.8 526.06,-302.41 535.53,-297.68 530.51,-292.8"/>
</g>
<!-- Node4&#45;&gt;Node9 -->
<g id="edge26" class="edge">
<title>Node4&#45;&gt;Node9</title>
<path fill="none" stroke="midnightblue" d="M520,-292.25C521.16,-284.19 522.36,-274.65 523,-266 525.19,-236.3 523.78,-228.78 524,-199 524.1,-185.22 525.84,-181.65 524,-168 516.2,-110.02 492.9,-43.15 484.27,-19.68"/>
<polygon fill="midnightblue" stroke="midnightblue" points="516.5,-291.99 518.45,-302.4 523.42,-293.05 516.5,-291.99"/>
</g>
<!-- Node10 -->
<g id="node10" class="node">
<title>Node10</title>
<g id="a_node10"><a xlink:href="../../d6/d1d/LA__WinDrv__structs_8hpp.html" target="_top" xlink:title=" ">
<polygon fill="white" stroke="black" points="368.5,-241 368.5,-260 513.5,-260 513.5,-241 368.5,-241"/>
<text text-anchor="middle" x="441" y="-248" font-family="Helvetica,sans-Serif" font-size="10.00">SDK/LA_WinDrv_structs.hpp</text>
</a>
</g>
</g>
<!-- Node4&#45;&gt;Node10 -->
<g id="edge10" class="edge">
<title>Node4&#45;&gt;Node10</title>
<path fill="none" stroke="midnightblue" d="M498.22,-296.29C483.64,-284.88 463.94,-269.46 451.87,-260.01"/>
<polygon fill="midnightblue" stroke="midnightblue" points="496.08,-299.07 506.11,-302.48 500.39,-293.55 496.08,-299.07"/>
</g>
<!-- Node4&#45;&gt;Node12 -->
<g id="edge14" class="edge">
<title>Node4&#45;&gt;Node12</title>
<path fill="none" stroke="midnightblue" d="M554.94,-299.48C586.89,-289.78 632.72,-275.87 666.81,-265.52"/>
<polygon fill="midnightblue" stroke="midnightblue" points="553.63,-296.22 545.08,-302.48 555.67,-302.92 553.63,-296.22"/>
</g>
<!-- Node4&#45;&gt;Node14 -->
<g id="edge18" class="edge">
<title>Node4&#45;&gt;Node14</title>
<path fill="none" stroke="midnightblue" d="M580.19,-300.87C635.35,-291.95 717.53,-278.47 789,-266 799.71,-264.13 811.23,-262.05 822.07,-260.07"/>
<polygon fill="midnightblue" stroke="midnightblue" points="579.52,-297.43 570.21,-302.48 580.64,-304.34 579.52,-297.43"/>
</g>
<!-- Node16 -->
<g id="node16" class="node">
<title>Node16</title>
<g id="a_node16"><a xlink:href="../../d4/de1/LA__XAudio2__structs_8hpp.html" target="_top" xlink:title=" ">
<polygon fill="white" stroke="black" points="198.5,-174 198.5,-193 347.5,-193 347.5,-174 198.5,-174"/>
<text text-anchor="middle" x="273" y="-181" font-family="Helvetica,sans-Serif" font-size="10.00">SDK/LA_XAudio2_structs.hpp</text>
</a>
</g>
</g>
<!-- Node4&#45;&gt;Node16 -->
<g id="edge23" class="edge">
<title>Node4&#45;&gt;Node16</title>
<path fill="none" stroke="midnightblue" d="M454.8,-300.28C424.82,-293.38 389.14,-282.53 360,-266 342,-255.79 299.02,-211.79 281.08,-193.03"/>
<polygon fill="midnightblue" stroke="midnightblue" points="454.21,-303.74 464.73,-302.48 455.72,-296.9 454.21,-303.74"/>
</g>
<!-- Node6 -->
<g id="node6" class="node">
<title>Node6</title>
<g id="a_node6"><a xlink:href="../../d8/d17/LA__AkAudio__classes_8hpp.html" target="_top" xlink:title=" ">
<polygon fill="white" stroke="black" points="28,-174 28,-193 180,-193 180,-174 28,-174"/>
<text text-anchor="middle" x="104" y="-181" font-family="Helvetica,sans-Serif" font-size="10.00">SDK/LA_AkAudio_classes.hpp</text>
</a>
</g>
</g>
<!-- Node5&#45;&gt;Node6 -->
<g id="edge5" class="edge">
<title>Node5&#45;&gt;Node6</title>
<path fill="none" stroke="midnightblue" d="M211.08,-236.44C184.54,-223.57 144.73,-204.26 121.87,-193.17"/>
<polygon fill="midnightblue" stroke="midnightblue" points="209.68,-239.65 220.21,-240.87 212.74,-233.35 209.68,-239.65"/>
</g>
<!-- Node6&#45;&gt;Node7 -->
<g id="edge6" class="edge">
<title>Node6&#45;&gt;Node7</title>
<path fill="none" stroke="midnightblue" d="M160.76,-172.31C170.18,-170.76 179.85,-169.27 189,-168 310.07,-151.25 451.39,-137.35 536.18,-129.62"/>
<polygon fill="midnightblue" stroke="midnightblue" points="159.97,-168.89 150.68,-173.99 161.12,-175.8 159.97,-168.89"/>
</g>
<!-- Node6&#45;&gt;Node9 -->
<g id="edge9" class="edge">
<title>Node6&#45;&gt;Node9</title>
<path fill="none" stroke="midnightblue" d="M125.26,-168.48C148.63,-153.41 187.56,-129.29 223,-112 305.35,-71.81 408.01,-35.51 455.15,-19.56"/>
<polygon fill="midnightblue" stroke="midnightblue" points="123.3,-165.58 116.82,-173.96 127.11,-171.45 123.3,-165.58"/>
</g>
<!-- Node8 -->
<g id="node8" class="node">
<title>Node8</title>
<g id="a_node8"><a xlink:href="../../d7/d36/LA__EFGame__classes_8hpp.html" target="_top" xlink:title=" ">
<polygon fill="white" stroke="black" points="534.5,-56.5 534.5,-75.5 689.5,-75.5 689.5,-56.5 534.5,-56.5"/>
<text text-anchor="middle" x="612" y="-63.5" font-family="Helvetica,sans-Serif" font-size="10.00">SDK/LA_EFGame_classes.hpp</text>
</a>
</g>
</g>
<!-- Node7&#45;&gt;Node8 -->
<g id="edge7" class="edge">
<title>Node7&#45;&gt;Node8</title>
<path fill="none" stroke="midnightblue" d="M612,-101.8C612,-92.91 612,-82.78 612,-75.75"/>
<polygon fill="midnightblue" stroke="midnightblue" points="608.5,-102.08 612,-112.08 615.5,-102.08 608.5,-102.08"/>
</g>
<!-- Node8&#45;&gt;Node9 -->
<g id="edge8" class="edge">
<title>Node8&#45;&gt;Node9</title>
<path fill="none" stroke="midnightblue" d="M581.68,-52.5C557.12,-42.38 523.18,-28.39 501.66,-19.52"/>
<polygon fill="midnightblue" stroke="midnightblue" points="580.66,-55.87 591.24,-56.44 583.33,-49.4 580.66,-55.87"/>
</g>
<!-- Node11 -->
<g id="node11" class="node">
<title>Node11</title>
<g id="a_node11"><a xlink:href="../../dc/dbe/LA__WinDrv__classes_8hpp.html" target="_top" xlink:title=" ">
<polygon fill="white" stroke="black" points="365.5,-174 365.5,-193 514.5,-193 514.5,-174 365.5,-174"/>
<text text-anchor="middle" x="440" y="-181" font-family="Helvetica,sans-Serif" font-size="10.00">SDK/LA_WinDrv_classes.hpp</text>
</a>
</g>
</g>
<!-- Node10&#45;&gt;Node11 -->
<g id="edge11" class="edge">
<title>Node10&#45;&gt;Node11</title>
<path fill="none" stroke="midnightblue" d="M440.71,-230.54C440.52,-218.17 440.28,-202.62 440.13,-193.13"/>
<polygon fill="midnightblue" stroke="midnightblue" points="437.21,-230.79 440.87,-240.73 444.21,-230.68 437.21,-230.79"/>
</g>
<!-- Node11&#45;&gt;Node7 -->
<g id="edge12" class="edge">
<title>Node11&#45;&gt;Node7</title>
<path fill="none" stroke="midnightblue" d="M474.45,-170.58C507.88,-159.02 557.79,-141.75 587.4,-131.51"/>
<polygon fill="midnightblue" stroke="midnightblue" points="472.95,-167.4 464.64,-173.98 475.24,-174.01 472.95,-167.4"/>
</g>
<!-- Node11&#45;&gt;Node9 -->
<g id="edge13" class="edge">
<title>Node11&#45;&gt;Node9</title>
<path fill="none" stroke="midnightblue" d="M444.46,-163.83C453.28,-126.93 472.65,-45.94 478.96,-19.52"/>
<polygon fill="midnightblue" stroke="midnightblue" points="441.01,-163.22 442.09,-173.76 447.82,-164.85 441.01,-163.22"/>
</g>
<!-- Node13 -->
<g id="node13" class="node">
<title>Node13</title>
<g id="a_node13"><a xlink:href="../../d0/d23/LA__GameFramework__classes_8hpp.html" target="_top" xlink:title=" ">
<polygon fill="white" stroke="black" points="646.5,-168.5 646.5,-198.5 779.5,-198.5 779.5,-168.5 646.5,-168.5"/>
<text text-anchor="start" x="654.5" y="-186.5" font-family="Helvetica,sans-Serif" font-size="10.00">SDK/LA_GameFramework</text>
<text text-anchor="middle" x="713" y="-175.5" font-family="Helvetica,sans-Serif" font-size="10.00">_classes.hpp</text>
</a>
</g>
</g>
<!-- Node12&#45;&gt;Node13 -->
<g id="edge15" class="edge">
<title>Node12&#45;&gt;Node13</title>
<path fill="none" stroke="midnightblue" d="M713,-225.11C713,-216.15 713,-206.32 713,-198.58"/>
<polygon fill="midnightblue" stroke="midnightblue" points="709.5,-225.4 713,-235.4 716.5,-225.4 709.5,-225.4"/>
</g>
<!-- Node13&#45;&gt;Node7 -->
<g id="edge16" class="edge">
<title>Node13&#45;&gt;Node7</title>
<path fill="none" stroke="midnightblue" d="M680.02,-163.07C662.01,-152.46 640.62,-139.86 626.7,-131.66"/>
<polygon fill="midnightblue" stroke="midnightblue" points="678.67,-166.34 689.06,-168.4 682.22,-160.31 678.67,-166.34"/>
</g>
<!-- Node13&#45;&gt;Node9 -->
<g id="edge17" class="edge">
<title>Node13&#45;&gt;Node9</title>
<path fill="none" stroke="midnightblue" d="M717.93,-158.35C722.18,-130.09 724.2,-83.67 699,-56 673.82,-28.36 562.16,-16.79 509.13,-12.79"/>
<polygon fill="midnightblue" stroke="midnightblue" points="714.48,-157.76 716.25,-168.21 721.38,-158.94 714.48,-157.76"/>
</g>
<!-- Node15 -->
<g id="node15" class="node">
<title>Node15</title>
<g id="a_node15"><a xlink:href="../../dc/d61/LA__GFxUI__classes_8hpp.html" target="_top" xlink:title=" ">
<polygon fill="white" stroke="black" points="797.5,-174 797.5,-193 942.5,-193 942.5,-174 797.5,-174"/>
<text text-anchor="middle" x="870" y="-181" font-family="Helvetica,sans-Serif" font-size="10.00">SDK/LA_GFxUI_classes.hpp</text>
</a>
</g>
</g>
<!-- Node14&#45;&gt;Node15 -->
<g id="edge19" class="edge">
<title>Node14&#45;&gt;Node15</title>
<path fill="none" stroke="midnightblue" d="M868.58,-230.54C868.96,-218.17 869.44,-202.62 869.73,-193.13"/>
<polygon fill="midnightblue" stroke="midnightblue" points="865.08,-230.63 868.27,-240.73 872.08,-230.85 865.08,-230.63"/>
</g>
<!-- Node15&#45;&gt;Node7 -->
<g id="edge20" class="edge">
<title>Node15&#45;&gt;Node7</title>
<path fill="none" stroke="midnightblue" d="M823.11,-171.69C773.05,-160.14 694.75,-142.08 648.9,-131.51"/>
<polygon fill="midnightblue" stroke="midnightblue" points="822.5,-175.14 833.03,-173.98 824.08,-168.32 822.5,-175.14"/>
</g>
<!-- Node15&#45;&gt;Node9 -->
<g id="edge21" class="edge">
<title>Node15&#45;&gt;Node9</title>
<path fill="none" stroke="midnightblue" d="M855.72,-166.12C830.75,-138.62 776.25,-83.48 718,-56 647.74,-22.85 554.86,-14.11 509.04,-11.82"/>
<polygon fill="midnightblue" stroke="midnightblue" points="853.22,-168.57 862.49,-173.7 858.44,-163.91 853.22,-168.57"/>
</g>
<!-- Node17 -->
<g id="node17" class="node">
<title>Node17</title>
<g id="a_node17"><a xlink:href="../../d9/d85/LA__XAudio2__classes_8hpp.html" target="_top" xlink:title=" ">
<polygon fill="white" stroke="black" points="232,-112.5 232,-131.5 384,-131.5 384,-112.5 232,-112.5"/>
<text text-anchor="middle" x="308" y="-119.5" font-family="Helvetica,sans-Serif" font-size="10.00">SDK/LA_XAudio2_classes.hpp</text>
</a>
</g>
</g>
<!-- Node16&#45;&gt;Node17 -->
<g id="edge24" class="edge">
<title>Node16&#45;&gt;Node17</title>
<path fill="none" stroke="midnightblue" d="M283.19,-165.17C289.7,-154.11 297.85,-140.25 302.99,-131.51"/>
<polygon fill="midnightblue" stroke="midnightblue" points="280.07,-163.58 278.01,-173.98 286.1,-167.13 280.07,-163.58"/>
</g>
<!-- Node17&#45;&gt;Node9 -->
<g id="edge25" class="edge">
<title>Node17&#45;&gt;Node9</title>
<path fill="none" stroke="midnightblue" d="M330.47,-106.71C366.92,-83.53 437.86,-38.43 467.49,-19.59"/>
<polygon fill="midnightblue" stroke="midnightblue" points="328.14,-104.05 321.58,-112.37 331.89,-109.96 328.14,-104.05"/>
</g>
</g>
</svg>
