<?xml version="1.0" encoding="UTF-8" standalone="no"?>
<!DOCTYPE svg PUBLIC "-//W3C//DTD SVG 1.1//EN"
 "http://www.w3.org/Graphics/SVG/1.1/DTD/svg11.dtd">
<!-- Generated by graphviz version 2.41.20171026.1811 (20171026.1811)
 -->
<!-- Title: SDK::UChildConnection Pages: 1 -->
<svg width="206pt" height="766pt"
 viewBox="0.00 0.00 206.00 766.00" xmlns="http://www.w3.org/2000/svg" xmlns:xlink="http://www.w3.org/1999/xlink">
<g id="graph0" class="graph" transform="scale(1 1) rotate(0) translate(4 762)">
<title>SDK::UChildConnection</title>
<polygon fill="white" stroke="transparent" points="-4,4 -4,-762 202,-762 202,4 -4,4"/>
<!-- Node1 -->
<g id="node1" class="node">
<title>Node1</title>
<g id="a_node1"><a xlink:title=" ">
<polygon fill="#bfbfbf" stroke="black" points="37.5,-0.5 37.5,-57.5 160.5,-57.5 160.5,-0.5 37.5,-0.5"/>
<text text-anchor="middle" x="99" y="-45.5" font-family="Helvetica,sans-Serif" font-size="10.00">SDK::UChildConnection</text>
<polyline fill="none" stroke="black" points="37.5,-38.5 160.5,-38.5 "/>
<text text-anchor="start" x="45.5" y="-26.5" font-family="Helvetica,sans-Serif" font-size="10.00">+ Parent</text>
<polyline fill="none" stroke="black" points="37.5,-19.5 160.5,-19.5 "/>
<text text-anchor="start" x="45.5" y="-7.5" font-family="Helvetica,sans-Serif" font-size="10.00">+ StaticClass()</text>
</a>
</g>
</g>
<!-- Node2 -->
<g id="node2" class="node">
<title>Node2</title>
<g id="a_node2"><a xlink:href="../../d2/d54/classSDK_1_1UNetConnection.html" target="_top" xlink:title=" ">
<polygon fill="white" stroke="black" points="41,-94.5 41,-173.5 157,-173.5 157,-94.5 41,-94.5"/>
<text text-anchor="middle" x="99" y="-161.5" font-family="Helvetica,sans-Serif" font-size="10.00">SDK::UNetConnection</text>
<polyline fill="none" stroke="black" points="41,-154.5 157,-154.5 "/>
<text text-anchor="start" x="49" y="-142.5" font-family="Helvetica,sans-Serif" font-size="10.00">+ UnknownData00</text>
<text text-anchor="start" x="49" y="-131.5" font-family="Helvetica,sans-Serif" font-size="10.00">+ Children</text>
<text text-anchor="start" x="49" y="-120.5" font-family="Helvetica,sans-Serif" font-size="10.00">+ UnknownData01</text>
<polyline fill="none" stroke="black" points="41,-113.5 157,-113.5 "/>
<text text-anchor="start" x="49" y="-101.5" font-family="Helvetica,sans-Serif" font-size="10.00">+ StaticClass()</text>
</a>
</g>
</g>
<!-- Node2&#45;&gt;Node1 -->
<g id="edge1" class="edge">
<title>Node2&#45;&gt;Node1</title>
<path fill="none" stroke="midnightblue" d="M99,-84.16C99,-75.04 99,-65.81 99,-57.61"/>
<polygon fill="none" stroke="midnightblue" points="95.5,-84.35 99,-94.35 102.5,-84.35 95.5,-84.35"/>
</g>
<!-- Node3 -->
<g id="node3" class="node">
<title>Node3</title>
<g id="a_node3"><a xlink:href="../../d9/d38/classSDK_1_1UPlayer.html" target="_top" xlink:title=" ">
<polygon fill="white" stroke="black" points="29.5,-210.5 29.5,-366.5 168.5,-366.5 168.5,-210.5 29.5,-210.5"/>
<text text-anchor="middle" x="99" y="-354.5" font-family="Helvetica,sans-Serif" font-size="10.00">SDK::UPlayer</text>
<polyline fill="none" stroke="black" points="29.5,-347.5 168.5,-347.5 "/>
<text text-anchor="start" x="37.5" y="-335.5" font-family="Helvetica,sans-Serif" font-size="10.00">+ VfTable_FExec</text>
<text text-anchor="start" x="37.5" y="-324.5" font-family="Helvetica,sans-Serif" font-size="10.00">+ Actor</text>
<text text-anchor="start" x="37.5" y="-313.5" font-family="Helvetica,sans-Serif" font-size="10.00">+ CurrentNetSpeed</text>
<text text-anchor="start" x="37.5" y="-302.5" font-family="Helvetica,sans-Serif" font-size="10.00">+ ConfiguredInternetSpeed</text>
<text text-anchor="start" x="37.5" y="-291.5" font-family="Helvetica,sans-Serif" font-size="10.00">+ ConfiguredLanSpeed</text>
<text text-anchor="start" x="37.5" y="-280.5" font-family="Helvetica,sans-Serif" font-size="10.00">+ PP_DesaturationMultiplier</text>
<text text-anchor="start" x="37.5" y="-269.5" font-family="Helvetica,sans-Serif" font-size="10.00">+ PP_HighlightsMultiplier</text>
<text text-anchor="start" x="37.5" y="-258.5" font-family="Helvetica,sans-Serif" font-size="10.00">+ PP_MidTonesMultiplier</text>
<text text-anchor="start" x="37.5" y="-247.5" font-family="Helvetica,sans-Serif" font-size="10.00">+ PP_ShadowsMultiplier</text>
<polyline fill="none" stroke="black" points="29.5,-240.5 168.5,-240.5 "/>
<text text-anchor="start" x="37.5" y="-228.5" font-family="Helvetica,sans-Serif" font-size="10.00">+ SwitchController()</text>
<text text-anchor="start" x="37.5" y="-217.5" font-family="Helvetica,sans-Serif" font-size="10.00">+ StaticClass()</text>
</a>
</g>
</g>
<!-- Node3&#45;&gt;Node2 -->
<g id="edge2" class="edge">
<title>Node3&#45;&gt;Node2</title>
<path fill="none" stroke="midnightblue" d="M99,-200.26C99,-191.02 99,-181.99 99,-173.75"/>
<polygon fill="none" stroke="midnightblue" points="95.5,-200.36 99,-210.36 102.5,-200.36 95.5,-200.36"/>
</g>
<!-- Node4 -->
<g id="node4" class="node">
<title>Node4</title>
<g id="a_node4"><a xlink:href="../../d9/d45/classSDK_1_1UObject.html" target="_top" xlink:title=" ">
<polygon fill="white" stroke="black" points="0,-403.5 0,-757.5 198,-757.5 198,-403.5 0,-403.5"/>
<text text-anchor="middle" x="99" y="-745.5" font-family="Helvetica,sans-Serif" font-size="10.00">SDK::UObject</text>
<polyline fill="none" stroke="black" points="0,-738.5 198,-738.5 "/>
<text text-anchor="start" x="8" y="-726.5" font-family="Helvetica,sans-Serif" font-size="10.00">+ VfTableObject</text>
<text text-anchor="start" x="8" y="-715.5" font-family="Helvetica,sans-Serif" font-size="10.00">+ ObjectFlags</text>
<text text-anchor="start" x="8" y="-704.5" font-family="Helvetica,sans-Serif" font-size="10.00">+ StateFrame</text>
<text text-anchor="start" x="8" y="-693.5" font-family="Helvetica,sans-Serif" font-size="10.00">+ Linker</text>
<text text-anchor="start" x="8" y="-682.5" font-family="Helvetica,sans-Serif" font-size="10.00">+ LinkerIndex</text>
<text text-anchor="start" x="8" y="-671.5" font-family="Helvetica,sans-Serif" font-size="10.00">+ ObjectInternalInteger</text>
<text text-anchor="start" x="8" y="-660.5" font-family="Helvetica,sans-Serif" font-size="10.00">+ NetIndex</text>
<text text-anchor="start" x="8" y="-649.5" font-family="Helvetica,sans-Serif" font-size="10.00">+ Outer</text>
<text text-anchor="start" x="8" y="-638.5" font-family="Helvetica,sans-Serif" font-size="10.00">+ Name</text>
<text text-anchor="start" x="8" y="-627.5" font-family="Helvetica,sans-Serif" font-size="10.00">+ Class</text>
<text text-anchor="start" x="8" y="-616.5" font-family="Helvetica,sans-Serif" font-size="10.00">+ ObjectArchetype</text>
<text text-anchor="start" x="8" y="-605.5" font-family="Helvetica,sans-Serif" font-size="10.00">+ GObjects</text>
<polyline fill="none" stroke="black" points="0,-598.5 198,-598.5 "/>
<text text-anchor="start" x="8" y="-586.5" font-family="Helvetica,sans-Serif" font-size="10.00">+ UObject::GetName()</text>
<text text-anchor="start" x="8" y="-575.5" font-family="Helvetica,sans-Serif" font-size="10.00">+ GetFullName()</text>
<text text-anchor="start" x="8" y="-564.5" font-family="Helvetica,sans-Serif" font-size="10.00">+ IsA()</text>
<text text-anchor="start" x="8" y="-553.5" font-family="Helvetica,sans-Serif" font-size="10.00">+ ProcessEvent()</text>
<text text-anchor="start" x="8" y="-542.5" font-family="Helvetica,sans-Serif" font-size="10.00">+ STATIC_ProfNodeEvent()</text>
<text text-anchor="start" x="8" y="-531.5" font-family="Helvetica,sans-Serif" font-size="10.00">+ STATIC_ProfNodeSetDepthThreshold()</text>
<text text-anchor="start" x="8" y="-520.5" font-family="Helvetica,sans-Serif" font-size="10.00">+ STATIC_ProfNodeSetTimeThreshold</text>
<text text-anchor="start" x="8" y="-509.5" font-family="Helvetica,sans-Serif" font-size="10.00">Seconds()</text>
<text text-anchor="start" x="8" y="-498.5" font-family="Helvetica,sans-Serif" font-size="10.00">+ STATIC_ProfNodeStop()</text>
<text text-anchor="start" x="8" y="-487.5" font-family="Helvetica,sans-Serif" font-size="10.00">+ STATIC_ProfNodeStart()</text>
<text text-anchor="start" x="8" y="-476.5" font-family="Helvetica,sans-Serif" font-size="10.00">+ STATIC_GetStringFromGuid()</text>
<text text-anchor="start" x="8" y="-465.5" font-family="Helvetica,sans-Serif" font-size="10.00">and 298 more...</text>
<text text-anchor="start" x="8" y="-454.5" font-family="Helvetica,sans-Serif" font-size="10.00">+ GetGlobalObjects()</text>
<text text-anchor="start" x="8" y="-443.5" font-family="Helvetica,sans-Serif" font-size="10.00">+ FindObject()</text>
<text text-anchor="start" x="8" y="-432.5" font-family="Helvetica,sans-Serif" font-size="10.00">+ FindClass()</text>
<text text-anchor="start" x="8" y="-421.5" font-family="Helvetica,sans-Serif" font-size="10.00">+ GetObjectCasted()</text>
<text text-anchor="start" x="8" y="-410.5" font-family="Helvetica,sans-Serif" font-size="10.00">+ StaticClass()</text>
</a>
</g>
</g>
<!-- Node4&#45;&gt;Node3 -->
<g id="edge3" class="edge">
<title>Node4&#45;&gt;Node3</title>
<path fill="none" stroke="midnightblue" d="M99,-393.25C99,-384.08 99,-375.15 99,-366.63"/>
<polygon fill="none" stroke="midnightblue" points="95.5,-393.28 99,-403.28 102.5,-393.28 95.5,-393.28"/>
</g>
</g>
</svg>
