<?xml version="1.0" encoding="UTF-8" standalone="no"?>
<!DOCTYPE svg PUBLIC "-//W3C//DTD SVG 1.1//EN"
 "http://www.w3.org/Graphics/SVG/1.1/DTD/svg11.dtd">
<!-- Generated by graphviz version 2.41.20171026.1811 (20171026.1811)
 -->
<!-- Title: SDK::FKColElemBase Pages: 1 -->
<!--zoomable 408 -->
<svg id="main" version="1.1" xmlns="http://www.w3.org/2000/svg" xmlns:xlink="http://www.w3.org/1999/xlink" xml:space="preserve" onload="init(evt)">
<style type="text/css"><![CDATA[
.edge:hover path { stroke: red; }
.edge:hover polygon { stroke: red; fill: red; }
]]></style>
<script type="text/javascript"><![CDATA[
var edges = document.getElementsByTagName('g');
if (edges && edges.length) {
  for (var i=0;i<edges.length;i++) {
    if (edges[i].id.substr(0,4)=='edge') {
      edges[i].setAttribute('class','edge');
    }
  }
}
]]></script>
        <defs>
                <circle id="rim" cx="0" cy="0" r="7"/>
                <circle id="rim2" cx="0" cy="0" r="3.5"/>
                <g id="zoomPlus">
                        <use xlink:href="#rim" fill="#404040">
                                <set attributeName="fill" to="#808080" begin="zoomplus.mouseover" end="zoomplus.mouseout"/>
                        </use>
                        <path d="M-4,0h8M0,-4v8" fill="none" stroke="white" stroke-width="1.5" pointer-events="none"/>
                </g>
                <g id="zoomMin">
                        <use xlink:href="#rim" fill="#404040">
                                <set attributeName="fill" to="#808080" begin="zoomminus.mouseover" end="zoomminus.mouseout"/>
                        </use>
                        <path d="M-4,0h8" fill="none" stroke="white" stroke-width="1.5" pointer-events="none"/>
                </g>
                <g id="dirArrow">
                        <path fill="none" stroke="white" stroke-width="1.5" d="M0,-3.0v7 M-2.5,-0.5L0,-3.0L2.5,-0.5"/>
                </g>
               <g id="resetDef">
                       <use xlink:href="#rim2" fill="#404040">
                               <set attributeName="fill" to="#808080" begin="reset.mouseover" end="reset.mouseout"/>
                       </use>
               </g>
        </defs>

<script type="text/javascript">
var viewWidth = 751;
var viewHeight = 408;
var sectionId = 'dynsection-1';
</script>
<script xlink:href="../../svgpan.js"/>
<svg id="graph" class="graph">
<g id="viewport">
<title>SDK::FKColElemBase</title>
<polygon fill="white" stroke="transparent" points="-4,4 -4,-404 746.5,-404 746.5,4 -4,4"/>
<!-- Node1 -->
<g id="node1" class="node">
<title>Node1</title>
<g id="a_node1"><a xlink:title=" ">
<polygon fill="#bfbfbf" stroke="black" points="304,-0.5 304,-57.5 420,-57.5 420,-0.5 304,-0.5"/>
<text text-anchor="middle" x="362" y="-45.5" font-family="Helvetica,sans-Serif" font-size="10.00">SDK::FKColElemBase</text>
<polyline fill="none" stroke="black" points="304,-38.5 420,-38.5 "/>
<text text-anchor="start" x="312" y="-26.5" font-family="Helvetica,sans-Serif" font-size="10.00">+ NpcPartTypeValue</text>
<polyline fill="none" stroke="black" points="304,-19.5 420,-19.5 "/>
<text text-anchor="middle" x="362" y="-7.5" font-family="Helvetica,sans-Serif" font-size="10.00"> </text>
</a>
</g>
</g>
<!-- Node2 -->
<g id="node2" class="node">
<title>Node2</title>
<g id="a_node2"><a xlink:href="../../df/d1c/classSDK_1_1TEnumAsByte.html" target="_top" xlink:title=" ">
<polygon fill="white" stroke="black" points="0,-105.5 0,-239.5 168,-239.5 168,-105.5 0,-105.5"/>
<text text-anchor="start" x="8" y="-227.5" font-family="Helvetica,sans-Serif" font-size="10.00">SDK::TEnumAsByte&lt; EFColMove</text>
<text text-anchor="middle" x="84" y="-216.5" font-family="Helvetica,sans-Serif" font-size="10.00">PickingOption &gt;</text>
<polyline fill="none" stroke="black" points="0,-209.5 168,-209.5 "/>
<text text-anchor="start" x="8" y="-197.5" font-family="Helvetica,sans-Serif" font-size="10.00">&#45; value</text>
<polyline fill="none" stroke="black" points="0,-190.5 168,-190.5 "/>
<text text-anchor="start" x="8" y="-178.5" font-family="Helvetica,sans-Serif" font-size="10.00">+ TEnumAsByte()</text>
<text text-anchor="start" x="8" y="-167.5" font-family="Helvetica,sans-Serif" font-size="10.00">+ TEnumAsByte()</text>
<text text-anchor="start" x="8" y="-156.5" font-family="Helvetica,sans-Serif" font-size="10.00">+ TEnumAsByte()</text>
<text text-anchor="start" x="8" y="-145.5" font-family="Helvetica,sans-Serif" font-size="10.00">+ TEnumAsByte()</text>
<text text-anchor="start" x="8" y="-134.5" font-family="Helvetica,sans-Serif" font-size="10.00">+ operator EFColMovePicking</text>
<text text-anchor="start" x="8" y="-123.5" font-family="Helvetica,sans-Serif" font-size="10.00">Option()</text>
<text text-anchor="start" x="8" y="-112.5" font-family="Helvetica,sans-Serif" font-size="10.00">+ GetValue()</text>
</a>
</g>
</g>
<!-- Node2&#45;&gt;Node1 -->
<g id="edge1" class="edge">
<title>Node2&#45;&gt;Node1</title>
<path fill="none" stroke="#404040" d="M168.12,-110.73C171.1,-108.77 174.07,-106.86 177,-105 199.35,-90.84 204.85,-86.81 229,-76 249.13,-66.99 271.61,-58.61 292.27,-51.54"/>
<polygon fill="none" stroke="#404040" points="292.49,-51.47 296.9,-45.77 303.86,-47.65 299.45,-53.35 292.49,-51.47"/>
<text text-anchor="middle" x="276" y="-79" font-family="Helvetica,sans-Serif" font-size="10.00"> +MovePickingOption</text>
</g>
<!-- Node3 -->
<g id="node3" class="node">
<title>Node3</title>
<g id="a_node3"><a xlink:href="../../df/d1c/classSDK_1_1TEnumAsByte.html" target="_top" xlink:title=" ">
<polygon fill="white" stroke="black" points="272.5,-287.5 272.5,-399.5 429.5,-399.5 429.5,-287.5 272.5,-287.5"/>
<text text-anchor="middle" x="351" y="-387.5" font-family="Helvetica,sans-Serif" font-size="10.00">SDK::TEnumAsByte&lt; TEnum &gt;</text>
<polyline fill="none" stroke="black" points="272.5,-380.5 429.5,-380.5 "/>
<text text-anchor="start" x="280.5" y="-368.5" font-family="Helvetica,sans-Serif" font-size="10.00">&#45; value</text>
<polyline fill="none" stroke="black" points="272.5,-361.5 429.5,-361.5 "/>
<text text-anchor="start" x="280.5" y="-349.5" font-family="Helvetica,sans-Serif" font-size="10.00">+ TEnumAsByte()</text>
<text text-anchor="start" x="280.5" y="-338.5" font-family="Helvetica,sans-Serif" font-size="10.00">+ TEnumAsByte()</text>
<text text-anchor="start" x="280.5" y="-327.5" font-family="Helvetica,sans-Serif" font-size="10.00">+ TEnumAsByte()</text>
<text text-anchor="start" x="280.5" y="-316.5" font-family="Helvetica,sans-Serif" font-size="10.00">+ TEnumAsByte()</text>
<text text-anchor="start" x="280.5" y="-305.5" font-family="Helvetica,sans-Serif" font-size="10.00">+ operator TEnum()</text>
<text text-anchor="start" x="280.5" y="-294.5" font-family="Helvetica,sans-Serif" font-size="10.00">+ GetValue()</text>
</a>
</g>
</g>
<!-- Node3&#45;&gt;Node2 -->
<g id="edge2" class="edge">
<title>Node3&#45;&gt;Node2</title>
<path fill="none" stroke="orange" d="M262.74,-318.35C229.57,-306.7 192.72,-290.5 163,-269 151.67,-260.8 141,-250.61 131.38,-239.97"/>
<polygon fill="orange" stroke="orange" points="261.85,-321.74 272.45,-321.67 264.12,-315.12 261.85,-321.74"/>
<text text-anchor="middle" x="230" y="-261" font-family="Helvetica,sans-Serif" font-size="10.00"> &lt; EFColMovePickingOption &gt;</text>
</g>
<!-- Node4 -->
<g id="node4" class="node">
<title>Node4</title>
<g id="a_node4"><a xlink:href="../../df/d1c/classSDK_1_1TEnumAsByte.html" target="_top" xlink:title=" ">
<polygon fill="white" stroke="black" points="186,-111 186,-234 354,-234 354,-111 186,-111"/>
<text text-anchor="start" x="194" y="-222" font-family="Helvetica,sans-Serif" font-size="10.00">SDK::TEnumAsByte&lt; EFColMove</text>
<text text-anchor="middle" x="270" y="-211" font-family="Helvetica,sans-Serif" font-size="10.00">ColOption &gt;</text>
<polyline fill="none" stroke="black" points="186,-204 354,-204 "/>
<text text-anchor="start" x="194" y="-192" font-family="Helvetica,sans-Serif" font-size="10.00">&#45; value</text>
<polyline fill="none" stroke="black" points="186,-185 354,-185 "/>
<text text-anchor="start" x="194" y="-173" font-family="Helvetica,sans-Serif" font-size="10.00">+ TEnumAsByte()</text>
<text text-anchor="start" x="194" y="-162" font-family="Helvetica,sans-Serif" font-size="10.00">+ TEnumAsByte()</text>
<text text-anchor="start" x="194" y="-151" font-family="Helvetica,sans-Serif" font-size="10.00">+ TEnumAsByte()</text>
<text text-anchor="start" x="194" y="-140" font-family="Helvetica,sans-Serif" font-size="10.00">+ TEnumAsByte()</text>
<text text-anchor="start" x="194" y="-129" font-family="Helvetica,sans-Serif" font-size="10.00">+ operator EFColMoveColOption()</text>
<text text-anchor="start" x="194" y="-118" font-family="Helvetica,sans-Serif" font-size="10.00">+ GetValue()</text>
</a>
</g>
</g>
<!-- Node3&#45;&gt;Node4 -->
<g id="edge4" class="edge">
<title>Node3&#45;&gt;Node4</title>
<path fill="none" stroke="orange" d="M309.88,-278.48C308.17,-275.31 306.54,-272.14 305,-269 299.6,-257.98 294.56,-245.9 290.07,-234.16"/>
<polygon fill="orange" stroke="orange" points="306.92,-280.37 314.83,-287.41 313.04,-276.97 306.92,-280.37"/>
<text text-anchor="middle" x="363.5" y="-261" font-family="Helvetica,sans-Serif" font-size="10.00"> &lt; EFColMoveColOption &gt;</text>
</g>
<!-- Node5 -->
<g id="node5" class="node">
<title>Node5</title>
<g id="a_node5"><a xlink:href="../../df/d1c/classSDK_1_1TEnumAsByte.html" target="_top" xlink:title=" ">
<polygon fill="white" stroke="black" points="372,-111 372,-234 540,-234 540,-111 372,-111"/>
<text text-anchor="start" x="380" y="-222" font-family="Helvetica,sans-Serif" font-size="10.00">SDK::TEnumAsByte&lt; EFColNav</text>
<text text-anchor="middle" x="456" y="-211" font-family="Helvetica,sans-Serif" font-size="10.00">MeshOption &gt;</text>
<polyline fill="none" stroke="black" points="372,-204 540,-204 "/>
<text text-anchor="start" x="380" y="-192" font-family="Helvetica,sans-Serif" font-size="10.00">&#45; value</text>
<polyline fill="none" stroke="black" points="372,-185 540,-185 "/>
<text text-anchor="start" x="380" y="-173" font-family="Helvetica,sans-Serif" font-size="10.00">+ TEnumAsByte()</text>
<text text-anchor="start" x="380" y="-162" font-family="Helvetica,sans-Serif" font-size="10.00">+ TEnumAsByte()</text>
<text text-anchor="start" x="380" y="-151" font-family="Helvetica,sans-Serif" font-size="10.00">+ TEnumAsByte()</text>
<text text-anchor="start" x="380" y="-140" font-family="Helvetica,sans-Serif" font-size="10.00">+ TEnumAsByte()</text>
<text text-anchor="start" x="380" y="-129" font-family="Helvetica,sans-Serif" font-size="10.00">+ operator EFColNavMeshOption()</text>
<text text-anchor="start" x="380" y="-118" font-family="Helvetica,sans-Serif" font-size="10.00">+ GetValue()</text>
</a>
</g>
</g>
<!-- Node3&#45;&gt;Node5 -->
<g id="edge6" class="edge">
<title>Node3&#45;&gt;Node5</title>
<path fill="none" stroke="orange" d="M415.23,-279.04C417.63,-275.73 419.9,-272.38 422,-269 428.63,-258.31 434.21,-246.14 438.81,-234.15"/>
<polygon fill="orange" stroke="orange" points="412.32,-277.07 409.01,-287.13 417.87,-281.33 412.32,-277.07"/>
<text text-anchor="middle" x="488" y="-261" font-family="Helvetica,sans-Serif" font-size="10.00"> &lt; EFColNavMeshOption &gt;</text>
</g>
<!-- Node6 -->
<g id="node6" class="node">
<title>Node6</title>
<g id="a_node6"><a xlink:href="../../df/d1c/classSDK_1_1TEnumAsByte.html" target="_top" xlink:title=" ">
<polygon fill="white" stroke="black" points="557.5,-105.5 557.5,-239.5 742.5,-239.5 742.5,-105.5 557.5,-105.5"/>
<text text-anchor="start" x="565.5" y="-227.5" font-family="Helvetica,sans-Serif" font-size="10.00">SDK::TEnumAsByte&lt; EFColProjectile</text>
<text text-anchor="middle" x="650" y="-216.5" font-family="Helvetica,sans-Serif" font-size="10.00">Option &gt;</text>
<polyline fill="none" stroke="black" points="557.5,-209.5 742.5,-209.5 "/>
<text text-anchor="start" x="565.5" y="-197.5" font-family="Helvetica,sans-Serif" font-size="10.00">&#45; value</text>
<polyline fill="none" stroke="black" points="557.5,-190.5 742.5,-190.5 "/>
<text text-anchor="start" x="565.5" y="-178.5" font-family="Helvetica,sans-Serif" font-size="10.00">+ TEnumAsByte()</text>
<text text-anchor="start" x="565.5" y="-167.5" font-family="Helvetica,sans-Serif" font-size="10.00">+ TEnumAsByte()</text>
<text text-anchor="start" x="565.5" y="-156.5" font-family="Helvetica,sans-Serif" font-size="10.00">+ TEnumAsByte()</text>
<text text-anchor="start" x="565.5" y="-145.5" font-family="Helvetica,sans-Serif" font-size="10.00">+ TEnumAsByte()</text>
<text text-anchor="start" x="565.5" y="-134.5" font-family="Helvetica,sans-Serif" font-size="10.00">+ operator EFColProjectile</text>
<text text-anchor="start" x="565.5" y="-123.5" font-family="Helvetica,sans-Serif" font-size="10.00">Option()</text>
<text text-anchor="start" x="565.5" y="-112.5" font-family="Helvetica,sans-Serif" font-size="10.00">+ GetValue()</text>
</a>
</g>
</g>
<!-- Node3&#45;&gt;Node6 -->
<g id="edge8" class="edge">
<title>Node3&#45;&gt;Node6</title>
<path fill="none" stroke="orange" d="M439.56,-319.04C476.01,-307.16 517.64,-290.61 552,-269 565.17,-260.71 578.02,-250.42 589.84,-239.68"/>
<polygon fill="orange" stroke="orange" points="438.39,-315.74 429.93,-322.11 440.52,-322.41 438.39,-315.74"/>
<text text-anchor="middle" x="627" y="-261" font-family="Helvetica,sans-Serif" font-size="10.00"> &lt; EFColProjectileOption &gt;</text>
</g>
<!-- Node4&#45;&gt;Node1 -->
<g id="edge3" class="edge">
<title>Node4&#45;&gt;Node1</title>
<path fill="none" stroke="#404040" d="M309.55,-110.67C319,-96.13 328.83,-81.02 337.38,-67.86"/>
<polygon fill="none" stroke="#404040" points="337.4,-67.84 337.32,-60.63 343.94,-57.78 344.02,-64.99 337.4,-67.84"/>
<text text-anchor="middle" x="368.5" y="-79" font-family="Helvetica,sans-Serif" font-size="10.00"> +MoveColOption</text>
</g>
<!-- Node5&#45;&gt;Node1 -->
<g id="edge5" class="edge">
<title>Node5&#45;&gt;Node1</title>
<path fill="none" stroke="#404040" d="M431.7,-110.96C425.71,-98.9 418.76,-86.67 411,-76 408.67,-72.79 406.09,-69.62 403.37,-66.54"/>
<polygon fill="none" stroke="#404040" points="403.16,-66.32 396.13,-64.71 394.92,-57.6 401.95,-59.21 403.16,-66.32"/>
<text text-anchor="middle" x="458" y="-79" font-family="Helvetica,sans-Serif" font-size="10.00"> +NavMeshOption</text>
</g>
<!-- Node6&#45;&gt;Node1 -->
<g id="edge7" class="edge">
<title>Node6&#45;&gt;Node1</title>
<path fill="none" stroke="#404040" d="M557.33,-110.33C554.53,-108.53 551.74,-106.75 549,-105 528.3,-91.81 524.26,-86.35 502,-76 479.77,-65.67 454.58,-56.63 431.75,-49.36"/>
<polygon fill="none" stroke="#404040" points="431.51,-49.28 424.59,-51.32 420.05,-45.72 426.97,-43.68 431.51,-49.28"/>
<text text-anchor="middle" x="562.5" y="-79" font-family="Helvetica,sans-Serif" font-size="10.00"> +ProjectileOption</text>
</g>
</g>
</svg>
        <g id="navigator" transform="translate(0 0)" fill="#404254">
                <rect fill="#f2f5e9" fill-opacity="0.5" stroke="#606060" stroke-width=".5" x="0" y="0" width="60" height="60"/>
                <use id="zoomplus" xlink:href="#zoomPlus" x="17" y="9" onmousedown="handleZoom(evt,'in')"/>
                <use id="zoomminus" xlink:href="#zoomMin" x="42" y="9" onmousedown="handleZoom(evt,'out')"/>
                <use id="reset" xlink:href="#resetDef" x="30" y="36" onmousedown="handleReset()"/>
                <g id="arrowUp" xlink:href="#dirArrow" transform="translate(30 24)" onmousedown="handlePan(0,-1)">
                  <use xlink:href="#rim" fill="#404040">
                        <set attributeName="fill" to="#808080" begin="arrowUp.mouseover" end="arrowUp.mouseout"/>
                  </use>
                  <path fill="none" stroke="white" stroke-width="1.5" d="M0,-3.0v7 M-2.5,-0.5L0,-3.0L2.5,-0.5"/>
                </g>
                <g id="arrowRight" xlink:href="#dirArrow" transform="rotate(90) translate(36 -43)" onmousedown="handlePan(1,0)">
                  <use xlink:href="#rim" fill="#404040">
                        <set attributeName="fill" to="#808080" begin="arrowRight.mouseover" end="arrowRight.mouseout"/>
                  </use>
                  <path fill="none" stroke="white" stroke-width="1.5" d="M0,-3.0v7 M-2.5,-0.5L0,-3.0L2.5,-0.5"/>
                </g>
                <g id="arrowDown" xlink:href="#dirArrow" transform="rotate(180) translate(-30 -48)" onmousedown="handlePan(0,1)">
                  <use xlink:href="#rim" fill="#404040">
                        <set attributeName="fill" to="#808080" begin="arrowDown.mouseover" end="arrowDown.mouseout"/>
                  </use>
                  <path fill="none" stroke="white" stroke-width="1.5" d="M0,-3.0v7 M-2.5,-0.5L0,-3.0L2.5,-0.5"/>
                </g>
                <g id="arrowLeft" xlink:href="#dirArrow" transform="rotate(270) translate(-36 17)" onmousedown="handlePan(-1,0)">
                  <use xlink:href="#rim" fill="#404040">
                        <set attributeName="fill" to="#808080" begin="arrowLeft.mouseover" end="arrowLeft.mouseout"/>
                  </use>
                  <path fill="none" stroke="white" stroke-width="1.5" d="M0,-3.0v7 M-2.5,-0.5L0,-3.0L2.5,-0.5"/>
                </g>
        </g>
        <svg viewBox="0 0 15 15" width="100%" height="30px" preserveAspectRatio="xMaxYMin meet">
         <g id="arrow_out" transform="scale(0.3 0.3)">
          <a xlink:href="structSDK_1_1FKColElemBase__coll__graph_org.svg" target="_base">
           <rect id="button" ry="5" rx="5" y="6" x="6" height="38" width="38"
                fill="#f2f5e9" fill-opacity="0.5" stroke="#606060" stroke-width="1.0"/>
           <path id="arrow"
             d="M 11.500037,31.436501 C 11.940474,20.09759 22.043105,11.32322 32.158766,21.979434 L 37.068811,17.246167 C 37.068811,17.246167 37.088388,32 37.088388,32 L 22.160133,31.978069 C 22.160133,31.978069 26.997745,27.140456 26.997745,27.140456 C 18.528582,18.264221 13.291696,25.230495 11.500037,31.436501 z"
             style="fill:#404040;"/>
          </a>
         </g>
        </svg>
</svg>
