<?xml version="1.0" encoding="UTF-8" standalone="no"?>
<!DOCTYPE svg PUBLIC "-//W3C//DTD SVG 1.1//EN"
 "http://www.w3.org/Graphics/SVG/1.1/DTD/svg11.dtd">
<!-- Generated by graphviz version 2.41.20171026.1811 (20171026.1811)
 -->
<!-- Title: SDK::ULevelStreaming Pages: 1 -->
<svg width="891pt" height="777pt"
 viewBox="0.00 0.00 891.00 777.00" xmlns="http://www.w3.org/2000/svg" xmlns:xlink="http://www.w3.org/1999/xlink">
<g id="graph0" class="graph" transform="scale(1 1) rotate(0) translate(4 773)">
<title>SDK::ULevelStreaming</title>
<polygon fill="white" stroke="transparent" points="-4,4 -4,-773 887,-773 887,4 -4,4"/>
<!-- Node1 -->
<g id="node1" class="node">
<title>Node1</title>
<g id="a_node1"><a xlink:title=" ">
<polygon fill="#bfbfbf" stroke="black" points="380.5,-210.5 380.5,-377.5 532.5,-377.5 532.5,-210.5 380.5,-210.5"/>
<text text-anchor="middle" x="456.5" y="-365.5" font-family="Helvetica,sans-Serif" font-size="10.00">SDK::ULevelStreaming</text>
<polyline fill="none" stroke="black" points="380.5,-358.5 532.5,-358.5 "/>
<text text-anchor="start" x="388.5" y="-346.5" font-family="Helvetica,sans-Serif" font-size="10.00">+ PackageName</text>
<text text-anchor="start" x="388.5" y="-335.5" font-family="Helvetica,sans-Serif" font-size="10.00">+ LoadedLevel</text>
<text text-anchor="start" x="388.5" y="-324.5" font-family="Helvetica,sans-Serif" font-size="10.00">+ Offset</text>
<text text-anchor="start" x="388.5" y="-313.5" font-family="Helvetica,sans-Serif" font-size="10.00">+ UnknownData00</text>
<text text-anchor="start" x="388.5" y="-302.5" font-family="Helvetica,sans-Serif" font-size="10.00">+ LevelTransform</text>
<text text-anchor="start" x="388.5" y="-291.5" font-family="Helvetica,sans-Serif" font-size="10.00">+ OldOffset</text>
<text text-anchor="start" x="388.5" y="-280.5" font-family="Helvetica,sans-Serif" font-size="10.00">+ bIsVisible</text>
<text text-anchor="start" x="388.5" y="-269.5" font-family="Helvetica,sans-Serif" font-size="10.00">+ bHasLoadRequestPending</text>
<text text-anchor="start" x="388.5" y="-258.5" font-family="Helvetica,sans-Serif" font-size="10.00">+ bHasUnloadRequestPending</text>
<text text-anchor="start" x="388.5" y="-247.5" font-family="Helvetica,sans-Serif" font-size="10.00">+ bShouldBeVisibleInEditor</text>
<text text-anchor="start" x="388.5" y="-236.5" font-family="Helvetica,sans-Serif" font-size="10.00">and 16 more...</text>
<polyline fill="none" stroke="black" points="380.5,-229.5 532.5,-229.5 "/>
<text text-anchor="start" x="388.5" y="-217.5" font-family="Helvetica,sans-Serif" font-size="10.00">+ StaticClass()</text>
</a>
</g>
</g>
<!-- Node3 -->
<g id="node3" class="node">
<title>Node3</title>
<g id="a_node3"><a xlink:href="../../dc/d28/classSDK_1_1UEFLevelStreamingEditorOnly.html" target="_top" xlink:title=" ">
<polygon fill="white" stroke="black" points="0,-111 0,-168 177,-168 177,-111 0,-111"/>
<text text-anchor="middle" x="88.5" y="-156" font-family="Helvetica,sans-Serif" font-size="10.00">SDK::UEFLevelStreamingEditorOnly</text>
<polyline fill="none" stroke="black" points="0,-149 177,-149 "/>
<text text-anchor="middle" x="88.5" y="-137" font-family="Helvetica,sans-Serif" font-size="10.00"> </text>
<polyline fill="none" stroke="black" points="0,-130 177,-130 "/>
<text text-anchor="start" x="8" y="-118" font-family="Helvetica,sans-Serif" font-size="10.00">+ StaticClass()</text>
</a>
</g>
</g>
<!-- Node1&#45;&gt;Node3 -->
<g id="edge2" class="edge">
<title>Node1&#45;&gt;Node3</title>
<path fill="none" stroke="midnightblue" d="M370.73,-257.45C304.96,-230.2 215.51,-193.13 155.08,-168.09"/>
<polygon fill="none" stroke="midnightblue" points="369.67,-260.81 380.25,-261.4 372.35,-254.34 369.67,-260.81"/>
</g>
<!-- Node4 -->
<g id="node4" class="node">
<title>Node4</title>
<g id="a_node4"><a xlink:href="../../d7/d59/classSDK_1_1ULevelStreamingAlwaysLoaded.html" target="_top" xlink:title=" ">
<polygon fill="white" stroke="black" points="195.5,-105.5 195.5,-173.5 359.5,-173.5 359.5,-105.5 195.5,-105.5"/>
<text text-anchor="start" x="203.5" y="-161.5" font-family="Helvetica,sans-Serif" font-size="10.00">SDK::ULevelStreamingAlways</text>
<text text-anchor="middle" x="277.5" y="-150.5" font-family="Helvetica,sans-Serif" font-size="10.00">Loaded</text>
<polyline fill="none" stroke="black" points="195.5,-143.5 359.5,-143.5 "/>
<text text-anchor="start" x="203.5" y="-131.5" font-family="Helvetica,sans-Serif" font-size="10.00">+ bIsProceduralBuildingLODLevel</text>
<polyline fill="none" stroke="black" points="195.5,-124.5 359.5,-124.5 "/>
<text text-anchor="start" x="203.5" y="-112.5" font-family="Helvetica,sans-Serif" font-size="10.00">+ StaticClass()</text>
</a>
</g>
</g>
<!-- Node1&#45;&gt;Node4 -->
<g id="edge3" class="edge">
<title>Node1&#45;&gt;Node4</title>
<path fill="none" stroke="midnightblue" d="M372.53,-221.46C352.88,-204.72 332.87,-187.67 316.32,-173.57"/>
<polygon fill="none" stroke="midnightblue" points="370.45,-224.28 380.33,-228.11 374.99,-218.96 370.45,-224.28"/>
</g>
<!-- Node6 -->
<g id="node6" class="node">
<title>Node6</title>
<g id="a_node6"><a xlink:href="../../d6/da4/classSDK_1_1ULevelStreamingDistance.html" target="_top" xlink:title=" ">
<polygon fill="white" stroke="black" points="377.5,-105.5 377.5,-173.5 535.5,-173.5 535.5,-105.5 377.5,-105.5"/>
<text text-anchor="middle" x="456.5" y="-161.5" font-family="Helvetica,sans-Serif" font-size="10.00">SDK::ULevelStreamingDistance</text>
<polyline fill="none" stroke="black" points="377.5,-154.5 535.5,-154.5 "/>
<text text-anchor="start" x="385.5" y="-142.5" font-family="Helvetica,sans-Serif" font-size="10.00">+ Origin</text>
<text text-anchor="start" x="385.5" y="-131.5" font-family="Helvetica,sans-Serif" font-size="10.00">+ MaxDistance</text>
<polyline fill="none" stroke="black" points="377.5,-124.5 535.5,-124.5 "/>
<text text-anchor="start" x="385.5" y="-112.5" font-family="Helvetica,sans-Serif" font-size="10.00">+ StaticClass()</text>
</a>
</g>
</g>
<!-- Node1&#45;&gt;Node6 -->
<g id="edge5" class="edge">
<title>Node1&#45;&gt;Node6</title>
<path fill="none" stroke="midnightblue" d="M456.5,-199.89C456.5,-190.63 456.5,-181.72 456.5,-173.74"/>
<polygon fill="none" stroke="midnightblue" points="453,-200.06 456.5,-210.06 460,-200.06 453,-200.06"/>
</g>
<!-- Node7 -->
<g id="node7" class="node">
<title>Node7</title>
<g id="a_node7"><a xlink:href="../../d2/de2/classSDK_1_1ULevelStreamingKismet.html" target="_top" xlink:title=" ">
<polygon fill="white" stroke="black" points="553,-111 553,-168 702,-168 702,-111 553,-111"/>
<text text-anchor="middle" x="627.5" y="-156" font-family="Helvetica,sans-Serif" font-size="10.00">SDK::ULevelStreamingKismet</text>
<polyline fill="none" stroke="black" points="553,-149 702,-149 "/>
<text text-anchor="middle" x="627.5" y="-137" font-family="Helvetica,sans-Serif" font-size="10.00"> </text>
<polyline fill="none" stroke="black" points="553,-130 702,-130 "/>
<text text-anchor="start" x="561" y="-118" font-family="Helvetica,sans-Serif" font-size="10.00">+ StaticClass()</text>
</a>
</g>
</g>
<!-- Node1&#45;&gt;Node7 -->
<g id="edge6" class="edge">
<title>Node1&#45;&gt;Node7</title>
<path fill="none" stroke="midnightblue" d="M540.64,-217.97C560.6,-200.16 580.67,-182.26 596.48,-168.17"/>
<polygon fill="none" stroke="midnightblue" points="538.13,-215.51 533,-224.78 542.79,-220.74 538.13,-215.51"/>
</g>
<!-- Node8 -->
<g id="node8" class="node">
<title>Node8</title>
<g id="a_node8"><a xlink:href="../../d0/d71/classSDK_1_1ULevelStreamingPersistent.html" target="_top" xlink:title=" ">
<polygon fill="white" stroke="black" points="720,-111 720,-168 883,-168 883,-111 720,-111"/>
<text text-anchor="middle" x="801.5" y="-156" font-family="Helvetica,sans-Serif" font-size="10.00">SDK::ULevelStreamingPersistent</text>
<polyline fill="none" stroke="black" points="720,-149 883,-149 "/>
<text text-anchor="middle" x="801.5" y="-137" font-family="Helvetica,sans-Serif" font-size="10.00"> </text>
<polyline fill="none" stroke="black" points="720,-130 883,-130 "/>
<text text-anchor="start" x="728" y="-118" font-family="Helvetica,sans-Serif" font-size="10.00">+ StaticClass()</text>
</a>
</g>
</g>
<!-- Node1&#45;&gt;Node8 -->
<g id="edge7" class="edge">
<title>Node1&#45;&gt;Node8</title>
<path fill="none" stroke="midnightblue" d="M541.89,-255.25C603.03,-228.23 683.95,-192.46 739.1,-168.08"/>
<polygon fill="none" stroke="midnightblue" points="540.37,-252.1 532.64,-259.34 543.2,-258.5 540.37,-252.1"/>
</g>
<!-- Node2 -->
<g id="node2" class="node">
<title>Node2</title>
<g id="a_node2"><a xlink:href="../../d9/d45/classSDK_1_1UObject.html" target="_top" xlink:title=" ">
<polygon fill="white" stroke="black" points="357.5,-414.5 357.5,-768.5 555.5,-768.5 555.5,-414.5 357.5,-414.5"/>
<text text-anchor="middle" x="456.5" y="-756.5" font-family="Helvetica,sans-Serif" font-size="10.00">SDK::UObject</text>
<polyline fill="none" stroke="black" points="357.5,-749.5 555.5,-749.5 "/>
<text text-anchor="start" x="365.5" y="-737.5" font-family="Helvetica,sans-Serif" font-size="10.00">+ VfTableObject</text>
<text text-anchor="start" x="365.5" y="-726.5" font-family="Helvetica,sans-Serif" font-size="10.00">+ ObjectFlags</text>
<text text-anchor="start" x="365.5" y="-715.5" font-family="Helvetica,sans-Serif" font-size="10.00">+ StateFrame</text>
<text text-anchor="start" x="365.5" y="-704.5" font-family="Helvetica,sans-Serif" font-size="10.00">+ Linker</text>
<text text-anchor="start" x="365.5" y="-693.5" font-family="Helvetica,sans-Serif" font-size="10.00">+ LinkerIndex</text>
<text text-anchor="start" x="365.5" y="-682.5" font-family="Helvetica,sans-Serif" font-size="10.00">+ ObjectInternalInteger</text>
<text text-anchor="start" x="365.5" y="-671.5" font-family="Helvetica,sans-Serif" font-size="10.00">+ NetIndex</text>
<text text-anchor="start" x="365.5" y="-660.5" font-family="Helvetica,sans-Serif" font-size="10.00">+ Outer</text>
<text text-anchor="start" x="365.5" y="-649.5" font-family="Helvetica,sans-Serif" font-size="10.00">+ Name</text>
<text text-anchor="start" x="365.5" y="-638.5" font-family="Helvetica,sans-Serif" font-size="10.00">+ Class</text>
<text text-anchor="start" x="365.5" y="-627.5" font-family="Helvetica,sans-Serif" font-size="10.00">+ ObjectArchetype</text>
<text text-anchor="start" x="365.5" y="-616.5" font-family="Helvetica,sans-Serif" font-size="10.00">+ GObjects</text>
<polyline fill="none" stroke="black" points="357.5,-609.5 555.5,-609.5 "/>
<text text-anchor="start" x="365.5" y="-597.5" font-family="Helvetica,sans-Serif" font-size="10.00">+ UObject::GetName()</text>
<text text-anchor="start" x="365.5" y="-586.5" font-family="Helvetica,sans-Serif" font-size="10.00">+ GetFullName()</text>
<text text-anchor="start" x="365.5" y="-575.5" font-family="Helvetica,sans-Serif" font-size="10.00">+ IsA()</text>
<text text-anchor="start" x="365.5" y="-564.5" font-family="Helvetica,sans-Serif" font-size="10.00">+ ProcessEvent()</text>
<text text-anchor="start" x="365.5" y="-553.5" font-family="Helvetica,sans-Serif" font-size="10.00">+ STATIC_ProfNodeEvent()</text>
<text text-anchor="start" x="365.5" y="-542.5" font-family="Helvetica,sans-Serif" font-size="10.00">+ STATIC_ProfNodeSetDepthThreshold()</text>
<text text-anchor="start" x="365.5" y="-531.5" font-family="Helvetica,sans-Serif" font-size="10.00">+ STATIC_ProfNodeSetTimeThreshold</text>
<text text-anchor="start" x="365.5" y="-520.5" font-family="Helvetica,sans-Serif" font-size="10.00">Seconds()</text>
<text text-anchor="start" x="365.5" y="-509.5" font-family="Helvetica,sans-Serif" font-size="10.00">+ STATIC_ProfNodeStop()</text>
<text text-anchor="start" x="365.5" y="-498.5" font-family="Helvetica,sans-Serif" font-size="10.00">+ STATIC_ProfNodeStart()</text>
<text text-anchor="start" x="365.5" y="-487.5" font-family="Helvetica,sans-Serif" font-size="10.00">+ STATIC_GetStringFromGuid()</text>
<text text-anchor="start" x="365.5" y="-476.5" font-family="Helvetica,sans-Serif" font-size="10.00">and 298 more...</text>
<text text-anchor="start" x="365.5" y="-465.5" font-family="Helvetica,sans-Serif" font-size="10.00">+ GetGlobalObjects()</text>
<text text-anchor="start" x="365.5" y="-454.5" font-family="Helvetica,sans-Serif" font-size="10.00">+ FindObject()</text>
<text text-anchor="start" x="365.5" y="-443.5" font-family="Helvetica,sans-Serif" font-size="10.00">+ FindClass()</text>
<text text-anchor="start" x="365.5" y="-432.5" font-family="Helvetica,sans-Serif" font-size="10.00">+ GetObjectCasted()</text>
<text text-anchor="start" x="365.5" y="-421.5" font-family="Helvetica,sans-Serif" font-size="10.00">+ StaticClass()</text>
</a>
</g>
</g>
<!-- Node2&#45;&gt;Node1 -->
<g id="edge1" class="edge">
<title>Node2&#45;&gt;Node1</title>
<path fill="none" stroke="midnightblue" d="M456.5,-404.07C456.5,-395.04 456.5,-386.23 456.5,-377.76"/>
<polygon fill="none" stroke="midnightblue" points="453,-404.34 456.5,-414.34 460,-404.34 453,-404.34"/>
</g>
<!-- Node5 -->
<g id="node5" class="node">
<title>Node5</title>
<g id="a_node5"><a xlink:href="../../d8/d2f/classSDK_1_1UEFLevelStreamingAlwaysLoaded.html" target="_top" xlink:title=" ">
<polygon fill="white" stroke="black" points="195.5,-0.5 195.5,-68.5 359.5,-68.5 359.5,-0.5 195.5,-0.5"/>
<text text-anchor="start" x="203.5" y="-56.5" font-family="Helvetica,sans-Serif" font-size="10.00">SDK::UEFLevelStreamingAlways</text>
<text text-anchor="middle" x="277.5" y="-45.5" font-family="Helvetica,sans-Serif" font-size="10.00">Loaded</text>
<polyline fill="none" stroke="black" points="195.5,-38.5 359.5,-38.5 "/>
<text text-anchor="middle" x="277.5" y="-26.5" font-family="Helvetica,sans-Serif" font-size="10.00"> </text>
<polyline fill="none" stroke="black" points="195.5,-19.5 359.5,-19.5 "/>
<text text-anchor="start" x="203.5" y="-7.5" font-family="Helvetica,sans-Serif" font-size="10.00">+ StaticClass()</text>
</a>
</g>
</g>
<!-- Node4&#45;&gt;Node5 -->
<g id="edge4" class="edge">
<title>Node4&#45;&gt;Node5</title>
<path fill="none" stroke="midnightblue" d="M277.5,-95.14C277.5,-86.26 277.5,-77.04 277.5,-68.59"/>
<polygon fill="none" stroke="midnightblue" points="274,-95.34 277.5,-105.34 281,-95.34 274,-95.34"/>
</g>
</g>
</svg>
