<?xml version="1.0" encoding="UTF-8" standalone="no"?>
<!DOCTYPE svg PUBLIC "-//W3C//DTD SVG 1.1//EN"
 "http://www.w3.org/Graphics/SVG/1.1/DTD/svg11.dtd">
<!-- Generated by graphviz version 2.41.20171026.1811 (20171026.1811)
 -->
<!-- Title: SDK::UParticleModuleOrbit Pages: 1 -->
<svg width="1229pt" height="2255pt"
 viewBox="0.00 0.00 1228.50 2255.00" xmlns="http://www.w3.org/2000/svg" xmlns:xlink="http://www.w3.org/1999/xlink">
<g id="graph0" class="graph" transform="scale(1 1) rotate(0) translate(4 2251)">
<title>SDK::UParticleModuleOrbit</title>
<polygon fill="white" stroke="transparent" points="-4,4 -4,-2251 1224.5,-2251 1224.5,4 -4,4"/>
<!-- Node1 -->
<g id="node1" class="node">
<title>Node1</title>
<g id="a_node1"><a xlink:title=" ">
<polygon fill="#bfbfbf" stroke="black" points="852,-0.5 852,-57.5 989,-57.5 989,-0.5 852,-0.5"/>
<text text-anchor="middle" x="920.5" y="-45.5" font-family="Helvetica,sans-Serif" font-size="10.00">SDK::UParticleModuleOrbit</text>
<polyline fill="none" stroke="black" points="852,-38.5 989,-38.5 "/>
<text text-anchor="start" x="860" y="-26.5" font-family="Helvetica,sans-Serif" font-size="10.00">+ UnknownData00</text>
<polyline fill="none" stroke="black" points="852,-19.5 989,-19.5 "/>
<text text-anchor="start" x="860" y="-7.5" font-family="Helvetica,sans-Serif" font-size="10.00">+ StaticClass()</text>
</a>
</g>
</g>
<!-- Node2 -->
<g id="node2" class="node">
<title>Node2</title>
<g id="a_node2"><a xlink:href="../../d6/d30/classSDK_1_1UParticleModuleOrbitBase.html" target="_top" xlink:title=" ">
<polygon fill="white" stroke="black" points="825,-757.5 825,-814.5 984,-814.5 984,-757.5 825,-757.5"/>
<text text-anchor="middle" x="904.5" y="-802.5" font-family="Helvetica,sans-Serif" font-size="10.00">SDK::UParticleModuleOrbitBase</text>
<polyline fill="none" stroke="black" points="825,-795.5 984,-795.5 "/>
<text text-anchor="start" x="833" y="-783.5" font-family="Helvetica,sans-Serif" font-size="10.00">+ bUseEmitterTime</text>
<polyline fill="none" stroke="black" points="825,-776.5 984,-776.5 "/>
<text text-anchor="start" x="833" y="-764.5" font-family="Helvetica,sans-Serif" font-size="10.00">+ StaticClass()</text>
</a>
</g>
</g>
<!-- Node2&#45;&gt;Node1 -->
<g id="edge1" class="edge">
<title>Node2&#45;&gt;Node1</title>
<path fill="none" stroke="midnightblue" d="M890.38,-747.66C882.6,-723.81 874.5,-692.01 874.5,-663 874.5,-663 874.5,-663 874.5,-188 874.5,-140.72 893.73,-88.53 907.32,-57.55"/>
<polygon fill="none" stroke="midnightblue" points="887.14,-749.02 893.67,-757.37 893.77,-746.78 887.14,-749.02"/>
</g>
<!-- Node3 -->
<g id="node3" class="node">
<title>Node3</title>
<g id="a_node3"><a xlink:href="../../d5/df1/classSDK_1_1UParticleModule.html" target="_top" xlink:title=" ">
<polygon fill="white" stroke="black" points="836,-971.5 836,-1171.5 989,-1171.5 989,-971.5 836,-971.5"/>
<text text-anchor="middle" x="912.5" y="-1159.5" font-family="Helvetica,sans-Serif" font-size="10.00">SDK::UParticleModule</text>
<polyline fill="none" stroke="black" points="836,-1152.5 989,-1152.5 "/>
<text text-anchor="start" x="844" y="-1140.5" font-family="Helvetica,sans-Serif" font-size="10.00">+ bSpawnModule</text>
<text text-anchor="start" x="844" y="-1129.5" font-family="Helvetica,sans-Serif" font-size="10.00">+ bUpdateModule</text>
<text text-anchor="start" x="844" y="-1118.5" font-family="Helvetica,sans-Serif" font-size="10.00">+ bFinalUpdateModule</text>
<text text-anchor="start" x="844" y="-1107.5" font-family="Helvetica,sans-Serif" font-size="10.00">+ bCurvesAsColor</text>
<text text-anchor="start" x="844" y="-1096.5" font-family="Helvetica,sans-Serif" font-size="10.00">+ b3DDrawMode</text>
<text text-anchor="start" x="844" y="-1085.5" font-family="Helvetica,sans-Serif" font-size="10.00">+ EnableToggle3DDrawMode</text>
<text text-anchor="start" x="844" y="-1074.5" font-family="Helvetica,sans-Serif" font-size="10.00">+ bSupported3DDrawMode</text>
<text text-anchor="start" x="844" y="-1063.5" font-family="Helvetica,sans-Serif" font-size="10.00">+ bEnabled</text>
<text text-anchor="start" x="844" y="-1052.5" font-family="Helvetica,sans-Serif" font-size="10.00">+ bEditable</text>
<text text-anchor="start" x="844" y="-1041.5" font-family="Helvetica,sans-Serif" font-size="10.00">+ LODDuplicate</text>
<text text-anchor="start" x="844" y="-1030.5" font-family="Helvetica,sans-Serif" font-size="10.00">+ bSupportsRandomSeed</text>
<text text-anchor="start" x="844" y="-1019.5" font-family="Helvetica,sans-Serif" font-size="10.00">+ bRequiresLoopingNotification</text>
<text text-anchor="start" x="844" y="-1008.5" font-family="Helvetica,sans-Serif" font-size="10.00">+ LODValidity</text>
<text text-anchor="start" x="844" y="-997.5" font-family="Helvetica,sans-Serif" font-size="10.00">+ UnknownData00</text>
<polyline fill="none" stroke="black" points="836,-990.5 989,-990.5 "/>
<text text-anchor="start" x="844" y="-978.5" font-family="Helvetica,sans-Serif" font-size="10.00">+ StaticClass()</text>
</a>
</g>
</g>
<!-- Node3&#45;&gt;Node2 -->
<g id="edge2" class="edge">
<title>Node3&#45;&gt;Node2</title>
<path fill="none" stroke="midnightblue" d="M909.41,-961.16C907.91,-907.99 906.23,-848.4 905.28,-814.52"/>
<polygon fill="none" stroke="midnightblue" points="905.92,-961.45 909.7,-971.35 912.92,-961.25 905.92,-961.45"/>
</g>
<!-- Node4 -->
<g id="node4" class="node">
<title>Node4</title>
<g id="a_node4"><a xlink:href="../../d9/d45/classSDK_1_1UObject.html" target="_top" xlink:title=" ">
<polygon fill="white" stroke="black" points="442.5,-1219.5 442.5,-1463.5 640.5,-1463.5 640.5,-1219.5 442.5,-1219.5"/>
<text text-anchor="middle" x="541.5" y="-1451.5" font-family="Helvetica,sans-Serif" font-size="10.00">SDK::UObject</text>
<polyline fill="none" stroke="black" points="442.5,-1444.5 640.5,-1444.5 "/>
<text text-anchor="start" x="450.5" y="-1432.5" font-family="Helvetica,sans-Serif" font-size="10.00">+ ObjectInternalInteger</text>
<text text-anchor="start" x="450.5" y="-1421.5" font-family="Helvetica,sans-Serif" font-size="10.00">+ NetIndex</text>
<polyline fill="none" stroke="black" points="442.5,-1414.5 640.5,-1414.5 "/>
<text text-anchor="start" x="450.5" y="-1402.5" font-family="Helvetica,sans-Serif" font-size="10.00">+ UObject::GetName()</text>
<text text-anchor="start" x="450.5" y="-1391.5" font-family="Helvetica,sans-Serif" font-size="10.00">+ GetFullName()</text>
<text text-anchor="start" x="450.5" y="-1380.5" font-family="Helvetica,sans-Serif" font-size="10.00">+ IsA()</text>
<text text-anchor="start" x="450.5" y="-1369.5" font-family="Helvetica,sans-Serif" font-size="10.00">+ ProcessEvent()</text>
<text text-anchor="start" x="450.5" y="-1358.5" font-family="Helvetica,sans-Serif" font-size="10.00">+ STATIC_ProfNodeEvent()</text>
<text text-anchor="start" x="450.5" y="-1347.5" font-family="Helvetica,sans-Serif" font-size="10.00">+ STATIC_ProfNodeSetDepthThreshold()</text>
<text text-anchor="start" x="450.5" y="-1336.5" font-family="Helvetica,sans-Serif" font-size="10.00">+ STATIC_ProfNodeSetTimeThreshold</text>
<text text-anchor="start" x="450.5" y="-1325.5" font-family="Helvetica,sans-Serif" font-size="10.00">Seconds()</text>
<text text-anchor="start" x="450.5" y="-1314.5" font-family="Helvetica,sans-Serif" font-size="10.00">+ STATIC_ProfNodeStop()</text>
<text text-anchor="start" x="450.5" y="-1303.5" font-family="Helvetica,sans-Serif" font-size="10.00">+ STATIC_ProfNodeStart()</text>
<text text-anchor="start" x="450.5" y="-1292.5" font-family="Helvetica,sans-Serif" font-size="10.00">+ STATIC_GetStringFromGuid()</text>
<text text-anchor="start" x="450.5" y="-1281.5" font-family="Helvetica,sans-Serif" font-size="10.00">and 298 more...</text>
<text text-anchor="start" x="450.5" y="-1270.5" font-family="Helvetica,sans-Serif" font-size="10.00">+ GetGlobalObjects()</text>
<text text-anchor="start" x="450.5" y="-1259.5" font-family="Helvetica,sans-Serif" font-size="10.00">+ FindObject()</text>
<text text-anchor="start" x="450.5" y="-1248.5" font-family="Helvetica,sans-Serif" font-size="10.00">+ FindClass()</text>
<text text-anchor="start" x="450.5" y="-1237.5" font-family="Helvetica,sans-Serif" font-size="10.00">+ GetObjectCasted()</text>
<text text-anchor="start" x="450.5" y="-1226.5" font-family="Helvetica,sans-Serif" font-size="10.00">+ StaticClass()</text>
</a>
</g>
</g>
<!-- Node4&#45;&gt;Node3 -->
<g id="edge3" class="edge">
<title>Node4&#45;&gt;Node3</title>
<path fill="none" stroke="midnightblue" d="M650.05,-1301.25C705.29,-1277.78 771.21,-1244.09 821.5,-1201 831.67,-1192.28 841.28,-1182.2 850.18,-1171.58"/>
<polygon fill="none" stroke="midnightblue" points="648.45,-1298.13 640.58,-1305.22 651.15,-1304.59 648.45,-1298.13"/>
</g>
<!-- Node4&#45;&gt;Node4 -->
<g id="edge9" class="edge">
<title>Node4&#45;&gt;Node4</title>
<path fill="none" stroke="#404040" d="M640.51,-1364.53C651.44,-1360.15 658.5,-1352.48 658.5,-1341.5 658.5,-1334.64 655.74,-1329.07 651.01,-1324.78"/>
<polygon fill="none" stroke="#404040" points="650.8,-1324.66 643.59,-1324.99 640.51,-1318.47 647.72,-1318.14 650.8,-1324.66"/>
<text text-anchor="middle" x="698" y="-1350" font-family="Helvetica,sans-Serif" font-size="10.00"> +Outer</text>
<text text-anchor="middle" x="698" y="-1339" font-family="Helvetica,sans-Serif" font-size="10.00">+Linker</text>
<text text-anchor="middle" x="698" y="-1328" font-family="Helvetica,sans-Serif" font-size="10.00">+ObjectArchetype</text>
</g>
<!-- Node10 -->
<g id="node10" class="node">
<title>Node10</title>
<g id="a_node10"><a xlink:href="../../d3/d79/classSDK_1_1TArray.html" target="_top" xlink:title=" ">
<polygon fill="white" stroke="black" points="333,-1004.5 333,-1138.5 494,-1138.5 494,-1004.5 333,-1004.5"/>
<text text-anchor="middle" x="413.5" y="-1126.5" font-family="Helvetica,sans-Serif" font-size="10.00">SDK::TArray&lt; SDK::UObject * &gt;</text>
<polyline fill="none" stroke="black" points="333,-1119.5 494,-1119.5 "/>
<text text-anchor="start" x="341" y="-1107.5" font-family="Helvetica,sans-Serif" font-size="10.00">&#45; Count</text>
<text text-anchor="start" x="341" y="-1096.5" font-family="Helvetica,sans-Serif" font-size="10.00">&#45; Max</text>
<polyline fill="none" stroke="black" points="333,-1089.5 494,-1089.5 "/>
<text text-anchor="start" x="341" y="-1077.5" font-family="Helvetica,sans-Serif" font-size="10.00">+ TArray()</text>
<text text-anchor="start" x="341" y="-1066.5" font-family="Helvetica,sans-Serif" font-size="10.00">+ Num()</text>
<text text-anchor="start" x="341" y="-1055.5" font-family="Helvetica,sans-Serif" font-size="10.00">+ operator[]()</text>
<text text-anchor="start" x="341" y="-1044.5" font-family="Helvetica,sans-Serif" font-size="10.00">+ operator[]()</text>
<text text-anchor="start" x="341" y="-1033.5" font-family="Helvetica,sans-Serif" font-size="10.00">+ IsValidIndex()</text>
<text text-anchor="start" x="341" y="-1022.5" font-family="Helvetica,sans-Serif" font-size="10.00">+ GetByIndex()</text>
<text text-anchor="start" x="341" y="-1011.5" font-family="Helvetica,sans-Serif" font-size="10.00">+ GetByIndex()</text>
</a>
</g>
</g>
<!-- Node4&#45;&gt;Node10 -->
<g id="edge11" class="edge">
<title>Node4&#45;&gt;Node10</title>
<path fill="none" stroke="#404040" d="M483.68,-1219.44C472.34,-1195.7 460.75,-1171.42 450.33,-1149.61"/>
<polygon fill="none" stroke="#404040" points="450.33,-1149.61 444.13,-1145.92 445.16,-1138.78 451.35,-1142.48 450.33,-1149.61"/>
<text text-anchor="middle" x="488.5" y="-1193" font-family="Helvetica,sans-Serif" font-size="10.00"> &#45;Data</text>
</g>
<!-- Node12 -->
<g id="node12" class="node">
<title>Node12</title>
<g id="a_node12"><a xlink:href="../../d7/d85/classSDK_1_1UClass.html" target="_top" xlink:title=" ">
<polygon fill="white" stroke="black" points="557,-553.5 557,-643.5 678,-643.5 678,-553.5 557,-553.5"/>
<text text-anchor="middle" x="617.5" y="-631.5" font-family="Helvetica,sans-Serif" font-size="10.00">SDK::UClass</text>
<polyline fill="none" stroke="black" points="557,-624.5 678,-624.5 "/>
<text text-anchor="start" x="565" y="-612.5" font-family="Helvetica,sans-Serif" font-size="10.00">+ UnknownData00</text>
<text text-anchor="start" x="565" y="-601.5" font-family="Helvetica,sans-Serif" font-size="10.00">+ UnknownData01</text>
<polyline fill="none" stroke="black" points="557,-594.5 678,-594.5 "/>
<text text-anchor="start" x="565" y="-582.5" font-family="Helvetica,sans-Serif" font-size="10.00">+ CreateDefaultObject()</text>
<text text-anchor="start" x="565" y="-571.5" font-family="Helvetica,sans-Serif" font-size="10.00">+ CreateDefaultObject()</text>
<text text-anchor="start" x="565" y="-560.5" font-family="Helvetica,sans-Serif" font-size="10.00">+ StaticClass()</text>
</a>
</g>
</g>
<!-- Node4&#45;&gt;Node12 -->
<g id="edge21" class="edge">
<title>Node4&#45;&gt;Node12</title>
<path fill="none" stroke="#404040" d="M553.75,-1219.22C557.42,-1173.31 560.5,-1120.54 560.5,-1072.5 560.5,-1072.5 560.5,-1072.5 560.5,-709 560.5,-689.92 567.39,-670.88 576.38,-654.14"/>
<polygon fill="none" stroke="#404040" points="576.53,-653.89 576.07,-646.69 582.54,-643.51 582.99,-650.7 576.53,-653.89"/>
<text text-anchor="middle" x="608" y="-870.5" font-family="Helvetica,sans-Serif" font-size="10.00"> +ClassDefaultObject</text>
</g>
<!-- Node15 -->
<g id="node15" class="node">
<title>Node15</title>
<g id="a_node15"><a xlink:href="../../de/dd6/classSDK_1_1UField.html" target="_top" xlink:title=" ">
<polygon fill="white" stroke="black" points="647,-1043 647,-1100 730,-1100 730,-1043 647,-1043"/>
<text text-anchor="middle" x="688.5" y="-1088" font-family="Helvetica,sans-Serif" font-size="10.00">SDK::UField</text>
<polyline fill="none" stroke="black" points="647,-1081 730,-1081 "/>
<text text-anchor="middle" x="688.5" y="-1069" font-family="Helvetica,sans-Serif" font-size="10.00"> </text>
<polyline fill="none" stroke="black" points="647,-1062 730,-1062 "/>
<text text-anchor="start" x="655" y="-1050" font-family="Helvetica,sans-Serif" font-size="10.00">+ StaticClass()</text>
</a>
</g>
</g>
<!-- Node4&#45;&gt;Node15 -->
<g id="edge18" class="edge">
<title>Node4&#45;&gt;Node15</title>
<path fill="none" stroke="midnightblue" d="M612.77,-1210.57C635.58,-1168.98 658.68,-1126.86 673.27,-1100.27"/>
<polygon fill="none" stroke="midnightblue" points="609.64,-1208.99 607.9,-1219.44 615.78,-1212.35 609.64,-1208.99"/>
</g>
<!-- Node22 -->
<g id="node22" class="node">
<title>Node22</title>
<g id="a_node22"><a xlink:href="../../dc/d28/classSDK_1_1UComponent.html" target="_top" xlink:title=" ">
<polygon fill="white" stroke="black" points="423,-448.5 423,-505.5 524,-505.5 524,-448.5 423,-448.5"/>
<text text-anchor="middle" x="473.5" y="-493.5" font-family="Helvetica,sans-Serif" font-size="10.00">SDK::UComponent</text>
<polyline fill="none" stroke="black" points="423,-486.5 524,-486.5 "/>
<text text-anchor="middle" x="473.5" y="-474.5" font-family="Helvetica,sans-Serif" font-size="10.00"> </text>
<polyline fill="none" stroke="black" points="423,-467.5 524,-467.5 "/>
<text text-anchor="start" x="431" y="-455.5" font-family="Helvetica,sans-Serif" font-size="10.00">+ StaticClass()</text>
</a>
</g>
</g>
<!-- Node4&#45;&gt;Node22 -->
<g id="edge30" class="edge">
<title>Node4&#45;&gt;Node22</title>
<path fill="none" stroke="midnightblue" d="M531.5,-1209.38C523.81,-1097.28 514.5,-931.64 514.5,-787 514.5,-787 514.5,-787 514.5,-597.5 514.5,-564.6 500.42,-529.23 488.77,-505.58"/>
<polygon fill="none" stroke="midnightblue" points="528.01,-1209.65 532.19,-1219.38 534.99,-1209.16 528.01,-1209.65"/>
</g>
<!-- Node5 -->
<g id="node5" class="node">
<title>Node5</title>
<g id="a_node5"><a xlink:href="../../d0/d22/structSDK_1_1FQWord.html" target="_top" xlink:title=" ">
<polygon fill="white" stroke="black" points="533.5,-1641 533.5,-1709 613.5,-1709 613.5,-1641 533.5,-1641"/>
<text text-anchor="middle" x="573.5" y="-1697" font-family="Helvetica,sans-Serif" font-size="10.00">SDK::FQWord</text>
<polyline fill="none" stroke="black" points="533.5,-1690 613.5,-1690 "/>
<text text-anchor="start" x="541.5" y="-1678" font-family="Helvetica,sans-Serif" font-size="10.00">+ A</text>
<text text-anchor="start" x="541.5" y="-1667" font-family="Helvetica,sans-Serif" font-size="10.00">+ B</text>
<polyline fill="none" stroke="black" points="533.5,-1660 613.5,-1660 "/>
<text text-anchor="middle" x="573.5" y="-1648" font-family="Helvetica,sans-Serif" font-size="10.00"> </text>
</a>
</g>
</g>
<!-- Node5&#45;&gt;Node4 -->
<g id="edge4" class="edge">
<title>Node5&#45;&gt;Node4</title>
<path fill="none" stroke="#404040" d="M570.29,-1640.7C566.56,-1602.06 560.17,-1535.95 554.37,-1475.78"/>
<polygon fill="none" stroke="#404040" points="554.37,-1475.78 549.81,-1470.2 553.21,-1463.84 557.77,-1469.43 554.37,-1475.78"/>
<text text-anchor="middle" x="597.5" y="-1536" font-family="Helvetica,sans-Serif" font-size="10.00"> +ObjectFlags</text>
</g>
<!-- Node6 -->
<g id="node6" class="node">
<title>Node6</title>
<g id="a_node6"><a xlink:href="../../d0/db6/structSDK_1_1FName.html" target="_top" xlink:title=" ">
<polygon fill="white" stroke="black" points="408,-1613.5 408,-1736.5 515,-1736.5 515,-1613.5 408,-1613.5"/>
<text text-anchor="middle" x="461.5" y="-1724.5" font-family="Helvetica,sans-Serif" font-size="10.00">SDK::FName</text>
<polyline fill="none" stroke="black" points="408,-1717.5 515,-1717.5 "/>
<text text-anchor="start" x="416" y="-1705.5" font-family="Helvetica,sans-Serif" font-size="10.00">+ Index</text>
<text text-anchor="start" x="416" y="-1694.5" font-family="Helvetica,sans-Serif" font-size="10.00">+ Number</text>
<polyline fill="none" stroke="black" points="408,-1687.5 515,-1687.5 "/>
<text text-anchor="start" x="416" y="-1675.5" font-family="Helvetica,sans-Serif" font-size="10.00">+ FName()</text>
<text text-anchor="start" x="416" y="-1664.5" font-family="Helvetica,sans-Serif" font-size="10.00">+ FName()</text>
<text text-anchor="start" x="416" y="-1653.5" font-family="Helvetica,sans-Serif" font-size="10.00">+ FName()</text>
<text text-anchor="start" x="416" y="-1642.5" font-family="Helvetica,sans-Serif" font-size="10.00">+ GetName()</text>
<text text-anchor="start" x="416" y="-1631.5" font-family="Helvetica,sans-Serif" font-size="10.00">+ operator==()</text>
<text text-anchor="start" x="416" y="-1620.5" font-family="Helvetica,sans-Serif" font-size="10.00">+ GetGlobalNames()</text>
</a>
</g>
</g>
<!-- Node6&#45;&gt;Node4 -->
<g id="edge5" class="edge">
<title>Node6&#45;&gt;Node4</title>
<path fill="none" stroke="#404040" d="M476.17,-1613.2C485.49,-1574.6 497.91,-1523.11 509.43,-1475.41"/>
<polygon fill="none" stroke="#404040" points="509.44,-1475.36 506.96,-1468.59 512.25,-1463.69 514.73,-1470.46 509.44,-1475.36"/>
<text text-anchor="middle" x="524.5" y="-1536" font-family="Helvetica,sans-Serif" font-size="10.00"> +Name</text>
</g>
<!-- Node6&#45;&gt;Node22 -->
<g id="edge31" class="edge">
<title>Node6&#45;&gt;Node22</title>
<path fill="none" stroke="#404040" d="M412.68,-1613.28C366.6,-1549.71 304.5,-1445.03 304.5,-1342.5 304.5,-1342.5 304.5,-1342.5 304.5,-597.5 304.5,-543.39 362.97,-511.59 411.13,-494.57"/>
<polygon fill="none" stroke="#404040" points="411.42,-494.48 415.83,-488.78 422.79,-490.66 418.38,-496.36 411.42,-494.48"/>
<text text-anchor="middle" x="342.5" y="-870.5" font-family="Helvetica,sans-Serif" font-size="10.00"> +TemplateName</text>
</g>
<!-- Node7 -->
<g id="node7" class="node">
<title>Node7</title>
<g id="a_node7"><a xlink:href="../../d3/d79/classSDK_1_1TArray.html" target="_top" xlink:title=" ">
<polygon fill="white" stroke="black" points="343.5,-1919.5 343.5,-2053.5 523.5,-2053.5 523.5,-1919.5 343.5,-1919.5"/>
<text text-anchor="middle" x="433.5" y="-2041.5" font-family="Helvetica,sans-Serif" font-size="10.00">SDK::TArray&lt; SDK::FNameEntry * &gt;</text>
<polyline fill="none" stroke="black" points="343.5,-2034.5 523.5,-2034.5 "/>
<text text-anchor="start" x="351.5" y="-2022.5" font-family="Helvetica,sans-Serif" font-size="10.00">&#45; Count</text>
<text text-anchor="start" x="351.5" y="-2011.5" font-family="Helvetica,sans-Serif" font-size="10.00">&#45; Max</text>
<polyline fill="none" stroke="black" points="343.5,-2004.5 523.5,-2004.5 "/>
<text text-anchor="start" x="351.5" y="-1992.5" font-family="Helvetica,sans-Serif" font-size="10.00">+ TArray()</text>
<text text-anchor="start" x="351.5" y="-1981.5" font-family="Helvetica,sans-Serif" font-size="10.00">+ Num()</text>
<text text-anchor="start" x="351.5" y="-1970.5" font-family="Helvetica,sans-Serif" font-size="10.00">+ operator[]()</text>
<text text-anchor="start" x="351.5" y="-1959.5" font-family="Helvetica,sans-Serif" font-size="10.00">+ operator[]()</text>
<text text-anchor="start" x="351.5" y="-1948.5" font-family="Helvetica,sans-Serif" font-size="10.00">+ IsValidIndex()</text>
<text text-anchor="start" x="351.5" y="-1937.5" font-family="Helvetica,sans-Serif" font-size="10.00">+ GetByIndex()</text>
<text text-anchor="start" x="351.5" y="-1926.5" font-family="Helvetica,sans-Serif" font-size="10.00">+ GetByIndex()</text>
</a>
</g>
</g>
<!-- Node7&#45;&gt;Node6 -->
<g id="edge6" class="edge">
<title>Node7&#45;&gt;Node6</title>
<path fill="none" stroke="#404040" d="M439.47,-1919.48C444.01,-1869.36 450.24,-1800.46 454.92,-1748.75"/>
<polygon fill="none" stroke="#404040" points="454.93,-1748.61 451.49,-1742.28 456.01,-1736.66 459.45,-1743 454.93,-1748.61"/>
<text text-anchor="middle" x="479" y="-1825.5" font-family="Helvetica,sans-Serif" font-size="10.00"> +GNames</text>
</g>
<!-- Node8 -->
<g id="node8" class="node">
<title>Node8</title>
<g id="a_node8"><a xlink:href="../../d7/ddf/classSDK_1_1FNameEntry.html" target="_top" xlink:title=" ">
<polygon fill="white" stroke="black" points="384,-2140 384,-2208 483,-2208 483,-2140 384,-2140"/>
<text text-anchor="middle" x="433.5" y="-2196" font-family="Helvetica,sans-Serif" font-size="10.00">SDK::FNameEntry</text>
<polyline fill="none" stroke="black" points="384,-2189 483,-2189 "/>
<text text-anchor="start" x="392" y="-2177" font-family="Helvetica,sans-Serif" font-size="10.00">+ UnknownData00</text>
<text text-anchor="start" x="392" y="-2166" font-family="Helvetica,sans-Serif" font-size="10.00">+ name</text>
<polyline fill="none" stroke="black" points="384,-2159 483,-2159 "/>
<text text-anchor="start" x="392" y="-2147" font-family="Helvetica,sans-Serif" font-size="10.00">+ GetName()</text>
</a>
</g>
</g>
<!-- Node8&#45;&gt;Node7 -->
<g id="edge7" class="edge">
<title>Node8&#45;&gt;Node7</title>
<path fill="none" stroke="#404040" d="M433.5,-2139.84C433.5,-2119.23 433.5,-2091.83 433.5,-2065.95"/>
<polygon fill="none" stroke="#404040" points="433.5,-2065.8 429.5,-2059.8 433.5,-2053.8 437.5,-2059.8 433.5,-2065.8"/>
<text text-anchor="middle" x="447.5" y="-2075" font-family="Helvetica,sans-Serif" font-size="10.00"> &#45;Data</text>
</g>
<!-- Node9 -->
<g id="node9" class="node">
<title>Node9</title>
<g id="a_node9"><a xlink:href="../../d3/d79/classSDK_1_1TArray.html" target="_top" xlink:title=" ">
<polygon fill="white" stroke="black" points="135,-2101.5 135,-2246.5 232,-2246.5 232,-2101.5 135,-2101.5"/>
<text text-anchor="middle" x="183.5" y="-2234.5" font-family="Helvetica,sans-Serif" font-size="10.00">SDK::TArray&lt; T &gt;</text>
<polyline fill="none" stroke="black" points="135,-2227.5 232,-2227.5 "/>
<text text-anchor="start" x="143" y="-2215.5" font-family="Helvetica,sans-Serif" font-size="10.00">&#45; Data</text>
<text text-anchor="start" x="143" y="-2204.5" font-family="Helvetica,sans-Serif" font-size="10.00">&#45; Count</text>
<text text-anchor="start" x="143" y="-2193.5" font-family="Helvetica,sans-Serif" font-size="10.00">&#45; Max</text>
<polyline fill="none" stroke="black" points="135,-2186.5 232,-2186.5 "/>
<text text-anchor="start" x="143" y="-2174.5" font-family="Helvetica,sans-Serif" font-size="10.00">+ TArray()</text>
<text text-anchor="start" x="143" y="-2163.5" font-family="Helvetica,sans-Serif" font-size="10.00">+ Num()</text>
<text text-anchor="start" x="143" y="-2152.5" font-family="Helvetica,sans-Serif" font-size="10.00">+ operator[]()</text>
<text text-anchor="start" x="143" y="-2141.5" font-family="Helvetica,sans-Serif" font-size="10.00">+ operator[]()</text>
<text text-anchor="start" x="143" y="-2130.5" font-family="Helvetica,sans-Serif" font-size="10.00">+ IsValidIndex()</text>
<text text-anchor="start" x="143" y="-2119.5" font-family="Helvetica,sans-Serif" font-size="10.00">+ GetByIndex()</text>
<text text-anchor="start" x="143" y="-2108.5" font-family="Helvetica,sans-Serif" font-size="10.00">+ GetByIndex()</text>
</a>
</g>
</g>
<!-- Node9&#45;&gt;Node7 -->
<g id="edge8" class="edge">
<title>Node9&#45;&gt;Node7</title>
<path fill="none" stroke="orange" d="M240.48,-2130.2C264.52,-2112.18 292.84,-2091.03 318.5,-2072 326.56,-2066.02 334.95,-2059.82 343.36,-2053.62"/>
<polygon fill="orange" stroke="orange" points="238.07,-2127.64 232.16,-2136.43 242.27,-2133.24 238.07,-2127.64"/>
<text text-anchor="middle" x="374" y="-2075" font-family="Helvetica,sans-Serif" font-size="10.00"> &lt; SDK::FNameEntry * &gt;</text>
</g>
<!-- Node9&#45;&gt;Node10 -->
<g id="edge12" class="edge">
<title>Node9&#45;&gt;Node10</title>
<path fill="none" stroke="orange" d="M175.45,-2091.33C166.73,-1981.37 158.24,-1780.19 192.5,-1613 229.28,-1433.49 324.3,-1238.02 376.97,-1138.62"/>
<polygon fill="orange" stroke="orange" points="171.97,-2091.68 176.27,-2101.36 178.95,-2091.11 171.97,-2091.68"/>
<text text-anchor="middle" x="238" y="-1672.5" font-family="Helvetica,sans-Serif" font-size="10.00"> &lt; SDK::UObject * &gt;</text>
</g>
<!-- Node20 -->
<g id="node20" class="node">
<title>Node20</title>
<g id="a_node20"><a xlink:href="../../d3/d79/classSDK_1_1TArray.html" target="_top" xlink:title=" ">
<polygon fill="white" stroke="black" points="43.5,-1755.5 43.5,-1900.5 153.5,-1900.5 153.5,-1755.5 43.5,-1755.5"/>
<text text-anchor="middle" x="98.5" y="-1888.5" font-family="Helvetica,sans-Serif" font-size="10.00">SDK::TArray&lt; float &gt;</text>
<polyline fill="none" stroke="black" points="43.5,-1881.5 153.5,-1881.5 "/>
<text text-anchor="start" x="51.5" y="-1869.5" font-family="Helvetica,sans-Serif" font-size="10.00">&#45; Data</text>
<text text-anchor="start" x="51.5" y="-1858.5" font-family="Helvetica,sans-Serif" font-size="10.00">&#45; Count</text>
<text text-anchor="start" x="51.5" y="-1847.5" font-family="Helvetica,sans-Serif" font-size="10.00">&#45; Max</text>
<polyline fill="none" stroke="black" points="43.5,-1840.5 153.5,-1840.5 "/>
<text text-anchor="start" x="51.5" y="-1828.5" font-family="Helvetica,sans-Serif" font-size="10.00">+ TArray()</text>
<text text-anchor="start" x="51.5" y="-1817.5" font-family="Helvetica,sans-Serif" font-size="10.00">+ Num()</text>
<text text-anchor="start" x="51.5" y="-1806.5" font-family="Helvetica,sans-Serif" font-size="10.00">+ operator[]()</text>
<text text-anchor="start" x="51.5" y="-1795.5" font-family="Helvetica,sans-Serif" font-size="10.00">+ operator[]()</text>
<text text-anchor="start" x="51.5" y="-1784.5" font-family="Helvetica,sans-Serif" font-size="10.00">+ IsValidIndex()</text>
<text text-anchor="start" x="51.5" y="-1773.5" font-family="Helvetica,sans-Serif" font-size="10.00">+ GetByIndex()</text>
<text text-anchor="start" x="51.5" y="-1762.5" font-family="Helvetica,sans-Serif" font-size="10.00">+ GetByIndex()</text>
</a>
</g>
</g>
<!-- Node9&#45;&gt;Node20 -->
<g id="edge27" class="edge">
<title>Node9&#45;&gt;Node20</title>
<path fill="none" stroke="orange" d="M132.86,-2091.9C131.64,-2088.93 130.52,-2085.96 129.5,-2083 109.11,-2023.66 101.78,-1952.47 99.31,-1900.58"/>
<polygon fill="orange" stroke="orange" points="129.77,-2093.58 137.01,-2101.33 136.18,-2090.77 129.77,-2093.58"/>
<text text-anchor="middle" x="149.5" y="-2075" font-family="Helvetica,sans-Serif" font-size="10.00"> &lt; float &gt;</text>
</g>
<!-- Node10&#45;&gt;Node4 -->
<g id="edge10" class="edge">
<title>Node10&#45;&gt;Node4</title>
<path fill="none" stroke="#404040" d="M399.15,-1138.69C397.49,-1159.27 398.66,-1181.64 406.5,-1201 413.29,-1217.79 423.18,-1233.67 434.57,-1248.29"/>
<polygon fill="none" stroke="#404040" points="434.67,-1248.42 441.56,-1250.54 442.25,-1257.72 435.35,-1255.59 434.67,-1248.42"/>
<text text-anchor="middle" x="432" y="-1193" font-family="Helvetica,sans-Serif" font-size="10.00"> +GObjects</text>
</g>
<!-- Node11 -->
<g id="node11" class="node">
<title>Node11</title>
<g id="a_node11"><a xlink:href="../../d9/dfa/structSDK_1_1FPointer.html" target="_top" xlink:title=" ">
<polygon fill="white" stroke="black" points="292.5,-1641 292.5,-1709 390.5,-1709 390.5,-1641 292.5,-1641"/>
<text text-anchor="middle" x="341.5" y="-1697" font-family="Helvetica,sans-Serif" font-size="10.00">SDK::FPointer</text>
<polyline fill="none" stroke="black" points="292.5,-1690 390.5,-1690 "/>
<text text-anchor="start" x="300.5" y="-1678" font-family="Helvetica,sans-Serif" font-size="10.00">+ Dummy</text>
<text text-anchor="start" x="300.5" y="-1667" font-family="Helvetica,sans-Serif" font-size="10.00">+ UnknownData00</text>
<polyline fill="none" stroke="black" points="292.5,-1660 390.5,-1660 "/>
<text text-anchor="middle" x="341.5" y="-1648" font-family="Helvetica,sans-Serif" font-size="10.00"> </text>
</a>
</g>
</g>
<!-- Node11&#45;&gt;Node4 -->
<g id="edge13" class="edge">
<title>Node11&#45;&gt;Node4</title>
<path fill="none" stroke="#404040" d="M348.51,-1640.89C357.92,-1601.07 377.2,-1533.21 408.5,-1482 416.14,-1469.5 425.06,-1457.19 434.6,-1445.38"/>
<polygon fill="none" stroke="#404040" points="434.7,-1445.25 435.46,-1438.08 442.37,-1436.01 441.61,-1443.19 434.7,-1445.25"/>
<text text-anchor="middle" x="443" y="-1547" font-family="Helvetica,sans-Serif" font-size="10.00"> +StateFrame</text>
<text text-anchor="middle" x="443" y="-1536" font-family="Helvetica,sans-Serif" font-size="10.00">+VfTableObject</text>
<text text-anchor="middle" x="443" y="-1525" font-family="Helvetica,sans-Serif" font-size="10.00">+LinkerIndex</text>
</g>
<!-- Node21 -->
<g id="node21" class="node">
<title>Node21</title>
<g id="a_node21"><a xlink:href="../../d6/df6/classSDK_1_1UDistributionVector.html" target="_top" xlink:title=" ">
<polygon fill="white" stroke="black" points="287,-315 287,-394 416,-394 416,-315 287,-315"/>
<text text-anchor="middle" x="351.5" y="-382" font-family="Helvetica,sans-Serif" font-size="10.00">SDK::UDistributionVector</text>
<polyline fill="none" stroke="black" points="287,-375 416,-375 "/>
<text text-anchor="start" x="295" y="-363" font-family="Helvetica,sans-Serif" font-size="10.00">+ bCanBeBaked</text>
<text text-anchor="start" x="295" y="-352" font-family="Helvetica,sans-Serif" font-size="10.00">+ bIsDirty</text>
<polyline fill="none" stroke="black" points="287,-345 416,-345 "/>
<text text-anchor="start" x="295" y="-333" font-family="Helvetica,sans-Serif" font-size="10.00">+ GetVectorValue()</text>
<text text-anchor="start" x="295" y="-322" font-family="Helvetica,sans-Serif" font-size="10.00">+ StaticClass()</text>
</a>
</g>
</g>
<!-- Node11&#45;&gt;Node21 -->
<g id="edge33" class="edge">
<title>Node11&#45;&gt;Node21</title>
<path fill="none" stroke="#404040" d="M317.76,-1640.95C268.25,-1570.71 158.5,-1407.66 158.5,-1342.5 158.5,-1342.5 158.5,-1342.5 158.5,-476 158.5,-418.31 221.3,-387.23 275.26,-371.17"/>
<polygon fill="none" stroke="#404040" points="275.41,-371.13 280.11,-365.65 286.97,-367.87 282.27,-373.35 275.41,-371.13"/>
<text text-anchor="middle" x="224" y="-783.5" font-family="Helvetica,sans-Serif" font-size="10.00"> +VfTable_FCurveEdInterface</text>
</g>
<!-- Node12&#45;&gt;Node4 -->
<g id="edge14" class="edge">
<title>Node12&#45;&gt;Node4</title>
<path fill="none" stroke="#404040" d="M678.14,-608.56C733.74,-620.71 807.5,-648.28 807.5,-709 807.5,-1072.5 807.5,-1072.5 807.5,-1072.5 807.5,-1117.61 812.38,-1134.38 787.5,-1172 754.25,-1222.28 700.34,-1261.69 651.45,-1289.7"/>
<polygon fill="none" stroke="#404040" points="651.25,-1289.82 647.97,-1296.24 640.78,-1295.69 644.06,-1289.26 651.25,-1289.82"/>
<text text-anchor="middle" x="825" y="-870.5" font-family="Helvetica,sans-Serif" font-size="10.00"> +Class</text>
</g>
<!-- Node12&#45;&gt;Node22 -->
<g id="edge32" class="edge">
<title>Node12&#45;&gt;Node22</title>
<path fill="none" stroke="#404040" d="M564.29,-553.34C548.52,-540.25 531.45,-526.09 516.42,-513.61"/>
<polygon fill="none" stroke="#404040" points="516.1,-513.35 508.93,-512.6 506.86,-505.69 514.04,-506.44 516.1,-513.35"/>
<text text-anchor="middle" x="593.5" y="-527" font-family="Helvetica,sans-Serif" font-size="10.00"> +TemplateOwnerClass</text>
</g>
<!-- Node13 -->
<g id="node13" class="node">
<title>Node13</title>
<g id="a_node13"><a xlink:href="../../df/d72/classSDK_1_1UState.html" target="_top" xlink:title=" ">
<polygon fill="white" stroke="black" points="610.5,-681.5 610.5,-738.5 708.5,-738.5 708.5,-681.5 610.5,-681.5"/>
<text text-anchor="middle" x="659.5" y="-726.5" font-family="Helvetica,sans-Serif" font-size="10.00">SDK::UState</text>
<polyline fill="none" stroke="black" points="610.5,-719.5 708.5,-719.5 "/>
<text text-anchor="start" x="618.5" y="-707.5" font-family="Helvetica,sans-Serif" font-size="10.00">+ UnknownData00</text>
<polyline fill="none" stroke="black" points="610.5,-700.5 708.5,-700.5 "/>
<text text-anchor="start" x="618.5" y="-688.5" font-family="Helvetica,sans-Serif" font-size="10.00">+ StaticClass()</text>
</a>
</g>
</g>
<!-- Node13&#45;&gt;Node12 -->
<g id="edge15" class="edge">
<title>Node13&#45;&gt;Node12</title>
<path fill="none" stroke="midnightblue" d="M645.27,-671.89C641.8,-662.85 638.05,-653.08 634.47,-643.74"/>
<polygon fill="none" stroke="midnightblue" points="642.05,-673.29 648.9,-681.37 648.59,-670.78 642.05,-673.29"/>
</g>
<!-- Node14 -->
<g id="node14" class="node">
<title>Node14</title>
<g id="a_node14"><a xlink:href="../../d8/de9/classSDK_1_1UStruct.html" target="_top" xlink:title=" ">
<polygon fill="white" stroke="black" points="673.5,-833.5 673.5,-912.5 771.5,-912.5 771.5,-833.5 673.5,-833.5"/>
<text text-anchor="middle" x="722.5" y="-900.5" font-family="Helvetica,sans-Serif" font-size="10.00">SDK::UStruct</text>
<polyline fill="none" stroke="black" points="673.5,-893.5 771.5,-893.5 "/>
<text text-anchor="start" x="681.5" y="-881.5" font-family="Helvetica,sans-Serif" font-size="10.00">+ UnknownData00</text>
<text text-anchor="start" x="681.5" y="-870.5" font-family="Helvetica,sans-Serif" font-size="10.00">+ PropertySize</text>
<text text-anchor="start" x="681.5" y="-859.5" font-family="Helvetica,sans-Serif" font-size="10.00">+ UnknownData01</text>
<polyline fill="none" stroke="black" points="673.5,-852.5 771.5,-852.5 "/>
<text text-anchor="start" x="681.5" y="-840.5" font-family="Helvetica,sans-Serif" font-size="10.00">+ StaticClass()</text>
</a>
</g>
</g>
<!-- Node14&#45;&gt;Node13 -->
<g id="edge16" class="edge">
<title>Node14&#45;&gt;Node13</title>
<path fill="none" stroke="midnightblue" d="M703.67,-823.88C692.78,-796.06 679.47,-762.04 670.33,-738.66"/>
<polygon fill="none" stroke="midnightblue" points="700.51,-825.4 707.41,-833.44 707.03,-822.85 700.51,-825.4"/>
</g>
<!-- Node15&#45;&gt;Node14 -->
<g id="edge17" class="edge">
<title>Node15&#45;&gt;Node14</title>
<path fill="none" stroke="midnightblue" d="M690.36,-1032.71C692.29,-1004.44 696.1,-964.98 703.5,-931 704.81,-924.99 706.52,-918.72 708.39,-912.63"/>
<polygon fill="none" stroke="midnightblue" points="686.85,-1032.76 689.72,-1042.96 693.84,-1033.2 686.85,-1032.76"/>
</g>
<!-- Node15&#45;&gt;Node14 -->
<g id="edge20" class="edge">
<title>Node15&#45;&gt;Node14</title>
<path fill="none" stroke="#404040" d="M693.3,-1042.76C698.58,-1012.25 707.18,-962.57 713.68,-924.99"/>
<polygon fill="none" stroke="#404040" points="713.75,-924.58 710.83,-917.99 715.79,-912.76 718.71,-919.35 713.75,-924.58"/>
<text text-anchor="middle" x="740.5" y="-945" font-family="Helvetica,sans-Serif" font-size="10.00"> +SuperField</text>
<text text-anchor="middle" x="740.5" y="-934" font-family="Helvetica,sans-Serif" font-size="10.00">+Children</text>
</g>
<!-- Node15&#45;&gt;Node15 -->
<g id="edge19" class="edge">
<title>Node15&#45;&gt;Node15</title>
<path fill="none" stroke="#404040" d="M730.21,-1094.39C740.41,-1092.69 748,-1085.06 748,-1071.5 748,-1063.66 745.46,-1057.8 741.35,-1053.93"/>
<polygon fill="none" stroke="#404040" points="741.04,-1053.78 733.9,-1054.81 730.21,-1048.61 737.34,-1047.59 741.04,-1053.78"/>
<text text-anchor="middle" x="763.5" y="-1069" font-family="Helvetica,sans-Serif" font-size="10.00"> +Next</text>
</g>
<!-- Node16 -->
<g id="node16" class="node">
<title>Node16</title>
<g id="a_node16"><a xlink:href="../../d4/daf/structSDK_1_1FColor.html" target="_top" xlink:title=" ">
<polygon fill="white" stroke="black" points="876,-1291 876,-1392 949,-1392 949,-1291 876,-1291"/>
<text text-anchor="middle" x="912.5" y="-1380" font-family="Helvetica,sans-Serif" font-size="10.00">SDK::FColor</text>
<polyline fill="none" stroke="black" points="876,-1373 949,-1373 "/>
<text text-anchor="start" x="884" y="-1361" font-family="Helvetica,sans-Serif" font-size="10.00">+ B</text>
<text text-anchor="start" x="884" y="-1350" font-family="Helvetica,sans-Serif" font-size="10.00">+ G</text>
<text text-anchor="start" x="884" y="-1339" font-family="Helvetica,sans-Serif" font-size="10.00">+ R</text>
<text text-anchor="start" x="884" y="-1328" font-family="Helvetica,sans-Serif" font-size="10.00">+ A</text>
<polyline fill="none" stroke="black" points="876,-1321 949,-1321 "/>
<text text-anchor="start" x="884" y="-1309" font-family="Helvetica,sans-Serif" font-size="10.00">+ FColor()</text>
<text text-anchor="start" x="884" y="-1298" font-family="Helvetica,sans-Serif" font-size="10.00">+ FColor()</text>
</a>
</g>
</g>
<!-- Node16&#45;&gt;Node3 -->
<g id="edge22" class="edge">
<title>Node16&#45;&gt;Node3</title>
<path fill="none" stroke="#404040" d="M912.5,-1290.72C912.5,-1260.73 912.5,-1221.28 912.5,-1184.18"/>
<polygon fill="none" stroke="#404040" points="912.5,-1183.7 908.5,-1177.7 912.5,-1171.7 916.5,-1177.7 912.5,-1183.7"/>
<text text-anchor="middle" x="957.5" y="-1193" font-family="Helvetica,sans-Serif" font-size="10.00"> +ModuleEditorColor</text>
</g>
<!-- Node17 -->
<g id="node17" class="node">
<title>Node17</title>
<g id="a_node17"><a xlink:href="../../dd/d05/structSDK_1_1FOrbitOptions.html" target="_top" xlink:title=" ">
<polygon fill="white" stroke="black" points="903,-149.5 903,-228.5 1030,-228.5 1030,-149.5 903,-149.5"/>
<text text-anchor="middle" x="966.5" y="-216.5" font-family="Helvetica,sans-Serif" font-size="10.00">SDK::FOrbitOptions</text>
<polyline fill="none" stroke="black" points="903,-209.5 1030,-209.5 "/>
<text text-anchor="start" x="911" y="-197.5" font-family="Helvetica,sans-Serif" font-size="10.00">+ bProcessDuringSpawn</text>
<text text-anchor="start" x="911" y="-186.5" font-family="Helvetica,sans-Serif" font-size="10.00">+ bProcessDuringUpdate</text>
<text text-anchor="start" x="911" y="-175.5" font-family="Helvetica,sans-Serif" font-size="10.00">+ bUseEmitterTime</text>
<polyline fill="none" stroke="black" points="903,-168.5 1030,-168.5 "/>
<text text-anchor="middle" x="966.5" y="-156.5" font-family="Helvetica,sans-Serif" font-size="10.00"> </text>
</a>
</g>
</g>
<!-- Node17&#45;&gt;Node1 -->
<g id="edge23" class="edge">
<title>Node17&#45;&gt;Node1</title>
<path fill="none" stroke="#404040" d="M955.25,-149.35C948.19,-125.12 939.12,-93.97 932.02,-69.57"/>
<polygon fill="none" stroke="#404040" points="931.96,-69.37 926.44,-64.73 928.61,-57.85 934.13,-62.49 931.96,-69.37"/>
<text text-anchor="middle" x="992.5" y="-101" font-family="Helvetica,sans-Serif" font-size="10.00"> +RotationOptions</text>
<text text-anchor="middle" x="992.5" y="-90" font-family="Helvetica,sans-Serif" font-size="10.00">+OffsetOptions</text>
<text text-anchor="middle" x="992.5" y="-79" font-family="Helvetica,sans-Serif" font-size="10.00">+RotationRateOptions</text>
</g>
<!-- Node18 -->
<g id="node18" class="node">
<title>Node18</title>
<g id="a_node18"><a xlink:href="../../dd/d23/structSDK_1_1FRawDistributionVector.html" target="_top" xlink:title=" ">
<polygon fill="white" stroke="black" points="277.5,-160.5 277.5,-217.5 425.5,-217.5 425.5,-160.5 277.5,-160.5"/>
<text text-anchor="middle" x="351.5" y="-205.5" font-family="Helvetica,sans-Serif" font-size="10.00">SDK::FRawDistributionVector</text>
<polyline fill="none" stroke="black" points="277.5,-198.5 425.5,-198.5 "/>
<text text-anchor="middle" x="351.5" y="-186.5" font-family="Helvetica,sans-Serif" font-size="10.00"> </text>
<polyline fill="none" stroke="black" points="277.5,-179.5 425.5,-179.5 "/>
<text text-anchor="middle" x="351.5" y="-167.5" font-family="Helvetica,sans-Serif" font-size="10.00"> </text>
</a>
</g>
</g>
<!-- Node18&#45;&gt;Node1 -->
<g id="edge24" class="edge">
<title>Node18&#45;&gt;Node1</title>
<path fill="none" stroke="#404040" d="M425.59,-167.43C532.6,-137.71 729.65,-83 840.08,-52.33"/>
<polygon fill="none" stroke="#404040" points="840.24,-52.29 844.95,-46.83 851.8,-49.08 847.09,-54.54 840.24,-52.29"/>
<text text-anchor="middle" x="801.5" y="-101" font-family="Helvetica,sans-Serif" font-size="10.00"> +OffsetAmount</text>
<text text-anchor="middle" x="801.5" y="-90" font-family="Helvetica,sans-Serif" font-size="10.00">+RotationRateAmount</text>
<text text-anchor="middle" x="801.5" y="-79" font-family="Helvetica,sans-Serif" font-size="10.00">+RotationAmount</text>
</g>
<!-- Node19 -->
<g id="node19" class="node">
<title>Node19</title>
<g id="a_node19"><a xlink:href="../../dc/d37/structSDK_1_1FRawDistribution.html" target="_top" xlink:title=" ">
<polygon fill="white" stroke="black" points="0,-1482.5 0,-1594.5 143,-1594.5 143,-1482.5 0,-1482.5"/>
<text text-anchor="middle" x="71.5" y="-1582.5" font-family="Helvetica,sans-Serif" font-size="10.00">SDK::FRawDistribution</text>
<polyline fill="none" stroke="black" points="0,-1575.5 143,-1575.5 "/>
<text text-anchor="start" x="8" y="-1563.5" font-family="Helvetica,sans-Serif" font-size="10.00">+ Type</text>
<text text-anchor="start" x="8" y="-1552.5" font-family="Helvetica,sans-Serif" font-size="10.00">+ Op</text>
<text text-anchor="start" x="8" y="-1541.5" font-family="Helvetica,sans-Serif" font-size="10.00">+ LookupTableNumElements</text>
<text text-anchor="start" x="8" y="-1530.5" font-family="Helvetica,sans-Serif" font-size="10.00">+ LookupTableChunkSize</text>
<text text-anchor="start" x="8" y="-1519.5" font-family="Helvetica,sans-Serif" font-size="10.00">+ LookupTableTimeScale</text>
<text text-anchor="start" x="8" y="-1508.5" font-family="Helvetica,sans-Serif" font-size="10.00">+ LookupTableStartTime</text>
<polyline fill="none" stroke="black" points="0,-1501.5 143,-1501.5 "/>
<text text-anchor="middle" x="71.5" y="-1489.5" font-family="Helvetica,sans-Serif" font-size="10.00"> </text>
</a>
</g>
</g>
<!-- Node19&#45;&gt;Node18 -->
<g id="edge25" class="edge">
<title>Node19&#45;&gt;Node18</title>
<path fill="none" stroke="midnightblue" d="M78.84,-1472.14C85.9,-1403.57 95.5,-1292.61 95.5,-1196.5 95.5,-1196.5 95.5,-1196.5 95.5,-353.5 95.5,-266.49 201.85,-223.72 277.45,-204.31"/>
<polygon fill="none" stroke="midnightblue" points="75.33,-1472.05 77.77,-1482.36 82.29,-1472.78 75.33,-1472.05"/>
</g>
<!-- Node20&#45;&gt;Node19 -->
<g id="edge26" class="edge">
<title>Node20&#45;&gt;Node19</title>
<path fill="none" stroke="#404040" d="M91.76,-1755.19C87.49,-1709.74 82,-1651.35 77.82,-1606.79"/>
<polygon fill="none" stroke="#404040" points="77.8,-1606.56 73.25,-1600.96 76.68,-1594.61 81.22,-1600.21 77.8,-1606.56"/>
<text text-anchor="middle" x="123" y="-1672.5" font-family="Helvetica,sans-Serif" font-size="10.00"> +LookupTable</text>
</g>
<!-- Node21&#45;&gt;Node18 -->
<g id="edge28" class="edge">
<title>Node21&#45;&gt;Node18</title>
<path fill="none" stroke="#404040" d="M351.5,-314.75C351.5,-289.23 351.5,-255.88 351.5,-230.08"/>
<polygon fill="none" stroke="#404040" points="351.5,-229.73 347.5,-223.73 351.5,-217.73 355.5,-223.73 351.5,-229.73"/>
<text text-anchor="middle" x="381" y="-272" font-family="Helvetica,sans-Serif" font-size="10.00"> +Distribution</text>
</g>
<!-- Node22&#45;&gt;Node21 -->
<g id="edge29" class="edge">
<title>Node22&#45;&gt;Node21</title>
<path fill="none" stroke="midnightblue" d="M438.04,-440.97C423.27,-426.39 406.07,-409.4 390.92,-394.43"/>
<polygon fill="none" stroke="midnightblue" points="435.94,-443.82 445.51,-448.35 440.86,-438.84 435.94,-443.82"/>
</g>
<!-- Node23 -->
<g id="node23" class="node">
<title>Node23</title>
<g id="a_node23"><a xlink:href="../../df/d1c/classSDK_1_1TEnumAsByte.html" target="_top" xlink:title=" ">
<polygon fill="white" stroke="black" points="1048,-127.5 1048,-250.5 1195,-250.5 1195,-127.5 1048,-127.5"/>
<text text-anchor="start" x="1056" y="-238.5" font-family="Helvetica,sans-Serif" font-size="10.00">SDK::TEnumAsByte&lt; EOrbit</text>
<text text-anchor="middle" x="1121.5" y="-227.5" font-family="Helvetica,sans-Serif" font-size="10.00">ChainMode &gt;</text>
<polyline fill="none" stroke="black" points="1048,-220.5 1195,-220.5 "/>
<text text-anchor="start" x="1056" y="-208.5" font-family="Helvetica,sans-Serif" font-size="10.00">&#45; value</text>
<polyline fill="none" stroke="black" points="1048,-201.5 1195,-201.5 "/>
<text text-anchor="start" x="1056" y="-189.5" font-family="Helvetica,sans-Serif" font-size="10.00">+ TEnumAsByte()</text>
<text text-anchor="start" x="1056" y="-178.5" font-family="Helvetica,sans-Serif" font-size="10.00">+ TEnumAsByte()</text>
<text text-anchor="start" x="1056" y="-167.5" font-family="Helvetica,sans-Serif" font-size="10.00">+ TEnumAsByte()</text>
<text text-anchor="start" x="1056" y="-156.5" font-family="Helvetica,sans-Serif" font-size="10.00">+ TEnumAsByte()</text>
<text text-anchor="start" x="1056" y="-145.5" font-family="Helvetica,sans-Serif" font-size="10.00">+ operator EOrbitChainMode()</text>
<text text-anchor="start" x="1056" y="-134.5" font-family="Helvetica,sans-Serif" font-size="10.00">+ GetValue()</text>
</a>
</g>
</g>
<!-- Node23&#45;&gt;Node1 -->
<g id="edge34" class="edge">
<title>Node23&#45;&gt;Node1</title>
<path fill="none" stroke="#404040" d="M1090.19,-127.43C1078.24,-108.92 1063.18,-89.82 1045.5,-76 1032.23,-65.63 1016.4,-57.43 1000.53,-51.02"/>
<polygon fill="none" stroke="#404040" points="1000.23,-50.9 993.2,-52.52 989.01,-46.66 996.04,-45.04 1000.23,-50.9"/>
<text text-anchor="middle" x="1106" y="-90" font-family="Helvetica,sans-Serif" font-size="10.00"> +ChainMode</text>
</g>
<!-- Node24 -->
<g id="node24" class="node">
<title>Node24</title>
<g id="a_node24"><a xlink:href="../../df/d1c/classSDK_1_1TEnumAsByte.html" target="_top" xlink:title=" ">
<polygon fill="white" stroke="black" points="1043,-298.5 1043,-410.5 1200,-410.5 1200,-298.5 1043,-298.5"/>
<text text-anchor="middle" x="1121.5" y="-398.5" font-family="Helvetica,sans-Serif" font-size="10.00">SDK::TEnumAsByte&lt; TEnum &gt;</text>
<polyline fill="none" stroke="black" points="1043,-391.5 1200,-391.5 "/>
<text text-anchor="start" x="1051" y="-379.5" font-family="Helvetica,sans-Serif" font-size="10.00">&#45; value</text>
<polyline fill="none" stroke="black" points="1043,-372.5 1200,-372.5 "/>
<text text-anchor="start" x="1051" y="-360.5" font-family="Helvetica,sans-Serif" font-size="10.00">+ TEnumAsByte()</text>
<text text-anchor="start" x="1051" y="-349.5" font-family="Helvetica,sans-Serif" font-size="10.00">+ TEnumAsByte()</text>
<text text-anchor="start" x="1051" y="-338.5" font-family="Helvetica,sans-Serif" font-size="10.00">+ TEnumAsByte()</text>
<text text-anchor="start" x="1051" y="-327.5" font-family="Helvetica,sans-Serif" font-size="10.00">+ TEnumAsByte()</text>
<text text-anchor="start" x="1051" y="-316.5" font-family="Helvetica,sans-Serif" font-size="10.00">+ operator TEnum()</text>
<text text-anchor="start" x="1051" y="-305.5" font-family="Helvetica,sans-Serif" font-size="10.00">+ GetValue()</text>
</a>
</g>
</g>
<!-- Node24&#45;&gt;Node23 -->
<g id="edge35" class="edge">
<title>Node24&#45;&gt;Node23</title>
<path fill="none" stroke="orange" d="M1121.5,-287.94C1121.5,-275.62 1121.5,-262.79 1121.5,-250.63"/>
<polygon fill="orange" stroke="orange" points="1118,-288.15 1121.5,-298.15 1125,-288.15 1118,-288.15"/>
<text text-anchor="middle" x="1171" y="-272" font-family="Helvetica,sans-Serif" font-size="10.00"> &lt; EOrbitChainMode &gt;</text>
</g>
</g>
</svg>
