<?xml version="1.0" encoding="UTF-8" standalone="no"?>
<!DOCTYPE svg PUBLIC "-//W3C//DTD SVG 1.1//EN"
 "http://www.w3.org/Graphics/SVG/1.1/DTD/svg11.dtd">
<!-- Generated by graphviz version 2.41.20171026.1811 (20171026.1811)
 -->
<!-- Title: SDK::FSwitchObjectCase Pages: 1 -->
<svg width="638pt" height="1364pt"
 viewBox="0.00 0.00 638.00 1364.00" xmlns="http://www.w3.org/2000/svg" xmlns:xlink="http://www.w3.org/1999/xlink">
<g id="graph0" class="graph" transform="scale(1 1) rotate(0) translate(4 1360)">
<title>SDK::FSwitchObjectCase</title>
<polygon fill="white" stroke="transparent" points="-4,4 -4,-1360 634,-1360 634,4 -4,4"/>
<!-- Node1 -->
<g id="node1" class="node">
<title>Node1</title>
<g id="a_node1"><a xlink:title=" ">
<polygon fill="#bfbfbf" stroke="black" points="179,-394.5 179,-462.5 310,-462.5 310,-394.5 179,-394.5"/>
<text text-anchor="middle" x="244.5" y="-450.5" font-family="Helvetica,sans-Serif" font-size="10.00">SDK::FSwitchObjectCase</text>
<polyline fill="none" stroke="black" points="179,-443.5 310,-443.5 "/>
<text text-anchor="start" x="187" y="-431.5" font-family="Helvetica,sans-Serif" font-size="10.00">+ bFallThru</text>
<text text-anchor="start" x="187" y="-420.5" font-family="Helvetica,sans-Serif" font-size="10.00">+ bDefaultValue</text>
<polyline fill="none" stroke="black" points="179,-413.5 310,-413.5 "/>
<text text-anchor="middle" x="244.5" y="-401.5" font-family="Helvetica,sans-Serif" font-size="10.00"> </text>
</a>
</g>
</g>
<!-- Node2 -->
<g id="node2" class="node">
<title>Node2</title>
<g id="a_node2"><a xlink:href="../../d9/d45/classSDK_1_1UObject.html" target="_top" xlink:title=" ">
<polygon fill="white" stroke="black" points="239.5,-543.5 239.5,-787.5 437.5,-787.5 437.5,-543.5 239.5,-543.5"/>
<text text-anchor="middle" x="338.5" y="-775.5" font-family="Helvetica,sans-Serif" font-size="10.00">SDK::UObject</text>
<polyline fill="none" stroke="black" points="239.5,-768.5 437.5,-768.5 "/>
<text text-anchor="start" x="247.5" y="-756.5" font-family="Helvetica,sans-Serif" font-size="10.00">+ ObjectInternalInteger</text>
<text text-anchor="start" x="247.5" y="-745.5" font-family="Helvetica,sans-Serif" font-size="10.00">+ NetIndex</text>
<polyline fill="none" stroke="black" points="239.5,-738.5 437.5,-738.5 "/>
<text text-anchor="start" x="247.5" y="-726.5" font-family="Helvetica,sans-Serif" font-size="10.00">+ UObject::GetName()</text>
<text text-anchor="start" x="247.5" y="-715.5" font-family="Helvetica,sans-Serif" font-size="10.00">+ GetFullName()</text>
<text text-anchor="start" x="247.5" y="-704.5" font-family="Helvetica,sans-Serif" font-size="10.00">+ IsA()</text>
<text text-anchor="start" x="247.5" y="-693.5" font-family="Helvetica,sans-Serif" font-size="10.00">+ ProcessEvent()</text>
<text text-anchor="start" x="247.5" y="-682.5" font-family="Helvetica,sans-Serif" font-size="10.00">+ STATIC_ProfNodeEvent()</text>
<text text-anchor="start" x="247.5" y="-671.5" font-family="Helvetica,sans-Serif" font-size="10.00">+ STATIC_ProfNodeSetDepthThreshold()</text>
<text text-anchor="start" x="247.5" y="-660.5" font-family="Helvetica,sans-Serif" font-size="10.00">+ STATIC_ProfNodeSetTimeThreshold</text>
<text text-anchor="start" x="247.5" y="-649.5" font-family="Helvetica,sans-Serif" font-size="10.00">Seconds()</text>
<text text-anchor="start" x="247.5" y="-638.5" font-family="Helvetica,sans-Serif" font-size="10.00">+ STATIC_ProfNodeStop()</text>
<text text-anchor="start" x="247.5" y="-627.5" font-family="Helvetica,sans-Serif" font-size="10.00">+ STATIC_ProfNodeStart()</text>
<text text-anchor="start" x="247.5" y="-616.5" font-family="Helvetica,sans-Serif" font-size="10.00">+ STATIC_GetStringFromGuid()</text>
<text text-anchor="start" x="247.5" y="-605.5" font-family="Helvetica,sans-Serif" font-size="10.00">and 298 more...</text>
<text text-anchor="start" x="247.5" y="-594.5" font-family="Helvetica,sans-Serif" font-size="10.00">+ GetGlobalObjects()</text>
<text text-anchor="start" x="247.5" y="-583.5" font-family="Helvetica,sans-Serif" font-size="10.00">+ FindObject()</text>
<text text-anchor="start" x="247.5" y="-572.5" font-family="Helvetica,sans-Serif" font-size="10.00">+ FindClass()</text>
<text text-anchor="start" x="247.5" y="-561.5" font-family="Helvetica,sans-Serif" font-size="10.00">+ GetObjectCasted()</text>
<text text-anchor="start" x="247.5" y="-550.5" font-family="Helvetica,sans-Serif" font-size="10.00">+ StaticClass()</text>
</a>
</g>
</g>
<!-- Node2&#45;&gt;Node1 -->
<g id="edge1" class="edge">
<title>Node2&#45;&gt;Node1</title>
<path fill="none" stroke="#404040" d="M268.7,-543.47C266.09,-537.31 263.67,-531.13 261.5,-525 255.86,-509.06 252.03,-490.93 249.45,-474.79"/>
<polygon fill="none" stroke="#404040" points="249.45,-474.77 244.63,-469.41 247.72,-462.89 252.54,-468.26 249.45,-474.77"/>
<text text-anchor="middle" x="293" y="-517" font-family="Helvetica,sans-Serif" font-size="10.00"> +ObjectValue</text>
</g>
<!-- Node2&#45;&gt;Node2 -->
<g id="edge7" class="edge">
<title>Node2&#45;&gt;Node2</title>
<path fill="none" stroke="#404040" d="M437.51,-688.53C448.44,-684.15 455.5,-676.48 455.5,-665.5 455.5,-658.64 452.74,-653.07 448.01,-648.78"/>
<polygon fill="none" stroke="#404040" points="447.8,-648.66 440.59,-648.99 437.51,-642.47 444.72,-642.14 447.8,-648.66"/>
<text text-anchor="middle" x="495" y="-674" font-family="Helvetica,sans-Serif" font-size="10.00"> +Outer</text>
<text text-anchor="middle" x="495" y="-663" font-family="Helvetica,sans-Serif" font-size="10.00">+Linker</text>
<text text-anchor="middle" x="495" y="-652" font-family="Helvetica,sans-Serif" font-size="10.00">+ObjectArchetype</text>
</g>
<!-- Node8 -->
<g id="node8" class="node">
<title>Node8</title>
<g id="a_node8"><a xlink:href="../../d3/d79/classSDK_1_1TArray.html" target="_top" xlink:title=" ">
<polygon fill="white" stroke="black" points="0,-361.5 0,-495.5 161,-495.5 161,-361.5 0,-361.5"/>
<text text-anchor="middle" x="80.5" y="-483.5" font-family="Helvetica,sans-Serif" font-size="10.00">SDK::TArray&lt; SDK::UObject * &gt;</text>
<polyline fill="none" stroke="black" points="0,-476.5 161,-476.5 "/>
<text text-anchor="start" x="8" y="-464.5" font-family="Helvetica,sans-Serif" font-size="10.00">&#45; Count</text>
<text text-anchor="start" x="8" y="-453.5" font-family="Helvetica,sans-Serif" font-size="10.00">&#45; Max</text>
<polyline fill="none" stroke="black" points="0,-446.5 161,-446.5 "/>
<text text-anchor="start" x="8" y="-434.5" font-family="Helvetica,sans-Serif" font-size="10.00">+ TArray()</text>
<text text-anchor="start" x="8" y="-423.5" font-family="Helvetica,sans-Serif" font-size="10.00">+ Num()</text>
<text text-anchor="start" x="8" y="-412.5" font-family="Helvetica,sans-Serif" font-size="10.00">+ operator[]()</text>
<text text-anchor="start" x="8" y="-401.5" font-family="Helvetica,sans-Serif" font-size="10.00">+ operator[]()</text>
<text text-anchor="start" x="8" y="-390.5" font-family="Helvetica,sans-Serif" font-size="10.00">+ IsValidIndex()</text>
<text text-anchor="start" x="8" y="-379.5" font-family="Helvetica,sans-Serif" font-size="10.00">+ GetByIndex()</text>
<text text-anchor="start" x="8" y="-368.5" font-family="Helvetica,sans-Serif" font-size="10.00">+ GetByIndex()</text>
</a>
</g>
</g>
<!-- Node2&#45;&gt;Node8 -->
<g id="edge9" class="edge">
<title>Node2&#45;&gt;Node8</title>
<path fill="none" stroke="#404040" d="M239.3,-601.41C208.17,-579.23 174.82,-552.84 147.5,-525 141.5,-518.89 135.66,-512.19 130.08,-505.26"/>
<polygon fill="none" stroke="#404040" points="130.02,-505.19 123.18,-502.91 122.65,-495.72 129.49,-498 130.02,-505.19"/>
<text text-anchor="middle" x="161.5" y="-517" font-family="Helvetica,sans-Serif" font-size="10.00"> &#45;Data</text>
</g>
<!-- Node10 -->
<g id="node10" class="node">
<title>Node10</title>
<g id="a_node10"><a xlink:href="../../d7/d85/classSDK_1_1UClass.html" target="_top" xlink:title=" ">
<polygon fill="white" stroke="black" points="409,-0.5 409,-90.5 530,-90.5 530,-0.5 409,-0.5"/>
<text text-anchor="middle" x="469.5" y="-78.5" font-family="Helvetica,sans-Serif" font-size="10.00">SDK::UClass</text>
<polyline fill="none" stroke="black" points="409,-71.5 530,-71.5 "/>
<text text-anchor="start" x="417" y="-59.5" font-family="Helvetica,sans-Serif" font-size="10.00">+ UnknownData00</text>
<text text-anchor="start" x="417" y="-48.5" font-family="Helvetica,sans-Serif" font-size="10.00">+ UnknownData01</text>
<polyline fill="none" stroke="black" points="409,-41.5 530,-41.5 "/>
<text text-anchor="start" x="417" y="-29.5" font-family="Helvetica,sans-Serif" font-size="10.00">+ CreateDefaultObject()</text>
<text text-anchor="start" x="417" y="-18.5" font-family="Helvetica,sans-Serif" font-size="10.00">+ CreateDefaultObject()</text>
<text text-anchor="start" x="417" y="-7.5" font-family="Helvetica,sans-Serif" font-size="10.00">+ StaticClass()</text>
</a>
</g>
</g>
<!-- Node2&#45;&gt;Node10 -->
<g id="edge19" class="edge">
<title>Node2&#45;&gt;Node10</title>
<path fill="none" stroke="#404040" d="M338.5,-543.44C338.5,-506.83 338.5,-466.52 338.5,-429.5 338.5,-429.5 338.5,-429.5 338.5,-156 338.5,-120.34 367.44,-94.01 398.11,-76.12"/>
<polygon fill="none" stroke="#404040" points="398.47,-75.92 401.8,-69.53 408.98,-70.14 405.65,-76.54 398.47,-75.92"/>
<text text-anchor="middle" x="386" y="-260.5" font-family="Helvetica,sans-Serif" font-size="10.00"> +ClassDefaultObject</text>
</g>
<!-- Node13 -->
<g id="node13" class="node">
<title>Node13</title>
<g id="a_node13"><a xlink:href="../../de/dd6/classSDK_1_1UField.html" target="_top" xlink:title=" ">
<polygon fill="white" stroke="black" points="498,-400 498,-457 581,-457 581,-400 498,-400"/>
<text text-anchor="middle" x="539.5" y="-445" font-family="Helvetica,sans-Serif" font-size="10.00">SDK::UField</text>
<polyline fill="none" stroke="black" points="498,-438 581,-438 "/>
<text text-anchor="middle" x="539.5" y="-426" font-family="Helvetica,sans-Serif" font-size="10.00"> </text>
<polyline fill="none" stroke="black" points="498,-419 581,-419 "/>
<text text-anchor="start" x="506" y="-407" font-family="Helvetica,sans-Serif" font-size="10.00">+ StaticClass()</text>
</a>
</g>
</g>
<!-- Node2&#45;&gt;Node13 -->
<g id="edge16" class="edge">
<title>Node2&#45;&gt;Node13</title>
<path fill="none" stroke="midnightblue" d="M445,-568.73C458.58,-554.63 471.81,-539.83 483.5,-525 500.28,-503.72 515.56,-476.91 525.91,-457.12"/>
<polygon fill="none" stroke="midnightblue" points="442.35,-566.44 437.87,-576.04 447.36,-571.33 442.35,-566.44"/>
</g>
<!-- Node3 -->
<g id="node3" class="node">
<title>Node3</title>
<g id="a_node3"><a xlink:href="../../d0/d22/structSDK_1_1FQWord.html" target="_top" xlink:title=" ">
<polygon fill="white" stroke="black" points="409.5,-885 409.5,-953 489.5,-953 489.5,-885 409.5,-885"/>
<text text-anchor="middle" x="449.5" y="-941" font-family="Helvetica,sans-Serif" font-size="10.00">SDK::FQWord</text>
<polyline fill="none" stroke="black" points="409.5,-934 489.5,-934 "/>
<text text-anchor="start" x="417.5" y="-922" font-family="Helvetica,sans-Serif" font-size="10.00">+ A</text>
<text text-anchor="start" x="417.5" y="-911" font-family="Helvetica,sans-Serif" font-size="10.00">+ B</text>
<polyline fill="none" stroke="black" points="409.5,-904 489.5,-904 "/>
<text text-anchor="middle" x="449.5" y="-892" font-family="Helvetica,sans-Serif" font-size="10.00"> </text>
</a>
</g>
</g>
<!-- Node3&#45;&gt;Node2 -->
<g id="edge2" class="edge">
<title>Node3&#45;&gt;Node2</title>
<path fill="none" stroke="#404040" d="M440.9,-884.55C434.65,-861.97 425.39,-831.7 414.5,-806 413.45,-803.52 412.37,-801.03 411.27,-798.54"/>
<polygon fill="none" stroke="#404040" points="411.23,-798.46 405.1,-794.65 406.26,-787.54 412.38,-791.34 411.23,-798.46"/>
<text text-anchor="middle" x="456.5" y="-820" font-family="Helvetica,sans-Serif" font-size="10.00"> +ObjectFlags</text>
</g>
<!-- Node4 -->
<g id="node4" class="node">
<title>Node4</title>
<g id="a_node4"><a xlink:href="../../d0/db6/structSDK_1_1FName.html" target="_top" xlink:title=" ">
<polygon fill="white" stroke="black" points="169,-857.5 169,-980.5 276,-980.5 276,-857.5 169,-857.5"/>
<text text-anchor="middle" x="222.5" y="-968.5" font-family="Helvetica,sans-Serif" font-size="10.00">SDK::FName</text>
<polyline fill="none" stroke="black" points="169,-961.5 276,-961.5 "/>
<text text-anchor="start" x="177" y="-949.5" font-family="Helvetica,sans-Serif" font-size="10.00">+ Index</text>
<text text-anchor="start" x="177" y="-938.5" font-family="Helvetica,sans-Serif" font-size="10.00">+ Number</text>
<polyline fill="none" stroke="black" points="169,-931.5 276,-931.5 "/>
<text text-anchor="start" x="177" y="-919.5" font-family="Helvetica,sans-Serif" font-size="10.00">+ FName()</text>
<text text-anchor="start" x="177" y="-908.5" font-family="Helvetica,sans-Serif" font-size="10.00">+ FName()</text>
<text text-anchor="start" x="177" y="-897.5" font-family="Helvetica,sans-Serif" font-size="10.00">+ FName()</text>
<text text-anchor="start" x="177" y="-886.5" font-family="Helvetica,sans-Serif" font-size="10.00">+ GetName()</text>
<text text-anchor="start" x="177" y="-875.5" font-family="Helvetica,sans-Serif" font-size="10.00">+ operator==()</text>
<text text-anchor="start" x="177" y="-864.5" font-family="Helvetica,sans-Serif" font-size="10.00">+ GetGlobalNames()</text>
</a>
</g>
</g>
<!-- Node4&#45;&gt;Node2 -->
<g id="edge3" class="edge">
<title>Node4&#45;&gt;Node2</title>
<path fill="none" stroke="#404040" d="M250.43,-857.44C258.67,-839.57 268.03,-819.28 277.5,-798.76"/>
<polygon fill="none" stroke="#404040" points="277.58,-798.58 276.46,-791.46 282.61,-787.69 283.72,-794.81 277.58,-798.58"/>
<text text-anchor="middle" x="292.5" y="-820" font-family="Helvetica,sans-Serif" font-size="10.00"> +Name</text>
</g>
<!-- Node5 -->
<g id="node5" class="node">
<title>Node5</title>
<g id="a_node5"><a xlink:href="../../d3/d79/classSDK_1_1TArray.html" target="_top" xlink:title=" ">
<polygon fill="white" stroke="black" points="132.5,-1028.5 132.5,-1162.5 312.5,-1162.5 312.5,-1028.5 132.5,-1028.5"/>
<text text-anchor="middle" x="222.5" y="-1150.5" font-family="Helvetica,sans-Serif" font-size="10.00">SDK::TArray&lt; SDK::FNameEntry * &gt;</text>
<polyline fill="none" stroke="black" points="132.5,-1143.5 312.5,-1143.5 "/>
<text text-anchor="start" x="140.5" y="-1131.5" font-family="Helvetica,sans-Serif" font-size="10.00">&#45; Count</text>
<text text-anchor="start" x="140.5" y="-1120.5" font-family="Helvetica,sans-Serif" font-size="10.00">&#45; Max</text>
<polyline fill="none" stroke="black" points="132.5,-1113.5 312.5,-1113.5 "/>
<text text-anchor="start" x="140.5" y="-1101.5" font-family="Helvetica,sans-Serif" font-size="10.00">+ TArray()</text>
<text text-anchor="start" x="140.5" y="-1090.5" font-family="Helvetica,sans-Serif" font-size="10.00">+ Num()</text>
<text text-anchor="start" x="140.5" y="-1079.5" font-family="Helvetica,sans-Serif" font-size="10.00">+ operator[]()</text>
<text text-anchor="start" x="140.5" y="-1068.5" font-family="Helvetica,sans-Serif" font-size="10.00">+ operator[]()</text>
<text text-anchor="start" x="140.5" y="-1057.5" font-family="Helvetica,sans-Serif" font-size="10.00">+ IsValidIndex()</text>
<text text-anchor="start" x="140.5" y="-1046.5" font-family="Helvetica,sans-Serif" font-size="10.00">+ GetByIndex()</text>
<text text-anchor="start" x="140.5" y="-1035.5" font-family="Helvetica,sans-Serif" font-size="10.00">+ GetByIndex()</text>
</a>
</g>
</g>
<!-- Node5&#45;&gt;Node4 -->
<g id="edge4" class="edge">
<title>Node5&#45;&gt;Node4</title>
<path fill="none" stroke="#404040" d="M222.5,-1028.03C222.5,-1016.45 222.5,-1004.35 222.5,-992.62"/>
<polygon fill="none" stroke="#404040" points="222.5,-992.56 218.5,-986.56 222.5,-980.56 226.5,-986.56 222.5,-992.56"/>
<text text-anchor="middle" x="247" y="-1002" font-family="Helvetica,sans-Serif" font-size="10.00"> +GNames</text>
</g>
<!-- Node6 -->
<g id="node6" class="node">
<title>Node6</title>
<g id="a_node6"><a xlink:href="../../d7/ddf/classSDK_1_1FNameEntry.html" target="_top" xlink:title=" ">
<polygon fill="white" stroke="black" points="177,-1249 177,-1317 276,-1317 276,-1249 177,-1249"/>
<text text-anchor="middle" x="226.5" y="-1305" font-family="Helvetica,sans-Serif" font-size="10.00">SDK::FNameEntry</text>
<polyline fill="none" stroke="black" points="177,-1298 276,-1298 "/>
<text text-anchor="start" x="185" y="-1286" font-family="Helvetica,sans-Serif" font-size="10.00">+ UnknownData00</text>
<text text-anchor="start" x="185" y="-1275" font-family="Helvetica,sans-Serif" font-size="10.00">+ name</text>
<polyline fill="none" stroke="black" points="177,-1268 276,-1268 "/>
<text text-anchor="start" x="185" y="-1256" font-family="Helvetica,sans-Serif" font-size="10.00">+ GetName()</text>
</a>
</g>
</g>
<!-- Node6&#45;&gt;Node5 -->
<g id="edge5" class="edge">
<title>Node6&#45;&gt;Node5</title>
<path fill="none" stroke="#404040" d="M225.78,-1248.84C225.34,-1228.23 224.75,-1200.83 224.19,-1174.95"/>
<polygon fill="none" stroke="#404040" points="224.19,-1174.8 220.06,-1168.89 223.93,-1162.8 228.06,-1168.71 224.19,-1174.8"/>
<text text-anchor="middle" x="238.5" y="-1184" font-family="Helvetica,sans-Serif" font-size="10.00"> &#45;Data</text>
</g>
<!-- Node7 -->
<g id="node7" class="node">
<title>Node7</title>
<g id="a_node7"><a xlink:href="../../d3/d79/classSDK_1_1TArray.html" target="_top" xlink:title=" ">
<polygon fill="white" stroke="black" points="28,-1210.5 28,-1355.5 125,-1355.5 125,-1210.5 28,-1210.5"/>
<text text-anchor="middle" x="76.5" y="-1343.5" font-family="Helvetica,sans-Serif" font-size="10.00">SDK::TArray&lt; T &gt;</text>
<polyline fill="none" stroke="black" points="28,-1336.5 125,-1336.5 "/>
<text text-anchor="start" x="36" y="-1324.5" font-family="Helvetica,sans-Serif" font-size="10.00">&#45; Data</text>
<text text-anchor="start" x="36" y="-1313.5" font-family="Helvetica,sans-Serif" font-size="10.00">&#45; Count</text>
<text text-anchor="start" x="36" y="-1302.5" font-family="Helvetica,sans-Serif" font-size="10.00">&#45; Max</text>
<polyline fill="none" stroke="black" points="28,-1295.5 125,-1295.5 "/>
<text text-anchor="start" x="36" y="-1283.5" font-family="Helvetica,sans-Serif" font-size="10.00">+ TArray()</text>
<text text-anchor="start" x="36" y="-1272.5" font-family="Helvetica,sans-Serif" font-size="10.00">+ Num()</text>
<text text-anchor="start" x="36" y="-1261.5" font-family="Helvetica,sans-Serif" font-size="10.00">+ operator[]()</text>
<text text-anchor="start" x="36" y="-1250.5" font-family="Helvetica,sans-Serif" font-size="10.00">+ operator[]()</text>
<text text-anchor="start" x="36" y="-1239.5" font-family="Helvetica,sans-Serif" font-size="10.00">+ IsValidIndex()</text>
<text text-anchor="start" x="36" y="-1228.5" font-family="Helvetica,sans-Serif" font-size="10.00">+ GetByIndex()</text>
<text text-anchor="start" x="36" y="-1217.5" font-family="Helvetica,sans-Serif" font-size="10.00">+ GetByIndex()</text>
</a>
</g>
</g>
<!-- Node7&#45;&gt;Node5 -->
<g id="edge6" class="edge">
<title>Node7&#45;&gt;Node5</title>
<path fill="none" stroke="orange" d="M98.01,-1200.72C101.33,-1193.77 105.14,-1187.08 109.5,-1181 116.07,-1171.84 123.92,-1163.25 132.39,-1155.31"/>
<polygon fill="orange" stroke="orange" points="94.61,-1199.77 93.78,-1210.33 101.01,-1202.59 94.61,-1199.77"/>
<text text-anchor="middle" x="165" y="-1184" font-family="Helvetica,sans-Serif" font-size="10.00"> &lt; SDK::FNameEntry * &gt;</text>
</g>
<!-- Node7&#45;&gt;Node8 -->
<g id="edge10" class="edge">
<title>Node7&#45;&gt;Node8</title>
<path fill="none" stroke="orange" d="M65.75,-1200.08C62.37,-1167.85 59.5,-1130.5 59.5,-1096.5 59.5,-1096.5 59.5,-1096.5 59.5,-664.5 59.5,-607.36 65.74,-542.71 71.41,-495.71"/>
<polygon fill="orange" stroke="orange" points="62.3,-1200.78 66.86,-1210.35 69.26,-1200.03 62.3,-1200.78"/>
<text text-anchor="middle" x="105" y="-916.5" font-family="Helvetica,sans-Serif" font-size="10.00"> &lt; SDK::UObject * &gt;</text>
</g>
<!-- Node8&#45;&gt;Node2 -->
<g id="edge8" class="edge">
<title>Node8&#45;&gt;Node2</title>
<path fill="none" stroke="#404040" d="M153.2,-495.72C177.16,-517.54 204.33,-542.29 230.34,-565.98"/>
<polygon fill="none" stroke="#404040" points="230.62,-566.23 237.75,-567.32 239.49,-574.31 232.36,-573.23 230.62,-566.23"/>
<text text-anchor="middle" x="205" y="-517" font-family="Helvetica,sans-Serif" font-size="10.00"> +GObjects</text>
</g>
<!-- Node9 -->
<g id="node9" class="node">
<title>Node9</title>
<g id="a_node9"><a xlink:href="../../d9/dfa/structSDK_1_1FPointer.html" target="_top" xlink:title=" ">
<polygon fill="white" stroke="black" points="293.5,-885 293.5,-953 391.5,-953 391.5,-885 293.5,-885"/>
<text text-anchor="middle" x="342.5" y="-941" font-family="Helvetica,sans-Serif" font-size="10.00">SDK::FPointer</text>
<polyline fill="none" stroke="black" points="293.5,-934 391.5,-934 "/>
<text text-anchor="start" x="301.5" y="-922" font-family="Helvetica,sans-Serif" font-size="10.00">+ Dummy</text>
<text text-anchor="start" x="301.5" y="-911" font-family="Helvetica,sans-Serif" font-size="10.00">+ UnknownData00</text>
<polyline fill="none" stroke="black" points="293.5,-904 391.5,-904 "/>
<text text-anchor="middle" x="342.5" y="-892" font-family="Helvetica,sans-Serif" font-size="10.00"> </text>
</a>
</g>
</g>
<!-- Node9&#45;&gt;Node2 -->
<g id="edge11" class="edge">
<title>Node9&#45;&gt;Node2</title>
<path fill="none" stroke="#404040" d="M341.97,-884.86C341.62,-862.57 341.13,-831.56 340.62,-799.9"/>
<polygon fill="none" stroke="#404040" points="340.62,-799.75 336.52,-793.81 340.43,-787.75 344.52,-793.69 340.62,-799.75"/>
<text text-anchor="middle" x="376" y="-831" font-family="Helvetica,sans-Serif" font-size="10.00"> +StateFrame</text>
<text text-anchor="middle" x="376" y="-820" font-family="Helvetica,sans-Serif" font-size="10.00">+VfTableObject</text>
<text text-anchor="middle" x="376" y="-809" font-family="Helvetica,sans-Serif" font-size="10.00">+LinkerIndex</text>
</g>
<!-- Node10&#45;&gt;Node2 -->
<g id="edge12" class="edge">
<title>Node10&#45;&gt;Node2</title>
<path fill="none" stroke="#404040" d="M469.5,-90.72C469.5,-110.67 469.5,-134.52 469.5,-156 469.5,-429.5 469.5,-429.5 469.5,-429.5 469.5,-465.28 457.77,-500.68 441.34,-532.73"/>
<polygon fill="none" stroke="#404040" points="441.25,-532.89 441.95,-540.07 435.59,-543.47 434.9,-536.29 441.25,-532.89"/>
<text text-anchor="middle" x="487" y="-260.5" font-family="Helvetica,sans-Serif" font-size="10.00"> +Class</text>
</g>
<!-- Node11 -->
<g id="node11" class="node">
<title>Node11</title>
<g id="a_node11"><a xlink:href="../../df/d72/classSDK_1_1UState.html" target="_top" xlink:title=" ">
<polygon fill="white" stroke="black" points="509.5,-128.5 509.5,-185.5 607.5,-185.5 607.5,-128.5 509.5,-128.5"/>
<text text-anchor="middle" x="558.5" y="-173.5" font-family="Helvetica,sans-Serif" font-size="10.00">SDK::UState</text>
<polyline fill="none" stroke="black" points="509.5,-166.5 607.5,-166.5 "/>
<text text-anchor="start" x="517.5" y="-154.5" font-family="Helvetica,sans-Serif" font-size="10.00">+ UnknownData00</text>
<polyline fill="none" stroke="black" points="509.5,-147.5 607.5,-147.5 "/>
<text text-anchor="start" x="517.5" y="-135.5" font-family="Helvetica,sans-Serif" font-size="10.00">+ StaticClass()</text>
</a>
</g>
</g>
<!-- Node11&#45;&gt;Node10 -->
<g id="edge13" class="edge">
<title>Node11&#45;&gt;Node10</title>
<path fill="none" stroke="midnightblue" d="M529.51,-120.33C521.83,-110.89 513.45,-100.58 505.46,-90.74"/>
<polygon fill="none" stroke="midnightblue" points="527.02,-122.82 536.04,-128.37 532.45,-118.4 527.02,-122.82"/>
</g>
<!-- Node12 -->
<g id="node12" class="node">
<title>Node12</title>
<g id="a_node12"><a xlink:href="../../d8/de9/classSDK_1_1UStruct.html" target="_top" xlink:title=" ">
<polygon fill="white" stroke="black" points="522.5,-223.5 522.5,-302.5 620.5,-302.5 620.5,-223.5 522.5,-223.5"/>
<text text-anchor="middle" x="571.5" y="-290.5" font-family="Helvetica,sans-Serif" font-size="10.00">SDK::UStruct</text>
<polyline fill="none" stroke="black" points="522.5,-283.5 620.5,-283.5 "/>
<text text-anchor="start" x="530.5" y="-271.5" font-family="Helvetica,sans-Serif" font-size="10.00">+ UnknownData00</text>
<text text-anchor="start" x="530.5" y="-260.5" font-family="Helvetica,sans-Serif" font-size="10.00">+ PropertySize</text>
<text text-anchor="start" x="530.5" y="-249.5" font-family="Helvetica,sans-Serif" font-size="10.00">+ UnknownData01</text>
<polyline fill="none" stroke="black" points="522.5,-242.5 620.5,-242.5 "/>
<text text-anchor="start" x="530.5" y="-230.5" font-family="Helvetica,sans-Serif" font-size="10.00">+ StaticClass()</text>
</a>
</g>
</g>
<!-- Node12&#45;&gt;Node11 -->
<g id="edge14" class="edge">
<title>Node12&#45;&gt;Node11</title>
<path fill="none" stroke="midnightblue" d="M565.4,-213.16C564.22,-203.74 563.02,-194.17 561.96,-185.72"/>
<polygon fill="none" stroke="midnightblue" points="561.95,-213.79 566.66,-223.27 568.89,-212.92 561.95,-213.79"/>
</g>
<!-- Node13&#45;&gt;Node12 -->
<g id="edge15" class="edge">
<title>Node13&#45;&gt;Node12</title>
<path fill="none" stroke="midnightblue" d="M542.28,-389.47C544.24,-369.01 547.44,-343.44 552.5,-321 553.85,-315 555.59,-308.73 557.47,-302.65"/>
<polygon fill="none" stroke="midnightblue" points="538.77,-389.38 541.36,-399.66 545.75,-390.01 538.77,-389.38"/>
</g>
<!-- Node13&#45;&gt;Node12 -->
<g id="edge18" class="edge">
<title>Node13&#45;&gt;Node12</title>
<path fill="none" stroke="#404040" d="M544.93,-399.76C549.48,-376.51 556.1,-342.7 561.59,-314.64"/>
<polygon fill="none" stroke="#404040" points="561.64,-314.39 558.86,-307.74 563.94,-302.62 566.72,-309.27 561.64,-314.39"/>
<text text-anchor="middle" x="587.5" y="-335" font-family="Helvetica,sans-Serif" font-size="10.00"> +SuperField</text>
<text text-anchor="middle" x="587.5" y="-324" font-family="Helvetica,sans-Serif" font-size="10.00">+Children</text>
</g>
<!-- Node13&#45;&gt;Node13 -->
<g id="edge17" class="edge">
<title>Node13&#45;&gt;Node13</title>
<path fill="none" stroke="#404040" d="M581.21,-445.11C591.41,-443.88 599,-438.34 599,-428.5 599,-422.96 596.6,-418.79 592.68,-415.98"/>
<polygon fill="none" stroke="#404040" points="592.51,-415.92 585.51,-417.67 581.21,-411.89 588.2,-410.13 592.51,-415.92"/>
<text text-anchor="middle" x="614.5" y="-426" font-family="Helvetica,sans-Serif" font-size="10.00"> +Next</text>
</g>
</g>
</svg>
