<?xml version="1.0" encoding="UTF-8" standalone="no"?>
<!DOCTYPE svg PUBLIC "-//W3C//DTD SVG 1.1//EN"
 "http://www.w3.org/Graphics/SVG/1.1/DTD/svg11.dtd">
<!-- Generated by graphviz version 2.41.20171026.1811 (20171026.1811)
 -->
<!-- Title: SDK::UEFParticleModuleLocationEmitter Pages: 1 -->
<!--zoomable 1550 -->
<svg id="main" version="1.1" xmlns="http://www.w3.org/2000/svg" xmlns:xlink="http://www.w3.org/1999/xlink" xml:space="preserve" onload="init(evt)">
<style type="text/css"><![CDATA[
.edge:hover path { stroke: red; }
.edge:hover polygon { stroke: red; fill: red; }
]]></style>
<script type="text/javascript"><![CDATA[
var edges = document.getElementsByTagName('g');
if (edges && edges.length) {
  for (var i=0;i<edges.length;i++) {
    if (edges[i].id.substr(0,4)=='edge') {
      edges[i].setAttribute('class','edge');
    }
  }
}
]]></script>
        <defs>
                <circle id="rim" cx="0" cy="0" r="7"/>
                <circle id="rim2" cx="0" cy="0" r="3.5"/>
                <g id="zoomPlus">
                        <use xlink:href="#rim" fill="#404040">
                                <set attributeName="fill" to="#808080" begin="zoomplus.mouseover" end="zoomplus.mouseout"/>
                        </use>
                        <path d="M-4,0h8M0,-4v8" fill="none" stroke="white" stroke-width="1.5" pointer-events="none"/>
                </g>
                <g id="zoomMin">
                        <use xlink:href="#rim" fill="#404040">
                                <set attributeName="fill" to="#808080" begin="zoomminus.mouseover" end="zoomminus.mouseout"/>
                        </use>
                        <path d="M-4,0h8" fill="none" stroke="white" stroke-width="1.5" pointer-events="none"/>
                </g>
                <g id="dirArrow">
                        <path fill="none" stroke="white" stroke-width="1.5" d="M0,-3.0v7 M-2.5,-0.5L0,-3.0L2.5,-0.5"/>
                </g>
               <g id="resetDef">
                       <use xlink:href="#rim2" fill="#404040">
                               <set attributeName="fill" to="#808080" begin="reset.mouseover" end="reset.mouseout"/>
                       </use>
               </g>
        </defs>

<script type="text/javascript">
var viewWidth = 988;
var viewHeight = 1550;
var sectionId = 'dynsection-1';
</script>
<script xlink:href="../../svgpan.js"/>
<svg id="graph" class="graph">
<g id="viewport">
<title>SDK::UEFParticleModuleLocationEmitter</title>
<polygon fill="white" stroke="transparent" points="-4,4 -4,-1546 983.5,-1546 983.5,4 -4,4"/>
<!-- Node1 -->
<g id="node1" class="node">
<title>Node1</title>
<g id="a_node1"><a xlink:title=" ">
<polygon fill="#bfbfbf" stroke="black" points="619,-11.5 619,-79.5 784,-79.5 784,-11.5 619,-11.5"/>
<text text-anchor="start" x="627" y="-67.5" font-family="Helvetica,sans-Serif" font-size="10.00">SDK::UEFParticleModuleLocation</text>
<text text-anchor="middle" x="701.5" y="-56.5" font-family="Helvetica,sans-Serif" font-size="10.00">Emitter</text>
<polyline fill="none" stroke="black" points="619,-49.5 784,-49.5 "/>
<text text-anchor="middle" x="701.5" y="-37.5" font-family="Helvetica,sans-Serif" font-size="10.00"> </text>
<polyline fill="none" stroke="black" points="619,-30.5 784,-30.5 "/>
<text text-anchor="start" x="627" y="-18.5" font-family="Helvetica,sans-Serif" font-size="10.00">+ StaticClass()</text>
</a>
</g>
</g>
<!-- Node2 -->
<g id="node2" class="node">
<title>Node2</title>
<g id="a_node2"><a xlink:href="../../d1/d72/classSDK_1_1UParticleModuleLocationEmitter.html" target="_top" xlink:title=" ">
<polygon fill="white" stroke="black" points="625.5,-128.5 625.5,-240.5 777.5,-240.5 777.5,-128.5 625.5,-128.5"/>
<text text-anchor="start" x="633.5" y="-228.5" font-family="Helvetica,sans-Serif" font-size="10.00">SDK::UParticleModuleLocation</text>
<text text-anchor="middle" x="701.5" y="-217.5" font-family="Helvetica,sans-Serif" font-size="10.00">Emitter</text>
<polyline fill="none" stroke="black" points="625.5,-210.5 777.5,-210.5 "/>
<text text-anchor="start" x="633.5" y="-198.5" font-family="Helvetica,sans-Serif" font-size="10.00">+ UnknownData00</text>
<text text-anchor="start" x="633.5" y="-187.5" font-family="Helvetica,sans-Serif" font-size="10.00">+ InheritSourceVelocity</text>
<text text-anchor="start" x="633.5" y="-176.5" font-family="Helvetica,sans-Serif" font-size="10.00">+ bInheritSourceRotation</text>
<text text-anchor="start" x="633.5" y="-165.5" font-family="Helvetica,sans-Serif" font-size="10.00">+ InheritSourceVelocityScale</text>
<text text-anchor="start" x="633.5" y="-154.5" font-family="Helvetica,sans-Serif" font-size="10.00">+ InheritSourceRotationScale</text>
<polyline fill="none" stroke="black" points="625.5,-147.5 777.5,-147.5 "/>
<text text-anchor="start" x="633.5" y="-135.5" font-family="Helvetica,sans-Serif" font-size="10.00">+ StaticClass()</text>
</a>
</g>
</g>
<!-- Node2&#45;&gt;Node1 -->
<g id="edge1" class="edge">
<title>Node2&#45;&gt;Node1</title>
<path fill="none" stroke="midnightblue" d="M701.5,-118.03C701.5,-104.68 701.5,-91.18 701.5,-79.56"/>
<polygon fill="none" stroke="midnightblue" points="698,-118.17 701.5,-128.17 705,-118.17 698,-118.17"/>
</g>
<!-- Node3 -->
<g id="node3" class="node">
<title>Node3</title>
<g id="a_node3"><a xlink:href="../../db/df2/classSDK_1_1UParticleModuleLocationBase.html" target="_top" xlink:title=" ">
<polygon fill="white" stroke="black" points="498,-327 498,-384 673,-384 673,-327 498,-327"/>
<text text-anchor="middle" x="585.5" y="-372" font-family="Helvetica,sans-Serif" font-size="10.00">SDK::UParticleModuleLocationBase</text>
<polyline fill="none" stroke="black" points="498,-365 673,-365 "/>
<text text-anchor="middle" x="585.5" y="-353" font-family="Helvetica,sans-Serif" font-size="10.00"> </text>
<polyline fill="none" stroke="black" points="498,-346 673,-346 "/>
<text text-anchor="start" x="506" y="-334" font-family="Helvetica,sans-Serif" font-size="10.00">+ StaticClass()</text>
</a>
</g>
</g>
<!-- Node3&#45;&gt;Node2 -->
<g id="edge2" class="edge">
<title>Node3&#45;&gt;Node2</title>
<path fill="none" stroke="midnightblue" d="M610.1,-318.66C625.64,-296.02 646.03,-266.31 663.61,-240.7"/>
<polygon fill="none" stroke="midnightblue" points="607.17,-316.75 604.4,-326.97 612.94,-320.71 607.17,-316.75"/>
</g>
<!-- Node4 -->
<g id="node4" class="node">
<title>Node4</title>
<g id="a_node4"><a xlink:href="../../d5/df1/classSDK_1_1UParticleModule.html" target="_top" xlink:title=" ">
<polygon fill="white" stroke="black" points="479,-481.5 479,-681.5 632,-681.5 632,-481.5 479,-481.5"/>
<text text-anchor="middle" x="555.5" y="-669.5" font-family="Helvetica,sans-Serif" font-size="10.00">SDK::UParticleModule</text>
<polyline fill="none" stroke="black" points="479,-662.5 632,-662.5 "/>
<text text-anchor="start" x="487" y="-650.5" font-family="Helvetica,sans-Serif" font-size="10.00">+ bSpawnModule</text>
<text text-anchor="start" x="487" y="-639.5" font-family="Helvetica,sans-Serif" font-size="10.00">+ bUpdateModule</text>
<text text-anchor="start" x="487" y="-628.5" font-family="Helvetica,sans-Serif" font-size="10.00">+ bFinalUpdateModule</text>
<text text-anchor="start" x="487" y="-617.5" font-family="Helvetica,sans-Serif" font-size="10.00">+ bCurvesAsColor</text>
<text text-anchor="start" x="487" y="-606.5" font-family="Helvetica,sans-Serif" font-size="10.00">+ b3DDrawMode</text>
<text text-anchor="start" x="487" y="-595.5" font-family="Helvetica,sans-Serif" font-size="10.00">+ EnableToggle3DDrawMode</text>
<text text-anchor="start" x="487" y="-584.5" font-family="Helvetica,sans-Serif" font-size="10.00">+ bSupported3DDrawMode</text>
<text text-anchor="start" x="487" y="-573.5" font-family="Helvetica,sans-Serif" font-size="10.00">+ bEnabled</text>
<text text-anchor="start" x="487" y="-562.5" font-family="Helvetica,sans-Serif" font-size="10.00">+ bEditable</text>
<text text-anchor="start" x="487" y="-551.5" font-family="Helvetica,sans-Serif" font-size="10.00">+ LODDuplicate</text>
<text text-anchor="start" x="487" y="-540.5" font-family="Helvetica,sans-Serif" font-size="10.00">+ bSupportsRandomSeed</text>
<text text-anchor="start" x="487" y="-529.5" font-family="Helvetica,sans-Serif" font-size="10.00">+ bRequiresLoopingNotification</text>
<text text-anchor="start" x="487" y="-518.5" font-family="Helvetica,sans-Serif" font-size="10.00">+ LODValidity</text>
<text text-anchor="start" x="487" y="-507.5" font-family="Helvetica,sans-Serif" font-size="10.00">+ UnknownData00</text>
<polyline fill="none" stroke="black" points="479,-500.5 632,-500.5 "/>
<text text-anchor="start" x="487" y="-488.5" font-family="Helvetica,sans-Serif" font-size="10.00">+ StaticClass()</text>
</a>
</g>
</g>
<!-- Node4&#45;&gt;Node3 -->
<g id="edge3" class="edge">
<title>Node4&#45;&gt;Node3</title>
<path fill="none" stroke="midnightblue" d="M570.13,-471.3C574.44,-439.09 578.79,-406.58 581.76,-384.42"/>
<polygon fill="none" stroke="midnightblue" points="566.65,-470.9 568.79,-481.27 573.59,-471.83 566.65,-470.9"/>
</g>
<!-- Node5 -->
<g id="node5" class="node">
<title>Node5</title>
<g id="a_node5"><a xlink:href="../../d9/d45/classSDK_1_1UObject.html" target="_top" xlink:title=" ">
<polygon fill="white" stroke="black" points="169.5,-729.5 169.5,-973.5 367.5,-973.5 367.5,-729.5 169.5,-729.5"/>
<text text-anchor="middle" x="268.5" y="-961.5" font-family="Helvetica,sans-Serif" font-size="10.00">SDK::UObject</text>
<polyline fill="none" stroke="black" points="169.5,-954.5 367.5,-954.5 "/>
<text text-anchor="start" x="177.5" y="-942.5" font-family="Helvetica,sans-Serif" font-size="10.00">+ ObjectInternalInteger</text>
<text text-anchor="start" x="177.5" y="-931.5" font-family="Helvetica,sans-Serif" font-size="10.00">+ NetIndex</text>
<polyline fill="none" stroke="black" points="169.5,-924.5 367.5,-924.5 "/>
<text text-anchor="start" x="177.5" y="-912.5" font-family="Helvetica,sans-Serif" font-size="10.00">+ UObject::GetName()</text>
<text text-anchor="start" x="177.5" y="-901.5" font-family="Helvetica,sans-Serif" font-size="10.00">+ GetFullName()</text>
<text text-anchor="start" x="177.5" y="-890.5" font-family="Helvetica,sans-Serif" font-size="10.00">+ IsA()</text>
<text text-anchor="start" x="177.5" y="-879.5" font-family="Helvetica,sans-Serif" font-size="10.00">+ ProcessEvent()</text>
<text text-anchor="start" x="177.5" y="-868.5" font-family="Helvetica,sans-Serif" font-size="10.00">+ STATIC_ProfNodeEvent()</text>
<text text-anchor="start" x="177.5" y="-857.5" font-family="Helvetica,sans-Serif" font-size="10.00">+ STATIC_ProfNodeSetDepthThreshold()</text>
<text text-anchor="start" x="177.5" y="-846.5" font-family="Helvetica,sans-Serif" font-size="10.00">+ STATIC_ProfNodeSetTimeThreshold</text>
<text text-anchor="start" x="177.5" y="-835.5" font-family="Helvetica,sans-Serif" font-size="10.00">Seconds()</text>
<text text-anchor="start" x="177.5" y="-824.5" font-family="Helvetica,sans-Serif" font-size="10.00">+ STATIC_ProfNodeStop()</text>
<text text-anchor="start" x="177.5" y="-813.5" font-family="Helvetica,sans-Serif" font-size="10.00">+ STATIC_ProfNodeStart()</text>
<text text-anchor="start" x="177.5" y="-802.5" font-family="Helvetica,sans-Serif" font-size="10.00">+ STATIC_GetStringFromGuid()</text>
<text text-anchor="start" x="177.5" y="-791.5" font-family="Helvetica,sans-Serif" font-size="10.00">and 298 more...</text>
<text text-anchor="start" x="177.5" y="-780.5" font-family="Helvetica,sans-Serif" font-size="10.00">+ GetGlobalObjects()</text>
<text text-anchor="start" x="177.5" y="-769.5" font-family="Helvetica,sans-Serif" font-size="10.00">+ FindObject()</text>
<text text-anchor="start" x="177.5" y="-758.5" font-family="Helvetica,sans-Serif" font-size="10.00">+ FindClass()</text>
<text text-anchor="start" x="177.5" y="-747.5" font-family="Helvetica,sans-Serif" font-size="10.00">+ GetObjectCasted()</text>
<text text-anchor="start" x="177.5" y="-736.5" font-family="Helvetica,sans-Serif" font-size="10.00">+ StaticClass()</text>
</a>
</g>
</g>
<!-- Node5&#45;&gt;Node4 -->
<g id="edge4" class="edge">
<title>Node5&#45;&gt;Node4</title>
<path fill="none" stroke="midnightblue" d="M375.53,-758.01C402.94,-733.67 432.11,-707.17 458.5,-682 465.22,-675.59 472.11,-668.86 478.98,-662.04"/>
<polygon fill="none" stroke="midnightblue" points="373.02,-755.56 367.85,-764.82 377.66,-760.8 373.02,-755.56"/>
</g>
<!-- Node5&#45;&gt;Node5 -->
<g id="edge10" class="edge">
<title>Node5&#45;&gt;Node5</title>
<path fill="none" stroke="#404040" d="M367.51,-874.53C378.44,-870.15 385.5,-862.48 385.5,-851.5 385.5,-844.64 382.74,-839.07 378.01,-834.78"/>
<polygon fill="none" stroke="#404040" points="377.8,-834.66 370.59,-834.99 367.51,-828.47 374.72,-828.14 377.8,-834.66"/>
<text text-anchor="middle" x="425" y="-860" font-family="Helvetica,sans-Serif" font-size="10.00"> +Outer</text>
<text text-anchor="middle" x="425" y="-849" font-family="Helvetica,sans-Serif" font-size="10.00">+Linker</text>
<text text-anchor="middle" x="425" y="-838" font-family="Helvetica,sans-Serif" font-size="10.00">+ObjectArchetype</text>
</g>
<!-- Node11 -->
<g id="node11" class="node">
<title>Node11</title>
<g id="a_node11"><a xlink:href="../../d3/d79/classSDK_1_1TArray.html" target="_top" xlink:title=" ">
<polygon fill="white" stroke="black" points="0,-514.5 0,-648.5 161,-648.5 161,-514.5 0,-514.5"/>
<text text-anchor="middle" x="80.5" y="-636.5" font-family="Helvetica,sans-Serif" font-size="10.00">SDK::TArray&lt; SDK::UObject * &gt;</text>
<polyline fill="none" stroke="black" points="0,-629.5 161,-629.5 "/>
<text text-anchor="start" x="8" y="-617.5" font-family="Helvetica,sans-Serif" font-size="10.00">&#45; Count</text>
<text text-anchor="start" x="8" y="-606.5" font-family="Helvetica,sans-Serif" font-size="10.00">&#45; Max</text>
<polyline fill="none" stroke="black" points="0,-599.5 161,-599.5 "/>
<text text-anchor="start" x="8" y="-587.5" font-family="Helvetica,sans-Serif" font-size="10.00">+ TArray()</text>
<text text-anchor="start" x="8" y="-576.5" font-family="Helvetica,sans-Serif" font-size="10.00">+ Num()</text>
<text text-anchor="start" x="8" y="-565.5" font-family="Helvetica,sans-Serif" font-size="10.00">+ operator[]()</text>
<text text-anchor="start" x="8" y="-554.5" font-family="Helvetica,sans-Serif" font-size="10.00">+ operator[]()</text>
<text text-anchor="start" x="8" y="-543.5" font-family="Helvetica,sans-Serif" font-size="10.00">+ IsValidIndex()</text>
<text text-anchor="start" x="8" y="-532.5" font-family="Helvetica,sans-Serif" font-size="10.00">+ GetByIndex()</text>
<text text-anchor="start" x="8" y="-521.5" font-family="Helvetica,sans-Serif" font-size="10.00">+ GetByIndex()</text>
</a>
</g>
</g>
<!-- Node5&#45;&gt;Node11 -->
<g id="edge12" class="edge">
<title>Node5&#45;&gt;Node11</title>
<path fill="none" stroke="#404040" d="M169.39,-791.76C141,-770 113.02,-742.75 95.5,-711 87.08,-695.74 82.39,-677.93 79.93,-660.51"/>
<polygon fill="none" stroke="#404040" points="79.93,-660.47 75.28,-654.96 78.58,-648.55 83.23,-654.06 79.93,-660.47"/>
<text text-anchor="middle" x="109.5" y="-703" font-family="Helvetica,sans-Serif" font-size="10.00"> &#45;Data</text>
</g>
<!-- Node13 -->
<g id="node13" class="node">
<title>Node13</title>
<g id="a_node13"><a xlink:href="../../d7/d85/classSDK_1_1UClass.html" target="_top" xlink:title=" ">
<polygon fill="white" stroke="black" points="208,-0.5 208,-90.5 329,-90.5 329,-0.5 208,-0.5"/>
<text text-anchor="middle" x="268.5" y="-78.5" font-family="Helvetica,sans-Serif" font-size="10.00">SDK::UClass</text>
<polyline fill="none" stroke="black" points="208,-71.5 329,-71.5 "/>
<text text-anchor="start" x="216" y="-59.5" font-family="Helvetica,sans-Serif" font-size="10.00">+ UnknownData00</text>
<text text-anchor="start" x="216" y="-48.5" font-family="Helvetica,sans-Serif" font-size="10.00">+ UnknownData01</text>
<polyline fill="none" stroke="black" points="208,-41.5 329,-41.5 "/>
<text text-anchor="start" x="216" y="-29.5" font-family="Helvetica,sans-Serif" font-size="10.00">+ CreateDefaultObject()</text>
<text text-anchor="start" x="216" y="-18.5" font-family="Helvetica,sans-Serif" font-size="10.00">+ CreateDefaultObject()</text>
<text text-anchor="start" x="216" y="-7.5" font-family="Helvetica,sans-Serif" font-size="10.00">+ StaticClass()</text>
</a>
</g>
</g>
<!-- Node5&#45;&gt;Node13 -->
<g id="edge22" class="edge">
<title>Node5&#45;&gt;Node13</title>
<path fill="none" stroke="#404040" d="M268.5,-729.43C268.5,-683.42 268.5,-630.54 268.5,-582.5 268.5,-582.5 268.5,-582.5 268.5,-183.5 268.5,-156.95 268.5,-127.5 268.5,-102.73"/>
<polygon fill="none" stroke="#404040" points="268.5,-102.61 264.5,-96.61 268.5,-90.61 272.5,-96.61 268.5,-102.61"/>
<text text-anchor="middle" x="316" y="-353" font-family="Helvetica,sans-Serif" font-size="10.00"> +ClassDefaultObject</text>
</g>
<!-- Node16 -->
<g id="node16" class="node">
<title>Node16</title>
<g id="a_node16"><a xlink:href="../../de/dd6/classSDK_1_1UField.html" target="_top" xlink:title=" ">
<polygon fill="white" stroke="black" points="318,-553 318,-610 401,-610 401,-553 318,-553"/>
<text text-anchor="middle" x="359.5" y="-598" font-family="Helvetica,sans-Serif" font-size="10.00">SDK::UField</text>
<polyline fill="none" stroke="black" points="318,-591 401,-591 "/>
<text text-anchor="middle" x="359.5" y="-579" font-family="Helvetica,sans-Serif" font-size="10.00"> </text>
<polyline fill="none" stroke="black" points="318,-572 401,-572 "/>
<text text-anchor="start" x="326" y="-560" font-family="Helvetica,sans-Serif" font-size="10.00">+ StaticClass()</text>
</a>
</g>
</g>
<!-- Node5&#45;&gt;Node16 -->
<g id="edge19" class="edge">
<title>Node5&#45;&gt;Node16</title>
<path fill="none" stroke="midnightblue" d="M312.88,-719.79C326.92,-678.45 341.1,-636.69 350.07,-610.27"/>
<polygon fill="none" stroke="midnightblue" points="309.51,-718.84 309.61,-729.44 316.14,-721.09 309.51,-718.84"/>
</g>
<!-- Node6 -->
<g id="node6" class="node">
<title>Node6</title>
<g id="a_node6"><a xlink:href="../../d0/d22/structSDK_1_1FQWord.html" target="_top" xlink:title=" ">
<polygon fill="white" stroke="black" points="156.5,-1071 156.5,-1139 236.5,-1139 236.5,-1071 156.5,-1071"/>
<text text-anchor="middle" x="196.5" y="-1127" font-family="Helvetica,sans-Serif" font-size="10.00">SDK::FQWord</text>
<polyline fill="none" stroke="black" points="156.5,-1120 236.5,-1120 "/>
<text text-anchor="start" x="164.5" y="-1108" font-family="Helvetica,sans-Serif" font-size="10.00">+ A</text>
<text text-anchor="start" x="164.5" y="-1097" font-family="Helvetica,sans-Serif" font-size="10.00">+ B</text>
<polyline fill="none" stroke="black" points="156.5,-1090 236.5,-1090 "/>
<text text-anchor="middle" x="196.5" y="-1078" font-family="Helvetica,sans-Serif" font-size="10.00"> </text>
</a>
</g>
</g>
<!-- Node6&#45;&gt;Node5 -->
<g id="edge5" class="edge">
<title>Node6&#45;&gt;Node5</title>
<path fill="none" stroke="#404040" d="M203.35,-1070.97C208.19,-1048.56 215.12,-1018.33 222.5,-992 223.13,-989.74 223.78,-987.47 224.44,-985.18"/>
<polygon fill="none" stroke="#404040" points="224.44,-985.17 222.29,-978.28 227.82,-973.65 229.97,-980.54 224.44,-985.17"/>
<text text-anchor="middle" x="253.5" y="-1006" font-family="Helvetica,sans-Serif" font-size="10.00"> +ObjectFlags</text>
</g>
<!-- Node7 -->
<g id="node7" class="node">
<title>Node7</title>
<g id="a_node7"><a xlink:href="../../d0/db6/structSDK_1_1FName.html" target="_top" xlink:title=" ">
<polygon fill="white" stroke="black" points="370,-1043.5 370,-1166.5 477,-1166.5 477,-1043.5 370,-1043.5"/>
<text text-anchor="middle" x="423.5" y="-1154.5" font-family="Helvetica,sans-Serif" font-size="10.00">SDK::FName</text>
<polyline fill="none" stroke="black" points="370,-1147.5 477,-1147.5 "/>
<text text-anchor="start" x="378" y="-1135.5" font-family="Helvetica,sans-Serif" font-size="10.00">+ Index</text>
<text text-anchor="start" x="378" y="-1124.5" font-family="Helvetica,sans-Serif" font-size="10.00">+ Number</text>
<polyline fill="none" stroke="black" points="370,-1117.5 477,-1117.5 "/>
<text text-anchor="start" x="378" y="-1105.5" font-family="Helvetica,sans-Serif" font-size="10.00">+ FName()</text>
<text text-anchor="start" x="378" y="-1094.5" font-family="Helvetica,sans-Serif" font-size="10.00">+ FName()</text>
<text text-anchor="start" x="378" y="-1083.5" font-family="Helvetica,sans-Serif" font-size="10.00">+ FName()</text>
<text text-anchor="start" x="378" y="-1072.5" font-family="Helvetica,sans-Serif" font-size="10.00">+ GetName()</text>
<text text-anchor="start" x="378" y="-1061.5" font-family="Helvetica,sans-Serif" font-size="10.00">+ operator==()</text>
<text text-anchor="start" x="378" y="-1050.5" font-family="Helvetica,sans-Serif" font-size="10.00">+ GetGlobalNames()</text>
</a>
</g>
</g>
<!-- Node7&#45;&gt;Node2 -->
<g id="edge24" class="edge">
<title>Node7&#45;&gt;Node2</title>
<path fill="none" stroke="#404040" d="M477.1,-1083.93C557.88,-1049.79 701.5,-972.25 701.5,-852.5 701.5,-852.5 701.5,-852.5 701.5,-354.5 701.5,-321.11 701.5,-284 701.5,-253.08"/>
<polygon fill="none" stroke="#404040" points="701.5,-252.68 697.5,-246.68 701.5,-240.68 705.5,-246.68 701.5,-252.68"/>
<text text-anchor="middle" x="735" y="-579" font-family="Helvetica,sans-Serif" font-size="10.00"> +EmitterName</text>
</g>
<!-- Node7&#45;&gt;Node5 -->
<g id="edge6" class="edge">
<title>Node7&#45;&gt;Node5</title>
<path fill="none" stroke="#404040" d="M393.91,-1043.34C385.19,-1026.47 375.34,-1008.31 365.5,-992 363.9,-989.35 362.27,-986.68 360.61,-984"/>
<polygon fill="none" stroke="#404040" points="360.47,-983.78 353.9,-980.82 354.09,-973.61 360.67,-976.57 360.47,-983.78"/>
<text text-anchor="middle" x="401.5" y="-1006" font-family="Helvetica,sans-Serif" font-size="10.00"> +Name</text>
</g>
<!-- Node8 -->
<g id="node8" class="node">
<title>Node8</title>
<g id="a_node8"><a xlink:href="../../d3/d79/classSDK_1_1TArray.html" target="_top" xlink:title=" ">
<polygon fill="white" stroke="black" points="280.5,-1214.5 280.5,-1348.5 460.5,-1348.5 460.5,-1214.5 280.5,-1214.5"/>
<text text-anchor="middle" x="370.5" y="-1336.5" font-family="Helvetica,sans-Serif" font-size="10.00">SDK::TArray&lt; SDK::FNameEntry * &gt;</text>
<polyline fill="none" stroke="black" points="280.5,-1329.5 460.5,-1329.5 "/>
<text text-anchor="start" x="288.5" y="-1317.5" font-family="Helvetica,sans-Serif" font-size="10.00">&#45; Count</text>
<text text-anchor="start" x="288.5" y="-1306.5" font-family="Helvetica,sans-Serif" font-size="10.00">&#45; Max</text>
<polyline fill="none" stroke="black" points="280.5,-1299.5 460.5,-1299.5 "/>
<text text-anchor="start" x="288.5" y="-1287.5" font-family="Helvetica,sans-Serif" font-size="10.00">+ TArray()</text>
<text text-anchor="start" x="288.5" y="-1276.5" font-family="Helvetica,sans-Serif" font-size="10.00">+ Num()</text>
<text text-anchor="start" x="288.5" y="-1265.5" font-family="Helvetica,sans-Serif" font-size="10.00">+ operator[]()</text>
<text text-anchor="start" x="288.5" y="-1254.5" font-family="Helvetica,sans-Serif" font-size="10.00">+ operator[]()</text>
<text text-anchor="start" x="288.5" y="-1243.5" font-family="Helvetica,sans-Serif" font-size="10.00">+ IsValidIndex()</text>
<text text-anchor="start" x="288.5" y="-1232.5" font-family="Helvetica,sans-Serif" font-size="10.00">+ GetByIndex()</text>
<text text-anchor="start" x="288.5" y="-1221.5" font-family="Helvetica,sans-Serif" font-size="10.00">+ GetByIndex()</text>
</a>
</g>
</g>
<!-- Node8&#45;&gt;Node7 -->
<g id="edge7" class="edge">
<title>Node8&#45;&gt;Node7</title>
<path fill="none" stroke="#404040" d="M390.69,-1214.03C394.24,-1202.33 397.96,-1190.1 401.56,-1178.25"/>
<polygon fill="none" stroke="#404040" points="401.62,-1178.04 399.54,-1171.13 405.11,-1166.56 407.19,-1173.46 401.62,-1178.04"/>
<text text-anchor="middle" x="424" y="-1188" font-family="Helvetica,sans-Serif" font-size="10.00"> +GNames</text>
</g>
<!-- Node9 -->
<g id="node9" class="node">
<title>Node9</title>
<g id="a_node9"><a xlink:href="../../d7/ddf/classSDK_1_1FNameEntry.html" target="_top" xlink:title=" ">
<polygon fill="white" stroke="black" points="321,-1435 321,-1503 420,-1503 420,-1435 321,-1435"/>
<text text-anchor="middle" x="370.5" y="-1491" font-family="Helvetica,sans-Serif" font-size="10.00">SDK::FNameEntry</text>
<polyline fill="none" stroke="black" points="321,-1484 420,-1484 "/>
<text text-anchor="start" x="329" y="-1472" font-family="Helvetica,sans-Serif" font-size="10.00">+ UnknownData00</text>
<text text-anchor="start" x="329" y="-1461" font-family="Helvetica,sans-Serif" font-size="10.00">+ name</text>
<polyline fill="none" stroke="black" points="321,-1454 420,-1454 "/>
<text text-anchor="start" x="329" y="-1442" font-family="Helvetica,sans-Serif" font-size="10.00">+ GetName()</text>
</a>
</g>
</g>
<!-- Node9&#45;&gt;Node8 -->
<g id="edge8" class="edge">
<title>Node9&#45;&gt;Node8</title>
<path fill="none" stroke="#404040" d="M370.5,-1434.84C370.5,-1414.23 370.5,-1386.83 370.5,-1360.95"/>
<polygon fill="none" stroke="#404040" points="370.5,-1360.8 366.5,-1354.8 370.5,-1348.8 374.5,-1354.8 370.5,-1360.8"/>
<text text-anchor="middle" x="384.5" y="-1370" font-family="Helvetica,sans-Serif" font-size="10.00"> &#45;Data</text>
</g>
<!-- Node10 -->
<g id="node10" class="node">
<title>Node10</title>
<g id="a_node10"><a xlink:href="../../d3/d79/classSDK_1_1TArray.html" target="_top" xlink:title=" ">
<polygon fill="white" stroke="black" points="120,-1396.5 120,-1541.5 217,-1541.5 217,-1396.5 120,-1396.5"/>
<text text-anchor="middle" x="168.5" y="-1529.5" font-family="Helvetica,sans-Serif" font-size="10.00">SDK::TArray&lt; T &gt;</text>
<polyline fill="none" stroke="black" points="120,-1522.5 217,-1522.5 "/>
<text text-anchor="start" x="128" y="-1510.5" font-family="Helvetica,sans-Serif" font-size="10.00">&#45; Data</text>
<text text-anchor="start" x="128" y="-1499.5" font-family="Helvetica,sans-Serif" font-size="10.00">&#45; Count</text>
<text text-anchor="start" x="128" y="-1488.5" font-family="Helvetica,sans-Serif" font-size="10.00">&#45; Max</text>
<polyline fill="none" stroke="black" points="120,-1481.5 217,-1481.5 "/>
<text text-anchor="start" x="128" y="-1469.5" font-family="Helvetica,sans-Serif" font-size="10.00">+ TArray()</text>
<text text-anchor="start" x="128" y="-1458.5" font-family="Helvetica,sans-Serif" font-size="10.00">+ Num()</text>
<text text-anchor="start" x="128" y="-1447.5" font-family="Helvetica,sans-Serif" font-size="10.00">+ operator[]()</text>
<text text-anchor="start" x="128" y="-1436.5" font-family="Helvetica,sans-Serif" font-size="10.00">+ operator[]()</text>
<text text-anchor="start" x="128" y="-1425.5" font-family="Helvetica,sans-Serif" font-size="10.00">+ IsValidIndex()</text>
<text text-anchor="start" x="128" y="-1414.5" font-family="Helvetica,sans-Serif" font-size="10.00">+ GetByIndex()</text>
<text text-anchor="start" x="128" y="-1403.5" font-family="Helvetica,sans-Serif" font-size="10.00">+ GetByIndex()</text>
</a>
</g>
</g>
<!-- Node10&#45;&gt;Node8 -->
<g id="edge9" class="edge">
<title>Node10&#45;&gt;Node8</title>
<path fill="none" stroke="orange" d="M224.06,-1399.21C234.11,-1388.04 244.8,-1376.9 255.5,-1367 263.32,-1359.76 271.76,-1352.57 280.38,-1345.62"/>
<polygon fill="orange" stroke="orange" points="221.22,-1397.13 217.21,-1406.93 226.46,-1401.77 221.22,-1397.13"/>
<text text-anchor="middle" x="311" y="-1370" font-family="Helvetica,sans-Serif" font-size="10.00"> &lt; SDK::FNameEntry * &gt;</text>
</g>
<!-- Node10&#45;&gt;Node11 -->
<g id="edge13" class="edge">
<title>Node10&#45;&gt;Node11</title>
<path fill="none" stroke="orange" d="M112.82,-1417.49C81.05,-1383.01 47.5,-1334.33 47.5,-1282.5 47.5,-1282.5 47.5,-1282.5 47.5,-850.5 47.5,-781.24 58.49,-702.65 67.79,-648.58"/>
<polygon fill="orange" stroke="orange" points="110.57,-1420.2 119.98,-1425.06 115.65,-1415.39 110.57,-1420.2"/>
<text text-anchor="middle" x="93" y="-1102.5" font-family="Helvetica,sans-Serif" font-size="10.00"> &lt; SDK::UObject * &gt;</text>
</g>
<!-- Node11&#45;&gt;Node5 -->
<g id="edge11" class="edge">
<title>Node11&#45;&gt;Node5</title>
<path fill="none" stroke="#404040" d="M101.62,-648.66C109.72,-669.47 120.06,-691.96 132.5,-711 140.98,-723.98 150.77,-736.77 161.15,-749.05"/>
<polygon fill="none" stroke="#404040" points="161.33,-749.25 168.28,-751.17 169.18,-758.32 162.23,-756.4 161.33,-749.25"/>
<text text-anchor="middle" x="158" y="-703" font-family="Helvetica,sans-Serif" font-size="10.00"> +GObjects</text>
</g>
<!-- Node12 -->
<g id="node12" class="node">
<title>Node12</title>
<g id="a_node12"><a xlink:href="../../d9/dfa/structSDK_1_1FPointer.html" target="_top" xlink:title=" ">
<polygon fill="white" stroke="black" points="254.5,-1071 254.5,-1139 352.5,-1139 352.5,-1071 254.5,-1071"/>
<text text-anchor="middle" x="303.5" y="-1127" font-family="Helvetica,sans-Serif" font-size="10.00">SDK::FPointer</text>
<polyline fill="none" stroke="black" points="254.5,-1120 352.5,-1120 "/>
<text text-anchor="start" x="262.5" y="-1108" font-family="Helvetica,sans-Serif" font-size="10.00">+ Dummy</text>
<text text-anchor="start" x="262.5" y="-1097" font-family="Helvetica,sans-Serif" font-size="10.00">+ UnknownData00</text>
<polyline fill="none" stroke="black" points="254.5,-1090 352.5,-1090 "/>
<text text-anchor="middle" x="303.5" y="-1078" font-family="Helvetica,sans-Serif" font-size="10.00"> </text>
</a>
</g>
</g>
<!-- Node12&#45;&gt;Node5 -->
<g id="edge14" class="edge">
<title>Node12&#45;&gt;Node5</title>
<path fill="none" stroke="#404040" d="M298.89,-1070.86C295.79,-1048.57 291.47,-1017.56 287.06,-985.9"/>
<polygon fill="none" stroke="#404040" points="287.03,-985.64 282.24,-980.24 285.37,-973.75 290.16,-979.14 287.03,-985.64"/>
<text text-anchor="middle" x="327" y="-1017" font-family="Helvetica,sans-Serif" font-size="10.00"> +StateFrame</text>
<text text-anchor="middle" x="327" y="-1006" font-family="Helvetica,sans-Serif" font-size="10.00">+VfTableObject</text>
<text text-anchor="middle" x="327" y="-995" font-family="Helvetica,sans-Serif" font-size="10.00">+LinkerIndex</text>
</g>
<!-- Node13&#45;&gt;Node5 -->
<g id="edge15" class="edge">
<title>Node13&#45;&gt;Node5</title>
<path fill="none" stroke="#404040" d="M231.96,-90.8C214.56,-116.3 197.5,-149.88 197.5,-183.5 197.5,-582.5 197.5,-582.5 197.5,-582.5 197.5,-627.36 206.91,-675.08 218.88,-717.63"/>
<polygon fill="none" stroke="#404040" points="218.89,-717.67 224.4,-722.32 222.23,-729.2 216.72,-724.55 218.89,-717.67"/>
<text text-anchor="middle" x="215" y="-353" font-family="Helvetica,sans-Serif" font-size="10.00"> +Class</text>
</g>
<!-- Node14 -->
<g id="node14" class="node">
<title>Node14</title>
<g id="a_node14"><a xlink:href="../../df/d72/classSDK_1_1UState.html" target="_top" xlink:title=" ">
<polygon fill="white" stroke="black" points="318.5,-156 318.5,-213 416.5,-213 416.5,-156 318.5,-156"/>
<text text-anchor="middle" x="367.5" y="-201" font-family="Helvetica,sans-Serif" font-size="10.00">SDK::UState</text>
<polyline fill="none" stroke="black" points="318.5,-194 416.5,-194 "/>
<text text-anchor="start" x="326.5" y="-182" font-family="Helvetica,sans-Serif" font-size="10.00">+ UnknownData00</text>
<polyline fill="none" stroke="black" points="318.5,-175 416.5,-175 "/>
<text text-anchor="start" x="326.5" y="-163" font-family="Helvetica,sans-Serif" font-size="10.00">+ StaticClass()</text>
</a>
</g>
</g>
<!-- Node14&#45;&gt;Node13 -->
<g id="edge16" class="edge">
<title>Node14&#45;&gt;Node13</title>
<path fill="none" stroke="midnightblue" d="M341.52,-147.54C328.92,-130.12 313.68,-109.03 300.39,-90.63"/>
<polygon fill="none" stroke="midnightblue" points="338.77,-149.72 347.47,-155.78 344.45,-145.62 338.77,-149.72"/>
</g>
<!-- Node15 -->
<g id="node15" class="node">
<title>Node15</title>
<g id="a_node15"><a xlink:href="../../d8/de9/classSDK_1_1UStruct.html" target="_top" xlink:title=" ">
<polygon fill="white" stroke="black" points="381.5,-316 381.5,-395 479.5,-395 479.5,-316 381.5,-316"/>
<text text-anchor="middle" x="430.5" y="-383" font-family="Helvetica,sans-Serif" font-size="10.00">SDK::UStruct</text>
<polyline fill="none" stroke="black" points="381.5,-376 479.5,-376 "/>
<text text-anchor="start" x="389.5" y="-364" font-family="Helvetica,sans-Serif" font-size="10.00">+ UnknownData00</text>
<text text-anchor="start" x="389.5" y="-353" font-family="Helvetica,sans-Serif" font-size="10.00">+ PropertySize</text>
<text text-anchor="start" x="389.5" y="-342" font-family="Helvetica,sans-Serif" font-size="10.00">+ UnknownData01</text>
<polyline fill="none" stroke="black" points="381.5,-335 479.5,-335 "/>
<text text-anchor="start" x="389.5" y="-323" font-family="Helvetica,sans-Serif" font-size="10.00">+ StaticClass()</text>
</a>
</g>
</g>
<!-- Node15&#45;&gt;Node14 -->
<g id="edge17" class="edge">
<title>Node15&#45;&gt;Node14</title>
<path fill="none" stroke="midnightblue" d="M412.5,-306.22C401.24,-276.02 387.15,-238.21 377.76,-213.03"/>
<polygon fill="none" stroke="midnightblue" points="409.27,-307.58 416.05,-315.73 415.83,-305.14 409.27,-307.58"/>
</g>
<!-- Node16&#45;&gt;Node15 -->
<g id="edge18" class="edge">
<title>Node16&#45;&gt;Node15</title>
<path fill="none" stroke="midnightblue" d="M381.16,-543.69C393.45,-521.13 408.03,-491.25 416.5,-463 423.09,-441.03 426.57,-415.58 428.42,-395.08"/>
<polygon fill="none" stroke="midnightblue" points="378.02,-542.13 376.23,-552.57 384.14,-545.52 378.02,-542.13"/>
</g>
<!-- Node16&#45;&gt;Node15 -->
<g id="edge21" class="edge">
<title>Node16&#45;&gt;Node15</title>
<path fill="none" stroke="#404040" d="M353,-552.75C347.56,-523.84 342.69,-477.73 356.5,-441 359.77,-432.32 370.83,-418.41 383.44,-404.37"/>
<polygon fill="none" stroke="#404040" points="383.77,-404.01 384.88,-396.89 391.88,-395.18 390.77,-402.3 383.77,-404.01"/>
<text text-anchor="middle" x="384.5" y="-455" font-family="Helvetica,sans-Serif" font-size="10.00"> +SuperField</text>
<text text-anchor="middle" x="384.5" y="-444" font-family="Helvetica,sans-Serif" font-size="10.00">+Children</text>
</g>
<!-- Node16&#45;&gt;Node16 -->
<g id="edge20" class="edge">
<title>Node16&#45;&gt;Node16</title>
<path fill="none" stroke="#404040" d="M401.21,-604.39C411.41,-602.69 419,-595.06 419,-581.5 419,-573.66 416.46,-567.8 412.35,-563.93"/>
<polygon fill="none" stroke="#404040" points="412.04,-563.78 404.9,-564.81 401.21,-558.61 408.34,-557.59 412.04,-563.78"/>
<text text-anchor="middle" x="434.5" y="-579" font-family="Helvetica,sans-Serif" font-size="10.00"> +Next</text>
</g>
<!-- Node17 -->
<g id="node17" class="node">
<title>Node17</title>
<g id="a_node17"><a xlink:href="../../d4/daf/structSDK_1_1FColor.html" target="_top" xlink:title=" ">
<polygon fill="white" stroke="black" points="519,-801 519,-902 592,-902 592,-801 519,-801"/>
<text text-anchor="middle" x="555.5" y="-890" font-family="Helvetica,sans-Serif" font-size="10.00">SDK::FColor</text>
<polyline fill="none" stroke="black" points="519,-883 592,-883 "/>
<text text-anchor="start" x="527" y="-871" font-family="Helvetica,sans-Serif" font-size="10.00">+ B</text>
<text text-anchor="start" x="527" y="-860" font-family="Helvetica,sans-Serif" font-size="10.00">+ G</text>
<text text-anchor="start" x="527" y="-849" font-family="Helvetica,sans-Serif" font-size="10.00">+ R</text>
<text text-anchor="start" x="527" y="-838" font-family="Helvetica,sans-Serif" font-size="10.00">+ A</text>
<polyline fill="none" stroke="black" points="519,-831 592,-831 "/>
<text text-anchor="start" x="527" y="-819" font-family="Helvetica,sans-Serif" font-size="10.00">+ FColor()</text>
<text text-anchor="start" x="527" y="-808" font-family="Helvetica,sans-Serif" font-size="10.00">+ FColor()</text>
</a>
</g>
</g>
<!-- Node17&#45;&gt;Node4 -->
<g id="edge23" class="edge">
<title>Node17&#45;&gt;Node4</title>
<path fill="none" stroke="#404040" d="M555.5,-800.72C555.5,-770.73 555.5,-731.28 555.5,-694.18"/>
<polygon fill="none" stroke="#404040" points="555.5,-693.7 551.5,-687.7 555.5,-681.7 559.5,-687.7 555.5,-693.7"/>
<text text-anchor="middle" x="600.5" y="-703" font-family="Helvetica,sans-Serif" font-size="10.00"> +ModuleEditorColor</text>
</g>
<!-- Node18 -->
<g id="node18" class="node">
<title>Node18</title>
<g id="a_node18"><a xlink:href="../../df/d1c/classSDK_1_1TEnumAsByte.html" target="_top" xlink:title=" ">
<polygon fill="white" stroke="black" points="757.5,-288.5 757.5,-422.5 917.5,-422.5 917.5,-288.5 757.5,-288.5"/>
<text text-anchor="start" x="765.5" y="-410.5" font-family="Helvetica,sans-Serif" font-size="10.00">SDK::TEnumAsByte&lt; ELocation</text>
<text text-anchor="middle" x="837.5" y="-399.5" font-family="Helvetica,sans-Serif" font-size="10.00">EmitterSelectionMethod &gt;</text>
<polyline fill="none" stroke="black" points="757.5,-392.5 917.5,-392.5 "/>
<text text-anchor="start" x="765.5" y="-380.5" font-family="Helvetica,sans-Serif" font-size="10.00">&#45; value</text>
<polyline fill="none" stroke="black" points="757.5,-373.5 917.5,-373.5 "/>
<text text-anchor="start" x="765.5" y="-361.5" font-family="Helvetica,sans-Serif" font-size="10.00">+ TEnumAsByte()</text>
<text text-anchor="start" x="765.5" y="-350.5" font-family="Helvetica,sans-Serif" font-size="10.00">+ TEnumAsByte()</text>
<text text-anchor="start" x="765.5" y="-339.5" font-family="Helvetica,sans-Serif" font-size="10.00">+ TEnumAsByte()</text>
<text text-anchor="start" x="765.5" y="-328.5" font-family="Helvetica,sans-Serif" font-size="10.00">+ TEnumAsByte()</text>
<text text-anchor="start" x="765.5" y="-317.5" font-family="Helvetica,sans-Serif" font-size="10.00">+ operator ELocationEmitter</text>
<text text-anchor="start" x="765.5" y="-306.5" font-family="Helvetica,sans-Serif" font-size="10.00">SelectionMethod()</text>
<text text-anchor="start" x="765.5" y="-295.5" font-family="Helvetica,sans-Serif" font-size="10.00">+ GetValue()</text>
</a>
</g>
</g>
<!-- Node18&#45;&gt;Node2 -->
<g id="edge25" class="edge">
<title>Node18&#45;&gt;Node2</title>
<path fill="none" stroke="#404040" d="M784.14,-288.19C774.06,-275.66 763.53,-262.58 753.49,-250.1"/>
<polygon fill="none" stroke="#404040" points="753.45,-250.05 746.57,-247.89 745.92,-240.7 752.8,-242.87 753.45,-250.05"/>
<text text-anchor="middle" x="810.5" y="-262" font-family="Helvetica,sans-Serif" font-size="10.00"> +SelectionMethod</text>
</g>
<!-- Node19 -->
<g id="node19" class="node">
<title>Node19</title>
<g id="a_node19"><a xlink:href="../../df/d1c/classSDK_1_1TEnumAsByte.html" target="_top" xlink:title=" ">
<polygon fill="white" stroke="black" points="787,-525.5 787,-637.5 944,-637.5 944,-525.5 787,-525.5"/>
<text text-anchor="middle" x="865.5" y="-625.5" font-family="Helvetica,sans-Serif" font-size="10.00">SDK::TEnumAsByte&lt; TEnum &gt;</text>
<polyline fill="none" stroke="black" points="787,-618.5 944,-618.5 "/>
<text text-anchor="start" x="795" y="-606.5" font-family="Helvetica,sans-Serif" font-size="10.00">&#45; value</text>
<polyline fill="none" stroke="black" points="787,-599.5 944,-599.5 "/>
<text text-anchor="start" x="795" y="-587.5" font-family="Helvetica,sans-Serif" font-size="10.00">+ TEnumAsByte()</text>
<text text-anchor="start" x="795" y="-576.5" font-family="Helvetica,sans-Serif" font-size="10.00">+ TEnumAsByte()</text>
<text text-anchor="start" x="795" y="-565.5" font-family="Helvetica,sans-Serif" font-size="10.00">+ TEnumAsByte()</text>
<text text-anchor="start" x="795" y="-554.5" font-family="Helvetica,sans-Serif" font-size="10.00">+ TEnumAsByte()</text>
<text text-anchor="start" x="795" y="-543.5" font-family="Helvetica,sans-Serif" font-size="10.00">+ operator TEnum()</text>
<text text-anchor="start" x="795" y="-532.5" font-family="Helvetica,sans-Serif" font-size="10.00">+ GetValue()</text>
</a>
</g>
</g>
<!-- Node19&#45;&gt;Node18 -->
<g id="edge26" class="edge">
<title>Node19&#45;&gt;Node18</title>
<path fill="none" stroke="orange" d="M857.35,-515.33C853.71,-486.16 849.41,-451.82 845.76,-422.54"/>
<polygon fill="orange" stroke="orange" points="853.9,-515.93 858.61,-525.42 860.85,-515.06 853.9,-515.93"/>
<text text-anchor="start" x="851.5" y="-455" font-family="Helvetica,sans-Serif" font-size="10.00"> &lt; ELocationEmitterSelection</text>
<text text-anchor="middle" x="915.5" y="-444" font-family="Helvetica,sans-Serif" font-size="10.00">Method &gt;</text>
</g>
</g>
</svg>
        <g id="navigator" transform="translate(0 0)" fill="#404254">
                <rect fill="#f2f5e9" fill-opacity="0.5" stroke="#606060" stroke-width=".5" x="0" y="0" width="60" height="60"/>
                <use id="zoomplus" xlink:href="#zoomPlus" x="17" y="9" onmousedown="handleZoom(evt,'in')"/>
                <use id="zoomminus" xlink:href="#zoomMin" x="42" y="9" onmousedown="handleZoom(evt,'out')"/>
                <use id="reset" xlink:href="#resetDef" x="30" y="36" onmousedown="handleReset()"/>
                <g id="arrowUp" xlink:href="#dirArrow" transform="translate(30 24)" onmousedown="handlePan(0,-1)">
                  <use xlink:href="#rim" fill="#404040">
                        <set attributeName="fill" to="#808080" begin="arrowUp.mouseover" end="arrowUp.mouseout"/>
                  </use>
                  <path fill="none" stroke="white" stroke-width="1.5" d="M0,-3.0v7 M-2.5,-0.5L0,-3.0L2.5,-0.5"/>
                </g>
                <g id="arrowRight" xlink:href="#dirArrow" transform="rotate(90) translate(36 -43)" onmousedown="handlePan(1,0)">
                  <use xlink:href="#rim" fill="#404040">
                        <set attributeName="fill" to="#808080" begin="arrowRight.mouseover" end="arrowRight.mouseout"/>
                  </use>
                  <path fill="none" stroke="white" stroke-width="1.5" d="M0,-3.0v7 M-2.5,-0.5L0,-3.0L2.5,-0.5"/>
                </g>
                <g id="arrowDown" xlink:href="#dirArrow" transform="rotate(180) translate(-30 -48)" onmousedown="handlePan(0,1)">
                  <use xlink:href="#rim" fill="#404040">
                        <set attributeName="fill" to="#808080" begin="arrowDown.mouseover" end="arrowDown.mouseout"/>
                  </use>
                  <path fill="none" stroke="white" stroke-width="1.5" d="M0,-3.0v7 M-2.5,-0.5L0,-3.0L2.5,-0.5"/>
                </g>
                <g id="arrowLeft" xlink:href="#dirArrow" transform="rotate(270) translate(-36 17)" onmousedown="handlePan(-1,0)">
                  <use xlink:href="#rim" fill="#404040">
                        <set attributeName="fill" to="#808080" begin="arrowLeft.mouseover" end="arrowLeft.mouseout"/>
                  </use>
                  <path fill="none" stroke="white" stroke-width="1.5" d="M0,-3.0v7 M-2.5,-0.5L0,-3.0L2.5,-0.5"/>
                </g>
        </g>
        <svg viewBox="0 0 15 15" width="100%" height="30px" preserveAspectRatio="xMaxYMin meet">
         <g id="arrow_out" transform="scale(0.3 0.3)">
          <a xlink:href="classSDK_1_1UEFParticleModuleLocationEmitter__coll__graph_org.svg" target="_base">
           <rect id="button" ry="5" rx="5" y="6" x="6" height="38" width="38"
                fill="#f2f5e9" fill-opacity="0.5" stroke="#606060" stroke-width="1.0"/>
           <path id="arrow"
             d="M 11.500037,31.436501 C 11.940474,20.09759 22.043105,11.32322 32.158766,21.979434 L 37.068811,17.246167 C 37.068811,17.246167 37.088388,32 37.088388,32 L 22.160133,31.978069 C 22.160133,31.978069 26.997745,27.140456 26.997745,27.140456 C 18.528582,18.264221 13.291696,25.230495 11.500037,31.436501 z"
             style="fill:#404040;"/>
          </a>
         </g>
        </svg>
</svg>
