<?xml version="1.0" encoding="UTF-8" standalone="no"?>
<!DOCTYPE svg PUBLIC "-//W3C//DTD SVG 1.1//EN"
 "http://www.w3.org/Graphics/SVG/1.1/DTD/svg11.dtd">
<!-- Generated by graphviz version 2.41.20171026.1811 (20171026.1811)
 -->
<!-- Title: SDK::UUIDataProvider Pages: 1 -->
<svg width="698pt" height="1397pt"
 viewBox="0.00 0.00 698.00 1397.00" xmlns="http://www.w3.org/2000/svg" xmlns:xlink="http://www.w3.org/1999/xlink">
<g id="graph0" class="graph" transform="scale(1 1) rotate(0) translate(4 1393)">
<title>SDK::UUIDataProvider</title>
<polygon fill="white" stroke="transparent" points="-4,4 -4,-1393 694,-1393 694,4 -4,4"/>
<!-- Node1 -->
<g id="node1" class="node">
<title>Node1</title>
<g id="a_node1"><a xlink:title=" ">
<polygon fill="#bfbfbf" stroke="black" points="347.5,-234.5 347.5,-291.5 466.5,-291.5 466.5,-234.5 347.5,-234.5"/>
<text text-anchor="middle" x="407" y="-279.5" font-family="Helvetica,sans-Serif" font-size="10.00">SDK::UUIDataProvider</text>
<polyline fill="none" stroke="black" points="347.5,-272.5 466.5,-272.5 "/>
<text text-anchor="middle" x="407" y="-260.5" font-family="Helvetica,sans-Serif" font-size="10.00"> </text>
<polyline fill="none" stroke="black" points="347.5,-253.5 466.5,-253.5 "/>
<text text-anchor="start" x="355.5" y="-241.5" font-family="Helvetica,sans-Serif" font-size="10.00">+ StaticClass()</text>
</a>
</g>
</g>
<!-- Node2 -->
<g id="node2" class="node">
<title>Node2</title>
<g id="a_node2"><a xlink:href="../../da/dd4/classSDK_1_1UUIRoot.html" target="_top" xlink:title=" ">
<polygon fill="white" stroke="black" points="310,-361.5 310,-517.5 504,-517.5 504,-361.5 310,-361.5"/>
<text text-anchor="middle" x="407" y="-505.5" font-family="Helvetica,sans-Serif" font-size="10.00">SDK::UUIRoot</text>
<polyline fill="none" stroke="black" points="310,-498.5 504,-498.5 "/>
<text text-anchor="middle" x="407" y="-486.5" font-family="Helvetica,sans-Serif" font-size="10.00"> </text>
<polyline fill="none" stroke="black" points="310,-479.5 504,-479.5 "/>
<text text-anchor="start" x="318" y="-467.5" font-family="Helvetica,sans-Serif" font-size="10.00">+ STATIC_SafeCaps()</text>
<text text-anchor="start" x="318" y="-456.5" font-family="Helvetica,sans-Serif" font-size="10.00">+ STATIC_GetOnlinePlayerInterfaceEx()</text>
<text text-anchor="start" x="318" y="-445.5" font-family="Helvetica,sans-Serif" font-size="10.00">+ STATIC_GetOnlinePlayerInterface()</text>
<text text-anchor="start" x="318" y="-434.5" font-family="Helvetica,sans-Serif" font-size="10.00">+ STATIC_GetOnlineGameInterface()</text>
<text text-anchor="start" x="318" y="-423.5" font-family="Helvetica,sans-Serif" font-size="10.00">+ STATIC_StaticResolveData</text>
<text text-anchor="start" x="318" y="-412.5" font-family="Helvetica,sans-Serif" font-size="10.00">Store()</text>
<text text-anchor="start" x="318" y="-401.5" font-family="Helvetica,sans-Serif" font-size="10.00">+ STATIC_GetSceneClient()</text>
<text text-anchor="start" x="318" y="-390.5" font-family="Helvetica,sans-Serif" font-size="10.00">+ STATIC_GetCurrentUIController()</text>
<text text-anchor="start" x="318" y="-379.5" font-family="Helvetica,sans-Serif" font-size="10.00">+ STATIC_GetInputPlatformType()</text>
<text text-anchor="start" x="318" y="-368.5" font-family="Helvetica,sans-Serif" font-size="10.00">+ StaticClass()</text>
</a>
</g>
</g>
<!-- Node2&#45;&gt;Node1 -->
<g id="edge1" class="edge">
<title>Node2&#45;&gt;Node1</title>
<path fill="none" stroke="midnightblue" d="M407,-351.23C407,-329.66 407,-308.09 407,-291.79"/>
<polygon fill="none" stroke="midnightblue" points="403.5,-351.45 407,-361.45 410.5,-351.45 403.5,-351.45"/>
</g>
<!-- Node3 -->
<g id="node3" class="node">
<title>Node3</title>
<g id="a_node3"><a xlink:href="../../d9/d45/classSDK_1_1UObject.html" target="_top" xlink:title=" ">
<polygon fill="white" stroke="black" points="116,-565.5 116,-809.5 314,-809.5 314,-565.5 116,-565.5"/>
<text text-anchor="middle" x="215" y="-797.5" font-family="Helvetica,sans-Serif" font-size="10.00">SDK::UObject</text>
<polyline fill="none" stroke="black" points="116,-790.5 314,-790.5 "/>
<text text-anchor="start" x="124" y="-778.5" font-family="Helvetica,sans-Serif" font-size="10.00">+ ObjectInternalInteger</text>
<text text-anchor="start" x="124" y="-767.5" font-family="Helvetica,sans-Serif" font-size="10.00">+ NetIndex</text>
<polyline fill="none" stroke="black" points="116,-760.5 314,-760.5 "/>
<text text-anchor="start" x="124" y="-748.5" font-family="Helvetica,sans-Serif" font-size="10.00">+ UObject::GetName()</text>
<text text-anchor="start" x="124" y="-737.5" font-family="Helvetica,sans-Serif" font-size="10.00">+ GetFullName()</text>
<text text-anchor="start" x="124" y="-726.5" font-family="Helvetica,sans-Serif" font-size="10.00">+ IsA()</text>
<text text-anchor="start" x="124" y="-715.5" font-family="Helvetica,sans-Serif" font-size="10.00">+ ProcessEvent()</text>
<text text-anchor="start" x="124" y="-704.5" font-family="Helvetica,sans-Serif" font-size="10.00">+ STATIC_ProfNodeEvent()</text>
<text text-anchor="start" x="124" y="-693.5" font-family="Helvetica,sans-Serif" font-size="10.00">+ STATIC_ProfNodeSetDepthThreshold()</text>
<text text-anchor="start" x="124" y="-682.5" font-family="Helvetica,sans-Serif" font-size="10.00">+ STATIC_ProfNodeSetTimeThreshold</text>
<text text-anchor="start" x="124" y="-671.5" font-family="Helvetica,sans-Serif" font-size="10.00">Seconds()</text>
<text text-anchor="start" x="124" y="-660.5" font-family="Helvetica,sans-Serif" font-size="10.00">+ STATIC_ProfNodeStop()</text>
<text text-anchor="start" x="124" y="-649.5" font-family="Helvetica,sans-Serif" font-size="10.00">+ STATIC_ProfNodeStart()</text>
<text text-anchor="start" x="124" y="-638.5" font-family="Helvetica,sans-Serif" font-size="10.00">+ STATIC_GetStringFromGuid()</text>
<text text-anchor="start" x="124" y="-627.5" font-family="Helvetica,sans-Serif" font-size="10.00">and 298 more...</text>
<text text-anchor="start" x="124" y="-616.5" font-family="Helvetica,sans-Serif" font-size="10.00">+ GetGlobalObjects()</text>
<text text-anchor="start" x="124" y="-605.5" font-family="Helvetica,sans-Serif" font-size="10.00">+ FindObject()</text>
<text text-anchor="start" x="124" y="-594.5" font-family="Helvetica,sans-Serif" font-size="10.00">+ FindClass()</text>
<text text-anchor="start" x="124" y="-583.5" font-family="Helvetica,sans-Serif" font-size="10.00">+ GetObjectCasted()</text>
<text text-anchor="start" x="124" y="-572.5" font-family="Helvetica,sans-Serif" font-size="10.00">+ StaticClass()</text>
</a>
</g>
</g>
<!-- Node3&#45;&gt;Node2 -->
<g id="edge2" class="edge">
<title>Node3&#45;&gt;Node2</title>
<path fill="none" stroke="midnightblue" d="M271.3,-556.64C275.93,-549.44 280.83,-542.5 286,-536 293.16,-526.99 301.33,-518.32 309.97,-510.11"/>
<polygon fill="none" stroke="midnightblue" points="268.28,-554.85 265.98,-565.19 274.23,-558.54 268.28,-554.85"/>
</g>
<!-- Node3&#45;&gt;Node3 -->
<g id="edge8" class="edge">
<title>Node3&#45;&gt;Node3</title>
<path fill="none" stroke="#404040" d="M314.01,-710.53C324.94,-706.15 332,-698.48 332,-687.5 332,-680.64 329.24,-675.07 324.51,-670.78"/>
<polygon fill="none" stroke="#404040" points="324.3,-670.66 317.09,-670.99 314.01,-664.47 321.22,-664.14 324.3,-670.66"/>
<text text-anchor="middle" x="371.5" y="-696" font-family="Helvetica,sans-Serif" font-size="10.00"> +Outer</text>
<text text-anchor="middle" x="371.5" y="-685" font-family="Helvetica,sans-Serif" font-size="10.00">+Linker</text>
<text text-anchor="middle" x="371.5" y="-674" font-family="Helvetica,sans-Serif" font-size="10.00">+ObjectArchetype</text>
</g>
<!-- Node9 -->
<g id="node9" class="node">
<title>Node9</title>
<g id="a_node9"><a xlink:href="../../d3/d79/classSDK_1_1TArray.html" target="_top" xlink:title=" ">
<polygon fill="white" stroke="black" points="522.5,-372.5 522.5,-506.5 683.5,-506.5 683.5,-372.5 522.5,-372.5"/>
<text text-anchor="middle" x="603" y="-494.5" font-family="Helvetica,sans-Serif" font-size="10.00">SDK::TArray&lt; SDK::UObject * &gt;</text>
<polyline fill="none" stroke="black" points="522.5,-487.5 683.5,-487.5 "/>
<text text-anchor="start" x="530.5" y="-475.5" font-family="Helvetica,sans-Serif" font-size="10.00">&#45; Count</text>
<text text-anchor="start" x="530.5" y="-464.5" font-family="Helvetica,sans-Serif" font-size="10.00">&#45; Max</text>
<polyline fill="none" stroke="black" points="522.5,-457.5 683.5,-457.5 "/>
<text text-anchor="start" x="530.5" y="-445.5" font-family="Helvetica,sans-Serif" font-size="10.00">+ TArray()</text>
<text text-anchor="start" x="530.5" y="-434.5" font-family="Helvetica,sans-Serif" font-size="10.00">+ Num()</text>
<text text-anchor="start" x="530.5" y="-423.5" font-family="Helvetica,sans-Serif" font-size="10.00">+ operator[]()</text>
<text text-anchor="start" x="530.5" y="-412.5" font-family="Helvetica,sans-Serif" font-size="10.00">+ operator[]()</text>
<text text-anchor="start" x="530.5" y="-401.5" font-family="Helvetica,sans-Serif" font-size="10.00">+ IsValidIndex()</text>
<text text-anchor="start" x="530.5" y="-390.5" font-family="Helvetica,sans-Serif" font-size="10.00">+ GetByIndex()</text>
<text text-anchor="start" x="530.5" y="-379.5" font-family="Helvetica,sans-Serif" font-size="10.00">+ GetByIndex()</text>
</a>
</g>
</g>
<!-- Node3&#45;&gt;Node9 -->
<g id="edge10" class="edge">
<title>Node3&#45;&gt;Node9</title>
<path fill="none" stroke="#404040" d="M294.88,-565.45C306.76,-553.98 319.83,-543.76 334,-536 404.13,-497.6 439.53,-549.55 513,-518 516.6,-516.45 520.16,-514.71 523.67,-512.81"/>
<polygon fill="none" stroke="#404040" points="523.71,-512.79 526.82,-506.28 534.02,-506.66 530.91,-513.16 523.71,-512.79"/>
<text text-anchor="middle" x="348" y="-539" font-family="Helvetica,sans-Serif" font-size="10.00"> &#45;Data</text>
</g>
<!-- Node11 -->
<g id="node11" class="node">
<title>Node11</title>
<g id="a_node11"><a xlink:href="../../d7/d85/classSDK_1_1UClass.html" target="_top" xlink:title=" ">
<polygon fill="white" stroke="black" points="70.5,-0.5 70.5,-90.5 191.5,-90.5 191.5,-0.5 70.5,-0.5"/>
<text text-anchor="middle" x="131" y="-78.5" font-family="Helvetica,sans-Serif" font-size="10.00">SDK::UClass</text>
<polyline fill="none" stroke="black" points="70.5,-71.5 191.5,-71.5 "/>
<text text-anchor="start" x="78.5" y="-59.5" font-family="Helvetica,sans-Serif" font-size="10.00">+ UnknownData00</text>
<text text-anchor="start" x="78.5" y="-48.5" font-family="Helvetica,sans-Serif" font-size="10.00">+ UnknownData01</text>
<polyline fill="none" stroke="black" points="70.5,-41.5 191.5,-41.5 "/>
<text text-anchor="start" x="78.5" y="-29.5" font-family="Helvetica,sans-Serif" font-size="10.00">+ CreateDefaultObject()</text>
<text text-anchor="start" x="78.5" y="-18.5" font-family="Helvetica,sans-Serif" font-size="10.00">+ CreateDefaultObject()</text>
<text text-anchor="start" x="78.5" y="-7.5" font-family="Helvetica,sans-Serif" font-size="10.00">+ StaticClass()</text>
</a>
</g>
</g>
<!-- Node3&#45;&gt;Node11 -->
<g id="edge20" class="edge">
<title>Node3&#45;&gt;Node11</title>
<path fill="none" stroke="#404040" d="M116,-624.66C59.57,-581.06 0,-516.93 0,-440.5 0,-440.5 0,-440.5 0,-156 0,-120.34 28.94,-94.01 59.61,-76.12"/>
<polygon fill="none" stroke="#404040" points="59.97,-75.92 63.3,-69.53 70.48,-70.14 67.15,-76.54 59.97,-75.92"/>
<text text-anchor="middle" x="47.5" y="-260.5" font-family="Helvetica,sans-Serif" font-size="10.00"> +ClassDefaultObject</text>
</g>
<!-- Node14 -->
<g id="node14" class="node">
<title>Node14</title>
<g id="a_node14"><a xlink:href="../../de/dd6/classSDK_1_1UField.html" target="_top" xlink:title=" ">
<polygon fill="white" stroke="black" points="159.5,-411 159.5,-468 242.5,-468 242.5,-411 159.5,-411"/>
<text text-anchor="middle" x="201" y="-456" font-family="Helvetica,sans-Serif" font-size="10.00">SDK::UField</text>
<polyline fill="none" stroke="black" points="159.5,-449 242.5,-449 "/>
<text text-anchor="middle" x="201" y="-437" font-family="Helvetica,sans-Serif" font-size="10.00"> </text>
<polyline fill="none" stroke="black" points="159.5,-430 242.5,-430 "/>
<text text-anchor="start" x="167.5" y="-418" font-family="Helvetica,sans-Serif" font-size="10.00">+ StaticClass()</text>
</a>
</g>
</g>
<!-- Node3&#45;&gt;Node14 -->
<g id="edge17" class="edge">
<title>Node3&#45;&gt;Node14</title>
<path fill="none" stroke="midnightblue" d="M207.52,-555.07C205.65,-522.17 203.82,-490.07 202.58,-468.26"/>
<polygon fill="none" stroke="midnightblue" points="204.04,-555.52 208.1,-565.3 211.03,-555.12 204.04,-555.52"/>
</g>
<!-- Node4 -->
<g id="node4" class="node">
<title>Node4</title>
<g id="a_node4"><a xlink:href="../../d0/d22/structSDK_1_1FQWord.html" target="_top" xlink:title=" ">
<polygon fill="white" stroke="black" points="289,-907 289,-975 369,-975 369,-907 289,-907"/>
<text text-anchor="middle" x="329" y="-963" font-family="Helvetica,sans-Serif" font-size="10.00">SDK::FQWord</text>
<polyline fill="none" stroke="black" points="289,-956 369,-956 "/>
<text text-anchor="start" x="297" y="-944" font-family="Helvetica,sans-Serif" font-size="10.00">+ A</text>
<text text-anchor="start" x="297" y="-933" font-family="Helvetica,sans-Serif" font-size="10.00">+ B</text>
<polyline fill="none" stroke="black" points="289,-926 369,-926 "/>
<text text-anchor="middle" x="329" y="-914" font-family="Helvetica,sans-Serif" font-size="10.00"> </text>
</a>
</g>
</g>
<!-- Node4&#45;&gt;Node3 -->
<g id="edge3" class="edge">
<title>Node4&#45;&gt;Node3</title>
<path fill="none" stroke="#404040" d="M313.98,-906.86C303.78,-884.37 289.57,-853.01 275.09,-821.06"/>
<polygon fill="none" stroke="#404040" points="274.91,-820.68 268.79,-816.87 269.96,-809.75 276.08,-813.56 274.91,-820.68"/>
<text text-anchor="middle" x="323" y="-842" font-family="Helvetica,sans-Serif" font-size="10.00"> +ObjectFlags</text>
</g>
<!-- Node5 -->
<g id="node5" class="node">
<title>Node5</title>
<g id="a_node5"><a xlink:href="../../d0/db6/structSDK_1_1FName.html" target="_top" xlink:title=" ">
<polygon fill="white" stroke="black" points="163.5,-879.5 163.5,-1002.5 270.5,-1002.5 270.5,-879.5 163.5,-879.5"/>
<text text-anchor="middle" x="217" y="-990.5" font-family="Helvetica,sans-Serif" font-size="10.00">SDK::FName</text>
<polyline fill="none" stroke="black" points="163.5,-983.5 270.5,-983.5 "/>
<text text-anchor="start" x="171.5" y="-971.5" font-family="Helvetica,sans-Serif" font-size="10.00">+ Index</text>
<text text-anchor="start" x="171.5" y="-960.5" font-family="Helvetica,sans-Serif" font-size="10.00">+ Number</text>
<polyline fill="none" stroke="black" points="163.5,-953.5 270.5,-953.5 "/>
<text text-anchor="start" x="171.5" y="-941.5" font-family="Helvetica,sans-Serif" font-size="10.00">+ FName()</text>
<text text-anchor="start" x="171.5" y="-930.5" font-family="Helvetica,sans-Serif" font-size="10.00">+ FName()</text>
<text text-anchor="start" x="171.5" y="-919.5" font-family="Helvetica,sans-Serif" font-size="10.00">+ FName()</text>
<text text-anchor="start" x="171.5" y="-908.5" font-family="Helvetica,sans-Serif" font-size="10.00">+ GetName()</text>
<text text-anchor="start" x="171.5" y="-897.5" font-family="Helvetica,sans-Serif" font-size="10.00">+ operator==()</text>
<text text-anchor="start" x="171.5" y="-886.5" font-family="Helvetica,sans-Serif" font-size="10.00">+ GetGlobalNames()</text>
</a>
</g>
</g>
<!-- Node5&#45;&gt;Node3 -->
<g id="edge4" class="edge">
<title>Node5&#45;&gt;Node3</title>
<path fill="none" stroke="#404040" d="M216.52,-879.44C216.38,-861.9 216.22,-842.03 216.06,-821.9"/>
<polygon fill="none" stroke="#404040" points="216.06,-821.68 212.01,-815.72 215.96,-809.69 220.01,-815.65 216.06,-821.68"/>
<text text-anchor="middle" x="235" y="-842" font-family="Helvetica,sans-Serif" font-size="10.00"> +Name</text>
</g>
<!-- Node6 -->
<g id="node6" class="node">
<title>Node6</title>
<g id="a_node6"><a xlink:href="../../d3/d79/classSDK_1_1TArray.html" target="_top" xlink:title=" ">
<polygon fill="white" stroke="black" points="140,-1056 140,-1190 320,-1190 320,-1056 140,-1056"/>
<text text-anchor="middle" x="230" y="-1178" font-family="Helvetica,sans-Serif" font-size="10.00">SDK::TArray&lt; SDK::FNameEntry * &gt;</text>
<polyline fill="none" stroke="black" points="140,-1171 320,-1171 "/>
<text text-anchor="start" x="148" y="-1159" font-family="Helvetica,sans-Serif" font-size="10.00">&#45; Count</text>
<text text-anchor="start" x="148" y="-1148" font-family="Helvetica,sans-Serif" font-size="10.00">&#45; Max</text>
<polyline fill="none" stroke="black" points="140,-1141 320,-1141 "/>
<text text-anchor="start" x="148" y="-1129" font-family="Helvetica,sans-Serif" font-size="10.00">+ TArray()</text>
<text text-anchor="start" x="148" y="-1118" font-family="Helvetica,sans-Serif" font-size="10.00">+ Num()</text>
<text text-anchor="start" x="148" y="-1107" font-family="Helvetica,sans-Serif" font-size="10.00">+ operator[]()</text>
<text text-anchor="start" x="148" y="-1096" font-family="Helvetica,sans-Serif" font-size="10.00">+ operator[]()</text>
<text text-anchor="start" x="148" y="-1085" font-family="Helvetica,sans-Serif" font-size="10.00">+ IsValidIndex()</text>
<text text-anchor="start" x="148" y="-1074" font-family="Helvetica,sans-Serif" font-size="10.00">+ GetByIndex()</text>
<text text-anchor="start" x="148" y="-1063" font-family="Helvetica,sans-Serif" font-size="10.00">+ GetByIndex()</text>
</a>
</g>
</g>
<!-- Node6&#45;&gt;Node5 -->
<g id="edge5" class="edge">
<title>Node6&#45;&gt;Node5</title>
<path fill="none" stroke="#404040" d="M225.23,-1056C224.27,-1042.63 223.25,-1028.5 222.27,-1014.91"/>
<polygon fill="none" stroke="#404040" points="222.24,-1014.59 217.82,-1008.89 221.38,-1002.62 225.8,-1008.32 222.24,-1014.59"/>
<text text-anchor="middle" x="248.5" y="-1024" font-family="Helvetica,sans-Serif" font-size="10.00"> +GNames</text>
</g>
<!-- Node7 -->
<g id="node7" class="node">
<title>Node7</title>
<g id="a_node7"><a xlink:href="../../d7/ddf/classSDK_1_1FNameEntry.html" target="_top" xlink:title=" ">
<polygon fill="white" stroke="black" points="180.5,-1282 180.5,-1350 279.5,-1350 279.5,-1282 180.5,-1282"/>
<text text-anchor="middle" x="230" y="-1338" font-family="Helvetica,sans-Serif" font-size="10.00">SDK::FNameEntry</text>
<polyline fill="none" stroke="black" points="180.5,-1331 279.5,-1331 "/>
<text text-anchor="start" x="188.5" y="-1319" font-family="Helvetica,sans-Serif" font-size="10.00">+ UnknownData00</text>
<text text-anchor="start" x="188.5" y="-1308" font-family="Helvetica,sans-Serif" font-size="10.00">+ name</text>
<polyline fill="none" stroke="black" points="180.5,-1301 279.5,-1301 "/>
<text text-anchor="start" x="188.5" y="-1289" font-family="Helvetica,sans-Serif" font-size="10.00">+ GetName()</text>
</a>
</g>
</g>
<!-- Node7&#45;&gt;Node6 -->
<g id="edge6" class="edge">
<title>Node7&#45;&gt;Node6</title>
<path fill="none" stroke="#404040" d="M230,-1281.73C230,-1259.76 230,-1230 230,-1202.25"/>
<polygon fill="none" stroke="#404040" points="230,-1202.1 226,-1196.1 230,-1190.1 234,-1196.1 230,-1202.1"/>
<text text-anchor="middle" x="244" y="-1217" font-family="Helvetica,sans-Serif" font-size="10.00"> &#45;Data</text>
</g>
<!-- Node8 -->
<g id="node8" class="node">
<title>Node8</title>
<g id="a_node8"><a xlink:href="../../d3/d79/classSDK_1_1TArray.html" target="_top" xlink:title=" ">
<polygon fill="white" stroke="black" points="411.5,-1243.5 411.5,-1388.5 508.5,-1388.5 508.5,-1243.5 411.5,-1243.5"/>
<text text-anchor="middle" x="460" y="-1376.5" font-family="Helvetica,sans-Serif" font-size="10.00">SDK::TArray&lt; T &gt;</text>
<polyline fill="none" stroke="black" points="411.5,-1369.5 508.5,-1369.5 "/>
<text text-anchor="start" x="419.5" y="-1357.5" font-family="Helvetica,sans-Serif" font-size="10.00">&#45; Data</text>
<text text-anchor="start" x="419.5" y="-1346.5" font-family="Helvetica,sans-Serif" font-size="10.00">&#45; Count</text>
<text text-anchor="start" x="419.5" y="-1335.5" font-family="Helvetica,sans-Serif" font-size="10.00">&#45; Max</text>
<polyline fill="none" stroke="black" points="411.5,-1328.5 508.5,-1328.5 "/>
<text text-anchor="start" x="419.5" y="-1316.5" font-family="Helvetica,sans-Serif" font-size="10.00">+ TArray()</text>
<text text-anchor="start" x="419.5" y="-1305.5" font-family="Helvetica,sans-Serif" font-size="10.00">+ Num()</text>
<text text-anchor="start" x="419.5" y="-1294.5" font-family="Helvetica,sans-Serif" font-size="10.00">+ operator[]()</text>
<text text-anchor="start" x="419.5" y="-1283.5" font-family="Helvetica,sans-Serif" font-size="10.00">+ operator[]()</text>
<text text-anchor="start" x="419.5" y="-1272.5" font-family="Helvetica,sans-Serif" font-size="10.00">+ IsValidIndex()</text>
<text text-anchor="start" x="419.5" y="-1261.5" font-family="Helvetica,sans-Serif" font-size="10.00">+ GetByIndex()</text>
<text text-anchor="start" x="419.5" y="-1250.5" font-family="Helvetica,sans-Serif" font-size="10.00">+ GetByIndex()</text>
</a>
</g>
</g>
<!-- Node8&#45;&gt;Node6 -->
<g id="edge7" class="edge">
<title>Node8&#45;&gt;Node6</title>
<path fill="none" stroke="orange" d="M401.92,-1294.03C366.21,-1278.97 321.27,-1255.87 289,-1225 278.51,-1214.96 269.28,-1202.65 261.42,-1190.12"/>
<polygon fill="orange" stroke="orange" points="400.68,-1297.31 411.26,-1297.88 403.34,-1290.83 400.68,-1297.31"/>
<text text-anchor="middle" x="344.5" y="-1217" font-family="Helvetica,sans-Serif" font-size="10.00"> &lt; SDK::FNameEntry * &gt;</text>
</g>
<!-- Node8&#45;&gt;Node9 -->
<g id="edge11" class="edge">
<title>Node8&#45;&gt;Node9</title>
<path fill="none" stroke="orange" d="M516.13,-1270.15C538.53,-1249.66 562.79,-1223.77 579,-1196 595.74,-1167.31 599,-1157.21 599,-1124 599,-1124 599,-1124 599,-686.5 599,-625.53 600.24,-556.06 601.34,-506.53"/>
<polygon fill="orange" stroke="orange" points="513.72,-1267.61 508.62,-1276.89 518.4,-1272.82 513.72,-1267.61"/>
<text text-anchor="middle" x="644.5" y="-938.5" font-family="Helvetica,sans-Serif" font-size="10.00"> &lt; SDK::UObject * &gt;</text>
</g>
<!-- Node15 -->
<g id="node15" class="node">
<title>Node15</title>
<g id="a_node15"><a xlink:href="../../d3/d79/classSDK_1_1TArray.html" target="_top" xlink:title=" ">
<polygon fill="white" stroke="black" points="429.5,-615 429.5,-760 536.5,-760 536.5,-615 429.5,-615"/>
<text text-anchor="start" x="437.5" y="-748" font-family="Helvetica,sans-Serif" font-size="10.00">SDK::TArray&lt; struct</text>
<text text-anchor="middle" x="483" y="-737" font-family="Helvetica,sans-Serif" font-size="10.00"> SDK::FString &gt;</text>
<polyline fill="none" stroke="black" points="429.5,-730 536.5,-730 "/>
<text text-anchor="start" x="437.5" y="-718" font-family="Helvetica,sans-Serif" font-size="10.00">&#45; Count</text>
<text text-anchor="start" x="437.5" y="-707" font-family="Helvetica,sans-Serif" font-size="10.00">&#45; Max</text>
<polyline fill="none" stroke="black" points="429.5,-700 536.5,-700 "/>
<text text-anchor="start" x="437.5" y="-688" font-family="Helvetica,sans-Serif" font-size="10.00">+ TArray()</text>
<text text-anchor="start" x="437.5" y="-677" font-family="Helvetica,sans-Serif" font-size="10.00">+ Num()</text>
<text text-anchor="start" x="437.5" y="-666" font-family="Helvetica,sans-Serif" font-size="10.00">+ operator[]()</text>
<text text-anchor="start" x="437.5" y="-655" font-family="Helvetica,sans-Serif" font-size="10.00">+ operator[]()</text>
<text text-anchor="start" x="437.5" y="-644" font-family="Helvetica,sans-Serif" font-size="10.00">+ IsValidIndex()</text>
<text text-anchor="start" x="437.5" y="-633" font-family="Helvetica,sans-Serif" font-size="10.00">+ GetByIndex()</text>
<text text-anchor="start" x="437.5" y="-622" font-family="Helvetica,sans-Serif" font-size="10.00">+ GetByIndex()</text>
</a>
</g>
</g>
<!-- Node8&#45;&gt;Node15 -->
<g id="edge25" class="edge">
<title>Node8&#45;&gt;Node15</title>
<path fill="none" stroke="orange" d="M443.01,-1233.41C440.56,-1220.9 438.14,-1208.12 436,-1196 423.15,-1123.4 416.57,-1105.52 411,-1032 403.77,-936.61 432.49,-829.03 455.78,-760.08"/>
<polygon fill="orange" stroke="orange" points="439.6,-1234.24 444.98,-1243.37 446.47,-1232.88 439.6,-1234.24"/>
<text text-anchor="middle" x="465" y="-1024" font-family="Helvetica,sans-Serif" font-size="10.00"> &lt; struct SDK::FString &gt;</text>
</g>
<!-- Node17 -->
<g id="node17" class="node">
<title>Node17</title>
<g id="a_node17"><a xlink:href="../../d3/d79/classSDK_1_1TArray.html" target="_top" xlink:title=" ">
<polygon fill="white" stroke="black" points="444.5,-1050.5 444.5,-1195.5 569.5,-1195.5 569.5,-1050.5 444.5,-1050.5"/>
<text text-anchor="middle" x="507" y="-1183.5" font-family="Helvetica,sans-Serif" font-size="10.00">SDK::TArray&lt; wchar_t &gt;</text>
<polyline fill="none" stroke="black" points="444.5,-1176.5 569.5,-1176.5 "/>
<text text-anchor="start" x="452.5" y="-1164.5" font-family="Helvetica,sans-Serif" font-size="10.00">&#45; Data</text>
<text text-anchor="start" x="452.5" y="-1153.5" font-family="Helvetica,sans-Serif" font-size="10.00">&#45; Count</text>
<text text-anchor="start" x="452.5" y="-1142.5" font-family="Helvetica,sans-Serif" font-size="10.00">&#45; Max</text>
<polyline fill="none" stroke="black" points="444.5,-1135.5 569.5,-1135.5 "/>
<text text-anchor="start" x="452.5" y="-1123.5" font-family="Helvetica,sans-Serif" font-size="10.00">+ TArray()</text>
<text text-anchor="start" x="452.5" y="-1112.5" font-family="Helvetica,sans-Serif" font-size="10.00">+ Num()</text>
<text text-anchor="start" x="452.5" y="-1101.5" font-family="Helvetica,sans-Serif" font-size="10.00">+ operator[]()</text>
<text text-anchor="start" x="452.5" y="-1090.5" font-family="Helvetica,sans-Serif" font-size="10.00">+ operator[]()</text>
<text text-anchor="start" x="452.5" y="-1079.5" font-family="Helvetica,sans-Serif" font-size="10.00">+ IsValidIndex()</text>
<text text-anchor="start" x="452.5" y="-1068.5" font-family="Helvetica,sans-Serif" font-size="10.00">+ GetByIndex()</text>
<text text-anchor="start" x="452.5" y="-1057.5" font-family="Helvetica,sans-Serif" font-size="10.00">+ GetByIndex()</text>
</a>
</g>
</g>
<!-- Node8&#45;&gt;Node17 -->
<g id="edge24" class="edge">
<title>Node8&#45;&gt;Node17</title>
<path fill="none" stroke="orange" d="M480.08,-1233.38C483.16,-1220.87 486.32,-1208.03 489.34,-1195.75"/>
<polygon fill="orange" stroke="orange" points="476.63,-1232.79 477.63,-1243.34 483.42,-1234.46 476.63,-1232.79"/>
<text text-anchor="middle" x="511" y="-1217" font-family="Helvetica,sans-Serif" font-size="10.00"> &lt; wchar_t &gt;</text>
</g>
<!-- Node9&#45;&gt;Node3 -->
<g id="edge9" class="edge">
<title>Node9&#45;&gt;Node3</title>
<path fill="none" stroke="#404040" d="M533.63,-506.54C526.96,-510.9 520.05,-514.82 513,-518 459.84,-542.01 435.92,-511.47 383,-536 362.28,-545.61 342.27,-558.65 323.74,-573.06"/>
<polygon fill="none" stroke="#404040" points="323.55,-573.21 321.37,-580.09 314.19,-580.71 316.37,-573.84 323.55,-573.21"/>
<text text-anchor="middle" x="408.5" y="-539" font-family="Helvetica,sans-Serif" font-size="10.00"> +GObjects</text>
</g>
<!-- Node10 -->
<g id="node10" class="node">
<title>Node10</title>
<g id="a_node10"><a xlink:href="../../d9/dfa/structSDK_1_1FPointer.html" target="_top" xlink:title=" ">
<polygon fill="white" stroke="black" points="48,-907 48,-975 146,-975 146,-907 48,-907"/>
<text text-anchor="middle" x="97" y="-963" font-family="Helvetica,sans-Serif" font-size="10.00">SDK::FPointer</text>
<polyline fill="none" stroke="black" points="48,-956 146,-956 "/>
<text text-anchor="start" x="56" y="-944" font-family="Helvetica,sans-Serif" font-size="10.00">+ Dummy</text>
<text text-anchor="start" x="56" y="-933" font-family="Helvetica,sans-Serif" font-size="10.00">+ UnknownData00</text>
<polyline fill="none" stroke="black" points="48,-926 146,-926 "/>
<text text-anchor="middle" x="97" y="-914" font-family="Helvetica,sans-Serif" font-size="10.00"> </text>
</a>
</g>
</g>
<!-- Node10&#45;&gt;Node3 -->
<g id="edge12" class="edge">
<title>Node10&#45;&gt;Node3</title>
<path fill="none" stroke="#404040" d="M110.15,-906.89C119.24,-884.44 131.85,-854.21 144,-828 145.14,-825.55 146.29,-823.07 147.47,-820.58"/>
<polygon fill="none" stroke="#404040" points="147.54,-820.43 146.51,-813.29 152.7,-809.59 153.73,-816.73 147.54,-820.43"/>
<text text-anchor="middle" x="178.5" y="-853" font-family="Helvetica,sans-Serif" font-size="10.00"> +StateFrame</text>
<text text-anchor="middle" x="178.5" y="-842" font-family="Helvetica,sans-Serif" font-size="10.00">+VfTableObject</text>
<text text-anchor="middle" x="178.5" y="-831" font-family="Helvetica,sans-Serif" font-size="10.00">+LinkerIndex</text>
</g>
<!-- Node11&#45;&gt;Node3 -->
<g id="edge13" class="edge">
<title>Node11&#45;&gt;Node3</title>
<path fill="none" stroke="#404040" d="M131,-90.72C131,-110.67 131,-134.52 131,-156 131,-440.5 131,-440.5 131,-440.5 131,-478.37 140.03,-517.85 152.16,-553.81"/>
<polygon fill="none" stroke="#404040" points="152.24,-554.03 158,-558.37 156.2,-565.35 150.44,-561.01 152.24,-554.03"/>
<text text-anchor="middle" x="148.5" y="-260.5" font-family="Helvetica,sans-Serif" font-size="10.00"> +Class</text>
</g>
<!-- Node12 -->
<g id="node12" class="node">
<title>Node12</title>
<g id="a_node12"><a xlink:href="../../df/d72/classSDK_1_1UState.html" target="_top" xlink:title=" ">
<polygon fill="white" stroke="black" points="171,-128.5 171,-185.5 269,-185.5 269,-128.5 171,-128.5"/>
<text text-anchor="middle" x="220" y="-173.5" font-family="Helvetica,sans-Serif" font-size="10.00">SDK::UState</text>
<polyline fill="none" stroke="black" points="171,-166.5 269,-166.5 "/>
<text text-anchor="start" x="179" y="-154.5" font-family="Helvetica,sans-Serif" font-size="10.00">+ UnknownData00</text>
<polyline fill="none" stroke="black" points="171,-147.5 269,-147.5 "/>
<text text-anchor="start" x="179" y="-135.5" font-family="Helvetica,sans-Serif" font-size="10.00">+ StaticClass()</text>
</a>
</g>
</g>
<!-- Node12&#45;&gt;Node11 -->
<g id="edge14" class="edge">
<title>Node12&#45;&gt;Node11</title>
<path fill="none" stroke="midnightblue" d="M191.01,-120.33C183.33,-110.89 174.95,-100.58 166.96,-90.74"/>
<polygon fill="none" stroke="midnightblue" points="188.52,-122.82 197.54,-128.37 193.95,-118.4 188.52,-122.82"/>
</g>
<!-- Node13 -->
<g id="node13" class="node">
<title>Node13</title>
<g id="a_node13"><a xlink:href="../../d8/de9/classSDK_1_1UStruct.html" target="_top" xlink:title=" ">
<polygon fill="white" stroke="black" points="184,-223.5 184,-302.5 282,-302.5 282,-223.5 184,-223.5"/>
<text text-anchor="middle" x="233" y="-290.5" font-family="Helvetica,sans-Serif" font-size="10.00">SDK::UStruct</text>
<polyline fill="none" stroke="black" points="184,-283.5 282,-283.5 "/>
<text text-anchor="start" x="192" y="-271.5" font-family="Helvetica,sans-Serif" font-size="10.00">+ UnknownData00</text>
<text text-anchor="start" x="192" y="-260.5" font-family="Helvetica,sans-Serif" font-size="10.00">+ PropertySize</text>
<text text-anchor="start" x="192" y="-249.5" font-family="Helvetica,sans-Serif" font-size="10.00">+ UnknownData01</text>
<polyline fill="none" stroke="black" points="184,-242.5 282,-242.5 "/>
<text text-anchor="start" x="192" y="-230.5" font-family="Helvetica,sans-Serif" font-size="10.00">+ StaticClass()</text>
</a>
</g>
</g>
<!-- Node13&#45;&gt;Node12 -->
<g id="edge15" class="edge">
<title>Node13&#45;&gt;Node12</title>
<path fill="none" stroke="midnightblue" d="M226.9,-213.16C225.72,-203.74 224.52,-194.17 223.46,-185.72"/>
<polygon fill="none" stroke="midnightblue" points="223.45,-213.79 228.16,-223.27 230.39,-212.92 223.45,-213.79"/>
</g>
<!-- Node14&#45;&gt;Node13 -->
<g id="edge16" class="edge">
<title>Node14&#45;&gt;Node13</title>
<path fill="none" stroke="midnightblue" d="M219.9,-401.78C227.8,-384.44 236.04,-363.17 240,-343 242.55,-330.03 242.2,-315.68 240.77,-302.8"/>
<polygon fill="none" stroke="midnightblue" points="216.67,-400.44 215.58,-410.98 223,-403.41 216.67,-400.44"/>
</g>
<!-- Node14&#45;&gt;Node13 -->
<g id="edge19" class="edge">
<title>Node14&#45;&gt;Node13</title>
<path fill="none" stroke="#404040" d="M187.71,-410.59C178.04,-386.24 168.48,-350.31 180,-321 181.06,-318.29 182.32,-315.64 183.74,-313.05"/>
<polygon fill="none" stroke="#404040" points="183.85,-312.88 183.72,-305.67 190.32,-302.78 190.45,-309.99 183.85,-312.88"/>
<text text-anchor="middle" x="208" y="-335" font-family="Helvetica,sans-Serif" font-size="10.00"> +SuperField</text>
<text text-anchor="middle" x="208" y="-324" font-family="Helvetica,sans-Serif" font-size="10.00">+Children</text>
</g>
<!-- Node14&#45;&gt;Node14 -->
<g id="edge18" class="edge">
<title>Node14&#45;&gt;Node14</title>
<path fill="none" stroke="#404040" d="M242.71,-458.33C252.91,-456.93 260.5,-450.66 260.5,-439.5 260.5,-433.22 258.1,-428.49 254.18,-425.31"/>
<polygon fill="none" stroke="#404040" points="253.83,-425.17 246.77,-426.63 242.71,-420.67 249.77,-419.21 253.83,-425.17"/>
<text text-anchor="middle" x="276" y="-437" font-family="Helvetica,sans-Serif" font-size="10.00"> +Next</text>
</g>
<!-- Node15&#45;&gt;Node2 -->
<g id="edge21" class="edge">
<title>Node15&#45;&gt;Node2</title>
<path fill="none" stroke="#404040" d="M460.81,-614.69C452.57,-588.01 443.12,-557.42 434.46,-529.39"/>
<polygon fill="none" stroke="#404040" points="434.35,-529.02 428.76,-524.47 430.81,-517.56 436.4,-522.11 434.35,-529.02"/>
<text text-anchor="middle" x="491" y="-539" font-family="Helvetica,sans-Serif" font-size="10.00"> +BadCapsLocContexts</text>
</g>
<!-- Node16 -->
<g id="node16" class="node">
<title>Node16</title>
<g id="a_node16"><a xlink:href="../../d3/d88/classSDK_1_1FString.html" target="_top" xlink:title=" ">
<polygon fill="white" stroke="black" points="466.5,-890.5 466.5,-991.5 541.5,-991.5 541.5,-890.5 466.5,-890.5"/>
<text text-anchor="middle" x="504" y="-979.5" font-family="Helvetica,sans-Serif" font-size="10.00">SDK::FString</text>
<polyline fill="none" stroke="black" points="466.5,-972.5 541.5,-972.5 "/>
<text text-anchor="middle" x="504" y="-960.5" font-family="Helvetica,sans-Serif" font-size="10.00"> </text>
<polyline fill="none" stroke="black" points="466.5,-953.5 541.5,-953.5 "/>
<text text-anchor="start" x="474.5" y="-941.5" font-family="Helvetica,sans-Serif" font-size="10.00">+ FString()</text>
<text text-anchor="start" x="474.5" y="-930.5" font-family="Helvetica,sans-Serif" font-size="10.00">+ FString()</text>
<text text-anchor="start" x="474.5" y="-919.5" font-family="Helvetica,sans-Serif" font-size="10.00">+ IsValid()</text>
<text text-anchor="start" x="474.5" y="-908.5" font-family="Helvetica,sans-Serif" font-size="10.00">+ c_str()</text>
<text text-anchor="start" x="474.5" y="-897.5" font-family="Helvetica,sans-Serif" font-size="10.00">+ ToString()</text>
</a>
</g>
</g>
<!-- Node16&#45;&gt;Node15 -->
<g id="edge22" class="edge">
<title>Node16&#45;&gt;Node15</title>
<path fill="none" stroke="#404040" d="M499.85,-890.31C497.05,-856.78 493.29,-811.7 490.03,-772.65"/>
<polygon fill="none" stroke="#404040" points="490.01,-772.43 485.52,-766.78 489.01,-760.47 493.5,-766.12 490.01,-772.43"/>
<text text-anchor="middle" x="511" y="-842" font-family="Helvetica,sans-Serif" font-size="10.00"> &#45;Data</text>
</g>
<!-- Node17&#45;&gt;Node16 -->
<g id="edge23" class="edge">
<title>Node17&#45;&gt;Node16</title>
<path fill="none" stroke="midnightblue" d="M523.81,-1040.18C523.97,-1033.7 523.74,-1027.25 523,-1021 521.87,-1011.47 520,-1001.44 517.86,-991.83"/>
<polygon fill="none" stroke="midnightblue" points="520.31,-1040.2 523.27,-1050.37 527.3,-1040.57 520.31,-1040.2"/>
</g>
</g>
</svg>
