<?xml version="1.0" encoding="UTF-8" standalone="no"?>
<!DOCTYPE svg PUBLIC "-//W3C//DTD SVG 1.1//EN"
 "http://www.w3.org/Graphics/SVG/1.1/DTD/svg11.dtd">
<!-- Generated by graphviz version 2.41.20171026.1811 (20171026.1811)
 -->
<!-- Title: SDK::FEFDropItemEffectDominentLightInfo Pages: 1 -->
<svg width="242pt" height="463pt"
 viewBox="0.00 0.00 241.50 463.00" xmlns="http://www.w3.org/2000/svg" xmlns:xlink="http://www.w3.org/1999/xlink">
<g id="graph0" class="graph" transform="scale(1 1) rotate(0) translate(4 459)">
<title>SDK::FEFDropItemEffectDominentLightInfo</title>
<polygon fill="white" stroke="transparent" points="-4,4 -4,-459 237.5,-459 237.5,4 -4,4"/>
<!-- Node1 -->
<g id="node1" class="node">
<title>Node1</title>
<g id="a_node1"><a xlink:title=" ">
<polygon fill="#bfbfbf" stroke="black" points="0,-0.5 0,-112.5 171,-112.5 171,-0.5 0,-0.5"/>
<text text-anchor="start" x="8" y="-100.5" font-family="Helvetica,sans-Serif" font-size="10.00">SDK::FEFDropItemEffectDominent</text>
<text text-anchor="middle" x="85.5" y="-89.5" font-family="Helvetica,sans-Serif" font-size="10.00">LightInfo</text>
<polyline fill="none" stroke="black" points="0,-82.5 171,-82.5 "/>
<text text-anchor="start" x="8" y="-70.5" font-family="Helvetica,sans-Serif" font-size="10.00">+ UnknownData00</text>
<text text-anchor="start" x="8" y="-59.5" font-family="Helvetica,sans-Serif" font-size="10.00">+ fBrightness</text>
<text text-anchor="start" x="8" y="-48.5" font-family="Helvetica,sans-Serif" font-size="10.00">+ fLifeTime</text>
<text text-anchor="start" x="8" y="-37.5" font-family="Helvetica,sans-Serif" font-size="10.00">+ fGuaranteeTime</text>
<text text-anchor="start" x="8" y="-26.5" font-family="Helvetica,sans-Serif" font-size="10.00">+ fReleaseTime</text>
<polyline fill="none" stroke="black" points="0,-19.5 171,-19.5 "/>
<text text-anchor="middle" x="85.5" y="-7.5" font-family="Helvetica,sans-Serif" font-size="10.00"> </text>
</a>
</g>
</g>
<!-- Node2 -->
<g id="node2" class="node">
<title>Node2</title>
<g id="a_node2"><a xlink:href="../../df/d1c/classSDK_1_1TEnumAsByte.html" target="_top" xlink:title=" ">
<polygon fill="white" stroke="black" points="10.5,-160.5 10.5,-294.5 160.5,-294.5 160.5,-160.5 10.5,-160.5"/>
<text text-anchor="start" x="18.5" y="-282.5" font-family="Helvetica,sans-Serif" font-size="10.00">SDK::TEnumAsByte&lt; EFDrop</text>
<text text-anchor="middle" x="85.5" y="-271.5" font-family="Helvetica,sans-Serif" font-size="10.00">ItemEffectEventType &gt;</text>
<polyline fill="none" stroke="black" points="10.5,-264.5 160.5,-264.5 "/>
<text text-anchor="start" x="18.5" y="-252.5" font-family="Helvetica,sans-Serif" font-size="10.00">&#45; value</text>
<polyline fill="none" stroke="black" points="10.5,-245.5 160.5,-245.5 "/>
<text text-anchor="start" x="18.5" y="-233.5" font-family="Helvetica,sans-Serif" font-size="10.00">+ TEnumAsByte()</text>
<text text-anchor="start" x="18.5" y="-222.5" font-family="Helvetica,sans-Serif" font-size="10.00">+ TEnumAsByte()</text>
<text text-anchor="start" x="18.5" y="-211.5" font-family="Helvetica,sans-Serif" font-size="10.00">+ TEnumAsByte()</text>
<text text-anchor="start" x="18.5" y="-200.5" font-family="Helvetica,sans-Serif" font-size="10.00">+ TEnumAsByte()</text>
<text text-anchor="start" x="18.5" y="-189.5" font-family="Helvetica,sans-Serif" font-size="10.00">+ operator EFDropItemEffect</text>
<text text-anchor="start" x="18.5" y="-178.5" font-family="Helvetica,sans-Serif" font-size="10.00">EventType()</text>
<text text-anchor="start" x="18.5" y="-167.5" font-family="Helvetica,sans-Serif" font-size="10.00">+ GetValue()</text>
</a>
</g>
</g>
<!-- Node2&#45;&gt;Node1 -->
<g id="edge1" class="edge">
<title>Node2&#45;&gt;Node1</title>
<path fill="none" stroke="#404040" d="M85.5,-160.19C85.5,-148.65 85.5,-136.63 85.5,-125.05"/>
<polygon fill="none" stroke="#404040" points="85.5,-124.7 81.5,-118.7 85.5,-112.7 89.5,-118.7 85.5,-124.7"/>
<text text-anchor="middle" x="116.5" y="-134" font-family="Helvetica,sans-Serif" font-size="10.00"> +eEventType</text>
</g>
<!-- Node3 -->
<g id="node3" class="node">
<title>Node3</title>
<g id="a_node3"><a xlink:href="../../df/d1c/classSDK_1_1TEnumAsByte.html" target="_top" xlink:title=" ">
<polygon fill="white" stroke="black" points="7,-342.5 7,-454.5 164,-454.5 164,-342.5 7,-342.5"/>
<text text-anchor="middle" x="85.5" y="-442.5" font-family="Helvetica,sans-Serif" font-size="10.00">SDK::TEnumAsByte&lt; TEnum &gt;</text>
<polyline fill="none" stroke="black" points="7,-435.5 164,-435.5 "/>
<text text-anchor="start" x="15" y="-423.5" font-family="Helvetica,sans-Serif" font-size="10.00">&#45; value</text>
<polyline fill="none" stroke="black" points="7,-416.5 164,-416.5 "/>
<text text-anchor="start" x="15" y="-404.5" font-family="Helvetica,sans-Serif" font-size="10.00">+ TEnumAsByte()</text>
<text text-anchor="start" x="15" y="-393.5" font-family="Helvetica,sans-Serif" font-size="10.00">+ TEnumAsByte()</text>
<text text-anchor="start" x="15" y="-382.5" font-family="Helvetica,sans-Serif" font-size="10.00">+ TEnumAsByte()</text>
<text text-anchor="start" x="15" y="-371.5" font-family="Helvetica,sans-Serif" font-size="10.00">+ TEnumAsByte()</text>
<text text-anchor="start" x="15" y="-360.5" font-family="Helvetica,sans-Serif" font-size="10.00">+ operator TEnum()</text>
<text text-anchor="start" x="15" y="-349.5" font-family="Helvetica,sans-Serif" font-size="10.00">+ GetValue()</text>
</a>
</g>
</g>
<!-- Node3&#45;&gt;Node2 -->
<g id="edge2" class="edge">
<title>Node3&#45;&gt;Node2</title>
<path fill="none" stroke="orange" d="M85.5,-332C85.5,-319.71 85.5,-306.86 85.5,-294.56"/>
<polygon fill="orange" stroke="orange" points="82,-332.16 85.5,-342.16 89,-332.16 82,-332.16"/>
<text text-anchor="middle" x="159.5" y="-316" font-family="Helvetica,sans-Serif" font-size="10.00"> &lt; EFDropItemEffectEventType &gt;</text>
</g>
</g>
</svg>
