<?xml version="1.0" encoding="UTF-8" standalone="no"?>
<!DOCTYPE svg PUBLIC "-//W3C//DTD SVG 1.1//EN"
 "http://www.w3.org/Graphics/SVG/1.1/DTD/svg11.dtd">
<!-- Generated by graphviz version 2.41.20171026.1811 (20171026.1811)
 -->
<!-- Title: SDK::UActorFactory Pages: 1 -->
<!--zoomable 1604 -->
<svg id="main" version="1.1" xmlns="http://www.w3.org/2000/svg" xmlns:xlink="http://www.w3.org/1999/xlink" xml:space="preserve" onload="init(evt)">
<style type="text/css"><![CDATA[
.edge:hover path { stroke: red; }
.edge:hover polygon { stroke: red; fill: red; }
]]></style>
<script type="text/javascript"><![CDATA[
var edges = document.getElementsByTagName('g');
if (edges && edges.length) {
  for (var i=0;i<edges.length;i++) {
    if (edges[i].id.substr(0,4)=='edge') {
      edges[i].setAttribute('class','edge');
    }
  }
}
]]></script>
        <defs>
                <circle id="rim" cx="0" cy="0" r="7"/>
                <circle id="rim2" cx="0" cy="0" r="3.5"/>
                <g id="zoomPlus">
                        <use xlink:href="#rim" fill="#404040">
                                <set attributeName="fill" to="#808080" begin="zoomplus.mouseover" end="zoomplus.mouseout"/>
                        </use>
                        <path d="M-4,0h8M0,-4v8" fill="none" stroke="white" stroke-width="1.5" pointer-events="none"/>
                </g>
                <g id="zoomMin">
                        <use xlink:href="#rim" fill="#404040">
                                <set attributeName="fill" to="#808080" begin="zoomminus.mouseover" end="zoomminus.mouseout"/>
                        </use>
                        <path d="M-4,0h8" fill="none" stroke="white" stroke-width="1.5" pointer-events="none"/>
                </g>
                <g id="dirArrow">
                        <path fill="none" stroke="white" stroke-width="1.5" d="M0,-3.0v7 M-2.5,-0.5L0,-3.0L2.5,-0.5"/>
                </g>
               <g id="resetDef">
                       <use xlink:href="#rim2" fill="#404040">
                               <set attributeName="fill" to="#808080" begin="reset.mouseover" end="reset.mouseout"/>
                       </use>
               </g>
        </defs>

<script type="text/javascript">
var viewWidth = 635;
var viewHeight = 1604;
var sectionId = 'dynsection-1';
</script>
<script xlink:href="../../svgpan.js"/>
<svg id="graph" class="graph">
<g id="viewport">
<title>SDK::UActorFactory</title>
<polygon fill="white" stroke="transparent" points="-4,4 -4,-1600 630.5,-1600 630.5,4 -4,4"/>
<!-- Node1 -->
<g id="node1" class="node">
<title>Node1</title>
<g id="a_node1"><a xlink:title=" ">
<polygon fill="#bfbfbf" stroke="black" points="360,-0.5 360,-101.5 499,-101.5 499,-0.5 360,-0.5"/>
<text text-anchor="middle" x="429.5" y="-89.5" font-family="Helvetica,sans-Serif" font-size="10.00">SDK::UActorFactory</text>
<polyline fill="none" stroke="black" points="360,-82.5 499,-82.5 "/>
<text text-anchor="start" x="368" y="-70.5" font-family="Helvetica,sans-Serif" font-size="10.00">+ MenuPriority</text>
<text text-anchor="start" x="368" y="-59.5" font-family="Helvetica,sans-Serif" font-size="10.00">+ AlternateMenuPriority</text>
<text text-anchor="start" x="368" y="-48.5" font-family="Helvetica,sans-Serif" font-size="10.00">+ bPlaceable</text>
<text text-anchor="start" x="368" y="-37.5" font-family="Helvetica,sans-Serif" font-size="10.00">+ bShowInEditorQuickMenu</text>
<polyline fill="none" stroke="black" points="360,-30.5 499,-30.5 "/>
<text text-anchor="start" x="368" y="-18.5" font-family="Helvetica,sans-Serif" font-size="10.00">+ PostCreateActor()</text>
<text text-anchor="start" x="368" y="-7.5" font-family="Helvetica,sans-Serif" font-size="10.00">+ StaticClass()</text>
</a>
</g>
</g>
<!-- Node2 -->
<g id="node2" class="node">
<title>Node2</title>
<g id="a_node2"><a xlink:href="../../d9/d45/classSDK_1_1UObject.html" target="_top" xlink:title=" ">
<polygon fill="white" stroke="black" points="331.5,-703.5 331.5,-947.5 529.5,-947.5 529.5,-703.5 331.5,-703.5"/>
<text text-anchor="middle" x="430.5" y="-935.5" font-family="Helvetica,sans-Serif" font-size="10.00">SDK::UObject</text>
<polyline fill="none" stroke="black" points="331.5,-928.5 529.5,-928.5 "/>
<text text-anchor="start" x="339.5" y="-916.5" font-family="Helvetica,sans-Serif" font-size="10.00">+ ObjectInternalInteger</text>
<text text-anchor="start" x="339.5" y="-905.5" font-family="Helvetica,sans-Serif" font-size="10.00">+ NetIndex</text>
<polyline fill="none" stroke="black" points="331.5,-898.5 529.5,-898.5 "/>
<text text-anchor="start" x="339.5" y="-886.5" font-family="Helvetica,sans-Serif" font-size="10.00">+ UObject::GetName()</text>
<text text-anchor="start" x="339.5" y="-875.5" font-family="Helvetica,sans-Serif" font-size="10.00">+ GetFullName()</text>
<text text-anchor="start" x="339.5" y="-864.5" font-family="Helvetica,sans-Serif" font-size="10.00">+ IsA()</text>
<text text-anchor="start" x="339.5" y="-853.5" font-family="Helvetica,sans-Serif" font-size="10.00">+ ProcessEvent()</text>
<text text-anchor="start" x="339.5" y="-842.5" font-family="Helvetica,sans-Serif" font-size="10.00">+ STATIC_ProfNodeEvent()</text>
<text text-anchor="start" x="339.5" y="-831.5" font-family="Helvetica,sans-Serif" font-size="10.00">+ STATIC_ProfNodeSetDepthThreshold()</text>
<text text-anchor="start" x="339.5" y="-820.5" font-family="Helvetica,sans-Serif" font-size="10.00">+ STATIC_ProfNodeSetTimeThreshold</text>
<text text-anchor="start" x="339.5" y="-809.5" font-family="Helvetica,sans-Serif" font-size="10.00">Seconds()</text>
<text text-anchor="start" x="339.5" y="-798.5" font-family="Helvetica,sans-Serif" font-size="10.00">+ STATIC_ProfNodeStop()</text>
<text text-anchor="start" x="339.5" y="-787.5" font-family="Helvetica,sans-Serif" font-size="10.00">+ STATIC_ProfNodeStart()</text>
<text text-anchor="start" x="339.5" y="-776.5" font-family="Helvetica,sans-Serif" font-size="10.00">+ STATIC_GetStringFromGuid()</text>
<text text-anchor="start" x="339.5" y="-765.5" font-family="Helvetica,sans-Serif" font-size="10.00">and 298 more...</text>
<text text-anchor="start" x="339.5" y="-754.5" font-family="Helvetica,sans-Serif" font-size="10.00">+ GetGlobalObjects()</text>
<text text-anchor="start" x="339.5" y="-743.5" font-family="Helvetica,sans-Serif" font-size="10.00">+ FindObject()</text>
<text text-anchor="start" x="339.5" y="-732.5" font-family="Helvetica,sans-Serif" font-size="10.00">+ FindClass()</text>
<text text-anchor="start" x="339.5" y="-721.5" font-family="Helvetica,sans-Serif" font-size="10.00">+ GetObjectCasted()</text>
<text text-anchor="start" x="339.5" y="-710.5" font-family="Helvetica,sans-Serif" font-size="10.00">+ StaticClass()</text>
</a>
</g>
</g>
<!-- Node2&#45;&gt;Node1 -->
<g id="edge1" class="edge">
<title>Node2&#45;&gt;Node1</title>
<path fill="none" stroke="midnightblue" d="M537.03,-748.73C581.71,-707.63 623.5,-652.39 623.5,-589.5 623.5,-589.5 623.5,-589.5 623.5,-204.5 623.5,-139.27 554.88,-97.69 499.26,-74.7"/>
<polygon fill="none" stroke="midnightblue" points="534.64,-746.17 529.54,-755.46 539.32,-751.37 534.64,-746.17"/>
</g>
<!-- Node2&#45;&gt;Node2 -->
<g id="edge7" class="edge">
<title>Node2&#45;&gt;Node2</title>
<path fill="none" stroke="#404040" d="M529.51,-848.53C540.44,-844.15 547.5,-836.48 547.5,-825.5 547.5,-818.64 544.74,-813.07 540.01,-808.78"/>
<polygon fill="none" stroke="#404040" points="539.8,-808.66 532.59,-808.99 529.51,-802.47 536.72,-802.14 539.8,-808.66"/>
<text text-anchor="middle" x="587" y="-834" font-family="Helvetica,sans-Serif" font-size="10.00"> +Outer</text>
<text text-anchor="middle" x="587" y="-823" font-family="Helvetica,sans-Serif" font-size="10.00">+Linker</text>
<text text-anchor="middle" x="587" y="-812" font-family="Helvetica,sans-Serif" font-size="10.00">+ObjectArchetype</text>
</g>
<!-- Node8 -->
<g id="node8" class="node">
<title>Node8</title>
<g id="a_node8"><a xlink:href="../../d3/d79/classSDK_1_1TArray.html" target="_top" xlink:title=" ">
<polygon fill="white" stroke="black" points="91,-521.5 91,-655.5 252,-655.5 252,-521.5 91,-521.5"/>
<text text-anchor="middle" x="171.5" y="-643.5" font-family="Helvetica,sans-Serif" font-size="10.00">SDK::TArray&lt; SDK::UObject * &gt;</text>
<polyline fill="none" stroke="black" points="91,-636.5 252,-636.5 "/>
<text text-anchor="start" x="99" y="-624.5" font-family="Helvetica,sans-Serif" font-size="10.00">&#45; Count</text>
<text text-anchor="start" x="99" y="-613.5" font-family="Helvetica,sans-Serif" font-size="10.00">&#45; Max</text>
<polyline fill="none" stroke="black" points="91,-606.5 252,-606.5 "/>
<text text-anchor="start" x="99" y="-594.5" font-family="Helvetica,sans-Serif" font-size="10.00">+ TArray()</text>
<text text-anchor="start" x="99" y="-583.5" font-family="Helvetica,sans-Serif" font-size="10.00">+ Num()</text>
<text text-anchor="start" x="99" y="-572.5" font-family="Helvetica,sans-Serif" font-size="10.00">+ operator[]()</text>
<text text-anchor="start" x="99" y="-561.5" font-family="Helvetica,sans-Serif" font-size="10.00">+ operator[]()</text>
<text text-anchor="start" x="99" y="-550.5" font-family="Helvetica,sans-Serif" font-size="10.00">+ IsValidIndex()</text>
<text text-anchor="start" x="99" y="-539.5" font-family="Helvetica,sans-Serif" font-size="10.00">+ GetByIndex()</text>
<text text-anchor="start" x="99" y="-528.5" font-family="Helvetica,sans-Serif" font-size="10.00">+ GetByIndex()</text>
</a>
</g>
</g>
<!-- Node2&#45;&gt;Node8 -->
<g id="edge9" class="edge">
<title>Node2&#45;&gt;Node8</title>
<path fill="none" stroke="#404040" d="M331.4,-722.39C314.42,-705.86 296.69,-689.2 279.5,-674 273.76,-668.93 267.76,-663.8 261.66,-658.71"/>
<polygon fill="none" stroke="#404040" points="261.26,-658.38 254.09,-657.65 252,-650.74 259.17,-651.47 261.26,-658.38"/>
<text text-anchor="middle" x="302.5" y="-677" font-family="Helvetica,sans-Serif" font-size="10.00"> &#45;Data</text>
</g>
<!-- Node10 -->
<g id="node10" class="node">
<title>Node10</title>
<g id="a_node10"><a xlink:href="../../d7/d85/classSDK_1_1UClass.html" target="_top" xlink:title=" ">
<polygon fill="white" stroke="black" points="369,-160.5 369,-250.5 490,-250.5 490,-160.5 369,-160.5"/>
<text text-anchor="middle" x="429.5" y="-238.5" font-family="Helvetica,sans-Serif" font-size="10.00">SDK::UClass</text>
<polyline fill="none" stroke="black" points="369,-231.5 490,-231.5 "/>
<text text-anchor="start" x="377" y="-219.5" font-family="Helvetica,sans-Serif" font-size="10.00">+ UnknownData00</text>
<text text-anchor="start" x="377" y="-208.5" font-family="Helvetica,sans-Serif" font-size="10.00">+ UnknownData01</text>
<polyline fill="none" stroke="black" points="369,-201.5 490,-201.5 "/>
<text text-anchor="start" x="377" y="-189.5" font-family="Helvetica,sans-Serif" font-size="10.00">+ CreateDefaultObject()</text>
<text text-anchor="start" x="377" y="-178.5" font-family="Helvetica,sans-Serif" font-size="10.00">+ CreateDefaultObject()</text>
<text text-anchor="start" x="377" y="-167.5" font-family="Helvetica,sans-Serif" font-size="10.00">+ StaticClass()</text>
</a>
</g>
</g>
<!-- Node2&#45;&gt;Node10 -->
<g id="edge19" class="edge">
<title>Node2&#45;&gt;Node10</title>
<path fill="none" stroke="#404040" d="M430.3,-703.14C430.09,-569.99 429.75,-362.01 429.59,-262.81"/>
<polygon fill="none" stroke="#404040" points="429.59,-262.7 425.58,-256.7 429.57,-250.7 433.58,-256.69 429.59,-262.7"/>
<text text-anchor="middle" x="477" y="-420.5" font-family="Helvetica,sans-Serif" font-size="10.00"> +ClassDefaultObject</text>
</g>
<!-- Node13 -->
<g id="node13" class="node">
<title>Node13</title>
<g id="a_node13"><a xlink:href="../../de/dd6/classSDK_1_1UField.html" target="_top" xlink:title=" ">
<polygon fill="white" stroke="black" points="270,-560 270,-617 353,-617 353,-560 270,-560"/>
<text text-anchor="middle" x="311.5" y="-605" font-family="Helvetica,sans-Serif" font-size="10.00">SDK::UField</text>
<polyline fill="none" stroke="black" points="270,-598 353,-598 "/>
<text text-anchor="middle" x="311.5" y="-586" font-family="Helvetica,sans-Serif" font-size="10.00"> </text>
<polyline fill="none" stroke="black" points="270,-579 353,-579 "/>
<text text-anchor="start" x="278" y="-567" font-family="Helvetica,sans-Serif" font-size="10.00">+ StaticClass()</text>
</a>
</g>
</g>
<!-- Node2&#45;&gt;Node13 -->
<g id="edge16" class="edge">
<title>Node2&#45;&gt;Node13</title>
<path fill="none" stroke="midnightblue" d="M364.49,-694.14C349.73,-664.99 335.51,-636.91 325.52,-617.19"/>
<polygon fill="none" stroke="midnightblue" points="361.44,-695.87 369.08,-703.21 367.69,-692.71 361.44,-695.87"/>
</g>
<!-- Node3 -->
<g id="node3" class="node">
<title>Node3</title>
<g id="a_node3"><a xlink:href="../../d0/d22/structSDK_1_1FQWord.html" target="_top" xlink:title=" ">
<polygon fill="white" stroke="black" points="503.5,-1114 503.5,-1182 583.5,-1182 583.5,-1114 503.5,-1114"/>
<text text-anchor="middle" x="543.5" y="-1170" font-family="Helvetica,sans-Serif" font-size="10.00">SDK::FQWord</text>
<polyline fill="none" stroke="black" points="503.5,-1163 583.5,-1163 "/>
<text text-anchor="start" x="511.5" y="-1151" font-family="Helvetica,sans-Serif" font-size="10.00">+ A</text>
<text text-anchor="start" x="511.5" y="-1140" font-family="Helvetica,sans-Serif" font-size="10.00">+ B</text>
<polyline fill="none" stroke="black" points="503.5,-1133 583.5,-1133 "/>
<text text-anchor="middle" x="543.5" y="-1121" font-family="Helvetica,sans-Serif" font-size="10.00"> </text>
</a>
</g>
</g>
<!-- Node3&#45;&gt;Node2 -->
<g id="edge2" class="edge">
<title>Node3&#45;&gt;Node2</title>
<path fill="none" stroke="#404040" d="M531.83,-1113.91C518.93,-1077.32 497.34,-1016.06 477.38,-959.48"/>
<polygon fill="none" stroke="#404040" points="477.28,-959.18 471.51,-954.85 473.29,-947.86 479.06,-952.19 477.28,-959.18"/>
<text text-anchor="middle" x="543.5" y="-1014.5" font-family="Helvetica,sans-Serif" font-size="10.00"> +ObjectFlags</text>
</g>
<!-- Node4 -->
<g id="node4" class="node">
<title>Node4</title>
<g id="a_node4"><a xlink:href="../../d0/db6/structSDK_1_1FName.html" target="_top" xlink:title=" ">
<polygon fill="white" stroke="black" points="378,-1086.5 378,-1209.5 485,-1209.5 485,-1086.5 378,-1086.5"/>
<text text-anchor="middle" x="431.5" y="-1197.5" font-family="Helvetica,sans-Serif" font-size="10.00">SDK::FName</text>
<polyline fill="none" stroke="black" points="378,-1190.5 485,-1190.5 "/>
<text text-anchor="start" x="386" y="-1178.5" font-family="Helvetica,sans-Serif" font-size="10.00">+ Index</text>
<text text-anchor="start" x="386" y="-1167.5" font-family="Helvetica,sans-Serif" font-size="10.00">+ Number</text>
<polyline fill="none" stroke="black" points="378,-1160.5 485,-1160.5 "/>
<text text-anchor="start" x="386" y="-1148.5" font-family="Helvetica,sans-Serif" font-size="10.00">+ FName()</text>
<text text-anchor="start" x="386" y="-1137.5" font-family="Helvetica,sans-Serif" font-size="10.00">+ FName()</text>
<text text-anchor="start" x="386" y="-1126.5" font-family="Helvetica,sans-Serif" font-size="10.00">+ FName()</text>
<text text-anchor="start" x="386" y="-1115.5" font-family="Helvetica,sans-Serif" font-size="10.00">+ GetName()</text>
<text text-anchor="start" x="386" y="-1104.5" font-family="Helvetica,sans-Serif" font-size="10.00">+ operator==()</text>
<text text-anchor="start" x="386" y="-1093.5" font-family="Helvetica,sans-Serif" font-size="10.00">+ GetGlobalNames()</text>
</a>
</g>
</g>
<!-- Node4&#45;&gt;Node2 -->
<g id="edge3" class="edge">
<title>Node4&#45;&gt;Node2</title>
<path fill="none" stroke="#404040" d="M431.31,-1086.34C431.2,-1050.52 431.05,-1003.69 430.92,-959.67"/>
<polygon fill="none" stroke="#404040" points="430.92,-959.65 426.9,-953.66 430.88,-947.65 434.9,-953.63 430.92,-959.65"/>
<text text-anchor="middle" x="448.5" y="-1014.5" font-family="Helvetica,sans-Serif" font-size="10.00"> +Name</text>
</g>
<!-- Node5 -->
<g id="node5" class="node">
<title>Node5</title>
<g id="a_node5"><a xlink:href="../../d3/d79/classSDK_1_1TArray.html" target="_top" xlink:title=" ">
<polygon fill="white" stroke="black" points="313.5,-1263 313.5,-1397 493.5,-1397 493.5,-1263 313.5,-1263"/>
<text text-anchor="middle" x="403.5" y="-1385" font-family="Helvetica,sans-Serif" font-size="10.00">SDK::TArray&lt; SDK::FNameEntry * &gt;</text>
<polyline fill="none" stroke="black" points="313.5,-1378 493.5,-1378 "/>
<text text-anchor="start" x="321.5" y="-1366" font-family="Helvetica,sans-Serif" font-size="10.00">&#45; Count</text>
<text text-anchor="start" x="321.5" y="-1355" font-family="Helvetica,sans-Serif" font-size="10.00">&#45; Max</text>
<polyline fill="none" stroke="black" points="313.5,-1348 493.5,-1348 "/>
<text text-anchor="start" x="321.5" y="-1336" font-family="Helvetica,sans-Serif" font-size="10.00">+ TArray()</text>
<text text-anchor="start" x="321.5" y="-1325" font-family="Helvetica,sans-Serif" font-size="10.00">+ Num()</text>
<text text-anchor="start" x="321.5" y="-1314" font-family="Helvetica,sans-Serif" font-size="10.00">+ operator[]()</text>
<text text-anchor="start" x="321.5" y="-1303" font-family="Helvetica,sans-Serif" font-size="10.00">+ operator[]()</text>
<text text-anchor="start" x="321.5" y="-1292" font-family="Helvetica,sans-Serif" font-size="10.00">+ IsValidIndex()</text>
<text text-anchor="start" x="321.5" y="-1281" font-family="Helvetica,sans-Serif" font-size="10.00">+ GetByIndex()</text>
<text text-anchor="start" x="321.5" y="-1270" font-family="Helvetica,sans-Serif" font-size="10.00">+ GetByIndex()</text>
</a>
</g>
</g>
<!-- Node5&#45;&gt;Node4 -->
<g id="edge4" class="edge">
<title>Node5&#45;&gt;Node4</title>
<path fill="none" stroke="#404040" d="M413.77,-1263C415.87,-1249.49 418.09,-1235.21 420.22,-1221.5"/>
<polygon fill="none" stroke="#404040" points="420.23,-1221.48 417.2,-1214.94 422.07,-1209.62 425.1,-1216.17 420.23,-1221.48"/>
<text text-anchor="middle" x="443" y="-1231" font-family="Helvetica,sans-Serif" font-size="10.00"> +GNames</text>
</g>
<!-- Node6 -->
<g id="node6" class="node">
<title>Node6</title>
<g id="a_node6"><a xlink:href="../../d7/ddf/classSDK_1_1FNameEntry.html" target="_top" xlink:title=" ">
<polygon fill="white" stroke="black" points="354,-1489 354,-1557 453,-1557 453,-1489 354,-1489"/>
<text text-anchor="middle" x="403.5" y="-1545" font-family="Helvetica,sans-Serif" font-size="10.00">SDK::FNameEntry</text>
<polyline fill="none" stroke="black" points="354,-1538 453,-1538 "/>
<text text-anchor="start" x="362" y="-1526" font-family="Helvetica,sans-Serif" font-size="10.00">+ UnknownData00</text>
<text text-anchor="start" x="362" y="-1515" font-family="Helvetica,sans-Serif" font-size="10.00">+ name</text>
<polyline fill="none" stroke="black" points="354,-1508 453,-1508 "/>
<text text-anchor="start" x="362" y="-1496" font-family="Helvetica,sans-Serif" font-size="10.00">+ GetName()</text>
</a>
</g>
</g>
<!-- Node6&#45;&gt;Node5 -->
<g id="edge5" class="edge">
<title>Node6&#45;&gt;Node5</title>
<path fill="none" stroke="#404040" d="M403.5,-1488.73C403.5,-1466.76 403.5,-1437 403.5,-1409.25"/>
<polygon fill="none" stroke="#404040" points="403.5,-1409.1 399.5,-1403.1 403.5,-1397.1 407.5,-1403.1 403.5,-1409.1"/>
<text text-anchor="middle" x="417.5" y="-1424" font-family="Helvetica,sans-Serif" font-size="10.00"> &#45;Data</text>
</g>
<!-- Node7 -->
<g id="node7" class="node">
<title>Node7</title>
<g id="a_node7"><a xlink:href="../../d3/d79/classSDK_1_1TArray.html" target="_top" xlink:title=" ">
<polygon fill="white" stroke="black" points="105,-1450.5 105,-1595.5 202,-1595.5 202,-1450.5 105,-1450.5"/>
<text text-anchor="middle" x="153.5" y="-1583.5" font-family="Helvetica,sans-Serif" font-size="10.00">SDK::TArray&lt; T &gt;</text>
<polyline fill="none" stroke="black" points="105,-1576.5 202,-1576.5 "/>
<text text-anchor="start" x="113" y="-1564.5" font-family="Helvetica,sans-Serif" font-size="10.00">&#45; Data</text>
<text text-anchor="start" x="113" y="-1553.5" font-family="Helvetica,sans-Serif" font-size="10.00">&#45; Count</text>
<text text-anchor="start" x="113" y="-1542.5" font-family="Helvetica,sans-Serif" font-size="10.00">&#45; Max</text>
<polyline fill="none" stroke="black" points="105,-1535.5 202,-1535.5 "/>
<text text-anchor="start" x="113" y="-1523.5" font-family="Helvetica,sans-Serif" font-size="10.00">+ TArray()</text>
<text text-anchor="start" x="113" y="-1512.5" font-family="Helvetica,sans-Serif" font-size="10.00">+ Num()</text>
<text text-anchor="start" x="113" y="-1501.5" font-family="Helvetica,sans-Serif" font-size="10.00">+ operator[]()</text>
<text text-anchor="start" x="113" y="-1490.5" font-family="Helvetica,sans-Serif" font-size="10.00">+ operator[]()</text>
<text text-anchor="start" x="113" y="-1479.5" font-family="Helvetica,sans-Serif" font-size="10.00">+ IsValidIndex()</text>
<text text-anchor="start" x="113" y="-1468.5" font-family="Helvetica,sans-Serif" font-size="10.00">+ GetByIndex()</text>
<text text-anchor="start" x="113" y="-1457.5" font-family="Helvetica,sans-Serif" font-size="10.00">+ GetByIndex()</text>
</a>
</g>
</g>
<!-- Node7&#45;&gt;Node5 -->
<g id="edge6" class="edge">
<title>Node7&#45;&gt;Node5</title>
<path fill="none" stroke="orange" d="M210.52,-1478.44C241.97,-1454.41 281.66,-1424.08 316.87,-1397.19"/>
<polygon fill="orange" stroke="orange" points="208.12,-1475.87 202.3,-1484.72 212.37,-1481.43 208.12,-1475.87"/>
<text text-anchor="middle" x="334" y="-1424" font-family="Helvetica,sans-Serif" font-size="10.00"> &lt; SDK::FNameEntry * &gt;</text>
</g>
<!-- Node7&#45;&gt;Node8 -->
<g id="edge10" class="edge">
<title>Node7&#45;&gt;Node8</title>
<path fill="none" stroke="orange" d="M153.5,-1440.06C153.5,-1406.29 153.5,-1366.76 153.5,-1331 153.5,-1331 153.5,-1331 153.5,-824.5 153.5,-767.42 158.84,-702.77 163.71,-655.74"/>
<polygon fill="orange" stroke="orange" points="150,-1440.35 153.5,-1450.35 157,-1440.35 150,-1440.35"/>
<text text-anchor="middle" x="199" y="-1145.5" font-family="Helvetica,sans-Serif" font-size="10.00"> &lt; SDK::UObject * &gt;</text>
</g>
<!-- Node15 -->
<g id="node15" class="node">
<title>Node15</title>
<g id="a_node15"><a xlink:href="../../d3/d79/classSDK_1_1TArray.html" target="_top" xlink:title=" ">
<polygon fill="white" stroke="black" points="0,-1257.5 0,-1402.5 125,-1402.5 125,-1257.5 0,-1257.5"/>
<text text-anchor="middle" x="62.5" y="-1390.5" font-family="Helvetica,sans-Serif" font-size="10.00">SDK::TArray&lt; wchar_t &gt;</text>
<polyline fill="none" stroke="black" points="0,-1383.5 125,-1383.5 "/>
<text text-anchor="start" x="8" y="-1371.5" font-family="Helvetica,sans-Serif" font-size="10.00">&#45; Data</text>
<text text-anchor="start" x="8" y="-1360.5" font-family="Helvetica,sans-Serif" font-size="10.00">&#45; Count</text>
<text text-anchor="start" x="8" y="-1349.5" font-family="Helvetica,sans-Serif" font-size="10.00">&#45; Max</text>
<polyline fill="none" stroke="black" points="0,-1342.5 125,-1342.5 "/>
<text text-anchor="start" x="8" y="-1330.5" font-family="Helvetica,sans-Serif" font-size="10.00">+ TArray()</text>
<text text-anchor="start" x="8" y="-1319.5" font-family="Helvetica,sans-Serif" font-size="10.00">+ Num()</text>
<text text-anchor="start" x="8" y="-1308.5" font-family="Helvetica,sans-Serif" font-size="10.00">+ operator[]()</text>
<text text-anchor="start" x="8" y="-1297.5" font-family="Helvetica,sans-Serif" font-size="10.00">+ operator[]()</text>
<text text-anchor="start" x="8" y="-1286.5" font-family="Helvetica,sans-Serif" font-size="10.00">+ IsValidIndex()</text>
<text text-anchor="start" x="8" y="-1275.5" font-family="Helvetica,sans-Serif" font-size="10.00">+ GetByIndex()</text>
<text text-anchor="start" x="8" y="-1264.5" font-family="Helvetica,sans-Serif" font-size="10.00">+ GetByIndex()</text>
</a>
</g>
</g>
<!-- Node7&#45;&gt;Node15 -->
<g id="edge23" class="edge">
<title>Node7&#45;&gt;Node15</title>
<path fill="none" stroke="orange" d="M99.06,-1459.19C93.17,-1450.44 87.78,-1441.26 83.5,-1432 79.25,-1422.81 75.86,-1412.76 73.15,-1402.68"/>
<polygon fill="orange" stroke="orange" points="96.23,-1461.26 104.83,-1467.44 101.97,-1457.24 96.23,-1461.26"/>
<text text-anchor="middle" x="111.5" y="-1424" font-family="Helvetica,sans-Serif" font-size="10.00"> &lt; wchar_t &gt;</text>
</g>
<!-- Node8&#45;&gt;Node2 -->
<g id="edge8" class="edge">
<title>Node8&#45;&gt;Node2</title>
<path fill="none" stroke="#404040" d="M206,-655.85C212.76,-666.15 220.32,-676.26 228.5,-685 255.3,-713.64 288.94,-739.72 321.04,-761.38"/>
<polygon fill="none" stroke="#404040" points="321.4,-761.61 328.61,-761.6 331.4,-768.25 324.19,-768.26 321.4,-761.61"/>
<text text-anchor="middle" x="254" y="-677" font-family="Helvetica,sans-Serif" font-size="10.00"> +GObjects</text>
</g>
<!-- Node9 -->
<g id="node9" class="node">
<title>Node9</title>
<g id="a_node9"><a xlink:href="../../d9/dfa/structSDK_1_1FPointer.html" target="_top" xlink:title=" ">
<polygon fill="white" stroke="black" points="262.5,-1114 262.5,-1182 360.5,-1182 360.5,-1114 262.5,-1114"/>
<text text-anchor="middle" x="311.5" y="-1170" font-family="Helvetica,sans-Serif" font-size="10.00">SDK::FPointer</text>
<polyline fill="none" stroke="black" points="262.5,-1163 360.5,-1163 "/>
<text text-anchor="start" x="270.5" y="-1151" font-family="Helvetica,sans-Serif" font-size="10.00">+ Dummy</text>
<text text-anchor="start" x="270.5" y="-1140" font-family="Helvetica,sans-Serif" font-size="10.00">+ UnknownData00</text>
<polyline fill="none" stroke="black" points="262.5,-1133 360.5,-1133 "/>
<text text-anchor="middle" x="311.5" y="-1121" font-family="Helvetica,sans-Serif" font-size="10.00"> </text>
</a>
</g>
</g>
<!-- Node9&#45;&gt;Node2 -->
<g id="edge11" class="edge">
<title>Node9&#45;&gt;Node2</title>
<path fill="none" stroke="#404040" d="M317.49,-1113.92C324.71,-1077.08 338.32,-1016.11 357.5,-966 358.4,-963.66 359.32,-961.3 360.28,-958.94"/>
<polygon fill="none" stroke="#404040" points="360.29,-958.92 358.91,-951.84 364.91,-947.84 366.29,-954.92 360.29,-958.92"/>
<text text-anchor="middle" x="392" y="-1025.5" font-family="Helvetica,sans-Serif" font-size="10.00"> +StateFrame</text>
<text text-anchor="middle" x="392" y="-1014.5" font-family="Helvetica,sans-Serif" font-size="10.00">+VfTableObject</text>
<text text-anchor="middle" x="392" y="-1003.5" font-family="Helvetica,sans-Serif" font-size="10.00">+LinkerIndex</text>
</g>
<!-- Node10&#45;&gt;Node1 -->
<g id="edge20" class="edge">
<title>Node10&#45;&gt;Node1</title>
<path fill="none" stroke="#404040" d="M429.5,-160.39C429.5,-145.88 429.5,-129.48 429.5,-113.9"/>
<polygon fill="none" stroke="#404040" points="429.5,-113.64 425.5,-107.64 429.5,-101.64 433.5,-107.64 429.5,-113.64"/>
<text text-anchor="middle" x="481" y="-134" font-family="Helvetica,sans-Serif" font-size="10.00"> +GameplayActorClass</text>
<text text-anchor="middle" x="481" y="-123" font-family="Helvetica,sans-Serif" font-size="10.00">+NewActorClass</text>
</g>
<!-- Node10&#45;&gt;Node2 -->
<g id="edge12" class="edge">
<title>Node10&#45;&gt;Node2</title>
<path fill="none" stroke="#404040" d="M490.02,-230.14C524.34,-247.93 560.5,-276.13 560.5,-316 560.5,-589.5 560.5,-589.5 560.5,-589.5 560.5,-625.21 548.86,-660.59 532.55,-692.64"/>
<polygon fill="none" stroke="#404040" points="532.48,-692.77 533.2,-699.95 526.85,-703.37 526.13,-696.2 532.48,-692.77"/>
<text text-anchor="middle" x="578" y="-420.5" font-family="Helvetica,sans-Serif" font-size="10.00"> +Class</text>
</g>
<!-- Node11 -->
<g id="node11" class="node">
<title>Node11</title>
<g id="a_node11"><a xlink:href="../../df/d72/classSDK_1_1UState.html" target="_top" xlink:title=" ">
<polygon fill="white" stroke="black" points="299.5,-288.5 299.5,-345.5 397.5,-345.5 397.5,-288.5 299.5,-288.5"/>
<text text-anchor="middle" x="348.5" y="-333.5" font-family="Helvetica,sans-Serif" font-size="10.00">SDK::UState</text>
<polyline fill="none" stroke="black" points="299.5,-326.5 397.5,-326.5 "/>
<text text-anchor="start" x="307.5" y="-314.5" font-family="Helvetica,sans-Serif" font-size="10.00">+ UnknownData00</text>
<polyline fill="none" stroke="black" points="299.5,-307.5 397.5,-307.5 "/>
<text text-anchor="start" x="307.5" y="-295.5" font-family="Helvetica,sans-Serif" font-size="10.00">+ StaticClass()</text>
</a>
</g>
</g>
<!-- Node11&#45;&gt;Node10 -->
<g id="edge13" class="edge">
<title>Node11&#45;&gt;Node10</title>
<path fill="none" stroke="midnightblue" d="M374.89,-280.33C381.87,-270.89 389.5,-260.58 396.77,-250.74"/>
<polygon fill="none" stroke="midnightblue" points="372.07,-278.25 368.94,-288.37 377.7,-282.41 372.07,-278.25"/>
</g>
<!-- Node12 -->
<g id="node12" class="node">
<title>Node12</title>
<g id="a_node12"><a xlink:href="../../d8/de9/classSDK_1_1UStruct.html" target="_top" xlink:title=" ">
<polygon fill="white" stroke="black" points="295.5,-383.5 295.5,-462.5 393.5,-462.5 393.5,-383.5 295.5,-383.5"/>
<text text-anchor="middle" x="344.5" y="-450.5" font-family="Helvetica,sans-Serif" font-size="10.00">SDK::UStruct</text>
<polyline fill="none" stroke="black" points="295.5,-443.5 393.5,-443.5 "/>
<text text-anchor="start" x="303.5" y="-431.5" font-family="Helvetica,sans-Serif" font-size="10.00">+ UnknownData00</text>
<text text-anchor="start" x="303.5" y="-420.5" font-family="Helvetica,sans-Serif" font-size="10.00">+ PropertySize</text>
<text text-anchor="start" x="303.5" y="-409.5" font-family="Helvetica,sans-Serif" font-size="10.00">+ UnknownData01</text>
<polyline fill="none" stroke="black" points="295.5,-402.5 393.5,-402.5 "/>
<text text-anchor="start" x="303.5" y="-390.5" font-family="Helvetica,sans-Serif" font-size="10.00">+ StaticClass()</text>
</a>
</g>
</g>
<!-- Node12&#45;&gt;Node11 -->
<g id="edge14" class="edge">
<title>Node12&#45;&gt;Node11</title>
<path fill="none" stroke="midnightblue" d="M346.38,-373.16C346.74,-363.74 347.11,-354.17 347.43,-345.72"/>
<polygon fill="none" stroke="midnightblue" points="342.88,-373.15 345.99,-383.27 349.87,-373.42 342.88,-373.15"/>
</g>
<!-- Node13&#45;&gt;Node12 -->
<g id="edge15" class="edge">
<title>Node13&#45;&gt;Node12</title>
<path fill="none" stroke="midnightblue" d="M314.72,-549.47C316.9,-529.01 320.34,-503.44 325.5,-481 326.88,-475 328.63,-468.74 330.51,-462.66"/>
<polygon fill="none" stroke="midnightblue" points="311.21,-549.36 313.69,-559.66 318.18,-550.06 311.21,-549.36"/>
</g>
<!-- Node13&#45;&gt;Node12 -->
<g id="edge18" class="edge">
<title>Node13&#45;&gt;Node12</title>
<path fill="none" stroke="#404040" d="M317.1,-559.76C321.79,-536.51 328.61,-502.7 334.28,-474.64"/>
<polygon fill="none" stroke="#404040" points="334.33,-474.38 331.6,-467.71 336.71,-462.62 339.44,-469.29 334.33,-474.38"/>
<text text-anchor="middle" x="360.5" y="-495" font-family="Helvetica,sans-Serif" font-size="10.00"> +SuperField</text>
<text text-anchor="middle" x="360.5" y="-484" font-family="Helvetica,sans-Serif" font-size="10.00">+Children</text>
</g>
<!-- Node13&#45;&gt;Node13 -->
<g id="edge17" class="edge">
<title>Node13&#45;&gt;Node13</title>
<path fill="none" stroke="#404040" d="M353.21,-605.11C363.41,-603.88 371,-598.34 371,-588.5 371,-582.96 368.6,-578.79 364.68,-575.98"/>
<polygon fill="none" stroke="#404040" points="364.51,-575.92 357.51,-577.67 353.21,-571.89 360.2,-570.13 364.51,-575.92"/>
<text text-anchor="middle" x="386.5" y="-586" font-family="Helvetica,sans-Serif" font-size="10.00"> +Next</text>
</g>
<!-- Node14 -->
<g id="node14" class="node">
<title>Node14</title>
<g id="a_node14"><a xlink:href="../../d3/d88/classSDK_1_1FString.html" target="_top" xlink:title=" ">
<polygon fill="white" stroke="black" points="25,-966.5 25,-1067.5 100,-1067.5 100,-966.5 25,-966.5"/>
<text text-anchor="middle" x="62.5" y="-1055.5" font-family="Helvetica,sans-Serif" font-size="10.00">SDK::FString</text>
<polyline fill="none" stroke="black" points="25,-1048.5 100,-1048.5 "/>
<text text-anchor="middle" x="62.5" y="-1036.5" font-family="Helvetica,sans-Serif" font-size="10.00"> </text>
<polyline fill="none" stroke="black" points="25,-1029.5 100,-1029.5 "/>
<text text-anchor="start" x="33" y="-1017.5" font-family="Helvetica,sans-Serif" font-size="10.00">+ FString()</text>
<text text-anchor="start" x="33" y="-1006.5" font-family="Helvetica,sans-Serif" font-size="10.00">+ FString()</text>
<text text-anchor="start" x="33" y="-995.5" font-family="Helvetica,sans-Serif" font-size="10.00">+ IsValid()</text>
<text text-anchor="start" x="33" y="-984.5" font-family="Helvetica,sans-Serif" font-size="10.00">+ c_str()</text>
<text text-anchor="start" x="33" y="-973.5" font-family="Helvetica,sans-Serif" font-size="10.00">+ ToString()</text>
</a>
</g>
</g>
<!-- Node14&#45;&gt;Node1 -->
<g id="edge21" class="edge">
<title>Node14&#45;&gt;Node1</title>
<path fill="none" stroke="#404040" d="M62.5,-966.26C62.5,-900.76 62.5,-781.99 62.5,-680.5 62.5,-680.5 62.5,-680.5 62.5,-204.5 62.5,-143.15 239.6,-93.45 347.75,-68.81"/>
<polygon fill="none" stroke="#404040" points="347.9,-68.78 352.88,-63.56 359.61,-66.15 354.63,-71.37 347.9,-68.78"/>
<text text-anchor="middle" x="113.5" y="-426" font-family="Helvetica,sans-Serif" font-size="10.00"> +MenuName</text>
<text text-anchor="middle" x="113.5" y="-415" font-family="Helvetica,sans-Serif" font-size="10.00">+NewActorClassName</text>
</g>
<!-- Node15&#45;&gt;Node14 -->
<g id="edge22" class="edge">
<title>Node15&#45;&gt;Node14</title>
<path fill="none" stroke="midnightblue" d="M62.5,-1247.18C62.5,-1190.13 62.5,-1115.87 62.5,-1067.58"/>
<polygon fill="none" stroke="midnightblue" points="59,-1247.26 62.5,-1257.26 66,-1247.26 59,-1247.26"/>
</g>
</g>
</svg>
        <g id="navigator" transform="translate(0 0)" fill="#404254">
                <rect fill="#f2f5e9" fill-opacity="0.5" stroke="#606060" stroke-width=".5" x="0" y="0" width="60" height="60"/>
                <use id="zoomplus" xlink:href="#zoomPlus" x="17" y="9" onmousedown="handleZoom(evt,'in')"/>
                <use id="zoomminus" xlink:href="#zoomMin" x="42" y="9" onmousedown="handleZoom(evt,'out')"/>
                <use id="reset" xlink:href="#resetDef" x="30" y="36" onmousedown="handleReset()"/>
                <g id="arrowUp" xlink:href="#dirArrow" transform="translate(30 24)" onmousedown="handlePan(0,-1)">
                  <use xlink:href="#rim" fill="#404040">
                        <set attributeName="fill" to="#808080" begin="arrowUp.mouseover" end="arrowUp.mouseout"/>
                  </use>
                  <path fill="none" stroke="white" stroke-width="1.5" d="M0,-3.0v7 M-2.5,-0.5L0,-3.0L2.5,-0.5"/>
                </g>
                <g id="arrowRight" xlink:href="#dirArrow" transform="rotate(90) translate(36 -43)" onmousedown="handlePan(1,0)">
                  <use xlink:href="#rim" fill="#404040">
                        <set attributeName="fill" to="#808080" begin="arrowRight.mouseover" end="arrowRight.mouseout"/>
                  </use>
                  <path fill="none" stroke="white" stroke-width="1.5" d="M0,-3.0v7 M-2.5,-0.5L0,-3.0L2.5,-0.5"/>
                </g>
                <g id="arrowDown" xlink:href="#dirArrow" transform="rotate(180) translate(-30 -48)" onmousedown="handlePan(0,1)">
                  <use xlink:href="#rim" fill="#404040">
                        <set attributeName="fill" to="#808080" begin="arrowDown.mouseover" end="arrowDown.mouseout"/>
                  </use>
                  <path fill="none" stroke="white" stroke-width="1.5" d="M0,-3.0v7 M-2.5,-0.5L0,-3.0L2.5,-0.5"/>
                </g>
                <g id="arrowLeft" xlink:href="#dirArrow" transform="rotate(270) translate(-36 17)" onmousedown="handlePan(-1,0)">
                  <use xlink:href="#rim" fill="#404040">
                        <set attributeName="fill" to="#808080" begin="arrowLeft.mouseover" end="arrowLeft.mouseout"/>
                  </use>
                  <path fill="none" stroke="white" stroke-width="1.5" d="M0,-3.0v7 M-2.5,-0.5L0,-3.0L2.5,-0.5"/>
                </g>
        </g>
        <svg viewBox="0 0 15 15" width="100%" height="30px" preserveAspectRatio="xMaxYMin meet">
         <g id="arrow_out" transform="scale(0.3 0.3)">
          <a xlink:href="classSDK_1_1UActorFactory__coll__graph_org.svg" target="_base">
           <rect id="button" ry="5" rx="5" y="6" x="6" height="38" width="38"
                fill="#f2f5e9" fill-opacity="0.5" stroke="#606060" stroke-width="1.0"/>
           <path id="arrow"
             d="M 11.500037,31.436501 C 11.940474,20.09759 22.043105,11.32322 32.158766,21.979434 L 37.068811,17.246167 C 37.068811,17.246167 37.088388,32 37.088388,32 L 22.160133,31.978069 C 22.160133,31.978069 26.997745,27.140456 26.997745,27.140456 C 18.528582,18.264221 13.291696,25.230495 11.500037,31.436501 z"
             style="fill:#404040;"/>
          </a>
         </g>
        </svg>
</svg>
