<?xml version="1.0" encoding="UTF-8" standalone="no"?>
<!DOCTYPE svg PUBLIC "-//W3C//DTD SVG 1.1//EN"
 "http://www.w3.org/Graphics/SVG/1.1/DTD/svg11.dtd">
<!-- Generated by graphviz version 2.41.20171026.1811 (20171026.1811)
 -->
<!-- Title: SDK::UEFActionNotify_SoundSetDownSmall Pages: 1 -->
<svg width="1086pt" height="1441pt"
 viewBox="0.00 0.00 1085.50 1441.00" xmlns="http://www.w3.org/2000/svg" xmlns:xlink="http://www.w3.org/1999/xlink">
<g id="graph0" class="graph" transform="scale(1 1) rotate(0) translate(4 1437)">
<title>SDK::UEFActionNotify_SoundSetDownSmall</title>
<polygon fill="white" stroke="transparent" points="-4,4 -4,-1437 1081.5,-1437 1081.5,4 -4,4"/>
<!-- Node1 -->
<g id="node1" class="node">
<title>Node1</title>
<g id="a_node1"><a xlink:title=" ">
<polygon fill="#bfbfbf" stroke="black" points="359.5,-229 359.5,-297 477.5,-297 477.5,-229 359.5,-229"/>
<text text-anchor="start" x="367.5" y="-285" font-family="Helvetica,sans-Serif" font-size="10.00">SDK::UEFActionNotify</text>
<text text-anchor="middle" x="418.5" y="-274" font-family="Helvetica,sans-Serif" font-size="10.00">_SoundSetDownSmall</text>
<polyline fill="none" stroke="black" points="359.5,-267 477.5,-267 "/>
<text text-anchor="middle" x="418.5" y="-255" font-family="Helvetica,sans-Serif" font-size="10.00"> </text>
<polyline fill="none" stroke="black" points="359.5,-248 477.5,-248 "/>
<text text-anchor="start" x="367.5" y="-236" font-family="Helvetica,sans-Serif" font-size="10.00">+ StaticClass()</text>
</a>
</g>
</g>
<!-- Node2 -->
<g id="node2" class="node">
<title>Node2</title>
<g id="a_node2"><a xlink:href="../../df/d32/classSDK_1_1UEFAction__Notify.html" target="_top" xlink:title=" ">
<polygon fill="white" stroke="black" points="357,-361.5 357,-561.5 480,-561.5 480,-361.5 357,-361.5"/>
<text text-anchor="middle" x="418.5" y="-549.5" font-family="Helvetica,sans-Serif" font-size="10.00">SDK::UEFAction_Notify</text>
<polyline fill="none" stroke="black" points="357,-542.5 480,-542.5 "/>
<text text-anchor="start" x="365" y="-530.5" font-family="Helvetica,sans-Serif" font-size="10.00">+ TriggerSkillEffectId</text>
<text text-anchor="start" x="365" y="-519.5" font-family="Helvetica,sans-Serif" font-size="10.00">+ ActiveByMemoryPos</text>
<text text-anchor="start" x="365" y="-508.5" font-family="Helvetica,sans-Serif" font-size="10.00">+ FullRange</text>
<text text-anchor="start" x="365" y="-497.5" font-family="Helvetica,sans-Serif" font-size="10.00">+ Enable</text>
<text text-anchor="start" x="365" y="-486.5" font-family="Helvetica,sans-Serif" font-size="10.00">+ PrivateTemplate</text>
<text text-anchor="start" x="365" y="-475.5" font-family="Helvetica,sans-Serif" font-size="10.00">+ OverwriteTemplate</text>
<text text-anchor="start" x="365" y="-464.5" font-family="Helvetica,sans-Serif" font-size="10.00">+ Time</text>
<text text-anchor="start" x="365" y="-453.5" font-family="Helvetica,sans-Serif" font-size="10.00">+ OriginalTime</text>
<text text-anchor="start" x="365" y="-442.5" font-family="Helvetica,sans-Serif" font-size="10.00">+ Duration</text>
<text text-anchor="start" x="365" y="-431.5" font-family="Helvetica,sans-Serif" font-size="10.00">+ UnknownData00</text>
<text text-anchor="start" x="365" y="-420.5" font-family="Helvetica,sans-Serif" font-size="10.00">+ RepeatCount</text>
<text text-anchor="start" x="365" y="-409.5" font-family="Helvetica,sans-Serif" font-size="10.00">+ RepeatTerm</text>
<text text-anchor="start" x="365" y="-398.5" font-family="Helvetica,sans-Serif" font-size="10.00">+ SortPriority</text>
<text text-anchor="start" x="365" y="-387.5" font-family="Helvetica,sans-Serif" font-size="10.00">+ Probability</text>
<polyline fill="none" stroke="black" points="357,-380.5 480,-380.5 "/>
<text text-anchor="start" x="365" y="-368.5" font-family="Helvetica,sans-Serif" font-size="10.00">+ StaticClass()</text>
</a>
</g>
</g>
<!-- Node2&#45;&gt;Node1 -->
<g id="edge1" class="edge">
<title>Node2&#45;&gt;Node1</title>
<path fill="none" stroke="midnightblue" d="M418.5,-351.13C418.5,-331.58 418.5,-312.63 418.5,-297.43"/>
<polygon fill="none" stroke="midnightblue" points="415,-351.39 418.5,-361.39 422,-351.39 415,-351.39"/>
</g>
<!-- Node3 -->
<g id="node3" class="node">
<title>Node3</title>
<g id="a_node3"><a xlink:href="../../d9/d45/classSDK_1_1UObject.html" target="_top" xlink:title=" ">
<polygon fill="white" stroke="black" points="663.5,-609.5 663.5,-853.5 861.5,-853.5 861.5,-609.5 663.5,-609.5"/>
<text text-anchor="middle" x="762.5" y="-841.5" font-family="Helvetica,sans-Serif" font-size="10.00">SDK::UObject</text>
<polyline fill="none" stroke="black" points="663.5,-834.5 861.5,-834.5 "/>
<text text-anchor="start" x="671.5" y="-822.5" font-family="Helvetica,sans-Serif" font-size="10.00">+ ObjectInternalInteger</text>
<text text-anchor="start" x="671.5" y="-811.5" font-family="Helvetica,sans-Serif" font-size="10.00">+ NetIndex</text>
<polyline fill="none" stroke="black" points="663.5,-804.5 861.5,-804.5 "/>
<text text-anchor="start" x="671.5" y="-792.5" font-family="Helvetica,sans-Serif" font-size="10.00">+ UObject::GetName()</text>
<text text-anchor="start" x="671.5" y="-781.5" font-family="Helvetica,sans-Serif" font-size="10.00">+ GetFullName()</text>
<text text-anchor="start" x="671.5" y="-770.5" font-family="Helvetica,sans-Serif" font-size="10.00">+ IsA()</text>
<text text-anchor="start" x="671.5" y="-759.5" font-family="Helvetica,sans-Serif" font-size="10.00">+ ProcessEvent()</text>
<text text-anchor="start" x="671.5" y="-748.5" font-family="Helvetica,sans-Serif" font-size="10.00">+ STATIC_ProfNodeEvent()</text>
<text text-anchor="start" x="671.5" y="-737.5" font-family="Helvetica,sans-Serif" font-size="10.00">+ STATIC_ProfNodeSetDepthThreshold()</text>
<text text-anchor="start" x="671.5" y="-726.5" font-family="Helvetica,sans-Serif" font-size="10.00">+ STATIC_ProfNodeSetTimeThreshold</text>
<text text-anchor="start" x="671.5" y="-715.5" font-family="Helvetica,sans-Serif" font-size="10.00">Seconds()</text>
<text text-anchor="start" x="671.5" y="-704.5" font-family="Helvetica,sans-Serif" font-size="10.00">+ STATIC_ProfNodeStop()</text>
<text text-anchor="start" x="671.5" y="-693.5" font-family="Helvetica,sans-Serif" font-size="10.00">+ STATIC_ProfNodeStart()</text>
<text text-anchor="start" x="671.5" y="-682.5" font-family="Helvetica,sans-Serif" font-size="10.00">+ STATIC_GetStringFromGuid()</text>
<text text-anchor="start" x="671.5" y="-671.5" font-family="Helvetica,sans-Serif" font-size="10.00">and 298 more...</text>
<text text-anchor="start" x="671.5" y="-660.5" font-family="Helvetica,sans-Serif" font-size="10.00">+ GetGlobalObjects()</text>
<text text-anchor="start" x="671.5" y="-649.5" font-family="Helvetica,sans-Serif" font-size="10.00">+ FindObject()</text>
<text text-anchor="start" x="671.5" y="-638.5" font-family="Helvetica,sans-Serif" font-size="10.00">+ FindClass()</text>
<text text-anchor="start" x="671.5" y="-627.5" font-family="Helvetica,sans-Serif" font-size="10.00">+ GetObjectCasted()</text>
<text text-anchor="start" x="671.5" y="-616.5" font-family="Helvetica,sans-Serif" font-size="10.00">+ StaticClass()</text>
</a>
</g>
</g>
<!-- Node3&#45;&gt;Node2 -->
<g id="edge2" class="edge">
<title>Node3&#45;&gt;Node2</title>
<path fill="none" stroke="midnightblue" d="M654.74,-612.28C653.01,-611.15 651.26,-610.06 649.5,-609 623.09,-593.09 610.08,-604.79 582.5,-591 545.78,-572.64 509.38,-545.31 480.24,-520.56"/>
<polygon fill="none" stroke="midnightblue" points="653.1,-615.4 663.33,-618.17 657.06,-609.63 653.1,-615.4"/>
</g>
<!-- Node3&#45;&gt;Node3 -->
<g id="edge8" class="edge">
<title>Node3&#45;&gt;Node3</title>
<path fill="none" stroke="#404040" d="M861.51,-754.53C872.44,-750.15 879.5,-742.48 879.5,-731.5 879.5,-724.64 876.74,-719.07 872.01,-714.78"/>
<polygon fill="none" stroke="#404040" points="871.8,-714.66 864.59,-714.99 861.51,-708.47 868.72,-708.14 871.8,-714.66"/>
<text text-anchor="middle" x="919" y="-740" font-family="Helvetica,sans-Serif" font-size="10.00"> +Outer</text>
<text text-anchor="middle" x="919" y="-729" font-family="Helvetica,sans-Serif" font-size="10.00">+Linker</text>
<text text-anchor="middle" x="919" y="-718" font-family="Helvetica,sans-Serif" font-size="10.00">+ObjectArchetype</text>
</g>
<!-- Node9 -->
<g id="node9" class="node">
<title>Node9</title>
<g id="a_node9"><a xlink:href="../../d3/d79/classSDK_1_1TArray.html" target="_top" xlink:title=" ">
<polygon fill="white" stroke="black" points="904,-394.5 904,-528.5 1065,-528.5 1065,-394.5 904,-394.5"/>
<text text-anchor="middle" x="984.5" y="-516.5" font-family="Helvetica,sans-Serif" font-size="10.00">SDK::TArray&lt; SDK::UObject * &gt;</text>
<polyline fill="none" stroke="black" points="904,-509.5 1065,-509.5 "/>
<text text-anchor="start" x="912" y="-497.5" font-family="Helvetica,sans-Serif" font-size="10.00">&#45; Count</text>
<text text-anchor="start" x="912" y="-486.5" font-family="Helvetica,sans-Serif" font-size="10.00">&#45; Max</text>
<polyline fill="none" stroke="black" points="904,-479.5 1065,-479.5 "/>
<text text-anchor="start" x="912" y="-467.5" font-family="Helvetica,sans-Serif" font-size="10.00">+ TArray()</text>
<text text-anchor="start" x="912" y="-456.5" font-family="Helvetica,sans-Serif" font-size="10.00">+ Num()</text>
<text text-anchor="start" x="912" y="-445.5" font-family="Helvetica,sans-Serif" font-size="10.00">+ operator[]()</text>
<text text-anchor="start" x="912" y="-434.5" font-family="Helvetica,sans-Serif" font-size="10.00">+ operator[]()</text>
<text text-anchor="start" x="912" y="-423.5" font-family="Helvetica,sans-Serif" font-size="10.00">+ IsValidIndex()</text>
<text text-anchor="start" x="912" y="-412.5" font-family="Helvetica,sans-Serif" font-size="10.00">+ GetByIndex()</text>
<text text-anchor="start" x="912" y="-401.5" font-family="Helvetica,sans-Serif" font-size="10.00">+ GetByIndex()</text>
</a>
</g>
</g>
<!-- Node3&#45;&gt;Node9 -->
<g id="edge10" class="edge">
<title>Node3&#45;&gt;Node9</title>
<path fill="none" stroke="#404040" d="M820.19,-609.47C828.37,-598.66 837.47,-588.58 847.5,-580 864.81,-565.19 876.69,-574.86 895.5,-562 905.79,-554.96 915.69,-546.48 924.9,-537.49"/>
<polygon fill="none" stroke="#404040" points="925.1,-537.28 926.46,-530.2 933.52,-528.73 932.16,-535.81 925.1,-537.28"/>
<text text-anchor="middle" x="861.5" y="-583" font-family="Helvetica,sans-Serif" font-size="10.00"> &#45;Data</text>
</g>
<!-- Node11 -->
<g id="node11" class="node">
<title>Node11</title>
<g id="a_node11"><a xlink:href="../../d7/d85/classSDK_1_1UClass.html" target="_top" xlink:title=" ">
<polygon fill="white" stroke="black" points="665,-0.5 665,-90.5 786,-90.5 786,-0.5 665,-0.5"/>
<text text-anchor="middle" x="725.5" y="-78.5" font-family="Helvetica,sans-Serif" font-size="10.00">SDK::UClass</text>
<polyline fill="none" stroke="black" points="665,-71.5 786,-71.5 "/>
<text text-anchor="start" x="673" y="-59.5" font-family="Helvetica,sans-Serif" font-size="10.00">+ UnknownData00</text>
<text text-anchor="start" x="673" y="-48.5" font-family="Helvetica,sans-Serif" font-size="10.00">+ UnknownData01</text>
<polyline fill="none" stroke="black" points="665,-41.5 786,-41.5 "/>
<text text-anchor="start" x="673" y="-29.5" font-family="Helvetica,sans-Serif" font-size="10.00">+ CreateDefaultObject()</text>
<text text-anchor="start" x="673" y="-18.5" font-family="Helvetica,sans-Serif" font-size="10.00">+ CreateDefaultObject()</text>
<text text-anchor="start" x="673" y="-7.5" font-family="Helvetica,sans-Serif" font-size="10.00">+ StaticClass()</text>
</a>
</g>
</g>
<!-- Node3&#45;&gt;Node11 -->
<g id="edge20" class="edge">
<title>Node3&#45;&gt;Node11</title>
<path fill="none" stroke="#404040" d="M668.92,-609.42C630.35,-554.62 594.5,-494.97 594.5,-462.5 594.5,-462.5 594.5,-462.5 594.5,-156 594.5,-120.34 623.44,-94.01 654.11,-76.12"/>
<polygon fill="none" stroke="#404040" points="654.47,-75.92 657.8,-69.53 664.98,-70.14 661.65,-76.54 654.47,-75.92"/>
<text text-anchor="middle" x="642" y="-260.5" font-family="Helvetica,sans-Serif" font-size="10.00"> +ClassDefaultObject</text>
</g>
<!-- Node14 -->
<g id="node14" class="node">
<title>Node14</title>
<g id="a_node14"><a xlink:href="../../de/dd6/classSDK_1_1UField.html" target="_top" xlink:title=" ">
<polygon fill="white" stroke="black" points="754,-433 754,-490 837,-490 837,-433 754,-433"/>
<text text-anchor="middle" x="795.5" y="-478" font-family="Helvetica,sans-Serif" font-size="10.00">SDK::UField</text>
<polyline fill="none" stroke="black" points="754,-471 837,-471 "/>
<text text-anchor="middle" x="795.5" y="-459" font-family="Helvetica,sans-Serif" font-size="10.00"> </text>
<polyline fill="none" stroke="black" points="754,-452 837,-452 "/>
<text text-anchor="start" x="762" y="-440" font-family="Helvetica,sans-Serif" font-size="10.00">+ StaticClass()</text>
</a>
</g>
</g>
<!-- Node3&#45;&gt;Node14 -->
<g id="edge17" class="edge">
<title>Node3&#45;&gt;Node14</title>
<path fill="none" stroke="midnightblue" d="M778.66,-599.27C783.73,-558.1 788.84,-516.58 792.08,-490.27"/>
<polygon fill="none" stroke="midnightblue" points="775.16,-599.08 777.41,-609.44 782.1,-599.94 775.16,-599.08"/>
</g>
<!-- Node4 -->
<g id="node4" class="node">
<title>Node4</title>
<g id="a_node4"><a xlink:href="../../d0/d22/structSDK_1_1FQWord.html" target="_top" xlink:title=" ">
<polygon fill="white" stroke="black" points="788.5,-951 788.5,-1019 868.5,-1019 868.5,-951 788.5,-951"/>
<text text-anchor="middle" x="828.5" y="-1007" font-family="Helvetica,sans-Serif" font-size="10.00">SDK::FQWord</text>
<polyline fill="none" stroke="black" points="788.5,-1000 868.5,-1000 "/>
<text text-anchor="start" x="796.5" y="-988" font-family="Helvetica,sans-Serif" font-size="10.00">+ A</text>
<text text-anchor="start" x="796.5" y="-977" font-family="Helvetica,sans-Serif" font-size="10.00">+ B</text>
<polyline fill="none" stroke="black" points="788.5,-970 868.5,-970 "/>
<text text-anchor="middle" x="828.5" y="-958" font-family="Helvetica,sans-Serif" font-size="10.00"> </text>
</a>
</g>
</g>
<!-- Node4&#45;&gt;Node3 -->
<g id="edge3" class="edge">
<title>Node4&#45;&gt;Node3</title>
<path fill="none" stroke="#404040" d="M819.8,-950.86C813.93,-928.47 805.74,-897.28 797.4,-865.48"/>
<polygon fill="none" stroke="#404040" points="797.37,-865.36 791.97,-860.57 794.32,-853.75 799.71,-858.54 797.37,-865.36"/>
<text text-anchor="middle" x="837.5" y="-886" font-family="Helvetica,sans-Serif" font-size="10.00"> +ObjectFlags</text>
</g>
<!-- Node5 -->
<g id="node5" class="node">
<title>Node5</title>
<g id="a_node5"><a xlink:href="../../d0/db6/structSDK_1_1FName.html" target="_top" xlink:title=" ">
<polygon fill="white" stroke="black" points="663,-923.5 663,-1046.5 770,-1046.5 770,-923.5 663,-923.5"/>
<text text-anchor="middle" x="716.5" y="-1034.5" font-family="Helvetica,sans-Serif" font-size="10.00">SDK::FName</text>
<polyline fill="none" stroke="black" points="663,-1027.5 770,-1027.5 "/>
<text text-anchor="start" x="671" y="-1015.5" font-family="Helvetica,sans-Serif" font-size="10.00">+ Index</text>
<text text-anchor="start" x="671" y="-1004.5" font-family="Helvetica,sans-Serif" font-size="10.00">+ Number</text>
<polyline fill="none" stroke="black" points="663,-997.5 770,-997.5 "/>
<text text-anchor="start" x="671" y="-985.5" font-family="Helvetica,sans-Serif" font-size="10.00">+ FName()</text>
<text text-anchor="start" x="671" y="-974.5" font-family="Helvetica,sans-Serif" font-size="10.00">+ FName()</text>
<text text-anchor="start" x="671" y="-963.5" font-family="Helvetica,sans-Serif" font-size="10.00">+ FName()</text>
<text text-anchor="start" x="671" y="-952.5" font-family="Helvetica,sans-Serif" font-size="10.00">+ GetName()</text>
<text text-anchor="start" x="671" y="-941.5" font-family="Helvetica,sans-Serif" font-size="10.00">+ operator==()</text>
<text text-anchor="start" x="671" y="-930.5" font-family="Helvetica,sans-Serif" font-size="10.00">+ GetGlobalNames()</text>
</a>
</g>
</g>
<!-- Node5&#45;&gt;Node3 -->
<g id="edge4" class="edge">
<title>Node5&#45;&gt;Node3</title>
<path fill="none" stroke="#404040" d="M727.58,-923.44C730.8,-905.82 734.45,-885.84 738.15,-865.61"/>
<polygon fill="none" stroke="#404040" points="738.18,-865.49 735.32,-858.87 740.33,-853.69 743.19,-860.31 738.18,-865.49"/>
<text text-anchor="middle" x="754.5" y="-886" font-family="Helvetica,sans-Serif" font-size="10.00"> +Name</text>
</g>
<!-- Node6 -->
<g id="node6" class="node">
<title>Node6</title>
<g id="a_node6"><a xlink:href="../../d3/d79/classSDK_1_1TArray.html" target="_top" xlink:title=" ">
<polygon fill="white" stroke="black" points="626.5,-1100 626.5,-1234 806.5,-1234 806.5,-1100 626.5,-1100"/>
<text text-anchor="middle" x="716.5" y="-1222" font-family="Helvetica,sans-Serif" font-size="10.00">SDK::TArray&lt; SDK::FNameEntry * &gt;</text>
<polyline fill="none" stroke="black" points="626.5,-1215 806.5,-1215 "/>
<text text-anchor="start" x="634.5" y="-1203" font-family="Helvetica,sans-Serif" font-size="10.00">&#45; Count</text>
<text text-anchor="start" x="634.5" y="-1192" font-family="Helvetica,sans-Serif" font-size="10.00">&#45; Max</text>
<polyline fill="none" stroke="black" points="626.5,-1185 806.5,-1185 "/>
<text text-anchor="start" x="634.5" y="-1173" font-family="Helvetica,sans-Serif" font-size="10.00">+ TArray()</text>
<text text-anchor="start" x="634.5" y="-1162" font-family="Helvetica,sans-Serif" font-size="10.00">+ Num()</text>
<text text-anchor="start" x="634.5" y="-1151" font-family="Helvetica,sans-Serif" font-size="10.00">+ operator[]()</text>
<text text-anchor="start" x="634.5" y="-1140" font-family="Helvetica,sans-Serif" font-size="10.00">+ operator[]()</text>
<text text-anchor="start" x="634.5" y="-1129" font-family="Helvetica,sans-Serif" font-size="10.00">+ IsValidIndex()</text>
<text text-anchor="start" x="634.5" y="-1118" font-family="Helvetica,sans-Serif" font-size="10.00">+ GetByIndex()</text>
<text text-anchor="start" x="634.5" y="-1107" font-family="Helvetica,sans-Serif" font-size="10.00">+ GetByIndex()</text>
</a>
</g>
</g>
<!-- Node6&#45;&gt;Node5 -->
<g id="edge5" class="edge">
<title>Node6&#45;&gt;Node5</title>
<path fill="none" stroke="#404040" d="M716.5,-1100C716.5,-1086.63 716.5,-1072.5 716.5,-1058.91"/>
<polygon fill="none" stroke="#404040" points="716.5,-1058.62 712.5,-1052.62 716.5,-1046.62 720.5,-1052.62 716.5,-1058.62"/>
<text text-anchor="middle" x="741" y="-1068" font-family="Helvetica,sans-Serif" font-size="10.00"> +GNames</text>
</g>
<!-- Node7 -->
<g id="node7" class="node">
<title>Node7</title>
<g id="a_node7"><a xlink:href="../../d7/ddf/classSDK_1_1FNameEntry.html" target="_top" xlink:title=" ">
<polygon fill="white" stroke="black" points="970,-1326 970,-1394 1069,-1394 1069,-1326 970,-1326"/>
<text text-anchor="middle" x="1019.5" y="-1382" font-family="Helvetica,sans-Serif" font-size="10.00">SDK::FNameEntry</text>
<polyline fill="none" stroke="black" points="970,-1375 1069,-1375 "/>
<text text-anchor="start" x="978" y="-1363" font-family="Helvetica,sans-Serif" font-size="10.00">+ UnknownData00</text>
<text text-anchor="start" x="978" y="-1352" font-family="Helvetica,sans-Serif" font-size="10.00">+ name</text>
<polyline fill="none" stroke="black" points="970,-1345 1069,-1345 "/>
<text text-anchor="start" x="978" y="-1333" font-family="Helvetica,sans-Serif" font-size="10.00">+ GetName()</text>
</a>
</g>
</g>
<!-- Node7&#45;&gt;Node6 -->
<g id="edge6" class="edge">
<title>Node7&#45;&gt;Node6</title>
<path fill="none" stroke="#404040" d="M969.81,-1327.67C928.5,-1301.63 868.39,-1263.75 817.1,-1231.41"/>
<polygon fill="none" stroke="#404040" points="816.78,-1231.21 809.57,-1231.4 806.63,-1224.81 813.84,-1224.63 816.78,-1231.21"/>
<text text-anchor="middle" x="881.5" y="-1261" font-family="Helvetica,sans-Serif" font-size="10.00"> &#45;Data</text>
</g>
<!-- Node8 -->
<g id="node8" class="node">
<title>Node8</title>
<g id="a_node8"><a xlink:href="../../d3/d79/classSDK_1_1TArray.html" target="_top" xlink:title=" ">
<polygon fill="white" stroke="black" points="478,-1287.5 478,-1432.5 575,-1432.5 575,-1287.5 478,-1287.5"/>
<text text-anchor="middle" x="526.5" y="-1420.5" font-family="Helvetica,sans-Serif" font-size="10.00">SDK::TArray&lt; T &gt;</text>
<polyline fill="none" stroke="black" points="478,-1413.5 575,-1413.5 "/>
<text text-anchor="start" x="486" y="-1401.5" font-family="Helvetica,sans-Serif" font-size="10.00">&#45; Data</text>
<text text-anchor="start" x="486" y="-1390.5" font-family="Helvetica,sans-Serif" font-size="10.00">&#45; Count</text>
<text text-anchor="start" x="486" y="-1379.5" font-family="Helvetica,sans-Serif" font-size="10.00">&#45; Max</text>
<polyline fill="none" stroke="black" points="478,-1372.5 575,-1372.5 "/>
<text text-anchor="start" x="486" y="-1360.5" font-family="Helvetica,sans-Serif" font-size="10.00">+ TArray()</text>
<text text-anchor="start" x="486" y="-1349.5" font-family="Helvetica,sans-Serif" font-size="10.00">+ Num()</text>
<text text-anchor="start" x="486" y="-1338.5" font-family="Helvetica,sans-Serif" font-size="10.00">+ operator[]()</text>
<text text-anchor="start" x="486" y="-1327.5" font-family="Helvetica,sans-Serif" font-size="10.00">+ operator[]()</text>
<text text-anchor="start" x="486" y="-1316.5" font-family="Helvetica,sans-Serif" font-size="10.00">+ IsValidIndex()</text>
<text text-anchor="start" x="486" y="-1305.5" font-family="Helvetica,sans-Serif" font-size="10.00">+ GetByIndex()</text>
<text text-anchor="start" x="486" y="-1294.5" font-family="Helvetica,sans-Serif" font-size="10.00">+ GetByIndex()</text>
</a>
</g>
</g>
<!-- Node8&#45;&gt;Node6 -->
<g id="edge7" class="edge">
<title>Node8&#45;&gt;Node6</title>
<path fill="none" stroke="orange" d="M582.54,-1302.67C603.87,-1281.22 628.38,-1256.59 650.55,-1234.3"/>
<polygon fill="orange" stroke="orange" points="580,-1300.25 575.43,-1309.81 584.96,-1305.19 580,-1300.25"/>
<text text-anchor="middle" x="677" y="-1261" font-family="Helvetica,sans-Serif" font-size="10.00"> &lt; SDK::FNameEntry * &gt;</text>
</g>
<!-- Node8&#45;&gt;Node9 -->
<g id="edge11" class="edge">
<title>Node8&#45;&gt;Node9</title>
<path fill="none" stroke="orange" d="M585.39,-1347.48C709.47,-1321.5 986.5,-1253.89 986.5,-1168 986.5,-1168 986.5,-1168 986.5,-730.5 986.5,-661.64 985.83,-582.82 985.27,-528.58"/>
<polygon fill="orange" stroke="orange" points="584.37,-1344.11 575.29,-1349.57 585.79,-1350.96 584.37,-1344.11"/>
<text text-anchor="middle" x="1032" y="-982.5" font-family="Helvetica,sans-Serif" font-size="10.00"> &lt; SDK::UObject * &gt;</text>
</g>
<!-- Node16 -->
<g id="node16" class="node">
<title>Node16</title>
<g id="a_node16"><a xlink:href="../../d3/d79/classSDK_1_1TArray.html" target="_top" xlink:title=" ">
<polygon fill="white" stroke="black" points="307,-659 307,-804 414,-804 414,-659 307,-659"/>
<text text-anchor="start" x="315" y="-792" font-family="Helvetica,sans-Serif" font-size="10.00">SDK::TArray&lt; struct</text>
<text text-anchor="middle" x="360.5" y="-781" font-family="Helvetica,sans-Serif" font-size="10.00"> SDK::FString &gt;</text>
<polyline fill="none" stroke="black" points="307,-774 414,-774 "/>
<text text-anchor="start" x="315" y="-762" font-family="Helvetica,sans-Serif" font-size="10.00">&#45; Count</text>
<text text-anchor="start" x="315" y="-751" font-family="Helvetica,sans-Serif" font-size="10.00">&#45; Max</text>
<polyline fill="none" stroke="black" points="307,-744 414,-744 "/>
<text text-anchor="start" x="315" y="-732" font-family="Helvetica,sans-Serif" font-size="10.00">+ TArray()</text>
<text text-anchor="start" x="315" y="-721" font-family="Helvetica,sans-Serif" font-size="10.00">+ Num()</text>
<text text-anchor="start" x="315" y="-710" font-family="Helvetica,sans-Serif" font-size="10.00">+ operator[]()</text>
<text text-anchor="start" x="315" y="-699" font-family="Helvetica,sans-Serif" font-size="10.00">+ operator[]()</text>
<text text-anchor="start" x="315" y="-688" font-family="Helvetica,sans-Serif" font-size="10.00">+ IsValidIndex()</text>
<text text-anchor="start" x="315" y="-677" font-family="Helvetica,sans-Serif" font-size="10.00">+ GetByIndex()</text>
<text text-anchor="start" x="315" y="-666" font-family="Helvetica,sans-Serif" font-size="10.00">+ GetByIndex()</text>
</a>
</g>
</g>
<!-- Node8&#45;&gt;Node16 -->
<g id="edge27" class="edge">
<title>Node8&#45;&gt;Node16</title>
<path fill="none" stroke="orange" d="M505.41,-1277.35C491.82,-1224.93 473.74,-1155.42 457.5,-1094 430.89,-993.33 399.58,-877.04 379.89,-804.13"/>
<polygon fill="orange" stroke="orange" points="502.08,-1278.46 507.97,-1287.26 508.86,-1276.7 502.08,-1278.46"/>
<text text-anchor="middle" x="506.5" y="-1068" font-family="Helvetica,sans-Serif" font-size="10.00"> &lt; struct SDK::FString &gt;</text>
</g>
<!-- Node18 -->
<g id="node18" class="node">
<title>Node18</title>
<g id="a_node18"><a xlink:href="../../d3/d79/classSDK_1_1TArray.html" target="_top" xlink:title=" ">
<polygon fill="white" stroke="black" points="323,-1094.5 323,-1239.5 448,-1239.5 448,-1094.5 323,-1094.5"/>
<text text-anchor="middle" x="385.5" y="-1227.5" font-family="Helvetica,sans-Serif" font-size="10.00">SDK::TArray&lt; wchar_t &gt;</text>
<polyline fill="none" stroke="black" points="323,-1220.5 448,-1220.5 "/>
<text text-anchor="start" x="331" y="-1208.5" font-family="Helvetica,sans-Serif" font-size="10.00">&#45; Data</text>
<text text-anchor="start" x="331" y="-1197.5" font-family="Helvetica,sans-Serif" font-size="10.00">&#45; Count</text>
<text text-anchor="start" x="331" y="-1186.5" font-family="Helvetica,sans-Serif" font-size="10.00">&#45; Max</text>
<polyline fill="none" stroke="black" points="323,-1179.5 448,-1179.5 "/>
<text text-anchor="start" x="331" y="-1167.5" font-family="Helvetica,sans-Serif" font-size="10.00">+ TArray()</text>
<text text-anchor="start" x="331" y="-1156.5" font-family="Helvetica,sans-Serif" font-size="10.00">+ Num()</text>
<text text-anchor="start" x="331" y="-1145.5" font-family="Helvetica,sans-Serif" font-size="10.00">+ operator[]()</text>
<text text-anchor="start" x="331" y="-1134.5" font-family="Helvetica,sans-Serif" font-size="10.00">+ operator[]()</text>
<text text-anchor="start" x="331" y="-1123.5" font-family="Helvetica,sans-Serif" font-size="10.00">+ IsValidIndex()</text>
<text text-anchor="start" x="331" y="-1112.5" font-family="Helvetica,sans-Serif" font-size="10.00">+ GetByIndex()</text>
<text text-anchor="start" x="331" y="-1101.5" font-family="Helvetica,sans-Serif" font-size="10.00">+ GetByIndex()</text>
</a>
</g>
</g>
<!-- Node8&#45;&gt;Node18 -->
<g id="edge26" class="edge">
<title>Node8&#45;&gt;Node18</title>
<path fill="none" stroke="orange" d="M469.7,-1324.03C449.74,-1309.24 428.76,-1290.45 414.5,-1269 408.59,-1260.11 403.87,-1250.01 400.1,-1239.72"/>
<polygon fill="orange" stroke="orange" points="467.71,-1326.91 477.87,-1329.91 471.8,-1321.23 467.71,-1326.91"/>
<text text-anchor="middle" x="442.5" y="-1261" font-family="Helvetica,sans-Serif" font-size="10.00"> &lt; wchar_t &gt;</text>
</g>
<!-- Node9&#45;&gt;Node3 -->
<g id="edge9" class="edge">
<title>Node9&#45;&gt;Node3</title>
<path fill="none" stroke="#404040" d="M929.68,-528.68C911.39,-550.75 890.34,-576.17 869.48,-601.35"/>
<polygon fill="none" stroke="#404040" points="869.47,-601.37 868.72,-608.54 861.81,-610.61 862.56,-603.44 869.47,-601.37"/>
<text text-anchor="middle" x="912" y="-583" font-family="Helvetica,sans-Serif" font-size="10.00"> +GObjects</text>
</g>
<!-- Node10 -->
<g id="node10" class="node">
<title>Node10</title>
<g id="a_node10"><a xlink:href="../../d9/dfa/structSDK_1_1FPointer.html" target="_top" xlink:title=" ">
<polygon fill="white" stroke="black" points="535.5,-951 535.5,-1019 633.5,-1019 633.5,-951 535.5,-951"/>
<text text-anchor="middle" x="584.5" y="-1007" font-family="Helvetica,sans-Serif" font-size="10.00">SDK::FPointer</text>
<polyline fill="none" stroke="black" points="535.5,-1000 633.5,-1000 "/>
<text text-anchor="start" x="543.5" y="-988" font-family="Helvetica,sans-Serif" font-size="10.00">+ Dummy</text>
<text text-anchor="start" x="543.5" y="-977" font-family="Helvetica,sans-Serif" font-size="10.00">+ UnknownData00</text>
<polyline fill="none" stroke="black" points="535.5,-970 633.5,-970 "/>
<text text-anchor="middle" x="584.5" y="-958" font-family="Helvetica,sans-Serif" font-size="10.00"> </text>
</a>
</g>
</g>
<!-- Node10&#45;&gt;Node2 -->
<g id="edge21" class="edge">
<title>Node10&#45;&gt;Node2</title>
<path fill="none" stroke="#404040" d="M574.75,-950.84C567.33,-924.71 557.27,-887.26 550.5,-854 525.89,-733.14 560.81,-690.74 506.5,-580 500.91,-568.61 494.18,-557.21 486.94,-546.23"/>
<polygon fill="none" stroke="#404040" points="486.92,-546.21 480.24,-543.49 480.18,-536.28 486.86,-539 486.92,-546.21"/>
<text text-anchor="middle" x="602.5" y="-729" font-family="Helvetica,sans-Serif" font-size="10.00"> +TmpActionNotifyData</text>
</g>
<!-- Node10&#45;&gt;Node3 -->
<g id="edge12" class="edge">
<title>Node10&#45;&gt;Node3</title>
<path fill="none" stroke="#404040" d="M605.32,-950.77C619.62,-928.28 639.25,-898.04 657.5,-872 659.39,-869.3 661.31,-866.58 663.26,-863.84"/>
<polygon fill="none" stroke="#404040" points="663.4,-863.64 663.64,-856.43 670.38,-853.87 670.15,-861.08 663.4,-863.64"/>
<text text-anchor="middle" x="692" y="-897" font-family="Helvetica,sans-Serif" font-size="10.00"> +StateFrame</text>
<text text-anchor="middle" x="692" y="-886" font-family="Helvetica,sans-Serif" font-size="10.00">+VfTableObject</text>
<text text-anchor="middle" x="692" y="-875" font-family="Helvetica,sans-Serif" font-size="10.00">+LinkerIndex</text>
</g>
<!-- Node11&#45;&gt;Node3 -->
<g id="edge13" class="edge">
<title>Node11&#45;&gt;Node3</title>
<path fill="none" stroke="#404040" d="M725.5,-90.72C725.5,-110.67 725.5,-134.52 725.5,-156 725.5,-462.5 725.5,-462.5 725.5,-462.5 725.5,-506.61 730.48,-554.43 736.79,-597.3"/>
<polygon fill="none" stroke="#404040" points="736.8,-597.38 741.65,-602.72 738.6,-609.25 733.74,-603.92 736.8,-597.38"/>
<text text-anchor="middle" x="743" y="-260.5" font-family="Helvetica,sans-Serif" font-size="10.00"> +Class</text>
</g>
<!-- Node12 -->
<g id="node12" class="node">
<title>Node12</title>
<g id="a_node12"><a xlink:href="../../df/d72/classSDK_1_1UState.html" target="_top" xlink:title=" ">
<polygon fill="white" stroke="black" points="765.5,-128.5 765.5,-185.5 863.5,-185.5 863.5,-128.5 765.5,-128.5"/>
<text text-anchor="middle" x="814.5" y="-173.5" font-family="Helvetica,sans-Serif" font-size="10.00">SDK::UState</text>
<polyline fill="none" stroke="black" points="765.5,-166.5 863.5,-166.5 "/>
<text text-anchor="start" x="773.5" y="-154.5" font-family="Helvetica,sans-Serif" font-size="10.00">+ UnknownData00</text>
<polyline fill="none" stroke="black" points="765.5,-147.5 863.5,-147.5 "/>
<text text-anchor="start" x="773.5" y="-135.5" font-family="Helvetica,sans-Serif" font-size="10.00">+ StaticClass()</text>
</a>
</g>
</g>
<!-- Node12&#45;&gt;Node11 -->
<g id="edge14" class="edge">
<title>Node12&#45;&gt;Node11</title>
<path fill="none" stroke="midnightblue" d="M785.51,-120.33C777.83,-110.89 769.45,-100.58 761.46,-90.74"/>
<polygon fill="none" stroke="midnightblue" points="783.02,-122.82 792.04,-128.37 788.45,-118.4 783.02,-122.82"/>
</g>
<!-- Node13 -->
<g id="node13" class="node">
<title>Node13</title>
<g id="a_node13"><a xlink:href="../../d8/de9/classSDK_1_1UStruct.html" target="_top" xlink:title=" ">
<polygon fill="white" stroke="black" points="778.5,-223.5 778.5,-302.5 876.5,-302.5 876.5,-223.5 778.5,-223.5"/>
<text text-anchor="middle" x="827.5" y="-290.5" font-family="Helvetica,sans-Serif" font-size="10.00">SDK::UStruct</text>
<polyline fill="none" stroke="black" points="778.5,-283.5 876.5,-283.5 "/>
<text text-anchor="start" x="786.5" y="-271.5" font-family="Helvetica,sans-Serif" font-size="10.00">+ UnknownData00</text>
<text text-anchor="start" x="786.5" y="-260.5" font-family="Helvetica,sans-Serif" font-size="10.00">+ PropertySize</text>
<text text-anchor="start" x="786.5" y="-249.5" font-family="Helvetica,sans-Serif" font-size="10.00">+ UnknownData01</text>
<polyline fill="none" stroke="black" points="778.5,-242.5 876.5,-242.5 "/>
<text text-anchor="start" x="786.5" y="-230.5" font-family="Helvetica,sans-Serif" font-size="10.00">+ StaticClass()</text>
</a>
</g>
</g>
<!-- Node13&#45;&gt;Node12 -->
<g id="edge15" class="edge">
<title>Node13&#45;&gt;Node12</title>
<path fill="none" stroke="midnightblue" d="M821.4,-213.16C820.22,-203.74 819.02,-194.17 817.96,-185.72"/>
<polygon fill="none" stroke="midnightblue" points="817.95,-213.79 822.66,-223.27 824.89,-212.92 817.95,-213.79"/>
</g>
<!-- Node14&#45;&gt;Node13 -->
<g id="edge16" class="edge">
<title>Node14&#45;&gt;Node13</title>
<path fill="none" stroke="midnightblue" d="M796.68,-422.71C798.13,-394.45 801.35,-354.98 808.5,-321 809.77,-314.98 811.46,-308.7 813.31,-302.61"/>
<polygon fill="none" stroke="midnightblue" points="793.18,-422.81 796.21,-432.96 800.17,-423.13 793.18,-422.81"/>
</g>
<!-- Node14&#45;&gt;Node13 -->
<g id="edge19" class="edge">
<title>Node14&#45;&gt;Node13</title>
<path fill="none" stroke="#404040" d="M800.02,-432.76C804.99,-402.25 813.08,-352.57 819.2,-314.99"/>
<polygon fill="none" stroke="#404040" points="819.26,-314.6 816.28,-308.04 821.19,-302.76 824.17,-309.32 819.26,-314.6"/>
<text text-anchor="middle" x="845.5" y="-335" font-family="Helvetica,sans-Serif" font-size="10.00"> +SuperField</text>
<text text-anchor="middle" x="845.5" y="-324" font-family="Helvetica,sans-Serif" font-size="10.00">+Children</text>
</g>
<!-- Node14&#45;&gt;Node14 -->
<g id="edge18" class="edge">
<title>Node14&#45;&gt;Node14</title>
<path fill="none" stroke="#404040" d="M837.21,-484.39C847.41,-482.69 855,-475.06 855,-461.5 855,-453.66 852.46,-447.8 848.35,-443.93"/>
<polygon fill="none" stroke="#404040" points="848.04,-443.78 840.9,-444.81 837.21,-438.61 844.34,-437.59 848.04,-443.78"/>
<text text-anchor="middle" x="870.5" y="-459" font-family="Helvetica,sans-Serif" font-size="10.00"> +Next</text>
</g>
<!-- Node15 -->
<g id="node15" class="node">
<title>Node15</title>
<g id="a_node15"><a xlink:href="../../d4/daf/structSDK_1_1FColor.html" target="_top" xlink:title=" ">
<polygon fill="white" stroke="black" points="432,-681 432,-782 505,-782 505,-681 432,-681"/>
<text text-anchor="middle" x="468.5" y="-770" font-family="Helvetica,sans-Serif" font-size="10.00">SDK::FColor</text>
<polyline fill="none" stroke="black" points="432,-763 505,-763 "/>
<text text-anchor="start" x="440" y="-751" font-family="Helvetica,sans-Serif" font-size="10.00">+ B</text>
<text text-anchor="start" x="440" y="-740" font-family="Helvetica,sans-Serif" font-size="10.00">+ G</text>
<text text-anchor="start" x="440" y="-729" font-family="Helvetica,sans-Serif" font-size="10.00">+ R</text>
<text text-anchor="start" x="440" y="-718" font-family="Helvetica,sans-Serif" font-size="10.00">+ A</text>
<polyline fill="none" stroke="black" points="432,-711 505,-711 "/>
<text text-anchor="start" x="440" y="-699" font-family="Helvetica,sans-Serif" font-size="10.00">+ FColor()</text>
<text text-anchor="start" x="440" y="-688" font-family="Helvetica,sans-Serif" font-size="10.00">+ FColor()</text>
</a>
</g>
</g>
<!-- Node15&#45;&gt;Node2 -->
<g id="edge22" class="edge">
<title>Node15&#45;&gt;Node2</title>
<path fill="none" stroke="#404040" d="M460.33,-680.95C455.39,-651.57 448.83,-613.61 442.5,-580 442.09,-577.83 441.68,-575.64 441.25,-573.43"/>
<polygon fill="none" stroke="#404040" points="441.22,-573.29 436.16,-568.15 438.95,-561.5 444.01,-566.64 441.22,-573.29"/>
<text text-anchor="middle" x="473" y="-583" font-family="Helvetica,sans-Serif" font-size="10.00"> +NotifyColor</text>
</g>
<!-- Node16&#45;&gt;Node2 -->
<g id="edge23" class="edge">
<title>Node16&#45;&gt;Node2</title>
<path fill="none" stroke="#404040" d="M357.22,-658.94C357.54,-633.71 359.61,-605.34 365.5,-580 366.03,-577.71 366.61,-575.41 367.23,-573.11"/>
<polygon fill="none" stroke="#404040" points="367.24,-573.07 365.1,-566.19 370.64,-561.57 372.78,-568.46 367.24,-573.07"/>
<text text-anchor="middle" x="402" y="-583" font-family="Helvetica,sans-Serif" font-size="10.00"> +ViewGroupList</text>
</g>
<!-- Node17 -->
<g id="node17" class="node">
<title>Node17</title>
<g id="a_node17"><a xlink:href="../../d3/d88/classSDK_1_1FString.html" target="_top" xlink:title=" ">
<polygon fill="white" stroke="black" points="323,-934.5 323,-1035.5 398,-1035.5 398,-934.5 323,-934.5"/>
<text text-anchor="middle" x="360.5" y="-1023.5" font-family="Helvetica,sans-Serif" font-size="10.00">SDK::FString</text>
<polyline fill="none" stroke="black" points="323,-1016.5 398,-1016.5 "/>
<text text-anchor="middle" x="360.5" y="-1004.5" font-family="Helvetica,sans-Serif" font-size="10.00"> </text>
<polyline fill="none" stroke="black" points="323,-997.5 398,-997.5 "/>
<text text-anchor="start" x="331" y="-985.5" font-family="Helvetica,sans-Serif" font-size="10.00">+ FString()</text>
<text text-anchor="start" x="331" y="-974.5" font-family="Helvetica,sans-Serif" font-size="10.00">+ FString()</text>
<text text-anchor="start" x="331" y="-963.5" font-family="Helvetica,sans-Serif" font-size="10.00">+ IsValid()</text>
<text text-anchor="start" x="331" y="-952.5" font-family="Helvetica,sans-Serif" font-size="10.00">+ c_str()</text>
<text text-anchor="start" x="331" y="-941.5" font-family="Helvetica,sans-Serif" font-size="10.00">+ ToString()</text>
</a>
</g>
</g>
<!-- Node17&#45;&gt;Node2 -->
<g id="edge28" class="edge">
<title>Node17&#45;&gt;Node2</title>
<path fill="none" stroke="#404040" d="M322.98,-956.78C294.04,-933.28 256.2,-896.47 239.5,-854 199.64,-752.67 192.88,-707.4 239.5,-609 261.68,-562.19 306.94,-525.37 346.4,-500.34"/>
<polygon fill="none" stroke="#404040" points="346.61,-500.22 349.61,-493.66 356.82,-493.92 353.81,-500.47 346.61,-500.22"/>
<text text-anchor="middle" x="269" y="-740" font-family="Helvetica,sans-Serif" font-size="10.00"> +ToolTip</text>
<text text-anchor="middle" x="269" y="-729" font-family="Helvetica,sans-Serif" font-size="10.00">+GroupName</text>
<text text-anchor="middle" x="269" y="-718" font-family="Helvetica,sans-Serif" font-size="10.00">+NotifyName</text>
</g>
<!-- Node17&#45;&gt;Node16 -->
<g id="edge24" class="edge">
<title>Node17&#45;&gt;Node16</title>
<path fill="none" stroke="#404040" d="M360.5,-934.31C360.5,-900.78 360.5,-855.7 360.5,-816.65"/>
<polygon fill="none" stroke="#404040" points="360.5,-816.47 356.5,-810.47 360.5,-804.47 364.5,-810.47 360.5,-816.47"/>
<text text-anchor="middle" x="374.5" y="-886" font-family="Helvetica,sans-Serif" font-size="10.00"> &#45;Data</text>
</g>
<!-- Node18&#45;&gt;Node17 -->
<g id="edge25" class="edge">
<title>Node18&#45;&gt;Node17</title>
<path fill="none" stroke="midnightblue" d="M374.12,-1084.09C371.82,-1067.52 369.47,-1050.58 367.38,-1035.55"/>
<polygon fill="none" stroke="midnightblue" points="370.71,-1084.92 375.55,-1094.34 377.64,-1083.96 370.71,-1084.92"/>
</g>
<!-- Node19 -->
<g id="node19" class="node">
<title>Node19</title>
<g id="a_node19"><a xlink:href="../../df/d1c/classSDK_1_1TEnumAsByte.html" target="_top" xlink:title=" ">
<polygon fill="white" stroke="black" points="20.5,-664.5 20.5,-798.5 174.5,-798.5 174.5,-664.5 20.5,-664.5"/>
<text text-anchor="start" x="28.5" y="-786.5" font-family="Helvetica,sans-Serif" font-size="10.00">SDK::TEnumAsByte&lt; ECTE</text>
<text text-anchor="middle" x="97.5" y="-775.5" font-family="Helvetica,sans-Serif" font-size="10.00">_NOTIFY_ACTIVATE_TYPE &gt;</text>
<polyline fill="none" stroke="black" points="20.5,-768.5 174.5,-768.5 "/>
<text text-anchor="start" x="28.5" y="-756.5" font-family="Helvetica,sans-Serif" font-size="10.00">&#45; value</text>
<polyline fill="none" stroke="black" points="20.5,-749.5 174.5,-749.5 "/>
<text text-anchor="start" x="28.5" y="-737.5" font-family="Helvetica,sans-Serif" font-size="10.00">+ TEnumAsByte()</text>
<text text-anchor="start" x="28.5" y="-726.5" font-family="Helvetica,sans-Serif" font-size="10.00">+ TEnumAsByte()</text>
<text text-anchor="start" x="28.5" y="-715.5" font-family="Helvetica,sans-Serif" font-size="10.00">+ TEnumAsByte()</text>
<text text-anchor="start" x="28.5" y="-704.5" font-family="Helvetica,sans-Serif" font-size="10.00">+ TEnumAsByte()</text>
<text text-anchor="start" x="28.5" y="-693.5" font-family="Helvetica,sans-Serif" font-size="10.00">+ operator ECTE_NOTIFY</text>
<text text-anchor="start" x="28.5" y="-682.5" font-family="Helvetica,sans-Serif" font-size="10.00">_ACTIVATE_TYPE()</text>
<text text-anchor="start" x="28.5" y="-671.5" font-family="Helvetica,sans-Serif" font-size="10.00">+ GetValue()</text>
</a>
</g>
</g>
<!-- Node19&#45;&gt;Node2 -->
<g id="edge29" class="edge">
<title>Node19&#45;&gt;Node2</title>
<path fill="none" stroke="#404040" d="M111.93,-664.33C121,-635.54 135.33,-603.16 157.5,-580 208.29,-526.94 287.45,-495.98 345.28,-479.29"/>
<polygon fill="none" stroke="#404040" points="345.35,-479.27 350.05,-473.8 356.91,-476.04 352.21,-481.51 345.35,-479.27"/>
<text text-anchor="middle" x="186.5" y="-583" font-family="Helvetica,sans-Serif" font-size="10.00"> +NotifyType</text>
</g>
<!-- Node20 -->
<g id="node20" class="node">
<title>Node20</title>
<g id="a_node20"><a xlink:href="../../df/d1c/classSDK_1_1TEnumAsByte.html" target="_top" xlink:title=" ">
<polygon fill="white" stroke="black" points="0,-929 0,-1041 157,-1041 157,-929 0,-929"/>
<text text-anchor="middle" x="78.5" y="-1029" font-family="Helvetica,sans-Serif" font-size="10.00">SDK::TEnumAsByte&lt; TEnum &gt;</text>
<polyline fill="none" stroke="black" points="0,-1022 157,-1022 "/>
<text text-anchor="start" x="8" y="-1010" font-family="Helvetica,sans-Serif" font-size="10.00">&#45; value</text>
<polyline fill="none" stroke="black" points="0,-1003 157,-1003 "/>
<text text-anchor="start" x="8" y="-991" font-family="Helvetica,sans-Serif" font-size="10.00">+ TEnumAsByte()</text>
<text text-anchor="start" x="8" y="-980" font-family="Helvetica,sans-Serif" font-size="10.00">+ TEnumAsByte()</text>
<text text-anchor="start" x="8" y="-969" font-family="Helvetica,sans-Serif" font-size="10.00">+ TEnumAsByte()</text>
<text text-anchor="start" x="8" y="-958" font-family="Helvetica,sans-Serif" font-size="10.00">+ TEnumAsByte()</text>
<text text-anchor="start" x="8" y="-947" font-family="Helvetica,sans-Serif" font-size="10.00">+ operator TEnum()</text>
<text text-anchor="start" x="8" y="-936" font-family="Helvetica,sans-Serif" font-size="10.00">+ GetValue()</text>
</a>
</g>
</g>
<!-- Node20&#45;&gt;Node19 -->
<g id="edge30" class="edge">
<title>Node20&#45;&gt;Node19</title>
<path fill="none" stroke="orange" d="M77.77,-918.56C77.97,-903.27 78.47,-887.05 79.5,-872 81.15,-848 84.19,-821.82 87.32,-798.69"/>
<polygon fill="orange" stroke="orange" points="74.27,-918.95 77.68,-928.98 81.27,-919.01 74.27,-918.95"/>
<text text-anchor="start" x="79.5" y="-891.5" font-family="Helvetica,sans-Serif" font-size="10.00"> &lt; ECTE_NOTIFY_ACTIVATE</text>
<text text-anchor="middle" x="147.5" y="-880.5" font-family="Helvetica,sans-Serif" font-size="10.00">_TYPE &gt;</text>
</g>
</g>
</svg>
