<?xml version="1.0" encoding="UTF-8" standalone="no"?>
<!DOCTYPE svg PUBLIC "-//W3C//DTD SVG 1.1//EN"
 "http://www.w3.org/Graphics/SVG/1.1/DTD/svg11.dtd">
<!-- Generated by graphviz version 2.41.20171026.1811 (20171026.1811)
 -->
<!-- Title: SDK::UEFData_PaletteItemBase Pages: 1 -->
<svg width="746pt" height="1444pt"
 viewBox="0.00 0.00 746.00 1444.00" xmlns="http://www.w3.org/2000/svg" xmlns:xlink="http://www.w3.org/1999/xlink">
<g id="graph0" class="graph" transform="scale(1 1) rotate(0) translate(4 1440)">
<title>SDK::UEFData_PaletteItemBase</title>
<polygon fill="white" stroke="transparent" points="-4,4 -4,-1440 742,-1440 742,4 -4,4"/>
<!-- Node1 -->
<g id="node1" class="node">
<title>Node1</title>
<g id="a_node1"><a xlink:title=" ">
<polygon fill="#bfbfbf" stroke="black" points="565.5,-234.5 565.5,-291.5 728.5,-291.5 728.5,-234.5 565.5,-234.5"/>
<text text-anchor="middle" x="647" y="-279.5" font-family="Helvetica,sans-Serif" font-size="10.00">SDK::UEFData_PaletteItemBase</text>
<polyline fill="none" stroke="black" points="565.5,-272.5 728.5,-272.5 "/>
<text text-anchor="middle" x="647" y="-260.5" font-family="Helvetica,sans-Serif" font-size="10.00"> </text>
<polyline fill="none" stroke="black" points="565.5,-253.5 728.5,-253.5 "/>
<text text-anchor="start" x="573.5" y="-241.5" font-family="Helvetica,sans-Serif" font-size="10.00">+ StaticClass()</text>
</a>
</g>
</g>
<!-- Node2 -->
<g id="node2" class="node">
<title>Node2</title>
<g id="a_node2"><a xlink:href="../../d3/d2f/classSDK_1_1UEFData.html" target="_top" xlink:title=" ">
<polygon fill="white" stroke="black" points="489,-383.5 489,-473.5 653,-473.5 653,-383.5 489,-383.5"/>
<text text-anchor="middle" x="571" y="-461.5" font-family="Helvetica,sans-Serif" font-size="10.00">SDK::UEFData</text>
<polyline fill="none" stroke="black" points="489,-454.5 653,-454.5 "/>
<text text-anchor="start" x="497" y="-442.5" font-family="Helvetica,sans-Serif" font-size="10.00">+ PrimaryKey</text>
<text text-anchor="start" x="497" y="-431.5" font-family="Helvetica,sans-Serif" font-size="10.00">+ SecondaryKey</text>
<text text-anchor="start" x="497" y="-420.5" font-family="Helvetica,sans-Serif" font-size="10.00">+ bUpdatedObjectsFromPaths</text>
<text text-anchor="start" x="497" y="-409.5" font-family="Helvetica,sans-Serif" font-size="10.00">+ bPostUpdateObjectsFromPaths</text>
<polyline fill="none" stroke="black" points="489,-402.5 653,-402.5 "/>
<text text-anchor="start" x="497" y="-390.5" font-family="Helvetica,sans-Serif" font-size="10.00">+ StaticClass()</text>
</a>
</g>
</g>
<!-- Node2&#45;&gt;Node1 -->
<g id="edge1" class="edge">
<title>Node2&#45;&gt;Node1</title>
<path fill="none" stroke="midnightblue" d="M595.8,-374.15C608.56,-346.69 623.6,-314.34 634.06,-291.84"/>
<polygon fill="none" stroke="midnightblue" points="592.61,-372.71 591.57,-383.25 598.96,-375.66 592.61,-372.71"/>
</g>
<!-- Node3 -->
<g id="node3" class="node">
<title>Node3</title>
<g id="a_node3"><a xlink:href="../../d9/d45/classSDK_1_1UObject.html" target="_top" xlink:title=" ">
<polygon fill="white" stroke="black" points="144,-543.5 144,-787.5 342,-787.5 342,-543.5 144,-543.5"/>
<text text-anchor="middle" x="243" y="-775.5" font-family="Helvetica,sans-Serif" font-size="10.00">SDK::UObject</text>
<polyline fill="none" stroke="black" points="144,-768.5 342,-768.5 "/>
<text text-anchor="start" x="152" y="-756.5" font-family="Helvetica,sans-Serif" font-size="10.00">+ ObjectInternalInteger</text>
<text text-anchor="start" x="152" y="-745.5" font-family="Helvetica,sans-Serif" font-size="10.00">+ NetIndex</text>
<polyline fill="none" stroke="black" points="144,-738.5 342,-738.5 "/>
<text text-anchor="start" x="152" y="-726.5" font-family="Helvetica,sans-Serif" font-size="10.00">+ UObject::GetName()</text>
<text text-anchor="start" x="152" y="-715.5" font-family="Helvetica,sans-Serif" font-size="10.00">+ GetFullName()</text>
<text text-anchor="start" x="152" y="-704.5" font-family="Helvetica,sans-Serif" font-size="10.00">+ IsA()</text>
<text text-anchor="start" x="152" y="-693.5" font-family="Helvetica,sans-Serif" font-size="10.00">+ ProcessEvent()</text>
<text text-anchor="start" x="152" y="-682.5" font-family="Helvetica,sans-Serif" font-size="10.00">+ STATIC_ProfNodeEvent()</text>
<text text-anchor="start" x="152" y="-671.5" font-family="Helvetica,sans-Serif" font-size="10.00">+ STATIC_ProfNodeSetDepthThreshold()</text>
<text text-anchor="start" x="152" y="-660.5" font-family="Helvetica,sans-Serif" font-size="10.00">+ STATIC_ProfNodeSetTimeThreshold</text>
<text text-anchor="start" x="152" y="-649.5" font-family="Helvetica,sans-Serif" font-size="10.00">Seconds()</text>
<text text-anchor="start" x="152" y="-638.5" font-family="Helvetica,sans-Serif" font-size="10.00">+ STATIC_ProfNodeStop()</text>
<text text-anchor="start" x="152" y="-627.5" font-family="Helvetica,sans-Serif" font-size="10.00">+ STATIC_ProfNodeStart()</text>
<text text-anchor="start" x="152" y="-616.5" font-family="Helvetica,sans-Serif" font-size="10.00">+ STATIC_GetStringFromGuid()</text>
<text text-anchor="start" x="152" y="-605.5" font-family="Helvetica,sans-Serif" font-size="10.00">and 298 more...</text>
<text text-anchor="start" x="152" y="-594.5" font-family="Helvetica,sans-Serif" font-size="10.00">+ GetGlobalObjects()</text>
<text text-anchor="start" x="152" y="-583.5" font-family="Helvetica,sans-Serif" font-size="10.00">+ FindObject()</text>
<text text-anchor="start" x="152" y="-572.5" font-family="Helvetica,sans-Serif" font-size="10.00">+ FindClass()</text>
<text text-anchor="start" x="152" y="-561.5" font-family="Helvetica,sans-Serif" font-size="10.00">+ GetObjectCasted()</text>
<text text-anchor="start" x="152" y="-550.5" font-family="Helvetica,sans-Serif" font-size="10.00">+ StaticClass()</text>
</a>
</g>
</g>
<!-- Node3&#45;&gt;Node2 -->
<g id="edge2" class="edge">
<title>Node3&#45;&gt;Node2</title>
<path fill="none" stroke="midnightblue" d="M350.4,-588.59C391.08,-559.72 437.76,-526.45 480,-496 490,-488.79 500.59,-481.1 510.87,-473.61"/>
<polygon fill="none" stroke="midnightblue" points="348.21,-585.85 342.08,-594.49 352.26,-591.56 348.21,-585.85"/>
</g>
<!-- Node3&#45;&gt;Node3 -->
<g id="edge8" class="edge">
<title>Node3&#45;&gt;Node3</title>
<path fill="none" stroke="#404040" d="M342.01,-688.53C352.94,-684.15 360,-676.48 360,-665.5 360,-658.64 357.24,-653.07 352.51,-648.78"/>
<polygon fill="none" stroke="#404040" points="352.3,-648.66 345.09,-648.99 342.01,-642.47 349.22,-642.14 352.3,-648.66"/>
<text text-anchor="middle" x="399.5" y="-674" font-family="Helvetica,sans-Serif" font-size="10.00"> +Outer</text>
<text text-anchor="middle" x="399.5" y="-663" font-family="Helvetica,sans-Serif" font-size="10.00">+Linker</text>
<text text-anchor="middle" x="399.5" y="-652" font-family="Helvetica,sans-Serif" font-size="10.00">+ObjectArchetype</text>
</g>
<!-- Node9 -->
<g id="node9" class="node">
<title>Node9</title>
<g id="a_node9"><a xlink:href="../../d3/d79/classSDK_1_1TArray.html" target="_top" xlink:title=" ">
<polygon fill="white" stroke="black" points="309.5,-361.5 309.5,-495.5 470.5,-495.5 470.5,-361.5 309.5,-361.5"/>
<text text-anchor="middle" x="390" y="-483.5" font-family="Helvetica,sans-Serif" font-size="10.00">SDK::TArray&lt; SDK::UObject * &gt;</text>
<polyline fill="none" stroke="black" points="309.5,-476.5 470.5,-476.5 "/>
<text text-anchor="start" x="317.5" y="-464.5" font-family="Helvetica,sans-Serif" font-size="10.00">&#45; Count</text>
<text text-anchor="start" x="317.5" y="-453.5" font-family="Helvetica,sans-Serif" font-size="10.00">&#45; Max</text>
<polyline fill="none" stroke="black" points="309.5,-446.5 470.5,-446.5 "/>
<text text-anchor="start" x="317.5" y="-434.5" font-family="Helvetica,sans-Serif" font-size="10.00">+ TArray()</text>
<text text-anchor="start" x="317.5" y="-423.5" font-family="Helvetica,sans-Serif" font-size="10.00">+ Num()</text>
<text text-anchor="start" x="317.5" y="-412.5" font-family="Helvetica,sans-Serif" font-size="10.00">+ operator[]()</text>
<text text-anchor="start" x="317.5" y="-401.5" font-family="Helvetica,sans-Serif" font-size="10.00">+ operator[]()</text>
<text text-anchor="start" x="317.5" y="-390.5" font-family="Helvetica,sans-Serif" font-size="10.00">+ IsValidIndex()</text>
<text text-anchor="start" x="317.5" y="-379.5" font-family="Helvetica,sans-Serif" font-size="10.00">+ GetByIndex()</text>
<text text-anchor="start" x="317.5" y="-368.5" font-family="Helvetica,sans-Serif" font-size="10.00">+ GetByIndex()</text>
</a>
</g>
</g>
<!-- Node3&#45;&gt;Node9 -->
<g id="edge10" class="edge">
<title>Node3&#45;&gt;Node9</title>
<path fill="none" stroke="#404040" d="M284.09,-543.37C289.22,-533.13 294.85,-523.19 301,-514 303.04,-510.95 305.2,-507.94 307.47,-504.96"/>
<polygon fill="none" stroke="#404040" points="307.49,-504.93 308.14,-497.75 315.02,-495.58 314.37,-502.77 307.49,-504.93"/>
<text text-anchor="middle" x="315" y="-517" font-family="Helvetica,sans-Serif" font-size="10.00"> &#45;Data</text>
</g>
<!-- Node11 -->
<g id="node11" class="node">
<title>Node11</title>
<g id="a_node11"><a xlink:href="../../d7/d85/classSDK_1_1UClass.html" target="_top" xlink:title=" ">
<polygon fill="white" stroke="black" points="70.5,-0.5 70.5,-90.5 191.5,-90.5 191.5,-0.5 70.5,-0.5"/>
<text text-anchor="middle" x="131" y="-78.5" font-family="Helvetica,sans-Serif" font-size="10.00">SDK::UClass</text>
<polyline fill="none" stroke="black" points="70.5,-71.5 191.5,-71.5 "/>
<text text-anchor="start" x="78.5" y="-59.5" font-family="Helvetica,sans-Serif" font-size="10.00">+ UnknownData00</text>
<text text-anchor="start" x="78.5" y="-48.5" font-family="Helvetica,sans-Serif" font-size="10.00">+ UnknownData01</text>
<polyline fill="none" stroke="black" points="70.5,-41.5 191.5,-41.5 "/>
<text text-anchor="start" x="78.5" y="-29.5" font-family="Helvetica,sans-Serif" font-size="10.00">+ CreateDefaultObject()</text>
<text text-anchor="start" x="78.5" y="-18.5" font-family="Helvetica,sans-Serif" font-size="10.00">+ CreateDefaultObject()</text>
<text text-anchor="start" x="78.5" y="-7.5" font-family="Helvetica,sans-Serif" font-size="10.00">+ StaticClass()</text>
</a>
</g>
</g>
<!-- Node3&#45;&gt;Node11 -->
<g id="edge20" class="edge">
<title>Node3&#45;&gt;Node11</title>
<path fill="none" stroke="#404040" d="M143.81,-617.24C76.62,-577.58 0,-513.86 0,-429.5 0,-429.5 0,-429.5 0,-156 0,-120.34 28.94,-94.01 59.61,-76.12"/>
<polygon fill="none" stroke="#404040" points="59.97,-75.92 63.3,-69.53 70.48,-70.14 67.15,-76.54 59.97,-75.92"/>
<text text-anchor="middle" x="47.5" y="-260.5" font-family="Helvetica,sans-Serif" font-size="10.00"> +ClassDefaultObject</text>
</g>
<!-- Node14 -->
<g id="node14" class="node">
<title>Node14</title>
<g id="a_node14"><a xlink:href="../../de/dd6/classSDK_1_1UField.html" target="_top" xlink:title=" ">
<polygon fill="white" stroke="black" points="159.5,-400 159.5,-457 242.5,-457 242.5,-400 159.5,-400"/>
<text text-anchor="middle" x="201" y="-445" font-family="Helvetica,sans-Serif" font-size="10.00">SDK::UField</text>
<polyline fill="none" stroke="black" points="159.5,-438 242.5,-438 "/>
<text text-anchor="middle" x="201" y="-426" font-family="Helvetica,sans-Serif" font-size="10.00"> </text>
<polyline fill="none" stroke="black" points="159.5,-419 242.5,-419 "/>
<text text-anchor="start" x="167.5" y="-407" font-family="Helvetica,sans-Serif" font-size="10.00">+ StaticClass()</text>
</a>
</g>
</g>
<!-- Node3&#45;&gt;Node14 -->
<g id="edge17" class="edge">
<title>Node3&#45;&gt;Node14</title>
<path fill="none" stroke="midnightblue" d="M219.5,-533.01C214.36,-504.27 209.43,-476.66 205.95,-457.19"/>
<polygon fill="none" stroke="midnightblue" points="216.12,-533.99 221.32,-543.21 223.01,-532.75 216.12,-533.99"/>
</g>
<!-- Node4 -->
<g id="node4" class="node">
<title>Node4</title>
<g id="a_node4"><a xlink:href="../../d0/d22/structSDK_1_1FQWord.html" target="_top" xlink:title=" ">
<polygon fill="white" stroke="black" points="96,-954 96,-1022 176,-1022 176,-954 96,-954"/>
<text text-anchor="middle" x="136" y="-1010" font-family="Helvetica,sans-Serif" font-size="10.00">SDK::FQWord</text>
<polyline fill="none" stroke="black" points="96,-1003 176,-1003 "/>
<text text-anchor="start" x="104" y="-991" font-family="Helvetica,sans-Serif" font-size="10.00">+ A</text>
<text text-anchor="start" x="104" y="-980" font-family="Helvetica,sans-Serif" font-size="10.00">+ B</text>
<polyline fill="none" stroke="black" points="96,-973 176,-973 "/>
<text text-anchor="middle" x="136" y="-961" font-family="Helvetica,sans-Serif" font-size="10.00"> </text>
</a>
</g>
</g>
<!-- Node4&#45;&gt;Node3 -->
<g id="edge3" class="edge">
<title>Node4&#45;&gt;Node3</title>
<path fill="none" stroke="#404040" d="M141.28,-953.7C147.64,-916.92 159.66,-856.25 177,-806 177.82,-803.63 178.67,-801.24 179.54,-798.84"/>
<polygon fill="none" stroke="#404040" points="179.56,-798.8 177.94,-791.77 183.8,-787.58 185.42,-794.6 179.56,-798.8"/>
<text text-anchor="middle" x="208" y="-854.5" font-family="Helvetica,sans-Serif" font-size="10.00"> +ObjectFlags</text>
</g>
<!-- Node5 -->
<g id="node5" class="node">
<title>Node5</title>
<g id="a_node5"><a xlink:href="../../d0/db6/structSDK_1_1FName.html" target="_top" xlink:title=" ">
<polygon fill="white" stroke="black" points="309.5,-926.5 309.5,-1049.5 416.5,-1049.5 416.5,-926.5 309.5,-926.5"/>
<text text-anchor="middle" x="363" y="-1037.5" font-family="Helvetica,sans-Serif" font-size="10.00">SDK::FName</text>
<polyline fill="none" stroke="black" points="309.5,-1030.5 416.5,-1030.5 "/>
<text text-anchor="start" x="317.5" y="-1018.5" font-family="Helvetica,sans-Serif" font-size="10.00">+ Index</text>
<text text-anchor="start" x="317.5" y="-1007.5" font-family="Helvetica,sans-Serif" font-size="10.00">+ Number</text>
<polyline fill="none" stroke="black" points="309.5,-1000.5 416.5,-1000.5 "/>
<text text-anchor="start" x="317.5" y="-988.5" font-family="Helvetica,sans-Serif" font-size="10.00">+ FName()</text>
<text text-anchor="start" x="317.5" y="-977.5" font-family="Helvetica,sans-Serif" font-size="10.00">+ FName()</text>
<text text-anchor="start" x="317.5" y="-966.5" font-family="Helvetica,sans-Serif" font-size="10.00">+ FName()</text>
<text text-anchor="start" x="317.5" y="-955.5" font-family="Helvetica,sans-Serif" font-size="10.00">+ GetName()</text>
<text text-anchor="start" x="317.5" y="-944.5" font-family="Helvetica,sans-Serif" font-size="10.00">+ operator==()</text>
<text text-anchor="start" x="317.5" y="-933.5" font-family="Helvetica,sans-Serif" font-size="10.00">+ GetGlobalNames()</text>
</a>
</g>
</g>
<!-- Node5&#45;&gt;Node3 -->
<g id="edge4" class="edge">
<title>Node5&#45;&gt;Node3</title>
<path fill="none" stroke="#404040" d="M350.9,-926.41C342.89,-890.73 331.07,-845.08 316,-806 315.1,-803.66 314.17,-801.31 313.21,-798.95"/>
<polygon fill="none" stroke="#404040" points="313.2,-798.92 307.18,-794.94 308.55,-787.86 314.56,-791.84 313.2,-798.92"/>
<text text-anchor="middle" x="364" y="-854.5" font-family="Helvetica,sans-Serif" font-size="10.00"> +Name</text>
</g>
<!-- Node6 -->
<g id="node6" class="node">
<title>Node6</title>
<g id="a_node6"><a xlink:href="../../d3/d79/classSDK_1_1TArray.html" target="_top" xlink:title=" ">
<polygon fill="white" stroke="black" points="273,-1103 273,-1237 453,-1237 453,-1103 273,-1103"/>
<text text-anchor="middle" x="363" y="-1225" font-family="Helvetica,sans-Serif" font-size="10.00">SDK::TArray&lt; SDK::FNameEntry * &gt;</text>
<polyline fill="none" stroke="black" points="273,-1218 453,-1218 "/>
<text text-anchor="start" x="281" y="-1206" font-family="Helvetica,sans-Serif" font-size="10.00">&#45; Count</text>
<text text-anchor="start" x="281" y="-1195" font-family="Helvetica,sans-Serif" font-size="10.00">&#45; Max</text>
<polyline fill="none" stroke="black" points="273,-1188 453,-1188 "/>
<text text-anchor="start" x="281" y="-1176" font-family="Helvetica,sans-Serif" font-size="10.00">+ TArray()</text>
<text text-anchor="start" x="281" y="-1165" font-family="Helvetica,sans-Serif" font-size="10.00">+ Num()</text>
<text text-anchor="start" x="281" y="-1154" font-family="Helvetica,sans-Serif" font-size="10.00">+ operator[]()</text>
<text text-anchor="start" x="281" y="-1143" font-family="Helvetica,sans-Serif" font-size="10.00">+ operator[]()</text>
<text text-anchor="start" x="281" y="-1132" font-family="Helvetica,sans-Serif" font-size="10.00">+ IsValidIndex()</text>
<text text-anchor="start" x="281" y="-1121" font-family="Helvetica,sans-Serif" font-size="10.00">+ GetByIndex()</text>
<text text-anchor="start" x="281" y="-1110" font-family="Helvetica,sans-Serif" font-size="10.00">+ GetByIndex()</text>
</a>
</g>
</g>
<!-- Node6&#45;&gt;Node5 -->
<g id="edge5" class="edge">
<title>Node6&#45;&gt;Node5</title>
<path fill="none" stroke="#404040" d="M363,-1103C363,-1089.63 363,-1075.5 363,-1061.91"/>
<polygon fill="none" stroke="#404040" points="363,-1061.62 359,-1055.62 363,-1049.62 367,-1055.62 363,-1061.62"/>
<text text-anchor="middle" x="387.5" y="-1071" font-family="Helvetica,sans-Serif" font-size="10.00"> +GNames</text>
</g>
<!-- Node7 -->
<g id="node7" class="node">
<title>Node7</title>
<g id="a_node7"><a xlink:href="../../d7/ddf/classSDK_1_1FNameEntry.html" target="_top" xlink:title=" ">
<polygon fill="white" stroke="black" points="288.5,-1329 288.5,-1397 387.5,-1397 387.5,-1329 288.5,-1329"/>
<text text-anchor="middle" x="338" y="-1385" font-family="Helvetica,sans-Serif" font-size="10.00">SDK::FNameEntry</text>
<polyline fill="none" stroke="black" points="288.5,-1378 387.5,-1378 "/>
<text text-anchor="start" x="296.5" y="-1366" font-family="Helvetica,sans-Serif" font-size="10.00">+ UnknownData00</text>
<text text-anchor="start" x="296.5" y="-1355" font-family="Helvetica,sans-Serif" font-size="10.00">+ name</text>
<polyline fill="none" stroke="black" points="288.5,-1348 387.5,-1348 "/>
<text text-anchor="start" x="296.5" y="-1336" font-family="Helvetica,sans-Serif" font-size="10.00">+ GetName()</text>
</a>
</g>
</g>
<!-- Node7&#45;&gt;Node6 -->
<g id="edge6" class="edge">
<title>Node7&#45;&gt;Node6</title>
<path fill="none" stroke="#404040" d="M336.24,-1328.64C335.72,-1308.89 335.95,-1283.41 339,-1261 339.52,-1257.15 340.16,-1253.24 340.88,-1249.3"/>
<polygon fill="none" stroke="#404040" points="340.9,-1249.22 338.17,-1242.55 343.29,-1237.46 346.01,-1244.14 340.9,-1249.22"/>
<text text-anchor="middle" x="353" y="-1264" font-family="Helvetica,sans-Serif" font-size="10.00"> &#45;Data</text>
</g>
<!-- Node8 -->
<g id="node8" class="node">
<title>Node8</title>
<g id="a_node8"><a xlink:href="../../d3/d79/classSDK_1_1TArray.html" target="_top" xlink:title=" ">
<polygon fill="white" stroke="black" points="466.5,-1290.5 466.5,-1435.5 563.5,-1435.5 563.5,-1290.5 466.5,-1290.5"/>
<text text-anchor="middle" x="515" y="-1423.5" font-family="Helvetica,sans-Serif" font-size="10.00">SDK::TArray&lt; T &gt;</text>
<polyline fill="none" stroke="black" points="466.5,-1416.5 563.5,-1416.5 "/>
<text text-anchor="start" x="474.5" y="-1404.5" font-family="Helvetica,sans-Serif" font-size="10.00">&#45; Data</text>
<text text-anchor="start" x="474.5" y="-1393.5" font-family="Helvetica,sans-Serif" font-size="10.00">&#45; Count</text>
<text text-anchor="start" x="474.5" y="-1382.5" font-family="Helvetica,sans-Serif" font-size="10.00">&#45; Max</text>
<polyline fill="none" stroke="black" points="466.5,-1375.5 563.5,-1375.5 "/>
<text text-anchor="start" x="474.5" y="-1363.5" font-family="Helvetica,sans-Serif" font-size="10.00">+ TArray()</text>
<text text-anchor="start" x="474.5" y="-1352.5" font-family="Helvetica,sans-Serif" font-size="10.00">+ Num()</text>
<text text-anchor="start" x="474.5" y="-1341.5" font-family="Helvetica,sans-Serif" font-size="10.00">+ operator[]()</text>
<text text-anchor="start" x="474.5" y="-1330.5" font-family="Helvetica,sans-Serif" font-size="10.00">+ operator[]()</text>
<text text-anchor="start" x="474.5" y="-1319.5" font-family="Helvetica,sans-Serif" font-size="10.00">+ IsValidIndex()</text>
<text text-anchor="start" x="474.5" y="-1308.5" font-family="Helvetica,sans-Serif" font-size="10.00">+ GetByIndex()</text>
<text text-anchor="start" x="474.5" y="-1297.5" font-family="Helvetica,sans-Serif" font-size="10.00">+ GetByIndex()</text>
</a>
</g>
</g>
<!-- Node8&#45;&gt;Node6 -->
<g id="edge7" class="edge">
<title>Node8&#45;&gt;Node6</title>
<path fill="none" stroke="orange" d="M457.7,-1332.45C433.58,-1317.36 407.18,-1296.9 390,-1272 382.84,-1261.62 377.57,-1249.43 373.7,-1237.18"/>
<polygon fill="orange" stroke="orange" points="456.1,-1335.57 466.46,-1337.77 459.73,-1329.59 456.1,-1335.57"/>
<text text-anchor="middle" x="445.5" y="-1264" font-family="Helvetica,sans-Serif" font-size="10.00"> &lt; SDK::FNameEntry * &gt;</text>
</g>
<!-- Node8&#45;&gt;Node9 -->
<g id="edge11" class="edge">
<title>Node8&#45;&gt;Node9</title>
<path fill="none" stroke="orange" d="M515,-1280.06C515,-1246.29 515,-1206.76 515,-1171 515,-1171 515,-1171 515,-664.5 515,-602.11 480.24,-540.18 447.38,-495.56"/>
<polygon fill="orange" stroke="orange" points="511.5,-1280.35 515,-1290.35 518.5,-1280.35 511.5,-1280.35"/>
<text text-anchor="middle" x="560.5" y="-985.5" font-family="Helvetica,sans-Serif" font-size="10.00"> &lt; SDK::UObject * &gt;</text>
</g>
<!-- Node16 -->
<g id="node16" class="node">
<title>Node16</title>
<g id="a_node16"><a xlink:href="../../d3/d79/classSDK_1_1TArray.html" target="_top" xlink:title=" ">
<polygon fill="white" stroke="black" points="567.5,-1097.5 567.5,-1242.5 692.5,-1242.5 692.5,-1097.5 567.5,-1097.5"/>
<text text-anchor="middle" x="630" y="-1230.5" font-family="Helvetica,sans-Serif" font-size="10.00">SDK::TArray&lt; wchar_t &gt;</text>
<polyline fill="none" stroke="black" points="567.5,-1223.5 692.5,-1223.5 "/>
<text text-anchor="start" x="575.5" y="-1211.5" font-family="Helvetica,sans-Serif" font-size="10.00">&#45; Data</text>
<text text-anchor="start" x="575.5" y="-1200.5" font-family="Helvetica,sans-Serif" font-size="10.00">&#45; Count</text>
<text text-anchor="start" x="575.5" y="-1189.5" font-family="Helvetica,sans-Serif" font-size="10.00">&#45; Max</text>
<polyline fill="none" stroke="black" points="567.5,-1182.5 692.5,-1182.5 "/>
<text text-anchor="start" x="575.5" y="-1170.5" font-family="Helvetica,sans-Serif" font-size="10.00">+ TArray()</text>
<text text-anchor="start" x="575.5" y="-1159.5" font-family="Helvetica,sans-Serif" font-size="10.00">+ Num()</text>
<text text-anchor="start" x="575.5" y="-1148.5" font-family="Helvetica,sans-Serif" font-size="10.00">+ operator[]()</text>
<text text-anchor="start" x="575.5" y="-1137.5" font-family="Helvetica,sans-Serif" font-size="10.00">+ operator[]()</text>
<text text-anchor="start" x="575.5" y="-1126.5" font-family="Helvetica,sans-Serif" font-size="10.00">+ IsValidIndex()</text>
<text text-anchor="start" x="575.5" y="-1115.5" font-family="Helvetica,sans-Serif" font-size="10.00">+ GetByIndex()</text>
<text text-anchor="start" x="575.5" y="-1104.5" font-family="Helvetica,sans-Serif" font-size="10.00">+ GetByIndex()</text>
</a>
</g>
</g>
<!-- Node8&#45;&gt;Node16 -->
<g id="edge23" class="edge">
<title>Node8&#45;&gt;Node16</title>
<path fill="none" stroke="orange" d="M563.47,-1281.5C571.22,-1268.63 579.19,-1255.39 586.8,-1242.75"/>
<polygon fill="orange" stroke="orange" points="560.31,-1279.96 558.15,-1290.34 566.31,-1283.57 560.31,-1279.96"/>
<text text-anchor="middle" x="600" y="-1264" font-family="Helvetica,sans-Serif" font-size="10.00"> &lt; wchar_t &gt;</text>
</g>
<!-- Node9&#45;&gt;Node3 -->
<g id="edge9" class="edge">
<title>Node9&#45;&gt;Node3</title>
<path fill="none" stroke="#404040" d="M348.63,-495.63C341.27,-507.4 333.38,-520.02 325.34,-532.87"/>
<polygon fill="none" stroke="#404040" points="325.23,-533.04 325.44,-540.25 318.87,-543.21 318.66,-536.01 325.23,-533.04"/>
<text text-anchor="middle" x="358.5" y="-517" font-family="Helvetica,sans-Serif" font-size="10.00"> +GObjects</text>
</g>
<!-- Node10 -->
<g id="node10" class="node">
<title>Node10</title>
<g id="a_node10"><a xlink:href="../../d9/dfa/structSDK_1_1FPointer.html" target="_top" xlink:title=" ">
<polygon fill="white" stroke="black" points="194,-954 194,-1022 292,-1022 292,-954 194,-954"/>
<text text-anchor="middle" x="243" y="-1010" font-family="Helvetica,sans-Serif" font-size="10.00">SDK::FPointer</text>
<polyline fill="none" stroke="black" points="194,-1003 292,-1003 "/>
<text text-anchor="start" x="202" y="-991" font-family="Helvetica,sans-Serif" font-size="10.00">+ Dummy</text>
<text text-anchor="start" x="202" y="-980" font-family="Helvetica,sans-Serif" font-size="10.00">+ UnknownData00</text>
<polyline fill="none" stroke="black" points="194,-973 292,-973 "/>
<text text-anchor="middle" x="243" y="-961" font-family="Helvetica,sans-Serif" font-size="10.00"> </text>
</a>
</g>
</g>
<!-- Node10&#45;&gt;Node3 -->
<g id="edge12" class="edge">
<title>Node10&#45;&gt;Node3</title>
<path fill="none" stroke="#404040" d="M243,-953.91C243,-917.48 243,-856.57 243,-800.19"/>
<polygon fill="none" stroke="#404040" points="243,-799.86 239,-793.86 243,-787.86 247,-793.86 243,-799.86"/>
<text text-anchor="middle" x="277.5" y="-865.5" font-family="Helvetica,sans-Serif" font-size="10.00"> +StateFrame</text>
<text text-anchor="middle" x="277.5" y="-854.5" font-family="Helvetica,sans-Serif" font-size="10.00">+VfTableObject</text>
<text text-anchor="middle" x="277.5" y="-843.5" font-family="Helvetica,sans-Serif" font-size="10.00">+LinkerIndex</text>
</g>
<!-- Node11&#45;&gt;Node3 -->
<g id="edge13" class="edge">
<title>Node11&#45;&gt;Node3</title>
<path fill="none" stroke="#404040" d="M131,-90.72C131,-110.67 131,-134.52 131,-156 131,-429.5 131,-429.5 131,-429.5 131,-464.47 141.23,-499.77 155.51,-532.01"/>
<polygon fill="none" stroke="#404040" points="155.68,-532.38 161.83,-536.15 160.72,-543.27 154.57,-539.51 155.68,-532.38"/>
<text text-anchor="middle" x="148.5" y="-260.5" font-family="Helvetica,sans-Serif" font-size="10.00"> +Class</text>
</g>
<!-- Node12 -->
<g id="node12" class="node">
<title>Node12</title>
<g id="a_node12"><a xlink:href="../../df/d72/classSDK_1_1UState.html" target="_top" xlink:title=" ">
<polygon fill="white" stroke="black" points="171,-128.5 171,-185.5 269,-185.5 269,-128.5 171,-128.5"/>
<text text-anchor="middle" x="220" y="-173.5" font-family="Helvetica,sans-Serif" font-size="10.00">SDK::UState</text>
<polyline fill="none" stroke="black" points="171,-166.5 269,-166.5 "/>
<text text-anchor="start" x="179" y="-154.5" font-family="Helvetica,sans-Serif" font-size="10.00">+ UnknownData00</text>
<polyline fill="none" stroke="black" points="171,-147.5 269,-147.5 "/>
<text text-anchor="start" x="179" y="-135.5" font-family="Helvetica,sans-Serif" font-size="10.00">+ StaticClass()</text>
</a>
</g>
</g>
<!-- Node12&#45;&gt;Node11 -->
<g id="edge14" class="edge">
<title>Node12&#45;&gt;Node11</title>
<path fill="none" stroke="midnightblue" d="M191.01,-120.33C183.33,-110.89 174.95,-100.58 166.96,-90.74"/>
<polygon fill="none" stroke="midnightblue" points="188.52,-122.82 197.54,-128.37 193.95,-118.4 188.52,-122.82"/>
</g>
<!-- Node13 -->
<g id="node13" class="node">
<title>Node13</title>
<g id="a_node13"><a xlink:href="../../d8/de9/classSDK_1_1UStruct.html" target="_top" xlink:title=" ">
<polygon fill="white" stroke="black" points="184,-223.5 184,-302.5 282,-302.5 282,-223.5 184,-223.5"/>
<text text-anchor="middle" x="233" y="-290.5" font-family="Helvetica,sans-Serif" font-size="10.00">SDK::UStruct</text>
<polyline fill="none" stroke="black" points="184,-283.5 282,-283.5 "/>
<text text-anchor="start" x="192" y="-271.5" font-family="Helvetica,sans-Serif" font-size="10.00">+ UnknownData00</text>
<text text-anchor="start" x="192" y="-260.5" font-family="Helvetica,sans-Serif" font-size="10.00">+ PropertySize</text>
<text text-anchor="start" x="192" y="-249.5" font-family="Helvetica,sans-Serif" font-size="10.00">+ UnknownData01</text>
<polyline fill="none" stroke="black" points="184,-242.5 282,-242.5 "/>
<text text-anchor="start" x="192" y="-230.5" font-family="Helvetica,sans-Serif" font-size="10.00">+ StaticClass()</text>
</a>
</g>
</g>
<!-- Node13&#45;&gt;Node12 -->
<g id="edge15" class="edge">
<title>Node13&#45;&gt;Node12</title>
<path fill="none" stroke="midnightblue" d="M226.9,-213.16C225.72,-203.74 224.52,-194.17 223.46,-185.72"/>
<polygon fill="none" stroke="midnightblue" points="223.45,-213.79 228.16,-223.27 230.39,-212.92 223.45,-213.79"/>
</g>
<!-- Node14&#45;&gt;Node13 -->
<g id="edge16" class="edge">
<title>Node14&#45;&gt;Node13</title>
<path fill="none" stroke="midnightblue" d="M203.78,-389.47C205.74,-369.01 208.94,-343.44 214,-321 215.35,-315 217.09,-308.73 218.97,-302.65"/>
<polygon fill="none" stroke="midnightblue" points="200.27,-389.38 202.86,-399.66 207.25,-390.01 200.27,-389.38"/>
</g>
<!-- Node14&#45;&gt;Node13 -->
<g id="edge19" class="edge">
<title>Node14&#45;&gt;Node13</title>
<path fill="none" stroke="#404040" d="M206.43,-399.76C210.98,-376.51 217.6,-342.7 223.09,-314.64"/>
<polygon fill="none" stroke="#404040" points="223.14,-314.39 220.36,-307.74 225.44,-302.62 228.22,-309.27 223.14,-314.39"/>
<text text-anchor="middle" x="249" y="-335" font-family="Helvetica,sans-Serif" font-size="10.00"> +SuperField</text>
<text text-anchor="middle" x="249" y="-324" font-family="Helvetica,sans-Serif" font-size="10.00">+Children</text>
</g>
<!-- Node14&#45;&gt;Node14 -->
<g id="edge18" class="edge">
<title>Node14&#45;&gt;Node14</title>
<path fill="none" stroke="#404040" d="M242.71,-445.11C252.91,-443.88 260.5,-438.34 260.5,-428.5 260.5,-422.96 258.1,-418.79 254.18,-415.98"/>
<polygon fill="none" stroke="#404040" points="254.01,-415.92 247.01,-417.67 242.71,-411.89 249.7,-410.13 254.01,-415.92"/>
<text text-anchor="middle" x="276" y="-426" font-family="Helvetica,sans-Serif" font-size="10.00"> +Next</text>
</g>
<!-- Node15 -->
<g id="node15" class="node">
<title>Node15</title>
<g id="a_node15"><a xlink:href="../../d3/d88/classSDK_1_1FString.html" target="_top" xlink:title=" ">
<polygon fill="white" stroke="black" points="634.5,-806.5 634.5,-907.5 709.5,-907.5 709.5,-806.5 634.5,-806.5"/>
<text text-anchor="middle" x="672" y="-895.5" font-family="Helvetica,sans-Serif" font-size="10.00">SDK::FString</text>
<polyline fill="none" stroke="black" points="634.5,-888.5 709.5,-888.5 "/>
<text text-anchor="middle" x="672" y="-876.5" font-family="Helvetica,sans-Serif" font-size="10.00"> </text>
<polyline fill="none" stroke="black" points="634.5,-869.5 709.5,-869.5 "/>
<text text-anchor="start" x="642.5" y="-857.5" font-family="Helvetica,sans-Serif" font-size="10.00">+ FString()</text>
<text text-anchor="start" x="642.5" y="-846.5" font-family="Helvetica,sans-Serif" font-size="10.00">+ FString()</text>
<text text-anchor="start" x="642.5" y="-835.5" font-family="Helvetica,sans-Serif" font-size="10.00">+ IsValid()</text>
<text text-anchor="start" x="642.5" y="-824.5" font-family="Helvetica,sans-Serif" font-size="10.00">+ c_str()</text>
<text text-anchor="start" x="642.5" y="-813.5" font-family="Helvetica,sans-Serif" font-size="10.00">+ ToString()</text>
</a>
</g>
</g>
<!-- Node15&#45;&gt;Node1 -->
<g id="edge21" class="edge">
<title>Node15&#45;&gt;Node1</title>
<path fill="none" stroke="#404040" d="M673.18,-806.35C674.81,-717.05 676.14,-523.49 662,-361 660.36,-342.15 657.32,-321.4 654.4,-303.95"/>
<polygon fill="none" stroke="#404040" points="654.36,-303.72 649.4,-298.49 652.32,-291.9 657.29,-297.13 654.36,-303.72"/>
<text text-anchor="middle" x="704.5" y="-517" font-family="Helvetica,sans-Serif" font-size="10.00"> +PaletteName</text>
</g>
<!-- Node16&#45;&gt;Node15 -->
<g id="edge22" class="edge">
<title>Node16&#45;&gt;Node15</title>
<path fill="none" stroke="midnightblue" d="M641.05,-1087.18C648.75,-1030.13 658.78,-955.87 665.3,-907.58"/>
<polygon fill="none" stroke="midnightblue" points="637.56,-1086.88 639.69,-1097.26 644.5,-1087.82 637.56,-1086.88"/>
</g>
</g>
</svg>
