<?xml version="1.0" encoding="UTF-8" standalone="no"?>
<!DOCTYPE svg PUBLIC "-//W3C//DTD SVG 1.1//EN"
 "http://www.w3.org/Graphics/SVG/1.1/DTD/svg11.dtd">
<!-- Generated by graphviz version 2.41.20171026.1811 (20171026.1811)
 -->
<!-- Title: SDK::FMatrix Pages: 1 -->
<svg width="88pt" height="321pt"
 viewBox="0.00 0.00 88.00 321.00" xmlns="http://www.w3.org/2000/svg" xmlns:xlink="http://www.w3.org/1999/xlink">
<g id="graph0" class="graph" transform="scale(1 1) rotate(0) translate(4 317)">
<title>SDK::FMatrix</title>
<polygon fill="white" stroke="transparent" points="-4,4 -4,-317 84,-317 84,4 -4,4"/>
<!-- Node1 -->
<g id="node1" class="node">
<title>Node1</title>
<g id="a_node1"><a xlink:title=" ">
<polygon fill="#bfbfbf" stroke="black" points="0.5,-0.5 0.5,-57.5 77.5,-57.5 77.5,-0.5 0.5,-0.5"/>
<text text-anchor="middle" x="39" y="-45.5" font-family="Helvetica,sans-Serif" font-size="10.00">SDK::FMatrix</text>
<polyline fill="none" stroke="black" points="0.5,-38.5 77.5,-38.5 "/>
<text text-anchor="middle" x="39" y="-26.5" font-family="Helvetica,sans-Serif" font-size="10.00"> </text>
<polyline fill="none" stroke="black" points="0.5,-19.5 77.5,-19.5 "/>
<text text-anchor="middle" x="39" y="-7.5" font-family="Helvetica,sans-Serif" font-size="10.00"> </text>
</a>
</g>
</g>
<!-- Node2 -->
<g id="node2" class="node">
<title>Node2</title>
<g id="a_node2"><a xlink:href="../../da/d4a/structSDK_1_1FPlane.html" target="_top" xlink:title=" ">
<polygon fill="white" stroke="black" points="2,-138.5 2,-195.5 76,-195.5 76,-138.5 2,-138.5"/>
<text text-anchor="middle" x="39" y="-183.5" font-family="Helvetica,sans-Serif" font-size="10.00">SDK::FPlane</text>
<polyline fill="none" stroke="black" points="2,-176.5 76,-176.5 "/>
<text text-anchor="start" x="10" y="-164.5" font-family="Helvetica,sans-Serif" font-size="10.00">+ W</text>
<polyline fill="none" stroke="black" points="2,-157.5 76,-157.5 "/>
<text text-anchor="middle" x="39" y="-145.5" font-family="Helvetica,sans-Serif" font-size="10.00"> </text>
</a>
</g>
</g>
<!-- Node2&#45;&gt;Node1 -->
<g id="edge1" class="edge">
<title>Node2&#45;&gt;Node1</title>
<path fill="none" stroke="#404040" d="M39,-138.48C39,-118.79 39,-91.99 39,-69.95"/>
<polygon fill="none" stroke="#404040" points="39,-69.95 35,-63.95 39,-57.95 43,-63.95 39,-69.95"/>
<text text-anchor="middle" x="59.5" y="-112" font-family="Helvetica,sans-Serif" font-size="10.00"> +ZPlane</text>
<text text-anchor="middle" x="59.5" y="-101" font-family="Helvetica,sans-Serif" font-size="10.00">+YPlane</text>
<text text-anchor="middle" x="59.5" y="-90" font-family="Helvetica,sans-Serif" font-size="10.00">+XPlane</text>
<text text-anchor="middle" x="59.5" y="-79" font-family="Helvetica,sans-Serif" font-size="10.00">+WPlane</text>
</g>
<!-- Node3 -->
<g id="node3" class="node">
<title>Node3</title>
<g id="a_node3"><a xlink:href="../../dd/d43/structSDK_1_1FVector.html" target="_top" xlink:title=" ">
<polygon fill="white" stroke="black" points="0,-233.5 0,-312.5 78,-312.5 78,-233.5 0,-233.5"/>
<text text-anchor="middle" x="39" y="-300.5" font-family="Helvetica,sans-Serif" font-size="10.00">SDK::FVector</text>
<polyline fill="none" stroke="black" points="0,-293.5 78,-293.5 "/>
<text text-anchor="start" x="8" y="-281.5" font-family="Helvetica,sans-Serif" font-size="10.00">+ X</text>
<text text-anchor="start" x="8" y="-270.5" font-family="Helvetica,sans-Serif" font-size="10.00">+ Y</text>
<text text-anchor="start" x="8" y="-259.5" font-family="Helvetica,sans-Serif" font-size="10.00">+ Z</text>
<polyline fill="none" stroke="black" points="0,-252.5 78,-252.5 "/>
<text text-anchor="middle" x="39" y="-240.5" font-family="Helvetica,sans-Serif" font-size="10.00"> </text>
</a>
</g>
</g>
<!-- Node3&#45;&gt;Node2 -->
<g id="edge2" class="edge">
<title>Node3&#45;&gt;Node2</title>
<path fill="none" stroke="midnightblue" d="M39,-223.16C39,-213.74 39,-204.17 39,-195.72"/>
<polygon fill="none" stroke="midnightblue" points="35.5,-223.27 39,-233.27 42.5,-223.27 35.5,-223.27"/>
</g>
</g>
</svg>
