<?xml version="1.0" encoding="UTF-8" standalone="no"?>
<!DOCTYPE svg PUBLIC "-//W3C//DTD SVG 1.1//EN"
 "http://www.w3.org/Graphics/SVG/1.1/DTD/svg11.dtd">
<!-- Generated by graphviz version 2.41.20171026.1811 (20171026.1811)
 -->
<!-- Title: SDK::FSoftBodyTetraLink Pages: 1 -->
<svg width="139pt" height="193pt"
 viewBox="0.00 0.00 139.00 193.00" xmlns="http://www.w3.org/2000/svg" xmlns:xlink="http://www.w3.org/1999/xlink">
<g id="graph0" class="graph" transform="scale(1 1) rotate(0) translate(4 189)">
<title>SDK::FSoftBodyTetraLink</title>
<polygon fill="white" stroke="transparent" points="-4,4 -4,-189 135,-189 135,4 -4,4"/>
<!-- Node1 -->
<g id="node1" class="node">
<title>Node1</title>
<g id="a_node1"><a xlink:title=" ">
<polygon fill="#bfbfbf" stroke="black" points="0,-0.5 0,-57.5 131,-57.5 131,-0.5 0,-0.5"/>
<text text-anchor="middle" x="65.5" y="-45.5" font-family="Helvetica,sans-Serif" font-size="10.00">SDK::FSoftBodyTetraLink</text>
<polyline fill="none" stroke="black" points="0,-38.5 131,-38.5 "/>
<text text-anchor="start" x="8" y="-26.5" font-family="Helvetica,sans-Serif" font-size="10.00">+ Index</text>
<polyline fill="none" stroke="black" points="0,-19.5 131,-19.5 "/>
<text text-anchor="middle" x="65.5" y="-7.5" font-family="Helvetica,sans-Serif" font-size="10.00"> </text>
</a>
</g>
</g>
<!-- Node2 -->
<g id="node2" class="node">
<title>Node2</title>
<g id="a_node2"><a xlink:href="../../dd/d43/structSDK_1_1FVector.html" target="_top" xlink:title=" ">
<polygon fill="white" stroke="black" points="26.5,-105.5 26.5,-184.5 104.5,-184.5 104.5,-105.5 26.5,-105.5"/>
<text text-anchor="middle" x="65.5" y="-172.5" font-family="Helvetica,sans-Serif" font-size="10.00">SDK::FVector</text>
<polyline fill="none" stroke="black" points="26.5,-165.5 104.5,-165.5 "/>
<text text-anchor="start" x="34.5" y="-153.5" font-family="Helvetica,sans-Serif" font-size="10.00">+ X</text>
<text text-anchor="start" x="34.5" y="-142.5" font-family="Helvetica,sans-Serif" font-size="10.00">+ Y</text>
<text text-anchor="start" x="34.5" y="-131.5" font-family="Helvetica,sans-Serif" font-size="10.00">+ Z</text>
<polyline fill="none" stroke="black" points="26.5,-124.5 104.5,-124.5 "/>
<text text-anchor="middle" x="65.5" y="-112.5" font-family="Helvetica,sans-Serif" font-size="10.00"> </text>
</a>
</g>
</g>
<!-- Node2&#45;&gt;Node1 -->
<g id="edge1" class="edge">
<title>Node2&#45;&gt;Node1</title>
<path fill="none" stroke="#404040" d="M65.5,-105.4C65.5,-93.93 65.5,-81.33 65.5,-69.78"/>
<polygon fill="none" stroke="#404040" points="65.5,-69.75 61.5,-63.75 65.5,-57.75 69.5,-63.75 65.5,-69.75"/>
<text text-anchor="middle" x="80.5" y="-79" font-family="Helvetica,sans-Serif" font-size="10.00"> +Bary</text>
</g>
</g>
</svg>
