<?xml version="1.0" encoding="UTF-8" standalone="no"?>
<!DOCTYPE svg PUBLIC "-//W3C//DTD SVG 1.1//EN"
 "http://www.w3.org/Graphics/SVG/1.1/DTD/svg11.dtd">
<!-- Generated by graphviz version 2.41.20171026.1811 (20171026.1811)
 -->
<!-- Title: SDK::UUIDataStore_GameState Pages: 1 -->
<svg width="206pt" height="992pt"
 viewBox="0.00 0.00 206.00 992.00" xmlns="http://www.w3.org/2000/svg" xmlns:xlink="http://www.w3.org/1999/xlink">
<g id="graph0" class="graph" transform="scale(1 1) rotate(0) translate(4 988)">
<title>SDK::UUIDataStore_GameState</title>
<polygon fill="white" stroke="transparent" points="-4,4 -4,-988 202,-988 202,4 -4,4"/>
<!-- Node1 -->
<g id="node1" class="node">
<title>Node1</title>
<g id="a_node1"><a xlink:title=" ">
<polygon fill="#bfbfbf" stroke="black" points="18.5,-0.5 18.5,-90.5 179.5,-90.5 179.5,-0.5 18.5,-0.5"/>
<text text-anchor="middle" x="99" y="-78.5" font-family="Helvetica,sans-Serif" font-size="10.00">SDK::UUIDataStore_GameState</text>
<polyline fill="none" stroke="black" points="18.5,-71.5 179.5,-71.5 "/>
<text text-anchor="start" x="26.5" y="-59.5" font-family="Helvetica,sans-Serif" font-size="10.00">+ __OnRefreshDataFieldValue</text>
<text text-anchor="start" x="26.5" y="-48.5" font-family="Helvetica,sans-Serif" font-size="10.00">__Delegate</text>
<polyline fill="none" stroke="black" points="18.5,-41.5 179.5,-41.5 "/>
<text text-anchor="start" x="26.5" y="-29.5" font-family="Helvetica,sans-Serif" font-size="10.00">+ NotifyGameSessionEnded()</text>
<text text-anchor="start" x="26.5" y="-18.5" font-family="Helvetica,sans-Serif" font-size="10.00">+ OnRefreshDataFieldValue()</text>
<text text-anchor="start" x="26.5" y="-7.5" font-family="Helvetica,sans-Serif" font-size="10.00">+ StaticClass()</text>
</a>
</g>
</g>
<!-- Node2 -->
<g id="node2" class="node">
<title>Node2</title>
<g id="a_node2"><a xlink:href="../../de/d7a/classSDK_1_1UUIDataStore.html" target="_top" xlink:title=" ">
<polygon fill="white" stroke="black" points="21.5,-127.5 21.5,-305.5 176.5,-305.5 176.5,-127.5 21.5,-127.5"/>
<text text-anchor="middle" x="99" y="-293.5" font-family="Helvetica,sans-Serif" font-size="10.00">SDK::UUIDataStore</text>
<polyline fill="none" stroke="black" points="21.5,-286.5 176.5,-286.5 "/>
<text text-anchor="start" x="29.5" y="-274.5" font-family="Helvetica,sans-Serif" font-size="10.00">+ Tag</text>
<text text-anchor="start" x="29.5" y="-263.5" font-family="Helvetica,sans-Serif" font-size="10.00">+ RefreshSubscriberNotifies</text>
<text text-anchor="start" x="29.5" y="-252.5" font-family="Helvetica,sans-Serif" font-size="10.00">+ __OnDataStoreValueUpdated</text>
<text text-anchor="start" x="29.5" y="-241.5" font-family="Helvetica,sans-Serif" font-size="10.00">__Delegate</text>
<polyline fill="none" stroke="black" points="21.5,-234.5 176.5,-234.5 "/>
<text text-anchor="start" x="29.5" y="-222.5" font-family="Helvetica,sans-Serif" font-size="10.00">+ GetDataStoreClient()</text>
<text text-anchor="start" x="29.5" y="-211.5" font-family="Helvetica,sans-Serif" font-size="10.00">+ RefreshSubscribers()</text>
<text text-anchor="start" x="29.5" y="-200.5" font-family="Helvetica,sans-Serif" font-size="10.00">+ NotifyGameSessionEnded()</text>
<text text-anchor="start" x="29.5" y="-189.5" font-family="Helvetica,sans-Serif" font-size="10.00">+ SubscriberDetached()</text>
<text text-anchor="start" x="29.5" y="-178.5" font-family="Helvetica,sans-Serif" font-size="10.00">+ SubscriberAttached()</text>
<text text-anchor="start" x="29.5" y="-167.5" font-family="Helvetica,sans-Serif" font-size="10.00">+ Unregistered()</text>
<text text-anchor="start" x="29.5" y="-156.5" font-family="Helvetica,sans-Serif" font-size="10.00">+ Registered()</text>
<text text-anchor="start" x="29.5" y="-145.5" font-family="Helvetica,sans-Serif" font-size="10.00">+ OnDataStoreValueUpdated()</text>
<text text-anchor="start" x="29.5" y="-134.5" font-family="Helvetica,sans-Serif" font-size="10.00">+ StaticClass()</text>
</a>
</g>
</g>
<!-- Node2&#45;&gt;Node1 -->
<g id="edge1" class="edge">
<title>Node2&#45;&gt;Node1</title>
<path fill="none" stroke="midnightblue" d="M99,-117.03C99,-107.87 99,-98.93 99,-90.67"/>
<polygon fill="none" stroke="midnightblue" points="95.5,-117.04 99,-127.04 102.5,-117.04 95.5,-117.04"/>
</g>
<!-- Node3 -->
<g id="node3" class="node">
<title>Node3</title>
<g id="a_node3"><a xlink:href="../../d7/dd2/classSDK_1_1UUIDataProvider.html" target="_top" xlink:title=" ">
<polygon fill="white" stroke="black" points="39.5,-342.5 39.5,-399.5 158.5,-399.5 158.5,-342.5 39.5,-342.5"/>
<text text-anchor="middle" x="99" y="-387.5" font-family="Helvetica,sans-Serif" font-size="10.00">SDK::UUIDataProvider</text>
<polyline fill="none" stroke="black" points="39.5,-380.5 158.5,-380.5 "/>
<text text-anchor="middle" x="99" y="-368.5" font-family="Helvetica,sans-Serif" font-size="10.00"> </text>
<polyline fill="none" stroke="black" points="39.5,-361.5 158.5,-361.5 "/>
<text text-anchor="start" x="47.5" y="-349.5" font-family="Helvetica,sans-Serif" font-size="10.00">+ StaticClass()</text>
</a>
</g>
</g>
<!-- Node3&#45;&gt;Node2 -->
<g id="edge2" class="edge">
<title>Node3&#45;&gt;Node2</title>
<path fill="none" stroke="midnightblue" d="M99,-332.37C99,-324.09 99,-314.98 99,-305.62"/>
<polygon fill="none" stroke="midnightblue" points="95.5,-332.38 99,-342.38 102.5,-332.38 95.5,-332.38"/>
</g>
<!-- Node4 -->
<g id="node4" class="node">
<title>Node4</title>
<g id="a_node4"><a xlink:href="../../da/dd4/classSDK_1_1UUIRoot.html" target="_top" xlink:title=" ">
<polygon fill="white" stroke="black" points="2,-436.5 2,-592.5 196,-592.5 196,-436.5 2,-436.5"/>
<text text-anchor="middle" x="99" y="-580.5" font-family="Helvetica,sans-Serif" font-size="10.00">SDK::UUIRoot</text>
<polyline fill="none" stroke="black" points="2,-573.5 196,-573.5 "/>
<text text-anchor="start" x="10" y="-561.5" font-family="Helvetica,sans-Serif" font-size="10.00">+ BadCapsLocContexts</text>
<polyline fill="none" stroke="black" points="2,-554.5 196,-554.5 "/>
<text text-anchor="start" x="10" y="-542.5" font-family="Helvetica,sans-Serif" font-size="10.00">+ STATIC_SafeCaps()</text>
<text text-anchor="start" x="10" y="-531.5" font-family="Helvetica,sans-Serif" font-size="10.00">+ STATIC_GetOnlinePlayerInterfaceEx()</text>
<text text-anchor="start" x="10" y="-520.5" font-family="Helvetica,sans-Serif" font-size="10.00">+ STATIC_GetOnlinePlayerInterface()</text>
<text text-anchor="start" x="10" y="-509.5" font-family="Helvetica,sans-Serif" font-size="10.00">+ STATIC_GetOnlineGameInterface()</text>
<text text-anchor="start" x="10" y="-498.5" font-family="Helvetica,sans-Serif" font-size="10.00">+ STATIC_StaticResolveData</text>
<text text-anchor="start" x="10" y="-487.5" font-family="Helvetica,sans-Serif" font-size="10.00">Store()</text>
<text text-anchor="start" x="10" y="-476.5" font-family="Helvetica,sans-Serif" font-size="10.00">+ STATIC_GetSceneClient()</text>
<text text-anchor="start" x="10" y="-465.5" font-family="Helvetica,sans-Serif" font-size="10.00">+ STATIC_GetCurrentUIController()</text>
<text text-anchor="start" x="10" y="-454.5" font-family="Helvetica,sans-Serif" font-size="10.00">+ STATIC_GetInputPlatformType()</text>
<text text-anchor="start" x="10" y="-443.5" font-family="Helvetica,sans-Serif" font-size="10.00">+ StaticClass()</text>
</a>
</g>
</g>
<!-- Node4&#45;&gt;Node3 -->
<g id="edge3" class="edge">
<title>Node4&#45;&gt;Node3</title>
<path fill="none" stroke="midnightblue" d="M99,-425.84C99,-416.48 99,-407.54 99,-399.72"/>
<polygon fill="none" stroke="midnightblue" points="95.5,-426.13 99,-436.13 102.5,-426.13 95.5,-426.13"/>
</g>
<!-- Node5 -->
<g id="node5" class="node">
<title>Node5</title>
<g id="a_node5"><a xlink:href="../../d9/d45/classSDK_1_1UObject.html" target="_top" xlink:title=" ">
<polygon fill="white" stroke="black" points="0,-629.5 0,-983.5 198,-983.5 198,-629.5 0,-629.5"/>
<text text-anchor="middle" x="99" y="-971.5" font-family="Helvetica,sans-Serif" font-size="10.00">SDK::UObject</text>
<polyline fill="none" stroke="black" points="0,-964.5 198,-964.5 "/>
<text text-anchor="start" x="8" y="-952.5" font-family="Helvetica,sans-Serif" font-size="10.00">+ VfTableObject</text>
<text text-anchor="start" x="8" y="-941.5" font-family="Helvetica,sans-Serif" font-size="10.00">+ ObjectFlags</text>
<text text-anchor="start" x="8" y="-930.5" font-family="Helvetica,sans-Serif" font-size="10.00">+ StateFrame</text>
<text text-anchor="start" x="8" y="-919.5" font-family="Helvetica,sans-Serif" font-size="10.00">+ Linker</text>
<text text-anchor="start" x="8" y="-908.5" font-family="Helvetica,sans-Serif" font-size="10.00">+ LinkerIndex</text>
<text text-anchor="start" x="8" y="-897.5" font-family="Helvetica,sans-Serif" font-size="10.00">+ ObjectInternalInteger</text>
<text text-anchor="start" x="8" y="-886.5" font-family="Helvetica,sans-Serif" font-size="10.00">+ NetIndex</text>
<text text-anchor="start" x="8" y="-875.5" font-family="Helvetica,sans-Serif" font-size="10.00">+ Outer</text>
<text text-anchor="start" x="8" y="-864.5" font-family="Helvetica,sans-Serif" font-size="10.00">+ Name</text>
<text text-anchor="start" x="8" y="-853.5" font-family="Helvetica,sans-Serif" font-size="10.00">+ Class</text>
<text text-anchor="start" x="8" y="-842.5" font-family="Helvetica,sans-Serif" font-size="10.00">+ ObjectArchetype</text>
<text text-anchor="start" x="8" y="-831.5" font-family="Helvetica,sans-Serif" font-size="10.00">+ GObjects</text>
<polyline fill="none" stroke="black" points="0,-824.5 198,-824.5 "/>
<text text-anchor="start" x="8" y="-812.5" font-family="Helvetica,sans-Serif" font-size="10.00">+ UObject::GetName()</text>
<text text-anchor="start" x="8" y="-801.5" font-family="Helvetica,sans-Serif" font-size="10.00">+ GetFullName()</text>
<text text-anchor="start" x="8" y="-790.5" font-family="Helvetica,sans-Serif" font-size="10.00">+ IsA()</text>
<text text-anchor="start" x="8" y="-779.5" font-family="Helvetica,sans-Serif" font-size="10.00">+ ProcessEvent()</text>
<text text-anchor="start" x="8" y="-768.5" font-family="Helvetica,sans-Serif" font-size="10.00">+ STATIC_ProfNodeEvent()</text>
<text text-anchor="start" x="8" y="-757.5" font-family="Helvetica,sans-Serif" font-size="10.00">+ STATIC_ProfNodeSetDepthThreshold()</text>
<text text-anchor="start" x="8" y="-746.5" font-family="Helvetica,sans-Serif" font-size="10.00">+ STATIC_ProfNodeSetTimeThreshold</text>
<text text-anchor="start" x="8" y="-735.5" font-family="Helvetica,sans-Serif" font-size="10.00">Seconds()</text>
<text text-anchor="start" x="8" y="-724.5" font-family="Helvetica,sans-Serif" font-size="10.00">+ STATIC_ProfNodeStop()</text>
<text text-anchor="start" x="8" y="-713.5" font-family="Helvetica,sans-Serif" font-size="10.00">+ STATIC_ProfNodeStart()</text>
<text text-anchor="start" x="8" y="-702.5" font-family="Helvetica,sans-Serif" font-size="10.00">+ STATIC_GetStringFromGuid()</text>
<text text-anchor="start" x="8" y="-691.5" font-family="Helvetica,sans-Serif" font-size="10.00">and 298 more...</text>
<text text-anchor="start" x="8" y="-680.5" font-family="Helvetica,sans-Serif" font-size="10.00">+ GetGlobalObjects()</text>
<text text-anchor="start" x="8" y="-669.5" font-family="Helvetica,sans-Serif" font-size="10.00">+ FindObject()</text>
<text text-anchor="start" x="8" y="-658.5" font-family="Helvetica,sans-Serif" font-size="10.00">+ FindClass()</text>
<text text-anchor="start" x="8" y="-647.5" font-family="Helvetica,sans-Serif" font-size="10.00">+ GetObjectCasted()</text>
<text text-anchor="start" x="8" y="-636.5" font-family="Helvetica,sans-Serif" font-size="10.00">+ StaticClass()</text>
</a>
</g>
</g>
<!-- Node5&#45;&gt;Node4 -->
<g id="edge4" class="edge">
<title>Node5&#45;&gt;Node4</title>
<path fill="none" stroke="midnightblue" d="M99,-619.25C99,-610.08 99,-601.15 99,-592.63"/>
<polygon fill="none" stroke="midnightblue" points="95.5,-619.28 99,-629.28 102.5,-619.28 95.5,-619.28"/>
</g>
</g>
</svg>
