<?xml version="1.0" encoding="UTF-8" standalone="no"?>
<!DOCTYPE svg PUBLIC "-//W3C//DTD SVG 1.1//EN"
 "http://www.w3.org/Graphics/SVG/1.1/DTD/svg11.dtd">
<!-- Generated by graphviz version 2.41.20171026.1811 (20171026.1811)
 -->
<!-- Title: SDK::FRecentParty Pages: 1 -->
<!--zoomable 568 -->
<svg id="main" version="1.1" xmlns="http://www.w3.org/2000/svg" xmlns:xlink="http://www.w3.org/1999/xlink" xml:space="preserve" onload="init(evt)">
<style type="text/css"><![CDATA[
.edge:hover path { stroke: red; }
.edge:hover polygon { stroke: red; fill: red; }
]]></style>
<script type="text/javascript"><![CDATA[
var edges = document.getElementsByTagName('g');
if (edges && edges.length) {
  for (var i=0;i<edges.length;i++) {
    if (edges[i].id.substr(0,4)=='edge') {
      edges[i].setAttribute('class','edge');
    }
  }
}
]]></script>
        <defs>
                <circle id="rim" cx="0" cy="0" r="7"/>
                <circle id="rim2" cx="0" cy="0" r="3.5"/>
                <g id="zoomPlus">
                        <use xlink:href="#rim" fill="#404040">
                                <set attributeName="fill" to="#808080" begin="zoomplus.mouseover" end="zoomplus.mouseout"/>
                        </use>
                        <path d="M-4,0h8M0,-4v8" fill="none" stroke="white" stroke-width="1.5" pointer-events="none"/>
                </g>
                <g id="zoomMin">
                        <use xlink:href="#rim" fill="#404040">
                                <set attributeName="fill" to="#808080" begin="zoomminus.mouseover" end="zoomminus.mouseout"/>
                        </use>
                        <path d="M-4,0h8" fill="none" stroke="white" stroke-width="1.5" pointer-events="none"/>
                </g>
                <g id="dirArrow">
                        <path fill="none" stroke="white" stroke-width="1.5" d="M0,-3.0v7 M-2.5,-0.5L0,-3.0L2.5,-0.5"/>
                </g>
               <g id="resetDef">
                       <use xlink:href="#rim2" fill="#404040">
                               <set attributeName="fill" to="#808080" begin="reset.mouseover" end="reset.mouseout"/>
                       </use>
               </g>
        </defs>

<script type="text/javascript">
var viewWidth = 307;
var viewHeight = 568;
var sectionId = 'dynsection-0';
</script>
<script xlink:href="../../svgpan.js"/>
<svg id="graph" class="graph">
<g id="viewport">
<title>SDK::FRecentParty</title>
<polygon fill="white" stroke="transparent" points="-4,4 -4,-564 302.5,-564 302.5,4 -4,4"/>
<!-- Node1 -->
<g id="node1" class="node">
<title>Node1</title>
<g id="a_node1"><a xlink:title=" ">
<polygon fill="#bfbfbf" stroke="black" points="152.5,-0.5 152.5,-57.5 256.5,-57.5 256.5,-0.5 152.5,-0.5"/>
<text text-anchor="middle" x="204.5" y="-45.5" font-family="Helvetica,sans-Serif" font-size="10.00">SDK::FRecentParty</text>
<polyline fill="none" stroke="black" points="152.5,-38.5 256.5,-38.5 "/>
<text text-anchor="middle" x="204.5" y="-26.5" font-family="Helvetica,sans-Serif" font-size="10.00"> </text>
<polyline fill="none" stroke="black" points="152.5,-19.5 256.5,-19.5 "/>
<text text-anchor="middle" x="204.5" y="-7.5" font-family="Helvetica,sans-Serif" font-size="10.00"> </text>
</a>
</g>
</g>
<!-- Node2 -->
<g id="node2" class="node">
<title>Node2</title>
<g id="a_node2"><a xlink:href="../../d4/d7a/structSDK_1_1FUniqueNetId.html" target="_top" xlink:title=" ">
<polygon fill="white" stroke="black" points="177.5,-342.5 177.5,-399.5 281.5,-399.5 281.5,-342.5 177.5,-342.5"/>
<text text-anchor="middle" x="229.5" y="-387.5" font-family="Helvetica,sans-Serif" font-size="10.00">SDK::FUniqueNetId</text>
<polyline fill="none" stroke="black" points="177.5,-380.5 281.5,-380.5 "/>
<text text-anchor="middle" x="229.5" y="-368.5" font-family="Helvetica,sans-Serif" font-size="10.00"> </text>
<polyline fill="none" stroke="black" points="177.5,-361.5 281.5,-361.5 "/>
<text text-anchor="middle" x="229.5" y="-349.5" font-family="Helvetica,sans-Serif" font-size="10.00"> </text>
</a>
</g>
</g>
<!-- Node2&#45;&gt;Node1 -->
<g id="edge1" class="edge">
<title>Node2&#45;&gt;Node1</title>
<path fill="none" stroke="#404040" d="M230.54,-342.29C232.39,-291.62 236.18,-180.62 237.5,-87 237.57,-82.11 239,-80.65 237.5,-76 236.67,-73.42 235.63,-70.85 234.45,-68.34"/>
<polygon fill="none" stroke="#404040" points="234.34,-68.15 227.91,-64.88 228.44,-57.69 234.87,-60.95 234.34,-68.15"/>
<text text-anchor="middle" x="267.5" y="-175.5" font-family="Helvetica,sans-Serif" font-size="10.00"> +PartyLeader</text>
</g>
<!-- Node4 -->
<g id="node4" class="node">
<title>Node4</title>
<g id="a_node4"><a xlink:href="../../d3/d79/classSDK_1_1TArray.html" target="_top" xlink:title=" ">
<polygon fill="white" stroke="black" points="99.5,-105.5 99.5,-250.5 215.5,-250.5 215.5,-105.5 99.5,-105.5"/>
<text text-anchor="start" x="107.5" y="-238.5" font-family="Helvetica,sans-Serif" font-size="10.00">SDK::TArray&lt; struct</text>
<text text-anchor="middle" x="157.5" y="-227.5" font-family="Helvetica,sans-Serif" font-size="10.00"> SDK::FUniqueNetId &gt;</text>
<polyline fill="none" stroke="black" points="99.5,-220.5 215.5,-220.5 "/>
<text text-anchor="start" x="107.5" y="-208.5" font-family="Helvetica,sans-Serif" font-size="10.00">&#45; Count</text>
<text text-anchor="start" x="107.5" y="-197.5" font-family="Helvetica,sans-Serif" font-size="10.00">&#45; Max</text>
<polyline fill="none" stroke="black" points="99.5,-190.5 215.5,-190.5 "/>
<text text-anchor="start" x="107.5" y="-178.5" font-family="Helvetica,sans-Serif" font-size="10.00">+ TArray()</text>
<text text-anchor="start" x="107.5" y="-167.5" font-family="Helvetica,sans-Serif" font-size="10.00">+ Num()</text>
<text text-anchor="start" x="107.5" y="-156.5" font-family="Helvetica,sans-Serif" font-size="10.00">+ operator[]()</text>
<text text-anchor="start" x="107.5" y="-145.5" font-family="Helvetica,sans-Serif" font-size="10.00">+ operator[]()</text>
<text text-anchor="start" x="107.5" y="-134.5" font-family="Helvetica,sans-Serif" font-size="10.00">+ IsValidIndex()</text>
<text text-anchor="start" x="107.5" y="-123.5" font-family="Helvetica,sans-Serif" font-size="10.00">+ GetByIndex()</text>
<text text-anchor="start" x="107.5" y="-112.5" font-family="Helvetica,sans-Serif" font-size="10.00">+ GetByIndex()</text>
</a>
</g>
</g>
<!-- Node2&#45;&gt;Node4 -->
<g id="edge4" class="edge">
<title>Node2&#45;&gt;Node4</title>
<path fill="none" stroke="#404040" d="M219.03,-342.23C211.04,-321.04 199.6,-290.68 188.74,-261.88"/>
<polygon fill="none" stroke="#404040" points="188.69,-261.75 182.83,-257.55 184.46,-250.52 190.32,-254.72 188.69,-261.75"/>
<text text-anchor="middle" x="207.5" y="-272" font-family="Helvetica,sans-Serif" font-size="10.00"> &#45;Data</text>
</g>
<!-- Node3 -->
<g id="node3" class="node">
<title>Node3</title>
<g id="a_node3"><a xlink:href="../../d0/d22/structSDK_1_1FQWord.html" target="_top" xlink:title=" ">
<polygon fill="white" stroke="black" points="189.5,-491.5 189.5,-559.5 269.5,-559.5 269.5,-491.5 189.5,-491.5"/>
<text text-anchor="middle" x="229.5" y="-547.5" font-family="Helvetica,sans-Serif" font-size="10.00">SDK::FQWord</text>
<polyline fill="none" stroke="black" points="189.5,-540.5 269.5,-540.5 "/>
<text text-anchor="start" x="197.5" y="-528.5" font-family="Helvetica,sans-Serif" font-size="10.00">+ A</text>
<text text-anchor="start" x="197.5" y="-517.5" font-family="Helvetica,sans-Serif" font-size="10.00">+ B</text>
<polyline fill="none" stroke="black" points="189.5,-510.5 269.5,-510.5 "/>
<text text-anchor="middle" x="229.5" y="-498.5" font-family="Helvetica,sans-Serif" font-size="10.00"> </text>
</a>
</g>
</g>
<!-- Node3&#45;&gt;Node2 -->
<g id="edge2" class="edge">
<title>Node3&#45;&gt;Node2</title>
<path fill="none" stroke="#404040" d="M229.5,-491.41C229.5,-468.14 229.5,-436.86 229.5,-412.16"/>
<polygon fill="none" stroke="#404040" points="229.5,-411.92 225.5,-405.92 229.5,-399.92 233.5,-405.92 229.5,-411.92"/>
<text text-anchor="middle" x="242" y="-465" font-family="Helvetica,sans-Serif" font-size="10.00"> +Uid</text>
</g>
<!-- Node4&#45;&gt;Node1 -->
<g id="edge3" class="edge">
<title>Node4&#45;&gt;Node1</title>
<path fill="none" stroke="#404040" d="M156.71,-105.31C158.24,-95.22 160.7,-85.18 164.5,-76 165.67,-73.18 167.08,-70.4 168.67,-67.71"/>
<polygon fill="none" stroke="#404040" points="168.73,-67.63 168.83,-60.42 175.52,-57.74 175.42,-64.95 168.73,-67.63"/>
<text text-anchor="middle" x="201" y="-79" font-family="Helvetica,sans-Serif" font-size="10.00"> +PartyMembers</text>
</g>
<!-- Node5 -->
<g id="node5" class="node">
<title>Node5</title>
<g id="a_node5"><a xlink:href="../../d3/d79/classSDK_1_1TArray.html" target="_top" xlink:title=" ">
<polygon fill="white" stroke="black" points="0,-298.5 0,-443.5 97,-443.5 97,-298.5 0,-298.5"/>
<text text-anchor="middle" x="48.5" y="-431.5" font-family="Helvetica,sans-Serif" font-size="10.00">SDK::TArray&lt; T &gt;</text>
<polyline fill="none" stroke="black" points="0,-424.5 97,-424.5 "/>
<text text-anchor="start" x="8" y="-412.5" font-family="Helvetica,sans-Serif" font-size="10.00">&#45; Data</text>
<text text-anchor="start" x="8" y="-401.5" font-family="Helvetica,sans-Serif" font-size="10.00">&#45; Count</text>
<text text-anchor="start" x="8" y="-390.5" font-family="Helvetica,sans-Serif" font-size="10.00">&#45; Max</text>
<polyline fill="none" stroke="black" points="0,-383.5 97,-383.5 "/>
<text text-anchor="start" x="8" y="-371.5" font-family="Helvetica,sans-Serif" font-size="10.00">+ TArray()</text>
<text text-anchor="start" x="8" y="-360.5" font-family="Helvetica,sans-Serif" font-size="10.00">+ Num()</text>
<text text-anchor="start" x="8" y="-349.5" font-family="Helvetica,sans-Serif" font-size="10.00">+ operator[]()</text>
<text text-anchor="start" x="8" y="-338.5" font-family="Helvetica,sans-Serif" font-size="10.00">+ operator[]()</text>
<text text-anchor="start" x="8" y="-327.5" font-family="Helvetica,sans-Serif" font-size="10.00">+ IsValidIndex()</text>
<text text-anchor="start" x="8" y="-316.5" font-family="Helvetica,sans-Serif" font-size="10.00">+ GetByIndex()</text>
<text text-anchor="start" x="8" y="-305.5" font-family="Helvetica,sans-Serif" font-size="10.00">+ GetByIndex()</text>
</a>
</g>
</g>
<!-- Node5&#45;&gt;Node4 -->
<g id="edge5" class="edge">
<title>Node5&#45;&gt;Node4</title>
<path fill="none" stroke="orange" d="M45.86,-288.4C47.39,-281.66 49.55,-275.1 52.5,-269 62.91,-247.5 81.09,-229.11 99.43,-214.67"/>
<polygon fill="orange" stroke="orange" points="42.4,-287.91 44.05,-298.38 49.28,-289.16 42.4,-287.91"/>
<text text-anchor="middle" x="121" y="-272" font-family="Helvetica,sans-Serif" font-size="10.00"> &lt; struct SDK::FUniqueNetId &gt;</text>
</g>
</g>
</svg>
        <g id="navigator" transform="translate(0 0)" fill="#404254">
                <rect fill="#f2f5e9" fill-opacity="0.5" stroke="#606060" stroke-width=".5" x="0" y="0" width="60" height="60"/>
                <use id="zoomplus" xlink:href="#zoomPlus" x="17" y="9" onmousedown="handleZoom(evt,'in')"/>
                <use id="zoomminus" xlink:href="#zoomMin" x="42" y="9" onmousedown="handleZoom(evt,'out')"/>
                <use id="reset" xlink:href="#resetDef" x="30" y="36" onmousedown="handleReset()"/>
                <g id="arrowUp" xlink:href="#dirArrow" transform="translate(30 24)" onmousedown="handlePan(0,-1)">
                  <use xlink:href="#rim" fill="#404040">
                        <set attributeName="fill" to="#808080" begin="arrowUp.mouseover" end="arrowUp.mouseout"/>
                  </use>
                  <path fill="none" stroke="white" stroke-width="1.5" d="M0,-3.0v7 M-2.5,-0.5L0,-3.0L2.5,-0.5"/>
                </g>
                <g id="arrowRight" xlink:href="#dirArrow" transform="rotate(90) translate(36 -43)" onmousedown="handlePan(1,0)">
                  <use xlink:href="#rim" fill="#404040">
                        <set attributeName="fill" to="#808080" begin="arrowRight.mouseover" end="arrowRight.mouseout"/>
                  </use>
                  <path fill="none" stroke="white" stroke-width="1.5" d="M0,-3.0v7 M-2.5,-0.5L0,-3.0L2.5,-0.5"/>
                </g>
                <g id="arrowDown" xlink:href="#dirArrow" transform="rotate(180) translate(-30 -48)" onmousedown="handlePan(0,1)">
                  <use xlink:href="#rim" fill="#404040">
                        <set attributeName="fill" to="#808080" begin="arrowDown.mouseover" end="arrowDown.mouseout"/>
                  </use>
                  <path fill="none" stroke="white" stroke-width="1.5" d="M0,-3.0v7 M-2.5,-0.5L0,-3.0L2.5,-0.5"/>
                </g>
                <g id="arrowLeft" xlink:href="#dirArrow" transform="rotate(270) translate(-36 17)" onmousedown="handlePan(-1,0)">
                  <use xlink:href="#rim" fill="#404040">
                        <set attributeName="fill" to="#808080" begin="arrowLeft.mouseover" end="arrowLeft.mouseout"/>
                  </use>
                  <path fill="none" stroke="white" stroke-width="1.5" d="M0,-3.0v7 M-2.5,-0.5L0,-3.0L2.5,-0.5"/>
                </g>
        </g>
        <svg viewBox="0 0 15 15" width="100%" height="30px" preserveAspectRatio="xMaxYMin meet">
         <g id="arrow_out" transform="scale(0.3 0.3)">
          <a xlink:href="structSDK_1_1FRecentParty__coll__graph_org.svg" target="_base">
           <rect id="button" ry="5" rx="5" y="6" x="6" height="38" width="38"
                fill="#f2f5e9" fill-opacity="0.5" stroke="#606060" stroke-width="1.0"/>
           <path id="arrow"
             d="M 11.500037,31.436501 C 11.940474,20.09759 22.043105,11.32322 32.158766,21.979434 L 37.068811,17.246167 C 37.068811,17.246167 37.088388,32 37.088388,32 L 22.160133,31.978069 C 22.160133,31.978069 26.997745,27.140456 26.997745,27.140456 C 18.528582,18.264221 13.291696,25.230495 11.500037,31.436501 z"
             style="fill:#404040;"/>
          </a>
         </g>
        </svg>
</svg>
