<?xml version="1.0" encoding="UTF-8" standalone="no"?>
<!DOCTYPE svg PUBLIC "-//W3C//DTD SVG 1.1//EN"
 "http://www.w3.org/Graphics/SVG/1.1/DTD/svg11.dtd">
<!-- Generated by graphviz version 2.41.20171026.1811 (20171026.1811)
 -->
<!-- Title: SDK::UInterpTrackInstBoolProp Pages: 1 -->
<svg width="206pt" height="678pt"
 viewBox="0.00 0.00 206.00 678.00" xmlns="http://www.w3.org/2000/svg" xmlns:xlink="http://www.w3.org/1999/xlink">
<g id="graph0" class="graph" transform="scale(1 1) rotate(0) translate(4 674)">
<title>SDK::UInterpTrackInstBoolProp</title>
<polygon fill="white" stroke="transparent" points="-4,4 -4,-674 202,-674 202,4 -4,4"/>
<!-- Node1 -->
<g id="node1" class="node">
<title>Node1</title>
<g id="a_node1"><a xlink:title=" ">
<polygon fill="#bfbfbf" stroke="black" points="20.5,-0.5 20.5,-79.5 177.5,-79.5 177.5,-0.5 20.5,-0.5"/>
<text text-anchor="middle" x="99" y="-67.5" font-family="Helvetica,sans-Serif" font-size="10.00">SDK::UInterpTrackInstBoolProp</text>
<polyline fill="none" stroke="black" points="20.5,-60.5 177.5,-60.5 "/>
<text text-anchor="start" x="28.5" y="-48.5" font-family="Helvetica,sans-Serif" font-size="10.00">+ BoolProp</text>
<text text-anchor="start" x="28.5" y="-37.5" font-family="Helvetica,sans-Serif" font-size="10.00">+ BitMask</text>
<text text-anchor="start" x="28.5" y="-26.5" font-family="Helvetica,sans-Serif" font-size="10.00">+ ResetBool</text>
<polyline fill="none" stroke="black" points="20.5,-19.5 177.5,-19.5 "/>
<text text-anchor="start" x="28.5" y="-7.5" font-family="Helvetica,sans-Serif" font-size="10.00">+ StaticClass()</text>
</a>
</g>
</g>
<!-- Node2 -->
<g id="node2" class="node">
<title>Node2</title>
<g id="a_node2"><a xlink:href="../../d3/da9/classSDK_1_1UInterpTrackInstProperty.html" target="_top" xlink:title=" ">
<polygon fill="white" stroke="black" points="22,-116.5 22,-184.5 176,-184.5 176,-116.5 22,-116.5"/>
<text text-anchor="middle" x="99" y="-172.5" font-family="Helvetica,sans-Serif" font-size="10.00">SDK::UInterpTrackInstProperty</text>
<polyline fill="none" stroke="black" points="22,-165.5 176,-165.5 "/>
<text text-anchor="start" x="30" y="-153.5" font-family="Helvetica,sans-Serif" font-size="10.00">+ PropertyUpdateCallback</text>
<text text-anchor="start" x="30" y="-142.5" font-family="Helvetica,sans-Serif" font-size="10.00">+ PropertyOuterObjectInst</text>
<polyline fill="none" stroke="black" points="22,-135.5 176,-135.5 "/>
<text text-anchor="start" x="30" y="-123.5" font-family="Helvetica,sans-Serif" font-size="10.00">+ StaticClass()</text>
</a>
</g>
</g>
<!-- Node2&#45;&gt;Node1 -->
<g id="edge1" class="edge">
<title>Node2&#45;&gt;Node1</title>
<path fill="none" stroke="midnightblue" d="M99,-106.27C99,-97.48 99,-88.28 99,-79.65"/>
<polygon fill="none" stroke="midnightblue" points="95.5,-106.36 99,-116.36 102.5,-106.36 95.5,-106.36"/>
</g>
<!-- Node3 -->
<g id="node3" class="node">
<title>Node3</title>
<g id="a_node3"><a xlink:href="../../d8/d3d/classSDK_1_1UInterpTrackInst.html" target="_top" xlink:title=" ">
<polygon fill="white" stroke="black" points="40.5,-221.5 40.5,-278.5 157.5,-278.5 157.5,-221.5 40.5,-221.5"/>
<text text-anchor="middle" x="99" y="-266.5" font-family="Helvetica,sans-Serif" font-size="10.00">SDK::UInterpTrackInst</text>
<polyline fill="none" stroke="black" points="40.5,-259.5 157.5,-259.5 "/>
<text text-anchor="middle" x="99" y="-247.5" font-family="Helvetica,sans-Serif" font-size="10.00"> </text>
<polyline fill="none" stroke="black" points="40.5,-240.5 157.5,-240.5 "/>
<text text-anchor="start" x="48.5" y="-228.5" font-family="Helvetica,sans-Serif" font-size="10.00">+ StaticClass()</text>
</a>
</g>
</g>
<!-- Node3&#45;&gt;Node2 -->
<g id="edge2" class="edge">
<title>Node3&#45;&gt;Node2</title>
<path fill="none" stroke="midnightblue" d="M99,-211.06C99,-202.39 99,-193.24 99,-184.79"/>
<polygon fill="none" stroke="midnightblue" points="95.5,-211.32 99,-221.32 102.5,-211.32 95.5,-211.32"/>
</g>
<!-- Node4 -->
<g id="node4" class="node">
<title>Node4</title>
<g id="a_node4"><a xlink:href="../../d9/d45/classSDK_1_1UObject.html" target="_top" xlink:title=" ">
<polygon fill="white" stroke="black" points="0,-315.5 0,-669.5 198,-669.5 198,-315.5 0,-315.5"/>
<text text-anchor="middle" x="99" y="-657.5" font-family="Helvetica,sans-Serif" font-size="10.00">SDK::UObject</text>
<polyline fill="none" stroke="black" points="0,-650.5 198,-650.5 "/>
<text text-anchor="start" x="8" y="-638.5" font-family="Helvetica,sans-Serif" font-size="10.00">+ VfTableObject</text>
<text text-anchor="start" x="8" y="-627.5" font-family="Helvetica,sans-Serif" font-size="10.00">+ ObjectFlags</text>
<text text-anchor="start" x="8" y="-616.5" font-family="Helvetica,sans-Serif" font-size="10.00">+ StateFrame</text>
<text text-anchor="start" x="8" y="-605.5" font-family="Helvetica,sans-Serif" font-size="10.00">+ Linker</text>
<text text-anchor="start" x="8" y="-594.5" font-family="Helvetica,sans-Serif" font-size="10.00">+ LinkerIndex</text>
<text text-anchor="start" x="8" y="-583.5" font-family="Helvetica,sans-Serif" font-size="10.00">+ ObjectInternalInteger</text>
<text text-anchor="start" x="8" y="-572.5" font-family="Helvetica,sans-Serif" font-size="10.00">+ NetIndex</text>
<text text-anchor="start" x="8" y="-561.5" font-family="Helvetica,sans-Serif" font-size="10.00">+ Outer</text>
<text text-anchor="start" x="8" y="-550.5" font-family="Helvetica,sans-Serif" font-size="10.00">+ Name</text>
<text text-anchor="start" x="8" y="-539.5" font-family="Helvetica,sans-Serif" font-size="10.00">+ Class</text>
<text text-anchor="start" x="8" y="-528.5" font-family="Helvetica,sans-Serif" font-size="10.00">+ ObjectArchetype</text>
<text text-anchor="start" x="8" y="-517.5" font-family="Helvetica,sans-Serif" font-size="10.00">+ GObjects</text>
<polyline fill="none" stroke="black" points="0,-510.5 198,-510.5 "/>
<text text-anchor="start" x="8" y="-498.5" font-family="Helvetica,sans-Serif" font-size="10.00">+ UObject::GetName()</text>
<text text-anchor="start" x="8" y="-487.5" font-family="Helvetica,sans-Serif" font-size="10.00">+ GetFullName()</text>
<text text-anchor="start" x="8" y="-476.5" font-family="Helvetica,sans-Serif" font-size="10.00">+ IsA()</text>
<text text-anchor="start" x="8" y="-465.5" font-family="Helvetica,sans-Serif" font-size="10.00">+ ProcessEvent()</text>
<text text-anchor="start" x="8" y="-454.5" font-family="Helvetica,sans-Serif" font-size="10.00">+ STATIC_ProfNodeEvent()</text>
<text text-anchor="start" x="8" y="-443.5" font-family="Helvetica,sans-Serif" font-size="10.00">+ STATIC_ProfNodeSetDepthThreshold()</text>
<text text-anchor="start" x="8" y="-432.5" font-family="Helvetica,sans-Serif" font-size="10.00">+ STATIC_ProfNodeSetTimeThreshold</text>
<text text-anchor="start" x="8" y="-421.5" font-family="Helvetica,sans-Serif" font-size="10.00">Seconds()</text>
<text text-anchor="start" x="8" y="-410.5" font-family="Helvetica,sans-Serif" font-size="10.00">+ STATIC_ProfNodeStop()</text>
<text text-anchor="start" x="8" y="-399.5" font-family="Helvetica,sans-Serif" font-size="10.00">+ STATIC_ProfNodeStart()</text>
<text text-anchor="start" x="8" y="-388.5" font-family="Helvetica,sans-Serif" font-size="10.00">+ STATIC_GetStringFromGuid()</text>
<text text-anchor="start" x="8" y="-377.5" font-family="Helvetica,sans-Serif" font-size="10.00">and 298 more...</text>
<text text-anchor="start" x="8" y="-366.5" font-family="Helvetica,sans-Serif" font-size="10.00">+ GetGlobalObjects()</text>
<text text-anchor="start" x="8" y="-355.5" font-family="Helvetica,sans-Serif" font-size="10.00">+ FindObject()</text>
<text text-anchor="start" x="8" y="-344.5" font-family="Helvetica,sans-Serif" font-size="10.00">+ FindClass()</text>
<text text-anchor="start" x="8" y="-333.5" font-family="Helvetica,sans-Serif" font-size="10.00">+ GetObjectCasted()</text>
<text text-anchor="start" x="8" y="-322.5" font-family="Helvetica,sans-Serif" font-size="10.00">+ StaticClass()</text>
</a>
</g>
</g>
<!-- Node4&#45;&gt;Node3 -->
<g id="edge3" class="edge">
<title>Node4&#45;&gt;Node3</title>
<path fill="none" stroke="midnightblue" d="M99,-305.28C99,-295.39 99,-286.36 99,-278.62"/>
<polygon fill="none" stroke="midnightblue" points="95.5,-305.45 99,-315.45 102.5,-305.45 95.5,-305.45"/>
</g>
</g>
</svg>
