<?xml version="1.0" encoding="UTF-8" standalone="no"?>
<!DOCTYPE svg PUBLIC "-//W3C//DTD SVG 1.1//EN"
 "http://www.w3.org/Graphics/SVG/1.1/DTD/svg11.dtd">
<!-- Generated by graphviz version 2.41.20171026.1811 (20171026.1811)
 -->
<!-- Title: SDK::UForcedLoopSoundNode Pages: 1 -->
<!--zoomable 1430 -->
<svg id="main" version="1.1" xmlns="http://www.w3.org/2000/svg" xmlns:xlink="http://www.w3.org/1999/xlink" xml:space="preserve" onload="init(evt)">
<style type="text/css"><![CDATA[
.edge:hover path { stroke: red; }
.edge:hover polygon { stroke: red; fill: red; }
]]></style>
<script type="text/javascript"><![CDATA[
var edges = document.getElementsByTagName('g');
if (edges && edges.length) {
  for (var i=0;i<edges.length;i++) {
    if (edges[i].id.substr(0,4)=='edge') {
      edges[i].setAttribute('class','edge');
    }
  }
}
]]></script>
        <defs>
                <circle id="rim" cx="0" cy="0" r="7"/>
                <circle id="rim2" cx="0" cy="0" r="3.5"/>
                <g id="zoomPlus">
                        <use xlink:href="#rim" fill="#404040">
                                <set attributeName="fill" to="#808080" begin="zoomplus.mouseover" end="zoomplus.mouseout"/>
                        </use>
                        <path d="M-4,0h8M0,-4v8" fill="none" stroke="white" stroke-width="1.5" pointer-events="none"/>
                </g>
                <g id="zoomMin">
                        <use xlink:href="#rim" fill="#404040">
                                <set attributeName="fill" to="#808080" begin="zoomminus.mouseover" end="zoomminus.mouseout"/>
                        </use>
                        <path d="M-4,0h8" fill="none" stroke="white" stroke-width="1.5" pointer-events="none"/>
                </g>
                <g id="dirArrow">
                        <path fill="none" stroke="white" stroke-width="1.5" d="M0,-3.0v7 M-2.5,-0.5L0,-3.0L2.5,-0.5"/>
                </g>
               <g id="resetDef">
                       <use xlink:href="#rim2" fill="#404040">
                               <set attributeName="fill" to="#808080" begin="reset.mouseover" end="reset.mouseout"/>
                       </use>
               </g>
        </defs>

<script type="text/javascript">
var viewWidth = 791;
var viewHeight = 1430;
var sectionId = 'dynsection-1';
</script>
<script xlink:href="../../svgpan.js"/>
<svg id="graph" class="graph">
<g id="viewport">
<title>SDK::UForcedLoopSoundNode</title>
<polygon fill="white" stroke="transparent" points="-4,4 -4,-1426 787,-1426 787,4 -4,4"/>
<!-- Node1 -->
<g id="node1" class="node">
<title>Node1</title>
<g id="a_node1"><a xlink:title=" ">
<polygon fill="#bfbfbf" stroke="black" points="387.5,-267.5 387.5,-324.5 540.5,-324.5 540.5,-267.5 387.5,-267.5"/>
<text text-anchor="middle" x="464" y="-312.5" font-family="Helvetica,sans-Serif" font-size="10.00">SDK::UForcedLoopSoundNode</text>
<polyline fill="none" stroke="black" points="387.5,-305.5 540.5,-305.5 "/>
<text text-anchor="middle" x="464" y="-293.5" font-family="Helvetica,sans-Serif" font-size="10.00"> </text>
<polyline fill="none" stroke="black" points="387.5,-286.5 540.5,-286.5 "/>
<text text-anchor="start" x="395.5" y="-274.5" font-family="Helvetica,sans-Serif" font-size="10.00">+ StaticClass()</text>
</a>
</g>
</g>
<!-- Node2 -->
<g id="node2" class="node">
<title>Node2</title>
<g id="a_node2"><a xlink:href="../../dd/d78/classSDK_1_1USoundNode.html" target="_top" xlink:title=" ">
<polygon fill="white" stroke="black" points="489,-466 489,-523 591,-523 591,-466 489,-466"/>
<text text-anchor="middle" x="540" y="-511" font-family="Helvetica,sans-Serif" font-size="10.00">SDK::USoundNode</text>
<polyline fill="none" stroke="black" points="489,-504 591,-504 "/>
<text text-anchor="start" x="497" y="-492" font-family="Helvetica,sans-Serif" font-size="10.00">+ NodeUpdateHint</text>
<polyline fill="none" stroke="black" points="489,-485 591,-485 "/>
<text text-anchor="start" x="497" y="-473" font-family="Helvetica,sans-Serif" font-size="10.00">+ StaticClass()</text>
</a>
</g>
</g>
<!-- Node2&#45;&gt;Node1 -->
<g id="edge1" class="edge">
<title>Node2&#45;&gt;Node1</title>
<path fill="none" stroke="midnightblue" d="M517.7,-457.06C509.44,-442.48 500.52,-425.31 494,-409 482.87,-381.15 474.53,-347.78 469.51,-324.74"/>
<polygon fill="none" stroke="midnightblue" points="514.69,-458.85 522.73,-465.76 520.76,-455.35 514.69,-458.85"/>
</g>
<!-- Node15 -->
<g id="node15" class="node">
<title>Node15</title>
<g id="a_node15"><a xlink:href="../../d3/d79/classSDK_1_1TArray.html" target="_top" xlink:title=" ">
<polygon fill="white" stroke="black" points="558.5,-223.5 558.5,-368.5 679.5,-368.5 679.5,-223.5 558.5,-223.5"/>
<text text-anchor="start" x="566.5" y="-356.5" font-family="Helvetica,sans-Serif" font-size="10.00">SDK::TArray&lt; class</text>
<text text-anchor="middle" x="619" y="-345.5" font-family="Helvetica,sans-Serif" font-size="10.00"> SDK::USoundNode * &gt;</text>
<polyline fill="none" stroke="black" points="558.5,-338.5 679.5,-338.5 "/>
<text text-anchor="start" x="566.5" y="-326.5" font-family="Helvetica,sans-Serif" font-size="10.00">&#45; Count</text>
<text text-anchor="start" x="566.5" y="-315.5" font-family="Helvetica,sans-Serif" font-size="10.00">&#45; Max</text>
<polyline fill="none" stroke="black" points="558.5,-308.5 679.5,-308.5 "/>
<text text-anchor="start" x="566.5" y="-296.5" font-family="Helvetica,sans-Serif" font-size="10.00">+ TArray()</text>
<text text-anchor="start" x="566.5" y="-285.5" font-family="Helvetica,sans-Serif" font-size="10.00">+ Num()</text>
<text text-anchor="start" x="566.5" y="-274.5" font-family="Helvetica,sans-Serif" font-size="10.00">+ operator[]()</text>
<text text-anchor="start" x="566.5" y="-263.5" font-family="Helvetica,sans-Serif" font-size="10.00">+ operator[]()</text>
<text text-anchor="start" x="566.5" y="-252.5" font-family="Helvetica,sans-Serif" font-size="10.00">+ IsValidIndex()</text>
<text text-anchor="start" x="566.5" y="-241.5" font-family="Helvetica,sans-Serif" font-size="10.00">+ GetByIndex()</text>
<text text-anchor="start" x="566.5" y="-230.5" font-family="Helvetica,sans-Serif" font-size="10.00">+ GetByIndex()</text>
</a>
</g>
</g>
<!-- Node2&#45;&gt;Node15 -->
<g id="edge22" class="edge">
<title>Node2&#45;&gt;Node15</title>
<path fill="none" stroke="#404040" d="M553,-465.93C560.59,-449.52 570.17,-428.22 578,-409 581.79,-399.7 585.61,-389.9 589.33,-380.12"/>
<polygon fill="none" stroke="#404040" points="589.4,-379.92 587.77,-372.9 593.62,-368.69 595.26,-375.72 589.4,-379.92"/>
<text text-anchor="middle" x="600" y="-395.5" font-family="Helvetica,sans-Serif" font-size="10.00"> &#45;Data</text>
</g>
<!-- Node3 -->
<g id="node3" class="node">
<title>Node3</title>
<g id="a_node3"><a xlink:href="../../d9/d45/classSDK_1_1UObject.html" target="_top" xlink:title=" ">
<polygon fill="white" stroke="black" points="129,-609.5 129,-853.5 327,-853.5 327,-609.5 129,-609.5"/>
<text text-anchor="middle" x="228" y="-841.5" font-family="Helvetica,sans-Serif" font-size="10.00">SDK::UObject</text>
<polyline fill="none" stroke="black" points="129,-834.5 327,-834.5 "/>
<text text-anchor="start" x="137" y="-822.5" font-family="Helvetica,sans-Serif" font-size="10.00">+ ObjectInternalInteger</text>
<text text-anchor="start" x="137" y="-811.5" font-family="Helvetica,sans-Serif" font-size="10.00">+ NetIndex</text>
<polyline fill="none" stroke="black" points="129,-804.5 327,-804.5 "/>
<text text-anchor="start" x="137" y="-792.5" font-family="Helvetica,sans-Serif" font-size="10.00">+ UObject::GetName()</text>
<text text-anchor="start" x="137" y="-781.5" font-family="Helvetica,sans-Serif" font-size="10.00">+ GetFullName()</text>
<text text-anchor="start" x="137" y="-770.5" font-family="Helvetica,sans-Serif" font-size="10.00">+ IsA()</text>
<text text-anchor="start" x="137" y="-759.5" font-family="Helvetica,sans-Serif" font-size="10.00">+ ProcessEvent()</text>
<text text-anchor="start" x="137" y="-748.5" font-family="Helvetica,sans-Serif" font-size="10.00">+ STATIC_ProfNodeEvent()</text>
<text text-anchor="start" x="137" y="-737.5" font-family="Helvetica,sans-Serif" font-size="10.00">+ STATIC_ProfNodeSetDepthThreshold()</text>
<text text-anchor="start" x="137" y="-726.5" font-family="Helvetica,sans-Serif" font-size="10.00">+ STATIC_ProfNodeSetTimeThreshold</text>
<text text-anchor="start" x="137" y="-715.5" font-family="Helvetica,sans-Serif" font-size="10.00">Seconds()</text>
<text text-anchor="start" x="137" y="-704.5" font-family="Helvetica,sans-Serif" font-size="10.00">+ STATIC_ProfNodeStop()</text>
<text text-anchor="start" x="137" y="-693.5" font-family="Helvetica,sans-Serif" font-size="10.00">+ STATIC_ProfNodeStart()</text>
<text text-anchor="start" x="137" y="-682.5" font-family="Helvetica,sans-Serif" font-size="10.00">+ STATIC_GetStringFromGuid()</text>
<text text-anchor="start" x="137" y="-671.5" font-family="Helvetica,sans-Serif" font-size="10.00">and 298 more...</text>
<text text-anchor="start" x="137" y="-660.5" font-family="Helvetica,sans-Serif" font-size="10.00">+ GetGlobalObjects()</text>
<text text-anchor="start" x="137" y="-649.5" font-family="Helvetica,sans-Serif" font-size="10.00">+ FindObject()</text>
<text text-anchor="start" x="137" y="-638.5" font-family="Helvetica,sans-Serif" font-size="10.00">+ FindClass()</text>
<text text-anchor="start" x="137" y="-627.5" font-family="Helvetica,sans-Serif" font-size="10.00">+ GetObjectCasted()</text>
<text text-anchor="start" x="137" y="-616.5" font-family="Helvetica,sans-Serif" font-size="10.00">+ StaticClass()</text>
</a>
</g>
</g>
<!-- Node3&#45;&gt;Node2 -->
<g id="edge2" class="edge">
<title>Node3&#45;&gt;Node2</title>
<path fill="none" stroke="midnightblue" d="M335.73,-666.79C382.03,-637.34 435.59,-600.41 480,-562 493.53,-550.3 507.01,-535.69 517.75,-523.15"/>
<polygon fill="none" stroke="midnightblue" points="333.76,-663.89 327.18,-672.2 337.5,-669.81 333.76,-663.89"/>
</g>
<!-- Node3&#45;&gt;Node3 -->
<g id="edge8" class="edge">
<title>Node3&#45;&gt;Node3</title>
<path fill="none" stroke="#404040" d="M327.01,-754.53C337.94,-750.15 345,-742.48 345,-731.5 345,-724.64 342.24,-719.07 337.51,-714.78"/>
<polygon fill="none" stroke="#404040" points="337.3,-714.66 330.09,-714.99 327.01,-708.47 334.22,-708.14 337.3,-714.66"/>
<text text-anchor="middle" x="384.5" y="-740" font-family="Helvetica,sans-Serif" font-size="10.00"> +Outer</text>
<text text-anchor="middle" x="384.5" y="-729" font-family="Helvetica,sans-Serif" font-size="10.00">+Linker</text>
<text text-anchor="middle" x="384.5" y="-718" font-family="Helvetica,sans-Serif" font-size="10.00">+ObjectArchetype</text>
</g>
<!-- Node9 -->
<g id="node9" class="node">
<title>Node9</title>
<g id="a_node9"><a xlink:href="../../d3/d79/classSDK_1_1TArray.html" target="_top" xlink:title=" ">
<polygon fill="white" stroke="black" points="309.5,-427.5 309.5,-561.5 470.5,-561.5 470.5,-427.5 309.5,-427.5"/>
<text text-anchor="middle" x="390" y="-549.5" font-family="Helvetica,sans-Serif" font-size="10.00">SDK::TArray&lt; SDK::UObject * &gt;</text>
<polyline fill="none" stroke="black" points="309.5,-542.5 470.5,-542.5 "/>
<text text-anchor="start" x="317.5" y="-530.5" font-family="Helvetica,sans-Serif" font-size="10.00">&#45; Count</text>
<text text-anchor="start" x="317.5" y="-519.5" font-family="Helvetica,sans-Serif" font-size="10.00">&#45; Max</text>
<polyline fill="none" stroke="black" points="309.5,-512.5 470.5,-512.5 "/>
<text text-anchor="start" x="317.5" y="-500.5" font-family="Helvetica,sans-Serif" font-size="10.00">+ TArray()</text>
<text text-anchor="start" x="317.5" y="-489.5" font-family="Helvetica,sans-Serif" font-size="10.00">+ Num()</text>
<text text-anchor="start" x="317.5" y="-478.5" font-family="Helvetica,sans-Serif" font-size="10.00">+ operator[]()</text>
<text text-anchor="start" x="317.5" y="-467.5" font-family="Helvetica,sans-Serif" font-size="10.00">+ operator[]()</text>
<text text-anchor="start" x="317.5" y="-456.5" font-family="Helvetica,sans-Serif" font-size="10.00">+ IsValidIndex()</text>
<text text-anchor="start" x="317.5" y="-445.5" font-family="Helvetica,sans-Serif" font-size="10.00">+ GetByIndex()</text>
<text text-anchor="start" x="317.5" y="-434.5" font-family="Helvetica,sans-Serif" font-size="10.00">+ GetByIndex()</text>
</a>
</g>
</g>
<!-- Node3&#45;&gt;Node9 -->
<g id="edge10" class="edge">
<title>Node3&#45;&gt;Node9</title>
<path fill="none" stroke="#404040" d="M278.2,-609.31C284.02,-599.08 290.3,-589.16 297,-580 299.21,-576.97 301.55,-573.97 303.98,-571"/>
<polygon fill="none" stroke="#404040" points="304.2,-570.75 305.1,-563.59 312.05,-561.66 311.15,-568.82 304.2,-570.75"/>
<text text-anchor="middle" x="311" y="-583" font-family="Helvetica,sans-Serif" font-size="10.00"> &#45;Data</text>
</g>
<!-- Node11 -->
<g id="node11" class="node">
<title>Node11</title>
<g id="a_node11"><a xlink:href="../../d7/d85/classSDK_1_1UClass.html" target="_top" xlink:title=" ">
<polygon fill="white" stroke="black" points="70.5,-0.5 70.5,-90.5 191.5,-90.5 191.5,-0.5 70.5,-0.5"/>
<text text-anchor="middle" x="131" y="-78.5" font-family="Helvetica,sans-Serif" font-size="10.00">SDK::UClass</text>
<polyline fill="none" stroke="black" points="70.5,-71.5 191.5,-71.5 "/>
<text text-anchor="start" x="78.5" y="-59.5" font-family="Helvetica,sans-Serif" font-size="10.00">+ UnknownData00</text>
<text text-anchor="start" x="78.5" y="-48.5" font-family="Helvetica,sans-Serif" font-size="10.00">+ UnknownData01</text>
<polyline fill="none" stroke="black" points="70.5,-41.5 191.5,-41.5 "/>
<text text-anchor="start" x="78.5" y="-29.5" font-family="Helvetica,sans-Serif" font-size="10.00">+ CreateDefaultObject()</text>
<text text-anchor="start" x="78.5" y="-18.5" font-family="Helvetica,sans-Serif" font-size="10.00">+ CreateDefaultObject()</text>
<text text-anchor="start" x="78.5" y="-7.5" font-family="Helvetica,sans-Serif" font-size="10.00">+ StaticClass()</text>
</a>
</g>
</g>
<!-- Node3&#45;&gt;Node11 -->
<g id="edge20" class="edge">
<title>Node3&#45;&gt;Node11</title>
<path fill="none" stroke="#404040" d="M128.99,-677.84C67.46,-637.23 0,-574.66 0,-495.5 0,-495.5 0,-495.5 0,-156 0,-120.34 28.94,-94.01 59.61,-76.12"/>
<polygon fill="none" stroke="#404040" points="59.97,-75.92 63.3,-69.53 70.48,-70.14 67.15,-76.54 59.97,-75.92"/>
<text text-anchor="middle" x="47.5" y="-293.5" font-family="Helvetica,sans-Serif" font-size="10.00"> +ClassDefaultObject</text>
</g>
<!-- Node14 -->
<g id="node14" class="node">
<title>Node14</title>
<g id="a_node14"><a xlink:href="../../de/dd6/classSDK_1_1UField.html" target="_top" xlink:title=" ">
<polygon fill="white" stroke="black" points="159.5,-466 159.5,-523 242.5,-523 242.5,-466 159.5,-466"/>
<text text-anchor="middle" x="201" y="-511" font-family="Helvetica,sans-Serif" font-size="10.00">SDK::UField</text>
<polyline fill="none" stroke="black" points="159.5,-504 242.5,-504 "/>
<text text-anchor="middle" x="201" y="-492" font-family="Helvetica,sans-Serif" font-size="10.00"> </text>
<polyline fill="none" stroke="black" points="159.5,-485 242.5,-485 "/>
<text text-anchor="start" x="167.5" y="-473" font-family="Helvetica,sans-Serif" font-size="10.00">+ StaticClass()</text>
</a>
</g>
</g>
<!-- Node3&#45;&gt;Node14 -->
<g id="edge17" class="edge">
<title>Node3&#45;&gt;Node14</title>
<path fill="none" stroke="midnightblue" d="M212.89,-599.01C209.59,-570.27 206.42,-542.66 204.18,-523.19"/>
<polygon fill="none" stroke="midnightblue" points="209.45,-599.68 214.07,-609.21 216.4,-598.88 209.45,-599.68"/>
</g>
<!-- Node4 -->
<g id="node4" class="node">
<title>Node4</title>
<g id="a_node4"><a xlink:href="../../d0/d22/structSDK_1_1FQWord.html" target="_top" xlink:title=" ">
<polygon fill="white" stroke="black" points="81,-951 81,-1019 161,-1019 161,-951 81,-951"/>
<text text-anchor="middle" x="121" y="-1007" font-family="Helvetica,sans-Serif" font-size="10.00">SDK::FQWord</text>
<polyline fill="none" stroke="black" points="81,-1000 161,-1000 "/>
<text text-anchor="start" x="89" y="-988" font-family="Helvetica,sans-Serif" font-size="10.00">+ A</text>
<text text-anchor="start" x="89" y="-977" font-family="Helvetica,sans-Serif" font-size="10.00">+ B</text>
<polyline fill="none" stroke="black" points="81,-970 161,-970 "/>
<text text-anchor="middle" x="121" y="-958" font-family="Helvetica,sans-Serif" font-size="10.00"> </text>
</a>
</g>
</g>
<!-- Node4&#45;&gt;Node3 -->
<g id="edge3" class="edge">
<title>Node4&#45;&gt;Node3</title>
<path fill="none" stroke="#404040" d="M132.24,-950.86C140.07,-928.4 151.05,-898.17 162,-872 162.99,-869.63 164,-867.25 165.02,-864.85"/>
<polygon fill="none" stroke="#404040" points="165.15,-864.57 163.86,-857.47 169.92,-853.56 171.2,-860.65 165.15,-864.57"/>
<text text-anchor="middle" x="193" y="-886" font-family="Helvetica,sans-Serif" font-size="10.00"> +ObjectFlags</text>
</g>
<!-- Node5 -->
<g id="node5" class="node">
<title>Node5</title>
<g id="a_node5"><a xlink:href="../../d0/db6/structSDK_1_1FName.html" target="_top" xlink:title=" ">
<polygon fill="white" stroke="black" points="294.5,-923.5 294.5,-1046.5 401.5,-1046.5 401.5,-923.5 294.5,-923.5"/>
<text text-anchor="middle" x="348" y="-1034.5" font-family="Helvetica,sans-Serif" font-size="10.00">SDK::FName</text>
<polyline fill="none" stroke="black" points="294.5,-1027.5 401.5,-1027.5 "/>
<text text-anchor="start" x="302.5" y="-1015.5" font-family="Helvetica,sans-Serif" font-size="10.00">+ Index</text>
<text text-anchor="start" x="302.5" y="-1004.5" font-family="Helvetica,sans-Serif" font-size="10.00">+ Number</text>
<polyline fill="none" stroke="black" points="294.5,-997.5 401.5,-997.5 "/>
<text text-anchor="start" x="302.5" y="-985.5" font-family="Helvetica,sans-Serif" font-size="10.00">+ FName()</text>
<text text-anchor="start" x="302.5" y="-974.5" font-family="Helvetica,sans-Serif" font-size="10.00">+ FName()</text>
<text text-anchor="start" x="302.5" y="-963.5" font-family="Helvetica,sans-Serif" font-size="10.00">+ FName()</text>
<text text-anchor="start" x="302.5" y="-952.5" font-family="Helvetica,sans-Serif" font-size="10.00">+ GetName()</text>
<text text-anchor="start" x="302.5" y="-941.5" font-family="Helvetica,sans-Serif" font-size="10.00">+ operator==()</text>
<text text-anchor="start" x="302.5" y="-930.5" font-family="Helvetica,sans-Serif" font-size="10.00">+ GetGlobalNames()</text>
</a>
</g>
</g>
<!-- Node5&#45;&gt;Node3 -->
<g id="edge4" class="edge">
<title>Node5&#45;&gt;Node3</title>
<path fill="none" stroke="#404040" d="M323.68,-923.43C316.65,-906.64 308.76,-888.51 301,-872 299.84,-869.54 298.66,-867.06 297.47,-864.56"/>
<polygon fill="none" stroke="#404040" points="297.36,-864.34 291.15,-860.69 292.13,-853.55 298.34,-857.2 297.36,-864.34"/>
<text text-anchor="middle" x="333" y="-886" font-family="Helvetica,sans-Serif" font-size="10.00"> +Name</text>
</g>
<!-- Node6 -->
<g id="node6" class="node">
<title>Node6</title>
<g id="a_node6"><a xlink:href="../../d3/d79/classSDK_1_1TArray.html" target="_top" xlink:title=" ">
<polygon fill="white" stroke="black" points="258,-1094.5 258,-1228.5 438,-1228.5 438,-1094.5 258,-1094.5"/>
<text text-anchor="middle" x="348" y="-1216.5" font-family="Helvetica,sans-Serif" font-size="10.00">SDK::TArray&lt; SDK::FNameEntry * &gt;</text>
<polyline fill="none" stroke="black" points="258,-1209.5 438,-1209.5 "/>
<text text-anchor="start" x="266" y="-1197.5" font-family="Helvetica,sans-Serif" font-size="10.00">&#45; Count</text>
<text text-anchor="start" x="266" y="-1186.5" font-family="Helvetica,sans-Serif" font-size="10.00">&#45; Max</text>
<polyline fill="none" stroke="black" points="258,-1179.5 438,-1179.5 "/>
<text text-anchor="start" x="266" y="-1167.5" font-family="Helvetica,sans-Serif" font-size="10.00">+ TArray()</text>
<text text-anchor="start" x="266" y="-1156.5" font-family="Helvetica,sans-Serif" font-size="10.00">+ Num()</text>
<text text-anchor="start" x="266" y="-1145.5" font-family="Helvetica,sans-Serif" font-size="10.00">+ operator[]()</text>
<text text-anchor="start" x="266" y="-1134.5" font-family="Helvetica,sans-Serif" font-size="10.00">+ operator[]()</text>
<text text-anchor="start" x="266" y="-1123.5" font-family="Helvetica,sans-Serif" font-size="10.00">+ IsValidIndex()</text>
<text text-anchor="start" x="266" y="-1112.5" font-family="Helvetica,sans-Serif" font-size="10.00">+ GetByIndex()</text>
<text text-anchor="start" x="266" y="-1101.5" font-family="Helvetica,sans-Serif" font-size="10.00">+ GetByIndex()</text>
</a>
</g>
</g>
<!-- Node6&#45;&gt;Node5 -->
<g id="edge5" class="edge">
<title>Node6&#45;&gt;Node5</title>
<path fill="none" stroke="#404040" d="M348,-1094.03C348,-1082.45 348,-1070.35 348,-1058.62"/>
<polygon fill="none" stroke="#404040" points="348,-1058.56 344,-1052.56 348,-1046.56 352,-1052.56 348,-1058.56"/>
<text text-anchor="middle" x="372.5" y="-1068" font-family="Helvetica,sans-Serif" font-size="10.00"> +GNames</text>
</g>
<!-- Node7 -->
<g id="node7" class="node">
<title>Node7</title>
<g id="a_node7"><a xlink:href="../../d7/ddf/classSDK_1_1FNameEntry.html" target="_top" xlink:title=" ">
<polygon fill="white" stroke="black" points="273.5,-1315 273.5,-1383 372.5,-1383 372.5,-1315 273.5,-1315"/>
<text text-anchor="middle" x="323" y="-1371" font-family="Helvetica,sans-Serif" font-size="10.00">SDK::FNameEntry</text>
<polyline fill="none" stroke="black" points="273.5,-1364 372.5,-1364 "/>
<text text-anchor="start" x="281.5" y="-1352" font-family="Helvetica,sans-Serif" font-size="10.00">+ UnknownData00</text>
<text text-anchor="start" x="281.5" y="-1341" font-family="Helvetica,sans-Serif" font-size="10.00">+ name</text>
<polyline fill="none" stroke="black" points="273.5,-1334 372.5,-1334 "/>
<text text-anchor="start" x="281.5" y="-1322" font-family="Helvetica,sans-Serif" font-size="10.00">+ GetName()</text>
</a>
</g>
</g>
<!-- Node7&#45;&gt;Node6 -->
<g id="edge6" class="edge">
<title>Node7&#45;&gt;Node6</title>
<path fill="none" stroke="#404040" d="M321.11,-1314.62C320.54,-1294.86 320.77,-1269.39 324,-1247 324.31,-1244.83 324.67,-1242.64 325.06,-1240.43"/>
<polygon fill="none" stroke="#404040" points="325.08,-1240.33 322.33,-1233.66 327.44,-1228.56 330.18,-1235.23 325.08,-1240.33"/>
<text text-anchor="middle" x="338" y="-1250" font-family="Helvetica,sans-Serif" font-size="10.00"> &#45;Data</text>
</g>
<!-- Node8 -->
<g id="node8" class="node">
<title>Node8</title>
<g id="a_node8"><a xlink:href="../../d3/d79/classSDK_1_1TArray.html" target="_top" xlink:title=" ">
<polygon fill="white" stroke="black" points="451.5,-1276.5 451.5,-1421.5 548.5,-1421.5 548.5,-1276.5 451.5,-1276.5"/>
<text text-anchor="middle" x="500" y="-1409.5" font-family="Helvetica,sans-Serif" font-size="10.00">SDK::TArray&lt; T &gt;</text>
<polyline fill="none" stroke="black" points="451.5,-1402.5 548.5,-1402.5 "/>
<text text-anchor="start" x="459.5" y="-1390.5" font-family="Helvetica,sans-Serif" font-size="10.00">&#45; Data</text>
<text text-anchor="start" x="459.5" y="-1379.5" font-family="Helvetica,sans-Serif" font-size="10.00">&#45; Count</text>
<text text-anchor="start" x="459.5" y="-1368.5" font-family="Helvetica,sans-Serif" font-size="10.00">&#45; Max</text>
<polyline fill="none" stroke="black" points="451.5,-1361.5 548.5,-1361.5 "/>
<text text-anchor="start" x="459.5" y="-1349.5" font-family="Helvetica,sans-Serif" font-size="10.00">+ TArray()</text>
<text text-anchor="start" x="459.5" y="-1338.5" font-family="Helvetica,sans-Serif" font-size="10.00">+ Num()</text>
<text text-anchor="start" x="459.5" y="-1327.5" font-family="Helvetica,sans-Serif" font-size="10.00">+ operator[]()</text>
<text text-anchor="start" x="459.5" y="-1316.5" font-family="Helvetica,sans-Serif" font-size="10.00">+ operator[]()</text>
<text text-anchor="start" x="459.5" y="-1305.5" font-family="Helvetica,sans-Serif" font-size="10.00">+ IsValidIndex()</text>
<text text-anchor="start" x="459.5" y="-1294.5" font-family="Helvetica,sans-Serif" font-size="10.00">+ GetByIndex()</text>
<text text-anchor="start" x="459.5" y="-1283.5" font-family="Helvetica,sans-Serif" font-size="10.00">+ GetByIndex()</text>
</a>
</g>
</g>
<!-- Node8&#45;&gt;Node6 -->
<g id="edge7" class="edge">
<title>Node8&#45;&gt;Node6</title>
<path fill="none" stroke="orange" d="M442.58,-1318.16C418.57,-1303.06 392.29,-1282.67 375,-1258 368.87,-1249.25 364.13,-1239.14 360.46,-1228.84"/>
<polygon fill="orange" stroke="orange" points="440.94,-1321.26 451.3,-1323.48 444.59,-1315.28 440.94,-1321.26"/>
<text text-anchor="middle" x="430.5" y="-1250" font-family="Helvetica,sans-Serif" font-size="10.00"> &lt; SDK::FNameEntry * &gt;</text>
</g>
<!-- Node8&#45;&gt;Node9 -->
<g id="edge11" class="edge">
<title>Node8&#45;&gt;Node9</title>
<path fill="none" stroke="orange" d="M500,-1265.93C500,-1233.68 500,-1196.35 500,-1162.5 500,-1162.5 500,-1162.5 500,-730.5 500,-669.24 468.96,-606.74 439.85,-561.61"/>
<polygon fill="orange" stroke="orange" points="496.5,-1266.21 500,-1276.21 503.5,-1266.21 496.5,-1266.21"/>
<text text-anchor="middle" x="545.5" y="-982.5" font-family="Helvetica,sans-Serif" font-size="10.00"> &lt; SDK::UObject * &gt;</text>
</g>
<!-- Node8&#45;&gt;Node15 -->
<g id="edge23" class="edge">
<title>Node8&#45;&gt;Node15</title>
<path fill="none" stroke="orange" d="M556.7,-1307.42C596.63,-1273.7 643,-1221.78 643,-1162.5 643,-1162.5 643,-1162.5 643,-493.5 643,-451.91 637.64,-405.74 631.98,-368.61"/>
<polygon fill="orange" stroke="orange" points="554.3,-1304.85 548.81,-1313.92 558.76,-1310.26 554.3,-1304.85"/>
<text text-anchor="middle" x="713" y="-886" font-family="Helvetica,sans-Serif" font-size="10.00"> &lt; class SDK::USoundNode * &gt;</text>
</g>
<!-- Node9&#45;&gt;Node3 -->
<g id="edge9" class="edge">
<title>Node9&#45;&gt;Node3</title>
<path fill="none" stroke="#404040" d="M344.41,-561.63C336.22,-573.51 327.43,-586.27 318.48,-599.25"/>
<polygon fill="none" stroke="#404040" points="318.42,-599.33 318.31,-606.54 311.61,-609.21 311.72,-602 318.42,-599.33"/>
<text text-anchor="middle" x="354.5" y="-583" font-family="Helvetica,sans-Serif" font-size="10.00"> +GObjects</text>
</g>
<!-- Node10 -->
<g id="node10" class="node">
<title>Node10</title>
<g id="a_node10"><a xlink:href="../../d9/dfa/structSDK_1_1FPointer.html" target="_top" xlink:title=" ">
<polygon fill="white" stroke="black" points="179,-951 179,-1019 277,-1019 277,-951 179,-951"/>
<text text-anchor="middle" x="228" y="-1007" font-family="Helvetica,sans-Serif" font-size="10.00">SDK::FPointer</text>
<polyline fill="none" stroke="black" points="179,-1000 277,-1000 "/>
<text text-anchor="start" x="187" y="-988" font-family="Helvetica,sans-Serif" font-size="10.00">+ Dummy</text>
<text text-anchor="start" x="187" y="-977" font-family="Helvetica,sans-Serif" font-size="10.00">+ UnknownData00</text>
<polyline fill="none" stroke="black" points="179,-970 277,-970 "/>
<text text-anchor="middle" x="228" y="-958" font-family="Helvetica,sans-Serif" font-size="10.00"> </text>
</a>
</g>
</g>
<!-- Node10&#45;&gt;Node3 -->
<g id="edge12" class="edge">
<title>Node10&#45;&gt;Node3</title>
<path fill="none" stroke="#404040" d="M228,-950.86C228,-928.57 228,-897.56 228,-865.9"/>
<polygon fill="none" stroke="#404040" points="228,-865.75 224,-859.75 228,-853.75 232,-859.75 228,-865.75"/>
<text text-anchor="middle" x="262.5" y="-897" font-family="Helvetica,sans-Serif" font-size="10.00"> +StateFrame</text>
<text text-anchor="middle" x="262.5" y="-886" font-family="Helvetica,sans-Serif" font-size="10.00">+VfTableObject</text>
<text text-anchor="middle" x="262.5" y="-875" font-family="Helvetica,sans-Serif" font-size="10.00">+LinkerIndex</text>
</g>
<!-- Node11&#45;&gt;Node3 -->
<g id="edge13" class="edge">
<title>Node11&#45;&gt;Node3</title>
<path fill="none" stroke="#404040" d="M131,-90.72C131,-110.67 131,-134.52 131,-156 131,-495.5 131,-495.5 131,-495.5 131,-530.05 140.07,-565.44 152.66,-597.92"/>
<polygon fill="none" stroke="#404040" points="152.75,-598.16 158.71,-602.23 157.25,-609.29 151.29,-605.22 152.75,-598.16"/>
<text text-anchor="middle" x="148.5" y="-293.5" font-family="Helvetica,sans-Serif" font-size="10.00"> +Class</text>
</g>
<!-- Node12 -->
<g id="node12" class="node">
<title>Node12</title>
<g id="a_node12"><a xlink:href="../../df/d72/classSDK_1_1UState.html" target="_top" xlink:title=" ">
<polygon fill="white" stroke="black" points="171,-128.5 171,-185.5 269,-185.5 269,-128.5 171,-128.5"/>
<text text-anchor="middle" x="220" y="-173.5" font-family="Helvetica,sans-Serif" font-size="10.00">SDK::UState</text>
<polyline fill="none" stroke="black" points="171,-166.5 269,-166.5 "/>
<text text-anchor="start" x="179" y="-154.5" font-family="Helvetica,sans-Serif" font-size="10.00">+ UnknownData00</text>
<polyline fill="none" stroke="black" points="171,-147.5 269,-147.5 "/>
<text text-anchor="start" x="179" y="-135.5" font-family="Helvetica,sans-Serif" font-size="10.00">+ StaticClass()</text>
</a>
</g>
</g>
<!-- Node12&#45;&gt;Node11 -->
<g id="edge14" class="edge">
<title>Node12&#45;&gt;Node11</title>
<path fill="none" stroke="midnightblue" d="M191.01,-120.33C183.33,-110.89 174.95,-100.58 166.96,-90.74"/>
<polygon fill="none" stroke="midnightblue" points="188.52,-122.82 197.54,-128.37 193.95,-118.4 188.52,-122.82"/>
</g>
<!-- Node13 -->
<g id="node13" class="node">
<title>Node13</title>
<g id="a_node13"><a xlink:href="../../d8/de9/classSDK_1_1UStruct.html" target="_top" xlink:title=" ">
<polygon fill="white" stroke="black" points="184,-256.5 184,-335.5 282,-335.5 282,-256.5 184,-256.5"/>
<text text-anchor="middle" x="233" y="-323.5" font-family="Helvetica,sans-Serif" font-size="10.00">SDK::UStruct</text>
<polyline fill="none" stroke="black" points="184,-316.5 282,-316.5 "/>
<text text-anchor="start" x="192" y="-304.5" font-family="Helvetica,sans-Serif" font-size="10.00">+ UnknownData00</text>
<text text-anchor="start" x="192" y="-293.5" font-family="Helvetica,sans-Serif" font-size="10.00">+ PropertySize</text>
<text text-anchor="start" x="192" y="-282.5" font-family="Helvetica,sans-Serif" font-size="10.00">+ UnknownData01</text>
<polyline fill="none" stroke="black" points="184,-275.5 282,-275.5 "/>
<text text-anchor="start" x="192" y="-263.5" font-family="Helvetica,sans-Serif" font-size="10.00">+ StaticClass()</text>
</a>
</g>
</g>
<!-- Node13&#45;&gt;Node12 -->
<g id="edge15" class="edge">
<title>Node13&#45;&gt;Node12</title>
<path fill="none" stroke="midnightblue" d="M228.39,-246.43C226.46,-226.11 224.29,-203.22 222.64,-185.82"/>
<polygon fill="none" stroke="midnightblue" points="224.92,-246.85 229.34,-256.47 231.88,-246.19 224.92,-246.85"/>
</g>
<!-- Node14&#45;&gt;Node13 -->
<g id="edge16" class="edge">
<title>Node14&#45;&gt;Node13</title>
<path fill="none" stroke="midnightblue" d="M204.81,-455.67C207.07,-435.27 210.23,-409.69 214,-387 216.8,-370.14 220.58,-351.66 224.03,-335.84"/>
<polygon fill="none" stroke="midnightblue" points="201.31,-455.5 203.71,-465.82 208.27,-456.26 201.31,-455.5"/>
</g>
<!-- Node14&#45;&gt;Node13 -->
<g id="edge19" class="edge">
<title>Node14&#45;&gt;Node13</title>
<path fill="none" stroke="#404040" d="M205.52,-465.76C210.49,-435.25 218.58,-385.57 224.7,-347.99"/>
<polygon fill="none" stroke="#404040" points="224.76,-347.6 221.78,-341.04 226.69,-335.76 229.67,-342.32 224.76,-347.6"/>
<text text-anchor="middle" x="246" y="-401" font-family="Helvetica,sans-Serif" font-size="10.00"> +SuperField</text>
<text text-anchor="middle" x="246" y="-390" font-family="Helvetica,sans-Serif" font-size="10.00">+Children</text>
</g>
<!-- Node14&#45;&gt;Node14 -->
<g id="edge18" class="edge">
<title>Node14&#45;&gt;Node14</title>
<path fill="none" stroke="#404040" d="M242.71,-511.11C252.91,-509.88 260.5,-504.34 260.5,-494.5 260.5,-488.96 258.1,-484.79 254.18,-481.98"/>
<polygon fill="none" stroke="#404040" points="254.01,-481.92 247.01,-483.67 242.71,-477.89 249.7,-476.13 254.01,-481.92"/>
<text text-anchor="middle" x="276" y="-492" font-family="Helvetica,sans-Serif" font-size="10.00"> +Next</text>
</g>
<!-- Node15&#45;&gt;Node2 -->
<g id="edge21" class="edge">
<title>Node15&#45;&gt;Node2</title>
<path fill="none" stroke="#404040" d="M558.21,-362.39C555.49,-364.68 552.75,-366.9 550,-369 536.73,-379.15 525.53,-372.63 517,-387 504.86,-407.45 510.19,-433.5 518.76,-454.71"/>
<polygon fill="none" stroke="#404040" points="518.88,-454.98 524.97,-458.83 523.76,-465.94 517.67,-462.09 518.88,-454.98"/>
<text text-anchor="middle" x="547.5" y="-395.5" font-family="Helvetica,sans-Serif" font-size="10.00"> +ChildNodes</text>
</g>
</g>
</svg>
        <g id="navigator" transform="translate(0 0)" fill="#404254">
                <rect fill="#f2f5e9" fill-opacity="0.5" stroke="#606060" stroke-width=".5" x="0" y="0" width="60" height="60"/>
                <use id="zoomplus" xlink:href="#zoomPlus" x="17" y="9" onmousedown="handleZoom(evt,'in')"/>
                <use id="zoomminus" xlink:href="#zoomMin" x="42" y="9" onmousedown="handleZoom(evt,'out')"/>
                <use id="reset" xlink:href="#resetDef" x="30" y="36" onmousedown="handleReset()"/>
                <g id="arrowUp" xlink:href="#dirArrow" transform="translate(30 24)" onmousedown="handlePan(0,-1)">
                  <use xlink:href="#rim" fill="#404040">
                        <set attributeName="fill" to="#808080" begin="arrowUp.mouseover" end="arrowUp.mouseout"/>
                  </use>
                  <path fill="none" stroke="white" stroke-width="1.5" d="M0,-3.0v7 M-2.5,-0.5L0,-3.0L2.5,-0.5"/>
                </g>
                <g id="arrowRight" xlink:href="#dirArrow" transform="rotate(90) translate(36 -43)" onmousedown="handlePan(1,0)">
                  <use xlink:href="#rim" fill="#404040">
                        <set attributeName="fill" to="#808080" begin="arrowRight.mouseover" end="arrowRight.mouseout"/>
                  </use>
                  <path fill="none" stroke="white" stroke-width="1.5" d="M0,-3.0v7 M-2.5,-0.5L0,-3.0L2.5,-0.5"/>
                </g>
                <g id="arrowDown" xlink:href="#dirArrow" transform="rotate(180) translate(-30 -48)" onmousedown="handlePan(0,1)">
                  <use xlink:href="#rim" fill="#404040">
                        <set attributeName="fill" to="#808080" begin="arrowDown.mouseover" end="arrowDown.mouseout"/>
                  </use>
                  <path fill="none" stroke="white" stroke-width="1.5" d="M0,-3.0v7 M-2.5,-0.5L0,-3.0L2.5,-0.5"/>
                </g>
                <g id="arrowLeft" xlink:href="#dirArrow" transform="rotate(270) translate(-36 17)" onmousedown="handlePan(-1,0)">
                  <use xlink:href="#rim" fill="#404040">
                        <set attributeName="fill" to="#808080" begin="arrowLeft.mouseover" end="arrowLeft.mouseout"/>
                  </use>
                  <path fill="none" stroke="white" stroke-width="1.5" d="M0,-3.0v7 M-2.5,-0.5L0,-3.0L2.5,-0.5"/>
                </g>
        </g>
        <svg viewBox="0 0 15 15" width="100%" height="30px" preserveAspectRatio="xMaxYMin meet">
         <g id="arrow_out" transform="scale(0.3 0.3)">
          <a xlink:href="classSDK_1_1UForcedLoopSoundNode__coll__graph_org.svg" target="_base">
           <rect id="button" ry="5" rx="5" y="6" x="6" height="38" width="38"
                fill="#f2f5e9" fill-opacity="0.5" stroke="#606060" stroke-width="1.0"/>
           <path id="arrow"
             d="M 11.500037,31.436501 C 11.940474,20.09759 22.043105,11.32322 32.158766,21.979434 L 37.068811,17.246167 C 37.068811,17.246167 37.088388,32 37.088388,32 L 22.160133,31.978069 C 22.160133,31.978069 26.997745,27.140456 26.997745,27.140456 C 18.528582,18.264221 13.291696,25.230495 11.500037,31.436501 z"
             style="fill:#404040;"/>
          </a>
         </g>
        </svg>
</svg>
