<?xml version="1.0" encoding="UTF-8" standalone="no"?>
<!DOCTYPE svg PUBLIC "-//W3C//DTD SVG 1.1//EN"
 "http://www.w3.org/Graphics/SVG/1.1/DTD/svg11.dtd">
<!-- Generated by graphviz version 2.41.20171026.1811 (20171026.1811)
 -->
<!-- Title: SDK::UFunction Pages: 1 -->
<!--zoomable 1003 -->
<svg id="main" version="1.1" xmlns="http://www.w3.org/2000/svg" xmlns:xlink="http://www.w3.org/1999/xlink" xml:space="preserve" onload="init(evt)">
<style type="text/css"><![CDATA[
.edge:hover path { stroke: red; }
.edge:hover polygon { stroke: red; fill: red; }
]]></style>
<script type="text/javascript"><![CDATA[
var edges = document.getElementsByTagName('g');
if (edges && edges.length) {
  for (var i=0;i<edges.length;i++) {
    if (edges[i].id.substr(0,4)=='edge') {
      edges[i].setAttribute('class','edge');
    }
  }
}
]]></script>
        <defs>
                <circle id="rim" cx="0" cy="0" r="7"/>
                <circle id="rim2" cx="0" cy="0" r="3.5"/>
                <g id="zoomPlus">
                        <use xlink:href="#rim" fill="#404040">
                                <set attributeName="fill" to="#808080" begin="zoomplus.mouseover" end="zoomplus.mouseout"/>
                        </use>
                        <path d="M-4,0h8M0,-4v8" fill="none" stroke="white" stroke-width="1.5" pointer-events="none"/>
                </g>
                <g id="zoomMin">
                        <use xlink:href="#rim" fill="#404040">
                                <set attributeName="fill" to="#808080" begin="zoomminus.mouseover" end="zoomminus.mouseout"/>
                        </use>
                        <path d="M-4,0h8" fill="none" stroke="white" stroke-width="1.5" pointer-events="none"/>
                </g>
                <g id="dirArrow">
                        <path fill="none" stroke="white" stroke-width="1.5" d="M0,-3.0v7 M-2.5,-0.5L0,-3.0L2.5,-0.5"/>
                </g>
               <g id="resetDef">
                       <use xlink:href="#rim2" fill="#404040">
                               <set attributeName="fill" to="#808080" begin="reset.mouseover" end="reset.mouseout"/>
                       </use>
               </g>
        </defs>

<script type="text/javascript">
var viewWidth = 771;
var viewHeight = 1003;
var sectionId = 'dynsection-1';
</script>
<script xlink:href="../../svgpan.js"/>
<svg id="graph" class="graph">
<g id="viewport">
<title>SDK::UFunction</title>
<polygon fill="white" stroke="transparent" points="-4,4 -4,-999 767,-999 767,4 -4,4"/>
<!-- Node1 -->
<g id="node1" class="node">
<title>Node1</title>
<g id="a_node1"><a xlink:title=" ">
<polygon fill="#bfbfbf" stroke="black" points="142.5,-237.5 142.5,-371.5 249.5,-371.5 249.5,-237.5 142.5,-237.5"/>
<text text-anchor="middle" x="196" y="-359.5" font-family="Helvetica,sans-Serif" font-size="10.00">SDK::UFunction</text>
<polyline fill="none" stroke="black" points="142.5,-352.5 249.5,-352.5 "/>
<text text-anchor="start" x="150.5" y="-340.5" font-family="Helvetica,sans-Serif" font-size="10.00">+ FunctionFlags</text>
<text text-anchor="start" x="150.5" y="-329.5" font-family="Helvetica,sans-Serif" font-size="10.00">+ UnknownData00</text>
<text text-anchor="start" x="150.5" y="-318.5" font-family="Helvetica,sans-Serif" font-size="10.00">+ iNative</text>
<text text-anchor="start" x="150.5" y="-307.5" font-family="Helvetica,sans-Serif" font-size="10.00">+ RepOffset</text>
<text text-anchor="start" x="150.5" y="-296.5" font-family="Helvetica,sans-Serif" font-size="10.00">+ NumParms</text>
<text text-anchor="start" x="150.5" y="-285.5" font-family="Helvetica,sans-Serif" font-size="10.00">+ ParmsSize</text>
<text text-anchor="start" x="150.5" y="-274.5" font-family="Helvetica,sans-Serif" font-size="10.00">+ ReturnValueOffset</text>
<text text-anchor="start" x="150.5" y="-263.5" font-family="Helvetica,sans-Serif" font-size="10.00">+ UnknownData01</text>
<polyline fill="none" stroke="black" points="142.5,-256.5 249.5,-256.5 "/>
<text text-anchor="start" x="150.5" y="-244.5" font-family="Helvetica,sans-Serif" font-size="10.00">+ StaticClass()</text>
</a>
</g>
</g>
<!-- Node2 -->
<g id="node2" class="node">
<title>Node2</title>
<g id="a_node2"><a xlink:href="../../d8/de9/classSDK_1_1UStruct.html" target="_top" xlink:title=" ">
<polygon fill="white" stroke="black" points="39,-882.5 39,-961.5 137,-961.5 137,-882.5 39,-882.5"/>
<text text-anchor="middle" x="88" y="-949.5" font-family="Helvetica,sans-Serif" font-size="10.00">SDK::UStruct</text>
<polyline fill="none" stroke="black" points="39,-942.5 137,-942.5 "/>
<text text-anchor="start" x="47" y="-930.5" font-family="Helvetica,sans-Serif" font-size="10.00">+ UnknownData00</text>
<text text-anchor="start" x="47" y="-919.5" font-family="Helvetica,sans-Serif" font-size="10.00">+ PropertySize</text>
<text text-anchor="start" x="47" y="-908.5" font-family="Helvetica,sans-Serif" font-size="10.00">+ UnknownData01</text>
<polyline fill="none" stroke="black" points="39,-901.5 137,-901.5 "/>
<text text-anchor="start" x="47" y="-889.5" font-family="Helvetica,sans-Serif" font-size="10.00">+ StaticClass()</text>
</a>
</g>
</g>
<!-- Node2&#45;&gt;Node1 -->
<g id="edge1" class="edge">
<title>Node2&#45;&gt;Node1</title>
<path fill="none" stroke="midnightblue" d="M91.53,-872.25C98.46,-785.5 116.28,-598.94 151,-445 156.49,-420.67 164.37,-394.53 172,-371.52"/>
<polygon fill="none" stroke="midnightblue" points="88.03,-872.09 90.74,-882.33 95.01,-872.64 88.03,-872.09"/>
</g>
<!-- Node13 -->
<g id="node13" class="node">
<title>Node13</title>
<g id="a_node13"><a xlink:href="../../df/d72/classSDK_1_1UState.html" target="_top" xlink:title=" ">
<polygon fill="white" stroke="black" points="164,-706 164,-763 262,-763 262,-706 164,-706"/>
<text text-anchor="middle" x="213" y="-751" font-family="Helvetica,sans-Serif" font-size="10.00">SDK::UState</text>
<polyline fill="none" stroke="black" points="164,-744 262,-744 "/>
<text text-anchor="start" x="172" y="-732" font-family="Helvetica,sans-Serif" font-size="10.00">+ UnknownData00</text>
<polyline fill="none" stroke="black" points="164,-725 262,-725 "/>
<text text-anchor="start" x="172" y="-713" font-family="Helvetica,sans-Serif" font-size="10.00">+ StaticClass()</text>
</a>
</g>
</g>
<!-- Node2&#45;&gt;Node13 -->
<g id="edge16" class="edge">
<title>Node2&#45;&gt;Node13</title>
<path fill="none" stroke="midnightblue" d="M120.01,-873.49C143.56,-838.56 174.74,-792.28 194.34,-763.19"/>
<polygon fill="none" stroke="midnightblue" points="116.89,-871.86 114.2,-882.11 122.69,-875.78 116.89,-871.86"/>
</g>
<!-- Node3 -->
<g id="node3" class="node">
<title>Node3</title>
<g id="a_node3"><a xlink:href="../../de/dd6/classSDK_1_1UField.html" target="_top" xlink:title=" ">
<polygon fill="white" stroke="black" points="4.5,-39 4.5,-96 87.5,-96 87.5,-39 4.5,-39"/>
<text text-anchor="middle" x="46" y="-84" font-family="Helvetica,sans-Serif" font-size="10.00">SDK::UField</text>
<polyline fill="none" stroke="black" points="4.5,-77 87.5,-77 "/>
<text text-anchor="middle" x="46" y="-65" font-family="Helvetica,sans-Serif" font-size="10.00"> </text>
<polyline fill="none" stroke="black" points="4.5,-58 87.5,-58 "/>
<text text-anchor="start" x="12.5" y="-46" font-family="Helvetica,sans-Serif" font-size="10.00">+ StaticClass()</text>
</a>
</g>
</g>
<!-- Node3&#45;&gt;Node2 -->
<g id="edge2" class="edge">
<title>Node3&#45;&gt;Node2</title>
<path fill="none" stroke="midnightblue" d="M34.06,-105.83C20.43,-151.82 0,-232.58 0,-303.5 0,-735.5 0,-735.5 0,-735.5 0,-790.39 31.85,-846.37 57.22,-882.26"/>
<polygon fill="none" stroke="midnightblue" points="37.48,-106.6 37.02,-96.01 30.78,-104.57 37.48,-106.6"/>
</g>
<!-- Node3&#45;&gt;Node2 -->
<g id="edge19" class="edge">
<title>Node3&#45;&gt;Node2</title>
<path fill="none" stroke="#404040" d="M46,-96.35C46,-140.35 46,-228.63 46,-303.5 46,-735.5 46,-735.5 46,-735.5 46,-782.28 58.86,-834.09 70.35,-871.04"/>
<polygon fill="none" stroke="#404040" points="70.36,-871.06 76,-875.56 74.01,-882.49 68.38,-877.99 70.36,-871.06"/>
<text text-anchor="middle" x="74" y="-561" font-family="Helvetica,sans-Serif" font-size="10.00"> +SuperField</text>
<text text-anchor="middle" x="74" y="-550" font-family="Helvetica,sans-Serif" font-size="10.00">+Children</text>
</g>
<!-- Node3&#45;&gt;Node3 -->
<g id="edge18" class="edge">
<title>Node3&#45;&gt;Node3</title>
<path fill="none" stroke="#404040" d="M87.71,-84.11C97.91,-82.88 105.5,-77.34 105.5,-67.5 105.5,-61.96 103.1,-57.79 99.18,-54.98"/>
<polygon fill="none" stroke="#404040" points="99.01,-54.92 92.01,-56.67 87.71,-50.89 94.7,-49.13 99.01,-54.92"/>
<text text-anchor="middle" x="121" y="-65" font-family="Helvetica,sans-Serif" font-size="10.00"> +Next</text>
</g>
<!-- Node4 -->
<g id="node4" class="node">
<title>Node4</title>
<g id="a_node4"><a xlink:href="../../d9/d45/classSDK_1_1UObject.html" target="_top" xlink:title=" ">
<polygon fill="white" stroke="black" points="333,-182.5 333,-426.5 531,-426.5 531,-182.5 333,-182.5"/>
<text text-anchor="middle" x="432" y="-414.5" font-family="Helvetica,sans-Serif" font-size="10.00">SDK::UObject</text>
<polyline fill="none" stroke="black" points="333,-407.5 531,-407.5 "/>
<text text-anchor="start" x="341" y="-395.5" font-family="Helvetica,sans-Serif" font-size="10.00">+ ObjectInternalInteger</text>
<text text-anchor="start" x="341" y="-384.5" font-family="Helvetica,sans-Serif" font-size="10.00">+ NetIndex</text>
<polyline fill="none" stroke="black" points="333,-377.5 531,-377.5 "/>
<text text-anchor="start" x="341" y="-365.5" font-family="Helvetica,sans-Serif" font-size="10.00">+ UObject::GetName()</text>
<text text-anchor="start" x="341" y="-354.5" font-family="Helvetica,sans-Serif" font-size="10.00">+ GetFullName()</text>
<text text-anchor="start" x="341" y="-343.5" font-family="Helvetica,sans-Serif" font-size="10.00">+ IsA()</text>
<text text-anchor="start" x="341" y="-332.5" font-family="Helvetica,sans-Serif" font-size="10.00">+ ProcessEvent()</text>
<text text-anchor="start" x="341" y="-321.5" font-family="Helvetica,sans-Serif" font-size="10.00">+ STATIC_ProfNodeEvent()</text>
<text text-anchor="start" x="341" y="-310.5" font-family="Helvetica,sans-Serif" font-size="10.00">+ STATIC_ProfNodeSetDepthThreshold()</text>
<text text-anchor="start" x="341" y="-299.5" font-family="Helvetica,sans-Serif" font-size="10.00">+ STATIC_ProfNodeSetTimeThreshold</text>
<text text-anchor="start" x="341" y="-288.5" font-family="Helvetica,sans-Serif" font-size="10.00">Seconds()</text>
<text text-anchor="start" x="341" y="-277.5" font-family="Helvetica,sans-Serif" font-size="10.00">+ STATIC_ProfNodeStop()</text>
<text text-anchor="start" x="341" y="-266.5" font-family="Helvetica,sans-Serif" font-size="10.00">+ STATIC_ProfNodeStart()</text>
<text text-anchor="start" x="341" y="-255.5" font-family="Helvetica,sans-Serif" font-size="10.00">+ STATIC_GetStringFromGuid()</text>
<text text-anchor="start" x="341" y="-244.5" font-family="Helvetica,sans-Serif" font-size="10.00">and 298 more...</text>
<text text-anchor="start" x="341" y="-233.5" font-family="Helvetica,sans-Serif" font-size="10.00">+ GetGlobalObjects()</text>
<text text-anchor="start" x="341" y="-222.5" font-family="Helvetica,sans-Serif" font-size="10.00">+ FindObject()</text>
<text text-anchor="start" x="341" y="-211.5" font-family="Helvetica,sans-Serif" font-size="10.00">+ FindClass()</text>
<text text-anchor="start" x="341" y="-200.5" font-family="Helvetica,sans-Serif" font-size="10.00">+ GetObjectCasted()</text>
<text text-anchor="start" x="341" y="-189.5" font-family="Helvetica,sans-Serif" font-size="10.00">+ StaticClass()</text>
</a>
</g>
</g>
<!-- Node4&#45;&gt;Node3 -->
<g id="edge3" class="edge">
<title>Node4&#45;&gt;Node3</title>
<path fill="none" stroke="midnightblue" d="M324.36,-225.4C302.69,-210.52 279.86,-195.42 258,-182 200.54,-146.73 131.21,-110.79 87.85,-89.06"/>
<polygon fill="none" stroke="midnightblue" points="322.38,-228.29 332.6,-231.09 326.36,-222.53 322.38,-228.29"/>
</g>
<!-- Node4&#45;&gt;Node4 -->
<g id="edge9" class="edge">
<title>Node4&#45;&gt;Node4</title>
<path fill="none" stroke="#404040" d="M531.01,-327.53C541.94,-323.15 549,-315.48 549,-304.5 549,-297.64 546.24,-292.07 541.51,-287.78"/>
<polygon fill="none" stroke="#404040" points="541.3,-287.66 534.09,-287.99 531.01,-281.47 538.22,-281.14 541.3,-287.66"/>
<text text-anchor="middle" x="588.5" y="-313" font-family="Helvetica,sans-Serif" font-size="10.00"> +Outer</text>
<text text-anchor="middle" x="588.5" y="-302" font-family="Helvetica,sans-Serif" font-size="10.00">+Linker</text>
<text text-anchor="middle" x="588.5" y="-291" font-family="Helvetica,sans-Serif" font-size="10.00">+ObjectArchetype</text>
</g>
<!-- Node10 -->
<g id="node10" class="node">
<title>Node10</title>
<g id="a_node10"><a xlink:href="../../d3/d79/classSDK_1_1TArray.html" target="_top" xlink:title=" ">
<polygon fill="white" stroke="black" points="425.5,-0.5 425.5,-134.5 586.5,-134.5 586.5,-0.5 425.5,-0.5"/>
<text text-anchor="middle" x="506" y="-122.5" font-family="Helvetica,sans-Serif" font-size="10.00">SDK::TArray&lt; SDK::UObject * &gt;</text>
<polyline fill="none" stroke="black" points="425.5,-115.5 586.5,-115.5 "/>
<text text-anchor="start" x="433.5" y="-103.5" font-family="Helvetica,sans-Serif" font-size="10.00">&#45; Count</text>
<text text-anchor="start" x="433.5" y="-92.5" font-family="Helvetica,sans-Serif" font-size="10.00">&#45; Max</text>
<polyline fill="none" stroke="black" points="425.5,-85.5 586.5,-85.5 "/>
<text text-anchor="start" x="433.5" y="-73.5" font-family="Helvetica,sans-Serif" font-size="10.00">+ TArray()</text>
<text text-anchor="start" x="433.5" y="-62.5" font-family="Helvetica,sans-Serif" font-size="10.00">+ Num()</text>
<text text-anchor="start" x="433.5" y="-51.5" font-family="Helvetica,sans-Serif" font-size="10.00">+ operator[]()</text>
<text text-anchor="start" x="433.5" y="-40.5" font-family="Helvetica,sans-Serif" font-size="10.00">+ operator[]()</text>
<text text-anchor="start" x="433.5" y="-29.5" font-family="Helvetica,sans-Serif" font-size="10.00">+ IsValidIndex()</text>
<text text-anchor="start" x="433.5" y="-18.5" font-family="Helvetica,sans-Serif" font-size="10.00">+ GetByIndex()</text>
<text text-anchor="start" x="433.5" y="-7.5" font-family="Helvetica,sans-Serif" font-size="10.00">+ GetByIndex()</text>
</a>
</g>
</g>
<!-- Node4&#45;&gt;Node10 -->
<g id="edge11" class="edge">
<title>Node4&#45;&gt;Node10</title>
<path fill="none" stroke="#404040" d="M478.2,-182.47C480.23,-176.25 482.18,-170.07 484,-164 485.73,-158.24 487.4,-152.25 489,-146.2"/>
<polygon fill="none" stroke="#404040" points="489,-146.18 486.61,-139.38 491.97,-134.55 494.36,-141.36 489,-146.18"/>
<text text-anchor="middle" x="500" y="-156" font-family="Helvetica,sans-Serif" font-size="10.00"> &#45;Data</text>
</g>
<!-- Node12 -->
<g id="node12" class="node">
<title>Node12</title>
<g id="a_node12"><a xlink:href="../../d7/d85/classSDK_1_1UClass.html" target="_top" xlink:title=" ">
<polygon fill="white" stroke="black" points="158.5,-513 158.5,-603 279.5,-603 279.5,-513 158.5,-513"/>
<text text-anchor="middle" x="219" y="-591" font-family="Helvetica,sans-Serif" font-size="10.00">SDK::UClass</text>
<polyline fill="none" stroke="black" points="158.5,-584 279.5,-584 "/>
<text text-anchor="start" x="166.5" y="-572" font-family="Helvetica,sans-Serif" font-size="10.00">+ UnknownData00</text>
<text text-anchor="start" x="166.5" y="-561" font-family="Helvetica,sans-Serif" font-size="10.00">+ UnknownData01</text>
<polyline fill="none" stroke="black" points="158.5,-554 279.5,-554 "/>
<text text-anchor="start" x="166.5" y="-542" font-family="Helvetica,sans-Serif" font-size="10.00">+ CreateDefaultObject()</text>
<text text-anchor="start" x="166.5" y="-531" font-family="Helvetica,sans-Serif" font-size="10.00">+ CreateDefaultObject()</text>
<text text-anchor="start" x="166.5" y="-520" font-family="Helvetica,sans-Serif" font-size="10.00">+ StaticClass()</text>
</a>
</g>
</g>
<!-- Node4&#45;&gt;Node12 -->
<g id="edge17" class="edge">
<title>Node4&#45;&gt;Node12</title>
<path fill="none" stroke="#404040" d="M332.71,-385.43C309.29,-401.21 283.64,-416.21 258,-427 218.39,-443.67 190.41,-411.91 163,-445 148.83,-462.11 154.89,-483.4 167.3,-502.82"/>
<polygon fill="none" stroke="#404040" points="167.39,-502.95 174.11,-505.56 174.29,-512.77 167.57,-510.16 167.39,-502.95"/>
<text text-anchor="middle" x="210.5" y="-459" font-family="Helvetica,sans-Serif" font-size="10.00"> +ClassDefaultObject</text>
</g>
<!-- Node5 -->
<g id="node5" class="node">
<title>Node5</title>
<g id="a_node5"><a xlink:href="../../d0/d22/structSDK_1_1FQWord.html" target="_top" xlink:title=" ">
<polygon fill="white" stroke="black" points="440,-524 440,-592 520,-592 520,-524 440,-524"/>
<text text-anchor="middle" x="480" y="-580" font-family="Helvetica,sans-Serif" font-size="10.00">SDK::FQWord</text>
<polyline fill="none" stroke="black" points="440,-573 520,-573 "/>
<text text-anchor="start" x="448" y="-561" font-family="Helvetica,sans-Serif" font-size="10.00">+ A</text>
<text text-anchor="start" x="448" y="-550" font-family="Helvetica,sans-Serif" font-size="10.00">+ B</text>
<polyline fill="none" stroke="black" points="440,-543 520,-543 "/>
<text text-anchor="middle" x="480" y="-531" font-family="Helvetica,sans-Serif" font-size="10.00"> </text>
</a>
</g>
</g>
<!-- Node5&#45;&gt;Node4 -->
<g id="edge4" class="edge">
<title>Node5&#45;&gt;Node4</title>
<path fill="none" stroke="#404040" d="M478.16,-523.97C476.57,-501.57 473.75,-471.34 469,-445 468.61,-442.83 468.2,-440.64 467.78,-438.44"/>
<polygon fill="none" stroke="#404040" points="467.76,-438.35 462.64,-433.27 465.37,-426.59 470.49,-431.68 467.76,-438.35"/>
<text text-anchor="middle" x="504" y="-459" font-family="Helvetica,sans-Serif" font-size="10.00"> +ObjectFlags</text>
</g>
<!-- Node6 -->
<g id="node6" class="node">
<title>Node6</title>
<g id="a_node6"><a xlink:href="../../d0/db6/structSDK_1_1FName.html" target="_top" xlink:title=" ">
<polygon fill="white" stroke="black" points="314.5,-496.5 314.5,-619.5 421.5,-619.5 421.5,-496.5 314.5,-496.5"/>
<text text-anchor="middle" x="368" y="-607.5" font-family="Helvetica,sans-Serif" font-size="10.00">SDK::FName</text>
<polyline fill="none" stroke="black" points="314.5,-600.5 421.5,-600.5 "/>
<text text-anchor="start" x="322.5" y="-588.5" font-family="Helvetica,sans-Serif" font-size="10.00">+ Index</text>
<text text-anchor="start" x="322.5" y="-577.5" font-family="Helvetica,sans-Serif" font-size="10.00">+ Number</text>
<polyline fill="none" stroke="black" points="314.5,-570.5 421.5,-570.5 "/>
<text text-anchor="start" x="322.5" y="-558.5" font-family="Helvetica,sans-Serif" font-size="10.00">+ FName()</text>
<text text-anchor="start" x="322.5" y="-547.5" font-family="Helvetica,sans-Serif" font-size="10.00">+ FName()</text>
<text text-anchor="start" x="322.5" y="-536.5" font-family="Helvetica,sans-Serif" font-size="10.00">+ FName()</text>
<text text-anchor="start" x="322.5" y="-525.5" font-family="Helvetica,sans-Serif" font-size="10.00">+ GetName()</text>
<text text-anchor="start" x="322.5" y="-514.5" font-family="Helvetica,sans-Serif" font-size="10.00">+ operator==()</text>
<text text-anchor="start" x="322.5" y="-503.5" font-family="Helvetica,sans-Serif" font-size="10.00">+ GetGlobalNames()</text>
</a>
</g>
</g>
<!-- Node6&#45;&gt;Node1 -->
<g id="edge20" class="edge">
<title>Node6&#45;&gt;Node1</title>
<path fill="none" stroke="#404040" d="M314.43,-513.44C302.91,-502.59 291.39,-490.47 282,-478 260.32,-449.19 241.65,-414.06 227.3,-383.05"/>
<polygon fill="none" stroke="#404040" points="227.17,-382.76 221.05,-378.94 222.21,-371.83 228.33,-375.64 227.17,-382.76"/>
<text text-anchor="middle" x="317" y="-459" font-family="Helvetica,sans-Serif" font-size="10.00"> +FriendlyName</text>
</g>
<!-- Node6&#45;&gt;Node4 -->
<g id="edge5" class="edge">
<title>Node6&#45;&gt;Node4</title>
<path fill="none" stroke="#404040" d="M403.03,-496.27C405.68,-490.22 408.07,-484.07 410,-478 414,-465.43 417.27,-452.12 419.95,-438.7"/>
<polygon fill="none" stroke="#404040" points="419.95,-438.68 417.12,-432.05 422.16,-426.88 424.99,-433.52 419.95,-438.68"/>
<text text-anchor="middle" x="436" y="-459" font-family="Helvetica,sans-Serif" font-size="10.00"> +Name</text>
</g>
<!-- Node7 -->
<g id="node7" class="node">
<title>Node7</title>
<g id="a_node7"><a xlink:href="../../d3/d79/classSDK_1_1TArray.html" target="_top" xlink:title=" ">
<polygon fill="white" stroke="black" points="306,-667.5 306,-801.5 486,-801.5 486,-667.5 306,-667.5"/>
<text text-anchor="middle" x="396" y="-789.5" font-family="Helvetica,sans-Serif" font-size="10.00">SDK::TArray&lt; SDK::FNameEntry * &gt;</text>
<polyline fill="none" stroke="black" points="306,-782.5 486,-782.5 "/>
<text text-anchor="start" x="314" y="-770.5" font-family="Helvetica,sans-Serif" font-size="10.00">&#45; Count</text>
<text text-anchor="start" x="314" y="-759.5" font-family="Helvetica,sans-Serif" font-size="10.00">&#45; Max</text>
<polyline fill="none" stroke="black" points="306,-752.5 486,-752.5 "/>
<text text-anchor="start" x="314" y="-740.5" font-family="Helvetica,sans-Serif" font-size="10.00">+ TArray()</text>
<text text-anchor="start" x="314" y="-729.5" font-family="Helvetica,sans-Serif" font-size="10.00">+ Num()</text>
<text text-anchor="start" x="314" y="-718.5" font-family="Helvetica,sans-Serif" font-size="10.00">+ operator[]()</text>
<text text-anchor="start" x="314" y="-707.5" font-family="Helvetica,sans-Serif" font-size="10.00">+ operator[]()</text>
<text text-anchor="start" x="314" y="-696.5" font-family="Helvetica,sans-Serif" font-size="10.00">+ IsValidIndex()</text>
<text text-anchor="start" x="314" y="-685.5" font-family="Helvetica,sans-Serif" font-size="10.00">+ GetByIndex()</text>
<text text-anchor="start" x="314" y="-674.5" font-family="Helvetica,sans-Serif" font-size="10.00">+ GetByIndex()</text>
</a>
</g>
</g>
<!-- Node7&#45;&gt;Node6 -->
<g id="edge6" class="edge">
<title>Node7&#45;&gt;Node6</title>
<path fill="none" stroke="#404040" d="M385.33,-667.03C383.48,-655.45 381.53,-643.35 379.65,-631.62"/>
<polygon fill="none" stroke="#404040" points="379.62,-631.4 374.72,-626.11 377.72,-619.56 382.62,-624.85 379.62,-631.4"/>
<text text-anchor="middle" x="406.5" y="-641" font-family="Helvetica,sans-Serif" font-size="10.00"> +GNames</text>
</g>
<!-- Node8 -->
<g id="node8" class="node">
<title>Node8</title>
<g id="a_node8"><a xlink:href="../../d7/ddf/classSDK_1_1FNameEntry.html" target="_top" xlink:title=" ">
<polygon fill="white" stroke="black" points="346.5,-888 346.5,-956 445.5,-956 445.5,-888 346.5,-888"/>
<text text-anchor="middle" x="396" y="-944" font-family="Helvetica,sans-Serif" font-size="10.00">SDK::FNameEntry</text>
<polyline fill="none" stroke="black" points="346.5,-937 445.5,-937 "/>
<text text-anchor="start" x="354.5" y="-925" font-family="Helvetica,sans-Serif" font-size="10.00">+ UnknownData00</text>
<text text-anchor="start" x="354.5" y="-914" font-family="Helvetica,sans-Serif" font-size="10.00">+ name</text>
<polyline fill="none" stroke="black" points="346.5,-907 445.5,-907 "/>
<text text-anchor="start" x="354.5" y="-895" font-family="Helvetica,sans-Serif" font-size="10.00">+ GetName()</text>
</a>
</g>
</g>
<!-- Node8&#45;&gt;Node7 -->
<g id="edge7" class="edge">
<title>Node8&#45;&gt;Node7</title>
<path fill="none" stroke="#404040" d="M396,-887.84C396,-867.23 396,-839.83 396,-813.95"/>
<polygon fill="none" stroke="#404040" points="396,-813.8 392,-807.8 396,-801.8 400,-807.8 396,-813.8"/>
<text text-anchor="middle" x="410" y="-823" font-family="Helvetica,sans-Serif" font-size="10.00"> &#45;Data</text>
</g>
<!-- Node9 -->
<g id="node9" class="node">
<title>Node9</title>
<g id="a_node9"><a xlink:href="../../d3/d79/classSDK_1_1TArray.html" target="_top" xlink:title=" ">
<polygon fill="white" stroke="black" points="501.5,-849.5 501.5,-994.5 598.5,-994.5 598.5,-849.5 501.5,-849.5"/>
<text text-anchor="middle" x="550" y="-982.5" font-family="Helvetica,sans-Serif" font-size="10.00">SDK::TArray&lt; T &gt;</text>
<polyline fill="none" stroke="black" points="501.5,-975.5 598.5,-975.5 "/>
<text text-anchor="start" x="509.5" y="-963.5" font-family="Helvetica,sans-Serif" font-size="10.00">&#45; Data</text>
<text text-anchor="start" x="509.5" y="-952.5" font-family="Helvetica,sans-Serif" font-size="10.00">&#45; Count</text>
<text text-anchor="start" x="509.5" y="-941.5" font-family="Helvetica,sans-Serif" font-size="10.00">&#45; Max</text>
<polyline fill="none" stroke="black" points="501.5,-934.5 598.5,-934.5 "/>
<text text-anchor="start" x="509.5" y="-922.5" font-family="Helvetica,sans-Serif" font-size="10.00">+ TArray()</text>
<text text-anchor="start" x="509.5" y="-911.5" font-family="Helvetica,sans-Serif" font-size="10.00">+ Num()</text>
<text text-anchor="start" x="509.5" y="-900.5" font-family="Helvetica,sans-Serif" font-size="10.00">+ operator[]()</text>
<text text-anchor="start" x="509.5" y="-889.5" font-family="Helvetica,sans-Serif" font-size="10.00">+ operator[]()</text>
<text text-anchor="start" x="509.5" y="-878.5" font-family="Helvetica,sans-Serif" font-size="10.00">+ IsValidIndex()</text>
<text text-anchor="start" x="509.5" y="-867.5" font-family="Helvetica,sans-Serif" font-size="10.00">+ GetByIndex()</text>
<text text-anchor="start" x="509.5" y="-856.5" font-family="Helvetica,sans-Serif" font-size="10.00">+ GetByIndex()</text>
</a>
</g>
</g>
<!-- Node9&#45;&gt;Node7 -->
<g id="edge8" class="edge">
<title>Node9&#45;&gt;Node7</title>
<path fill="none" stroke="orange" d="M495,-854.75C480.69,-837.52 465.28,-818.95 450.98,-801.72"/>
<polygon fill="orange" stroke="orange" points="492.4,-857.1 501.48,-862.56 497.79,-852.63 492.4,-857.1"/>
<text text-anchor="middle" x="528.5" y="-823" font-family="Helvetica,sans-Serif" font-size="10.00"> &lt; SDK::FNameEntry * &gt;</text>
</g>
<!-- Node9&#45;&gt;Node10 -->
<g id="edge12" class="edge">
<title>Node9&#45;&gt;Node10</title>
<path fill="none" stroke="orange" d="M605.81,-870.93C637.94,-836.47 672,-787.64 672,-735.5 672,-735.5 672,-735.5 672,-303.5 672,-247.3 667.26,-229.35 637,-182 623.63,-161.08 605.27,-141.86 586.53,-125.41"/>
<polygon fill="orange" stroke="orange" points="602.95,-868.86 598.57,-878.5 608.01,-873.69 602.95,-868.86"/>
<text text-anchor="middle" x="717.5" y="-555.5" font-family="Helvetica,sans-Serif" font-size="10.00"> &lt; SDK::UObject * &gt;</text>
</g>
<!-- Node10&#45;&gt;Node4 -->
<g id="edge10" class="edge">
<title>Node10&#45;&gt;Node4</title>
<path fill="none" stroke="#404040" d="M441.91,-134.75C438.4,-140.63 435.35,-146.74 433,-153 430.93,-158.52 429.21,-164.23 427.8,-170.07"/>
<polygon fill="none" stroke="#404040" points="427.73,-170.42 430.46,-177.1 425.34,-182.18 422.62,-175.51 427.73,-170.42"/>
<text text-anchor="middle" x="458.5" y="-156" font-family="Helvetica,sans-Serif" font-size="10.00"> +GObjects</text>
</g>
<!-- Node11 -->
<g id="node11" class="node">
<title>Node11</title>
<g id="a_node11"><a xlink:href="../../d9/dfa/structSDK_1_1FPointer.html" target="_top" xlink:title=" ">
<polygon fill="white" stroke="black" points="538,-524 538,-592 636,-592 636,-524 538,-524"/>
<text text-anchor="middle" x="587" y="-580" font-family="Helvetica,sans-Serif" font-size="10.00">SDK::FPointer</text>
<polyline fill="none" stroke="black" points="538,-573 636,-573 "/>
<text text-anchor="start" x="546" y="-561" font-family="Helvetica,sans-Serif" font-size="10.00">+ Dummy</text>
<text text-anchor="start" x="546" y="-550" font-family="Helvetica,sans-Serif" font-size="10.00">+ UnknownData00</text>
<polyline fill="none" stroke="black" points="538,-543 636,-543 "/>
<text text-anchor="middle" x="587" y="-531" font-family="Helvetica,sans-Serif" font-size="10.00"> </text>
</a>
</g>
</g>
<!-- Node11&#45;&gt;Node4 -->
<g id="edge13" class="edge">
<title>Node11&#45;&gt;Node4</title>
<path fill="none" stroke="#404040" d="M575.21,-523.61C566.54,-500.77 553.75,-470.19 539,-445 537.45,-442.35 535.85,-439.69 534.22,-437.03"/>
<polygon fill="none" stroke="#404040" points="534.15,-436.92 527.57,-433.98 527.75,-426.77 534.33,-429.71 534.15,-436.92"/>
<text text-anchor="middle" x="589.5" y="-470" font-family="Helvetica,sans-Serif" font-size="10.00"> +StateFrame</text>
<text text-anchor="middle" x="589.5" y="-459" font-family="Helvetica,sans-Serif" font-size="10.00">+VfTableObject</text>
<text text-anchor="middle" x="589.5" y="-448" font-family="Helvetica,sans-Serif" font-size="10.00">+LinkerIndex</text>
</g>
<!-- Node12&#45;&gt;Node4 -->
<g id="edge14" class="edge">
<title>Node12&#45;&gt;Node4</title>
<path fill="none" stroke="#404040" d="M276.96,-512.96C286.11,-506.88 295.64,-501.01 305,-496 324.72,-485.45 335.65,-493.27 352,-478 356.39,-473.9 364.76,-458.18 374.48,-437.78"/>
<polygon fill="none" stroke="#404040" points="374.57,-437.58 373.5,-430.45 379.67,-426.72 380.74,-433.85 374.57,-437.58"/>
<text text-anchor="middle" x="388.5" y="-459" font-family="Helvetica,sans-Serif" font-size="10.00"> +Class</text>
</g>
<!-- Node13&#45;&gt;Node12 -->
<g id="edge15" class="edge">
<title>Node13&#45;&gt;Node12</title>
<path fill="none" stroke="midnightblue" d="M214.3,-695.57C215.24,-668.38 216.5,-631.68 217.48,-603.17"/>
<polygon fill="none" stroke="midnightblue" points="210.8,-695.74 213.95,-705.85 217.79,-695.98 210.8,-695.74"/>
</g>
</g>
</svg>
        <g id="navigator" transform="translate(0 0)" fill="#404254">
                <rect fill="#f2f5e9" fill-opacity="0.5" stroke="#606060" stroke-width=".5" x="0" y="0" width="60" height="60"/>
                <use id="zoomplus" xlink:href="#zoomPlus" x="17" y="9" onmousedown="handleZoom(evt,'in')"/>
                <use id="zoomminus" xlink:href="#zoomMin" x="42" y="9" onmousedown="handleZoom(evt,'out')"/>
                <use id="reset" xlink:href="#resetDef" x="30" y="36" onmousedown="handleReset()"/>
                <g id="arrowUp" xlink:href="#dirArrow" transform="translate(30 24)" onmousedown="handlePan(0,-1)">
                  <use xlink:href="#rim" fill="#404040">
                        <set attributeName="fill" to="#808080" begin="arrowUp.mouseover" end="arrowUp.mouseout"/>
                  </use>
                  <path fill="none" stroke="white" stroke-width="1.5" d="M0,-3.0v7 M-2.5,-0.5L0,-3.0L2.5,-0.5"/>
                </g>
                <g id="arrowRight" xlink:href="#dirArrow" transform="rotate(90) translate(36 -43)" onmousedown="handlePan(1,0)">
                  <use xlink:href="#rim" fill="#404040">
                        <set attributeName="fill" to="#808080" begin="arrowRight.mouseover" end="arrowRight.mouseout"/>
                  </use>
                  <path fill="none" stroke="white" stroke-width="1.5" d="M0,-3.0v7 M-2.5,-0.5L0,-3.0L2.5,-0.5"/>
                </g>
                <g id="arrowDown" xlink:href="#dirArrow" transform="rotate(180) translate(-30 -48)" onmousedown="handlePan(0,1)">
                  <use xlink:href="#rim" fill="#404040">
                        <set attributeName="fill" to="#808080" begin="arrowDown.mouseover" end="arrowDown.mouseout"/>
                  </use>
                  <path fill="none" stroke="white" stroke-width="1.5" d="M0,-3.0v7 M-2.5,-0.5L0,-3.0L2.5,-0.5"/>
                </g>
                <g id="arrowLeft" xlink:href="#dirArrow" transform="rotate(270) translate(-36 17)" onmousedown="handlePan(-1,0)">
                  <use xlink:href="#rim" fill="#404040">
                        <set attributeName="fill" to="#808080" begin="arrowLeft.mouseover" end="arrowLeft.mouseout"/>
                  </use>
                  <path fill="none" stroke="white" stroke-width="1.5" d="M0,-3.0v7 M-2.5,-0.5L0,-3.0L2.5,-0.5"/>
                </g>
        </g>
        <svg viewBox="0 0 15 15" width="100%" height="30px" preserveAspectRatio="xMaxYMin meet">
         <g id="arrow_out" transform="scale(0.3 0.3)">
          <a xlink:href="classSDK_1_1UFunction__coll__graph_org.svg" target="_base">
           <rect id="button" ry="5" rx="5" y="6" x="6" height="38" width="38"
                fill="#f2f5e9" fill-opacity="0.5" stroke="#606060" stroke-width="1.0"/>
           <path id="arrow"
             d="M 11.500037,31.436501 C 11.940474,20.09759 22.043105,11.32322 32.158766,21.979434 L 37.068811,17.246167 C 37.068811,17.246167 37.088388,32 37.088388,32 L 22.160133,31.978069 C 22.160133,31.978069 26.997745,27.140456 26.997745,27.140456 C 18.528582,18.264221 13.291696,25.230495 11.500037,31.436501 z"
             style="fill:#404040;"/>
          </a>
         </g>
        </svg>
</svg>
