<?xml version="1.0" encoding="UTF-8" standalone="no"?>
<!DOCTYPE svg PUBLIC "-//W3C//DTD SVG 1.1//EN"
 "http://www.w3.org/Graphics/SVG/1.1/DTD/svg11.dtd">
<!-- Generated by graphviz version 2.41.20171026.1811 (20171026.1811)
 -->
<!-- Title: SDK::FMap_Mirror Pages: 1 -->
<svg width="304pt" height="684pt"
 viewBox="0.00 0.00 303.50 684.00" xmlns="http://www.w3.org/2000/svg" xmlns:xlink="http://www.w3.org/1999/xlink">
<g id="graph0" class="graph" transform="scale(1 1) rotate(0) translate(4 680)">
<title>SDK::FMap_Mirror</title>
<polygon fill="white" stroke="transparent" points="-4,4 -4,-680 299.5,-680 299.5,4 -4,4"/>
<!-- Node1 -->
<g id="node1" class="node">
<title>Node1</title>
<g id="a_node1"><a xlink:title=" ">
<polygon fill="#bfbfbf" stroke="black" points="0,-0.5 0,-57.5 98,-57.5 98,-0.5 0,-0.5"/>
<text text-anchor="middle" x="49" y="-45.5" font-family="Helvetica,sans-Serif" font-size="10.00">SDK::FMap_Mirror</text>
<polyline fill="none" stroke="black" points="0,-38.5 98,-38.5 "/>
<text text-anchor="middle" x="49" y="-26.5" font-family="Helvetica,sans-Serif" font-size="10.00"> </text>
<polyline fill="none" stroke="black" points="0,-19.5 98,-19.5 "/>
<text text-anchor="middle" x="49" y="-7.5" font-family="Helvetica,sans-Serif" font-size="10.00"> </text>
</a>
</g>
</g>
<!-- Node2 -->
<g id="node2" class="node">
<title>Node2</title>
<g id="a_node2"><a xlink:href="../../d4/d67/structSDK_1_1FSet__Mirror.html" target="_top" xlink:title=" ">
<polygon fill="white" stroke="black" points="1.5,-105.5 1.5,-173.5 96.5,-173.5 96.5,-105.5 1.5,-105.5"/>
<text text-anchor="middle" x="49" y="-161.5" font-family="Helvetica,sans-Serif" font-size="10.00">SDK::FSet_Mirror</text>
<polyline fill="none" stroke="black" points="1.5,-154.5 96.5,-154.5 "/>
<text text-anchor="start" x="9.5" y="-142.5" font-family="Helvetica,sans-Serif" font-size="10.00">+ InlineHash</text>
<text text-anchor="start" x="9.5" y="-131.5" font-family="Helvetica,sans-Serif" font-size="10.00">+ HashSize</text>
<polyline fill="none" stroke="black" points="1.5,-124.5 96.5,-124.5 "/>
<text text-anchor="middle" x="49" y="-112.5" font-family="Helvetica,sans-Serif" font-size="10.00"> </text>
</a>
</g>
</g>
<!-- Node2&#45;&gt;Node1 -->
<g id="edge1" class="edge">
<title>Node2&#45;&gt;Node1</title>
<path fill="none" stroke="#404040" d="M49,-105.36C49,-94.19 49,-81.61 49,-69.97"/>
<polygon fill="none" stroke="#404040" points="49,-69.83 45,-63.83 49,-57.83 53,-63.83 49,-69.83"/>
<text text-anchor="middle" x="65" y="-79" font-family="Helvetica,sans-Serif" font-size="10.00"> +Pairs</text>
</g>
<!-- Node3 -->
<g id="node3" class="node">
<title>Node3</title>
<g id="a_node3"><a xlink:href="../../d9/dfa/structSDK_1_1FPointer.html" target="_top" xlink:title=" ">
<polygon fill="white" stroke="black" points="14,-569 14,-637 112,-637 112,-569 14,-569"/>
<text text-anchor="middle" x="63" y="-625" font-family="Helvetica,sans-Serif" font-size="10.00">SDK::FPointer</text>
<polyline fill="none" stroke="black" points="14,-618 112,-618 "/>
<text text-anchor="start" x="22" y="-606" font-family="Helvetica,sans-Serif" font-size="10.00">+ Dummy</text>
<text text-anchor="start" x="22" y="-595" font-family="Helvetica,sans-Serif" font-size="10.00">+ UnknownData00</text>
<polyline fill="none" stroke="black" points="14,-588 112,-588 "/>
<text text-anchor="middle" x="63" y="-576" font-family="Helvetica,sans-Serif" font-size="10.00"> </text>
</a>
</g>
</g>
<!-- Node3&#45;&gt;Node2 -->
<g id="edge2" class="edge">
<title>Node3&#45;&gt;Node2</title>
<path fill="none" stroke="#404040" d="M59.2,-568.97C56.64,-545.11 53.47,-512.11 52,-483 46.63,-376.66 47.3,-251.51 48.19,-185.9"/>
<polygon fill="none" stroke="#404040" points="48.2,-185.59 44.29,-179.53 48.37,-173.59 52.29,-179.65 48.2,-185.59"/>
<text text-anchor="middle" x="64.5" y="-311" font-family="Helvetica,sans-Serif" font-size="10.00"> +Hash</text>
</g>
<!-- Node7 -->
<g id="node7" class="node">
<title>Node7</title>
<g id="a_node7"><a xlink:href="../../d4/dd5/structSDK_1_1FBitArray__Mirror.html" target="_top" xlink:title=" ">
<polygon fill="white" stroke="black" points="61.5,-370.5 61.5,-449.5 176.5,-449.5 176.5,-370.5 61.5,-370.5"/>
<text text-anchor="middle" x="119" y="-437.5" font-family="Helvetica,sans-Serif" font-size="10.00">SDK::FBitArray_Mirror</text>
<polyline fill="none" stroke="black" points="61.5,-430.5 176.5,-430.5 "/>
<text text-anchor="start" x="69.5" y="-418.5" font-family="Helvetica,sans-Serif" font-size="10.00">+ InlineData</text>
<text text-anchor="start" x="69.5" y="-407.5" font-family="Helvetica,sans-Serif" font-size="10.00">+ NumBits</text>
<text text-anchor="start" x="69.5" y="-396.5" font-family="Helvetica,sans-Serif" font-size="10.00">+ MaxBits</text>
<polyline fill="none" stroke="black" points="61.5,-389.5 176.5,-389.5 "/>
<text text-anchor="middle" x="119" y="-377.5" font-family="Helvetica,sans-Serif" font-size="10.00"> </text>
</a>
</g>
</g>
<!-- Node3&#45;&gt;Node7 -->
<g id="edge7" class="edge">
<title>Node3&#45;&gt;Node7</title>
<path fill="none" stroke="#404040" d="M72.75,-568.73C81.44,-539.09 94.29,-495.29 104.23,-461.36"/>
<polygon fill="none" stroke="#404040" points="104.24,-461.33 102.09,-454.44 107.62,-449.81 109.77,-456.69 104.24,-461.33"/>
<text text-anchor="middle" x="122.5" y="-504" font-family="Helvetica,sans-Serif" font-size="10.00"> +IndirectData</text>
</g>
<!-- Node4 -->
<g id="node4" class="node">
<title>Node4</title>
<g id="a_node4"><a xlink:href="../../de/d57/structSDK_1_1FSparseArray__Mirror.html" target="_top" xlink:title=" ">
<polygon fill="white" stroke="black" points="61,-221.5 61,-289.5 195,-289.5 195,-221.5 61,-221.5"/>
<text text-anchor="middle" x="128" y="-277.5" font-family="Helvetica,sans-Serif" font-size="10.00">SDK::FSparseArray_Mirror</text>
<polyline fill="none" stroke="black" points="61,-270.5 195,-270.5 "/>
<text text-anchor="start" x="69" y="-258.5" font-family="Helvetica,sans-Serif" font-size="10.00">+ FirstFreeIndex</text>
<text text-anchor="start" x="69" y="-247.5" font-family="Helvetica,sans-Serif" font-size="10.00">+ NumFreeIndices</text>
<polyline fill="none" stroke="black" points="61,-240.5 195,-240.5 "/>
<text text-anchor="middle" x="128" y="-228.5" font-family="Helvetica,sans-Serif" font-size="10.00"> </text>
</a>
</g>
</g>
<!-- Node4&#45;&gt;Node2 -->
<g id="edge3" class="edge">
<title>Node4&#45;&gt;Node2</title>
<path fill="none" stroke="#404040" d="M104.94,-221.22C96.83,-209.51 87.59,-196.18 78.99,-183.77"/>
<polygon fill="none" stroke="#404040" points="78.79,-183.49 72.08,-180.83 71.95,-173.62 78.66,-176.28 78.79,-183.49"/>
<text text-anchor="middle" x="116.5" y="-195" font-family="Helvetica,sans-Serif" font-size="10.00"> +Elements</text>
</g>
<!-- Node5 -->
<g id="node5" class="node">
<title>Node5</title>
<g id="a_node5"><a xlink:href="../../d3/d79/classSDK_1_1TArray.html" target="_top" xlink:title=" ">
<polygon fill="white" stroke="black" points="194.5,-337.5 194.5,-482.5 295.5,-482.5 295.5,-337.5 194.5,-337.5"/>
<text text-anchor="middle" x="245" y="-470.5" font-family="Helvetica,sans-Serif" font-size="10.00">SDK::TArray&lt; int &gt;</text>
<polyline fill="none" stroke="black" points="194.5,-463.5 295.5,-463.5 "/>
<text text-anchor="start" x="202.5" y="-451.5" font-family="Helvetica,sans-Serif" font-size="10.00">&#45; Data</text>
<text text-anchor="start" x="202.5" y="-440.5" font-family="Helvetica,sans-Serif" font-size="10.00">&#45; Count</text>
<text text-anchor="start" x="202.5" y="-429.5" font-family="Helvetica,sans-Serif" font-size="10.00">&#45; Max</text>
<polyline fill="none" stroke="black" points="194.5,-422.5 295.5,-422.5 "/>
<text text-anchor="start" x="202.5" y="-410.5" font-family="Helvetica,sans-Serif" font-size="10.00">+ TArray()</text>
<text text-anchor="start" x="202.5" y="-399.5" font-family="Helvetica,sans-Serif" font-size="10.00">+ Num()</text>
<text text-anchor="start" x="202.5" y="-388.5" font-family="Helvetica,sans-Serif" font-size="10.00">+ operator[]()</text>
<text text-anchor="start" x="202.5" y="-377.5" font-family="Helvetica,sans-Serif" font-size="10.00">+ operator[]()</text>
<text text-anchor="start" x="202.5" y="-366.5" font-family="Helvetica,sans-Serif" font-size="10.00">+ IsValidIndex()</text>
<text text-anchor="start" x="202.5" y="-355.5" font-family="Helvetica,sans-Serif" font-size="10.00">+ GetByIndex()</text>
<text text-anchor="start" x="202.5" y="-344.5" font-family="Helvetica,sans-Serif" font-size="10.00">+ GetByIndex()</text>
</a>
</g>
</g>
<!-- Node5&#45;&gt;Node4 -->
<g id="edge4" class="edge">
<title>Node5&#45;&gt;Node4</title>
<path fill="none" stroke="#404040" d="M222.94,-337.26C217.98,-326.86 212.05,-316.73 205,-308 202.16,-304.48 199.01,-301.11 195.65,-297.9"/>
<polygon fill="none" stroke="#404040" points="195.4,-297.68 188.25,-296.74 186.37,-289.78 193.52,-290.72 195.4,-297.68"/>
<text text-anchor="middle" x="237.5" y="-311" font-family="Helvetica,sans-Serif" font-size="10.00"> +Elements</text>
</g>
<!-- Node6 -->
<g id="node6" class="node">
<title>Node6</title>
<g id="a_node6"><a xlink:href="../../d3/d79/classSDK_1_1TArray.html" target="_top" xlink:title=" ">
<polygon fill="white" stroke="black" points="196.5,-530.5 196.5,-675.5 293.5,-675.5 293.5,-530.5 196.5,-530.5"/>
<text text-anchor="middle" x="245" y="-663.5" font-family="Helvetica,sans-Serif" font-size="10.00">SDK::TArray&lt; T &gt;</text>
<polyline fill="none" stroke="black" points="196.5,-656.5 293.5,-656.5 "/>
<text text-anchor="start" x="204.5" y="-644.5" font-family="Helvetica,sans-Serif" font-size="10.00">&#45; Data</text>
<text text-anchor="start" x="204.5" y="-633.5" font-family="Helvetica,sans-Serif" font-size="10.00">&#45; Count</text>
<text text-anchor="start" x="204.5" y="-622.5" font-family="Helvetica,sans-Serif" font-size="10.00">&#45; Max</text>
<polyline fill="none" stroke="black" points="196.5,-615.5 293.5,-615.5 "/>
<text text-anchor="start" x="204.5" y="-603.5" font-family="Helvetica,sans-Serif" font-size="10.00">+ TArray()</text>
<text text-anchor="start" x="204.5" y="-592.5" font-family="Helvetica,sans-Serif" font-size="10.00">+ Num()</text>
<text text-anchor="start" x="204.5" y="-581.5" font-family="Helvetica,sans-Serif" font-size="10.00">+ operator[]()</text>
<text text-anchor="start" x="204.5" y="-570.5" font-family="Helvetica,sans-Serif" font-size="10.00">+ operator[]()</text>
<text text-anchor="start" x="204.5" y="-559.5" font-family="Helvetica,sans-Serif" font-size="10.00">+ IsValidIndex()</text>
<text text-anchor="start" x="204.5" y="-548.5" font-family="Helvetica,sans-Serif" font-size="10.00">+ GetByIndex()</text>
<text text-anchor="start" x="204.5" y="-537.5" font-family="Helvetica,sans-Serif" font-size="10.00">+ GetByIndex()</text>
</a>
</g>
</g>
<!-- Node6&#45;&gt;Node5 -->
<g id="edge5" class="edge">
<title>Node6&#45;&gt;Node5</title>
<path fill="none" stroke="orange" d="M245,-520.01C245,-507.62 245,-494.91 245,-482.75"/>
<polygon fill="orange" stroke="orange" points="241.5,-520.34 245,-530.34 248.5,-520.34 241.5,-520.34"/>
<text text-anchor="middle" x="261" y="-504" font-family="Helvetica,sans-Serif" font-size="10.00"> &lt; int &gt;</text>
</g>
<!-- Node7&#45;&gt;Node4 -->
<g id="edge6" class="edge">
<title>Node7&#45;&gt;Node4</title>
<path fill="none" stroke="#404040" d="M121.29,-370.12C122.52,-349.32 124.04,-323.59 125.32,-301.87"/>
<polygon fill="none" stroke="#404040" points="125.34,-301.6 121.7,-295.37 126.05,-289.62 129.68,-295.85 125.34,-301.6"/>
<text text-anchor="middle" x="163" y="-311" font-family="Helvetica,sans-Serif" font-size="10.00"> +AllocationFlags</text>
</g>
</g>
</svg>
