<?xml version="1.0" encoding="UTF-8" standalone="no"?>
<!DOCTYPE svg PUBLIC "-//W3C//DTD SVG 1.1//EN"
 "http://www.w3.org/Graphics/SVG/1.1/DTD/svg11.dtd">
<!-- Generated by graphviz version 2.41.20171026.1811 (20171026.1811)
 -->
<!-- Title: SDK::UGFxRawData Pages: 1 -->
<svg width="272pt" height="832pt"
 viewBox="0.00 0.00 272.00 832.00" xmlns="http://www.w3.org/2000/svg" xmlns:xlink="http://www.w3.org/1999/xlink">
<g id="graph0" class="graph" transform="scale(1 1) rotate(0) translate(4 828)">
<title>SDK::UGFxRawData</title>
<polygon fill="white" stroke="transparent" points="-4,4 -4,-828 268,-828 268,4 -4,4"/>
<!-- Node1 -->
<g id="node1" class="node">
<title>Node1</title>
<g id="a_node1"><a xlink:title=" ">
<polygon fill="#bfbfbf" stroke="black" points="87,-342.5 87,-432.5 198,-432.5 198,-342.5 87,-342.5"/>
<text text-anchor="middle" x="142.5" y="-420.5" font-family="Helvetica,sans-Serif" font-size="10.00">SDK::UGFxRawData</text>
<polyline fill="none" stroke="black" points="87,-413.5 198,-413.5 "/>
<text text-anchor="start" x="95" y="-401.5" font-family="Helvetica,sans-Serif" font-size="10.00">+ RawData</text>
<text text-anchor="start" x="95" y="-390.5" font-family="Helvetica,sans-Serif" font-size="10.00">+ ReferencedSwfs</text>
<text text-anchor="start" x="95" y="-379.5" font-family="Helvetica,sans-Serif" font-size="10.00">+ References</text>
<text text-anchor="start" x="95" y="-368.5" font-family="Helvetica,sans-Serif" font-size="10.00">+ UserReferences</text>
<polyline fill="none" stroke="black" points="87,-361.5 198,-361.5 "/>
<text text-anchor="start" x="95" y="-349.5" font-family="Helvetica,sans-Serif" font-size="10.00">+ StaticClass()</text>
</a>
</g>
</g>
<!-- Node3 -->
<g id="node3" class="node">
<title>Node3</title>
<g id="a_node3"><a xlink:href="../../db/df9/classSDK_1_1USwfMovie.html" target="_top" xlink:title=" ">
<polygon fill="white" stroke="black" points="60.5,-116.5 60.5,-305.5 224.5,-305.5 224.5,-116.5 60.5,-116.5"/>
<text text-anchor="middle" x="142.5" y="-293.5" font-family="Helvetica,sans-Serif" font-size="10.00">SDK::USwfMovie</text>
<polyline fill="none" stroke="black" points="60.5,-286.5 224.5,-286.5 "/>
<text text-anchor="start" x="68.5" y="-274.5" font-family="Helvetica,sans-Serif" font-size="10.00">+ bUsesFontlib</text>
<text text-anchor="start" x="68.5" y="-263.5" font-family="Helvetica,sans-Serif" font-size="10.00">+ bSetSRGBOnImportedTextures</text>
<text text-anchor="start" x="68.5" y="-252.5" font-family="Helvetica,sans-Serif" font-size="10.00">+ bPackTextures</text>
<text text-anchor="start" x="68.5" y="-241.5" font-family="Helvetica,sans-Serif" font-size="10.00">+ bForceSquarePacking</text>
<text text-anchor="start" x="68.5" y="-230.5" font-family="Helvetica,sans-Serif" font-size="10.00">+ SourceFile</text>
<text text-anchor="start" x="68.5" y="-219.5" font-family="Helvetica,sans-Serif" font-size="10.00">+ PackTextureSize</text>
<text text-anchor="start" x="68.5" y="-208.5" font-family="Helvetica,sans-Serif" font-size="10.00">+ TextureRescale</text>
<text text-anchor="start" x="68.5" y="-197.5" font-family="Helvetica,sans-Serif" font-size="10.00">+ UnknownData00</text>
<text text-anchor="start" x="68.5" y="-186.5" font-family="Helvetica,sans-Serif" font-size="10.00">+ TextureFormat</text>
<text text-anchor="start" x="68.5" y="-175.5" font-family="Helvetica,sans-Serif" font-size="10.00">+ SourceFileTimestamp</text>
<text text-anchor="start" x="68.5" y="-164.5" font-family="Helvetica,sans-Serif" font-size="10.00">+ RTTextures</text>
<text text-anchor="start" x="68.5" y="-153.5" font-family="Helvetica,sans-Serif" font-size="10.00">+ RTVideoTextures</text>
<text text-anchor="start" x="68.5" y="-142.5" font-family="Helvetica,sans-Serif" font-size="10.00">+ ImportTimeStamp</text>
<polyline fill="none" stroke="black" points="60.5,-135.5 224.5,-135.5 "/>
<text text-anchor="start" x="68.5" y="-123.5" font-family="Helvetica,sans-Serif" font-size="10.00">+ StaticClass()</text>
</a>
</g>
</g>
<!-- Node1&#45;&gt;Node3 -->
<g id="edge2" class="edge">
<title>Node1&#45;&gt;Node3</title>
<path fill="none" stroke="midnightblue" d="M142.5,-332.36C142.5,-323.86 142.5,-314.86 142.5,-305.76"/>
<polygon fill="none" stroke="midnightblue" points="139,-332.47 142.5,-342.47 146,-332.47 139,-332.47"/>
</g>
<!-- Node2 -->
<g id="node2" class="node">
<title>Node2</title>
<g id="a_node2"><a xlink:href="../../d9/d45/classSDK_1_1UObject.html" target="_top" xlink:title=" ">
<polygon fill="white" stroke="black" points="43.5,-469.5 43.5,-823.5 241.5,-823.5 241.5,-469.5 43.5,-469.5"/>
<text text-anchor="middle" x="142.5" y="-811.5" font-family="Helvetica,sans-Serif" font-size="10.00">SDK::UObject</text>
<polyline fill="none" stroke="black" points="43.5,-804.5 241.5,-804.5 "/>
<text text-anchor="start" x="51.5" y="-792.5" font-family="Helvetica,sans-Serif" font-size="10.00">+ VfTableObject</text>
<text text-anchor="start" x="51.5" y="-781.5" font-family="Helvetica,sans-Serif" font-size="10.00">+ ObjectFlags</text>
<text text-anchor="start" x="51.5" y="-770.5" font-family="Helvetica,sans-Serif" font-size="10.00">+ StateFrame</text>
<text text-anchor="start" x="51.5" y="-759.5" font-family="Helvetica,sans-Serif" font-size="10.00">+ Linker</text>
<text text-anchor="start" x="51.5" y="-748.5" font-family="Helvetica,sans-Serif" font-size="10.00">+ LinkerIndex</text>
<text text-anchor="start" x="51.5" y="-737.5" font-family="Helvetica,sans-Serif" font-size="10.00">+ ObjectInternalInteger</text>
<text text-anchor="start" x="51.5" y="-726.5" font-family="Helvetica,sans-Serif" font-size="10.00">+ NetIndex</text>
<text text-anchor="start" x="51.5" y="-715.5" font-family="Helvetica,sans-Serif" font-size="10.00">+ Outer</text>
<text text-anchor="start" x="51.5" y="-704.5" font-family="Helvetica,sans-Serif" font-size="10.00">+ Name</text>
<text text-anchor="start" x="51.5" y="-693.5" font-family="Helvetica,sans-Serif" font-size="10.00">+ Class</text>
<text text-anchor="start" x="51.5" y="-682.5" font-family="Helvetica,sans-Serif" font-size="10.00">+ ObjectArchetype</text>
<text text-anchor="start" x="51.5" y="-671.5" font-family="Helvetica,sans-Serif" font-size="10.00">+ GObjects</text>
<polyline fill="none" stroke="black" points="43.5,-664.5 241.5,-664.5 "/>
<text text-anchor="start" x="51.5" y="-652.5" font-family="Helvetica,sans-Serif" font-size="10.00">+ UObject::GetName()</text>
<text text-anchor="start" x="51.5" y="-641.5" font-family="Helvetica,sans-Serif" font-size="10.00">+ GetFullName()</text>
<text text-anchor="start" x="51.5" y="-630.5" font-family="Helvetica,sans-Serif" font-size="10.00">+ IsA()</text>
<text text-anchor="start" x="51.5" y="-619.5" font-family="Helvetica,sans-Serif" font-size="10.00">+ ProcessEvent()</text>
<text text-anchor="start" x="51.5" y="-608.5" font-family="Helvetica,sans-Serif" font-size="10.00">+ STATIC_ProfNodeEvent()</text>
<text text-anchor="start" x="51.5" y="-597.5" font-family="Helvetica,sans-Serif" font-size="10.00">+ STATIC_ProfNodeSetDepthThreshold()</text>
<text text-anchor="start" x="51.5" y="-586.5" font-family="Helvetica,sans-Serif" font-size="10.00">+ STATIC_ProfNodeSetTimeThreshold</text>
<text text-anchor="start" x="51.5" y="-575.5" font-family="Helvetica,sans-Serif" font-size="10.00">Seconds()</text>
<text text-anchor="start" x="51.5" y="-564.5" font-family="Helvetica,sans-Serif" font-size="10.00">+ STATIC_ProfNodeStop()</text>
<text text-anchor="start" x="51.5" y="-553.5" font-family="Helvetica,sans-Serif" font-size="10.00">+ STATIC_ProfNodeStart()</text>
<text text-anchor="start" x="51.5" y="-542.5" font-family="Helvetica,sans-Serif" font-size="10.00">+ STATIC_GetStringFromGuid()</text>
<text text-anchor="start" x="51.5" y="-531.5" font-family="Helvetica,sans-Serif" font-size="10.00">and 298 more...</text>
<text text-anchor="start" x="51.5" y="-520.5" font-family="Helvetica,sans-Serif" font-size="10.00">+ GetGlobalObjects()</text>
<text text-anchor="start" x="51.5" y="-509.5" font-family="Helvetica,sans-Serif" font-size="10.00">+ FindObject()</text>
<text text-anchor="start" x="51.5" y="-498.5" font-family="Helvetica,sans-Serif" font-size="10.00">+ FindClass()</text>
<text text-anchor="start" x="51.5" y="-487.5" font-family="Helvetica,sans-Serif" font-size="10.00">+ GetObjectCasted()</text>
<text text-anchor="start" x="51.5" y="-476.5" font-family="Helvetica,sans-Serif" font-size="10.00">+ StaticClass()</text>
</a>
</g>
</g>
<!-- Node2&#45;&gt;Node1 -->
<g id="edge1" class="edge">
<title>Node2&#45;&gt;Node1</title>
<path fill="none" stroke="midnightblue" d="M142.5,-459.43C142.5,-449.97 142.5,-441.04 142.5,-432.91"/>
<polygon fill="none" stroke="midnightblue" points="139,-459.46 142.5,-469.46 146,-459.46 139,-459.46"/>
</g>
<!-- Node4 -->
<g id="node4" class="node">
<title>Node4</title>
<g id="a_node4"><a xlink:href="../../d9/dde/classSDK_1_1UEFSwfMovie.html" target="_top" xlink:title=" ">
<polygon fill="white" stroke="black" points="0,-0.5 0,-79.5 145,-79.5 145,-0.5 0,-0.5"/>
<text text-anchor="middle" x="72.5" y="-67.5" font-family="Helvetica,sans-Serif" font-size="10.00">SDK::UEFSwfMovie</text>
<polyline fill="none" stroke="black" points="0,-60.5 145,-60.5 "/>
<text text-anchor="start" x="8" y="-48.5" font-family="Helvetica,sans-Serif" font-size="10.00">+ ExternalBinding</text>
<text text-anchor="start" x="8" y="-37.5" font-family="Helvetica,sans-Serif" font-size="10.00">+ bSetAlwaysNoMipsTexture</text>
<text text-anchor="start" x="8" y="-26.5" font-family="Helvetica,sans-Serif" font-size="10.00">+ SetVectorDisplacement</text>
<polyline fill="none" stroke="black" points="0,-19.5 145,-19.5 "/>
<text text-anchor="start" x="8" y="-7.5" font-family="Helvetica,sans-Serif" font-size="10.00">+ StaticClass()</text>
</a>
</g>
</g>
<!-- Node3&#45;&gt;Node4 -->
<g id="edge3" class="edge">
<title>Node3&#45;&gt;Node4</title>
<path fill="none" stroke="midnightblue" d="M99.68,-106.61C95.78,-97.2 92.02,-88.12 88.6,-79.87"/>
<polygon fill="none" stroke="midnightblue" points="96.55,-108.21 103.61,-116.11 103.02,-105.53 96.55,-108.21"/>
</g>
<!-- Node5 -->
<g id="node5" class="node">
<title>Node5</title>
<g id="a_node5"><a xlink:href="../../db/daf/classSDK_1_1UFlashMovie.html" target="_top" xlink:title=" ">
<polygon fill="white" stroke="black" points="163,-11.5 163,-68.5 264,-68.5 264,-11.5 163,-11.5"/>
<text text-anchor="middle" x="213.5" y="-56.5" font-family="Helvetica,sans-Serif" font-size="10.00">SDK::UFlashMovie</text>
<polyline fill="none" stroke="black" points="163,-49.5 264,-49.5 "/>
<text text-anchor="middle" x="213.5" y="-37.5" font-family="Helvetica,sans-Serif" font-size="10.00"> </text>
<polyline fill="none" stroke="black" points="163,-30.5 264,-30.5 "/>
<text text-anchor="start" x="171" y="-18.5" font-family="Helvetica,sans-Serif" font-size="10.00">+ StaticClass()</text>
</a>
</g>
</g>
<!-- Node3&#45;&gt;Node5 -->
<g id="edge4" class="edge">
<title>Node3&#45;&gt;Node5</title>
<path fill="none" stroke="midnightblue" d="M185.84,-106.84C191.71,-92.87 197.28,-79.61 201.86,-68.7"/>
<polygon fill="none" stroke="midnightblue" points="182.59,-105.53 181.94,-116.11 189.05,-108.25 182.59,-105.53"/>
</g>
</g>
</svg>
