<?xml version="1.0" encoding="UTF-8" standalone="no"?>
<!DOCTYPE svg PUBLIC "-//W3C//DTD SVG 1.1//EN"
 "http://www.w3.org/Graphics/SVG/1.1/DTD/svg11.dtd">
<!-- Generated by graphviz version 2.41.20171026.1811 (20171026.1811)
 -->
<!-- Title: SDK::UInterpTrackInstBoolProp Pages: 1 -->
<!--zoomable 1593 -->
<svg id="main" version="1.1" xmlns="http://www.w3.org/2000/svg" xmlns:xlink="http://www.w3.org/1999/xlink" xml:space="preserve" onload="init(evt)">
<style type="text/css"><![CDATA[
.edge:hover path { stroke: red; }
.edge:hover polygon { stroke: red; fill: red; }
]]></style>
<script type="text/javascript"><![CDATA[
var edges = document.getElementsByTagName('g');
if (edges && edges.length) {
  for (var i=0;i<edges.length;i++) {
    if (edges[i].id.substr(0,4)=='edge') {
      edges[i].setAttribute('class','edge');
    }
  }
}
]]></script>
        <defs>
                <circle id="rim" cx="0" cy="0" r="7"/>
                <circle id="rim2" cx="0" cy="0" r="3.5"/>
                <g id="zoomPlus">
                        <use xlink:href="#rim" fill="#404040">
                                <set attributeName="fill" to="#808080" begin="zoomplus.mouseover" end="zoomplus.mouseout"/>
                        </use>
                        <path d="M-4,0h8M0,-4v8" fill="none" stroke="white" stroke-width="1.5" pointer-events="none"/>
                </g>
                <g id="zoomMin">
                        <use xlink:href="#rim" fill="#404040">
                                <set attributeName="fill" to="#808080" begin="zoomminus.mouseover" end="zoomminus.mouseout"/>
                        </use>
                        <path d="M-4,0h8" fill="none" stroke="white" stroke-width="1.5" pointer-events="none"/>
                </g>
                <g id="dirArrow">
                        <path fill="none" stroke="white" stroke-width="1.5" d="M0,-3.0v7 M-2.5,-0.5L0,-3.0L2.5,-0.5"/>
                </g>
               <g id="resetDef">
                       <use xlink:href="#rim2" fill="#404040">
                               <set attributeName="fill" to="#808080" begin="reset.mouseover" end="reset.mouseout"/>
                       </use>
               </g>
        </defs>

<script type="text/javascript">
var viewWidth = 702;
var viewHeight = 1593;
var sectionId = 'dynsection-1';
</script>
<script xlink:href="../../svgpan.js"/>
<svg id="graph" class="graph">
<g id="viewport">
<title>SDK::UInterpTrackInstBoolProp</title>
<polygon fill="white" stroke="transparent" points="-4,4 -4,-1589 698,-1589 698,4 -4,4"/>
<!-- Node1 -->
<g id="node1" class="node">
<title>Node1</title>
<g id="a_node1"><a xlink:title=" ">
<polygon fill="#bfbfbf" stroke="black" points="296.5,-0.5 296.5,-68.5 453.5,-68.5 453.5,-0.5 296.5,-0.5"/>
<text text-anchor="middle" x="375" y="-56.5" font-family="Helvetica,sans-Serif" font-size="10.00">SDK::UInterpTrackInstBoolProp</text>
<polyline fill="none" stroke="black" points="296.5,-49.5 453.5,-49.5 "/>
<text text-anchor="start" x="304.5" y="-37.5" font-family="Helvetica,sans-Serif" font-size="10.00">+ BitMask</text>
<text text-anchor="start" x="304.5" y="-26.5" font-family="Helvetica,sans-Serif" font-size="10.00">+ ResetBool</text>
<polyline fill="none" stroke="black" points="296.5,-19.5 453.5,-19.5 "/>
<text text-anchor="start" x="304.5" y="-7.5" font-family="Helvetica,sans-Serif" font-size="10.00">+ StaticClass()</text>
</a>
</g>
</g>
<!-- Node2 -->
<g id="node2" class="node">
<title>Node2</title>
<g id="a_node2"><a xlink:href="../../d3/da9/classSDK_1_1UInterpTrackInstProperty.html" target="_top" xlink:title=" ">
<polygon fill="white" stroke="black" points="16,-123 16,-180 170,-180 170,-123 16,-123"/>
<text text-anchor="middle" x="93" y="-168" font-family="Helvetica,sans-Serif" font-size="10.00">SDK::UInterpTrackInstProperty</text>
<polyline fill="none" stroke="black" points="16,-161 170,-161 "/>
<text text-anchor="middle" x="93" y="-149" font-family="Helvetica,sans-Serif" font-size="10.00"> </text>
<polyline fill="none" stroke="black" points="16,-142 170,-142 "/>
<text text-anchor="start" x="24" y="-130" font-family="Helvetica,sans-Serif" font-size="10.00">+ StaticClass()</text>
</a>
</g>
</g>
<!-- Node2&#45;&gt;Node1 -->
<g id="edge1" class="edge">
<title>Node2&#45;&gt;Node1</title>
<path fill="none" stroke="midnightblue" d="M169.81,-119.18C209.06,-103.17 256.74,-83.73 296.26,-67.61"/>
<polygon fill="none" stroke="midnightblue" points="168.48,-115.94 160.55,-122.95 171.13,-122.42 168.48,-115.94"/>
</g>
<!-- Node3 -->
<g id="node3" class="node">
<title>Node3</title>
<g id="a_node3"><a xlink:href="../../d8/d3d/classSDK_1_1UInterpTrackInst.html" target="_top" xlink:title=" ">
<polygon fill="white" stroke="black" points="15.5,-514.5 15.5,-571.5 132.5,-571.5 132.5,-514.5 15.5,-514.5"/>
<text text-anchor="middle" x="74" y="-559.5" font-family="Helvetica,sans-Serif" font-size="10.00">SDK::UInterpTrackInst</text>
<polyline fill="none" stroke="black" points="15.5,-552.5 132.5,-552.5 "/>
<text text-anchor="middle" x="74" y="-540.5" font-family="Helvetica,sans-Serif" font-size="10.00"> </text>
<polyline fill="none" stroke="black" points="15.5,-533.5 132.5,-533.5 "/>
<text text-anchor="start" x="23.5" y="-521.5" font-family="Helvetica,sans-Serif" font-size="10.00">+ StaticClass()</text>
</a>
</g>
</g>
<!-- Node3&#45;&gt;Node2 -->
<g id="edge2" class="edge">
<title>Node3&#45;&gt;Node2</title>
<path fill="none" stroke="midnightblue" d="M63.42,-504.67C62.85,-501.75 62.36,-498.84 62,-496 46.11,-372.13 33.5,-336.59 62,-215 64.82,-202.97 70.31,-190.61 75.9,-180.08"/>
<polygon fill="none" stroke="midnightblue" points="60.02,-505.49 65.61,-514.49 66.85,-503.97 60.02,-505.49"/>
</g>
<!-- Node4 -->
<g id="node4" class="node">
<title>Node4</title>
<g id="a_node4"><a xlink:href="../../d9/d45/classSDK_1_1UObject.html" target="_top" xlink:title=" ">
<polygon fill="white" stroke="black" points="225,-772.5 225,-1016.5 423,-1016.5 423,-772.5 225,-772.5"/>
<text text-anchor="middle" x="324" y="-1004.5" font-family="Helvetica,sans-Serif" font-size="10.00">SDK::UObject</text>
<polyline fill="none" stroke="black" points="225,-997.5 423,-997.5 "/>
<text text-anchor="start" x="233" y="-985.5" font-family="Helvetica,sans-Serif" font-size="10.00">+ ObjectInternalInteger</text>
<text text-anchor="start" x="233" y="-974.5" font-family="Helvetica,sans-Serif" font-size="10.00">+ NetIndex</text>
<polyline fill="none" stroke="black" points="225,-967.5 423,-967.5 "/>
<text text-anchor="start" x="233" y="-955.5" font-family="Helvetica,sans-Serif" font-size="10.00">+ UObject::GetName()</text>
<text text-anchor="start" x="233" y="-944.5" font-family="Helvetica,sans-Serif" font-size="10.00">+ GetFullName()</text>
<text text-anchor="start" x="233" y="-933.5" font-family="Helvetica,sans-Serif" font-size="10.00">+ IsA()</text>
<text text-anchor="start" x="233" y="-922.5" font-family="Helvetica,sans-Serif" font-size="10.00">+ ProcessEvent()</text>
<text text-anchor="start" x="233" y="-911.5" font-family="Helvetica,sans-Serif" font-size="10.00">+ STATIC_ProfNodeEvent()</text>
<text text-anchor="start" x="233" y="-900.5" font-family="Helvetica,sans-Serif" font-size="10.00">+ STATIC_ProfNodeSetDepthThreshold()</text>
<text text-anchor="start" x="233" y="-889.5" font-family="Helvetica,sans-Serif" font-size="10.00">+ STATIC_ProfNodeSetTimeThreshold</text>
<text text-anchor="start" x="233" y="-878.5" font-family="Helvetica,sans-Serif" font-size="10.00">Seconds()</text>
<text text-anchor="start" x="233" y="-867.5" font-family="Helvetica,sans-Serif" font-size="10.00">+ STATIC_ProfNodeStop()</text>
<text text-anchor="start" x="233" y="-856.5" font-family="Helvetica,sans-Serif" font-size="10.00">+ STATIC_ProfNodeStart()</text>
<text text-anchor="start" x="233" y="-845.5" font-family="Helvetica,sans-Serif" font-size="10.00">+ STATIC_GetStringFromGuid()</text>
<text text-anchor="start" x="233" y="-834.5" font-family="Helvetica,sans-Serif" font-size="10.00">and 298 more...</text>
<text text-anchor="start" x="233" y="-823.5" font-family="Helvetica,sans-Serif" font-size="10.00">+ GetGlobalObjects()</text>
<text text-anchor="start" x="233" y="-812.5" font-family="Helvetica,sans-Serif" font-size="10.00">+ FindObject()</text>
<text text-anchor="start" x="233" y="-801.5" font-family="Helvetica,sans-Serif" font-size="10.00">+ FindClass()</text>
<text text-anchor="start" x="233" y="-790.5" font-family="Helvetica,sans-Serif" font-size="10.00">+ GetObjectCasted()</text>
<text text-anchor="start" x="233" y="-779.5" font-family="Helvetica,sans-Serif" font-size="10.00">+ StaticClass()</text>
</a>
</g>
</g>
<!-- Node4&#45;&gt;Node2 -->
<g id="edge22" class="edge">
<title>Node4&#45;&gt;Node2</title>
<path fill="none" stroke="#404040" d="M248.57,-772.24C239.61,-756.53 230.87,-740.51 223,-725 176.94,-634.24 202.74,-589.06 134,-514 122.45,-501.39 109.13,-510.46 100,-496 68.85,-446.67 81.22,-272.18 88.78,-192.59"/>
<polygon fill="none" stroke="#404040" points="88.83,-192.16 85.43,-185.8 90,-180.22 93.39,-186.58 88.83,-192.16"/>
<text text-anchor="middle" x="157.5" y="-453.5" font-family="Helvetica,sans-Serif" font-size="10.00"> +PropertyOuterObjectInst</text>
</g>
<!-- Node4&#45;&gt;Node3 -->
<g id="edge3" class="edge">
<title>Node4&#45;&gt;Node3</title>
<path fill="none" stroke="midnightblue" d="M216.32,-833.05C186,-811.53 155.47,-784.86 134,-754 94.37,-697.04 80.74,-614.21 76.19,-571.59"/>
<polygon fill="none" stroke="midnightblue" points="214.65,-836.15 224.86,-838.99 218.64,-830.41 214.65,-836.15"/>
</g>
<!-- Node4&#45;&gt;Node4 -->
<g id="edge9" class="edge">
<title>Node4&#45;&gt;Node4</title>
<path fill="none" stroke="#404040" d="M423.01,-917.53C433.94,-913.15 441,-905.48 441,-894.5 441,-887.64 438.24,-882.07 433.51,-877.78"/>
<polygon fill="none" stroke="#404040" points="433.3,-877.66 426.09,-877.99 423.01,-871.47 430.22,-871.14 433.3,-877.66"/>
<text text-anchor="middle" x="480.5" y="-903" font-family="Helvetica,sans-Serif" font-size="10.00"> +Outer</text>
<text text-anchor="middle" x="480.5" y="-892" font-family="Helvetica,sans-Serif" font-size="10.00">+Linker</text>
<text text-anchor="middle" x="480.5" y="-881" font-family="Helvetica,sans-Serif" font-size="10.00">+ObjectArchetype</text>
</g>
<!-- Node10 -->
<g id="node10" class="node">
<title>Node10</title>
<g id="a_node10"><a xlink:href="../../d3/d79/classSDK_1_1TArray.html" target="_top" xlink:title=" ">
<polygon fill="white" stroke="black" points="451.5,-590.5 451.5,-724.5 612.5,-724.5 612.5,-590.5 451.5,-590.5"/>
<text text-anchor="middle" x="532" y="-712.5" font-family="Helvetica,sans-Serif" font-size="10.00">SDK::TArray&lt; SDK::UObject * &gt;</text>
<polyline fill="none" stroke="black" points="451.5,-705.5 612.5,-705.5 "/>
<text text-anchor="start" x="459.5" y="-693.5" font-family="Helvetica,sans-Serif" font-size="10.00">&#45; Count</text>
<text text-anchor="start" x="459.5" y="-682.5" font-family="Helvetica,sans-Serif" font-size="10.00">&#45; Max</text>
<polyline fill="none" stroke="black" points="451.5,-675.5 612.5,-675.5 "/>
<text text-anchor="start" x="459.5" y="-663.5" font-family="Helvetica,sans-Serif" font-size="10.00">+ TArray()</text>
<text text-anchor="start" x="459.5" y="-652.5" font-family="Helvetica,sans-Serif" font-size="10.00">+ Num()</text>
<text text-anchor="start" x="459.5" y="-641.5" font-family="Helvetica,sans-Serif" font-size="10.00">+ operator[]()</text>
<text text-anchor="start" x="459.5" y="-630.5" font-family="Helvetica,sans-Serif" font-size="10.00">+ operator[]()</text>
<text text-anchor="start" x="459.5" y="-619.5" font-family="Helvetica,sans-Serif" font-size="10.00">+ IsValidIndex()</text>
<text text-anchor="start" x="459.5" y="-608.5" font-family="Helvetica,sans-Serif" font-size="10.00">+ GetByIndex()</text>
<text text-anchor="start" x="459.5" y="-597.5" font-family="Helvetica,sans-Serif" font-size="10.00">+ GetByIndex()</text>
</a>
</g>
</g>
<!-- Node4&#45;&gt;Node10 -->
<g id="edge11" class="edge">
<title>Node4&#45;&gt;Node10</title>
<path fill="none" stroke="#404040" d="M423.13,-781.51C437.42,-765.35 451.84,-749.06 465.3,-733.85"/>
<polygon fill="none" stroke="#404040" points="465.6,-733.52 466.58,-726.38 473.55,-724.54 472.57,-731.68 465.6,-733.52"/>
<text text-anchor="middle" x="466" y="-746" font-family="Helvetica,sans-Serif" font-size="10.00"> &#45;Data</text>
</g>
<!-- Node12 -->
<g id="node12" class="node">
<title>Node12</title>
<g id="a_node12"><a xlink:href="../../d7/d85/classSDK_1_1UClass.html" target="_top" xlink:title=" ">
<polygon fill="white" stroke="black" points="276.5,-106.5 276.5,-196.5 397.5,-196.5 397.5,-106.5 276.5,-106.5"/>
<text text-anchor="middle" x="337" y="-184.5" font-family="Helvetica,sans-Serif" font-size="10.00">SDK::UClass</text>
<polyline fill="none" stroke="black" points="276.5,-177.5 397.5,-177.5 "/>
<text text-anchor="start" x="284.5" y="-165.5" font-family="Helvetica,sans-Serif" font-size="10.00">+ UnknownData00</text>
<text text-anchor="start" x="284.5" y="-154.5" font-family="Helvetica,sans-Serif" font-size="10.00">+ UnknownData01</text>
<polyline fill="none" stroke="black" points="276.5,-147.5 397.5,-147.5 "/>
<text text-anchor="start" x="284.5" y="-135.5" font-family="Helvetica,sans-Serif" font-size="10.00">+ CreateDefaultObject()</text>
<text text-anchor="start" x="284.5" y="-124.5" font-family="Helvetica,sans-Serif" font-size="10.00">+ CreateDefaultObject()</text>
<text text-anchor="start" x="284.5" y="-113.5" font-family="Helvetica,sans-Serif" font-size="10.00">+ StaticClass()</text>
</a>
</g>
</g>
<!-- Node4&#45;&gt;Node12 -->
<g id="edge21" class="edge">
<title>Node4&#45;&gt;Node12</title>
<path fill="none" stroke="#404040" d="M396.21,-772.44C411.43,-736.95 423,-697.24 423,-658.5 423,-658.5 423,-658.5 423,-310.5 423,-272.79 403.86,-235.49 383.64,-206.62"/>
<polygon fill="none" stroke="#404040" points="383.54,-206.47 376.77,-203.97 376.48,-196.77 383.24,-199.27 383.54,-206.47"/>
<text text-anchor="middle" x="470.5" y="-453.5" font-family="Helvetica,sans-Serif" font-size="10.00"> +ClassDefaultObject</text>
</g>
<!-- Node15 -->
<g id="node15" class="node">
<title>Node15</title>
<g id="a_node15"><a xlink:href="../../de/dd6/classSDK_1_1UField.html" target="_top" xlink:title=" ">
<polygon fill="white" stroke="black" points="262.5,-629 262.5,-686 345.5,-686 345.5,-629 262.5,-629"/>
<text text-anchor="middle" x="304" y="-674" font-family="Helvetica,sans-Serif" font-size="10.00">SDK::UField</text>
<polyline fill="none" stroke="black" points="262.5,-667 345.5,-667 "/>
<text text-anchor="middle" x="304" y="-655" font-family="Helvetica,sans-Serif" font-size="10.00"> </text>
<polyline fill="none" stroke="black" points="262.5,-648 345.5,-648 "/>
<text text-anchor="start" x="270.5" y="-636" font-family="Helvetica,sans-Serif" font-size="10.00">+ StaticClass()</text>
</a>
</g>
</g>
<!-- Node4&#45;&gt;Node15 -->
<g id="edge18" class="edge">
<title>Node4&#45;&gt;Node15</title>
<path fill="none" stroke="midnightblue" d="M312.81,-762.01C310.36,-733.27 308.01,-705.66 306.36,-686.19"/>
<polygon fill="none" stroke="midnightblue" points="309.34,-762.55 313.68,-772.21 316.32,-761.95 309.34,-762.55"/>
</g>
<!-- Node5 -->
<g id="node5" class="node">
<title>Node5</title>
<g id="a_node5"><a xlink:href="../../d0/d22/structSDK_1_1FQWord.html" target="_top" xlink:title=" ">
<polygon fill="white" stroke="black" points="291,-1114 291,-1182 371,-1182 371,-1114 291,-1114"/>
<text text-anchor="middle" x="331" y="-1170" font-family="Helvetica,sans-Serif" font-size="10.00">SDK::FQWord</text>
<polyline fill="none" stroke="black" points="291,-1163 371,-1163 "/>
<text text-anchor="start" x="299" y="-1151" font-family="Helvetica,sans-Serif" font-size="10.00">+ A</text>
<text text-anchor="start" x="299" y="-1140" font-family="Helvetica,sans-Serif" font-size="10.00">+ B</text>
<polyline fill="none" stroke="black" points="291,-1133 371,-1133 "/>
<text text-anchor="middle" x="331" y="-1121" font-family="Helvetica,sans-Serif" font-size="10.00"> </text>
</a>
</g>
</g>
<!-- Node5&#45;&gt;Node4 -->
<g id="edge4" class="edge">
<title>Node5&#45;&gt;Node4</title>
<path fill="none" stroke="#404040" d="M330.08,-1113.86C329.46,-1091.57 328.59,-1060.56 327.71,-1028.9"/>
<polygon fill="none" stroke="#404040" points="327.71,-1028.75 323.54,-1022.86 327.37,-1016.75 331.54,-1022.64 327.71,-1028.75"/>
<text text-anchor="middle" x="360" y="-1049" font-family="Helvetica,sans-Serif" font-size="10.00"> +ObjectFlags</text>
</g>
<!-- Node6 -->
<g id="node6" class="node">
<title>Node6</title>
<g id="a_node6"><a xlink:href="../../d0/db6/structSDK_1_1FName.html" target="_top" xlink:title=" ">
<polygon fill="white" stroke="black" points="165.5,-1086.5 165.5,-1209.5 272.5,-1209.5 272.5,-1086.5 165.5,-1086.5"/>
<text text-anchor="middle" x="219" y="-1197.5" font-family="Helvetica,sans-Serif" font-size="10.00">SDK::FName</text>
<polyline fill="none" stroke="black" points="165.5,-1190.5 272.5,-1190.5 "/>
<text text-anchor="start" x="173.5" y="-1178.5" font-family="Helvetica,sans-Serif" font-size="10.00">+ Index</text>
<text text-anchor="start" x="173.5" y="-1167.5" font-family="Helvetica,sans-Serif" font-size="10.00">+ Number</text>
<polyline fill="none" stroke="black" points="165.5,-1160.5 272.5,-1160.5 "/>
<text text-anchor="start" x="173.5" y="-1148.5" font-family="Helvetica,sans-Serif" font-size="10.00">+ FName()</text>
<text text-anchor="start" x="173.5" y="-1137.5" font-family="Helvetica,sans-Serif" font-size="10.00">+ FName()</text>
<text text-anchor="start" x="173.5" y="-1126.5" font-family="Helvetica,sans-Serif" font-size="10.00">+ FName()</text>
<text text-anchor="start" x="173.5" y="-1115.5" font-family="Helvetica,sans-Serif" font-size="10.00">+ GetName()</text>
<text text-anchor="start" x="173.5" y="-1104.5" font-family="Helvetica,sans-Serif" font-size="10.00">+ operator==()</text>
<text text-anchor="start" x="173.5" y="-1093.5" font-family="Helvetica,sans-Serif" font-size="10.00">+ GetGlobalNames()</text>
</a>
</g>
</g>
<!-- Node6&#45;&gt;Node4 -->
<g id="edge5" class="edge">
<title>Node6&#45;&gt;Node4</title>
<path fill="none" stroke="#404040" d="M244.28,-1086.44C251.74,-1068.57 260.21,-1048.28 268.78,-1027.76"/>
<polygon fill="none" stroke="#404040" points="268.78,-1027.76 267.4,-1020.68 273.41,-1016.69 274.79,-1023.76 268.78,-1027.76"/>
<text text-anchor="middle" x="284" y="-1049" font-family="Helvetica,sans-Serif" font-size="10.00"> +Name</text>
</g>
<!-- Node16 -->
<g id="node16" class="node">
<title>Node16</title>
<g id="a_node16"><a xlink:href="../../d0/d41/classSDK_1_1UFunction.html" target="_top" xlink:title=" ">
<polygon fill="white" stroke="black" points="104.5,-244.5 104.5,-378.5 211.5,-378.5 211.5,-244.5 104.5,-244.5"/>
<text text-anchor="middle" x="158" y="-366.5" font-family="Helvetica,sans-Serif" font-size="10.00">SDK::UFunction</text>
<polyline fill="none" stroke="black" points="104.5,-359.5 211.5,-359.5 "/>
<text text-anchor="start" x="112.5" y="-347.5" font-family="Helvetica,sans-Serif" font-size="10.00">+ FunctionFlags</text>
<text text-anchor="start" x="112.5" y="-336.5" font-family="Helvetica,sans-Serif" font-size="10.00">+ UnknownData00</text>
<text text-anchor="start" x="112.5" y="-325.5" font-family="Helvetica,sans-Serif" font-size="10.00">+ iNative</text>
<text text-anchor="start" x="112.5" y="-314.5" font-family="Helvetica,sans-Serif" font-size="10.00">+ RepOffset</text>
<text text-anchor="start" x="112.5" y="-303.5" font-family="Helvetica,sans-Serif" font-size="10.00">+ NumParms</text>
<text text-anchor="start" x="112.5" y="-292.5" font-family="Helvetica,sans-Serif" font-size="10.00">+ ParmsSize</text>
<text text-anchor="start" x="112.5" y="-281.5" font-family="Helvetica,sans-Serif" font-size="10.00">+ ReturnValueOffset</text>
<text text-anchor="start" x="112.5" y="-270.5" font-family="Helvetica,sans-Serif" font-size="10.00">+ UnknownData01</text>
<polyline fill="none" stroke="black" points="104.5,-263.5 211.5,-263.5 "/>
<text text-anchor="start" x="112.5" y="-251.5" font-family="Helvetica,sans-Serif" font-size="10.00">+ StaticClass()</text>
</a>
</g>
</g>
<!-- Node6&#45;&gt;Node16 -->
<g id="edge25" class="edge">
<title>Node6&#45;&gt;Node16</title>
<path fill="none" stroke="#404040" d="M165.43,-1116.77C100.59,-1075.76 0,-995.95 0,-895.5 0,-895.5 0,-895.5 0,-542 0,-471.63 51.02,-407.12 95.08,-364.54"/>
<polygon fill="none" stroke="#404040" points="95.34,-364.3 96.96,-357.27 104.07,-356.06 102.45,-363.09 95.34,-364.3"/>
<text text-anchor="middle" x="35" y="-655" font-family="Helvetica,sans-Serif" font-size="10.00"> +FriendlyName</text>
</g>
<!-- Node7 -->
<g id="node7" class="node">
<title>Node7</title>
<g id="a_node7"><a xlink:href="../../d3/d79/classSDK_1_1TArray.html" target="_top" xlink:title=" ">
<polygon fill="white" stroke="black" points="153,-1257.5 153,-1391.5 333,-1391.5 333,-1257.5 153,-1257.5"/>
<text text-anchor="middle" x="243" y="-1379.5" font-family="Helvetica,sans-Serif" font-size="10.00">SDK::TArray&lt; SDK::FNameEntry * &gt;</text>
<polyline fill="none" stroke="black" points="153,-1372.5 333,-1372.5 "/>
<text text-anchor="start" x="161" y="-1360.5" font-family="Helvetica,sans-Serif" font-size="10.00">&#45; Count</text>
<text text-anchor="start" x="161" y="-1349.5" font-family="Helvetica,sans-Serif" font-size="10.00">&#45; Max</text>
<polyline fill="none" stroke="black" points="153,-1342.5 333,-1342.5 "/>
<text text-anchor="start" x="161" y="-1330.5" font-family="Helvetica,sans-Serif" font-size="10.00">+ TArray()</text>
<text text-anchor="start" x="161" y="-1319.5" font-family="Helvetica,sans-Serif" font-size="10.00">+ Num()</text>
<text text-anchor="start" x="161" y="-1308.5" font-family="Helvetica,sans-Serif" font-size="10.00">+ operator[]()</text>
<text text-anchor="start" x="161" y="-1297.5" font-family="Helvetica,sans-Serif" font-size="10.00">+ operator[]()</text>
<text text-anchor="start" x="161" y="-1286.5" font-family="Helvetica,sans-Serif" font-size="10.00">+ IsValidIndex()</text>
<text text-anchor="start" x="161" y="-1275.5" font-family="Helvetica,sans-Serif" font-size="10.00">+ GetByIndex()</text>
<text text-anchor="start" x="161" y="-1264.5" font-family="Helvetica,sans-Serif" font-size="10.00">+ GetByIndex()</text>
</a>
</g>
</g>
<!-- Node7&#45;&gt;Node6 -->
<g id="edge6" class="edge">
<title>Node7&#45;&gt;Node6</title>
<path fill="none" stroke="#404040" d="M233.86,-1257.03C232.27,-1245.45 230.6,-1233.35 228.99,-1221.62"/>
<polygon fill="none" stroke="#404040" points="228.96,-1221.44 224.18,-1216.04 227.33,-1209.56 232.11,-1214.95 228.96,-1221.44"/>
<text text-anchor="middle" x="255.5" y="-1231" font-family="Helvetica,sans-Serif" font-size="10.00"> +GNames</text>
</g>
<!-- Node8 -->
<g id="node8" class="node">
<title>Node8</title>
<g id="a_node8"><a xlink:href="../../d7/ddf/classSDK_1_1FNameEntry.html" target="_top" xlink:title=" ">
<polygon fill="white" stroke="black" points="193.5,-1478 193.5,-1546 292.5,-1546 292.5,-1478 193.5,-1478"/>
<text text-anchor="middle" x="243" y="-1534" font-family="Helvetica,sans-Serif" font-size="10.00">SDK::FNameEntry</text>
<polyline fill="none" stroke="black" points="193.5,-1527 292.5,-1527 "/>
<text text-anchor="start" x="201.5" y="-1515" font-family="Helvetica,sans-Serif" font-size="10.00">+ UnknownData00</text>
<text text-anchor="start" x="201.5" y="-1504" font-family="Helvetica,sans-Serif" font-size="10.00">+ name</text>
<polyline fill="none" stroke="black" points="193.5,-1497 292.5,-1497 "/>
<text text-anchor="start" x="201.5" y="-1485" font-family="Helvetica,sans-Serif" font-size="10.00">+ GetName()</text>
</a>
</g>
</g>
<!-- Node8&#45;&gt;Node7 -->
<g id="edge7" class="edge">
<title>Node8&#45;&gt;Node7</title>
<path fill="none" stroke="#404040" d="M243,-1477.84C243,-1457.23 243,-1429.83 243,-1403.95"/>
<polygon fill="none" stroke="#404040" points="243,-1403.8 239,-1397.8 243,-1391.8 247,-1397.8 243,-1403.8"/>
<text text-anchor="middle" x="257" y="-1413" font-family="Helvetica,sans-Serif" font-size="10.00"> &#45;Data</text>
</g>
<!-- Node9 -->
<g id="node9" class="node">
<title>Node9</title>
<g id="a_node9"><a xlink:href="../../d3/d79/classSDK_1_1TArray.html" target="_top" xlink:title=" ">
<polygon fill="white" stroke="black" points="342.5,-1439.5 342.5,-1584.5 439.5,-1584.5 439.5,-1439.5 342.5,-1439.5"/>
<text text-anchor="middle" x="391" y="-1572.5" font-family="Helvetica,sans-Serif" font-size="10.00">SDK::TArray&lt; T &gt;</text>
<polyline fill="none" stroke="black" points="342.5,-1565.5 439.5,-1565.5 "/>
<text text-anchor="start" x="350.5" y="-1553.5" font-family="Helvetica,sans-Serif" font-size="10.00">&#45; Data</text>
<text text-anchor="start" x="350.5" y="-1542.5" font-family="Helvetica,sans-Serif" font-size="10.00">&#45; Count</text>
<text text-anchor="start" x="350.5" y="-1531.5" font-family="Helvetica,sans-Serif" font-size="10.00">&#45; Max</text>
<polyline fill="none" stroke="black" points="342.5,-1524.5 439.5,-1524.5 "/>
<text text-anchor="start" x="350.5" y="-1512.5" font-family="Helvetica,sans-Serif" font-size="10.00">+ TArray()</text>
<text text-anchor="start" x="350.5" y="-1501.5" font-family="Helvetica,sans-Serif" font-size="10.00">+ Num()</text>
<text text-anchor="start" x="350.5" y="-1490.5" font-family="Helvetica,sans-Serif" font-size="10.00">+ operator[]()</text>
<text text-anchor="start" x="350.5" y="-1479.5" font-family="Helvetica,sans-Serif" font-size="10.00">+ operator[]()</text>
<text text-anchor="start" x="350.5" y="-1468.5" font-family="Helvetica,sans-Serif" font-size="10.00">+ IsValidIndex()</text>
<text text-anchor="start" x="350.5" y="-1457.5" font-family="Helvetica,sans-Serif" font-size="10.00">+ GetByIndex()</text>
<text text-anchor="start" x="350.5" y="-1446.5" font-family="Helvetica,sans-Serif" font-size="10.00">+ GetByIndex()</text>
</a>
</g>
</g>
<!-- Node9&#45;&gt;Node7 -->
<g id="edge8" class="edge">
<title>Node9&#45;&gt;Node7</title>
<path fill="none" stroke="orange" d="M335.96,-1442.01C322.81,-1425.54 308.81,-1407.99 295.78,-1391.65"/>
<polygon fill="orange" stroke="orange" points="333.36,-1444.37 342.33,-1450 338.83,-1440 333.36,-1444.37"/>
<text text-anchor="middle" x="372.5" y="-1413" font-family="Helvetica,sans-Serif" font-size="10.00"> &lt; SDK::FNameEntry * &gt;</text>
</g>
<!-- Node9&#45;&gt;Node10 -->
<g id="edge12" class="edge">
<title>Node9&#45;&gt;Node10</title>
<path fill="none" stroke="orange" d="M449.06,-1489.38C511.83,-1461.8 603,-1407.6 603,-1325.5 603,-1325.5 603,-1325.5 603,-893.5 603,-834.58 582.29,-770.76 563.24,-724.52"/>
<polygon fill="orange" stroke="orange" points="447.45,-1486.26 439.64,-1493.42 450.21,-1492.7 447.45,-1486.26"/>
<text text-anchor="middle" x="648.5" y="-1145.5" font-family="Helvetica,sans-Serif" font-size="10.00"> &lt; SDK::UObject * &gt;</text>
</g>
<!-- Node10&#45;&gt;Node4 -->
<g id="edge10" class="edge">
<title>Node10&#45;&gt;Node4</title>
<path fill="none" stroke="#404040" d="M511.62,-724.54C506.99,-734.88 501.48,-745.08 495,-754 477.69,-777.84 455.34,-799.95 432.56,-819.21"/>
<polygon fill="none" stroke="#404040" points="432.37,-819.36 430.3,-826.27 423.12,-827.01 425.2,-820.1 432.37,-819.36"/>
<text text-anchor="middle" x="526.5" y="-746" font-family="Helvetica,sans-Serif" font-size="10.00"> +GObjects</text>
</g>
<!-- Node11 -->
<g id="node11" class="node">
<title>Node11</title>
<g id="a_node11"><a xlink:href="../../d9/dfa/structSDK_1_1FPointer.html" target="_top" xlink:title=" ">
<polygon fill="white" stroke="black" points="444,-1114 444,-1182 542,-1182 542,-1114 444,-1114"/>
<text text-anchor="middle" x="493" y="-1170" font-family="Helvetica,sans-Serif" font-size="10.00">SDK::FPointer</text>
<polyline fill="none" stroke="black" points="444,-1163 542,-1163 "/>
<text text-anchor="start" x="452" y="-1151" font-family="Helvetica,sans-Serif" font-size="10.00">+ Dummy</text>
<text text-anchor="start" x="452" y="-1140" font-family="Helvetica,sans-Serif" font-size="10.00">+ UnknownData00</text>
<polyline fill="none" stroke="black" points="444,-1133 542,-1133 "/>
<text text-anchor="middle" x="493" y="-1121" font-family="Helvetica,sans-Serif" font-size="10.00"> </text>
</a>
</g>
</g>
<!-- Node11&#45;&gt;Node1 -->
<g id="edge26" class="edge">
<title>Node11&#45;&gt;Node1</title>
<path fill="none" stroke="#404040" d="M514.52,-1114C555.57,-1047.77 641,-892.73 641,-749.5 641,-749.5 641,-749.5 641,-150.5 641,-72.3 542.94,-46.66 465.9,-38.59"/>
<polygon fill="none" stroke="#404040" points="465.68,-38.57 459.33,-41.99 453.73,-37.44 460.08,-34.03 465.68,-38.57"/>
<text text-anchor="middle" x="665.5" y="-453.5" font-family="Helvetica,sans-Serif" font-size="10.00"> +BoolProp</text>
</g>
<!-- Node11&#45;&gt;Node4 -->
<g id="edge13" class="edge">
<title>Node11&#45;&gt;Node4</title>
<path fill="none" stroke="#404040" d="M470.73,-1113.86C455.42,-1091.08 433.99,-1059.19 412.23,-1026.81"/>
<polygon fill="none" stroke="#404040" points="412.17,-1026.71 405.5,-1023.96 405.48,-1016.75 412.14,-1019.5 412.17,-1026.71"/>
<text text-anchor="middle" x="472.5" y="-1060" font-family="Helvetica,sans-Serif" font-size="10.00"> +StateFrame</text>
<text text-anchor="middle" x="472.5" y="-1049" font-family="Helvetica,sans-Serif" font-size="10.00">+VfTableObject</text>
<text text-anchor="middle" x="472.5" y="-1038" font-family="Helvetica,sans-Serif" font-size="10.00">+LinkerIndex</text>
</g>
<!-- Node12&#45;&gt;Node4 -->
<g id="edge14" class="edge">
<title>Node12&#45;&gt;Node4</title>
<path fill="none" stroke="#404040" d="M304.35,-196.81C294.98,-211.26 285.53,-227.77 279,-244 199.02,-442.59 206.48,-516.03 253,-725 255.64,-736.86 259.08,-748.94 263.01,-760.9"/>
<polygon fill="none" stroke="#404040" points="263.04,-760.98 268.77,-765.36 266.93,-772.33 261.2,-767.96 263.04,-760.98"/>
<text text-anchor="middle" x="243.5" y="-453.5" font-family="Helvetica,sans-Serif" font-size="10.00"> +Class</text>
</g>
<!-- Node13 -->
<g id="node13" class="node">
<title>Node13</title>
<g id="a_node13"><a xlink:href="../../df/d72/classSDK_1_1UState.html" target="_top" xlink:title=" ">
<polygon fill="white" stroke="black" points="288,-283 288,-340 386,-340 386,-283 288,-283"/>
<text text-anchor="middle" x="337" y="-328" font-family="Helvetica,sans-Serif" font-size="10.00">SDK::UState</text>
<polyline fill="none" stroke="black" points="288,-321 386,-321 "/>
<text text-anchor="start" x="296" y="-309" font-family="Helvetica,sans-Serif" font-size="10.00">+ UnknownData00</text>
<polyline fill="none" stroke="black" points="288,-302 386,-302 "/>
<text text-anchor="start" x="296" y="-290" font-family="Helvetica,sans-Serif" font-size="10.00">+ StaticClass()</text>
</a>
</g>
</g>
<!-- Node13&#45;&gt;Node12 -->
<g id="edge15" class="edge">
<title>Node13&#45;&gt;Node12</title>
<path fill="none" stroke="midnightblue" d="M337,-272.96C337,-250.07 337,-220.71 337,-196.7"/>
<polygon fill="none" stroke="midnightblue" points="333.5,-272.98 337,-282.98 340.5,-272.98 333.5,-272.98"/>
</g>
<!-- Node14 -->
<g id="node14" class="node">
<title>Node14</title>
<g id="a_node14"><a xlink:href="../../d8/de9/classSDK_1_1UStruct.html" target="_top" xlink:title=" ">
<polygon fill="white" stroke="black" points="288,-416.5 288,-495.5 386,-495.5 386,-416.5 288,-416.5"/>
<text text-anchor="middle" x="337" y="-483.5" font-family="Helvetica,sans-Serif" font-size="10.00">SDK::UStruct</text>
<polyline fill="none" stroke="black" points="288,-476.5 386,-476.5 "/>
<text text-anchor="start" x="296" y="-464.5" font-family="Helvetica,sans-Serif" font-size="10.00">+ UnknownData00</text>
<text text-anchor="start" x="296" y="-453.5" font-family="Helvetica,sans-Serif" font-size="10.00">+ PropertySize</text>
<text text-anchor="start" x="296" y="-442.5" font-family="Helvetica,sans-Serif" font-size="10.00">+ UnknownData01</text>
<polyline fill="none" stroke="black" points="288,-435.5 386,-435.5 "/>
<text text-anchor="start" x="296" y="-423.5" font-family="Helvetica,sans-Serif" font-size="10.00">+ StaticClass()</text>
</a>
</g>
</g>
<!-- Node14&#45;&gt;Node13 -->
<g id="edge16" class="edge">
<title>Node14&#45;&gt;Node13</title>
<path fill="none" stroke="midnightblue" d="M337,-406.25C337,-384.21 337,-358.98 337,-340.25"/>
<polygon fill="none" stroke="midnightblue" points="333.5,-406.44 337,-416.44 340.5,-406.44 333.5,-406.44"/>
</g>
<!-- Node14&#45;&gt;Node16 -->
<g id="edge24" class="edge">
<title>Node14&#45;&gt;Node16</title>
<path fill="none" stroke="midnightblue" d="M280.58,-410.09C258.51,-392.51 233.31,-372.45 211.52,-355.11"/>
<polygon fill="none" stroke="midnightblue" points="278.56,-412.95 288.56,-416.44 282.92,-407.47 278.56,-412.95"/>
</g>
<!-- Node15&#45;&gt;Node14 -->
<g id="edge17" class="edge">
<title>Node15&#45;&gt;Node14</title>
<path fill="none" stroke="midnightblue" d="M305.4,-618.81C307.03,-589.88 310.53,-549.08 318,-514 319.28,-507.98 320.98,-501.71 322.84,-495.62"/>
<polygon fill="none" stroke="midnightblue" points="301.9,-618.74 304.88,-628.9 308.89,-619.1 301.9,-618.74"/>
</g>
<!-- Node15&#45;&gt;Node14 -->
<g id="edge20" class="edge">
<title>Node15&#45;&gt;Node14</title>
<path fill="none" stroke="#404040" d="M308.59,-628.76C313.75,-597.56 322.24,-546.22 328.6,-507.78"/>
<polygon fill="none" stroke="#404040" points="328.62,-507.64 325.66,-501.07 330.58,-495.8 333.55,-502.37 328.62,-507.64"/>
<text text-anchor="middle" x="356" y="-546" font-family="Helvetica,sans-Serif" font-size="10.00"> +SuperField</text>
<text text-anchor="middle" x="356" y="-535" font-family="Helvetica,sans-Serif" font-size="10.00">+Children</text>
</g>
<!-- Node15&#45;&gt;Node15 -->
<g id="edge19" class="edge">
<title>Node15&#45;&gt;Node15</title>
<path fill="none" stroke="#404040" d="M345.71,-674.11C355.91,-672.88 363.5,-667.34 363.5,-657.5 363.5,-651.96 361.1,-647.79 357.18,-644.98"/>
<polygon fill="none" stroke="#404040" points="357.01,-644.92 350.01,-646.67 345.71,-640.89 352.7,-639.13 357.01,-644.92"/>
<text text-anchor="middle" x="379" y="-655" font-family="Helvetica,sans-Serif" font-size="10.00"> +Next</text>
</g>
<!-- Node16&#45;&gt;Node2 -->
<g id="edge23" class="edge">
<title>Node16&#45;&gt;Node2</title>
<path fill="none" stroke="#404040" d="M118.16,-244.5C115.17,-238.35 112.39,-232.13 110,-226 105.85,-215.36 102.55,-203.44 100.01,-192.35"/>
<polygon fill="none" stroke="#404040" points="99.95,-192.03 94.79,-186.99 97.46,-180.29 102.62,-185.33 99.95,-192.03"/>
<text text-anchor="middle" x="168" y="-218" font-family="Helvetica,sans-Serif" font-size="10.00"> +PropertyUpdateCallback</text>
</g>
</g>
</svg>
        <g id="navigator" transform="translate(0 0)" fill="#404254">
                <rect fill="#f2f5e9" fill-opacity="0.5" stroke="#606060" stroke-width=".5" x="0" y="0" width="60" height="60"/>
                <use id="zoomplus" xlink:href="#zoomPlus" x="17" y="9" onmousedown="handleZoom(evt,'in')"/>
                <use id="zoomminus" xlink:href="#zoomMin" x="42" y="9" onmousedown="handleZoom(evt,'out')"/>
                <use id="reset" xlink:href="#resetDef" x="30" y="36" onmousedown="handleReset()"/>
                <g id="arrowUp" xlink:href="#dirArrow" transform="translate(30 24)" onmousedown="handlePan(0,-1)">
                  <use xlink:href="#rim" fill="#404040">
                        <set attributeName="fill" to="#808080" begin="arrowUp.mouseover" end="arrowUp.mouseout"/>
                  </use>
                  <path fill="none" stroke="white" stroke-width="1.5" d="M0,-3.0v7 M-2.5,-0.5L0,-3.0L2.5,-0.5"/>
                </g>
                <g id="arrowRight" xlink:href="#dirArrow" transform="rotate(90) translate(36 -43)" onmousedown="handlePan(1,0)">
                  <use xlink:href="#rim" fill="#404040">
                        <set attributeName="fill" to="#808080" begin="arrowRight.mouseover" end="arrowRight.mouseout"/>
                  </use>
                  <path fill="none" stroke="white" stroke-width="1.5" d="M0,-3.0v7 M-2.5,-0.5L0,-3.0L2.5,-0.5"/>
                </g>
                <g id="arrowDown" xlink:href="#dirArrow" transform="rotate(180) translate(-30 -48)" onmousedown="handlePan(0,1)">
                  <use xlink:href="#rim" fill="#404040">
                        <set attributeName="fill" to="#808080" begin="arrowDown.mouseover" end="arrowDown.mouseout"/>
                  </use>
                  <path fill="none" stroke="white" stroke-width="1.5" d="M0,-3.0v7 M-2.5,-0.5L0,-3.0L2.5,-0.5"/>
                </g>
                <g id="arrowLeft" xlink:href="#dirArrow" transform="rotate(270) translate(-36 17)" onmousedown="handlePan(-1,0)">
                  <use xlink:href="#rim" fill="#404040">
                        <set attributeName="fill" to="#808080" begin="arrowLeft.mouseover" end="arrowLeft.mouseout"/>
                  </use>
                  <path fill="none" stroke="white" stroke-width="1.5" d="M0,-3.0v7 M-2.5,-0.5L0,-3.0L2.5,-0.5"/>
                </g>
        </g>
        <svg viewBox="0 0 15 15" width="100%" height="30px" preserveAspectRatio="xMaxYMin meet">
         <g id="arrow_out" transform="scale(0.3 0.3)">
          <a xlink:href="classSDK_1_1UInterpTrackInstBoolProp__coll__graph_org.svg" target="_base">
           <rect id="button" ry="5" rx="5" y="6" x="6" height="38" width="38"
                fill="#f2f5e9" fill-opacity="0.5" stroke="#606060" stroke-width="1.0"/>
           <path id="arrow"
             d="M 11.500037,31.436501 C 11.940474,20.09759 22.043105,11.32322 32.158766,21.979434 L 37.068811,17.246167 C 37.068811,17.246167 37.088388,32 37.088388,32 L 22.160133,31.978069 C 22.160133,31.978069 26.997745,27.140456 26.997745,27.140456 C 18.528582,18.264221 13.291696,25.230495 11.500037,31.436501 z"
             style="fill:#404040;"/>
          </a>
         </g>
        </svg>
</svg>
