<?xml version="1.0" encoding="UTF-8" standalone="no"?>
<!DOCTYPE svg PUBLIC "-//W3C//DTD SVG 1.1//EN"
 "http://www.w3.org/Graphics/SVG/1.1/DTD/svg11.dtd">
<!-- Generated by graphviz version 2.41.20171026.1811 (20171026.1811)
 -->
<!-- Title: SDK::UParticleModuleVelocityBase Pages: 1 -->
<svg width="873pt" height="937pt"
 viewBox="0.00 0.00 872.50 937.00" xmlns="http://www.w3.org/2000/svg" xmlns:xlink="http://www.w3.org/1999/xlink">
<g id="graph0" class="graph" transform="scale(1 1) rotate(0) translate(4 933)">
<title>SDK::UParticleModuleVelocityBase</title>
<polygon fill="white" stroke="transparent" points="-4,4 -4,-933 868.5,-933 868.5,4 -4,4"/>
<!-- Node1 -->
<g id="node1" class="node">
<title>Node1</title>
<g id="a_node1"><a xlink:title=" ">
<polygon fill="#bfbfbf" stroke="black" points="352.5,-221.5 352.5,-289.5 525.5,-289.5 525.5,-221.5 352.5,-221.5"/>
<text text-anchor="middle" x="439" y="-277.5" font-family="Helvetica,sans-Serif" font-size="10.00">SDK::UParticleModuleVelocityBase</text>
<polyline fill="none" stroke="black" points="352.5,-270.5 525.5,-270.5 "/>
<text text-anchor="start" x="360.5" y="-258.5" font-family="Helvetica,sans-Serif" font-size="10.00">+ bInWorldSpace</text>
<text text-anchor="start" x="360.5" y="-247.5" font-family="Helvetica,sans-Serif" font-size="10.00">+ bApplyOwnerScale</text>
<polyline fill="none" stroke="black" points="352.5,-240.5 525.5,-240.5 "/>
<text text-anchor="start" x="360.5" y="-228.5" font-family="Helvetica,sans-Serif" font-size="10.00">+ StaticClass()</text>
</a>
</g>
</g>
<!-- Node4 -->
<g id="node4" class="node">
<title>Node4</title>
<g id="a_node4"><a xlink:href="../../d1/d58/classSDK_1_1UEFParticleModuleVelocityOverLifetime.html" target="_top" xlink:title=" ">
<polygon fill="white" stroke="black" points="0,-105.5 0,-184.5 164,-184.5 164,-105.5 0,-105.5"/>
<text text-anchor="start" x="8" y="-172.5" font-family="Helvetica,sans-Serif" font-size="10.00">SDK::UEFParticleModuleVelocity</text>
<text text-anchor="middle" x="82" y="-161.5" font-family="Helvetica,sans-Serif" font-size="10.00">OverLifetime</text>
<polyline fill="none" stroke="black" points="0,-154.5 164,-154.5 "/>
<text text-anchor="start" x="8" y="-142.5" font-family="Helvetica,sans-Serif" font-size="10.00">+ VelOverLife</text>
<text text-anchor="start" x="8" y="-131.5" font-family="Helvetica,sans-Serif" font-size="10.00">+ Absolute</text>
<polyline fill="none" stroke="black" points="0,-124.5 164,-124.5 "/>
<text text-anchor="start" x="8" y="-112.5" font-family="Helvetica,sans-Serif" font-size="10.00">+ StaticClass()</text>
</a>
</g>
</g>
<!-- Node1&#45;&gt;Node4 -->
<g id="edge3" class="edge">
<title>Node1&#45;&gt;Node4</title>
<path fill="none" stroke="midnightblue" d="M342.36,-232.93C291.43,-220.65 228.24,-203.94 173,-185 170.07,-184 167.11,-182.94 164.12,-181.85"/>
<polygon fill="none" stroke="midnightblue" points="341.84,-236.41 352.38,-235.33 343.47,-229.6 341.84,-236.41"/>
</g>
<!-- Node5 -->
<g id="node5" class="node">
<title>Node5</title>
<g id="a_node5"><a xlink:href="../../dd/d5f/classSDK_1_1UParticleModuleVelocity.html" target="_top" xlink:title=" ">
<polygon fill="white" stroke="black" points="182.5,-111 182.5,-179 333.5,-179 333.5,-111 182.5,-111"/>
<text text-anchor="middle" x="258" y="-167" font-family="Helvetica,sans-Serif" font-size="10.00">SDK::UParticleModuleVelocity</text>
<polyline fill="none" stroke="black" points="182.5,-160 333.5,-160 "/>
<text text-anchor="start" x="190.5" y="-148" font-family="Helvetica,sans-Serif" font-size="10.00">+ StartVelocity</text>
<text text-anchor="start" x="190.5" y="-137" font-family="Helvetica,sans-Serif" font-size="10.00">+ StartVelocityRadial</text>
<polyline fill="none" stroke="black" points="182.5,-130 333.5,-130 "/>
<text text-anchor="start" x="190.5" y="-118" font-family="Helvetica,sans-Serif" font-size="10.00">+ StaticClass()</text>
</a>
</g>
</g>
<!-- Node1&#45;&gt;Node5 -->
<g id="edge4" class="edge">
<title>Node1&#45;&gt;Node5</title>
<path fill="none" stroke="midnightblue" d="M374.91,-216.08C354.78,-204.01 332.73,-190.8 313.26,-179.13"/>
<polygon fill="none" stroke="midnightblue" points="373.33,-219.22 383.71,-221.36 376.93,-213.21 373.33,-219.22"/>
</g>
<!-- Node7 -->
<g id="node7" class="node">
<title>Node7</title>
<g id="a_node7"><a xlink:href="../../d8/df2/classSDK_1_1UParticleModuleVelocityCone.html" target="_top" xlink:title=" ">
<polygon fill="white" stroke="black" points="352,-105.5 352,-184.5 526,-184.5 526,-105.5 352,-105.5"/>
<text text-anchor="middle" x="439" y="-172.5" font-family="Helvetica,sans-Serif" font-size="10.00">SDK::UParticleModuleVelocityCone</text>
<polyline fill="none" stroke="black" points="352,-165.5 526,-165.5 "/>
<text text-anchor="start" x="360" y="-153.5" font-family="Helvetica,sans-Serif" font-size="10.00">+ Angle</text>
<text text-anchor="start" x="360" y="-142.5" font-family="Helvetica,sans-Serif" font-size="10.00">+ Velocity</text>
<text text-anchor="start" x="360" y="-131.5" font-family="Helvetica,sans-Serif" font-size="10.00">+ Direction</text>
<polyline fill="none" stroke="black" points="352,-124.5 526,-124.5 "/>
<text text-anchor="start" x="360" y="-112.5" font-family="Helvetica,sans-Serif" font-size="10.00">+ StaticClass()</text>
</a>
</g>
</g>
<!-- Node1&#45;&gt;Node7 -->
<g id="edge6" class="edge">
<title>Node1&#45;&gt;Node7</title>
<path fill="none" stroke="midnightblue" d="M439,-211.27C439,-202.48 439,-193.28 439,-184.65"/>
<polygon fill="none" stroke="midnightblue" points="435.5,-211.36 439,-221.36 442.5,-211.36 435.5,-211.36"/>
</g>
<!-- Node8 -->
<g id="node8" class="node">
<title>Node8</title>
<g id="a_node8"><a xlink:href="../../da/d15/classSDK_1_1UParticleModuleVelocityInheritParent.html" target="_top" xlink:title=" ">
<polygon fill="white" stroke="black" points="544.5,-111 544.5,-179 695.5,-179 695.5,-111 544.5,-111"/>
<text text-anchor="start" x="552.5" y="-167" font-family="Helvetica,sans-Serif" font-size="10.00">SDK::UParticleModuleVelocity</text>
<text text-anchor="middle" x="620" y="-156" font-family="Helvetica,sans-Serif" font-size="10.00">InheritParent</text>
<polyline fill="none" stroke="black" points="544.5,-149 695.5,-149 "/>
<text text-anchor="start" x="552.5" y="-137" font-family="Helvetica,sans-Serif" font-size="10.00">+ Scale</text>
<polyline fill="none" stroke="black" points="544.5,-130 695.5,-130 "/>
<text text-anchor="start" x="552.5" y="-118" font-family="Helvetica,sans-Serif" font-size="10.00">+ StaticClass()</text>
</a>
</g>
</g>
<!-- Node1&#45;&gt;Node8 -->
<g id="edge7" class="edge">
<title>Node1&#45;&gt;Node8</title>
<path fill="none" stroke="midnightblue" d="M503.09,-216.08C523.22,-204.01 545.27,-190.8 564.74,-179.13"/>
<polygon fill="none" stroke="midnightblue" points="501.07,-213.21 494.29,-221.36 504.67,-219.22 501.07,-213.21"/>
</g>
<!-- Node9 -->
<g id="node9" class="node">
<title>Node9</title>
<g id="a_node9"><a xlink:href="../../d9/d13/classSDK_1_1UParticleModuleVelocityOverLifetime.html" target="_top" xlink:title=" ">
<polygon fill="white" stroke="black" points="713.5,-105.5 713.5,-184.5 864.5,-184.5 864.5,-105.5 713.5,-105.5"/>
<text text-anchor="start" x="721.5" y="-172.5" font-family="Helvetica,sans-Serif" font-size="10.00">SDK::UParticleModuleVelocity</text>
<text text-anchor="middle" x="789" y="-161.5" font-family="Helvetica,sans-Serif" font-size="10.00">OverLifetime</text>
<polyline fill="none" stroke="black" points="713.5,-154.5 864.5,-154.5 "/>
<text text-anchor="start" x="721.5" y="-142.5" font-family="Helvetica,sans-Serif" font-size="10.00">+ VelOverLife</text>
<text text-anchor="start" x="721.5" y="-131.5" font-family="Helvetica,sans-Serif" font-size="10.00">+ Absolute</text>
<polyline fill="none" stroke="black" points="713.5,-124.5 864.5,-124.5 "/>
<text text-anchor="start" x="721.5" y="-112.5" font-family="Helvetica,sans-Serif" font-size="10.00">+ StaticClass()</text>
</a>
</g>
</g>
<!-- Node1&#45;&gt;Node9 -->
<g id="edge8" class="edge">
<title>Node1&#45;&gt;Node9</title>
<path fill="none" stroke="midnightblue" d="M535.58,-233.67C586.62,-221.57 649.94,-204.79 705,-185 707.72,-184.02 710.48,-182.99 713.25,-181.91"/>
<polygon fill="none" stroke="midnightblue" points="534.48,-230.34 525.54,-236.03 536.08,-237.15 534.48,-230.34"/>
</g>
<!-- Node2 -->
<g id="node2" class="node">
<title>Node2</title>
<g id="a_node2"><a xlink:href="../../d5/df1/classSDK_1_1UParticleModule.html" target="_top" xlink:title=" ">
<polygon fill="white" stroke="black" points="362.5,-326.5 362.5,-537.5 515.5,-537.5 515.5,-326.5 362.5,-326.5"/>
<text text-anchor="middle" x="439" y="-525.5" font-family="Helvetica,sans-Serif" font-size="10.00">SDK::UParticleModule</text>
<polyline fill="none" stroke="black" points="362.5,-518.5 515.5,-518.5 "/>
<text text-anchor="start" x="370.5" y="-506.5" font-family="Helvetica,sans-Serif" font-size="10.00">+ bSpawnModule</text>
<text text-anchor="start" x="370.5" y="-495.5" font-family="Helvetica,sans-Serif" font-size="10.00">+ bUpdateModule</text>
<text text-anchor="start" x="370.5" y="-484.5" font-family="Helvetica,sans-Serif" font-size="10.00">+ bFinalUpdateModule</text>
<text text-anchor="start" x="370.5" y="-473.5" font-family="Helvetica,sans-Serif" font-size="10.00">+ bCurvesAsColor</text>
<text text-anchor="start" x="370.5" y="-462.5" font-family="Helvetica,sans-Serif" font-size="10.00">+ b3DDrawMode</text>
<text text-anchor="start" x="370.5" y="-451.5" font-family="Helvetica,sans-Serif" font-size="10.00">+ EnableToggle3DDrawMode</text>
<text text-anchor="start" x="370.5" y="-440.5" font-family="Helvetica,sans-Serif" font-size="10.00">+ bSupported3DDrawMode</text>
<text text-anchor="start" x="370.5" y="-429.5" font-family="Helvetica,sans-Serif" font-size="10.00">+ bEnabled</text>
<text text-anchor="start" x="370.5" y="-418.5" font-family="Helvetica,sans-Serif" font-size="10.00">+ bEditable</text>
<text text-anchor="start" x="370.5" y="-407.5" font-family="Helvetica,sans-Serif" font-size="10.00">+ LODDuplicate</text>
<text text-anchor="start" x="370.5" y="-396.5" font-family="Helvetica,sans-Serif" font-size="10.00">+ bSupportsRandomSeed</text>
<text text-anchor="start" x="370.5" y="-385.5" font-family="Helvetica,sans-Serif" font-size="10.00">+ bRequiresLoopingNotification</text>
<text text-anchor="start" x="370.5" y="-374.5" font-family="Helvetica,sans-Serif" font-size="10.00">+ LODValidity</text>
<text text-anchor="start" x="370.5" y="-363.5" font-family="Helvetica,sans-Serif" font-size="10.00">+ UnknownData00</text>
<text text-anchor="start" x="370.5" y="-352.5" font-family="Helvetica,sans-Serif" font-size="10.00">+ ModuleEditorColor</text>
<polyline fill="none" stroke="black" points="362.5,-345.5 515.5,-345.5 "/>
<text text-anchor="start" x="370.5" y="-333.5" font-family="Helvetica,sans-Serif" font-size="10.00">+ StaticClass()</text>
</a>
</g>
</g>
<!-- Node2&#45;&gt;Node1 -->
<g id="edge1" class="edge">
<title>Node2&#45;&gt;Node1</title>
<path fill="none" stroke="midnightblue" d="M439,-316.38C439,-306.85 439,-297.81 439,-289.77"/>
<polygon fill="none" stroke="midnightblue" points="435.5,-316.47 439,-326.47 442.5,-316.47 435.5,-316.47"/>
</g>
<!-- Node3 -->
<g id="node3" class="node">
<title>Node3</title>
<g id="a_node3"><a xlink:href="../../d9/d45/classSDK_1_1UObject.html" target="_top" xlink:title=" ">
<polygon fill="white" stroke="black" points="340,-574.5 340,-928.5 538,-928.5 538,-574.5 340,-574.5"/>
<text text-anchor="middle" x="439" y="-916.5" font-family="Helvetica,sans-Serif" font-size="10.00">SDK::UObject</text>
<polyline fill="none" stroke="black" points="340,-909.5 538,-909.5 "/>
<text text-anchor="start" x="348" y="-897.5" font-family="Helvetica,sans-Serif" font-size="10.00">+ VfTableObject</text>
<text text-anchor="start" x="348" y="-886.5" font-family="Helvetica,sans-Serif" font-size="10.00">+ ObjectFlags</text>
<text text-anchor="start" x="348" y="-875.5" font-family="Helvetica,sans-Serif" font-size="10.00">+ StateFrame</text>
<text text-anchor="start" x="348" y="-864.5" font-family="Helvetica,sans-Serif" font-size="10.00">+ Linker</text>
<text text-anchor="start" x="348" y="-853.5" font-family="Helvetica,sans-Serif" font-size="10.00">+ LinkerIndex</text>
<text text-anchor="start" x="348" y="-842.5" font-family="Helvetica,sans-Serif" font-size="10.00">+ ObjectInternalInteger</text>
<text text-anchor="start" x="348" y="-831.5" font-family="Helvetica,sans-Serif" font-size="10.00">+ NetIndex</text>
<text text-anchor="start" x="348" y="-820.5" font-family="Helvetica,sans-Serif" font-size="10.00">+ Outer</text>
<text text-anchor="start" x="348" y="-809.5" font-family="Helvetica,sans-Serif" font-size="10.00">+ Name</text>
<text text-anchor="start" x="348" y="-798.5" font-family="Helvetica,sans-Serif" font-size="10.00">+ Class</text>
<text text-anchor="start" x="348" y="-787.5" font-family="Helvetica,sans-Serif" font-size="10.00">+ ObjectArchetype</text>
<text text-anchor="start" x="348" y="-776.5" font-family="Helvetica,sans-Serif" font-size="10.00">+ GObjects</text>
<polyline fill="none" stroke="black" points="340,-769.5 538,-769.5 "/>
<text text-anchor="start" x="348" y="-757.5" font-family="Helvetica,sans-Serif" font-size="10.00">+ UObject::GetName()</text>
<text text-anchor="start" x="348" y="-746.5" font-family="Helvetica,sans-Serif" font-size="10.00">+ GetFullName()</text>
<text text-anchor="start" x="348" y="-735.5" font-family="Helvetica,sans-Serif" font-size="10.00">+ IsA()</text>
<text text-anchor="start" x="348" y="-724.5" font-family="Helvetica,sans-Serif" font-size="10.00">+ ProcessEvent()</text>
<text text-anchor="start" x="348" y="-713.5" font-family="Helvetica,sans-Serif" font-size="10.00">+ STATIC_ProfNodeEvent()</text>
<text text-anchor="start" x="348" y="-702.5" font-family="Helvetica,sans-Serif" font-size="10.00">+ STATIC_ProfNodeSetDepthThreshold()</text>
<text text-anchor="start" x="348" y="-691.5" font-family="Helvetica,sans-Serif" font-size="10.00">+ STATIC_ProfNodeSetTimeThreshold</text>
<text text-anchor="start" x="348" y="-680.5" font-family="Helvetica,sans-Serif" font-size="10.00">Seconds()</text>
<text text-anchor="start" x="348" y="-669.5" font-family="Helvetica,sans-Serif" font-size="10.00">+ STATIC_ProfNodeStop()</text>
<text text-anchor="start" x="348" y="-658.5" font-family="Helvetica,sans-Serif" font-size="10.00">+ STATIC_ProfNodeStart()</text>
<text text-anchor="start" x="348" y="-647.5" font-family="Helvetica,sans-Serif" font-size="10.00">+ STATIC_GetStringFromGuid()</text>
<text text-anchor="start" x="348" y="-636.5" font-family="Helvetica,sans-Serif" font-size="10.00">and 298 more...</text>
<text text-anchor="start" x="348" y="-625.5" font-family="Helvetica,sans-Serif" font-size="10.00">+ GetGlobalObjects()</text>
<text text-anchor="start" x="348" y="-614.5" font-family="Helvetica,sans-Serif" font-size="10.00">+ FindObject()</text>
<text text-anchor="start" x="348" y="-603.5" font-family="Helvetica,sans-Serif" font-size="10.00">+ FindClass()</text>
<text text-anchor="start" x="348" y="-592.5" font-family="Helvetica,sans-Serif" font-size="10.00">+ GetObjectCasted()</text>
<text text-anchor="start" x="348" y="-581.5" font-family="Helvetica,sans-Serif" font-size="10.00">+ StaticClass()</text>
</a>
</g>
</g>
<!-- Node3&#45;&gt;Node2 -->
<g id="edge2" class="edge">
<title>Node3&#45;&gt;Node2</title>
<path fill="none" stroke="midnightblue" d="M439,-563.96C439,-555.01 439,-546.19 439,-537.6"/>
<polygon fill="none" stroke="midnightblue" points="435.5,-564.11 439,-574.11 442.5,-564.11 435.5,-564.11"/>
</g>
<!-- Node6 -->
<g id="node6" class="node">
<title>Node6</title>
<g id="a_node6"><a xlink:href="../../d3/d56/classSDK_1_1UParticleModuleVelocity__Seeded.html" target="_top" xlink:title=" ">
<polygon fill="white" stroke="black" points="182.5,-0.5 182.5,-68.5 333.5,-68.5 333.5,-0.5 182.5,-0.5"/>
<text text-anchor="start" x="190.5" y="-56.5" font-family="Helvetica,sans-Serif" font-size="10.00">SDK::UParticleModuleVelocity</text>
<text text-anchor="middle" x="258" y="-45.5" font-family="Helvetica,sans-Serif" font-size="10.00">_Seeded</text>
<polyline fill="none" stroke="black" points="182.5,-38.5 333.5,-38.5 "/>
<text text-anchor="start" x="190.5" y="-26.5" font-family="Helvetica,sans-Serif" font-size="10.00">+ RandomSeedInfo</text>
<polyline fill="none" stroke="black" points="182.5,-19.5 333.5,-19.5 "/>
<text text-anchor="start" x="190.5" y="-7.5" font-family="Helvetica,sans-Serif" font-size="10.00">+ StaticClass()</text>
</a>
</g>
</g>
<!-- Node5&#45;&gt;Node6 -->
<g id="edge5" class="edge">
<title>Node5&#45;&gt;Node6</title>
<path fill="none" stroke="midnightblue" d="M258,-100.54C258,-89.97 258,-78.83 258,-68.81"/>
<polygon fill="none" stroke="midnightblue" points="254.5,-100.86 258,-110.86 261.5,-100.86 254.5,-100.86"/>
</g>
</g>
</svg>
