<?xml version="1.0" encoding="UTF-8" standalone="no"?>
<!DOCTYPE svg PUBLIC "-//W3C//DTD SVG 1.1//EN"
 "http://www.w3.org/Graphics/SVG/1.1/DTD/svg11.dtd">
<!-- Generated by graphviz version 2.41.20171026.1811 (20171026.1811)
 -->
<!-- Title: SDK::UEFData Pages: 1 -->
<!--zoomable 1364 -->
<svg id="main" version="1.1" xmlns="http://www.w3.org/2000/svg" xmlns:xlink="http://www.w3.org/1999/xlink" xml:space="preserve" onload="init(evt)">
<style type="text/css"><![CDATA[
.edge:hover path { stroke: red; }
.edge:hover polygon { stroke: red; fill: red; }
]]></style>
<script type="text/javascript"><![CDATA[
var edges = document.getElementsByTagName('g');
if (edges && edges.length) {
  for (var i=0;i<edges.length;i++) {
    if (edges[i].id.substr(0,4)=='edge') {
      edges[i].setAttribute('class','edge');
    }
  }
}
]]></script>
        <defs>
                <circle id="rim" cx="0" cy="0" r="7"/>
                <circle id="rim2" cx="0" cy="0" r="3.5"/>
                <g id="zoomPlus">
                        <use xlink:href="#rim" fill="#404040">
                                <set attributeName="fill" to="#808080" begin="zoomplus.mouseover" end="zoomplus.mouseout"/>
                        </use>
                        <path d="M-4,0h8M0,-4v8" fill="none" stroke="white" stroke-width="1.5" pointer-events="none"/>
                </g>
                <g id="zoomMin">
                        <use xlink:href="#rim" fill="#404040">
                                <set attributeName="fill" to="#808080" begin="zoomminus.mouseover" end="zoomminus.mouseout"/>
                        </use>
                        <path d="M-4,0h8" fill="none" stroke="white" stroke-width="1.5" pointer-events="none"/>
                </g>
                <g id="dirArrow">
                        <path fill="none" stroke="white" stroke-width="1.5" d="M0,-3.0v7 M-2.5,-0.5L0,-3.0L2.5,-0.5"/>
                </g>
               <g id="resetDef">
                       <use xlink:href="#rim2" fill="#404040">
                               <set attributeName="fill" to="#808080" begin="reset.mouseover" end="reset.mouseout"/>
                       </use>
               </g>
        </defs>

<script type="text/javascript">
var viewWidth = 671;
var viewHeight = 1364;
var sectionId = 'dynsection-1';
</script>
<script xlink:href="../../svgpan.js"/>
<svg id="graph" class="graph">
<g id="viewport">
<title>SDK::UEFData</title>
<polygon fill="white" stroke="transparent" points="-4,4 -4,-1360 667,-1360 667,4 -4,4"/>
<!-- Node1 -->
<g id="node1" class="node">
<title>Node1</title>
<g id="a_node1"><a xlink:title=" ">
<polygon fill="#bfbfbf" stroke="black" points="179.5,-383.5 179.5,-473.5 343.5,-473.5 343.5,-383.5 179.5,-383.5"/>
<text text-anchor="middle" x="261.5" y="-461.5" font-family="Helvetica,sans-Serif" font-size="10.00">SDK::UEFData</text>
<polyline fill="none" stroke="black" points="179.5,-454.5 343.5,-454.5 "/>
<text text-anchor="start" x="187.5" y="-442.5" font-family="Helvetica,sans-Serif" font-size="10.00">+ PrimaryKey</text>
<text text-anchor="start" x="187.5" y="-431.5" font-family="Helvetica,sans-Serif" font-size="10.00">+ SecondaryKey</text>
<text text-anchor="start" x="187.5" y="-420.5" font-family="Helvetica,sans-Serif" font-size="10.00">+ bUpdatedObjectsFromPaths</text>
<text text-anchor="start" x="187.5" y="-409.5" font-family="Helvetica,sans-Serif" font-size="10.00">+ bPostUpdateObjectsFromPaths</text>
<polyline fill="none" stroke="black" points="179.5,-402.5 343.5,-402.5 "/>
<text text-anchor="start" x="187.5" y="-390.5" font-family="Helvetica,sans-Serif" font-size="10.00">+ StaticClass()</text>
</a>
</g>
</g>
<!-- Node2 -->
<g id="node2" class="node">
<title>Node2</title>
<g id="a_node2"><a xlink:href="../../d9/d45/classSDK_1_1UObject.html" target="_top" xlink:title=" ">
<polygon fill="white" stroke="black" points="266.5,-543.5 266.5,-787.5 464.5,-787.5 464.5,-543.5 266.5,-543.5"/>
<text text-anchor="middle" x="365.5" y="-775.5" font-family="Helvetica,sans-Serif" font-size="10.00">SDK::UObject</text>
<polyline fill="none" stroke="black" points="266.5,-768.5 464.5,-768.5 "/>
<text text-anchor="start" x="274.5" y="-756.5" font-family="Helvetica,sans-Serif" font-size="10.00">+ ObjectInternalInteger</text>
<text text-anchor="start" x="274.5" y="-745.5" font-family="Helvetica,sans-Serif" font-size="10.00">+ NetIndex</text>
<polyline fill="none" stroke="black" points="266.5,-738.5 464.5,-738.5 "/>
<text text-anchor="start" x="274.5" y="-726.5" font-family="Helvetica,sans-Serif" font-size="10.00">+ UObject::GetName()</text>
<text text-anchor="start" x="274.5" y="-715.5" font-family="Helvetica,sans-Serif" font-size="10.00">+ GetFullName()</text>
<text text-anchor="start" x="274.5" y="-704.5" font-family="Helvetica,sans-Serif" font-size="10.00">+ IsA()</text>
<text text-anchor="start" x="274.5" y="-693.5" font-family="Helvetica,sans-Serif" font-size="10.00">+ ProcessEvent()</text>
<text text-anchor="start" x="274.5" y="-682.5" font-family="Helvetica,sans-Serif" font-size="10.00">+ STATIC_ProfNodeEvent()</text>
<text text-anchor="start" x="274.5" y="-671.5" font-family="Helvetica,sans-Serif" font-size="10.00">+ STATIC_ProfNodeSetDepthThreshold()</text>
<text text-anchor="start" x="274.5" y="-660.5" font-family="Helvetica,sans-Serif" font-size="10.00">+ STATIC_ProfNodeSetTimeThreshold</text>
<text text-anchor="start" x="274.5" y="-649.5" font-family="Helvetica,sans-Serif" font-size="10.00">Seconds()</text>
<text text-anchor="start" x="274.5" y="-638.5" font-family="Helvetica,sans-Serif" font-size="10.00">+ STATIC_ProfNodeStop()</text>
<text text-anchor="start" x="274.5" y="-627.5" font-family="Helvetica,sans-Serif" font-size="10.00">+ STATIC_ProfNodeStart()</text>
<text text-anchor="start" x="274.5" y="-616.5" font-family="Helvetica,sans-Serif" font-size="10.00">+ STATIC_GetStringFromGuid()</text>
<text text-anchor="start" x="274.5" y="-605.5" font-family="Helvetica,sans-Serif" font-size="10.00">and 298 more...</text>
<text text-anchor="start" x="274.5" y="-594.5" font-family="Helvetica,sans-Serif" font-size="10.00">+ GetGlobalObjects()</text>
<text text-anchor="start" x="274.5" y="-583.5" font-family="Helvetica,sans-Serif" font-size="10.00">+ FindObject()</text>
<text text-anchor="start" x="274.5" y="-572.5" font-family="Helvetica,sans-Serif" font-size="10.00">+ FindClass()</text>
<text text-anchor="start" x="274.5" y="-561.5" font-family="Helvetica,sans-Serif" font-size="10.00">+ GetObjectCasted()</text>
<text text-anchor="start" x="274.5" y="-550.5" font-family="Helvetica,sans-Serif" font-size="10.00">+ StaticClass()</text>
</a>
</g>
</g>
<!-- Node2&#45;&gt;Node1 -->
<g id="edge1" class="edge">
<title>Node2&#45;&gt;Node1</title>
<path fill="none" stroke="midnightblue" d="M307.7,-533.89C298.1,-512.2 288.77,-491.11 281.03,-473.64"/>
<polygon fill="none" stroke="midnightblue" points="304.58,-535.49 311.82,-543.21 310.98,-532.65 304.58,-535.49"/>
</g>
<!-- Node2&#45;&gt;Node2 -->
<g id="edge7" class="edge">
<title>Node2&#45;&gt;Node2</title>
<path fill="none" stroke="#404040" d="M464.51,-688.53C475.44,-684.15 482.5,-676.48 482.5,-665.5 482.5,-658.64 479.74,-653.07 475.01,-648.78"/>
<polygon fill="none" stroke="#404040" points="474.8,-648.66 467.59,-648.99 464.51,-642.47 471.72,-642.14 474.8,-648.66"/>
<text text-anchor="middle" x="522" y="-674" font-family="Helvetica,sans-Serif" font-size="10.00"> +Outer</text>
<text text-anchor="middle" x="522" y="-663" font-family="Helvetica,sans-Serif" font-size="10.00">+Linker</text>
<text text-anchor="middle" x="522" y="-652" font-family="Helvetica,sans-Serif" font-size="10.00">+ObjectArchetype</text>
</g>
<!-- Node8 -->
<g id="node8" class="node">
<title>Node8</title>
<g id="a_node8"><a xlink:href="../../d3/d79/classSDK_1_1TArray.html" target="_top" xlink:title=" ">
<polygon fill="white" stroke="black" points="0,-361.5 0,-495.5 161,-495.5 161,-361.5 0,-361.5"/>
<text text-anchor="middle" x="80.5" y="-483.5" font-family="Helvetica,sans-Serif" font-size="10.00">SDK::TArray&lt; SDK::UObject * &gt;</text>
<polyline fill="none" stroke="black" points="0,-476.5 161,-476.5 "/>
<text text-anchor="start" x="8" y="-464.5" font-family="Helvetica,sans-Serif" font-size="10.00">&#45; Count</text>
<text text-anchor="start" x="8" y="-453.5" font-family="Helvetica,sans-Serif" font-size="10.00">&#45; Max</text>
<polyline fill="none" stroke="black" points="0,-446.5 161,-446.5 "/>
<text text-anchor="start" x="8" y="-434.5" font-family="Helvetica,sans-Serif" font-size="10.00">+ TArray()</text>
<text text-anchor="start" x="8" y="-423.5" font-family="Helvetica,sans-Serif" font-size="10.00">+ Num()</text>
<text text-anchor="start" x="8" y="-412.5" font-family="Helvetica,sans-Serif" font-size="10.00">+ operator[]()</text>
<text text-anchor="start" x="8" y="-401.5" font-family="Helvetica,sans-Serif" font-size="10.00">+ operator[]()</text>
<text text-anchor="start" x="8" y="-390.5" font-family="Helvetica,sans-Serif" font-size="10.00">+ IsValidIndex()</text>
<text text-anchor="start" x="8" y="-379.5" font-family="Helvetica,sans-Serif" font-size="10.00">+ GetByIndex()</text>
<text text-anchor="start" x="8" y="-368.5" font-family="Helvetica,sans-Serif" font-size="10.00">+ GetByIndex()</text>
</a>
</g>
</g>
<!-- Node2&#45;&gt;Node8 -->
<g id="edge9" class="edge">
<title>Node2&#45;&gt;Node8</title>
<path fill="none" stroke="#404040" d="M266.28,-606.65C230.26,-583.46 190.37,-555.1 157.5,-525 150.65,-518.73 143.91,-511.82 137.42,-504.68"/>
<polygon fill="none" stroke="#404040" points="137.3,-504.54 130.33,-502.69 129.36,-495.54 136.33,-497.4 137.3,-504.54"/>
<text text-anchor="middle" x="171.5" y="-517" font-family="Helvetica,sans-Serif" font-size="10.00"> &#45;Data</text>
</g>
<!-- Node10 -->
<g id="node10" class="node">
<title>Node10</title>
<g id="a_node10"><a xlink:href="../../d7/d85/classSDK_1_1UClass.html" target="_top" xlink:title=" ">
<polygon fill="white" stroke="black" points="442,-0.5 442,-90.5 563,-90.5 563,-0.5 442,-0.5"/>
<text text-anchor="middle" x="502.5" y="-78.5" font-family="Helvetica,sans-Serif" font-size="10.00">SDK::UClass</text>
<polyline fill="none" stroke="black" points="442,-71.5 563,-71.5 "/>
<text text-anchor="start" x="450" y="-59.5" font-family="Helvetica,sans-Serif" font-size="10.00">+ UnknownData00</text>
<text text-anchor="start" x="450" y="-48.5" font-family="Helvetica,sans-Serif" font-size="10.00">+ UnknownData01</text>
<polyline fill="none" stroke="black" points="442,-41.5 563,-41.5 "/>
<text text-anchor="start" x="450" y="-29.5" font-family="Helvetica,sans-Serif" font-size="10.00">+ CreateDefaultObject()</text>
<text text-anchor="start" x="450" y="-18.5" font-family="Helvetica,sans-Serif" font-size="10.00">+ CreateDefaultObject()</text>
<text text-anchor="start" x="450" y="-7.5" font-family="Helvetica,sans-Serif" font-size="10.00">+ StaticClass()</text>
</a>
</g>
</g>
<!-- Node2&#45;&gt;Node10 -->
<g id="edge19" class="edge">
<title>Node2&#45;&gt;Node10</title>
<path fill="none" stroke="#404040" d="M369.77,-543.45C370.75,-506.85 371.5,-466.54 371.5,-429.5 371.5,-429.5 371.5,-429.5 371.5,-156 371.5,-120.34 400.44,-94.01 431.11,-76.12"/>
<polygon fill="none" stroke="#404040" points="431.47,-75.92 434.8,-69.53 441.98,-70.14 438.65,-76.54 431.47,-75.92"/>
<text text-anchor="middle" x="419" y="-260.5" font-family="Helvetica,sans-Serif" font-size="10.00"> +ClassDefaultObject</text>
</g>
<!-- Node13 -->
<g id="node13" class="node">
<title>Node13</title>
<g id="a_node13"><a xlink:href="../../de/dd6/classSDK_1_1UField.html" target="_top" xlink:title=" ">
<polygon fill="white" stroke="black" points="531,-400 531,-457 614,-457 614,-400 531,-400"/>
<text text-anchor="middle" x="572.5" y="-445" font-family="Helvetica,sans-Serif" font-size="10.00">SDK::UField</text>
<polyline fill="none" stroke="black" points="531,-438 614,-438 "/>
<text text-anchor="middle" x="572.5" y="-426" font-family="Helvetica,sans-Serif" font-size="10.00"> </text>
<polyline fill="none" stroke="black" points="531,-419 614,-419 "/>
<text text-anchor="start" x="539" y="-407" font-family="Helvetica,sans-Serif" font-size="10.00">+ StaticClass()</text>
</a>
</g>
</g>
<!-- Node2&#45;&gt;Node13 -->
<g id="edge16" class="edge">
<title>Node2&#45;&gt;Node13</title>
<path fill="none" stroke="midnightblue" d="M472.02,-573.61C487.73,-558.12 503.11,-541.64 516.5,-525 533.49,-503.89 548.75,-477.06 559.04,-457.22"/>
<polygon fill="none" stroke="midnightblue" points="469.51,-571.17 464.79,-580.65 474.4,-576.18 469.51,-571.17"/>
</g>
<!-- Node3 -->
<g id="node3" class="node">
<title>Node3</title>
<g id="a_node3"><a xlink:href="../../d0/d22/structSDK_1_1FQWord.html" target="_top" xlink:title=" ">
<polygon fill="white" stroke="black" points="432.5,-885 432.5,-953 512.5,-953 512.5,-885 432.5,-885"/>
<text text-anchor="middle" x="472.5" y="-941" font-family="Helvetica,sans-Serif" font-size="10.00">SDK::FQWord</text>
<polyline fill="none" stroke="black" points="432.5,-934 512.5,-934 "/>
<text text-anchor="start" x="440.5" y="-922" font-family="Helvetica,sans-Serif" font-size="10.00">+ A</text>
<text text-anchor="start" x="440.5" y="-911" font-family="Helvetica,sans-Serif" font-size="10.00">+ B</text>
<polyline fill="none" stroke="black" points="432.5,-904 512.5,-904 "/>
<text text-anchor="middle" x="472.5" y="-892" font-family="Helvetica,sans-Serif" font-size="10.00"> </text>
</a>
</g>
</g>
<!-- Node3&#45;&gt;Node2 -->
<g id="edge2" class="edge">
<title>Node3&#45;&gt;Node2</title>
<path fill="none" stroke="#404040" d="M464.12,-884.6C458.04,-862.03 449.04,-831.77 438.5,-806 437.53,-803.63 436.53,-801.24 435.51,-798.85"/>
<polygon fill="none" stroke="#404040" points="435.39,-798.58 429.32,-794.69 430.57,-787.59 436.65,-791.48 435.39,-798.58"/>
<text text-anchor="middle" x="480.5" y="-820" font-family="Helvetica,sans-Serif" font-size="10.00"> +ObjectFlags</text>
</g>
<!-- Node4 -->
<g id="node4" class="node">
<title>Node4</title>
<g id="a_node4"><a xlink:href="../../d0/db6/structSDK_1_1FName.html" target="_top" xlink:title=" ">
<polygon fill="white" stroke="black" points="192,-857.5 192,-980.5 299,-980.5 299,-857.5 192,-857.5"/>
<text text-anchor="middle" x="245.5" y="-968.5" font-family="Helvetica,sans-Serif" font-size="10.00">SDK::FName</text>
<polyline fill="none" stroke="black" points="192,-961.5 299,-961.5 "/>
<text text-anchor="start" x="200" y="-949.5" font-family="Helvetica,sans-Serif" font-size="10.00">+ Index</text>
<text text-anchor="start" x="200" y="-938.5" font-family="Helvetica,sans-Serif" font-size="10.00">+ Number</text>
<polyline fill="none" stroke="black" points="192,-931.5 299,-931.5 "/>
<text text-anchor="start" x="200" y="-919.5" font-family="Helvetica,sans-Serif" font-size="10.00">+ FName()</text>
<text text-anchor="start" x="200" y="-908.5" font-family="Helvetica,sans-Serif" font-size="10.00">+ FName()</text>
<text text-anchor="start" x="200" y="-897.5" font-family="Helvetica,sans-Serif" font-size="10.00">+ FName()</text>
<text text-anchor="start" x="200" y="-886.5" font-family="Helvetica,sans-Serif" font-size="10.00">+ GetName()</text>
<text text-anchor="start" x="200" y="-875.5" font-family="Helvetica,sans-Serif" font-size="10.00">+ operator==()</text>
<text text-anchor="start" x="200" y="-864.5" font-family="Helvetica,sans-Serif" font-size="10.00">+ GetGlobalNames()</text>
</a>
</g>
</g>
<!-- Node4&#45;&gt;Node2 -->
<g id="edge3" class="edge">
<title>Node4&#45;&gt;Node2</title>
<path fill="none" stroke="#404040" d="M274.4,-857.44C282.92,-839.57 292.6,-819.28 302.39,-798.76"/>
<polygon fill="none" stroke="#404040" points="302.51,-798.52 301.48,-791.38 307.68,-787.69 308.7,-794.82 302.51,-798.52"/>
<text text-anchor="middle" x="316.5" y="-820" font-family="Helvetica,sans-Serif" font-size="10.00"> +Name</text>
</g>
<!-- Node5 -->
<g id="node5" class="node">
<title>Node5</title>
<g id="a_node5"><a xlink:href="../../d3/d79/classSDK_1_1TArray.html" target="_top" xlink:title=" ">
<polygon fill="white" stroke="black" points="155.5,-1028.5 155.5,-1162.5 335.5,-1162.5 335.5,-1028.5 155.5,-1028.5"/>
<text text-anchor="middle" x="245.5" y="-1150.5" font-family="Helvetica,sans-Serif" font-size="10.00">SDK::TArray&lt; SDK::FNameEntry * &gt;</text>
<polyline fill="none" stroke="black" points="155.5,-1143.5 335.5,-1143.5 "/>
<text text-anchor="start" x="163.5" y="-1131.5" font-family="Helvetica,sans-Serif" font-size="10.00">&#45; Count</text>
<text text-anchor="start" x="163.5" y="-1120.5" font-family="Helvetica,sans-Serif" font-size="10.00">&#45; Max</text>
<polyline fill="none" stroke="black" points="155.5,-1113.5 335.5,-1113.5 "/>
<text text-anchor="start" x="163.5" y="-1101.5" font-family="Helvetica,sans-Serif" font-size="10.00">+ TArray()</text>
<text text-anchor="start" x="163.5" y="-1090.5" font-family="Helvetica,sans-Serif" font-size="10.00">+ Num()</text>
<text text-anchor="start" x="163.5" y="-1079.5" font-family="Helvetica,sans-Serif" font-size="10.00">+ operator[]()</text>
<text text-anchor="start" x="163.5" y="-1068.5" font-family="Helvetica,sans-Serif" font-size="10.00">+ operator[]()</text>
<text text-anchor="start" x="163.5" y="-1057.5" font-family="Helvetica,sans-Serif" font-size="10.00">+ IsValidIndex()</text>
<text text-anchor="start" x="163.5" y="-1046.5" font-family="Helvetica,sans-Serif" font-size="10.00">+ GetByIndex()</text>
<text text-anchor="start" x="163.5" y="-1035.5" font-family="Helvetica,sans-Serif" font-size="10.00">+ GetByIndex()</text>
</a>
</g>
</g>
<!-- Node5&#45;&gt;Node4 -->
<g id="edge4" class="edge">
<title>Node5&#45;&gt;Node4</title>
<path fill="none" stroke="#404040" d="M245.5,-1028.03C245.5,-1016.45 245.5,-1004.35 245.5,-992.62"/>
<polygon fill="none" stroke="#404040" points="245.5,-992.56 241.5,-986.56 245.5,-980.56 249.5,-986.56 245.5,-992.56"/>
<text text-anchor="middle" x="270" y="-1002" font-family="Helvetica,sans-Serif" font-size="10.00"> +GNames</text>
</g>
<!-- Node6 -->
<g id="node6" class="node">
<title>Node6</title>
<g id="a_node6"><a xlink:href="../../d7/ddf/classSDK_1_1FNameEntry.html" target="_top" xlink:title=" ">
<polygon fill="white" stroke="black" points="198,-1249 198,-1317 297,-1317 297,-1249 198,-1249"/>
<text text-anchor="middle" x="247.5" y="-1305" font-family="Helvetica,sans-Serif" font-size="10.00">SDK::FNameEntry</text>
<polyline fill="none" stroke="black" points="198,-1298 297,-1298 "/>
<text text-anchor="start" x="206" y="-1286" font-family="Helvetica,sans-Serif" font-size="10.00">+ UnknownData00</text>
<text text-anchor="start" x="206" y="-1275" font-family="Helvetica,sans-Serif" font-size="10.00">+ name</text>
<polyline fill="none" stroke="black" points="198,-1268 297,-1268 "/>
<text text-anchor="start" x="206" y="-1256" font-family="Helvetica,sans-Serif" font-size="10.00">+ GetName()</text>
</a>
</g>
</g>
<!-- Node6&#45;&gt;Node5 -->
<g id="edge5" class="edge">
<title>Node6&#45;&gt;Node5</title>
<path fill="none" stroke="#404040" d="M247.14,-1248.84C246.92,-1228.23 246.62,-1200.83 246.35,-1174.95"/>
<polygon fill="none" stroke="#404040" points="246.34,-1174.8 242.28,-1168.84 246.21,-1162.8 250.28,-1168.76 246.34,-1174.8"/>
<text text-anchor="middle" x="260.5" y="-1184" font-family="Helvetica,sans-Serif" font-size="10.00"> &#45;Data</text>
</g>
<!-- Node7 -->
<g id="node7" class="node">
<title>Node7</title>
<g id="a_node7"><a xlink:href="../../d3/d79/classSDK_1_1TArray.html" target="_top" xlink:title=" ">
<polygon fill="white" stroke="black" points="49,-1210.5 49,-1355.5 146,-1355.5 146,-1210.5 49,-1210.5"/>
<text text-anchor="middle" x="97.5" y="-1343.5" font-family="Helvetica,sans-Serif" font-size="10.00">SDK::TArray&lt; T &gt;</text>
<polyline fill="none" stroke="black" points="49,-1336.5 146,-1336.5 "/>
<text text-anchor="start" x="57" y="-1324.5" font-family="Helvetica,sans-Serif" font-size="10.00">&#45; Data</text>
<text text-anchor="start" x="57" y="-1313.5" font-family="Helvetica,sans-Serif" font-size="10.00">&#45; Count</text>
<text text-anchor="start" x="57" y="-1302.5" font-family="Helvetica,sans-Serif" font-size="10.00">&#45; Max</text>
<polyline fill="none" stroke="black" points="49,-1295.5 146,-1295.5 "/>
<text text-anchor="start" x="57" y="-1283.5" font-family="Helvetica,sans-Serif" font-size="10.00">+ TArray()</text>
<text text-anchor="start" x="57" y="-1272.5" font-family="Helvetica,sans-Serif" font-size="10.00">+ Num()</text>
<text text-anchor="start" x="57" y="-1261.5" font-family="Helvetica,sans-Serif" font-size="10.00">+ operator[]()</text>
<text text-anchor="start" x="57" y="-1250.5" font-family="Helvetica,sans-Serif" font-size="10.00">+ operator[]()</text>
<text text-anchor="start" x="57" y="-1239.5" font-family="Helvetica,sans-Serif" font-size="10.00">+ IsValidIndex()</text>
<text text-anchor="start" x="57" y="-1228.5" font-family="Helvetica,sans-Serif" font-size="10.00">+ GetByIndex()</text>
<text text-anchor="start" x="57" y="-1217.5" font-family="Helvetica,sans-Serif" font-size="10.00">+ GetByIndex()</text>
</a>
</g>
</g>
<!-- Node7&#45;&gt;Node5 -->
<g id="edge6" class="edge">
<title>Node7&#45;&gt;Node5</title>
<path fill="none" stroke="orange" d="M119.6,-1201.17C123.04,-1194.05 126.99,-1187.21 131.5,-1181 138.31,-1171.64 146.46,-1162.86 155.23,-1154.78"/>
<polygon fill="orange" stroke="orange" points="116.4,-1199.75 115.51,-1210.3 122.79,-1202.61 116.4,-1199.75"/>
<text text-anchor="middle" x="187" y="-1184" font-family="Helvetica,sans-Serif" font-size="10.00"> &lt; SDK::FNameEntry * &gt;</text>
</g>
<!-- Node7&#45;&gt;Node8 -->
<g id="edge10" class="edge">
<title>Node7&#45;&gt;Node8</title>
<path fill="none" stroke="orange" d="M86.75,-1200.08C83.37,-1167.85 80.5,-1130.5 80.5,-1096.5 80.5,-1096.5 80.5,-1096.5 80.5,-664.5 80.5,-607.48 80.5,-542.69 80.5,-495.59"/>
<polygon fill="orange" stroke="orange" points="83.3,-1200.78 87.86,-1210.35 90.26,-1200.03 83.3,-1200.78"/>
<text text-anchor="middle" x="126" y="-916.5" font-family="Helvetica,sans-Serif" font-size="10.00"> &lt; SDK::UObject * &gt;</text>
</g>
<!-- Node8&#45;&gt;Node2 -->
<g id="edge8" class="edge">
<title>Node8&#45;&gt;Node2</title>
<path fill="none" stroke="#404040" d="M160.61,-495.56C190.46,-520.17 224.85,-548.52 256.83,-574.89"/>
<polygon fill="none" stroke="#404040" points="256.96,-575 264.14,-575.74 266.22,-582.64 259.05,-581.91 256.96,-575"/>
<text text-anchor="middle" x="215" y="-517" font-family="Helvetica,sans-Serif" font-size="10.00"> +GObjects</text>
</g>
<!-- Node9 -->
<g id="node9" class="node">
<title>Node9</title>
<g id="a_node9"><a xlink:href="../../d9/dfa/structSDK_1_1FPointer.html" target="_top" xlink:title=" ">
<polygon fill="white" stroke="black" points="316.5,-885 316.5,-953 414.5,-953 414.5,-885 316.5,-885"/>
<text text-anchor="middle" x="365.5" y="-941" font-family="Helvetica,sans-Serif" font-size="10.00">SDK::FPointer</text>
<polyline fill="none" stroke="black" points="316.5,-934 414.5,-934 "/>
<text text-anchor="start" x="324.5" y="-922" font-family="Helvetica,sans-Serif" font-size="10.00">+ Dummy</text>
<text text-anchor="start" x="324.5" y="-911" font-family="Helvetica,sans-Serif" font-size="10.00">+ UnknownData00</text>
<polyline fill="none" stroke="black" points="316.5,-904 414.5,-904 "/>
<text text-anchor="middle" x="365.5" y="-892" font-family="Helvetica,sans-Serif" font-size="10.00"> </text>
</a>
</g>
</g>
<!-- Node9&#45;&gt;Node2 -->
<g id="edge11" class="edge">
<title>Node9&#45;&gt;Node2</title>
<path fill="none" stroke="#404040" d="M365.5,-884.86C365.5,-862.57 365.5,-831.56 365.5,-799.9"/>
<polygon fill="none" stroke="#404040" points="365.5,-799.75 361.5,-793.75 365.5,-787.75 369.5,-793.75 365.5,-799.75"/>
<text text-anchor="middle" x="400" y="-831" font-family="Helvetica,sans-Serif" font-size="10.00"> +StateFrame</text>
<text text-anchor="middle" x="400" y="-820" font-family="Helvetica,sans-Serif" font-size="10.00">+VfTableObject</text>
<text text-anchor="middle" x="400" y="-809" font-family="Helvetica,sans-Serif" font-size="10.00">+LinkerIndex</text>
</g>
<!-- Node10&#45;&gt;Node2 -->
<g id="edge12" class="edge">
<title>Node10&#45;&gt;Node2</title>
<path fill="none" stroke="#404040" d="M502.5,-90.72C502.5,-110.67 502.5,-134.52 502.5,-156 502.5,-429.5 502.5,-429.5 502.5,-429.5 502.5,-467.32 489.09,-504.47 470.67,-537.68"/>
<polygon fill="none" stroke="#404040" points="470.52,-537.93 470.99,-545.12 464.52,-548.32 464.06,-541.12 470.52,-537.93"/>
<text text-anchor="middle" x="520" y="-260.5" font-family="Helvetica,sans-Serif" font-size="10.00"> +Class</text>
</g>
<!-- Node11 -->
<g id="node11" class="node">
<title>Node11</title>
<g id="a_node11"><a xlink:href="../../df/d72/classSDK_1_1UState.html" target="_top" xlink:title=" ">
<polygon fill="white" stroke="black" points="542.5,-128.5 542.5,-185.5 640.5,-185.5 640.5,-128.5 542.5,-128.5"/>
<text text-anchor="middle" x="591.5" y="-173.5" font-family="Helvetica,sans-Serif" font-size="10.00">SDK::UState</text>
<polyline fill="none" stroke="black" points="542.5,-166.5 640.5,-166.5 "/>
<text text-anchor="start" x="550.5" y="-154.5" font-family="Helvetica,sans-Serif" font-size="10.00">+ UnknownData00</text>
<polyline fill="none" stroke="black" points="542.5,-147.5 640.5,-147.5 "/>
<text text-anchor="start" x="550.5" y="-135.5" font-family="Helvetica,sans-Serif" font-size="10.00">+ StaticClass()</text>
</a>
</g>
</g>
<!-- Node11&#45;&gt;Node10 -->
<g id="edge13" class="edge">
<title>Node11&#45;&gt;Node10</title>
<path fill="none" stroke="midnightblue" d="M562.51,-120.33C554.83,-110.89 546.45,-100.58 538.46,-90.74"/>
<polygon fill="none" stroke="midnightblue" points="560.02,-122.82 569.04,-128.37 565.45,-118.4 560.02,-122.82"/>
</g>
<!-- Node12 -->
<g id="node12" class="node">
<title>Node12</title>
<g id="a_node12"><a xlink:href="../../d8/de9/classSDK_1_1UStruct.html" target="_top" xlink:title=" ">
<polygon fill="white" stroke="black" points="555.5,-223.5 555.5,-302.5 653.5,-302.5 653.5,-223.5 555.5,-223.5"/>
<text text-anchor="middle" x="604.5" y="-290.5" font-family="Helvetica,sans-Serif" font-size="10.00">SDK::UStruct</text>
<polyline fill="none" stroke="black" points="555.5,-283.5 653.5,-283.5 "/>
<text text-anchor="start" x="563.5" y="-271.5" font-family="Helvetica,sans-Serif" font-size="10.00">+ UnknownData00</text>
<text text-anchor="start" x="563.5" y="-260.5" font-family="Helvetica,sans-Serif" font-size="10.00">+ PropertySize</text>
<text text-anchor="start" x="563.5" y="-249.5" font-family="Helvetica,sans-Serif" font-size="10.00">+ UnknownData01</text>
<polyline fill="none" stroke="black" points="555.5,-242.5 653.5,-242.5 "/>
<text text-anchor="start" x="563.5" y="-230.5" font-family="Helvetica,sans-Serif" font-size="10.00">+ StaticClass()</text>
</a>
</g>
</g>
<!-- Node12&#45;&gt;Node11 -->
<g id="edge14" class="edge">
<title>Node12&#45;&gt;Node11</title>
<path fill="none" stroke="midnightblue" d="M598.4,-213.16C597.22,-203.74 596.02,-194.17 594.96,-185.72"/>
<polygon fill="none" stroke="midnightblue" points="594.95,-213.79 599.66,-223.27 601.89,-212.92 594.95,-213.79"/>
</g>
<!-- Node13&#45;&gt;Node12 -->
<g id="edge15" class="edge">
<title>Node13&#45;&gt;Node12</title>
<path fill="none" stroke="midnightblue" d="M575.28,-389.47C577.24,-369.01 580.44,-343.44 585.5,-321 586.85,-315 588.59,-308.73 590.47,-302.65"/>
<polygon fill="none" stroke="midnightblue" points="571.77,-389.38 574.36,-399.66 578.75,-390.01 571.77,-389.38"/>
</g>
<!-- Node13&#45;&gt;Node12 -->
<g id="edge18" class="edge">
<title>Node13&#45;&gt;Node12</title>
<path fill="none" stroke="#404040" d="M577.93,-399.76C582.48,-376.51 589.1,-342.7 594.59,-314.64"/>
<polygon fill="none" stroke="#404040" points="594.64,-314.39 591.86,-307.74 596.94,-302.62 599.72,-309.27 594.64,-314.39"/>
<text text-anchor="middle" x="620.5" y="-335" font-family="Helvetica,sans-Serif" font-size="10.00"> +SuperField</text>
<text text-anchor="middle" x="620.5" y="-324" font-family="Helvetica,sans-Serif" font-size="10.00">+Children</text>
</g>
<!-- Node13&#45;&gt;Node13 -->
<g id="edge17" class="edge">
<title>Node13&#45;&gt;Node13</title>
<path fill="none" stroke="#404040" d="M614.21,-445.11C624.41,-443.88 632,-438.34 632,-428.5 632,-422.96 629.6,-418.79 625.68,-415.98"/>
<polygon fill="none" stroke="#404040" points="625.51,-415.92 618.51,-417.67 614.21,-411.89 621.2,-410.13 625.51,-415.92"/>
<text text-anchor="middle" x="647.5" y="-426" font-family="Helvetica,sans-Serif" font-size="10.00"> +Next</text>
</g>
</g>
</svg>
        <g id="navigator" transform="translate(0 0)" fill="#404254">
                <rect fill="#f2f5e9" fill-opacity="0.5" stroke="#606060" stroke-width=".5" x="0" y="0" width="60" height="60"/>
                <use id="zoomplus" xlink:href="#zoomPlus" x="17" y="9" onmousedown="handleZoom(evt,'in')"/>
                <use id="zoomminus" xlink:href="#zoomMin" x="42" y="9" onmousedown="handleZoom(evt,'out')"/>
                <use id="reset" xlink:href="#resetDef" x="30" y="36" onmousedown="handleReset()"/>
                <g id="arrowUp" xlink:href="#dirArrow" transform="translate(30 24)" onmousedown="handlePan(0,-1)">
                  <use xlink:href="#rim" fill="#404040">
                        <set attributeName="fill" to="#808080" begin="arrowUp.mouseover" end="arrowUp.mouseout"/>
                  </use>
                  <path fill="none" stroke="white" stroke-width="1.5" d="M0,-3.0v7 M-2.5,-0.5L0,-3.0L2.5,-0.5"/>
                </g>
                <g id="arrowRight" xlink:href="#dirArrow" transform="rotate(90) translate(36 -43)" onmousedown="handlePan(1,0)">
                  <use xlink:href="#rim" fill="#404040">
                        <set attributeName="fill" to="#808080" begin="arrowRight.mouseover" end="arrowRight.mouseout"/>
                  </use>
                  <path fill="none" stroke="white" stroke-width="1.5" d="M0,-3.0v7 M-2.5,-0.5L0,-3.0L2.5,-0.5"/>
                </g>
                <g id="arrowDown" xlink:href="#dirArrow" transform="rotate(180) translate(-30 -48)" onmousedown="handlePan(0,1)">
                  <use xlink:href="#rim" fill="#404040">
                        <set attributeName="fill" to="#808080" begin="arrowDown.mouseover" end="arrowDown.mouseout"/>
                  </use>
                  <path fill="none" stroke="white" stroke-width="1.5" d="M0,-3.0v7 M-2.5,-0.5L0,-3.0L2.5,-0.5"/>
                </g>
                <g id="arrowLeft" xlink:href="#dirArrow" transform="rotate(270) translate(-36 17)" onmousedown="handlePan(-1,0)">
                  <use xlink:href="#rim" fill="#404040">
                        <set attributeName="fill" to="#808080" begin="arrowLeft.mouseover" end="arrowLeft.mouseout"/>
                  </use>
                  <path fill="none" stroke="white" stroke-width="1.5" d="M0,-3.0v7 M-2.5,-0.5L0,-3.0L2.5,-0.5"/>
                </g>
        </g>
        <svg viewBox="0 0 15 15" width="100%" height="30px" preserveAspectRatio="xMaxYMin meet">
         <g id="arrow_out" transform="scale(0.3 0.3)">
          <a xlink:href="classSDK_1_1UEFData__coll__graph_org.svg" target="_base">
           <rect id="button" ry="5" rx="5" y="6" x="6" height="38" width="38"
                fill="#f2f5e9" fill-opacity="0.5" stroke="#606060" stroke-width="1.0"/>
           <path id="arrow"
             d="M 11.500037,31.436501 C 11.940474,20.09759 22.043105,11.32322 32.158766,21.979434 L 37.068811,17.246167 C 37.068811,17.246167 37.088388,32 37.088388,32 L 22.160133,31.978069 C 22.160133,31.978069 26.997745,27.140456 26.997745,27.140456 C 18.528582,18.264221 13.291696,25.230495 11.500037,31.436501 z"
             style="fill:#404040;"/>
          </a>
         </g>
        </svg>
</svg>
