<?xml version="1.0" encoding="UTF-8" standalone="no"?>
<!DOCTYPE svg PUBLIC "-//W3C//DTD SVG 1.1//EN"
 "http://www.w3.org/Graphics/SVG/1.1/DTD/svg11.dtd">
<!-- Generated by graphviz version 2.41.20171026.1811 (20171026.1811)
 -->
<!-- Title: SDK::UEFBeamActionSelf Pages: 1 -->
<svg width="753pt" height="1364pt"
 viewBox="0.00 0.00 752.50 1364.00" xmlns="http://www.w3.org/2000/svg" xmlns:xlink="http://www.w3.org/1999/xlink">
<g id="graph0" class="graph" transform="scale(1 1) rotate(0) translate(4 1360)">
<title>SDK::UEFBeamActionSelf</title>
<polygon fill="white" stroke="transparent" points="-4,4 -4,-1360 748.5,-1360 748.5,4 -4,4"/>
<!-- Node1 -->
<g id="node1" class="node">
<title>Node1</title>
<g id="a_node1"><a xlink:title=" ">
<polygon fill="#bfbfbf" stroke="black" points="19.5,-234.5 19.5,-291.5 153.5,-291.5 153.5,-234.5 19.5,-234.5"/>
<text text-anchor="middle" x="86.5" y="-279.5" font-family="Helvetica,sans-Serif" font-size="10.00">SDK::UEFBeamActionSelf</text>
<polyline fill="none" stroke="black" points="19.5,-272.5 153.5,-272.5 "/>
<text text-anchor="start" x="27.5" y="-260.5" font-family="Helvetica,sans-Serif" font-size="10.00">+ bUseSocketMove</text>
<polyline fill="none" stroke="black" points="19.5,-253.5 153.5,-253.5 "/>
<text text-anchor="start" x="27.5" y="-241.5" font-family="Helvetica,sans-Serif" font-size="10.00">+ StaticClass()</text>
</a>
</g>
</g>
<!-- Node2 -->
<g id="node2" class="node">
<title>Node2</title>
<g id="a_node2"><a xlink:href="../../dc/d3c/classSDK_1_1UEFBeamActionBase.html" target="_top" xlink:title=" ">
<polygon fill="white" stroke="black" points="235.5,-400 235.5,-457 375.5,-457 375.5,-400 235.5,-400"/>
<text text-anchor="middle" x="305.5" y="-445" font-family="Helvetica,sans-Serif" font-size="10.00">SDK::UEFBeamActionBase</text>
<polyline fill="none" stroke="black" points="235.5,-438 375.5,-438 "/>
<text text-anchor="middle" x="305.5" y="-426" font-family="Helvetica,sans-Serif" font-size="10.00"> </text>
<polyline fill="none" stroke="black" points="235.5,-419 375.5,-419 "/>
<text text-anchor="start" x="243.5" y="-407" font-family="Helvetica,sans-Serif" font-size="10.00">+ StaticClass()</text>
</a>
</g>
</g>
<!-- Node2&#45;&gt;Node1 -->
<g id="edge1" class="edge">
<title>Node2&#45;&gt;Node1</title>
<path fill="none" stroke="midnightblue" d="M262.95,-393.48C236.13,-372.27 200.61,-344.62 168.5,-321 155.23,-311.24 140.52,-300.88 127.26,-291.7"/>
<polygon fill="none" stroke="midnightblue" points="260.97,-396.38 270.98,-399.84 265.32,-390.89 260.97,-396.38"/>
</g>
<!-- Node3 -->
<g id="node3" class="node">
<title>Node3</title>
<g id="a_node3"><a xlink:href="../../d9/d45/classSDK_1_1UObject.html" target="_top" xlink:title=" ">
<polygon fill="white" stroke="black" points="321.5,-543.5 321.5,-787.5 519.5,-787.5 519.5,-543.5 321.5,-543.5"/>
<text text-anchor="middle" x="420.5" y="-775.5" font-family="Helvetica,sans-Serif" font-size="10.00">SDK::UObject</text>
<polyline fill="none" stroke="black" points="321.5,-768.5 519.5,-768.5 "/>
<text text-anchor="start" x="329.5" y="-756.5" font-family="Helvetica,sans-Serif" font-size="10.00">+ ObjectInternalInteger</text>
<text text-anchor="start" x="329.5" y="-745.5" font-family="Helvetica,sans-Serif" font-size="10.00">+ NetIndex</text>
<polyline fill="none" stroke="black" points="321.5,-738.5 519.5,-738.5 "/>
<text text-anchor="start" x="329.5" y="-726.5" font-family="Helvetica,sans-Serif" font-size="10.00">+ UObject::GetName()</text>
<text text-anchor="start" x="329.5" y="-715.5" font-family="Helvetica,sans-Serif" font-size="10.00">+ GetFullName()</text>
<text text-anchor="start" x="329.5" y="-704.5" font-family="Helvetica,sans-Serif" font-size="10.00">+ IsA()</text>
<text text-anchor="start" x="329.5" y="-693.5" font-family="Helvetica,sans-Serif" font-size="10.00">+ ProcessEvent()</text>
<text text-anchor="start" x="329.5" y="-682.5" font-family="Helvetica,sans-Serif" font-size="10.00">+ STATIC_ProfNodeEvent()</text>
<text text-anchor="start" x="329.5" y="-671.5" font-family="Helvetica,sans-Serif" font-size="10.00">+ STATIC_ProfNodeSetDepthThreshold()</text>
<text text-anchor="start" x="329.5" y="-660.5" font-family="Helvetica,sans-Serif" font-size="10.00">+ STATIC_ProfNodeSetTimeThreshold</text>
<text text-anchor="start" x="329.5" y="-649.5" font-family="Helvetica,sans-Serif" font-size="10.00">Seconds()</text>
<text text-anchor="start" x="329.5" y="-638.5" font-family="Helvetica,sans-Serif" font-size="10.00">+ STATIC_ProfNodeStop()</text>
<text text-anchor="start" x="329.5" y="-627.5" font-family="Helvetica,sans-Serif" font-size="10.00">+ STATIC_ProfNodeStart()</text>
<text text-anchor="start" x="329.5" y="-616.5" font-family="Helvetica,sans-Serif" font-size="10.00">+ STATIC_GetStringFromGuid()</text>
<text text-anchor="start" x="329.5" y="-605.5" font-family="Helvetica,sans-Serif" font-size="10.00">and 298 more...</text>
<text text-anchor="start" x="329.5" y="-594.5" font-family="Helvetica,sans-Serif" font-size="10.00">+ GetGlobalObjects()</text>
<text text-anchor="start" x="329.5" y="-583.5" font-family="Helvetica,sans-Serif" font-size="10.00">+ FindObject()</text>
<text text-anchor="start" x="329.5" y="-572.5" font-family="Helvetica,sans-Serif" font-size="10.00">+ FindClass()</text>
<text text-anchor="start" x="329.5" y="-561.5" font-family="Helvetica,sans-Serif" font-size="10.00">+ GetObjectCasted()</text>
<text text-anchor="start" x="329.5" y="-550.5" font-family="Helvetica,sans-Serif" font-size="10.00">+ StaticClass()</text>
</a>
</g>
</g>
<!-- Node3&#45;&gt;Node2 -->
<g id="edge2" class="edge">
<title>Node3&#45;&gt;Node2</title>
<path fill="none" stroke="midnightblue" d="M356.71,-534.14C342.44,-504.99 328.7,-476.91 319.05,-457.19"/>
<polygon fill="none" stroke="midnightblue" points="353.61,-535.77 361.15,-543.21 359.9,-532.69 353.61,-535.77"/>
</g>
<!-- Node3&#45;&gt;Node3 -->
<g id="edge8" class="edge">
<title>Node3&#45;&gt;Node3</title>
<path fill="none" stroke="#404040" d="M519.51,-688.53C530.44,-684.15 537.5,-676.48 537.5,-665.5 537.5,-658.64 534.74,-653.07 530.01,-648.78"/>
<polygon fill="none" stroke="#404040" points="529.8,-648.66 522.59,-648.99 519.51,-642.47 526.72,-642.14 529.8,-648.66"/>
<text text-anchor="middle" x="577" y="-674" font-family="Helvetica,sans-Serif" font-size="10.00"> +Outer</text>
<text text-anchor="middle" x="577" y="-663" font-family="Helvetica,sans-Serif" font-size="10.00">+Linker</text>
<text text-anchor="middle" x="577" y="-652" font-family="Helvetica,sans-Serif" font-size="10.00">+ObjectArchetype</text>
</g>
<!-- Node9 -->
<g id="node9" class="node">
<title>Node9</title>
<g id="a_node9"><a xlink:href="../../d3/d79/classSDK_1_1TArray.html" target="_top" xlink:title=" ">
<polygon fill="white" stroke="black" points="582,-361.5 582,-495.5 743,-495.5 743,-361.5 582,-361.5"/>
<text text-anchor="middle" x="662.5" y="-483.5" font-family="Helvetica,sans-Serif" font-size="10.00">SDK::TArray&lt; SDK::UObject * &gt;</text>
<polyline fill="none" stroke="black" points="582,-476.5 743,-476.5 "/>
<text text-anchor="start" x="590" y="-464.5" font-family="Helvetica,sans-Serif" font-size="10.00">&#45; Count</text>
<text text-anchor="start" x="590" y="-453.5" font-family="Helvetica,sans-Serif" font-size="10.00">&#45; Max</text>
<polyline fill="none" stroke="black" points="582,-446.5 743,-446.5 "/>
<text text-anchor="start" x="590" y="-434.5" font-family="Helvetica,sans-Serif" font-size="10.00">+ TArray()</text>
<text text-anchor="start" x="590" y="-423.5" font-family="Helvetica,sans-Serif" font-size="10.00">+ Num()</text>
<text text-anchor="start" x="590" y="-412.5" font-family="Helvetica,sans-Serif" font-size="10.00">+ operator[]()</text>
<text text-anchor="start" x="590" y="-401.5" font-family="Helvetica,sans-Serif" font-size="10.00">+ operator[]()</text>
<text text-anchor="start" x="590" y="-390.5" font-family="Helvetica,sans-Serif" font-size="10.00">+ IsValidIndex()</text>
<text text-anchor="start" x="590" y="-379.5" font-family="Helvetica,sans-Serif" font-size="10.00">+ GetByIndex()</text>
<text text-anchor="start" x="590" y="-368.5" font-family="Helvetica,sans-Serif" font-size="10.00">+ GetByIndex()</text>
</a>
</g>
</g>
<!-- Node3&#45;&gt;Node9 -->
<g id="edge10" class="edge">
<title>Node3&#45;&gt;Node9</title>
<path fill="none" stroke="#404040" d="M506.55,-543.3C516.38,-532.79 526.75,-522.81 537.5,-514 548.96,-504.61 555.68,-504.87 571.09,-496.87"/>
<polygon fill="none" stroke="#404040" points="571.51,-496.63 574.73,-490.17 581.92,-490.66 578.71,-497.11 571.51,-496.63"/>
<text text-anchor="middle" x="551.5" y="-517" font-family="Helvetica,sans-Serif" font-size="10.00"> &#45;Data</text>
</g>
<!-- Node11 -->
<g id="node11" class="node">
<title>Node11</title>
<g id="a_node11"><a xlink:href="../../d7/d85/classSDK_1_1UClass.html" target="_top" xlink:title=" ">
<polygon fill="white" stroke="black" points="343,-0.5 343,-90.5 464,-90.5 464,-0.5 343,-0.5"/>
<text text-anchor="middle" x="403.5" y="-78.5" font-family="Helvetica,sans-Serif" font-size="10.00">SDK::UClass</text>
<polyline fill="none" stroke="black" points="343,-71.5 464,-71.5 "/>
<text text-anchor="start" x="351" y="-59.5" font-family="Helvetica,sans-Serif" font-size="10.00">+ UnknownData00</text>
<text text-anchor="start" x="351" y="-48.5" font-family="Helvetica,sans-Serif" font-size="10.00">+ UnknownData01</text>
<polyline fill="none" stroke="black" points="343,-41.5 464,-41.5 "/>
<text text-anchor="start" x="351" y="-29.5" font-family="Helvetica,sans-Serif" font-size="10.00">+ CreateDefaultObject()</text>
<text text-anchor="start" x="351" y="-18.5" font-family="Helvetica,sans-Serif" font-size="10.00">+ CreateDefaultObject()</text>
<text text-anchor="start" x="351" y="-7.5" font-family="Helvetica,sans-Serif" font-size="10.00">+ StaticClass()</text>
</a>
</g>
</g>
<!-- Node3&#45;&gt;Node11 -->
<g id="edge20" class="edge">
<title>Node3&#45;&gt;Node11</title>
<path fill="none" stroke="#404040" d="M321.31,-587.15C280.82,-553.84 240.28,-517.64 226.5,-496 209.99,-470.07 207.5,-460.24 207.5,-429.5 207.5,-429.5 207.5,-429.5 207.5,-156 207.5,-97.44 275,-69.9 330.77,-57.14"/>
<polygon fill="none" stroke="#404040" points="331.09,-57.07 336.12,-51.91 342.83,-54.57 337.8,-59.73 331.09,-57.07"/>
<text text-anchor="middle" x="255" y="-260.5" font-family="Helvetica,sans-Serif" font-size="10.00"> +ClassDefaultObject</text>
</g>
<!-- Node14 -->
<g id="node14" class="node">
<title>Node14</title>
<g id="a_node14"><a xlink:href="../../de/dd6/classSDK_1_1UField.html" target="_top" xlink:title=" ">
<polygon fill="white" stroke="black" points="432,-400 432,-457 515,-457 515,-400 432,-400"/>
<text text-anchor="middle" x="473.5" y="-445" font-family="Helvetica,sans-Serif" font-size="10.00">SDK::UField</text>
<polyline fill="none" stroke="black" points="432,-438 515,-438 "/>
<text text-anchor="middle" x="473.5" y="-426" font-family="Helvetica,sans-Serif" font-size="10.00"> </text>
<polyline fill="none" stroke="black" points="432,-419 515,-419 "/>
<text text-anchor="start" x="440" y="-407" font-family="Helvetica,sans-Serif" font-size="10.00">+ StaticClass()</text>
</a>
</g>
</g>
<!-- Node3&#45;&gt;Node14 -->
<g id="edge17" class="edge">
<title>Node3&#45;&gt;Node14</title>
<path fill="none" stroke="midnightblue" d="M450.07,-533.39C456.58,-504.51 462.85,-476.74 467.25,-457.19"/>
<polygon fill="none" stroke="midnightblue" points="446.64,-532.69 447.85,-543.21 453.47,-534.23 446.64,-532.69"/>
</g>
<!-- Node4 -->
<g id="node4" class="node">
<title>Node4</title>
<g id="a_node4"><a xlink:href="../../d0/d22/structSDK_1_1FQWord.html" target="_top" xlink:title=" ">
<polygon fill="white" stroke="black" points="380.5,-885 380.5,-953 460.5,-953 460.5,-885 380.5,-885"/>
<text text-anchor="middle" x="420.5" y="-941" font-family="Helvetica,sans-Serif" font-size="10.00">SDK::FQWord</text>
<polyline fill="none" stroke="black" points="380.5,-934 460.5,-934 "/>
<text text-anchor="start" x="388.5" y="-922" font-family="Helvetica,sans-Serif" font-size="10.00">+ A</text>
<text text-anchor="start" x="388.5" y="-911" font-family="Helvetica,sans-Serif" font-size="10.00">+ B</text>
<polyline fill="none" stroke="black" points="380.5,-904 460.5,-904 "/>
<text text-anchor="middle" x="420.5" y="-892" font-family="Helvetica,sans-Serif" font-size="10.00"> </text>
</a>
</g>
</g>
<!-- Node4&#45;&gt;Node3 -->
<g id="edge3" class="edge">
<title>Node4&#45;&gt;Node3</title>
<path fill="none" stroke="#404040" d="M420.5,-884.86C420.5,-862.57 420.5,-831.56 420.5,-799.9"/>
<polygon fill="none" stroke="#404040" points="420.5,-799.75 416.5,-793.75 420.5,-787.75 424.5,-793.75 420.5,-799.75"/>
<text text-anchor="middle" x="451.5" y="-820" font-family="Helvetica,sans-Serif" font-size="10.00"> +ObjectFlags</text>
</g>
<!-- Node5 -->
<g id="node5" class="node">
<title>Node5</title>
<g id="a_node5"><a xlink:href="../../d0/db6/structSDK_1_1FName.html" target="_top" xlink:title=" ">
<polygon fill="white" stroke="black" points="255,-857.5 255,-980.5 362,-980.5 362,-857.5 255,-857.5"/>
<text text-anchor="middle" x="308.5" y="-968.5" font-family="Helvetica,sans-Serif" font-size="10.00">SDK::FName</text>
<polyline fill="none" stroke="black" points="255,-961.5 362,-961.5 "/>
<text text-anchor="start" x="263" y="-949.5" font-family="Helvetica,sans-Serif" font-size="10.00">+ Index</text>
<text text-anchor="start" x="263" y="-938.5" font-family="Helvetica,sans-Serif" font-size="10.00">+ Number</text>
<polyline fill="none" stroke="black" points="255,-931.5 362,-931.5 "/>
<text text-anchor="start" x="263" y="-919.5" font-family="Helvetica,sans-Serif" font-size="10.00">+ FName()</text>
<text text-anchor="start" x="263" y="-908.5" font-family="Helvetica,sans-Serif" font-size="10.00">+ FName()</text>
<text text-anchor="start" x="263" y="-897.5" font-family="Helvetica,sans-Serif" font-size="10.00">+ FName()</text>
<text text-anchor="start" x="263" y="-886.5" font-family="Helvetica,sans-Serif" font-size="10.00">+ GetName()</text>
<text text-anchor="start" x="263" y="-875.5" font-family="Helvetica,sans-Serif" font-size="10.00">+ operator==()</text>
<text text-anchor="start" x="263" y="-864.5" font-family="Helvetica,sans-Serif" font-size="10.00">+ GetGlobalNames()</text>
</a>
</g>
</g>
<!-- Node5&#45;&gt;Node3 -->
<g id="edge4" class="edge">
<title>Node5&#45;&gt;Node3</title>
<path fill="none" stroke="#404040" d="M335.47,-857.44C343.43,-839.57 352.46,-819.28 361.6,-798.76"/>
<polygon fill="none" stroke="#404040" points="361.65,-798.65 360.44,-791.54 366.53,-787.69 367.75,-794.79 361.65,-798.65"/>
<text text-anchor="middle" x="376.5" y="-820" font-family="Helvetica,sans-Serif" font-size="10.00"> +Name</text>
</g>
<!-- Node16 -->
<g id="node16" class="node">
<title>Node16</title>
<g id="a_node16"><a xlink:href="../../d3/d79/classSDK_1_1TArray.html" target="_top" xlink:title=" ">
<polygon fill="white" stroke="black" points="148,-593 148,-738 255,-738 255,-593 148,-593"/>
<text text-anchor="start" x="156" y="-726" font-family="Helvetica,sans-Serif" font-size="10.00">SDK::TArray&lt; struct</text>
<text text-anchor="middle" x="201.5" y="-715" font-family="Helvetica,sans-Serif" font-size="10.00"> SDK::FName &gt;</text>
<polyline fill="none" stroke="black" points="148,-708 255,-708 "/>
<text text-anchor="start" x="156" y="-696" font-family="Helvetica,sans-Serif" font-size="10.00">&#45; Count</text>
<text text-anchor="start" x="156" y="-685" font-family="Helvetica,sans-Serif" font-size="10.00">&#45; Max</text>
<polyline fill="none" stroke="black" points="148,-678 255,-678 "/>
<text text-anchor="start" x="156" y="-666" font-family="Helvetica,sans-Serif" font-size="10.00">+ TArray()</text>
<text text-anchor="start" x="156" y="-655" font-family="Helvetica,sans-Serif" font-size="10.00">+ Num()</text>
<text text-anchor="start" x="156" y="-644" font-family="Helvetica,sans-Serif" font-size="10.00">+ operator[]()</text>
<text text-anchor="start" x="156" y="-633" font-family="Helvetica,sans-Serif" font-size="10.00">+ operator[]()</text>
<text text-anchor="start" x="156" y="-622" font-family="Helvetica,sans-Serif" font-size="10.00">+ IsValidIndex()</text>
<text text-anchor="start" x="156" y="-611" font-family="Helvetica,sans-Serif" font-size="10.00">+ GetByIndex()</text>
<text text-anchor="start" x="156" y="-600" font-family="Helvetica,sans-Serif" font-size="10.00">+ GetByIndex()</text>
</a>
</g>
</g>
<!-- Node5&#45;&gt;Node16 -->
<g id="edge23" class="edge">
<title>Node5&#45;&gt;Node16</title>
<path fill="none" stroke="#404040" d="M282.73,-857.44C268.95,-825.04 251.78,-784.67 236.77,-749.4"/>
<polygon fill="none" stroke="#404040" points="236.68,-749.19 230.65,-745.24 231.98,-738.15 238.01,-742.1 236.68,-749.19"/>
<text text-anchor="middle" x="288.5" y="-820" font-family="Helvetica,sans-Serif" font-size="10.00"> &#45;Data</text>
</g>
<!-- Node6 -->
<g id="node6" class="node">
<title>Node6</title>
<g id="a_node6"><a xlink:href="../../d3/d79/classSDK_1_1TArray.html" target="_top" xlink:title=" ">
<polygon fill="white" stroke="black" points="243.5,-1028.5 243.5,-1162.5 423.5,-1162.5 423.5,-1028.5 243.5,-1028.5"/>
<text text-anchor="middle" x="333.5" y="-1150.5" font-family="Helvetica,sans-Serif" font-size="10.00">SDK::TArray&lt; SDK::FNameEntry * &gt;</text>
<polyline fill="none" stroke="black" points="243.5,-1143.5 423.5,-1143.5 "/>
<text text-anchor="start" x="251.5" y="-1131.5" font-family="Helvetica,sans-Serif" font-size="10.00">&#45; Count</text>
<text text-anchor="start" x="251.5" y="-1120.5" font-family="Helvetica,sans-Serif" font-size="10.00">&#45; Max</text>
<polyline fill="none" stroke="black" points="243.5,-1113.5 423.5,-1113.5 "/>
<text text-anchor="start" x="251.5" y="-1101.5" font-family="Helvetica,sans-Serif" font-size="10.00">+ TArray()</text>
<text text-anchor="start" x="251.5" y="-1090.5" font-family="Helvetica,sans-Serif" font-size="10.00">+ Num()</text>
<text text-anchor="start" x="251.5" y="-1079.5" font-family="Helvetica,sans-Serif" font-size="10.00">+ operator[]()</text>
<text text-anchor="start" x="251.5" y="-1068.5" font-family="Helvetica,sans-Serif" font-size="10.00">+ operator[]()</text>
<text text-anchor="start" x="251.5" y="-1057.5" font-family="Helvetica,sans-Serif" font-size="10.00">+ IsValidIndex()</text>
<text text-anchor="start" x="251.5" y="-1046.5" font-family="Helvetica,sans-Serif" font-size="10.00">+ GetByIndex()</text>
<text text-anchor="start" x="251.5" y="-1035.5" font-family="Helvetica,sans-Serif" font-size="10.00">+ GetByIndex()</text>
</a>
</g>
</g>
<!-- Node6&#45;&gt;Node5 -->
<g id="edge5" class="edge">
<title>Node6&#45;&gt;Node5</title>
<path fill="none" stroke="#404040" d="M323.98,-1028.03C322.32,-1016.45 320.58,-1004.35 318.9,-992.62"/>
<polygon fill="none" stroke="#404040" points="318.88,-992.43 314.07,-987.06 317.18,-980.56 321.99,-985.93 318.88,-992.43"/>
<text text-anchor="middle" x="346" y="-1002" font-family="Helvetica,sans-Serif" font-size="10.00"> +GNames</text>
</g>
<!-- Node7 -->
<g id="node7" class="node">
<title>Node7</title>
<g id="a_node7"><a xlink:href="../../d7/ddf/classSDK_1_1FNameEntry.html" target="_top" xlink:title=" ">
<polygon fill="white" stroke="black" points="235,-1249 235,-1317 334,-1317 334,-1249 235,-1249"/>
<text text-anchor="middle" x="284.5" y="-1305" font-family="Helvetica,sans-Serif" font-size="10.00">SDK::FNameEntry</text>
<polyline fill="none" stroke="black" points="235,-1298 334,-1298 "/>
<text text-anchor="start" x="243" y="-1286" font-family="Helvetica,sans-Serif" font-size="10.00">+ UnknownData00</text>
<text text-anchor="start" x="243" y="-1275" font-family="Helvetica,sans-Serif" font-size="10.00">+ name</text>
<polyline fill="none" stroke="black" points="235,-1268 334,-1268 "/>
<text text-anchor="start" x="243" y="-1256" font-family="Helvetica,sans-Serif" font-size="10.00">+ GetName()</text>
</a>
</g>
</g>
<!-- Node7&#45;&gt;Node6 -->
<g id="edge6" class="edge">
<title>Node7&#45;&gt;Node6</title>
<path fill="none" stroke="#404040" d="M293.26,-1248.84C298.73,-1228.14 306.01,-1200.58 312.87,-1174.6"/>
<polygon fill="none" stroke="#404040" points="312.92,-1174.4 310.59,-1167.58 315.99,-1162.8 318.32,-1169.62 312.92,-1174.4"/>
<text text-anchor="middle" x="324.5" y="-1184" font-family="Helvetica,sans-Serif" font-size="10.00"> &#45;Data</text>
</g>
<!-- Node8 -->
<g id="node8" class="node">
<title>Node8</title>
<g id="a_node8"><a xlink:href="../../d3/d79/classSDK_1_1TArray.html" target="_top" xlink:title=" ">
<polygon fill="white" stroke="black" points="352,-1210.5 352,-1355.5 449,-1355.5 449,-1210.5 352,-1210.5"/>
<text text-anchor="middle" x="400.5" y="-1343.5" font-family="Helvetica,sans-Serif" font-size="10.00">SDK::TArray&lt; T &gt;</text>
<polyline fill="none" stroke="black" points="352,-1336.5 449,-1336.5 "/>
<text text-anchor="start" x="360" y="-1324.5" font-family="Helvetica,sans-Serif" font-size="10.00">&#45; Data</text>
<text text-anchor="start" x="360" y="-1313.5" font-family="Helvetica,sans-Serif" font-size="10.00">&#45; Count</text>
<text text-anchor="start" x="360" y="-1302.5" font-family="Helvetica,sans-Serif" font-size="10.00">&#45; Max</text>
<polyline fill="none" stroke="black" points="352,-1295.5 449,-1295.5 "/>
<text text-anchor="start" x="360" y="-1283.5" font-family="Helvetica,sans-Serif" font-size="10.00">+ TArray()</text>
<text text-anchor="start" x="360" y="-1272.5" font-family="Helvetica,sans-Serif" font-size="10.00">+ Num()</text>
<text text-anchor="start" x="360" y="-1261.5" font-family="Helvetica,sans-Serif" font-size="10.00">+ operator[]()</text>
<text text-anchor="start" x="360" y="-1250.5" font-family="Helvetica,sans-Serif" font-size="10.00">+ operator[]()</text>
<text text-anchor="start" x="360" y="-1239.5" font-family="Helvetica,sans-Serif" font-size="10.00">+ IsValidIndex()</text>
<text text-anchor="start" x="360" y="-1228.5" font-family="Helvetica,sans-Serif" font-size="10.00">+ GetByIndex()</text>
<text text-anchor="start" x="360" y="-1217.5" font-family="Helvetica,sans-Serif" font-size="10.00">+ GetByIndex()</text>
</a>
</g>
</g>
<!-- Node8&#45;&gt;Node6 -->
<g id="edge7" class="edge">
<title>Node8&#45;&gt;Node6</title>
<path fill="none" stroke="orange" d="M371.11,-1200.62C366.51,-1187.9 361.81,-1174.89 357.36,-1162.56"/>
<polygon fill="orange" stroke="orange" points="367.91,-1202.06 374.6,-1210.28 374.49,-1199.69 367.91,-1202.06"/>
<text text-anchor="middle" x="423" y="-1184" font-family="Helvetica,sans-Serif" font-size="10.00"> &lt; SDK::FNameEntry * &gt;</text>
</g>
<!-- Node8&#45;&gt;Node9 -->
<g id="edge11" class="edge">
<title>Node8&#45;&gt;Node9</title>
<path fill="none" stroke="orange" d="M459.06,-1267.1C533.79,-1244.14 653.5,-1192.41 653.5,-1096.5 653.5,-1096.5 653.5,-1096.5 653.5,-664.5 653.5,-607.44 656.18,-542.65 658.62,-495.57"/>
<polygon fill="orange" stroke="orange" points="457.86,-1263.8 449.28,-1270.02 459.86,-1270.51 457.86,-1263.8"/>
<text text-anchor="middle" x="699" y="-916.5" font-family="Helvetica,sans-Serif" font-size="10.00"> &lt; SDK::UObject * &gt;</text>
</g>
<!-- Node8&#45;&gt;Node16 -->
<g id="edge24" class="edge">
<title>Node8&#45;&gt;Node16</title>
<path fill="none" stroke="orange" d="M343.99,-1211.16C343.5,-1210.77 343,-1210.38 342.5,-1210 300.88,-1178.25 266.9,-1204.11 234.5,-1163 137.84,-1040.37 161.22,-843.39 183.32,-738.19"/>
<polygon fill="orange" stroke="orange" points="341.97,-1214.03 351.85,-1217.87 346.52,-1208.71 341.97,-1214.03"/>
<text text-anchor="middle" x="226" y="-1002" font-family="Helvetica,sans-Serif" font-size="10.00"> &lt; struct SDK::FName &gt;</text>
</g>
<!-- Node9&#45;&gt;Node3 -->
<g id="edge9" class="edge">
<title>Node9&#45;&gt;Node3</title>
<path fill="none" stroke="#404040" d="M594.2,-495.82C573.76,-515.67 550.82,-537.95 528.49,-559.64"/>
<polygon fill="none" stroke="#404040" points="528.24,-559.88 526.72,-566.93 519.63,-568.24 521.15,-561.19 528.24,-559.88"/>
<text text-anchor="middle" x="595" y="-517" font-family="Helvetica,sans-Serif" font-size="10.00"> +GObjects</text>
</g>
<!-- Node10 -->
<g id="node10" class="node">
<title>Node10</title>
<g id="a_node10"><a xlink:href="../../d9/dfa/structSDK_1_1FPointer.html" target="_top" xlink:title=" ">
<polygon fill="white" stroke="black" points="478.5,-885 478.5,-953 576.5,-953 576.5,-885 478.5,-885"/>
<text text-anchor="middle" x="527.5" y="-941" font-family="Helvetica,sans-Serif" font-size="10.00">SDK::FPointer</text>
<polyline fill="none" stroke="black" points="478.5,-934 576.5,-934 "/>
<text text-anchor="start" x="486.5" y="-922" font-family="Helvetica,sans-Serif" font-size="10.00">+ Dummy</text>
<text text-anchor="start" x="486.5" y="-911" font-family="Helvetica,sans-Serif" font-size="10.00">+ UnknownData00</text>
<polyline fill="none" stroke="black" points="478.5,-904 576.5,-904 "/>
<text text-anchor="middle" x="527.5" y="-892" font-family="Helvetica,sans-Serif" font-size="10.00"> </text>
</a>
</g>
</g>
<!-- Node10&#45;&gt;Node3 -->
<g id="edge12" class="edge">
<title>Node10&#45;&gt;Node3</title>
<path fill="none" stroke="#404040" d="M516.26,-884.86C508.43,-862.4 497.45,-832.17 486.5,-806 485.51,-803.63 484.5,-801.25 483.48,-798.85"/>
<polygon fill="none" stroke="#404040" points="483.35,-798.57 477.3,-794.65 478.58,-787.56 484.64,-791.47 483.35,-798.57"/>
<text text-anchor="middle" x="533" y="-831" font-family="Helvetica,sans-Serif" font-size="10.00"> +StateFrame</text>
<text text-anchor="middle" x="533" y="-820" font-family="Helvetica,sans-Serif" font-size="10.00">+VfTableObject</text>
<text text-anchor="middle" x="533" y="-809" font-family="Helvetica,sans-Serif" font-size="10.00">+LinkerIndex</text>
</g>
<!-- Node11&#45;&gt;Node3 -->
<g id="edge13" class="edge">
<title>Node11&#45;&gt;Node3</title>
<path fill="none" stroke="#404040" d="M403.5,-90.72C403.5,-110.67 403.5,-134.52 403.5,-156 403.5,-429.5 403.5,-429.5 403.5,-429.5 403.5,-462.47 405.19,-497.97 407.49,-531.15"/>
<polygon fill="none" stroke="#404040" points="407.5,-531.29 411.93,-536.98 408.37,-543.26 403.95,-537.56 407.5,-531.29"/>
<text text-anchor="middle" x="421" y="-260.5" font-family="Helvetica,sans-Serif" font-size="10.00"> +Class</text>
</g>
<!-- Node12 -->
<g id="node12" class="node">
<title>Node12</title>
<g id="a_node12"><a xlink:href="../../df/d72/classSDK_1_1UState.html" target="_top" xlink:title=" ">
<polygon fill="white" stroke="black" points="443.5,-128.5 443.5,-185.5 541.5,-185.5 541.5,-128.5 443.5,-128.5"/>
<text text-anchor="middle" x="492.5" y="-173.5" font-family="Helvetica,sans-Serif" font-size="10.00">SDK::UState</text>
<polyline fill="none" stroke="black" points="443.5,-166.5 541.5,-166.5 "/>
<text text-anchor="start" x="451.5" y="-154.5" font-family="Helvetica,sans-Serif" font-size="10.00">+ UnknownData00</text>
<polyline fill="none" stroke="black" points="443.5,-147.5 541.5,-147.5 "/>
<text text-anchor="start" x="451.5" y="-135.5" font-family="Helvetica,sans-Serif" font-size="10.00">+ StaticClass()</text>
</a>
</g>
</g>
<!-- Node12&#45;&gt;Node11 -->
<g id="edge14" class="edge">
<title>Node12&#45;&gt;Node11</title>
<path fill="none" stroke="midnightblue" d="M463.51,-120.33C455.83,-110.89 447.45,-100.58 439.46,-90.74"/>
<polygon fill="none" stroke="midnightblue" points="461.02,-122.82 470.04,-128.37 466.45,-118.4 461.02,-122.82"/>
</g>
<!-- Node13 -->
<g id="node13" class="node">
<title>Node13</title>
<g id="a_node13"><a xlink:href="../../d8/de9/classSDK_1_1UStruct.html" target="_top" xlink:title=" ">
<polygon fill="white" stroke="black" points="456.5,-223.5 456.5,-302.5 554.5,-302.5 554.5,-223.5 456.5,-223.5"/>
<text text-anchor="middle" x="505.5" y="-290.5" font-family="Helvetica,sans-Serif" font-size="10.00">SDK::UStruct</text>
<polyline fill="none" stroke="black" points="456.5,-283.5 554.5,-283.5 "/>
<text text-anchor="start" x="464.5" y="-271.5" font-family="Helvetica,sans-Serif" font-size="10.00">+ UnknownData00</text>
<text text-anchor="start" x="464.5" y="-260.5" font-family="Helvetica,sans-Serif" font-size="10.00">+ PropertySize</text>
<text text-anchor="start" x="464.5" y="-249.5" font-family="Helvetica,sans-Serif" font-size="10.00">+ UnknownData01</text>
<polyline fill="none" stroke="black" points="456.5,-242.5 554.5,-242.5 "/>
<text text-anchor="start" x="464.5" y="-230.5" font-family="Helvetica,sans-Serif" font-size="10.00">+ StaticClass()</text>
</a>
</g>
</g>
<!-- Node13&#45;&gt;Node12 -->
<g id="edge15" class="edge">
<title>Node13&#45;&gt;Node12</title>
<path fill="none" stroke="midnightblue" d="M499.4,-213.16C498.22,-203.74 497.02,-194.17 495.96,-185.72"/>
<polygon fill="none" stroke="midnightblue" points="495.95,-213.79 500.66,-223.27 502.89,-212.92 495.95,-213.79"/>
</g>
<!-- Node14&#45;&gt;Node13 -->
<g id="edge16" class="edge">
<title>Node14&#45;&gt;Node13</title>
<path fill="none" stroke="midnightblue" d="M494.03,-390.88C501.04,-376.43 507.99,-359.38 511.5,-343 514.27,-330.09 514.12,-315.75 512.85,-302.87"/>
<polygon fill="none" stroke="midnightblue" points="490.83,-389.46 489.46,-399.97 497.08,-392.61 490.83,-389.46"/>
</g>
<!-- Node14&#45;&gt;Node13 -->
<g id="edge19" class="edge">
<title>Node14&#45;&gt;Node13</title>
<path fill="none" stroke="#404040" d="M459.15,-399.59C449.89,-377.65 441.3,-346.61 451.5,-321 452.59,-318.28 453.87,-315.61 455.31,-313"/>
<polygon fill="none" stroke="#404040" points="455.48,-312.75 455.4,-305.54 462.03,-302.69 462.1,-309.9 455.48,-312.75"/>
<text text-anchor="middle" x="479.5" y="-335" font-family="Helvetica,sans-Serif" font-size="10.00"> +SuperField</text>
<text text-anchor="middle" x="479.5" y="-324" font-family="Helvetica,sans-Serif" font-size="10.00">+Children</text>
</g>
<!-- Node14&#45;&gt;Node14 -->
<g id="edge18" class="edge">
<title>Node14&#45;&gt;Node14</title>
<path fill="none" stroke="#404040" d="M515.21,-445.11C525.41,-443.88 533,-438.34 533,-428.5 533,-422.96 530.6,-418.79 526.68,-415.98"/>
<polygon fill="none" stroke="#404040" points="526.51,-415.92 519.51,-417.67 515.21,-411.89 522.2,-410.13 526.51,-415.92"/>
<text text-anchor="middle" x="548.5" y="-426" font-family="Helvetica,sans-Serif" font-size="10.00"> +Next</text>
</g>
<!-- Node15 -->
<g id="node15" class="node">
<title>Node15</title>
<g id="a_node15"><a xlink:href="../../d8/d9c/structSDK_1_1FEFBeamSocketMoveInfo.html" target="_top" xlink:title=" ">
<polygon fill="white" stroke="black" points="0,-389 0,-468 159,-468 159,-389 0,-389"/>
<text text-anchor="middle" x="79.5" y="-456" font-family="Helvetica,sans-Serif" font-size="10.00">SDK::FEFBeamSocketMoveInfo</text>
<polyline fill="none" stroke="black" points="0,-449 159,-449 "/>
<text text-anchor="start" x="8" y="-437" font-family="Helvetica,sans-Serif" font-size="10.00">+ fElapsedTime</text>
<text text-anchor="start" x="8" y="-426" font-family="Helvetica,sans-Serif" font-size="10.00">+ fStartTime</text>
<text text-anchor="start" x="8" y="-415" font-family="Helvetica,sans-Serif" font-size="10.00">+ bRandomActivity</text>
<polyline fill="none" stroke="black" points="0,-408 159,-408 "/>
<text text-anchor="middle" x="79.5" y="-396" font-family="Helvetica,sans-Serif" font-size="10.00"> </text>
</a>
</g>
</g>
<!-- Node15&#45;&gt;Node1 -->
<g id="edge21" class="edge">
<title>Node15&#45;&gt;Node1</title>
<path fill="none" stroke="#404040" d="M71.46,-388.94C68.35,-368.66 66.23,-343.42 69.5,-321 70.34,-315.24 71.64,-309.25 73.15,-303.41"/>
<polygon fill="none" stroke="#404040" points="73.18,-303.3 70.98,-296.43 76.47,-291.76 78.67,-298.63 73.18,-303.3"/>
<text text-anchor="middle" x="119" y="-335" font-family="Helvetica,sans-Serif" font-size="10.00"> +EndSocketMoveInfo</text>
<text text-anchor="middle" x="119" y="-324" font-family="Helvetica,sans-Serif" font-size="10.00">+StartSocketMoveInfo</text>
</g>
<!-- Node16&#45;&gt;Node15 -->
<g id="edge22" class="edge">
<title>Node16&#45;&gt;Node15</title>
<path fill="none" stroke="#404040" d="M152.97,-593C139.56,-571.64 125.65,-547.82 114.5,-525 107.53,-510.73 101.13,-494.69 95.77,-479.9"/>
<polygon fill="none" stroke="#404040" points="95.69,-479.67 89.93,-475.35 91.7,-468.36 97.47,-472.69 95.69,-479.67"/>
<text text-anchor="middle" x="154" y="-517" font-family="Helvetica,sans-Serif" font-size="10.00"> +SocketNameArr</text>
</g>
</g>
</svg>
