<?xml version="1.0" encoding="UTF-8" standalone="no"?>
<!DOCTYPE svg PUBLIC "-//W3C//DTD SVG 1.1//EN"
 "http://www.w3.org/Graphics/SVG/1.1/DTD/svg11.dtd">
<!-- Generated by graphviz version 2.41.20171026.1811 (20171026.1811)
 -->
<!-- Title: SDK::FSparseArray_Mirror Pages: 1 -->
<svg width="248pt" height="463pt"
 viewBox="0.00 0.00 247.50 463.00" xmlns="http://www.w3.org/2000/svg" xmlns:xlink="http://www.w3.org/1999/xlink">
<g id="graph0" class="graph" transform="scale(1 1) rotate(0) translate(4 459)">
<title>SDK::FSparseArray_Mirror</title>
<polygon fill="white" stroke="transparent" points="-4,4 -4,-459 243.5,-459 243.5,4 -4,4"/>
<!-- Node1 -->
<g id="node1" class="node">
<title>Node1</title>
<g id="a_node1"><a xlink:title=" ">
<polygon fill="#bfbfbf" stroke="black" points="46.5,-0.5 46.5,-68.5 180.5,-68.5 180.5,-0.5 46.5,-0.5"/>
<text text-anchor="middle" x="113.5" y="-56.5" font-family="Helvetica,sans-Serif" font-size="10.00">SDK::FSparseArray_Mirror</text>
<polyline fill="none" stroke="black" points="46.5,-49.5 180.5,-49.5 "/>
<text text-anchor="start" x="54.5" y="-37.5" font-family="Helvetica,sans-Serif" font-size="10.00">+ FirstFreeIndex</text>
<text text-anchor="start" x="54.5" y="-26.5" font-family="Helvetica,sans-Serif" font-size="10.00">+ NumFreeIndices</text>
<polyline fill="none" stroke="black" points="46.5,-19.5 180.5,-19.5 "/>
<text text-anchor="middle" x="113.5" y="-7.5" font-family="Helvetica,sans-Serif" font-size="10.00"> </text>
</a>
</g>
</g>
<!-- Node2 -->
<g id="node2" class="node">
<title>Node2</title>
<g id="a_node2"><a xlink:href="../../d3/d79/classSDK_1_1TArray.html" target="_top" xlink:title=" ">
<polygon fill="white" stroke="black" points="0,-116.5 0,-261.5 101,-261.5 101,-116.5 0,-116.5"/>
<text text-anchor="middle" x="50.5" y="-249.5" font-family="Helvetica,sans-Serif" font-size="10.00">SDK::TArray&lt; int &gt;</text>
<polyline fill="none" stroke="black" points="0,-242.5 101,-242.5 "/>
<text text-anchor="start" x="8" y="-230.5" font-family="Helvetica,sans-Serif" font-size="10.00">&#45; Data</text>
<text text-anchor="start" x="8" y="-219.5" font-family="Helvetica,sans-Serif" font-size="10.00">&#45; Count</text>
<text text-anchor="start" x="8" y="-208.5" font-family="Helvetica,sans-Serif" font-size="10.00">&#45; Max</text>
<polyline fill="none" stroke="black" points="0,-201.5 101,-201.5 "/>
<text text-anchor="start" x="8" y="-189.5" font-family="Helvetica,sans-Serif" font-size="10.00">+ TArray()</text>
<text text-anchor="start" x="8" y="-178.5" font-family="Helvetica,sans-Serif" font-size="10.00">+ Num()</text>
<text text-anchor="start" x="8" y="-167.5" font-family="Helvetica,sans-Serif" font-size="10.00">+ operator[]()</text>
<text text-anchor="start" x="8" y="-156.5" font-family="Helvetica,sans-Serif" font-size="10.00">+ operator[]()</text>
<text text-anchor="start" x="8" y="-145.5" font-family="Helvetica,sans-Serif" font-size="10.00">+ IsValidIndex()</text>
<text text-anchor="start" x="8" y="-134.5" font-family="Helvetica,sans-Serif" font-size="10.00">+ GetByIndex()</text>
<text text-anchor="start" x="8" y="-123.5" font-family="Helvetica,sans-Serif" font-size="10.00">+ GetByIndex()</text>
</a>
</g>
</g>
<!-- Node2&#45;&gt;Node1 -->
<g id="edge1" class="edge">
<title>Node2&#45;&gt;Node1</title>
<path fill="none" stroke="#404040" d="M78.42,-116.39C82.41,-106.49 86.51,-96.47 90.5,-87 91.48,-84.67 92.5,-82.29 93.53,-79.89"/>
<polygon fill="none" stroke="#404040" points="93.64,-79.65 92.37,-72.55 98.44,-68.65 99.7,-75.75 93.64,-79.65"/>
<text text-anchor="middle" x="116" y="-90" font-family="Helvetica,sans-Serif" font-size="10.00"> +Elements</text>
</g>
<!-- Node3 -->
<g id="node3" class="node">
<title>Node3</title>
<g id="a_node3"><a xlink:href="../../d3/d79/classSDK_1_1TArray.html" target="_top" xlink:title=" ">
<polygon fill="white" stroke="black" points="2,-309.5 2,-454.5 99,-454.5 99,-309.5 2,-309.5"/>
<text text-anchor="middle" x="50.5" y="-442.5" font-family="Helvetica,sans-Serif" font-size="10.00">SDK::TArray&lt; T &gt;</text>
<polyline fill="none" stroke="black" points="2,-435.5 99,-435.5 "/>
<text text-anchor="start" x="10" y="-423.5" font-family="Helvetica,sans-Serif" font-size="10.00">&#45; Data</text>
<text text-anchor="start" x="10" y="-412.5" font-family="Helvetica,sans-Serif" font-size="10.00">&#45; Count</text>
<text text-anchor="start" x="10" y="-401.5" font-family="Helvetica,sans-Serif" font-size="10.00">&#45; Max</text>
<polyline fill="none" stroke="black" points="2,-394.5 99,-394.5 "/>
<text text-anchor="start" x="10" y="-382.5" font-family="Helvetica,sans-Serif" font-size="10.00">+ TArray()</text>
<text text-anchor="start" x="10" y="-371.5" font-family="Helvetica,sans-Serif" font-size="10.00">+ Num()</text>
<text text-anchor="start" x="10" y="-360.5" font-family="Helvetica,sans-Serif" font-size="10.00">+ operator[]()</text>
<text text-anchor="start" x="10" y="-349.5" font-family="Helvetica,sans-Serif" font-size="10.00">+ operator[]()</text>
<text text-anchor="start" x="10" y="-338.5" font-family="Helvetica,sans-Serif" font-size="10.00">+ IsValidIndex()</text>
<text text-anchor="start" x="10" y="-327.5" font-family="Helvetica,sans-Serif" font-size="10.00">+ GetByIndex()</text>
<text text-anchor="start" x="10" y="-316.5" font-family="Helvetica,sans-Serif" font-size="10.00">+ GetByIndex()</text>
</a>
</g>
</g>
<!-- Node3&#45;&gt;Node2 -->
<g id="edge2" class="edge">
<title>Node3&#45;&gt;Node2</title>
<path fill="none" stroke="orange" d="M50.5,-299.01C50.5,-286.62 50.5,-273.91 50.5,-261.75"/>
<polygon fill="orange" stroke="orange" points="47,-299.34 50.5,-309.34 54,-299.34 47,-299.34"/>
<text text-anchor="middle" x="66.5" y="-283" font-family="Helvetica,sans-Serif" font-size="10.00"> &lt; int &gt;</text>
</g>
<!-- Node4 -->
<g id="node4" class="node">
<title>Node4</title>
<g id="a_node4"><a xlink:href="../../d4/dd5/structSDK_1_1FBitArray__Mirror.html" target="_top" xlink:title=" ">
<polygon fill="white" stroke="black" points="119,-149.5 119,-228.5 234,-228.5 234,-149.5 119,-149.5"/>
<text text-anchor="middle" x="176.5" y="-216.5" font-family="Helvetica,sans-Serif" font-size="10.00">SDK::FBitArray_Mirror</text>
<polyline fill="none" stroke="black" points="119,-209.5 234,-209.5 "/>
<text text-anchor="start" x="127" y="-197.5" font-family="Helvetica,sans-Serif" font-size="10.00">+ InlineData</text>
<text text-anchor="start" x="127" y="-186.5" font-family="Helvetica,sans-Serif" font-size="10.00">+ NumBits</text>
<text text-anchor="start" x="127" y="-175.5" font-family="Helvetica,sans-Serif" font-size="10.00">+ MaxBits</text>
<polyline fill="none" stroke="black" points="119,-168.5 234,-168.5 "/>
<text text-anchor="middle" x="176.5" y="-156.5" font-family="Helvetica,sans-Serif" font-size="10.00"> </text>
</a>
</g>
</g>
<!-- Node4&#45;&gt;Node1 -->
<g id="edge3" class="edge">
<title>Node4&#45;&gt;Node1</title>
<path fill="none" stroke="#404040" d="M164.66,-149.06C158.47,-130.06 150.34,-107.03 141.5,-87 140.41,-84.54 139.26,-82.04 138.05,-79.54"/>
<polygon fill="none" stroke="#404040" points="137.95,-79.33 131.67,-75.78 132.54,-68.62 138.81,-72.17 137.95,-79.33"/>
<text text-anchor="middle" x="183.5" y="-90" font-family="Helvetica,sans-Serif" font-size="10.00"> +AllocationFlags</text>
</g>
<!-- Node5 -->
<g id="node5" class="node">
<title>Node5</title>
<g id="a_node5"><a xlink:href="../../d9/dfa/structSDK_1_1FPointer.html" target="_top" xlink:title=" ">
<polygon fill="white" stroke="black" points="127.5,-348 127.5,-416 225.5,-416 225.5,-348 127.5,-348"/>
<text text-anchor="middle" x="176.5" y="-404" font-family="Helvetica,sans-Serif" font-size="10.00">SDK::FPointer</text>
<polyline fill="none" stroke="black" points="127.5,-397 225.5,-397 "/>
<text text-anchor="start" x="135.5" y="-385" font-family="Helvetica,sans-Serif" font-size="10.00">+ Dummy</text>
<text text-anchor="start" x="135.5" y="-374" font-family="Helvetica,sans-Serif" font-size="10.00">+ UnknownData00</text>
<polyline fill="none" stroke="black" points="127.5,-367 225.5,-367 "/>
<text text-anchor="middle" x="176.5" y="-355" font-family="Helvetica,sans-Serif" font-size="10.00"> </text>
</a>
</g>
</g>
<!-- Node5&#45;&gt;Node4 -->
<g id="edge4" class="edge">
<title>Node5&#45;&gt;Node4</title>
<path fill="none" stroke="#404040" d="M176.5,-347.73C176.5,-318.35 176.5,-275.05 176.5,-241.25"/>
<polygon fill="none" stroke="#404040" points="176.5,-240.81 172.5,-234.81 176.5,-228.81 180.5,-234.81 176.5,-240.81"/>
<text text-anchor="middle" x="208" y="-283" font-family="Helvetica,sans-Serif" font-size="10.00"> +IndirectData</text>
</g>
</g>
</svg>
