<?xml version="1.0" encoding="UTF-8" standalone="no"?>
<!DOCTYPE svg PUBLIC "-//W3C//DTD SVG 1.1//EN"
 "http://www.w3.org/Graphics/SVG/1.1/DTD/svg11.dtd">
<!-- Generated by graphviz version 2.41.20171026.1811 (20171026.1811)
 -->
<!-- Title: SDK::UEFUITextField Pages: 1 -->
<svg width="926pt" height="2568pt"
 viewBox="0.00 0.00 925.50 2568.00" xmlns="http://www.w3.org/2000/svg" xmlns:xlink="http://www.w3.org/1999/xlink">
<g id="graph0" class="graph" transform="scale(1 1) rotate(0) translate(4 2564)">
<title>SDK::UEFUITextField</title>
<polygon fill="white" stroke="transparent" points="-4,4 -4,-2564 921.5,-2564 921.5,4 -4,4"/>
<!-- Node1 -->
<g id="node1" class="node">
<title>Node1</title>
<g id="a_node1"><a xlink:title=" ">
<polygon fill="#bfbfbf" stroke="black" points="26,-0.5 26,-57.5 141,-57.5 141,-0.5 26,-0.5"/>
<text text-anchor="middle" x="83.5" y="-45.5" font-family="Helvetica,sans-Serif" font-size="10.00">SDK::UEFUITextField</text>
<polyline fill="none" stroke="black" points="26,-38.5 141,-38.5 "/>
<text text-anchor="middle" x="83.5" y="-26.5" font-family="Helvetica,sans-Serif" font-size="10.00"> </text>
<polyline fill="none" stroke="black" points="26,-19.5 141,-19.5 "/>
<text text-anchor="start" x="34" y="-7.5" font-family="Helvetica,sans-Serif" font-size="10.00">+ StaticClass()</text>
</a>
</g>
</g>
<!-- Node2 -->
<g id="node2" class="node">
<title>Node2</title>
<g id="a_node2"><a xlink:href="../../d2/d77/classSDK_1_1UEFUIControl.html" target="_top" xlink:title=" ">
<polygon fill="white" stroke="black" points="30.5,-95.5 30.5,-152.5 136.5,-152.5 136.5,-95.5 30.5,-95.5"/>
<text text-anchor="middle" x="83.5" y="-140.5" font-family="Helvetica,sans-Serif" font-size="10.00">SDK::UEFUIControl</text>
<polyline fill="none" stroke="black" points="30.5,-133.5 136.5,-133.5 "/>
<text text-anchor="middle" x="83.5" y="-121.5" font-family="Helvetica,sans-Serif" font-size="10.00"> </text>
<polyline fill="none" stroke="black" points="30.5,-114.5 136.5,-114.5 "/>
<text text-anchor="start" x="38.5" y="-102.5" font-family="Helvetica,sans-Serif" font-size="10.00">+ StaticClass()</text>
</a>
</g>
</g>
<!-- Node2&#45;&gt;Node1 -->
<g id="edge1" class="edge">
<title>Node2&#45;&gt;Node1</title>
<path fill="none" stroke="midnightblue" d="M83.5,-85.24C83.5,-76.03 83.5,-66.35 83.5,-57.71"/>
<polygon fill="none" stroke="midnightblue" points="80,-85.35 83.5,-95.35 87,-85.35 80,-85.35"/>
</g>
<!-- Node3 -->
<g id="node3" class="node">
<title>Node3</title>
<g id="a_node3"><a xlink:href="../../dd/d3c/classSDK_1_1UEFUIComponent.html" target="_top" xlink:title=" ">
<polygon fill="white" stroke="black" points="21,-190.5 21,-368.5 146,-368.5 146,-190.5 21,-190.5"/>
<text text-anchor="middle" x="83.5" y="-356.5" font-family="Helvetica,sans-Serif" font-size="10.00">SDK::UEFUIComponent</text>
<polyline fill="none" stroke="black" points="21,-349.5 146,-349.5 "/>
<text text-anchor="middle" x="83.5" y="-337.5" font-family="Helvetica,sans-Serif" font-size="10.00"> </text>
<polyline fill="none" stroke="black" points="21,-330.5 146,-330.5 "/>
<text text-anchor="start" x="29" y="-318.5" font-family="Helvetica,sans-Serif" font-size="10.00">+ InvalidateSize()</text>
<text text-anchor="start" x="29" y="-307.5" font-family="Helvetica,sans-Serif" font-size="10.00">+ InvalidateData()</text>
<text text-anchor="start" x="29" y="-296.5" font-family="Helvetica,sans-Serif" font-size="10.00">+ Invalidate()</text>
<text text-anchor="start" x="29" y="-285.5" font-family="Helvetica,sans-Serif" font-size="10.00">+ ValidateNow()</text>
<text text-anchor="start" x="29" y="-274.5" font-family="Helvetica,sans-Serif" font-size="10.00">+ HasFocus()</text>
<text text-anchor="start" x="29" y="-263.5" font-family="Helvetica,sans-Serif" font-size="10.00">+ GetY()</text>
<text text-anchor="start" x="29" y="-252.5" font-family="Helvetica,sans-Serif" font-size="10.00">+ SetY()</text>
<text text-anchor="start" x="29" y="-241.5" font-family="Helvetica,sans-Serif" font-size="10.00">+ GetX()</text>
<text text-anchor="start" x="29" y="-230.5" font-family="Helvetica,sans-Serif" font-size="10.00">+ SetX()</text>
<text text-anchor="start" x="29" y="-219.5" font-family="Helvetica,sans-Serif" font-size="10.00">+ GetHeight()</text>
<text text-anchor="start" x="29" y="-208.5" font-family="Helvetica,sans-Serif" font-size="10.00">and 10 more...</text>
<text text-anchor="start" x="29" y="-197.5" font-family="Helvetica,sans-Serif" font-size="10.00">+ StaticClass()</text>
</a>
</g>
</g>
<!-- Node3&#45;&gt;Node2 -->
<g id="edge2" class="edge">
<title>Node3&#45;&gt;Node2</title>
<path fill="none" stroke="midnightblue" d="M83.5,-180.02C83.5,-170.1 83.5,-160.7 83.5,-152.57"/>
<polygon fill="none" stroke="midnightblue" points="80,-180.1 83.5,-190.1 87,-180.1 80,-180.1"/>
</g>
<!-- Node4 -->
<g id="node4" class="node">
<title>Node4</title>
<g id="a_node4"><a xlink:href="../../dc/dd3/classSDK_1_1UGFxClikWidget.html" target="_top" xlink:title=" ">
<polygon fill="white" stroke="black" points="0,-406.5 0,-551.5 167,-551.5 167,-406.5 0,-406.5"/>
<text text-anchor="middle" x="83.5" y="-539.5" font-family="Helvetica,sans-Serif" font-size="10.00">SDK::UGFxClikWidget</text>
<polyline fill="none" stroke="black" points="0,-532.5 167,-532.5 "/>
<text text-anchor="middle" x="83.5" y="-520.5" font-family="Helvetica,sans-Serif" font-size="10.00"> </text>
<polyline fill="none" stroke="black" points="0,-513.5 167,-513.5 "/>
<text text-anchor="start" x="8" y="-501.5" font-family="Helvetica,sans-Serif" font-size="10.00">+ ASRemoveAllEventListeners()</text>
<text text-anchor="start" x="8" y="-490.5" font-family="Helvetica,sans-Serif" font-size="10.00">+ AS3AddEventListener()</text>
<text text-anchor="start" x="8" y="-479.5" font-family="Helvetica,sans-Serif" font-size="10.00">+ ASAddEventListener()</text>
<text text-anchor="start" x="8" y="-468.5" font-family="Helvetica,sans-Serif" font-size="10.00">+ SetListener()</text>
<text text-anchor="start" x="8" y="-457.5" font-family="Helvetica,sans-Serif" font-size="10.00">+ GetEventStringFromTypename()</text>
<text text-anchor="start" x="8" y="-446.5" font-family="Helvetica,sans-Serif" font-size="10.00">+ RemoveAllEventListeners()</text>
<text text-anchor="start" x="8" y="-435.5" font-family="Helvetica,sans-Serif" font-size="10.00">+ AddEventListener()</text>
<text text-anchor="start" x="8" y="-424.5" font-family="Helvetica,sans-Serif" font-size="10.00">+ EventListener()</text>
<text text-anchor="start" x="8" y="-413.5" font-family="Helvetica,sans-Serif" font-size="10.00">+ StaticClass()</text>
</a>
</g>
</g>
<!-- Node4&#45;&gt;Node3 -->
<g id="edge3" class="edge">
<title>Node4&#45;&gt;Node3</title>
<path fill="none" stroke="midnightblue" d="M83.5,-396.25C83.5,-387.15 83.5,-377.85 83.5,-368.68"/>
<polygon fill="none" stroke="midnightblue" points="80,-396.42 83.5,-406.42 87,-396.42 80,-396.42"/>
</g>
<!-- Node5 -->
<g id="node5" class="node">
<title>Node5</title>
<g id="a_node5"><a xlink:href="../../d2/d23/classSDK_1_1UGFxObject.html" target="_top" xlink:title=" ">
<polygon fill="white" stroke="black" points="622,-589.5 622,-778.5 771,-778.5 771,-589.5 622,-589.5"/>
<text text-anchor="middle" x="696.5" y="-766.5" font-family="Helvetica,sans-Serif" font-size="10.00">SDK::UGFxObject</text>
<polyline fill="none" stroke="black" points="622,-759.5 771,-759.5 "/>
<text text-anchor="start" x="630" y="-747.5" font-family="Helvetica,sans-Serif" font-size="10.00">+ Value</text>
<text text-anchor="start" x="630" y="-736.5" font-family="Helvetica,sans-Serif" font-size="10.00">+ bListenExternalInterfaceCall</text>
<polyline fill="none" stroke="black" points="622,-729.5 771,-729.5 "/>
<text text-anchor="start" x="630" y="-717.5" font-family="Helvetica,sans-Serif" font-size="10.00">+ DestroyGFxObject()</text>
<text text-anchor="start" x="630" y="-706.5" font-family="Helvetica,sans-Serif" font-size="10.00">+ WidgetUnloaded()</text>
<text text-anchor="start" x="630" y="-695.5" font-family="Helvetica,sans-Serif" font-size="10.00">+ WidgetInitialized()</text>
<text text-anchor="start" x="630" y="-684.5" font-family="Helvetica,sans-Serif" font-size="10.00">+ GotoAndStopI()</text>
<text text-anchor="start" x="630" y="-673.5" font-family="Helvetica,sans-Serif" font-size="10.00">+ GotoAndStop()</text>
<text text-anchor="start" x="630" y="-662.5" font-family="Helvetica,sans-Serif" font-size="10.00">+ GotoAndPlayI()</text>
<text text-anchor="start" x="630" y="-651.5" font-family="Helvetica,sans-Serif" font-size="10.00">+ GotoAndPlay()</text>
<text text-anchor="start" x="630" y="-640.5" font-family="Helvetica,sans-Serif" font-size="10.00">+ ActionScriptString()</text>
<text text-anchor="start" x="630" y="-629.5" font-family="Helvetica,sans-Serif" font-size="10.00">+ ActionScriptFloat()</text>
<text text-anchor="start" x="630" y="-618.5" font-family="Helvetica,sans-Serif" font-size="10.00">+ ActionScriptInt()</text>
<text text-anchor="start" x="630" y="-607.5" font-family="Helvetica,sans-Serif" font-size="10.00">and 69 more...</text>
<text text-anchor="start" x="630" y="-596.5" font-family="Helvetica,sans-Serif" font-size="10.00">+ StaticClass()</text>
</a>
</g>
</g>
<!-- Node5&#45;&gt;Node4 -->
<g id="edge4" class="edge">
<title>Node5&#45;&gt;Node4</title>
<path fill="none" stroke="midnightblue" d="M612.29,-655.11C495.15,-616.32 284.26,-546.48 167.32,-507.76"/>
<polygon fill="none" stroke="midnightblue" points="611.35,-658.49 621.95,-658.31 613.55,-651.84 611.35,-658.49"/>
</g>
<!-- Node6 -->
<g id="node6" class="node">
<title>Node6</title>
<g id="a_node6"><a xlink:href="../../d9/d45/classSDK_1_1UObject.html" target="_top" xlink:title=" ">
<polygon fill="white" stroke="black" points="461.5,-1667.5 461.5,-1911.5 659.5,-1911.5 659.5,-1667.5 461.5,-1667.5"/>
<text text-anchor="middle" x="560.5" y="-1899.5" font-family="Helvetica,sans-Serif" font-size="10.00">SDK::UObject</text>
<polyline fill="none" stroke="black" points="461.5,-1892.5 659.5,-1892.5 "/>
<text text-anchor="start" x="469.5" y="-1880.5" font-family="Helvetica,sans-Serif" font-size="10.00">+ ObjectInternalInteger</text>
<text text-anchor="start" x="469.5" y="-1869.5" font-family="Helvetica,sans-Serif" font-size="10.00">+ NetIndex</text>
<polyline fill="none" stroke="black" points="461.5,-1862.5 659.5,-1862.5 "/>
<text text-anchor="start" x="469.5" y="-1850.5" font-family="Helvetica,sans-Serif" font-size="10.00">+ UObject::GetName()</text>
<text text-anchor="start" x="469.5" y="-1839.5" font-family="Helvetica,sans-Serif" font-size="10.00">+ GetFullName()</text>
<text text-anchor="start" x="469.5" y="-1828.5" font-family="Helvetica,sans-Serif" font-size="10.00">+ IsA()</text>
<text text-anchor="start" x="469.5" y="-1817.5" font-family="Helvetica,sans-Serif" font-size="10.00">+ ProcessEvent()</text>
<text text-anchor="start" x="469.5" y="-1806.5" font-family="Helvetica,sans-Serif" font-size="10.00">+ STATIC_ProfNodeEvent()</text>
<text text-anchor="start" x="469.5" y="-1795.5" font-family="Helvetica,sans-Serif" font-size="10.00">+ STATIC_ProfNodeSetDepthThreshold()</text>
<text text-anchor="start" x="469.5" y="-1784.5" font-family="Helvetica,sans-Serif" font-size="10.00">+ STATIC_ProfNodeSetTimeThreshold</text>
<text text-anchor="start" x="469.5" y="-1773.5" font-family="Helvetica,sans-Serif" font-size="10.00">Seconds()</text>
<text text-anchor="start" x="469.5" y="-1762.5" font-family="Helvetica,sans-Serif" font-size="10.00">+ STATIC_ProfNodeStop()</text>
<text text-anchor="start" x="469.5" y="-1751.5" font-family="Helvetica,sans-Serif" font-size="10.00">+ STATIC_ProfNodeStart()</text>
<text text-anchor="start" x="469.5" y="-1740.5" font-family="Helvetica,sans-Serif" font-size="10.00">+ STATIC_GetStringFromGuid()</text>
<text text-anchor="start" x="469.5" y="-1729.5" font-family="Helvetica,sans-Serif" font-size="10.00">and 298 more...</text>
<text text-anchor="start" x="469.5" y="-1718.5" font-family="Helvetica,sans-Serif" font-size="10.00">+ GetGlobalObjects()</text>
<text text-anchor="start" x="469.5" y="-1707.5" font-family="Helvetica,sans-Serif" font-size="10.00">+ FindObject()</text>
<text text-anchor="start" x="469.5" y="-1696.5" font-family="Helvetica,sans-Serif" font-size="10.00">+ FindClass()</text>
<text text-anchor="start" x="469.5" y="-1685.5" font-family="Helvetica,sans-Serif" font-size="10.00">+ GetObjectCasted()</text>
<text text-anchor="start" x="469.5" y="-1674.5" font-family="Helvetica,sans-Serif" font-size="10.00">+ StaticClass()</text>
</a>
</g>
</g>
<!-- Node6&#45;&gt;Node5 -->
<g id="edge5" class="edge">
<title>Node6&#45;&gt;Node5</title>
<path fill="none" stroke="midnightblue" d="M668.89,-1743.45C742.11,-1704.99 825.5,-1641.81 825.5,-1553.5 825.5,-1553.5 825.5,-1553.5 825.5,-898 825.5,-848.5 799.69,-800.67 771.17,-762.92"/>
<polygon fill="none" stroke="midnightblue" points="666.85,-1740.56 659.55,-1748.25 670.05,-1746.79 666.85,-1740.56"/>
</g>
<!-- Node6&#45;&gt;Node6 -->
<g id="edge11" class="edge">
<title>Node6&#45;&gt;Node6</title>
<path fill="none" stroke="#404040" d="M659.51,-1812.53C670.44,-1808.15 677.5,-1800.48 677.5,-1789.5 677.5,-1782.64 674.74,-1777.07 670.01,-1772.78"/>
<polygon fill="none" stroke="#404040" points="669.8,-1772.66 662.59,-1772.99 659.51,-1766.47 666.72,-1766.14 669.8,-1772.66"/>
<text text-anchor="middle" x="717" y="-1798" font-family="Helvetica,sans-Serif" font-size="10.00"> +Outer</text>
<text text-anchor="middle" x="717" y="-1787" font-family="Helvetica,sans-Serif" font-size="10.00">+Linker</text>
<text text-anchor="middle" x="717" y="-1776" font-family="Helvetica,sans-Serif" font-size="10.00">+ObjectArchetype</text>
</g>
<!-- Node12 -->
<g id="node12" class="node">
<title>Node12</title>
<g id="a_node12"><a xlink:href="../../d3/d79/classSDK_1_1TArray.html" target="_top" xlink:title=" ">
<polygon fill="white" stroke="black" points="359,-1485.5 359,-1619.5 520,-1619.5 520,-1485.5 359,-1485.5"/>
<text text-anchor="middle" x="439.5" y="-1607.5" font-family="Helvetica,sans-Serif" font-size="10.00">SDK::TArray&lt; SDK::UObject * &gt;</text>
<polyline fill="none" stroke="black" points="359,-1600.5 520,-1600.5 "/>
<text text-anchor="start" x="367" y="-1588.5" font-family="Helvetica,sans-Serif" font-size="10.00">&#45; Count</text>
<text text-anchor="start" x="367" y="-1577.5" font-family="Helvetica,sans-Serif" font-size="10.00">&#45; Max</text>
<polyline fill="none" stroke="black" points="359,-1570.5 520,-1570.5 "/>
<text text-anchor="start" x="367" y="-1558.5" font-family="Helvetica,sans-Serif" font-size="10.00">+ TArray()</text>
<text text-anchor="start" x="367" y="-1547.5" font-family="Helvetica,sans-Serif" font-size="10.00">+ Num()</text>
<text text-anchor="start" x="367" y="-1536.5" font-family="Helvetica,sans-Serif" font-size="10.00">+ operator[]()</text>
<text text-anchor="start" x="367" y="-1525.5" font-family="Helvetica,sans-Serif" font-size="10.00">+ operator[]()</text>
<text text-anchor="start" x="367" y="-1514.5" font-family="Helvetica,sans-Serif" font-size="10.00">+ IsValidIndex()</text>
<text text-anchor="start" x="367" y="-1503.5" font-family="Helvetica,sans-Serif" font-size="10.00">+ GetByIndex()</text>
<text text-anchor="start" x="367" y="-1492.5" font-family="Helvetica,sans-Serif" font-size="10.00">+ GetByIndex()</text>
</a>
</g>
</g>
<!-- Node6&#45;&gt;Node12 -->
<g id="edge13" class="edge">
<title>Node6&#45;&gt;Node12</title>
<path fill="none" stroke="#404040" d="M463.29,-1667.34C460.08,-1661.28 457.12,-1655.16 454.5,-1649 452.11,-1643.4 450.1,-1637.47 448.41,-1631.42"/>
<polygon fill="none" stroke="#404040" points="448.39,-1631.34 443.07,-1626.46 445.53,-1619.68 450.84,-1624.56 448.39,-1631.34"/>
<text text-anchor="middle" x="468.5" y="-1641" font-family="Helvetica,sans-Serif" font-size="10.00"> &#45;Data</text>
</g>
<!-- Node14 -->
<g id="node14" class="node">
<title>Node14</title>
<g id="a_node14"><a xlink:href="../../d7/d85/classSDK_1_1UClass.html" target="_top" xlink:title=" ">
<polygon fill="white" stroke="black" points="491,-1124.5 491,-1214.5 612,-1214.5 612,-1124.5 491,-1124.5"/>
<text text-anchor="middle" x="551.5" y="-1202.5" font-family="Helvetica,sans-Serif" font-size="10.00">SDK::UClass</text>
<polyline fill="none" stroke="black" points="491,-1195.5 612,-1195.5 "/>
<text text-anchor="start" x="499" y="-1183.5" font-family="Helvetica,sans-Serif" font-size="10.00">+ UnknownData00</text>
<text text-anchor="start" x="499" y="-1172.5" font-family="Helvetica,sans-Serif" font-size="10.00">+ UnknownData01</text>
<polyline fill="none" stroke="black" points="491,-1165.5 612,-1165.5 "/>
<text text-anchor="start" x="499" y="-1153.5" font-family="Helvetica,sans-Serif" font-size="10.00">+ CreateDefaultObject()</text>
<text text-anchor="start" x="499" y="-1142.5" font-family="Helvetica,sans-Serif" font-size="10.00">+ CreateDefaultObject()</text>
<text text-anchor="start" x="499" y="-1131.5" font-family="Helvetica,sans-Serif" font-size="10.00">+ StaticClass()</text>
</a>
</g>
</g>
<!-- Node6&#45;&gt;Node14 -->
<g id="edge23" class="edge">
<title>Node6&#45;&gt;Node14</title>
<path fill="none" stroke="#404040" d="M579.05,-1667.42C583.25,-1630.9 586.5,-1590.65 586.5,-1553.5 586.5,-1553.5 586.5,-1553.5 586.5,-1280 586.5,-1261.92 582.12,-1242.92 576.45,-1225.92"/>
<polygon fill="none" stroke="#404040" points="576.41,-1225.81 570.62,-1221.51 572.37,-1214.51 578.15,-1218.81 576.41,-1225.81"/>
<text text-anchor="middle" x="634" y="-1384.5" font-family="Helvetica,sans-Serif" font-size="10.00"> +ClassDefaultObject</text>
</g>
<!-- Node17 -->
<g id="node17" class="node">
<title>Node17</title>
<g id="a_node17"><a xlink:href="../../de/dd6/classSDK_1_1UField.html" target="_top" xlink:title=" ">
<polygon fill="white" stroke="black" points="665,-1524 665,-1581 748,-1581 748,-1524 665,-1524"/>
<text text-anchor="middle" x="706.5" y="-1569" font-family="Helvetica,sans-Serif" font-size="10.00">SDK::UField</text>
<polyline fill="none" stroke="black" points="665,-1562 748,-1562 "/>
<text text-anchor="middle" x="706.5" y="-1550" font-family="Helvetica,sans-Serif" font-size="10.00"> </text>
<polyline fill="none" stroke="black" points="665,-1543 748,-1543 "/>
<text text-anchor="start" x="673" y="-1531" font-family="Helvetica,sans-Serif" font-size="10.00">+ StaticClass()</text>
</a>
</g>
</g>
<!-- Node6&#45;&gt;Node17 -->
<g id="edge20" class="edge">
<title>Node6&#45;&gt;Node17</title>
<path fill="none" stroke="midnightblue" d="M641.25,-1658.52C659.45,-1629.24 676.99,-1601 689.3,-1581.19"/>
<polygon fill="none" stroke="midnightblue" points="638.16,-1656.87 635.85,-1667.21 644.1,-1660.57 638.16,-1656.87"/>
</g>
<!-- Node22 -->
<g id="node22" class="node">
<title>Node22</title>
<g id="a_node22"><a xlink:href="../../dc/dd6/structSDK_1_1FScriptDelegate.html" target="_top" xlink:title=" ">
<polygon fill="white" stroke="black" points="74.5,-1524 74.5,-1581 188.5,-1581 188.5,-1524 74.5,-1524"/>
<text text-anchor="middle" x="131.5" y="-1569" font-family="Helvetica,sans-Serif" font-size="10.00">SDK::FScriptDelegate</text>
<polyline fill="none" stroke="black" points="74.5,-1562 188.5,-1562 "/>
<text text-anchor="middle" x="131.5" y="-1550" font-family="Helvetica,sans-Serif" font-size="10.00"> </text>
<polyline fill="none" stroke="black" points="74.5,-1543 188.5,-1543 "/>
<text text-anchor="middle" x="131.5" y="-1531" font-family="Helvetica,sans-Serif" font-size="10.00"> </text>
</a>
</g>
</g>
<!-- Node6&#45;&gt;Node22 -->
<g id="edge34" class="edge">
<title>Node6&#45;&gt;Node22</title>
<path fill="none" stroke="#404040" d="M461.27,-1734.14C378.34,-1688.72 262.72,-1625.38 192.71,-1587.03"/>
<polygon fill="none" stroke="#404040" points="192.4,-1586.86 185.22,-1587.49 181.88,-1581.1 189.06,-1580.47 192.4,-1586.86"/>
<text text-anchor="middle" x="314.5" y="-1641" font-family="Helvetica,sans-Serif" font-size="10.00"> +Object</text>
</g>
<!-- Node7 -->
<g id="node7" class="node">
<title>Node7</title>
<g id="a_node7"><a xlink:href="../../d0/d22/structSDK_1_1FQWord.html" target="_top" xlink:title=" ">
<polygon fill="white" stroke="black" points="519.5,-2078 519.5,-2146 599.5,-2146 599.5,-2078 519.5,-2078"/>
<text text-anchor="middle" x="559.5" y="-2134" font-family="Helvetica,sans-Serif" font-size="10.00">SDK::FQWord</text>
<polyline fill="none" stroke="black" points="519.5,-2127 599.5,-2127 "/>
<text text-anchor="start" x="527.5" y="-2115" font-family="Helvetica,sans-Serif" font-size="10.00">+ A</text>
<text text-anchor="start" x="527.5" y="-2104" font-family="Helvetica,sans-Serif" font-size="10.00">+ B</text>
<polyline fill="none" stroke="black" points="519.5,-2097 599.5,-2097 "/>
<text text-anchor="middle" x="559.5" y="-2085" font-family="Helvetica,sans-Serif" font-size="10.00"> </text>
</a>
</g>
</g>
<!-- Node7&#45;&gt;Node6 -->
<g id="edge6" class="edge">
<title>Node7&#45;&gt;Node6</title>
<path fill="none" stroke="#404040" d="M559.6,-2077.91C559.72,-2041.48 559.91,-1980.57 560.08,-1924.19"/>
<polygon fill="none" stroke="#404040" points="560.08,-1923.86 556.1,-1917.85 560.12,-1911.86 564.1,-1917.87 560.08,-1923.86"/>
<text text-anchor="middle" x="591.5" y="-1978.5" font-family="Helvetica,sans-Serif" font-size="10.00"> +ObjectFlags</text>
</g>
<!-- Node8 -->
<g id="node8" class="node">
<title>Node8</title>
<g id="a_node8"><a xlink:href="../../d0/db6/structSDK_1_1FName.html" target="_top" xlink:title=" ">
<polygon fill="white" stroke="black" points="252,-2050.5 252,-2173.5 359,-2173.5 359,-2050.5 252,-2050.5"/>
<text text-anchor="middle" x="305.5" y="-2161.5" font-family="Helvetica,sans-Serif" font-size="10.00">SDK::FName</text>
<polyline fill="none" stroke="black" points="252,-2154.5 359,-2154.5 "/>
<text text-anchor="start" x="260" y="-2142.5" font-family="Helvetica,sans-Serif" font-size="10.00">+ Index</text>
<text text-anchor="start" x="260" y="-2131.5" font-family="Helvetica,sans-Serif" font-size="10.00">+ Number</text>
<polyline fill="none" stroke="black" points="252,-2124.5 359,-2124.5 "/>
<text text-anchor="start" x="260" y="-2112.5" font-family="Helvetica,sans-Serif" font-size="10.00">+ FName()</text>
<text text-anchor="start" x="260" y="-2101.5" font-family="Helvetica,sans-Serif" font-size="10.00">+ FName()</text>
<text text-anchor="start" x="260" y="-2090.5" font-family="Helvetica,sans-Serif" font-size="10.00">+ FName()</text>
<text text-anchor="start" x="260" y="-2079.5" font-family="Helvetica,sans-Serif" font-size="10.00">+ GetName()</text>
<text text-anchor="start" x="260" y="-2068.5" font-family="Helvetica,sans-Serif" font-size="10.00">+ operator==()</text>
<text text-anchor="start" x="260" y="-2057.5" font-family="Helvetica,sans-Serif" font-size="10.00">+ GetGlobalNames()</text>
</a>
</g>
</g>
<!-- Node8&#45;&gt;Node6 -->
<g id="edge7" class="edge">
<title>Node8&#45;&gt;Node6</title>
<path fill="none" stroke="#404040" d="M353.76,-2050.34C382.81,-2013.83 420.95,-1965.89 456.56,-1921.14"/>
<polygon fill="none" stroke="#404040" points="456.64,-1921.04 457.25,-1913.85 464.11,-1911.65 463.51,-1918.83 456.64,-1921.04"/>
<text text-anchor="middle" x="466.5" y="-1978.5" font-family="Helvetica,sans-Serif" font-size="10.00"> +Name</text>
</g>
<!-- Node19 -->
<g id="node19" class="node">
<title>Node19</title>
<g id="a_node19"><a xlink:href="../../d0/d8a/structSDK_1_1FGFxWidgetBinding.html" target="_top" xlink:title=" ">
<polygon fill="white" stroke="black" points="345,-1019.5 345,-1076.5 476,-1076.5 476,-1019.5 345,-1019.5"/>
<text text-anchor="middle" x="410.5" y="-1064.5" font-family="Helvetica,sans-Serif" font-size="10.00">SDK::FGFxWidgetBinding</text>
<polyline fill="none" stroke="black" points="345,-1057.5 476,-1057.5 "/>
<text text-anchor="middle" x="410.5" y="-1045.5" font-family="Helvetica,sans-Serif" font-size="10.00"> </text>
<polyline fill="none" stroke="black" points="345,-1038.5 476,-1038.5 "/>
<text text-anchor="middle" x="410.5" y="-1026.5" font-family="Helvetica,sans-Serif" font-size="10.00"> </text>
</a>
</g>
</g>
<!-- Node8&#45;&gt;Node19 -->
<g id="edge26" class="edge">
<title>Node8&#45;&gt;Node19</title>
<path fill="none" stroke="#404040" d="M309.83,-2050.46C321.8,-1882.51 354.5,-1420.89 354.5,-1388 354.5,-1388 354.5,-1388 354.5,-1168.5 354.5,-1139.23 368.45,-1109.41 382.42,-1086.88"/>
<polygon fill="none" stroke="#404040" points="382.47,-1086.81 382.38,-1079.6 389.01,-1076.75 389.09,-1083.97 382.47,-1086.81"/>
<text text-anchor="middle" x="388" y="-1384.5" font-family="Helvetica,sans-Serif" font-size="10.00"> +WidgetName</text>
</g>
<!-- Node8&#45;&gt;Node22 -->
<g id="edge33" class="edge">
<title>Node8&#45;&gt;Node22</title>
<path fill="none" stroke="#404040" d="M284.42,-2050.21C270.95,-2010.9 253.28,-1958.56 238.5,-1912 201.85,-1796.55 161.82,-1659.07 142.78,-1592.91"/>
<polygon fill="none" stroke="#404040" points="142.68,-1592.57 137.18,-1587.91 139.36,-1581.03 144.87,-1585.7 142.68,-1592.57"/>
<text text-anchor="middle" x="275" y="-1787" font-family="Helvetica,sans-Serif" font-size="10.00"> +FunctionName</text>
</g>
<!-- Node9 -->
<g id="node9" class="node">
<title>Node9</title>
<g id="a_node9"><a xlink:href="../../d3/d79/classSDK_1_1TArray.html" target="_top" xlink:title=" ">
<polygon fill="white" stroke="black" points="201.5,-2227 201.5,-2361 381.5,-2361 381.5,-2227 201.5,-2227"/>
<text text-anchor="middle" x="291.5" y="-2349" font-family="Helvetica,sans-Serif" font-size="10.00">SDK::TArray&lt; SDK::FNameEntry * &gt;</text>
<polyline fill="none" stroke="black" points="201.5,-2342 381.5,-2342 "/>
<text text-anchor="start" x="209.5" y="-2330" font-family="Helvetica,sans-Serif" font-size="10.00">&#45; Count</text>
<text text-anchor="start" x="209.5" y="-2319" font-family="Helvetica,sans-Serif" font-size="10.00">&#45; Max</text>
<polyline fill="none" stroke="black" points="201.5,-2312 381.5,-2312 "/>
<text text-anchor="start" x="209.5" y="-2300" font-family="Helvetica,sans-Serif" font-size="10.00">+ TArray()</text>
<text text-anchor="start" x="209.5" y="-2289" font-family="Helvetica,sans-Serif" font-size="10.00">+ Num()</text>
<text text-anchor="start" x="209.5" y="-2278" font-family="Helvetica,sans-Serif" font-size="10.00">+ operator[]()</text>
<text text-anchor="start" x="209.5" y="-2267" font-family="Helvetica,sans-Serif" font-size="10.00">+ operator[]()</text>
<text text-anchor="start" x="209.5" y="-2256" font-family="Helvetica,sans-Serif" font-size="10.00">+ IsValidIndex()</text>
<text text-anchor="start" x="209.5" y="-2245" font-family="Helvetica,sans-Serif" font-size="10.00">+ GetByIndex()</text>
<text text-anchor="start" x="209.5" y="-2234" font-family="Helvetica,sans-Serif" font-size="10.00">+ GetByIndex()</text>
</a>
</g>
</g>
<!-- Node9&#45;&gt;Node8 -->
<g id="edge8" class="edge">
<title>Node9&#45;&gt;Node8</title>
<path fill="none" stroke="#404040" d="M296.63,-2227C297.67,-2213.63 298.77,-2199.5 299.83,-2185.91"/>
<polygon fill="none" stroke="#404040" points="299.85,-2185.59 296.33,-2179.29 300.78,-2173.62 304.31,-2179.91 299.85,-2185.59"/>
<text text-anchor="middle" x="324" y="-2195" font-family="Helvetica,sans-Serif" font-size="10.00"> +GNames</text>
</g>
<!-- Node10 -->
<g id="node10" class="node">
<title>Node10</title>
<g id="a_node10"><a xlink:href="../../d7/ddf/classSDK_1_1FNameEntry.html" target="_top" xlink:title=" ">
<polygon fill="white" stroke="black" points="81,-2453 81,-2521 180,-2521 180,-2453 81,-2453"/>
<text text-anchor="middle" x="130.5" y="-2509" font-family="Helvetica,sans-Serif" font-size="10.00">SDK::FNameEntry</text>
<polyline fill="none" stroke="black" points="81,-2502 180,-2502 "/>
<text text-anchor="start" x="89" y="-2490" font-family="Helvetica,sans-Serif" font-size="10.00">+ UnknownData00</text>
<text text-anchor="start" x="89" y="-2479" font-family="Helvetica,sans-Serif" font-size="10.00">+ name</text>
<polyline fill="none" stroke="black" points="81,-2472 180,-2472 "/>
<text text-anchor="start" x="89" y="-2460" font-family="Helvetica,sans-Serif" font-size="10.00">+ GetName()</text>
</a>
</g>
</g>
<!-- Node10&#45;&gt;Node9 -->
<g id="edge9" class="edge">
<title>Node10&#45;&gt;Node9</title>
<path fill="none" stroke="#404040" d="M158.54,-2452.73C177.73,-2429.97 203.96,-2398.86 228.05,-2370.28"/>
<polygon fill="none" stroke="#404040" points="228.05,-2370.27 228.86,-2363.11 235.78,-2361.1 234.97,-2368.26 228.05,-2370.27"/>
<text text-anchor="middle" x="225.5" y="-2388" font-family="Helvetica,sans-Serif" font-size="10.00"> &#45;Data</text>
</g>
<!-- Node11 -->
<g id="node11" class="node">
<title>Node11</title>
<g id="a_node11"><a xlink:href="../../d3/d79/classSDK_1_1TArray.html" target="_top" xlink:title=" ">
<polygon fill="white" stroke="black" points="298,-2414.5 298,-2559.5 395,-2559.5 395,-2414.5 298,-2414.5"/>
<text text-anchor="middle" x="346.5" y="-2547.5" font-family="Helvetica,sans-Serif" font-size="10.00">SDK::TArray&lt; T &gt;</text>
<polyline fill="none" stroke="black" points="298,-2540.5 395,-2540.5 "/>
<text text-anchor="start" x="306" y="-2528.5" font-family="Helvetica,sans-Serif" font-size="10.00">&#45; Data</text>
<text text-anchor="start" x="306" y="-2517.5" font-family="Helvetica,sans-Serif" font-size="10.00">&#45; Count</text>
<text text-anchor="start" x="306" y="-2506.5" font-family="Helvetica,sans-Serif" font-size="10.00">&#45; Max</text>
<polyline fill="none" stroke="black" points="298,-2499.5 395,-2499.5 "/>
<text text-anchor="start" x="306" y="-2487.5" font-family="Helvetica,sans-Serif" font-size="10.00">+ TArray()</text>
<text text-anchor="start" x="306" y="-2476.5" font-family="Helvetica,sans-Serif" font-size="10.00">+ Num()</text>
<text text-anchor="start" x="306" y="-2465.5" font-family="Helvetica,sans-Serif" font-size="10.00">+ operator[]()</text>
<text text-anchor="start" x="306" y="-2454.5" font-family="Helvetica,sans-Serif" font-size="10.00">+ operator[]()</text>
<text text-anchor="start" x="306" y="-2443.5" font-family="Helvetica,sans-Serif" font-size="10.00">+ IsValidIndex()</text>
<text text-anchor="start" x="306" y="-2432.5" font-family="Helvetica,sans-Serif" font-size="10.00">+ GetByIndex()</text>
<text text-anchor="start" x="306" y="-2421.5" font-family="Helvetica,sans-Serif" font-size="10.00">+ GetByIndex()</text>
</a>
</g>
</g>
<!-- Node11&#45;&gt;Node9 -->
<g id="edge10" class="edge">
<title>Node11&#45;&gt;Node9</title>
<path fill="none" stroke="orange" d="M292.98,-2416.6C289.59,-2409.89 286.67,-2402.98 284.5,-2396 281.05,-2384.92 279.85,-2372.84 279.96,-2361.02"/>
<polygon fill="orange" stroke="orange" points="290.03,-2418.5 297.88,-2425.61 296.18,-2415.16 290.03,-2418.5"/>
<text text-anchor="middle" x="340" y="-2388" font-family="Helvetica,sans-Serif" font-size="10.00"> &lt; SDK::FNameEntry * &gt;</text>
</g>
<!-- Node11&#45;&gt;Node12 -->
<g id="edge14" class="edge">
<title>Node11&#45;&gt;Node12</title>
<path fill="none" stroke="orange" d="M392.9,-2404.9C393.87,-2401.94 394.75,-2398.96 395.5,-2396 421.05,-2295.65 401.19,-2033.4 395.5,-1930 388.6,-1804.54 371.4,-1774.46 364.5,-1649 364.23,-1644.12 362.76,-1642.57 364.5,-1638 366.9,-1631.67 370.02,-1625.52 373.62,-1619.6"/>
<polygon fill="orange" stroke="orange" points="389.59,-2403.74 389.47,-2414.33 396.17,-2406.13 389.59,-2403.74"/>
<text text-anchor="middle" x="453" y="-2109.5" font-family="Helvetica,sans-Serif" font-size="10.00"> &lt; SDK::UObject * &gt;</text>
</g>
<!-- Node18 -->
<g id="node18" class="node">
<title>Node18</title>
<g id="a_node18"><a xlink:href="../../d3/d79/classSDK_1_1TArray.html" target="_top" xlink:title=" ">
<polygon fill="white" stroke="black" points="339,-826.5 339,-971.5 482,-971.5 482,-826.5 339,-826.5"/>
<text text-anchor="start" x="347" y="-959.5" font-family="Helvetica,sans-Serif" font-size="10.00">SDK::TArray&lt; struct</text>
<text text-anchor="middle" x="410.5" y="-948.5" font-family="Helvetica,sans-Serif" font-size="10.00"> SDK::FGFxWidgetBinding &gt;</text>
<polyline fill="none" stroke="black" points="339,-941.5 482,-941.5 "/>
<text text-anchor="start" x="347" y="-929.5" font-family="Helvetica,sans-Serif" font-size="10.00">&#45; Count</text>
<text text-anchor="start" x="347" y="-918.5" font-family="Helvetica,sans-Serif" font-size="10.00">&#45; Max</text>
<polyline fill="none" stroke="black" points="339,-911.5 482,-911.5 "/>
<text text-anchor="start" x="347" y="-899.5" font-family="Helvetica,sans-Serif" font-size="10.00">+ TArray()</text>
<text text-anchor="start" x="347" y="-888.5" font-family="Helvetica,sans-Serif" font-size="10.00">+ Num()</text>
<text text-anchor="start" x="347" y="-877.5" font-family="Helvetica,sans-Serif" font-size="10.00">+ operator[]()</text>
<text text-anchor="start" x="347" y="-866.5" font-family="Helvetica,sans-Serif" font-size="10.00">+ operator[]()</text>
<text text-anchor="start" x="347" y="-855.5" font-family="Helvetica,sans-Serif" font-size="10.00">+ IsValidIndex()</text>
<text text-anchor="start" x="347" y="-844.5" font-family="Helvetica,sans-Serif" font-size="10.00">+ GetByIndex()</text>
<text text-anchor="start" x="347" y="-833.5" font-family="Helvetica,sans-Serif" font-size="10.00">+ GetByIndex()</text>
</a>
</g>
</g>
<!-- Node11&#45;&gt;Node18 -->
<g id="edge28" class="edge">
<title>Node11&#45;&gt;Node18</title>
<path fill="none" stroke="orange" d="M289.21,-2454.67C256.32,-2433.89 216.84,-2403.71 192.5,-2367 174.21,-2339.42 173.5,-2328.1 173.5,-2295 173.5,-2295 173.5,-2295 173.5,-1980 173.5,-1840.75 167.05,-1804.74 187.5,-1667 195.15,-1615.5 216.5,-1605.57 216.5,-1553.5 216.5,-1553.5 216.5,-1553.5 216.5,-1047 216.5,-983.4 283.55,-943.78 338.81,-921.92"/>
<polygon fill="orange" stroke="orange" points="287.51,-2457.73 297.85,-2460.01 291.19,-2451.78 287.51,-2457.73"/>
<text text-anchor="start" x="216.5" y="-1459" font-family="Helvetica,sans-Serif" font-size="10.00"> &lt; struct SDK::FGFxWidget</text>
<text text-anchor="middle" x="278" y="-1448" font-family="Helvetica,sans-Serif" font-size="10.00">Binding &gt;</text>
</g>
<!-- Node21 -->
<g id="node21" class="node">
<title>Node21</title>
<g id="a_node21"><a xlink:href="../../d3/d79/classSDK_1_1TArray.html" target="_top" xlink:title=" ">
<polygon fill="white" stroke="black" points="626,-2221.5 626,-2366.5 751,-2366.5 751,-2221.5 626,-2221.5"/>
<text text-anchor="middle" x="688.5" y="-2354.5" font-family="Helvetica,sans-Serif" font-size="10.00">SDK::TArray&lt; wchar_t &gt;</text>
<polyline fill="none" stroke="black" points="626,-2347.5 751,-2347.5 "/>
<text text-anchor="start" x="634" y="-2335.5" font-family="Helvetica,sans-Serif" font-size="10.00">&#45; Data</text>
<text text-anchor="start" x="634" y="-2324.5" font-family="Helvetica,sans-Serif" font-size="10.00">&#45; Count</text>
<text text-anchor="start" x="634" y="-2313.5" font-family="Helvetica,sans-Serif" font-size="10.00">&#45; Max</text>
<polyline fill="none" stroke="black" points="626,-2306.5 751,-2306.5 "/>
<text text-anchor="start" x="634" y="-2294.5" font-family="Helvetica,sans-Serif" font-size="10.00">+ TArray()</text>
<text text-anchor="start" x="634" y="-2283.5" font-family="Helvetica,sans-Serif" font-size="10.00">+ Num()</text>
<text text-anchor="start" x="634" y="-2272.5" font-family="Helvetica,sans-Serif" font-size="10.00">+ operator[]()</text>
<text text-anchor="start" x="634" y="-2261.5" font-family="Helvetica,sans-Serif" font-size="10.00">+ operator[]()</text>
<text text-anchor="start" x="634" y="-2250.5" font-family="Helvetica,sans-Serif" font-size="10.00">+ IsValidIndex()</text>
<text text-anchor="start" x="634" y="-2239.5" font-family="Helvetica,sans-Serif" font-size="10.00">+ GetByIndex()</text>
<text text-anchor="start" x="634" y="-2228.5" font-family="Helvetica,sans-Serif" font-size="10.00">+ GetByIndex()</text>
</a>
</g>
</g>
<!-- Node11&#45;&gt;Node21 -->
<g id="edge31" class="edge">
<title>Node11&#45;&gt;Node21</title>
<path fill="none" stroke="orange" d="M403.93,-2453.93C465.35,-2419.63 562.44,-2365.4 625.81,-2330.01"/>
<polygon fill="orange" stroke="orange" points="402.16,-2450.91 395.14,-2458.84 405.57,-2457.02 402.16,-2450.91"/>
<text text-anchor="middle" x="545.5" y="-2388" font-family="Helvetica,sans-Serif" font-size="10.00"> &lt; wchar_t &gt;</text>
</g>
<!-- Node12&#45;&gt;Node6 -->
<g id="edge12" class="edge">
<title>Node12&#45;&gt;Node6</title>
<path fill="none" stroke="#404040" d="M473.55,-1619.63C479.55,-1631.28 485.98,-1643.77 492.53,-1656.49"/>
<polygon fill="none" stroke="#404040" points="492.56,-1656.55 498.86,-1660.05 498.05,-1667.21 491.75,-1663.71 492.56,-1656.55"/>
<text text-anchor="middle" x="512" y="-1641" font-family="Helvetica,sans-Serif" font-size="10.00"> +GObjects</text>
</g>
<!-- Node13 -->
<g id="node13" class="node">
<title>Node13</title>
<g id="a_node13"><a xlink:href="../../d9/dfa/structSDK_1_1FPointer.html" target="_top" xlink:title=" ">
<polygon fill="white" stroke="black" points="617.5,-2078 617.5,-2146 715.5,-2146 715.5,-2078 617.5,-2078"/>
<text text-anchor="middle" x="666.5" y="-2134" font-family="Helvetica,sans-Serif" font-size="10.00">SDK::FPointer</text>
<polyline fill="none" stroke="black" points="617.5,-2127 715.5,-2127 "/>
<text text-anchor="start" x="625.5" y="-2115" font-family="Helvetica,sans-Serif" font-size="10.00">+ Dummy</text>
<text text-anchor="start" x="625.5" y="-2104" font-family="Helvetica,sans-Serif" font-size="10.00">+ UnknownData00</text>
<polyline fill="none" stroke="black" points="617.5,-2097 715.5,-2097 "/>
<text text-anchor="middle" x="666.5" y="-2085" font-family="Helvetica,sans-Serif" font-size="10.00"> </text>
</a>
</g>
</g>
<!-- Node13&#45;&gt;Node6 -->
<g id="edge15" class="edge">
<title>Node13&#45;&gt;Node6</title>
<path fill="none" stroke="#404040" d="M661.45,-2077.69C655.34,-2040.91 643.69,-1980.24 626.5,-1930 625.69,-1927.62 624.84,-1925.23 623.98,-1922.84"/>
<polygon fill="none" stroke="#404040" points="623.96,-1922.79 618.11,-1918.59 619.74,-1911.56 625.59,-1915.77 623.96,-1922.79"/>
<text text-anchor="middle" x="687" y="-1989.5" font-family="Helvetica,sans-Serif" font-size="10.00"> +StateFrame</text>
<text text-anchor="middle" x="687" y="-1978.5" font-family="Helvetica,sans-Serif" font-size="10.00">+VfTableObject</text>
<text text-anchor="middle" x="687" y="-1967.5" font-family="Helvetica,sans-Serif" font-size="10.00">+LinkerIndex</text>
</g>
<!-- Node14&#45;&gt;Node6 -->
<g id="edge16" class="edge">
<title>Node14&#45;&gt;Node6</title>
<path fill="none" stroke="#404040" d="M544.46,-1214.6C539.15,-1250.22 532.31,-1301.69 529.5,-1347 527.3,-1382.49 527.98,-1391.48 529.5,-1427 532.74,-1502.69 539.78,-1587.06 546.33,-1655.24"/>
<polygon fill="none" stroke="#404040" points="546.35,-1655.4 550.91,-1660.98 547.5,-1667.34 542.94,-1661.76 546.35,-1655.4"/>
<text text-anchor="middle" x="547" y="-1384.5" font-family="Helvetica,sans-Serif" font-size="10.00"> +Class</text>
</g>
<!-- Node14&#45;&gt;Node19 -->
<g id="edge27" class="edge">
<title>Node14&#45;&gt;Node19</title>
<path fill="none" stroke="#404040" d="M499.4,-1124.34C483.95,-1111.25 467.24,-1097.09 452.52,-1084.61"/>
<polygon fill="none" stroke="#404040" points="452.32,-1084.45 445.16,-1083.62 443.17,-1076.69 450.33,-1077.52 452.32,-1084.45"/>
<text text-anchor="middle" x="510.5" y="-1098" font-family="Helvetica,sans-Serif" font-size="10.00"> +WidgetClass</text>
</g>
<!-- Node15 -->
<g id="node15" class="node">
<title>Node15</title>
<g id="a_node15"><a xlink:href="../../df/d72/classSDK_1_1UState.html" target="_top" xlink:title=" ">
<polygon fill="white" stroke="black" points="648.5,-1252.5 648.5,-1309.5 746.5,-1309.5 746.5,-1252.5 648.5,-1252.5"/>
<text text-anchor="middle" x="697.5" y="-1297.5" font-family="Helvetica,sans-Serif" font-size="10.00">SDK::UState</text>
<polyline fill="none" stroke="black" points="648.5,-1290.5 746.5,-1290.5 "/>
<text text-anchor="start" x="656.5" y="-1278.5" font-family="Helvetica,sans-Serif" font-size="10.00">+ UnknownData00</text>
<polyline fill="none" stroke="black" points="648.5,-1271.5 746.5,-1271.5 "/>
<text text-anchor="start" x="656.5" y="-1259.5" font-family="Helvetica,sans-Serif" font-size="10.00">+ StaticClass()</text>
</a>
</g>
</g>
<!-- Node15&#45;&gt;Node14 -->
<g id="edge17" class="edge">
<title>Node15&#45;&gt;Node14</title>
<path fill="none" stroke="midnightblue" d="M652.54,-1246.28C639.17,-1236.25 624.32,-1225.11 610.21,-1214.53"/>
<polygon fill="none" stroke="midnightblue" points="650.56,-1249.17 660.66,-1252.37 654.76,-1243.57 650.56,-1249.17"/>
</g>
<!-- Node16 -->
<g id="node16" class="node">
<title>Node16</title>
<g id="a_node16"><a xlink:href="../../d8/de9/classSDK_1_1UStruct.html" target="_top" xlink:title=" ">
<polygon fill="white" stroke="black" points="699.5,-1347.5 699.5,-1426.5 797.5,-1426.5 797.5,-1347.5 699.5,-1347.5"/>
<text text-anchor="middle" x="748.5" y="-1414.5" font-family="Helvetica,sans-Serif" font-size="10.00">SDK::UStruct</text>
<polyline fill="none" stroke="black" points="699.5,-1407.5 797.5,-1407.5 "/>
<text text-anchor="start" x="707.5" y="-1395.5" font-family="Helvetica,sans-Serif" font-size="10.00">+ UnknownData00</text>
<text text-anchor="start" x="707.5" y="-1384.5" font-family="Helvetica,sans-Serif" font-size="10.00">+ PropertySize</text>
<text text-anchor="start" x="707.5" y="-1373.5" font-family="Helvetica,sans-Serif" font-size="10.00">+ UnknownData01</text>
<polyline fill="none" stroke="black" points="699.5,-1366.5 797.5,-1366.5 "/>
<text text-anchor="start" x="707.5" y="-1354.5" font-family="Helvetica,sans-Serif" font-size="10.00">+ StaticClass()</text>
</a>
</g>
</g>
<!-- Node16&#45;&gt;Node15 -->
<g id="edge18" class="edge">
<title>Node16&#45;&gt;Node15</title>
<path fill="none" stroke="midnightblue" d="M724.99,-1338.06C720.23,-1328.35 715.37,-1318.44 711.09,-1309.72"/>
<polygon fill="none" stroke="midnightblue" points="721.96,-1339.84 729.51,-1347.27 728.25,-1336.75 721.96,-1339.84"/>
</g>
<!-- Node17&#45;&gt;Node16 -->
<g id="edge19" class="edge">
<title>Node17&#45;&gt;Node16</title>
<path fill="none" stroke="midnightblue" d="M710.68,-1514.01C713.52,-1493.38 717.96,-1467.49 724.5,-1445 726.27,-1438.92 728.5,-1432.61 730.88,-1426.51"/>
<polygon fill="none" stroke="midnightblue" points="707.21,-1513.6 709.38,-1523.97 714.15,-1514.51 707.21,-1513.6"/>
</g>
<!-- Node17&#45;&gt;Node16 -->
<g id="edge22" class="edge">
<title>Node17&#45;&gt;Node16</title>
<path fill="none" stroke="#404040" d="M713.62,-1523.76C719.62,-1500.41 728.36,-1466.4 735.59,-1438.27"/>
<polygon fill="none" stroke="#404040" points="735.59,-1438.24 733.21,-1431.43 738.58,-1426.62 740.96,-1433.42 735.59,-1438.24"/>
<text text-anchor="middle" x="761.5" y="-1459" font-family="Helvetica,sans-Serif" font-size="10.00"> +SuperField</text>
<text text-anchor="middle" x="761.5" y="-1448" font-family="Helvetica,sans-Serif" font-size="10.00">+Children</text>
</g>
<!-- Node17&#45;&gt;Node17 -->
<g id="edge21" class="edge">
<title>Node17&#45;&gt;Node17</title>
<path fill="none" stroke="#404040" d="M748.21,-1569.11C758.41,-1567.88 766,-1562.34 766,-1552.5 766,-1546.96 763.6,-1542.79 759.68,-1539.98"/>
<polygon fill="none" stroke="#404040" points="759.51,-1539.92 752.51,-1541.67 748.21,-1535.89 755.2,-1534.13 759.51,-1539.92"/>
<text text-anchor="middle" x="781.5" y="-1550" font-family="Helvetica,sans-Serif" font-size="10.00"> +Next</text>
</g>
<!-- Node18&#45;&gt;Node5 -->
<g id="edge24" class="edge">
<title>Node18&#45;&gt;Node5</title>
<path fill="none" stroke="#404040" d="M482.3,-844.53C521.75,-815.15 570.9,-778.54 612.16,-747.81"/>
<polygon fill="none" stroke="#404040" points="612.3,-747.71 614.72,-740.92 621.92,-740.54 619.5,-747.33 612.3,-747.71"/>
<text text-anchor="middle" x="593" y="-800" font-family="Helvetica,sans-Serif" font-size="10.00"> +SubWidgetBindings</text>
</g>
<!-- Node19&#45;&gt;Node18 -->
<g id="edge25" class="edge">
<title>Node19&#45;&gt;Node18</title>
<path fill="none" stroke="#404040" d="M410.5,-1019.35C410.5,-1009.01 410.5,-996.66 410.5,-983.89"/>
<polygon fill="none" stroke="#404040" points="410.5,-983.56 406.5,-977.56 410.5,-971.56 414.5,-977.56 410.5,-983.56"/>
<text text-anchor="middle" x="424.5" y="-993" font-family="Helvetica,sans-Serif" font-size="10.00"> &#45;Data</text>
</g>
<!-- Node20 -->
<g id="node20" class="node">
<title>Node20</title>
<g id="a_node20"><a xlink:href="../../d3/d88/classSDK_1_1FString.html" target="_top" xlink:title=" ">
<polygon fill="white" stroke="black" points="788,-1930.5 788,-2031.5 863,-2031.5 863,-1930.5 788,-1930.5"/>
<text text-anchor="middle" x="825.5" y="-2019.5" font-family="Helvetica,sans-Serif" font-size="10.00">SDK::FString</text>
<polyline fill="none" stroke="black" points="788,-2012.5 863,-2012.5 "/>
<text text-anchor="middle" x="825.5" y="-2000.5" font-family="Helvetica,sans-Serif" font-size="10.00"> </text>
<polyline fill="none" stroke="black" points="788,-1993.5 863,-1993.5 "/>
<text text-anchor="start" x="796" y="-1981.5" font-family="Helvetica,sans-Serif" font-size="10.00">+ FString()</text>
<text text-anchor="start" x="796" y="-1970.5" font-family="Helvetica,sans-Serif" font-size="10.00">+ FString()</text>
<text text-anchor="start" x="796" y="-1959.5" font-family="Helvetica,sans-Serif" font-size="10.00">+ IsValid()</text>
<text text-anchor="start" x="796" y="-1948.5" font-family="Helvetica,sans-Serif" font-size="10.00">+ c_str()</text>
<text text-anchor="start" x="796" y="-1937.5" font-family="Helvetica,sans-Serif" font-size="10.00">+ ToString()</text>
</a>
</g>
</g>
<!-- Node20&#45;&gt;Node5 -->
<g id="edge29" class="edge">
<title>Node20&#45;&gt;Node5</title>
<path fill="none" stroke="#404040" d="M836.64,-1930.27C850.25,-1865.03 871.5,-1746.8 871.5,-1644.5 871.5,-1644.5 871.5,-1644.5 871.5,-898 871.5,-835.22 825.56,-780.86 780.75,-742.76"/>
<polygon fill="none" stroke="#404040" points="780.47,-742.53 773.3,-741.79 771.22,-734.89 778.4,-735.63 780.47,-742.53"/>
<text text-anchor="middle" x="894.5" y="-1278.5" font-family="Helvetica,sans-Serif" font-size="10.00"> +PathInfo</text>
</g>
<!-- Node21&#45;&gt;Node20 -->
<g id="edge30" class="edge">
<title>Node21&#45;&gt;Node20</title>
<path fill="none" stroke="midnightblue" d="M724.23,-2211.89C749.4,-2154.74 782.3,-2080.07 803.66,-2031.58"/>
<polygon fill="none" stroke="midnightblue" points="720.93,-2210.7 720.1,-2221.26 727.34,-2213.52 720.93,-2210.7"/>
</g>
<!-- Node22&#45;&gt;Node4 -->
<g id="edge32" class="edge">
<title>Node22&#45;&gt;Node4</title>
<path fill="none" stroke="#404040" d="M114.63,-1523.98C96.88,-1492.36 71.5,-1438.34 71.5,-1388 71.5,-1388 71.5,-1388 71.5,-683 71.5,-643.83 73.75,-600.48 76.31,-563.93"/>
<polygon fill="none" stroke="#404040" points="76.32,-563.78 72.76,-557.51 77.18,-551.81 80.74,-558.08 76.32,-563.78"/>
<text text-anchor="middle" x="136.5" y="-1098" font-family="Helvetica,sans-Serif" font-size="10.00"> +__EventListener__Delegate</text>
</g>
</g>
</svg>
