<?xml version="1.0" encoding="UTF-8" standalone="no"?>
<!DOCTYPE svg PUBLIC "-//W3C//DTD SVG 1.1//EN"
 "http://www.w3.org/Graphics/SVG/1.1/DTD/svg11.dtd">
<!-- Generated by graphviz version 2.41.20171026.1811 (20171026.1811)
 -->
<!-- Title: SDK::FEFTable_Define Pages: 1 -->
<!--zoomable 634 -->
<svg id="main" version="1.1" xmlns="http://www.w3.org/2000/svg" xmlns:xlink="http://www.w3.org/1999/xlink" xml:space="preserve" onload="init(evt)">
<style type="text/css"><![CDATA[
.edge:hover path { stroke: red; }
.edge:hover polygon { stroke: red; fill: red; }
]]></style>
<script type="text/javascript"><![CDATA[
var edges = document.getElementsByTagName('g');
if (edges && edges.length) {
  for (var i=0;i<edges.length;i++) {
    if (edges[i].id.substr(0,4)=='edge') {
      edges[i].setAttribute('class','edge');
    }
  }
}
]]></script>
        <defs>
                <circle id="rim" cx="0" cy="0" r="7"/>
                <circle id="rim2" cx="0" cy="0" r="3.5"/>
                <g id="zoomPlus">
                        <use xlink:href="#rim" fill="#404040">
                                <set attributeName="fill" to="#808080" begin="zoomplus.mouseover" end="zoomplus.mouseout"/>
                        </use>
                        <path d="M-4,0h8M0,-4v8" fill="none" stroke="white" stroke-width="1.5" pointer-events="none"/>
                </g>
                <g id="zoomMin">
                        <use xlink:href="#rim" fill="#404040">
                                <set attributeName="fill" to="#808080" begin="zoomminus.mouseover" end="zoomminus.mouseout"/>
                        </use>
                        <path d="M-4,0h8" fill="none" stroke="white" stroke-width="1.5" pointer-events="none"/>
                </g>
                <g id="dirArrow">
                        <path fill="none" stroke="white" stroke-width="1.5" d="M0,-3.0v7 M-2.5,-0.5L0,-3.0L2.5,-0.5"/>
                </g>
               <g id="resetDef">
                       <use xlink:href="#rim2" fill="#404040">
                               <set attributeName="fill" to="#808080" begin="reset.mouseover" end="reset.mouseout"/>
                       </use>
               </g>
        </defs>

<script type="text/javascript">
var viewWidth = 308;
var viewHeight = 634;
var sectionId = 'dynsection-0';
</script>
<script xlink:href="../../svgpan.js"/>
<svg id="graph" class="graph">
<g id="viewport">
<title>SDK::FEFTable_Define</title>
<polygon fill="white" stroke="transparent" points="-4,4 -4,-630 304,-630 304,4 -4,4"/>
<!-- Node1 -->
<g id="node1" class="node">
<title>Node1</title>
<g id="a_node1"><a xlink:title=" ">
<polygon fill="#bfbfbf" stroke="black" points="96.5,-0.5 96.5,-68.5 216.5,-68.5 216.5,-0.5 96.5,-0.5"/>
<text text-anchor="middle" x="156.5" y="-56.5" font-family="Helvetica,sans-Serif" font-size="10.00">SDK::FEFTable_Define</text>
<polyline fill="none" stroke="black" points="96.5,-49.5 216.5,-49.5 "/>
<text text-anchor="start" x="104.5" y="-37.5" font-family="Helvetica,sans-Serif" font-size="10.00">+ bySubGroups</text>
<text text-anchor="start" x="104.5" y="-26.5" font-family="Helvetica,sans-Serif" font-size="10.00">+ UnknownData00</text>
<polyline fill="none" stroke="black" points="96.5,-19.5 216.5,-19.5 "/>
<text text-anchor="middle" x="156.5" y="-7.5" font-family="Helvetica,sans-Serif" font-size="10.00"> </text>
</a>
</g>
</g>
<!-- Node2 -->
<g id="node2" class="node">
<title>Node2</title>
<g id="a_node2"><a xlink:href="../../df/d1c/classSDK_1_1TEnumAsByte.html" target="_top" xlink:title=" ">
<polygon fill="white" stroke="black" points="15,-116.5 15,-239.5 168,-239.5 168,-116.5 15,-116.5"/>
<text text-anchor="start" x="23" y="-227.5" font-family="Helvetica,sans-Serif" font-size="10.00">SDK::TEnumAsByte&lt; EFTable</text>
<text text-anchor="middle" x="91.5" y="-216.5" font-family="Helvetica,sans-Serif" font-size="10.00">DataType &gt;</text>
<polyline fill="none" stroke="black" points="15,-209.5 168,-209.5 "/>
<text text-anchor="start" x="23" y="-197.5" font-family="Helvetica,sans-Serif" font-size="10.00">&#45; value</text>
<polyline fill="none" stroke="black" points="15,-190.5 168,-190.5 "/>
<text text-anchor="start" x="23" y="-178.5" font-family="Helvetica,sans-Serif" font-size="10.00">+ TEnumAsByte()</text>
<text text-anchor="start" x="23" y="-167.5" font-family="Helvetica,sans-Serif" font-size="10.00">+ TEnumAsByte()</text>
<text text-anchor="start" x="23" y="-156.5" font-family="Helvetica,sans-Serif" font-size="10.00">+ TEnumAsByte()</text>
<text text-anchor="start" x="23" y="-145.5" font-family="Helvetica,sans-Serif" font-size="10.00">+ TEnumAsByte()</text>
<text text-anchor="start" x="23" y="-134.5" font-family="Helvetica,sans-Serif" font-size="10.00">+ operator EFTableDataType()</text>
<text text-anchor="start" x="23" y="-123.5" font-family="Helvetica,sans-Serif" font-size="10.00">+ GetValue()</text>
</a>
</g>
</g>
<!-- Node2&#45;&gt;Node1 -->
<g id="edge1" class="edge">
<title>Node2&#45;&gt;Node1</title>
<path fill="none" stroke="#404040" d="M117.24,-116.27C121.57,-106.44 126.09,-96.41 130.5,-87 131.64,-84.57 132.83,-82.08 134.04,-79.58"/>
<polygon fill="none" stroke="#404040" points="134.14,-79.37 133.19,-72.22 139.43,-68.6 140.37,-75.75 134.14,-79.37"/>
<text text-anchor="middle" x="159.5" y="-90" font-family="Helvetica,sans-Serif" font-size="10.00"> +eDataType</text>
</g>
<!-- Node3 -->
<g id="node3" class="node">
<title>Node3</title>
<g id="a_node3"><a xlink:href="../../df/d1c/classSDK_1_1TEnumAsByte.html" target="_top" xlink:title=" ">
<polygon fill="white" stroke="black" points="0,-304 0,-416 157,-416 157,-304 0,-304"/>
<text text-anchor="middle" x="78.5" y="-404" font-family="Helvetica,sans-Serif" font-size="10.00">SDK::TEnumAsByte&lt; TEnum &gt;</text>
<polyline fill="none" stroke="black" points="0,-397 157,-397 "/>
<text text-anchor="start" x="8" y="-385" font-family="Helvetica,sans-Serif" font-size="10.00">&#45; value</text>
<polyline fill="none" stroke="black" points="0,-378 157,-378 "/>
<text text-anchor="start" x="8" y="-366" font-family="Helvetica,sans-Serif" font-size="10.00">+ TEnumAsByte()</text>
<text text-anchor="start" x="8" y="-355" font-family="Helvetica,sans-Serif" font-size="10.00">+ TEnumAsByte()</text>
<text text-anchor="start" x="8" y="-344" font-family="Helvetica,sans-Serif" font-size="10.00">+ TEnumAsByte()</text>
<text text-anchor="start" x="8" y="-333" font-family="Helvetica,sans-Serif" font-size="10.00">+ TEnumAsByte()</text>
<text text-anchor="start" x="8" y="-322" font-family="Helvetica,sans-Serif" font-size="10.00">+ operator TEnum()</text>
<text text-anchor="start" x="8" y="-311" font-family="Helvetica,sans-Serif" font-size="10.00">+ GetValue()</text>
</a>
</g>
</g>
<!-- Node3&#45;&gt;Node2 -->
<g id="edge2" class="edge">
<title>Node3&#45;&gt;Node2</title>
<path fill="none" stroke="orange" d="M83.24,-293.36C84.51,-275.8 85.87,-256.89 87.12,-239.61"/>
<polygon fill="orange" stroke="orange" points="79.74,-293.3 82.51,-303.53 86.72,-293.8 79.74,-293.3"/>
<text text-anchor="middle" x="136" y="-261" font-family="Helvetica,sans-Serif" font-size="10.00"> &lt; EFTableDataType &gt;</text>
</g>
<!-- Node4 -->
<g id="node4" class="node">
<title>Node4</title>
<g id="a_node4"><a xlink:href="../../d3/d88/classSDK_1_1FString.html" target="_top" xlink:title=" ">
<polygon fill="white" stroke="black" points="193,-127.5 193,-228.5 268,-228.5 268,-127.5 193,-127.5"/>
<text text-anchor="middle" x="230.5" y="-216.5" font-family="Helvetica,sans-Serif" font-size="10.00">SDK::FString</text>
<polyline fill="none" stroke="black" points="193,-209.5 268,-209.5 "/>
<text text-anchor="middle" x="230.5" y="-197.5" font-family="Helvetica,sans-Serif" font-size="10.00"> </text>
<polyline fill="none" stroke="black" points="193,-190.5 268,-190.5 "/>
<text text-anchor="start" x="201" y="-178.5" font-family="Helvetica,sans-Serif" font-size="10.00">+ FString()</text>
<text text-anchor="start" x="201" y="-167.5" font-family="Helvetica,sans-Serif" font-size="10.00">+ FString()</text>
<text text-anchor="start" x="201" y="-156.5" font-family="Helvetica,sans-Serif" font-size="10.00">+ IsValid()</text>
<text text-anchor="start" x="201" y="-145.5" font-family="Helvetica,sans-Serif" font-size="10.00">+ c_str()</text>
<text text-anchor="start" x="201" y="-134.5" font-family="Helvetica,sans-Serif" font-size="10.00">+ ToString()</text>
</a>
</g>
</g>
<!-- Node4&#45;&gt;Node1 -->
<g id="edge3" class="edge">
<title>Node4&#45;&gt;Node1</title>
<path fill="none" stroke="#404040" d="M208.66,-127.43C202.45,-114.14 195.48,-99.89 188.5,-87 187.13,-84.46 185.68,-81.88 184.19,-79.28"/>
<polygon fill="none" stroke="#404040" points="184.03,-79.01 177.53,-75.88 177.92,-68.68 184.42,-71.81 184.03,-79.01"/>
<text text-anchor="middle" x="233" y="-90" font-family="Helvetica,sans-Serif" font-size="10.00"> +strIdentityName</text>
</g>
<!-- Node5 -->
<g id="node5" class="node">
<title>Node5</title>
<g id="a_node5"><a xlink:href="../../d3/d79/classSDK_1_1TArray.html" target="_top" xlink:title=" ">
<polygon fill="white" stroke="black" points="175,-287.5 175,-432.5 300,-432.5 300,-287.5 175,-287.5"/>
<text text-anchor="middle" x="237.5" y="-420.5" font-family="Helvetica,sans-Serif" font-size="10.00">SDK::TArray&lt; wchar_t &gt;</text>
<polyline fill="none" stroke="black" points="175,-413.5 300,-413.5 "/>
<text text-anchor="start" x="183" y="-401.5" font-family="Helvetica,sans-Serif" font-size="10.00">&#45; Data</text>
<text text-anchor="start" x="183" y="-390.5" font-family="Helvetica,sans-Serif" font-size="10.00">&#45; Count</text>
<text text-anchor="start" x="183" y="-379.5" font-family="Helvetica,sans-Serif" font-size="10.00">&#45; Max</text>
<polyline fill="none" stroke="black" points="175,-372.5 300,-372.5 "/>
<text text-anchor="start" x="183" y="-360.5" font-family="Helvetica,sans-Serif" font-size="10.00">+ TArray()</text>
<text text-anchor="start" x="183" y="-349.5" font-family="Helvetica,sans-Serif" font-size="10.00">+ Num()</text>
<text text-anchor="start" x="183" y="-338.5" font-family="Helvetica,sans-Serif" font-size="10.00">+ operator[]()</text>
<text text-anchor="start" x="183" y="-327.5" font-family="Helvetica,sans-Serif" font-size="10.00">+ operator[]()</text>
<text text-anchor="start" x="183" y="-316.5" font-family="Helvetica,sans-Serif" font-size="10.00">+ IsValidIndex()</text>
<text text-anchor="start" x="183" y="-305.5" font-family="Helvetica,sans-Serif" font-size="10.00">+ GetByIndex()</text>
<text text-anchor="start" x="183" y="-294.5" font-family="Helvetica,sans-Serif" font-size="10.00">+ GetByIndex()</text>
</a>
</g>
</g>
<!-- Node5&#45;&gt;Node4 -->
<g id="edge4" class="edge">
<title>Node5&#45;&gt;Node4</title>
<path fill="none" stroke="midnightblue" d="M234.31,-277.09C233.67,-260.52 233.01,-243.58 232.43,-228.55"/>
<polygon fill="none" stroke="midnightblue" points="230.83,-277.49 234.71,-287.34 237.82,-277.21 230.83,-277.49"/>
</g>
<!-- Node6 -->
<g id="node6" class="node">
<title>Node6</title>
<g id="a_node6"><a xlink:href="../../d3/d79/classSDK_1_1TArray.html" target="_top" xlink:title=" ">
<polygon fill="white" stroke="black" points="189,-480.5 189,-625.5 286,-625.5 286,-480.5 189,-480.5"/>
<text text-anchor="middle" x="237.5" y="-613.5" font-family="Helvetica,sans-Serif" font-size="10.00">SDK::TArray&lt; T &gt;</text>
<polyline fill="none" stroke="black" points="189,-606.5 286,-606.5 "/>
<text text-anchor="start" x="197" y="-594.5" font-family="Helvetica,sans-Serif" font-size="10.00">&#45; Data</text>
<text text-anchor="start" x="197" y="-583.5" font-family="Helvetica,sans-Serif" font-size="10.00">&#45; Count</text>
<text text-anchor="start" x="197" y="-572.5" font-family="Helvetica,sans-Serif" font-size="10.00">&#45; Max</text>
<polyline fill="none" stroke="black" points="189,-565.5 286,-565.5 "/>
<text text-anchor="start" x="197" y="-553.5" font-family="Helvetica,sans-Serif" font-size="10.00">+ TArray()</text>
<text text-anchor="start" x="197" y="-542.5" font-family="Helvetica,sans-Serif" font-size="10.00">+ Num()</text>
<text text-anchor="start" x="197" y="-531.5" font-family="Helvetica,sans-Serif" font-size="10.00">+ operator[]()</text>
<text text-anchor="start" x="197" y="-520.5" font-family="Helvetica,sans-Serif" font-size="10.00">+ operator[]()</text>
<text text-anchor="start" x="197" y="-509.5" font-family="Helvetica,sans-Serif" font-size="10.00">+ IsValidIndex()</text>
<text text-anchor="start" x="197" y="-498.5" font-family="Helvetica,sans-Serif" font-size="10.00">+ GetByIndex()</text>
<text text-anchor="start" x="197" y="-487.5" font-family="Helvetica,sans-Serif" font-size="10.00">+ GetByIndex()</text>
</a>
</g>
</g>
<!-- Node6&#45;&gt;Node5 -->
<g id="edge5" class="edge">
<title>Node6&#45;&gt;Node5</title>
<path fill="none" stroke="orange" d="M237.5,-470.01C237.5,-457.62 237.5,-444.91 237.5,-432.75"/>
<polygon fill="orange" stroke="orange" points="234,-470.34 237.5,-480.34 241,-470.34 234,-470.34"/>
<text text-anchor="middle" x="265.5" y="-454" font-family="Helvetica,sans-Serif" font-size="10.00"> &lt; wchar_t &gt;</text>
</g>
</g>
</svg>
        <g id="navigator" transform="translate(0 0)" fill="#404254">
                <rect fill="#f2f5e9" fill-opacity="0.5" stroke="#606060" stroke-width=".5" x="0" y="0" width="60" height="60"/>
                <use id="zoomplus" xlink:href="#zoomPlus" x="17" y="9" onmousedown="handleZoom(evt,'in')"/>
                <use id="zoomminus" xlink:href="#zoomMin" x="42" y="9" onmousedown="handleZoom(evt,'out')"/>
                <use id="reset" xlink:href="#resetDef" x="30" y="36" onmousedown="handleReset()"/>
                <g id="arrowUp" xlink:href="#dirArrow" transform="translate(30 24)" onmousedown="handlePan(0,-1)">
                  <use xlink:href="#rim" fill="#404040">
                        <set attributeName="fill" to="#808080" begin="arrowUp.mouseover" end="arrowUp.mouseout"/>
                  </use>
                  <path fill="none" stroke="white" stroke-width="1.5" d="M0,-3.0v7 M-2.5,-0.5L0,-3.0L2.5,-0.5"/>
                </g>
                <g id="arrowRight" xlink:href="#dirArrow" transform="rotate(90) translate(36 -43)" onmousedown="handlePan(1,0)">
                  <use xlink:href="#rim" fill="#404040">
                        <set attributeName="fill" to="#808080" begin="arrowRight.mouseover" end="arrowRight.mouseout"/>
                  </use>
                  <path fill="none" stroke="white" stroke-width="1.5" d="M0,-3.0v7 M-2.5,-0.5L0,-3.0L2.5,-0.5"/>
                </g>
                <g id="arrowDown" xlink:href="#dirArrow" transform="rotate(180) translate(-30 -48)" onmousedown="handlePan(0,1)">
                  <use xlink:href="#rim" fill="#404040">
                        <set attributeName="fill" to="#808080" begin="arrowDown.mouseover" end="arrowDown.mouseout"/>
                  </use>
                  <path fill="none" stroke="white" stroke-width="1.5" d="M0,-3.0v7 M-2.5,-0.5L0,-3.0L2.5,-0.5"/>
                </g>
                <g id="arrowLeft" xlink:href="#dirArrow" transform="rotate(270) translate(-36 17)" onmousedown="handlePan(-1,0)">
                  <use xlink:href="#rim" fill="#404040">
                        <set attributeName="fill" to="#808080" begin="arrowLeft.mouseover" end="arrowLeft.mouseout"/>
                  </use>
                  <path fill="none" stroke="white" stroke-width="1.5" d="M0,-3.0v7 M-2.5,-0.5L0,-3.0L2.5,-0.5"/>
                </g>
        </g>
        <svg viewBox="0 0 15 15" width="100%" height="30px" preserveAspectRatio="xMaxYMin meet">
         <g id="arrow_out" transform="scale(0.3 0.3)">
          <a xlink:href="structSDK_1_1FEFTable__Define__coll__graph_org.svg" target="_base">
           <rect id="button" ry="5" rx="5" y="6" x="6" height="38" width="38"
                fill="#f2f5e9" fill-opacity="0.5" stroke="#606060" stroke-width="1.0"/>
           <path id="arrow"
             d="M 11.500037,31.436501 C 11.940474,20.09759 22.043105,11.32322 32.158766,21.979434 L 37.068811,17.246167 C 37.068811,17.246167 37.088388,32 37.088388,32 L 22.160133,31.978069 C 22.160133,31.978069 26.997745,27.140456 26.997745,27.140456 C 18.528582,18.264221 13.291696,25.230495 11.500037,31.436501 z"
             style="fill:#404040;"/>
          </a>
         </g>
        </svg>
</svg>
