<?xml version="1.0" encoding="UTF-8" standalone="no"?>
<!DOCTYPE svg PUBLIC "-//W3C//DTD SVG 1.1//EN"
 "http://www.w3.org/Graphics/SVG/1.1/DTD/svg11.dtd">
<!-- Generated by graphviz version 2.41.20171026.1811 (20171026.1811)
 -->
<!-- Title: SDK::UAnimNodeBlend Pages: 1 -->
<svg width="728pt" height="1411pt"
 viewBox="0.00 0.00 727.50 1411.00" xmlns="http://www.w3.org/2000/svg" xmlns:xlink="http://www.w3.org/1999/xlink">
<g id="graph0" class="graph" transform="scale(1 1) rotate(0) translate(4 1407)">
<title>SDK::UAnimNodeBlend</title>
<polygon fill="white" stroke="transparent" points="-4,4 -4,-1407 723.5,-1407 723.5,4 -4,4"/>
<!-- Node1 -->
<g id="node1" class="node">
<title>Node1</title>
<g id="a_node1"><a xlink:title=" ">
<polygon fill="#bfbfbf" stroke="black" points="280,-298.5 280,-410.5 438,-410.5 438,-298.5 280,-298.5"/>
<text text-anchor="middle" x="359" y="-398.5" font-family="Helvetica,sans-Serif" font-size="10.00">SDK::UAnimNodeBlend</text>
<polyline fill="none" stroke="black" points="280,-391.5 438,-391.5 "/>
<text text-anchor="start" x="288" y="-379.5" font-family="Helvetica,sans-Serif" font-size="10.00">+ UnknownData00</text>
<text text-anchor="start" x="288" y="-368.5" font-family="Helvetica,sans-Serif" font-size="10.00">+ Child2Weight</text>
<text text-anchor="start" x="288" y="-357.5" font-family="Helvetica,sans-Serif" font-size="10.00">+ Child2WeightTarget</text>
<text text-anchor="start" x="288" y="-346.5" font-family="Helvetica,sans-Serif" font-size="10.00">+ BlendTimeToGo</text>
<text text-anchor="start" x="288" y="-335.5" font-family="Helvetica,sans-Serif" font-size="10.00">+ bSkipBlendWhenNotRendered</text>
<polyline fill="none" stroke="black" points="280,-328.5 438,-328.5 "/>
<text text-anchor="start" x="288" y="-316.5" font-family="Helvetica,sans-Serif" font-size="10.00">+ SetBlendTarget()</text>
<text text-anchor="start" x="288" y="-305.5" font-family="Helvetica,sans-Serif" font-size="10.00">+ StaticClass()</text>
</a>
</g>
</g>
<!-- Node6 -->
<g id="node6" class="node">
<title>Node6</title>
<g id="a_node6"><a xlink:href="../../d7/d80/classSDK_1_1UAnimNodeAdditiveBlending.html" target="_top" xlink:title=" ">
<polygon fill="white" stroke="black" points="0,-155 0,-223 172,-223 172,-155 0,-155"/>
<text text-anchor="middle" x="86" y="-211" font-family="Helvetica,sans-Serif" font-size="10.00">SDK::UAnimNodeAdditiveBlending</text>
<polyline fill="none" stroke="black" points="0,-204 172,-204 "/>
<text text-anchor="start" x="8" y="-192" font-family="Helvetica,sans-Serif" font-size="10.00">+ bPassThroughWhenNotRendered</text>
<polyline fill="none" stroke="black" points="0,-185 172,-185 "/>
<text text-anchor="start" x="8" y="-173" font-family="Helvetica,sans-Serif" font-size="10.00">+ SetBlendTarget()</text>
<text text-anchor="start" x="8" y="-162" font-family="Helvetica,sans-Serif" font-size="10.00">+ StaticClass()</text>
</a>
</g>
</g>
<!-- Node1&#45;&gt;Node6 -->
<g id="edge5" class="edge">
<title>Node1&#45;&gt;Node6</title>
<path fill="none" stroke="midnightblue" d="M270.87,-312.01C241.67,-297.26 209.38,-279.86 181,-262 162.43,-250.32 142.96,-235.96 126.5,-223.16"/>
<polygon fill="none" stroke="midnightblue" points="269.32,-315.15 279.83,-316.5 272.46,-308.89 269.32,-315.15"/>
</g>
<!-- Node7 -->
<g id="node7" class="node">
<title>Node7</title>
<g id="a_node7"><a xlink:href="../../dc/d42/classSDK_1_1UAnimNodeBlendPerBone.html" target="_top" xlink:title=" ">
<polygon fill="white" stroke="black" points="190.5,-138.5 190.5,-239.5 349.5,-239.5 349.5,-138.5 190.5,-138.5"/>
<text text-anchor="middle" x="270" y="-227.5" font-family="Helvetica,sans-Serif" font-size="10.00">SDK::UAnimNodeBlendPerBone</text>
<polyline fill="none" stroke="black" points="190.5,-220.5 349.5,-220.5 "/>
<text text-anchor="start" x="198.5" y="-208.5" font-family="Helvetica,sans-Serif" font-size="10.00">+ bForceLocalSpaceBlend</text>
<text text-anchor="start" x="198.5" y="-197.5" font-family="Helvetica,sans-Serif" font-size="10.00">+ BranchStartBoneName</text>
<text text-anchor="start" x="198.5" y="-186.5" font-family="Helvetica,sans-Serif" font-size="10.00">+ Child2PerBoneWeight</text>
<text text-anchor="start" x="198.5" y="-175.5" font-family="Helvetica,sans-Serif" font-size="10.00">+ LocalToCompReqBones</text>
<polyline fill="none" stroke="black" points="190.5,-168.5 349.5,-168.5 "/>
<text text-anchor="start" x="198.5" y="-156.5" font-family="Helvetica,sans-Serif" font-size="10.00">+ SetBlendTarget()</text>
<text text-anchor="start" x="198.5" y="-145.5" font-family="Helvetica,sans-Serif" font-size="10.00">+ StaticClass()</text>
</a>
</g>
</g>
<!-- Node1&#45;&gt;Node7 -->
<g id="edge6" class="edge">
<title>Node1&#45;&gt;Node7</title>
<path fill="none" stroke="midnightblue" d="M323.95,-289.11C314.97,-272.62 305.46,-255.14 296.96,-239.53"/>
<polygon fill="none" stroke="midnightblue" points="321.01,-291.04 328.87,-298.15 327.16,-287.69 321.01,-291.04"/>
</g>
<!-- Node9 -->
<g id="node9" class="node">
<title>Node9</title>
<g id="a_node9"><a xlink:href="../../d9/dd4/classSDK_1_1UAnimNodeCrossfader.html" target="_top" xlink:title=" ">
<polygon fill="white" stroke="black" points="367.5,-127.5 367.5,-250.5 528.5,-250.5 528.5,-127.5 367.5,-127.5"/>
<text text-anchor="middle" x="448" y="-238.5" font-family="Helvetica,sans-Serif" font-size="10.00">SDK::UAnimNodeCrossfader</text>
<polyline fill="none" stroke="black" points="367.5,-231.5 528.5,-231.5 "/>
<text text-anchor="start" x="375.5" y="-219.5" font-family="Helvetica,sans-Serif" font-size="10.00">+ DefaultAnimSeqName</text>
<text text-anchor="start" x="375.5" y="-208.5" font-family="Helvetica,sans-Serif" font-size="10.00">+ bDontBlendOutOneShot</text>
<text text-anchor="start" x="375.5" y="-197.5" font-family="Helvetica,sans-Serif" font-size="10.00">+ PendingBlendOutTimeOneShot</text>
<polyline fill="none" stroke="black" points="367.5,-190.5 528.5,-190.5 "/>
<text text-anchor="start" x="375.5" y="-178.5" font-family="Helvetica,sans-Serif" font-size="10.00">+ GetActiveChild()</text>
<text text-anchor="start" x="375.5" y="-167.5" font-family="Helvetica,sans-Serif" font-size="10.00">+ GetAnimName()</text>
<text text-anchor="start" x="375.5" y="-156.5" font-family="Helvetica,sans-Serif" font-size="10.00">+ BlendToLoopingAnim()</text>
<text text-anchor="start" x="375.5" y="-145.5" font-family="Helvetica,sans-Serif" font-size="10.00">+ PlayOneShotAnim()</text>
<text text-anchor="start" x="375.5" y="-134.5" font-family="Helvetica,sans-Serif" font-size="10.00">+ StaticClass()</text>
</a>
</g>
</g>
<!-- Node1&#45;&gt;Node9 -->
<g id="edge8" class="edge">
<title>Node1&#45;&gt;Node9</title>
<path fill="none" stroke="midnightblue" d="M394.08,-289.05C400.97,-276.39 408.18,-263.15 415,-250.63"/>
<polygon fill="none" stroke="midnightblue" points="390.84,-287.69 389.13,-298.15 396.99,-291.04 390.84,-287.69"/>
</g>
<!-- Node10 -->
<g id="node10" class="node">
<title>Node10</title>
<g id="a_node10"><a xlink:href="../../d7/d53/classSDK_1_1UAnimNodePlayCustomAnim.html" target="_top" xlink:title=" ">
<polygon fill="white" stroke="black" points="546.5,-116.5 546.5,-261.5 719.5,-261.5 719.5,-116.5 546.5,-116.5"/>
<text text-anchor="middle" x="633" y="-249.5" font-family="Helvetica,sans-Serif" font-size="10.00">SDK::UAnimNodePlayCustomAnim</text>
<polyline fill="none" stroke="black" points="546.5,-242.5 719.5,-242.5 "/>
<text text-anchor="start" x="554.5" y="-230.5" font-family="Helvetica,sans-Serif" font-size="10.00">+ bIsPlayingCustomAnim</text>
<text text-anchor="start" x="554.5" y="-219.5" font-family="Helvetica,sans-Serif" font-size="10.00">+ CustomPendingBlendOutTime</text>
<polyline fill="none" stroke="black" points="546.5,-212.5 719.5,-212.5 "/>
<text text-anchor="start" x="554.5" y="-200.5" font-family="Helvetica,sans-Serif" font-size="10.00">+ SetRootBoneAxisOption()</text>
<text text-anchor="start" x="554.5" y="-189.5" font-family="Helvetica,sans-Serif" font-size="10.00">+ GetCustomAnimNodeSeq()</text>
<text text-anchor="start" x="554.5" y="-178.5" font-family="Helvetica,sans-Serif" font-size="10.00">+ SetActorAnimEndNotification()</text>
<text text-anchor="start" x="554.5" y="-167.5" font-family="Helvetica,sans-Serif" font-size="10.00">+ SetCustomAnim()</text>
<text text-anchor="start" x="554.5" y="-156.5" font-family="Helvetica,sans-Serif" font-size="10.00">+ StopCustomAnim()</text>
<text text-anchor="start" x="554.5" y="-145.5" font-family="Helvetica,sans-Serif" font-size="10.00">+ PlayCustomAnimByDuration()</text>
<text text-anchor="start" x="554.5" y="-134.5" font-family="Helvetica,sans-Serif" font-size="10.00">+ PlayCustomAnim()</text>
<text text-anchor="start" x="554.5" y="-123.5" font-family="Helvetica,sans-Serif" font-size="10.00">+ StaticClass()</text>
</a>
</g>
</g>
<!-- Node1&#45;&gt;Node10 -->
<g id="edge9" class="edge">
<title>Node1&#45;&gt;Node10</title>
<path fill="none" stroke="midnightblue" d="M447.07,-311.92C476.28,-297.17 508.57,-279.79 537,-262 540.09,-260.07 543.21,-258.06 546.33,-256"/>
<polygon fill="none" stroke="midnightblue" points="445.49,-308.8 438.12,-316.42 448.63,-315.06 445.49,-308.8"/>
</g>
<!-- Node2 -->
<g id="node2" class="node">
<title>Node2</title>
<g id="a_node2"><a xlink:href="../../db/d28/classSDK_1_1UAnimNodeBlendBase.html" target="_top" xlink:title=" ">
<polygon fill="white" stroke="black" points="287,-447.5 287,-559.5 431,-559.5 431,-447.5 287,-447.5"/>
<text text-anchor="middle" x="359" y="-547.5" font-family="Helvetica,sans-Serif" font-size="10.00">SDK::UAnimNodeBlendBase</text>
<polyline fill="none" stroke="black" points="287,-540.5 431,-540.5 "/>
<text text-anchor="start" x="295" y="-528.5" font-family="Helvetica,sans-Serif" font-size="10.00">+ Children</text>
<text text-anchor="start" x="295" y="-517.5" font-family="Helvetica,sans-Serif" font-size="10.00">+ bFixNumChildren</text>
<text text-anchor="start" x="295" y="-506.5" font-family="Helvetica,sans-Serif" font-size="10.00">+ BlendType</text>
<polyline fill="none" stroke="black" points="287,-499.5 431,-499.5 "/>
<text text-anchor="start" x="295" y="-487.5" font-family="Helvetica,sans-Serif" font-size="10.00">+ ReplayAnim()</text>
<text text-anchor="start" x="295" y="-476.5" font-family="Helvetica,sans-Serif" font-size="10.00">+ StopAnim()</text>
<text text-anchor="start" x="295" y="-465.5" font-family="Helvetica,sans-Serif" font-size="10.00">+ PlayAnim()</text>
<text text-anchor="start" x="295" y="-454.5" font-family="Helvetica,sans-Serif" font-size="10.00">+ StaticClass()</text>
</a>
</g>
</g>
<!-- Node2&#45;&gt;Node1 -->
<g id="edge1" class="edge">
<title>Node2&#45;&gt;Node1</title>
<path fill="none" stroke="midnightblue" d="M359,-437.18C359,-428.43 359,-419.52 359,-410.96"/>
<polygon fill="none" stroke="midnightblue" points="355.5,-437.34 359,-447.34 362.5,-437.34 355.5,-437.34"/>
</g>
<!-- Node3 -->
<g id="node3" class="node">
<title>Node3</title>
<g id="a_node3"><a xlink:href="../../db/d08/classSDK_1_1UAnimNode.html" target="_top" xlink:title=" ">
<polygon fill="white" stroke="black" points="269.5,-596.5 269.5,-851.5 448.5,-851.5 448.5,-596.5 269.5,-596.5"/>
<text text-anchor="middle" x="359" y="-839.5" font-family="Helvetica,sans-Serif" font-size="10.00">SDK::UAnimNode</text>
<polyline fill="none" stroke="black" points="269.5,-832.5 448.5,-832.5 "/>
<text text-anchor="start" x="277.5" y="-820.5" font-family="Helvetica,sans-Serif" font-size="10.00">+ bRelevant</text>
<text text-anchor="start" x="277.5" y="-809.5" font-family="Helvetica,sans-Serif" font-size="10.00">+ bJustBecameRelevant</text>
<text text-anchor="start" x="277.5" y="-798.5" font-family="Helvetica,sans-Serif" font-size="10.00">+ bTickDuringPausedAnims</text>
<text text-anchor="start" x="277.5" y="-787.5" font-family="Helvetica,sans-Serif" font-size="10.00">+ bEditorOnly</text>
<text text-anchor="start" x="277.5" y="-776.5" font-family="Helvetica,sans-Serif" font-size="10.00">+ bDisableCaching</text>
<text text-anchor="start" x="277.5" y="-765.5" font-family="Helvetica,sans-Serif" font-size="10.00">+ bCallScriptEventOnInit</text>
<text text-anchor="start" x="277.5" y="-754.5" font-family="Helvetica,sans-Serif" font-size="10.00">+ bCallScriptEventOnBecome</text>
<text text-anchor="start" x="277.5" y="-743.5" font-family="Helvetica,sans-Serif" font-size="10.00">Relevant</text>
<text text-anchor="start" x="277.5" y="-732.5" font-family="Helvetica,sans-Serif" font-size="10.00">+ bCallScriptEventOnCeaseRelevant</text>
<text text-anchor="start" x="277.5" y="-721.5" font-family="Helvetica,sans-Serif" font-size="10.00">+ NodeTickTag</text>
<text text-anchor="start" x="277.5" y="-710.5" font-family="Helvetica,sans-Serif" font-size="10.00">+ NodeInitTag</text>
<text text-anchor="start" x="277.5" y="-699.5" font-family="Helvetica,sans-Serif" font-size="10.00">and 15 more...</text>
<polyline fill="none" stroke="black" points="269.5,-692.5 448.5,-692.5 "/>
<text text-anchor="start" x="277.5" y="-680.5" font-family="Helvetica,sans-Serif" font-size="10.00">+ ReplayAnim()</text>
<text text-anchor="start" x="277.5" y="-669.5" font-family="Helvetica,sans-Serif" font-size="10.00">+ StopAnim()</text>
<text text-anchor="start" x="277.5" y="-658.5" font-family="Helvetica,sans-Serif" font-size="10.00">+ PlayAnim()</text>
<text text-anchor="start" x="277.5" y="-647.5" font-family="Helvetica,sans-Serif" font-size="10.00">+ FindAnimNode()</text>
<text text-anchor="start" x="277.5" y="-636.5" font-family="Helvetica,sans-Serif" font-size="10.00">+ OnCeaseRelevant()</text>
<text text-anchor="start" x="277.5" y="-625.5" font-family="Helvetica,sans-Serif" font-size="10.00">+ OnBecomeRelevant()</text>
<text text-anchor="start" x="277.5" y="-614.5" font-family="Helvetica,sans-Serif" font-size="10.00">+ OnInit()</text>
<text text-anchor="start" x="277.5" y="-603.5" font-family="Helvetica,sans-Serif" font-size="10.00">+ StaticClass()</text>
</a>
</g>
</g>
<!-- Node3&#45;&gt;Node2 -->
<g id="edge2" class="edge">
<title>Node3&#45;&gt;Node2</title>
<path fill="none" stroke="midnightblue" d="M359,-586.1C359,-576.86 359,-567.91 359,-559.53"/>
<polygon fill="none" stroke="midnightblue" points="355.5,-586.21 359,-596.21 362.5,-586.21 355.5,-586.21"/>
</g>
<!-- Node4 -->
<g id="node4" class="node">
<title>Node4</title>
<g id="a_node4"><a xlink:href="../../de/d78/classSDK_1_1UAnimObject.html" target="_top" xlink:title=" ">
<polygon fill="white" stroke="black" points="308,-888.5 308,-1011.5 410,-1011.5 410,-888.5 308,-888.5"/>
<text text-anchor="middle" x="359" y="-999.5" font-family="Helvetica,sans-Serif" font-size="10.00">SDK::UAnimObject</text>
<polyline fill="none" stroke="black" points="308,-992.5 410,-992.5 "/>
<text text-anchor="start" x="316" y="-980.5" font-family="Helvetica,sans-Serif" font-size="10.00">+ DrawWidth</text>
<text text-anchor="start" x="316" y="-969.5" font-family="Helvetica,sans-Serif" font-size="10.00">+ DrawHeight</text>
<text text-anchor="start" x="316" y="-958.5" font-family="Helvetica,sans-Serif" font-size="10.00">+ NodePosX</text>
<text text-anchor="start" x="316" y="-947.5" font-family="Helvetica,sans-Serif" font-size="10.00">+ NodePosY</text>
<text text-anchor="start" x="316" y="-936.5" font-family="Helvetica,sans-Serif" font-size="10.00">+ OutDrawY</text>
<text text-anchor="start" x="316" y="-925.5" font-family="Helvetica,sans-Serif" font-size="10.00">+ CategoryDesc</text>
<text text-anchor="start" x="316" y="-914.5" font-family="Helvetica,sans-Serif" font-size="10.00">+ SkelComponent</text>
<polyline fill="none" stroke="black" points="308,-907.5 410,-907.5 "/>
<text text-anchor="start" x="316" y="-895.5" font-family="Helvetica,sans-Serif" font-size="10.00">+ StaticClass()</text>
</a>
</g>
</g>
<!-- Node4&#45;&gt;Node3 -->
<g id="edge3" class="edge">
<title>Node4&#45;&gt;Node3</title>
<path fill="none" stroke="midnightblue" d="M359,-878.17C359,-869.63 359,-860.72 359,-851.68"/>
<polygon fill="none" stroke="midnightblue" points="355.5,-878.38 359,-888.38 362.5,-878.38 355.5,-878.38"/>
</g>
<!-- Node5 -->
<g id="node5" class="node">
<title>Node5</title>
<g id="a_node5"><a xlink:href="../../d9/d45/classSDK_1_1UObject.html" target="_top" xlink:title=" ">
<polygon fill="white" stroke="black" points="260,-1048.5 260,-1402.5 458,-1402.5 458,-1048.5 260,-1048.5"/>
<text text-anchor="middle" x="359" y="-1390.5" font-family="Helvetica,sans-Serif" font-size="10.00">SDK::UObject</text>
<polyline fill="none" stroke="black" points="260,-1383.5 458,-1383.5 "/>
<text text-anchor="start" x="268" y="-1371.5" font-family="Helvetica,sans-Serif" font-size="10.00">+ VfTableObject</text>
<text text-anchor="start" x="268" y="-1360.5" font-family="Helvetica,sans-Serif" font-size="10.00">+ ObjectFlags</text>
<text text-anchor="start" x="268" y="-1349.5" font-family="Helvetica,sans-Serif" font-size="10.00">+ StateFrame</text>
<text text-anchor="start" x="268" y="-1338.5" font-family="Helvetica,sans-Serif" font-size="10.00">+ Linker</text>
<text text-anchor="start" x="268" y="-1327.5" font-family="Helvetica,sans-Serif" font-size="10.00">+ LinkerIndex</text>
<text text-anchor="start" x="268" y="-1316.5" font-family="Helvetica,sans-Serif" font-size="10.00">+ ObjectInternalInteger</text>
<text text-anchor="start" x="268" y="-1305.5" font-family="Helvetica,sans-Serif" font-size="10.00">+ NetIndex</text>
<text text-anchor="start" x="268" y="-1294.5" font-family="Helvetica,sans-Serif" font-size="10.00">+ Outer</text>
<text text-anchor="start" x="268" y="-1283.5" font-family="Helvetica,sans-Serif" font-size="10.00">+ Name</text>
<text text-anchor="start" x="268" y="-1272.5" font-family="Helvetica,sans-Serif" font-size="10.00">+ Class</text>
<text text-anchor="start" x="268" y="-1261.5" font-family="Helvetica,sans-Serif" font-size="10.00">+ ObjectArchetype</text>
<text text-anchor="start" x="268" y="-1250.5" font-family="Helvetica,sans-Serif" font-size="10.00">+ GObjects</text>
<polyline fill="none" stroke="black" points="260,-1243.5 458,-1243.5 "/>
<text text-anchor="start" x="268" y="-1231.5" font-family="Helvetica,sans-Serif" font-size="10.00">+ UObject::GetName()</text>
<text text-anchor="start" x="268" y="-1220.5" font-family="Helvetica,sans-Serif" font-size="10.00">+ GetFullName()</text>
<text text-anchor="start" x="268" y="-1209.5" font-family="Helvetica,sans-Serif" font-size="10.00">+ IsA()</text>
<text text-anchor="start" x="268" y="-1198.5" font-family="Helvetica,sans-Serif" font-size="10.00">+ ProcessEvent()</text>
<text text-anchor="start" x="268" y="-1187.5" font-family="Helvetica,sans-Serif" font-size="10.00">+ STATIC_ProfNodeEvent()</text>
<text text-anchor="start" x="268" y="-1176.5" font-family="Helvetica,sans-Serif" font-size="10.00">+ STATIC_ProfNodeSetDepthThreshold()</text>
<text text-anchor="start" x="268" y="-1165.5" font-family="Helvetica,sans-Serif" font-size="10.00">+ STATIC_ProfNodeSetTimeThreshold</text>
<text text-anchor="start" x="268" y="-1154.5" font-family="Helvetica,sans-Serif" font-size="10.00">Seconds()</text>
<text text-anchor="start" x="268" y="-1143.5" font-family="Helvetica,sans-Serif" font-size="10.00">+ STATIC_ProfNodeStop()</text>
<text text-anchor="start" x="268" y="-1132.5" font-family="Helvetica,sans-Serif" font-size="10.00">+ STATIC_ProfNodeStart()</text>
<text text-anchor="start" x="268" y="-1121.5" font-family="Helvetica,sans-Serif" font-size="10.00">+ STATIC_GetStringFromGuid()</text>
<text text-anchor="start" x="268" y="-1110.5" font-family="Helvetica,sans-Serif" font-size="10.00">and 298 more...</text>
<text text-anchor="start" x="268" y="-1099.5" font-family="Helvetica,sans-Serif" font-size="10.00">+ GetGlobalObjects()</text>
<text text-anchor="start" x="268" y="-1088.5" font-family="Helvetica,sans-Serif" font-size="10.00">+ FindObject()</text>
<text text-anchor="start" x="268" y="-1077.5" font-family="Helvetica,sans-Serif" font-size="10.00">+ FindClass()</text>
<text text-anchor="start" x="268" y="-1066.5" font-family="Helvetica,sans-Serif" font-size="10.00">+ GetObjectCasted()</text>
<text text-anchor="start" x="268" y="-1055.5" font-family="Helvetica,sans-Serif" font-size="10.00">+ StaticClass()</text>
</a>
</g>
</g>
<!-- Node5&#45;&gt;Node4 -->
<g id="edge4" class="edge">
<title>Node5&#45;&gt;Node4</title>
<path fill="none" stroke="midnightblue" d="M359,-1038.1C359,-1028.91 359,-1020.07 359,-1011.77"/>
<polygon fill="none" stroke="midnightblue" points="355.5,-1038.2 359,-1048.2 362.5,-1038.2 355.5,-1038.2"/>
</g>
<!-- Node8 -->
<g id="node8" class="node">
<title>Node8</title>
<g id="a_node8"><a xlink:href="../../df/d28/classSDK_1_1UEFAnimNodeBlendPerBone.html" target="_top" xlink:title=" ">
<polygon fill="white" stroke="black" points="184,-0.5 184,-79.5 356,-79.5 356,-0.5 184,-0.5"/>
<text text-anchor="middle" x="270" y="-67.5" font-family="Helvetica,sans-Serif" font-size="10.00">SDK::UEFAnimNodeBlendPerBone</text>
<polyline fill="none" stroke="black" points="184,-60.5 356,-60.5 "/>
<text text-anchor="start" x="192" y="-48.5" font-family="Helvetica,sans-Serif" font-size="10.00">+ iForceActiveIndex</text>
<text text-anchor="start" x="192" y="-37.5" font-family="Helvetica,sans-Serif" font-size="10.00">+ iNextForceActiveIndex</text>
<text text-anchor="start" x="192" y="-26.5" font-family="Helvetica,sans-Serif" font-size="10.00">+ fSkipBlendInTime</text>
<polyline fill="none" stroke="black" points="184,-19.5 356,-19.5 "/>
<text text-anchor="start" x="192" y="-7.5" font-family="Helvetica,sans-Serif" font-size="10.00">+ StaticClass()</text>
</a>
</g>
</g>
<!-- Node7&#45;&gt;Node8 -->
<g id="edge7" class="edge">
<title>Node7&#45;&gt;Node8</title>
<path fill="none" stroke="midnightblue" d="M270,-128.17C270,-111.77 270,-94.42 270,-79.56"/>
<polygon fill="none" stroke="midnightblue" points="266.5,-128.23 270,-138.23 273.5,-128.23 266.5,-128.23"/>
</g>
</g>
</svg>
