<?xml version="1.0" encoding="UTF-8" standalone="no"?>
<!DOCTYPE svg PUBLIC "-//W3C//DTD SVG 1.1//EN"
 "http://www.w3.org/Graphics/SVG/1.1/DTD/svg11.dtd">
<!-- Generated by graphviz version 2.41.20171026.1811 (20171026.1811)
 -->
<!-- Title: SDK::UActorFactoryAmbientSoundSimple Pages: 1 -->
<!--zoomable 860 -->
<svg id="main" version="1.1" xmlns="http://www.w3.org/2000/svg" xmlns:xlink="http://www.w3.org/1999/xlink" xml:space="preserve" onload="init(evt)">
<style type="text/css"><![CDATA[
.edge:hover path { stroke: red; }
.edge:hover polygon { stroke: red; fill: red; }
]]></style>
<script type="text/javascript"><![CDATA[
var edges = document.getElementsByTagName('g');
if (edges && edges.length) {
  for (var i=0;i<edges.length;i++) {
    if (edges[i].id.substr(0,4)=='edge') {
      edges[i].setAttribute('class','edge');
    }
  }
}
]]></script>
        <defs>
                <circle id="rim" cx="0" cy="0" r="7"/>
                <circle id="rim2" cx="0" cy="0" r="3.5"/>
                <g id="zoomPlus">
                        <use xlink:href="#rim" fill="#404040">
                                <set attributeName="fill" to="#808080" begin="zoomplus.mouseover" end="zoomplus.mouseout"/>
                        </use>
                        <path d="M-4,0h8M0,-4v8" fill="none" stroke="white" stroke-width="1.5" pointer-events="none"/>
                </g>
                <g id="zoomMin">
                        <use xlink:href="#rim" fill="#404040">
                                <set attributeName="fill" to="#808080" begin="zoomminus.mouseover" end="zoomminus.mouseout"/>
                        </use>
                        <path d="M-4,0h8" fill="none" stroke="white" stroke-width="1.5" pointer-events="none"/>
                </g>
                <g id="dirArrow">
                        <path fill="none" stroke="white" stroke-width="1.5" d="M0,-3.0v7 M-2.5,-0.5L0,-3.0L2.5,-0.5"/>
                </g>
               <g id="resetDef">
                       <use xlink:href="#rim2" fill="#404040">
                               <set attributeName="fill" to="#808080" begin="reset.mouseover" end="reset.mouseout"/>
                       </use>
               </g>
        </defs>

<script type="text/javascript">
var viewWidth = 312;
var viewHeight = 860;
var sectionId = 'dynsection-0';
</script>
<script xlink:href="../../svgpan.js"/>
<svg id="graph" class="graph">
<g id="viewport">
<title>SDK::UActorFactoryAmbientSoundSimple</title>
<polygon fill="white" stroke="transparent" points="-4,4 -4,-856 308,-856 308,4 -4,4"/>
<!-- Node1 -->
<g id="node1" class="node">
<title>Node1</title>
<g id="a_node1"><a xlink:title=" ">
<polygon fill="#bfbfbf" stroke="black" points="80,-210.5 80,-278.5 223,-278.5 223,-210.5 80,-210.5"/>
<text text-anchor="start" x="88" y="-266.5" font-family="Helvetica,sans-Serif" font-size="10.00">SDK::UActorFactoryAmbient</text>
<text text-anchor="middle" x="151.5" y="-255.5" font-family="Helvetica,sans-Serif" font-size="10.00">SoundSimple</text>
<polyline fill="none" stroke="black" points="80,-248.5 223,-248.5 "/>
<text text-anchor="start" x="88" y="-236.5" font-family="Helvetica,sans-Serif" font-size="10.00">+ SoundNodeWave</text>
<polyline fill="none" stroke="black" points="80,-229.5 223,-229.5 "/>
<text text-anchor="start" x="88" y="-217.5" font-family="Helvetica,sans-Serif" font-size="10.00">+ StaticClass()</text>
</a>
</g>
</g>
<!-- Node4 -->
<g id="node4" class="node">
<title>Node4</title>
<g id="a_node4"><a xlink:href="../../d0/d66/classSDK_1_1UActorFactoryAmbientSoundNonLoop.html" target="_top" xlink:title=" ">
<polygon fill="white" stroke="black" points="0,-105.5 0,-173.5 143,-173.5 143,-105.5 0,-105.5"/>
<text text-anchor="start" x="8" y="-161.5" font-family="Helvetica,sans-Serif" font-size="10.00">SDK::UActorFactoryAmbient</text>
<text text-anchor="middle" x="71.5" y="-150.5" font-family="Helvetica,sans-Serif" font-size="10.00">SoundNonLoop</text>
<polyline fill="none" stroke="black" points="0,-143.5 143,-143.5 "/>
<text text-anchor="middle" x="71.5" y="-131.5" font-family="Helvetica,sans-Serif" font-size="10.00"> </text>
<polyline fill="none" stroke="black" points="0,-124.5 143,-124.5 "/>
<text text-anchor="start" x="8" y="-112.5" font-family="Helvetica,sans-Serif" font-size="10.00">+ StaticClass()</text>
</a>
</g>
</g>
<!-- Node1&#45;&gt;Node4 -->
<g id="edge3" class="edge">
<title>Node1&#45;&gt;Node4</title>
<path fill="none" stroke="midnightblue" d="M119.61,-202.44C112.17,-192.86 104.34,-182.78 97.2,-173.59"/>
<polygon fill="none" stroke="midnightblue" points="116.85,-204.59 125.75,-210.34 122.38,-200.3 116.85,-204.59"/>
</g>
<!-- Node5 -->
<g id="node5" class="node">
<title>Node5</title>
<g id="a_node5"><a xlink:href="../../d3/d11/classSDK_1_1UActorFactoryAmbientSoundSimpleToggleable.html" target="_top" xlink:title=" ">
<polygon fill="white" stroke="black" points="161,-105.5 161,-173.5 304,-173.5 304,-105.5 161,-105.5"/>
<text text-anchor="start" x="169" y="-161.5" font-family="Helvetica,sans-Serif" font-size="10.00">SDK::UActorFactoryAmbient</text>
<text text-anchor="middle" x="232.5" y="-150.5" font-family="Helvetica,sans-Serif" font-size="10.00">SoundSimpleToggleable</text>
<polyline fill="none" stroke="black" points="161,-143.5 304,-143.5 "/>
<text text-anchor="middle" x="232.5" y="-131.5" font-family="Helvetica,sans-Serif" font-size="10.00"> </text>
<polyline fill="none" stroke="black" points="161,-124.5 304,-124.5 "/>
<text text-anchor="start" x="169" y="-112.5" font-family="Helvetica,sans-Serif" font-size="10.00">+ StaticClass()</text>
</a>
</g>
</g>
<!-- Node1&#45;&gt;Node5 -->
<g id="edge4" class="edge">
<title>Node1&#45;&gt;Node5</title>
<path fill="none" stroke="midnightblue" d="M183.79,-202.44C191.32,-192.86 199.25,-182.78 206.47,-173.59"/>
<polygon fill="none" stroke="midnightblue" points="181.01,-200.32 177.57,-210.34 186.51,-204.65 181.01,-200.32"/>
</g>
<!-- Node2 -->
<g id="node2" class="node">
<title>Node2</title>
<g id="a_node2"><a xlink:href="../../d8/d94/classSDK_1_1UActorFactory.html" target="_top" xlink:title=" ">
<polygon fill="white" stroke="black" points="82,-315.5 82,-460.5 221,-460.5 221,-315.5 82,-315.5"/>
<text text-anchor="middle" x="151.5" y="-448.5" font-family="Helvetica,sans-Serif" font-size="10.00">SDK::UActorFactory</text>
<polyline fill="none" stroke="black" points="82,-441.5 221,-441.5 "/>
<text text-anchor="start" x="90" y="-429.5" font-family="Helvetica,sans-Serif" font-size="10.00">+ GameplayActorClass</text>
<text text-anchor="start" x="90" y="-418.5" font-family="Helvetica,sans-Serif" font-size="10.00">+ MenuName</text>
<text text-anchor="start" x="90" y="-407.5" font-family="Helvetica,sans-Serif" font-size="10.00">+ MenuPriority</text>
<text text-anchor="start" x="90" y="-396.5" font-family="Helvetica,sans-Serif" font-size="10.00">+ AlternateMenuPriority</text>
<text text-anchor="start" x="90" y="-385.5" font-family="Helvetica,sans-Serif" font-size="10.00">+ NewActorClassName</text>
<text text-anchor="start" x="90" y="-374.5" font-family="Helvetica,sans-Serif" font-size="10.00">+ NewActorClass</text>
<text text-anchor="start" x="90" y="-363.5" font-family="Helvetica,sans-Serif" font-size="10.00">+ bPlaceable</text>
<text text-anchor="start" x="90" y="-352.5" font-family="Helvetica,sans-Serif" font-size="10.00">+ bShowInEditorQuickMenu</text>
<polyline fill="none" stroke="black" points="82,-345.5 221,-345.5 "/>
<text text-anchor="start" x="90" y="-333.5" font-family="Helvetica,sans-Serif" font-size="10.00">+ PostCreateActor()</text>
<text text-anchor="start" x="90" y="-322.5" font-family="Helvetica,sans-Serif" font-size="10.00">+ StaticClass()</text>
</a>
</g>
</g>
<!-- Node2&#45;&gt;Node1 -->
<g id="edge1" class="edge">
<title>Node2&#45;&gt;Node1</title>
<path fill="none" stroke="midnightblue" d="M151.5,-305.19C151.5,-295.83 151.5,-286.73 151.5,-278.58"/>
<polygon fill="none" stroke="midnightblue" points="148,-305.42 151.5,-315.42 155,-305.42 148,-305.42"/>
</g>
<!-- Node3 -->
<g id="node3" class="node">
<title>Node3</title>
<g id="a_node3"><a xlink:href="../../d9/d45/classSDK_1_1UObject.html" target="_top" xlink:title=" ">
<polygon fill="white" stroke="black" points="52.5,-497.5 52.5,-851.5 250.5,-851.5 250.5,-497.5 52.5,-497.5"/>
<text text-anchor="middle" x="151.5" y="-839.5" font-family="Helvetica,sans-Serif" font-size="10.00">SDK::UObject</text>
<polyline fill="none" stroke="black" points="52.5,-832.5 250.5,-832.5 "/>
<text text-anchor="start" x="60.5" y="-820.5" font-family="Helvetica,sans-Serif" font-size="10.00">+ VfTableObject</text>
<text text-anchor="start" x="60.5" y="-809.5" font-family="Helvetica,sans-Serif" font-size="10.00">+ ObjectFlags</text>
<text text-anchor="start" x="60.5" y="-798.5" font-family="Helvetica,sans-Serif" font-size="10.00">+ StateFrame</text>
<text text-anchor="start" x="60.5" y="-787.5" font-family="Helvetica,sans-Serif" font-size="10.00">+ Linker</text>
<text text-anchor="start" x="60.5" y="-776.5" font-family="Helvetica,sans-Serif" font-size="10.00">+ LinkerIndex</text>
<text text-anchor="start" x="60.5" y="-765.5" font-family="Helvetica,sans-Serif" font-size="10.00">+ ObjectInternalInteger</text>
<text text-anchor="start" x="60.5" y="-754.5" font-family="Helvetica,sans-Serif" font-size="10.00">+ NetIndex</text>
<text text-anchor="start" x="60.5" y="-743.5" font-family="Helvetica,sans-Serif" font-size="10.00">+ Outer</text>
<text text-anchor="start" x="60.5" y="-732.5" font-family="Helvetica,sans-Serif" font-size="10.00">+ Name</text>
<text text-anchor="start" x="60.5" y="-721.5" font-family="Helvetica,sans-Serif" font-size="10.00">+ Class</text>
<text text-anchor="start" x="60.5" y="-710.5" font-family="Helvetica,sans-Serif" font-size="10.00">+ ObjectArchetype</text>
<text text-anchor="start" x="60.5" y="-699.5" font-family="Helvetica,sans-Serif" font-size="10.00">+ GObjects</text>
<polyline fill="none" stroke="black" points="52.5,-692.5 250.5,-692.5 "/>
<text text-anchor="start" x="60.5" y="-680.5" font-family="Helvetica,sans-Serif" font-size="10.00">+ UObject::GetName()</text>
<text text-anchor="start" x="60.5" y="-669.5" font-family="Helvetica,sans-Serif" font-size="10.00">+ GetFullName()</text>
<text text-anchor="start" x="60.5" y="-658.5" font-family="Helvetica,sans-Serif" font-size="10.00">+ IsA()</text>
<text text-anchor="start" x="60.5" y="-647.5" font-family="Helvetica,sans-Serif" font-size="10.00">+ ProcessEvent()</text>
<text text-anchor="start" x="60.5" y="-636.5" font-family="Helvetica,sans-Serif" font-size="10.00">+ STATIC_ProfNodeEvent()</text>
<text text-anchor="start" x="60.5" y="-625.5" font-family="Helvetica,sans-Serif" font-size="10.00">+ STATIC_ProfNodeSetDepthThreshold()</text>
<text text-anchor="start" x="60.5" y="-614.5" font-family="Helvetica,sans-Serif" font-size="10.00">+ STATIC_ProfNodeSetTimeThreshold</text>
<text text-anchor="start" x="60.5" y="-603.5" font-family="Helvetica,sans-Serif" font-size="10.00">Seconds()</text>
<text text-anchor="start" x="60.5" y="-592.5" font-family="Helvetica,sans-Serif" font-size="10.00">+ STATIC_ProfNodeStop()</text>
<text text-anchor="start" x="60.5" y="-581.5" font-family="Helvetica,sans-Serif" font-size="10.00">+ STATIC_ProfNodeStart()</text>
<text text-anchor="start" x="60.5" y="-570.5" font-family="Helvetica,sans-Serif" font-size="10.00">+ STATIC_GetStringFromGuid()</text>
<text text-anchor="start" x="60.5" y="-559.5" font-family="Helvetica,sans-Serif" font-size="10.00">and 298 more...</text>
<text text-anchor="start" x="60.5" y="-548.5" font-family="Helvetica,sans-Serif" font-size="10.00">+ GetGlobalObjects()</text>
<text text-anchor="start" x="60.5" y="-537.5" font-family="Helvetica,sans-Serif" font-size="10.00">+ FindObject()</text>
<text text-anchor="start" x="60.5" y="-526.5" font-family="Helvetica,sans-Serif" font-size="10.00">+ FindClass()</text>
<text text-anchor="start" x="60.5" y="-515.5" font-family="Helvetica,sans-Serif" font-size="10.00">+ GetObjectCasted()</text>
<text text-anchor="start" x="60.5" y="-504.5" font-family="Helvetica,sans-Serif" font-size="10.00">+ StaticClass()</text>
</a>
</g>
</g>
<!-- Node3&#45;&gt;Node2 -->
<g id="edge2" class="edge">
<title>Node3&#45;&gt;Node2</title>
<path fill="none" stroke="midnightblue" d="M151.5,-487.31C151.5,-478.14 151.5,-469.23 151.5,-460.77"/>
<polygon fill="none" stroke="midnightblue" points="148,-487.37 151.5,-497.37 155,-487.37 148,-487.37"/>
</g>
<!-- Node6 -->
<g id="node6" class="node">
<title>Node6</title>
<g id="a_node6"><a xlink:href="../../da/df3/classSDK_1_1UActorFactoryAmbientSoundNonLoopingToggleable.html" target="_top" xlink:title=" ">
<polygon fill="white" stroke="black" points="161,-0.5 161,-68.5 304,-68.5 304,-0.5 161,-0.5"/>
<text text-anchor="start" x="169" y="-56.5" font-family="Helvetica,sans-Serif" font-size="10.00">SDK::UActorFactoryAmbient</text>
<text text-anchor="middle" x="232.5" y="-45.5" font-family="Helvetica,sans-Serif" font-size="10.00">SoundNonLoopingToggleable</text>
<polyline fill="none" stroke="black" points="161,-38.5 304,-38.5 "/>
<text text-anchor="middle" x="232.5" y="-26.5" font-family="Helvetica,sans-Serif" font-size="10.00"> </text>
<polyline fill="none" stroke="black" points="161,-19.5 304,-19.5 "/>
<text text-anchor="start" x="169" y="-7.5" font-family="Helvetica,sans-Serif" font-size="10.00">+ StaticClass()</text>
</a>
</g>
</g>
<!-- Node5&#45;&gt;Node6 -->
<g id="edge5" class="edge">
<title>Node5&#45;&gt;Node6</title>
<path fill="none" stroke="midnightblue" d="M232.5,-95.14C232.5,-86.26 232.5,-77.04 232.5,-68.59"/>
<polygon fill="none" stroke="midnightblue" points="229,-95.34 232.5,-105.34 236,-95.34 229,-95.34"/>
</g>
</g>
</svg>
        <g id="navigator" transform="translate(0 0)" fill="#404254">
                <rect fill="#f2f5e9" fill-opacity="0.5" stroke="#606060" stroke-width=".5" x="0" y="0" width="60" height="60"/>
                <use id="zoomplus" xlink:href="#zoomPlus" x="17" y="9" onmousedown="handleZoom(evt,'in')"/>
                <use id="zoomminus" xlink:href="#zoomMin" x="42" y="9" onmousedown="handleZoom(evt,'out')"/>
                <use id="reset" xlink:href="#resetDef" x="30" y="36" onmousedown="handleReset()"/>
                <g id="arrowUp" xlink:href="#dirArrow" transform="translate(30 24)" onmousedown="handlePan(0,-1)">
                  <use xlink:href="#rim" fill="#404040">
                        <set attributeName="fill" to="#808080" begin="arrowUp.mouseover" end="arrowUp.mouseout"/>
                  </use>
                  <path fill="none" stroke="white" stroke-width="1.5" d="M0,-3.0v7 M-2.5,-0.5L0,-3.0L2.5,-0.5"/>
                </g>
                <g id="arrowRight" xlink:href="#dirArrow" transform="rotate(90) translate(36 -43)" onmousedown="handlePan(1,0)">
                  <use xlink:href="#rim" fill="#404040">
                        <set attributeName="fill" to="#808080" begin="arrowRight.mouseover" end="arrowRight.mouseout"/>
                  </use>
                  <path fill="none" stroke="white" stroke-width="1.5" d="M0,-3.0v7 M-2.5,-0.5L0,-3.0L2.5,-0.5"/>
                </g>
                <g id="arrowDown" xlink:href="#dirArrow" transform="rotate(180) translate(-30 -48)" onmousedown="handlePan(0,1)">
                  <use xlink:href="#rim" fill="#404040">
                        <set attributeName="fill" to="#808080" begin="arrowDown.mouseover" end="arrowDown.mouseout"/>
                  </use>
                  <path fill="none" stroke="white" stroke-width="1.5" d="M0,-3.0v7 M-2.5,-0.5L0,-3.0L2.5,-0.5"/>
                </g>
                <g id="arrowLeft" xlink:href="#dirArrow" transform="rotate(270) translate(-36 17)" onmousedown="handlePan(-1,0)">
                  <use xlink:href="#rim" fill="#404040">
                        <set attributeName="fill" to="#808080" begin="arrowLeft.mouseover" end="arrowLeft.mouseout"/>
                  </use>
                  <path fill="none" stroke="white" stroke-width="1.5" d="M0,-3.0v7 M-2.5,-0.5L0,-3.0L2.5,-0.5"/>
                </g>
        </g>
        <svg viewBox="0 0 15 15" width="100%" height="30px" preserveAspectRatio="xMaxYMin meet">
         <g id="arrow_out" transform="scale(0.3 0.3)">
          <a xlink:href="classSDK_1_1UActorFactoryAmbientSoundSimple__inherit__graph_org.svg" target="_base">
           <rect id="button" ry="5" rx="5" y="6" x="6" height="38" width="38"
                fill="#f2f5e9" fill-opacity="0.5" stroke="#606060" stroke-width="1.0"/>
           <path id="arrow"
             d="M 11.500037,31.436501 C 11.940474,20.09759 22.043105,11.32322 32.158766,21.979434 L 37.068811,17.246167 C 37.068811,17.246167 37.088388,32 37.088388,32 L 22.160133,31.978069 C 22.160133,31.978069 26.997745,27.140456 26.997745,27.140456 C 18.528582,18.264221 13.291696,25.230495 11.500037,31.436501 z"
             style="fill:#404040;"/>
          </a>
         </g>
        </svg>
</svg>
