<?xml version="1.0" encoding="UTF-8" standalone="no"?>
<!DOCTYPE svg PUBLIC "-//W3C//DTD SVG 1.1//EN"
 "http://www.w3.org/Graphics/SVG/1.1/DTD/svg11.dtd">
<!-- Generated by graphviz version 2.41.20171026.1811 (20171026.1811)
 -->
<!-- Title: SDK::UEFActionNotify_NpcLimbState Pages: 1 -->
<svg width="1366pt" height="1598pt"
 viewBox="0.00 0.00 1365.50 1598.00" xmlns="http://www.w3.org/2000/svg" xmlns:xlink="http://www.w3.org/1999/xlink">
<g id="graph0" class="graph" transform="scale(1 1) rotate(0) translate(4 1594)">
<title>SDK::UEFActionNotify_NpcLimbState</title>
<polygon fill="white" stroke="transparent" points="-4,4 -4,-1594 1361.5,-1594 1361.5,4 -4,4"/>
<!-- Node1 -->
<g id="node1" class="node">
<title>Node1</title>
<g id="a_node1"><a xlink:title=" ">
<polygon fill="#bfbfbf" stroke="black" points="1048.5,-229 1048.5,-297 1166.5,-297 1166.5,-229 1048.5,-229"/>
<text text-anchor="start" x="1056.5" y="-285" font-family="Helvetica,sans-Serif" font-size="10.00">SDK::UEFActionNotify</text>
<text text-anchor="middle" x="1107.5" y="-274" font-family="Helvetica,sans-Serif" font-size="10.00">_NpcLimbState</text>
<polyline fill="none" stroke="black" points="1048.5,-267 1166.5,-267 "/>
<text text-anchor="start" x="1056.5" y="-255" font-family="Helvetica,sans-Serif" font-size="10.00">+ LimbHitEnabled</text>
<polyline fill="none" stroke="black" points="1048.5,-248 1166.5,-248 "/>
<text text-anchor="start" x="1056.5" y="-236" font-family="Helvetica,sans-Serif" font-size="10.00">+ StaticClass()</text>
</a>
</g>
</g>
<!-- Node2 -->
<g id="node2" class="node">
<title>Node2</title>
<g id="a_node2"><a xlink:href="../../df/d32/classSDK_1_1UEFAction__Notify.html" target="_top" xlink:title=" ">
<polygon fill="white" stroke="black" points="693,-361.5 693,-561.5 816,-561.5 816,-361.5 693,-361.5"/>
<text text-anchor="middle" x="754.5" y="-549.5" font-family="Helvetica,sans-Serif" font-size="10.00">SDK::UEFAction_Notify</text>
<polyline fill="none" stroke="black" points="693,-542.5 816,-542.5 "/>
<text text-anchor="start" x="701" y="-530.5" font-family="Helvetica,sans-Serif" font-size="10.00">+ TriggerSkillEffectId</text>
<text text-anchor="start" x="701" y="-519.5" font-family="Helvetica,sans-Serif" font-size="10.00">+ ActiveByMemoryPos</text>
<text text-anchor="start" x="701" y="-508.5" font-family="Helvetica,sans-Serif" font-size="10.00">+ FullRange</text>
<text text-anchor="start" x="701" y="-497.5" font-family="Helvetica,sans-Serif" font-size="10.00">+ Enable</text>
<text text-anchor="start" x="701" y="-486.5" font-family="Helvetica,sans-Serif" font-size="10.00">+ PrivateTemplate</text>
<text text-anchor="start" x="701" y="-475.5" font-family="Helvetica,sans-Serif" font-size="10.00">+ OverwriteTemplate</text>
<text text-anchor="start" x="701" y="-464.5" font-family="Helvetica,sans-Serif" font-size="10.00">+ Time</text>
<text text-anchor="start" x="701" y="-453.5" font-family="Helvetica,sans-Serif" font-size="10.00">+ OriginalTime</text>
<text text-anchor="start" x="701" y="-442.5" font-family="Helvetica,sans-Serif" font-size="10.00">+ Duration</text>
<text text-anchor="start" x="701" y="-431.5" font-family="Helvetica,sans-Serif" font-size="10.00">+ UnknownData00</text>
<text text-anchor="start" x="701" y="-420.5" font-family="Helvetica,sans-Serif" font-size="10.00">+ RepeatCount</text>
<text text-anchor="start" x="701" y="-409.5" font-family="Helvetica,sans-Serif" font-size="10.00">+ RepeatTerm</text>
<text text-anchor="start" x="701" y="-398.5" font-family="Helvetica,sans-Serif" font-size="10.00">+ SortPriority</text>
<text text-anchor="start" x="701" y="-387.5" font-family="Helvetica,sans-Serif" font-size="10.00">+ Probability</text>
<polyline fill="none" stroke="black" points="693,-380.5 816,-380.5 "/>
<text text-anchor="start" x="701" y="-368.5" font-family="Helvetica,sans-Serif" font-size="10.00">+ StaticClass()</text>
</a>
</g>
</g>
<!-- Node2&#45;&gt;Node1 -->
<g id="edge1" class="edge">
<title>Node2&#45;&gt;Node1</title>
<path fill="none" stroke="midnightblue" d="M825.42,-421.02C890.86,-384.6 986.91,-331.13 1048.33,-296.94"/>
<polygon fill="none" stroke="midnightblue" points="823.43,-418.13 816.39,-426.05 826.83,-424.24 823.43,-418.13"/>
</g>
<!-- Node3 -->
<g id="node3" class="node">
<title>Node3</title>
<g id="a_node3"><a xlink:href="../../d9/d45/classSDK_1_1UObject.html" target="_top" xlink:title=" ">
<polygon fill="white" stroke="black" points="152.5,-631.5 152.5,-875.5 350.5,-875.5 350.5,-631.5 152.5,-631.5"/>
<text text-anchor="middle" x="251.5" y="-863.5" font-family="Helvetica,sans-Serif" font-size="10.00">SDK::UObject</text>
<polyline fill="none" stroke="black" points="152.5,-856.5 350.5,-856.5 "/>
<text text-anchor="start" x="160.5" y="-844.5" font-family="Helvetica,sans-Serif" font-size="10.00">+ ObjectInternalInteger</text>
<text text-anchor="start" x="160.5" y="-833.5" font-family="Helvetica,sans-Serif" font-size="10.00">+ NetIndex</text>
<polyline fill="none" stroke="black" points="152.5,-826.5 350.5,-826.5 "/>
<text text-anchor="start" x="160.5" y="-814.5" font-family="Helvetica,sans-Serif" font-size="10.00">+ UObject::GetName()</text>
<text text-anchor="start" x="160.5" y="-803.5" font-family="Helvetica,sans-Serif" font-size="10.00">+ GetFullName()</text>
<text text-anchor="start" x="160.5" y="-792.5" font-family="Helvetica,sans-Serif" font-size="10.00">+ IsA()</text>
<text text-anchor="start" x="160.5" y="-781.5" font-family="Helvetica,sans-Serif" font-size="10.00">+ ProcessEvent()</text>
<text text-anchor="start" x="160.5" y="-770.5" font-family="Helvetica,sans-Serif" font-size="10.00">+ STATIC_ProfNodeEvent()</text>
<text text-anchor="start" x="160.5" y="-759.5" font-family="Helvetica,sans-Serif" font-size="10.00">+ STATIC_ProfNodeSetDepthThreshold()</text>
<text text-anchor="start" x="160.5" y="-748.5" font-family="Helvetica,sans-Serif" font-size="10.00">+ STATIC_ProfNodeSetTimeThreshold</text>
<text text-anchor="start" x="160.5" y="-737.5" font-family="Helvetica,sans-Serif" font-size="10.00">Seconds()</text>
<text text-anchor="start" x="160.5" y="-726.5" font-family="Helvetica,sans-Serif" font-size="10.00">+ STATIC_ProfNodeStop()</text>
<text text-anchor="start" x="160.5" y="-715.5" font-family="Helvetica,sans-Serif" font-size="10.00">+ STATIC_ProfNodeStart()</text>
<text text-anchor="start" x="160.5" y="-704.5" font-family="Helvetica,sans-Serif" font-size="10.00">+ STATIC_GetStringFromGuid()</text>
<text text-anchor="start" x="160.5" y="-693.5" font-family="Helvetica,sans-Serif" font-size="10.00">and 298 more...</text>
<text text-anchor="start" x="160.5" y="-682.5" font-family="Helvetica,sans-Serif" font-size="10.00">+ GetGlobalObjects()</text>
<text text-anchor="start" x="160.5" y="-671.5" font-family="Helvetica,sans-Serif" font-size="10.00">+ FindObject()</text>
<text text-anchor="start" x="160.5" y="-660.5" font-family="Helvetica,sans-Serif" font-size="10.00">+ FindClass()</text>
<text text-anchor="start" x="160.5" y="-649.5" font-family="Helvetica,sans-Serif" font-size="10.00">+ GetObjectCasted()</text>
<text text-anchor="start" x="160.5" y="-638.5" font-family="Helvetica,sans-Serif" font-size="10.00">+ StaticClass()</text>
</a>
</g>
</g>
<!-- Node3&#45;&gt;Node2 -->
<g id="edge2" class="edge">
<title>Node3&#45;&gt;Node2</title>
<path fill="none" stroke="midnightblue" d="M358.76,-657.95C392.76,-630.69 431.44,-602.31 469.5,-580 542.33,-537.3 633.63,-502.61 692.97,-482.27"/>
<polygon fill="none" stroke="midnightblue" points="356.25,-655.48 350.67,-664.48 360.65,-660.92 356.25,-655.48"/>
</g>
<!-- Node3&#45;&gt;Node3 -->
<g id="edge8" class="edge">
<title>Node3&#45;&gt;Node3</title>
<path fill="none" stroke="#404040" d="M350.51,-778.11C361.44,-773.43 368.5,-765.23 368.5,-753.5 368.5,-746.17 365.74,-740.22 361.01,-735.64"/>
<polygon fill="none" stroke="#404040" points="360.61,-735.38 353.4,-735.5 350.51,-728.89 357.72,-728.77 360.61,-735.38"/>
<text text-anchor="middle" x="408" y="-762" font-family="Helvetica,sans-Serif" font-size="10.00"> +Outer</text>
<text text-anchor="middle" x="408" y="-751" font-family="Helvetica,sans-Serif" font-size="10.00">+Linker</text>
<text text-anchor="middle" x="408" y="-740" font-family="Helvetica,sans-Serif" font-size="10.00">+ObjectArchetype</text>
</g>
<!-- Node9 -->
<g id="node9" class="node">
<title>Node9</title>
<g id="a_node9"><a xlink:href="../../d3/d79/classSDK_1_1TArray.html" target="_top" xlink:title=" ">
<polygon fill="white" stroke="black" points="214,-394.5 214,-528.5 375,-528.5 375,-394.5 214,-394.5"/>
<text text-anchor="middle" x="294.5" y="-516.5" font-family="Helvetica,sans-Serif" font-size="10.00">SDK::TArray&lt; SDK::UObject * &gt;</text>
<polyline fill="none" stroke="black" points="214,-509.5 375,-509.5 "/>
<text text-anchor="start" x="222" y="-497.5" font-family="Helvetica,sans-Serif" font-size="10.00">&#45; Count</text>
<text text-anchor="start" x="222" y="-486.5" font-family="Helvetica,sans-Serif" font-size="10.00">&#45; Max</text>
<polyline fill="none" stroke="black" points="214,-479.5 375,-479.5 "/>
<text text-anchor="start" x="222" y="-467.5" font-family="Helvetica,sans-Serif" font-size="10.00">+ TArray()</text>
<text text-anchor="start" x="222" y="-456.5" font-family="Helvetica,sans-Serif" font-size="10.00">+ Num()</text>
<text text-anchor="start" x="222" y="-445.5" font-family="Helvetica,sans-Serif" font-size="10.00">+ operator[]()</text>
<text text-anchor="start" x="222" y="-434.5" font-family="Helvetica,sans-Serif" font-size="10.00">+ operator[]()</text>
<text text-anchor="start" x="222" y="-423.5" font-family="Helvetica,sans-Serif" font-size="10.00">+ IsValidIndex()</text>
<text text-anchor="start" x="222" y="-412.5" font-family="Helvetica,sans-Serif" font-size="10.00">+ GetByIndex()</text>
<text text-anchor="start" x="222" y="-401.5" font-family="Helvetica,sans-Serif" font-size="10.00">+ GetByIndex()</text>
</a>
</g>
</g>
<!-- Node3&#45;&gt;Node9 -->
<g id="edge10" class="edge">
<title>Node3&#45;&gt;Node9</title>
<path fill="none" stroke="#404040" d="M237.24,-631.24C237.5,-613.93 239.03,-596.43 242.5,-580 245.32,-566.66 249.75,-553 254.87,-539.93"/>
<polygon fill="none" stroke="#404040" points="254.96,-539.71 253.55,-532.64 259.53,-528.61 260.94,-535.68 254.96,-539.71"/>
<text text-anchor="middle" x="256.5" y="-594" font-family="Helvetica,sans-Serif" font-size="10.00"> &#45;Data</text>
</g>
<!-- Node11 -->
<g id="node11" class="node">
<title>Node11</title>
<g id="a_node11"><a xlink:href="../../d7/d85/classSDK_1_1UClass.html" target="_top" xlink:title=" ">
<polygon fill="white" stroke="black" points="125,-0.5 125,-90.5 246,-90.5 246,-0.5 125,-0.5"/>
<text text-anchor="middle" x="185.5" y="-78.5" font-family="Helvetica,sans-Serif" font-size="10.00">SDK::UClass</text>
<polyline fill="none" stroke="black" points="125,-71.5 246,-71.5 "/>
<text text-anchor="start" x="133" y="-59.5" font-family="Helvetica,sans-Serif" font-size="10.00">+ UnknownData00</text>
<text text-anchor="start" x="133" y="-48.5" font-family="Helvetica,sans-Serif" font-size="10.00">+ UnknownData01</text>
<polyline fill="none" stroke="black" points="125,-41.5 246,-41.5 "/>
<text text-anchor="start" x="133" y="-29.5" font-family="Helvetica,sans-Serif" font-size="10.00">+ CreateDefaultObject()</text>
<text text-anchor="start" x="133" y="-18.5" font-family="Helvetica,sans-Serif" font-size="10.00">+ CreateDefaultObject()</text>
<text text-anchor="start" x="133" y="-7.5" font-family="Helvetica,sans-Serif" font-size="10.00">+ StaticClass()</text>
</a>
</g>
</g>
<!-- Node3&#45;&gt;Node11 -->
<g id="edge20" class="edge">
<title>Node3&#45;&gt;Node11</title>
<path fill="none" stroke="#404040" d="M211.3,-631.48C197.52,-579.99 185.5,-518.91 185.5,-462.5 185.5,-462.5 185.5,-462.5 185.5,-156 185.5,-138.71 185.5,-119.89 185.5,-102.81"/>
<polygon fill="none" stroke="#404040" points="185.5,-102.72 181.5,-96.72 185.5,-90.72 189.5,-96.72 185.5,-102.72"/>
<text text-anchor="middle" x="233" y="-260.5" font-family="Helvetica,sans-Serif" font-size="10.00"> +ClassDefaultObject</text>
</g>
<!-- Node14 -->
<g id="node14" class="node">
<title>Node14</title>
<g id="a_node14"><a xlink:href="../../de/dd6/classSDK_1_1UField.html" target="_top" xlink:title=" ">
<polygon fill="white" stroke="black" points="25,-433 25,-490 108,-490 108,-433 25,-433"/>
<text text-anchor="middle" x="66.5" y="-478" font-family="Helvetica,sans-Serif" font-size="10.00">SDK::UField</text>
<polyline fill="none" stroke="black" points="25,-471 108,-471 "/>
<text text-anchor="middle" x="66.5" y="-459" font-family="Helvetica,sans-Serif" font-size="10.00"> </text>
<polyline fill="none" stroke="black" points="25,-452 108,-452 "/>
<text text-anchor="start" x="33" y="-440" font-family="Helvetica,sans-Serif" font-size="10.00">+ StaticClass()</text>
</a>
</g>
</g>
<!-- Node3&#45;&gt;Node14 -->
<g id="edge17" class="edge">
<title>Node3&#45;&gt;Node14</title>
<path fill="none" stroke="midnightblue" d="M168.64,-622.61C136.96,-572.95 103.76,-520.91 84.11,-490.11"/>
<polygon fill="none" stroke="midnightblue" points="165.79,-624.65 174.12,-631.19 171.69,-620.88 165.79,-624.65"/>
</g>
<!-- Node4 -->
<g id="node4" class="node">
<title>Node4</title>
<g id="a_node4"><a xlink:href="../../d0/d22/structSDK_1_1FQWord.html" target="_top" xlink:title=" ">
<polygon fill="white" stroke="black" points="327.5,-973 327.5,-1041 407.5,-1041 407.5,-973 327.5,-973"/>
<text text-anchor="middle" x="367.5" y="-1029" font-family="Helvetica,sans-Serif" font-size="10.00">SDK::FQWord</text>
<polyline fill="none" stroke="black" points="327.5,-1022 407.5,-1022 "/>
<text text-anchor="start" x="335.5" y="-1010" font-family="Helvetica,sans-Serif" font-size="10.00">+ A</text>
<text text-anchor="start" x="335.5" y="-999" font-family="Helvetica,sans-Serif" font-size="10.00">+ B</text>
<polyline fill="none" stroke="black" points="327.5,-992 407.5,-992 "/>
<text text-anchor="middle" x="367.5" y="-980" font-family="Helvetica,sans-Serif" font-size="10.00"> </text>
</a>
</g>
</g>
<!-- Node4&#45;&gt;Node3 -->
<g id="edge3" class="edge">
<title>Node4&#45;&gt;Node3</title>
<path fill="none" stroke="#404040" d="M343.22,-972.8C333.82,-959.05 323.44,-942.67 315.5,-927 309.07,-914.31 302.95,-900.81 297.21,-887.18"/>
<polygon fill="none" stroke="#404040" points="297.06,-886.8 291.07,-882.78 292.48,-875.71 298.47,-879.73 297.06,-886.8"/>
<text text-anchor="middle" x="346.5" y="-908" font-family="Helvetica,sans-Serif" font-size="10.00"> +ObjectFlags</text>
</g>
<!-- Node5 -->
<g id="node5" class="node">
<title>Node5</title>
<g id="a_node5"><a xlink:href="../../d0/db6/structSDK_1_1FName.html" target="_top" xlink:title=" ">
<polygon fill="white" stroke="black" points="202,-945.5 202,-1068.5 309,-1068.5 309,-945.5 202,-945.5"/>
<text text-anchor="middle" x="255.5" y="-1056.5" font-family="Helvetica,sans-Serif" font-size="10.00">SDK::FName</text>
<polyline fill="none" stroke="black" points="202,-1049.5 309,-1049.5 "/>
<text text-anchor="start" x="210" y="-1037.5" font-family="Helvetica,sans-Serif" font-size="10.00">+ Index</text>
<text text-anchor="start" x="210" y="-1026.5" font-family="Helvetica,sans-Serif" font-size="10.00">+ Number</text>
<polyline fill="none" stroke="black" points="202,-1019.5 309,-1019.5 "/>
<text text-anchor="start" x="210" y="-1007.5" font-family="Helvetica,sans-Serif" font-size="10.00">+ FName()</text>
<text text-anchor="start" x="210" y="-996.5" font-family="Helvetica,sans-Serif" font-size="10.00">+ FName()</text>
<text text-anchor="start" x="210" y="-985.5" font-family="Helvetica,sans-Serif" font-size="10.00">+ FName()</text>
<text text-anchor="start" x="210" y="-974.5" font-family="Helvetica,sans-Serif" font-size="10.00">+ GetName()</text>
<text text-anchor="start" x="210" y="-963.5" font-family="Helvetica,sans-Serif" font-size="10.00">+ operator==()</text>
<text text-anchor="start" x="210" y="-952.5" font-family="Helvetica,sans-Serif" font-size="10.00">+ GetGlobalNames()</text>
</a>
</g>
</g>
<!-- Node5&#45;&gt;Node3 -->
<g id="edge4" class="edge">
<title>Node5&#45;&gt;Node3</title>
<path fill="none" stroke="#404040" d="M254.54,-945.44C254.26,-927.9 253.94,-908.03 253.62,-887.9"/>
<polygon fill="none" stroke="#404040" points="253.62,-887.68 249.52,-881.75 253.43,-875.69 257.52,-881.62 253.62,-887.68"/>
<text text-anchor="middle" x="272.5" y="-908" font-family="Helvetica,sans-Serif" font-size="10.00"> +Name</text>
</g>
<!-- Node6 -->
<g id="node6" class="node">
<title>Node6</title>
<g id="a_node6"><a xlink:href="../../d3/d79/classSDK_1_1TArray.html" target="_top" xlink:title=" ">
<polygon fill="white" stroke="black" points="165.5,-1257 165.5,-1391 345.5,-1391 345.5,-1257 165.5,-1257"/>
<text text-anchor="middle" x="255.5" y="-1379" font-family="Helvetica,sans-Serif" font-size="10.00">SDK::TArray&lt; SDK::FNameEntry * &gt;</text>
<polyline fill="none" stroke="black" points="165.5,-1372 345.5,-1372 "/>
<text text-anchor="start" x="173.5" y="-1360" font-family="Helvetica,sans-Serif" font-size="10.00">&#45; Count</text>
<text text-anchor="start" x="173.5" y="-1349" font-family="Helvetica,sans-Serif" font-size="10.00">&#45; Max</text>
<polyline fill="none" stroke="black" points="165.5,-1342 345.5,-1342 "/>
<text text-anchor="start" x="173.5" y="-1330" font-family="Helvetica,sans-Serif" font-size="10.00">+ TArray()</text>
<text text-anchor="start" x="173.5" y="-1319" font-family="Helvetica,sans-Serif" font-size="10.00">+ Num()</text>
<text text-anchor="start" x="173.5" y="-1308" font-family="Helvetica,sans-Serif" font-size="10.00">+ operator[]()</text>
<text text-anchor="start" x="173.5" y="-1297" font-family="Helvetica,sans-Serif" font-size="10.00">+ operator[]()</text>
<text text-anchor="start" x="173.5" y="-1286" font-family="Helvetica,sans-Serif" font-size="10.00">+ IsValidIndex()</text>
<text text-anchor="start" x="173.5" y="-1275" font-family="Helvetica,sans-Serif" font-size="10.00">+ GetByIndex()</text>
<text text-anchor="start" x="173.5" y="-1264" font-family="Helvetica,sans-Serif" font-size="10.00">+ GetByIndex()</text>
</a>
</g>
</g>
<!-- Node6&#45;&gt;Node5 -->
<g id="edge5" class="edge">
<title>Node6&#45;&gt;Node5</title>
<path fill="none" stroke="#404040" d="M255.5,-1256.97C255.5,-1205.42 255.5,-1133.86 255.5,-1080.69"/>
<polygon fill="none" stroke="#404040" points="255.5,-1080.61 251.5,-1074.61 255.5,-1068.61 259.5,-1074.61 255.5,-1080.61"/>
<text text-anchor="middle" x="280" y="-1157.5" font-family="Helvetica,sans-Serif" font-size="10.00"> +GNames</text>
</g>
<!-- Node7 -->
<g id="node7" class="node">
<title>Node7</title>
<g id="a_node7"><a xlink:href="../../d7/ddf/classSDK_1_1FNameEntry.html" target="_top" xlink:title=" ">
<polygon fill="white" stroke="black" points="0,-1483 0,-1551 99,-1551 99,-1483 0,-1483"/>
<text text-anchor="middle" x="49.5" y="-1539" font-family="Helvetica,sans-Serif" font-size="10.00">SDK::FNameEntry</text>
<polyline fill="none" stroke="black" points="0,-1532 99,-1532 "/>
<text text-anchor="start" x="8" y="-1520" font-family="Helvetica,sans-Serif" font-size="10.00">+ UnknownData00</text>
<text text-anchor="start" x="8" y="-1509" font-family="Helvetica,sans-Serif" font-size="10.00">+ name</text>
<polyline fill="none" stroke="black" points="0,-1502 99,-1502 "/>
<text text-anchor="start" x="8" y="-1490" font-family="Helvetica,sans-Serif" font-size="10.00">+ GetName()</text>
</a>
</g>
</g>
<!-- Node7&#45;&gt;Node6 -->
<g id="edge6" class="edge">
<title>Node7&#45;&gt;Node6</title>
<path fill="none" stroke="#404040" d="M85.38,-1482.73C110.14,-1459.77 144.07,-1428.32 175.11,-1399.53"/>
<polygon fill="none" stroke="#404040" points="175.41,-1399.26 177.09,-1392.25 184.21,-1391.1 182.53,-1398.11 175.41,-1399.26"/>
<text text-anchor="middle" x="166.5" y="-1418" font-family="Helvetica,sans-Serif" font-size="10.00"> &#45;Data</text>
</g>
<!-- Node8 -->
<g id="node8" class="node">
<title>Node8</title>
<g id="a_node8"><a xlink:href="../../d3/d79/classSDK_1_1TArray.html" target="_top" xlink:title=" ">
<polygon fill="white" stroke="black" points="585,-1444.5 585,-1589.5 682,-1589.5 682,-1444.5 585,-1444.5"/>
<text text-anchor="middle" x="633.5" y="-1577.5" font-family="Helvetica,sans-Serif" font-size="10.00">SDK::TArray&lt; T &gt;</text>
<polyline fill="none" stroke="black" points="585,-1570.5 682,-1570.5 "/>
<text text-anchor="start" x="593" y="-1558.5" font-family="Helvetica,sans-Serif" font-size="10.00">&#45; Data</text>
<text text-anchor="start" x="593" y="-1547.5" font-family="Helvetica,sans-Serif" font-size="10.00">&#45; Count</text>
<text text-anchor="start" x="593" y="-1536.5" font-family="Helvetica,sans-Serif" font-size="10.00">&#45; Max</text>
<polyline fill="none" stroke="black" points="585,-1529.5 682,-1529.5 "/>
<text text-anchor="start" x="593" y="-1517.5" font-family="Helvetica,sans-Serif" font-size="10.00">+ TArray()</text>
<text text-anchor="start" x="593" y="-1506.5" font-family="Helvetica,sans-Serif" font-size="10.00">+ Num()</text>
<text text-anchor="start" x="593" y="-1495.5" font-family="Helvetica,sans-Serif" font-size="10.00">+ operator[]()</text>
<text text-anchor="start" x="593" y="-1484.5" font-family="Helvetica,sans-Serif" font-size="10.00">+ operator[]()</text>
<text text-anchor="start" x="593" y="-1473.5" font-family="Helvetica,sans-Serif" font-size="10.00">+ IsValidIndex()</text>
<text text-anchor="start" x="593" y="-1462.5" font-family="Helvetica,sans-Serif" font-size="10.00">+ GetByIndex()</text>
<text text-anchor="start" x="593" y="-1451.5" font-family="Helvetica,sans-Serif" font-size="10.00">+ GetByIndex()</text>
</a>
</g>
</g>
<!-- Node8&#45;&gt;Node6 -->
<g id="edge7" class="edge">
<title>Node8&#45;&gt;Node6</title>
<path fill="none" stroke="orange" d="M575.72,-1486.8C514.45,-1455.85 416.86,-1406.54 345.51,-1370.48"/>
<polygon fill="orange" stroke="orange" points="574.35,-1490.04 584.86,-1491.42 577.51,-1483.79 574.35,-1490.04"/>
<text text-anchor="middle" x="500" y="-1418" font-family="Helvetica,sans-Serif" font-size="10.00"> &lt; SDK::FNameEntry * &gt;</text>
</g>
<!-- Node8&#45;&gt;Node9 -->
<g id="edge11" class="edge">
<title>Node8&#45;&gt;Node9</title>
<path fill="none" stroke="orange" d="M574.39,-1507.96C434.05,-1487.21 92.5,-1426.3 92.5,-1325 92.5,-1325 92.5,-1325 92.5,-752.5 92.5,-663.38 157.53,-582.03 213.79,-528.33"/>
<polygon fill="orange" stroke="orange" points="574.13,-1511.46 584.54,-1509.44 575.15,-1504.53 574.13,-1511.46"/>
<text text-anchor="middle" x="138" y="-1004.5" font-family="Helvetica,sans-Serif" font-size="10.00"> &lt; SDK::UObject * &gt;</text>
</g>
<!-- Node16 -->
<g id="node16" class="node">
<title>Node16</title>
<g id="a_node16"><a xlink:href="../../d3/d79/classSDK_1_1TArray.html" target="_top" xlink:title=" ">
<polygon fill="white" stroke="black" points="701,-681 701,-826 808,-826 808,-681 701,-681"/>
<text text-anchor="start" x="709" y="-814" font-family="Helvetica,sans-Serif" font-size="10.00">SDK::TArray&lt; struct</text>
<text text-anchor="middle" x="754.5" y="-803" font-family="Helvetica,sans-Serif" font-size="10.00"> SDK::FString &gt;</text>
<polyline fill="none" stroke="black" points="701,-796 808,-796 "/>
<text text-anchor="start" x="709" y="-784" font-family="Helvetica,sans-Serif" font-size="10.00">&#45; Count</text>
<text text-anchor="start" x="709" y="-773" font-family="Helvetica,sans-Serif" font-size="10.00">&#45; Max</text>
<polyline fill="none" stroke="black" points="701,-766 808,-766 "/>
<text text-anchor="start" x="709" y="-754" font-family="Helvetica,sans-Serif" font-size="10.00">+ TArray()</text>
<text text-anchor="start" x="709" y="-743" font-family="Helvetica,sans-Serif" font-size="10.00">+ Num()</text>
<text text-anchor="start" x="709" y="-732" font-family="Helvetica,sans-Serif" font-size="10.00">+ operator[]()</text>
<text text-anchor="start" x="709" y="-721" font-family="Helvetica,sans-Serif" font-size="10.00">+ operator[]()</text>
<text text-anchor="start" x="709" y="-710" font-family="Helvetica,sans-Serif" font-size="10.00">+ IsValidIndex()</text>
<text text-anchor="start" x="709" y="-699" font-family="Helvetica,sans-Serif" font-size="10.00">+ GetByIndex()</text>
<text text-anchor="start" x="709" y="-688" font-family="Helvetica,sans-Serif" font-size="10.00">+ GetByIndex()</text>
</a>
</g>
</g>
<!-- Node8&#45;&gt;Node16 -->
<g id="edge27" class="edge">
<title>Node8&#45;&gt;Node16</title>
<path fill="none" stroke="orange" d="M686.96,-1442.42C694.59,-1428.03 701.02,-1412.55 704.5,-1397 750,-1193.65 755.76,-946.1 755.52,-826.31"/>
<polygon fill="orange" stroke="orange" points="683.86,-1440.79 682.07,-1451.23 689.98,-1444.18 683.86,-1440.79"/>
<text text-anchor="middle" x="801.5" y="-1157.5" font-family="Helvetica,sans-Serif" font-size="10.00"> &lt; struct SDK::FString &gt;</text>
</g>
<!-- Node18 -->
<g id="node18" class="node">
<title>Node18</title>
<g id="a_node18"><a xlink:href="../../d3/d79/classSDK_1_1TArray.html" target="_top" xlink:title=" ">
<polygon fill="white" stroke="black" points="571,-1251.5 571,-1396.5 696,-1396.5 696,-1251.5 571,-1251.5"/>
<text text-anchor="middle" x="633.5" y="-1384.5" font-family="Helvetica,sans-Serif" font-size="10.00">SDK::TArray&lt; wchar_t &gt;</text>
<polyline fill="none" stroke="black" points="571,-1377.5 696,-1377.5 "/>
<text text-anchor="start" x="579" y="-1365.5" font-family="Helvetica,sans-Serif" font-size="10.00">&#45; Data</text>
<text text-anchor="start" x="579" y="-1354.5" font-family="Helvetica,sans-Serif" font-size="10.00">&#45; Count</text>
<text text-anchor="start" x="579" y="-1343.5" font-family="Helvetica,sans-Serif" font-size="10.00">&#45; Max</text>
<polyline fill="none" stroke="black" points="571,-1336.5 696,-1336.5 "/>
<text text-anchor="start" x="579" y="-1324.5" font-family="Helvetica,sans-Serif" font-size="10.00">+ TArray()</text>
<text text-anchor="start" x="579" y="-1313.5" font-family="Helvetica,sans-Serif" font-size="10.00">+ Num()</text>
<text text-anchor="start" x="579" y="-1302.5" font-family="Helvetica,sans-Serif" font-size="10.00">+ operator[]()</text>
<text text-anchor="start" x="579" y="-1291.5" font-family="Helvetica,sans-Serif" font-size="10.00">+ operator[]()</text>
<text text-anchor="start" x="579" y="-1280.5" font-family="Helvetica,sans-Serif" font-size="10.00">+ IsValidIndex()</text>
<text text-anchor="start" x="579" y="-1269.5" font-family="Helvetica,sans-Serif" font-size="10.00">+ GetByIndex()</text>
<text text-anchor="start" x="579" y="-1258.5" font-family="Helvetica,sans-Serif" font-size="10.00">+ GetByIndex()</text>
</a>
</g>
</g>
<!-- Node8&#45;&gt;Node18 -->
<g id="edge26" class="edge">
<title>Node8&#45;&gt;Node18</title>
<path fill="none" stroke="orange" d="M633.5,-1434.01C633.5,-1421.62 633.5,-1408.91 633.5,-1396.75"/>
<polygon fill="orange" stroke="orange" points="630,-1434.34 633.5,-1444.34 637,-1434.34 630,-1434.34"/>
<text text-anchor="middle" x="661.5" y="-1418" font-family="Helvetica,sans-Serif" font-size="10.00"> &lt; wchar_t &gt;</text>
</g>
<!-- Node21 -->
<g id="node21" class="node">
<title>Node21</title>
<g id="a_node21"><a xlink:href="../../d3/d79/classSDK_1_1TArray.html" target="_top" xlink:title=" ">
<polygon fill="white" stroke="black" points="972,-1087.5 972,-1232.5 1073,-1232.5 1073,-1087.5 972,-1087.5"/>
<text text-anchor="middle" x="1022.5" y="-1220.5" font-family="Helvetica,sans-Serif" font-size="10.00">SDK::TArray&lt; int &gt;</text>
<polyline fill="none" stroke="black" points="972,-1213.5 1073,-1213.5 "/>
<text text-anchor="start" x="980" y="-1201.5" font-family="Helvetica,sans-Serif" font-size="10.00">&#45; Data</text>
<text text-anchor="start" x="980" y="-1190.5" font-family="Helvetica,sans-Serif" font-size="10.00">&#45; Count</text>
<text text-anchor="start" x="980" y="-1179.5" font-family="Helvetica,sans-Serif" font-size="10.00">&#45; Max</text>
<polyline fill="none" stroke="black" points="972,-1172.5 1073,-1172.5 "/>
<text text-anchor="start" x="980" y="-1160.5" font-family="Helvetica,sans-Serif" font-size="10.00">+ TArray()</text>
<text text-anchor="start" x="980" y="-1149.5" font-family="Helvetica,sans-Serif" font-size="10.00">+ Num()</text>
<text text-anchor="start" x="980" y="-1138.5" font-family="Helvetica,sans-Serif" font-size="10.00">+ operator[]()</text>
<text text-anchor="start" x="980" y="-1127.5" font-family="Helvetica,sans-Serif" font-size="10.00">+ operator[]()</text>
<text text-anchor="start" x="980" y="-1116.5" font-family="Helvetica,sans-Serif" font-size="10.00">+ IsValidIndex()</text>
<text text-anchor="start" x="980" y="-1105.5" font-family="Helvetica,sans-Serif" font-size="10.00">+ GetByIndex()</text>
<text text-anchor="start" x="980" y="-1094.5" font-family="Helvetica,sans-Serif" font-size="10.00">+ GetByIndex()</text>
</a>
</g>
</g>
<!-- Node8&#45;&gt;Node21 -->
<g id="edge32" class="edge">
<title>Node8&#45;&gt;Node21</title>
<path fill="none" stroke="orange" d="M690.31,-1478.04C712.22,-1462.65 737.11,-1444.22 758.5,-1426 837.34,-1358.82 920.42,-1272.49 971.85,-1216.94"/>
<polygon fill="orange" stroke="orange" points="688.27,-1475.2 682.07,-1483.79 692.27,-1480.94 688.27,-1475.2"/>
<text text-anchor="middle" x="785.5" y="-1418" font-family="Helvetica,sans-Serif" font-size="10.00"> &lt; int &gt;</text>
</g>
<!-- Node9&#45;&gt;Node3 -->
<g id="edge9" class="edge">
<title>Node9&#45;&gt;Node3</title>
<path fill="none" stroke="#404040" d="M286.14,-528.87C282.71,-555.1 278.59,-585.5 274.5,-613 274.2,-615.04 273.89,-617.11 273.57,-619.18"/>
<polygon fill="none" stroke="#404040" points="273.55,-619.32 276.6,-625.86 271.74,-631.18 268.69,-624.64 273.55,-619.32"/>
<text text-anchor="middle" x="305" y="-594" font-family="Helvetica,sans-Serif" font-size="10.00"> +GObjects</text>
</g>
<!-- Node10 -->
<g id="node10" class="node">
<title>Node10</title>
<g id="a_node10"><a xlink:href="../../d9/dfa/structSDK_1_1FPointer.html" target="_top" xlink:title=" ">
<polygon fill="white" stroke="black" points="430.5,-973 430.5,-1041 528.5,-1041 528.5,-973 430.5,-973"/>
<text text-anchor="middle" x="479.5" y="-1029" font-family="Helvetica,sans-Serif" font-size="10.00">SDK::FPointer</text>
<polyline fill="none" stroke="black" points="430.5,-1022 528.5,-1022 "/>
<text text-anchor="start" x="438.5" y="-1010" font-family="Helvetica,sans-Serif" font-size="10.00">+ Dummy</text>
<text text-anchor="start" x="438.5" y="-999" font-family="Helvetica,sans-Serif" font-size="10.00">+ UnknownData00</text>
<polyline fill="none" stroke="black" points="430.5,-992 528.5,-992 "/>
<text text-anchor="middle" x="479.5" y="-980" font-family="Helvetica,sans-Serif" font-size="10.00"> </text>
</a>
</g>
</g>
<!-- Node10&#45;&gt;Node2 -->
<g id="edge21" class="edge">
<title>Node10&#45;&gt;Node2</title>
<path fill="none" stroke="#404040" d="M477.85,-972.71C474.42,-892.07 469.41,-688.62 502.5,-631 541.96,-562.29 622.16,-516.12 681.54,-489.74"/>
<polygon fill="none" stroke="#404040" points="681.73,-489.66 685.64,-483.61 692.74,-484.89 688.82,-490.95 681.73,-489.66"/>
<text text-anchor="middle" x="554.5" y="-751" font-family="Helvetica,sans-Serif" font-size="10.00"> +TmpActionNotifyData</text>
</g>
<!-- Node10&#45;&gt;Node3 -->
<g id="edge12" class="edge">
<title>Node10&#45;&gt;Node3</title>
<path fill="none" stroke="#404040" d="M445.14,-972.82C427.6,-955.65 408.34,-936.37 400.5,-927 389.02,-913.29 388.62,-907.99 377.5,-894 371.37,-886.29 364.93,-878.46 358.35,-870.64"/>
<polygon fill="none" stroke="#404040" points="358.33,-870.62 351.4,-868.64 350.56,-861.47 357.49,-863.45 358.33,-870.62"/>
<text text-anchor="middle" x="435" y="-919" font-family="Helvetica,sans-Serif" font-size="10.00"> +StateFrame</text>
<text text-anchor="middle" x="435" y="-908" font-family="Helvetica,sans-Serif" font-size="10.00">+VfTableObject</text>
<text text-anchor="middle" x="435" y="-897" font-family="Helvetica,sans-Serif" font-size="10.00">+LinkerIndex</text>
</g>
<!-- Node11&#45;&gt;Node3 -->
<g id="edge13" class="edge">
<title>Node11&#45;&gt;Node3</title>
<path fill="none" stroke="#404040" d="M246.23,-51.36C310.73,-60.22 403.5,-85.27 403.5,-156 403.5,-462.5 403.5,-462.5 403.5,-462.5 403.5,-507.61 401.15,-520.49 383.5,-562 374.99,-582.01 364.19,-602.06 352.45,-621.24"/>
<polygon fill="none" stroke="#404040" points="352.4,-621.32 352.61,-628.53 346.03,-631.49 345.82,-624.28 352.4,-621.32"/>
<text text-anchor="middle" x="421" y="-260.5" font-family="Helvetica,sans-Serif" font-size="10.00"> +Class</text>
</g>
<!-- Node12 -->
<g id="node12" class="node">
<title>Node12</title>
<g id="a_node12"><a xlink:href="../../df/d72/classSDK_1_1UState.html" target="_top" xlink:title=" ">
<polygon fill="white" stroke="black" points="57.5,-128.5 57.5,-185.5 155.5,-185.5 155.5,-128.5 57.5,-128.5"/>
<text text-anchor="middle" x="106.5" y="-173.5" font-family="Helvetica,sans-Serif" font-size="10.00">SDK::UState</text>
<polyline fill="none" stroke="black" points="57.5,-166.5 155.5,-166.5 "/>
<text text-anchor="start" x="65.5" y="-154.5" font-family="Helvetica,sans-Serif" font-size="10.00">+ UnknownData00</text>
<polyline fill="none" stroke="black" points="57.5,-147.5 155.5,-147.5 "/>
<text text-anchor="start" x="65.5" y="-135.5" font-family="Helvetica,sans-Serif" font-size="10.00">+ StaticClass()</text>
</a>
</g>
</g>
<!-- Node12&#45;&gt;Node11 -->
<g id="edge14" class="edge">
<title>Node12&#45;&gt;Node11</title>
<path fill="none" stroke="midnightblue" d="M132.44,-120.04C139.2,-110.68 146.56,-100.48 153.58,-90.74"/>
<polygon fill="none" stroke="midnightblue" points="129.45,-118.21 126.44,-128.37 135.12,-122.31 129.45,-118.21"/>
</g>
<!-- Node13 -->
<g id="node13" class="node">
<title>Node13</title>
<g id="a_node13"><a xlink:href="../../d8/de9/classSDK_1_1UStruct.html" target="_top" xlink:title=" ">
<polygon fill="white" stroke="black" points="50.5,-223.5 50.5,-302.5 148.5,-302.5 148.5,-223.5 50.5,-223.5"/>
<text text-anchor="middle" x="99.5" y="-290.5" font-family="Helvetica,sans-Serif" font-size="10.00">SDK::UStruct</text>
<polyline fill="none" stroke="black" points="50.5,-283.5 148.5,-283.5 "/>
<text text-anchor="start" x="58.5" y="-271.5" font-family="Helvetica,sans-Serif" font-size="10.00">+ UnknownData00</text>
<text text-anchor="start" x="58.5" y="-260.5" font-family="Helvetica,sans-Serif" font-size="10.00">+ PropertySize</text>
<text text-anchor="start" x="58.5" y="-249.5" font-family="Helvetica,sans-Serif" font-size="10.00">+ UnknownData01</text>
<polyline fill="none" stroke="black" points="50.5,-242.5 148.5,-242.5 "/>
<text text-anchor="start" x="58.5" y="-230.5" font-family="Helvetica,sans-Serif" font-size="10.00">+ StaticClass()</text>
</a>
</g>
</g>
<!-- Node13&#45;&gt;Node12 -->
<g id="edge15" class="edge">
<title>Node13&#45;&gt;Node12</title>
<path fill="none" stroke="midnightblue" d="M102.79,-213.16C103.42,-203.74 104.07,-194.17 104.63,-185.72"/>
<polygon fill="none" stroke="midnightblue" points="99.29,-213.06 102.11,-223.27 106.27,-213.53 99.29,-213.06"/>
</g>
<!-- Node14&#45;&gt;Node13 -->
<g id="edge16" class="edge">
<title>Node14&#45;&gt;Node13</title>
<path fill="none" stroke="midnightblue" d="M68.02,-422.71C69.71,-394.44 73.23,-354.98 80.5,-321 81.79,-314.98 83.49,-308.71 85.35,-302.62"/>
<polygon fill="none" stroke="midnightblue" points="64.52,-422.78 67.46,-432.96 71.51,-423.16 64.52,-422.78"/>
</g>
<!-- Node14&#45;&gt;Node13 -->
<g id="edge19" class="edge">
<title>Node14&#45;&gt;Node13</title>
<path fill="none" stroke="#404040" d="M71.16,-432.76C76.28,-402.25 84.63,-352.57 90.94,-314.99"/>
<polygon fill="none" stroke="#404040" points="91,-314.59 88.05,-308.01 92.99,-302.76 95.94,-309.34 91,-314.59"/>
<text text-anchor="middle" x="118.5" y="-335" font-family="Helvetica,sans-Serif" font-size="10.00"> +SuperField</text>
<text text-anchor="middle" x="118.5" y="-324" font-family="Helvetica,sans-Serif" font-size="10.00">+Children</text>
</g>
<!-- Node14&#45;&gt;Node14 -->
<g id="edge18" class="edge">
<title>Node14&#45;&gt;Node14</title>
<path fill="none" stroke="#404040" d="M108.21,-485.12C118.41,-483.38 126,-475.5 126,-461.5 126,-453.41 123.46,-447.36 119.35,-443.36"/>
<polygon fill="none" stroke="#404040" points="118.97,-443.17 111.82,-444.11 108.21,-437.88 115.35,-436.94 118.97,-443.17"/>
<text text-anchor="middle" x="141.5" y="-459" font-family="Helvetica,sans-Serif" font-size="10.00"> +Next</text>
</g>
<!-- Node15 -->
<g id="node15" class="node">
<title>Node15</title>
<g id="a_node15"><a xlink:href="../../d4/daf/structSDK_1_1FColor.html" target="_top" xlink:title=" ">
<polygon fill="white" stroke="black" points="826,-703 826,-804 899,-804 899,-703 826,-703"/>
<text text-anchor="middle" x="862.5" y="-792" font-family="Helvetica,sans-Serif" font-size="10.00">SDK::FColor</text>
<polyline fill="none" stroke="black" points="826,-785 899,-785 "/>
<text text-anchor="start" x="834" y="-773" font-family="Helvetica,sans-Serif" font-size="10.00">+ B</text>
<text text-anchor="start" x="834" y="-762" font-family="Helvetica,sans-Serif" font-size="10.00">+ G</text>
<text text-anchor="start" x="834" y="-751" font-family="Helvetica,sans-Serif" font-size="10.00">+ R</text>
<text text-anchor="start" x="834" y="-740" font-family="Helvetica,sans-Serif" font-size="10.00">+ A</text>
<polyline fill="none" stroke="black" points="826,-733 899,-733 "/>
<text text-anchor="start" x="834" y="-721" font-family="Helvetica,sans-Serif" font-size="10.00">+ FColor()</text>
<text text-anchor="start" x="834" y="-710" font-family="Helvetica,sans-Serif" font-size="10.00">+ FColor()</text>
</a>
</g>
</g>
<!-- Node15&#45;&gt;Node2 -->
<g id="edge22" class="edge">
<title>Node15&#45;&gt;Node2</title>
<path fill="none" stroke="#404040" d="M858.88,-702.72C855.05,-667.46 847.26,-619.58 831.5,-580 828.69,-572.94 825.42,-565.85 821.84,-558.85"/>
<polygon fill="none" stroke="#404040" points="821.67,-558.52 815.31,-555.12 816,-547.95 822.36,-551.35 821.67,-558.52"/>
<text text-anchor="middle" x="872" y="-594" font-family="Helvetica,sans-Serif" font-size="10.00"> +NotifyColor</text>
</g>
<!-- Node16&#45;&gt;Node2 -->
<g id="edge23" class="edge">
<title>Node16&#45;&gt;Node2</title>
<path fill="none" stroke="#404040" d="M754.5,-680.81C754.5,-648.49 754.5,-609.57 754.5,-573.6"/>
<polygon fill="none" stroke="#404040" points="754.5,-573.53 750.5,-567.53 754.5,-561.53 758.5,-567.53 754.5,-573.53"/>
<text text-anchor="middle" x="791" y="-594" font-family="Helvetica,sans-Serif" font-size="10.00"> +ViewGroupList</text>
</g>
<!-- Node17 -->
<g id="node17" class="node">
<title>Node17</title>
<g id="a_node17"><a xlink:href="../../d3/d88/classSDK_1_1FString.html" target="_top" xlink:title=" ">
<polygon fill="white" stroke="black" points="596,-956.5 596,-1057.5 671,-1057.5 671,-956.5 596,-956.5"/>
<text text-anchor="middle" x="633.5" y="-1045.5" font-family="Helvetica,sans-Serif" font-size="10.00">SDK::FString</text>
<polyline fill="none" stroke="black" points="596,-1038.5 671,-1038.5 "/>
<text text-anchor="middle" x="633.5" y="-1026.5" font-family="Helvetica,sans-Serif" font-size="10.00"> </text>
<polyline fill="none" stroke="black" points="596,-1019.5 671,-1019.5 "/>
<text text-anchor="start" x="604" y="-1007.5" font-family="Helvetica,sans-Serif" font-size="10.00">+ FString()</text>
<text text-anchor="start" x="604" y="-996.5" font-family="Helvetica,sans-Serif" font-size="10.00">+ FString()</text>
<text text-anchor="start" x="604" y="-985.5" font-family="Helvetica,sans-Serif" font-size="10.00">+ IsValid()</text>
<text text-anchor="start" x="604" y="-974.5" font-family="Helvetica,sans-Serif" font-size="10.00">+ c_str()</text>
<text text-anchor="start" x="604" y="-963.5" font-family="Helvetica,sans-Serif" font-size="10.00">+ ToString()</text>
</a>
</g>
</g>
<!-- Node17&#45;&gt;Node2 -->
<g id="edge28" class="edge">
<title>Node17&#45;&gt;Node2</title>
<path fill="none" stroke="#404040" d="M623.79,-956.25C611.59,-882.98 596.33,-742.64 632.5,-631 643.5,-597.04 664.2,-564.18 685.46,-536.64"/>
<polygon fill="none" stroke="#404040" points="685.54,-536.54 686.13,-529.35 692.99,-527.13 692.4,-534.32 685.54,-536.54"/>
<text text-anchor="middle" x="662" y="-762" font-family="Helvetica,sans-Serif" font-size="10.00"> +ToolTip</text>
<text text-anchor="middle" x="662" y="-751" font-family="Helvetica,sans-Serif" font-size="10.00">+GroupName</text>
<text text-anchor="middle" x="662" y="-740" font-family="Helvetica,sans-Serif" font-size="10.00">+NotifyName</text>
</g>
<!-- Node17&#45;&gt;Node16 -->
<g id="edge24" class="edge">
<title>Node17&#45;&gt;Node16</title>
<path fill="none" stroke="#404040" d="M657.41,-956.31C673.71,-922.42 695.7,-876.72 714.62,-837.38"/>
<polygon fill="none" stroke="#404040" points="714.67,-837.29 713.67,-830.15 719.87,-826.47 720.88,-833.61 714.67,-837.29"/>
<text text-anchor="middle" x="701.5" y="-908" font-family="Helvetica,sans-Serif" font-size="10.00"> &#45;Data</text>
</g>
<!-- Node18&#45;&gt;Node17 -->
<g id="edge25" class="edge">
<title>Node18&#45;&gt;Node17</title>
<path fill="none" stroke="midnightblue" d="M633.5,-1240.86C633.5,-1182.7 633.5,-1106.6 633.5,-1057.51"/>
<polygon fill="none" stroke="midnightblue" points="630,-1241.13 633.5,-1251.13 637,-1241.13 630,-1241.13"/>
</g>
<!-- Node19 -->
<g id="node19" class="node">
<title>Node19</title>
<g id="a_node19"><a xlink:href="../../df/d1c/classSDK_1_1TEnumAsByte.html" target="_top" xlink:title=" ">
<polygon fill="white" stroke="black" points="917.5,-686.5 917.5,-820.5 1071.5,-820.5 1071.5,-686.5 917.5,-686.5"/>
<text text-anchor="start" x="925.5" y="-808.5" font-family="Helvetica,sans-Serif" font-size="10.00">SDK::TEnumAsByte&lt; ECTE</text>
<text text-anchor="middle" x="994.5" y="-797.5" font-family="Helvetica,sans-Serif" font-size="10.00">_NOTIFY_ACTIVATE_TYPE &gt;</text>
<polyline fill="none" stroke="black" points="917.5,-790.5 1071.5,-790.5 "/>
<text text-anchor="start" x="925.5" y="-778.5" font-family="Helvetica,sans-Serif" font-size="10.00">&#45; value</text>
<polyline fill="none" stroke="black" points="917.5,-771.5 1071.5,-771.5 "/>
<text text-anchor="start" x="925.5" y="-759.5" font-family="Helvetica,sans-Serif" font-size="10.00">+ TEnumAsByte()</text>
<text text-anchor="start" x="925.5" y="-748.5" font-family="Helvetica,sans-Serif" font-size="10.00">+ TEnumAsByte()</text>
<text text-anchor="start" x="925.5" y="-737.5" font-family="Helvetica,sans-Serif" font-size="10.00">+ TEnumAsByte()</text>
<text text-anchor="start" x="925.5" y="-726.5" font-family="Helvetica,sans-Serif" font-size="10.00">+ TEnumAsByte()</text>
<text text-anchor="start" x="925.5" y="-715.5" font-family="Helvetica,sans-Serif" font-size="10.00">+ operator ECTE_NOTIFY</text>
<text text-anchor="start" x="925.5" y="-704.5" font-family="Helvetica,sans-Serif" font-size="10.00">_ACTIVATE_TYPE()</text>
<text text-anchor="start" x="925.5" y="-693.5" font-family="Helvetica,sans-Serif" font-size="10.00">+ GetValue()</text>
</a>
</g>
</g>
<!-- Node19&#45;&gt;Node2 -->
<g id="edge29" class="edge">
<title>Node19&#45;&gt;Node2</title>
<path fill="none" stroke="#404040" d="M968.46,-686.19C953.21,-652.29 931.76,-611.63 905.5,-580 883.01,-552.91 853.26,-528.12 826.12,-508.35"/>
<polygon fill="none" stroke="#404040" points="826.02,-508.28 818.81,-508.05 816.26,-501.31 823.46,-501.54 826.02,-508.28"/>
<text text-anchor="middle" x="956.5" y="-594" font-family="Helvetica,sans-Serif" font-size="10.00"> +NotifyType</text>
</g>
<!-- Node20 -->
<g id="node20" class="node">
<title>Node20</title>
<g id="a_node20"><a xlink:href="../../df/d1c/classSDK_1_1TEnumAsByte.html" target="_top" xlink:title=" ">
<polygon fill="white" stroke="black" points="878,-951 878,-1063 1035,-1063 1035,-951 878,-951"/>
<text text-anchor="middle" x="956.5" y="-1051" font-family="Helvetica,sans-Serif" font-size="10.00">SDK::TEnumAsByte&lt; TEnum &gt;</text>
<polyline fill="none" stroke="black" points="878,-1044 1035,-1044 "/>
<text text-anchor="start" x="886" y="-1032" font-family="Helvetica,sans-Serif" font-size="10.00">&#45; value</text>
<polyline fill="none" stroke="black" points="878,-1025 1035,-1025 "/>
<text text-anchor="start" x="886" y="-1013" font-family="Helvetica,sans-Serif" font-size="10.00">+ TEnumAsByte()</text>
<text text-anchor="start" x="886" y="-1002" font-family="Helvetica,sans-Serif" font-size="10.00">+ TEnumAsByte()</text>
<text text-anchor="start" x="886" y="-991" font-family="Helvetica,sans-Serif" font-size="10.00">+ TEnumAsByte()</text>
<text text-anchor="start" x="886" y="-980" font-family="Helvetica,sans-Serif" font-size="10.00">+ TEnumAsByte()</text>
<text text-anchor="start" x="886" y="-969" font-family="Helvetica,sans-Serif" font-size="10.00">+ operator TEnum()</text>
<text text-anchor="start" x="886" y="-958" font-family="Helvetica,sans-Serif" font-size="10.00">+ GetValue()</text>
</a>
</g>
</g>
<!-- Node20&#45;&gt;Node19 -->
<g id="edge30" class="edge">
<title>Node20&#45;&gt;Node19</title>
<path fill="none" stroke="orange" d="M954.34,-940.42C954.6,-925.13 955.48,-908.95 957.5,-894 960.78,-869.67 966.97,-843.52 973.37,-820.51"/>
<polygon fill="orange" stroke="orange" points="950.84,-940.8 954.26,-950.83 957.84,-940.86 950.84,-940.8"/>
<text text-anchor="start" x="957.5" y="-913.5" font-family="Helvetica,sans-Serif" font-size="10.00"> &lt; ECTE_NOTIFY_ACTIVATE</text>
<text text-anchor="middle" x="1025.5" y="-902.5" font-family="Helvetica,sans-Serif" font-size="10.00">_TYPE &gt;</text>
</g>
<!-- Node21&#45;&gt;Node1 -->
<g id="edge31" class="edge">
<title>Node21&#45;&gt;Node1</title>
<path fill="none" stroke="#404040" d="M1061.14,-1087.3C1083.6,-1039.03 1107.5,-973.17 1107.5,-911.5 1107.5,-911.5 1107.5,-911.5 1107.5,-460.5 1107.5,-408.63 1107.5,-349.06 1107.5,-309.23"/>
<polygon fill="none" stroke="#404040" points="1107.5,-309.03 1103.5,-303.03 1107.5,-297.03 1111.5,-303.03 1107.5,-309.03"/>
<text text-anchor="middle" x="1138.5" y="-751" font-family="Helvetica,sans-Serif" font-size="10.00"> +LimbIdArray</text>
</g>
<!-- Node22 -->
<g id="node22" class="node">
<title>Node22</title>
<g id="a_node22"><a xlink:href="../../dd/d37/structSDK_1_1FEFPartsHighlightInfo.html" target="_top" xlink:title=" ">
<polygon fill="white" stroke="black" points="1151.5,-416.5 1151.5,-506.5 1291.5,-506.5 1291.5,-416.5 1151.5,-416.5"/>
<text text-anchor="middle" x="1221.5" y="-494.5" font-family="Helvetica,sans-Serif" font-size="10.00">SDK::FEFPartsHighlightInfo</text>
<polyline fill="none" stroke="black" points="1151.5,-487.5 1291.5,-487.5 "/>
<text text-anchor="start" x="1159.5" y="-475.5" font-family="Helvetica,sans-Serif" font-size="10.00">+ bPartsHighlight</text>
<text text-anchor="start" x="1159.5" y="-464.5" font-family="Helvetica,sans-Serif" font-size="10.00">+ FadeInTime</text>
<text text-anchor="start" x="1159.5" y="-453.5" font-family="Helvetica,sans-Serif" font-size="10.00">+ FadeOutTime</text>
<text text-anchor="start" x="1159.5" y="-442.5" font-family="Helvetica,sans-Serif" font-size="10.00">+ DurationTime</text>
<polyline fill="none" stroke="black" points="1151.5,-435.5 1291.5,-435.5 "/>
<text text-anchor="middle" x="1221.5" y="-423.5" font-family="Helvetica,sans-Serif" font-size="10.00"> </text>
</a>
</g>
</g>
<!-- Node22&#45;&gt;Node1 -->
<g id="edge33" class="edge">
<title>Node22&#45;&gt;Node1</title>
<path fill="none" stroke="#404040" d="M1195.92,-416.4C1177.1,-383.97 1151.65,-340.09 1132.88,-307.75"/>
<polygon fill="none" stroke="#404040" points="1132.81,-307.63 1126.34,-304.45 1126.79,-297.25 1133.26,-300.44 1132.81,-307.63"/>
<text text-anchor="middle" x="1195.5" y="-329.5" font-family="Helvetica,sans-Serif" font-size="10.00"> +PartsHighlightInfo</text>
</g>
<!-- Node23 -->
<g id="node23" class="node">
<title>Node23</title>
<g id="a_node23"><a xlink:href="../../de/d7c/structSDK_1_1FLinearColor.html" target="_top" xlink:title=" ">
<polygon fill="white" stroke="black" points="1188,-708.5 1188,-798.5 1287,-798.5 1287,-708.5 1188,-708.5"/>
<text text-anchor="middle" x="1237.5" y="-786.5" font-family="Helvetica,sans-Serif" font-size="10.00">SDK::FLinearColor</text>
<polyline fill="none" stroke="black" points="1188,-779.5 1287,-779.5 "/>
<text text-anchor="start" x="1196" y="-767.5" font-family="Helvetica,sans-Serif" font-size="10.00">+ R</text>
<text text-anchor="start" x="1196" y="-756.5" font-family="Helvetica,sans-Serif" font-size="10.00">+ G</text>
<text text-anchor="start" x="1196" y="-745.5" font-family="Helvetica,sans-Serif" font-size="10.00">+ B</text>
<text text-anchor="start" x="1196" y="-734.5" font-family="Helvetica,sans-Serif" font-size="10.00">+ A</text>
<polyline fill="none" stroke="black" points="1188,-727.5 1287,-727.5 "/>
<text text-anchor="middle" x="1237.5" y="-715.5" font-family="Helvetica,sans-Serif" font-size="10.00"> </text>
</a>
</g>
</g>
<!-- Node23&#45;&gt;Node22 -->
<g id="edge34" class="edge">
<title>Node23&#45;&gt;Node22</title>
<path fill="none" stroke="#404040" d="M1235.07,-708.46C1232.27,-657.78 1227.68,-574.45 1224.62,-519.03"/>
<polygon fill="none" stroke="#404040" points="1224.61,-518.94 1220.29,-513.17 1223.95,-506.96 1228.28,-512.73 1224.61,-518.94"/>
<text text-anchor="middle" x="1293.5" y="-605" font-family="Helvetica,sans-Serif" font-size="10.00"> +MaterialLinearColorValue</text>
<text text-anchor="start" x="1229.5" y="-594" font-family="Helvetica,sans-Serif" font-size="10.00">+MaterialLinearColorFadeOut</text>
<text text-anchor="middle" x="1293.5" y="-583" font-family="Helvetica,sans-Serif" font-size="10.00">Value</text>
</g>
</g>
</svg>
