<?xml version="1.0" encoding="UTF-8" standalone="no"?>
<!DOCTYPE svg PUBLIC "-//W3C//DTD SVG 1.1//EN"
 "http://www.w3.org/Graphics/SVG/1.1/DTD/svg11.dtd">
<!-- Generated by graphviz version 2.41.20171026.1811 (20171026.1811)
 -->
<!-- Title: SDK::FRecoilParams Pages: 1 -->
<svg width="165pt" height="419pt"
 viewBox="0.00 0.00 165.00 419.00" xmlns="http://www.w3.org/2000/svg" xmlns:xlink="http://www.w3.org/1999/xlink">
<g id="graph0" class="graph" transform="scale(1 1) rotate(0) translate(4 415)">
<title>SDK::FRecoilParams</title>
<polygon fill="white" stroke="transparent" points="-4,4 -4,-415 161,-415 161,4 -4,4"/>
<!-- Node1 -->
<g id="node1" class="node">
<title>Node1</title>
<g id="a_node1"><a xlink:title=" ">
<polygon fill="#bfbfbf" stroke="black" points="23,-0.5 23,-57.5 134,-57.5 134,-0.5 23,-0.5"/>
<text text-anchor="middle" x="78.5" y="-45.5" font-family="Helvetica,sans-Serif" font-size="10.00">SDK::FRecoilParams</text>
<polyline fill="none" stroke="black" points="23,-38.5 134,-38.5 "/>
<text text-anchor="start" x="31" y="-26.5" font-family="Helvetica,sans-Serif" font-size="10.00">+ Padding</text>
<polyline fill="none" stroke="black" points="23,-19.5 134,-19.5 "/>
<text text-anchor="middle" x="78.5" y="-7.5" font-family="Helvetica,sans-Serif" font-size="10.00"> </text>
</a>
</g>
</g>
<!-- Node2 -->
<g id="node2" class="node">
<title>Node2</title>
<g id="a_node2"><a xlink:href="../../df/d1c/classSDK_1_1TEnumAsByte.html" target="_top" xlink:title=" ">
<polygon fill="white" stroke="black" points="3,-127.5 3,-250.5 154,-250.5 154,-127.5 3,-127.5"/>
<text text-anchor="start" x="11" y="-238.5" font-family="Helvetica,sans-Serif" font-size="10.00">SDK::TEnumAsByte&lt; ERecoil</text>
<text text-anchor="middle" x="78.5" y="-227.5" font-family="Helvetica,sans-Serif" font-size="10.00">Start &gt;</text>
<polyline fill="none" stroke="black" points="3,-220.5 154,-220.5 "/>
<text text-anchor="start" x="11" y="-208.5" font-family="Helvetica,sans-Serif" font-size="10.00">&#45; value</text>
<polyline fill="none" stroke="black" points="3,-201.5 154,-201.5 "/>
<text text-anchor="start" x="11" y="-189.5" font-family="Helvetica,sans-Serif" font-size="10.00">+ TEnumAsByte()</text>
<text text-anchor="start" x="11" y="-178.5" font-family="Helvetica,sans-Serif" font-size="10.00">+ TEnumAsByte()</text>
<text text-anchor="start" x="11" y="-167.5" font-family="Helvetica,sans-Serif" font-size="10.00">+ TEnumAsByte()</text>
<text text-anchor="start" x="11" y="-156.5" font-family="Helvetica,sans-Serif" font-size="10.00">+ TEnumAsByte()</text>
<text text-anchor="start" x="11" y="-145.5" font-family="Helvetica,sans-Serif" font-size="10.00">+ operator ERecoilStart()</text>
<text text-anchor="start" x="11" y="-134.5" font-family="Helvetica,sans-Serif" font-size="10.00">+ GetValue()</text>
</a>
</g>
</g>
<!-- Node2&#45;&gt;Node1 -->
<g id="edge1" class="edge">
<title>Node2&#45;&gt;Node1</title>
<path fill="none" stroke="#404040" d="M78.5,-127.36C78.5,-108.04 78.5,-87.16 78.5,-69.71"/>
<polygon fill="none" stroke="#404040" points="78.5,-69.68 74.5,-63.68 78.5,-57.68 82.5,-63.68 78.5,-69.68"/>
<text text-anchor="middle" x="86.5" y="-101" font-family="Helvetica,sans-Serif" font-size="10.00"> +X</text>
<text text-anchor="middle" x="86.5" y="-90" font-family="Helvetica,sans-Serif" font-size="10.00">+Y</text>
<text text-anchor="middle" x="86.5" y="-79" font-family="Helvetica,sans-Serif" font-size="10.00">+Z</text>
</g>
<!-- Node3 -->
<g id="node3" class="node">
<title>Node3</title>
<g id="a_node3"><a xlink:href="../../df/d1c/classSDK_1_1TEnumAsByte.html" target="_top" xlink:title=" ">
<polygon fill="white" stroke="black" points="0,-298.5 0,-410.5 157,-410.5 157,-298.5 0,-298.5"/>
<text text-anchor="middle" x="78.5" y="-398.5" font-family="Helvetica,sans-Serif" font-size="10.00">SDK::TEnumAsByte&lt; TEnum &gt;</text>
<polyline fill="none" stroke="black" points="0,-391.5 157,-391.5 "/>
<text text-anchor="start" x="8" y="-379.5" font-family="Helvetica,sans-Serif" font-size="10.00">&#45; value</text>
<polyline fill="none" stroke="black" points="0,-372.5 157,-372.5 "/>
<text text-anchor="start" x="8" y="-360.5" font-family="Helvetica,sans-Serif" font-size="10.00">+ TEnumAsByte()</text>
<text text-anchor="start" x="8" y="-349.5" font-family="Helvetica,sans-Serif" font-size="10.00">+ TEnumAsByte()</text>
<text text-anchor="start" x="8" y="-338.5" font-family="Helvetica,sans-Serif" font-size="10.00">+ TEnumAsByte()</text>
<text text-anchor="start" x="8" y="-327.5" font-family="Helvetica,sans-Serif" font-size="10.00">+ TEnumAsByte()</text>
<text text-anchor="start" x="8" y="-316.5" font-family="Helvetica,sans-Serif" font-size="10.00">+ operator TEnum()</text>
<text text-anchor="start" x="8" y="-305.5" font-family="Helvetica,sans-Serif" font-size="10.00">+ GetValue()</text>
</a>
</g>
</g>
<!-- Node3&#45;&gt;Node2 -->
<g id="edge2" class="edge">
<title>Node3&#45;&gt;Node2</title>
<path fill="none" stroke="orange" d="M78.5,-287.94C78.5,-275.62 78.5,-262.79 78.5,-250.63"/>
<polygon fill="orange" stroke="orange" points="75,-288.15 78.5,-298.15 82,-288.15 75,-288.15"/>
<text text-anchor="middle" x="117" y="-272" font-family="Helvetica,sans-Serif" font-size="10.00"> &lt; ERecoilStart &gt;</text>
</g>
</g>
</svg>
