<?xml version="1.0" encoding="UTF-8" standalone="no"?>
<!DOCTYPE svg PUBLIC "-//W3C//DTD SVG 1.1//EN"
 "http://www.w3.org/Graphics/SVG/1.1/DTD/svg11.dtd">
<!-- Generated by graphviz version 2.41.20171026.1811 (20171026.1811)
 -->
<!-- Title: SDK::UDistributionVector Pages: 1 -->
<svg width="802pt" height="1031pt"
 viewBox="0.00 0.00 802.00 1031.00" xmlns="http://www.w3.org/2000/svg" xmlns:xlink="http://www.w3.org/1999/xlink">
<g id="graph0" class="graph" transform="scale(1 1) rotate(0) translate(4 1027)">
<title>SDK::UDistributionVector</title>
<polygon fill="white" stroke="transparent" points="-4,4 -4,-1027 798,-1027 798,4 -4,4"/>
<!-- Node1 -->
<g id="node1" class="node">
<title>Node1</title>
<g id="a_node1"><a xlink:title=" ">
<polygon fill="#bfbfbf" stroke="black" points="362,-436.5 362,-526.5 509,-526.5 509,-436.5 362,-436.5"/>
<text text-anchor="middle" x="435.5" y="-514.5" font-family="Helvetica,sans-Serif" font-size="10.00">SDK::UDistributionVector</text>
<polyline fill="none" stroke="black" points="362,-507.5 509,-507.5 "/>
<text text-anchor="start" x="370" y="-495.5" font-family="Helvetica,sans-Serif" font-size="10.00">+ VfTable_FCurveEdInterface</text>
<text text-anchor="start" x="370" y="-484.5" font-family="Helvetica,sans-Serif" font-size="10.00">+ bCanBeBaked</text>
<text text-anchor="start" x="370" y="-473.5" font-family="Helvetica,sans-Serif" font-size="10.00">+ bIsDirty</text>
<polyline fill="none" stroke="black" points="362,-466.5 509,-466.5 "/>
<text text-anchor="start" x="370" y="-454.5" font-family="Helvetica,sans-Serif" font-size="10.00">+ GetVectorValue()</text>
<text text-anchor="start" x="370" y="-443.5" font-family="Helvetica,sans-Serif" font-size="10.00">+ StaticClass()</text>
</a>
</g>
</g>
<!-- Node4 -->
<g id="node4" class="node">
<title>Node4</title>
<g id="a_node4"><a xlink:href="../../de/d02/classSDK_1_1UDistributionVectorConstant.html" target="_top" xlink:title=" ">
<polygon fill="white" stroke="black" points="77,-293 77,-383 206,-383 206,-293 77,-293"/>
<text text-anchor="start" x="85" y="-371" font-family="Helvetica,sans-Serif" font-size="10.00">SDK::UDistributionVector</text>
<text text-anchor="middle" x="141.5" y="-360" font-family="Helvetica,sans-Serif" font-size="10.00">Constant</text>
<polyline fill="none" stroke="black" points="77,-353 206,-353 "/>
<text text-anchor="start" x="85" y="-341" font-family="Helvetica,sans-Serif" font-size="10.00">+ Constant</text>
<text text-anchor="start" x="85" y="-330" font-family="Helvetica,sans-Serif" font-size="10.00">+ bLockAxes</text>
<text text-anchor="start" x="85" y="-319" font-family="Helvetica,sans-Serif" font-size="10.00">+ LockedAxes</text>
<polyline fill="none" stroke="black" points="77,-312 206,-312 "/>
<text text-anchor="start" x="85" y="-300" font-family="Helvetica,sans-Serif" font-size="10.00">+ StaticClass()</text>
</a>
</g>
</g>
<!-- Node1&#45;&gt;Node4 -->
<g id="edge3" class="edge">
<title>Node1&#45;&gt;Node4</title>
<path fill="none" stroke="midnightblue" d="M351.98,-457.63C309.28,-444.1 257.42,-424.73 214.5,-400 206.06,-395.14 197.63,-389.27 189.66,-383.13"/>
<polygon fill="none" stroke="midnightblue" points="351.19,-461.05 361.78,-460.69 353.28,-454.37 351.19,-461.05"/>
</g>
<!-- Node8 -->
<g id="node8" class="node">
<title>Node8</title>
<g id="a_node8"><a xlink:href="../../de/de8/classSDK_1_1UDistributionVectorConstantCurve.html" target="_top" xlink:title=" ">
<polygon fill="white" stroke="black" points="224,-293 224,-383 353,-383 353,-293 224,-293"/>
<text text-anchor="start" x="232" y="-371" font-family="Helvetica,sans-Serif" font-size="10.00">SDK::UDistributionVector</text>
<text text-anchor="middle" x="288.5" y="-360" font-family="Helvetica,sans-Serif" font-size="10.00">ConstantCurve</text>
<polyline fill="none" stroke="black" points="224,-353 353,-353 "/>
<text text-anchor="start" x="232" y="-341" font-family="Helvetica,sans-Serif" font-size="10.00">+ ConstantCurve</text>
<text text-anchor="start" x="232" y="-330" font-family="Helvetica,sans-Serif" font-size="10.00">+ bLockAxes</text>
<text text-anchor="start" x="232" y="-319" font-family="Helvetica,sans-Serif" font-size="10.00">+ LockedAxes</text>
<polyline fill="none" stroke="black" points="224,-312 353,-312 "/>
<text text-anchor="start" x="232" y="-300" font-family="Helvetica,sans-Serif" font-size="10.00">+ StaticClass()</text>
</a>
</g>
</g>
<!-- Node1&#45;&gt;Node8 -->
<g id="edge7" class="edge">
<title>Node1&#45;&gt;Node8</title>
<path fill="none" stroke="midnightblue" d="M381.87,-428.88C366.32,-413.91 349.48,-397.7 334.44,-383.23"/>
<polygon fill="none" stroke="midnightblue" points="379.76,-431.7 389.39,-436.12 384.61,-426.66 379.76,-431.7"/>
</g>
<!-- Node9 -->
<g id="node9" class="node">
<title>Node9</title>
<g id="a_node9"><a xlink:href="../../d2/dd0/classSDK_1_1UDistributionVectorUniform.html" target="_top" xlink:title=" ">
<polygon fill="white" stroke="black" points="371,-276.5 371,-399.5 500,-399.5 500,-276.5 371,-276.5"/>
<text text-anchor="start" x="379" y="-387.5" font-family="Helvetica,sans-Serif" font-size="10.00">SDK::UDistributionVector</text>
<text text-anchor="middle" x="435.5" y="-376.5" font-family="Helvetica,sans-Serif" font-size="10.00">Uniform</text>
<polyline fill="none" stroke="black" points="371,-369.5 500,-369.5 "/>
<text text-anchor="start" x="379" y="-357.5" font-family="Helvetica,sans-Serif" font-size="10.00">+ Max</text>
<text text-anchor="start" x="379" y="-346.5" font-family="Helvetica,sans-Serif" font-size="10.00">+ Min</text>
<text text-anchor="start" x="379" y="-335.5" font-family="Helvetica,sans-Serif" font-size="10.00">+ bLockAxes</text>
<text text-anchor="start" x="379" y="-324.5" font-family="Helvetica,sans-Serif" font-size="10.00">+ bUseExtremes</text>
<text text-anchor="start" x="379" y="-313.5" font-family="Helvetica,sans-Serif" font-size="10.00">+ LockedAxes</text>
<text text-anchor="start" x="379" y="-302.5" font-family="Helvetica,sans-Serif" font-size="10.00">+ MirrorFlags</text>
<polyline fill="none" stroke="black" points="371,-295.5 500,-295.5 "/>
<text text-anchor="start" x="379" y="-283.5" font-family="Helvetica,sans-Serif" font-size="10.00">+ StaticClass()</text>
</a>
</g>
</g>
<!-- Node1&#45;&gt;Node9 -->
<g id="edge8" class="edge">
<title>Node1&#45;&gt;Node9</title>
<path fill="none" stroke="midnightblue" d="M435.5,-426.11C435.5,-417.42 435.5,-408.38 435.5,-399.56"/>
<polygon fill="none" stroke="midnightblue" points="432,-426.12 435.5,-436.12 439,-426.12 432,-426.12"/>
</g>
<!-- Node10 -->
<g id="node10" class="node">
<title>Node10</title>
<g id="a_node10"><a xlink:href="../../db/df4/classSDK_1_1UDistributionVectorUniformCurve.html" target="_top" xlink:title=" ">
<polygon fill="white" stroke="black" points="518,-276.5 518,-399.5 647,-399.5 647,-276.5 518,-276.5"/>
<text text-anchor="start" x="526" y="-387.5" font-family="Helvetica,sans-Serif" font-size="10.00">SDK::UDistributionVector</text>
<text text-anchor="middle" x="582.5" y="-376.5" font-family="Helvetica,sans-Serif" font-size="10.00">UniformCurve</text>
<polyline fill="none" stroke="black" points="518,-369.5 647,-369.5 "/>
<text text-anchor="start" x="526" y="-357.5" font-family="Helvetica,sans-Serif" font-size="10.00">+ ConstantCurve</text>
<text text-anchor="start" x="526" y="-346.5" font-family="Helvetica,sans-Serif" font-size="10.00">+ bLockAxes1</text>
<text text-anchor="start" x="526" y="-335.5" font-family="Helvetica,sans-Serif" font-size="10.00">+ bLockAxes2</text>
<text text-anchor="start" x="526" y="-324.5" font-family="Helvetica,sans-Serif" font-size="10.00">+ bUseExtremes</text>
<text text-anchor="start" x="526" y="-313.5" font-family="Helvetica,sans-Serif" font-size="10.00">+ LockedAxes</text>
<text text-anchor="start" x="526" y="-302.5" font-family="Helvetica,sans-Serif" font-size="10.00">+ MirrorFlags</text>
<polyline fill="none" stroke="black" points="518,-295.5 647,-295.5 "/>
<text text-anchor="start" x="526" y="-283.5" font-family="Helvetica,sans-Serif" font-size="10.00">+ StaticClass()</text>
</a>
</g>
</g>
<!-- Node1&#45;&gt;Node10 -->
<g id="edge9" class="edge">
<title>Node1&#45;&gt;Node10</title>
<path fill="none" stroke="midnightblue" d="M489.07,-428.93C498.99,-419.39 509.42,-409.34 519.58,-399.56"/>
<polygon fill="none" stroke="midnightblue" points="486.39,-426.66 481.61,-436.12 491.24,-431.7 486.39,-426.66"/>
</g>
<!-- Node11 -->
<g id="node11" class="node">
<title>Node11</title>
<g id="a_node11"><a xlink:href="../../da/d9a/classSDK_1_1UDistributionVectorUniformRange.html" target="_top" xlink:title=" ">
<polygon fill="white" stroke="black" points="665,-287.5 665,-388.5 794,-388.5 794,-287.5 665,-287.5"/>
<text text-anchor="start" x="673" y="-376.5" font-family="Helvetica,sans-Serif" font-size="10.00">SDK::UDistributionVector</text>
<text text-anchor="middle" x="729.5" y="-365.5" font-family="Helvetica,sans-Serif" font-size="10.00">UniformRange</text>
<polyline fill="none" stroke="black" points="665,-358.5 794,-358.5 "/>
<text text-anchor="start" x="673" y="-346.5" font-family="Helvetica,sans-Serif" font-size="10.00">+ MaxHigh</text>
<text text-anchor="start" x="673" y="-335.5" font-family="Helvetica,sans-Serif" font-size="10.00">+ MaxLow</text>
<text text-anchor="start" x="673" y="-324.5" font-family="Helvetica,sans-Serif" font-size="10.00">+ MinHigh</text>
<text text-anchor="start" x="673" y="-313.5" font-family="Helvetica,sans-Serif" font-size="10.00">+ MinLow</text>
<polyline fill="none" stroke="black" points="665,-306.5 794,-306.5 "/>
<text text-anchor="start" x="673" y="-294.5" font-family="Helvetica,sans-Serif" font-size="10.00">+ StaticClass()</text>
</a>
</g>
</g>
<!-- Node1&#45;&gt;Node11 -->
<g id="edge10" class="edge">
<title>Node1&#45;&gt;Node11</title>
<path fill="none" stroke="midnightblue" d="M519.02,-457.63C561.72,-444.1 613.58,-424.73 656.5,-400 662.37,-396.62 668.23,-392.76 673.93,-388.65"/>
<polygon fill="none" stroke="midnightblue" points="517.72,-454.37 509.22,-460.69 519.81,-461.05 517.72,-454.37"/>
</g>
<!-- Node2 -->
<g id="node2" class="node">
<title>Node2</title>
<g id="a_node2"><a xlink:href="../../dc/d28/classSDK_1_1UComponent.html" target="_top" xlink:title=" ">
<polygon fill="white" stroke="black" points="375.5,-563.5 375.5,-631.5 495.5,-631.5 495.5,-563.5 375.5,-563.5"/>
<text text-anchor="middle" x="435.5" y="-619.5" font-family="Helvetica,sans-Serif" font-size="10.00">SDK::UComponent</text>
<polyline fill="none" stroke="black" points="375.5,-612.5 495.5,-612.5 "/>
<text text-anchor="start" x="383.5" y="-600.5" font-family="Helvetica,sans-Serif" font-size="10.00">+ TemplateOwnerClass</text>
<text text-anchor="start" x="383.5" y="-589.5" font-family="Helvetica,sans-Serif" font-size="10.00">+ TemplateName</text>
<polyline fill="none" stroke="black" points="375.5,-582.5 495.5,-582.5 "/>
<text text-anchor="start" x="383.5" y="-570.5" font-family="Helvetica,sans-Serif" font-size="10.00">+ StaticClass()</text>
</a>
</g>
</g>
<!-- Node2&#45;&gt;Node1 -->
<g id="edge1" class="edge">
<title>Node2&#45;&gt;Node1</title>
<path fill="none" stroke="midnightblue" d="M435.5,-552.97C435.5,-544.35 435.5,-535.28 435.5,-526.64"/>
<polygon fill="none" stroke="midnightblue" points="432,-553.22 435.5,-563.22 439,-553.22 432,-553.22"/>
</g>
<!-- Node3 -->
<g id="node3" class="node">
<title>Node3</title>
<g id="a_node3"><a xlink:href="../../d9/d45/classSDK_1_1UObject.html" target="_top" xlink:title=" ">
<polygon fill="white" stroke="black" points="336.5,-668.5 336.5,-1022.5 534.5,-1022.5 534.5,-668.5 336.5,-668.5"/>
<text text-anchor="middle" x="435.5" y="-1010.5" font-family="Helvetica,sans-Serif" font-size="10.00">SDK::UObject</text>
<polyline fill="none" stroke="black" points="336.5,-1003.5 534.5,-1003.5 "/>
<text text-anchor="start" x="344.5" y="-991.5" font-family="Helvetica,sans-Serif" font-size="10.00">+ VfTableObject</text>
<text text-anchor="start" x="344.5" y="-980.5" font-family="Helvetica,sans-Serif" font-size="10.00">+ ObjectFlags</text>
<text text-anchor="start" x="344.5" y="-969.5" font-family="Helvetica,sans-Serif" font-size="10.00">+ StateFrame</text>
<text text-anchor="start" x="344.5" y="-958.5" font-family="Helvetica,sans-Serif" font-size="10.00">+ Linker</text>
<text text-anchor="start" x="344.5" y="-947.5" font-family="Helvetica,sans-Serif" font-size="10.00">+ LinkerIndex</text>
<text text-anchor="start" x="344.5" y="-936.5" font-family="Helvetica,sans-Serif" font-size="10.00">+ ObjectInternalInteger</text>
<text text-anchor="start" x="344.5" y="-925.5" font-family="Helvetica,sans-Serif" font-size="10.00">+ NetIndex</text>
<text text-anchor="start" x="344.5" y="-914.5" font-family="Helvetica,sans-Serif" font-size="10.00">+ Outer</text>
<text text-anchor="start" x="344.5" y="-903.5" font-family="Helvetica,sans-Serif" font-size="10.00">+ Name</text>
<text text-anchor="start" x="344.5" y="-892.5" font-family="Helvetica,sans-Serif" font-size="10.00">+ Class</text>
<text text-anchor="start" x="344.5" y="-881.5" font-family="Helvetica,sans-Serif" font-size="10.00">+ ObjectArchetype</text>
<text text-anchor="start" x="344.5" y="-870.5" font-family="Helvetica,sans-Serif" font-size="10.00">+ GObjects</text>
<polyline fill="none" stroke="black" points="336.5,-863.5 534.5,-863.5 "/>
<text text-anchor="start" x="344.5" y="-851.5" font-family="Helvetica,sans-Serif" font-size="10.00">+ UObject::GetName()</text>
<text text-anchor="start" x="344.5" y="-840.5" font-family="Helvetica,sans-Serif" font-size="10.00">+ GetFullName()</text>
<text text-anchor="start" x="344.5" y="-829.5" font-family="Helvetica,sans-Serif" font-size="10.00">+ IsA()</text>
<text text-anchor="start" x="344.5" y="-818.5" font-family="Helvetica,sans-Serif" font-size="10.00">+ ProcessEvent()</text>
<text text-anchor="start" x="344.5" y="-807.5" font-family="Helvetica,sans-Serif" font-size="10.00">+ STATIC_ProfNodeEvent()</text>
<text text-anchor="start" x="344.5" y="-796.5" font-family="Helvetica,sans-Serif" font-size="10.00">+ STATIC_ProfNodeSetDepthThreshold()</text>
<text text-anchor="start" x="344.5" y="-785.5" font-family="Helvetica,sans-Serif" font-size="10.00">+ STATIC_ProfNodeSetTimeThreshold</text>
<text text-anchor="start" x="344.5" y="-774.5" font-family="Helvetica,sans-Serif" font-size="10.00">Seconds()</text>
<text text-anchor="start" x="344.5" y="-763.5" font-family="Helvetica,sans-Serif" font-size="10.00">+ STATIC_ProfNodeStop()</text>
<text text-anchor="start" x="344.5" y="-752.5" font-family="Helvetica,sans-Serif" font-size="10.00">+ STATIC_ProfNodeStart()</text>
<text text-anchor="start" x="344.5" y="-741.5" font-family="Helvetica,sans-Serif" font-size="10.00">+ STATIC_GetStringFromGuid()</text>
<text text-anchor="start" x="344.5" y="-730.5" font-family="Helvetica,sans-Serif" font-size="10.00">and 298 more...</text>
<text text-anchor="start" x="344.5" y="-719.5" font-family="Helvetica,sans-Serif" font-size="10.00">+ GetGlobalObjects()</text>
<text text-anchor="start" x="344.5" y="-708.5" font-family="Helvetica,sans-Serif" font-size="10.00">+ FindObject()</text>
<text text-anchor="start" x="344.5" y="-697.5" font-family="Helvetica,sans-Serif" font-size="10.00">+ FindClass()</text>
<text text-anchor="start" x="344.5" y="-686.5" font-family="Helvetica,sans-Serif" font-size="10.00">+ GetObjectCasted()</text>
<text text-anchor="start" x="344.5" y="-675.5" font-family="Helvetica,sans-Serif" font-size="10.00">+ StaticClass()</text>
</a>
</g>
</g>
<!-- Node3&#45;&gt;Node2 -->
<g id="edge2" class="edge">
<title>Node3&#45;&gt;Node2</title>
<path fill="none" stroke="midnightblue" d="M435.5,-658.08C435.5,-648.47 435.5,-639.57 435.5,-631.74"/>
<polygon fill="none" stroke="midnightblue" points="432,-658.34 435.5,-668.34 439,-658.34 432,-658.34"/>
</g>
<!-- Node5 -->
<g id="node5" class="node">
<title>Node5</title>
<g id="a_node5"><a xlink:href="../../d8/d48/classSDK_1_1UDistributionVectorParameterBase.html" target="_top" xlink:title=" ">
<polygon fill="white" stroke="black" points="77,-105.5 77,-239.5 206,-239.5 206,-105.5 77,-105.5"/>
<text text-anchor="start" x="85" y="-227.5" font-family="Helvetica,sans-Serif" font-size="10.00">SDK::UDistributionVector</text>
<text text-anchor="middle" x="141.5" y="-216.5" font-family="Helvetica,sans-Serif" font-size="10.00">ParameterBase</text>
<polyline fill="none" stroke="black" points="77,-209.5 206,-209.5 "/>
<text text-anchor="start" x="85" y="-197.5" font-family="Helvetica,sans-Serif" font-size="10.00">+ UnknownData00</text>
<text text-anchor="start" x="85" y="-186.5" font-family="Helvetica,sans-Serif" font-size="10.00">+ ParameterName</text>
<text text-anchor="start" x="85" y="-175.5" font-family="Helvetica,sans-Serif" font-size="10.00">+ MinInput</text>
<text text-anchor="start" x="85" y="-164.5" font-family="Helvetica,sans-Serif" font-size="10.00">+ MaxInput</text>
<text text-anchor="start" x="85" y="-153.5" font-family="Helvetica,sans-Serif" font-size="10.00">+ MinOutput</text>
<text text-anchor="start" x="85" y="-142.5" font-family="Helvetica,sans-Serif" font-size="10.00">+ MaxOutput</text>
<text text-anchor="start" x="85" y="-131.5" font-family="Helvetica,sans-Serif" font-size="10.00">+ ParamModes</text>
<polyline fill="none" stroke="black" points="77,-124.5 206,-124.5 "/>
<text text-anchor="start" x="85" y="-112.5" font-family="Helvetica,sans-Serif" font-size="10.00">+ StaticClass()</text>
</a>
</g>
</g>
<!-- Node4&#45;&gt;Node5 -->
<g id="edge4" class="edge">
<title>Node4&#45;&gt;Node5</title>
<path fill="none" stroke="midnightblue" d="M141.5,-282.5C141.5,-268.75 141.5,-253.84 141.5,-239.59"/>
<polygon fill="none" stroke="midnightblue" points="138,-282.75 141.5,-292.75 145,-282.75 138,-282.75"/>
</g>
<!-- Node6 -->
<g id="node6" class="node">
<title>Node6</title>
<g id="a_node6"><a xlink:href="../../d5/dcb/classSDK_1_1UDistributionVectorParticleParameter.html" target="_top" xlink:title=" ">
<polygon fill="white" stroke="black" points="0,-0.5 0,-68.5 129,-68.5 129,-0.5 0,-0.5"/>
<text text-anchor="start" x="8" y="-56.5" font-family="Helvetica,sans-Serif" font-size="10.00">SDK::UDistributionVector</text>
<text text-anchor="middle" x="64.5" y="-45.5" font-family="Helvetica,sans-Serif" font-size="10.00">ParticleParameter</text>
<polyline fill="none" stroke="black" points="0,-38.5 129,-38.5 "/>
<text text-anchor="start" x="8" y="-26.5" font-family="Helvetica,sans-Serif" font-size="10.00">+ UnknownData00</text>
<polyline fill="none" stroke="black" points="0,-19.5 129,-19.5 "/>
<text text-anchor="start" x="8" y="-7.5" font-family="Helvetica,sans-Serif" font-size="10.00">+ StaticClass()</text>
</a>
</g>
</g>
<!-- Node5&#45;&gt;Node6 -->
<g id="edge5" class="edge">
<title>Node5&#45;&gt;Node6</title>
<path fill="none" stroke="midnightblue" d="M99.07,-96.55C93.58,-86.85 88.19,-77.34 83.37,-68.83"/>
<polygon fill="none" stroke="midnightblue" points="96.16,-98.51 104.13,-105.49 102.25,-95.07 96.16,-98.51"/>
</g>
<!-- Node7 -->
<g id="node7" class="node">
<title>Node7</title>
<g id="a_node7"><a xlink:href="../../d1/d74/classSDK_1_1UEFDistributionVectorMultiplyParticleParameter.html" target="_top" xlink:title=" ">
<polygon fill="white" stroke="black" points="147.5,-0.5 147.5,-68.5 289.5,-68.5 289.5,-0.5 147.5,-0.5"/>
<text text-anchor="start" x="155.5" y="-56.5" font-family="Helvetica,sans-Serif" font-size="10.00">SDK::UEFDistributionVector</text>
<text text-anchor="middle" x="218.5" y="-45.5" font-family="Helvetica,sans-Serif" font-size="10.00">MultiplyParticleParameter</text>
<polyline fill="none" stroke="black" points="147.5,-38.5 289.5,-38.5 "/>
<text text-anchor="start" x="155.5" y="-26.5" font-family="Helvetica,sans-Serif" font-size="10.00">+ UnknownData00</text>
<polyline fill="none" stroke="black" points="147.5,-19.5 289.5,-19.5 "/>
<text text-anchor="start" x="155.5" y="-7.5" font-family="Helvetica,sans-Serif" font-size="10.00">+ StaticClass()</text>
</a>
</g>
</g>
<!-- Node5&#45;&gt;Node7 -->
<g id="edge6" class="edge">
<title>Node5&#45;&gt;Node7</title>
<path fill="none" stroke="midnightblue" d="M183.93,-96.55C189.42,-86.85 194.81,-77.34 199.63,-68.83"/>
<polygon fill="none" stroke="midnightblue" points="180.75,-95.07 178.87,-105.49 186.84,-98.51 180.75,-95.07"/>
</g>
</g>
</svg>
