<?xml version="1.0" encoding="UTF-8" standalone="no"?>
<!DOCTYPE svg PUBLIC "-//W3C//DTD SVG 1.1//EN"
 "http://www.w3.org/Graphics/SVG/1.1/DTD/svg11.dtd">
<!-- Generated by graphviz version 2.41.20171026.1811 (20171026.1811)
 -->
<!-- Title: SDK::UAnimNotify_ViewShake Pages: 1 -->
<svg width="206pt" height="926pt"
 viewBox="0.00 0.00 206.00 926.00" xmlns="http://www.w3.org/2000/svg" xmlns:xlink="http://www.w3.org/1999/xlink">
<g id="graph0" class="graph" transform="scale(1 1) rotate(0) translate(4 922)">
<title>SDK::UAnimNotify_ViewShake</title>
<polygon fill="white" stroke="transparent" points="-4,4 -4,-922 202,-922 202,4 -4,4"/>
<!-- Node1 -->
<g id="node1" class="node">
<title>Node1</title>
<g id="a_node1"><a xlink:title=" ">
<polygon fill="#bfbfbf" stroke="black" points="21.5,-105.5 21.5,-294.5 176.5,-294.5 176.5,-105.5 21.5,-105.5"/>
<text text-anchor="middle" x="99" y="-282.5" font-family="Helvetica,sans-Serif" font-size="10.00">SDK::UAnimNotify_ViewShake</text>
<polyline fill="none" stroke="black" points="21.5,-275.5 176.5,-275.5 "/>
<text text-anchor="start" x="29.5" y="-263.5" font-family="Helvetica,sans-Serif" font-size="10.00">+ Duration</text>
<text text-anchor="start" x="29.5" y="-252.5" font-family="Helvetica,sans-Serif" font-size="10.00">+ RotAmplitude</text>
<text text-anchor="start" x="29.5" y="-241.5" font-family="Helvetica,sans-Serif" font-size="10.00">+ RotFrequency</text>
<text text-anchor="start" x="29.5" y="-230.5" font-family="Helvetica,sans-Serif" font-size="10.00">+ LocAmplitude</text>
<text text-anchor="start" x="29.5" y="-219.5" font-family="Helvetica,sans-Serif" font-size="10.00">+ LocFrequency</text>
<text text-anchor="start" x="29.5" y="-208.5" font-family="Helvetica,sans-Serif" font-size="10.00">+ FOVAmplitude</text>
<text text-anchor="start" x="29.5" y="-197.5" font-family="Helvetica,sans-Serif" font-size="10.00">+ FOVFrequency</text>
<text text-anchor="start" x="29.5" y="-186.5" font-family="Helvetica,sans-Serif" font-size="10.00">+ bDoControllerVibration</text>
<text text-anchor="start" x="29.5" y="-175.5" font-family="Helvetica,sans-Serif" font-size="10.00">+ bUseBoneLocation</text>
<text text-anchor="start" x="29.5" y="-164.5" font-family="Helvetica,sans-Serif" font-size="10.00">+ ShakeRadius</text>
<text text-anchor="start" x="29.5" y="-153.5" font-family="Helvetica,sans-Serif" font-size="10.00">+ BoneName</text>
<text text-anchor="start" x="29.5" y="-142.5" font-family="Helvetica,sans-Serif" font-size="10.00">+ ShakeParams</text>
<polyline fill="none" stroke="black" points="21.5,-135.5 176.5,-135.5 "/>
<text text-anchor="start" x="29.5" y="-123.5" font-family="Helvetica,sans-Serif" font-size="10.00">+ Notify()</text>
<text text-anchor="start" x="29.5" y="-112.5" font-family="Helvetica,sans-Serif" font-size="10.00">+ StaticClass()</text>
</a>
</g>
</g>
<!-- Node5 -->
<g id="node5" class="node">
<title>Node5</title>
<g id="a_node5"><a xlink:href="../../d3/d2f/classSDK_1_1UEFAnimNotify__ViewShake.html" target="_top" xlink:title=" ">
<polygon fill="white" stroke="black" points="42.5,-0.5 42.5,-68.5 155.5,-68.5 155.5,-0.5 42.5,-0.5"/>
<text text-anchor="start" x="50.5" y="-56.5" font-family="Helvetica,sans-Serif" font-size="10.00">SDK::UEFAnimNotify</text>
<text text-anchor="middle" x="99" y="-45.5" font-family="Helvetica,sans-Serif" font-size="10.00">_ViewShake</text>
<polyline fill="none" stroke="black" points="42.5,-38.5 155.5,-38.5 "/>
<text text-anchor="middle" x="99" y="-26.5" font-family="Helvetica,sans-Serif" font-size="10.00"> </text>
<polyline fill="none" stroke="black" points="42.5,-19.5 155.5,-19.5 "/>
<text text-anchor="start" x="50.5" y="-7.5" font-family="Helvetica,sans-Serif" font-size="10.00">+ StaticClass()</text>
</a>
</g>
</g>
<!-- Node1&#45;&gt;Node5 -->
<g id="edge4" class="edge">
<title>Node1&#45;&gt;Node5</title>
<path fill="none" stroke="midnightblue" d="M99,-95.27C99,-85.75 99,-76.67 99,-68.58"/>
<polygon fill="none" stroke="midnightblue" points="95.5,-95.31 99,-105.31 102.5,-95.31 95.5,-95.31"/>
</g>
<!-- Node2 -->
<g id="node2" class="node">
<title>Node2</title>
<g id="a_node2"><a xlink:href="../../d8/d60/classSDK_1_1UAnimNotify__Scripted.html" target="_top" xlink:title=" ">
<polygon fill="white" stroke="black" points="28.5,-331.5 28.5,-410.5 169.5,-410.5 169.5,-331.5 28.5,-331.5"/>
<text text-anchor="middle" x="99" y="-398.5" font-family="Helvetica,sans-Serif" font-size="10.00">SDK::UAnimNotify_Scripted</text>
<polyline fill="none" stroke="black" points="28.5,-391.5 169.5,-391.5 "/>
<text text-anchor="middle" x="99" y="-379.5" font-family="Helvetica,sans-Serif" font-size="10.00"> </text>
<polyline fill="none" stroke="black" points="28.5,-372.5 169.5,-372.5 "/>
<text text-anchor="start" x="36.5" y="-360.5" font-family="Helvetica,sans-Serif" font-size="10.00">+ NotifyEnd()</text>
<text text-anchor="start" x="36.5" y="-349.5" font-family="Helvetica,sans-Serif" font-size="10.00">+ Notify()</text>
<text text-anchor="start" x="36.5" y="-338.5" font-family="Helvetica,sans-Serif" font-size="10.00">+ StaticClass()</text>
</a>
</g>
</g>
<!-- Node2&#45;&gt;Node1 -->
<g id="edge1" class="edge">
<title>Node2&#45;&gt;Node1</title>
<path fill="none" stroke="midnightblue" d="M99,-320.97C99,-312.6 99,-303.67 99,-294.6"/>
<polygon fill="none" stroke="midnightblue" points="95.5,-321.23 99,-331.23 102.5,-321.23 95.5,-321.23"/>
</g>
<!-- Node3 -->
<g id="node3" class="node">
<title>Node3</title>
<g id="a_node3"><a xlink:href="../../d8/dc5/classSDK_1_1UAnimNotify.html" target="_top" xlink:title=" ">
<polygon fill="white" stroke="black" points="32,-447.5 32,-526.5 166,-526.5 166,-447.5 32,-447.5"/>
<text text-anchor="middle" x="99" y="-514.5" font-family="Helvetica,sans-Serif" font-size="10.00">SDK::UAnimNotify</text>
<polyline fill="none" stroke="black" points="32,-507.5 166,-507.5 "/>
<text text-anchor="start" x="40" y="-495.5" font-family="Helvetica,sans-Serif" font-size="10.00">+ NotifyColor</text>
<text text-anchor="start" x="40" y="-484.5" font-family="Helvetica,sans-Serif" font-size="10.00">+ DrawNodeIndex</text>
<polyline fill="none" stroke="black" points="32,-477.5 166,-477.5 "/>
<text text-anchor="start" x="40" y="-465.5" font-family="Helvetica,sans-Serif" font-size="10.00">+ FindNextNotifyOfClass()</text>
<text text-anchor="start" x="40" y="-454.5" font-family="Helvetica,sans-Serif" font-size="10.00">+ StaticClass()</text>
</a>
</g>
</g>
<!-- Node3&#45;&gt;Node2 -->
<g id="edge2" class="edge">
<title>Node3&#45;&gt;Node2</title>
<path fill="none" stroke="midnightblue" d="M99,-437.15C99,-428.26 99,-419.1 99,-410.56"/>
<polygon fill="none" stroke="midnightblue" points="95.5,-437.4 99,-447.4 102.5,-437.4 95.5,-437.4"/>
</g>
<!-- Node4 -->
<g id="node4" class="node">
<title>Node4</title>
<g id="a_node4"><a xlink:href="../../d9/d45/classSDK_1_1UObject.html" target="_top" xlink:title=" ">
<polygon fill="white" stroke="black" points="0,-563.5 0,-917.5 198,-917.5 198,-563.5 0,-563.5"/>
<text text-anchor="middle" x="99" y="-905.5" font-family="Helvetica,sans-Serif" font-size="10.00">SDK::UObject</text>
<polyline fill="none" stroke="black" points="0,-898.5 198,-898.5 "/>
<text text-anchor="start" x="8" y="-886.5" font-family="Helvetica,sans-Serif" font-size="10.00">+ VfTableObject</text>
<text text-anchor="start" x="8" y="-875.5" font-family="Helvetica,sans-Serif" font-size="10.00">+ ObjectFlags</text>
<text text-anchor="start" x="8" y="-864.5" font-family="Helvetica,sans-Serif" font-size="10.00">+ StateFrame</text>
<text text-anchor="start" x="8" y="-853.5" font-family="Helvetica,sans-Serif" font-size="10.00">+ Linker</text>
<text text-anchor="start" x="8" y="-842.5" font-family="Helvetica,sans-Serif" font-size="10.00">+ LinkerIndex</text>
<text text-anchor="start" x="8" y="-831.5" font-family="Helvetica,sans-Serif" font-size="10.00">+ ObjectInternalInteger</text>
<text text-anchor="start" x="8" y="-820.5" font-family="Helvetica,sans-Serif" font-size="10.00">+ NetIndex</text>
<text text-anchor="start" x="8" y="-809.5" font-family="Helvetica,sans-Serif" font-size="10.00">+ Outer</text>
<text text-anchor="start" x="8" y="-798.5" font-family="Helvetica,sans-Serif" font-size="10.00">+ Name</text>
<text text-anchor="start" x="8" y="-787.5" font-family="Helvetica,sans-Serif" font-size="10.00">+ Class</text>
<text text-anchor="start" x="8" y="-776.5" font-family="Helvetica,sans-Serif" font-size="10.00">+ ObjectArchetype</text>
<text text-anchor="start" x="8" y="-765.5" font-family="Helvetica,sans-Serif" font-size="10.00">+ GObjects</text>
<polyline fill="none" stroke="black" points="0,-758.5 198,-758.5 "/>
<text text-anchor="start" x="8" y="-746.5" font-family="Helvetica,sans-Serif" font-size="10.00">+ UObject::GetName()</text>
<text text-anchor="start" x="8" y="-735.5" font-family="Helvetica,sans-Serif" font-size="10.00">+ GetFullName()</text>
<text text-anchor="start" x="8" y="-724.5" font-family="Helvetica,sans-Serif" font-size="10.00">+ IsA()</text>
<text text-anchor="start" x="8" y="-713.5" font-family="Helvetica,sans-Serif" font-size="10.00">+ ProcessEvent()</text>
<text text-anchor="start" x="8" y="-702.5" font-family="Helvetica,sans-Serif" font-size="10.00">+ STATIC_ProfNodeEvent()</text>
<text text-anchor="start" x="8" y="-691.5" font-family="Helvetica,sans-Serif" font-size="10.00">+ STATIC_ProfNodeSetDepthThreshold()</text>
<text text-anchor="start" x="8" y="-680.5" font-family="Helvetica,sans-Serif" font-size="10.00">+ STATIC_ProfNodeSetTimeThreshold</text>
<text text-anchor="start" x="8" y="-669.5" font-family="Helvetica,sans-Serif" font-size="10.00">Seconds()</text>
<text text-anchor="start" x="8" y="-658.5" font-family="Helvetica,sans-Serif" font-size="10.00">+ STATIC_ProfNodeStop()</text>
<text text-anchor="start" x="8" y="-647.5" font-family="Helvetica,sans-Serif" font-size="10.00">+ STATIC_ProfNodeStart()</text>
<text text-anchor="start" x="8" y="-636.5" font-family="Helvetica,sans-Serif" font-size="10.00">+ STATIC_GetStringFromGuid()</text>
<text text-anchor="start" x="8" y="-625.5" font-family="Helvetica,sans-Serif" font-size="10.00">and 298 more...</text>
<text text-anchor="start" x="8" y="-614.5" font-family="Helvetica,sans-Serif" font-size="10.00">+ GetGlobalObjects()</text>
<text text-anchor="start" x="8" y="-603.5" font-family="Helvetica,sans-Serif" font-size="10.00">+ FindObject()</text>
<text text-anchor="start" x="8" y="-592.5" font-family="Helvetica,sans-Serif" font-size="10.00">+ FindClass()</text>
<text text-anchor="start" x="8" y="-581.5" font-family="Helvetica,sans-Serif" font-size="10.00">+ GetObjectCasted()</text>
<text text-anchor="start" x="8" y="-570.5" font-family="Helvetica,sans-Serif" font-size="10.00">+ StaticClass()</text>
</a>
</g>
</g>
<!-- Node4&#45;&gt;Node3 -->
<g id="edge3" class="edge">
<title>Node4&#45;&gt;Node3</title>
<path fill="none" stroke="midnightblue" d="M99,-553.31C99,-543.77 99,-534.84 99,-526.83"/>
<polygon fill="none" stroke="midnightblue" points="95.5,-553.46 99,-563.46 102.5,-553.46 95.5,-553.46"/>
</g>
</g>
</svg>
