<?xml version="1.0" encoding="UTF-8" standalone="no"?>
<!DOCTYPE svg PUBLIC "-//W3C//DTD SVG 1.1//EN"
 "http://www.w3.org/Graphics/SVG/1.1/DTD/svg11.dtd">
<!-- Generated by graphviz version 2.41.20171026.1811 (20171026.1811)
 -->
<!-- Title: SDK::UActorFactoryAmbientSoundMovable Pages: 1 -->
<svg width="206pt" height="755pt"
 viewBox="0.00 0.00 206.00 755.00" xmlns="http://www.w3.org/2000/svg" xmlns:xlink="http://www.w3.org/1999/xlink">
<g id="graph0" class="graph" transform="scale(1 1) rotate(0) translate(4 751)">
<title>SDK::UActorFactoryAmbientSoundMovable</title>
<polygon fill="white" stroke="transparent" points="-4,4 -4,-751 202,-751 202,4 -4,4"/>
<!-- Node1 -->
<g id="node1" class="node">
<title>Node1</title>
<g id="a_node1"><a xlink:title=" ">
<polygon fill="#bfbfbf" stroke="black" points="27.5,-0.5 27.5,-68.5 170.5,-68.5 170.5,-0.5 27.5,-0.5"/>
<text text-anchor="start" x="35.5" y="-56.5" font-family="Helvetica,sans-Serif" font-size="10.00">SDK::UActorFactoryAmbient</text>
<text text-anchor="middle" x="99" y="-45.5" font-family="Helvetica,sans-Serif" font-size="10.00">SoundMovable</text>
<polyline fill="none" stroke="black" points="27.5,-38.5 170.5,-38.5 "/>
<text text-anchor="middle" x="99" y="-26.5" font-family="Helvetica,sans-Serif" font-size="10.00"> </text>
<polyline fill="none" stroke="black" points="27.5,-19.5 170.5,-19.5 "/>
<text text-anchor="start" x="35.5" y="-7.5" font-family="Helvetica,sans-Serif" font-size="10.00">+ StaticClass()</text>
</a>
</g>
</g>
<!-- Node2 -->
<g id="node2" class="node">
<title>Node2</title>
<g id="a_node2"><a xlink:href="../../d7/db4/classSDK_1_1UActorFactoryAmbientSound.html" target="_top" xlink:title=" ">
<polygon fill="white" stroke="black" points="27.5,-105.5 27.5,-173.5 170.5,-173.5 170.5,-105.5 27.5,-105.5"/>
<text text-anchor="start" x="35.5" y="-161.5" font-family="Helvetica,sans-Serif" font-size="10.00">SDK::UActorFactoryAmbient</text>
<text text-anchor="middle" x="99" y="-150.5" font-family="Helvetica,sans-Serif" font-size="10.00">Sound</text>
<polyline fill="none" stroke="black" points="27.5,-143.5 170.5,-143.5 "/>
<text text-anchor="start" x="35.5" y="-131.5" font-family="Helvetica,sans-Serif" font-size="10.00">+ AmbientSoundCue</text>
<polyline fill="none" stroke="black" points="27.5,-124.5 170.5,-124.5 "/>
<text text-anchor="start" x="35.5" y="-112.5" font-family="Helvetica,sans-Serif" font-size="10.00">+ StaticClass()</text>
</a>
</g>
</g>
<!-- Node2&#45;&gt;Node1 -->
<g id="edge1" class="edge">
<title>Node2&#45;&gt;Node1</title>
<path fill="none" stroke="midnightblue" d="M99,-95.14C99,-86.26 99,-77.04 99,-68.59"/>
<polygon fill="none" stroke="midnightblue" points="95.5,-95.34 99,-105.34 102.5,-95.34 95.5,-95.34"/>
</g>
<!-- Node3 -->
<g id="node3" class="node">
<title>Node3</title>
<g id="a_node3"><a xlink:href="../../d8/d94/classSDK_1_1UActorFactory.html" target="_top" xlink:title=" ">
<polygon fill="white" stroke="black" points="29.5,-210.5 29.5,-355.5 168.5,-355.5 168.5,-210.5 29.5,-210.5"/>
<text text-anchor="middle" x="99" y="-343.5" font-family="Helvetica,sans-Serif" font-size="10.00">SDK::UActorFactory</text>
<polyline fill="none" stroke="black" points="29.5,-336.5 168.5,-336.5 "/>
<text text-anchor="start" x="37.5" y="-324.5" font-family="Helvetica,sans-Serif" font-size="10.00">+ GameplayActorClass</text>
<text text-anchor="start" x="37.5" y="-313.5" font-family="Helvetica,sans-Serif" font-size="10.00">+ MenuName</text>
<text text-anchor="start" x="37.5" y="-302.5" font-family="Helvetica,sans-Serif" font-size="10.00">+ MenuPriority</text>
<text text-anchor="start" x="37.5" y="-291.5" font-family="Helvetica,sans-Serif" font-size="10.00">+ AlternateMenuPriority</text>
<text text-anchor="start" x="37.5" y="-280.5" font-family="Helvetica,sans-Serif" font-size="10.00">+ NewActorClassName</text>
<text text-anchor="start" x="37.5" y="-269.5" font-family="Helvetica,sans-Serif" font-size="10.00">+ NewActorClass</text>
<text text-anchor="start" x="37.5" y="-258.5" font-family="Helvetica,sans-Serif" font-size="10.00">+ bPlaceable</text>
<text text-anchor="start" x="37.5" y="-247.5" font-family="Helvetica,sans-Serif" font-size="10.00">+ bShowInEditorQuickMenu</text>
<polyline fill="none" stroke="black" points="29.5,-240.5 168.5,-240.5 "/>
<text text-anchor="start" x="37.5" y="-228.5" font-family="Helvetica,sans-Serif" font-size="10.00">+ PostCreateActor()</text>
<text text-anchor="start" x="37.5" y="-217.5" font-family="Helvetica,sans-Serif" font-size="10.00">+ StaticClass()</text>
</a>
</g>
</g>
<!-- Node3&#45;&gt;Node2 -->
<g id="edge2" class="edge">
<title>Node3&#45;&gt;Node2</title>
<path fill="none" stroke="midnightblue" d="M99,-200.19C99,-190.83 99,-181.73 99,-173.58"/>
<polygon fill="none" stroke="midnightblue" points="95.5,-200.42 99,-210.42 102.5,-200.42 95.5,-200.42"/>
</g>
<!-- Node4 -->
<g id="node4" class="node">
<title>Node4</title>
<g id="a_node4"><a xlink:href="../../d9/d45/classSDK_1_1UObject.html" target="_top" xlink:title=" ">
<polygon fill="white" stroke="black" points="0,-392.5 0,-746.5 198,-746.5 198,-392.5 0,-392.5"/>
<text text-anchor="middle" x="99" y="-734.5" font-family="Helvetica,sans-Serif" font-size="10.00">SDK::UObject</text>
<polyline fill="none" stroke="black" points="0,-727.5 198,-727.5 "/>
<text text-anchor="start" x="8" y="-715.5" font-family="Helvetica,sans-Serif" font-size="10.00">+ VfTableObject</text>
<text text-anchor="start" x="8" y="-704.5" font-family="Helvetica,sans-Serif" font-size="10.00">+ ObjectFlags</text>
<text text-anchor="start" x="8" y="-693.5" font-family="Helvetica,sans-Serif" font-size="10.00">+ StateFrame</text>
<text text-anchor="start" x="8" y="-682.5" font-family="Helvetica,sans-Serif" font-size="10.00">+ Linker</text>
<text text-anchor="start" x="8" y="-671.5" font-family="Helvetica,sans-Serif" font-size="10.00">+ LinkerIndex</text>
<text text-anchor="start" x="8" y="-660.5" font-family="Helvetica,sans-Serif" font-size="10.00">+ ObjectInternalInteger</text>
<text text-anchor="start" x="8" y="-649.5" font-family="Helvetica,sans-Serif" font-size="10.00">+ NetIndex</text>
<text text-anchor="start" x="8" y="-638.5" font-family="Helvetica,sans-Serif" font-size="10.00">+ Outer</text>
<text text-anchor="start" x="8" y="-627.5" font-family="Helvetica,sans-Serif" font-size="10.00">+ Name</text>
<text text-anchor="start" x="8" y="-616.5" font-family="Helvetica,sans-Serif" font-size="10.00">+ Class</text>
<text text-anchor="start" x="8" y="-605.5" font-family="Helvetica,sans-Serif" font-size="10.00">+ ObjectArchetype</text>
<text text-anchor="start" x="8" y="-594.5" font-family="Helvetica,sans-Serif" font-size="10.00">+ GObjects</text>
<polyline fill="none" stroke="black" points="0,-587.5 198,-587.5 "/>
<text text-anchor="start" x="8" y="-575.5" font-family="Helvetica,sans-Serif" font-size="10.00">+ UObject::GetName()</text>
<text text-anchor="start" x="8" y="-564.5" font-family="Helvetica,sans-Serif" font-size="10.00">+ GetFullName()</text>
<text text-anchor="start" x="8" y="-553.5" font-family="Helvetica,sans-Serif" font-size="10.00">+ IsA()</text>
<text text-anchor="start" x="8" y="-542.5" font-family="Helvetica,sans-Serif" font-size="10.00">+ ProcessEvent()</text>
<text text-anchor="start" x="8" y="-531.5" font-family="Helvetica,sans-Serif" font-size="10.00">+ STATIC_ProfNodeEvent()</text>
<text text-anchor="start" x="8" y="-520.5" font-family="Helvetica,sans-Serif" font-size="10.00">+ STATIC_ProfNodeSetDepthThreshold()</text>
<text text-anchor="start" x="8" y="-509.5" font-family="Helvetica,sans-Serif" font-size="10.00">+ STATIC_ProfNodeSetTimeThreshold</text>
<text text-anchor="start" x="8" y="-498.5" font-family="Helvetica,sans-Serif" font-size="10.00">Seconds()</text>
<text text-anchor="start" x="8" y="-487.5" font-family="Helvetica,sans-Serif" font-size="10.00">+ STATIC_ProfNodeStop()</text>
<text text-anchor="start" x="8" y="-476.5" font-family="Helvetica,sans-Serif" font-size="10.00">+ STATIC_ProfNodeStart()</text>
<text text-anchor="start" x="8" y="-465.5" font-family="Helvetica,sans-Serif" font-size="10.00">+ STATIC_GetStringFromGuid()</text>
<text text-anchor="start" x="8" y="-454.5" font-family="Helvetica,sans-Serif" font-size="10.00">and 298 more...</text>
<text text-anchor="start" x="8" y="-443.5" font-family="Helvetica,sans-Serif" font-size="10.00">+ GetGlobalObjects()</text>
<text text-anchor="start" x="8" y="-432.5" font-family="Helvetica,sans-Serif" font-size="10.00">+ FindObject()</text>
<text text-anchor="start" x="8" y="-421.5" font-family="Helvetica,sans-Serif" font-size="10.00">+ FindClass()</text>
<text text-anchor="start" x="8" y="-410.5" font-family="Helvetica,sans-Serif" font-size="10.00">+ GetObjectCasted()</text>
<text text-anchor="start" x="8" y="-399.5" font-family="Helvetica,sans-Serif" font-size="10.00">+ StaticClass()</text>
</a>
</g>
</g>
<!-- Node4&#45;&gt;Node3 -->
<g id="edge3" class="edge">
<title>Node4&#45;&gt;Node3</title>
<path fill="none" stroke="midnightblue" d="M99,-382.31C99,-373.14 99,-364.23 99,-355.77"/>
<polygon fill="none" stroke="midnightblue" points="95.5,-382.37 99,-392.37 102.5,-382.37 95.5,-382.37"/>
</g>
</g>
</svg>
