<?xml version="1.0" encoding="UTF-8" standalone="no"?>
<!DOCTYPE svg PUBLIC "-//W3C//DTD SVG 1.1//EN"
 "http://www.w3.org/Graphics/SVG/1.1/DTD/svg11.dtd">
<!-- Generated by graphviz version 2.41.20171026.1811 (20171026.1811)
 -->
<!-- Title: SDK::USoundNode Pages: 1 -->
<svg width="767pt" height="1430pt"
 viewBox="0.00 0.00 767.00 1430.00" xmlns="http://www.w3.org/2000/svg" xmlns:xlink="http://www.w3.org/1999/xlink">
<g id="graph0" class="graph" transform="scale(1 1) rotate(0) translate(4 1426)">
<title>SDK::USoundNode</title>
<polygon fill="white" stroke="transparent" points="-4,4 -4,-1426 763,-1426 763,4 -4,4"/>
<!-- Node1 -->
<g id="node1" class="node">
<title>Node1</title>
<g id="a_node1"><a xlink:title=" ">
<polygon fill="#bfbfbf" stroke="black" points="489,-466 489,-523 591,-523 591,-466 489,-466"/>
<text text-anchor="middle" x="540" y="-511" font-family="Helvetica,sans-Serif" font-size="10.00">SDK::USoundNode</text>
<polyline fill="none" stroke="black" points="489,-504 591,-504 "/>
<text text-anchor="start" x="497" y="-492" font-family="Helvetica,sans-Serif" font-size="10.00">+ NodeUpdateHint</text>
<polyline fill="none" stroke="black" points="489,-485 591,-485 "/>
<text text-anchor="start" x="497" y="-473" font-family="Helvetica,sans-Serif" font-size="10.00">+ StaticClass()</text>
</a>
</g>
</g>
<!-- Node14 -->
<g id="node14" class="node">
<title>Node14</title>
<g id="a_node14"><a xlink:href="../../d3/d79/classSDK_1_1TArray.html" target="_top" xlink:title=" ">
<polygon fill="white" stroke="black" points="482.5,-223.5 482.5,-368.5 603.5,-368.5 603.5,-223.5 482.5,-223.5"/>
<text text-anchor="start" x="490.5" y="-356.5" font-family="Helvetica,sans-Serif" font-size="10.00">SDK::TArray&lt; class</text>
<text text-anchor="middle" x="543" y="-345.5" font-family="Helvetica,sans-Serif" font-size="10.00"> SDK::USoundNode * &gt;</text>
<polyline fill="none" stroke="black" points="482.5,-338.5 603.5,-338.5 "/>
<text text-anchor="start" x="490.5" y="-326.5" font-family="Helvetica,sans-Serif" font-size="10.00">&#45; Count</text>
<text text-anchor="start" x="490.5" y="-315.5" font-family="Helvetica,sans-Serif" font-size="10.00">&#45; Max</text>
<polyline fill="none" stroke="black" points="482.5,-308.5 603.5,-308.5 "/>
<text text-anchor="start" x="490.5" y="-296.5" font-family="Helvetica,sans-Serif" font-size="10.00">+ TArray()</text>
<text text-anchor="start" x="490.5" y="-285.5" font-family="Helvetica,sans-Serif" font-size="10.00">+ Num()</text>
<text text-anchor="start" x="490.5" y="-274.5" font-family="Helvetica,sans-Serif" font-size="10.00">+ operator[]()</text>
<text text-anchor="start" x="490.5" y="-263.5" font-family="Helvetica,sans-Serif" font-size="10.00">+ operator[]()</text>
<text text-anchor="start" x="490.5" y="-252.5" font-family="Helvetica,sans-Serif" font-size="10.00">+ IsValidIndex()</text>
<text text-anchor="start" x="490.5" y="-241.5" font-family="Helvetica,sans-Serif" font-size="10.00">+ GetByIndex()</text>
<text text-anchor="start" x="490.5" y="-230.5" font-family="Helvetica,sans-Serif" font-size="10.00">+ GetByIndex()</text>
</a>
</g>
</g>
<!-- Node1&#45;&gt;Node14 -->
<g id="edge21" class="edge">
<title>Node1&#45;&gt;Node14</title>
<path fill="none" stroke="#404040" d="M524.53,-465.85C514.45,-444.57 504.02,-414.28 509,-387 509.4,-384.82 509.85,-382.61 510.34,-380.41"/>
<polygon fill="none" stroke="#404040" points="510.4,-380.18 508,-373.38 513.36,-368.56 515.76,-375.36 510.4,-380.18"/>
<text text-anchor="middle" x="523" y="-395.5" font-family="Helvetica,sans-Serif" font-size="10.00"> &#45;Data</text>
</g>
<!-- Node2 -->
<g id="node2" class="node">
<title>Node2</title>
<g id="a_node2"><a xlink:href="../../d9/d45/classSDK_1_1UObject.html" target="_top" xlink:title=" ">
<polygon fill="white" stroke="black" points="122,-609.5 122,-853.5 320,-853.5 320,-609.5 122,-609.5"/>
<text text-anchor="middle" x="221" y="-841.5" font-family="Helvetica,sans-Serif" font-size="10.00">SDK::UObject</text>
<polyline fill="none" stroke="black" points="122,-834.5 320,-834.5 "/>
<text text-anchor="start" x="130" y="-822.5" font-family="Helvetica,sans-Serif" font-size="10.00">+ ObjectInternalInteger</text>
<text text-anchor="start" x="130" y="-811.5" font-family="Helvetica,sans-Serif" font-size="10.00">+ NetIndex</text>
<polyline fill="none" stroke="black" points="122,-804.5 320,-804.5 "/>
<text text-anchor="start" x="130" y="-792.5" font-family="Helvetica,sans-Serif" font-size="10.00">+ UObject::GetName()</text>
<text text-anchor="start" x="130" y="-781.5" font-family="Helvetica,sans-Serif" font-size="10.00">+ GetFullName()</text>
<text text-anchor="start" x="130" y="-770.5" font-family="Helvetica,sans-Serif" font-size="10.00">+ IsA()</text>
<text text-anchor="start" x="130" y="-759.5" font-family="Helvetica,sans-Serif" font-size="10.00">+ ProcessEvent()</text>
<text text-anchor="start" x="130" y="-748.5" font-family="Helvetica,sans-Serif" font-size="10.00">+ STATIC_ProfNodeEvent()</text>
<text text-anchor="start" x="130" y="-737.5" font-family="Helvetica,sans-Serif" font-size="10.00">+ STATIC_ProfNodeSetDepthThreshold()</text>
<text text-anchor="start" x="130" y="-726.5" font-family="Helvetica,sans-Serif" font-size="10.00">+ STATIC_ProfNodeSetTimeThreshold</text>
<text text-anchor="start" x="130" y="-715.5" font-family="Helvetica,sans-Serif" font-size="10.00">Seconds()</text>
<text text-anchor="start" x="130" y="-704.5" font-family="Helvetica,sans-Serif" font-size="10.00">+ STATIC_ProfNodeStop()</text>
<text text-anchor="start" x="130" y="-693.5" font-family="Helvetica,sans-Serif" font-size="10.00">+ STATIC_ProfNodeStart()</text>
<text text-anchor="start" x="130" y="-682.5" font-family="Helvetica,sans-Serif" font-size="10.00">+ STATIC_GetStringFromGuid()</text>
<text text-anchor="start" x="130" y="-671.5" font-family="Helvetica,sans-Serif" font-size="10.00">and 298 more...</text>
<text text-anchor="start" x="130" y="-660.5" font-family="Helvetica,sans-Serif" font-size="10.00">+ GetGlobalObjects()</text>
<text text-anchor="start" x="130" y="-649.5" font-family="Helvetica,sans-Serif" font-size="10.00">+ FindObject()</text>
<text text-anchor="start" x="130" y="-638.5" font-family="Helvetica,sans-Serif" font-size="10.00">+ FindClass()</text>
<text text-anchor="start" x="130" y="-627.5" font-family="Helvetica,sans-Serif" font-size="10.00">+ GetObjectCasted()</text>
<text text-anchor="start" x="130" y="-616.5" font-family="Helvetica,sans-Serif" font-size="10.00">+ StaticClass()</text>
</a>
</g>
</g>
<!-- Node2&#45;&gt;Node1 -->
<g id="edge1" class="edge">
<title>Node2&#45;&gt;Node1</title>
<path fill="none" stroke="midnightblue" d="M328.85,-669.07C377.14,-639.41 433.53,-601.68 480,-562 493.6,-550.39 507.09,-535.79 517.82,-523.23"/>
<polygon fill="none" stroke="midnightblue" points="326.95,-666.12 320.24,-674.32 330.6,-672.1 326.95,-666.12"/>
</g>
<!-- Node2&#45;&gt;Node2 -->
<g id="edge7" class="edge">
<title>Node2&#45;&gt;Node2</title>
<path fill="none" stroke="#404040" d="M320.01,-754.53C330.94,-750.15 338,-742.48 338,-731.5 338,-724.64 335.24,-719.07 330.51,-714.78"/>
<polygon fill="none" stroke="#404040" points="330.3,-714.66 323.09,-714.99 320.01,-708.47 327.22,-708.14 330.3,-714.66"/>
<text text-anchor="middle" x="377.5" y="-740" font-family="Helvetica,sans-Serif" font-size="10.00"> +Outer</text>
<text text-anchor="middle" x="377.5" y="-729" font-family="Helvetica,sans-Serif" font-size="10.00">+Linker</text>
<text text-anchor="middle" x="377.5" y="-718" font-family="Helvetica,sans-Serif" font-size="10.00">+ObjectArchetype</text>
</g>
<!-- Node8 -->
<g id="node8" class="node">
<title>Node8</title>
<g id="a_node8"><a xlink:href="../../d3/d79/classSDK_1_1TArray.html" target="_top" xlink:title=" ">
<polygon fill="white" stroke="black" points="309.5,-427.5 309.5,-561.5 470.5,-561.5 470.5,-427.5 309.5,-427.5"/>
<text text-anchor="middle" x="390" y="-549.5" font-family="Helvetica,sans-Serif" font-size="10.00">SDK::TArray&lt; SDK::UObject * &gt;</text>
<polyline fill="none" stroke="black" points="309.5,-542.5 470.5,-542.5 "/>
<text text-anchor="start" x="317.5" y="-530.5" font-family="Helvetica,sans-Serif" font-size="10.00">&#45; Count</text>
<text text-anchor="start" x="317.5" y="-519.5" font-family="Helvetica,sans-Serif" font-size="10.00">&#45; Max</text>
<polyline fill="none" stroke="black" points="309.5,-512.5 470.5,-512.5 "/>
<text text-anchor="start" x="317.5" y="-500.5" font-family="Helvetica,sans-Serif" font-size="10.00">+ TArray()</text>
<text text-anchor="start" x="317.5" y="-489.5" font-family="Helvetica,sans-Serif" font-size="10.00">+ Num()</text>
<text text-anchor="start" x="317.5" y="-478.5" font-family="Helvetica,sans-Serif" font-size="10.00">+ operator[]()</text>
<text text-anchor="start" x="317.5" y="-467.5" font-family="Helvetica,sans-Serif" font-size="10.00">+ operator[]()</text>
<text text-anchor="start" x="317.5" y="-456.5" font-family="Helvetica,sans-Serif" font-size="10.00">+ IsValidIndex()</text>
<text text-anchor="start" x="317.5" y="-445.5" font-family="Helvetica,sans-Serif" font-size="10.00">+ GetByIndex()</text>
<text text-anchor="start" x="317.5" y="-434.5" font-family="Helvetica,sans-Serif" font-size="10.00">+ GetByIndex()</text>
</a>
</g>
</g>
<!-- Node2&#45;&gt;Node8 -->
<g id="edge9" class="edge">
<title>Node2&#45;&gt;Node8</title>
<path fill="none" stroke="#404040" d="M274.42,-609.23C280.52,-599.02 287.06,-589.13 294,-580 296.39,-576.86 298.9,-573.76 301.52,-570.69"/>
<polygon fill="none" stroke="#404040" points="301.64,-570.55 302.66,-563.41 309.65,-561.61 308.62,-568.75 301.64,-570.55"/>
<text text-anchor="middle" x="308" y="-583" font-family="Helvetica,sans-Serif" font-size="10.00"> &#45;Data</text>
</g>
<!-- Node10 -->
<g id="node10" class="node">
<title>Node10</title>
<g id="a_node10"><a xlink:href="../../d7/d85/classSDK_1_1UClass.html" target="_top" xlink:title=" ">
<polygon fill="white" stroke="black" points="70.5,-0.5 70.5,-90.5 191.5,-90.5 191.5,-0.5 70.5,-0.5"/>
<text text-anchor="middle" x="131" y="-78.5" font-family="Helvetica,sans-Serif" font-size="10.00">SDK::UClass</text>
<polyline fill="none" stroke="black" points="70.5,-71.5 191.5,-71.5 "/>
<text text-anchor="start" x="78.5" y="-59.5" font-family="Helvetica,sans-Serif" font-size="10.00">+ UnknownData00</text>
<text text-anchor="start" x="78.5" y="-48.5" font-family="Helvetica,sans-Serif" font-size="10.00">+ UnknownData01</text>
<polyline fill="none" stroke="black" points="70.5,-41.5 191.5,-41.5 "/>
<text text-anchor="start" x="78.5" y="-29.5" font-family="Helvetica,sans-Serif" font-size="10.00">+ CreateDefaultObject()</text>
<text text-anchor="start" x="78.5" y="-18.5" font-family="Helvetica,sans-Serif" font-size="10.00">+ CreateDefaultObject()</text>
<text text-anchor="start" x="78.5" y="-7.5" font-family="Helvetica,sans-Serif" font-size="10.00">+ StaticClass()</text>
</a>
</g>
</g>
<!-- Node2&#45;&gt;Node10 -->
<g id="edge19" class="edge">
<title>Node2&#45;&gt;Node10</title>
<path fill="none" stroke="#404040" d="M121.81,-674.89C63.06,-633.91 0,-572.09 0,-495.5 0,-495.5 0,-495.5 0,-156 0,-120.34 28.94,-94.01 59.61,-76.12"/>
<polygon fill="none" stroke="#404040" points="59.97,-75.92 63.3,-69.53 70.48,-70.14 67.15,-76.54 59.97,-75.92"/>
<text text-anchor="middle" x="47.5" y="-293.5" font-family="Helvetica,sans-Serif" font-size="10.00"> +ClassDefaultObject</text>
</g>
<!-- Node13 -->
<g id="node13" class="node">
<title>Node13</title>
<g id="a_node13"><a xlink:href="../../de/dd6/classSDK_1_1UField.html" target="_top" xlink:title=" ">
<polygon fill="white" stroke="black" points="159.5,-466 159.5,-523 242.5,-523 242.5,-466 159.5,-466"/>
<text text-anchor="middle" x="201" y="-511" font-family="Helvetica,sans-Serif" font-size="10.00">SDK::UField</text>
<polyline fill="none" stroke="black" points="159.5,-504 242.5,-504 "/>
<text text-anchor="middle" x="201" y="-492" font-family="Helvetica,sans-Serif" font-size="10.00"> </text>
<polyline fill="none" stroke="black" points="159.5,-485 242.5,-485 "/>
<text text-anchor="start" x="167.5" y="-473" font-family="Helvetica,sans-Serif" font-size="10.00">+ StaticClass()</text>
</a>
</g>
</g>
<!-- Node2&#45;&gt;Node13 -->
<g id="edge16" class="edge">
<title>Node2&#45;&gt;Node13</title>
<path fill="none" stroke="midnightblue" d="M209.81,-599.01C207.36,-570.27 205.01,-542.66 203.36,-523.19"/>
<polygon fill="none" stroke="midnightblue" points="206.34,-599.55 210.68,-609.21 213.32,-598.95 206.34,-599.55"/>
</g>
<!-- Node3 -->
<g id="node3" class="node">
<title>Node3</title>
<g id="a_node3"><a xlink:href="../../d0/d22/structSDK_1_1FQWord.html" target="_top" xlink:title=" ">
<polygon fill="white" stroke="black" points="74,-951 74,-1019 154,-1019 154,-951 74,-951"/>
<text text-anchor="middle" x="114" y="-1007" font-family="Helvetica,sans-Serif" font-size="10.00">SDK::FQWord</text>
<polyline fill="none" stroke="black" points="74,-1000 154,-1000 "/>
<text text-anchor="start" x="82" y="-988" font-family="Helvetica,sans-Serif" font-size="10.00">+ A</text>
<text text-anchor="start" x="82" y="-977" font-family="Helvetica,sans-Serif" font-size="10.00">+ B</text>
<polyline fill="none" stroke="black" points="74,-970 154,-970 "/>
<text text-anchor="middle" x="114" y="-958" font-family="Helvetica,sans-Serif" font-size="10.00"> </text>
</a>
</g>
</g>
<!-- Node3&#45;&gt;Node2 -->
<g id="edge2" class="edge">
<title>Node3&#45;&gt;Node2</title>
<path fill="none" stroke="#404040" d="M125.24,-950.86C133.07,-928.4 144.05,-898.17 155,-872 155.99,-869.63 157,-867.25 158.02,-864.85"/>
<polygon fill="none" stroke="#404040" points="158.15,-864.57 156.86,-857.47 162.92,-853.56 164.2,-860.65 158.15,-864.57"/>
<text text-anchor="middle" x="186" y="-886" font-family="Helvetica,sans-Serif" font-size="10.00"> +ObjectFlags</text>
</g>
<!-- Node4 -->
<g id="node4" class="node">
<title>Node4</title>
<g id="a_node4"><a xlink:href="../../d0/db6/structSDK_1_1FName.html" target="_top" xlink:title=" ">
<polygon fill="white" stroke="black" points="287.5,-923.5 287.5,-1046.5 394.5,-1046.5 394.5,-923.5 287.5,-923.5"/>
<text text-anchor="middle" x="341" y="-1034.5" font-family="Helvetica,sans-Serif" font-size="10.00">SDK::FName</text>
<polyline fill="none" stroke="black" points="287.5,-1027.5 394.5,-1027.5 "/>
<text text-anchor="start" x="295.5" y="-1015.5" font-family="Helvetica,sans-Serif" font-size="10.00">+ Index</text>
<text text-anchor="start" x="295.5" y="-1004.5" font-family="Helvetica,sans-Serif" font-size="10.00">+ Number</text>
<polyline fill="none" stroke="black" points="287.5,-997.5 394.5,-997.5 "/>
<text text-anchor="start" x="295.5" y="-985.5" font-family="Helvetica,sans-Serif" font-size="10.00">+ FName()</text>
<text text-anchor="start" x="295.5" y="-974.5" font-family="Helvetica,sans-Serif" font-size="10.00">+ FName()</text>
<text text-anchor="start" x="295.5" y="-963.5" font-family="Helvetica,sans-Serif" font-size="10.00">+ FName()</text>
<text text-anchor="start" x="295.5" y="-952.5" font-family="Helvetica,sans-Serif" font-size="10.00">+ GetName()</text>
<text text-anchor="start" x="295.5" y="-941.5" font-family="Helvetica,sans-Serif" font-size="10.00">+ operator==()</text>
<text text-anchor="start" x="295.5" y="-930.5" font-family="Helvetica,sans-Serif" font-size="10.00">+ GetGlobalNames()</text>
</a>
</g>
</g>
<!-- Node4&#45;&gt;Node2 -->
<g id="edge3" class="edge">
<title>Node4&#45;&gt;Node2</title>
<path fill="none" stroke="#404040" d="M316.68,-923.43C309.65,-906.64 301.76,-888.51 294,-872 292.84,-869.54 291.66,-867.06 290.47,-864.56"/>
<polygon fill="none" stroke="#404040" points="290.36,-864.34 284.15,-860.69 285.13,-853.55 291.34,-857.2 290.36,-864.34"/>
<text text-anchor="middle" x="326" y="-886" font-family="Helvetica,sans-Serif" font-size="10.00"> +Name</text>
</g>
<!-- Node5 -->
<g id="node5" class="node">
<title>Node5</title>
<g id="a_node5"><a xlink:href="../../d3/d79/classSDK_1_1TArray.html" target="_top" xlink:title=" ">
<polygon fill="white" stroke="black" points="251,-1094.5 251,-1228.5 431,-1228.5 431,-1094.5 251,-1094.5"/>
<text text-anchor="middle" x="341" y="-1216.5" font-family="Helvetica,sans-Serif" font-size="10.00">SDK::TArray&lt; SDK::FNameEntry * &gt;</text>
<polyline fill="none" stroke="black" points="251,-1209.5 431,-1209.5 "/>
<text text-anchor="start" x="259" y="-1197.5" font-family="Helvetica,sans-Serif" font-size="10.00">&#45; Count</text>
<text text-anchor="start" x="259" y="-1186.5" font-family="Helvetica,sans-Serif" font-size="10.00">&#45; Max</text>
<polyline fill="none" stroke="black" points="251,-1179.5 431,-1179.5 "/>
<text text-anchor="start" x="259" y="-1167.5" font-family="Helvetica,sans-Serif" font-size="10.00">+ TArray()</text>
<text text-anchor="start" x="259" y="-1156.5" font-family="Helvetica,sans-Serif" font-size="10.00">+ Num()</text>
<text text-anchor="start" x="259" y="-1145.5" font-family="Helvetica,sans-Serif" font-size="10.00">+ operator[]()</text>
<text text-anchor="start" x="259" y="-1134.5" font-family="Helvetica,sans-Serif" font-size="10.00">+ operator[]()</text>
<text text-anchor="start" x="259" y="-1123.5" font-family="Helvetica,sans-Serif" font-size="10.00">+ IsValidIndex()</text>
<text text-anchor="start" x="259" y="-1112.5" font-family="Helvetica,sans-Serif" font-size="10.00">+ GetByIndex()</text>
<text text-anchor="start" x="259" y="-1101.5" font-family="Helvetica,sans-Serif" font-size="10.00">+ GetByIndex()</text>
</a>
</g>
</g>
<!-- Node5&#45;&gt;Node4 -->
<g id="edge4" class="edge">
<title>Node5&#45;&gt;Node4</title>
<path fill="none" stroke="#404040" d="M341,-1094.03C341,-1082.45 341,-1070.35 341,-1058.62"/>
<polygon fill="none" stroke="#404040" points="341,-1058.56 337,-1052.56 341,-1046.56 345,-1052.56 341,-1058.56"/>
<text text-anchor="middle" x="365.5" y="-1068" font-family="Helvetica,sans-Serif" font-size="10.00"> +GNames</text>
</g>
<!-- Node6 -->
<g id="node6" class="node">
<title>Node6</title>
<g id="a_node6"><a xlink:href="../../d7/ddf/classSDK_1_1FNameEntry.html" target="_top" xlink:title=" ">
<polygon fill="white" stroke="black" points="266.5,-1315 266.5,-1383 365.5,-1383 365.5,-1315 266.5,-1315"/>
<text text-anchor="middle" x="316" y="-1371" font-family="Helvetica,sans-Serif" font-size="10.00">SDK::FNameEntry</text>
<polyline fill="none" stroke="black" points="266.5,-1364 365.5,-1364 "/>
<text text-anchor="start" x="274.5" y="-1352" font-family="Helvetica,sans-Serif" font-size="10.00">+ UnknownData00</text>
<text text-anchor="start" x="274.5" y="-1341" font-family="Helvetica,sans-Serif" font-size="10.00">+ name</text>
<polyline fill="none" stroke="black" points="266.5,-1334 365.5,-1334 "/>
<text text-anchor="start" x="274.5" y="-1322" font-family="Helvetica,sans-Serif" font-size="10.00">+ GetName()</text>
</a>
</g>
</g>
<!-- Node6&#45;&gt;Node5 -->
<g id="edge5" class="edge">
<title>Node6&#45;&gt;Node5</title>
<path fill="none" stroke="#404040" d="M314.11,-1314.62C313.54,-1294.86 313.77,-1269.39 317,-1247 317.31,-1244.83 317.67,-1242.64 318.06,-1240.43"/>
<polygon fill="none" stroke="#404040" points="318.08,-1240.33 315.33,-1233.66 320.44,-1228.56 323.18,-1235.23 318.08,-1240.33"/>
<text text-anchor="middle" x="331" y="-1250" font-family="Helvetica,sans-Serif" font-size="10.00"> &#45;Data</text>
</g>
<!-- Node7 -->
<g id="node7" class="node">
<title>Node7</title>
<g id="a_node7"><a xlink:href="../../d3/d79/classSDK_1_1TArray.html" target="_top" xlink:title=" ">
<polygon fill="white" stroke="black" points="444.5,-1276.5 444.5,-1421.5 541.5,-1421.5 541.5,-1276.5 444.5,-1276.5"/>
<text text-anchor="middle" x="493" y="-1409.5" font-family="Helvetica,sans-Serif" font-size="10.00">SDK::TArray&lt; T &gt;</text>
<polyline fill="none" stroke="black" points="444.5,-1402.5 541.5,-1402.5 "/>
<text text-anchor="start" x="452.5" y="-1390.5" font-family="Helvetica,sans-Serif" font-size="10.00">&#45; Data</text>
<text text-anchor="start" x="452.5" y="-1379.5" font-family="Helvetica,sans-Serif" font-size="10.00">&#45; Count</text>
<text text-anchor="start" x="452.5" y="-1368.5" font-family="Helvetica,sans-Serif" font-size="10.00">&#45; Max</text>
<polyline fill="none" stroke="black" points="444.5,-1361.5 541.5,-1361.5 "/>
<text text-anchor="start" x="452.5" y="-1349.5" font-family="Helvetica,sans-Serif" font-size="10.00">+ TArray()</text>
<text text-anchor="start" x="452.5" y="-1338.5" font-family="Helvetica,sans-Serif" font-size="10.00">+ Num()</text>
<text text-anchor="start" x="452.5" y="-1327.5" font-family="Helvetica,sans-Serif" font-size="10.00">+ operator[]()</text>
<text text-anchor="start" x="452.5" y="-1316.5" font-family="Helvetica,sans-Serif" font-size="10.00">+ operator[]()</text>
<text text-anchor="start" x="452.5" y="-1305.5" font-family="Helvetica,sans-Serif" font-size="10.00">+ IsValidIndex()</text>
<text text-anchor="start" x="452.5" y="-1294.5" font-family="Helvetica,sans-Serif" font-size="10.00">+ GetByIndex()</text>
<text text-anchor="start" x="452.5" y="-1283.5" font-family="Helvetica,sans-Serif" font-size="10.00">+ GetByIndex()</text>
</a>
</g>
</g>
<!-- Node7&#45;&gt;Node5 -->
<g id="edge6" class="edge">
<title>Node7&#45;&gt;Node5</title>
<path fill="none" stroke="orange" d="M435.58,-1318.16C411.57,-1303.06 385.29,-1282.67 368,-1258 361.87,-1249.25 357.13,-1239.14 353.46,-1228.84"/>
<polygon fill="orange" stroke="orange" points="433.94,-1321.26 444.3,-1323.48 437.59,-1315.28 433.94,-1321.26"/>
<text text-anchor="middle" x="423.5" y="-1250" font-family="Helvetica,sans-Serif" font-size="10.00"> &lt; SDK::FNameEntry * &gt;</text>
</g>
<!-- Node7&#45;&gt;Node8 -->
<g id="edge10" class="edge">
<title>Node7&#45;&gt;Node8</title>
<path fill="none" stroke="orange" d="M493,-1265.93C493,-1233.68 493,-1196.35 493,-1162.5 493,-1162.5 493,-1162.5 493,-730.5 493,-669.7 463.72,-606.92 436.38,-561.57"/>
<polygon fill="orange" stroke="orange" points="489.5,-1266.21 493,-1276.21 496.5,-1266.21 489.5,-1266.21"/>
<text text-anchor="middle" x="538.5" y="-982.5" font-family="Helvetica,sans-Serif" font-size="10.00"> &lt; SDK::UObject * &gt;</text>
</g>
<!-- Node7&#45;&gt;Node14 -->
<g id="edge22" class="edge">
<title>Node7&#45;&gt;Node14</title>
<path fill="none" stroke="orange" d="M548.85,-1300.12C582.54,-1265.72 619,-1216.11 619,-1162.5 619,-1162.5 619,-1162.5 619,-493.5 619,-445.76 622.13,-431.56 605,-387 602.62,-380.8 599.73,-374.62 596.51,-368.55"/>
<polygon fill="orange" stroke="orange" points="546.33,-1297.69 541.71,-1307.23 551.27,-1302.65 546.33,-1297.69"/>
<text text-anchor="middle" x="689" y="-886" font-family="Helvetica,sans-Serif" font-size="10.00"> &lt; class SDK::USoundNode * &gt;</text>
</g>
<!-- Node8&#45;&gt;Node2 -->
<g id="edge8" class="edge">
<title>Node8&#45;&gt;Node2</title>
<path fill="none" stroke="#404040" d="M342.44,-561.63C333.9,-573.51 324.72,-586.27 315.39,-599.25"/>
<polygon fill="none" stroke="#404040" points="315.23,-599.47 314.97,-606.68 308.22,-609.21 308.48,-602.01 315.23,-599.47"/>
<text text-anchor="middle" x="351.5" y="-583" font-family="Helvetica,sans-Serif" font-size="10.00"> +GObjects</text>
</g>
<!-- Node9 -->
<g id="node9" class="node">
<title>Node9</title>
<g id="a_node9"><a xlink:href="../../d9/dfa/structSDK_1_1FPointer.html" target="_top" xlink:title=" ">
<polygon fill="white" stroke="black" points="172,-951 172,-1019 270,-1019 270,-951 172,-951"/>
<text text-anchor="middle" x="221" y="-1007" font-family="Helvetica,sans-Serif" font-size="10.00">SDK::FPointer</text>
<polyline fill="none" stroke="black" points="172,-1000 270,-1000 "/>
<text text-anchor="start" x="180" y="-988" font-family="Helvetica,sans-Serif" font-size="10.00">+ Dummy</text>
<text text-anchor="start" x="180" y="-977" font-family="Helvetica,sans-Serif" font-size="10.00">+ UnknownData00</text>
<polyline fill="none" stroke="black" points="172,-970 270,-970 "/>
<text text-anchor="middle" x="221" y="-958" font-family="Helvetica,sans-Serif" font-size="10.00"> </text>
</a>
</g>
</g>
<!-- Node9&#45;&gt;Node2 -->
<g id="edge11" class="edge">
<title>Node9&#45;&gt;Node2</title>
<path fill="none" stroke="#404040" d="M221,-950.86C221,-928.57 221,-897.56 221,-865.9"/>
<polygon fill="none" stroke="#404040" points="221,-865.75 217,-859.75 221,-853.75 225,-859.75 221,-865.75"/>
<text text-anchor="middle" x="255.5" y="-897" font-family="Helvetica,sans-Serif" font-size="10.00"> +StateFrame</text>
<text text-anchor="middle" x="255.5" y="-886" font-family="Helvetica,sans-Serif" font-size="10.00">+VfTableObject</text>
<text text-anchor="middle" x="255.5" y="-875" font-family="Helvetica,sans-Serif" font-size="10.00">+LinkerIndex</text>
</g>
<!-- Node10&#45;&gt;Node2 -->
<g id="edge12" class="edge">
<title>Node10&#45;&gt;Node2</title>
<path fill="none" stroke="#404040" d="M131,-90.72C131,-110.67 131,-134.52 131,-156 131,-495.5 131,-495.5 131,-495.5 131,-529.89 139.51,-565.35 151.3,-597.97"/>
<polygon fill="none" stroke="#404040" points="151.36,-598.16 157.22,-602.36 155.59,-609.39 149.74,-605.18 151.36,-598.16"/>
<text text-anchor="middle" x="148.5" y="-293.5" font-family="Helvetica,sans-Serif" font-size="10.00"> +Class</text>
</g>
<!-- Node11 -->
<g id="node11" class="node">
<title>Node11</title>
<g id="a_node11"><a xlink:href="../../df/d72/classSDK_1_1UState.html" target="_top" xlink:title=" ">
<polygon fill="white" stroke="black" points="171,-128.5 171,-185.5 269,-185.5 269,-128.5 171,-128.5"/>
<text text-anchor="middle" x="220" y="-173.5" font-family="Helvetica,sans-Serif" font-size="10.00">SDK::UState</text>
<polyline fill="none" stroke="black" points="171,-166.5 269,-166.5 "/>
<text text-anchor="start" x="179" y="-154.5" font-family="Helvetica,sans-Serif" font-size="10.00">+ UnknownData00</text>
<polyline fill="none" stroke="black" points="171,-147.5 269,-147.5 "/>
<text text-anchor="start" x="179" y="-135.5" font-family="Helvetica,sans-Serif" font-size="10.00">+ StaticClass()</text>
</a>
</g>
</g>
<!-- Node11&#45;&gt;Node10 -->
<g id="edge13" class="edge">
<title>Node11&#45;&gt;Node10</title>
<path fill="none" stroke="midnightblue" d="M191.01,-120.33C183.33,-110.89 174.95,-100.58 166.96,-90.74"/>
<polygon fill="none" stroke="midnightblue" points="188.52,-122.82 197.54,-128.37 193.95,-118.4 188.52,-122.82"/>
</g>
<!-- Node12 -->
<g id="node12" class="node">
<title>Node12</title>
<g id="a_node12"><a xlink:href="../../d8/de9/classSDK_1_1UStruct.html" target="_top" xlink:title=" ">
<polygon fill="white" stroke="black" points="184,-256.5 184,-335.5 282,-335.5 282,-256.5 184,-256.5"/>
<text text-anchor="middle" x="233" y="-323.5" font-family="Helvetica,sans-Serif" font-size="10.00">SDK::UStruct</text>
<polyline fill="none" stroke="black" points="184,-316.5 282,-316.5 "/>
<text text-anchor="start" x="192" y="-304.5" font-family="Helvetica,sans-Serif" font-size="10.00">+ UnknownData00</text>
<text text-anchor="start" x="192" y="-293.5" font-family="Helvetica,sans-Serif" font-size="10.00">+ PropertySize</text>
<text text-anchor="start" x="192" y="-282.5" font-family="Helvetica,sans-Serif" font-size="10.00">+ UnknownData01</text>
<polyline fill="none" stroke="black" points="184,-275.5 282,-275.5 "/>
<text text-anchor="start" x="192" y="-263.5" font-family="Helvetica,sans-Serif" font-size="10.00">+ StaticClass()</text>
</a>
</g>
</g>
<!-- Node12&#45;&gt;Node11 -->
<g id="edge14" class="edge">
<title>Node12&#45;&gt;Node11</title>
<path fill="none" stroke="midnightblue" d="M228.39,-246.43C226.46,-226.11 224.29,-203.22 222.64,-185.82"/>
<polygon fill="none" stroke="midnightblue" points="224.92,-246.85 229.34,-256.47 231.88,-246.19 224.92,-246.85"/>
</g>
<!-- Node13&#45;&gt;Node12 -->
<g id="edge15" class="edge">
<title>Node13&#45;&gt;Node12</title>
<path fill="none" stroke="midnightblue" d="M221.53,-456.88C228.54,-442.43 235.49,-425.38 239,-409 244.15,-385.01 242.77,-357.5 240.05,-335.75"/>
<polygon fill="none" stroke="midnightblue" points="218.33,-455.46 216.96,-465.97 224.58,-458.61 218.33,-455.46"/>
</g>
<!-- Node13&#45;&gt;Node12 -->
<g id="edge18" class="edge">
<title>Node13&#45;&gt;Node12</title>
<path fill="none" stroke="#404040" d="M188.06,-465.68C179.72,-444.05 171.69,-413.38 179,-387 182.91,-372.87 189.7,-358.73 197.17,-345.98"/>
<polygon fill="none" stroke="#404040" points="197.26,-345.85 197,-338.64 203.56,-335.63 203.81,-342.84 197.26,-345.85"/>
<text text-anchor="middle" x="207" y="-401" font-family="Helvetica,sans-Serif" font-size="10.00"> +SuperField</text>
<text text-anchor="middle" x="207" y="-390" font-family="Helvetica,sans-Serif" font-size="10.00">+Children</text>
</g>
<!-- Node13&#45;&gt;Node13 -->
<g id="edge17" class="edge">
<title>Node13&#45;&gt;Node13</title>
<path fill="none" stroke="#404040" d="M242.71,-511.11C252.91,-509.88 260.5,-504.34 260.5,-494.5 260.5,-488.96 258.1,-484.79 254.18,-481.98"/>
<polygon fill="none" stroke="#404040" points="254.01,-481.92 247.01,-483.67 242.71,-477.89 249.7,-476.13 254.01,-481.92"/>
<text text-anchor="middle" x="276" y="-492" font-family="Helvetica,sans-Serif" font-size="10.00"> +Next</text>
</g>
<!-- Node14&#45;&gt;Node1 -->
<g id="edge20" class="edge">
<title>Node14&#45;&gt;Node1</title>
<path fill="none" stroke="#404040" d="M541.91,-368.63C541.47,-397.34 540.98,-429.33 540.61,-453.75"/>
<polygon fill="none" stroke="#404040" points="540.61,-453.76 544.51,-459.82 540.42,-465.76 536.52,-459.7 540.61,-453.76"/>
<text text-anchor="middle" x="571.5" y="-395.5" font-family="Helvetica,sans-Serif" font-size="10.00"> +ChildNodes</text>
</g>
</g>
</svg>
