<?xml version="1.0" encoding="UTF-8" standalone="no"?>
<!DOCTYPE svg PUBLIC "-//W3C//DTD SVG 1.1//EN"
 "http://www.w3.org/Graphics/SVG/1.1/DTD/svg11.dtd">
<!-- Generated by graphviz version 2.41.20171026.1811 (20171026.1811)
 -->
<!-- Title: SDK::UTexture2DComposite Pages: 1 -->
<svg width="206pt" height="959pt"
 viewBox="0.00 0.00 206.00 959.00" xmlns="http://www.w3.org/2000/svg" xmlns:xlink="http://www.w3.org/1999/xlink">
<g id="graph0" class="graph" transform="scale(1 1) rotate(0) translate(4 955)">
<title>SDK::UTexture2DComposite</title>
<polygon fill="white" stroke="transparent" points="-4,4 -4,-955 202,-955 202,4 -4,4"/>
<!-- Node1 -->
<g id="node1" class="node">
<title>Node1</title>
<g id="a_node1"><a xlink:title=" ">
<polygon fill="#bfbfbf" stroke="black" points="13,-116.5 13,-239.5 185,-239.5 185,-116.5 13,-116.5"/>
<text text-anchor="middle" x="99" y="-227.5" font-family="Helvetica,sans-Serif" font-size="10.00">SDK::UTexture2DComposite</text>
<polyline fill="none" stroke="black" points="13,-220.5 185,-220.5 "/>
<text text-anchor="start" x="21" y="-208.5" font-family="Helvetica,sans-Serif" font-size="10.00">+ SourceRegions</text>
<text text-anchor="start" x="21" y="-197.5" font-family="Helvetica,sans-Serif" font-size="10.00">+ MaxTextureSize</text>
<text text-anchor="start" x="21" y="-186.5" font-family="Helvetica,sans-Serif" font-size="10.00">+ DestSizeX</text>
<text text-anchor="start" x="21" y="-175.5" font-family="Helvetica,sans-Serif" font-size="10.00">+ DestSizeY</text>
<polyline fill="none" stroke="black" points="13,-168.5 185,-168.5 "/>
<text text-anchor="start" x="21" y="-156.5" font-family="Helvetica,sans-Serif" font-size="10.00">+ ResetSourceRegions()</text>
<text text-anchor="start" x="21" y="-145.5" font-family="Helvetica,sans-Serif" font-size="10.00">+ UpdateCompositeTexture()</text>
<text text-anchor="start" x="21" y="-134.5" font-family="Helvetica,sans-Serif" font-size="10.00">+ SourceTexturesFullyStreamedIn()</text>
<text text-anchor="start" x="21" y="-123.5" font-family="Helvetica,sans-Serif" font-size="10.00">+ StaticClass()</text>
</a>
</g>
</g>
<!-- Node5 -->
<g id="node5" class="node">
<title>Node5</title>
<g id="a_node5"><a xlink:href="../../d0/d03/classSDK_1_1UEFTexture2DComposite.html" target="_top" xlink:title=" ">
<polygon fill="white" stroke="black" points="20.5,-0.5 20.5,-79.5 177.5,-79.5 177.5,-0.5 20.5,-0.5"/>
<text text-anchor="middle" x="99" y="-67.5" font-family="Helvetica,sans-Serif" font-size="10.00">SDK::UEFTexture2DComposite</text>
<polyline fill="none" stroke="black" points="20.5,-60.5 177.5,-60.5 "/>
<text text-anchor="start" x="28.5" y="-48.5" font-family="Helvetica,sans-Serif" font-size="10.00">+ SamplerAddressX</text>
<text text-anchor="start" x="28.5" y="-37.5" font-family="Helvetica,sans-Serif" font-size="10.00">+ SamplerAddressY</text>
<text text-anchor="start" x="28.5" y="-26.5" font-family="Helvetica,sans-Serif" font-size="10.00">+ SamplerAddressZ</text>
<polyline fill="none" stroke="black" points="20.5,-19.5 177.5,-19.5 "/>
<text text-anchor="start" x="28.5" y="-7.5" font-family="Helvetica,sans-Serif" font-size="10.00">+ StaticClass()</text>
</a>
</g>
</g>
<!-- Node1&#45;&gt;Node5 -->
<g id="edge4" class="edge">
<title>Node1&#45;&gt;Node5</title>
<path fill="none" stroke="midnightblue" d="M99,-105.91C99,-96.83 99,-87.82 99,-79.54"/>
<polygon fill="none" stroke="midnightblue" points="95.5,-106.16 99,-116.16 102.5,-106.16 95.5,-106.16"/>
</g>
<!-- Node2 -->
<g id="node2" class="node">
<title>Node2</title>
<g id="a_node2"><a xlink:href="../../d8/da8/classSDK_1_1UTexture.html" target="_top" xlink:title=" ">
<polygon fill="white" stroke="black" points="15.5,-276.5 15.5,-443.5 182.5,-443.5 182.5,-276.5 15.5,-276.5"/>
<text text-anchor="middle" x="99" y="-431.5" font-family="Helvetica,sans-Serif" font-size="10.00">SDK::UTexture</text>
<polyline fill="none" stroke="black" points="15.5,-424.5 182.5,-424.5 "/>
<text text-anchor="start" x="23.5" y="-412.5" font-family="Helvetica,sans-Serif" font-size="10.00">+ SRGB</text>
<text text-anchor="start" x="23.5" y="-401.5" font-family="Helvetica,sans-Serif" font-size="10.00">+ RGBE</text>
<text text-anchor="start" x="23.5" y="-390.5" font-family="Helvetica,sans-Serif" font-size="10.00">+ bIsSourceArtUncompressed</text>
<text text-anchor="start" x="23.5" y="-379.5" font-family="Helvetica,sans-Serif" font-size="10.00">+ CompressionNoAlpha</text>
<text text-anchor="start" x="23.5" y="-368.5" font-family="Helvetica,sans-Serif" font-size="10.00">+ CompressionNone</text>
<text text-anchor="start" x="23.5" y="-357.5" font-family="Helvetica,sans-Serif" font-size="10.00">+ CompressionNoMipmaps</text>
<text text-anchor="start" x="23.5" y="-346.5" font-family="Helvetica,sans-Serif" font-size="10.00">+ CompressionFullDynamicRange</text>
<text text-anchor="start" x="23.5" y="-335.5" font-family="Helvetica,sans-Serif" font-size="10.00">+ DeferCompression</text>
<text text-anchor="start" x="23.5" y="-324.5" font-family="Helvetica,sans-Serif" font-size="10.00">+ NeverStream</text>
<text text-anchor="start" x="23.5" y="-313.5" font-family="Helvetica,sans-Serif" font-size="10.00">+ bDitherMipMapAlpha</text>
<text text-anchor="start" x="23.5" y="-302.5" font-family="Helvetica,sans-Serif" font-size="10.00">and 31 more...</text>
<polyline fill="none" stroke="black" points="15.5,-295.5 182.5,-295.5 "/>
<text text-anchor="start" x="23.5" y="-283.5" font-family="Helvetica,sans-Serif" font-size="10.00">+ StaticClass()</text>
</a>
</g>
</g>
<!-- Node2&#45;&gt;Node1 -->
<g id="edge1" class="edge">
<title>Node2&#45;&gt;Node1</title>
<path fill="none" stroke="midnightblue" d="M99,-266.19C99,-257.17 99,-248.19 99,-239.61"/>
<polygon fill="none" stroke="midnightblue" points="95.5,-266.38 99,-276.38 102.5,-266.38 95.5,-266.38"/>
</g>
<!-- Node3 -->
<g id="node3" class="node">
<title>Node3</title>
<g id="a_node3"><a xlink:href="../../de/dd8/classSDK_1_1USurface.html" target="_top" xlink:title=" ">
<polygon fill="white" stroke="black" points="44,-480.5 44,-559.5 154,-559.5 154,-480.5 44,-480.5"/>
<text text-anchor="middle" x="99" y="-547.5" font-family="Helvetica,sans-Serif" font-size="10.00">SDK::USurface</text>
<polyline fill="none" stroke="black" points="44,-540.5 154,-540.5 "/>
<text text-anchor="middle" x="99" y="-528.5" font-family="Helvetica,sans-Serif" font-size="10.00"> </text>
<polyline fill="none" stroke="black" points="44,-521.5 154,-521.5 "/>
<text text-anchor="start" x="52" y="-509.5" font-family="Helvetica,sans-Serif" font-size="10.00">+ GetSurfaceHeight()</text>
<text text-anchor="start" x="52" y="-498.5" font-family="Helvetica,sans-Serif" font-size="10.00">+ GetSurfaceWidth()</text>
<text text-anchor="start" x="52" y="-487.5" font-family="Helvetica,sans-Serif" font-size="10.00">+ StaticClass()</text>
</a>
</g>
</g>
<!-- Node3&#45;&gt;Node2 -->
<g id="edge2" class="edge">
<title>Node3&#45;&gt;Node2</title>
<path fill="none" stroke="midnightblue" d="M99,-470.26C99,-461.74 99,-452.67 99,-443.53"/>
<polygon fill="none" stroke="midnightblue" points="95.5,-470.35 99,-480.35 102.5,-470.35 95.5,-470.35"/>
</g>
<!-- Node4 -->
<g id="node4" class="node">
<title>Node4</title>
<g id="a_node4"><a xlink:href="../../d9/d45/classSDK_1_1UObject.html" target="_top" xlink:title=" ">
<polygon fill="white" stroke="black" points="0,-596.5 0,-950.5 198,-950.5 198,-596.5 0,-596.5"/>
<text text-anchor="middle" x="99" y="-938.5" font-family="Helvetica,sans-Serif" font-size="10.00">SDK::UObject</text>
<polyline fill="none" stroke="black" points="0,-931.5 198,-931.5 "/>
<text text-anchor="start" x="8" y="-919.5" font-family="Helvetica,sans-Serif" font-size="10.00">+ VfTableObject</text>
<text text-anchor="start" x="8" y="-908.5" font-family="Helvetica,sans-Serif" font-size="10.00">+ ObjectFlags</text>
<text text-anchor="start" x="8" y="-897.5" font-family="Helvetica,sans-Serif" font-size="10.00">+ StateFrame</text>
<text text-anchor="start" x="8" y="-886.5" font-family="Helvetica,sans-Serif" font-size="10.00">+ Linker</text>
<text text-anchor="start" x="8" y="-875.5" font-family="Helvetica,sans-Serif" font-size="10.00">+ LinkerIndex</text>
<text text-anchor="start" x="8" y="-864.5" font-family="Helvetica,sans-Serif" font-size="10.00">+ ObjectInternalInteger</text>
<text text-anchor="start" x="8" y="-853.5" font-family="Helvetica,sans-Serif" font-size="10.00">+ NetIndex</text>
<text text-anchor="start" x="8" y="-842.5" font-family="Helvetica,sans-Serif" font-size="10.00">+ Outer</text>
<text text-anchor="start" x="8" y="-831.5" font-family="Helvetica,sans-Serif" font-size="10.00">+ Name</text>
<text text-anchor="start" x="8" y="-820.5" font-family="Helvetica,sans-Serif" font-size="10.00">+ Class</text>
<text text-anchor="start" x="8" y="-809.5" font-family="Helvetica,sans-Serif" font-size="10.00">+ ObjectArchetype</text>
<text text-anchor="start" x="8" y="-798.5" font-family="Helvetica,sans-Serif" font-size="10.00">+ GObjects</text>
<polyline fill="none" stroke="black" points="0,-791.5 198,-791.5 "/>
<text text-anchor="start" x="8" y="-779.5" font-family="Helvetica,sans-Serif" font-size="10.00">+ UObject::GetName()</text>
<text text-anchor="start" x="8" y="-768.5" font-family="Helvetica,sans-Serif" font-size="10.00">+ GetFullName()</text>
<text text-anchor="start" x="8" y="-757.5" font-family="Helvetica,sans-Serif" font-size="10.00">+ IsA()</text>
<text text-anchor="start" x="8" y="-746.5" font-family="Helvetica,sans-Serif" font-size="10.00">+ ProcessEvent()</text>
<text text-anchor="start" x="8" y="-735.5" font-family="Helvetica,sans-Serif" font-size="10.00">+ STATIC_ProfNodeEvent()</text>
<text text-anchor="start" x="8" y="-724.5" font-family="Helvetica,sans-Serif" font-size="10.00">+ STATIC_ProfNodeSetDepthThreshold()</text>
<text text-anchor="start" x="8" y="-713.5" font-family="Helvetica,sans-Serif" font-size="10.00">+ STATIC_ProfNodeSetTimeThreshold</text>
<text text-anchor="start" x="8" y="-702.5" font-family="Helvetica,sans-Serif" font-size="10.00">Seconds()</text>
<text text-anchor="start" x="8" y="-691.5" font-family="Helvetica,sans-Serif" font-size="10.00">+ STATIC_ProfNodeStop()</text>
<text text-anchor="start" x="8" y="-680.5" font-family="Helvetica,sans-Serif" font-size="10.00">+ STATIC_ProfNodeStart()</text>
<text text-anchor="start" x="8" y="-669.5" font-family="Helvetica,sans-Serif" font-size="10.00">+ STATIC_GetStringFromGuid()</text>
<text text-anchor="start" x="8" y="-658.5" font-family="Helvetica,sans-Serif" font-size="10.00">and 298 more...</text>
<text text-anchor="start" x="8" y="-647.5" font-family="Helvetica,sans-Serif" font-size="10.00">+ GetGlobalObjects()</text>
<text text-anchor="start" x="8" y="-636.5" font-family="Helvetica,sans-Serif" font-size="10.00">+ FindObject()</text>
<text text-anchor="start" x="8" y="-625.5" font-family="Helvetica,sans-Serif" font-size="10.00">+ FindClass()</text>
<text text-anchor="start" x="8" y="-614.5" font-family="Helvetica,sans-Serif" font-size="10.00">+ GetObjectCasted()</text>
<text text-anchor="start" x="8" y="-603.5" font-family="Helvetica,sans-Serif" font-size="10.00">+ StaticClass()</text>
</a>
</g>
</g>
<!-- Node4&#45;&gt;Node3 -->
<g id="edge3" class="edge">
<title>Node4&#45;&gt;Node3</title>
<path fill="none" stroke="midnightblue" d="M99,-586.31C99,-576.77 99,-567.84 99,-559.83"/>
<polygon fill="none" stroke="midnightblue" points="95.5,-586.46 99,-596.46 102.5,-586.46 95.5,-586.46"/>
</g>
</g>
</svg>
