<?xml version="1.0" encoding="UTF-8" standalone="no"?>
<!DOCTYPE svg PUBLIC "-//W3C//DTD SVG 1.1//EN"
 "http://www.w3.org/Graphics/SVG/1.1/DTD/svg11.dtd">
<!-- Generated by graphviz version 2.41.20171026.1811 (20171026.1811)
 -->
<!-- Title: SDK::UPath_AvoidInEscapableNodes Pages: 1 -->
<svg width="717pt" height="1419pt"
 viewBox="0.00 0.00 717.00 1419.00" xmlns="http://www.w3.org/2000/svg" xmlns:xlink="http://www.w3.org/1999/xlink">
<g id="graph0" class="graph" transform="scale(1 1) rotate(0) translate(4 1415)">
<title>SDK::UPath_AvoidInEscapableNodes</title>
<polygon fill="white" stroke="transparent" points="-4,4 -4,-1415 713,-1415 713,4 -4,4"/>
<!-- Node1 -->
<g id="node1" class="node">
<title>Node1</title>
<g id="a_node1"><a xlink:title=" ">
<polygon fill="#bfbfbf" stroke="black" points="160,-223.5 160,-357.5 315,-357.5 315,-223.5 160,-223.5"/>
<text text-anchor="start" x="168" y="-345.5" font-family="Helvetica,sans-Serif" font-size="10.00">SDK::UPath_AvoidInEscapable</text>
<text text-anchor="middle" x="237.5" y="-334.5" font-family="Helvetica,sans-Serif" font-size="10.00">Nodes</text>
<polyline fill="none" stroke="black" points="160,-327.5 315,-327.5 "/>
<text text-anchor="start" x="168" y="-315.5" font-family="Helvetica,sans-Serif" font-size="10.00">+ Radius</text>
<text text-anchor="start" x="168" y="-304.5" font-family="Helvetica,sans-Serif" font-size="10.00">+ Height</text>
<text text-anchor="start" x="168" y="-293.5" font-family="Helvetica,sans-Serif" font-size="10.00">+ MaxFallSpeed</text>
<text text-anchor="start" x="168" y="-282.5" font-family="Helvetica,sans-Serif" font-size="10.00">+ MoveFlags</text>
<polyline fill="none" stroke="black" points="160,-275.5 315,-275.5 "/>
<text text-anchor="start" x="168" y="-263.5" font-family="Helvetica,sans-Serif" font-size="10.00">+ Recycle()</text>
<text text-anchor="start" x="168" y="-252.5" font-family="Helvetica,sans-Serif" font-size="10.00">+ STATIC_DontGetStuck()</text>
<text text-anchor="start" x="168" y="-241.5" font-family="Helvetica,sans-Serif" font-size="10.00">+ CachePawnReacFlags()</text>
<text text-anchor="start" x="168" y="-230.5" font-family="Helvetica,sans-Serif" font-size="10.00">+ StaticClass()</text>
</a>
</g>
</g>
<!-- Node2 -->
<g id="node2" class="node">
<title>Node2</title>
<g id="a_node2"><a xlink:href="../../db/d23/classSDK_1_1UPathConstraint.html" target="_top" xlink:title=" ">
<polygon fill="white" stroke="black" points="179.5,-444 179.5,-523 295.5,-523 295.5,-444 179.5,-444"/>
<text text-anchor="middle" x="237.5" y="-511" font-family="Helvetica,sans-Serif" font-size="10.00">SDK::UPathConstraint</text>
<polyline fill="none" stroke="black" points="179.5,-504 295.5,-504 "/>
<text text-anchor="start" x="187.5" y="-492" font-family="Helvetica,sans-Serif" font-size="10.00">+ CacheIdx</text>
<polyline fill="none" stroke="black" points="179.5,-485 295.5,-485 "/>
<text text-anchor="start" x="187.5" y="-473" font-family="Helvetica,sans-Serif" font-size="10.00">+ GetDumpString()</text>
<text text-anchor="start" x="187.5" y="-462" font-family="Helvetica,sans-Serif" font-size="10.00">+ Recycle()</text>
<text text-anchor="start" x="187.5" y="-451" font-family="Helvetica,sans-Serif" font-size="10.00">+ StaticClass()</text>
</a>
</g>
</g>
<!-- Node2&#45;&gt;Node1 -->
<g id="edge1" class="edge">
<title>Node2&#45;&gt;Node1</title>
<path fill="none" stroke="midnightblue" d="M237.5,-433.59C237.5,-410.47 237.5,-382.53 237.5,-357.56"/>
<polygon fill="none" stroke="midnightblue" points="234,-433.85 237.5,-443.85 241,-433.85 234,-433.85"/>
</g>
<!-- Node2&#45;&gt;Node2 -->
<g id="edge21" class="edge">
<title>Node2&#45;&gt;Node2</title>
<path fill="none" stroke="#404040" d="M295.81,-499.39C306.23,-497.32 313.5,-492.03 313.5,-483.5 313.5,-478.57 311.07,-474.72 307.01,-471.95"/>
<polygon fill="none" stroke="#404040" points="307,-471.95 299.96,-473.51 295.81,-467.61 302.85,-466.05 307,-471.95"/>
<text text-anchor="middle" x="351.5" y="-481" font-family="Helvetica,sans-Serif" font-size="10.00"> +NextConstraint</text>
</g>
<!-- Node3 -->
<g id="node3" class="node">
<title>Node3</title>
<g id="a_node3"><a xlink:href="../../d9/d45/classSDK_1_1UObject.html" target="_top" xlink:title=" ">
<polygon fill="white" stroke="black" points="266.5,-598.5 266.5,-842.5 464.5,-842.5 464.5,-598.5 266.5,-598.5"/>
<text text-anchor="middle" x="365.5" y="-830.5" font-family="Helvetica,sans-Serif" font-size="10.00">SDK::UObject</text>
<polyline fill="none" stroke="black" points="266.5,-823.5 464.5,-823.5 "/>
<text text-anchor="start" x="274.5" y="-811.5" font-family="Helvetica,sans-Serif" font-size="10.00">+ ObjectInternalInteger</text>
<text text-anchor="start" x="274.5" y="-800.5" font-family="Helvetica,sans-Serif" font-size="10.00">+ NetIndex</text>
<polyline fill="none" stroke="black" points="266.5,-793.5 464.5,-793.5 "/>
<text text-anchor="start" x="274.5" y="-781.5" font-family="Helvetica,sans-Serif" font-size="10.00">+ UObject::GetName()</text>
<text text-anchor="start" x="274.5" y="-770.5" font-family="Helvetica,sans-Serif" font-size="10.00">+ GetFullName()</text>
<text text-anchor="start" x="274.5" y="-759.5" font-family="Helvetica,sans-Serif" font-size="10.00">+ IsA()</text>
<text text-anchor="start" x="274.5" y="-748.5" font-family="Helvetica,sans-Serif" font-size="10.00">+ ProcessEvent()</text>
<text text-anchor="start" x="274.5" y="-737.5" font-family="Helvetica,sans-Serif" font-size="10.00">+ STATIC_ProfNodeEvent()</text>
<text text-anchor="start" x="274.5" y="-726.5" font-family="Helvetica,sans-Serif" font-size="10.00">+ STATIC_ProfNodeSetDepthThreshold()</text>
<text text-anchor="start" x="274.5" y="-715.5" font-family="Helvetica,sans-Serif" font-size="10.00">+ STATIC_ProfNodeSetTimeThreshold</text>
<text text-anchor="start" x="274.5" y="-704.5" font-family="Helvetica,sans-Serif" font-size="10.00">Seconds()</text>
<text text-anchor="start" x="274.5" y="-693.5" font-family="Helvetica,sans-Serif" font-size="10.00">+ STATIC_ProfNodeStop()</text>
<text text-anchor="start" x="274.5" y="-682.5" font-family="Helvetica,sans-Serif" font-size="10.00">+ STATIC_ProfNodeStart()</text>
<text text-anchor="start" x="274.5" y="-671.5" font-family="Helvetica,sans-Serif" font-size="10.00">+ STATIC_GetStringFromGuid()</text>
<text text-anchor="start" x="274.5" y="-660.5" font-family="Helvetica,sans-Serif" font-size="10.00">and 298 more...</text>
<text text-anchor="start" x="274.5" y="-649.5" font-family="Helvetica,sans-Serif" font-size="10.00">+ GetGlobalObjects()</text>
<text text-anchor="start" x="274.5" y="-638.5" font-family="Helvetica,sans-Serif" font-size="10.00">+ FindObject()</text>
<text text-anchor="start" x="274.5" y="-627.5" font-family="Helvetica,sans-Serif" font-size="10.00">+ FindClass()</text>
<text text-anchor="start" x="274.5" y="-616.5" font-family="Helvetica,sans-Serif" font-size="10.00">+ GetObjectCasted()</text>
<text text-anchor="start" x="274.5" y="-605.5" font-family="Helvetica,sans-Serif" font-size="10.00">+ StaticClass()</text>
</a>
</g>
</g>
<!-- Node3&#45;&gt;Node2 -->
<g id="edge2" class="edge">
<title>Node3&#45;&gt;Node2</title>
<path fill="none" stroke="midnightblue" d="M314.29,-588.82C310.81,-582.03 307.21,-575.38 303.5,-569 294.33,-553.23 282.5,-537.15 271.41,-523.31"/>
<polygon fill="none" stroke="midnightblue" points="311.35,-590.77 318.94,-598.16 317.61,-587.64 311.35,-590.77"/>
</g>
<!-- Node3&#45;&gt;Node3 -->
<g id="edge8" class="edge">
<title>Node3&#45;&gt;Node3</title>
<path fill="none" stroke="#404040" d="M464.51,-743.53C475.44,-739.15 482.5,-731.48 482.5,-720.5 482.5,-713.64 479.74,-708.07 475.01,-703.78"/>
<polygon fill="none" stroke="#404040" points="474.8,-703.66 467.59,-703.99 464.51,-697.47 471.72,-697.14 474.8,-703.66"/>
<text text-anchor="middle" x="522" y="-729" font-family="Helvetica,sans-Serif" font-size="10.00"> +Outer</text>
<text text-anchor="middle" x="522" y="-718" font-family="Helvetica,sans-Serif" font-size="10.00">+Linker</text>
<text text-anchor="middle" x="522" y="-707" font-family="Helvetica,sans-Serif" font-size="10.00">+ObjectArchetype</text>
</g>
<!-- Node9 -->
<g id="node9" class="node">
<title>Node9</title>
<g id="a_node9"><a xlink:href="../../d3/d79/classSDK_1_1TArray.html" target="_top" xlink:title=" ">
<polygon fill="white" stroke="black" points="0,-416.5 0,-550.5 161,-550.5 161,-416.5 0,-416.5"/>
<text text-anchor="middle" x="80.5" y="-538.5" font-family="Helvetica,sans-Serif" font-size="10.00">SDK::TArray&lt; SDK::UObject * &gt;</text>
<polyline fill="none" stroke="black" points="0,-531.5 161,-531.5 "/>
<text text-anchor="start" x="8" y="-519.5" font-family="Helvetica,sans-Serif" font-size="10.00">&#45; Count</text>
<text text-anchor="start" x="8" y="-508.5" font-family="Helvetica,sans-Serif" font-size="10.00">&#45; Max</text>
<polyline fill="none" stroke="black" points="0,-501.5 161,-501.5 "/>
<text text-anchor="start" x="8" y="-489.5" font-family="Helvetica,sans-Serif" font-size="10.00">+ TArray()</text>
<text text-anchor="start" x="8" y="-478.5" font-family="Helvetica,sans-Serif" font-size="10.00">+ Num()</text>
<text text-anchor="start" x="8" y="-467.5" font-family="Helvetica,sans-Serif" font-size="10.00">+ operator[]()</text>
<text text-anchor="start" x="8" y="-456.5" font-family="Helvetica,sans-Serif" font-size="10.00">+ operator[]()</text>
<text text-anchor="start" x="8" y="-445.5" font-family="Helvetica,sans-Serif" font-size="10.00">+ IsValidIndex()</text>
<text text-anchor="start" x="8" y="-434.5" font-family="Helvetica,sans-Serif" font-size="10.00">+ GetByIndex()</text>
<text text-anchor="start" x="8" y="-423.5" font-family="Helvetica,sans-Serif" font-size="10.00">+ GetByIndex()</text>
</a>
</g>
</g>
<!-- Node3&#45;&gt;Node9 -->
<g id="edge10" class="edge">
<title>Node3&#45;&gt;Node9</title>
<path fill="none" stroke="#404040" d="M266.28,-661.65C230.26,-638.46 190.37,-610.1 157.5,-580 150.65,-573.73 143.91,-566.82 137.42,-559.68"/>
<polygon fill="none" stroke="#404040" points="137.3,-559.54 130.33,-557.69 129.36,-550.54 136.33,-552.4 137.3,-559.54"/>
<text text-anchor="middle" x="171.5" y="-572" font-family="Helvetica,sans-Serif" font-size="10.00"> &#45;Data</text>
</g>
<!-- Node11 -->
<g id="node11" class="node">
<title>Node11</title>
<g id="a_node11"><a xlink:href="../../d7/d85/classSDK_1_1UClass.html" target="_top" xlink:title=" ">
<polygon fill="white" stroke="black" points="488,-0.5 488,-90.5 609,-90.5 609,-0.5 488,-0.5"/>
<text text-anchor="middle" x="548.5" y="-78.5" font-family="Helvetica,sans-Serif" font-size="10.00">SDK::UClass</text>
<polyline fill="none" stroke="black" points="488,-71.5 609,-71.5 "/>
<text text-anchor="start" x="496" y="-59.5" font-family="Helvetica,sans-Serif" font-size="10.00">+ UnknownData00</text>
<text text-anchor="start" x="496" y="-48.5" font-family="Helvetica,sans-Serif" font-size="10.00">+ UnknownData01</text>
<polyline fill="none" stroke="black" points="488,-41.5 609,-41.5 "/>
<text text-anchor="start" x="496" y="-29.5" font-family="Helvetica,sans-Serif" font-size="10.00">+ CreateDefaultObject()</text>
<text text-anchor="start" x="496" y="-18.5" font-family="Helvetica,sans-Serif" font-size="10.00">+ CreateDefaultObject()</text>
<text text-anchor="start" x="496" y="-7.5" font-family="Helvetica,sans-Serif" font-size="10.00">+ StaticClass()</text>
</a>
</g>
</g>
<!-- Node3&#45;&gt;Node11 -->
<g id="edge20" class="edge">
<title>Node3&#45;&gt;Node11</title>
<path fill="none" stroke="#404040" d="M402.81,-598.35C411.11,-562.09 417.5,-522 417.5,-484.5 417.5,-484.5 417.5,-484.5 417.5,-156 417.5,-120.34 446.44,-94.01 477.11,-76.12"/>
<polygon fill="none" stroke="#404040" points="477.47,-75.92 480.8,-69.53 487.98,-70.14 484.65,-76.54 477.47,-75.92"/>
<text text-anchor="middle" x="465" y="-288" font-family="Helvetica,sans-Serif" font-size="10.00"> +ClassDefaultObject</text>
</g>
<!-- Node14 -->
<g id="node14" class="node">
<title>Node14</title>
<g id="a_node14"><a xlink:href="../../de/dd6/classSDK_1_1UField.html" target="_top" xlink:title=" ">
<polygon fill="white" stroke="black" points="577,-455 577,-512 660,-512 660,-455 577,-455"/>
<text text-anchor="middle" x="618.5" y="-500" font-family="Helvetica,sans-Serif" font-size="10.00">SDK::UField</text>
<polyline fill="none" stroke="black" points="577,-493 660,-493 "/>
<text text-anchor="middle" x="618.5" y="-481" font-family="Helvetica,sans-Serif" font-size="10.00"> </text>
<polyline fill="none" stroke="black" points="577,-474 660,-474 "/>
<text text-anchor="start" x="585" y="-462" font-family="Helvetica,sans-Serif" font-size="10.00">+ StaticClass()</text>
</a>
</g>
</g>
<!-- Node3&#45;&gt;Node14 -->
<g id="edge17" class="edge">
<title>Node3&#45;&gt;Node14</title>
<path fill="none" stroke="midnightblue" d="M473.04,-655.61C504.13,-634.04 536.62,-608.2 562.5,-580 581.08,-559.75 596.38,-532.32 606.26,-512.06"/>
<polygon fill="none" stroke="midnightblue" points="471.02,-652.75 464.74,-661.28 474.97,-658.52 471.02,-652.75"/>
</g>
<!-- Node4 -->
<g id="node4" class="node">
<title>Node4</title>
<g id="a_node4"><a xlink:href="../../d0/d22/structSDK_1_1FQWord.html" target="_top" xlink:title=" ">
<polygon fill="white" stroke="black" points="432.5,-940 432.5,-1008 512.5,-1008 512.5,-940 432.5,-940"/>
<text text-anchor="middle" x="472.5" y="-996" font-family="Helvetica,sans-Serif" font-size="10.00">SDK::FQWord</text>
<polyline fill="none" stroke="black" points="432.5,-989 512.5,-989 "/>
<text text-anchor="start" x="440.5" y="-977" font-family="Helvetica,sans-Serif" font-size="10.00">+ A</text>
<text text-anchor="start" x="440.5" y="-966" font-family="Helvetica,sans-Serif" font-size="10.00">+ B</text>
<polyline fill="none" stroke="black" points="432.5,-959 512.5,-959 "/>
<text text-anchor="middle" x="472.5" y="-947" font-family="Helvetica,sans-Serif" font-size="10.00"> </text>
</a>
</g>
</g>
<!-- Node4&#45;&gt;Node3 -->
<g id="edge3" class="edge">
<title>Node4&#45;&gt;Node3</title>
<path fill="none" stroke="#404040" d="M464.12,-939.6C458.04,-917.03 449.04,-886.77 438.5,-861 437.53,-858.63 436.53,-856.24 435.51,-853.85"/>
<polygon fill="none" stroke="#404040" points="435.39,-853.58 429.32,-849.69 430.57,-842.59 436.65,-846.48 435.39,-853.58"/>
<text text-anchor="middle" x="480.5" y="-875" font-family="Helvetica,sans-Serif" font-size="10.00"> +ObjectFlags</text>
</g>
<!-- Node5 -->
<g id="node5" class="node">
<title>Node5</title>
<g id="a_node5"><a xlink:href="../../d0/db6/structSDK_1_1FName.html" target="_top" xlink:title=" ">
<polygon fill="white" stroke="black" points="192,-912.5 192,-1035.5 299,-1035.5 299,-912.5 192,-912.5"/>
<text text-anchor="middle" x="245.5" y="-1023.5" font-family="Helvetica,sans-Serif" font-size="10.00">SDK::FName</text>
<polyline fill="none" stroke="black" points="192,-1016.5 299,-1016.5 "/>
<text text-anchor="start" x="200" y="-1004.5" font-family="Helvetica,sans-Serif" font-size="10.00">+ Index</text>
<text text-anchor="start" x="200" y="-993.5" font-family="Helvetica,sans-Serif" font-size="10.00">+ Number</text>
<polyline fill="none" stroke="black" points="192,-986.5 299,-986.5 "/>
<text text-anchor="start" x="200" y="-974.5" font-family="Helvetica,sans-Serif" font-size="10.00">+ FName()</text>
<text text-anchor="start" x="200" y="-963.5" font-family="Helvetica,sans-Serif" font-size="10.00">+ FName()</text>
<text text-anchor="start" x="200" y="-952.5" font-family="Helvetica,sans-Serif" font-size="10.00">+ FName()</text>
<text text-anchor="start" x="200" y="-941.5" font-family="Helvetica,sans-Serif" font-size="10.00">+ GetName()</text>
<text text-anchor="start" x="200" y="-930.5" font-family="Helvetica,sans-Serif" font-size="10.00">+ operator==()</text>
<text text-anchor="start" x="200" y="-919.5" font-family="Helvetica,sans-Serif" font-size="10.00">+ GetGlobalNames()</text>
</a>
</g>
</g>
<!-- Node5&#45;&gt;Node3 -->
<g id="edge4" class="edge">
<title>Node5&#45;&gt;Node3</title>
<path fill="none" stroke="#404040" d="M274.4,-912.44C282.92,-894.57 292.6,-874.28 302.39,-853.76"/>
<polygon fill="none" stroke="#404040" points="302.51,-853.52 301.48,-846.38 307.68,-842.69 308.7,-849.82 302.51,-853.52"/>
<text text-anchor="middle" x="316.5" y="-875" font-family="Helvetica,sans-Serif" font-size="10.00"> +Name</text>
</g>
<!-- Node6 -->
<g id="node6" class="node">
<title>Node6</title>
<g id="a_node6"><a xlink:href="../../d3/d79/classSDK_1_1TArray.html" target="_top" xlink:title=" ">
<polygon fill="white" stroke="black" points="155.5,-1083.5 155.5,-1217.5 335.5,-1217.5 335.5,-1083.5 155.5,-1083.5"/>
<text text-anchor="middle" x="245.5" y="-1205.5" font-family="Helvetica,sans-Serif" font-size="10.00">SDK::TArray&lt; SDK::FNameEntry * &gt;</text>
<polyline fill="none" stroke="black" points="155.5,-1198.5 335.5,-1198.5 "/>
<text text-anchor="start" x="163.5" y="-1186.5" font-family="Helvetica,sans-Serif" font-size="10.00">&#45; Count</text>
<text text-anchor="start" x="163.5" y="-1175.5" font-family="Helvetica,sans-Serif" font-size="10.00">&#45; Max</text>
<polyline fill="none" stroke="black" points="155.5,-1168.5 335.5,-1168.5 "/>
<text text-anchor="start" x="163.5" y="-1156.5" font-family="Helvetica,sans-Serif" font-size="10.00">+ TArray()</text>
<text text-anchor="start" x="163.5" y="-1145.5" font-family="Helvetica,sans-Serif" font-size="10.00">+ Num()</text>
<text text-anchor="start" x="163.5" y="-1134.5" font-family="Helvetica,sans-Serif" font-size="10.00">+ operator[]()</text>
<text text-anchor="start" x="163.5" y="-1123.5" font-family="Helvetica,sans-Serif" font-size="10.00">+ operator[]()</text>
<text text-anchor="start" x="163.5" y="-1112.5" font-family="Helvetica,sans-Serif" font-size="10.00">+ IsValidIndex()</text>
<text text-anchor="start" x="163.5" y="-1101.5" font-family="Helvetica,sans-Serif" font-size="10.00">+ GetByIndex()</text>
<text text-anchor="start" x="163.5" y="-1090.5" font-family="Helvetica,sans-Serif" font-size="10.00">+ GetByIndex()</text>
</a>
</g>
</g>
<!-- Node6&#45;&gt;Node5 -->
<g id="edge5" class="edge">
<title>Node6&#45;&gt;Node5</title>
<path fill="none" stroke="#404040" d="M245.5,-1083.03C245.5,-1071.45 245.5,-1059.35 245.5,-1047.62"/>
<polygon fill="none" stroke="#404040" points="245.5,-1047.56 241.5,-1041.56 245.5,-1035.56 249.5,-1041.56 245.5,-1047.56"/>
<text text-anchor="middle" x="270" y="-1057" font-family="Helvetica,sans-Serif" font-size="10.00"> +GNames</text>
</g>
<!-- Node7 -->
<g id="node7" class="node">
<title>Node7</title>
<g id="a_node7"><a xlink:href="../../d7/ddf/classSDK_1_1FNameEntry.html" target="_top" xlink:title=" ">
<polygon fill="white" stroke="black" points="198,-1304 198,-1372 297,-1372 297,-1304 198,-1304"/>
<text text-anchor="middle" x="247.5" y="-1360" font-family="Helvetica,sans-Serif" font-size="10.00">SDK::FNameEntry</text>
<polyline fill="none" stroke="black" points="198,-1353 297,-1353 "/>
<text text-anchor="start" x="206" y="-1341" font-family="Helvetica,sans-Serif" font-size="10.00">+ UnknownData00</text>
<text text-anchor="start" x="206" y="-1330" font-family="Helvetica,sans-Serif" font-size="10.00">+ name</text>
<polyline fill="none" stroke="black" points="198,-1323 297,-1323 "/>
<text text-anchor="start" x="206" y="-1311" font-family="Helvetica,sans-Serif" font-size="10.00">+ GetName()</text>
</a>
</g>
</g>
<!-- Node7&#45;&gt;Node6 -->
<g id="edge6" class="edge">
<title>Node7&#45;&gt;Node6</title>
<path fill="none" stroke="#404040" d="M247.14,-1303.84C246.92,-1283.23 246.62,-1255.83 246.35,-1229.95"/>
<polygon fill="none" stroke="#404040" points="246.34,-1229.8 242.28,-1223.84 246.21,-1217.8 250.28,-1223.76 246.34,-1229.8"/>
<text text-anchor="middle" x="260.5" y="-1239" font-family="Helvetica,sans-Serif" font-size="10.00"> &#45;Data</text>
</g>
<!-- Node8 -->
<g id="node8" class="node">
<title>Node8</title>
<g id="a_node8"><a xlink:href="../../d3/d79/classSDK_1_1TArray.html" target="_top" xlink:title=" ">
<polygon fill="white" stroke="black" points="49,-1265.5 49,-1410.5 146,-1410.5 146,-1265.5 49,-1265.5"/>
<text text-anchor="middle" x="97.5" y="-1398.5" font-family="Helvetica,sans-Serif" font-size="10.00">SDK::TArray&lt; T &gt;</text>
<polyline fill="none" stroke="black" points="49,-1391.5 146,-1391.5 "/>
<text text-anchor="start" x="57" y="-1379.5" font-family="Helvetica,sans-Serif" font-size="10.00">&#45; Data</text>
<text text-anchor="start" x="57" y="-1368.5" font-family="Helvetica,sans-Serif" font-size="10.00">&#45; Count</text>
<text text-anchor="start" x="57" y="-1357.5" font-family="Helvetica,sans-Serif" font-size="10.00">&#45; Max</text>
<polyline fill="none" stroke="black" points="49,-1350.5 146,-1350.5 "/>
<text text-anchor="start" x="57" y="-1338.5" font-family="Helvetica,sans-Serif" font-size="10.00">+ TArray()</text>
<text text-anchor="start" x="57" y="-1327.5" font-family="Helvetica,sans-Serif" font-size="10.00">+ Num()</text>
<text text-anchor="start" x="57" y="-1316.5" font-family="Helvetica,sans-Serif" font-size="10.00">+ operator[]()</text>
<text text-anchor="start" x="57" y="-1305.5" font-family="Helvetica,sans-Serif" font-size="10.00">+ operator[]()</text>
<text text-anchor="start" x="57" y="-1294.5" font-family="Helvetica,sans-Serif" font-size="10.00">+ IsValidIndex()</text>
<text text-anchor="start" x="57" y="-1283.5" font-family="Helvetica,sans-Serif" font-size="10.00">+ GetByIndex()</text>
<text text-anchor="start" x="57" y="-1272.5" font-family="Helvetica,sans-Serif" font-size="10.00">+ GetByIndex()</text>
</a>
</g>
</g>
<!-- Node8&#45;&gt;Node6 -->
<g id="edge7" class="edge">
<title>Node8&#45;&gt;Node6</title>
<path fill="none" stroke="orange" d="M119.6,-1256.17C123.04,-1249.05 126.99,-1242.21 131.5,-1236 138.31,-1226.64 146.46,-1217.86 155.23,-1209.78"/>
<polygon fill="orange" stroke="orange" points="116.4,-1254.75 115.51,-1265.3 122.79,-1257.61 116.4,-1254.75"/>
<text text-anchor="middle" x="187" y="-1239" font-family="Helvetica,sans-Serif" font-size="10.00"> &lt; SDK::FNameEntry * &gt;</text>
</g>
<!-- Node8&#45;&gt;Node9 -->
<g id="edge11" class="edge">
<title>Node8&#45;&gt;Node9</title>
<path fill="none" stroke="orange" d="M86.75,-1255.08C83.37,-1222.85 80.5,-1185.5 80.5,-1151.5 80.5,-1151.5 80.5,-1151.5 80.5,-719.5 80.5,-662.48 80.5,-597.69 80.5,-550.59"/>
<polygon fill="orange" stroke="orange" points="83.3,-1255.78 87.86,-1265.35 90.26,-1255.03 83.3,-1255.78"/>
<text text-anchor="middle" x="126" y="-971.5" font-family="Helvetica,sans-Serif" font-size="10.00"> &lt; SDK::UObject * &gt;</text>
</g>
<!-- Node9&#45;&gt;Node3 -->
<g id="edge9" class="edge">
<title>Node9&#45;&gt;Node3</title>
<path fill="none" stroke="#404040" d="M160.61,-550.56C190.46,-575.17 224.85,-603.52 256.83,-629.89"/>
<polygon fill="none" stroke="#404040" points="256.96,-630 264.14,-630.74 266.22,-637.64 259.05,-636.91 256.96,-630"/>
<text text-anchor="middle" x="215" y="-572" font-family="Helvetica,sans-Serif" font-size="10.00"> +GObjects</text>
</g>
<!-- Node10 -->
<g id="node10" class="node">
<title>Node10</title>
<g id="a_node10"><a xlink:href="../../d9/dfa/structSDK_1_1FPointer.html" target="_top" xlink:title=" ">
<polygon fill="white" stroke="black" points="316.5,-940 316.5,-1008 414.5,-1008 414.5,-940 316.5,-940"/>
<text text-anchor="middle" x="365.5" y="-996" font-family="Helvetica,sans-Serif" font-size="10.00">SDK::FPointer</text>
<polyline fill="none" stroke="black" points="316.5,-989 414.5,-989 "/>
<text text-anchor="start" x="324.5" y="-977" font-family="Helvetica,sans-Serif" font-size="10.00">+ Dummy</text>
<text text-anchor="start" x="324.5" y="-966" font-family="Helvetica,sans-Serif" font-size="10.00">+ UnknownData00</text>
<polyline fill="none" stroke="black" points="316.5,-959 414.5,-959 "/>
<text text-anchor="middle" x="365.5" y="-947" font-family="Helvetica,sans-Serif" font-size="10.00"> </text>
</a>
</g>
</g>
<!-- Node10&#45;&gt;Node3 -->
<g id="edge12" class="edge">
<title>Node10&#45;&gt;Node3</title>
<path fill="none" stroke="#404040" d="M365.5,-939.86C365.5,-917.57 365.5,-886.56 365.5,-854.9"/>
<polygon fill="none" stroke="#404040" points="365.5,-854.75 361.5,-848.75 365.5,-842.75 369.5,-848.75 365.5,-854.75"/>
<text text-anchor="middle" x="400" y="-886" font-family="Helvetica,sans-Serif" font-size="10.00"> +StateFrame</text>
<text text-anchor="middle" x="400" y="-875" font-family="Helvetica,sans-Serif" font-size="10.00">+VfTableObject</text>
<text text-anchor="middle" x="400" y="-864" font-family="Helvetica,sans-Serif" font-size="10.00">+LinkerIndex</text>
</g>
<!-- Node11&#45;&gt;Node3 -->
<g id="edge13" class="edge">
<title>Node11&#45;&gt;Node3</title>
<path fill="none" stroke="#404040" d="M548.5,-90.72C548.5,-110.67 548.5,-134.52 548.5,-156 548.5,-484.5 548.5,-484.5 548.5,-484.5 548.5,-542.79 513.01,-595.32 473.29,-635.85"/>
<polygon fill="none" stroke="#404040" points="473.28,-635.86 471.84,-642.93 464.77,-644.31 466.21,-637.25 473.28,-635.86"/>
<text text-anchor="middle" x="566" y="-288" font-family="Helvetica,sans-Serif" font-size="10.00"> +Class</text>
</g>
<!-- Node12 -->
<g id="node12" class="node">
<title>Node12</title>
<g id="a_node12"><a xlink:href="../../df/d72/classSDK_1_1UState.html" target="_top" xlink:title=" ">
<polygon fill="white" stroke="black" points="588.5,-128.5 588.5,-185.5 686.5,-185.5 686.5,-128.5 588.5,-128.5"/>
<text text-anchor="middle" x="637.5" y="-173.5" font-family="Helvetica,sans-Serif" font-size="10.00">SDK::UState</text>
<polyline fill="none" stroke="black" points="588.5,-166.5 686.5,-166.5 "/>
<text text-anchor="start" x="596.5" y="-154.5" font-family="Helvetica,sans-Serif" font-size="10.00">+ UnknownData00</text>
<polyline fill="none" stroke="black" points="588.5,-147.5 686.5,-147.5 "/>
<text text-anchor="start" x="596.5" y="-135.5" font-family="Helvetica,sans-Serif" font-size="10.00">+ StaticClass()</text>
</a>
</g>
</g>
<!-- Node12&#45;&gt;Node11 -->
<g id="edge14" class="edge">
<title>Node12&#45;&gt;Node11</title>
<path fill="none" stroke="midnightblue" d="M608.51,-120.33C600.83,-110.89 592.45,-100.58 584.46,-90.74"/>
<polygon fill="none" stroke="midnightblue" points="606.02,-122.82 615.04,-128.37 611.45,-118.4 606.02,-122.82"/>
</g>
<!-- Node13 -->
<g id="node13" class="node">
<title>Node13</title>
<g id="a_node13"><a xlink:href="../../d8/de9/classSDK_1_1UStruct.html" target="_top" xlink:title=" ">
<polygon fill="white" stroke="black" points="601.5,-251 601.5,-330 699.5,-330 699.5,-251 601.5,-251"/>
<text text-anchor="middle" x="650.5" y="-318" font-family="Helvetica,sans-Serif" font-size="10.00">SDK::UStruct</text>
<polyline fill="none" stroke="black" points="601.5,-311 699.5,-311 "/>
<text text-anchor="start" x="609.5" y="-299" font-family="Helvetica,sans-Serif" font-size="10.00">+ UnknownData00</text>
<text text-anchor="start" x="609.5" y="-288" font-family="Helvetica,sans-Serif" font-size="10.00">+ PropertySize</text>
<text text-anchor="start" x="609.5" y="-277" font-family="Helvetica,sans-Serif" font-size="10.00">+ UnknownData01</text>
<polyline fill="none" stroke="black" points="601.5,-270 699.5,-270 "/>
<text text-anchor="start" x="609.5" y="-258" font-family="Helvetica,sans-Serif" font-size="10.00">+ StaticClass()</text>
</a>
</g>
</g>
<!-- Node13&#45;&gt;Node12 -->
<g id="edge15" class="edge">
<title>Node13&#45;&gt;Node12</title>
<path fill="none" stroke="midnightblue" d="M645.67,-240.67C643.84,-222.09 641.81,-201.57 640.23,-185.63"/>
<polygon fill="none" stroke="midnightblue" points="642.2,-241.15 646.67,-250.76 649.17,-240.46 642.2,-241.15"/>
</g>
<!-- Node14&#45;&gt;Node13 -->
<g id="edge16" class="edge">
<title>Node14&#45;&gt;Node13</title>
<path fill="none" stroke="midnightblue" d="M622.19,-444.65C624.42,-424.24 627.58,-398.66 631.5,-376 634.11,-360.89 637.66,-344.4 640.98,-330.04"/>
<polygon fill="none" stroke="midnightblue" points="618.69,-444.49 621.12,-454.81 625.65,-445.23 618.69,-444.49"/>
</g>
<!-- Node14&#45;&gt;Node13 -->
<g id="edge19" class="edge">
<title>Node14&#45;&gt;Node13</title>
<path fill="none" stroke="#404040" d="M623.15,-454.73C628.07,-425.39 635.93,-378.48 641.96,-342.46"/>
<polygon fill="none" stroke="#404040" points="642.03,-342.06 639.08,-335.48 644.01,-330.22 646.97,-336.8 642.03,-342.06"/>
<text text-anchor="middle" x="662.5" y="-390" font-family="Helvetica,sans-Serif" font-size="10.00"> +SuperField</text>
<text text-anchor="middle" x="662.5" y="-379" font-family="Helvetica,sans-Serif" font-size="10.00">+Children</text>
</g>
<!-- Node14&#45;&gt;Node14 -->
<g id="edge18" class="edge">
<title>Node14&#45;&gt;Node14</title>
<path fill="none" stroke="#404040" d="M660.21,-500.11C670.41,-498.88 678,-493.34 678,-483.5 678,-477.96 675.6,-473.79 671.68,-470.98"/>
<polygon fill="none" stroke="#404040" points="671.51,-470.92 664.51,-472.67 660.21,-466.89 667.2,-465.13 671.51,-470.92"/>
<text text-anchor="middle" x="693.5" y="-481" font-family="Helvetica,sans-Serif" font-size="10.00"> +Next</text>
</g>
</g>
</svg>
