<?xml version="1.0" encoding="UTF-8" standalone="no"?>
<!DOCTYPE svg PUBLIC "-//W3C//DTD SVG 1.1//EN"
 "http://www.w3.org/Graphics/SVG/1.1/DTD/svg11.dtd">
<!-- Generated by graphviz version 2.41.20171026.1811 (20171026.1811)
 -->
<!-- Title: SDK::UMaterialExpressionTextureSampleParameterFlipbook Pages: 1 -->
<!--zoomable 1042 -->
<svg id="main" version="1.1" xmlns="http://www.w3.org/2000/svg" xmlns:xlink="http://www.w3.org/1999/xlink" xml:space="preserve" onload="init(evt)">
<style type="text/css"><![CDATA[
.edge:hover path { stroke: red; }
.edge:hover polygon { stroke: red; fill: red; }
]]></style>
<script type="text/javascript"><![CDATA[
var edges = document.getElementsByTagName('g');
if (edges && edges.length) {
  for (var i=0;i<edges.length;i++) {
    if (edges[i].id.substr(0,4)=='edge') {
      edges[i].setAttribute('class','edge');
    }
  }
}
]]></script>
        <defs>
                <circle id="rim" cx="0" cy="0" r="7"/>
                <circle id="rim2" cx="0" cy="0" r="3.5"/>
                <g id="zoomPlus">
                        <use xlink:href="#rim" fill="#404040">
                                <set attributeName="fill" to="#808080" begin="zoomplus.mouseover" end="zoomplus.mouseout"/>
                        </use>
                        <path d="M-4,0h8M0,-4v8" fill="none" stroke="white" stroke-width="1.5" pointer-events="none"/>
                </g>
                <g id="zoomMin">
                        <use xlink:href="#rim" fill="#404040">
                                <set attributeName="fill" to="#808080" begin="zoomminus.mouseover" end="zoomminus.mouseout"/>
                        </use>
                        <path d="M-4,0h8" fill="none" stroke="white" stroke-width="1.5" pointer-events="none"/>
                </g>
                <g id="dirArrow">
                        <path fill="none" stroke="white" stroke-width="1.5" d="M0,-3.0v7 M-2.5,-0.5L0,-3.0L2.5,-0.5"/>
                </g>
               <g id="resetDef">
                       <use xlink:href="#rim2" fill="#404040">
                               <set attributeName="fill" to="#808080" begin="reset.mouseover" end="reset.mouseout"/>
                       </use>
               </g>
        </defs>

<script type="text/javascript">
var viewWidth = 206;
var viewHeight = 1042;
var sectionId = 'dynsection-0';
</script>
<script xlink:href="../../svgpan.js"/>
<svg id="graph" class="graph">
<g id="viewport">
<title>SDK::UMaterialExpressionTextureSampleParameterFlipbook</title>
<polygon fill="white" stroke="transparent" points="-4,4 -4,-1038 202,-1038 202,4 -4,4"/>
<!-- Node1 -->
<g id="node1" class="node">
<title>Node1</title>
<g id="a_node1"><a xlink:title=" ">
<polygon fill="#bfbfbf" stroke="black" points="17,-0.5 17,-68.5 181,-68.5 181,-0.5 17,-0.5"/>
<text text-anchor="start" x="25" y="-56.5" font-family="Helvetica,sans-Serif" font-size="10.00">SDK::UMaterialExpression</text>
<text text-anchor="middle" x="99" y="-45.5" font-family="Helvetica,sans-Serif" font-size="10.00">TextureSampleParameterFlipbook</text>
<polyline fill="none" stroke="black" points="17,-38.5 181,-38.5 "/>
<text text-anchor="middle" x="99" y="-26.5" font-family="Helvetica,sans-Serif" font-size="10.00"> </text>
<polyline fill="none" stroke="black" points="17,-19.5 181,-19.5 "/>
<text text-anchor="start" x="25" y="-7.5" font-family="Helvetica,sans-Serif" font-size="10.00">+ StaticClass()</text>
</a>
</g>
</g>
<!-- Node2 -->
<g id="node2" class="node">
<title>Node2</title>
<g id="a_node2"><a xlink:href="../../df/df0/classSDK_1_1UMaterialExpressionTextureSampleParameter2D.html" target="_top" xlink:title=" ">
<polygon fill="white" stroke="black" points="29,-105.5 29,-173.5 169,-173.5 169,-105.5 29,-105.5"/>
<text text-anchor="start" x="37" y="-161.5" font-family="Helvetica,sans-Serif" font-size="10.00">SDK::UMaterialExpression</text>
<text text-anchor="middle" x="99" y="-150.5" font-family="Helvetica,sans-Serif" font-size="10.00">TextureSampleParameter2D</text>
<polyline fill="none" stroke="black" points="29,-143.5 169,-143.5 "/>
<text text-anchor="middle" x="99" y="-131.5" font-family="Helvetica,sans-Serif" font-size="10.00"> </text>
<polyline fill="none" stroke="black" points="29,-124.5 169,-124.5 "/>
<text text-anchor="start" x="37" y="-112.5" font-family="Helvetica,sans-Serif" font-size="10.00">+ StaticClass()</text>
</a>
</g>
</g>
<!-- Node2&#45;&gt;Node1 -->
<g id="edge1" class="edge">
<title>Node2&#45;&gt;Node1</title>
<path fill="none" stroke="midnightblue" d="M99,-95.14C99,-86.26 99,-77.04 99,-68.59"/>
<polygon fill="none" stroke="midnightblue" points="95.5,-95.34 99,-105.34 102.5,-95.34 95.5,-95.34"/>
</g>
<!-- Node3 -->
<g id="node3" class="node">
<title>Node3</title>
<g id="a_node3"><a xlink:href="../../dd/dcd/classSDK_1_1UMaterialExpressionTextureSampleParameter.html" target="_top" xlink:title=" ">
<polygon fill="white" stroke="black" points="32,-210.5 32,-300.5 166,-300.5 166,-210.5 32,-210.5"/>
<text text-anchor="start" x="40" y="-288.5" font-family="Helvetica,sans-Serif" font-size="10.00">SDK::UMaterialExpression</text>
<text text-anchor="middle" x="99" y="-277.5" font-family="Helvetica,sans-Serif" font-size="10.00">TextureSampleParameter</text>
<polyline fill="none" stroke="black" points="32,-270.5 166,-270.5 "/>
<text text-anchor="start" x="40" y="-258.5" font-family="Helvetica,sans-Serif" font-size="10.00">+ ParameterName</text>
<text text-anchor="start" x="40" y="-247.5" font-family="Helvetica,sans-Serif" font-size="10.00">+ ExpressionGUID</text>
<text text-anchor="start" x="40" y="-236.5" font-family="Helvetica,sans-Serif" font-size="10.00">+ Group</text>
<polyline fill="none" stroke="black" points="32,-229.5 166,-229.5 "/>
<text text-anchor="start" x="40" y="-217.5" font-family="Helvetica,sans-Serif" font-size="10.00">+ StaticClass()</text>
</a>
</g>
</g>
<!-- Node3&#45;&gt;Node2 -->
<g id="edge2" class="edge">
<title>Node3&#45;&gt;Node2</title>
<path fill="none" stroke="midnightblue" d="M99,-200.32C99,-191.28 99,-182.16 99,-173.85"/>
<polygon fill="none" stroke="midnightblue" points="95.5,-200.42 99,-210.42 102.5,-200.42 95.5,-200.42"/>
</g>
<!-- Node4 -->
<g id="node4" class="node">
<title>Node4</title>
<g id="a_node4"><a xlink:href="../../dd/de0/classSDK_1_1UMaterialExpressionTextureSample.html" target="_top" xlink:title=" ">
<polygon fill="white" stroke="black" points="32,-337.5 32,-438.5 166,-438.5 166,-337.5 32,-337.5"/>
<text text-anchor="start" x="40" y="-426.5" font-family="Helvetica,sans-Serif" font-size="10.00">SDK::UMaterialExpression</text>
<text text-anchor="middle" x="99" y="-415.5" font-family="Helvetica,sans-Serif" font-size="10.00">TextureSample</text>
<polyline fill="none" stroke="black" points="32,-408.5 166,-408.5 "/>
<text text-anchor="start" x="40" y="-396.5" font-family="Helvetica,sans-Serif" font-size="10.00">+ Texture</text>
<text text-anchor="start" x="40" y="-385.5" font-family="Helvetica,sans-Serif" font-size="10.00">+ Coordinates</text>
<text text-anchor="start" x="40" y="-374.5" font-family="Helvetica,sans-Serif" font-size="10.00">+ TextureObject</text>
<text text-anchor="start" x="40" y="-363.5" font-family="Helvetica,sans-Serif" font-size="10.00">+ Address</text>
<polyline fill="none" stroke="black" points="32,-356.5 166,-356.5 "/>
<text text-anchor="start" x="40" y="-344.5" font-family="Helvetica,sans-Serif" font-size="10.00">+ StaticClass()</text>
</a>
</g>
</g>
<!-- Node4&#45;&gt;Node3 -->
<g id="edge3" class="edge">
<title>Node4&#45;&gt;Node3</title>
<path fill="none" stroke="midnightblue" d="M99,-327.23C99,-318.24 99,-309.1 99,-300.52"/>
<polygon fill="none" stroke="midnightblue" points="95.5,-327.29 99,-337.29 102.5,-327.29 95.5,-327.29"/>
</g>
<!-- Node5 -->
<g id="node5" class="node">
<title>Node5</title>
<g id="a_node5"><a xlink:href="../../d2/d9a/classSDK_1_1UMaterialExpression.html" target="_top" xlink:title=" ">
<polygon fill="white" stroke="black" points="28.5,-475.5 28.5,-642.5 169.5,-642.5 169.5,-475.5 28.5,-475.5"/>
<text text-anchor="middle" x="99" y="-630.5" font-family="Helvetica,sans-Serif" font-size="10.00">SDK::UMaterialExpression</text>
<polyline fill="none" stroke="black" points="28.5,-623.5 169.5,-623.5 "/>
<text text-anchor="start" x="36.5" y="-611.5" font-family="Helvetica,sans-Serif" font-size="10.00">+ EditorX</text>
<text text-anchor="start" x="36.5" y="-600.5" font-family="Helvetica,sans-Serif" font-size="10.00">+ EditorY</text>
<text text-anchor="start" x="36.5" y="-589.5" font-family="Helvetica,sans-Serif" font-size="10.00">+ MaterialExpressionEditorX</text>
<text text-anchor="start" x="36.5" y="-578.5" font-family="Helvetica,sans-Serif" font-size="10.00">+ MaterialExpressionEditorY</text>
<text text-anchor="start" x="36.5" y="-567.5" font-family="Helvetica,sans-Serif" font-size="10.00">+ bRealtimePreview</text>
<text text-anchor="start" x="36.5" y="-556.5" font-family="Helvetica,sans-Serif" font-size="10.00">+ bNeedToUpdatePreview</text>
<text text-anchor="start" x="36.5" y="-545.5" font-family="Helvetica,sans-Serif" font-size="10.00">+ bIsParameterExpression</text>
<text text-anchor="start" x="36.5" y="-534.5" font-family="Helvetica,sans-Serif" font-size="10.00">+ bShowOutputNameOnPin</text>
<text text-anchor="start" x="36.5" y="-523.5" font-family="Helvetica,sans-Serif" font-size="10.00">+ bHidePreviewWindow</text>
<text text-anchor="start" x="36.5" y="-512.5" font-family="Helvetica,sans-Serif" font-size="10.00">+ bShowInputs</text>
<text text-anchor="start" x="36.5" y="-501.5" font-family="Helvetica,sans-Serif" font-size="10.00">and 9 more...</text>
<polyline fill="none" stroke="black" points="28.5,-494.5 169.5,-494.5 "/>
<text text-anchor="start" x="36.5" y="-482.5" font-family="Helvetica,sans-Serif" font-size="10.00">+ StaticClass()</text>
</a>
</g>
</g>
<!-- Node5&#45;&gt;Node4 -->
<g id="edge4" class="edge">
<title>Node5&#45;&gt;Node4</title>
<path fill="none" stroke="midnightblue" d="M99,-465.47C99,-456.28 99,-447.21 99,-438.71"/>
<polygon fill="none" stroke="midnightblue" points="95.5,-465.48 99,-475.48 102.5,-465.48 95.5,-465.48"/>
</g>
<!-- Node6 -->
<g id="node6" class="node">
<title>Node6</title>
<g id="a_node6"><a xlink:href="../../d9/d45/classSDK_1_1UObject.html" target="_top" xlink:title=" ">
<polygon fill="white" stroke="black" points="0,-679.5 0,-1033.5 198,-1033.5 198,-679.5 0,-679.5"/>
<text text-anchor="middle" x="99" y="-1021.5" font-family="Helvetica,sans-Serif" font-size="10.00">SDK::UObject</text>
<polyline fill="none" stroke="black" points="0,-1014.5 198,-1014.5 "/>
<text text-anchor="start" x="8" y="-1002.5" font-family="Helvetica,sans-Serif" font-size="10.00">+ VfTableObject</text>
<text text-anchor="start" x="8" y="-991.5" font-family="Helvetica,sans-Serif" font-size="10.00">+ ObjectFlags</text>
<text text-anchor="start" x="8" y="-980.5" font-family="Helvetica,sans-Serif" font-size="10.00">+ StateFrame</text>
<text text-anchor="start" x="8" y="-969.5" font-family="Helvetica,sans-Serif" font-size="10.00">+ Linker</text>
<text text-anchor="start" x="8" y="-958.5" font-family="Helvetica,sans-Serif" font-size="10.00">+ LinkerIndex</text>
<text text-anchor="start" x="8" y="-947.5" font-family="Helvetica,sans-Serif" font-size="10.00">+ ObjectInternalInteger</text>
<text text-anchor="start" x="8" y="-936.5" font-family="Helvetica,sans-Serif" font-size="10.00">+ NetIndex</text>
<text text-anchor="start" x="8" y="-925.5" font-family="Helvetica,sans-Serif" font-size="10.00">+ Outer</text>
<text text-anchor="start" x="8" y="-914.5" font-family="Helvetica,sans-Serif" font-size="10.00">+ Name</text>
<text text-anchor="start" x="8" y="-903.5" font-family="Helvetica,sans-Serif" font-size="10.00">+ Class</text>
<text text-anchor="start" x="8" y="-892.5" font-family="Helvetica,sans-Serif" font-size="10.00">+ ObjectArchetype</text>
<text text-anchor="start" x="8" y="-881.5" font-family="Helvetica,sans-Serif" font-size="10.00">+ GObjects</text>
<polyline fill="none" stroke="black" points="0,-874.5 198,-874.5 "/>
<text text-anchor="start" x="8" y="-862.5" font-family="Helvetica,sans-Serif" font-size="10.00">+ UObject::GetName()</text>
<text text-anchor="start" x="8" y="-851.5" font-family="Helvetica,sans-Serif" font-size="10.00">+ GetFullName()</text>
<text text-anchor="start" x="8" y="-840.5" font-family="Helvetica,sans-Serif" font-size="10.00">+ IsA()</text>
<text text-anchor="start" x="8" y="-829.5" font-family="Helvetica,sans-Serif" font-size="10.00">+ ProcessEvent()</text>
<text text-anchor="start" x="8" y="-818.5" font-family="Helvetica,sans-Serif" font-size="10.00">+ STATIC_ProfNodeEvent()</text>
<text text-anchor="start" x="8" y="-807.5" font-family="Helvetica,sans-Serif" font-size="10.00">+ STATIC_ProfNodeSetDepthThreshold()</text>
<text text-anchor="start" x="8" y="-796.5" font-family="Helvetica,sans-Serif" font-size="10.00">+ STATIC_ProfNodeSetTimeThreshold</text>
<text text-anchor="start" x="8" y="-785.5" font-family="Helvetica,sans-Serif" font-size="10.00">Seconds()</text>
<text text-anchor="start" x="8" y="-774.5" font-family="Helvetica,sans-Serif" font-size="10.00">+ STATIC_ProfNodeStop()</text>
<text text-anchor="start" x="8" y="-763.5" font-family="Helvetica,sans-Serif" font-size="10.00">+ STATIC_ProfNodeStart()</text>
<text text-anchor="start" x="8" y="-752.5" font-family="Helvetica,sans-Serif" font-size="10.00">+ STATIC_GetStringFromGuid()</text>
<text text-anchor="start" x="8" y="-741.5" font-family="Helvetica,sans-Serif" font-size="10.00">and 298 more...</text>
<text text-anchor="start" x="8" y="-730.5" font-family="Helvetica,sans-Serif" font-size="10.00">+ GetGlobalObjects()</text>
<text text-anchor="start" x="8" y="-719.5" font-family="Helvetica,sans-Serif" font-size="10.00">+ FindObject()</text>
<text text-anchor="start" x="8" y="-708.5" font-family="Helvetica,sans-Serif" font-size="10.00">+ FindClass()</text>
<text text-anchor="start" x="8" y="-697.5" font-family="Helvetica,sans-Serif" font-size="10.00">+ GetObjectCasted()</text>
<text text-anchor="start" x="8" y="-686.5" font-family="Helvetica,sans-Serif" font-size="10.00">+ StaticClass()</text>
</a>
</g>
</g>
<!-- Node6&#45;&gt;Node5 -->
<g id="edge5" class="edge">
<title>Node6&#45;&gt;Node5</title>
<path fill="none" stroke="midnightblue" d="M99,-669.07C99,-660.04 99,-651.23 99,-642.76"/>
<polygon fill="none" stroke="midnightblue" points="95.5,-669.34 99,-679.34 102.5,-669.34 95.5,-669.34"/>
</g>
</g>
</svg>
        <g id="navigator" transform="translate(0 0)" fill="#404254">
                <rect fill="#f2f5e9" fill-opacity="0.5" stroke="#606060" stroke-width=".5" x="0" y="0" width="60" height="60"/>
                <use id="zoomplus" xlink:href="#zoomPlus" x="17" y="9" onmousedown="handleZoom(evt,'in')"/>
                <use id="zoomminus" xlink:href="#zoomMin" x="42" y="9" onmousedown="handleZoom(evt,'out')"/>
                <use id="reset" xlink:href="#resetDef" x="30" y="36" onmousedown="handleReset()"/>
                <g id="arrowUp" xlink:href="#dirArrow" transform="translate(30 24)" onmousedown="handlePan(0,-1)">
                  <use xlink:href="#rim" fill="#404040">
                        <set attributeName="fill" to="#808080" begin="arrowUp.mouseover" end="arrowUp.mouseout"/>
                  </use>
                  <path fill="none" stroke="white" stroke-width="1.5" d="M0,-3.0v7 M-2.5,-0.5L0,-3.0L2.5,-0.5"/>
                </g>
                <g id="arrowRight" xlink:href="#dirArrow" transform="rotate(90) translate(36 -43)" onmousedown="handlePan(1,0)">
                  <use xlink:href="#rim" fill="#404040">
                        <set attributeName="fill" to="#808080" begin="arrowRight.mouseover" end="arrowRight.mouseout"/>
                  </use>
                  <path fill="none" stroke="white" stroke-width="1.5" d="M0,-3.0v7 M-2.5,-0.5L0,-3.0L2.5,-0.5"/>
                </g>
                <g id="arrowDown" xlink:href="#dirArrow" transform="rotate(180) translate(-30 -48)" onmousedown="handlePan(0,1)">
                  <use xlink:href="#rim" fill="#404040">
                        <set attributeName="fill" to="#808080" begin="arrowDown.mouseover" end="arrowDown.mouseout"/>
                  </use>
                  <path fill="none" stroke="white" stroke-width="1.5" d="M0,-3.0v7 M-2.5,-0.5L0,-3.0L2.5,-0.5"/>
                </g>
                <g id="arrowLeft" xlink:href="#dirArrow" transform="rotate(270) translate(-36 17)" onmousedown="handlePan(-1,0)">
                  <use xlink:href="#rim" fill="#404040">
                        <set attributeName="fill" to="#808080" begin="arrowLeft.mouseover" end="arrowLeft.mouseout"/>
                  </use>
                  <path fill="none" stroke="white" stroke-width="1.5" d="M0,-3.0v7 M-2.5,-0.5L0,-3.0L2.5,-0.5"/>
                </g>
        </g>
        <svg viewBox="0 0 15 15" width="100%" height="30px" preserveAspectRatio="xMaxYMin meet">
         <g id="arrow_out" transform="scale(0.3 0.3)">
          <a xlink:href="classSDK_1_1UMaterialExpressionTextureSampleParameterFlipbook__inherit__graph_org.svg" target="_base">
           <rect id="button" ry="5" rx="5" y="6" x="6" height="38" width="38"
                fill="#f2f5e9" fill-opacity="0.5" stroke="#606060" stroke-width="1.0"/>
           <path id="arrow"
             d="M 11.500037,31.436501 C 11.940474,20.09759 22.043105,11.32322 32.158766,21.979434 L 37.068811,17.246167 C 37.068811,17.246167 37.088388,32 37.088388,32 L 22.160133,31.978069 C 22.160133,31.978069 26.997745,27.140456 26.997745,27.140456 C 18.528582,18.264221 13.291696,25.230495 11.500037,31.436501 z"
             style="fill:#404040;"/>
          </a>
         </g>
        </svg>
</svg>
