<?xml version="1.0" encoding="UTF-8" standalone="no"?>
<!DOCTYPE svg PUBLIC "-//W3C//DTD SVG 1.1//EN"
 "http://www.w3.org/Graphics/SVG/1.1/DTD/svg11.dtd">
<!-- Generated by graphviz version 2.41.20171026.1811 (20171026.1811)
 -->
<!-- Title: SDK::FEFSubtitleBalloonInfo Pages: 1 -->
<svg width="490pt" height="656pt"
 viewBox="0.00 0.00 489.50 656.00" xmlns="http://www.w3.org/2000/svg" xmlns:xlink="http://www.w3.org/1999/xlink">
<g id="graph0" class="graph" transform="scale(1 1) rotate(0) translate(4 652)">
<title>SDK::FEFSubtitleBalloonInfo</title>
<polygon fill="white" stroke="transparent" points="-4,4 -4,-652 485.5,-652 485.5,4 -4,4"/>
<!-- Node1 -->
<g id="node1" class="node">
<title>Node1</title>
<g id="a_node1"><a xlink:title=" ">
<polygon fill="#bfbfbf" stroke="black" points="201,-0.5 201,-90.5 345,-90.5 345,-0.5 201,-0.5"/>
<text text-anchor="middle" x="273" y="-78.5" font-family="Helvetica,sans-Serif" font-size="10.00">SDK::FEFSubtitleBalloonInfo</text>
<polyline fill="none" stroke="black" points="201,-71.5 345,-71.5 "/>
<text text-anchor="start" x="209" y="-59.5" font-family="Helvetica,sans-Serif" font-size="10.00">+ UnknownData00</text>
<text text-anchor="start" x="209" y="-48.5" font-family="Helvetica,sans-Serif" font-size="10.00">+ MsgID</text>
<text text-anchor="start" x="209" y="-37.5" font-family="Helvetica,sans-Serif" font-size="10.00">+ Duration</text>
<text text-anchor="start" x="209" y="-26.5" font-family="Helvetica,sans-Serif" font-size="10.00">+ Time</text>
<polyline fill="none" stroke="black" points="201,-19.5 345,-19.5 "/>
<text text-anchor="middle" x="273" y="-7.5" font-family="Helvetica,sans-Serif" font-size="10.00"> </text>
</a>
</g>
</g>
<!-- Node2 -->
<g id="node2" class="node">
<title>Node2</title>
<g id="a_node2"><a xlink:href="../../df/d1c/classSDK_1_1TEnumAsByte.html" target="_top" xlink:title=" ">
<polygon fill="white" stroke="black" points="0,-138.5 0,-261.5 164,-261.5 164,-138.5 0,-138.5"/>
<text text-anchor="start" x="8" y="-249.5" font-family="Helvetica,sans-Serif" font-size="10.00">SDK::TEnumAsByte&lt; ESubtitle</text>
<text text-anchor="middle" x="82" y="-238.5" font-family="Helvetica,sans-Serif" font-size="10.00">BalloonType &gt;</text>
<polyline fill="none" stroke="black" points="0,-231.5 164,-231.5 "/>
<text text-anchor="start" x="8" y="-219.5" font-family="Helvetica,sans-Serif" font-size="10.00">&#45; value</text>
<polyline fill="none" stroke="black" points="0,-212.5 164,-212.5 "/>
<text text-anchor="start" x="8" y="-200.5" font-family="Helvetica,sans-Serif" font-size="10.00">+ TEnumAsByte()</text>
<text text-anchor="start" x="8" y="-189.5" font-family="Helvetica,sans-Serif" font-size="10.00">+ TEnumAsByte()</text>
<text text-anchor="start" x="8" y="-178.5" font-family="Helvetica,sans-Serif" font-size="10.00">+ TEnumAsByte()</text>
<text text-anchor="start" x="8" y="-167.5" font-family="Helvetica,sans-Serif" font-size="10.00">+ TEnumAsByte()</text>
<text text-anchor="start" x="8" y="-156.5" font-family="Helvetica,sans-Serif" font-size="10.00">+ operator ESubtitleBalloonType()</text>
<text text-anchor="start" x="8" y="-145.5" font-family="Helvetica,sans-Serif" font-size="10.00">+ GetValue()</text>
</a>
</g>
</g>
<!-- Node2&#45;&gt;Node1 -->
<g id="edge1" class="edge">
<title>Node2&#45;&gt;Node1</title>
<path fill="none" stroke="#404040" d="M158.04,-138.29C174.58,-125.08 191.93,-111.23 208,-98.4"/>
<polygon fill="none" stroke="#404040" points="208.44,-98.05 210.63,-91.18 217.82,-90.56 215.63,-97.43 208.44,-98.05"/>
<text text-anchor="middle" x="227" y="-112" font-family="Helvetica,sans-Serif" font-size="10.00"> +BalloonType</text>
</g>
<!-- Node3 -->
<g id="node3" class="node">
<title>Node3</title>
<g id="a_node3"><a xlink:href="../../df/d1c/classSDK_1_1TEnumAsByte.html" target="_top" xlink:title=" ">
<polygon fill="white" stroke="black" points="116.5,-326 116.5,-438 273.5,-438 273.5,-326 116.5,-326"/>
<text text-anchor="middle" x="195" y="-426" font-family="Helvetica,sans-Serif" font-size="10.00">SDK::TEnumAsByte&lt; TEnum &gt;</text>
<polyline fill="none" stroke="black" points="116.5,-419 273.5,-419 "/>
<text text-anchor="start" x="124.5" y="-407" font-family="Helvetica,sans-Serif" font-size="10.00">&#45; value</text>
<polyline fill="none" stroke="black" points="116.5,-400 273.5,-400 "/>
<text text-anchor="start" x="124.5" y="-388" font-family="Helvetica,sans-Serif" font-size="10.00">+ TEnumAsByte()</text>
<text text-anchor="start" x="124.5" y="-377" font-family="Helvetica,sans-Serif" font-size="10.00">+ TEnumAsByte()</text>
<text text-anchor="start" x="124.5" y="-366" font-family="Helvetica,sans-Serif" font-size="10.00">+ TEnumAsByte()</text>
<text text-anchor="start" x="124.5" y="-355" font-family="Helvetica,sans-Serif" font-size="10.00">+ TEnumAsByte()</text>
<text text-anchor="start" x="124.5" y="-344" font-family="Helvetica,sans-Serif" font-size="10.00">+ operator TEnum()</text>
<text text-anchor="start" x="124.5" y="-333" font-family="Helvetica,sans-Serif" font-size="10.00">+ GetValue()</text>
</a>
</g>
</g>
<!-- Node3&#45;&gt;Node2 -->
<g id="edge2" class="edge">
<title>Node3&#45;&gt;Node2</title>
<path fill="none" stroke="orange" d="M133.91,-318.05C127.02,-309.33 120.5,-300.2 115,-291 109.53,-281.86 104.74,-271.66 100.62,-261.51"/>
<polygon fill="orange" stroke="orange" points="131.3,-320.38 140.33,-325.92 136.72,-315.96 131.3,-320.38"/>
<text text-anchor="middle" x="172.5" y="-283" font-family="Helvetica,sans-Serif" font-size="10.00"> &lt; ESubtitleBalloonType &gt;</text>
</g>
<!-- Node4 -->
<g id="node4" class="node">
<title>Node4</title>
<g id="a_node4"><a xlink:href="../../df/d1c/classSDK_1_1TEnumAsByte.html" target="_top" xlink:title=" ">
<polygon fill="white" stroke="black" points="182.5,-138.5 182.5,-261.5 363.5,-261.5 363.5,-138.5 182.5,-138.5"/>
<text text-anchor="start" x="190.5" y="-249.5" font-family="Helvetica,sans-Serif" font-size="10.00">SDK::TEnumAsByte&lt; EFGAMEMSG</text>
<text text-anchor="middle" x="273" y="-238.5" font-family="Helvetica,sans-Serif" font-size="10.00">_TYPE &gt;</text>
<polyline fill="none" stroke="black" points="182.5,-231.5 363.5,-231.5 "/>
<text text-anchor="start" x="190.5" y="-219.5" font-family="Helvetica,sans-Serif" font-size="10.00">&#45; value</text>
<polyline fill="none" stroke="black" points="182.5,-212.5 363.5,-212.5 "/>
<text text-anchor="start" x="190.5" y="-200.5" font-family="Helvetica,sans-Serif" font-size="10.00">+ TEnumAsByte()</text>
<text text-anchor="start" x="190.5" y="-189.5" font-family="Helvetica,sans-Serif" font-size="10.00">+ TEnumAsByte()</text>
<text text-anchor="start" x="190.5" y="-178.5" font-family="Helvetica,sans-Serif" font-size="10.00">+ TEnumAsByte()</text>
<text text-anchor="start" x="190.5" y="-167.5" font-family="Helvetica,sans-Serif" font-size="10.00">+ TEnumAsByte()</text>
<text text-anchor="start" x="190.5" y="-156.5" font-family="Helvetica,sans-Serif" font-size="10.00">+ operator EFGAMEMSG_TYPE()</text>
<text text-anchor="start" x="190.5" y="-145.5" font-family="Helvetica,sans-Serif" font-size="10.00">+ GetValue()</text>
</a>
</g>
</g>
<!-- Node3&#45;&gt;Node4 -->
<g id="edge4" class="edge">
<title>Node3&#45;&gt;Node4</title>
<path fill="none" stroke="orange" d="M223.02,-316.34C230.75,-298.5 239.11,-279.22 246.73,-261.61"/>
<polygon fill="orange" stroke="orange" points="219.8,-314.96 219.04,-325.53 226.23,-317.74 219.8,-314.96"/>
<text text-anchor="middle" x="298" y="-283" font-family="Helvetica,sans-Serif" font-size="10.00"> &lt; EFGAMEMSG_TYPE &gt;</text>
</g>
<!-- Node4&#45;&gt;Node1 -->
<g id="edge3" class="edge">
<title>Node4&#45;&gt;Node1</title>
<path fill="none" stroke="#404040" d="M273,-138.29C273,-126.58 273,-114.36 273,-102.79"/>
<polygon fill="none" stroke="#404040" points="273,-102.56 269,-96.56 273,-90.56 277,-96.56 273,-102.56"/>
<text text-anchor="middle" x="298" y="-112" font-family="Helvetica,sans-Serif" font-size="10.00"> +MsgType</text>
</g>
<!-- Node5 -->
<g id="node5" class="node">
<title>Node5</title>
<g id="a_node5"><a xlink:href="../../d3/d88/classSDK_1_1FString.html" target="_top" xlink:title=" ">
<polygon fill="white" stroke="black" points="381.5,-149.5 381.5,-250.5 456.5,-250.5 456.5,-149.5 381.5,-149.5"/>
<text text-anchor="middle" x="419" y="-238.5" font-family="Helvetica,sans-Serif" font-size="10.00">SDK::FString</text>
<polyline fill="none" stroke="black" points="381.5,-231.5 456.5,-231.5 "/>
<text text-anchor="middle" x="419" y="-219.5" font-family="Helvetica,sans-Serif" font-size="10.00"> </text>
<polyline fill="none" stroke="black" points="381.5,-212.5 456.5,-212.5 "/>
<text text-anchor="start" x="389.5" y="-200.5" font-family="Helvetica,sans-Serif" font-size="10.00">+ FString()</text>
<text text-anchor="start" x="389.5" y="-189.5" font-family="Helvetica,sans-Serif" font-size="10.00">+ FString()</text>
<text text-anchor="start" x="389.5" y="-178.5" font-family="Helvetica,sans-Serif" font-size="10.00">+ IsValid()</text>
<text text-anchor="start" x="389.5" y="-167.5" font-family="Helvetica,sans-Serif" font-size="10.00">+ c_str()</text>
<text text-anchor="start" x="389.5" y="-156.5" font-family="Helvetica,sans-Serif" font-size="10.00">+ ToString()</text>
</a>
</g>
</g>
<!-- Node5&#45;&gt;Node1 -->
<g id="edge5" class="edge">
<title>Node5&#45;&gt;Node1</title>
<path fill="none" stroke="#404040" d="M381.99,-149.47C378.69,-145.52 375.34,-141.65 372,-138 359.94,-124.81 346.26,-111.34 333.01,-98.94"/>
<polygon fill="none" stroke="#404040" points="332.74,-98.69 325.62,-97.55 323.93,-90.54 331.05,-91.68 332.74,-98.69"/>
<text text-anchor="middle" x="380" y="-112" font-family="Helvetica,sans-Serif" font-size="10.00"> +strMsgID</text>
</g>
<!-- Node6 -->
<g id="node6" class="node">
<title>Node6</title>
<g id="a_node6"><a xlink:href="../../d3/d79/classSDK_1_1TArray.html" target="_top" xlink:title=" ">
<polygon fill="white" stroke="black" points="356.5,-309.5 356.5,-454.5 481.5,-454.5 481.5,-309.5 356.5,-309.5"/>
<text text-anchor="middle" x="419" y="-442.5" font-family="Helvetica,sans-Serif" font-size="10.00">SDK::TArray&lt; wchar_t &gt;</text>
<polyline fill="none" stroke="black" points="356.5,-435.5 481.5,-435.5 "/>
<text text-anchor="start" x="364.5" y="-423.5" font-family="Helvetica,sans-Serif" font-size="10.00">&#45; Data</text>
<text text-anchor="start" x="364.5" y="-412.5" font-family="Helvetica,sans-Serif" font-size="10.00">&#45; Count</text>
<text text-anchor="start" x="364.5" y="-401.5" font-family="Helvetica,sans-Serif" font-size="10.00">&#45; Max</text>
<polyline fill="none" stroke="black" points="356.5,-394.5 481.5,-394.5 "/>
<text text-anchor="start" x="364.5" y="-382.5" font-family="Helvetica,sans-Serif" font-size="10.00">+ TArray()</text>
<text text-anchor="start" x="364.5" y="-371.5" font-family="Helvetica,sans-Serif" font-size="10.00">+ Num()</text>
<text text-anchor="start" x="364.5" y="-360.5" font-family="Helvetica,sans-Serif" font-size="10.00">+ operator[]()</text>
<text text-anchor="start" x="364.5" y="-349.5" font-family="Helvetica,sans-Serif" font-size="10.00">+ operator[]()</text>
<text text-anchor="start" x="364.5" y="-338.5" font-family="Helvetica,sans-Serif" font-size="10.00">+ IsValidIndex()</text>
<text text-anchor="start" x="364.5" y="-327.5" font-family="Helvetica,sans-Serif" font-size="10.00">+ GetByIndex()</text>
<text text-anchor="start" x="364.5" y="-316.5" font-family="Helvetica,sans-Serif" font-size="10.00">+ GetByIndex()</text>
</a>
</g>
</g>
<!-- Node6&#45;&gt;Node5 -->
<g id="edge6" class="edge">
<title>Node6&#45;&gt;Node5</title>
<path fill="none" stroke="midnightblue" d="M419,-299.09C419,-282.52 419,-265.58 419,-250.55"/>
<polygon fill="none" stroke="midnightblue" points="415.5,-299.34 419,-309.34 422.5,-299.34 415.5,-299.34"/>
</g>
<!-- Node7 -->
<g id="node7" class="node">
<title>Node7</title>
<g id="a_node7"><a xlink:href="../../d3/d79/classSDK_1_1TArray.html" target="_top" xlink:title=" ">
<polygon fill="white" stroke="black" points="370.5,-502.5 370.5,-647.5 467.5,-647.5 467.5,-502.5 370.5,-502.5"/>
<text text-anchor="middle" x="419" y="-635.5" font-family="Helvetica,sans-Serif" font-size="10.00">SDK::TArray&lt; T &gt;</text>
<polyline fill="none" stroke="black" points="370.5,-628.5 467.5,-628.5 "/>
<text text-anchor="start" x="378.5" y="-616.5" font-family="Helvetica,sans-Serif" font-size="10.00">&#45; Data</text>
<text text-anchor="start" x="378.5" y="-605.5" font-family="Helvetica,sans-Serif" font-size="10.00">&#45; Count</text>
<text text-anchor="start" x="378.5" y="-594.5" font-family="Helvetica,sans-Serif" font-size="10.00">&#45; Max</text>
<polyline fill="none" stroke="black" points="370.5,-587.5 467.5,-587.5 "/>
<text text-anchor="start" x="378.5" y="-575.5" font-family="Helvetica,sans-Serif" font-size="10.00">+ TArray()</text>
<text text-anchor="start" x="378.5" y="-564.5" font-family="Helvetica,sans-Serif" font-size="10.00">+ Num()</text>
<text text-anchor="start" x="378.5" y="-553.5" font-family="Helvetica,sans-Serif" font-size="10.00">+ operator[]()</text>
<text text-anchor="start" x="378.5" y="-542.5" font-family="Helvetica,sans-Serif" font-size="10.00">+ operator[]()</text>
<text text-anchor="start" x="378.5" y="-531.5" font-family="Helvetica,sans-Serif" font-size="10.00">+ IsValidIndex()</text>
<text text-anchor="start" x="378.5" y="-520.5" font-family="Helvetica,sans-Serif" font-size="10.00">+ GetByIndex()</text>
<text text-anchor="start" x="378.5" y="-509.5" font-family="Helvetica,sans-Serif" font-size="10.00">+ GetByIndex()</text>
</a>
</g>
</g>
<!-- Node7&#45;&gt;Node6 -->
<g id="edge7" class="edge">
<title>Node7&#45;&gt;Node6</title>
<path fill="none" stroke="orange" d="M419,-492.01C419,-479.62 419,-466.91 419,-454.75"/>
<polygon fill="orange" stroke="orange" points="415.5,-492.34 419,-502.34 422.5,-492.34 415.5,-492.34"/>
<text text-anchor="middle" x="447" y="-476" font-family="Helvetica,sans-Serif" font-size="10.00"> &lt; wchar_t &gt;</text>
</g>
</g>
</svg>
