<?xml version="1.0" encoding="UTF-8" standalone="no"?>
<!DOCTYPE svg PUBLIC "-//W3C//DTD SVG 1.1//EN"
 "http://www.w3.org/Graphics/SVG/1.1/DTD/svg11.dtd">
<!-- Generated by graphviz version 2.41.20171026.1811 (20171026.1811)
 -->
<!-- Title: SDK::UActorFactoryApexClothing Pages: 1 -->
<svg width="206pt" height="788pt"
 viewBox="0.00 0.00 206.00 788.00" xmlns="http://www.w3.org/2000/svg" xmlns:xlink="http://www.w3.org/1999/xlink">
<g id="graph0" class="graph" transform="scale(1 1) rotate(0) translate(4 784)">
<title>SDK::UActorFactoryApexClothing</title>
<polygon fill="white" stroke="transparent" points="-4,4 -4,-784 202,-784 202,4 -4,4"/>
<!-- Node1 -->
<g id="node1" class="node">
<title>Node1</title>
<g id="a_node1"><a xlink:title=" ">
<polygon fill="#bfbfbf" stroke="black" points="15.5,-0.5 15.5,-90.5 182.5,-90.5 182.5,-0.5 15.5,-0.5"/>
<text text-anchor="middle" x="99" y="-78.5" font-family="Helvetica,sans-Serif" font-size="10.00">SDK::UActorFactoryApexClothing</text>
<polyline fill="none" stroke="black" points="15.5,-71.5 182.5,-71.5 "/>
<text text-anchor="start" x="23.5" y="-59.5" font-family="Helvetica,sans-Serif" font-size="10.00">+ ClothingAssets</text>
<text text-anchor="start" x="23.5" y="-48.5" font-family="Helvetica,sans-Serif" font-size="10.00">+ ClothingRBChannel</text>
<text text-anchor="start" x="23.5" y="-37.5" font-family="Helvetica,sans-Serif" font-size="10.00">+ UnknownData00</text>
<text text-anchor="start" x="23.5" y="-26.5" font-family="Helvetica,sans-Serif" font-size="10.00">+ ClothingRBCollideWithChannels</text>
<polyline fill="none" stroke="black" points="15.5,-19.5 182.5,-19.5 "/>
<text text-anchor="start" x="23.5" y="-7.5" font-family="Helvetica,sans-Serif" font-size="10.00">+ StaticClass()</text>
</a>
</g>
</g>
<!-- Node2 -->
<g id="node2" class="node">
<title>Node2</title>
<g id="a_node2"><a xlink:href="../../d3/d33/classSDK_1_1UActorFactorySkeletalMesh.html" target="_top" xlink:title=" ">
<polygon fill="white" stroke="black" points="15.5,-127.5 15.5,-206.5 182.5,-206.5 182.5,-127.5 15.5,-127.5"/>
<text text-anchor="middle" x="99" y="-194.5" font-family="Helvetica,sans-Serif" font-size="10.00">SDK::UActorFactorySkeletalMesh</text>
<polyline fill="none" stroke="black" points="15.5,-187.5 182.5,-187.5 "/>
<text text-anchor="start" x="23.5" y="-175.5" font-family="Helvetica,sans-Serif" font-size="10.00">+ SkeletalMesh</text>
<text text-anchor="start" x="23.5" y="-164.5" font-family="Helvetica,sans-Serif" font-size="10.00">+ AnimSet</text>
<text text-anchor="start" x="23.5" y="-153.5" font-family="Helvetica,sans-Serif" font-size="10.00">+ AnimSequenceName</text>
<polyline fill="none" stroke="black" points="15.5,-146.5 182.5,-146.5 "/>
<text text-anchor="start" x="23.5" y="-134.5" font-family="Helvetica,sans-Serif" font-size="10.00">+ StaticClass()</text>
</a>
</g>
</g>
<!-- Node2&#45;&gt;Node1 -->
<g id="edge1" class="edge">
<title>Node2&#45;&gt;Node1</title>
<path fill="none" stroke="midnightblue" d="M99,-117.19C99,-108.49 99,-99.48 99,-90.91"/>
<polygon fill="none" stroke="midnightblue" points="95.5,-117.2 99,-127.2 102.5,-117.2 95.5,-117.2"/>
</g>
<!-- Node3 -->
<g id="node3" class="node">
<title>Node3</title>
<g id="a_node3"><a xlink:href="../../d8/d94/classSDK_1_1UActorFactory.html" target="_top" xlink:title=" ">
<polygon fill="white" stroke="black" points="29.5,-243.5 29.5,-388.5 168.5,-388.5 168.5,-243.5 29.5,-243.5"/>
<text text-anchor="middle" x="99" y="-376.5" font-family="Helvetica,sans-Serif" font-size="10.00">SDK::UActorFactory</text>
<polyline fill="none" stroke="black" points="29.5,-369.5 168.5,-369.5 "/>
<text text-anchor="start" x="37.5" y="-357.5" font-family="Helvetica,sans-Serif" font-size="10.00">+ GameplayActorClass</text>
<text text-anchor="start" x="37.5" y="-346.5" font-family="Helvetica,sans-Serif" font-size="10.00">+ MenuName</text>
<text text-anchor="start" x="37.5" y="-335.5" font-family="Helvetica,sans-Serif" font-size="10.00">+ MenuPriority</text>
<text text-anchor="start" x="37.5" y="-324.5" font-family="Helvetica,sans-Serif" font-size="10.00">+ AlternateMenuPriority</text>
<text text-anchor="start" x="37.5" y="-313.5" font-family="Helvetica,sans-Serif" font-size="10.00">+ NewActorClassName</text>
<text text-anchor="start" x="37.5" y="-302.5" font-family="Helvetica,sans-Serif" font-size="10.00">+ NewActorClass</text>
<text text-anchor="start" x="37.5" y="-291.5" font-family="Helvetica,sans-Serif" font-size="10.00">+ bPlaceable</text>
<text text-anchor="start" x="37.5" y="-280.5" font-family="Helvetica,sans-Serif" font-size="10.00">+ bShowInEditorQuickMenu</text>
<polyline fill="none" stroke="black" points="29.5,-273.5 168.5,-273.5 "/>
<text text-anchor="start" x="37.5" y="-261.5" font-family="Helvetica,sans-Serif" font-size="10.00">+ PostCreateActor()</text>
<text text-anchor="start" x="37.5" y="-250.5" font-family="Helvetica,sans-Serif" font-size="10.00">+ StaticClass()</text>
</a>
</g>
</g>
<!-- Node3&#45;&gt;Node2 -->
<g id="edge2" class="edge">
<title>Node3&#45;&gt;Node2</title>
<path fill="none" stroke="midnightblue" d="M99,-232.95C99,-223.9 99,-215.02 99,-206.87"/>
<polygon fill="none" stroke="midnightblue" points="95.5,-233.22 99,-243.22 102.5,-233.22 95.5,-233.22"/>
</g>
<!-- Node4 -->
<g id="node4" class="node">
<title>Node4</title>
<g id="a_node4"><a xlink:href="../../d9/d45/classSDK_1_1UObject.html" target="_top" xlink:title=" ">
<polygon fill="white" stroke="black" points="0,-425.5 0,-779.5 198,-779.5 198,-425.5 0,-425.5"/>
<text text-anchor="middle" x="99" y="-767.5" font-family="Helvetica,sans-Serif" font-size="10.00">SDK::UObject</text>
<polyline fill="none" stroke="black" points="0,-760.5 198,-760.5 "/>
<text text-anchor="start" x="8" y="-748.5" font-family="Helvetica,sans-Serif" font-size="10.00">+ VfTableObject</text>
<text text-anchor="start" x="8" y="-737.5" font-family="Helvetica,sans-Serif" font-size="10.00">+ ObjectFlags</text>
<text text-anchor="start" x="8" y="-726.5" font-family="Helvetica,sans-Serif" font-size="10.00">+ StateFrame</text>
<text text-anchor="start" x="8" y="-715.5" font-family="Helvetica,sans-Serif" font-size="10.00">+ Linker</text>
<text text-anchor="start" x="8" y="-704.5" font-family="Helvetica,sans-Serif" font-size="10.00">+ LinkerIndex</text>
<text text-anchor="start" x="8" y="-693.5" font-family="Helvetica,sans-Serif" font-size="10.00">+ ObjectInternalInteger</text>
<text text-anchor="start" x="8" y="-682.5" font-family="Helvetica,sans-Serif" font-size="10.00">+ NetIndex</text>
<text text-anchor="start" x="8" y="-671.5" font-family="Helvetica,sans-Serif" font-size="10.00">+ Outer</text>
<text text-anchor="start" x="8" y="-660.5" font-family="Helvetica,sans-Serif" font-size="10.00">+ Name</text>
<text text-anchor="start" x="8" y="-649.5" font-family="Helvetica,sans-Serif" font-size="10.00">+ Class</text>
<text text-anchor="start" x="8" y="-638.5" font-family="Helvetica,sans-Serif" font-size="10.00">+ ObjectArchetype</text>
<text text-anchor="start" x="8" y="-627.5" font-family="Helvetica,sans-Serif" font-size="10.00">+ GObjects</text>
<polyline fill="none" stroke="black" points="0,-620.5 198,-620.5 "/>
<text text-anchor="start" x="8" y="-608.5" font-family="Helvetica,sans-Serif" font-size="10.00">+ UObject::GetName()</text>
<text text-anchor="start" x="8" y="-597.5" font-family="Helvetica,sans-Serif" font-size="10.00">+ GetFullName()</text>
<text text-anchor="start" x="8" y="-586.5" font-family="Helvetica,sans-Serif" font-size="10.00">+ IsA()</text>
<text text-anchor="start" x="8" y="-575.5" font-family="Helvetica,sans-Serif" font-size="10.00">+ ProcessEvent()</text>
<text text-anchor="start" x="8" y="-564.5" font-family="Helvetica,sans-Serif" font-size="10.00">+ STATIC_ProfNodeEvent()</text>
<text text-anchor="start" x="8" y="-553.5" font-family="Helvetica,sans-Serif" font-size="10.00">+ STATIC_ProfNodeSetDepthThreshold()</text>
<text text-anchor="start" x="8" y="-542.5" font-family="Helvetica,sans-Serif" font-size="10.00">+ STATIC_ProfNodeSetTimeThreshold</text>
<text text-anchor="start" x="8" y="-531.5" font-family="Helvetica,sans-Serif" font-size="10.00">Seconds()</text>
<text text-anchor="start" x="8" y="-520.5" font-family="Helvetica,sans-Serif" font-size="10.00">+ STATIC_ProfNodeStop()</text>
<text text-anchor="start" x="8" y="-509.5" font-family="Helvetica,sans-Serif" font-size="10.00">+ STATIC_ProfNodeStart()</text>
<text text-anchor="start" x="8" y="-498.5" font-family="Helvetica,sans-Serif" font-size="10.00">+ STATIC_GetStringFromGuid()</text>
<text text-anchor="start" x="8" y="-487.5" font-family="Helvetica,sans-Serif" font-size="10.00">and 298 more...</text>
<text text-anchor="start" x="8" y="-476.5" font-family="Helvetica,sans-Serif" font-size="10.00">+ GetGlobalObjects()</text>
<text text-anchor="start" x="8" y="-465.5" font-family="Helvetica,sans-Serif" font-size="10.00">+ FindObject()</text>
<text text-anchor="start" x="8" y="-454.5" font-family="Helvetica,sans-Serif" font-size="10.00">+ FindClass()</text>
<text text-anchor="start" x="8" y="-443.5" font-family="Helvetica,sans-Serif" font-size="10.00">+ GetObjectCasted()</text>
<text text-anchor="start" x="8" y="-432.5" font-family="Helvetica,sans-Serif" font-size="10.00">+ StaticClass()</text>
</a>
</g>
</g>
<!-- Node4&#45;&gt;Node3 -->
<g id="edge3" class="edge">
<title>Node4&#45;&gt;Node3</title>
<path fill="none" stroke="midnightblue" d="M99,-415.31C99,-406.14 99,-397.23 99,-388.77"/>
<polygon fill="none" stroke="midnightblue" points="95.5,-415.37 99,-425.37 102.5,-415.37 95.5,-415.37"/>
</g>
</g>
</svg>
