<?xml version="1.0" encoding="UTF-8" standalone="no"?>
<!DOCTYPE svg PUBLIC "-//W3C//DTD SVG 1.1//EN"
 "http://www.w3.org/Graphics/SVG/1.1/DTD/svg11.dtd">
<!-- Generated by graphviz version 2.41.20171026.1811 (20171026.1811)
 -->
<!-- Title: SDK::UForcedReachSpec Pages: 1 -->
<svg width="978pt" height="799pt"
 viewBox="0.00 0.00 977.50 799.00" xmlns="http://www.w3.org/2000/svg" xmlns:xlink="http://www.w3.org/1999/xlink">
<g id="graph0" class="graph" transform="scale(1 1) rotate(0) translate(4 795)">
<title>SDK::UForcedReachSpec</title>
<polygon fill="white" stroke="transparent" points="-4,4 -4,-795 973.5,-795 973.5,4 -4,4"/>
<!-- Node1 -->
<g id="node1" class="node">
<title>Node1</title>
<g id="a_node1"><a xlink:title=" ">
<polygon fill="#bfbfbf" stroke="black" points="424.5,-94.5 424.5,-151.5 556.5,-151.5 556.5,-94.5 424.5,-94.5"/>
<text text-anchor="middle" x="490.5" y="-139.5" font-family="Helvetica,sans-Serif" font-size="10.00">SDK::UForcedReachSpec</text>
<polyline fill="none" stroke="black" points="424.5,-132.5 556.5,-132.5 "/>
<text text-anchor="middle" x="490.5" y="-120.5" font-family="Helvetica,sans-Serif" font-size="10.00"> </text>
<polyline fill="none" stroke="black" points="424.5,-113.5 556.5,-113.5 "/>
<text text-anchor="start" x="432.5" y="-101.5" font-family="Helvetica,sans-Serif" font-size="10.00">+ StaticClass()</text>
</a>
</g>
</g>
<!-- Node4 -->
<g id="node4" class="node">
<title>Node4</title>
<g id="a_node4"><a xlink:href="../../d9/d05/classSDK_1_1UCoverSlipReachSpec.html" target="_top" xlink:title=" ">
<polygon fill="white" stroke="black" points="0,-0.5 0,-57.5 145,-57.5 145,-0.5 0,-0.5"/>
<text text-anchor="middle" x="72.5" y="-45.5" font-family="Helvetica,sans-Serif" font-size="10.00">SDK::UCoverSlipReachSpec</text>
<polyline fill="none" stroke="black" points="0,-38.5 145,-38.5 "/>
<text text-anchor="start" x="8" y="-26.5" font-family="Helvetica,sans-Serif" font-size="10.00">+ SpecDirection</text>
<polyline fill="none" stroke="black" points="0,-19.5 145,-19.5 "/>
<text text-anchor="start" x="8" y="-7.5" font-family="Helvetica,sans-Serif" font-size="10.00">+ StaticClass()</text>
</a>
</g>
</g>
<!-- Node1&#45;&gt;Node4 -->
<g id="edge3" class="edge">
<title>Node1&#45;&gt;Node4</title>
<path fill="none" stroke="midnightblue" d="M414.43,-110.79C345.66,-99.89 241.95,-81.55 153.5,-58 150.77,-57.27 148,-56.5 145.2,-55.69"/>
<polygon fill="none" stroke="midnightblue" points="413.89,-114.25 424.31,-112.34 414.98,-107.33 413.89,-114.25"/>
</g>
<!-- Node5 -->
<g id="node5" class="node">
<title>Node5</title>
<g id="a_node5"><a xlink:href="../../d2/d33/classSDK_1_1UFloorToCeilingReachSpec.html" target="_top" xlink:title=" ">
<polygon fill="white" stroke="black" points="163,-0.5 163,-57.5 328,-57.5 328,-0.5 163,-0.5"/>
<text text-anchor="middle" x="245.5" y="-45.5" font-family="Helvetica,sans-Serif" font-size="10.00">SDK::UFloorToCeilingReachSpec</text>
<polyline fill="none" stroke="black" points="163,-38.5 328,-38.5 "/>
<text text-anchor="middle" x="245.5" y="-26.5" font-family="Helvetica,sans-Serif" font-size="10.00"> </text>
<polyline fill="none" stroke="black" points="163,-19.5 328,-19.5 "/>
<text text-anchor="start" x="171" y="-7.5" font-family="Helvetica,sans-Serif" font-size="10.00">+ StaticClass()</text>
</a>
</g>
</g>
<!-- Node1&#45;&gt;Node5 -->
<g id="edge4" class="edge">
<title>Node1&#45;&gt;Node5</title>
<path fill="none" stroke="midnightblue" d="M414.47,-93.45C383.97,-82 348.96,-68.85 318.75,-57.51"/>
<polygon fill="none" stroke="midnightblue" points="413.61,-96.86 424.2,-97.1 416.07,-90.31 413.61,-96.86"/>
</g>
<!-- Node6 -->
<g id="node6" class="node">
<title>Node6</title>
<g id="a_node6"><a xlink:href="../../d8/d2b/classSDK_1_1UMantleReachSpec.html" target="_top" xlink:title=" ">
<polygon fill="white" stroke="black" points="346,-0.5 346,-57.5 477,-57.5 477,-0.5 346,-0.5"/>
<text text-anchor="middle" x="411.5" y="-45.5" font-family="Helvetica,sans-Serif" font-size="10.00">SDK::UMantleReachSpec</text>
<polyline fill="none" stroke="black" points="346,-38.5 477,-38.5 "/>
<text text-anchor="start" x="354" y="-26.5" font-family="Helvetica,sans-Serif" font-size="10.00">+ bClimbUp</text>
<polyline fill="none" stroke="black" points="346,-19.5 477,-19.5 "/>
<text text-anchor="start" x="354" y="-7.5" font-family="Helvetica,sans-Serif" font-size="10.00">+ StaticClass()</text>
</a>
</g>
</g>
<!-- Node1&#45;&gt;Node6 -->
<g id="edge5" class="edge">
<title>Node1&#45;&gt;Node6</title>
<path fill="none" stroke="midnightblue" d="M460.04,-86.52C451.79,-76.92 443,-66.68 435.19,-57.58"/>
<polygon fill="none" stroke="midnightblue" points="457.63,-89.09 466.8,-94.4 462.94,-84.53 457.63,-89.09"/>
</g>
<!-- Node7 -->
<g id="node7" class="node">
<title>Node7</title>
<g id="a_node7"><a xlink:href="../../d2/d01/classSDK_1_1USlotToSlotReachSpec.html" target="_top" xlink:title=" ">
<polygon fill="white" stroke="black" points="495.5,-0.5 495.5,-57.5 643.5,-57.5 643.5,-0.5 495.5,-0.5"/>
<text text-anchor="middle" x="569.5" y="-45.5" font-family="Helvetica,sans-Serif" font-size="10.00">SDK::USlotToSlotReachSpec</text>
<polyline fill="none" stroke="black" points="495.5,-38.5 643.5,-38.5 "/>
<text text-anchor="start" x="503.5" y="-26.5" font-family="Helvetica,sans-Serif" font-size="10.00">+ SpecDirection</text>
<polyline fill="none" stroke="black" points="495.5,-19.5 643.5,-19.5 "/>
<text text-anchor="start" x="503.5" y="-7.5" font-family="Helvetica,sans-Serif" font-size="10.00">+ StaticClass()</text>
</a>
</g>
</g>
<!-- Node1&#45;&gt;Node7 -->
<g id="edge6" class="edge">
<title>Node1&#45;&gt;Node7</title>
<path fill="none" stroke="midnightblue" d="M520.96,-86.52C529.21,-76.92 538,-66.68 545.81,-57.58"/>
<polygon fill="none" stroke="midnightblue" points="518.06,-84.53 514.2,-94.4 523.37,-89.09 518.06,-84.53"/>
</g>
<!-- Node8 -->
<g id="node8" class="node">
<title>Node8</title>
<g id="a_node8"><a xlink:href="../../df/dac/classSDK_1_1USwatTurnReachSpec.html" target="_top" xlink:title=" ">
<polygon fill="white" stroke="black" points="661.5,-0.5 661.5,-57.5 805.5,-57.5 805.5,-0.5 661.5,-0.5"/>
<text text-anchor="middle" x="733.5" y="-45.5" font-family="Helvetica,sans-Serif" font-size="10.00">SDK::USwatTurnReachSpec</text>
<polyline fill="none" stroke="black" points="661.5,-38.5 805.5,-38.5 "/>
<text text-anchor="start" x="669.5" y="-26.5" font-family="Helvetica,sans-Serif" font-size="10.00">+ SpecDirection</text>
<polyline fill="none" stroke="black" points="661.5,-19.5 805.5,-19.5 "/>
<text text-anchor="start" x="669.5" y="-7.5" font-family="Helvetica,sans-Serif" font-size="10.00">+ StaticClass()</text>
</a>
</g>
</g>
<!-- Node1&#45;&gt;Node8 -->
<g id="edge7" class="edge">
<title>Node1&#45;&gt;Node8</title>
<path fill="none" stroke="midnightblue" d="M566.27,-93.31C596.64,-81.81 631.47,-68.63 661.46,-57.27"/>
<polygon fill="none" stroke="midnightblue" points="564.69,-90.17 556.58,-96.98 567.17,-96.71 564.69,-90.17"/>
</g>
<!-- Node9 -->
<g id="node9" class="node">
<title>Node9</title>
<g id="a_node9"><a xlink:href="../../d5/db1/classSDK_1_1UWallTransReachSpec.html" target="_top" xlink:title=" ">
<polygon fill="white" stroke="black" points="823.5,-0.5 823.5,-57.5 969.5,-57.5 969.5,-0.5 823.5,-0.5"/>
<text text-anchor="middle" x="896.5" y="-45.5" font-family="Helvetica,sans-Serif" font-size="10.00">SDK::UWallTransReachSpec</text>
<polyline fill="none" stroke="black" points="823.5,-38.5 969.5,-38.5 "/>
<text text-anchor="middle" x="896.5" y="-26.5" font-family="Helvetica,sans-Serif" font-size="10.00"> </text>
<polyline fill="none" stroke="black" points="823.5,-19.5 969.5,-19.5 "/>
<text text-anchor="start" x="831.5" y="-7.5" font-family="Helvetica,sans-Serif" font-size="10.00">+ StaticClass()</text>
</a>
</g>
</g>
<!-- Node1&#45;&gt;Node9 -->
<g id="edge8" class="edge">
<title>Node1&#45;&gt;Node9</title>
<path fill="none" stroke="midnightblue" d="M566.48,-109.96C632.56,-98.78 730.61,-80.5 814.5,-58 817.41,-57.22 820.36,-56.39 823.33,-55.53"/>
<polygon fill="none" stroke="midnightblue" points="565.85,-106.51 556.56,-111.62 567,-113.42 565.85,-106.51"/>
</g>
<!-- Node2 -->
<g id="node2" class="node">
<title>Node2</title>
<g id="a_node2"><a xlink:href="../../d8/d69/classSDK_1_1UReachSpec.html" target="_top" xlink:title=" ">
<polygon fill="white" stroke="black" points="434,-188.5 434,-399.5 547,-399.5 547,-188.5 434,-188.5"/>
<text text-anchor="middle" x="490.5" y="-387.5" font-family="Helvetica,sans-Serif" font-size="10.00">SDK::UReachSpec</text>
<polyline fill="none" stroke="black" points="434,-380.5 547,-380.5 "/>
<text text-anchor="start" x="442" y="-368.5" font-family="Helvetica,sans-Serif" font-size="10.00">+ NavOctreeObject</text>
<text text-anchor="start" x="442" y="-357.5" font-family="Helvetica,sans-Serif" font-size="10.00">+ Distance</text>
<text text-anchor="start" x="442" y="-346.5" font-family="Helvetica,sans-Serif" font-size="10.00">+ Direction</text>
<text text-anchor="start" x="442" y="-335.5" font-family="Helvetica,sans-Serif" font-size="10.00">+ Start</text>
<text text-anchor="start" x="442" y="-324.5" font-family="Helvetica,sans-Serif" font-size="10.00">+ End</text>
<text text-anchor="start" x="442" y="-313.5" font-family="Helvetica,sans-Serif" font-size="10.00">+ CollisionRadius</text>
<text text-anchor="start" x="442" y="-302.5" font-family="Helvetica,sans-Serif" font-size="10.00">+ CollisionHeight</text>
<text text-anchor="start" x="442" y="-291.5" font-family="Helvetica,sans-Serif" font-size="10.00">+ reachFlags</text>
<text text-anchor="start" x="442" y="-280.5" font-family="Helvetica,sans-Serif" font-size="10.00">+ MaxLandingVelocity</text>
<text text-anchor="start" x="442" y="-269.5" font-family="Helvetica,sans-Serif" font-size="10.00">+ bPruned</text>
<text text-anchor="start" x="442" y="-258.5" font-family="Helvetica,sans-Serif" font-size="10.00">and 9 more...</text>
<polyline fill="none" stroke="black" points="434,-251.5 547,-251.5 "/>
<text text-anchor="start" x="442" y="-239.5" font-family="Helvetica,sans-Serif" font-size="10.00">+ IsBlockedFor()</text>
<text text-anchor="start" x="442" y="-228.5" font-family="Helvetica,sans-Serif" font-size="10.00">+ GetDirection()</text>
<text text-anchor="start" x="442" y="-217.5" font-family="Helvetica,sans-Serif" font-size="10.00">+ GetEnd()</text>
<text text-anchor="start" x="442" y="-206.5" font-family="Helvetica,sans-Serif" font-size="10.00">+ CostFor()</text>
<text text-anchor="start" x="442" y="-195.5" font-family="Helvetica,sans-Serif" font-size="10.00">+ StaticClass()</text>
</a>
</g>
</g>
<!-- Node2&#45;&gt;Node1 -->
<g id="edge1" class="edge">
<title>Node2&#45;&gt;Node1</title>
<path fill="none" stroke="midnightblue" d="M490.5,-178.1C490.5,-168.43 490.5,-159.37 490.5,-151.53"/>
<polygon fill="none" stroke="midnightblue" points="487,-178.37 490.5,-188.37 494,-178.37 487,-178.37"/>
</g>
<!-- Node3 -->
<g id="node3" class="node">
<title>Node3</title>
<g id="a_node3"><a xlink:href="../../d9/d45/classSDK_1_1UObject.html" target="_top" xlink:title=" ">
<polygon fill="white" stroke="black" points="391.5,-436.5 391.5,-790.5 589.5,-790.5 589.5,-436.5 391.5,-436.5"/>
<text text-anchor="middle" x="490.5" y="-778.5" font-family="Helvetica,sans-Serif" font-size="10.00">SDK::UObject</text>
<polyline fill="none" stroke="black" points="391.5,-771.5 589.5,-771.5 "/>
<text text-anchor="start" x="399.5" y="-759.5" font-family="Helvetica,sans-Serif" font-size="10.00">+ VfTableObject</text>
<text text-anchor="start" x="399.5" y="-748.5" font-family="Helvetica,sans-Serif" font-size="10.00">+ ObjectFlags</text>
<text text-anchor="start" x="399.5" y="-737.5" font-family="Helvetica,sans-Serif" font-size="10.00">+ StateFrame</text>
<text text-anchor="start" x="399.5" y="-726.5" font-family="Helvetica,sans-Serif" font-size="10.00">+ Linker</text>
<text text-anchor="start" x="399.5" y="-715.5" font-family="Helvetica,sans-Serif" font-size="10.00">+ LinkerIndex</text>
<text text-anchor="start" x="399.5" y="-704.5" font-family="Helvetica,sans-Serif" font-size="10.00">+ ObjectInternalInteger</text>
<text text-anchor="start" x="399.5" y="-693.5" font-family="Helvetica,sans-Serif" font-size="10.00">+ NetIndex</text>
<text text-anchor="start" x="399.5" y="-682.5" font-family="Helvetica,sans-Serif" font-size="10.00">+ Outer</text>
<text text-anchor="start" x="399.5" y="-671.5" font-family="Helvetica,sans-Serif" font-size="10.00">+ Name</text>
<text text-anchor="start" x="399.5" y="-660.5" font-family="Helvetica,sans-Serif" font-size="10.00">+ Class</text>
<text text-anchor="start" x="399.5" y="-649.5" font-family="Helvetica,sans-Serif" font-size="10.00">+ ObjectArchetype</text>
<text text-anchor="start" x="399.5" y="-638.5" font-family="Helvetica,sans-Serif" font-size="10.00">+ GObjects</text>
<polyline fill="none" stroke="black" points="391.5,-631.5 589.5,-631.5 "/>
<text text-anchor="start" x="399.5" y="-619.5" font-family="Helvetica,sans-Serif" font-size="10.00">+ UObject::GetName()</text>
<text text-anchor="start" x="399.5" y="-608.5" font-family="Helvetica,sans-Serif" font-size="10.00">+ GetFullName()</text>
<text text-anchor="start" x="399.5" y="-597.5" font-family="Helvetica,sans-Serif" font-size="10.00">+ IsA()</text>
<text text-anchor="start" x="399.5" y="-586.5" font-family="Helvetica,sans-Serif" font-size="10.00">+ ProcessEvent()</text>
<text text-anchor="start" x="399.5" y="-575.5" font-family="Helvetica,sans-Serif" font-size="10.00">+ STATIC_ProfNodeEvent()</text>
<text text-anchor="start" x="399.5" y="-564.5" font-family="Helvetica,sans-Serif" font-size="10.00">+ STATIC_ProfNodeSetDepthThreshold()</text>
<text text-anchor="start" x="399.5" y="-553.5" font-family="Helvetica,sans-Serif" font-size="10.00">+ STATIC_ProfNodeSetTimeThreshold</text>
<text text-anchor="start" x="399.5" y="-542.5" font-family="Helvetica,sans-Serif" font-size="10.00">Seconds()</text>
<text text-anchor="start" x="399.5" y="-531.5" font-family="Helvetica,sans-Serif" font-size="10.00">+ STATIC_ProfNodeStop()</text>
<text text-anchor="start" x="399.5" y="-520.5" font-family="Helvetica,sans-Serif" font-size="10.00">+ STATIC_ProfNodeStart()</text>
<text text-anchor="start" x="399.5" y="-509.5" font-family="Helvetica,sans-Serif" font-size="10.00">+ STATIC_GetStringFromGuid()</text>
<text text-anchor="start" x="399.5" y="-498.5" font-family="Helvetica,sans-Serif" font-size="10.00">and 298 more...</text>
<text text-anchor="start" x="399.5" y="-487.5" font-family="Helvetica,sans-Serif" font-size="10.00">+ GetGlobalObjects()</text>
<text text-anchor="start" x="399.5" y="-476.5" font-family="Helvetica,sans-Serif" font-size="10.00">+ FindObject()</text>
<text text-anchor="start" x="399.5" y="-465.5" font-family="Helvetica,sans-Serif" font-size="10.00">+ FindClass()</text>
<text text-anchor="start" x="399.5" y="-454.5" font-family="Helvetica,sans-Serif" font-size="10.00">+ GetObjectCasted()</text>
<text text-anchor="start" x="399.5" y="-443.5" font-family="Helvetica,sans-Serif" font-size="10.00">+ StaticClass()</text>
</a>
</g>
</g>
<!-- Node3&#45;&gt;Node2 -->
<g id="edge2" class="edge">
<title>Node3&#45;&gt;Node2</title>
<path fill="none" stroke="midnightblue" d="M490.5,-425.96C490.5,-417.01 490.5,-408.19 490.5,-399.6"/>
<polygon fill="none" stroke="midnightblue" points="487,-426.11 490.5,-436.11 494,-426.11 487,-426.11"/>
</g>
</g>
</svg>
