<?xml version="1.0" encoding="UTF-8" standalone="no"?>
<!DOCTYPE svg PUBLIC "-//W3C//DTD SVG 1.1//EN"
 "http://www.w3.org/Graphics/SVG/1.1/DTD/svg11.dtd">
<!-- Generated by graphviz version 2.41.20171026.1811 (20171026.1811)
 -->
<!-- Title: SDK::FPawnEvents Pages: 1 -->
<svg width="113pt" height="171pt"
 viewBox="0.00 0.00 113.00 171.00" xmlns="http://www.w3.org/2000/svg" xmlns:xlink="http://www.w3.org/1999/xlink">
<g id="graph0" class="graph" transform="scale(1 1) rotate(0) translate(4 167)">
<title>SDK::FPawnEvents</title>
<polygon fill="white" stroke="transparent" points="-4,4 -4,-167 109,-167 109,4 -4,4"/>
<!-- Node1 -->
<g id="node1" class="node">
<title>Node1</title>
<g id="a_node1"><a xlink:title=" ">
<polygon fill="#bfbfbf" stroke="black" points="0,-0.5 0,-57.5 105,-57.5 105,-0.5 0,-0.5"/>
<text text-anchor="middle" x="52.5" y="-45.5" font-family="Helvetica,sans-Serif" font-size="10.00">SDK::FPawnEvents</text>
<polyline fill="none" stroke="black" points="0,-38.5 105,-38.5 "/>
<text text-anchor="middle" x="52.5" y="-26.5" font-family="Helvetica,sans-Serif" font-size="10.00"> </text>
<polyline fill="none" stroke="black" points="0,-19.5 105,-19.5 "/>
<text text-anchor="middle" x="52.5" y="-7.5" font-family="Helvetica,sans-Serif" font-size="10.00"> </text>
</a>
</g>
</g>
<!-- Node2 -->
<g id="node2" class="node">
<title>Node2</title>
<g id="a_node2"><a xlink:href="../../d9/d59/structSDK_1_1FEventsBase.html" target="_top" xlink:title=" ">
<polygon fill="white" stroke="black" points="1,-94.5 1,-162.5 104,-162.5 104,-94.5 1,-94.5"/>
<text text-anchor="middle" x="52.5" y="-150.5" font-family="Helvetica,sans-Serif" font-size="10.00">SDK::FEventsBase</text>
<polyline fill="none" stroke="black" points="1,-143.5 104,-143.5 "/>
<text text-anchor="start" x="9" y="-131.5" font-family="Helvetica,sans-Serif" font-size="10.00">+ TotalEvents</text>
<text text-anchor="start" x="9" y="-120.5" font-family="Helvetica,sans-Serif" font-size="10.00">+ EventsByClass</text>
<polyline fill="none" stroke="black" points="1,-113.5 104,-113.5 "/>
<text text-anchor="middle" x="52.5" y="-101.5" font-family="Helvetica,sans-Serif" font-size="10.00"> </text>
</a>
</g>
</g>
<!-- Node2&#45;&gt;Node1 -->
<g id="edge1" class="edge">
<title>Node2&#45;&gt;Node1</title>
<path fill="none" stroke="midnightblue" d="M52.5,-84.45C52.5,-75.4 52.5,-66.09 52.5,-57.78"/>
<polygon fill="none" stroke="midnightblue" points="49,-84.49 52.5,-94.49 56,-84.49 49,-84.49"/>
</g>
</g>
</svg>
