<?xml version="1.0" encoding="UTF-8" standalone="no"?>
<!DOCTYPE svg PUBLIC "-//W3C//DTD SVG 1.1//EN"
 "http://www.w3.org/Graphics/SVG/1.1/DTD/svg11.dtd">
<!-- Generated by graphviz version 2.41.20171026.1811 (20171026.1811)
 -->
<!-- Title: SDK::UParticleModuleMeshRotation Pages: 1 -->
<!--zoomable 2145 -->
<svg id="main" version="1.1" xmlns="http://www.w3.org/2000/svg" xmlns:xlink="http://www.w3.org/1999/xlink" xml:space="preserve" onload="init(evt)">
<style type="text/css"><![CDATA[
.edge:hover path { stroke: red; }
.edge:hover polygon { stroke: red; fill: red; }
]]></style>
<script type="text/javascript"><![CDATA[
var edges = document.getElementsByTagName('g');
if (edges && edges.length) {
  for (var i=0;i<edges.length;i++) {
    if (edges[i].id.substr(0,4)=='edge') {
      edges[i].setAttribute('class','edge');
    }
  }
}
]]></script>
        <defs>
                <circle id="rim" cx="0" cy="0" r="7"/>
                <circle id="rim2" cx="0" cy="0" r="3.5"/>
                <g id="zoomPlus">
                        <use xlink:href="#rim" fill="#404040">
                                <set attributeName="fill" to="#808080" begin="zoomplus.mouseover" end="zoomplus.mouseout"/>
                        </use>
                        <path d="M-4,0h8M0,-4v8" fill="none" stroke="white" stroke-width="1.5" pointer-events="none"/>
                </g>
                <g id="zoomMin">
                        <use xlink:href="#rim" fill="#404040">
                                <set attributeName="fill" to="#808080" begin="zoomminus.mouseover" end="zoomminus.mouseout"/>
                        </use>
                        <path d="M-4,0h8" fill="none" stroke="white" stroke-width="1.5" pointer-events="none"/>
                </g>
                <g id="dirArrow">
                        <path fill="none" stroke="white" stroke-width="1.5" d="M0,-3.0v7 M-2.5,-0.5L0,-3.0L2.5,-0.5"/>
                </g>
               <g id="resetDef">
                       <use xlink:href="#rim2" fill="#404040">
                               <set attributeName="fill" to="#808080" begin="reset.mouseover" end="reset.mouseout"/>
                       </use>
               </g>
        </defs>

<script type="text/javascript">
var viewWidth = 924;
var viewHeight = 2145;
var sectionId = 'dynsection-1';
</script>
<script xlink:href="../../svgpan.js"/>
<svg id="graph" class="graph">
<g id="viewport">
<title>SDK::UParticleModuleMeshRotation</title>
<polygon fill="white" stroke="transparent" points="-4,4 -4,-2141 920,-2141 920,4 -4,4"/>
<!-- Node1 -->
<g id="node1" class="node">
<title>Node1</title>
<g id="a_node1"><a xlink:title=" ">
<polygon fill="#bfbfbf" stroke="black" points="702,-0.5 702,-68.5 842,-68.5 842,-0.5 702,-0.5"/>
<text text-anchor="start" x="710" y="-56.5" font-family="Helvetica,sans-Serif" font-size="10.00">SDK::UParticleModuleMesh</text>
<text text-anchor="middle" x="772" y="-45.5" font-family="Helvetica,sans-Serif" font-size="10.00">Rotation</text>
<polyline fill="none" stroke="black" points="702,-38.5 842,-38.5 "/>
<text text-anchor="start" x="710" y="-26.5" font-family="Helvetica,sans-Serif" font-size="10.00">+ bInheritParent</text>
<polyline fill="none" stroke="black" points="702,-19.5 842,-19.5 "/>
<text text-anchor="start" x="710" y="-7.5" font-family="Helvetica,sans-Serif" font-size="10.00">+ StaticClass()</text>
</a>
</g>
</g>
<!-- Node2 -->
<g id="node2" class="node">
<title>Node2</title>
<g id="a_node2"><a xlink:href="../../dd/dca/classSDK_1_1UParticleModuleRotationBase.html" target="_top" xlink:title=" ">
<polygon fill="white" stroke="black" points="737.5,-647.5 737.5,-704.5 912.5,-704.5 912.5,-647.5 737.5,-647.5"/>
<text text-anchor="middle" x="825" y="-692.5" font-family="Helvetica,sans-Serif" font-size="10.00">SDK::UParticleModuleRotationBase</text>
<polyline fill="none" stroke="black" points="737.5,-685.5 912.5,-685.5 "/>
<text text-anchor="middle" x="825" y="-673.5" font-family="Helvetica,sans-Serif" font-size="10.00"> </text>
<polyline fill="none" stroke="black" points="737.5,-666.5 912.5,-666.5 "/>
<text text-anchor="start" x="745.5" y="-654.5" font-family="Helvetica,sans-Serif" font-size="10.00">+ StaticClass()</text>
</a>
</g>
</g>
<!-- Node2&#45;&gt;Node1 -->
<g id="edge1" class="edge">
<title>Node2&#45;&gt;Node1</title>
<path fill="none" stroke="midnightblue" d="M824.06,-637.23C823.54,-613.14 823,-581.23 823,-553 823,-553 823,-553 823,-144 823,-117.91 819.92,-110.69 809,-87 806.14,-80.8 802.5,-74.58 798.62,-68.72"/>
<polygon fill="none" stroke="midnightblue" points="820.57,-637.46 824.29,-647.38 827.56,-637.31 820.57,-637.46"/>
</g>
<!-- Node3 -->
<g id="node3" class="node">
<title>Node3</title>
<g id="a_node3"><a xlink:href="../../d5/df1/classSDK_1_1UParticleModule.html" target="_top" xlink:title=" ">
<polygon fill="white" stroke="black" points="749.5,-861.5 749.5,-1061.5 902.5,-1061.5 902.5,-861.5 749.5,-861.5"/>
<text text-anchor="middle" x="826" y="-1049.5" font-family="Helvetica,sans-Serif" font-size="10.00">SDK::UParticleModule</text>
<polyline fill="none" stroke="black" points="749.5,-1042.5 902.5,-1042.5 "/>
<text text-anchor="start" x="757.5" y="-1030.5" font-family="Helvetica,sans-Serif" font-size="10.00">+ bSpawnModule</text>
<text text-anchor="start" x="757.5" y="-1019.5" font-family="Helvetica,sans-Serif" font-size="10.00">+ bUpdateModule</text>
<text text-anchor="start" x="757.5" y="-1008.5" font-family="Helvetica,sans-Serif" font-size="10.00">+ bFinalUpdateModule</text>
<text text-anchor="start" x="757.5" y="-997.5" font-family="Helvetica,sans-Serif" font-size="10.00">+ bCurvesAsColor</text>
<text text-anchor="start" x="757.5" y="-986.5" font-family="Helvetica,sans-Serif" font-size="10.00">+ b3DDrawMode</text>
<text text-anchor="start" x="757.5" y="-975.5" font-family="Helvetica,sans-Serif" font-size="10.00">+ EnableToggle3DDrawMode</text>
<text text-anchor="start" x="757.5" y="-964.5" font-family="Helvetica,sans-Serif" font-size="10.00">+ bSupported3DDrawMode</text>
<text text-anchor="start" x="757.5" y="-953.5" font-family="Helvetica,sans-Serif" font-size="10.00">+ bEnabled</text>
<text text-anchor="start" x="757.5" y="-942.5" font-family="Helvetica,sans-Serif" font-size="10.00">+ bEditable</text>
<text text-anchor="start" x="757.5" y="-931.5" font-family="Helvetica,sans-Serif" font-size="10.00">+ LODDuplicate</text>
<text text-anchor="start" x="757.5" y="-920.5" font-family="Helvetica,sans-Serif" font-size="10.00">+ bSupportsRandomSeed</text>
<text text-anchor="start" x="757.5" y="-909.5" font-family="Helvetica,sans-Serif" font-size="10.00">+ bRequiresLoopingNotification</text>
<text text-anchor="start" x="757.5" y="-898.5" font-family="Helvetica,sans-Serif" font-size="10.00">+ LODValidity</text>
<text text-anchor="start" x="757.5" y="-887.5" font-family="Helvetica,sans-Serif" font-size="10.00">+ UnknownData00</text>
<polyline fill="none" stroke="black" points="749.5,-880.5 902.5,-880.5 "/>
<text text-anchor="start" x="757.5" y="-868.5" font-family="Helvetica,sans-Serif" font-size="10.00">+ StaticClass()</text>
</a>
</g>
</g>
<!-- Node3&#45;&gt;Node2 -->
<g id="edge2" class="edge">
<title>Node3&#45;&gt;Node2</title>
<path fill="none" stroke="midnightblue" d="M825.61,-851.16C825.43,-797.99 825.22,-738.4 825.1,-704.52"/>
<polygon fill="none" stroke="midnightblue" points="822.11,-851.36 825.65,-861.35 829.11,-851.33 822.11,-851.36"/>
</g>
<!-- Node4 -->
<g id="node4" class="node">
<title>Node4</title>
<g id="a_node4"><a xlink:href="../../d9/d45/classSDK_1_1UObject.html" target="_top" xlink:title=" ">
<polygon fill="white" stroke="black" points="177,-1109.5 177,-1353.5 375,-1353.5 375,-1109.5 177,-1109.5"/>
<text text-anchor="middle" x="276" y="-1341.5" font-family="Helvetica,sans-Serif" font-size="10.00">SDK::UObject</text>
<polyline fill="none" stroke="black" points="177,-1334.5 375,-1334.5 "/>
<text text-anchor="start" x="185" y="-1322.5" font-family="Helvetica,sans-Serif" font-size="10.00">+ ObjectInternalInteger</text>
<text text-anchor="start" x="185" y="-1311.5" font-family="Helvetica,sans-Serif" font-size="10.00">+ NetIndex</text>
<polyline fill="none" stroke="black" points="177,-1304.5 375,-1304.5 "/>
<text text-anchor="start" x="185" y="-1292.5" font-family="Helvetica,sans-Serif" font-size="10.00">+ UObject::GetName()</text>
<text text-anchor="start" x="185" y="-1281.5" font-family="Helvetica,sans-Serif" font-size="10.00">+ GetFullName()</text>
<text text-anchor="start" x="185" y="-1270.5" font-family="Helvetica,sans-Serif" font-size="10.00">+ IsA()</text>
<text text-anchor="start" x="185" y="-1259.5" font-family="Helvetica,sans-Serif" font-size="10.00">+ ProcessEvent()</text>
<text text-anchor="start" x="185" y="-1248.5" font-family="Helvetica,sans-Serif" font-size="10.00">+ STATIC_ProfNodeEvent()</text>
<text text-anchor="start" x="185" y="-1237.5" font-family="Helvetica,sans-Serif" font-size="10.00">+ STATIC_ProfNodeSetDepthThreshold()</text>
<text text-anchor="start" x="185" y="-1226.5" font-family="Helvetica,sans-Serif" font-size="10.00">+ STATIC_ProfNodeSetTimeThreshold</text>
<text text-anchor="start" x="185" y="-1215.5" font-family="Helvetica,sans-Serif" font-size="10.00">Seconds()</text>
<text text-anchor="start" x="185" y="-1204.5" font-family="Helvetica,sans-Serif" font-size="10.00">+ STATIC_ProfNodeStop()</text>
<text text-anchor="start" x="185" y="-1193.5" font-family="Helvetica,sans-Serif" font-size="10.00">+ STATIC_ProfNodeStart()</text>
<text text-anchor="start" x="185" y="-1182.5" font-family="Helvetica,sans-Serif" font-size="10.00">+ STATIC_GetStringFromGuid()</text>
<text text-anchor="start" x="185" y="-1171.5" font-family="Helvetica,sans-Serif" font-size="10.00">and 298 more...</text>
<text text-anchor="start" x="185" y="-1160.5" font-family="Helvetica,sans-Serif" font-size="10.00">+ GetGlobalObjects()</text>
<text text-anchor="start" x="185" y="-1149.5" font-family="Helvetica,sans-Serif" font-size="10.00">+ FindObject()</text>
<text text-anchor="start" x="185" y="-1138.5" font-family="Helvetica,sans-Serif" font-size="10.00">+ FindClass()</text>
<text text-anchor="start" x="185" y="-1127.5" font-family="Helvetica,sans-Serif" font-size="10.00">+ GetObjectCasted()</text>
<text text-anchor="start" x="185" y="-1116.5" font-family="Helvetica,sans-Serif" font-size="10.00">+ StaticClass()</text>
</a>
</g>
</g>
<!-- Node4&#45;&gt;Node3 -->
<g id="edge3" class="edge">
<title>Node4&#45;&gt;Node3</title>
<path fill="none" stroke="midnightblue" d="M384.55,-1177.61C492.16,-1125.17 654.28,-1046.18 749.19,-999.93"/>
<polygon fill="none" stroke="midnightblue" points="382.74,-1174.6 375.28,-1182.12 385.81,-1180.89 382.74,-1174.6"/>
</g>
<!-- Node4&#45;&gt;Node4 -->
<g id="edge9" class="edge">
<title>Node4&#45;&gt;Node4</title>
<path fill="none" stroke="#404040" d="M375.01,-1254.53C385.94,-1250.15 393,-1242.48 393,-1231.5 393,-1224.64 390.24,-1219.07 385.51,-1214.78"/>
<polygon fill="none" stroke="#404040" points="385.3,-1214.66 378.09,-1214.99 375.01,-1208.47 382.22,-1208.14 385.3,-1214.66"/>
<text text-anchor="middle" x="432.5" y="-1240" font-family="Helvetica,sans-Serif" font-size="10.00"> +Outer</text>
<text text-anchor="middle" x="432.5" y="-1229" font-family="Helvetica,sans-Serif" font-size="10.00">+Linker</text>
<text text-anchor="middle" x="432.5" y="-1218" font-family="Helvetica,sans-Serif" font-size="10.00">+ObjectArchetype</text>
</g>
<!-- Node10 -->
<g id="node10" class="node">
<title>Node10</title>
<g id="a_node10"><a xlink:href="../../d3/d79/classSDK_1_1TArray.html" target="_top" xlink:title=" ">
<polygon fill="white" stroke="black" points="378.5,-894.5 378.5,-1028.5 539.5,-1028.5 539.5,-894.5 378.5,-894.5"/>
<text text-anchor="middle" x="459" y="-1016.5" font-family="Helvetica,sans-Serif" font-size="10.00">SDK::TArray&lt; SDK::UObject * &gt;</text>
<polyline fill="none" stroke="black" points="378.5,-1009.5 539.5,-1009.5 "/>
<text text-anchor="start" x="386.5" y="-997.5" font-family="Helvetica,sans-Serif" font-size="10.00">&#45; Count</text>
<text text-anchor="start" x="386.5" y="-986.5" font-family="Helvetica,sans-Serif" font-size="10.00">&#45; Max</text>
<polyline fill="none" stroke="black" points="378.5,-979.5 539.5,-979.5 "/>
<text text-anchor="start" x="386.5" y="-967.5" font-family="Helvetica,sans-Serif" font-size="10.00">+ TArray()</text>
<text text-anchor="start" x="386.5" y="-956.5" font-family="Helvetica,sans-Serif" font-size="10.00">+ Num()</text>
<text text-anchor="start" x="386.5" y="-945.5" font-family="Helvetica,sans-Serif" font-size="10.00">+ operator[]()</text>
<text text-anchor="start" x="386.5" y="-934.5" font-family="Helvetica,sans-Serif" font-size="10.00">+ operator[]()</text>
<text text-anchor="start" x="386.5" y="-923.5" font-family="Helvetica,sans-Serif" font-size="10.00">+ IsValidIndex()</text>
<text text-anchor="start" x="386.5" y="-912.5" font-family="Helvetica,sans-Serif" font-size="10.00">+ GetByIndex()</text>
<text text-anchor="start" x="386.5" y="-901.5" font-family="Helvetica,sans-Serif" font-size="10.00">+ GetByIndex()</text>
</a>
</g>
</g>
<!-- Node4&#45;&gt;Node10 -->
<g id="edge11" class="edge">
<title>Node4&#45;&gt;Node10</title>
<path fill="none" stroke="#404040" d="M358.67,-1109.44C375.09,-1085.38 391.91,-1060.76 406.96,-1038.72"/>
<polygon fill="none" stroke="#404040" points="406.97,-1038.69 407.05,-1031.48 413.74,-1028.78 413.66,-1036 406.97,-1038.69"/>
<text text-anchor="middle" x="393" y="-1083" font-family="Helvetica,sans-Serif" font-size="10.00"> &#45;Data</text>
</g>
<!-- Node12 -->
<g id="node12" class="node">
<title>Node12</title>
<g id="a_node12"><a xlink:href="../../d7/d85/classSDK_1_1UClass.html" target="_top" xlink:title=" ">
<polygon fill="white" stroke="black" points="193.5,-443.5 193.5,-533.5 314.5,-533.5 314.5,-443.5 193.5,-443.5"/>
<text text-anchor="middle" x="254" y="-521.5" font-family="Helvetica,sans-Serif" font-size="10.00">SDK::UClass</text>
<polyline fill="none" stroke="black" points="193.5,-514.5 314.5,-514.5 "/>
<text text-anchor="start" x="201.5" y="-502.5" font-family="Helvetica,sans-Serif" font-size="10.00">+ UnknownData00</text>
<text text-anchor="start" x="201.5" y="-491.5" font-family="Helvetica,sans-Serif" font-size="10.00">+ UnknownData01</text>
<polyline fill="none" stroke="black" points="193.5,-484.5 314.5,-484.5 "/>
<text text-anchor="start" x="201.5" y="-472.5" font-family="Helvetica,sans-Serif" font-size="10.00">+ CreateDefaultObject()</text>
<text text-anchor="start" x="201.5" y="-461.5" font-family="Helvetica,sans-Serif" font-size="10.00">+ CreateDefaultObject()</text>
<text text-anchor="start" x="201.5" y="-450.5" font-family="Helvetica,sans-Serif" font-size="10.00">+ StaticClass()</text>
</a>
</g>
</g>
<!-- Node4&#45;&gt;Node12 -->
<g id="edge21" class="edge">
<title>Node4&#45;&gt;Node12</title>
<path fill="none" stroke="#404040" d="M324.22,-1109.35C338.31,-1064.02 350,-1011.61 350,-962.5 350,-962.5 350,-962.5 350,-599 350,-576.5 338.39,-556.4 323.25,-539.76"/>
<polygon fill="none" stroke="#404040" points="322.94,-539.44 315.88,-537.97 314.53,-530.88 321.58,-532.36 322.94,-539.44"/>
<text text-anchor="middle" x="397.5" y="-760.5" font-family="Helvetica,sans-Serif" font-size="10.00"> +ClassDefaultObject</text>
</g>
<!-- Node15 -->
<g id="node15" class="node">
<title>Node15</title>
<g id="a_node15"><a xlink:href="../../de/dd6/classSDK_1_1UField.html" target="_top" xlink:title=" ">
<polygon fill="white" stroke="black" points="132.5,-933 132.5,-990 215.5,-990 215.5,-933 132.5,-933"/>
<text text-anchor="middle" x="174" y="-978" font-family="Helvetica,sans-Serif" font-size="10.00">SDK::UField</text>
<polyline fill="none" stroke="black" points="132.5,-971 215.5,-971 "/>
<text text-anchor="middle" x="174" y="-959" font-family="Helvetica,sans-Serif" font-size="10.00"> </text>
<polyline fill="none" stroke="black" points="132.5,-952 215.5,-952 "/>
<text text-anchor="start" x="140.5" y="-940" font-family="Helvetica,sans-Serif" font-size="10.00">+ StaticClass()</text>
</a>
</g>
</g>
<!-- Node4&#45;&gt;Node15 -->
<g id="edge18" class="edge">
<title>Node4&#45;&gt;Node15</title>
<path fill="none" stroke="midnightblue" d="M226.35,-1100.05C210.59,-1058.63 194.65,-1016.75 184.57,-990.27"/>
<polygon fill="none" stroke="midnightblue" points="223.1,-1101.34 229.92,-1109.44 229.64,-1098.85 223.1,-1101.34"/>
</g>
<!-- Node21 -->
<g id="node21" class="node">
<title>Node21</title>
<g id="a_node21"><a xlink:href="../../dc/d28/classSDK_1_1UComponent.html" target="_top" xlink:title=" ">
<polygon fill="white" stroke="black" points="82.5,-338.5 82.5,-395.5 183.5,-395.5 183.5,-338.5 82.5,-338.5"/>
<text text-anchor="middle" x="133" y="-383.5" font-family="Helvetica,sans-Serif" font-size="10.00">SDK::UComponent</text>
<polyline fill="none" stroke="black" points="82.5,-376.5 183.5,-376.5 "/>
<text text-anchor="middle" x="133" y="-364.5" font-family="Helvetica,sans-Serif" font-size="10.00"> </text>
<polyline fill="none" stroke="black" points="82.5,-357.5 183.5,-357.5 "/>
<text text-anchor="start" x="90.5" y="-345.5" font-family="Helvetica,sans-Serif" font-size="10.00">+ StaticClass()</text>
</a>
</g>
</g>
<!-- Node4&#45;&gt;Node21 -->
<g id="edge29" class="edge">
<title>Node4&#45;&gt;Node21</title>
<path fill="none" stroke="midnightblue" d="M170.21,-1131.61C152.13,-1110.2 135.26,-1086.56 123,-1062 102.89,-1021.72 104,-1007.52 104,-962.5 104,-962.5 104,-962.5 104,-487.5 104,-455.26 114.09,-419.48 122.37,-395.55"/>
<polygon fill="none" stroke="midnightblue" points="167.74,-1134.1 176.92,-1139.39 173.04,-1129.53 167.74,-1134.1"/>
</g>
<!-- Node5 -->
<g id="node5" class="node">
<title>Node5</title>
<g id="a_node5"><a xlink:href="../../d0/d22/structSDK_1_1FQWord.html" target="_top" xlink:title=" ">
<polygon fill="white" stroke="black" points="317,-1531 317,-1599 397,-1599 397,-1531 317,-1531"/>
<text text-anchor="middle" x="357" y="-1587" font-family="Helvetica,sans-Serif" font-size="10.00">SDK::FQWord</text>
<polyline fill="none" stroke="black" points="317,-1580 397,-1580 "/>
<text text-anchor="start" x="325" y="-1568" font-family="Helvetica,sans-Serif" font-size="10.00">+ A</text>
<text text-anchor="start" x="325" y="-1557" font-family="Helvetica,sans-Serif" font-size="10.00">+ B</text>
<polyline fill="none" stroke="black" points="317,-1550 397,-1550 "/>
<text text-anchor="middle" x="357" y="-1538" font-family="Helvetica,sans-Serif" font-size="10.00"> </text>
</a>
</g>
</g>
<!-- Node5&#45;&gt;Node4 -->
<g id="edge4" class="edge">
<title>Node5&#45;&gt;Node4</title>
<path fill="none" stroke="#404040" d="M348.86,-1530.7C339.42,-1492.06 323.27,-1425.95 308.57,-1365.78"/>
<polygon fill="none" stroke="#404040" points="308.5,-1365.5 303.19,-1360.62 305.65,-1353.84 310.96,-1358.72 308.5,-1365.5"/>
<text text-anchor="middle" x="369" y="-1426" font-family="Helvetica,sans-Serif" font-size="10.00"> +ObjectFlags</text>
</g>
<!-- Node6 -->
<g id="node6" class="node">
<title>Node6</title>
<g id="a_node6"><a xlink:href="../../d0/db6/structSDK_1_1FName.html" target="_top" xlink:title=" ">
<polygon fill="white" stroke="black" points="191.5,-1503.5 191.5,-1626.5 298.5,-1626.5 298.5,-1503.5 191.5,-1503.5"/>
<text text-anchor="middle" x="245" y="-1614.5" font-family="Helvetica,sans-Serif" font-size="10.00">SDK::FName</text>
<polyline fill="none" stroke="black" points="191.5,-1607.5 298.5,-1607.5 "/>
<text text-anchor="start" x="199.5" y="-1595.5" font-family="Helvetica,sans-Serif" font-size="10.00">+ Index</text>
<text text-anchor="start" x="199.5" y="-1584.5" font-family="Helvetica,sans-Serif" font-size="10.00">+ Number</text>
<polyline fill="none" stroke="black" points="191.5,-1577.5 298.5,-1577.5 "/>
<text text-anchor="start" x="199.5" y="-1565.5" font-family="Helvetica,sans-Serif" font-size="10.00">+ FName()</text>
<text text-anchor="start" x="199.5" y="-1554.5" font-family="Helvetica,sans-Serif" font-size="10.00">+ FName()</text>
<text text-anchor="start" x="199.5" y="-1543.5" font-family="Helvetica,sans-Serif" font-size="10.00">+ FName()</text>
<text text-anchor="start" x="199.5" y="-1532.5" font-family="Helvetica,sans-Serif" font-size="10.00">+ GetName()</text>
<text text-anchor="start" x="199.5" y="-1521.5" font-family="Helvetica,sans-Serif" font-size="10.00">+ operator==()</text>
<text text-anchor="start" x="199.5" y="-1510.5" font-family="Helvetica,sans-Serif" font-size="10.00">+ GetGlobalNames()</text>
</a>
</g>
</g>
<!-- Node6&#45;&gt;Node4 -->
<g id="edge5" class="edge">
<title>Node6&#45;&gt;Node4</title>
<path fill="none" stroke="#404040" d="M250.69,-1503.2C254.29,-1464.69 259.09,-1413.33 263.54,-1365.71"/>
<polygon fill="none" stroke="#404040" points="263.55,-1365.64 260.13,-1359.29 264.67,-1353.69 268.09,-1360.04 263.55,-1365.64"/>
<text text-anchor="middle" x="281" y="-1426" font-family="Helvetica,sans-Serif" font-size="10.00"> +Name</text>
</g>
<!-- Node6&#45;&gt;Node21 -->
<g id="edge30" class="edge">
<title>Node6&#45;&gt;Node21</title>
<path fill="none" stroke="#404040" d="M191.23,-1526.37C119.11,-1471.01 0,-1360.24 0,-1232.5 0,-1232.5 0,-1232.5 0,-487.5 0,-445.72 36.76,-414.85 71.62,-394.95"/>
<polygon fill="none" stroke="#404040" points="71.79,-394.86 75.16,-388.48 82.34,-389.13 78.98,-395.51 71.79,-394.86"/>
<text text-anchor="middle" x="38" y="-760.5" font-family="Helvetica,sans-Serif" font-size="10.00"> +TemplateName</text>
</g>
<!-- Node7 -->
<g id="node7" class="node">
<title>Node7</title>
<g id="a_node7"><a xlink:href="../../d3/d79/classSDK_1_1TArray.html" target="_top" xlink:title=" ">
<polygon fill="white" stroke="black" points="169,-1809.5 169,-1943.5 349,-1943.5 349,-1809.5 169,-1809.5"/>
<text text-anchor="middle" x="259" y="-1931.5" font-family="Helvetica,sans-Serif" font-size="10.00">SDK::TArray&lt; SDK::FNameEntry * &gt;</text>
<polyline fill="none" stroke="black" points="169,-1924.5 349,-1924.5 "/>
<text text-anchor="start" x="177" y="-1912.5" font-family="Helvetica,sans-Serif" font-size="10.00">&#45; Count</text>
<text text-anchor="start" x="177" y="-1901.5" font-family="Helvetica,sans-Serif" font-size="10.00">&#45; Max</text>
<polyline fill="none" stroke="black" points="169,-1894.5 349,-1894.5 "/>
<text text-anchor="start" x="177" y="-1882.5" font-family="Helvetica,sans-Serif" font-size="10.00">+ TArray()</text>
<text text-anchor="start" x="177" y="-1871.5" font-family="Helvetica,sans-Serif" font-size="10.00">+ Num()</text>
<text text-anchor="start" x="177" y="-1860.5" font-family="Helvetica,sans-Serif" font-size="10.00">+ operator[]()</text>
<text text-anchor="start" x="177" y="-1849.5" font-family="Helvetica,sans-Serif" font-size="10.00">+ operator[]()</text>
<text text-anchor="start" x="177" y="-1838.5" font-family="Helvetica,sans-Serif" font-size="10.00">+ IsValidIndex()</text>
<text text-anchor="start" x="177" y="-1827.5" font-family="Helvetica,sans-Serif" font-size="10.00">+ GetByIndex()</text>
<text text-anchor="start" x="177" y="-1816.5" font-family="Helvetica,sans-Serif" font-size="10.00">+ GetByIndex()</text>
</a>
</g>
</g>
<!-- Node7&#45;&gt;Node6 -->
<g id="edge6" class="edge">
<title>Node7&#45;&gt;Node6</title>
<path fill="none" stroke="#404040" d="M256.01,-1809.48C253.75,-1759.36 250.63,-1690.46 248.29,-1638.75"/>
<polygon fill="none" stroke="#404040" points="248.29,-1638.65 244.02,-1632.84 247.74,-1626.66 252.01,-1632.48 248.29,-1638.65"/>
<text text-anchor="middle" x="279.5" y="-1715.5" font-family="Helvetica,sans-Serif" font-size="10.00"> +GNames</text>
</g>
<!-- Node8 -->
<g id="node8" class="node">
<title>Node8</title>
<g id="a_node8"><a xlink:href="../../d7/ddf/classSDK_1_1FNameEntry.html" target="_top" xlink:title=" ">
<polygon fill="white" stroke="black" points="209.5,-2030 209.5,-2098 308.5,-2098 308.5,-2030 209.5,-2030"/>
<text text-anchor="middle" x="259" y="-2086" font-family="Helvetica,sans-Serif" font-size="10.00">SDK::FNameEntry</text>
<polyline fill="none" stroke="black" points="209.5,-2079 308.5,-2079 "/>
<text text-anchor="start" x="217.5" y="-2067" font-family="Helvetica,sans-Serif" font-size="10.00">+ UnknownData00</text>
<text text-anchor="start" x="217.5" y="-2056" font-family="Helvetica,sans-Serif" font-size="10.00">+ name</text>
<polyline fill="none" stroke="black" points="209.5,-2049 308.5,-2049 "/>
<text text-anchor="start" x="217.5" y="-2037" font-family="Helvetica,sans-Serif" font-size="10.00">+ GetName()</text>
</a>
</g>
</g>
<!-- Node8&#45;&gt;Node7 -->
<g id="edge7" class="edge">
<title>Node8&#45;&gt;Node7</title>
<path fill="none" stroke="#404040" d="M259,-2029.84C259,-2009.23 259,-1981.83 259,-1955.95"/>
<polygon fill="none" stroke="#404040" points="259,-1955.8 255,-1949.8 259,-1943.8 263,-1949.8 259,-1955.8"/>
<text text-anchor="middle" x="273" y="-1965" font-family="Helvetica,sans-Serif" font-size="10.00"> &#45;Data</text>
</g>
<!-- Node9 -->
<g id="node9" class="node">
<title>Node9</title>
<g id="a_node9"><a xlink:href="../../d3/d79/classSDK_1_1TArray.html" target="_top" xlink:title=" ">
<polygon fill="white" stroke="black" points="409.5,-1991.5 409.5,-2136.5 506.5,-2136.5 506.5,-1991.5 409.5,-1991.5"/>
<text text-anchor="middle" x="458" y="-2124.5" font-family="Helvetica,sans-Serif" font-size="10.00">SDK::TArray&lt; T &gt;</text>
<polyline fill="none" stroke="black" points="409.5,-2117.5 506.5,-2117.5 "/>
<text text-anchor="start" x="417.5" y="-2105.5" font-family="Helvetica,sans-Serif" font-size="10.00">&#45; Data</text>
<text text-anchor="start" x="417.5" y="-2094.5" font-family="Helvetica,sans-Serif" font-size="10.00">&#45; Count</text>
<text text-anchor="start" x="417.5" y="-2083.5" font-family="Helvetica,sans-Serif" font-size="10.00">&#45; Max</text>
<polyline fill="none" stroke="black" points="409.5,-2076.5 506.5,-2076.5 "/>
<text text-anchor="start" x="417.5" y="-2064.5" font-family="Helvetica,sans-Serif" font-size="10.00">+ TArray()</text>
<text text-anchor="start" x="417.5" y="-2053.5" font-family="Helvetica,sans-Serif" font-size="10.00">+ Num()</text>
<text text-anchor="start" x="417.5" y="-2042.5" font-family="Helvetica,sans-Serif" font-size="10.00">+ operator[]()</text>
<text text-anchor="start" x="417.5" y="-2031.5" font-family="Helvetica,sans-Serif" font-size="10.00">+ operator[]()</text>
<text text-anchor="start" x="417.5" y="-2020.5" font-family="Helvetica,sans-Serif" font-size="10.00">+ IsValidIndex()</text>
<text text-anchor="start" x="417.5" y="-2009.5" font-family="Helvetica,sans-Serif" font-size="10.00">+ GetByIndex()</text>
<text text-anchor="start" x="417.5" y="-1998.5" font-family="Helvetica,sans-Serif" font-size="10.00">+ GetByIndex()</text>
</a>
</g>
</g>
<!-- Node9&#45;&gt;Node7 -->
<g id="edge8" class="edge">
<title>Node9&#45;&gt;Node7</title>
<path fill="none" stroke="orange" d="M401.08,-2027.16C378.73,-2011.8 353.56,-1992.85 333,-1973 323.72,-1964.04 314.63,-1953.87 306.17,-1943.6"/>
<polygon fill="orange" stroke="orange" points="399.26,-2030.15 409.5,-2032.86 403.18,-2024.35 399.26,-2030.15"/>
<text text-anchor="middle" x="388.5" y="-1965" font-family="Helvetica,sans-Serif" font-size="10.00"> &lt; SDK::FNameEntry * &gt;</text>
</g>
<!-- Node9&#45;&gt;Node10 -->
<g id="edge12" class="edge">
<title>Node9&#45;&gt;Node10</title>
<path fill="none" stroke="orange" d="M458.75,-1981.11C459.88,-1872.01 462.39,-1672.96 467,-1503 468.58,-1444.76 457.53,-1428.44 472,-1372 474.22,-1363.34 478.95,-1362.71 481,-1354 506.02,-1248.02 489.11,-1217.59 481,-1109 479.03,-1082.58 475.08,-1053.71 471.07,-1028.63"/>
<polygon fill="orange" stroke="orange" points="455.25,-1981.35 458.65,-1991.39 462.25,-1981.42 455.25,-1981.35"/>
<text text-anchor="middle" x="512.5" y="-1562.5" font-family="Helvetica,sans-Serif" font-size="10.00"> &lt; SDK::UObject * &gt;</text>
</g>
<!-- Node19 -->
<g id="node19" class="node">
<title>Node19</title>
<g id="a_node19"><a xlink:href="../../d3/d79/classSDK_1_1TArray.html" target="_top" xlink:title=" ">
<polygon fill="white" stroke="black" points="564,-1645.5 564,-1790.5 674,-1790.5 674,-1645.5 564,-1645.5"/>
<text text-anchor="middle" x="619" y="-1778.5" font-family="Helvetica,sans-Serif" font-size="10.00">SDK::TArray&lt; float &gt;</text>
<polyline fill="none" stroke="black" points="564,-1771.5 674,-1771.5 "/>
<text text-anchor="start" x="572" y="-1759.5" font-family="Helvetica,sans-Serif" font-size="10.00">&#45; Data</text>
<text text-anchor="start" x="572" y="-1748.5" font-family="Helvetica,sans-Serif" font-size="10.00">&#45; Count</text>
<text text-anchor="start" x="572" y="-1737.5" font-family="Helvetica,sans-Serif" font-size="10.00">&#45; Max</text>
<polyline fill="none" stroke="black" points="564,-1730.5 674,-1730.5 "/>
<text text-anchor="start" x="572" y="-1718.5" font-family="Helvetica,sans-Serif" font-size="10.00">+ TArray()</text>
<text text-anchor="start" x="572" y="-1707.5" font-family="Helvetica,sans-Serif" font-size="10.00">+ Num()</text>
<text text-anchor="start" x="572" y="-1696.5" font-family="Helvetica,sans-Serif" font-size="10.00">+ operator[]()</text>
<text text-anchor="start" x="572" y="-1685.5" font-family="Helvetica,sans-Serif" font-size="10.00">+ operator[]()</text>
<text text-anchor="start" x="572" y="-1674.5" font-family="Helvetica,sans-Serif" font-size="10.00">+ IsValidIndex()</text>
<text text-anchor="start" x="572" y="-1663.5" font-family="Helvetica,sans-Serif" font-size="10.00">+ GetByIndex()</text>
<text text-anchor="start" x="572" y="-1652.5" font-family="Helvetica,sans-Serif" font-size="10.00">+ GetByIndex()</text>
</a>
</g>
</g>
<!-- Node9&#45;&gt;Node19 -->
<g id="edge26" class="edge">
<title>Node9&#45;&gt;Node19</title>
<path fill="none" stroke="orange" d="M495.84,-1982.16C523.02,-1924.06 559.34,-1846.46 585.49,-1790.6"/>
<polygon fill="orange" stroke="orange" points="492.62,-1980.76 491.55,-1991.31 498.96,-1983.73 492.62,-1980.76"/>
<text text-anchor="middle" x="525" y="-1965" font-family="Helvetica,sans-Serif" font-size="10.00"> &lt; float &gt;</text>
</g>
<!-- Node10&#45;&gt;Node4 -->
<g id="edge10" class="edge">
<title>Node10&#45;&gt;Node4</title>
<path fill="none" stroke="#404040" d="M440.76,-1028.71C433.49,-1049.52 423.96,-1072 412,-1091 403.6,-1104.35 393.75,-1117.46 383.26,-1129.97"/>
<polygon fill="none" stroke="#404040" points="382.95,-1130.33 382.07,-1137.49 375.12,-1139.43 376.01,-1132.27 382.95,-1130.33"/>
<text text-anchor="middle" x="443.5" y="-1083" font-family="Helvetica,sans-Serif" font-size="10.00"> +GObjects</text>
</g>
<!-- Node11 -->
<g id="node11" class="node">
<title>Node11</title>
<g id="a_node11"><a xlink:href="../../d9/dfa/structSDK_1_1FPointer.html" target="_top" xlink:title=" ">
<polygon fill="white" stroke="black" points="567,-1531 567,-1599 665,-1599 665,-1531 567,-1531"/>
<text text-anchor="middle" x="616" y="-1587" font-family="Helvetica,sans-Serif" font-size="10.00">SDK::FPointer</text>
<polyline fill="none" stroke="black" points="567,-1580 665,-1580 "/>
<text text-anchor="start" x="575" y="-1568" font-family="Helvetica,sans-Serif" font-size="10.00">+ Dummy</text>
<text text-anchor="start" x="575" y="-1557" font-family="Helvetica,sans-Serif" font-size="10.00">+ UnknownData00</text>
<polyline fill="none" stroke="black" points="567,-1550 665,-1550 "/>
<text text-anchor="middle" x="616" y="-1538" font-family="Helvetica,sans-Serif" font-size="10.00"> </text>
</a>
</g>
</g>
<!-- Node11&#45;&gt;Node4 -->
<g id="edge13" class="edge">
<title>Node11&#45;&gt;Node4</title>
<path fill="none" stroke="#404040" d="M587.73,-1530.93C577.64,-1520.78 565.62,-1510.36 553,-1503 528.58,-1488.76 515.36,-1500.91 492,-1485 439.39,-1449.16 445.11,-1420.6 404,-1372 397.29,-1364.07 390.29,-1355.97 383.17,-1347.86"/>
<polygon fill="none" stroke="#404040" points="383.03,-1347.71 376.06,-1345.86 375.08,-1338.72 382.05,-1340.57 383.03,-1347.71"/>
<text text-anchor="middle" x="526.5" y="-1437" font-family="Helvetica,sans-Serif" font-size="10.00"> +StateFrame</text>
<text text-anchor="middle" x="526.5" y="-1426" font-family="Helvetica,sans-Serif" font-size="10.00">+VfTableObject</text>
<text text-anchor="middle" x="526.5" y="-1415" font-family="Helvetica,sans-Serif" font-size="10.00">+LinkerIndex</text>
</g>
<!-- Node20 -->
<g id="node20" class="node">
<title>Node20</title>
<g id="a_node20"><a xlink:href="../../d6/df6/classSDK_1_1UDistributionVector.html" target="_top" xlink:title=" ">
<polygon fill="white" stroke="black" points="510.5,-221.5 510.5,-300.5 639.5,-300.5 639.5,-221.5 510.5,-221.5"/>
<text text-anchor="middle" x="575" y="-288.5" font-family="Helvetica,sans-Serif" font-size="10.00">SDK::UDistributionVector</text>
<polyline fill="none" stroke="black" points="510.5,-281.5 639.5,-281.5 "/>
<text text-anchor="start" x="518.5" y="-269.5" font-family="Helvetica,sans-Serif" font-size="10.00">+ bCanBeBaked</text>
<text text-anchor="start" x="518.5" y="-258.5" font-family="Helvetica,sans-Serif" font-size="10.00">+ bIsDirty</text>
<polyline fill="none" stroke="black" points="510.5,-251.5 639.5,-251.5 "/>
<text text-anchor="start" x="518.5" y="-239.5" font-family="Helvetica,sans-Serif" font-size="10.00">+ GetVectorValue()</text>
<text text-anchor="start" x="518.5" y="-228.5" font-family="Helvetica,sans-Serif" font-size="10.00">+ StaticClass()</text>
</a>
</g>
</g>
<!-- Node11&#45;&gt;Node20 -->
<g id="edge32" class="edge">
<title>Node11&#45;&gt;Node20</title>
<path fill="none" stroke="#404040" d="M609.14,-1530.76C597.47,-1471.24 575,-1342.39 575,-1232.5 575,-1232.5 575,-1232.5 575,-366 575,-348.73 575,-329.86 575,-312.98"/>
<polygon fill="none" stroke="#404040" points="575,-312.52 571,-306.52 575,-300.52 579,-306.52 575,-312.52"/>
<text text-anchor="middle" x="640.5" y="-673.5" font-family="Helvetica,sans-Serif" font-size="10.00"> +VfTable_FCurveEdInterface</text>
</g>
<!-- Node12&#45;&gt;Node4 -->
<g id="edge14" class="edge">
<title>Node12&#45;&gt;Node4</title>
<path fill="none" stroke="#404040" d="M256.86,-533.51C261.25,-603.03 269.49,-742.55 273,-861 275.32,-939.35 276.11,-1027.08 276.3,-1097.39"/>
<polygon fill="none" stroke="#404040" points="276.3,-1097.41 280.31,-1103.4 276.33,-1109.41 272.31,-1103.42 276.3,-1097.41"/>
<text text-anchor="middle" x="288.5" y="-760.5" font-family="Helvetica,sans-Serif" font-size="10.00"> +Class</text>
</g>
<!-- Node12&#45;&gt;Node21 -->
<g id="edge31" class="edge">
<title>Node12&#45;&gt;Node21</title>
<path fill="none" stroke="#404040" d="M209.29,-443.34C196.29,-430.5 182.24,-416.63 169.78,-404.33"/>
<polygon fill="none" stroke="#404040" points="169.57,-404.12 162.49,-402.75 161.04,-395.69 168.12,-397.06 169.57,-404.12"/>
<text text-anchor="middle" x="242" y="-417" font-family="Helvetica,sans-Serif" font-size="10.00"> +TemplateOwnerClass</text>
</g>
<!-- Node13 -->
<g id="node13" class="node">
<title>Node13</title>
<g id="a_node13"><a xlink:href="../../df/d72/classSDK_1_1UState.html" target="_top" xlink:title=" ">
<polygon fill="white" stroke="black" points="149,-571.5 149,-628.5 247,-628.5 247,-571.5 149,-571.5"/>
<text text-anchor="middle" x="198" y="-616.5" font-family="Helvetica,sans-Serif" font-size="10.00">SDK::UState</text>
<polyline fill="none" stroke="black" points="149,-609.5 247,-609.5 "/>
<text text-anchor="start" x="157" y="-597.5" font-family="Helvetica,sans-Serif" font-size="10.00">+ UnknownData00</text>
<polyline fill="none" stroke="black" points="149,-590.5 247,-590.5 "/>
<text text-anchor="start" x="157" y="-578.5" font-family="Helvetica,sans-Serif" font-size="10.00">+ StaticClass()</text>
</a>
</g>
</g>
<!-- Node13&#45;&gt;Node12 -->
<g id="edge15" class="edge">
<title>Node13&#45;&gt;Node12</title>
<path fill="none" stroke="midnightblue" d="M216.83,-562.18C221.5,-553.05 226.55,-543.18 231.37,-533.74"/>
<polygon fill="none" stroke="midnightblue" points="213.57,-560.87 212.13,-571.37 219.8,-564.06 213.57,-560.87"/>
</g>
<!-- Node14 -->
<g id="node14" class="node">
<title>Node14</title>
<g id="a_node14"><a xlink:href="../../d8/de9/classSDK_1_1UStruct.html" target="_top" xlink:title=" ">
<polygon fill="white" stroke="black" points="145,-723.5 145,-802.5 243,-802.5 243,-723.5 145,-723.5"/>
<text text-anchor="middle" x="194" y="-790.5" font-family="Helvetica,sans-Serif" font-size="10.00">SDK::UStruct</text>
<polyline fill="none" stroke="black" points="145,-783.5 243,-783.5 "/>
<text text-anchor="start" x="153" y="-771.5" font-family="Helvetica,sans-Serif" font-size="10.00">+ UnknownData00</text>
<text text-anchor="start" x="153" y="-760.5" font-family="Helvetica,sans-Serif" font-size="10.00">+ PropertySize</text>
<text text-anchor="start" x="153" y="-749.5" font-family="Helvetica,sans-Serif" font-size="10.00">+ UnknownData01</text>
<polyline fill="none" stroke="black" points="145,-742.5 243,-742.5 "/>
<text text-anchor="start" x="153" y="-730.5" font-family="Helvetica,sans-Serif" font-size="10.00">+ StaticClass()</text>
</a>
</g>
</g>
<!-- Node14&#45;&gt;Node13 -->
<g id="edge16" class="edge">
<title>Node14&#45;&gt;Node13</title>
<path fill="none" stroke="midnightblue" d="M195.21,-713.15C195.9,-685.46 196.74,-651.83 197.31,-628.66"/>
<polygon fill="none" stroke="midnightblue" points="191.71,-713.35 194.96,-723.44 198.71,-713.53 191.71,-713.35"/>
</g>
<!-- Node15&#45;&gt;Node14 -->
<g id="edge17" class="edge">
<title>Node15&#45;&gt;Node14</title>
<path fill="none" stroke="midnightblue" d="M174.12,-922.63C174.64,-894.48 176.28,-855.19 181,-821 181.82,-815.07 182.95,-808.84 184.21,-802.77"/>
<polygon fill="none" stroke="midnightblue" points="170.62,-922.79 173.97,-932.84 177.62,-922.89 170.62,-922.79"/>
</g>
<!-- Node15&#45;&gt;Node14 -->
<g id="edge20" class="edge">
<title>Node15&#45;&gt;Node14</title>
<path fill="none" stroke="#404040" d="M176.82,-932.76C179.93,-902.25 184.99,-852.57 188.81,-814.99"/>
<polygon fill="none" stroke="#404040" points="188.84,-814.7 185.47,-808.32 190.06,-802.76 193.43,-809.13 188.84,-814.7"/>
<text text-anchor="middle" x="217" y="-835" font-family="Helvetica,sans-Serif" font-size="10.00"> +SuperField</text>
<text text-anchor="middle" x="217" y="-824" font-family="Helvetica,sans-Serif" font-size="10.00">+Children</text>
</g>
<!-- Node15&#45;&gt;Node15 -->
<g id="edge19" class="edge">
<title>Node15&#45;&gt;Node15</title>
<path fill="none" stroke="#404040" d="M215.71,-984.39C225.91,-982.69 233.5,-975.06 233.5,-961.5 233.5,-953.66 230.96,-947.8 226.85,-943.93"/>
<polygon fill="none" stroke="#404040" points="226.54,-943.78 219.4,-944.81 215.71,-938.61 222.84,-937.59 226.54,-943.78"/>
<text text-anchor="middle" x="249" y="-959" font-family="Helvetica,sans-Serif" font-size="10.00"> +Next</text>
</g>
<!-- Node16 -->
<g id="node16" class="node">
<title>Node16</title>
<g id="a_node16"><a xlink:href="../../d4/daf/structSDK_1_1FColor.html" target="_top" xlink:title=" ">
<polygon fill="white" stroke="black" points="789.5,-1181 789.5,-1282 862.5,-1282 862.5,-1181 789.5,-1181"/>
<text text-anchor="middle" x="826" y="-1270" font-family="Helvetica,sans-Serif" font-size="10.00">SDK::FColor</text>
<polyline fill="none" stroke="black" points="789.5,-1263 862.5,-1263 "/>
<text text-anchor="start" x="797.5" y="-1251" font-family="Helvetica,sans-Serif" font-size="10.00">+ B</text>
<text text-anchor="start" x="797.5" y="-1240" font-family="Helvetica,sans-Serif" font-size="10.00">+ G</text>
<text text-anchor="start" x="797.5" y="-1229" font-family="Helvetica,sans-Serif" font-size="10.00">+ R</text>
<text text-anchor="start" x="797.5" y="-1218" font-family="Helvetica,sans-Serif" font-size="10.00">+ A</text>
<polyline fill="none" stroke="black" points="789.5,-1211 862.5,-1211 "/>
<text text-anchor="start" x="797.5" y="-1199" font-family="Helvetica,sans-Serif" font-size="10.00">+ FColor()</text>
<text text-anchor="start" x="797.5" y="-1188" font-family="Helvetica,sans-Serif" font-size="10.00">+ FColor()</text>
</a>
</g>
</g>
<!-- Node16&#45;&gt;Node3 -->
<g id="edge22" class="edge">
<title>Node16&#45;&gt;Node3</title>
<path fill="none" stroke="#404040" d="M826,-1180.72C826,-1150.73 826,-1111.28 826,-1074.18"/>
<polygon fill="none" stroke="#404040" points="826,-1073.7 822,-1067.7 826,-1061.7 830,-1067.7 826,-1073.7"/>
<text text-anchor="middle" x="871" y="-1083" font-family="Helvetica,sans-Serif" font-size="10.00"> +ModuleEditorColor</text>
</g>
<!-- Node17 -->
<g id="node17" class="node">
<title>Node17</title>
<g id="a_node17"><a xlink:href="../../dd/d23/structSDK_1_1FRawDistributionVector.html" target="_top" xlink:title=" ">
<polygon fill="white" stroke="black" points="647,-116.5 647,-173.5 795,-173.5 795,-116.5 647,-116.5"/>
<text text-anchor="middle" x="721" y="-161.5" font-family="Helvetica,sans-Serif" font-size="10.00">SDK::FRawDistributionVector</text>
<polyline fill="none" stroke="black" points="647,-154.5 795,-154.5 "/>
<text text-anchor="middle" x="721" y="-142.5" font-family="Helvetica,sans-Serif" font-size="10.00"> </text>
<polyline fill="none" stroke="black" points="647,-135.5 795,-135.5 "/>
<text text-anchor="middle" x="721" y="-123.5" font-family="Helvetica,sans-Serif" font-size="10.00"> </text>
</a>
</g>
</g>
<!-- Node17&#45;&gt;Node1 -->
<g id="edge23" class="edge">
<title>Node17&#45;&gt;Node1</title>
<path fill="none" stroke="#404040" d="M730.09,-116.35C733.49,-106.89 737.6,-96.35 742,-87 743.21,-84.43 744.5,-81.83 745.85,-79.21"/>
<polygon fill="none" stroke="#404040" points="745.9,-79.12 745.23,-71.94 751.61,-68.56 752.27,-75.74 745.9,-79.12"/>
<text text-anchor="middle" x="775.5" y="-90" font-family="Helvetica,sans-Serif" font-size="10.00"> +StartRotation</text>
</g>
<!-- Node18 -->
<g id="node18" class="node">
<title>Node18</title>
<g id="a_node18"><a xlink:href="../../dc/d37/structSDK_1_1FRawDistribution.html" target="_top" xlink:title=" ">
<polygon fill="white" stroke="black" points="644.5,-1372.5 644.5,-1484.5 787.5,-1484.5 787.5,-1372.5 644.5,-1372.5"/>
<text text-anchor="middle" x="716" y="-1472.5" font-family="Helvetica,sans-Serif" font-size="10.00">SDK::FRawDistribution</text>
<polyline fill="none" stroke="black" points="644.5,-1465.5 787.5,-1465.5 "/>
<text text-anchor="start" x="652.5" y="-1453.5" font-family="Helvetica,sans-Serif" font-size="10.00">+ Type</text>
<text text-anchor="start" x="652.5" y="-1442.5" font-family="Helvetica,sans-Serif" font-size="10.00">+ Op</text>
<text text-anchor="start" x="652.5" y="-1431.5" font-family="Helvetica,sans-Serif" font-size="10.00">+ LookupTableNumElements</text>
<text text-anchor="start" x="652.5" y="-1420.5" font-family="Helvetica,sans-Serif" font-size="10.00">+ LookupTableChunkSize</text>
<text text-anchor="start" x="652.5" y="-1409.5" font-family="Helvetica,sans-Serif" font-size="10.00">+ LookupTableTimeScale</text>
<text text-anchor="start" x="652.5" y="-1398.5" font-family="Helvetica,sans-Serif" font-size="10.00">+ LookupTableStartTime</text>
<polyline fill="none" stroke="black" points="644.5,-1391.5 787.5,-1391.5 "/>
<text text-anchor="middle" x="716" y="-1379.5" font-family="Helvetica,sans-Serif" font-size="10.00"> </text>
</a>
</g>
</g>
<!-- Node18&#45;&gt;Node17 -->
<g id="edge24" class="edge">
<title>Node18&#45;&gt;Node17</title>
<path fill="none" stroke="midnightblue" d="M717.53,-1362.05C719,-1293.41 721,-1182.38 721,-1086.5 721,-1086.5 721,-1086.5 721,-260 721,-230.51 721,-196.73 721,-173.64"/>
<polygon fill="none" stroke="midnightblue" points="714.02,-1362.21 717.31,-1372.28 721.02,-1362.36 714.02,-1362.21"/>
</g>
<!-- Node19&#45;&gt;Node18 -->
<g id="edge25" class="edge">
<title>Node19&#45;&gt;Node18</title>
<path fill="none" stroke="#404040" d="M665.64,-1645.41C668.72,-1639.31 671.56,-1633.12 674,-1627 690.66,-1585.18 701.17,-1535.62 707.51,-1496.61"/>
<polygon fill="none" stroke="#404040" points="707.54,-1496.46 704.51,-1489.91 709.39,-1484.6 712.42,-1491.15 707.54,-1496.46"/>
<text text-anchor="middle" x="738.5" y="-1562.5" font-family="Helvetica,sans-Serif" font-size="10.00"> +LookupTable</text>
</g>
<!-- Node20&#45;&gt;Node17 -->
<g id="edge27" class="edge">
<title>Node20&#45;&gt;Node17</title>
<path fill="none" stroke="#404040" d="M613.97,-221.18C624.65,-211.25 636.47,-200.88 648,-192 653.12,-188.06 658.58,-184.14 664.14,-180.35"/>
<polygon fill="none" stroke="#404040" points="664.17,-180.33 666.95,-173.67 674.16,-173.68 671.38,-180.34 664.17,-180.33"/>
<text text-anchor="middle" x="677.5" y="-195" font-family="Helvetica,sans-Serif" font-size="10.00"> +Distribution</text>
</g>
<!-- Node21&#45;&gt;Node20 -->
<g id="edge28" class="edge">
<title>Node21&#45;&gt;Node20</title>
<path fill="none" stroke="midnightblue" d="M193.49,-351.77C276.5,-332.24 425.09,-297.27 510.27,-277.23"/>
<polygon fill="none" stroke="midnightblue" points="192.64,-348.37 183.7,-354.07 194.24,-355.19 192.64,-348.37"/>
</g>
</g>
</svg>
        <g id="navigator" transform="translate(0 0)" fill="#404254">
                <rect fill="#f2f5e9" fill-opacity="0.5" stroke="#606060" stroke-width=".5" x="0" y="0" width="60" height="60"/>
                <use id="zoomplus" xlink:href="#zoomPlus" x="17" y="9" onmousedown="handleZoom(evt,'in')"/>
                <use id="zoomminus" xlink:href="#zoomMin" x="42" y="9" onmousedown="handleZoom(evt,'out')"/>
                <use id="reset" xlink:href="#resetDef" x="30" y="36" onmousedown="handleReset()"/>
                <g id="arrowUp" xlink:href="#dirArrow" transform="translate(30 24)" onmousedown="handlePan(0,-1)">
                  <use xlink:href="#rim" fill="#404040">
                        <set attributeName="fill" to="#808080" begin="arrowUp.mouseover" end="arrowUp.mouseout"/>
                  </use>
                  <path fill="none" stroke="white" stroke-width="1.5" d="M0,-3.0v7 M-2.5,-0.5L0,-3.0L2.5,-0.5"/>
                </g>
                <g id="arrowRight" xlink:href="#dirArrow" transform="rotate(90) translate(36 -43)" onmousedown="handlePan(1,0)">
                  <use xlink:href="#rim" fill="#404040">
                        <set attributeName="fill" to="#808080" begin="arrowRight.mouseover" end="arrowRight.mouseout"/>
                  </use>
                  <path fill="none" stroke="white" stroke-width="1.5" d="M0,-3.0v7 M-2.5,-0.5L0,-3.0L2.5,-0.5"/>
                </g>
                <g id="arrowDown" xlink:href="#dirArrow" transform="rotate(180) translate(-30 -48)" onmousedown="handlePan(0,1)">
                  <use xlink:href="#rim" fill="#404040">
                        <set attributeName="fill" to="#808080" begin="arrowDown.mouseover" end="arrowDown.mouseout"/>
                  </use>
                  <path fill="none" stroke="white" stroke-width="1.5" d="M0,-3.0v7 M-2.5,-0.5L0,-3.0L2.5,-0.5"/>
                </g>
                <g id="arrowLeft" xlink:href="#dirArrow" transform="rotate(270) translate(-36 17)" onmousedown="handlePan(-1,0)">
                  <use xlink:href="#rim" fill="#404040">
                        <set attributeName="fill" to="#808080" begin="arrowLeft.mouseover" end="arrowLeft.mouseout"/>
                  </use>
                  <path fill="none" stroke="white" stroke-width="1.5" d="M0,-3.0v7 M-2.5,-0.5L0,-3.0L2.5,-0.5"/>
                </g>
        </g>
        <svg viewBox="0 0 15 15" width="100%" height="30px" preserveAspectRatio="xMaxYMin meet">
         <g id="arrow_out" transform="scale(0.3 0.3)">
          <a xlink:href="classSDK_1_1UParticleModuleMeshRotation__coll__graph_org.svg" target="_base">
           <rect id="button" ry="5" rx="5" y="6" x="6" height="38" width="38"
                fill="#f2f5e9" fill-opacity="0.5" stroke="#606060" stroke-width="1.0"/>
           <path id="arrow"
             d="M 11.500037,31.436501 C 11.940474,20.09759 22.043105,11.32322 32.158766,21.979434 L 37.068811,17.246167 C 37.068811,17.246167 37.088388,32 37.088388,32 L 22.160133,31.978069 C 22.160133,31.978069 26.997745,27.140456 26.997745,27.140456 C 18.528582,18.264221 13.291696,25.230495 11.500037,31.436501 z"
             style="fill:#404040;"/>
          </a>
         </g>
        </svg>
</svg>
