<?xml version="1.0" encoding="UTF-8" standalone="no"?>
<!DOCTYPE svg PUBLIC "-//W3C//DTD SVG 1.1//EN"
 "http://www.w3.org/Graphics/SVG/1.1/DTD/svg11.dtd">
<!-- Generated by graphviz version 2.41.20171026.1811 (20171026.1811)
 -->
<!-- Title: SDK::UParticleModuleSizeMultiplyLife Pages: 1 -->
<svg width="924pt" height="2167pt"
 viewBox="0.00 0.00 924.00 2167.00" xmlns="http://www.w3.org/2000/svg" xmlns:xlink="http://www.w3.org/1999/xlink">
<g id="graph0" class="graph" transform="scale(1 1) rotate(0) translate(4 2163)">
<title>SDK::UParticleModuleSizeMultiplyLife</title>
<polygon fill="white" stroke="transparent" points="-4,4 -4,-2163 920,-2163 920,4 -4,4"/>
<!-- Node1 -->
<g id="node1" class="node">
<title>Node1</title>
<g id="a_node1"><a xlink:title=" ">
<polygon fill="#bfbfbf" stroke="black" points="705.5,-0.5 705.5,-90.5 840.5,-90.5 840.5,-0.5 705.5,-0.5"/>
<text text-anchor="start" x="713.5" y="-78.5" font-family="Helvetica,sans-Serif" font-size="10.00">SDK::UParticleModuleSize</text>
<text text-anchor="middle" x="773" y="-67.5" font-family="Helvetica,sans-Serif" font-size="10.00">MultiplyLife</text>
<polyline fill="none" stroke="black" points="705.5,-60.5 840.5,-60.5 "/>
<text text-anchor="start" x="713.5" y="-48.5" font-family="Helvetica,sans-Serif" font-size="10.00">+ MultiplyX</text>
<text text-anchor="start" x="713.5" y="-37.5" font-family="Helvetica,sans-Serif" font-size="10.00">+ MultiplyY</text>
<text text-anchor="start" x="713.5" y="-26.5" font-family="Helvetica,sans-Serif" font-size="10.00">+ MultiplyZ</text>
<polyline fill="none" stroke="black" points="705.5,-19.5 840.5,-19.5 "/>
<text text-anchor="start" x="713.5" y="-7.5" font-family="Helvetica,sans-Serif" font-size="10.00">+ StaticClass()</text>
</a>
</g>
</g>
<!-- Node2 -->
<g id="node2" class="node">
<title>Node2</title>
<g id="a_node2"><a xlink:href="../../d0/d58/classSDK_1_1UParticleModuleSizeBase.html" target="_top" xlink:title=" ">
<polygon fill="white" stroke="black" points="746,-669.5 746,-726.5 904,-726.5 904,-669.5 746,-669.5"/>
<text text-anchor="middle" x="825" y="-714.5" font-family="Helvetica,sans-Serif" font-size="10.00">SDK::UParticleModuleSizeBase</text>
<polyline fill="none" stroke="black" points="746,-707.5 904,-707.5 "/>
<text text-anchor="middle" x="825" y="-695.5" font-family="Helvetica,sans-Serif" font-size="10.00"> </text>
<polyline fill="none" stroke="black" points="746,-688.5 904,-688.5 "/>
<text text-anchor="start" x="754" y="-676.5" font-family="Helvetica,sans-Serif" font-size="10.00">+ StaticClass()</text>
</a>
</g>
</g>
<!-- Node2&#45;&gt;Node1 -->
<g id="edge1" class="edge">
<title>Node2&#45;&gt;Node1</title>
<path fill="none" stroke="midnightblue" d="M824.53,-659.23C824.27,-635.13 824,-603.23 824,-575 824,-575 824,-575 824,-166 824,-139.61 813.35,-112.38 801.78,-90.59"/>
<polygon fill="none" stroke="midnightblue" points="821.03,-659.42 824.64,-669.38 828.03,-659.34 821.03,-659.42"/>
</g>
<!-- Node3 -->
<g id="node3" class="node">
<title>Node3</title>
<g id="a_node3"><a xlink:href="../../d5/df1/classSDK_1_1UParticleModule.html" target="_top" xlink:title=" ">
<polygon fill="white" stroke="black" points="749.5,-883.5 749.5,-1083.5 902.5,-1083.5 902.5,-883.5 749.5,-883.5"/>
<text text-anchor="middle" x="826" y="-1071.5" font-family="Helvetica,sans-Serif" font-size="10.00">SDK::UParticleModule</text>
<polyline fill="none" stroke="black" points="749.5,-1064.5 902.5,-1064.5 "/>
<text text-anchor="start" x="757.5" y="-1052.5" font-family="Helvetica,sans-Serif" font-size="10.00">+ bSpawnModule</text>
<text text-anchor="start" x="757.5" y="-1041.5" font-family="Helvetica,sans-Serif" font-size="10.00">+ bUpdateModule</text>
<text text-anchor="start" x="757.5" y="-1030.5" font-family="Helvetica,sans-Serif" font-size="10.00">+ bFinalUpdateModule</text>
<text text-anchor="start" x="757.5" y="-1019.5" font-family="Helvetica,sans-Serif" font-size="10.00">+ bCurvesAsColor</text>
<text text-anchor="start" x="757.5" y="-1008.5" font-family="Helvetica,sans-Serif" font-size="10.00">+ b3DDrawMode</text>
<text text-anchor="start" x="757.5" y="-997.5" font-family="Helvetica,sans-Serif" font-size="10.00">+ EnableToggle3DDrawMode</text>
<text text-anchor="start" x="757.5" y="-986.5" font-family="Helvetica,sans-Serif" font-size="10.00">+ bSupported3DDrawMode</text>
<text text-anchor="start" x="757.5" y="-975.5" font-family="Helvetica,sans-Serif" font-size="10.00">+ bEnabled</text>
<text text-anchor="start" x="757.5" y="-964.5" font-family="Helvetica,sans-Serif" font-size="10.00">+ bEditable</text>
<text text-anchor="start" x="757.5" y="-953.5" font-family="Helvetica,sans-Serif" font-size="10.00">+ LODDuplicate</text>
<text text-anchor="start" x="757.5" y="-942.5" font-family="Helvetica,sans-Serif" font-size="10.00">+ bSupportsRandomSeed</text>
<text text-anchor="start" x="757.5" y="-931.5" font-family="Helvetica,sans-Serif" font-size="10.00">+ bRequiresLoopingNotification</text>
<text text-anchor="start" x="757.5" y="-920.5" font-family="Helvetica,sans-Serif" font-size="10.00">+ LODValidity</text>
<text text-anchor="start" x="757.5" y="-909.5" font-family="Helvetica,sans-Serif" font-size="10.00">+ UnknownData00</text>
<polyline fill="none" stroke="black" points="749.5,-902.5 902.5,-902.5 "/>
<text text-anchor="start" x="757.5" y="-890.5" font-family="Helvetica,sans-Serif" font-size="10.00">+ StaticClass()</text>
</a>
</g>
</g>
<!-- Node3&#45;&gt;Node2 -->
<g id="edge2" class="edge">
<title>Node3&#45;&gt;Node2</title>
<path fill="none" stroke="midnightblue" d="M825.61,-873.16C825.43,-819.99 825.22,-760.4 825.1,-726.52"/>
<polygon fill="none" stroke="midnightblue" points="822.11,-873.36 825.65,-883.35 829.11,-873.33 822.11,-873.36"/>
</g>
<!-- Node4 -->
<g id="node4" class="node">
<title>Node4</title>
<g id="a_node4"><a xlink:href="../../d9/d45/classSDK_1_1UObject.html" target="_top" xlink:title=" ">
<polygon fill="white" stroke="black" points="177,-1131.5 177,-1375.5 375,-1375.5 375,-1131.5 177,-1131.5"/>
<text text-anchor="middle" x="276" y="-1363.5" font-family="Helvetica,sans-Serif" font-size="10.00">SDK::UObject</text>
<polyline fill="none" stroke="black" points="177,-1356.5 375,-1356.5 "/>
<text text-anchor="start" x="185" y="-1344.5" font-family="Helvetica,sans-Serif" font-size="10.00">+ ObjectInternalInteger</text>
<text text-anchor="start" x="185" y="-1333.5" font-family="Helvetica,sans-Serif" font-size="10.00">+ NetIndex</text>
<polyline fill="none" stroke="black" points="177,-1326.5 375,-1326.5 "/>
<text text-anchor="start" x="185" y="-1314.5" font-family="Helvetica,sans-Serif" font-size="10.00">+ UObject::GetName()</text>
<text text-anchor="start" x="185" y="-1303.5" font-family="Helvetica,sans-Serif" font-size="10.00">+ GetFullName()</text>
<text text-anchor="start" x="185" y="-1292.5" font-family="Helvetica,sans-Serif" font-size="10.00">+ IsA()</text>
<text text-anchor="start" x="185" y="-1281.5" font-family="Helvetica,sans-Serif" font-size="10.00">+ ProcessEvent()</text>
<text text-anchor="start" x="185" y="-1270.5" font-family="Helvetica,sans-Serif" font-size="10.00">+ STATIC_ProfNodeEvent()</text>
<text text-anchor="start" x="185" y="-1259.5" font-family="Helvetica,sans-Serif" font-size="10.00">+ STATIC_ProfNodeSetDepthThreshold()</text>
<text text-anchor="start" x="185" y="-1248.5" font-family="Helvetica,sans-Serif" font-size="10.00">+ STATIC_ProfNodeSetTimeThreshold</text>
<text text-anchor="start" x="185" y="-1237.5" font-family="Helvetica,sans-Serif" font-size="10.00">Seconds()</text>
<text text-anchor="start" x="185" y="-1226.5" font-family="Helvetica,sans-Serif" font-size="10.00">+ STATIC_ProfNodeStop()</text>
<text text-anchor="start" x="185" y="-1215.5" font-family="Helvetica,sans-Serif" font-size="10.00">+ STATIC_ProfNodeStart()</text>
<text text-anchor="start" x="185" y="-1204.5" font-family="Helvetica,sans-Serif" font-size="10.00">+ STATIC_GetStringFromGuid()</text>
<text text-anchor="start" x="185" y="-1193.5" font-family="Helvetica,sans-Serif" font-size="10.00">and 298 more...</text>
<text text-anchor="start" x="185" y="-1182.5" font-family="Helvetica,sans-Serif" font-size="10.00">+ GetGlobalObjects()</text>
<text text-anchor="start" x="185" y="-1171.5" font-family="Helvetica,sans-Serif" font-size="10.00">+ FindObject()</text>
<text text-anchor="start" x="185" y="-1160.5" font-family="Helvetica,sans-Serif" font-size="10.00">+ FindClass()</text>
<text text-anchor="start" x="185" y="-1149.5" font-family="Helvetica,sans-Serif" font-size="10.00">+ GetObjectCasted()</text>
<text text-anchor="start" x="185" y="-1138.5" font-family="Helvetica,sans-Serif" font-size="10.00">+ StaticClass()</text>
</a>
</g>
</g>
<!-- Node4&#45;&gt;Node3 -->
<g id="edge3" class="edge">
<title>Node4&#45;&gt;Node3</title>
<path fill="none" stroke="midnightblue" d="M384.55,-1199.61C492.16,-1147.17 654.28,-1068.18 749.19,-1021.93"/>
<polygon fill="none" stroke="midnightblue" points="382.74,-1196.6 375.28,-1204.12 385.81,-1202.89 382.74,-1196.6"/>
</g>
<!-- Node4&#45;&gt;Node4 -->
<g id="edge9" class="edge">
<title>Node4&#45;&gt;Node4</title>
<path fill="none" stroke="#404040" d="M375.01,-1276.53C385.94,-1272.15 393,-1264.48 393,-1253.5 393,-1246.64 390.24,-1241.07 385.51,-1236.78"/>
<polygon fill="none" stroke="#404040" points="385.3,-1236.66 378.09,-1236.99 375.01,-1230.47 382.22,-1230.14 385.3,-1236.66"/>
<text text-anchor="middle" x="432.5" y="-1262" font-family="Helvetica,sans-Serif" font-size="10.00"> +Outer</text>
<text text-anchor="middle" x="432.5" y="-1251" font-family="Helvetica,sans-Serif" font-size="10.00">+Linker</text>
<text text-anchor="middle" x="432.5" y="-1240" font-family="Helvetica,sans-Serif" font-size="10.00">+ObjectArchetype</text>
</g>
<!-- Node10 -->
<g id="node10" class="node">
<title>Node10</title>
<g id="a_node10"><a xlink:href="../../d3/d79/classSDK_1_1TArray.html" target="_top" xlink:title=" ">
<polygon fill="white" stroke="black" points="378.5,-916.5 378.5,-1050.5 539.5,-1050.5 539.5,-916.5 378.5,-916.5"/>
<text text-anchor="middle" x="459" y="-1038.5" font-family="Helvetica,sans-Serif" font-size="10.00">SDK::TArray&lt; SDK::UObject * &gt;</text>
<polyline fill="none" stroke="black" points="378.5,-1031.5 539.5,-1031.5 "/>
<text text-anchor="start" x="386.5" y="-1019.5" font-family="Helvetica,sans-Serif" font-size="10.00">&#45; Count</text>
<text text-anchor="start" x="386.5" y="-1008.5" font-family="Helvetica,sans-Serif" font-size="10.00">&#45; Max</text>
<polyline fill="none" stroke="black" points="378.5,-1001.5 539.5,-1001.5 "/>
<text text-anchor="start" x="386.5" y="-989.5" font-family="Helvetica,sans-Serif" font-size="10.00">+ TArray()</text>
<text text-anchor="start" x="386.5" y="-978.5" font-family="Helvetica,sans-Serif" font-size="10.00">+ Num()</text>
<text text-anchor="start" x="386.5" y="-967.5" font-family="Helvetica,sans-Serif" font-size="10.00">+ operator[]()</text>
<text text-anchor="start" x="386.5" y="-956.5" font-family="Helvetica,sans-Serif" font-size="10.00">+ operator[]()</text>
<text text-anchor="start" x="386.5" y="-945.5" font-family="Helvetica,sans-Serif" font-size="10.00">+ IsValidIndex()</text>
<text text-anchor="start" x="386.5" y="-934.5" font-family="Helvetica,sans-Serif" font-size="10.00">+ GetByIndex()</text>
<text text-anchor="start" x="386.5" y="-923.5" font-family="Helvetica,sans-Serif" font-size="10.00">+ GetByIndex()</text>
</a>
</g>
</g>
<!-- Node4&#45;&gt;Node10 -->
<g id="edge11" class="edge">
<title>Node4&#45;&gt;Node10</title>
<path fill="none" stroke="#404040" d="M358.67,-1131.44C375.09,-1107.38 391.91,-1082.76 406.96,-1060.72"/>
<polygon fill="none" stroke="#404040" points="406.97,-1060.69 407.05,-1053.48 413.74,-1050.78 413.66,-1058 406.97,-1060.69"/>
<text text-anchor="middle" x="393" y="-1105" font-family="Helvetica,sans-Serif" font-size="10.00"> &#45;Data</text>
</g>
<!-- Node12 -->
<g id="node12" class="node">
<title>Node12</title>
<g id="a_node12"><a xlink:href="../../d7/d85/classSDK_1_1UClass.html" target="_top" xlink:title=" ">
<polygon fill="white" stroke="black" points="193.5,-465.5 193.5,-555.5 314.5,-555.5 314.5,-465.5 193.5,-465.5"/>
<text text-anchor="middle" x="254" y="-543.5" font-family="Helvetica,sans-Serif" font-size="10.00">SDK::UClass</text>
<polyline fill="none" stroke="black" points="193.5,-536.5 314.5,-536.5 "/>
<text text-anchor="start" x="201.5" y="-524.5" font-family="Helvetica,sans-Serif" font-size="10.00">+ UnknownData00</text>
<text text-anchor="start" x="201.5" y="-513.5" font-family="Helvetica,sans-Serif" font-size="10.00">+ UnknownData01</text>
<polyline fill="none" stroke="black" points="193.5,-506.5 314.5,-506.5 "/>
<text text-anchor="start" x="201.5" y="-494.5" font-family="Helvetica,sans-Serif" font-size="10.00">+ CreateDefaultObject()</text>
<text text-anchor="start" x="201.5" y="-483.5" font-family="Helvetica,sans-Serif" font-size="10.00">+ CreateDefaultObject()</text>
<text text-anchor="start" x="201.5" y="-472.5" font-family="Helvetica,sans-Serif" font-size="10.00">+ StaticClass()</text>
</a>
</g>
</g>
<!-- Node4&#45;&gt;Node12 -->
<g id="edge21" class="edge">
<title>Node4&#45;&gt;Node12</title>
<path fill="none" stroke="#404040" d="M324.22,-1131.35C338.31,-1086.02 350,-1033.61 350,-984.5 350,-984.5 350,-984.5 350,-621 350,-598.5 338.39,-578.4 323.25,-561.76"/>
<polygon fill="none" stroke="#404040" points="322.94,-561.44 315.88,-559.97 314.53,-552.88 321.58,-554.36 322.94,-561.44"/>
<text text-anchor="middle" x="397.5" y="-782.5" font-family="Helvetica,sans-Serif" font-size="10.00"> +ClassDefaultObject</text>
</g>
<!-- Node15 -->
<g id="node15" class="node">
<title>Node15</title>
<g id="a_node15"><a xlink:href="../../de/dd6/classSDK_1_1UField.html" target="_top" xlink:title=" ">
<polygon fill="white" stroke="black" points="132.5,-955 132.5,-1012 215.5,-1012 215.5,-955 132.5,-955"/>
<text text-anchor="middle" x="174" y="-1000" font-family="Helvetica,sans-Serif" font-size="10.00">SDK::UField</text>
<polyline fill="none" stroke="black" points="132.5,-993 215.5,-993 "/>
<text text-anchor="middle" x="174" y="-981" font-family="Helvetica,sans-Serif" font-size="10.00"> </text>
<polyline fill="none" stroke="black" points="132.5,-974 215.5,-974 "/>
<text text-anchor="start" x="140.5" y="-962" font-family="Helvetica,sans-Serif" font-size="10.00">+ StaticClass()</text>
</a>
</g>
</g>
<!-- Node4&#45;&gt;Node15 -->
<g id="edge18" class="edge">
<title>Node4&#45;&gt;Node15</title>
<path fill="none" stroke="midnightblue" d="M226.35,-1122.05C210.59,-1080.63 194.65,-1038.75 184.57,-1012.27"/>
<polygon fill="none" stroke="midnightblue" points="223.1,-1123.34 229.92,-1131.44 229.64,-1120.85 223.1,-1123.34"/>
</g>
<!-- Node21 -->
<g id="node21" class="node">
<title>Node21</title>
<g id="a_node21"><a xlink:href="../../dc/d28/classSDK_1_1UComponent.html" target="_top" xlink:title=" ">
<polygon fill="white" stroke="black" points="82.5,-360.5 82.5,-417.5 183.5,-417.5 183.5,-360.5 82.5,-360.5"/>
<text text-anchor="middle" x="133" y="-405.5" font-family="Helvetica,sans-Serif" font-size="10.00">SDK::UComponent</text>
<polyline fill="none" stroke="black" points="82.5,-398.5 183.5,-398.5 "/>
<text text-anchor="middle" x="133" y="-386.5" font-family="Helvetica,sans-Serif" font-size="10.00"> </text>
<polyline fill="none" stroke="black" points="82.5,-379.5 183.5,-379.5 "/>
<text text-anchor="start" x="90.5" y="-367.5" font-family="Helvetica,sans-Serif" font-size="10.00">+ StaticClass()</text>
</a>
</g>
</g>
<!-- Node4&#45;&gt;Node21 -->
<g id="edge29" class="edge">
<title>Node4&#45;&gt;Node21</title>
<path fill="none" stroke="midnightblue" d="M170.21,-1153.61C152.13,-1132.2 135.26,-1108.56 123,-1084 102.89,-1043.72 104,-1029.52 104,-984.5 104,-984.5 104,-984.5 104,-509.5 104,-477.26 114.09,-441.48 122.37,-417.55"/>
<polygon fill="none" stroke="midnightblue" points="167.74,-1156.1 176.92,-1161.39 173.04,-1151.53 167.74,-1156.1"/>
</g>
<!-- Node5 -->
<g id="node5" class="node">
<title>Node5</title>
<g id="a_node5"><a xlink:href="../../d0/d22/structSDK_1_1FQWord.html" target="_top" xlink:title=" ">
<polygon fill="white" stroke="black" points="317,-1553 317,-1621 397,-1621 397,-1553 317,-1553"/>
<text text-anchor="middle" x="357" y="-1609" font-family="Helvetica,sans-Serif" font-size="10.00">SDK::FQWord</text>
<polyline fill="none" stroke="black" points="317,-1602 397,-1602 "/>
<text text-anchor="start" x="325" y="-1590" font-family="Helvetica,sans-Serif" font-size="10.00">+ A</text>
<text text-anchor="start" x="325" y="-1579" font-family="Helvetica,sans-Serif" font-size="10.00">+ B</text>
<polyline fill="none" stroke="black" points="317,-1572 397,-1572 "/>
<text text-anchor="middle" x="357" y="-1560" font-family="Helvetica,sans-Serif" font-size="10.00"> </text>
</a>
</g>
</g>
<!-- Node5&#45;&gt;Node4 -->
<g id="edge4" class="edge">
<title>Node5&#45;&gt;Node4</title>
<path fill="none" stroke="#404040" d="M348.86,-1552.7C339.42,-1514.06 323.27,-1447.95 308.57,-1387.78"/>
<polygon fill="none" stroke="#404040" points="308.5,-1387.5 303.19,-1382.62 305.65,-1375.84 310.96,-1380.72 308.5,-1387.5"/>
<text text-anchor="middle" x="369" y="-1448" font-family="Helvetica,sans-Serif" font-size="10.00"> +ObjectFlags</text>
</g>
<!-- Node6 -->
<g id="node6" class="node">
<title>Node6</title>
<g id="a_node6"><a xlink:href="../../d0/db6/structSDK_1_1FName.html" target="_top" xlink:title=" ">
<polygon fill="white" stroke="black" points="191.5,-1525.5 191.5,-1648.5 298.5,-1648.5 298.5,-1525.5 191.5,-1525.5"/>
<text text-anchor="middle" x="245" y="-1636.5" font-family="Helvetica,sans-Serif" font-size="10.00">SDK::FName</text>
<polyline fill="none" stroke="black" points="191.5,-1629.5 298.5,-1629.5 "/>
<text text-anchor="start" x="199.5" y="-1617.5" font-family="Helvetica,sans-Serif" font-size="10.00">+ Index</text>
<text text-anchor="start" x="199.5" y="-1606.5" font-family="Helvetica,sans-Serif" font-size="10.00">+ Number</text>
<polyline fill="none" stroke="black" points="191.5,-1599.5 298.5,-1599.5 "/>
<text text-anchor="start" x="199.5" y="-1587.5" font-family="Helvetica,sans-Serif" font-size="10.00">+ FName()</text>
<text text-anchor="start" x="199.5" y="-1576.5" font-family="Helvetica,sans-Serif" font-size="10.00">+ FName()</text>
<text text-anchor="start" x="199.5" y="-1565.5" font-family="Helvetica,sans-Serif" font-size="10.00">+ FName()</text>
<text text-anchor="start" x="199.5" y="-1554.5" font-family="Helvetica,sans-Serif" font-size="10.00">+ GetName()</text>
<text text-anchor="start" x="199.5" y="-1543.5" font-family="Helvetica,sans-Serif" font-size="10.00">+ operator==()</text>
<text text-anchor="start" x="199.5" y="-1532.5" font-family="Helvetica,sans-Serif" font-size="10.00">+ GetGlobalNames()</text>
</a>
</g>
</g>
<!-- Node6&#45;&gt;Node4 -->
<g id="edge5" class="edge">
<title>Node6&#45;&gt;Node4</title>
<path fill="none" stroke="#404040" d="M250.69,-1525.2C254.29,-1486.69 259.09,-1435.33 263.54,-1387.71"/>
<polygon fill="none" stroke="#404040" points="263.55,-1387.64 260.13,-1381.29 264.67,-1375.69 268.09,-1382.04 263.55,-1387.64"/>
<text text-anchor="middle" x="281" y="-1448" font-family="Helvetica,sans-Serif" font-size="10.00"> +Name</text>
</g>
<!-- Node6&#45;&gt;Node21 -->
<g id="edge30" class="edge">
<title>Node6&#45;&gt;Node21</title>
<path fill="none" stroke="#404040" d="M191.23,-1548.37C119.11,-1493.01 0,-1382.24 0,-1254.5 0,-1254.5 0,-1254.5 0,-509.5 0,-467.72 36.76,-436.85 71.62,-416.95"/>
<polygon fill="none" stroke="#404040" points="71.79,-416.86 75.16,-410.48 82.34,-411.13 78.98,-417.51 71.79,-416.86"/>
<text text-anchor="middle" x="38" y="-782.5" font-family="Helvetica,sans-Serif" font-size="10.00"> +TemplateName</text>
</g>
<!-- Node7 -->
<g id="node7" class="node">
<title>Node7</title>
<g id="a_node7"><a xlink:href="../../d3/d79/classSDK_1_1TArray.html" target="_top" xlink:title=" ">
<polygon fill="white" stroke="black" points="169,-1831.5 169,-1965.5 349,-1965.5 349,-1831.5 169,-1831.5"/>
<text text-anchor="middle" x="259" y="-1953.5" font-family="Helvetica,sans-Serif" font-size="10.00">SDK::TArray&lt; SDK::FNameEntry * &gt;</text>
<polyline fill="none" stroke="black" points="169,-1946.5 349,-1946.5 "/>
<text text-anchor="start" x="177" y="-1934.5" font-family="Helvetica,sans-Serif" font-size="10.00">&#45; Count</text>
<text text-anchor="start" x="177" y="-1923.5" font-family="Helvetica,sans-Serif" font-size="10.00">&#45; Max</text>
<polyline fill="none" stroke="black" points="169,-1916.5 349,-1916.5 "/>
<text text-anchor="start" x="177" y="-1904.5" font-family="Helvetica,sans-Serif" font-size="10.00">+ TArray()</text>
<text text-anchor="start" x="177" y="-1893.5" font-family="Helvetica,sans-Serif" font-size="10.00">+ Num()</text>
<text text-anchor="start" x="177" y="-1882.5" font-family="Helvetica,sans-Serif" font-size="10.00">+ operator[]()</text>
<text text-anchor="start" x="177" y="-1871.5" font-family="Helvetica,sans-Serif" font-size="10.00">+ operator[]()</text>
<text text-anchor="start" x="177" y="-1860.5" font-family="Helvetica,sans-Serif" font-size="10.00">+ IsValidIndex()</text>
<text text-anchor="start" x="177" y="-1849.5" font-family="Helvetica,sans-Serif" font-size="10.00">+ GetByIndex()</text>
<text text-anchor="start" x="177" y="-1838.5" font-family="Helvetica,sans-Serif" font-size="10.00">+ GetByIndex()</text>
</a>
</g>
</g>
<!-- Node7&#45;&gt;Node6 -->
<g id="edge6" class="edge">
<title>Node7&#45;&gt;Node6</title>
<path fill="none" stroke="#404040" d="M256.01,-1831.48C253.75,-1781.36 250.63,-1712.46 248.29,-1660.75"/>
<polygon fill="none" stroke="#404040" points="248.29,-1660.65 244.02,-1654.84 247.74,-1648.66 252.01,-1654.48 248.29,-1660.65"/>
<text text-anchor="middle" x="279.5" y="-1737.5" font-family="Helvetica,sans-Serif" font-size="10.00"> +GNames</text>
</g>
<!-- Node8 -->
<g id="node8" class="node">
<title>Node8</title>
<g id="a_node8"><a xlink:href="../../d7/ddf/classSDK_1_1FNameEntry.html" target="_top" xlink:title=" ">
<polygon fill="white" stroke="black" points="209.5,-2052 209.5,-2120 308.5,-2120 308.5,-2052 209.5,-2052"/>
<text text-anchor="middle" x="259" y="-2108" font-family="Helvetica,sans-Serif" font-size="10.00">SDK::FNameEntry</text>
<polyline fill="none" stroke="black" points="209.5,-2101 308.5,-2101 "/>
<text text-anchor="start" x="217.5" y="-2089" font-family="Helvetica,sans-Serif" font-size="10.00">+ UnknownData00</text>
<text text-anchor="start" x="217.5" y="-2078" font-family="Helvetica,sans-Serif" font-size="10.00">+ name</text>
<polyline fill="none" stroke="black" points="209.5,-2071 308.5,-2071 "/>
<text text-anchor="start" x="217.5" y="-2059" font-family="Helvetica,sans-Serif" font-size="10.00">+ GetName()</text>
</a>
</g>
</g>
<!-- Node8&#45;&gt;Node7 -->
<g id="edge7" class="edge">
<title>Node8&#45;&gt;Node7</title>
<path fill="none" stroke="#404040" d="M259,-2051.84C259,-2031.23 259,-2003.83 259,-1977.95"/>
<polygon fill="none" stroke="#404040" points="259,-1977.8 255,-1971.8 259,-1965.8 263,-1971.8 259,-1977.8"/>
<text text-anchor="middle" x="273" y="-1987" font-family="Helvetica,sans-Serif" font-size="10.00"> &#45;Data</text>
</g>
<!-- Node9 -->
<g id="node9" class="node">
<title>Node9</title>
<g id="a_node9"><a xlink:href="../../d3/d79/classSDK_1_1TArray.html" target="_top" xlink:title=" ">
<polygon fill="white" stroke="black" points="409.5,-2013.5 409.5,-2158.5 506.5,-2158.5 506.5,-2013.5 409.5,-2013.5"/>
<text text-anchor="middle" x="458" y="-2146.5" font-family="Helvetica,sans-Serif" font-size="10.00">SDK::TArray&lt; T &gt;</text>
<polyline fill="none" stroke="black" points="409.5,-2139.5 506.5,-2139.5 "/>
<text text-anchor="start" x="417.5" y="-2127.5" font-family="Helvetica,sans-Serif" font-size="10.00">&#45; Data</text>
<text text-anchor="start" x="417.5" y="-2116.5" font-family="Helvetica,sans-Serif" font-size="10.00">&#45; Count</text>
<text text-anchor="start" x="417.5" y="-2105.5" font-family="Helvetica,sans-Serif" font-size="10.00">&#45; Max</text>
<polyline fill="none" stroke="black" points="409.5,-2098.5 506.5,-2098.5 "/>
<text text-anchor="start" x="417.5" y="-2086.5" font-family="Helvetica,sans-Serif" font-size="10.00">+ TArray()</text>
<text text-anchor="start" x="417.5" y="-2075.5" font-family="Helvetica,sans-Serif" font-size="10.00">+ Num()</text>
<text text-anchor="start" x="417.5" y="-2064.5" font-family="Helvetica,sans-Serif" font-size="10.00">+ operator[]()</text>
<text text-anchor="start" x="417.5" y="-2053.5" font-family="Helvetica,sans-Serif" font-size="10.00">+ operator[]()</text>
<text text-anchor="start" x="417.5" y="-2042.5" font-family="Helvetica,sans-Serif" font-size="10.00">+ IsValidIndex()</text>
<text text-anchor="start" x="417.5" y="-2031.5" font-family="Helvetica,sans-Serif" font-size="10.00">+ GetByIndex()</text>
<text text-anchor="start" x="417.5" y="-2020.5" font-family="Helvetica,sans-Serif" font-size="10.00">+ GetByIndex()</text>
</a>
</g>
</g>
<!-- Node9&#45;&gt;Node7 -->
<g id="edge8" class="edge">
<title>Node9&#45;&gt;Node7</title>
<path fill="none" stroke="orange" d="M401.08,-2049.16C378.73,-2033.8 353.56,-2014.85 333,-1995 323.72,-1986.04 314.63,-1975.87 306.17,-1965.6"/>
<polygon fill="orange" stroke="orange" points="399.26,-2052.15 409.5,-2054.86 403.18,-2046.35 399.26,-2052.15"/>
<text text-anchor="middle" x="388.5" y="-1987" font-family="Helvetica,sans-Serif" font-size="10.00"> &lt; SDK::FNameEntry * &gt;</text>
</g>
<!-- Node9&#45;&gt;Node10 -->
<g id="edge12" class="edge">
<title>Node9&#45;&gt;Node10</title>
<path fill="none" stroke="orange" d="M458.75,-2003.11C459.88,-1894.01 462.39,-1694.96 467,-1525 468.58,-1466.76 457.53,-1450.44 472,-1394 474.22,-1385.34 478.95,-1384.71 481,-1376 506.02,-1270.02 489.11,-1239.59 481,-1131 479.03,-1104.58 475.08,-1075.71 471.07,-1050.63"/>
<polygon fill="orange" stroke="orange" points="455.25,-2003.35 458.65,-2013.39 462.25,-2003.42 455.25,-2003.35"/>
<text text-anchor="middle" x="512.5" y="-1584.5" font-family="Helvetica,sans-Serif" font-size="10.00"> &lt; SDK::UObject * &gt;</text>
</g>
<!-- Node19 -->
<g id="node19" class="node">
<title>Node19</title>
<g id="a_node19"><a xlink:href="../../d3/d79/classSDK_1_1TArray.html" target="_top" xlink:title=" ">
<polygon fill="white" stroke="black" points="564,-1667.5 564,-1812.5 674,-1812.5 674,-1667.5 564,-1667.5"/>
<text text-anchor="middle" x="619" y="-1800.5" font-family="Helvetica,sans-Serif" font-size="10.00">SDK::TArray&lt; float &gt;</text>
<polyline fill="none" stroke="black" points="564,-1793.5 674,-1793.5 "/>
<text text-anchor="start" x="572" y="-1781.5" font-family="Helvetica,sans-Serif" font-size="10.00">&#45; Data</text>
<text text-anchor="start" x="572" y="-1770.5" font-family="Helvetica,sans-Serif" font-size="10.00">&#45; Count</text>
<text text-anchor="start" x="572" y="-1759.5" font-family="Helvetica,sans-Serif" font-size="10.00">&#45; Max</text>
<polyline fill="none" stroke="black" points="564,-1752.5 674,-1752.5 "/>
<text text-anchor="start" x="572" y="-1740.5" font-family="Helvetica,sans-Serif" font-size="10.00">+ TArray()</text>
<text text-anchor="start" x="572" y="-1729.5" font-family="Helvetica,sans-Serif" font-size="10.00">+ Num()</text>
<text text-anchor="start" x="572" y="-1718.5" font-family="Helvetica,sans-Serif" font-size="10.00">+ operator[]()</text>
<text text-anchor="start" x="572" y="-1707.5" font-family="Helvetica,sans-Serif" font-size="10.00">+ operator[]()</text>
<text text-anchor="start" x="572" y="-1696.5" font-family="Helvetica,sans-Serif" font-size="10.00">+ IsValidIndex()</text>
<text text-anchor="start" x="572" y="-1685.5" font-family="Helvetica,sans-Serif" font-size="10.00">+ GetByIndex()</text>
<text text-anchor="start" x="572" y="-1674.5" font-family="Helvetica,sans-Serif" font-size="10.00">+ GetByIndex()</text>
</a>
</g>
</g>
<!-- Node9&#45;&gt;Node19 -->
<g id="edge26" class="edge">
<title>Node9&#45;&gt;Node19</title>
<path fill="none" stroke="orange" d="M495.84,-2004.16C523.02,-1946.06 559.34,-1868.46 585.49,-1812.6"/>
<polygon fill="orange" stroke="orange" points="492.62,-2002.76 491.55,-2013.31 498.96,-2005.73 492.62,-2002.76"/>
<text text-anchor="middle" x="525" y="-1987" font-family="Helvetica,sans-Serif" font-size="10.00"> &lt; float &gt;</text>
</g>
<!-- Node10&#45;&gt;Node4 -->
<g id="edge10" class="edge">
<title>Node10&#45;&gt;Node4</title>
<path fill="none" stroke="#404040" d="M440.76,-1050.71C433.49,-1071.52 423.96,-1094 412,-1113 403.6,-1126.35 393.75,-1139.46 383.26,-1151.97"/>
<polygon fill="none" stroke="#404040" points="382.95,-1152.33 382.07,-1159.49 375.12,-1161.43 376.01,-1154.27 382.95,-1152.33"/>
<text text-anchor="middle" x="443.5" y="-1105" font-family="Helvetica,sans-Serif" font-size="10.00"> +GObjects</text>
</g>
<!-- Node11 -->
<g id="node11" class="node">
<title>Node11</title>
<g id="a_node11"><a xlink:href="../../d9/dfa/structSDK_1_1FPointer.html" target="_top" xlink:title=" ">
<polygon fill="white" stroke="black" points="567,-1553 567,-1621 665,-1621 665,-1553 567,-1553"/>
<text text-anchor="middle" x="616" y="-1609" font-family="Helvetica,sans-Serif" font-size="10.00">SDK::FPointer</text>
<polyline fill="none" stroke="black" points="567,-1602 665,-1602 "/>
<text text-anchor="start" x="575" y="-1590" font-family="Helvetica,sans-Serif" font-size="10.00">+ Dummy</text>
<text text-anchor="start" x="575" y="-1579" font-family="Helvetica,sans-Serif" font-size="10.00">+ UnknownData00</text>
<polyline fill="none" stroke="black" points="567,-1572 665,-1572 "/>
<text text-anchor="middle" x="616" y="-1560" font-family="Helvetica,sans-Serif" font-size="10.00"> </text>
</a>
</g>
</g>
<!-- Node11&#45;&gt;Node4 -->
<g id="edge13" class="edge">
<title>Node11&#45;&gt;Node4</title>
<path fill="none" stroke="#404040" d="M587.73,-1552.93C577.64,-1542.78 565.62,-1532.36 553,-1525 528.58,-1510.76 515.36,-1522.91 492,-1507 439.39,-1471.16 445.11,-1442.6 404,-1394 397.29,-1386.07 390.29,-1377.97 383.17,-1369.86"/>
<polygon fill="none" stroke="#404040" points="383.03,-1369.71 376.06,-1367.86 375.08,-1360.72 382.05,-1362.57 383.03,-1369.71"/>
<text text-anchor="middle" x="526.5" y="-1459" font-family="Helvetica,sans-Serif" font-size="10.00"> +StateFrame</text>
<text text-anchor="middle" x="526.5" y="-1448" font-family="Helvetica,sans-Serif" font-size="10.00">+VfTableObject</text>
<text text-anchor="middle" x="526.5" y="-1437" font-family="Helvetica,sans-Serif" font-size="10.00">+LinkerIndex</text>
</g>
<!-- Node20 -->
<g id="node20" class="node">
<title>Node20</title>
<g id="a_node20"><a xlink:href="../../d6/df6/classSDK_1_1UDistributionVector.html" target="_top" xlink:title=" ">
<polygon fill="white" stroke="black" points="510.5,-243.5 510.5,-322.5 639.5,-322.5 639.5,-243.5 510.5,-243.5"/>
<text text-anchor="middle" x="575" y="-310.5" font-family="Helvetica,sans-Serif" font-size="10.00">SDK::UDistributionVector</text>
<polyline fill="none" stroke="black" points="510.5,-303.5 639.5,-303.5 "/>
<text text-anchor="start" x="518.5" y="-291.5" font-family="Helvetica,sans-Serif" font-size="10.00">+ bCanBeBaked</text>
<text text-anchor="start" x="518.5" y="-280.5" font-family="Helvetica,sans-Serif" font-size="10.00">+ bIsDirty</text>
<polyline fill="none" stroke="black" points="510.5,-273.5 639.5,-273.5 "/>
<text text-anchor="start" x="518.5" y="-261.5" font-family="Helvetica,sans-Serif" font-size="10.00">+ GetVectorValue()</text>
<text text-anchor="start" x="518.5" y="-250.5" font-family="Helvetica,sans-Serif" font-size="10.00">+ StaticClass()</text>
</a>
</g>
</g>
<!-- Node11&#45;&gt;Node20 -->
<g id="edge32" class="edge">
<title>Node11&#45;&gt;Node20</title>
<path fill="none" stroke="#404040" d="M609.14,-1552.76C597.47,-1493.24 575,-1364.39 575,-1254.5 575,-1254.5 575,-1254.5 575,-388 575,-370.73 575,-351.86 575,-334.98"/>
<polygon fill="none" stroke="#404040" points="575,-334.52 571,-328.52 575,-322.52 579,-328.52 575,-334.52"/>
<text text-anchor="middle" x="640.5" y="-695.5" font-family="Helvetica,sans-Serif" font-size="10.00"> +VfTable_FCurveEdInterface</text>
</g>
<!-- Node12&#45;&gt;Node4 -->
<g id="edge14" class="edge">
<title>Node12&#45;&gt;Node4</title>
<path fill="none" stroke="#404040" d="M256.86,-555.51C261.25,-625.03 269.49,-764.55 273,-883 275.32,-961.35 276.11,-1049.08 276.3,-1119.39"/>
<polygon fill="none" stroke="#404040" points="276.3,-1119.41 280.31,-1125.4 276.33,-1131.41 272.31,-1125.42 276.3,-1119.41"/>
<text text-anchor="middle" x="288.5" y="-782.5" font-family="Helvetica,sans-Serif" font-size="10.00"> +Class</text>
</g>
<!-- Node12&#45;&gt;Node21 -->
<g id="edge31" class="edge">
<title>Node12&#45;&gt;Node21</title>
<path fill="none" stroke="#404040" d="M209.29,-465.34C196.29,-452.5 182.24,-438.63 169.78,-426.33"/>
<polygon fill="none" stroke="#404040" points="169.57,-426.12 162.49,-424.75 161.04,-417.69 168.12,-419.06 169.57,-426.12"/>
<text text-anchor="middle" x="242" y="-439" font-family="Helvetica,sans-Serif" font-size="10.00"> +TemplateOwnerClass</text>
</g>
<!-- Node13 -->
<g id="node13" class="node">
<title>Node13</title>
<g id="a_node13"><a xlink:href="../../df/d72/classSDK_1_1UState.html" target="_top" xlink:title=" ">
<polygon fill="white" stroke="black" points="149,-593.5 149,-650.5 247,-650.5 247,-593.5 149,-593.5"/>
<text text-anchor="middle" x="198" y="-638.5" font-family="Helvetica,sans-Serif" font-size="10.00">SDK::UState</text>
<polyline fill="none" stroke="black" points="149,-631.5 247,-631.5 "/>
<text text-anchor="start" x="157" y="-619.5" font-family="Helvetica,sans-Serif" font-size="10.00">+ UnknownData00</text>
<polyline fill="none" stroke="black" points="149,-612.5 247,-612.5 "/>
<text text-anchor="start" x="157" y="-600.5" font-family="Helvetica,sans-Serif" font-size="10.00">+ StaticClass()</text>
</a>
</g>
</g>
<!-- Node13&#45;&gt;Node12 -->
<g id="edge15" class="edge">
<title>Node13&#45;&gt;Node12</title>
<path fill="none" stroke="midnightblue" d="M216.83,-584.18C221.5,-575.05 226.55,-565.18 231.37,-555.74"/>
<polygon fill="none" stroke="midnightblue" points="213.57,-582.87 212.13,-593.37 219.8,-586.06 213.57,-582.87"/>
</g>
<!-- Node14 -->
<g id="node14" class="node">
<title>Node14</title>
<g id="a_node14"><a xlink:href="../../d8/de9/classSDK_1_1UStruct.html" target="_top" xlink:title=" ">
<polygon fill="white" stroke="black" points="145,-745.5 145,-824.5 243,-824.5 243,-745.5 145,-745.5"/>
<text text-anchor="middle" x="194" y="-812.5" font-family="Helvetica,sans-Serif" font-size="10.00">SDK::UStruct</text>
<polyline fill="none" stroke="black" points="145,-805.5 243,-805.5 "/>
<text text-anchor="start" x="153" y="-793.5" font-family="Helvetica,sans-Serif" font-size="10.00">+ UnknownData00</text>
<text text-anchor="start" x="153" y="-782.5" font-family="Helvetica,sans-Serif" font-size="10.00">+ PropertySize</text>
<text text-anchor="start" x="153" y="-771.5" font-family="Helvetica,sans-Serif" font-size="10.00">+ UnknownData01</text>
<polyline fill="none" stroke="black" points="145,-764.5 243,-764.5 "/>
<text text-anchor="start" x="153" y="-752.5" font-family="Helvetica,sans-Serif" font-size="10.00">+ StaticClass()</text>
</a>
</g>
</g>
<!-- Node14&#45;&gt;Node13 -->
<g id="edge16" class="edge">
<title>Node14&#45;&gt;Node13</title>
<path fill="none" stroke="midnightblue" d="M195.21,-735.15C195.9,-707.46 196.74,-673.83 197.31,-650.66"/>
<polygon fill="none" stroke="midnightblue" points="191.71,-735.35 194.96,-745.44 198.71,-735.53 191.71,-735.35"/>
</g>
<!-- Node15&#45;&gt;Node14 -->
<g id="edge17" class="edge">
<title>Node15&#45;&gt;Node14</title>
<path fill="none" stroke="midnightblue" d="M174.12,-944.63C174.64,-916.48 176.28,-877.19 181,-843 181.82,-837.07 182.95,-830.84 184.21,-824.77"/>
<polygon fill="none" stroke="midnightblue" points="170.62,-944.79 173.97,-954.84 177.62,-944.89 170.62,-944.79"/>
</g>
<!-- Node15&#45;&gt;Node14 -->
<g id="edge20" class="edge">
<title>Node15&#45;&gt;Node14</title>
<path fill="none" stroke="#404040" d="M176.82,-954.76C179.93,-924.25 184.99,-874.57 188.81,-836.99"/>
<polygon fill="none" stroke="#404040" points="188.84,-836.7 185.47,-830.32 190.06,-824.76 193.43,-831.13 188.84,-836.7"/>
<text text-anchor="middle" x="217" y="-857" font-family="Helvetica,sans-Serif" font-size="10.00"> +SuperField</text>
<text text-anchor="middle" x="217" y="-846" font-family="Helvetica,sans-Serif" font-size="10.00">+Children</text>
</g>
<!-- Node15&#45;&gt;Node15 -->
<g id="edge19" class="edge">
<title>Node15&#45;&gt;Node15</title>
<path fill="none" stroke="#404040" d="M215.71,-1006.39C225.91,-1004.69 233.5,-997.06 233.5,-983.5 233.5,-975.66 230.96,-969.8 226.85,-965.93"/>
<polygon fill="none" stroke="#404040" points="226.54,-965.78 219.4,-966.81 215.71,-960.61 222.84,-959.59 226.54,-965.78"/>
<text text-anchor="middle" x="249" y="-981" font-family="Helvetica,sans-Serif" font-size="10.00"> +Next</text>
</g>
<!-- Node16 -->
<g id="node16" class="node">
<title>Node16</title>
<g id="a_node16"><a xlink:href="../../d4/daf/structSDK_1_1FColor.html" target="_top" xlink:title=" ">
<polygon fill="white" stroke="black" points="789.5,-1203 789.5,-1304 862.5,-1304 862.5,-1203 789.5,-1203"/>
<text text-anchor="middle" x="826" y="-1292" font-family="Helvetica,sans-Serif" font-size="10.00">SDK::FColor</text>
<polyline fill="none" stroke="black" points="789.5,-1285 862.5,-1285 "/>
<text text-anchor="start" x="797.5" y="-1273" font-family="Helvetica,sans-Serif" font-size="10.00">+ B</text>
<text text-anchor="start" x="797.5" y="-1262" font-family="Helvetica,sans-Serif" font-size="10.00">+ G</text>
<text text-anchor="start" x="797.5" y="-1251" font-family="Helvetica,sans-Serif" font-size="10.00">+ R</text>
<text text-anchor="start" x="797.5" y="-1240" font-family="Helvetica,sans-Serif" font-size="10.00">+ A</text>
<polyline fill="none" stroke="black" points="789.5,-1233 862.5,-1233 "/>
<text text-anchor="start" x="797.5" y="-1221" font-family="Helvetica,sans-Serif" font-size="10.00">+ FColor()</text>
<text text-anchor="start" x="797.5" y="-1210" font-family="Helvetica,sans-Serif" font-size="10.00">+ FColor()</text>
</a>
</g>
</g>
<!-- Node16&#45;&gt;Node3 -->
<g id="edge22" class="edge">
<title>Node16&#45;&gt;Node3</title>
<path fill="none" stroke="#404040" d="M826,-1202.72C826,-1172.73 826,-1133.28 826,-1096.18"/>
<polygon fill="none" stroke="#404040" points="826,-1095.7 822,-1089.7 826,-1083.7 830,-1089.7 826,-1095.7"/>
<text text-anchor="middle" x="871" y="-1105" font-family="Helvetica,sans-Serif" font-size="10.00"> +ModuleEditorColor</text>
</g>
<!-- Node17 -->
<g id="node17" class="node">
<title>Node17</title>
<g id="a_node17"><a xlink:href="../../dd/d23/structSDK_1_1FRawDistributionVector.html" target="_top" xlink:title=" ">
<polygon fill="white" stroke="black" points="647,-138.5 647,-195.5 795,-195.5 795,-138.5 647,-138.5"/>
<text text-anchor="middle" x="721" y="-183.5" font-family="Helvetica,sans-Serif" font-size="10.00">SDK::FRawDistributionVector</text>
<polyline fill="none" stroke="black" points="647,-176.5 795,-176.5 "/>
<text text-anchor="middle" x="721" y="-164.5" font-family="Helvetica,sans-Serif" font-size="10.00"> </text>
<polyline fill="none" stroke="black" points="647,-157.5 795,-157.5 "/>
<text text-anchor="middle" x="721" y="-145.5" font-family="Helvetica,sans-Serif" font-size="10.00"> </text>
</a>
</g>
</g>
<!-- Node17&#45;&gt;Node1 -->
<g id="edge23" class="edge">
<title>Node17&#45;&gt;Node1</title>
<path fill="none" stroke="#404040" d="M733.06,-138.28C737.75,-127.52 743.29,-114.78 748.73,-102.27"/>
<polygon fill="none" stroke="#404040" points="748.89,-101.92 747.61,-94.82 753.67,-90.91 754.95,-98.01 748.89,-101.92"/>
<text text-anchor="middle" x="778" y="-112" font-family="Helvetica,sans-Serif" font-size="10.00"> +LifeMultiplier</text>
</g>
<!-- Node18 -->
<g id="node18" class="node">
<title>Node18</title>
<g id="a_node18"><a xlink:href="../../dc/d37/structSDK_1_1FRawDistribution.html" target="_top" xlink:title=" ">
<polygon fill="white" stroke="black" points="644.5,-1394.5 644.5,-1506.5 787.5,-1506.5 787.5,-1394.5 644.5,-1394.5"/>
<text text-anchor="middle" x="716" y="-1494.5" font-family="Helvetica,sans-Serif" font-size="10.00">SDK::FRawDistribution</text>
<polyline fill="none" stroke="black" points="644.5,-1487.5 787.5,-1487.5 "/>
<text text-anchor="start" x="652.5" y="-1475.5" font-family="Helvetica,sans-Serif" font-size="10.00">+ Type</text>
<text text-anchor="start" x="652.5" y="-1464.5" font-family="Helvetica,sans-Serif" font-size="10.00">+ Op</text>
<text text-anchor="start" x="652.5" y="-1453.5" font-family="Helvetica,sans-Serif" font-size="10.00">+ LookupTableNumElements</text>
<text text-anchor="start" x="652.5" y="-1442.5" font-family="Helvetica,sans-Serif" font-size="10.00">+ LookupTableChunkSize</text>
<text text-anchor="start" x="652.5" y="-1431.5" font-family="Helvetica,sans-Serif" font-size="10.00">+ LookupTableTimeScale</text>
<text text-anchor="start" x="652.5" y="-1420.5" font-family="Helvetica,sans-Serif" font-size="10.00">+ LookupTableStartTime</text>
<polyline fill="none" stroke="black" points="644.5,-1413.5 787.5,-1413.5 "/>
<text text-anchor="middle" x="716" y="-1401.5" font-family="Helvetica,sans-Serif" font-size="10.00"> </text>
</a>
</g>
</g>
<!-- Node18&#45;&gt;Node17 -->
<g id="edge24" class="edge">
<title>Node18&#45;&gt;Node17</title>
<path fill="none" stroke="midnightblue" d="M717.53,-1384.05C719,-1315.41 721,-1204.38 721,-1108.5 721,-1108.5 721,-1108.5 721,-282 721,-252.51 721,-218.73 721,-195.64"/>
<polygon fill="none" stroke="midnightblue" points="714.02,-1384.21 717.31,-1394.28 721.02,-1384.36 714.02,-1384.21"/>
</g>
<!-- Node19&#45;&gt;Node18 -->
<g id="edge25" class="edge">
<title>Node19&#45;&gt;Node18</title>
<path fill="none" stroke="#404040" d="M665.64,-1667.41C668.72,-1661.31 671.56,-1655.12 674,-1649 690.66,-1607.18 701.17,-1557.62 707.51,-1518.61"/>
<polygon fill="none" stroke="#404040" points="707.54,-1518.46 704.51,-1511.91 709.39,-1506.6 712.42,-1513.15 707.54,-1518.46"/>
<text text-anchor="middle" x="738.5" y="-1584.5" font-family="Helvetica,sans-Serif" font-size="10.00"> +LookupTable</text>
</g>
<!-- Node20&#45;&gt;Node17 -->
<g id="edge27" class="edge">
<title>Node20&#45;&gt;Node17</title>
<path fill="none" stroke="#404040" d="M613.97,-243.18C624.65,-233.25 636.47,-222.88 648,-214 653.12,-210.06 658.58,-206.14 664.14,-202.35"/>
<polygon fill="none" stroke="#404040" points="664.17,-202.33 666.95,-195.67 674.16,-195.68 671.38,-202.34 664.17,-202.33"/>
<text text-anchor="middle" x="677.5" y="-217" font-family="Helvetica,sans-Serif" font-size="10.00"> +Distribution</text>
</g>
<!-- Node21&#45;&gt;Node20 -->
<g id="edge28" class="edge">
<title>Node21&#45;&gt;Node20</title>
<path fill="none" stroke="midnightblue" d="M193.49,-373.77C276.5,-354.24 425.09,-319.27 510.27,-299.23"/>
<polygon fill="none" stroke="midnightblue" points="192.64,-370.37 183.7,-376.07 194.24,-377.19 192.64,-370.37"/>
</g>
</g>
</svg>
