<?xml version="1.0" encoding="UTF-8" standalone="no"?>
<!DOCTYPE svg PUBLIC "-//W3C//DTD SVG 1.1//EN"
 "http://www.w3.org/Graphics/SVG/1.1/DTD/svg11.dtd">
<!-- Generated by graphviz version 2.41.20171026.1811 (20171026.1811)
 -->
<!-- Title: SDK::UDistributionFloatConstantCurve Pages: 1 -->
<svg width="206pt" height="794pt"
 viewBox="0.00 0.00 206.00 794.00" xmlns="http://www.w3.org/2000/svg" xmlns:xlink="http://www.w3.org/1999/xlink">
<g id="graph0" class="graph" transform="scale(1 1) rotate(0) translate(4 790)">
<title>SDK::UDistributionFloatConstantCurve</title>
<polygon fill="white" stroke="transparent" points="-4,4 -4,-790 202,-790 202,4 -4,4"/>
<!-- Node1 -->
<g id="node1" class="node">
<title>Node1</title>
<g id="a_node1"><a xlink:title=" ">
<polygon fill="#bfbfbf" stroke="black" points="18,-94.5 18,-162.5 180,-162.5 180,-94.5 18,-94.5"/>
<text text-anchor="start" x="26" y="-150.5" font-family="Helvetica,sans-Serif" font-size="10.00">SDK::UDistributionFloatConstant</text>
<text text-anchor="middle" x="99" y="-139.5" font-family="Helvetica,sans-Serif" font-size="10.00">Curve</text>
<polyline fill="none" stroke="black" points="18,-132.5 180,-132.5 "/>
<text text-anchor="start" x="26" y="-120.5" font-family="Helvetica,sans-Serif" font-size="10.00">+ ConstantCurve</text>
<polyline fill="none" stroke="black" points="18,-113.5 180,-113.5 "/>
<text text-anchor="start" x="26" y="-101.5" font-family="Helvetica,sans-Serif" font-size="10.00">+ StaticClass()</text>
</a>
</g>
</g>
<!-- Node5 -->
<g id="node5" class="node">
<title>Node5</title>
<g id="a_node5"><a xlink:href="../../d8/df4/classSDK_1_1UEFParticlePathCurve.html" target="_top" xlink:title=" ">
<polygon fill="white" stroke="black" points="27.5,-0.5 27.5,-57.5 170.5,-57.5 170.5,-0.5 27.5,-0.5"/>
<text text-anchor="middle" x="99" y="-45.5" font-family="Helvetica,sans-Serif" font-size="10.00">SDK::UEFParticlePathCurve</text>
<polyline fill="none" stroke="black" points="27.5,-38.5 170.5,-38.5 "/>
<text text-anchor="middle" x="99" y="-26.5" font-family="Helvetica,sans-Serif" font-size="10.00"> </text>
<polyline fill="none" stroke="black" points="27.5,-19.5 170.5,-19.5 "/>
<text text-anchor="start" x="35.5" y="-7.5" font-family="Helvetica,sans-Serif" font-size="10.00">+ StaticClass()</text>
</a>
</g>
</g>
<!-- Node1&#45;&gt;Node5 -->
<g id="edge4" class="edge">
<title>Node1&#45;&gt;Node5</title>
<path fill="none" stroke="midnightblue" d="M99,-84.45C99,-75.4 99,-66.09 99,-57.78"/>
<polygon fill="none" stroke="midnightblue" points="95.5,-84.49 99,-94.49 102.5,-84.49 95.5,-84.49"/>
</g>
<!-- Node2 -->
<g id="node2" class="node">
<title>Node2</title>
<g id="a_node2"><a xlink:href="../../dd/d27/classSDK_1_1UDistributionFloat.html" target="_top" xlink:title=" ">
<polygon fill="white" stroke="black" points="25.5,-199.5 25.5,-289.5 172.5,-289.5 172.5,-199.5 25.5,-199.5"/>
<text text-anchor="middle" x="99" y="-277.5" font-family="Helvetica,sans-Serif" font-size="10.00">SDK::UDistributionFloat</text>
<polyline fill="none" stroke="black" points="25.5,-270.5 172.5,-270.5 "/>
<text text-anchor="start" x="33.5" y="-258.5" font-family="Helvetica,sans-Serif" font-size="10.00">+ VfTable_FCurveEdInterface</text>
<text text-anchor="start" x="33.5" y="-247.5" font-family="Helvetica,sans-Serif" font-size="10.00">+ bCanBeBaked</text>
<text text-anchor="start" x="33.5" y="-236.5" font-family="Helvetica,sans-Serif" font-size="10.00">+ bIsDirty</text>
<polyline fill="none" stroke="black" points="25.5,-229.5 172.5,-229.5 "/>
<text text-anchor="start" x="33.5" y="-217.5" font-family="Helvetica,sans-Serif" font-size="10.00">+ GetFloatValue()</text>
<text text-anchor="start" x="33.5" y="-206.5" font-family="Helvetica,sans-Serif" font-size="10.00">+ StaticClass()</text>
</a>
</g>
</g>
<!-- Node2&#45;&gt;Node1 -->
<g id="edge1" class="edge">
<title>Node2&#45;&gt;Node1</title>
<path fill="none" stroke="midnightblue" d="M99,-189.32C99,-180.28 99,-171.16 99,-162.85"/>
<polygon fill="none" stroke="midnightblue" points="95.5,-189.42 99,-199.42 102.5,-189.42 95.5,-189.42"/>
</g>
<!-- Node3 -->
<g id="node3" class="node">
<title>Node3</title>
<g id="a_node3"><a xlink:href="../../dc/d28/classSDK_1_1UComponent.html" target="_top" xlink:title=" ">
<polygon fill="white" stroke="black" points="39,-326.5 39,-394.5 159,-394.5 159,-326.5 39,-326.5"/>
<text text-anchor="middle" x="99" y="-382.5" font-family="Helvetica,sans-Serif" font-size="10.00">SDK::UComponent</text>
<polyline fill="none" stroke="black" points="39,-375.5 159,-375.5 "/>
<text text-anchor="start" x="47" y="-363.5" font-family="Helvetica,sans-Serif" font-size="10.00">+ TemplateOwnerClass</text>
<text text-anchor="start" x="47" y="-352.5" font-family="Helvetica,sans-Serif" font-size="10.00">+ TemplateName</text>
<polyline fill="none" stroke="black" points="39,-345.5 159,-345.5 "/>
<text text-anchor="start" x="47" y="-333.5" font-family="Helvetica,sans-Serif" font-size="10.00">+ StaticClass()</text>
</a>
</g>
</g>
<!-- Node3&#45;&gt;Node2 -->
<g id="edge2" class="edge">
<title>Node3&#45;&gt;Node2</title>
<path fill="none" stroke="midnightblue" d="M99,-315.97C99,-307.35 99,-298.28 99,-289.64"/>
<polygon fill="none" stroke="midnightblue" points="95.5,-316.22 99,-326.22 102.5,-316.22 95.5,-316.22"/>
</g>
<!-- Node4 -->
<g id="node4" class="node">
<title>Node4</title>
<g id="a_node4"><a xlink:href="../../d9/d45/classSDK_1_1UObject.html" target="_top" xlink:title=" ">
<polygon fill="white" stroke="black" points="0,-431.5 0,-785.5 198,-785.5 198,-431.5 0,-431.5"/>
<text text-anchor="middle" x="99" y="-773.5" font-family="Helvetica,sans-Serif" font-size="10.00">SDK::UObject</text>
<polyline fill="none" stroke="black" points="0,-766.5 198,-766.5 "/>
<text text-anchor="start" x="8" y="-754.5" font-family="Helvetica,sans-Serif" font-size="10.00">+ VfTableObject</text>
<text text-anchor="start" x="8" y="-743.5" font-family="Helvetica,sans-Serif" font-size="10.00">+ ObjectFlags</text>
<text text-anchor="start" x="8" y="-732.5" font-family="Helvetica,sans-Serif" font-size="10.00">+ StateFrame</text>
<text text-anchor="start" x="8" y="-721.5" font-family="Helvetica,sans-Serif" font-size="10.00">+ Linker</text>
<text text-anchor="start" x="8" y="-710.5" font-family="Helvetica,sans-Serif" font-size="10.00">+ LinkerIndex</text>
<text text-anchor="start" x="8" y="-699.5" font-family="Helvetica,sans-Serif" font-size="10.00">+ ObjectInternalInteger</text>
<text text-anchor="start" x="8" y="-688.5" font-family="Helvetica,sans-Serif" font-size="10.00">+ NetIndex</text>
<text text-anchor="start" x="8" y="-677.5" font-family="Helvetica,sans-Serif" font-size="10.00">+ Outer</text>
<text text-anchor="start" x="8" y="-666.5" font-family="Helvetica,sans-Serif" font-size="10.00">+ Name</text>
<text text-anchor="start" x="8" y="-655.5" font-family="Helvetica,sans-Serif" font-size="10.00">+ Class</text>
<text text-anchor="start" x="8" y="-644.5" font-family="Helvetica,sans-Serif" font-size="10.00">+ ObjectArchetype</text>
<text text-anchor="start" x="8" y="-633.5" font-family="Helvetica,sans-Serif" font-size="10.00">+ GObjects</text>
<polyline fill="none" stroke="black" points="0,-626.5 198,-626.5 "/>
<text text-anchor="start" x="8" y="-614.5" font-family="Helvetica,sans-Serif" font-size="10.00">+ UObject::GetName()</text>
<text text-anchor="start" x="8" y="-603.5" font-family="Helvetica,sans-Serif" font-size="10.00">+ GetFullName()</text>
<text text-anchor="start" x="8" y="-592.5" font-family="Helvetica,sans-Serif" font-size="10.00">+ IsA()</text>
<text text-anchor="start" x="8" y="-581.5" font-family="Helvetica,sans-Serif" font-size="10.00">+ ProcessEvent()</text>
<text text-anchor="start" x="8" y="-570.5" font-family="Helvetica,sans-Serif" font-size="10.00">+ STATIC_ProfNodeEvent()</text>
<text text-anchor="start" x="8" y="-559.5" font-family="Helvetica,sans-Serif" font-size="10.00">+ STATIC_ProfNodeSetDepthThreshold()</text>
<text text-anchor="start" x="8" y="-548.5" font-family="Helvetica,sans-Serif" font-size="10.00">+ STATIC_ProfNodeSetTimeThreshold</text>
<text text-anchor="start" x="8" y="-537.5" font-family="Helvetica,sans-Serif" font-size="10.00">Seconds()</text>
<text text-anchor="start" x="8" y="-526.5" font-family="Helvetica,sans-Serif" font-size="10.00">+ STATIC_ProfNodeStop()</text>
<text text-anchor="start" x="8" y="-515.5" font-family="Helvetica,sans-Serif" font-size="10.00">+ STATIC_ProfNodeStart()</text>
<text text-anchor="start" x="8" y="-504.5" font-family="Helvetica,sans-Serif" font-size="10.00">+ STATIC_GetStringFromGuid()</text>
<text text-anchor="start" x="8" y="-493.5" font-family="Helvetica,sans-Serif" font-size="10.00">and 298 more...</text>
<text text-anchor="start" x="8" y="-482.5" font-family="Helvetica,sans-Serif" font-size="10.00">+ GetGlobalObjects()</text>
<text text-anchor="start" x="8" y="-471.5" font-family="Helvetica,sans-Serif" font-size="10.00">+ FindObject()</text>
<text text-anchor="start" x="8" y="-460.5" font-family="Helvetica,sans-Serif" font-size="10.00">+ FindClass()</text>
<text text-anchor="start" x="8" y="-449.5" font-family="Helvetica,sans-Serif" font-size="10.00">+ GetObjectCasted()</text>
<text text-anchor="start" x="8" y="-438.5" font-family="Helvetica,sans-Serif" font-size="10.00">+ StaticClass()</text>
</a>
</g>
</g>
<!-- Node4&#45;&gt;Node3 -->
<g id="edge3" class="edge">
<title>Node4&#45;&gt;Node3</title>
<path fill="none" stroke="midnightblue" d="M99,-421.08C99,-411.47 99,-402.57 99,-394.74"/>
<polygon fill="none" stroke="midnightblue" points="95.5,-421.34 99,-431.34 102.5,-421.34 95.5,-421.34"/>
</g>
</g>
</svg>
