<?xml version="1.0" encoding="UTF-8" standalone="no"?>
<!DOCTYPE svg PUBLIC "-//W3C//DTD SVG 1.1//EN"
 "http://www.w3.org/Graphics/SVG/1.1/DTD/svg11.dtd">
<!-- Generated by graphviz version 2.41.20171026.1811 (20171026.1811)
 -->
<!-- Title: SDK::UEFUIChatTabControl Pages: 1 -->
<svg width="930pt" height="2656pt"
 viewBox="0.00 0.00 930.00 2656.00" xmlns="http://www.w3.org/2000/svg" xmlns:xlink="http://www.w3.org/1999/xlink">
<g id="graph0" class="graph" transform="scale(1 1) rotate(0) translate(4 2652)">
<title>SDK::UEFUIChatTabControl</title>
<polygon fill="white" stroke="transparent" points="-4,4 -4,-2652 926,-2652 926,4 -4,4"/>
<!-- Node1 -->
<g id="node1" class="node">
<title>Node1</title>
<g id="a_node1"><a xlink:title=" ">
<polygon fill="#bfbfbf" stroke="black" points="0,-0.5 0,-145.5 176,-145.5 176,-0.5 0,-0.5"/>
<text text-anchor="middle" x="88" y="-133.5" font-family="Helvetica,sans-Serif" font-size="10.00">SDK::UEFUIChatTabControl</text>
<polyline fill="none" stroke="black" points="0,-126.5 176,-126.5 "/>
<text text-anchor="start" x="8" y="-114.5" font-family="Helvetica,sans-Serif" font-size="10.00">+ TabID</text>
<polyline fill="none" stroke="black" points="0,-107.5 176,-107.5 "/>
<text text-anchor="start" x="8" y="-95.5" font-family="Helvetica,sans-Serif" font-size="10.00">+ ChatLogInputSelectType()</text>
<text text-anchor="start" x="8" y="-84.5" font-family="Helvetica,sans-Serif" font-size="10.00">+ ChatLogMainWidgetTabInsert</text>
<text text-anchor="start" x="8" y="-73.5" font-family="Helvetica,sans-Serif" font-size="10.00">Group()</text>
<text text-anchor="start" x="8" y="-62.5" font-family="Helvetica,sans-Serif" font-size="10.00">+ ChatLogInTabGroupElement</text>
<text text-anchor="start" x="8" y="-51.5" font-family="Helvetica,sans-Serif" font-size="10.00">StartDrag()</text>
<text text-anchor="start" x="8" y="-40.5" font-family="Helvetica,sans-Serif" font-size="10.00">+ ChatLogLinkClick()</text>
<text text-anchor="start" x="8" y="-29.5" font-family="Helvetica,sans-Serif" font-size="10.00">+ ChatLogTabContextMenuShow()</text>
<text text-anchor="start" x="8" y="-18.5" font-family="Helvetica,sans-Serif" font-size="10.00">+ ChatLogMainWidgetSizeUpdated()</text>
<text text-anchor="start" x="8" y="-7.5" font-family="Helvetica,sans-Serif" font-size="10.00">+ StaticClass()</text>
</a>
</g>
</g>
<!-- Node2 -->
<g id="node2" class="node">
<title>Node2</title>
<g id="a_node2"><a xlink:href="../../d2/d77/classSDK_1_1UEFUIControl.html" target="_top" xlink:title=" ">
<polygon fill="white" stroke="black" points="35,-183.5 35,-240.5 141,-240.5 141,-183.5 35,-183.5"/>
<text text-anchor="middle" x="88" y="-228.5" font-family="Helvetica,sans-Serif" font-size="10.00">SDK::UEFUIControl</text>
<polyline fill="none" stroke="black" points="35,-221.5 141,-221.5 "/>
<text text-anchor="middle" x="88" y="-209.5" font-family="Helvetica,sans-Serif" font-size="10.00"> </text>
<polyline fill="none" stroke="black" points="35,-202.5 141,-202.5 "/>
<text text-anchor="start" x="43" y="-190.5" font-family="Helvetica,sans-Serif" font-size="10.00">+ StaticClass()</text>
</a>
</g>
</g>
<!-- Node2&#45;&gt;Node1 -->
<g id="edge1" class="edge">
<title>Node2&#45;&gt;Node1</title>
<path fill="none" stroke="midnightblue" d="M88,-173.21C88,-164.58 88,-155.14 88,-145.61"/>
<polygon fill="none" stroke="midnightblue" points="84.5,-173.28 88,-183.28 91.5,-173.28 84.5,-173.28"/>
</g>
<!-- Node3 -->
<g id="node3" class="node">
<title>Node3</title>
<g id="a_node3"><a xlink:href="../../dd/d3c/classSDK_1_1UEFUIComponent.html" target="_top" xlink:title=" ">
<polygon fill="white" stroke="black" points="25.5,-278.5 25.5,-456.5 150.5,-456.5 150.5,-278.5 25.5,-278.5"/>
<text text-anchor="middle" x="88" y="-444.5" font-family="Helvetica,sans-Serif" font-size="10.00">SDK::UEFUIComponent</text>
<polyline fill="none" stroke="black" points="25.5,-437.5 150.5,-437.5 "/>
<text text-anchor="middle" x="88" y="-425.5" font-family="Helvetica,sans-Serif" font-size="10.00"> </text>
<polyline fill="none" stroke="black" points="25.5,-418.5 150.5,-418.5 "/>
<text text-anchor="start" x="33.5" y="-406.5" font-family="Helvetica,sans-Serif" font-size="10.00">+ InvalidateSize()</text>
<text text-anchor="start" x="33.5" y="-395.5" font-family="Helvetica,sans-Serif" font-size="10.00">+ InvalidateData()</text>
<text text-anchor="start" x="33.5" y="-384.5" font-family="Helvetica,sans-Serif" font-size="10.00">+ Invalidate()</text>
<text text-anchor="start" x="33.5" y="-373.5" font-family="Helvetica,sans-Serif" font-size="10.00">+ ValidateNow()</text>
<text text-anchor="start" x="33.5" y="-362.5" font-family="Helvetica,sans-Serif" font-size="10.00">+ HasFocus()</text>
<text text-anchor="start" x="33.5" y="-351.5" font-family="Helvetica,sans-Serif" font-size="10.00">+ GetY()</text>
<text text-anchor="start" x="33.5" y="-340.5" font-family="Helvetica,sans-Serif" font-size="10.00">+ SetY()</text>
<text text-anchor="start" x="33.5" y="-329.5" font-family="Helvetica,sans-Serif" font-size="10.00">+ GetX()</text>
<text text-anchor="start" x="33.5" y="-318.5" font-family="Helvetica,sans-Serif" font-size="10.00">+ SetX()</text>
<text text-anchor="start" x="33.5" y="-307.5" font-family="Helvetica,sans-Serif" font-size="10.00">+ GetHeight()</text>
<text text-anchor="start" x="33.5" y="-296.5" font-family="Helvetica,sans-Serif" font-size="10.00">and 10 more...</text>
<text text-anchor="start" x="33.5" y="-285.5" font-family="Helvetica,sans-Serif" font-size="10.00">+ StaticClass()</text>
</a>
</g>
</g>
<!-- Node3&#45;&gt;Node2 -->
<g id="edge2" class="edge">
<title>Node3&#45;&gt;Node2</title>
<path fill="none" stroke="midnightblue" d="M88,-268.02C88,-258.1 88,-248.7 88,-240.57"/>
<polygon fill="none" stroke="midnightblue" points="84.5,-268.1 88,-278.1 91.5,-268.1 84.5,-268.1"/>
</g>
<!-- Node4 -->
<g id="node4" class="node">
<title>Node4</title>
<g id="a_node4"><a xlink:href="../../dc/dd3/classSDK_1_1UGFxClikWidget.html" target="_top" xlink:title=" ">
<polygon fill="white" stroke="black" points="4.5,-494.5 4.5,-639.5 171.5,-639.5 171.5,-494.5 4.5,-494.5"/>
<text text-anchor="middle" x="88" y="-627.5" font-family="Helvetica,sans-Serif" font-size="10.00">SDK::UGFxClikWidget</text>
<polyline fill="none" stroke="black" points="4.5,-620.5 171.5,-620.5 "/>
<text text-anchor="middle" x="88" y="-608.5" font-family="Helvetica,sans-Serif" font-size="10.00"> </text>
<polyline fill="none" stroke="black" points="4.5,-601.5 171.5,-601.5 "/>
<text text-anchor="start" x="12.5" y="-589.5" font-family="Helvetica,sans-Serif" font-size="10.00">+ ASRemoveAllEventListeners()</text>
<text text-anchor="start" x="12.5" y="-578.5" font-family="Helvetica,sans-Serif" font-size="10.00">+ AS3AddEventListener()</text>
<text text-anchor="start" x="12.5" y="-567.5" font-family="Helvetica,sans-Serif" font-size="10.00">+ ASAddEventListener()</text>
<text text-anchor="start" x="12.5" y="-556.5" font-family="Helvetica,sans-Serif" font-size="10.00">+ SetListener()</text>
<text text-anchor="start" x="12.5" y="-545.5" font-family="Helvetica,sans-Serif" font-size="10.00">+ GetEventStringFromTypename()</text>
<text text-anchor="start" x="12.5" y="-534.5" font-family="Helvetica,sans-Serif" font-size="10.00">+ RemoveAllEventListeners()</text>
<text text-anchor="start" x="12.5" y="-523.5" font-family="Helvetica,sans-Serif" font-size="10.00">+ AddEventListener()</text>
<text text-anchor="start" x="12.5" y="-512.5" font-family="Helvetica,sans-Serif" font-size="10.00">+ EventListener()</text>
<text text-anchor="start" x="12.5" y="-501.5" font-family="Helvetica,sans-Serif" font-size="10.00">+ StaticClass()</text>
</a>
</g>
</g>
<!-- Node4&#45;&gt;Node3 -->
<g id="edge3" class="edge">
<title>Node4&#45;&gt;Node3</title>
<path fill="none" stroke="midnightblue" d="M88,-484.25C88,-475.15 88,-465.85 88,-456.68"/>
<polygon fill="none" stroke="midnightblue" points="84.5,-484.42 88,-494.42 91.5,-484.42 84.5,-484.42"/>
</g>
<!-- Node5 -->
<g id="node5" class="node">
<title>Node5</title>
<g id="a_node5"><a xlink:href="../../d2/d23/classSDK_1_1UGFxObject.html" target="_top" xlink:title=" ">
<polygon fill="white" stroke="black" points="626.5,-677.5 626.5,-866.5 775.5,-866.5 775.5,-677.5 626.5,-677.5"/>
<text text-anchor="middle" x="701" y="-854.5" font-family="Helvetica,sans-Serif" font-size="10.00">SDK::UGFxObject</text>
<polyline fill="none" stroke="black" points="626.5,-847.5 775.5,-847.5 "/>
<text text-anchor="start" x="634.5" y="-835.5" font-family="Helvetica,sans-Serif" font-size="10.00">+ Value</text>
<text text-anchor="start" x="634.5" y="-824.5" font-family="Helvetica,sans-Serif" font-size="10.00">+ bListenExternalInterfaceCall</text>
<polyline fill="none" stroke="black" points="626.5,-817.5 775.5,-817.5 "/>
<text text-anchor="start" x="634.5" y="-805.5" font-family="Helvetica,sans-Serif" font-size="10.00">+ DestroyGFxObject()</text>
<text text-anchor="start" x="634.5" y="-794.5" font-family="Helvetica,sans-Serif" font-size="10.00">+ WidgetUnloaded()</text>
<text text-anchor="start" x="634.5" y="-783.5" font-family="Helvetica,sans-Serif" font-size="10.00">+ WidgetInitialized()</text>
<text text-anchor="start" x="634.5" y="-772.5" font-family="Helvetica,sans-Serif" font-size="10.00">+ GotoAndStopI()</text>
<text text-anchor="start" x="634.5" y="-761.5" font-family="Helvetica,sans-Serif" font-size="10.00">+ GotoAndStop()</text>
<text text-anchor="start" x="634.5" y="-750.5" font-family="Helvetica,sans-Serif" font-size="10.00">+ GotoAndPlayI()</text>
<text text-anchor="start" x="634.5" y="-739.5" font-family="Helvetica,sans-Serif" font-size="10.00">+ GotoAndPlay()</text>
<text text-anchor="start" x="634.5" y="-728.5" font-family="Helvetica,sans-Serif" font-size="10.00">+ ActionScriptString()</text>
<text text-anchor="start" x="634.5" y="-717.5" font-family="Helvetica,sans-Serif" font-size="10.00">+ ActionScriptFloat()</text>
<text text-anchor="start" x="634.5" y="-706.5" font-family="Helvetica,sans-Serif" font-size="10.00">+ ActionScriptInt()</text>
<text text-anchor="start" x="634.5" y="-695.5" font-family="Helvetica,sans-Serif" font-size="10.00">and 69 more...</text>
<text text-anchor="start" x="634.5" y="-684.5" font-family="Helvetica,sans-Serif" font-size="10.00">+ StaticClass()</text>
</a>
</g>
</g>
<!-- Node5&#45;&gt;Node4 -->
<g id="edge4" class="edge">
<title>Node5&#45;&gt;Node4</title>
<path fill="none" stroke="midnightblue" d="M616.79,-743.11C499.65,-704.32 288.76,-634.48 171.82,-595.76"/>
<polygon fill="none" stroke="midnightblue" points="615.85,-746.49 626.45,-746.31 618.05,-739.84 615.85,-746.49"/>
</g>
<!-- Node6 -->
<g id="node6" class="node">
<title>Node6</title>
<g id="a_node6"><a xlink:href="../../d9/d45/classSDK_1_1UObject.html" target="_top" xlink:title=" ">
<polygon fill="white" stroke="black" points="466,-1755.5 466,-1999.5 664,-1999.5 664,-1755.5 466,-1755.5"/>
<text text-anchor="middle" x="565" y="-1987.5" font-family="Helvetica,sans-Serif" font-size="10.00">SDK::UObject</text>
<polyline fill="none" stroke="black" points="466,-1980.5 664,-1980.5 "/>
<text text-anchor="start" x="474" y="-1968.5" font-family="Helvetica,sans-Serif" font-size="10.00">+ ObjectInternalInteger</text>
<text text-anchor="start" x="474" y="-1957.5" font-family="Helvetica,sans-Serif" font-size="10.00">+ NetIndex</text>
<polyline fill="none" stroke="black" points="466,-1950.5 664,-1950.5 "/>
<text text-anchor="start" x="474" y="-1938.5" font-family="Helvetica,sans-Serif" font-size="10.00">+ UObject::GetName()</text>
<text text-anchor="start" x="474" y="-1927.5" font-family="Helvetica,sans-Serif" font-size="10.00">+ GetFullName()</text>
<text text-anchor="start" x="474" y="-1916.5" font-family="Helvetica,sans-Serif" font-size="10.00">+ IsA()</text>
<text text-anchor="start" x="474" y="-1905.5" font-family="Helvetica,sans-Serif" font-size="10.00">+ ProcessEvent()</text>
<text text-anchor="start" x="474" y="-1894.5" font-family="Helvetica,sans-Serif" font-size="10.00">+ STATIC_ProfNodeEvent()</text>
<text text-anchor="start" x="474" y="-1883.5" font-family="Helvetica,sans-Serif" font-size="10.00">+ STATIC_ProfNodeSetDepthThreshold()</text>
<text text-anchor="start" x="474" y="-1872.5" font-family="Helvetica,sans-Serif" font-size="10.00">+ STATIC_ProfNodeSetTimeThreshold</text>
<text text-anchor="start" x="474" y="-1861.5" font-family="Helvetica,sans-Serif" font-size="10.00">Seconds()</text>
<text text-anchor="start" x="474" y="-1850.5" font-family="Helvetica,sans-Serif" font-size="10.00">+ STATIC_ProfNodeStop()</text>
<text text-anchor="start" x="474" y="-1839.5" font-family="Helvetica,sans-Serif" font-size="10.00">+ STATIC_ProfNodeStart()</text>
<text text-anchor="start" x="474" y="-1828.5" font-family="Helvetica,sans-Serif" font-size="10.00">+ STATIC_GetStringFromGuid()</text>
<text text-anchor="start" x="474" y="-1817.5" font-family="Helvetica,sans-Serif" font-size="10.00">and 298 more...</text>
<text text-anchor="start" x="474" y="-1806.5" font-family="Helvetica,sans-Serif" font-size="10.00">+ GetGlobalObjects()</text>
<text text-anchor="start" x="474" y="-1795.5" font-family="Helvetica,sans-Serif" font-size="10.00">+ FindObject()</text>
<text text-anchor="start" x="474" y="-1784.5" font-family="Helvetica,sans-Serif" font-size="10.00">+ FindClass()</text>
<text text-anchor="start" x="474" y="-1773.5" font-family="Helvetica,sans-Serif" font-size="10.00">+ GetObjectCasted()</text>
<text text-anchor="start" x="474" y="-1762.5" font-family="Helvetica,sans-Serif" font-size="10.00">+ StaticClass()</text>
</a>
</g>
</g>
<!-- Node6&#45;&gt;Node5 -->
<g id="edge5" class="edge">
<title>Node6&#45;&gt;Node5</title>
<path fill="none" stroke="midnightblue" d="M673.39,-1831.45C746.61,-1792.99 830,-1729.81 830,-1641.5 830,-1641.5 830,-1641.5 830,-986 830,-936.5 804.19,-888.67 775.67,-850.92"/>
<polygon fill="none" stroke="midnightblue" points="671.35,-1828.56 664.05,-1836.25 674.55,-1834.79 671.35,-1828.56"/>
</g>
<!-- Node6&#45;&gt;Node6 -->
<g id="edge11" class="edge">
<title>Node6&#45;&gt;Node6</title>
<path fill="none" stroke="#404040" d="M664.01,-1900.53C674.94,-1896.15 682,-1888.48 682,-1877.5 682,-1870.64 679.24,-1865.07 674.51,-1860.78"/>
<polygon fill="none" stroke="#404040" points="674.3,-1860.66 667.09,-1860.99 664.01,-1854.47 671.22,-1854.14 674.3,-1860.66"/>
<text text-anchor="middle" x="721.5" y="-1886" font-family="Helvetica,sans-Serif" font-size="10.00"> +Outer</text>
<text text-anchor="middle" x="721.5" y="-1875" font-family="Helvetica,sans-Serif" font-size="10.00">+Linker</text>
<text text-anchor="middle" x="721.5" y="-1864" font-family="Helvetica,sans-Serif" font-size="10.00">+ObjectArchetype</text>
</g>
<!-- Node12 -->
<g id="node12" class="node">
<title>Node12</title>
<g id="a_node12"><a xlink:href="../../d3/d79/classSDK_1_1TArray.html" target="_top" xlink:title=" ">
<polygon fill="white" stroke="black" points="363.5,-1573.5 363.5,-1707.5 524.5,-1707.5 524.5,-1573.5 363.5,-1573.5"/>
<text text-anchor="middle" x="444" y="-1695.5" font-family="Helvetica,sans-Serif" font-size="10.00">SDK::TArray&lt; SDK::UObject * &gt;</text>
<polyline fill="none" stroke="black" points="363.5,-1688.5 524.5,-1688.5 "/>
<text text-anchor="start" x="371.5" y="-1676.5" font-family="Helvetica,sans-Serif" font-size="10.00">&#45; Count</text>
<text text-anchor="start" x="371.5" y="-1665.5" font-family="Helvetica,sans-Serif" font-size="10.00">&#45; Max</text>
<polyline fill="none" stroke="black" points="363.5,-1658.5 524.5,-1658.5 "/>
<text text-anchor="start" x="371.5" y="-1646.5" font-family="Helvetica,sans-Serif" font-size="10.00">+ TArray()</text>
<text text-anchor="start" x="371.5" y="-1635.5" font-family="Helvetica,sans-Serif" font-size="10.00">+ Num()</text>
<text text-anchor="start" x="371.5" y="-1624.5" font-family="Helvetica,sans-Serif" font-size="10.00">+ operator[]()</text>
<text text-anchor="start" x="371.5" y="-1613.5" font-family="Helvetica,sans-Serif" font-size="10.00">+ operator[]()</text>
<text text-anchor="start" x="371.5" y="-1602.5" font-family="Helvetica,sans-Serif" font-size="10.00">+ IsValidIndex()</text>
<text text-anchor="start" x="371.5" y="-1591.5" font-family="Helvetica,sans-Serif" font-size="10.00">+ GetByIndex()</text>
<text text-anchor="start" x="371.5" y="-1580.5" font-family="Helvetica,sans-Serif" font-size="10.00">+ GetByIndex()</text>
</a>
</g>
</g>
<!-- Node6&#45;&gt;Node12 -->
<g id="edge13" class="edge">
<title>Node6&#45;&gt;Node12</title>
<path fill="none" stroke="#404040" d="M467.79,-1755.34C464.58,-1749.28 461.62,-1743.16 459,-1737 456.61,-1731.4 454.6,-1725.47 452.91,-1719.42"/>
<polygon fill="none" stroke="#404040" points="452.89,-1719.34 447.57,-1714.46 450.03,-1707.68 455.34,-1712.56 452.89,-1719.34"/>
<text text-anchor="middle" x="473" y="-1729" font-family="Helvetica,sans-Serif" font-size="10.00"> &#45;Data</text>
</g>
<!-- Node14 -->
<g id="node14" class="node">
<title>Node14</title>
<g id="a_node14"><a xlink:href="../../d7/d85/classSDK_1_1UClass.html" target="_top" xlink:title=" ">
<polygon fill="white" stroke="black" points="495.5,-1212.5 495.5,-1302.5 616.5,-1302.5 616.5,-1212.5 495.5,-1212.5"/>
<text text-anchor="middle" x="556" y="-1290.5" font-family="Helvetica,sans-Serif" font-size="10.00">SDK::UClass</text>
<polyline fill="none" stroke="black" points="495.5,-1283.5 616.5,-1283.5 "/>
<text text-anchor="start" x="503.5" y="-1271.5" font-family="Helvetica,sans-Serif" font-size="10.00">+ UnknownData00</text>
<text text-anchor="start" x="503.5" y="-1260.5" font-family="Helvetica,sans-Serif" font-size="10.00">+ UnknownData01</text>
<polyline fill="none" stroke="black" points="495.5,-1253.5 616.5,-1253.5 "/>
<text text-anchor="start" x="503.5" y="-1241.5" font-family="Helvetica,sans-Serif" font-size="10.00">+ CreateDefaultObject()</text>
<text text-anchor="start" x="503.5" y="-1230.5" font-family="Helvetica,sans-Serif" font-size="10.00">+ CreateDefaultObject()</text>
<text text-anchor="start" x="503.5" y="-1219.5" font-family="Helvetica,sans-Serif" font-size="10.00">+ StaticClass()</text>
</a>
</g>
</g>
<!-- Node6&#45;&gt;Node14 -->
<g id="edge23" class="edge">
<title>Node6&#45;&gt;Node14</title>
<path fill="none" stroke="#404040" d="M583.55,-1755.42C587.75,-1718.9 591,-1678.65 591,-1641.5 591,-1641.5 591,-1641.5 591,-1368 591,-1349.92 586.62,-1330.92 580.95,-1313.92"/>
<polygon fill="none" stroke="#404040" points="580.91,-1313.81 575.12,-1309.51 576.87,-1302.51 582.65,-1306.81 580.91,-1313.81"/>
<text text-anchor="middle" x="638.5" y="-1472.5" font-family="Helvetica,sans-Serif" font-size="10.00"> +ClassDefaultObject</text>
</g>
<!-- Node17 -->
<g id="node17" class="node">
<title>Node17</title>
<g id="a_node17"><a xlink:href="../../de/dd6/classSDK_1_1UField.html" target="_top" xlink:title=" ">
<polygon fill="white" stroke="black" points="669.5,-1612 669.5,-1669 752.5,-1669 752.5,-1612 669.5,-1612"/>
<text text-anchor="middle" x="711" y="-1657" font-family="Helvetica,sans-Serif" font-size="10.00">SDK::UField</text>
<polyline fill="none" stroke="black" points="669.5,-1650 752.5,-1650 "/>
<text text-anchor="middle" x="711" y="-1638" font-family="Helvetica,sans-Serif" font-size="10.00"> </text>
<polyline fill="none" stroke="black" points="669.5,-1631 752.5,-1631 "/>
<text text-anchor="start" x="677.5" y="-1619" font-family="Helvetica,sans-Serif" font-size="10.00">+ StaticClass()</text>
</a>
</g>
</g>
<!-- Node6&#45;&gt;Node17 -->
<g id="edge20" class="edge">
<title>Node6&#45;&gt;Node17</title>
<path fill="none" stroke="midnightblue" d="M645.75,-1746.52C663.95,-1717.24 681.49,-1689 693.8,-1669.19"/>
<polygon fill="none" stroke="midnightblue" points="642.66,-1744.87 640.35,-1755.21 648.6,-1748.57 642.66,-1744.87"/>
</g>
<!-- Node22 -->
<g id="node22" class="node">
<title>Node22</title>
<g id="a_node22"><a xlink:href="../../dc/dd6/structSDK_1_1FScriptDelegate.html" target="_top" xlink:title=" ">
<polygon fill="white" stroke="black" points="79,-1612 79,-1669 193,-1669 193,-1612 79,-1612"/>
<text text-anchor="middle" x="136" y="-1657" font-family="Helvetica,sans-Serif" font-size="10.00">SDK::FScriptDelegate</text>
<polyline fill="none" stroke="black" points="79,-1650 193,-1650 "/>
<text text-anchor="middle" x="136" y="-1638" font-family="Helvetica,sans-Serif" font-size="10.00"> </text>
<polyline fill="none" stroke="black" points="79,-1631 193,-1631 "/>
<text text-anchor="middle" x="136" y="-1619" font-family="Helvetica,sans-Serif" font-size="10.00"> </text>
</a>
</g>
</g>
<!-- Node6&#45;&gt;Node22 -->
<g id="edge34" class="edge">
<title>Node6&#45;&gt;Node22</title>
<path fill="none" stroke="#404040" d="M465.77,-1822.14C382.84,-1776.72 267.22,-1713.38 197.21,-1675.03"/>
<polygon fill="none" stroke="#404040" points="196.9,-1674.86 189.72,-1675.49 186.38,-1669.1 193.56,-1668.47 196.9,-1674.86"/>
<text text-anchor="middle" x="319" y="-1729" font-family="Helvetica,sans-Serif" font-size="10.00"> +Object</text>
</g>
<!-- Node7 -->
<g id="node7" class="node">
<title>Node7</title>
<g id="a_node7"><a xlink:href="../../d0/d22/structSDK_1_1FQWord.html" target="_top" xlink:title=" ">
<polygon fill="white" stroke="black" points="524,-2166 524,-2234 604,-2234 604,-2166 524,-2166"/>
<text text-anchor="middle" x="564" y="-2222" font-family="Helvetica,sans-Serif" font-size="10.00">SDK::FQWord</text>
<polyline fill="none" stroke="black" points="524,-2215 604,-2215 "/>
<text text-anchor="start" x="532" y="-2203" font-family="Helvetica,sans-Serif" font-size="10.00">+ A</text>
<text text-anchor="start" x="532" y="-2192" font-family="Helvetica,sans-Serif" font-size="10.00">+ B</text>
<polyline fill="none" stroke="black" points="524,-2185 604,-2185 "/>
<text text-anchor="middle" x="564" y="-2173" font-family="Helvetica,sans-Serif" font-size="10.00"> </text>
</a>
</g>
</g>
<!-- Node7&#45;&gt;Node6 -->
<g id="edge6" class="edge">
<title>Node7&#45;&gt;Node6</title>
<path fill="none" stroke="#404040" d="M564.1,-2165.91C564.22,-2129.48 564.41,-2068.57 564.58,-2012.19"/>
<polygon fill="none" stroke="#404040" points="564.58,-2011.86 560.6,-2005.85 564.62,-1999.86 568.6,-2005.87 564.58,-2011.86"/>
<text text-anchor="middle" x="596" y="-2066.5" font-family="Helvetica,sans-Serif" font-size="10.00"> +ObjectFlags</text>
</g>
<!-- Node8 -->
<g id="node8" class="node">
<title>Node8</title>
<g id="a_node8"><a xlink:href="../../d0/db6/structSDK_1_1FName.html" target="_top" xlink:title=" ">
<polygon fill="white" stroke="black" points="256.5,-2138.5 256.5,-2261.5 363.5,-2261.5 363.5,-2138.5 256.5,-2138.5"/>
<text text-anchor="middle" x="310" y="-2249.5" font-family="Helvetica,sans-Serif" font-size="10.00">SDK::FName</text>
<polyline fill="none" stroke="black" points="256.5,-2242.5 363.5,-2242.5 "/>
<text text-anchor="start" x="264.5" y="-2230.5" font-family="Helvetica,sans-Serif" font-size="10.00">+ Index</text>
<text text-anchor="start" x="264.5" y="-2219.5" font-family="Helvetica,sans-Serif" font-size="10.00">+ Number</text>
<polyline fill="none" stroke="black" points="256.5,-2212.5 363.5,-2212.5 "/>
<text text-anchor="start" x="264.5" y="-2200.5" font-family="Helvetica,sans-Serif" font-size="10.00">+ FName()</text>
<text text-anchor="start" x="264.5" y="-2189.5" font-family="Helvetica,sans-Serif" font-size="10.00">+ FName()</text>
<text text-anchor="start" x="264.5" y="-2178.5" font-family="Helvetica,sans-Serif" font-size="10.00">+ FName()</text>
<text text-anchor="start" x="264.5" y="-2167.5" font-family="Helvetica,sans-Serif" font-size="10.00">+ GetName()</text>
<text text-anchor="start" x="264.5" y="-2156.5" font-family="Helvetica,sans-Serif" font-size="10.00">+ operator==()</text>
<text text-anchor="start" x="264.5" y="-2145.5" font-family="Helvetica,sans-Serif" font-size="10.00">+ GetGlobalNames()</text>
</a>
</g>
</g>
<!-- Node8&#45;&gt;Node6 -->
<g id="edge7" class="edge">
<title>Node8&#45;&gt;Node6</title>
<path fill="none" stroke="#404040" d="M358.26,-2138.34C387.31,-2101.83 425.45,-2053.89 461.06,-2009.14"/>
<polygon fill="none" stroke="#404040" points="461.14,-2009.04 461.75,-2001.85 468.61,-1999.65 468.01,-2006.83 461.14,-2009.04"/>
<text text-anchor="middle" x="471" y="-2066.5" font-family="Helvetica,sans-Serif" font-size="10.00"> +Name</text>
</g>
<!-- Node19 -->
<g id="node19" class="node">
<title>Node19</title>
<g id="a_node19"><a xlink:href="../../d0/d8a/structSDK_1_1FGFxWidgetBinding.html" target="_top" xlink:title=" ">
<polygon fill="white" stroke="black" points="349.5,-1107.5 349.5,-1164.5 480.5,-1164.5 480.5,-1107.5 349.5,-1107.5"/>
<text text-anchor="middle" x="415" y="-1152.5" font-family="Helvetica,sans-Serif" font-size="10.00">SDK::FGFxWidgetBinding</text>
<polyline fill="none" stroke="black" points="349.5,-1145.5 480.5,-1145.5 "/>
<text text-anchor="middle" x="415" y="-1133.5" font-family="Helvetica,sans-Serif" font-size="10.00"> </text>
<polyline fill="none" stroke="black" points="349.5,-1126.5 480.5,-1126.5 "/>
<text text-anchor="middle" x="415" y="-1114.5" font-family="Helvetica,sans-Serif" font-size="10.00"> </text>
</a>
</g>
</g>
<!-- Node8&#45;&gt;Node19 -->
<g id="edge26" class="edge">
<title>Node8&#45;&gt;Node19</title>
<path fill="none" stroke="#404040" d="M314.33,-2138.46C326.3,-1970.51 359,-1508.89 359,-1476 359,-1476 359,-1476 359,-1256.5 359,-1227.23 372.95,-1197.41 386.92,-1174.88"/>
<polygon fill="none" stroke="#404040" points="386.97,-1174.81 386.88,-1167.6 393.51,-1164.75 393.59,-1171.97 386.97,-1174.81"/>
<text text-anchor="middle" x="392.5" y="-1472.5" font-family="Helvetica,sans-Serif" font-size="10.00"> +WidgetName</text>
</g>
<!-- Node8&#45;&gt;Node22 -->
<g id="edge33" class="edge">
<title>Node8&#45;&gt;Node22</title>
<path fill="none" stroke="#404040" d="M288.92,-2138.21C275.45,-2098.9 257.78,-2046.56 243,-2000 206.35,-1884.55 166.32,-1747.07 147.28,-1680.91"/>
<polygon fill="none" stroke="#404040" points="147.18,-1680.57 141.68,-1675.91 143.86,-1669.03 149.37,-1673.7 147.18,-1680.57"/>
<text text-anchor="middle" x="279.5" y="-1875" font-family="Helvetica,sans-Serif" font-size="10.00"> +FunctionName</text>
</g>
<!-- Node9 -->
<g id="node9" class="node">
<title>Node9</title>
<g id="a_node9"><a xlink:href="../../d3/d79/classSDK_1_1TArray.html" target="_top" xlink:title=" ">
<polygon fill="white" stroke="black" points="206,-2315 206,-2449 386,-2449 386,-2315 206,-2315"/>
<text text-anchor="middle" x="296" y="-2437" font-family="Helvetica,sans-Serif" font-size="10.00">SDK::TArray&lt; SDK::FNameEntry * &gt;</text>
<polyline fill="none" stroke="black" points="206,-2430 386,-2430 "/>
<text text-anchor="start" x="214" y="-2418" font-family="Helvetica,sans-Serif" font-size="10.00">&#45; Count</text>
<text text-anchor="start" x="214" y="-2407" font-family="Helvetica,sans-Serif" font-size="10.00">&#45; Max</text>
<polyline fill="none" stroke="black" points="206,-2400 386,-2400 "/>
<text text-anchor="start" x="214" y="-2388" font-family="Helvetica,sans-Serif" font-size="10.00">+ TArray()</text>
<text text-anchor="start" x="214" y="-2377" font-family="Helvetica,sans-Serif" font-size="10.00">+ Num()</text>
<text text-anchor="start" x="214" y="-2366" font-family="Helvetica,sans-Serif" font-size="10.00">+ operator[]()</text>
<text text-anchor="start" x="214" y="-2355" font-family="Helvetica,sans-Serif" font-size="10.00">+ operator[]()</text>
<text text-anchor="start" x="214" y="-2344" font-family="Helvetica,sans-Serif" font-size="10.00">+ IsValidIndex()</text>
<text text-anchor="start" x="214" y="-2333" font-family="Helvetica,sans-Serif" font-size="10.00">+ GetByIndex()</text>
<text text-anchor="start" x="214" y="-2322" font-family="Helvetica,sans-Serif" font-size="10.00">+ GetByIndex()</text>
</a>
</g>
</g>
<!-- Node9&#45;&gt;Node8 -->
<g id="edge8" class="edge">
<title>Node9&#45;&gt;Node8</title>
<path fill="none" stroke="#404040" d="M301.13,-2315C302.17,-2301.63 303.27,-2287.5 304.33,-2273.91"/>
<polygon fill="none" stroke="#404040" points="304.35,-2273.59 300.83,-2267.29 305.28,-2261.62 308.81,-2267.91 304.35,-2273.59"/>
<text text-anchor="middle" x="328.5" y="-2283" font-family="Helvetica,sans-Serif" font-size="10.00"> +GNames</text>
</g>
<!-- Node10 -->
<g id="node10" class="node">
<title>Node10</title>
<g id="a_node10"><a xlink:href="../../d7/ddf/classSDK_1_1FNameEntry.html" target="_top" xlink:title=" ">
<polygon fill="white" stroke="black" points="85.5,-2541 85.5,-2609 184.5,-2609 184.5,-2541 85.5,-2541"/>
<text text-anchor="middle" x="135" y="-2597" font-family="Helvetica,sans-Serif" font-size="10.00">SDK::FNameEntry</text>
<polyline fill="none" stroke="black" points="85.5,-2590 184.5,-2590 "/>
<text text-anchor="start" x="93.5" y="-2578" font-family="Helvetica,sans-Serif" font-size="10.00">+ UnknownData00</text>
<text text-anchor="start" x="93.5" y="-2567" font-family="Helvetica,sans-Serif" font-size="10.00">+ name</text>
<polyline fill="none" stroke="black" points="85.5,-2560 184.5,-2560 "/>
<text text-anchor="start" x="93.5" y="-2548" font-family="Helvetica,sans-Serif" font-size="10.00">+ GetName()</text>
</a>
</g>
</g>
<!-- Node10&#45;&gt;Node9 -->
<g id="edge9" class="edge">
<title>Node10&#45;&gt;Node9</title>
<path fill="none" stroke="#404040" d="M163.04,-2540.73C182.23,-2517.97 208.46,-2486.86 232.55,-2458.28"/>
<polygon fill="none" stroke="#404040" points="232.55,-2458.27 233.36,-2451.11 240.28,-2449.1 239.47,-2456.26 232.55,-2458.27"/>
<text text-anchor="middle" x="230" y="-2476" font-family="Helvetica,sans-Serif" font-size="10.00"> &#45;Data</text>
</g>
<!-- Node11 -->
<g id="node11" class="node">
<title>Node11</title>
<g id="a_node11"><a xlink:href="../../d3/d79/classSDK_1_1TArray.html" target="_top" xlink:title=" ">
<polygon fill="white" stroke="black" points="302.5,-2502.5 302.5,-2647.5 399.5,-2647.5 399.5,-2502.5 302.5,-2502.5"/>
<text text-anchor="middle" x="351" y="-2635.5" font-family="Helvetica,sans-Serif" font-size="10.00">SDK::TArray&lt; T &gt;</text>
<polyline fill="none" stroke="black" points="302.5,-2628.5 399.5,-2628.5 "/>
<text text-anchor="start" x="310.5" y="-2616.5" font-family="Helvetica,sans-Serif" font-size="10.00">&#45; Data</text>
<text text-anchor="start" x="310.5" y="-2605.5" font-family="Helvetica,sans-Serif" font-size="10.00">&#45; Count</text>
<text text-anchor="start" x="310.5" y="-2594.5" font-family="Helvetica,sans-Serif" font-size="10.00">&#45; Max</text>
<polyline fill="none" stroke="black" points="302.5,-2587.5 399.5,-2587.5 "/>
<text text-anchor="start" x="310.5" y="-2575.5" font-family="Helvetica,sans-Serif" font-size="10.00">+ TArray()</text>
<text text-anchor="start" x="310.5" y="-2564.5" font-family="Helvetica,sans-Serif" font-size="10.00">+ Num()</text>
<text text-anchor="start" x="310.5" y="-2553.5" font-family="Helvetica,sans-Serif" font-size="10.00">+ operator[]()</text>
<text text-anchor="start" x="310.5" y="-2542.5" font-family="Helvetica,sans-Serif" font-size="10.00">+ operator[]()</text>
<text text-anchor="start" x="310.5" y="-2531.5" font-family="Helvetica,sans-Serif" font-size="10.00">+ IsValidIndex()</text>
<text text-anchor="start" x="310.5" y="-2520.5" font-family="Helvetica,sans-Serif" font-size="10.00">+ GetByIndex()</text>
<text text-anchor="start" x="310.5" y="-2509.5" font-family="Helvetica,sans-Serif" font-size="10.00">+ GetByIndex()</text>
</a>
</g>
</g>
<!-- Node11&#45;&gt;Node9 -->
<g id="edge10" class="edge">
<title>Node11&#45;&gt;Node9</title>
<path fill="none" stroke="orange" d="M297.48,-2504.6C294.09,-2497.89 291.17,-2490.98 289,-2484 285.55,-2472.92 284.35,-2460.84 284.46,-2449.02"/>
<polygon fill="orange" stroke="orange" points="294.53,-2506.5 302.38,-2513.61 300.68,-2503.16 294.53,-2506.5"/>
<text text-anchor="middle" x="344.5" y="-2476" font-family="Helvetica,sans-Serif" font-size="10.00"> &lt; SDK::FNameEntry * &gt;</text>
</g>
<!-- Node11&#45;&gt;Node12 -->
<g id="edge14" class="edge">
<title>Node11&#45;&gt;Node12</title>
<path fill="none" stroke="orange" d="M397.4,-2492.9C398.37,-2489.94 399.25,-2486.96 400,-2484 425.55,-2383.65 405.69,-2121.4 400,-2018 393.1,-1892.54 375.9,-1862.46 369,-1737 368.73,-1732.12 367.26,-1730.57 369,-1726 371.4,-1719.67 374.52,-1713.52 378.12,-1707.6"/>
<polygon fill="orange" stroke="orange" points="394.09,-2491.74 393.97,-2502.33 400.67,-2494.13 394.09,-2491.74"/>
<text text-anchor="middle" x="457.5" y="-2197.5" font-family="Helvetica,sans-Serif" font-size="10.00"> &lt; SDK::UObject * &gt;</text>
</g>
<!-- Node18 -->
<g id="node18" class="node">
<title>Node18</title>
<g id="a_node18"><a xlink:href="../../d3/d79/classSDK_1_1TArray.html" target="_top" xlink:title=" ">
<polygon fill="white" stroke="black" points="343.5,-914.5 343.5,-1059.5 486.5,-1059.5 486.5,-914.5 343.5,-914.5"/>
<text text-anchor="start" x="351.5" y="-1047.5" font-family="Helvetica,sans-Serif" font-size="10.00">SDK::TArray&lt; struct</text>
<text text-anchor="middle" x="415" y="-1036.5" font-family="Helvetica,sans-Serif" font-size="10.00"> SDK::FGFxWidgetBinding &gt;</text>
<polyline fill="none" stroke="black" points="343.5,-1029.5 486.5,-1029.5 "/>
<text text-anchor="start" x="351.5" y="-1017.5" font-family="Helvetica,sans-Serif" font-size="10.00">&#45; Count</text>
<text text-anchor="start" x="351.5" y="-1006.5" font-family="Helvetica,sans-Serif" font-size="10.00">&#45; Max</text>
<polyline fill="none" stroke="black" points="343.5,-999.5 486.5,-999.5 "/>
<text text-anchor="start" x="351.5" y="-987.5" font-family="Helvetica,sans-Serif" font-size="10.00">+ TArray()</text>
<text text-anchor="start" x="351.5" y="-976.5" font-family="Helvetica,sans-Serif" font-size="10.00">+ Num()</text>
<text text-anchor="start" x="351.5" y="-965.5" font-family="Helvetica,sans-Serif" font-size="10.00">+ operator[]()</text>
<text text-anchor="start" x="351.5" y="-954.5" font-family="Helvetica,sans-Serif" font-size="10.00">+ operator[]()</text>
<text text-anchor="start" x="351.5" y="-943.5" font-family="Helvetica,sans-Serif" font-size="10.00">+ IsValidIndex()</text>
<text text-anchor="start" x="351.5" y="-932.5" font-family="Helvetica,sans-Serif" font-size="10.00">+ GetByIndex()</text>
<text text-anchor="start" x="351.5" y="-921.5" font-family="Helvetica,sans-Serif" font-size="10.00">+ GetByIndex()</text>
</a>
</g>
</g>
<!-- Node11&#45;&gt;Node18 -->
<g id="edge28" class="edge">
<title>Node11&#45;&gt;Node18</title>
<path fill="none" stroke="orange" d="M293.71,-2542.67C260.82,-2521.89 221.34,-2491.71 197,-2455 178.71,-2427.42 178,-2416.1 178,-2383 178,-2383 178,-2383 178,-2068 178,-1928.75 171.55,-1892.74 192,-1755 199.65,-1703.5 221,-1693.57 221,-1641.5 221,-1641.5 221,-1641.5 221,-1135 221,-1071.4 288.05,-1031.78 343.31,-1009.92"/>
<polygon fill="orange" stroke="orange" points="292.01,-2545.73 302.35,-2548.01 295.69,-2539.78 292.01,-2545.73"/>
<text text-anchor="start" x="221" y="-1547" font-family="Helvetica,sans-Serif" font-size="10.00"> &lt; struct SDK::FGFxWidget</text>
<text text-anchor="middle" x="282.5" y="-1536" font-family="Helvetica,sans-Serif" font-size="10.00">Binding &gt;</text>
</g>
<!-- Node21 -->
<g id="node21" class="node">
<title>Node21</title>
<g id="a_node21"><a xlink:href="../../d3/d79/classSDK_1_1TArray.html" target="_top" xlink:title=" ">
<polygon fill="white" stroke="black" points="630.5,-2309.5 630.5,-2454.5 755.5,-2454.5 755.5,-2309.5 630.5,-2309.5"/>
<text text-anchor="middle" x="693" y="-2442.5" font-family="Helvetica,sans-Serif" font-size="10.00">SDK::TArray&lt; wchar_t &gt;</text>
<polyline fill="none" stroke="black" points="630.5,-2435.5 755.5,-2435.5 "/>
<text text-anchor="start" x="638.5" y="-2423.5" font-family="Helvetica,sans-Serif" font-size="10.00">&#45; Data</text>
<text text-anchor="start" x="638.5" y="-2412.5" font-family="Helvetica,sans-Serif" font-size="10.00">&#45; Count</text>
<text text-anchor="start" x="638.5" y="-2401.5" font-family="Helvetica,sans-Serif" font-size="10.00">&#45; Max</text>
<polyline fill="none" stroke="black" points="630.5,-2394.5 755.5,-2394.5 "/>
<text text-anchor="start" x="638.5" y="-2382.5" font-family="Helvetica,sans-Serif" font-size="10.00">+ TArray()</text>
<text text-anchor="start" x="638.5" y="-2371.5" font-family="Helvetica,sans-Serif" font-size="10.00">+ Num()</text>
<text text-anchor="start" x="638.5" y="-2360.5" font-family="Helvetica,sans-Serif" font-size="10.00">+ operator[]()</text>
<text text-anchor="start" x="638.5" y="-2349.5" font-family="Helvetica,sans-Serif" font-size="10.00">+ operator[]()</text>
<text text-anchor="start" x="638.5" y="-2338.5" font-family="Helvetica,sans-Serif" font-size="10.00">+ IsValidIndex()</text>
<text text-anchor="start" x="638.5" y="-2327.5" font-family="Helvetica,sans-Serif" font-size="10.00">+ GetByIndex()</text>
<text text-anchor="start" x="638.5" y="-2316.5" font-family="Helvetica,sans-Serif" font-size="10.00">+ GetByIndex()</text>
</a>
</g>
</g>
<!-- Node11&#45;&gt;Node21 -->
<g id="edge31" class="edge">
<title>Node11&#45;&gt;Node21</title>
<path fill="none" stroke="orange" d="M408.43,-2541.93C469.85,-2507.63 566.94,-2453.4 630.31,-2418.01"/>
<polygon fill="orange" stroke="orange" points="406.66,-2538.91 399.64,-2546.84 410.07,-2545.02 406.66,-2538.91"/>
<text text-anchor="middle" x="550" y="-2476" font-family="Helvetica,sans-Serif" font-size="10.00"> &lt; wchar_t &gt;</text>
</g>
<!-- Node12&#45;&gt;Node6 -->
<g id="edge12" class="edge">
<title>Node12&#45;&gt;Node6</title>
<path fill="none" stroke="#404040" d="M478.05,-1707.63C484.05,-1719.28 490.48,-1731.77 497.03,-1744.49"/>
<polygon fill="none" stroke="#404040" points="497.06,-1744.55 503.36,-1748.05 502.55,-1755.21 496.25,-1751.71 497.06,-1744.55"/>
<text text-anchor="middle" x="516.5" y="-1729" font-family="Helvetica,sans-Serif" font-size="10.00"> +GObjects</text>
</g>
<!-- Node13 -->
<g id="node13" class="node">
<title>Node13</title>
<g id="a_node13"><a xlink:href="../../d9/dfa/structSDK_1_1FPointer.html" target="_top" xlink:title=" ">
<polygon fill="white" stroke="black" points="622,-2166 622,-2234 720,-2234 720,-2166 622,-2166"/>
<text text-anchor="middle" x="671" y="-2222" font-family="Helvetica,sans-Serif" font-size="10.00">SDK::FPointer</text>
<polyline fill="none" stroke="black" points="622,-2215 720,-2215 "/>
<text text-anchor="start" x="630" y="-2203" font-family="Helvetica,sans-Serif" font-size="10.00">+ Dummy</text>
<text text-anchor="start" x="630" y="-2192" font-family="Helvetica,sans-Serif" font-size="10.00">+ UnknownData00</text>
<polyline fill="none" stroke="black" points="622,-2185 720,-2185 "/>
<text text-anchor="middle" x="671" y="-2173" font-family="Helvetica,sans-Serif" font-size="10.00"> </text>
</a>
</g>
</g>
<!-- Node13&#45;&gt;Node6 -->
<g id="edge15" class="edge">
<title>Node13&#45;&gt;Node6</title>
<path fill="none" stroke="#404040" d="M665.95,-2165.69C659.84,-2128.91 648.19,-2068.24 631,-2018 630.19,-2015.62 629.34,-2013.23 628.48,-2010.84"/>
<polygon fill="none" stroke="#404040" points="628.46,-2010.79 622.61,-2006.59 624.24,-1999.56 630.09,-2003.77 628.46,-2010.79"/>
<text text-anchor="middle" x="691.5" y="-2077.5" font-family="Helvetica,sans-Serif" font-size="10.00"> +StateFrame</text>
<text text-anchor="middle" x="691.5" y="-2066.5" font-family="Helvetica,sans-Serif" font-size="10.00">+VfTableObject</text>
<text text-anchor="middle" x="691.5" y="-2055.5" font-family="Helvetica,sans-Serif" font-size="10.00">+LinkerIndex</text>
</g>
<!-- Node14&#45;&gt;Node6 -->
<g id="edge16" class="edge">
<title>Node14&#45;&gt;Node6</title>
<path fill="none" stroke="#404040" d="M548.96,-1302.6C543.65,-1338.22 536.81,-1389.69 534,-1435 531.8,-1470.49 532.48,-1479.48 534,-1515 537.24,-1590.69 544.28,-1675.06 550.83,-1743.24"/>
<polygon fill="none" stroke="#404040" points="550.85,-1743.4 555.41,-1748.98 552,-1755.34 547.44,-1749.76 550.85,-1743.4"/>
<text text-anchor="middle" x="551.5" y="-1472.5" font-family="Helvetica,sans-Serif" font-size="10.00"> +Class</text>
</g>
<!-- Node14&#45;&gt;Node19 -->
<g id="edge27" class="edge">
<title>Node14&#45;&gt;Node19</title>
<path fill="none" stroke="#404040" d="M503.9,-1212.34C488.45,-1199.25 471.74,-1185.09 457.02,-1172.61"/>
<polygon fill="none" stroke="#404040" points="456.82,-1172.45 449.66,-1171.62 447.67,-1164.69 454.83,-1165.52 456.82,-1172.45"/>
<text text-anchor="middle" x="515" y="-1186" font-family="Helvetica,sans-Serif" font-size="10.00"> +WidgetClass</text>
</g>
<!-- Node15 -->
<g id="node15" class="node">
<title>Node15</title>
<g id="a_node15"><a xlink:href="../../df/d72/classSDK_1_1UState.html" target="_top" xlink:title=" ">
<polygon fill="white" stroke="black" points="653,-1340.5 653,-1397.5 751,-1397.5 751,-1340.5 653,-1340.5"/>
<text text-anchor="middle" x="702" y="-1385.5" font-family="Helvetica,sans-Serif" font-size="10.00">SDK::UState</text>
<polyline fill="none" stroke="black" points="653,-1378.5 751,-1378.5 "/>
<text text-anchor="start" x="661" y="-1366.5" font-family="Helvetica,sans-Serif" font-size="10.00">+ UnknownData00</text>
<polyline fill="none" stroke="black" points="653,-1359.5 751,-1359.5 "/>
<text text-anchor="start" x="661" y="-1347.5" font-family="Helvetica,sans-Serif" font-size="10.00">+ StaticClass()</text>
</a>
</g>
</g>
<!-- Node15&#45;&gt;Node14 -->
<g id="edge17" class="edge">
<title>Node15&#45;&gt;Node14</title>
<path fill="none" stroke="midnightblue" d="M657.04,-1334.28C643.67,-1324.25 628.82,-1313.11 614.71,-1302.53"/>
<polygon fill="none" stroke="midnightblue" points="655.06,-1337.17 665.16,-1340.37 659.26,-1331.57 655.06,-1337.17"/>
</g>
<!-- Node16 -->
<g id="node16" class="node">
<title>Node16</title>
<g id="a_node16"><a xlink:href="../../d8/de9/classSDK_1_1UStruct.html" target="_top" xlink:title=" ">
<polygon fill="white" stroke="black" points="704,-1435.5 704,-1514.5 802,-1514.5 802,-1435.5 704,-1435.5"/>
<text text-anchor="middle" x="753" y="-1502.5" font-family="Helvetica,sans-Serif" font-size="10.00">SDK::UStruct</text>
<polyline fill="none" stroke="black" points="704,-1495.5 802,-1495.5 "/>
<text text-anchor="start" x="712" y="-1483.5" font-family="Helvetica,sans-Serif" font-size="10.00">+ UnknownData00</text>
<text text-anchor="start" x="712" y="-1472.5" font-family="Helvetica,sans-Serif" font-size="10.00">+ PropertySize</text>
<text text-anchor="start" x="712" y="-1461.5" font-family="Helvetica,sans-Serif" font-size="10.00">+ UnknownData01</text>
<polyline fill="none" stroke="black" points="704,-1454.5 802,-1454.5 "/>
<text text-anchor="start" x="712" y="-1442.5" font-family="Helvetica,sans-Serif" font-size="10.00">+ StaticClass()</text>
</a>
</g>
</g>
<!-- Node16&#45;&gt;Node15 -->
<g id="edge18" class="edge">
<title>Node16&#45;&gt;Node15</title>
<path fill="none" stroke="midnightblue" d="M729.49,-1426.06C724.73,-1416.35 719.87,-1406.44 715.59,-1397.72"/>
<polygon fill="none" stroke="midnightblue" points="726.46,-1427.84 734.01,-1435.27 732.75,-1424.75 726.46,-1427.84"/>
</g>
<!-- Node17&#45;&gt;Node16 -->
<g id="edge19" class="edge">
<title>Node17&#45;&gt;Node16</title>
<path fill="none" stroke="midnightblue" d="M715.18,-1602.01C718.02,-1581.38 722.46,-1555.49 729,-1533 730.77,-1526.92 733,-1520.61 735.38,-1514.51"/>
<polygon fill="none" stroke="midnightblue" points="711.71,-1601.6 713.88,-1611.97 718.65,-1602.51 711.71,-1601.6"/>
</g>
<!-- Node17&#45;&gt;Node16 -->
<g id="edge22" class="edge">
<title>Node17&#45;&gt;Node16</title>
<path fill="none" stroke="#404040" d="M718.12,-1611.76C724.12,-1588.41 732.86,-1554.4 740.09,-1526.27"/>
<polygon fill="none" stroke="#404040" points="740.09,-1526.24 737.71,-1519.43 743.08,-1514.62 745.46,-1521.42 740.09,-1526.24"/>
<text text-anchor="middle" x="766" y="-1547" font-family="Helvetica,sans-Serif" font-size="10.00"> +SuperField</text>
<text text-anchor="middle" x="766" y="-1536" font-family="Helvetica,sans-Serif" font-size="10.00">+Children</text>
</g>
<!-- Node17&#45;&gt;Node17 -->
<g id="edge21" class="edge">
<title>Node17&#45;&gt;Node17</title>
<path fill="none" stroke="#404040" d="M752.71,-1657.11C762.91,-1655.88 770.5,-1650.34 770.5,-1640.5 770.5,-1634.96 768.1,-1630.79 764.18,-1627.98"/>
<polygon fill="none" stroke="#404040" points="764.01,-1627.92 757.01,-1629.67 752.71,-1623.89 759.7,-1622.13 764.01,-1627.92"/>
<text text-anchor="middle" x="786" y="-1638" font-family="Helvetica,sans-Serif" font-size="10.00"> +Next</text>
</g>
<!-- Node18&#45;&gt;Node5 -->
<g id="edge24" class="edge">
<title>Node18&#45;&gt;Node5</title>
<path fill="none" stroke="#404040" d="M486.8,-932.53C526.25,-903.15 575.4,-866.54 616.66,-835.81"/>
<polygon fill="none" stroke="#404040" points="616.8,-835.71 619.22,-828.92 626.42,-828.54 624,-835.33 616.8,-835.71"/>
<text text-anchor="middle" x="597.5" y="-888" font-family="Helvetica,sans-Serif" font-size="10.00"> +SubWidgetBindings</text>
</g>
<!-- Node19&#45;&gt;Node18 -->
<g id="edge25" class="edge">
<title>Node19&#45;&gt;Node18</title>
<path fill="none" stroke="#404040" d="M415,-1107.35C415,-1097.01 415,-1084.66 415,-1071.89"/>
<polygon fill="none" stroke="#404040" points="415,-1071.56 411,-1065.56 415,-1059.56 419,-1065.56 415,-1071.56"/>
<text text-anchor="middle" x="429" y="-1081" font-family="Helvetica,sans-Serif" font-size="10.00"> &#45;Data</text>
</g>
<!-- Node20 -->
<g id="node20" class="node">
<title>Node20</title>
<g id="a_node20"><a xlink:href="../../d3/d88/classSDK_1_1FString.html" target="_top" xlink:title=" ">
<polygon fill="white" stroke="black" points="792.5,-2018.5 792.5,-2119.5 867.5,-2119.5 867.5,-2018.5 792.5,-2018.5"/>
<text text-anchor="middle" x="830" y="-2107.5" font-family="Helvetica,sans-Serif" font-size="10.00">SDK::FString</text>
<polyline fill="none" stroke="black" points="792.5,-2100.5 867.5,-2100.5 "/>
<text text-anchor="middle" x="830" y="-2088.5" font-family="Helvetica,sans-Serif" font-size="10.00"> </text>
<polyline fill="none" stroke="black" points="792.5,-2081.5 867.5,-2081.5 "/>
<text text-anchor="start" x="800.5" y="-2069.5" font-family="Helvetica,sans-Serif" font-size="10.00">+ FString()</text>
<text text-anchor="start" x="800.5" y="-2058.5" font-family="Helvetica,sans-Serif" font-size="10.00">+ FString()</text>
<text text-anchor="start" x="800.5" y="-2047.5" font-family="Helvetica,sans-Serif" font-size="10.00">+ IsValid()</text>
<text text-anchor="start" x="800.5" y="-2036.5" font-family="Helvetica,sans-Serif" font-size="10.00">+ c_str()</text>
<text text-anchor="start" x="800.5" y="-2025.5" font-family="Helvetica,sans-Serif" font-size="10.00">+ ToString()</text>
</a>
</g>
</g>
<!-- Node20&#45;&gt;Node5 -->
<g id="edge29" class="edge">
<title>Node20&#45;&gt;Node5</title>
<path fill="none" stroke="#404040" d="M841.14,-2018.27C854.75,-1953.03 876,-1834.8 876,-1732.5 876,-1732.5 876,-1732.5 876,-986 876,-923.22 830.06,-868.86 785.25,-830.76"/>
<polygon fill="none" stroke="#404040" points="784.97,-830.53 777.8,-829.79 775.72,-822.89 782.9,-823.63 784.97,-830.53"/>
<text text-anchor="middle" x="899" y="-1366.5" font-family="Helvetica,sans-Serif" font-size="10.00"> +PathInfo</text>
</g>
<!-- Node21&#45;&gt;Node20 -->
<g id="edge30" class="edge">
<title>Node21&#45;&gt;Node20</title>
<path fill="none" stroke="midnightblue" d="M728.73,-2299.89C753.9,-2242.74 786.8,-2168.07 808.16,-2119.58"/>
<polygon fill="none" stroke="midnightblue" points="725.43,-2298.7 724.6,-2309.26 731.84,-2301.52 725.43,-2298.7"/>
</g>
<!-- Node22&#45;&gt;Node4 -->
<g id="edge32" class="edge">
<title>Node22&#45;&gt;Node4</title>
<path fill="none" stroke="#404040" d="M119.13,-1611.98C101.38,-1580.36 76,-1526.34 76,-1476 76,-1476 76,-1476 76,-771 76,-731.83 78.25,-688.48 80.81,-651.93"/>
<polygon fill="none" stroke="#404040" points="80.82,-651.78 77.26,-645.51 81.68,-639.81 85.24,-646.08 80.82,-651.78"/>
<text text-anchor="middle" x="141" y="-1186" font-family="Helvetica,sans-Serif" font-size="10.00"> +__EventListener__Delegate</text>
</g>
</g>
</svg>
