<?xml version="1.0" encoding="UTF-8" standalone="no"?>
<!DOCTYPE svg PUBLIC "-//W3C//DTD SVG 1.1//EN"
 "http://www.w3.org/Graphics/SVG/1.1/DTD/svg11.dtd">
<!-- Generated by graphviz version 2.41.20171026.1811 (20171026.1811)
 -->
<!-- Title: SDK::UEFGFxWidgetHudCommonExp Pages: 1 -->
<svg width="936pt" height="2623pt"
 viewBox="0.00 0.00 936.00 2623.00" xmlns="http://www.w3.org/2000/svg" xmlns:xlink="http://www.w3.org/1999/xlink">
<g id="graph0" class="graph" transform="scale(1 1) rotate(0) translate(4 2619)">
<title>SDK::UEFGFxWidgetHudCommonExp</title>
<polygon fill="white" stroke="transparent" points="-4,4 -4,-2619 932,-2619 932,4 -4,4"/>
<!-- Node1 -->
<g id="node1" class="node">
<title>Node1</title>
<g id="a_node1"><a xlink:title=" ">
<polygon fill="#bfbfbf" stroke="black" points="0,-0.5 0,-79.5 188,-79.5 188,-0.5 0,-0.5"/>
<text text-anchor="middle" x="94" y="-67.5" font-family="Helvetica,sans-Serif" font-size="10.00">SDK::UEFGFxWidgetHudCommonExp</text>
<polyline fill="none" stroke="black" points="0,-60.5 188,-60.5 "/>
<text text-anchor="middle" x="94" y="-48.5" font-family="Helvetica,sans-Serif" font-size="10.00"> </text>
<polyline fill="none" stroke="black" points="0,-41.5 188,-41.5 "/>
<text text-anchor="start" x="8" y="-29.5" font-family="Helvetica,sans-Serif" font-size="10.00">+ HUD_CommonTabIndex()</text>
<text text-anchor="start" x="8" y="-18.5" font-family="Helvetica,sans-Serif" font-size="10.00">+ CommonTabIndex()</text>
<text text-anchor="start" x="8" y="-7.5" font-family="Helvetica,sans-Serif" font-size="10.00">+ StaticClass()</text>
</a>
</g>
</g>
<!-- Node2 -->
<g id="node2" class="node">
<title>Node2</title>
<g id="a_node2"><a xlink:href="../../d6/d66/classSDK_1_1UEFUIFrame.html" target="_top" xlink:title=" ">
<polygon fill="white" stroke="black" points="42,-117.5 42,-207.5 146,-207.5 146,-117.5 42,-117.5"/>
<text text-anchor="middle" x="94" y="-195.5" font-family="Helvetica,sans-Serif" font-size="10.00">SDK::UEFUIFrame</text>
<polyline fill="none" stroke="black" points="42,-188.5 146,-188.5 "/>
<text text-anchor="start" x="50" y="-176.5" font-family="Helvetica,sans-Serif" font-size="10.00">+ OnlyModal</text>
<polyline fill="none" stroke="black" points="42,-169.5 146,-169.5 "/>
<text text-anchor="start" x="50" y="-157.5" font-family="Helvetica,sans-Serif" font-size="10.00">+ WidgetInitialized()</text>
<text text-anchor="start" x="50" y="-146.5" font-family="Helvetica,sans-Serif" font-size="10.00">+ Deactivate()</text>
<text text-anchor="start" x="50" y="-135.5" font-family="Helvetica,sans-Serif" font-size="10.00">+ Activate()</text>
<text text-anchor="start" x="50" y="-124.5" font-family="Helvetica,sans-Serif" font-size="10.00">+ StaticClass()</text>
</a>
</g>
</g>
<!-- Node2&#45;&gt;Node1 -->
<g id="edge1" class="edge">
<title>Node2&#45;&gt;Node1</title>
<path fill="none" stroke="midnightblue" d="M94,-107.3C94,-97.97 94,-88.43 94,-79.61"/>
<polygon fill="none" stroke="midnightblue" points="90.5,-107.31 94,-117.31 97.5,-107.31 90.5,-107.31"/>
</g>
<!-- Node3 -->
<g id="node3" class="node">
<title>Node3</title>
<g id="a_node3"><a xlink:href="../../dd/d3c/classSDK_1_1UEFUIComponent.html" target="_top" xlink:title=" ">
<polygon fill="white" stroke="black" points="31.5,-245.5 31.5,-423.5 156.5,-423.5 156.5,-245.5 31.5,-245.5"/>
<text text-anchor="middle" x="94" y="-411.5" font-family="Helvetica,sans-Serif" font-size="10.00">SDK::UEFUIComponent</text>
<polyline fill="none" stroke="black" points="31.5,-404.5 156.5,-404.5 "/>
<text text-anchor="middle" x="94" y="-392.5" font-family="Helvetica,sans-Serif" font-size="10.00"> </text>
<polyline fill="none" stroke="black" points="31.5,-385.5 156.5,-385.5 "/>
<text text-anchor="start" x="39.5" y="-373.5" font-family="Helvetica,sans-Serif" font-size="10.00">+ InvalidateSize()</text>
<text text-anchor="start" x="39.5" y="-362.5" font-family="Helvetica,sans-Serif" font-size="10.00">+ InvalidateData()</text>
<text text-anchor="start" x="39.5" y="-351.5" font-family="Helvetica,sans-Serif" font-size="10.00">+ Invalidate()</text>
<text text-anchor="start" x="39.5" y="-340.5" font-family="Helvetica,sans-Serif" font-size="10.00">+ ValidateNow()</text>
<text text-anchor="start" x="39.5" y="-329.5" font-family="Helvetica,sans-Serif" font-size="10.00">+ HasFocus()</text>
<text text-anchor="start" x="39.5" y="-318.5" font-family="Helvetica,sans-Serif" font-size="10.00">+ GetY()</text>
<text text-anchor="start" x="39.5" y="-307.5" font-family="Helvetica,sans-Serif" font-size="10.00">+ SetY()</text>
<text text-anchor="start" x="39.5" y="-296.5" font-family="Helvetica,sans-Serif" font-size="10.00">+ GetX()</text>
<text text-anchor="start" x="39.5" y="-285.5" font-family="Helvetica,sans-Serif" font-size="10.00">+ SetX()</text>
<text text-anchor="start" x="39.5" y="-274.5" font-family="Helvetica,sans-Serif" font-size="10.00">+ GetHeight()</text>
<text text-anchor="start" x="39.5" y="-263.5" font-family="Helvetica,sans-Serif" font-size="10.00">and 10 more...</text>
<text text-anchor="start" x="39.5" y="-252.5" font-family="Helvetica,sans-Serif" font-size="10.00">+ StaticClass()</text>
</a>
</g>
</g>
<!-- Node3&#45;&gt;Node2 -->
<g id="edge2" class="edge">
<title>Node3&#45;&gt;Node2</title>
<path fill="none" stroke="midnightblue" d="M94,-234.77C94,-225.4 94,-216.25 94,-207.8"/>
<polygon fill="none" stroke="midnightblue" points="90.5,-235.01 94,-245.01 97.5,-235.01 90.5,-235.01"/>
</g>
<!-- Node4 -->
<g id="node4" class="node">
<title>Node4</title>
<g id="a_node4"><a xlink:href="../../dc/dd3/classSDK_1_1UGFxClikWidget.html" target="_top" xlink:title=" ">
<polygon fill="white" stroke="black" points="10.5,-461.5 10.5,-606.5 177.5,-606.5 177.5,-461.5 10.5,-461.5"/>
<text text-anchor="middle" x="94" y="-594.5" font-family="Helvetica,sans-Serif" font-size="10.00">SDK::UGFxClikWidget</text>
<polyline fill="none" stroke="black" points="10.5,-587.5 177.5,-587.5 "/>
<text text-anchor="middle" x="94" y="-575.5" font-family="Helvetica,sans-Serif" font-size="10.00"> </text>
<polyline fill="none" stroke="black" points="10.5,-568.5 177.5,-568.5 "/>
<text text-anchor="start" x="18.5" y="-556.5" font-family="Helvetica,sans-Serif" font-size="10.00">+ ASRemoveAllEventListeners()</text>
<text text-anchor="start" x="18.5" y="-545.5" font-family="Helvetica,sans-Serif" font-size="10.00">+ AS3AddEventListener()</text>
<text text-anchor="start" x="18.5" y="-534.5" font-family="Helvetica,sans-Serif" font-size="10.00">+ ASAddEventListener()</text>
<text text-anchor="start" x="18.5" y="-523.5" font-family="Helvetica,sans-Serif" font-size="10.00">+ SetListener()</text>
<text text-anchor="start" x="18.5" y="-512.5" font-family="Helvetica,sans-Serif" font-size="10.00">+ GetEventStringFromTypename()</text>
<text text-anchor="start" x="18.5" y="-501.5" font-family="Helvetica,sans-Serif" font-size="10.00">+ RemoveAllEventListeners()</text>
<text text-anchor="start" x="18.5" y="-490.5" font-family="Helvetica,sans-Serif" font-size="10.00">+ AddEventListener()</text>
<text text-anchor="start" x="18.5" y="-479.5" font-family="Helvetica,sans-Serif" font-size="10.00">+ EventListener()</text>
<text text-anchor="start" x="18.5" y="-468.5" font-family="Helvetica,sans-Serif" font-size="10.00">+ StaticClass()</text>
</a>
</g>
</g>
<!-- Node4&#45;&gt;Node3 -->
<g id="edge3" class="edge">
<title>Node4&#45;&gt;Node3</title>
<path fill="none" stroke="midnightblue" d="M94,-451.25C94,-442.15 94,-432.85 94,-423.68"/>
<polygon fill="none" stroke="midnightblue" points="90.5,-451.42 94,-461.42 97.5,-451.42 90.5,-451.42"/>
</g>
<!-- Node5 -->
<g id="node5" class="node">
<title>Node5</title>
<g id="a_node5"><a xlink:href="../../d2/d23/classSDK_1_1UGFxObject.html" target="_top" xlink:title=" ">
<polygon fill="white" stroke="black" points="632.5,-644.5 632.5,-833.5 781.5,-833.5 781.5,-644.5 632.5,-644.5"/>
<text text-anchor="middle" x="707" y="-821.5" font-family="Helvetica,sans-Serif" font-size="10.00">SDK::UGFxObject</text>
<polyline fill="none" stroke="black" points="632.5,-814.5 781.5,-814.5 "/>
<text text-anchor="start" x="640.5" y="-802.5" font-family="Helvetica,sans-Serif" font-size="10.00">+ Value</text>
<text text-anchor="start" x="640.5" y="-791.5" font-family="Helvetica,sans-Serif" font-size="10.00">+ bListenExternalInterfaceCall</text>
<polyline fill="none" stroke="black" points="632.5,-784.5 781.5,-784.5 "/>
<text text-anchor="start" x="640.5" y="-772.5" font-family="Helvetica,sans-Serif" font-size="10.00">+ DestroyGFxObject()</text>
<text text-anchor="start" x="640.5" y="-761.5" font-family="Helvetica,sans-Serif" font-size="10.00">+ WidgetUnloaded()</text>
<text text-anchor="start" x="640.5" y="-750.5" font-family="Helvetica,sans-Serif" font-size="10.00">+ WidgetInitialized()</text>
<text text-anchor="start" x="640.5" y="-739.5" font-family="Helvetica,sans-Serif" font-size="10.00">+ GotoAndStopI()</text>
<text text-anchor="start" x="640.5" y="-728.5" font-family="Helvetica,sans-Serif" font-size="10.00">+ GotoAndStop()</text>
<text text-anchor="start" x="640.5" y="-717.5" font-family="Helvetica,sans-Serif" font-size="10.00">+ GotoAndPlayI()</text>
<text text-anchor="start" x="640.5" y="-706.5" font-family="Helvetica,sans-Serif" font-size="10.00">+ GotoAndPlay()</text>
<text text-anchor="start" x="640.5" y="-695.5" font-family="Helvetica,sans-Serif" font-size="10.00">+ ActionScriptString()</text>
<text text-anchor="start" x="640.5" y="-684.5" font-family="Helvetica,sans-Serif" font-size="10.00">+ ActionScriptFloat()</text>
<text text-anchor="start" x="640.5" y="-673.5" font-family="Helvetica,sans-Serif" font-size="10.00">+ ActionScriptInt()</text>
<text text-anchor="start" x="640.5" y="-662.5" font-family="Helvetica,sans-Serif" font-size="10.00">and 69 more...</text>
<text text-anchor="start" x="640.5" y="-651.5" font-family="Helvetica,sans-Serif" font-size="10.00">+ StaticClass()</text>
</a>
</g>
</g>
<!-- Node5&#45;&gt;Node4 -->
<g id="edge4" class="edge">
<title>Node5&#45;&gt;Node4</title>
<path fill="none" stroke="midnightblue" d="M622.79,-710.11C505.65,-671.32 294.76,-601.48 177.82,-562.76"/>
<polygon fill="none" stroke="midnightblue" points="621.85,-713.49 632.45,-713.31 624.05,-706.84 621.85,-713.49"/>
</g>
<!-- Node6 -->
<g id="node6" class="node">
<title>Node6</title>
<g id="a_node6"><a xlink:href="../../d9/d45/classSDK_1_1UObject.html" target="_top" xlink:title=" ">
<polygon fill="white" stroke="black" points="472,-1722.5 472,-1966.5 670,-1966.5 670,-1722.5 472,-1722.5"/>
<text text-anchor="middle" x="571" y="-1954.5" font-family="Helvetica,sans-Serif" font-size="10.00">SDK::UObject</text>
<polyline fill="none" stroke="black" points="472,-1947.5 670,-1947.5 "/>
<text text-anchor="start" x="480" y="-1935.5" font-family="Helvetica,sans-Serif" font-size="10.00">+ ObjectInternalInteger</text>
<text text-anchor="start" x="480" y="-1924.5" font-family="Helvetica,sans-Serif" font-size="10.00">+ NetIndex</text>
<polyline fill="none" stroke="black" points="472,-1917.5 670,-1917.5 "/>
<text text-anchor="start" x="480" y="-1905.5" font-family="Helvetica,sans-Serif" font-size="10.00">+ UObject::GetName()</text>
<text text-anchor="start" x="480" y="-1894.5" font-family="Helvetica,sans-Serif" font-size="10.00">+ GetFullName()</text>
<text text-anchor="start" x="480" y="-1883.5" font-family="Helvetica,sans-Serif" font-size="10.00">+ IsA()</text>
<text text-anchor="start" x="480" y="-1872.5" font-family="Helvetica,sans-Serif" font-size="10.00">+ ProcessEvent()</text>
<text text-anchor="start" x="480" y="-1861.5" font-family="Helvetica,sans-Serif" font-size="10.00">+ STATIC_ProfNodeEvent()</text>
<text text-anchor="start" x="480" y="-1850.5" font-family="Helvetica,sans-Serif" font-size="10.00">+ STATIC_ProfNodeSetDepthThreshold()</text>
<text text-anchor="start" x="480" y="-1839.5" font-family="Helvetica,sans-Serif" font-size="10.00">+ STATIC_ProfNodeSetTimeThreshold</text>
<text text-anchor="start" x="480" y="-1828.5" font-family="Helvetica,sans-Serif" font-size="10.00">Seconds()</text>
<text text-anchor="start" x="480" y="-1817.5" font-family="Helvetica,sans-Serif" font-size="10.00">+ STATIC_ProfNodeStop()</text>
<text text-anchor="start" x="480" y="-1806.5" font-family="Helvetica,sans-Serif" font-size="10.00">+ STATIC_ProfNodeStart()</text>
<text text-anchor="start" x="480" y="-1795.5" font-family="Helvetica,sans-Serif" font-size="10.00">+ STATIC_GetStringFromGuid()</text>
<text text-anchor="start" x="480" y="-1784.5" font-family="Helvetica,sans-Serif" font-size="10.00">and 298 more...</text>
<text text-anchor="start" x="480" y="-1773.5" font-family="Helvetica,sans-Serif" font-size="10.00">+ GetGlobalObjects()</text>
<text text-anchor="start" x="480" y="-1762.5" font-family="Helvetica,sans-Serif" font-size="10.00">+ FindObject()</text>
<text text-anchor="start" x="480" y="-1751.5" font-family="Helvetica,sans-Serif" font-size="10.00">+ FindClass()</text>
<text text-anchor="start" x="480" y="-1740.5" font-family="Helvetica,sans-Serif" font-size="10.00">+ GetObjectCasted()</text>
<text text-anchor="start" x="480" y="-1729.5" font-family="Helvetica,sans-Serif" font-size="10.00">+ StaticClass()</text>
</a>
</g>
</g>
<!-- Node6&#45;&gt;Node5 -->
<g id="edge5" class="edge">
<title>Node6&#45;&gt;Node5</title>
<path fill="none" stroke="midnightblue" d="M679.39,-1798.45C752.61,-1759.99 836,-1696.81 836,-1608.5 836,-1608.5 836,-1608.5 836,-953 836,-903.5 810.19,-855.67 781.67,-817.92"/>
<polygon fill="none" stroke="midnightblue" points="677.35,-1795.56 670.05,-1803.25 680.55,-1801.79 677.35,-1795.56"/>
</g>
<!-- Node6&#45;&gt;Node6 -->
<g id="edge11" class="edge">
<title>Node6&#45;&gt;Node6</title>
<path fill="none" stroke="#404040" d="M670.01,-1867.53C680.94,-1863.15 688,-1855.48 688,-1844.5 688,-1837.64 685.24,-1832.07 680.51,-1827.78"/>
<polygon fill="none" stroke="#404040" points="680.3,-1827.66 673.09,-1827.99 670.01,-1821.47 677.22,-1821.14 680.3,-1827.66"/>
<text text-anchor="middle" x="727.5" y="-1853" font-family="Helvetica,sans-Serif" font-size="10.00"> +Outer</text>
<text text-anchor="middle" x="727.5" y="-1842" font-family="Helvetica,sans-Serif" font-size="10.00">+Linker</text>
<text text-anchor="middle" x="727.5" y="-1831" font-family="Helvetica,sans-Serif" font-size="10.00">+ObjectArchetype</text>
</g>
<!-- Node12 -->
<g id="node12" class="node">
<title>Node12</title>
<g id="a_node12"><a xlink:href="../../d3/d79/classSDK_1_1TArray.html" target="_top" xlink:title=" ">
<polygon fill="white" stroke="black" points="369.5,-1540.5 369.5,-1674.5 530.5,-1674.5 530.5,-1540.5 369.5,-1540.5"/>
<text text-anchor="middle" x="450" y="-1662.5" font-family="Helvetica,sans-Serif" font-size="10.00">SDK::TArray&lt; SDK::UObject * &gt;</text>
<polyline fill="none" stroke="black" points="369.5,-1655.5 530.5,-1655.5 "/>
<text text-anchor="start" x="377.5" y="-1643.5" font-family="Helvetica,sans-Serif" font-size="10.00">&#45; Count</text>
<text text-anchor="start" x="377.5" y="-1632.5" font-family="Helvetica,sans-Serif" font-size="10.00">&#45; Max</text>
<polyline fill="none" stroke="black" points="369.5,-1625.5 530.5,-1625.5 "/>
<text text-anchor="start" x="377.5" y="-1613.5" font-family="Helvetica,sans-Serif" font-size="10.00">+ TArray()</text>
<text text-anchor="start" x="377.5" y="-1602.5" font-family="Helvetica,sans-Serif" font-size="10.00">+ Num()</text>
<text text-anchor="start" x="377.5" y="-1591.5" font-family="Helvetica,sans-Serif" font-size="10.00">+ operator[]()</text>
<text text-anchor="start" x="377.5" y="-1580.5" font-family="Helvetica,sans-Serif" font-size="10.00">+ operator[]()</text>
<text text-anchor="start" x="377.5" y="-1569.5" font-family="Helvetica,sans-Serif" font-size="10.00">+ IsValidIndex()</text>
<text text-anchor="start" x="377.5" y="-1558.5" font-family="Helvetica,sans-Serif" font-size="10.00">+ GetByIndex()</text>
<text text-anchor="start" x="377.5" y="-1547.5" font-family="Helvetica,sans-Serif" font-size="10.00">+ GetByIndex()</text>
</a>
</g>
</g>
<!-- Node6&#45;&gt;Node12 -->
<g id="edge13" class="edge">
<title>Node6&#45;&gt;Node12</title>
<path fill="none" stroke="#404040" d="M473.79,-1722.34C470.58,-1716.28 467.62,-1710.16 465,-1704 462.61,-1698.4 460.6,-1692.47 458.91,-1686.42"/>
<polygon fill="none" stroke="#404040" points="458.89,-1686.34 453.57,-1681.46 456.03,-1674.68 461.34,-1679.56 458.89,-1686.34"/>
<text text-anchor="middle" x="479" y="-1696" font-family="Helvetica,sans-Serif" font-size="10.00"> &#45;Data</text>
</g>
<!-- Node14 -->
<g id="node14" class="node">
<title>Node14</title>
<g id="a_node14"><a xlink:href="../../d7/d85/classSDK_1_1UClass.html" target="_top" xlink:title=" ">
<polygon fill="white" stroke="black" points="501.5,-1179.5 501.5,-1269.5 622.5,-1269.5 622.5,-1179.5 501.5,-1179.5"/>
<text text-anchor="middle" x="562" y="-1257.5" font-family="Helvetica,sans-Serif" font-size="10.00">SDK::UClass</text>
<polyline fill="none" stroke="black" points="501.5,-1250.5 622.5,-1250.5 "/>
<text text-anchor="start" x="509.5" y="-1238.5" font-family="Helvetica,sans-Serif" font-size="10.00">+ UnknownData00</text>
<text text-anchor="start" x="509.5" y="-1227.5" font-family="Helvetica,sans-Serif" font-size="10.00">+ UnknownData01</text>
<polyline fill="none" stroke="black" points="501.5,-1220.5 622.5,-1220.5 "/>
<text text-anchor="start" x="509.5" y="-1208.5" font-family="Helvetica,sans-Serif" font-size="10.00">+ CreateDefaultObject()</text>
<text text-anchor="start" x="509.5" y="-1197.5" font-family="Helvetica,sans-Serif" font-size="10.00">+ CreateDefaultObject()</text>
<text text-anchor="start" x="509.5" y="-1186.5" font-family="Helvetica,sans-Serif" font-size="10.00">+ StaticClass()</text>
</a>
</g>
</g>
<!-- Node6&#45;&gt;Node14 -->
<g id="edge23" class="edge">
<title>Node6&#45;&gt;Node14</title>
<path fill="none" stroke="#404040" d="M589.55,-1722.42C593.75,-1685.9 597,-1645.65 597,-1608.5 597,-1608.5 597,-1608.5 597,-1335 597,-1316.92 592.62,-1297.92 586.95,-1280.92"/>
<polygon fill="none" stroke="#404040" points="586.91,-1280.81 581.12,-1276.51 582.87,-1269.51 588.65,-1273.81 586.91,-1280.81"/>
<text text-anchor="middle" x="644.5" y="-1439.5" font-family="Helvetica,sans-Serif" font-size="10.00"> +ClassDefaultObject</text>
</g>
<!-- Node17 -->
<g id="node17" class="node">
<title>Node17</title>
<g id="a_node17"><a xlink:href="../../de/dd6/classSDK_1_1UField.html" target="_top" xlink:title=" ">
<polygon fill="white" stroke="black" points="675.5,-1579 675.5,-1636 758.5,-1636 758.5,-1579 675.5,-1579"/>
<text text-anchor="middle" x="717" y="-1624" font-family="Helvetica,sans-Serif" font-size="10.00">SDK::UField</text>
<polyline fill="none" stroke="black" points="675.5,-1617 758.5,-1617 "/>
<text text-anchor="middle" x="717" y="-1605" font-family="Helvetica,sans-Serif" font-size="10.00"> </text>
<polyline fill="none" stroke="black" points="675.5,-1598 758.5,-1598 "/>
<text text-anchor="start" x="683.5" y="-1586" font-family="Helvetica,sans-Serif" font-size="10.00">+ StaticClass()</text>
</a>
</g>
</g>
<!-- Node6&#45;&gt;Node17 -->
<g id="edge20" class="edge">
<title>Node6&#45;&gt;Node17</title>
<path fill="none" stroke="midnightblue" d="M651.75,-1713.52C669.95,-1684.24 687.49,-1656 699.8,-1636.19"/>
<polygon fill="none" stroke="midnightblue" points="648.66,-1711.87 646.35,-1722.21 654.6,-1715.57 648.66,-1711.87"/>
</g>
<!-- Node22 -->
<g id="node22" class="node">
<title>Node22</title>
<g id="a_node22"><a xlink:href="../../dc/dd6/structSDK_1_1FScriptDelegate.html" target="_top" xlink:title=" ">
<polygon fill="white" stroke="black" points="85,-1579 85,-1636 199,-1636 199,-1579 85,-1579"/>
<text text-anchor="middle" x="142" y="-1624" font-family="Helvetica,sans-Serif" font-size="10.00">SDK::FScriptDelegate</text>
<polyline fill="none" stroke="black" points="85,-1617 199,-1617 "/>
<text text-anchor="middle" x="142" y="-1605" font-family="Helvetica,sans-Serif" font-size="10.00"> </text>
<polyline fill="none" stroke="black" points="85,-1598 199,-1598 "/>
<text text-anchor="middle" x="142" y="-1586" font-family="Helvetica,sans-Serif" font-size="10.00"> </text>
</a>
</g>
</g>
<!-- Node6&#45;&gt;Node22 -->
<g id="edge34" class="edge">
<title>Node6&#45;&gt;Node22</title>
<path fill="none" stroke="#404040" d="M471.77,-1789.14C388.84,-1743.72 273.22,-1680.38 203.21,-1642.03"/>
<polygon fill="none" stroke="#404040" points="202.9,-1641.86 195.72,-1642.49 192.38,-1636.1 199.56,-1635.47 202.9,-1641.86"/>
<text text-anchor="middle" x="325" y="-1696" font-family="Helvetica,sans-Serif" font-size="10.00"> +Object</text>
</g>
<!-- Node7 -->
<g id="node7" class="node">
<title>Node7</title>
<g id="a_node7"><a xlink:href="../../d0/d22/structSDK_1_1FQWord.html" target="_top" xlink:title=" ">
<polygon fill="white" stroke="black" points="530,-2133 530,-2201 610,-2201 610,-2133 530,-2133"/>
<text text-anchor="middle" x="570" y="-2189" font-family="Helvetica,sans-Serif" font-size="10.00">SDK::FQWord</text>
<polyline fill="none" stroke="black" points="530,-2182 610,-2182 "/>
<text text-anchor="start" x="538" y="-2170" font-family="Helvetica,sans-Serif" font-size="10.00">+ A</text>
<text text-anchor="start" x="538" y="-2159" font-family="Helvetica,sans-Serif" font-size="10.00">+ B</text>
<polyline fill="none" stroke="black" points="530,-2152 610,-2152 "/>
<text text-anchor="middle" x="570" y="-2140" font-family="Helvetica,sans-Serif" font-size="10.00"> </text>
</a>
</g>
</g>
<!-- Node7&#45;&gt;Node6 -->
<g id="edge6" class="edge">
<title>Node7&#45;&gt;Node6</title>
<path fill="none" stroke="#404040" d="M570.1,-2132.91C570.22,-2096.48 570.41,-2035.57 570.58,-1979.19"/>
<polygon fill="none" stroke="#404040" points="570.58,-1978.86 566.6,-1972.85 570.62,-1966.86 574.6,-1972.87 570.58,-1978.86"/>
<text text-anchor="middle" x="602" y="-2033.5" font-family="Helvetica,sans-Serif" font-size="10.00"> +ObjectFlags</text>
</g>
<!-- Node8 -->
<g id="node8" class="node">
<title>Node8</title>
<g id="a_node8"><a xlink:href="../../d0/db6/structSDK_1_1FName.html" target="_top" xlink:title=" ">
<polygon fill="white" stroke="black" points="262.5,-2105.5 262.5,-2228.5 369.5,-2228.5 369.5,-2105.5 262.5,-2105.5"/>
<text text-anchor="middle" x="316" y="-2216.5" font-family="Helvetica,sans-Serif" font-size="10.00">SDK::FName</text>
<polyline fill="none" stroke="black" points="262.5,-2209.5 369.5,-2209.5 "/>
<text text-anchor="start" x="270.5" y="-2197.5" font-family="Helvetica,sans-Serif" font-size="10.00">+ Index</text>
<text text-anchor="start" x="270.5" y="-2186.5" font-family="Helvetica,sans-Serif" font-size="10.00">+ Number</text>
<polyline fill="none" stroke="black" points="262.5,-2179.5 369.5,-2179.5 "/>
<text text-anchor="start" x="270.5" y="-2167.5" font-family="Helvetica,sans-Serif" font-size="10.00">+ FName()</text>
<text text-anchor="start" x="270.5" y="-2156.5" font-family="Helvetica,sans-Serif" font-size="10.00">+ FName()</text>
<text text-anchor="start" x="270.5" y="-2145.5" font-family="Helvetica,sans-Serif" font-size="10.00">+ FName()</text>
<text text-anchor="start" x="270.5" y="-2134.5" font-family="Helvetica,sans-Serif" font-size="10.00">+ GetName()</text>
<text text-anchor="start" x="270.5" y="-2123.5" font-family="Helvetica,sans-Serif" font-size="10.00">+ operator==()</text>
<text text-anchor="start" x="270.5" y="-2112.5" font-family="Helvetica,sans-Serif" font-size="10.00">+ GetGlobalNames()</text>
</a>
</g>
</g>
<!-- Node8&#45;&gt;Node6 -->
<g id="edge7" class="edge">
<title>Node8&#45;&gt;Node6</title>
<path fill="none" stroke="#404040" d="M364.26,-2105.34C393.31,-2068.83 431.45,-2020.89 467.06,-1976.14"/>
<polygon fill="none" stroke="#404040" points="467.14,-1976.04 467.75,-1968.85 474.61,-1966.65 474.01,-1973.83 467.14,-1976.04"/>
<text text-anchor="middle" x="477" y="-2033.5" font-family="Helvetica,sans-Serif" font-size="10.00"> +Name</text>
</g>
<!-- Node19 -->
<g id="node19" class="node">
<title>Node19</title>
<g id="a_node19"><a xlink:href="../../d0/d8a/structSDK_1_1FGFxWidgetBinding.html" target="_top" xlink:title=" ">
<polygon fill="white" stroke="black" points="355.5,-1074.5 355.5,-1131.5 486.5,-1131.5 486.5,-1074.5 355.5,-1074.5"/>
<text text-anchor="middle" x="421" y="-1119.5" font-family="Helvetica,sans-Serif" font-size="10.00">SDK::FGFxWidgetBinding</text>
<polyline fill="none" stroke="black" points="355.5,-1112.5 486.5,-1112.5 "/>
<text text-anchor="middle" x="421" y="-1100.5" font-family="Helvetica,sans-Serif" font-size="10.00"> </text>
<polyline fill="none" stroke="black" points="355.5,-1093.5 486.5,-1093.5 "/>
<text text-anchor="middle" x="421" y="-1081.5" font-family="Helvetica,sans-Serif" font-size="10.00"> </text>
</a>
</g>
</g>
<!-- Node8&#45;&gt;Node19 -->
<g id="edge26" class="edge">
<title>Node8&#45;&gt;Node19</title>
<path fill="none" stroke="#404040" d="M320.33,-2105.46C332.3,-1937.51 365,-1475.89 365,-1443 365,-1443 365,-1443 365,-1223.5 365,-1194.23 378.95,-1164.41 392.92,-1141.88"/>
<polygon fill="none" stroke="#404040" points="392.97,-1141.81 392.88,-1134.6 399.51,-1131.75 399.59,-1138.97 392.97,-1141.81"/>
<text text-anchor="middle" x="398.5" y="-1439.5" font-family="Helvetica,sans-Serif" font-size="10.00"> +WidgetName</text>
</g>
<!-- Node8&#45;&gt;Node22 -->
<g id="edge33" class="edge">
<title>Node8&#45;&gt;Node22</title>
<path fill="none" stroke="#404040" d="M294.92,-2105.21C281.45,-2065.9 263.78,-2013.56 249,-1967 212.35,-1851.55 172.32,-1714.07 153.28,-1647.91"/>
<polygon fill="none" stroke="#404040" points="153.18,-1647.57 147.68,-1642.91 149.86,-1636.03 155.37,-1640.7 153.18,-1647.57"/>
<text text-anchor="middle" x="285.5" y="-1842" font-family="Helvetica,sans-Serif" font-size="10.00"> +FunctionName</text>
</g>
<!-- Node9 -->
<g id="node9" class="node">
<title>Node9</title>
<g id="a_node9"><a xlink:href="../../d3/d79/classSDK_1_1TArray.html" target="_top" xlink:title=" ">
<polygon fill="white" stroke="black" points="212,-2282 212,-2416 392,-2416 392,-2282 212,-2282"/>
<text text-anchor="middle" x="302" y="-2404" font-family="Helvetica,sans-Serif" font-size="10.00">SDK::TArray&lt; SDK::FNameEntry * &gt;</text>
<polyline fill="none" stroke="black" points="212,-2397 392,-2397 "/>
<text text-anchor="start" x="220" y="-2385" font-family="Helvetica,sans-Serif" font-size="10.00">&#45; Count</text>
<text text-anchor="start" x="220" y="-2374" font-family="Helvetica,sans-Serif" font-size="10.00">&#45; Max</text>
<polyline fill="none" stroke="black" points="212,-2367 392,-2367 "/>
<text text-anchor="start" x="220" y="-2355" font-family="Helvetica,sans-Serif" font-size="10.00">+ TArray()</text>
<text text-anchor="start" x="220" y="-2344" font-family="Helvetica,sans-Serif" font-size="10.00">+ Num()</text>
<text text-anchor="start" x="220" y="-2333" font-family="Helvetica,sans-Serif" font-size="10.00">+ operator[]()</text>
<text text-anchor="start" x="220" y="-2322" font-family="Helvetica,sans-Serif" font-size="10.00">+ operator[]()</text>
<text text-anchor="start" x="220" y="-2311" font-family="Helvetica,sans-Serif" font-size="10.00">+ IsValidIndex()</text>
<text text-anchor="start" x="220" y="-2300" font-family="Helvetica,sans-Serif" font-size="10.00">+ GetByIndex()</text>
<text text-anchor="start" x="220" y="-2289" font-family="Helvetica,sans-Serif" font-size="10.00">+ GetByIndex()</text>
</a>
</g>
</g>
<!-- Node9&#45;&gt;Node8 -->
<g id="edge8" class="edge">
<title>Node9&#45;&gt;Node8</title>
<path fill="none" stroke="#404040" d="M307.13,-2282C308.17,-2268.63 309.27,-2254.5 310.33,-2240.91"/>
<polygon fill="none" stroke="#404040" points="310.35,-2240.59 306.83,-2234.29 311.28,-2228.62 314.81,-2234.91 310.35,-2240.59"/>
<text text-anchor="middle" x="334.5" y="-2250" font-family="Helvetica,sans-Serif" font-size="10.00"> +GNames</text>
</g>
<!-- Node10 -->
<g id="node10" class="node">
<title>Node10</title>
<g id="a_node10"><a xlink:href="../../d7/ddf/classSDK_1_1FNameEntry.html" target="_top" xlink:title=" ">
<polygon fill="white" stroke="black" points="91.5,-2508 91.5,-2576 190.5,-2576 190.5,-2508 91.5,-2508"/>
<text text-anchor="middle" x="141" y="-2564" font-family="Helvetica,sans-Serif" font-size="10.00">SDK::FNameEntry</text>
<polyline fill="none" stroke="black" points="91.5,-2557 190.5,-2557 "/>
<text text-anchor="start" x="99.5" y="-2545" font-family="Helvetica,sans-Serif" font-size="10.00">+ UnknownData00</text>
<text text-anchor="start" x="99.5" y="-2534" font-family="Helvetica,sans-Serif" font-size="10.00">+ name</text>
<polyline fill="none" stroke="black" points="91.5,-2527 190.5,-2527 "/>
<text text-anchor="start" x="99.5" y="-2515" font-family="Helvetica,sans-Serif" font-size="10.00">+ GetName()</text>
</a>
</g>
</g>
<!-- Node10&#45;&gt;Node9 -->
<g id="edge9" class="edge">
<title>Node10&#45;&gt;Node9</title>
<path fill="none" stroke="#404040" d="M169.04,-2507.73C188.23,-2484.97 214.46,-2453.86 238.55,-2425.28"/>
<polygon fill="none" stroke="#404040" points="238.55,-2425.27 239.36,-2418.11 246.28,-2416.1 245.47,-2423.26 238.55,-2425.27"/>
<text text-anchor="middle" x="236" y="-2443" font-family="Helvetica,sans-Serif" font-size="10.00"> &#45;Data</text>
</g>
<!-- Node11 -->
<g id="node11" class="node">
<title>Node11</title>
<g id="a_node11"><a xlink:href="../../d3/d79/classSDK_1_1TArray.html" target="_top" xlink:title=" ">
<polygon fill="white" stroke="black" points="308.5,-2469.5 308.5,-2614.5 405.5,-2614.5 405.5,-2469.5 308.5,-2469.5"/>
<text text-anchor="middle" x="357" y="-2602.5" font-family="Helvetica,sans-Serif" font-size="10.00">SDK::TArray&lt; T &gt;</text>
<polyline fill="none" stroke="black" points="308.5,-2595.5 405.5,-2595.5 "/>
<text text-anchor="start" x="316.5" y="-2583.5" font-family="Helvetica,sans-Serif" font-size="10.00">&#45; Data</text>
<text text-anchor="start" x="316.5" y="-2572.5" font-family="Helvetica,sans-Serif" font-size="10.00">&#45; Count</text>
<text text-anchor="start" x="316.5" y="-2561.5" font-family="Helvetica,sans-Serif" font-size="10.00">&#45; Max</text>
<polyline fill="none" stroke="black" points="308.5,-2554.5 405.5,-2554.5 "/>
<text text-anchor="start" x="316.5" y="-2542.5" font-family="Helvetica,sans-Serif" font-size="10.00">+ TArray()</text>
<text text-anchor="start" x="316.5" y="-2531.5" font-family="Helvetica,sans-Serif" font-size="10.00">+ Num()</text>
<text text-anchor="start" x="316.5" y="-2520.5" font-family="Helvetica,sans-Serif" font-size="10.00">+ operator[]()</text>
<text text-anchor="start" x="316.5" y="-2509.5" font-family="Helvetica,sans-Serif" font-size="10.00">+ operator[]()</text>
<text text-anchor="start" x="316.5" y="-2498.5" font-family="Helvetica,sans-Serif" font-size="10.00">+ IsValidIndex()</text>
<text text-anchor="start" x="316.5" y="-2487.5" font-family="Helvetica,sans-Serif" font-size="10.00">+ GetByIndex()</text>
<text text-anchor="start" x="316.5" y="-2476.5" font-family="Helvetica,sans-Serif" font-size="10.00">+ GetByIndex()</text>
</a>
</g>
</g>
<!-- Node11&#45;&gt;Node9 -->
<g id="edge10" class="edge">
<title>Node11&#45;&gt;Node9</title>
<path fill="none" stroke="orange" d="M303.48,-2471.6C300.09,-2464.89 297.17,-2457.98 295,-2451 291.55,-2439.92 290.35,-2427.84 290.46,-2416.02"/>
<polygon fill="orange" stroke="orange" points="300.53,-2473.5 308.38,-2480.61 306.68,-2470.16 300.53,-2473.5"/>
<text text-anchor="middle" x="350.5" y="-2443" font-family="Helvetica,sans-Serif" font-size="10.00"> &lt; SDK::FNameEntry * &gt;</text>
</g>
<!-- Node11&#45;&gt;Node12 -->
<g id="edge14" class="edge">
<title>Node11&#45;&gt;Node12</title>
<path fill="none" stroke="orange" d="M403.4,-2459.9C404.37,-2456.94 405.25,-2453.96 406,-2451 431.55,-2350.65 411.69,-2088.4 406,-1985 399.1,-1859.54 381.9,-1829.46 375,-1704 374.73,-1699.12 373.26,-1697.57 375,-1693 377.4,-1686.67 380.52,-1680.52 384.12,-1674.6"/>
<polygon fill="orange" stroke="orange" points="400.09,-2458.74 399.97,-2469.33 406.67,-2461.13 400.09,-2458.74"/>
<text text-anchor="middle" x="463.5" y="-2164.5" font-family="Helvetica,sans-Serif" font-size="10.00"> &lt; SDK::UObject * &gt;</text>
</g>
<!-- Node18 -->
<g id="node18" class="node">
<title>Node18</title>
<g id="a_node18"><a xlink:href="../../d3/d79/classSDK_1_1TArray.html" target="_top" xlink:title=" ">
<polygon fill="white" stroke="black" points="349.5,-881.5 349.5,-1026.5 492.5,-1026.5 492.5,-881.5 349.5,-881.5"/>
<text text-anchor="start" x="357.5" y="-1014.5" font-family="Helvetica,sans-Serif" font-size="10.00">SDK::TArray&lt; struct</text>
<text text-anchor="middle" x="421" y="-1003.5" font-family="Helvetica,sans-Serif" font-size="10.00"> SDK::FGFxWidgetBinding &gt;</text>
<polyline fill="none" stroke="black" points="349.5,-996.5 492.5,-996.5 "/>
<text text-anchor="start" x="357.5" y="-984.5" font-family="Helvetica,sans-Serif" font-size="10.00">&#45; Count</text>
<text text-anchor="start" x="357.5" y="-973.5" font-family="Helvetica,sans-Serif" font-size="10.00">&#45; Max</text>
<polyline fill="none" stroke="black" points="349.5,-966.5 492.5,-966.5 "/>
<text text-anchor="start" x="357.5" y="-954.5" font-family="Helvetica,sans-Serif" font-size="10.00">+ TArray()</text>
<text text-anchor="start" x="357.5" y="-943.5" font-family="Helvetica,sans-Serif" font-size="10.00">+ Num()</text>
<text text-anchor="start" x="357.5" y="-932.5" font-family="Helvetica,sans-Serif" font-size="10.00">+ operator[]()</text>
<text text-anchor="start" x="357.5" y="-921.5" font-family="Helvetica,sans-Serif" font-size="10.00">+ operator[]()</text>
<text text-anchor="start" x="357.5" y="-910.5" font-family="Helvetica,sans-Serif" font-size="10.00">+ IsValidIndex()</text>
<text text-anchor="start" x="357.5" y="-899.5" font-family="Helvetica,sans-Serif" font-size="10.00">+ GetByIndex()</text>
<text text-anchor="start" x="357.5" y="-888.5" font-family="Helvetica,sans-Serif" font-size="10.00">+ GetByIndex()</text>
</a>
</g>
</g>
<!-- Node11&#45;&gt;Node18 -->
<g id="edge28" class="edge">
<title>Node11&#45;&gt;Node18</title>
<path fill="none" stroke="orange" d="M299.71,-2509.67C266.82,-2488.89 227.34,-2458.71 203,-2422 184.71,-2394.42 184,-2383.1 184,-2350 184,-2350 184,-2350 184,-2035 184,-1895.75 177.55,-1859.74 198,-1722 205.65,-1670.5 227,-1660.57 227,-1608.5 227,-1608.5 227,-1608.5 227,-1102 227,-1038.4 294.05,-998.78 349.31,-976.92"/>
<polygon fill="orange" stroke="orange" points="298.01,-2512.73 308.35,-2515.01 301.69,-2506.78 298.01,-2512.73"/>
<text text-anchor="start" x="227" y="-1514" font-family="Helvetica,sans-Serif" font-size="10.00"> &lt; struct SDK::FGFxWidget</text>
<text text-anchor="middle" x="288.5" y="-1503" font-family="Helvetica,sans-Serif" font-size="10.00">Binding &gt;</text>
</g>
<!-- Node21 -->
<g id="node21" class="node">
<title>Node21</title>
<g id="a_node21"><a xlink:href="../../d3/d79/classSDK_1_1TArray.html" target="_top" xlink:title=" ">
<polygon fill="white" stroke="black" points="636.5,-2276.5 636.5,-2421.5 761.5,-2421.5 761.5,-2276.5 636.5,-2276.5"/>
<text text-anchor="middle" x="699" y="-2409.5" font-family="Helvetica,sans-Serif" font-size="10.00">SDK::TArray&lt; wchar_t &gt;</text>
<polyline fill="none" stroke="black" points="636.5,-2402.5 761.5,-2402.5 "/>
<text text-anchor="start" x="644.5" y="-2390.5" font-family="Helvetica,sans-Serif" font-size="10.00">&#45; Data</text>
<text text-anchor="start" x="644.5" y="-2379.5" font-family="Helvetica,sans-Serif" font-size="10.00">&#45; Count</text>
<text text-anchor="start" x="644.5" y="-2368.5" font-family="Helvetica,sans-Serif" font-size="10.00">&#45; Max</text>
<polyline fill="none" stroke="black" points="636.5,-2361.5 761.5,-2361.5 "/>
<text text-anchor="start" x="644.5" y="-2349.5" font-family="Helvetica,sans-Serif" font-size="10.00">+ TArray()</text>
<text text-anchor="start" x="644.5" y="-2338.5" font-family="Helvetica,sans-Serif" font-size="10.00">+ Num()</text>
<text text-anchor="start" x="644.5" y="-2327.5" font-family="Helvetica,sans-Serif" font-size="10.00">+ operator[]()</text>
<text text-anchor="start" x="644.5" y="-2316.5" font-family="Helvetica,sans-Serif" font-size="10.00">+ operator[]()</text>
<text text-anchor="start" x="644.5" y="-2305.5" font-family="Helvetica,sans-Serif" font-size="10.00">+ IsValidIndex()</text>
<text text-anchor="start" x="644.5" y="-2294.5" font-family="Helvetica,sans-Serif" font-size="10.00">+ GetByIndex()</text>
<text text-anchor="start" x="644.5" y="-2283.5" font-family="Helvetica,sans-Serif" font-size="10.00">+ GetByIndex()</text>
</a>
</g>
</g>
<!-- Node11&#45;&gt;Node21 -->
<g id="edge31" class="edge">
<title>Node11&#45;&gt;Node21</title>
<path fill="none" stroke="orange" d="M414.43,-2508.93C475.85,-2474.63 572.94,-2420.4 636.31,-2385.01"/>
<polygon fill="orange" stroke="orange" points="412.66,-2505.91 405.64,-2513.84 416.07,-2512.02 412.66,-2505.91"/>
<text text-anchor="middle" x="556" y="-2443" font-family="Helvetica,sans-Serif" font-size="10.00"> &lt; wchar_t &gt;</text>
</g>
<!-- Node12&#45;&gt;Node6 -->
<g id="edge12" class="edge">
<title>Node12&#45;&gt;Node6</title>
<path fill="none" stroke="#404040" d="M484.05,-1674.63C490.05,-1686.28 496.48,-1698.77 503.03,-1711.49"/>
<polygon fill="none" stroke="#404040" points="503.06,-1711.55 509.36,-1715.05 508.55,-1722.21 502.25,-1718.71 503.06,-1711.55"/>
<text text-anchor="middle" x="522.5" y="-1696" font-family="Helvetica,sans-Serif" font-size="10.00"> +GObjects</text>
</g>
<!-- Node13 -->
<g id="node13" class="node">
<title>Node13</title>
<g id="a_node13"><a xlink:href="../../d9/dfa/structSDK_1_1FPointer.html" target="_top" xlink:title=" ">
<polygon fill="white" stroke="black" points="628,-2133 628,-2201 726,-2201 726,-2133 628,-2133"/>
<text text-anchor="middle" x="677" y="-2189" font-family="Helvetica,sans-Serif" font-size="10.00">SDK::FPointer</text>
<polyline fill="none" stroke="black" points="628,-2182 726,-2182 "/>
<text text-anchor="start" x="636" y="-2170" font-family="Helvetica,sans-Serif" font-size="10.00">+ Dummy</text>
<text text-anchor="start" x="636" y="-2159" font-family="Helvetica,sans-Serif" font-size="10.00">+ UnknownData00</text>
<polyline fill="none" stroke="black" points="628,-2152 726,-2152 "/>
<text text-anchor="middle" x="677" y="-2140" font-family="Helvetica,sans-Serif" font-size="10.00"> </text>
</a>
</g>
</g>
<!-- Node13&#45;&gt;Node6 -->
<g id="edge15" class="edge">
<title>Node13&#45;&gt;Node6</title>
<path fill="none" stroke="#404040" d="M671.95,-2132.69C665.84,-2095.91 654.19,-2035.24 637,-1985 636.19,-1982.62 635.34,-1980.23 634.48,-1977.84"/>
<polygon fill="none" stroke="#404040" points="634.46,-1977.79 628.61,-1973.59 630.24,-1966.56 636.09,-1970.77 634.46,-1977.79"/>
<text text-anchor="middle" x="697.5" y="-2044.5" font-family="Helvetica,sans-Serif" font-size="10.00"> +StateFrame</text>
<text text-anchor="middle" x="697.5" y="-2033.5" font-family="Helvetica,sans-Serif" font-size="10.00">+VfTableObject</text>
<text text-anchor="middle" x="697.5" y="-2022.5" font-family="Helvetica,sans-Serif" font-size="10.00">+LinkerIndex</text>
</g>
<!-- Node14&#45;&gt;Node6 -->
<g id="edge16" class="edge">
<title>Node14&#45;&gt;Node6</title>
<path fill="none" stroke="#404040" d="M554.96,-1269.6C549.65,-1305.22 542.81,-1356.69 540,-1402 537.8,-1437.49 538.48,-1446.48 540,-1482 543.24,-1557.69 550.28,-1642.06 556.83,-1710.24"/>
<polygon fill="none" stroke="#404040" points="556.85,-1710.4 561.41,-1715.98 558,-1722.34 553.44,-1716.76 556.85,-1710.4"/>
<text text-anchor="middle" x="557.5" y="-1439.5" font-family="Helvetica,sans-Serif" font-size="10.00"> +Class</text>
</g>
<!-- Node14&#45;&gt;Node19 -->
<g id="edge27" class="edge">
<title>Node14&#45;&gt;Node19</title>
<path fill="none" stroke="#404040" d="M509.9,-1179.34C494.45,-1166.25 477.74,-1152.09 463.02,-1139.61"/>
<polygon fill="none" stroke="#404040" points="462.82,-1139.45 455.66,-1138.62 453.67,-1131.69 460.83,-1132.52 462.82,-1139.45"/>
<text text-anchor="middle" x="521" y="-1153" font-family="Helvetica,sans-Serif" font-size="10.00"> +WidgetClass</text>
</g>
<!-- Node15 -->
<g id="node15" class="node">
<title>Node15</title>
<g id="a_node15"><a xlink:href="../../df/d72/classSDK_1_1UState.html" target="_top" xlink:title=" ">
<polygon fill="white" stroke="black" points="659,-1307.5 659,-1364.5 757,-1364.5 757,-1307.5 659,-1307.5"/>
<text text-anchor="middle" x="708" y="-1352.5" font-family="Helvetica,sans-Serif" font-size="10.00">SDK::UState</text>
<polyline fill="none" stroke="black" points="659,-1345.5 757,-1345.5 "/>
<text text-anchor="start" x="667" y="-1333.5" font-family="Helvetica,sans-Serif" font-size="10.00">+ UnknownData00</text>
<polyline fill="none" stroke="black" points="659,-1326.5 757,-1326.5 "/>
<text text-anchor="start" x="667" y="-1314.5" font-family="Helvetica,sans-Serif" font-size="10.00">+ StaticClass()</text>
</a>
</g>
</g>
<!-- Node15&#45;&gt;Node14 -->
<g id="edge17" class="edge">
<title>Node15&#45;&gt;Node14</title>
<path fill="none" stroke="midnightblue" d="M663.04,-1301.28C649.67,-1291.25 634.82,-1280.11 620.71,-1269.53"/>
<polygon fill="none" stroke="midnightblue" points="661.06,-1304.17 671.16,-1307.37 665.26,-1298.57 661.06,-1304.17"/>
</g>
<!-- Node16 -->
<g id="node16" class="node">
<title>Node16</title>
<g id="a_node16"><a xlink:href="../../d8/de9/classSDK_1_1UStruct.html" target="_top" xlink:title=" ">
<polygon fill="white" stroke="black" points="710,-1402.5 710,-1481.5 808,-1481.5 808,-1402.5 710,-1402.5"/>
<text text-anchor="middle" x="759" y="-1469.5" font-family="Helvetica,sans-Serif" font-size="10.00">SDK::UStruct</text>
<polyline fill="none" stroke="black" points="710,-1462.5 808,-1462.5 "/>
<text text-anchor="start" x="718" y="-1450.5" font-family="Helvetica,sans-Serif" font-size="10.00">+ UnknownData00</text>
<text text-anchor="start" x="718" y="-1439.5" font-family="Helvetica,sans-Serif" font-size="10.00">+ PropertySize</text>
<text text-anchor="start" x="718" y="-1428.5" font-family="Helvetica,sans-Serif" font-size="10.00">+ UnknownData01</text>
<polyline fill="none" stroke="black" points="710,-1421.5 808,-1421.5 "/>
<text text-anchor="start" x="718" y="-1409.5" font-family="Helvetica,sans-Serif" font-size="10.00">+ StaticClass()</text>
</a>
</g>
</g>
<!-- Node16&#45;&gt;Node15 -->
<g id="edge18" class="edge">
<title>Node16&#45;&gt;Node15</title>
<path fill="none" stroke="midnightblue" d="M735.49,-1393.06C730.73,-1383.35 725.87,-1373.44 721.59,-1364.72"/>
<polygon fill="none" stroke="midnightblue" points="732.46,-1394.84 740.01,-1402.27 738.75,-1391.75 732.46,-1394.84"/>
</g>
<!-- Node17&#45;&gt;Node16 -->
<g id="edge19" class="edge">
<title>Node17&#45;&gt;Node16</title>
<path fill="none" stroke="midnightblue" d="M721.18,-1569.01C724.02,-1548.38 728.46,-1522.49 735,-1500 736.77,-1493.92 739,-1487.61 741.38,-1481.51"/>
<polygon fill="none" stroke="midnightblue" points="717.71,-1568.6 719.88,-1578.97 724.65,-1569.51 717.71,-1568.6"/>
</g>
<!-- Node17&#45;&gt;Node16 -->
<g id="edge22" class="edge">
<title>Node17&#45;&gt;Node16</title>
<path fill="none" stroke="#404040" d="M724.12,-1578.76C730.12,-1555.41 738.86,-1521.4 746.09,-1493.27"/>
<polygon fill="none" stroke="#404040" points="746.09,-1493.24 743.71,-1486.43 749.08,-1481.62 751.46,-1488.42 746.09,-1493.24"/>
<text text-anchor="middle" x="772" y="-1514" font-family="Helvetica,sans-Serif" font-size="10.00"> +SuperField</text>
<text text-anchor="middle" x="772" y="-1503" font-family="Helvetica,sans-Serif" font-size="10.00">+Children</text>
</g>
<!-- Node17&#45;&gt;Node17 -->
<g id="edge21" class="edge">
<title>Node17&#45;&gt;Node17</title>
<path fill="none" stroke="#404040" d="M758.71,-1624.11C768.91,-1622.88 776.5,-1617.34 776.5,-1607.5 776.5,-1601.96 774.1,-1597.79 770.18,-1594.98"/>
<polygon fill="none" stroke="#404040" points="770.01,-1594.92 763.01,-1596.67 758.71,-1590.89 765.7,-1589.13 770.01,-1594.92"/>
<text text-anchor="middle" x="792" y="-1605" font-family="Helvetica,sans-Serif" font-size="10.00"> +Next</text>
</g>
<!-- Node18&#45;&gt;Node5 -->
<g id="edge24" class="edge">
<title>Node18&#45;&gt;Node5</title>
<path fill="none" stroke="#404040" d="M492.8,-899.53C532.25,-870.15 581.4,-833.54 622.66,-802.81"/>
<polygon fill="none" stroke="#404040" points="622.8,-802.71 625.22,-795.92 632.42,-795.54 630,-802.33 622.8,-802.71"/>
<text text-anchor="middle" x="603.5" y="-855" font-family="Helvetica,sans-Serif" font-size="10.00"> +SubWidgetBindings</text>
</g>
<!-- Node19&#45;&gt;Node18 -->
<g id="edge25" class="edge">
<title>Node19&#45;&gt;Node18</title>
<path fill="none" stroke="#404040" d="M421,-1074.35C421,-1064.01 421,-1051.66 421,-1038.89"/>
<polygon fill="none" stroke="#404040" points="421,-1038.56 417,-1032.56 421,-1026.56 425,-1032.56 421,-1038.56"/>
<text text-anchor="middle" x="435" y="-1048" font-family="Helvetica,sans-Serif" font-size="10.00"> &#45;Data</text>
</g>
<!-- Node20 -->
<g id="node20" class="node">
<title>Node20</title>
<g id="a_node20"><a xlink:href="../../d3/d88/classSDK_1_1FString.html" target="_top" xlink:title=" ">
<polygon fill="white" stroke="black" points="798.5,-1985.5 798.5,-2086.5 873.5,-2086.5 873.5,-1985.5 798.5,-1985.5"/>
<text text-anchor="middle" x="836" y="-2074.5" font-family="Helvetica,sans-Serif" font-size="10.00">SDK::FString</text>
<polyline fill="none" stroke="black" points="798.5,-2067.5 873.5,-2067.5 "/>
<text text-anchor="middle" x="836" y="-2055.5" font-family="Helvetica,sans-Serif" font-size="10.00"> </text>
<polyline fill="none" stroke="black" points="798.5,-2048.5 873.5,-2048.5 "/>
<text text-anchor="start" x="806.5" y="-2036.5" font-family="Helvetica,sans-Serif" font-size="10.00">+ FString()</text>
<text text-anchor="start" x="806.5" y="-2025.5" font-family="Helvetica,sans-Serif" font-size="10.00">+ FString()</text>
<text text-anchor="start" x="806.5" y="-2014.5" font-family="Helvetica,sans-Serif" font-size="10.00">+ IsValid()</text>
<text text-anchor="start" x="806.5" y="-2003.5" font-family="Helvetica,sans-Serif" font-size="10.00">+ c_str()</text>
<text text-anchor="start" x="806.5" y="-1992.5" font-family="Helvetica,sans-Serif" font-size="10.00">+ ToString()</text>
</a>
</g>
</g>
<!-- Node20&#45;&gt;Node5 -->
<g id="edge29" class="edge">
<title>Node20&#45;&gt;Node5</title>
<path fill="none" stroke="#404040" d="M847.14,-1985.27C860.75,-1920.03 882,-1801.8 882,-1699.5 882,-1699.5 882,-1699.5 882,-953 882,-890.22 836.06,-835.86 791.25,-797.76"/>
<polygon fill="none" stroke="#404040" points="790.97,-797.53 783.8,-796.79 781.72,-789.89 788.9,-790.63 790.97,-797.53"/>
<text text-anchor="middle" x="905" y="-1333.5" font-family="Helvetica,sans-Serif" font-size="10.00"> +PathInfo</text>
</g>
<!-- Node21&#45;&gt;Node20 -->
<g id="edge30" class="edge">
<title>Node21&#45;&gt;Node20</title>
<path fill="none" stroke="midnightblue" d="M734.73,-2266.89C759.9,-2209.74 792.8,-2135.07 814.16,-2086.58"/>
<polygon fill="none" stroke="midnightblue" points="731.43,-2265.7 730.6,-2276.26 737.84,-2268.52 731.43,-2265.7"/>
</g>
<!-- Node22&#45;&gt;Node4 -->
<g id="edge32" class="edge">
<title>Node22&#45;&gt;Node4</title>
<path fill="none" stroke="#404040" d="M125.13,-1578.98C107.38,-1547.36 82,-1493.34 82,-1443 82,-1443 82,-1443 82,-738 82,-698.83 84.25,-655.48 86.81,-618.93"/>
<polygon fill="none" stroke="#404040" points="86.82,-618.78 83.26,-612.51 87.68,-606.81 91.24,-613.08 86.82,-618.78"/>
<text text-anchor="middle" x="147" y="-1153" font-family="Helvetica,sans-Serif" font-size="10.00"> +__EventListener__Delegate</text>
</g>
</g>
</svg>
