<?xml version="1.0" encoding="UTF-8" standalone="no"?>
<!DOCTYPE svg PUBLIC "-//W3C//DTD SVG 1.1//EN"
 "http://www.w3.org/Graphics/SVG/1.1/DTD/svg11.dtd">
<!-- Generated by graphviz version 2.41.20171026.1811 (20171026.1811)
 -->
<!-- Title: SDK::UEFGFxWidgetInteractionAbility_Refine Pages: 1 -->
<svg width="927pt" height="2751pt"
 viewBox="0.00 0.00 927.00 2751.00" xmlns="http://www.w3.org/2000/svg" xmlns:xlink="http://www.w3.org/1999/xlink">
<g id="graph0" class="graph" transform="scale(1 1) rotate(0) translate(4 2747)">
<title>SDK::UEFGFxWidgetInteractionAbility_Refine</title>
<polygon fill="white" stroke="transparent" points="-4,4 -4,-2747 923,-2747 923,4 -4,4"/>
<!-- Node1 -->
<g id="node1" class="node">
<title>Node1</title>
<g id="a_node1"><a xlink:title=" ">
<polygon fill="#bfbfbf" stroke="black" points="0,-0.5 0,-145.5 170,-145.5 170,-0.5 0,-0.5"/>
<text text-anchor="start" x="8" y="-133.5" font-family="Helvetica,sans-Serif" font-size="10.00">SDK::UEFGFxWidgetInteraction</text>
<text text-anchor="middle" x="85" y="-122.5" font-family="Helvetica,sans-Serif" font-size="10.00">Ability_Refine</text>
<polyline fill="none" stroke="black" points="0,-115.5 170,-115.5 "/>
<text text-anchor="middle" x="85" y="-103.5" font-family="Helvetica,sans-Serif" font-size="10.00"> </text>
<polyline fill="none" stroke="black" points="0,-96.5 170,-96.5 "/>
<text text-anchor="start" x="8" y="-84.5" font-family="Helvetica,sans-Serif" font-size="10.00">+ InteractionMarbleStoneRollOut()</text>
<text text-anchor="start" x="8" y="-73.5" font-family="Helvetica,sans-Serif" font-size="10.00">+ InteractionMarbleStoneRollOver()</text>
<text text-anchor="start" x="8" y="-62.5" font-family="Helvetica,sans-Serif" font-size="10.00">+ ChangeCursor()</text>
<text text-anchor="start" x="8" y="-51.5" font-family="Helvetica,sans-Serif" font-size="10.00">+ InteractionMarbleStoneClick()</text>
<text text-anchor="start" x="8" y="-40.5" font-family="Helvetica,sans-Serif" font-size="10.00">+ InteractionMarbleChangeTab</text>
<text text-anchor="start" x="8" y="-29.5" font-family="Helvetica,sans-Serif" font-size="10.00">Click()</text>
<text text-anchor="start" x="8" y="-18.5" font-family="Helvetica,sans-Serif" font-size="10.00">+ InteractionMarbleStoneSelected()</text>
<text text-anchor="start" x="8" y="-7.5" font-family="Helvetica,sans-Serif" font-size="10.00">+ StaticClass()</text>
</a>
</g>
</g>
<!-- Node2 -->
<g id="node2" class="node">
<title>Node2</title>
<g id="a_node2"><a xlink:href="../../d0/d88/classSDK_1_1UEFUIWindowContent.html" target="_top" xlink:title=" ">
<polygon fill="white" stroke="black" points="13,-183.5 13,-240.5 157,-240.5 157,-183.5 13,-183.5"/>
<text text-anchor="middle" x="85" y="-228.5" font-family="Helvetica,sans-Serif" font-size="10.00">SDK::UEFUIWindowContent</text>
<polyline fill="none" stroke="black" points="13,-221.5 157,-221.5 "/>
<text text-anchor="middle" x="85" y="-209.5" font-family="Helvetica,sans-Serif" font-size="10.00"> </text>
<polyline fill="none" stroke="black" points="13,-202.5 157,-202.5 "/>
<text text-anchor="start" x="21" y="-190.5" font-family="Helvetica,sans-Serif" font-size="10.00">+ StaticClass()</text>
</a>
</g>
</g>
<!-- Node2&#45;&gt;Node1 -->
<g id="edge1" class="edge">
<title>Node2&#45;&gt;Node1</title>
<path fill="none" stroke="midnightblue" d="M85,-173.21C85,-164.58 85,-155.14 85,-145.61"/>
<polygon fill="none" stroke="midnightblue" points="81.5,-173.28 85,-183.28 88.5,-173.28 81.5,-173.28"/>
</g>
<!-- Node3 -->
<g id="node3" class="node">
<title>Node3</title>
<g id="a_node3"><a xlink:href="../../d2/d77/classSDK_1_1UEFUIControl.html" target="_top" xlink:title=" ">
<polygon fill="white" stroke="black" points="32,-278.5 32,-335.5 138,-335.5 138,-278.5 32,-278.5"/>
<text text-anchor="middle" x="85" y="-323.5" font-family="Helvetica,sans-Serif" font-size="10.00">SDK::UEFUIControl</text>
<polyline fill="none" stroke="black" points="32,-316.5 138,-316.5 "/>
<text text-anchor="middle" x="85" y="-304.5" font-family="Helvetica,sans-Serif" font-size="10.00"> </text>
<polyline fill="none" stroke="black" points="32,-297.5 138,-297.5 "/>
<text text-anchor="start" x="40" y="-285.5" font-family="Helvetica,sans-Serif" font-size="10.00">+ StaticClass()</text>
</a>
</g>
</g>
<!-- Node3&#45;&gt;Node2 -->
<g id="edge2" class="edge">
<title>Node3&#45;&gt;Node2</title>
<path fill="none" stroke="midnightblue" d="M85,-268.24C85,-259.03 85,-249.35 85,-240.71"/>
<polygon fill="none" stroke="midnightblue" points="81.5,-268.35 85,-278.35 88.5,-268.35 81.5,-268.35"/>
</g>
<!-- Node4 -->
<g id="node4" class="node">
<title>Node4</title>
<g id="a_node4"><a xlink:href="../../dd/d3c/classSDK_1_1UEFUIComponent.html" target="_top" xlink:title=" ">
<polygon fill="white" stroke="black" points="22.5,-373.5 22.5,-551.5 147.5,-551.5 147.5,-373.5 22.5,-373.5"/>
<text text-anchor="middle" x="85" y="-539.5" font-family="Helvetica,sans-Serif" font-size="10.00">SDK::UEFUIComponent</text>
<polyline fill="none" stroke="black" points="22.5,-532.5 147.5,-532.5 "/>
<text text-anchor="middle" x="85" y="-520.5" font-family="Helvetica,sans-Serif" font-size="10.00"> </text>
<polyline fill="none" stroke="black" points="22.5,-513.5 147.5,-513.5 "/>
<text text-anchor="start" x="30.5" y="-501.5" font-family="Helvetica,sans-Serif" font-size="10.00">+ InvalidateSize()</text>
<text text-anchor="start" x="30.5" y="-490.5" font-family="Helvetica,sans-Serif" font-size="10.00">+ InvalidateData()</text>
<text text-anchor="start" x="30.5" y="-479.5" font-family="Helvetica,sans-Serif" font-size="10.00">+ Invalidate()</text>
<text text-anchor="start" x="30.5" y="-468.5" font-family="Helvetica,sans-Serif" font-size="10.00">+ ValidateNow()</text>
<text text-anchor="start" x="30.5" y="-457.5" font-family="Helvetica,sans-Serif" font-size="10.00">+ HasFocus()</text>
<text text-anchor="start" x="30.5" y="-446.5" font-family="Helvetica,sans-Serif" font-size="10.00">+ GetY()</text>
<text text-anchor="start" x="30.5" y="-435.5" font-family="Helvetica,sans-Serif" font-size="10.00">+ SetY()</text>
<text text-anchor="start" x="30.5" y="-424.5" font-family="Helvetica,sans-Serif" font-size="10.00">+ GetX()</text>
<text text-anchor="start" x="30.5" y="-413.5" font-family="Helvetica,sans-Serif" font-size="10.00">+ SetX()</text>
<text text-anchor="start" x="30.5" y="-402.5" font-family="Helvetica,sans-Serif" font-size="10.00">+ GetHeight()</text>
<text text-anchor="start" x="30.5" y="-391.5" font-family="Helvetica,sans-Serif" font-size="10.00">and 10 more...</text>
<text text-anchor="start" x="30.5" y="-380.5" font-family="Helvetica,sans-Serif" font-size="10.00">+ StaticClass()</text>
</a>
</g>
</g>
<!-- Node4&#45;&gt;Node3 -->
<g id="edge3" class="edge">
<title>Node4&#45;&gt;Node3</title>
<path fill="none" stroke="midnightblue" d="M85,-363.02C85,-353.1 85,-343.7 85,-335.57"/>
<polygon fill="none" stroke="midnightblue" points="81.5,-363.1 85,-373.1 88.5,-363.1 81.5,-363.1"/>
</g>
<!-- Node5 -->
<g id="node5" class="node">
<title>Node5</title>
<g id="a_node5"><a xlink:href="../../dc/dd3/classSDK_1_1UGFxClikWidget.html" target="_top" xlink:title=" ">
<polygon fill="white" stroke="black" points="1.5,-589.5 1.5,-734.5 168.5,-734.5 168.5,-589.5 1.5,-589.5"/>
<text text-anchor="middle" x="85" y="-722.5" font-family="Helvetica,sans-Serif" font-size="10.00">SDK::UGFxClikWidget</text>
<polyline fill="none" stroke="black" points="1.5,-715.5 168.5,-715.5 "/>
<text text-anchor="middle" x="85" y="-703.5" font-family="Helvetica,sans-Serif" font-size="10.00"> </text>
<polyline fill="none" stroke="black" points="1.5,-696.5 168.5,-696.5 "/>
<text text-anchor="start" x="9.5" y="-684.5" font-family="Helvetica,sans-Serif" font-size="10.00">+ ASRemoveAllEventListeners()</text>
<text text-anchor="start" x="9.5" y="-673.5" font-family="Helvetica,sans-Serif" font-size="10.00">+ AS3AddEventListener()</text>
<text text-anchor="start" x="9.5" y="-662.5" font-family="Helvetica,sans-Serif" font-size="10.00">+ ASAddEventListener()</text>
<text text-anchor="start" x="9.5" y="-651.5" font-family="Helvetica,sans-Serif" font-size="10.00">+ SetListener()</text>
<text text-anchor="start" x="9.5" y="-640.5" font-family="Helvetica,sans-Serif" font-size="10.00">+ GetEventStringFromTypename()</text>
<text text-anchor="start" x="9.5" y="-629.5" font-family="Helvetica,sans-Serif" font-size="10.00">+ RemoveAllEventListeners()</text>
<text text-anchor="start" x="9.5" y="-618.5" font-family="Helvetica,sans-Serif" font-size="10.00">+ AddEventListener()</text>
<text text-anchor="start" x="9.5" y="-607.5" font-family="Helvetica,sans-Serif" font-size="10.00">+ EventListener()</text>
<text text-anchor="start" x="9.5" y="-596.5" font-family="Helvetica,sans-Serif" font-size="10.00">+ StaticClass()</text>
</a>
</g>
</g>
<!-- Node5&#45;&gt;Node4 -->
<g id="edge4" class="edge">
<title>Node5&#45;&gt;Node4</title>
<path fill="none" stroke="midnightblue" d="M85,-579.25C85,-570.15 85,-560.85 85,-551.68"/>
<polygon fill="none" stroke="midnightblue" points="81.5,-579.42 85,-589.42 88.5,-579.42 81.5,-579.42"/>
</g>
<!-- Node6 -->
<g id="node6" class="node">
<title>Node6</title>
<g id="a_node6"><a xlink:href="../../d2/d23/classSDK_1_1UGFxObject.html" target="_top" xlink:title=" ">
<polygon fill="white" stroke="black" points="623.5,-772.5 623.5,-961.5 772.5,-961.5 772.5,-772.5 623.5,-772.5"/>
<text text-anchor="middle" x="698" y="-949.5" font-family="Helvetica,sans-Serif" font-size="10.00">SDK::UGFxObject</text>
<polyline fill="none" stroke="black" points="623.5,-942.5 772.5,-942.5 "/>
<text text-anchor="start" x="631.5" y="-930.5" font-family="Helvetica,sans-Serif" font-size="10.00">+ Value</text>
<text text-anchor="start" x="631.5" y="-919.5" font-family="Helvetica,sans-Serif" font-size="10.00">+ bListenExternalInterfaceCall</text>
<polyline fill="none" stroke="black" points="623.5,-912.5 772.5,-912.5 "/>
<text text-anchor="start" x="631.5" y="-900.5" font-family="Helvetica,sans-Serif" font-size="10.00">+ DestroyGFxObject()</text>
<text text-anchor="start" x="631.5" y="-889.5" font-family="Helvetica,sans-Serif" font-size="10.00">+ WidgetUnloaded()</text>
<text text-anchor="start" x="631.5" y="-878.5" font-family="Helvetica,sans-Serif" font-size="10.00">+ WidgetInitialized()</text>
<text text-anchor="start" x="631.5" y="-867.5" font-family="Helvetica,sans-Serif" font-size="10.00">+ GotoAndStopI()</text>
<text text-anchor="start" x="631.5" y="-856.5" font-family="Helvetica,sans-Serif" font-size="10.00">+ GotoAndStop()</text>
<text text-anchor="start" x="631.5" y="-845.5" font-family="Helvetica,sans-Serif" font-size="10.00">+ GotoAndPlayI()</text>
<text text-anchor="start" x="631.5" y="-834.5" font-family="Helvetica,sans-Serif" font-size="10.00">+ GotoAndPlay()</text>
<text text-anchor="start" x="631.5" y="-823.5" font-family="Helvetica,sans-Serif" font-size="10.00">+ ActionScriptString()</text>
<text text-anchor="start" x="631.5" y="-812.5" font-family="Helvetica,sans-Serif" font-size="10.00">+ ActionScriptFloat()</text>
<text text-anchor="start" x="631.5" y="-801.5" font-family="Helvetica,sans-Serif" font-size="10.00">+ ActionScriptInt()</text>
<text text-anchor="start" x="631.5" y="-790.5" font-family="Helvetica,sans-Serif" font-size="10.00">and 69 more...</text>
<text text-anchor="start" x="631.5" y="-779.5" font-family="Helvetica,sans-Serif" font-size="10.00">+ StaticClass()</text>
</a>
</g>
</g>
<!-- Node6&#45;&gt;Node5 -->
<g id="edge5" class="edge">
<title>Node6&#45;&gt;Node5</title>
<path fill="none" stroke="midnightblue" d="M613.79,-838.11C496.65,-799.32 285.76,-729.48 168.82,-690.76"/>
<polygon fill="none" stroke="midnightblue" points="612.85,-841.49 623.45,-841.31 615.05,-834.84 612.85,-841.49"/>
</g>
<!-- Node7 -->
<g id="node7" class="node">
<title>Node7</title>
<g id="a_node7"><a xlink:href="../../d9/d45/classSDK_1_1UObject.html" target="_top" xlink:title=" ">
<polygon fill="white" stroke="black" points="463,-1850.5 463,-2094.5 661,-2094.5 661,-1850.5 463,-1850.5"/>
<text text-anchor="middle" x="562" y="-2082.5" font-family="Helvetica,sans-Serif" font-size="10.00">SDK::UObject</text>
<polyline fill="none" stroke="black" points="463,-2075.5 661,-2075.5 "/>
<text text-anchor="start" x="471" y="-2063.5" font-family="Helvetica,sans-Serif" font-size="10.00">+ ObjectInternalInteger</text>
<text text-anchor="start" x="471" y="-2052.5" font-family="Helvetica,sans-Serif" font-size="10.00">+ NetIndex</text>
<polyline fill="none" stroke="black" points="463,-2045.5 661,-2045.5 "/>
<text text-anchor="start" x="471" y="-2033.5" font-family="Helvetica,sans-Serif" font-size="10.00">+ UObject::GetName()</text>
<text text-anchor="start" x="471" y="-2022.5" font-family="Helvetica,sans-Serif" font-size="10.00">+ GetFullName()</text>
<text text-anchor="start" x="471" y="-2011.5" font-family="Helvetica,sans-Serif" font-size="10.00">+ IsA()</text>
<text text-anchor="start" x="471" y="-2000.5" font-family="Helvetica,sans-Serif" font-size="10.00">+ ProcessEvent()</text>
<text text-anchor="start" x="471" y="-1989.5" font-family="Helvetica,sans-Serif" font-size="10.00">+ STATIC_ProfNodeEvent()</text>
<text text-anchor="start" x="471" y="-1978.5" font-family="Helvetica,sans-Serif" font-size="10.00">+ STATIC_ProfNodeSetDepthThreshold()</text>
<text text-anchor="start" x="471" y="-1967.5" font-family="Helvetica,sans-Serif" font-size="10.00">+ STATIC_ProfNodeSetTimeThreshold</text>
<text text-anchor="start" x="471" y="-1956.5" font-family="Helvetica,sans-Serif" font-size="10.00">Seconds()</text>
<text text-anchor="start" x="471" y="-1945.5" font-family="Helvetica,sans-Serif" font-size="10.00">+ STATIC_ProfNodeStop()</text>
<text text-anchor="start" x="471" y="-1934.5" font-family="Helvetica,sans-Serif" font-size="10.00">+ STATIC_ProfNodeStart()</text>
<text text-anchor="start" x="471" y="-1923.5" font-family="Helvetica,sans-Serif" font-size="10.00">+ STATIC_GetStringFromGuid()</text>
<text text-anchor="start" x="471" y="-1912.5" font-family="Helvetica,sans-Serif" font-size="10.00">and 298 more...</text>
<text text-anchor="start" x="471" y="-1901.5" font-family="Helvetica,sans-Serif" font-size="10.00">+ GetGlobalObjects()</text>
<text text-anchor="start" x="471" y="-1890.5" font-family="Helvetica,sans-Serif" font-size="10.00">+ FindObject()</text>
<text text-anchor="start" x="471" y="-1879.5" font-family="Helvetica,sans-Serif" font-size="10.00">+ FindClass()</text>
<text text-anchor="start" x="471" y="-1868.5" font-family="Helvetica,sans-Serif" font-size="10.00">+ GetObjectCasted()</text>
<text text-anchor="start" x="471" y="-1857.5" font-family="Helvetica,sans-Serif" font-size="10.00">+ StaticClass()</text>
</a>
</g>
</g>
<!-- Node7&#45;&gt;Node6 -->
<g id="edge6" class="edge">
<title>Node7&#45;&gt;Node6</title>
<path fill="none" stroke="midnightblue" d="M670.39,-1926.45C743.61,-1887.99 827,-1824.81 827,-1736.5 827,-1736.5 827,-1736.5 827,-1081 827,-1031.5 801.19,-983.67 772.67,-945.92"/>
<polygon fill="none" stroke="midnightblue" points="668.35,-1923.56 661.05,-1931.25 671.55,-1929.79 668.35,-1923.56"/>
</g>
<!-- Node7&#45;&gt;Node7 -->
<g id="edge12" class="edge">
<title>Node7&#45;&gt;Node7</title>
<path fill="none" stroke="#404040" d="M661.01,-1995.53C671.94,-1991.15 679,-1983.48 679,-1972.5 679,-1965.64 676.24,-1960.07 671.51,-1955.78"/>
<polygon fill="none" stroke="#404040" points="671.3,-1955.66 664.09,-1955.99 661.01,-1949.47 668.22,-1949.14 671.3,-1955.66"/>
<text text-anchor="middle" x="718.5" y="-1981" font-family="Helvetica,sans-Serif" font-size="10.00"> +Outer</text>
<text text-anchor="middle" x="718.5" y="-1970" font-family="Helvetica,sans-Serif" font-size="10.00">+Linker</text>
<text text-anchor="middle" x="718.5" y="-1959" font-family="Helvetica,sans-Serif" font-size="10.00">+ObjectArchetype</text>
</g>
<!-- Node13 -->
<g id="node13" class="node">
<title>Node13</title>
<g id="a_node13"><a xlink:href="../../d3/d79/classSDK_1_1TArray.html" target="_top" xlink:title=" ">
<polygon fill="white" stroke="black" points="360.5,-1668.5 360.5,-1802.5 521.5,-1802.5 521.5,-1668.5 360.5,-1668.5"/>
<text text-anchor="middle" x="441" y="-1790.5" font-family="Helvetica,sans-Serif" font-size="10.00">SDK::TArray&lt; SDK::UObject * &gt;</text>
<polyline fill="none" stroke="black" points="360.5,-1783.5 521.5,-1783.5 "/>
<text text-anchor="start" x="368.5" y="-1771.5" font-family="Helvetica,sans-Serif" font-size="10.00">&#45; Count</text>
<text text-anchor="start" x="368.5" y="-1760.5" font-family="Helvetica,sans-Serif" font-size="10.00">&#45; Max</text>
<polyline fill="none" stroke="black" points="360.5,-1753.5 521.5,-1753.5 "/>
<text text-anchor="start" x="368.5" y="-1741.5" font-family="Helvetica,sans-Serif" font-size="10.00">+ TArray()</text>
<text text-anchor="start" x="368.5" y="-1730.5" font-family="Helvetica,sans-Serif" font-size="10.00">+ Num()</text>
<text text-anchor="start" x="368.5" y="-1719.5" font-family="Helvetica,sans-Serif" font-size="10.00">+ operator[]()</text>
<text text-anchor="start" x="368.5" y="-1708.5" font-family="Helvetica,sans-Serif" font-size="10.00">+ operator[]()</text>
<text text-anchor="start" x="368.5" y="-1697.5" font-family="Helvetica,sans-Serif" font-size="10.00">+ IsValidIndex()</text>
<text text-anchor="start" x="368.5" y="-1686.5" font-family="Helvetica,sans-Serif" font-size="10.00">+ GetByIndex()</text>
<text text-anchor="start" x="368.5" y="-1675.5" font-family="Helvetica,sans-Serif" font-size="10.00">+ GetByIndex()</text>
</a>
</g>
</g>
<!-- Node7&#45;&gt;Node13 -->
<g id="edge14" class="edge">
<title>Node7&#45;&gt;Node13</title>
<path fill="none" stroke="#404040" d="M464.79,-1850.34C461.58,-1844.28 458.62,-1838.16 456,-1832 453.61,-1826.4 451.6,-1820.47 449.91,-1814.42"/>
<polygon fill="none" stroke="#404040" points="449.89,-1814.34 444.57,-1809.46 447.03,-1802.68 452.34,-1807.56 449.89,-1814.34"/>
<text text-anchor="middle" x="470" y="-1824" font-family="Helvetica,sans-Serif" font-size="10.00"> &#45;Data</text>
</g>
<!-- Node15 -->
<g id="node15" class="node">
<title>Node15</title>
<g id="a_node15"><a xlink:href="../../d7/d85/classSDK_1_1UClass.html" target="_top" xlink:title=" ">
<polygon fill="white" stroke="black" points="492.5,-1307.5 492.5,-1397.5 613.5,-1397.5 613.5,-1307.5 492.5,-1307.5"/>
<text text-anchor="middle" x="553" y="-1385.5" font-family="Helvetica,sans-Serif" font-size="10.00">SDK::UClass</text>
<polyline fill="none" stroke="black" points="492.5,-1378.5 613.5,-1378.5 "/>
<text text-anchor="start" x="500.5" y="-1366.5" font-family="Helvetica,sans-Serif" font-size="10.00">+ UnknownData00</text>
<text text-anchor="start" x="500.5" y="-1355.5" font-family="Helvetica,sans-Serif" font-size="10.00">+ UnknownData01</text>
<polyline fill="none" stroke="black" points="492.5,-1348.5 613.5,-1348.5 "/>
<text text-anchor="start" x="500.5" y="-1336.5" font-family="Helvetica,sans-Serif" font-size="10.00">+ CreateDefaultObject()</text>
<text text-anchor="start" x="500.5" y="-1325.5" font-family="Helvetica,sans-Serif" font-size="10.00">+ CreateDefaultObject()</text>
<text text-anchor="start" x="500.5" y="-1314.5" font-family="Helvetica,sans-Serif" font-size="10.00">+ StaticClass()</text>
</a>
</g>
</g>
<!-- Node7&#45;&gt;Node15 -->
<g id="edge24" class="edge">
<title>Node7&#45;&gt;Node15</title>
<path fill="none" stroke="#404040" d="M580.55,-1850.42C584.75,-1813.9 588,-1773.65 588,-1736.5 588,-1736.5 588,-1736.5 588,-1463 588,-1444.92 583.62,-1425.92 577.95,-1408.92"/>
<polygon fill="none" stroke="#404040" points="577.91,-1408.81 572.12,-1404.51 573.87,-1397.51 579.65,-1401.81 577.91,-1408.81"/>
<text text-anchor="middle" x="635.5" y="-1567.5" font-family="Helvetica,sans-Serif" font-size="10.00"> +ClassDefaultObject</text>
</g>
<!-- Node18 -->
<g id="node18" class="node">
<title>Node18</title>
<g id="a_node18"><a xlink:href="../../de/dd6/classSDK_1_1UField.html" target="_top" xlink:title=" ">
<polygon fill="white" stroke="black" points="666.5,-1707 666.5,-1764 749.5,-1764 749.5,-1707 666.5,-1707"/>
<text text-anchor="middle" x="708" y="-1752" font-family="Helvetica,sans-Serif" font-size="10.00">SDK::UField</text>
<polyline fill="none" stroke="black" points="666.5,-1745 749.5,-1745 "/>
<text text-anchor="middle" x="708" y="-1733" font-family="Helvetica,sans-Serif" font-size="10.00"> </text>
<polyline fill="none" stroke="black" points="666.5,-1726 749.5,-1726 "/>
<text text-anchor="start" x="674.5" y="-1714" font-family="Helvetica,sans-Serif" font-size="10.00">+ StaticClass()</text>
</a>
</g>
</g>
<!-- Node7&#45;&gt;Node18 -->
<g id="edge21" class="edge">
<title>Node7&#45;&gt;Node18</title>
<path fill="none" stroke="midnightblue" d="M642.75,-1841.52C660.95,-1812.24 678.49,-1784 690.8,-1764.19"/>
<polygon fill="none" stroke="midnightblue" points="639.66,-1839.87 637.35,-1850.21 645.6,-1843.57 639.66,-1839.87"/>
</g>
<!-- Node23 -->
<g id="node23" class="node">
<title>Node23</title>
<g id="a_node23"><a xlink:href="../../dc/dd6/structSDK_1_1FScriptDelegate.html" target="_top" xlink:title=" ">
<polygon fill="white" stroke="black" points="76,-1707 76,-1764 190,-1764 190,-1707 76,-1707"/>
<text text-anchor="middle" x="133" y="-1752" font-family="Helvetica,sans-Serif" font-size="10.00">SDK::FScriptDelegate</text>
<polyline fill="none" stroke="black" points="76,-1745 190,-1745 "/>
<text text-anchor="middle" x="133" y="-1733" font-family="Helvetica,sans-Serif" font-size="10.00"> </text>
<polyline fill="none" stroke="black" points="76,-1726 190,-1726 "/>
<text text-anchor="middle" x="133" y="-1714" font-family="Helvetica,sans-Serif" font-size="10.00"> </text>
</a>
</g>
</g>
<!-- Node7&#45;&gt;Node23 -->
<g id="edge35" class="edge">
<title>Node7&#45;&gt;Node23</title>
<path fill="none" stroke="#404040" d="M462.77,-1917.14C379.84,-1871.72 264.22,-1808.38 194.21,-1770.03"/>
<polygon fill="none" stroke="#404040" points="193.9,-1769.86 186.72,-1770.49 183.38,-1764.1 190.56,-1763.47 193.9,-1769.86"/>
<text text-anchor="middle" x="316" y="-1824" font-family="Helvetica,sans-Serif" font-size="10.00"> +Object</text>
</g>
<!-- Node8 -->
<g id="node8" class="node">
<title>Node8</title>
<g id="a_node8"><a xlink:href="../../d0/d22/structSDK_1_1FQWord.html" target="_top" xlink:title=" ">
<polygon fill="white" stroke="black" points="521,-2261 521,-2329 601,-2329 601,-2261 521,-2261"/>
<text text-anchor="middle" x="561" y="-2317" font-family="Helvetica,sans-Serif" font-size="10.00">SDK::FQWord</text>
<polyline fill="none" stroke="black" points="521,-2310 601,-2310 "/>
<text text-anchor="start" x="529" y="-2298" font-family="Helvetica,sans-Serif" font-size="10.00">+ A</text>
<text text-anchor="start" x="529" y="-2287" font-family="Helvetica,sans-Serif" font-size="10.00">+ B</text>
<polyline fill="none" stroke="black" points="521,-2280 601,-2280 "/>
<text text-anchor="middle" x="561" y="-2268" font-family="Helvetica,sans-Serif" font-size="10.00"> </text>
</a>
</g>
</g>
<!-- Node8&#45;&gt;Node7 -->
<g id="edge7" class="edge">
<title>Node8&#45;&gt;Node7</title>
<path fill="none" stroke="#404040" d="M561.1,-2260.91C561.22,-2224.48 561.41,-2163.57 561.58,-2107.19"/>
<polygon fill="none" stroke="#404040" points="561.58,-2106.86 557.6,-2100.85 561.62,-2094.86 565.6,-2100.87 561.58,-2106.86"/>
<text text-anchor="middle" x="593" y="-2161.5" font-family="Helvetica,sans-Serif" font-size="10.00"> +ObjectFlags</text>
</g>
<!-- Node9 -->
<g id="node9" class="node">
<title>Node9</title>
<g id="a_node9"><a xlink:href="../../d0/db6/structSDK_1_1FName.html" target="_top" xlink:title=" ">
<polygon fill="white" stroke="black" points="253.5,-2233.5 253.5,-2356.5 360.5,-2356.5 360.5,-2233.5 253.5,-2233.5"/>
<text text-anchor="middle" x="307" y="-2344.5" font-family="Helvetica,sans-Serif" font-size="10.00">SDK::FName</text>
<polyline fill="none" stroke="black" points="253.5,-2337.5 360.5,-2337.5 "/>
<text text-anchor="start" x="261.5" y="-2325.5" font-family="Helvetica,sans-Serif" font-size="10.00">+ Index</text>
<text text-anchor="start" x="261.5" y="-2314.5" font-family="Helvetica,sans-Serif" font-size="10.00">+ Number</text>
<polyline fill="none" stroke="black" points="253.5,-2307.5 360.5,-2307.5 "/>
<text text-anchor="start" x="261.5" y="-2295.5" font-family="Helvetica,sans-Serif" font-size="10.00">+ FName()</text>
<text text-anchor="start" x="261.5" y="-2284.5" font-family="Helvetica,sans-Serif" font-size="10.00">+ FName()</text>
<text text-anchor="start" x="261.5" y="-2273.5" font-family="Helvetica,sans-Serif" font-size="10.00">+ FName()</text>
<text text-anchor="start" x="261.5" y="-2262.5" font-family="Helvetica,sans-Serif" font-size="10.00">+ GetName()</text>
<text text-anchor="start" x="261.5" y="-2251.5" font-family="Helvetica,sans-Serif" font-size="10.00">+ operator==()</text>
<text text-anchor="start" x="261.5" y="-2240.5" font-family="Helvetica,sans-Serif" font-size="10.00">+ GetGlobalNames()</text>
</a>
</g>
</g>
<!-- Node9&#45;&gt;Node7 -->
<g id="edge8" class="edge">
<title>Node9&#45;&gt;Node7</title>
<path fill="none" stroke="#404040" d="M355.26,-2233.34C384.31,-2196.83 422.45,-2148.89 458.06,-2104.14"/>
<polygon fill="none" stroke="#404040" points="458.14,-2104.04 458.75,-2096.85 465.61,-2094.65 465.01,-2101.83 458.14,-2104.04"/>
<text text-anchor="middle" x="468" y="-2161.5" font-family="Helvetica,sans-Serif" font-size="10.00"> +Name</text>
</g>
<!-- Node20 -->
<g id="node20" class="node">
<title>Node20</title>
<g id="a_node20"><a xlink:href="../../d0/d8a/structSDK_1_1FGFxWidgetBinding.html" target="_top" xlink:title=" ">
<polygon fill="white" stroke="black" points="346.5,-1202.5 346.5,-1259.5 477.5,-1259.5 477.5,-1202.5 346.5,-1202.5"/>
<text text-anchor="middle" x="412" y="-1247.5" font-family="Helvetica,sans-Serif" font-size="10.00">SDK::FGFxWidgetBinding</text>
<polyline fill="none" stroke="black" points="346.5,-1240.5 477.5,-1240.5 "/>
<text text-anchor="middle" x="412" y="-1228.5" font-family="Helvetica,sans-Serif" font-size="10.00"> </text>
<polyline fill="none" stroke="black" points="346.5,-1221.5 477.5,-1221.5 "/>
<text text-anchor="middle" x="412" y="-1209.5" font-family="Helvetica,sans-Serif" font-size="10.00"> </text>
</a>
</g>
</g>
<!-- Node9&#45;&gt;Node20 -->
<g id="edge27" class="edge">
<title>Node9&#45;&gt;Node20</title>
<path fill="none" stroke="#404040" d="M311.33,-2233.46C323.3,-2065.51 356,-1603.89 356,-1571 356,-1571 356,-1571 356,-1351.5 356,-1322.23 369.95,-1292.41 383.92,-1269.88"/>
<polygon fill="none" stroke="#404040" points="383.97,-1269.81 383.88,-1262.6 390.51,-1259.75 390.59,-1266.97 383.97,-1269.81"/>
<text text-anchor="middle" x="389.5" y="-1567.5" font-family="Helvetica,sans-Serif" font-size="10.00"> +WidgetName</text>
</g>
<!-- Node9&#45;&gt;Node23 -->
<g id="edge34" class="edge">
<title>Node9&#45;&gt;Node23</title>
<path fill="none" stroke="#404040" d="M285.92,-2233.21C272.45,-2193.9 254.78,-2141.56 240,-2095 203.35,-1979.55 163.32,-1842.07 144.28,-1775.91"/>
<polygon fill="none" stroke="#404040" points="144.18,-1775.57 138.68,-1770.91 140.86,-1764.03 146.37,-1768.7 144.18,-1775.57"/>
<text text-anchor="middle" x="276.5" y="-1970" font-family="Helvetica,sans-Serif" font-size="10.00"> +FunctionName</text>
</g>
<!-- Node10 -->
<g id="node10" class="node">
<title>Node10</title>
<g id="a_node10"><a xlink:href="../../d3/d79/classSDK_1_1TArray.html" target="_top" xlink:title=" ">
<polygon fill="white" stroke="black" points="203,-2410 203,-2544 383,-2544 383,-2410 203,-2410"/>
<text text-anchor="middle" x="293" y="-2532" font-family="Helvetica,sans-Serif" font-size="10.00">SDK::TArray&lt; SDK::FNameEntry * &gt;</text>
<polyline fill="none" stroke="black" points="203,-2525 383,-2525 "/>
<text text-anchor="start" x="211" y="-2513" font-family="Helvetica,sans-Serif" font-size="10.00">&#45; Count</text>
<text text-anchor="start" x="211" y="-2502" font-family="Helvetica,sans-Serif" font-size="10.00">&#45; Max</text>
<polyline fill="none" stroke="black" points="203,-2495 383,-2495 "/>
<text text-anchor="start" x="211" y="-2483" font-family="Helvetica,sans-Serif" font-size="10.00">+ TArray()</text>
<text text-anchor="start" x="211" y="-2472" font-family="Helvetica,sans-Serif" font-size="10.00">+ Num()</text>
<text text-anchor="start" x="211" y="-2461" font-family="Helvetica,sans-Serif" font-size="10.00">+ operator[]()</text>
<text text-anchor="start" x="211" y="-2450" font-family="Helvetica,sans-Serif" font-size="10.00">+ operator[]()</text>
<text text-anchor="start" x="211" y="-2439" font-family="Helvetica,sans-Serif" font-size="10.00">+ IsValidIndex()</text>
<text text-anchor="start" x="211" y="-2428" font-family="Helvetica,sans-Serif" font-size="10.00">+ GetByIndex()</text>
<text text-anchor="start" x="211" y="-2417" font-family="Helvetica,sans-Serif" font-size="10.00">+ GetByIndex()</text>
</a>
</g>
</g>
<!-- Node10&#45;&gt;Node9 -->
<g id="edge9" class="edge">
<title>Node10&#45;&gt;Node9</title>
<path fill="none" stroke="#404040" d="M298.13,-2410C299.17,-2396.63 300.27,-2382.5 301.33,-2368.91"/>
<polygon fill="none" stroke="#404040" points="301.35,-2368.59 297.83,-2362.29 302.28,-2356.62 305.81,-2362.91 301.35,-2368.59"/>
<text text-anchor="middle" x="325.5" y="-2378" font-family="Helvetica,sans-Serif" font-size="10.00"> +GNames</text>
</g>
<!-- Node11 -->
<g id="node11" class="node">
<title>Node11</title>
<g id="a_node11"><a xlink:href="../../d7/ddf/classSDK_1_1FNameEntry.html" target="_top" xlink:title=" ">
<polygon fill="white" stroke="black" points="82.5,-2636 82.5,-2704 181.5,-2704 181.5,-2636 82.5,-2636"/>
<text text-anchor="middle" x="132" y="-2692" font-family="Helvetica,sans-Serif" font-size="10.00">SDK::FNameEntry</text>
<polyline fill="none" stroke="black" points="82.5,-2685 181.5,-2685 "/>
<text text-anchor="start" x="90.5" y="-2673" font-family="Helvetica,sans-Serif" font-size="10.00">+ UnknownData00</text>
<text text-anchor="start" x="90.5" y="-2662" font-family="Helvetica,sans-Serif" font-size="10.00">+ name</text>
<polyline fill="none" stroke="black" points="82.5,-2655 181.5,-2655 "/>
<text text-anchor="start" x="90.5" y="-2643" font-family="Helvetica,sans-Serif" font-size="10.00">+ GetName()</text>
</a>
</g>
</g>
<!-- Node11&#45;&gt;Node10 -->
<g id="edge10" class="edge">
<title>Node11&#45;&gt;Node10</title>
<path fill="none" stroke="#404040" d="M160.04,-2635.73C179.23,-2612.97 205.46,-2581.86 229.55,-2553.28"/>
<polygon fill="none" stroke="#404040" points="229.55,-2553.27 230.36,-2546.11 237.28,-2544.1 236.47,-2551.26 229.55,-2553.27"/>
<text text-anchor="middle" x="227" y="-2571" font-family="Helvetica,sans-Serif" font-size="10.00"> &#45;Data</text>
</g>
<!-- Node12 -->
<g id="node12" class="node">
<title>Node12</title>
<g id="a_node12"><a xlink:href="../../d3/d79/classSDK_1_1TArray.html" target="_top" xlink:title=" ">
<polygon fill="white" stroke="black" points="299.5,-2597.5 299.5,-2742.5 396.5,-2742.5 396.5,-2597.5 299.5,-2597.5"/>
<text text-anchor="middle" x="348" y="-2730.5" font-family="Helvetica,sans-Serif" font-size="10.00">SDK::TArray&lt; T &gt;</text>
<polyline fill="none" stroke="black" points="299.5,-2723.5 396.5,-2723.5 "/>
<text text-anchor="start" x="307.5" y="-2711.5" font-family="Helvetica,sans-Serif" font-size="10.00">&#45; Data</text>
<text text-anchor="start" x="307.5" y="-2700.5" font-family="Helvetica,sans-Serif" font-size="10.00">&#45; Count</text>
<text text-anchor="start" x="307.5" y="-2689.5" font-family="Helvetica,sans-Serif" font-size="10.00">&#45; Max</text>
<polyline fill="none" stroke="black" points="299.5,-2682.5 396.5,-2682.5 "/>
<text text-anchor="start" x="307.5" y="-2670.5" font-family="Helvetica,sans-Serif" font-size="10.00">+ TArray()</text>
<text text-anchor="start" x="307.5" y="-2659.5" font-family="Helvetica,sans-Serif" font-size="10.00">+ Num()</text>
<text text-anchor="start" x="307.5" y="-2648.5" font-family="Helvetica,sans-Serif" font-size="10.00">+ operator[]()</text>
<text text-anchor="start" x="307.5" y="-2637.5" font-family="Helvetica,sans-Serif" font-size="10.00">+ operator[]()</text>
<text text-anchor="start" x="307.5" y="-2626.5" font-family="Helvetica,sans-Serif" font-size="10.00">+ IsValidIndex()</text>
<text text-anchor="start" x="307.5" y="-2615.5" font-family="Helvetica,sans-Serif" font-size="10.00">+ GetByIndex()</text>
<text text-anchor="start" x="307.5" y="-2604.5" font-family="Helvetica,sans-Serif" font-size="10.00">+ GetByIndex()</text>
</a>
</g>
</g>
<!-- Node12&#45;&gt;Node10 -->
<g id="edge11" class="edge">
<title>Node12&#45;&gt;Node10</title>
<path fill="none" stroke="orange" d="M294.48,-2599.6C291.09,-2592.89 288.17,-2585.98 286,-2579 282.55,-2567.92 281.35,-2555.84 281.46,-2544.02"/>
<polygon fill="orange" stroke="orange" points="291.53,-2601.5 299.38,-2608.61 297.68,-2598.16 291.53,-2601.5"/>
<text text-anchor="middle" x="341.5" y="-2571" font-family="Helvetica,sans-Serif" font-size="10.00"> &lt; SDK::FNameEntry * &gt;</text>
</g>
<!-- Node12&#45;&gt;Node13 -->
<g id="edge15" class="edge">
<title>Node12&#45;&gt;Node13</title>
<path fill="none" stroke="orange" d="M394.4,-2587.9C395.37,-2584.94 396.25,-2581.96 397,-2579 422.55,-2478.65 402.69,-2216.4 397,-2113 390.1,-1987.54 372.9,-1957.46 366,-1832 365.73,-1827.12 364.26,-1825.57 366,-1821 368.4,-1814.67 371.52,-1808.52 375.12,-1802.6"/>
<polygon fill="orange" stroke="orange" points="391.09,-2586.74 390.97,-2597.33 397.67,-2589.13 391.09,-2586.74"/>
<text text-anchor="middle" x="454.5" y="-2292.5" font-family="Helvetica,sans-Serif" font-size="10.00"> &lt; SDK::UObject * &gt;</text>
</g>
<!-- Node19 -->
<g id="node19" class="node">
<title>Node19</title>
<g id="a_node19"><a xlink:href="../../d3/d79/classSDK_1_1TArray.html" target="_top" xlink:title=" ">
<polygon fill="white" stroke="black" points="340.5,-1009.5 340.5,-1154.5 483.5,-1154.5 483.5,-1009.5 340.5,-1009.5"/>
<text text-anchor="start" x="348.5" y="-1142.5" font-family="Helvetica,sans-Serif" font-size="10.00">SDK::TArray&lt; struct</text>
<text text-anchor="middle" x="412" y="-1131.5" font-family="Helvetica,sans-Serif" font-size="10.00"> SDK::FGFxWidgetBinding &gt;</text>
<polyline fill="none" stroke="black" points="340.5,-1124.5 483.5,-1124.5 "/>
<text text-anchor="start" x="348.5" y="-1112.5" font-family="Helvetica,sans-Serif" font-size="10.00">&#45; Count</text>
<text text-anchor="start" x="348.5" y="-1101.5" font-family="Helvetica,sans-Serif" font-size="10.00">&#45; Max</text>
<polyline fill="none" stroke="black" points="340.5,-1094.5 483.5,-1094.5 "/>
<text text-anchor="start" x="348.5" y="-1082.5" font-family="Helvetica,sans-Serif" font-size="10.00">+ TArray()</text>
<text text-anchor="start" x="348.5" y="-1071.5" font-family="Helvetica,sans-Serif" font-size="10.00">+ Num()</text>
<text text-anchor="start" x="348.5" y="-1060.5" font-family="Helvetica,sans-Serif" font-size="10.00">+ operator[]()</text>
<text text-anchor="start" x="348.5" y="-1049.5" font-family="Helvetica,sans-Serif" font-size="10.00">+ operator[]()</text>
<text text-anchor="start" x="348.5" y="-1038.5" font-family="Helvetica,sans-Serif" font-size="10.00">+ IsValidIndex()</text>
<text text-anchor="start" x="348.5" y="-1027.5" font-family="Helvetica,sans-Serif" font-size="10.00">+ GetByIndex()</text>
<text text-anchor="start" x="348.5" y="-1016.5" font-family="Helvetica,sans-Serif" font-size="10.00">+ GetByIndex()</text>
</a>
</g>
</g>
<!-- Node12&#45;&gt;Node19 -->
<g id="edge29" class="edge">
<title>Node12&#45;&gt;Node19</title>
<path fill="none" stroke="orange" d="M290.71,-2637.67C257.82,-2616.89 218.34,-2586.71 194,-2550 175.71,-2522.42 175,-2511.1 175,-2478 175,-2478 175,-2478 175,-2163 175,-2023.75 168.55,-1987.74 189,-1850 196.65,-1798.5 218,-1788.57 218,-1736.5 218,-1736.5 218,-1736.5 218,-1230 218,-1166.4 285.05,-1126.78 340.31,-1104.92"/>
<polygon fill="orange" stroke="orange" points="289.01,-2640.73 299.35,-2643.01 292.69,-2634.78 289.01,-2640.73"/>
<text text-anchor="start" x="218" y="-1642" font-family="Helvetica,sans-Serif" font-size="10.00"> &lt; struct SDK::FGFxWidget</text>
<text text-anchor="middle" x="279.5" y="-1631" font-family="Helvetica,sans-Serif" font-size="10.00">Binding &gt;</text>
</g>
<!-- Node22 -->
<g id="node22" class="node">
<title>Node22</title>
<g id="a_node22"><a xlink:href="../../d3/d79/classSDK_1_1TArray.html" target="_top" xlink:title=" ">
<polygon fill="white" stroke="black" points="627.5,-2404.5 627.5,-2549.5 752.5,-2549.5 752.5,-2404.5 627.5,-2404.5"/>
<text text-anchor="middle" x="690" y="-2537.5" font-family="Helvetica,sans-Serif" font-size="10.00">SDK::TArray&lt; wchar_t &gt;</text>
<polyline fill="none" stroke="black" points="627.5,-2530.5 752.5,-2530.5 "/>
<text text-anchor="start" x="635.5" y="-2518.5" font-family="Helvetica,sans-Serif" font-size="10.00">&#45; Data</text>
<text text-anchor="start" x="635.5" y="-2507.5" font-family="Helvetica,sans-Serif" font-size="10.00">&#45; Count</text>
<text text-anchor="start" x="635.5" y="-2496.5" font-family="Helvetica,sans-Serif" font-size="10.00">&#45; Max</text>
<polyline fill="none" stroke="black" points="627.5,-2489.5 752.5,-2489.5 "/>
<text text-anchor="start" x="635.5" y="-2477.5" font-family="Helvetica,sans-Serif" font-size="10.00">+ TArray()</text>
<text text-anchor="start" x="635.5" y="-2466.5" font-family="Helvetica,sans-Serif" font-size="10.00">+ Num()</text>
<text text-anchor="start" x="635.5" y="-2455.5" font-family="Helvetica,sans-Serif" font-size="10.00">+ operator[]()</text>
<text text-anchor="start" x="635.5" y="-2444.5" font-family="Helvetica,sans-Serif" font-size="10.00">+ operator[]()</text>
<text text-anchor="start" x="635.5" y="-2433.5" font-family="Helvetica,sans-Serif" font-size="10.00">+ IsValidIndex()</text>
<text text-anchor="start" x="635.5" y="-2422.5" font-family="Helvetica,sans-Serif" font-size="10.00">+ GetByIndex()</text>
<text text-anchor="start" x="635.5" y="-2411.5" font-family="Helvetica,sans-Serif" font-size="10.00">+ GetByIndex()</text>
</a>
</g>
</g>
<!-- Node12&#45;&gt;Node22 -->
<g id="edge32" class="edge">
<title>Node12&#45;&gt;Node22</title>
<path fill="none" stroke="orange" d="M405.43,-2636.93C466.85,-2602.63 563.94,-2548.4 627.31,-2513.01"/>
<polygon fill="orange" stroke="orange" points="403.66,-2633.91 396.64,-2641.84 407.07,-2640.02 403.66,-2633.91"/>
<text text-anchor="middle" x="547" y="-2571" font-family="Helvetica,sans-Serif" font-size="10.00"> &lt; wchar_t &gt;</text>
</g>
<!-- Node13&#45;&gt;Node7 -->
<g id="edge13" class="edge">
<title>Node13&#45;&gt;Node7</title>
<path fill="none" stroke="#404040" d="M475.05,-1802.63C481.05,-1814.28 487.48,-1826.77 494.03,-1839.49"/>
<polygon fill="none" stroke="#404040" points="494.06,-1839.55 500.36,-1843.05 499.55,-1850.21 493.25,-1846.71 494.06,-1839.55"/>
<text text-anchor="middle" x="513.5" y="-1824" font-family="Helvetica,sans-Serif" font-size="10.00"> +GObjects</text>
</g>
<!-- Node14 -->
<g id="node14" class="node">
<title>Node14</title>
<g id="a_node14"><a xlink:href="../../d9/dfa/structSDK_1_1FPointer.html" target="_top" xlink:title=" ">
<polygon fill="white" stroke="black" points="619,-2261 619,-2329 717,-2329 717,-2261 619,-2261"/>
<text text-anchor="middle" x="668" y="-2317" font-family="Helvetica,sans-Serif" font-size="10.00">SDK::FPointer</text>
<polyline fill="none" stroke="black" points="619,-2310 717,-2310 "/>
<text text-anchor="start" x="627" y="-2298" font-family="Helvetica,sans-Serif" font-size="10.00">+ Dummy</text>
<text text-anchor="start" x="627" y="-2287" font-family="Helvetica,sans-Serif" font-size="10.00">+ UnknownData00</text>
<polyline fill="none" stroke="black" points="619,-2280 717,-2280 "/>
<text text-anchor="middle" x="668" y="-2268" font-family="Helvetica,sans-Serif" font-size="10.00"> </text>
</a>
</g>
</g>
<!-- Node14&#45;&gt;Node7 -->
<g id="edge16" class="edge">
<title>Node14&#45;&gt;Node7</title>
<path fill="none" stroke="#404040" d="M662.95,-2260.69C656.84,-2223.91 645.19,-2163.24 628,-2113 627.19,-2110.62 626.34,-2108.23 625.48,-2105.84"/>
<polygon fill="none" stroke="#404040" points="625.46,-2105.79 619.61,-2101.59 621.24,-2094.56 627.09,-2098.77 625.46,-2105.79"/>
<text text-anchor="middle" x="688.5" y="-2172.5" font-family="Helvetica,sans-Serif" font-size="10.00"> +StateFrame</text>
<text text-anchor="middle" x="688.5" y="-2161.5" font-family="Helvetica,sans-Serif" font-size="10.00">+VfTableObject</text>
<text text-anchor="middle" x="688.5" y="-2150.5" font-family="Helvetica,sans-Serif" font-size="10.00">+LinkerIndex</text>
</g>
<!-- Node15&#45;&gt;Node7 -->
<g id="edge17" class="edge">
<title>Node15&#45;&gt;Node7</title>
<path fill="none" stroke="#404040" d="M545.96,-1397.6C540.65,-1433.22 533.81,-1484.69 531,-1530 528.8,-1565.49 529.48,-1574.48 531,-1610 534.24,-1685.69 541.28,-1770.06 547.83,-1838.24"/>
<polygon fill="none" stroke="#404040" points="547.85,-1838.4 552.41,-1843.98 549,-1850.34 544.44,-1844.76 547.85,-1838.4"/>
<text text-anchor="middle" x="548.5" y="-1567.5" font-family="Helvetica,sans-Serif" font-size="10.00"> +Class</text>
</g>
<!-- Node15&#45;&gt;Node20 -->
<g id="edge28" class="edge">
<title>Node15&#45;&gt;Node20</title>
<path fill="none" stroke="#404040" d="M500.9,-1307.34C485.45,-1294.25 468.74,-1280.09 454.02,-1267.61"/>
<polygon fill="none" stroke="#404040" points="453.82,-1267.45 446.66,-1266.62 444.67,-1259.69 451.83,-1260.52 453.82,-1267.45"/>
<text text-anchor="middle" x="512" y="-1281" font-family="Helvetica,sans-Serif" font-size="10.00"> +WidgetClass</text>
</g>
<!-- Node16 -->
<g id="node16" class="node">
<title>Node16</title>
<g id="a_node16"><a xlink:href="../../df/d72/classSDK_1_1UState.html" target="_top" xlink:title=" ">
<polygon fill="white" stroke="black" points="650,-1435.5 650,-1492.5 748,-1492.5 748,-1435.5 650,-1435.5"/>
<text text-anchor="middle" x="699" y="-1480.5" font-family="Helvetica,sans-Serif" font-size="10.00">SDK::UState</text>
<polyline fill="none" stroke="black" points="650,-1473.5 748,-1473.5 "/>
<text text-anchor="start" x="658" y="-1461.5" font-family="Helvetica,sans-Serif" font-size="10.00">+ UnknownData00</text>
<polyline fill="none" stroke="black" points="650,-1454.5 748,-1454.5 "/>
<text text-anchor="start" x="658" y="-1442.5" font-family="Helvetica,sans-Serif" font-size="10.00">+ StaticClass()</text>
</a>
</g>
</g>
<!-- Node16&#45;&gt;Node15 -->
<g id="edge18" class="edge">
<title>Node16&#45;&gt;Node15</title>
<path fill="none" stroke="midnightblue" d="M654.04,-1429.28C640.67,-1419.25 625.82,-1408.11 611.71,-1397.53"/>
<polygon fill="none" stroke="midnightblue" points="652.06,-1432.17 662.16,-1435.37 656.26,-1426.57 652.06,-1432.17"/>
</g>
<!-- Node17 -->
<g id="node17" class="node">
<title>Node17</title>
<g id="a_node17"><a xlink:href="../../d8/de9/classSDK_1_1UStruct.html" target="_top" xlink:title=" ">
<polygon fill="white" stroke="black" points="701,-1530.5 701,-1609.5 799,-1609.5 799,-1530.5 701,-1530.5"/>
<text text-anchor="middle" x="750" y="-1597.5" font-family="Helvetica,sans-Serif" font-size="10.00">SDK::UStruct</text>
<polyline fill="none" stroke="black" points="701,-1590.5 799,-1590.5 "/>
<text text-anchor="start" x="709" y="-1578.5" font-family="Helvetica,sans-Serif" font-size="10.00">+ UnknownData00</text>
<text text-anchor="start" x="709" y="-1567.5" font-family="Helvetica,sans-Serif" font-size="10.00">+ PropertySize</text>
<text text-anchor="start" x="709" y="-1556.5" font-family="Helvetica,sans-Serif" font-size="10.00">+ UnknownData01</text>
<polyline fill="none" stroke="black" points="701,-1549.5 799,-1549.5 "/>
<text text-anchor="start" x="709" y="-1537.5" font-family="Helvetica,sans-Serif" font-size="10.00">+ StaticClass()</text>
</a>
</g>
</g>
<!-- Node17&#45;&gt;Node16 -->
<g id="edge19" class="edge">
<title>Node17&#45;&gt;Node16</title>
<path fill="none" stroke="midnightblue" d="M726.49,-1521.06C721.73,-1511.35 716.87,-1501.44 712.59,-1492.72"/>
<polygon fill="none" stroke="midnightblue" points="723.46,-1522.84 731.01,-1530.27 729.75,-1519.75 723.46,-1522.84"/>
</g>
<!-- Node18&#45;&gt;Node17 -->
<g id="edge20" class="edge">
<title>Node18&#45;&gt;Node17</title>
<path fill="none" stroke="midnightblue" d="M712.18,-1697.01C715.02,-1676.38 719.46,-1650.49 726,-1628 727.77,-1621.92 730,-1615.61 732.38,-1609.51"/>
<polygon fill="none" stroke="midnightblue" points="708.71,-1696.6 710.88,-1706.97 715.65,-1697.51 708.71,-1696.6"/>
</g>
<!-- Node18&#45;&gt;Node17 -->
<g id="edge23" class="edge">
<title>Node18&#45;&gt;Node17</title>
<path fill="none" stroke="#404040" d="M715.12,-1706.76C721.12,-1683.41 729.86,-1649.4 737.09,-1621.27"/>
<polygon fill="none" stroke="#404040" points="737.09,-1621.24 734.71,-1614.43 740.08,-1609.62 742.46,-1616.42 737.09,-1621.24"/>
<text text-anchor="middle" x="763" y="-1642" font-family="Helvetica,sans-Serif" font-size="10.00"> +SuperField</text>
<text text-anchor="middle" x="763" y="-1631" font-family="Helvetica,sans-Serif" font-size="10.00">+Children</text>
</g>
<!-- Node18&#45;&gt;Node18 -->
<g id="edge22" class="edge">
<title>Node18&#45;&gt;Node18</title>
<path fill="none" stroke="#404040" d="M749.71,-1752.11C759.91,-1750.88 767.5,-1745.34 767.5,-1735.5 767.5,-1729.96 765.1,-1725.79 761.18,-1722.98"/>
<polygon fill="none" stroke="#404040" points="761.01,-1722.92 754.01,-1724.67 749.71,-1718.89 756.7,-1717.13 761.01,-1722.92"/>
<text text-anchor="middle" x="783" y="-1733" font-family="Helvetica,sans-Serif" font-size="10.00"> +Next</text>
</g>
<!-- Node19&#45;&gt;Node6 -->
<g id="edge25" class="edge">
<title>Node19&#45;&gt;Node6</title>
<path fill="none" stroke="#404040" d="M483.8,-1027.53C523.25,-998.15 572.4,-961.54 613.66,-930.81"/>
<polygon fill="none" stroke="#404040" points="613.8,-930.71 616.22,-923.92 623.42,-923.54 621,-930.33 613.8,-930.71"/>
<text text-anchor="middle" x="594.5" y="-983" font-family="Helvetica,sans-Serif" font-size="10.00"> +SubWidgetBindings</text>
</g>
<!-- Node20&#45;&gt;Node19 -->
<g id="edge26" class="edge">
<title>Node20&#45;&gt;Node19</title>
<path fill="none" stroke="#404040" d="M412,-1202.35C412,-1192.01 412,-1179.66 412,-1166.89"/>
<polygon fill="none" stroke="#404040" points="412,-1166.56 408,-1160.56 412,-1154.56 416,-1160.56 412,-1166.56"/>
<text text-anchor="middle" x="426" y="-1176" font-family="Helvetica,sans-Serif" font-size="10.00"> &#45;Data</text>
</g>
<!-- Node21 -->
<g id="node21" class="node">
<title>Node21</title>
<g id="a_node21"><a xlink:href="../../d3/d88/classSDK_1_1FString.html" target="_top" xlink:title=" ">
<polygon fill="white" stroke="black" points="789.5,-2113.5 789.5,-2214.5 864.5,-2214.5 864.5,-2113.5 789.5,-2113.5"/>
<text text-anchor="middle" x="827" y="-2202.5" font-family="Helvetica,sans-Serif" font-size="10.00">SDK::FString</text>
<polyline fill="none" stroke="black" points="789.5,-2195.5 864.5,-2195.5 "/>
<text text-anchor="middle" x="827" y="-2183.5" font-family="Helvetica,sans-Serif" font-size="10.00"> </text>
<polyline fill="none" stroke="black" points="789.5,-2176.5 864.5,-2176.5 "/>
<text text-anchor="start" x="797.5" y="-2164.5" font-family="Helvetica,sans-Serif" font-size="10.00">+ FString()</text>
<text text-anchor="start" x="797.5" y="-2153.5" font-family="Helvetica,sans-Serif" font-size="10.00">+ FString()</text>
<text text-anchor="start" x="797.5" y="-2142.5" font-family="Helvetica,sans-Serif" font-size="10.00">+ IsValid()</text>
<text text-anchor="start" x="797.5" y="-2131.5" font-family="Helvetica,sans-Serif" font-size="10.00">+ c_str()</text>
<text text-anchor="start" x="797.5" y="-2120.5" font-family="Helvetica,sans-Serif" font-size="10.00">+ ToString()</text>
</a>
</g>
</g>
<!-- Node21&#45;&gt;Node6 -->
<g id="edge30" class="edge">
<title>Node21&#45;&gt;Node6</title>
<path fill="none" stroke="#404040" d="M838.14,-2113.27C851.75,-2048.03 873,-1929.8 873,-1827.5 873,-1827.5 873,-1827.5 873,-1081 873,-1018.22 827.06,-963.86 782.25,-925.76"/>
<polygon fill="none" stroke="#404040" points="781.97,-925.53 774.8,-924.79 772.72,-917.89 779.9,-918.63 781.97,-925.53"/>
<text text-anchor="middle" x="896" y="-1461.5" font-family="Helvetica,sans-Serif" font-size="10.00"> +PathInfo</text>
</g>
<!-- Node22&#45;&gt;Node21 -->
<g id="edge31" class="edge">
<title>Node22&#45;&gt;Node21</title>
<path fill="none" stroke="midnightblue" d="M725.73,-2394.89C750.9,-2337.74 783.8,-2263.07 805.16,-2214.58"/>
<polygon fill="none" stroke="midnightblue" points="722.43,-2393.7 721.6,-2404.26 728.84,-2396.52 722.43,-2393.7"/>
</g>
<!-- Node23&#45;&gt;Node5 -->
<g id="edge33" class="edge">
<title>Node23&#45;&gt;Node5</title>
<path fill="none" stroke="#404040" d="M116.13,-1706.98C98.38,-1675.36 73,-1621.34 73,-1571 73,-1571 73,-1571 73,-866 73,-826.83 75.25,-783.48 77.81,-746.93"/>
<polygon fill="none" stroke="#404040" points="77.82,-746.78 74.26,-740.51 78.68,-734.81 82.24,-741.08 77.82,-746.78"/>
<text text-anchor="middle" x="138" y="-1281" font-family="Helvetica,sans-Serif" font-size="10.00"> +__EventListener__Delegate</text>
</g>
</g>
</svg>
