<?xml version="1.0" encoding="UTF-8" standalone="no"?>
<!DOCTYPE svg PUBLIC "-//W3C//DTD SVG 1.1//EN"
 "http://www.w3.org/Graphics/SVG/1.1/DTD/svg11.dtd">
<!-- Generated by graphviz version 2.41.20171026.1811 (20171026.1811)
 -->
<!-- Title: SDK::UGFxInteraction Pages: 1 -->
<svg width="962pt" height="1617pt"
 viewBox="0.00 0.00 961.93 1617.00" xmlns="http://www.w3.org/2000/svg" xmlns:xlink="http://www.w3.org/1999/xlink">
<g id="graph0" class="graph" transform="scale(1 1) rotate(0) translate(4 1613)">
<title>SDK::UGFxInteraction</title>
<polygon fill="white" stroke="transparent" points="-4,4 -4,-1613 957.93,-1613 957.93,4 -4,4"/>
<!-- Node1 -->
<g id="node1" class="node">
<title>Node1</title>
<g id="a_node1"><a xlink:title=" ">
<polygon fill="#bfbfbf" stroke="black" points="107.43,-128.5 107.43,-251.5 282.43,-251.5 282.43,-128.5 107.43,-128.5"/>
<text text-anchor="middle" x="194.93" y="-239.5" font-family="Helvetica,sans-Serif" font-size="10.00">SDK::UGFxInteraction</text>
<polyline fill="none" stroke="black" points="107.43,-232.5 282.43,-232.5 "/>
<text text-anchor="start" x="115.43" y="-220.5" font-family="Helvetica,sans-Serif" font-size="10.00">+ bFakeMobileTouches</text>
<polyline fill="none" stroke="black" points="107.43,-213.5 282.43,-213.5 "/>
<text text-anchor="start" x="115.43" y="-201.5" font-family="Helvetica,sans-Serif" font-size="10.00">+ CloseAllMoviePlayers()</text>
<text text-anchor="start" x="115.43" y="-190.5" font-family="Helvetica,sans-Serif" font-size="10.00">+ NotifySplitscreenLayoutChanged()</text>
<text text-anchor="start" x="115.43" y="-179.5" font-family="Helvetica,sans-Serif" font-size="10.00">+ NotifyPlayerRemoved()</text>
<text text-anchor="start" x="115.43" y="-168.5" font-family="Helvetica,sans-Serif" font-size="10.00">+ NotifyPlayerAdded()</text>
<text text-anchor="start" x="115.43" y="-157.5" font-family="Helvetica,sans-Serif" font-size="10.00">+ NotifyGameSessionEnded()</text>
<text text-anchor="start" x="115.43" y="-146.5" font-family="Helvetica,sans-Serif" font-size="10.00">+ GetFocusMovie()</text>
<text text-anchor="start" x="115.43" y="-135.5" font-family="Helvetica,sans-Serif" font-size="10.00">+ StaticClass()</text>
</a>
</g>
</g>
<!-- Node2 -->
<g id="node2" class="node">
<title>Node2</title>
<g id="a_node2"><a xlink:href="../../d3/d03/classSDK_1_1UInteraction.html" target="_top" xlink:title=" ">
<polygon fill="white" stroke="black" points="286.43,-289.5 286.43,-467.5 443.43,-467.5 443.43,-289.5 286.43,-289.5"/>
<text text-anchor="middle" x="364.93" y="-455.5" font-family="Helvetica,sans-Serif" font-size="10.00">SDK::UInteraction</text>
<polyline fill="none" stroke="black" points="286.43,-448.5 443.43,-448.5 "/>
<text text-anchor="middle" x="364.93" y="-436.5" font-family="Helvetica,sans-Serif" font-size="10.00"> </text>
<polyline fill="none" stroke="black" points="286.43,-429.5 443.43,-429.5 "/>
<text text-anchor="start" x="294.43" y="-417.5" font-family="Helvetica,sans-Serif" font-size="10.00">+ NotifyPlayerRemoved()</text>
<text text-anchor="start" x="294.43" y="-406.5" font-family="Helvetica,sans-Serif" font-size="10.00">+ NotifyPlayerAdded()</text>
<text text-anchor="start" x="294.43" y="-395.5" font-family="Helvetica,sans-Serif" font-size="10.00">+ NotifyGameSessionEnded()</text>
<text text-anchor="start" x="294.43" y="-384.5" font-family="Helvetica,sans-Serif" font-size="10.00">+ Initialized()</text>
<text text-anchor="start" x="294.43" y="-373.5" font-family="Helvetica,sans-Serif" font-size="10.00">+ OnInitialize()</text>
<text text-anchor="start" x="294.43" y="-362.5" font-family="Helvetica,sans-Serif" font-size="10.00">+ Init()</text>
<text text-anchor="start" x="294.43" y="-351.5" font-family="Helvetica,sans-Serif" font-size="10.00">+ PostRender()</text>
<text text-anchor="start" x="294.43" y="-340.5" font-family="Helvetica,sans-Serif" font-size="10.00">+ Tick()</text>
<text text-anchor="start" x="294.43" y="-329.5" font-family="Helvetica,sans-Serif" font-size="10.00">+ OnReceivedNativeInputChar()</text>
<text text-anchor="start" x="294.43" y="-318.5" font-family="Helvetica,sans-Serif" font-size="10.00">+ OnReceivedNativeInputAxis()</text>
<text text-anchor="start" x="294.43" y="-307.5" font-family="Helvetica,sans-Serif" font-size="10.00">+ OnReceivedNativeInputKey()</text>
<text text-anchor="start" x="294.43" y="-296.5" font-family="Helvetica,sans-Serif" font-size="10.00">+ StaticClass()</text>
</a>
</g>
</g>
<!-- Node2&#45;&gt;Node1 -->
<g id="edge1" class="edge">
<title>Node2&#45;&gt;Node1</title>
<path fill="none" stroke="midnightblue" d="M279.49,-283.76C269.5,-272.8 259.51,-261.85 250.09,-251.51"/>
<polygon fill="none" stroke="midnightblue" points="277.08,-286.31 286.4,-291.35 282.25,-281.6 277.08,-286.31"/>
</g>
<!-- Node3 -->
<g id="node3" class="node">
<title>Node3</title>
<g id="a_node3"><a xlink:href="../../da/dd4/classSDK_1_1UUIRoot.html" target="_top" xlink:title=" ">
<polygon fill="white" stroke="black" points="687.93,-581.5 687.93,-737.5 881.93,-737.5 881.93,-581.5 687.93,-581.5"/>
<text text-anchor="middle" x="784.93" y="-725.5" font-family="Helvetica,sans-Serif" font-size="10.00">SDK::UUIRoot</text>
<polyline fill="none" stroke="black" points="687.93,-718.5 881.93,-718.5 "/>
<text text-anchor="middle" x="784.93" y="-706.5" font-family="Helvetica,sans-Serif" font-size="10.00"> </text>
<polyline fill="none" stroke="black" points="687.93,-699.5 881.93,-699.5 "/>
<text text-anchor="start" x="695.93" y="-687.5" font-family="Helvetica,sans-Serif" font-size="10.00">+ STATIC_SafeCaps()</text>
<text text-anchor="start" x="695.93" y="-676.5" font-family="Helvetica,sans-Serif" font-size="10.00">+ STATIC_GetOnlinePlayerInterfaceEx()</text>
<text text-anchor="start" x="695.93" y="-665.5" font-family="Helvetica,sans-Serif" font-size="10.00">+ STATIC_GetOnlinePlayerInterface()</text>
<text text-anchor="start" x="695.93" y="-654.5" font-family="Helvetica,sans-Serif" font-size="10.00">+ STATIC_GetOnlineGameInterface()</text>
<text text-anchor="start" x="695.93" y="-643.5" font-family="Helvetica,sans-Serif" font-size="10.00">+ STATIC_StaticResolveData</text>
<text text-anchor="start" x="695.93" y="-632.5" font-family="Helvetica,sans-Serif" font-size="10.00">Store()</text>
<text text-anchor="start" x="695.93" y="-621.5" font-family="Helvetica,sans-Serif" font-size="10.00">+ STATIC_GetSceneClient()</text>
<text text-anchor="start" x="695.93" y="-610.5" font-family="Helvetica,sans-Serif" font-size="10.00">+ STATIC_GetCurrentUIController()</text>
<text text-anchor="start" x="695.93" y="-599.5" font-family="Helvetica,sans-Serif" font-size="10.00">+ STATIC_GetInputPlatformType()</text>
<text text-anchor="start" x="695.93" y="-588.5" font-family="Helvetica,sans-Serif" font-size="10.00">+ StaticClass()</text>
</a>
</g>
</g>
<!-- Node3&#45;&gt;Node2 -->
<g id="edge2" class="edge">
<title>Node3&#45;&gt;Node2</title>
<path fill="none" stroke="midnightblue" d="M679.21,-581.17C679.12,-581.11 679.02,-581.06 678.93,-581 585,-523.15 547.93,-531.8 457.93,-468 453.12,-464.58 448.3,-460.93 443.53,-457.12"/>
<polygon fill="none" stroke="midnightblue" points="677.4,-584.17 687.72,-586.53 681.13,-578.24 677.4,-584.17"/>
</g>
<!-- Node4 -->
<g id="node4" class="node">
<title>Node4</title>
<g id="a_node4"><a xlink:href="../../d9/d45/classSDK_1_1UObject.html" target="_top" xlink:title=" ">
<polygon fill="white" stroke="black" points="301.93,-785.5 301.93,-1029.5 499.93,-1029.5 499.93,-785.5 301.93,-785.5"/>
<text text-anchor="middle" x="400.93" y="-1017.5" font-family="Helvetica,sans-Serif" font-size="10.00">SDK::UObject</text>
<polyline fill="none" stroke="black" points="301.93,-1010.5 499.93,-1010.5 "/>
<text text-anchor="start" x="309.93" y="-998.5" font-family="Helvetica,sans-Serif" font-size="10.00">+ ObjectInternalInteger</text>
<text text-anchor="start" x="309.93" y="-987.5" font-family="Helvetica,sans-Serif" font-size="10.00">+ NetIndex</text>
<polyline fill="none" stroke="black" points="301.93,-980.5 499.93,-980.5 "/>
<text text-anchor="start" x="309.93" y="-968.5" font-family="Helvetica,sans-Serif" font-size="10.00">+ UObject::GetName()</text>
<text text-anchor="start" x="309.93" y="-957.5" font-family="Helvetica,sans-Serif" font-size="10.00">+ GetFullName()</text>
<text text-anchor="start" x="309.93" y="-946.5" font-family="Helvetica,sans-Serif" font-size="10.00">+ IsA()</text>
<text text-anchor="start" x="309.93" y="-935.5" font-family="Helvetica,sans-Serif" font-size="10.00">+ ProcessEvent()</text>
<text text-anchor="start" x="309.93" y="-924.5" font-family="Helvetica,sans-Serif" font-size="10.00">+ STATIC_ProfNodeEvent()</text>
<text text-anchor="start" x="309.93" y="-913.5" font-family="Helvetica,sans-Serif" font-size="10.00">+ STATIC_ProfNodeSetDepthThreshold()</text>
<text text-anchor="start" x="309.93" y="-902.5" font-family="Helvetica,sans-Serif" font-size="10.00">+ STATIC_ProfNodeSetTimeThreshold</text>
<text text-anchor="start" x="309.93" y="-891.5" font-family="Helvetica,sans-Serif" font-size="10.00">Seconds()</text>
<text text-anchor="start" x="309.93" y="-880.5" font-family="Helvetica,sans-Serif" font-size="10.00">+ STATIC_ProfNodeStop()</text>
<text text-anchor="start" x="309.93" y="-869.5" font-family="Helvetica,sans-Serif" font-size="10.00">+ STATIC_ProfNodeStart()</text>
<text text-anchor="start" x="309.93" y="-858.5" font-family="Helvetica,sans-Serif" font-size="10.00">+ STATIC_GetStringFromGuid()</text>
<text text-anchor="start" x="309.93" y="-847.5" font-family="Helvetica,sans-Serif" font-size="10.00">and 298 more...</text>
<text text-anchor="start" x="309.93" y="-836.5" font-family="Helvetica,sans-Serif" font-size="10.00">+ GetGlobalObjects()</text>
<text text-anchor="start" x="309.93" y="-825.5" font-family="Helvetica,sans-Serif" font-size="10.00">+ FindObject()</text>
<text text-anchor="start" x="309.93" y="-814.5" font-family="Helvetica,sans-Serif" font-size="10.00">+ FindClass()</text>
<text text-anchor="start" x="309.93" y="-803.5" font-family="Helvetica,sans-Serif" font-size="10.00">+ GetObjectCasted()</text>
<text text-anchor="start" x="309.93" y="-792.5" font-family="Helvetica,sans-Serif" font-size="10.00">+ StaticClass()</text>
</a>
</g>
</g>
<!-- Node4&#45;&gt;Node3 -->
<g id="edge3" class="edge">
<title>Node4&#45;&gt;Node3</title>
<path fill="none" stroke="midnightblue" d="M508.93,-843.99C560.97,-813.12 623.89,-774.7 678.93,-738 681.87,-736.04 684.85,-734.03 687.84,-731.99"/>
<polygon fill="none" stroke="midnightblue" points="506.83,-841.16 500.01,-849.27 510.4,-847.19 506.83,-841.16"/>
</g>
<!-- Node4&#45;&gt;Node4 -->
<g id="edge9" class="edge">
<title>Node4&#45;&gt;Node4</title>
<path fill="none" stroke="#404040" d="M499.95,-930.53C510.88,-926.15 517.93,-918.48 517.93,-907.5 517.93,-900.64 515.18,-895.07 510.44,-890.78"/>
<polygon fill="none" stroke="#404040" points="510.23,-890.66 503.03,-890.99 499.95,-884.47 507.15,-884.14 510.23,-890.66"/>
<text text-anchor="middle" x="557.43" y="-916" font-family="Helvetica,sans-Serif" font-size="10.00"> +Outer</text>
<text text-anchor="middle" x="557.43" y="-905" font-family="Helvetica,sans-Serif" font-size="10.00">+Linker</text>
<text text-anchor="middle" x="557.43" y="-894" font-family="Helvetica,sans-Serif" font-size="10.00">+ObjectArchetype</text>
</g>
<!-- Node10 -->
<g id="node10" class="node">
<title>Node10</title>
<g id="a_node10"><a xlink:href="../../d3/d79/classSDK_1_1TArray.html" target="_top" xlink:title=" ">
<polygon fill="white" stroke="black" points="508.43,-592.5 508.43,-726.5 669.43,-726.5 669.43,-592.5 508.43,-592.5"/>
<text text-anchor="middle" x="588.93" y="-714.5" font-family="Helvetica,sans-Serif" font-size="10.00">SDK::TArray&lt; SDK::UObject * &gt;</text>
<polyline fill="none" stroke="black" points="508.43,-707.5 669.43,-707.5 "/>
<text text-anchor="start" x="516.43" y="-695.5" font-family="Helvetica,sans-Serif" font-size="10.00">&#45; Count</text>
<text text-anchor="start" x="516.43" y="-684.5" font-family="Helvetica,sans-Serif" font-size="10.00">&#45; Max</text>
<polyline fill="none" stroke="black" points="508.43,-677.5 669.43,-677.5 "/>
<text text-anchor="start" x="516.43" y="-665.5" font-family="Helvetica,sans-Serif" font-size="10.00">+ TArray()</text>
<text text-anchor="start" x="516.43" y="-654.5" font-family="Helvetica,sans-Serif" font-size="10.00">+ Num()</text>
<text text-anchor="start" x="516.43" y="-643.5" font-family="Helvetica,sans-Serif" font-size="10.00">+ operator[]()</text>
<text text-anchor="start" x="516.43" y="-632.5" font-family="Helvetica,sans-Serif" font-size="10.00">+ operator[]()</text>
<text text-anchor="start" x="516.43" y="-621.5" font-family="Helvetica,sans-Serif" font-size="10.00">+ IsValidIndex()</text>
<text text-anchor="start" x="516.43" y="-610.5" font-family="Helvetica,sans-Serif" font-size="10.00">+ GetByIndex()</text>
<text text-anchor="start" x="516.43" y="-599.5" font-family="Helvetica,sans-Serif" font-size="10.00">+ GetByIndex()</text>
</a>
</g>
</g>
<!-- Node4&#45;&gt;Node10 -->
<g id="edge11" class="edge">
<title>Node4&#45;&gt;Node10</title>
<path fill="none" stroke="#404040" d="M500.27,-839.68C524.61,-818.99 548.4,-794.35 564.93,-767 570.22,-758.26 574.34,-748.47 577.56,-738.48"/>
<polygon fill="none" stroke="#404040" points="577.63,-738.23 575.44,-731.36 580.94,-726.69 583.13,-733.56 577.63,-738.23"/>
<text text-anchor="middle" x="583.93" y="-759" font-family="Helvetica,sans-Serif" font-size="10.00"> &#45;Data</text>
</g>
<!-- Node12 -->
<g id="node12" class="node">
<title>Node12</title>
<g id="a_node12"><a xlink:href="../../d7/d85/classSDK_1_1UClass.html" target="_top" xlink:title=" ">
<polygon fill="white" stroke="black" points="289.43,-0.5 289.43,-90.5 410.43,-90.5 410.43,-0.5 289.43,-0.5"/>
<text text-anchor="middle" x="349.93" y="-78.5" font-family="Helvetica,sans-Serif" font-size="10.00">SDK::UClass</text>
<polyline fill="none" stroke="black" points="289.43,-71.5 410.43,-71.5 "/>
<text text-anchor="start" x="297.43" y="-59.5" font-family="Helvetica,sans-Serif" font-size="10.00">+ UnknownData00</text>
<text text-anchor="start" x="297.43" y="-48.5" font-family="Helvetica,sans-Serif" font-size="10.00">+ UnknownData01</text>
<polyline fill="none" stroke="black" points="289.43,-41.5 410.43,-41.5 "/>
<text text-anchor="start" x="297.43" y="-29.5" font-family="Helvetica,sans-Serif" font-size="10.00">+ CreateDefaultObject()</text>
<text text-anchor="start" x="297.43" y="-18.5" font-family="Helvetica,sans-Serif" font-size="10.00">+ CreateDefaultObject()</text>
<text text-anchor="start" x="297.43" y="-7.5" font-family="Helvetica,sans-Serif" font-size="10.00">+ StaticClass()</text>
</a>
</g>
</g>
<!-- Node4&#45;&gt;Node12 -->
<g id="edge21" class="edge">
<title>Node4&#45;&gt;Node12</title>
<path fill="none" stroke="#404040" d="M456.12,-785.36C469.45,-746.32 479.93,-702.33 479.93,-660.5 479.93,-660.5 479.93,-660.5 479.93,-189 479.93,-148.49 450.9,-114.44 420.27,-89.79"/>
<polygon fill="none" stroke="#404040" points="420.25,-89.78 413.06,-89.28 410.75,-82.45 417.94,-82.95 420.25,-89.78"/>
<text text-anchor="middle" x="527.43" y="-376" font-family="Helvetica,sans-Serif" font-size="10.00"> +ClassDefaultObject</text>
</g>
<!-- Node15 -->
<g id="node15" class="node">
<title>Node15</title>
<g id="a_node15"><a xlink:href="../../de/dd6/classSDK_1_1UField.html" target="_top" xlink:title=" ">
<polygon fill="white" stroke="black" points="187.43,-631 187.43,-688 270.43,-688 270.43,-631 187.43,-631"/>
<text text-anchor="middle" x="228.93" y="-676" font-family="Helvetica,sans-Serif" font-size="10.00">SDK::UField</text>
<polyline fill="none" stroke="black" points="187.43,-669 270.43,-669 "/>
<text text-anchor="middle" x="228.93" y="-657" font-family="Helvetica,sans-Serif" font-size="10.00"> </text>
<polyline fill="none" stroke="black" points="187.43,-650 270.43,-650 "/>
<text text-anchor="start" x="195.43" y="-638" font-family="Helvetica,sans-Serif" font-size="10.00">+ StaticClass()</text>
</a>
</g>
</g>
<!-- Node4&#45;&gt;Node15 -->
<g id="edge18" class="edge">
<title>Node4&#45;&gt;Node15</title>
<path fill="none" stroke="midnightblue" d="M310.23,-776.78C286.81,-743.28 263.85,-710.44 248.34,-688.26"/>
<polygon fill="none" stroke="midnightblue" points="307.59,-779.11 316.19,-785.3 313.33,-775.1 307.59,-779.11"/>
</g>
<!-- Node19 -->
<g id="node19" class="node">
<title>Node19</title>
<g id="a_node19"><a xlink:href="../../dc/dd6/structSDK_1_1FScriptDelegate.html" target="_top" xlink:title=" ">
<polygon fill="white" stroke="black" points="337.93,-631 337.93,-688 451.93,-688 451.93,-631 337.93,-631"/>
<text text-anchor="middle" x="394.93" y="-676" font-family="Helvetica,sans-Serif" font-size="10.00">SDK::FScriptDelegate</text>
<polyline fill="none" stroke="black" points="337.93,-669 451.93,-669 "/>
<text text-anchor="middle" x="394.93" y="-657" font-family="Helvetica,sans-Serif" font-size="10.00"> </text>
<polyline fill="none" stroke="black" points="337.93,-650 451.93,-650 "/>
<text text-anchor="middle" x="394.93" y="-638" font-family="Helvetica,sans-Serif" font-size="10.00"> </text>
</a>
</g>
</g>
<!-- Node4&#45;&gt;Node19 -->
<g id="edge29" class="edge">
<title>Node4&#45;&gt;Node19</title>
<path fill="none" stroke="#404040" d="M397.98,-785.3C397.23,-754.6 396.48,-723.75 395.91,-700.41"/>
<polygon fill="none" stroke="#404040" points="395.9,-700.25 391.76,-694.35 395.61,-688.26 399.76,-694.16 395.9,-700.25"/>
<text text-anchor="middle" x="415.93" y="-759" font-family="Helvetica,sans-Serif" font-size="10.00"> +Object</text>
</g>
<!-- Node5 -->
<g id="node5" class="node">
<title>Node5</title>
<g id="a_node5"><a xlink:href="../../d0/d22/structSDK_1_1FQWord.html" target="_top" xlink:title=" ">
<polygon fill="white" stroke="black" points="411.93,-1127 411.93,-1195 491.93,-1195 491.93,-1127 411.93,-1127"/>
<text text-anchor="middle" x="451.93" y="-1183" font-family="Helvetica,sans-Serif" font-size="10.00">SDK::FQWord</text>
<polyline fill="none" stroke="black" points="411.93,-1176 491.93,-1176 "/>
<text text-anchor="start" x="419.93" y="-1164" font-family="Helvetica,sans-Serif" font-size="10.00">+ A</text>
<text text-anchor="start" x="419.93" y="-1153" font-family="Helvetica,sans-Serif" font-size="10.00">+ B</text>
<polyline fill="none" stroke="black" points="411.93,-1146 491.93,-1146 "/>
<text text-anchor="middle" x="451.93" y="-1134" font-family="Helvetica,sans-Serif" font-size="10.00"> </text>
</a>
</g>
</g>
<!-- Node5&#45;&gt;Node4 -->
<g id="edge4" class="edge">
<title>Node5&#45;&gt;Node4</title>
<path fill="none" stroke="#404040" d="M445.21,-1126.86C440.69,-1104.57 434.4,-1073.56 427.98,-1041.9"/>
<polygon fill="none" stroke="#404040" points="427.91,-1041.51 422.79,-1036.43 425.52,-1029.75 430.63,-1034.84 427.91,-1041.51"/>
<text text-anchor="middle" x="465.93" y="-1062" font-family="Helvetica,sans-Serif" font-size="10.00"> +ObjectFlags</text>
</g>
<!-- Node6 -->
<g id="node6" class="node">
<title>Node6</title>
<g id="a_node6"><a xlink:href="../../d0/db6/structSDK_1_1FName.html" target="_top" xlink:title=" ">
<polygon fill="white" stroke="black" points="286.43,-1099.5 286.43,-1222.5 393.43,-1222.5 393.43,-1099.5 286.43,-1099.5"/>
<text text-anchor="middle" x="339.93" y="-1210.5" font-family="Helvetica,sans-Serif" font-size="10.00">SDK::FName</text>
<polyline fill="none" stroke="black" points="286.43,-1203.5 393.43,-1203.5 "/>
<text text-anchor="start" x="294.43" y="-1191.5" font-family="Helvetica,sans-Serif" font-size="10.00">+ Index</text>
<text text-anchor="start" x="294.43" y="-1180.5" font-family="Helvetica,sans-Serif" font-size="10.00">+ Number</text>
<polyline fill="none" stroke="black" points="286.43,-1173.5 393.43,-1173.5 "/>
<text text-anchor="start" x="294.43" y="-1161.5" font-family="Helvetica,sans-Serif" font-size="10.00">+ FName()</text>
<text text-anchor="start" x="294.43" y="-1150.5" font-family="Helvetica,sans-Serif" font-size="10.00">+ FName()</text>
<text text-anchor="start" x="294.43" y="-1139.5" font-family="Helvetica,sans-Serif" font-size="10.00">+ FName()</text>
<text text-anchor="start" x="294.43" y="-1128.5" font-family="Helvetica,sans-Serif" font-size="10.00">+ GetName()</text>
<text text-anchor="start" x="294.43" y="-1117.5" font-family="Helvetica,sans-Serif" font-size="10.00">+ operator==()</text>
<text text-anchor="start" x="294.43" y="-1106.5" font-family="Helvetica,sans-Serif" font-size="10.00">+ GetGlobalNames()</text>
</a>
</g>
</g>
<!-- Node6&#45;&gt;Node4 -->
<g id="edge5" class="edge">
<title>Node6&#45;&gt;Node4</title>
<path fill="none" stroke="#404040" d="M354.62,-1099.44C358.9,-1081.82 363.74,-1061.84 368.65,-1041.61"/>
<polygon fill="none" stroke="#404040" points="368.71,-1041.35 366.24,-1034.57 371.54,-1029.69 374.01,-1036.46 368.71,-1041.35"/>
<text text-anchor="middle" x="383.93" y="-1062" font-family="Helvetica,sans-Serif" font-size="10.00"> +Name</text>
</g>
<!-- Node6&#45;&gt;Node19 -->
<g id="edge28" class="edge">
<title>Node6&#45;&gt;Node19</title>
<path fill="none" stroke="#404040" d="M286.34,-1147.04C252.26,-1135.72 210.77,-1115.52 189.93,-1081 148.95,-1013.09 -67.16,-1171.69 219.93,-785 251.38,-742.64 286.5,-769.35 328.93,-738 343.92,-726.93 357.75,-711.84 368.84,-697.91"/>
<polygon fill="none" stroke="#404040" points="369.11,-697.57 369.59,-690.37 376.41,-688.05 375.93,-695.24 369.11,-697.57"/>
<text text-anchor="middle" x="256.43" y="-905" font-family="Helvetica,sans-Serif" font-size="10.00"> +FunctionName</text>
</g>
<!-- Node7 -->
<g id="node7" class="node">
<title>Node7</title>
<g id="a_node7"><a xlink:href="../../d3/d79/classSDK_1_1TArray.html" target="_top" xlink:title=" ">
<polygon fill="white" stroke="black" points="332.93,-1276 332.93,-1410 512.93,-1410 512.93,-1276 332.93,-1276"/>
<text text-anchor="middle" x="422.93" y="-1398" font-family="Helvetica,sans-Serif" font-size="10.00">SDK::TArray&lt; SDK::FNameEntry * &gt;</text>
<polyline fill="none" stroke="black" points="332.93,-1391 512.93,-1391 "/>
<text text-anchor="start" x="340.93" y="-1379" font-family="Helvetica,sans-Serif" font-size="10.00">&#45; Count</text>
<text text-anchor="start" x="340.93" y="-1368" font-family="Helvetica,sans-Serif" font-size="10.00">&#45; Max</text>
<polyline fill="none" stroke="black" points="332.93,-1361 512.93,-1361 "/>
<text text-anchor="start" x="340.93" y="-1349" font-family="Helvetica,sans-Serif" font-size="10.00">+ TArray()</text>
<text text-anchor="start" x="340.93" y="-1338" font-family="Helvetica,sans-Serif" font-size="10.00">+ Num()</text>
<text text-anchor="start" x="340.93" y="-1327" font-family="Helvetica,sans-Serif" font-size="10.00">+ operator[]()</text>
<text text-anchor="start" x="340.93" y="-1316" font-family="Helvetica,sans-Serif" font-size="10.00">+ operator[]()</text>
<text text-anchor="start" x="340.93" y="-1305" font-family="Helvetica,sans-Serif" font-size="10.00">+ IsValidIndex()</text>
<text text-anchor="start" x="340.93" y="-1294" font-family="Helvetica,sans-Serif" font-size="10.00">+ GetByIndex()</text>
<text text-anchor="start" x="340.93" y="-1283" font-family="Helvetica,sans-Serif" font-size="10.00">+ GetByIndex()</text>
</a>
</g>
</g>
<!-- Node7&#45;&gt;Node6 -->
<g id="edge6" class="edge">
<title>Node7&#45;&gt;Node6</title>
<path fill="none" stroke="#404040" d="M392.5,-1276C386.15,-1262.22 379.42,-1247.64 372.98,-1233.67"/>
<polygon fill="none" stroke="#404040" points="372.91,-1233.52 366.77,-1229.75 367.89,-1222.62 374.03,-1226.4 372.91,-1233.52"/>
<text text-anchor="middle" x="405.43" y="-1244" font-family="Helvetica,sans-Serif" font-size="10.00"> +GNames</text>
</g>
<!-- Node8 -->
<g id="node8" class="node">
<title>Node8</title>
<g id="a_node8"><a xlink:href="../../d7/ddf/classSDK_1_1FNameEntry.html" target="_top" xlink:title=" ">
<polygon fill="white" stroke="black" points="373.43,-1502 373.43,-1570 472.43,-1570 472.43,-1502 373.43,-1502"/>
<text text-anchor="middle" x="422.93" y="-1558" font-family="Helvetica,sans-Serif" font-size="10.00">SDK::FNameEntry</text>
<polyline fill="none" stroke="black" points="373.43,-1551 472.43,-1551 "/>
<text text-anchor="start" x="381.43" y="-1539" font-family="Helvetica,sans-Serif" font-size="10.00">+ UnknownData00</text>
<text text-anchor="start" x="381.43" y="-1528" font-family="Helvetica,sans-Serif" font-size="10.00">+ name</text>
<polyline fill="none" stroke="black" points="373.43,-1521 472.43,-1521 "/>
<text text-anchor="start" x="381.43" y="-1509" font-family="Helvetica,sans-Serif" font-size="10.00">+ GetName()</text>
</a>
</g>
</g>
<!-- Node8&#45;&gt;Node7 -->
<g id="edge7" class="edge">
<title>Node8&#45;&gt;Node7</title>
<path fill="none" stroke="#404040" d="M422.93,-1501.73C422.93,-1479.76 422.93,-1450 422.93,-1422.25"/>
<polygon fill="none" stroke="#404040" points="422.93,-1422.1 418.93,-1416.1 422.93,-1410.1 426.93,-1416.1 422.93,-1422.1"/>
<text text-anchor="middle" x="436.93" y="-1437" font-family="Helvetica,sans-Serif" font-size="10.00"> &#45;Data</text>
</g>
<!-- Node9 -->
<g id="node9" class="node">
<title>Node9</title>
<g id="a_node9"><a xlink:href="../../d3/d79/classSDK_1_1TArray.html" target="_top" xlink:title=" ">
<polygon fill="white" stroke="black" points="634.43,-1463.5 634.43,-1608.5 731.43,-1608.5 731.43,-1463.5 634.43,-1463.5"/>
<text text-anchor="middle" x="682.93" y="-1596.5" font-family="Helvetica,sans-Serif" font-size="10.00">SDK::TArray&lt; T &gt;</text>
<polyline fill="none" stroke="black" points="634.43,-1589.5 731.43,-1589.5 "/>
<text text-anchor="start" x="642.43" y="-1577.5" font-family="Helvetica,sans-Serif" font-size="10.00">&#45; Data</text>
<text text-anchor="start" x="642.43" y="-1566.5" font-family="Helvetica,sans-Serif" font-size="10.00">&#45; Count</text>
<text text-anchor="start" x="642.43" y="-1555.5" font-family="Helvetica,sans-Serif" font-size="10.00">&#45; Max</text>
<polyline fill="none" stroke="black" points="634.43,-1548.5 731.43,-1548.5 "/>
<text text-anchor="start" x="642.43" y="-1536.5" font-family="Helvetica,sans-Serif" font-size="10.00">+ TArray()</text>
<text text-anchor="start" x="642.43" y="-1525.5" font-family="Helvetica,sans-Serif" font-size="10.00">+ Num()</text>
<text text-anchor="start" x="642.43" y="-1514.5" font-family="Helvetica,sans-Serif" font-size="10.00">+ operator[]()</text>
<text text-anchor="start" x="642.43" y="-1503.5" font-family="Helvetica,sans-Serif" font-size="10.00">+ operator[]()</text>
<text text-anchor="start" x="642.43" y="-1492.5" font-family="Helvetica,sans-Serif" font-size="10.00">+ IsValidIndex()</text>
<text text-anchor="start" x="642.43" y="-1481.5" font-family="Helvetica,sans-Serif" font-size="10.00">+ GetByIndex()</text>
<text text-anchor="start" x="642.43" y="-1470.5" font-family="Helvetica,sans-Serif" font-size="10.00">+ GetByIndex()</text>
</a>
</g>
</g>
<!-- Node9&#45;&gt;Node7 -->
<g id="edge8" class="edge">
<title>Node9&#45;&gt;Node7</title>
<path fill="none" stroke="orange" d="M624.82,-1513.01C588.15,-1497.42 541.06,-1474.13 504.93,-1445 492.45,-1434.94 480.58,-1422.68 469.95,-1410.23"/>
<polygon fill="orange" stroke="orange" points="623.81,-1516.38 634.38,-1517.01 626.5,-1509.92 623.81,-1516.38"/>
<text text-anchor="middle" x="560.43" y="-1437" font-family="Helvetica,sans-Serif" font-size="10.00"> &lt; SDK::FNameEntry * &gt;</text>
</g>
<!-- Node9&#45;&gt;Node10 -->
<g id="edge12" class="edge">
<title>Node9&#45;&gt;Node10</title>
<path fill="none" stroke="orange" d="M649.95,-1453.58C639.18,-1420.19 629.93,-1380.8 629.93,-1344 629.93,-1344 629.93,-1344 629.93,-906.5 629.93,-844.91 617.27,-775.81 606.02,-726.56"/>
<polygon fill="orange" stroke="orange" points="646.7,-1454.9 653.18,-1463.28 653.35,-1452.69 646.7,-1454.9"/>
<text text-anchor="middle" x="675.43" y="-1158.5" font-family="Helvetica,sans-Serif" font-size="10.00"> &lt; SDK::UObject * &gt;</text>
</g>
<!-- Node16 -->
<g id="node16" class="node">
<title>Node16</title>
<g id="a_node16"><a xlink:href="../../d3/d79/classSDK_1_1TArray.html" target="_top" xlink:title=" ">
<polygon fill="white" stroke="black" points="731.43,-835 731.43,-980 838.43,-980 838.43,-835 731.43,-835"/>
<text text-anchor="start" x="739.43" y="-968" font-family="Helvetica,sans-Serif" font-size="10.00">SDK::TArray&lt; struct</text>
<text text-anchor="middle" x="784.93" y="-957" font-family="Helvetica,sans-Serif" font-size="10.00"> SDK::FString &gt;</text>
<polyline fill="none" stroke="black" points="731.43,-950 838.43,-950 "/>
<text text-anchor="start" x="739.43" y="-938" font-family="Helvetica,sans-Serif" font-size="10.00">&#45; Count</text>
<text text-anchor="start" x="739.43" y="-927" font-family="Helvetica,sans-Serif" font-size="10.00">&#45; Max</text>
<polyline fill="none" stroke="black" points="731.43,-920 838.43,-920 "/>
<text text-anchor="start" x="739.43" y="-908" font-family="Helvetica,sans-Serif" font-size="10.00">+ TArray()</text>
<text text-anchor="start" x="739.43" y="-897" font-family="Helvetica,sans-Serif" font-size="10.00">+ Num()</text>
<text text-anchor="start" x="739.43" y="-886" font-family="Helvetica,sans-Serif" font-size="10.00">+ operator[]()</text>
<text text-anchor="start" x="739.43" y="-875" font-family="Helvetica,sans-Serif" font-size="10.00">+ operator[]()</text>
<text text-anchor="start" x="739.43" y="-864" font-family="Helvetica,sans-Serif" font-size="10.00">+ IsValidIndex()</text>
<text text-anchor="start" x="739.43" y="-853" font-family="Helvetica,sans-Serif" font-size="10.00">+ GetByIndex()</text>
<text text-anchor="start" x="739.43" y="-842" font-family="Helvetica,sans-Serif" font-size="10.00">+ GetByIndex()</text>
</a>
</g>
</g>
<!-- Node9&#45;&gt;Node16 -->
<g id="edge26" class="edge">
<title>Node9&#45;&gt;Node16</title>
<path fill="none" stroke="orange" d="M739.49,-1496.85C765.32,-1476.16 793.53,-1448.23 808.93,-1416 876.91,-1273.74 838.26,-1082.72 808.74,-980.38"/>
<polygon fill="orange" stroke="orange" points="737.29,-1494.12 731.56,-1503.03 741.6,-1499.64 737.29,-1494.12"/>
<text text-anchor="middle" x="899.93" y="-1244" font-family="Helvetica,sans-Serif" font-size="10.00"> &lt; struct SDK::FString &gt;</text>
</g>
<!-- Node18 -->
<g id="node18" class="node">
<title>Node18</title>
<g id="a_node18"><a xlink:href="../../d3/d79/classSDK_1_1TArray.html" target="_top" xlink:title=" ">
<polygon fill="white" stroke="black" points="674.43,-1270.5 674.43,-1415.5 799.43,-1415.5 799.43,-1270.5 674.43,-1270.5"/>
<text text-anchor="middle" x="736.93" y="-1403.5" font-family="Helvetica,sans-Serif" font-size="10.00">SDK::TArray&lt; wchar_t &gt;</text>
<polyline fill="none" stroke="black" points="674.43,-1396.5 799.43,-1396.5 "/>
<text text-anchor="start" x="682.43" y="-1384.5" font-family="Helvetica,sans-Serif" font-size="10.00">&#45; Data</text>
<text text-anchor="start" x="682.43" y="-1373.5" font-family="Helvetica,sans-Serif" font-size="10.00">&#45; Count</text>
<text text-anchor="start" x="682.43" y="-1362.5" font-family="Helvetica,sans-Serif" font-size="10.00">&#45; Max</text>
<polyline fill="none" stroke="black" points="674.43,-1355.5 799.43,-1355.5 "/>
<text text-anchor="start" x="682.43" y="-1343.5" font-family="Helvetica,sans-Serif" font-size="10.00">+ TArray()</text>
<text text-anchor="start" x="682.43" y="-1332.5" font-family="Helvetica,sans-Serif" font-size="10.00">+ Num()</text>
<text text-anchor="start" x="682.43" y="-1321.5" font-family="Helvetica,sans-Serif" font-size="10.00">+ operator[]()</text>
<text text-anchor="start" x="682.43" y="-1310.5" font-family="Helvetica,sans-Serif" font-size="10.00">+ operator[]()</text>
<text text-anchor="start" x="682.43" y="-1299.5" font-family="Helvetica,sans-Serif" font-size="10.00">+ IsValidIndex()</text>
<text text-anchor="start" x="682.43" y="-1288.5" font-family="Helvetica,sans-Serif" font-size="10.00">+ GetByIndex()</text>
<text text-anchor="start" x="682.43" y="-1277.5" font-family="Helvetica,sans-Serif" font-size="10.00">+ GetByIndex()</text>
</a>
</g>
</g>
<!-- Node9&#45;&gt;Node18 -->
<g id="edge25" class="edge">
<title>Node9&#45;&gt;Node18</title>
<path fill="none" stroke="orange" d="M706.01,-1453.38C709.55,-1440.87 713.18,-1428.03 716.65,-1415.75"/>
<polygon fill="orange" stroke="orange" points="702.55,-1452.76 703.2,-1463.34 709.28,-1454.66 702.55,-1452.76"/>
<text text-anchor="middle" x="737.93" y="-1437" font-family="Helvetica,sans-Serif" font-size="10.00"> &lt; wchar_t &gt;</text>
</g>
<!-- Node10&#45;&gt;Node4 -->
<g id="edge10" class="edge">
<title>Node10&#45;&gt;Node4</title>
<path fill="none" stroke="#404040" d="M536.7,-726.63C529.03,-736.45 521.25,-746.47 513.93,-756 509.05,-762.36 504.07,-768.87 499.05,-775.47"/>
<polygon fill="none" stroke="#404040" points="498.94,-775.61 498.49,-782.81 491.68,-785.17 492.12,-777.97 498.94,-775.61"/>
<text text-anchor="middle" x="539.43" y="-759" font-family="Helvetica,sans-Serif" font-size="10.00"> +GObjects</text>
</g>
<!-- Node11 -->
<g id="node11" class="node">
<title>Node11</title>
<g id="a_node11"><a xlink:href="../../d9/dfa/structSDK_1_1FPointer.html" target="_top" xlink:title=" ">
<polygon fill="white" stroke="black" points="45.93,-1127 45.93,-1195 143.93,-1195 143.93,-1127 45.93,-1127"/>
<text text-anchor="middle" x="94.93" y="-1183" font-family="Helvetica,sans-Serif" font-size="10.00">SDK::FPointer</text>
<polyline fill="none" stroke="black" points="45.93,-1176 143.93,-1176 "/>
<text text-anchor="start" x="53.93" y="-1164" font-family="Helvetica,sans-Serif" font-size="10.00">+ Dummy</text>
<text text-anchor="start" x="53.93" y="-1153" font-family="Helvetica,sans-Serif" font-size="10.00">+ UnknownData00</text>
<polyline fill="none" stroke="black" points="45.93,-1146 143.93,-1146 "/>
<text text-anchor="middle" x="94.93" y="-1134" font-family="Helvetica,sans-Serif" font-size="10.00"> </text>
</a>
</g>
</g>
<!-- Node11&#45;&gt;Node1 -->
<g id="edge30" class="edge">
<title>Node11&#45;&gt;Node1</title>
<path fill="none" stroke="#404040" d="M80.77,-1126.69C44.29,-1035.85 -44.97,-777.49 28.93,-581 52.44,-518.5 98.84,-528.1 127.93,-468 163.19,-395.19 140.28,-367.22 160.93,-289 163.15,-280.62 165.73,-271.93 168.46,-263.34"/>
<polygon fill="none" stroke="#404040" points="168.53,-263.13 166.6,-256.18 172.27,-251.72 174.2,-258.67 168.53,-263.13"/>
<text text-anchor="middle" x="103.43" y="-657" font-family="Helvetica,sans-Serif" font-size="10.00"> +VfTable_FCallbackEventDevice</text>
</g>
<!-- Node11&#45;&gt;Node4 -->
<g id="edge13" class="edge">
<title>Node11&#45;&gt;Node4</title>
<path fill="none" stroke="#404040" d="M135.25,-1126.86C175.14,-1094.08 237.96,-1042.45 292.5,-997.63"/>
<polygon fill="none" stroke="#404040" points="292.6,-997.54 294.7,-990.64 301.87,-989.92 299.78,-996.82 292.6,-997.54"/>
<text text-anchor="middle" x="263.43" y="-1073" font-family="Helvetica,sans-Serif" font-size="10.00"> +StateFrame</text>
<text text-anchor="middle" x="263.43" y="-1062" font-family="Helvetica,sans-Serif" font-size="10.00">+VfTableObject</text>
<text text-anchor="middle" x="263.43" y="-1051" font-family="Helvetica,sans-Serif" font-size="10.00">+LinkerIndex</text>
</g>
<!-- Node12&#45;&gt;Node4 -->
<g id="edge14" class="edge">
<title>Node12&#45;&gt;Node4</title>
<path fill="none" stroke="#404040" d="M289.3,-47.13C229.66,-51.39 141.42,-68.23 97.93,-128 65.51,-172.56 94.38,-197 97.93,-252 101.46,-306.61 142.99,-695.88 177.93,-738 211.76,-778.78 245.66,-755.71 291.39,-781.87"/>
<polygon fill="none" stroke="#404040" points="291.56,-781.98 298.77,-781.86 301.65,-788.47 294.44,-788.59 291.56,-781.98"/>
<text text-anchor="middle" x="139.43" y="-376" font-family="Helvetica,sans-Serif" font-size="10.00"> +Class</text>
</g>
<!-- Node13 -->
<g id="node13" class="node">
<title>Node13</title>
<g id="a_node13"><a xlink:href="../../df/d72/classSDK_1_1UState.html" target="_top" xlink:title=" ">
<polygon fill="white" stroke="black" points="300.93,-161.5 300.93,-218.5 398.93,-218.5 398.93,-161.5 300.93,-161.5"/>
<text text-anchor="middle" x="349.93" y="-206.5" font-family="Helvetica,sans-Serif" font-size="10.00">SDK::UState</text>
<polyline fill="none" stroke="black" points="300.93,-199.5 398.93,-199.5 "/>
<text text-anchor="start" x="308.93" y="-187.5" font-family="Helvetica,sans-Serif" font-size="10.00">+ UnknownData00</text>
<polyline fill="none" stroke="black" points="300.93,-180.5 398.93,-180.5 "/>
<text text-anchor="start" x="308.93" y="-168.5" font-family="Helvetica,sans-Serif" font-size="10.00">+ StaticClass()</text>
</a>
</g>
</g>
<!-- Node13&#45;&gt;Node12 -->
<g id="edge15" class="edge">
<title>Node13&#45;&gt;Node12</title>
<path fill="none" stroke="midnightblue" d="M349.93,-151.01C349.93,-132.39 349.93,-109.87 349.93,-90.51"/>
<polygon fill="none" stroke="midnightblue" points="346.43,-151.19 349.93,-161.19 353.43,-151.19 346.43,-151.19"/>
</g>
<!-- Node14 -->
<g id="node14" class="node">
<title>Node14</title>
<g id="a_node14"><a xlink:href="../../d8/de9/classSDK_1_1UStruct.html" target="_top" xlink:title=" ">
<polygon fill="white" stroke="black" points="169.93,-339 169.93,-418 267.93,-418 267.93,-339 169.93,-339"/>
<text text-anchor="middle" x="218.93" y="-406" font-family="Helvetica,sans-Serif" font-size="10.00">SDK::UStruct</text>
<polyline fill="none" stroke="black" points="169.93,-399 267.93,-399 "/>
<text text-anchor="start" x="177.93" y="-387" font-family="Helvetica,sans-Serif" font-size="10.00">+ UnknownData00</text>
<text text-anchor="start" x="177.93" y="-376" font-family="Helvetica,sans-Serif" font-size="10.00">+ PropertySize</text>
<text text-anchor="start" x="177.93" y="-365" font-family="Helvetica,sans-Serif" font-size="10.00">+ UnknownData01</text>
<polyline fill="none" stroke="black" points="169.93,-358 267.93,-358 "/>
<text text-anchor="start" x="177.93" y="-346" font-family="Helvetica,sans-Serif" font-size="10.00">+ StaticClass()</text>
</a>
</g>
</g>
<!-- Node14&#45;&gt;Node13 -->
<g id="edge16" class="edge">
<title>Node14&#45;&gt;Node13</title>
<path fill="none" stroke="midnightblue" d="M249.84,-330.28C258.78,-316.85 268.64,-302.28 277.93,-289 294.76,-264.96 314.55,-238.13 329.11,-218.64"/>
<polygon fill="none" stroke="midnightblue" points="246.73,-328.64 244.11,-338.91 252.56,-332.51 246.73,-328.64"/>
</g>
<!-- Node15&#45;&gt;Node14 -->
<g id="edge17" class="edge">
<title>Node15&#45;&gt;Node14</title>
<path fill="none" stroke="midnightblue" d="M230.89,-620.53C231.7,-603.02 232.54,-581.96 232.93,-563 233.65,-528.79 235.17,-520.15 232.93,-486 231.46,-463.48 228.25,-438.46 225.28,-418.33"/>
<polygon fill="none" stroke="midnightblue" points="227.37,-620.77 230.39,-630.93 234.37,-621.11 227.37,-620.77"/>
</g>
<!-- Node15&#45;&gt;Node14 -->
<g id="edge20" class="edge">
<title>Node15&#45;&gt;Node14</title>
<path fill="none" stroke="#404040" d="M207.21,-630.63C194.49,-612.48 179.63,-587.67 172.93,-563 163.96,-529.97 166.01,-519.51 172.93,-486 176.91,-466.75 184.55,-446.69 192.47,-429.24"/>
<polygon fill="none" stroke="#404040" points="192.56,-429.05 191.5,-421.91 197.68,-418.19 198.74,-425.32 192.56,-429.05"/>
<text text-anchor="middle" x="200.93" y="-527.5" font-family="Helvetica,sans-Serif" font-size="10.00"> +SuperField</text>
<text text-anchor="middle" x="200.93" y="-516.5" font-family="Helvetica,sans-Serif" font-size="10.00">+Children</text>
</g>
<!-- Node15&#45;&gt;Node15 -->
<g id="edge19" class="edge">
<title>Node15&#45;&gt;Node15</title>
<path fill="none" stroke="#404040" d="M270.64,-678.33C280.84,-676.93 288.43,-670.66 288.43,-659.5 288.43,-653.22 286.03,-648.49 282.11,-645.31"/>
<polygon fill="none" stroke="#404040" points="281.77,-645.17 274.71,-646.63 270.64,-640.67 277.7,-639.21 281.77,-645.17"/>
<text text-anchor="middle" x="303.93" y="-657" font-family="Helvetica,sans-Serif" font-size="10.00"> +Next</text>
</g>
<!-- Node16&#45;&gt;Node3 -->
<g id="edge22" class="edge">
<title>Node16&#45;&gt;Node3</title>
<path fill="none" stroke="#404040" d="M784.93,-834.69C784.93,-808.13 784.93,-777.69 784.93,-749.77"/>
<polygon fill="none" stroke="#404040" points="784.93,-749.56 780.93,-743.56 784.93,-737.56 788.93,-743.56 784.93,-749.56"/>
<text text-anchor="middle" x="837.93" y="-759" font-family="Helvetica,sans-Serif" font-size="10.00"> +BadCapsLocContexts</text>
</g>
<!-- Node17 -->
<g id="node17" class="node">
<title>Node17</title>
<g id="a_node17"><a xlink:href="../../d3/d88/classSDK_1_1FString.html" target="_top" xlink:title=" ">
<polygon fill="white" stroke="black" points="739.43,-1110.5 739.43,-1211.5 814.43,-1211.5 814.43,-1110.5 739.43,-1110.5"/>
<text text-anchor="middle" x="776.93" y="-1199.5" font-family="Helvetica,sans-Serif" font-size="10.00">SDK::FString</text>
<polyline fill="none" stroke="black" points="739.43,-1192.5 814.43,-1192.5 "/>
<text text-anchor="middle" x="776.93" y="-1180.5" font-family="Helvetica,sans-Serif" font-size="10.00"> </text>
<polyline fill="none" stroke="black" points="739.43,-1173.5 814.43,-1173.5 "/>
<text text-anchor="start" x="747.43" y="-1161.5" font-family="Helvetica,sans-Serif" font-size="10.00">+ FString()</text>
<text text-anchor="start" x="747.43" y="-1150.5" font-family="Helvetica,sans-Serif" font-size="10.00">+ FString()</text>
<text text-anchor="start" x="747.43" y="-1139.5" font-family="Helvetica,sans-Serif" font-size="10.00">+ IsValid()</text>
<text text-anchor="start" x="747.43" y="-1128.5" font-family="Helvetica,sans-Serif" font-size="10.00">+ c_str()</text>
<text text-anchor="start" x="747.43" y="-1117.5" font-family="Helvetica,sans-Serif" font-size="10.00">+ ToString()</text>
</a>
</g>
</g>
<!-- Node17&#45;&gt;Node16 -->
<g id="edge23" class="edge">
<title>Node17&#45;&gt;Node16</title>
<path fill="none" stroke="#404040" d="M778.51,-1110.31C779.58,-1076.78 781.01,-1031.7 782.26,-992.65"/>
<polygon fill="none" stroke="#404040" points="782.26,-992.47 778.46,-986.34 782.64,-980.47 786.45,-986.6 782.26,-992.47"/>
<text text-anchor="middle" x="793.93" y="-1062" font-family="Helvetica,sans-Serif" font-size="10.00"> &#45;Data</text>
</g>
<!-- Node18&#45;&gt;Node17 -->
<g id="edge24" class="edge">
<title>Node18&#45;&gt;Node17</title>
<path fill="none" stroke="midnightblue" d="M755.03,-1260.56C758.75,-1243.84 762.55,-1226.73 765.92,-1211.55"/>
<polygon fill="none" stroke="midnightblue" points="751.61,-1259.82 752.86,-1270.34 758.44,-1261.34 751.61,-1259.82"/>
</g>
<!-- Node19&#45;&gt;Node2 -->
<g id="edge27" class="edge">
<title>Node19&#45;&gt;Node2</title>
<path fill="none" stroke="#404040" d="M374.88,-630.72C362.69,-615 346.19,-595.62 328.93,-581 317.07,-570.95 306.59,-576.53 298.93,-563 284.13,-536.86 287.52,-506.8 298.26,-478.67"/>
<polygon fill="none" stroke="#404040" points="298.27,-478.66 296.9,-471.58 302.91,-467.59 304.28,-474.67 298.27,-478.66"/>
<text text-anchor="middle" x="369.93" y="-555" font-family="Helvetica,sans-Serif" font-size="10.00"> +__OnInitialize__Delegate</text>
<text text-anchor="start" x="298.93" y="-544" font-family="Helvetica,sans-Serif" font-size="10.00">+__OnReceivedNativeInputAxis</text>
<text text-anchor="middle" x="369.93" y="-533" font-family="Helvetica,sans-Serif" font-size="10.00">__Delegate</text>
<text text-anchor="start" x="298.93" y="-522" font-family="Helvetica,sans-Serif" font-size="10.00">+__OnReceivedNativeInputChar</text>
<text text-anchor="middle" x="369.93" y="-511" font-family="Helvetica,sans-Serif" font-size="10.00">__Delegate</text>
<text text-anchor="start" x="298.93" y="-500" font-family="Helvetica,sans-Serif" font-size="10.00">+__OnReceivedNativeInputKey</text>
<text text-anchor="middle" x="369.93" y="-489" font-family="Helvetica,sans-Serif" font-size="10.00">__Delegate</text>
</g>
</g>
</svg>
