<?xml version="1.0" encoding="UTF-8" standalone="no"?>
<!DOCTYPE svg PUBLIC "-//W3C//DTD SVG 1.1//EN"
 "http://www.w3.org/Graphics/SVG/1.1/DTD/svg11.dtd">
<!-- Generated by graphviz version 2.41.20171026.1811 (20171026.1811)
 -->
<!-- Title: SDK::UEFParticleSoundContainer Pages: 1 -->
<svg width="2606pt" height="738pt"
 viewBox="0.00 0.00 2606.00 738.00" xmlns="http://www.w3.org/2000/svg" xmlns:xlink="http://www.w3.org/1999/xlink">
<g id="graph0" class="graph" transform="scale(1 1) rotate(0) translate(4 734)">
<title>SDK::UEFParticleSoundContainer</title>
<polygon fill="white" stroke="transparent" points="-4,4 -4,-734 2602,-734 2602,4 -4,4"/>
<!-- Node1 -->
<g id="node1" class="node">
<title>Node1</title>
<g id="a_node1"><a xlink:title=" ">
<polygon fill="#bfbfbf" stroke="black" points="1228,-226.5 1228,-338.5 1395,-338.5 1395,-226.5 1228,-226.5"/>
<text text-anchor="middle" x="1311.5" y="-326.5" font-family="Helvetica,sans-Serif" font-size="10.00">SDK::UEFParticleSoundContainer</text>
<polyline fill="none" stroke="black" points="1228,-319.5 1395,-319.5 "/>
<text text-anchor="start" x="1236" y="-307.5" font-family="Helvetica,sans-Serif" font-size="10.00">+ TempEditorChildData</text>
<text text-anchor="start" x="1236" y="-296.5" font-family="Helvetica,sans-Serif" font-size="10.00">+ CommentList</text>
<text text-anchor="start" x="1236" y="-285.5" font-family="Helvetica,sans-Serif" font-size="10.00">+ ContainerName</text>
<text text-anchor="start" x="1236" y="-274.5" font-family="Helvetica,sans-Serif" font-size="10.00">+ ParticleSoundType</text>
<text text-anchor="start" x="1236" y="-263.5" font-family="Helvetica,sans-Serif" font-size="10.00">+ UnknownData00</text>
<text text-anchor="start" x="1236" y="-252.5" font-family="Helvetica,sans-Serif" font-size="10.00">+ EditorDirty</text>
<polyline fill="none" stroke="black" points="1228,-245.5 1395,-245.5 "/>
<text text-anchor="start" x="1236" y="-233.5" font-family="Helvetica,sans-Serif" font-size="10.00">+ StaticClass()</text>
</a>
</g>
</g>
<!-- Node3 -->
<g id="node3" class="node">
<title>Node3</title>
<g id="a_node3"><a xlink:href="../../df/da4/classSDK_1_1UEFParticleSoundContainerArmorHitSet.html" target="_top" xlink:title=" ">
<polygon fill="white" stroke="black" points="0,-55.5 0,-134.5 167,-134.5 167,-55.5 0,-55.5"/>
<text text-anchor="start" x="8" y="-122.5" font-family="Helvetica,sans-Serif" font-size="10.00">SDK::UEFParticleSoundContainer</text>
<text text-anchor="middle" x="83.5" y="-111.5" font-family="Helvetica,sans-Serif" font-size="10.00">ArmorHitSet</text>
<polyline fill="none" stroke="black" points="0,-104.5 167,-104.5 "/>
<text text-anchor="start" x="8" y="-92.5" font-family="Helvetica,sans-Serif" font-size="10.00">+ Default</text>
<text text-anchor="start" x="8" y="-81.5" font-family="Helvetica,sans-Serif" font-size="10.00">+ EditorImage_Armor</text>
<polyline fill="none" stroke="black" points="0,-74.5 167,-74.5 "/>
<text text-anchor="start" x="8" y="-62.5" font-family="Helvetica,sans-Serif" font-size="10.00">+ StaticClass()</text>
</a>
</g>
</g>
<!-- Node1&#45;&gt;Node3 -->
<g id="edge2" class="edge">
<title>Node1&#45;&gt;Node3</title>
<path fill="none" stroke="midnightblue" d="M1217.63,-282.3C979.82,-283 359.54,-276.25 175.5,-190 149.45,-177.79 126.75,-154.83 110.42,-134.66"/>
<polygon fill="none" stroke="midnightblue" points="1217.99,-285.79 1227.97,-282.26 1217.96,-278.79 1217.99,-285.79"/>
</g>
<!-- Node4 -->
<g id="node4" class="node">
<title>Node4</title>
<g id="a_node4"><a xlink:href="../../d7/d34/classSDK_1_1UEFParticleSoundContainerBeHittedSet.html" target="_top" xlink:title=" ">
<polygon fill="white" stroke="black" points="185,-50 185,-140 352,-140 352,-50 185,-50"/>
<text text-anchor="start" x="193" y="-128" font-family="Helvetica,sans-Serif" font-size="10.00">SDK::UEFParticleSoundContainer</text>
<text text-anchor="middle" x="268.5" y="-117" font-family="Helvetica,sans-Serif" font-size="10.00">BeHittedSet</text>
<polyline fill="none" stroke="black" points="185,-110 352,-110 "/>
<text text-anchor="start" x="193" y="-98" font-family="Helvetica,sans-Serif" font-size="10.00">+ UnknownData00</text>
<text text-anchor="start" x="193" y="-87" font-family="Helvetica,sans-Serif" font-size="10.00">+ PawnMaterialBeHittedArr</text>
<text text-anchor="start" x="193" y="-76" font-family="Helvetica,sans-Serif" font-size="10.00">+ EditorImage_BeHitted</text>
<polyline fill="none" stroke="black" points="185,-69 352,-69 "/>
<text text-anchor="start" x="193" y="-57" font-family="Helvetica,sans-Serif" font-size="10.00">+ StaticClass()</text>
</a>
</g>
</g>
<!-- Node1&#45;&gt;Node4 -->
<g id="edge3" class="edge">
<title>Node1&#45;&gt;Node4</title>
<path fill="none" stroke="midnightblue" d="M1217.84,-280.58C1008.73,-277.22 510.49,-261.72 360.5,-190 337.01,-178.77 316.2,-158.9 300.34,-140.31"/>
<polygon fill="none" stroke="midnightblue" points="1217.82,-284.08 1227.87,-280.73 1217.93,-277.08 1217.82,-284.08"/>
</g>
<!-- Node5 -->
<g id="node5" class="node">
<title>Node5</title>
<g id="a_node5"><a xlink:href="../../dc/d8f/classSDK_1_1UEFParticleSoundContainerBuffSet.html" target="_top" xlink:title=" ">
<polygon fill="white" stroke="black" points="370,-50 370,-140 537,-140 537,-50 370,-50"/>
<text text-anchor="start" x="378" y="-128" font-family="Helvetica,sans-Serif" font-size="10.00">SDK::UEFParticleSoundContainer</text>
<text text-anchor="middle" x="453.5" y="-117" font-family="Helvetica,sans-Serif" font-size="10.00">BuffSet</text>
<polyline fill="none" stroke="black" points="370,-110 537,-110 "/>
<text text-anchor="start" x="378" y="-98" font-family="Helvetica,sans-Serif" font-size="10.00">+ UnknownData00</text>
<text text-anchor="start" x="378" y="-87" font-family="Helvetica,sans-Serif" font-size="10.00">+ BuffFXArr</text>
<text text-anchor="start" x="378" y="-76" font-family="Helvetica,sans-Serif" font-size="10.00">+ EditorImage_Buff</text>
<polyline fill="none" stroke="black" points="370,-69 537,-69 "/>
<text text-anchor="start" x="378" y="-57" font-family="Helvetica,sans-Serif" font-size="10.00">+ StaticClass()</text>
</a>
</g>
</g>
<!-- Node1&#45;&gt;Node5 -->
<g id="edge4" class="edge">
<title>Node1&#45;&gt;Node5</title>
<path fill="none" stroke="midnightblue" d="M1217.59,-278.04C1039.87,-270.22 661.75,-247.24 545.5,-190 522.15,-178.5 501.35,-158.6 485.46,-140.07"/>
<polygon fill="none" stroke="midnightblue" points="1217.57,-281.54 1227.71,-278.47 1217.87,-274.54 1217.57,-281.54"/>
</g>
<!-- Node6 -->
<g id="node6" class="node">
<title>Node6</title>
<g id="a_node6"><a xlink:href="../../dd/d35/classSDK_1_1UEFParticleSoundContainerCommon.html" target="_top" xlink:title=" ">
<polygon fill="white" stroke="black" points="555,-39 555,-151 722,-151 722,-39 555,-39"/>
<text text-anchor="start" x="563" y="-139" font-family="Helvetica,sans-Serif" font-size="10.00">SDK::UEFParticleSoundContainer</text>
<text text-anchor="middle" x="638.5" y="-128" font-family="Helvetica,sans-Serif" font-size="10.00">Common</text>
<polyline fill="none" stroke="black" points="555,-121 722,-121 "/>
<text text-anchor="start" x="563" y="-109" font-family="Helvetica,sans-Serif" font-size="10.00">+ UnknownData00</text>
<text text-anchor="start" x="563" y="-98" font-family="Helvetica,sans-Serif" font-size="10.00">+ CommonFXArr</text>
<text text-anchor="start" x="563" y="-87" font-family="Helvetica,sans-Serif" font-size="10.00">+ DropItemEffect</text>
<text text-anchor="start" x="563" y="-76" font-family="Helvetica,sans-Serif" font-size="10.00">+ AbilityEffect</text>
<text text-anchor="start" x="563" y="-65" font-family="Helvetica,sans-Serif" font-size="10.00">+ EditorImage_Common</text>
<polyline fill="none" stroke="black" points="555,-58 722,-58 "/>
<text text-anchor="start" x="563" y="-46" font-family="Helvetica,sans-Serif" font-size="10.00">+ StaticClass()</text>
</a>
</g>
</g>
<!-- Node1&#45;&gt;Node6 -->
<g id="edge5" class="edge">
<title>Node1&#45;&gt;Node6</title>
<path fill="none" stroke="midnightblue" d="M1217.97,-273.87C1076.22,-261.13 814.67,-232.62 731.5,-190 713.11,-180.58 696.16,-166.16 681.91,-151.43"/>
<polygon fill="none" stroke="midnightblue" points="1217.7,-277.36 1227.97,-274.76 1218.32,-270.39 1217.7,-277.36"/>
</g>
<!-- Node7 -->
<g id="node7" class="node">
<title>Node7</title>
<g id="a_node7"><a xlink:href="../../d7/d2f/classSDK_1_1UEFParticleSoundContainerDown.html" target="_top" xlink:title=" ">
<polygon fill="white" stroke="black" points="740.5,-17 740.5,-173 932.5,-173 932.5,-17 740.5,-17"/>
<text text-anchor="middle" x="836.5" y="-161" font-family="Helvetica,sans-Serif" font-size="10.00">SDK::UEFParticleSoundContainerDown</text>
<polyline fill="none" stroke="black" points="740.5,-154 932.5,-154 "/>
<text text-anchor="start" x="748.5" y="-142" font-family="Helvetica,sans-Serif" font-size="10.00">+ Small</text>
<text text-anchor="start" x="748.5" y="-131" font-family="Helvetica,sans-Serif" font-size="10.00">+ Medium</text>
<text text-anchor="start" x="748.5" y="-120" font-family="Helvetica,sans-Serif" font-size="10.00">+ SpingBound_Small</text>
<text text-anchor="start" x="748.5" y="-109" font-family="Helvetica,sans-Serif" font-size="10.00">+ SpingBound_Medium</text>
<text text-anchor="start" x="748.5" y="-98" font-family="Helvetica,sans-Serif" font-size="10.00">+ EditorImage_Small</text>
<text text-anchor="start" x="748.5" y="-87" font-family="Helvetica,sans-Serif" font-size="10.00">+ EditorImage_Medium</text>
<text text-anchor="start" x="748.5" y="-76" font-family="Helvetica,sans-Serif" font-size="10.00">+ EditorImage_SpingBound</text>
<text text-anchor="start" x="748.5" y="-65" font-family="Helvetica,sans-Serif" font-size="10.00">_Small</text>
<text text-anchor="start" x="748.5" y="-54" font-family="Helvetica,sans-Serif" font-size="10.00">+ EditorImage_SpingBound</text>
<text text-anchor="start" x="748.5" y="-43" font-family="Helvetica,sans-Serif" font-size="10.00">_Medium</text>
<polyline fill="none" stroke="black" points="740.5,-36 932.5,-36 "/>
<text text-anchor="start" x="748.5" y="-24" font-family="Helvetica,sans-Serif" font-size="10.00">+ StaticClass()</text>
</a>
</g>
</g>
<!-- Node1&#45;&gt;Node7 -->
<g id="edge6" class="edge">
<title>Node1&#45;&gt;Node7</title>
<path fill="none" stroke="midnightblue" d="M1217.39,-271.07C1139.79,-259.53 1028.7,-236.1 941.5,-190 932.42,-185.2 923.49,-179.44 914.9,-173.17"/>
<polygon fill="none" stroke="midnightblue" points="1217.24,-274.59 1227.64,-272.55 1218.24,-267.66 1217.24,-274.59"/>
</g>
<!-- Node8 -->
<g id="node8" class="node">
<title>Node8</title>
<g id="a_node8"><a xlink:href="../../d8/d54/classSDK_1_1UEFParticleSoundContainerEnhance.html" target="_top" xlink:title=" ">
<polygon fill="white" stroke="black" points="951,-50 951,-140 1118,-140 1118,-50 951,-50"/>
<text text-anchor="start" x="959" y="-128" font-family="Helvetica,sans-Serif" font-size="10.00">SDK::UEFParticleSoundContainer</text>
<text text-anchor="middle" x="1034.5" y="-117" font-family="Helvetica,sans-Serif" font-size="10.00">Enhance</text>
<polyline fill="none" stroke="black" points="951,-110 1118,-110 "/>
<text text-anchor="start" x="959" y="-98" font-family="Helvetica,sans-Serif" font-size="10.00">+ UnknownData00</text>
<text text-anchor="start" x="959" y="-87" font-family="Helvetica,sans-Serif" font-size="10.00">+ EnhanceFXArr</text>
<text text-anchor="start" x="959" y="-76" font-family="Helvetica,sans-Serif" font-size="10.00">+ EditorImage_Common</text>
<polyline fill="none" stroke="black" points="951,-69 1118,-69 "/>
<text text-anchor="start" x="959" y="-57" font-family="Helvetica,sans-Serif" font-size="10.00">+ StaticClass()</text>
</a>
</g>
</g>
<!-- Node1&#45;&gt;Node8 -->
<g id="edge7" class="edge">
<title>Node1&#45;&gt;Node8</title>
<path fill="none" stroke="midnightblue" d="M1218.58,-243.06C1187.98,-228.48 1154.62,-210.41 1126.5,-190 1106.91,-175.78 1087.77,-157.22 1072.06,-140.36"/>
<polygon fill="none" stroke="midnightblue" points="1217.44,-246.39 1227.98,-247.48 1220.41,-240.06 1217.44,-246.39"/>
</g>
<!-- Node9 -->
<g id="node9" class="node">
<title>Node9</title>
<g id="a_node9"><a xlink:href="../../d3/d1f/classSDK_1_1UEFParticleSoundContainerFootStep.html" target="_top" xlink:title=" ">
<polygon fill="white" stroke="black" points="1136,-33.5 1136,-156.5 1303,-156.5 1303,-33.5 1136,-33.5"/>
<text text-anchor="start" x="1144" y="-144.5" font-family="Helvetica,sans-Serif" font-size="10.00">SDK::UEFParticleSoundContainer</text>
<text text-anchor="middle" x="1219.5" y="-133.5" font-family="Helvetica,sans-Serif" font-size="10.00">FootStep</text>
<polyline fill="none" stroke="black" points="1136,-126.5 1303,-126.5 "/>
<text text-anchor="start" x="1144" y="-114.5" font-family="Helvetica,sans-Serif" font-size="10.00">+ Left</text>
<text text-anchor="start" x="1144" y="-103.5" font-family="Helvetica,sans-Serif" font-size="10.00">+ Right</text>
<text text-anchor="start" x="1144" y="-92.5" font-family="Helvetica,sans-Serif" font-size="10.00">+ ArmorEffect</text>
<text text-anchor="start" x="1144" y="-81.5" font-family="Helvetica,sans-Serif" font-size="10.00">+ EditorImage_Left</text>
<text text-anchor="start" x="1144" y="-70.5" font-family="Helvetica,sans-Serif" font-size="10.00">+ EditorImage_Right</text>
<text text-anchor="start" x="1144" y="-59.5" font-family="Helvetica,sans-Serif" font-size="10.00">+ EditorImage_ArmorEffect</text>
<polyline fill="none" stroke="black" points="1136,-52.5 1303,-52.5 "/>
<text text-anchor="start" x="1144" y="-40.5" font-family="Helvetica,sans-Serif" font-size="10.00">+ StaticClass()</text>
</a>
</g>
</g>
<!-- Node1&#45;&gt;Node9 -->
<g id="edge8" class="edge">
<title>Node1&#45;&gt;Node9</title>
<path fill="none" stroke="midnightblue" d="M1279.61,-217.19C1269.89,-197.6 1259.24,-176.13 1249.64,-156.78"/>
<polygon fill="none" stroke="midnightblue" points="1276.57,-218.94 1284.15,-226.35 1282.84,-215.83 1276.57,-218.94"/>
</g>
<!-- Node10 -->
<g id="node10" class="node">
<title>Node10</title>
<g id="a_node10"><a xlink:href="../../dd/ddd/classSDK_1_1UEFParticleSoundContainerGroundEffect.html" target="_top" xlink:title=" ">
<polygon fill="white" stroke="black" points="1321,-39 1321,-151 1488,-151 1488,-39 1321,-39"/>
<text text-anchor="start" x="1329" y="-139" font-family="Helvetica,sans-Serif" font-size="10.00">SDK::UEFParticleSoundContainer</text>
<text text-anchor="middle" x="1404.5" y="-128" font-family="Helvetica,sans-Serif" font-size="10.00">GroundEffect</text>
<polyline fill="none" stroke="black" points="1321,-121 1488,-121 "/>
<text text-anchor="start" x="1329" y="-109" font-family="Helvetica,sans-Serif" font-size="10.00">+ UnknownData00</text>
<text text-anchor="start" x="1329" y="-98" font-family="Helvetica,sans-Serif" font-size="10.00">+ GroundEffectArr</text>
<text text-anchor="start" x="1329" y="-87" font-family="Helvetica,sans-Serif" font-size="10.00">+ DefaultRange</text>
<text text-anchor="start" x="1329" y="-76" font-family="Helvetica,sans-Serif" font-size="10.00">+ DefaultTarget</text>
<text text-anchor="start" x="1329" y="-65" font-family="Helvetica,sans-Serif" font-size="10.00">+ EditorImage_GroundEffect</text>
<polyline fill="none" stroke="black" points="1321,-58 1488,-58 "/>
<text text-anchor="start" x="1329" y="-46" font-family="Helvetica,sans-Serif" font-size="10.00">+ StaticClass()</text>
</a>
</g>
</g>
<!-- Node1&#45;&gt;Node10 -->
<g id="edge9" class="edge">
<title>Node1&#45;&gt;Node10</title>
<path fill="none" stroke="midnightblue" d="M1343.69,-217.29C1354.47,-195.78 1366.39,-172.02 1376.79,-151.26"/>
<polygon fill="none" stroke="midnightblue" points="1340.5,-215.84 1339.15,-226.35 1346.76,-218.98 1340.5,-215.84"/>
</g>
<!-- Node11 -->
<g id="node11" class="node">
<title>Node11</title>
<g id="a_node11"><a xlink:href="../../dd/dc5/classSDK_1_1UEFParticleSoundContainerKnockback.html" target="_top" xlink:title=" ">
<polygon fill="white" stroke="black" points="1506,-55.5 1506,-134.5 1673,-134.5 1673,-55.5 1506,-55.5"/>
<text text-anchor="start" x="1514" y="-122.5" font-family="Helvetica,sans-Serif" font-size="10.00">SDK::UEFParticleSoundContainer</text>
<text text-anchor="middle" x="1589.5" y="-111.5" font-family="Helvetica,sans-Serif" font-size="10.00">Knockback</text>
<polyline fill="none" stroke="black" points="1506,-104.5 1673,-104.5 "/>
<text text-anchor="start" x="1514" y="-92.5" font-family="Helvetica,sans-Serif" font-size="10.00">+ KnockbackEffect</text>
<text text-anchor="start" x="1514" y="-81.5" font-family="Helvetica,sans-Serif" font-size="10.00">+ EditorImage_Knockback</text>
<polyline fill="none" stroke="black" points="1506,-74.5 1673,-74.5 "/>
<text text-anchor="start" x="1514" y="-62.5" font-family="Helvetica,sans-Serif" font-size="10.00">+ StaticClass()</text>
</a>
</g>
</g>
<!-- Node1&#45;&gt;Node11 -->
<g id="edge10" class="edge">
<title>Node1&#45;&gt;Node11</title>
<path fill="none" stroke="midnightblue" d="M1404.1,-243.52C1435.09,-228.88 1468.98,-210.65 1497.5,-190 1519.33,-174.2 1540.58,-152.99 1557.15,-134.72"/>
<polygon fill="none" stroke="midnightblue" points="1402.61,-240.36 1395.02,-247.76 1405.56,-246.71 1402.61,-240.36"/>
</g>
<!-- Node12 -->
<g id="node12" class="node">
<title>Node12</title>
<g id="a_node12"><a xlink:href="../../d9/dad/classSDK_1_1UEFParticleSoundContainerPostProcessEffectCamera.html" target="_top" xlink:title=" ">
<polygon fill="white" stroke="black" points="1691,-61 1691,-129 1858,-129 1858,-61 1691,-61"/>
<text text-anchor="start" x="1699" y="-117" font-family="Helvetica,sans-Serif" font-size="10.00">SDK::UEFParticleSoundContainer</text>
<text text-anchor="middle" x="1774.5" y="-106" font-family="Helvetica,sans-Serif" font-size="10.00">PostProcessEffectCamera</text>
<polyline fill="none" stroke="black" points="1691,-99 1858,-99 "/>
<text text-anchor="start" x="1699" y="-87" font-family="Helvetica,sans-Serif" font-size="10.00">+ CameraEffect</text>
<polyline fill="none" stroke="black" points="1691,-80 1858,-80 "/>
<text text-anchor="start" x="1699" y="-68" font-family="Helvetica,sans-Serif" font-size="10.00">+ StaticClass()</text>
</a>
</g>
</g>
<!-- Node1&#45;&gt;Node12 -->
<g id="edge11" class="edge">
<title>Node1&#45;&gt;Node12</title>
<path fill="none" stroke="midnightblue" d="M1405.56,-272.77C1483.91,-262.22 1596.22,-239.28 1682.5,-190 1709.07,-174.82 1733.03,-149.78 1749.83,-129.36"/>
<polygon fill="none" stroke="midnightblue" points="1404.68,-269.35 1395.21,-274.11 1405.58,-276.29 1404.68,-269.35"/>
</g>
<!-- Node13 -->
<g id="node13" class="node">
<title>Node13</title>
<g id="a_node13"><a xlink:href="../../d0/d2b/classSDK_1_1UEFParticleSoundContainerSkillHitSet.html" target="_top" xlink:title=" ">
<polygon fill="white" stroke="black" points="1876,-50 1876,-140 2043,-140 2043,-50 1876,-50"/>
<text text-anchor="start" x="1884" y="-128" font-family="Helvetica,sans-Serif" font-size="10.00">SDK::UEFParticleSoundContainer</text>
<text text-anchor="middle" x="1959.5" y="-117" font-family="Helvetica,sans-Serif" font-size="10.00">SkillHitSet</text>
<polyline fill="none" stroke="black" points="1876,-110 2043,-110 "/>
<text text-anchor="start" x="1884" y="-98" font-family="Helvetica,sans-Serif" font-size="10.00">+ UnknownData00</text>
<text text-anchor="start" x="1884" y="-87" font-family="Helvetica,sans-Serif" font-size="10.00">+ SkillSetEffectArr</text>
<text text-anchor="start" x="1884" y="-76" font-family="Helvetica,sans-Serif" font-size="10.00">+ EditorImage_Skill</text>
<polyline fill="none" stroke="black" points="1876,-69 2043,-69 "/>
<text text-anchor="start" x="1884" y="-57" font-family="Helvetica,sans-Serif" font-size="10.00">+ StaticClass()</text>
</a>
</g>
</g>
<!-- Node1&#45;&gt;Node13 -->
<g id="edge12" class="edge">
<title>Node1&#45;&gt;Node13</title>
<path fill="none" stroke="midnightblue" d="M1405.16,-273.19C1541.96,-259.86 1788.7,-230.98 1867.5,-190 1890.39,-178.09 1911,-158.38 1926.88,-140.08"/>
<polygon fill="none" stroke="midnightblue" points="1404.72,-269.72 1395.1,-274.16 1405.39,-276.68 1404.72,-269.72"/>
</g>
<!-- Node14 -->
<g id="node14" class="node">
<title>Node14</title>
<g id="a_node14"><a xlink:href="../../d7/dfd/classSDK_1_1UEFParticleSoundContainerWeaponAttributeEffect.html" target="_top" xlink:title=" ">
<polygon fill="white" stroke="black" points="2061,-0.5 2061,-189.5 2228,-189.5 2228,-0.5 2061,-0.5"/>
<text text-anchor="start" x="2069" y="-177.5" font-family="Helvetica,sans-Serif" font-size="10.00">SDK::UEFParticleSoundContainer</text>
<text text-anchor="middle" x="2144.5" y="-166.5" font-family="Helvetica,sans-Serif" font-size="10.00">WeaponAttributeEffect</text>
<polyline fill="none" stroke="black" points="2061,-159.5 2228,-159.5 "/>
<text text-anchor="start" x="2069" y="-147.5" font-family="Helvetica,sans-Serif" font-size="10.00">+ UnknownData00</text>
<text text-anchor="start" x="2069" y="-136.5" font-family="Helvetica,sans-Serif" font-size="10.00">+ WeaponAttributeEffectArr</text>
<text text-anchor="start" x="2069" y="-125.5" font-family="Helvetica,sans-Serif" font-size="10.00">+ EditorImage_WeaponAttribute</text>
<text text-anchor="start" x="2069" y="-114.5" font-family="Helvetica,sans-Serif" font-size="10.00">Effect</text>
<text text-anchor="start" x="2069" y="-103.5" font-family="Helvetica,sans-Serif" font-size="10.00">+ DefaultAttributeEffectArr</text>
<text text-anchor="start" x="2069" y="-92.5" font-family="Helvetica,sans-Serif" font-size="10.00">+ Sword</text>
<text text-anchor="start" x="2069" y="-81.5" font-family="Helvetica,sans-Serif" font-size="10.00">+ Bow</text>
<text text-anchor="start" x="2069" y="-70.5" font-family="Helvetica,sans-Serif" font-size="10.00">+ Gun</text>
<text text-anchor="start" x="2069" y="-59.5" font-family="Helvetica,sans-Serif" font-size="10.00">+ Spear</text>
<text text-anchor="start" x="2069" y="-48.5" font-family="Helvetica,sans-Serif" font-size="10.00">+ Gauntlet</text>
<text text-anchor="start" x="2069" y="-37.5" font-family="Helvetica,sans-Serif" font-size="10.00">+ Instrument</text>
<text text-anchor="start" x="2069" y="-26.5" font-family="Helvetica,sans-Serif" font-size="10.00">and 14 more...</text>
<polyline fill="none" stroke="black" points="2061,-19.5 2228,-19.5 "/>
<text text-anchor="start" x="2069" y="-7.5" font-family="Helvetica,sans-Serif" font-size="10.00">+ StaticClass()</text>
</a>
</g>
</g>
<!-- Node1&#45;&gt;Node14 -->
<g id="edge13" class="edge">
<title>Node1&#45;&gt;Node14</title>
<path fill="none" stroke="midnightblue" d="M1405.24,-277.61C1578.35,-269.17 1940.73,-245.31 2052.5,-190 2055.37,-188.58 2058.19,-187.04 2060.98,-185.39"/>
<polygon fill="none" stroke="midnightblue" points="1404.95,-274.12 1395.12,-278.09 1405.28,-281.11 1404.95,-274.12"/>
</g>
<!-- Node15 -->
<g id="node15" class="node">
<title>Node15</title>
<g id="a_node15"><a xlink:href="../../d4/d52/classSDK_1_1UEFParticleSoundContainerWeaponFX.html" target="_top" xlink:title=" ">
<polygon fill="white" stroke="black" points="2246,-50 2246,-140 2413,-140 2413,-50 2246,-50"/>
<text text-anchor="start" x="2254" y="-128" font-family="Helvetica,sans-Serif" font-size="10.00">SDK::UEFParticleSoundContainer</text>
<text text-anchor="middle" x="2329.5" y="-117" font-family="Helvetica,sans-Serif" font-size="10.00">WeaponFX</text>
<polyline fill="none" stroke="black" points="2246,-110 2413,-110 "/>
<text text-anchor="start" x="2254" y="-98" font-family="Helvetica,sans-Serif" font-size="10.00">+ Defaul_Trail</text>
<text text-anchor="start" x="2254" y="-87" font-family="Helvetica,sans-Serif" font-size="10.00">+ WeaponDir</text>
<text text-anchor="start" x="2254" y="-76" font-family="Helvetica,sans-Serif" font-size="10.00">+ EditorImage_Weapon</text>
<polyline fill="none" stroke="black" points="2246,-69 2413,-69 "/>
<text text-anchor="start" x="2254" y="-57" font-family="Helvetica,sans-Serif" font-size="10.00">+ StaticClass()</text>
</a>
</g>
</g>
<!-- Node1&#45;&gt;Node15 -->
<g id="edge14" class="edge">
<title>Node1&#45;&gt;Node15</title>
<path fill="none" stroke="midnightblue" d="M1405.27,-280.29C1610.38,-276.36 2092.12,-259.75 2237.5,-190 2260.97,-178.74 2281.78,-158.87 2297.65,-140.29"/>
<polygon fill="none" stroke="midnightblue" points="1405.06,-276.79 1395.13,-280.48 1405.19,-283.79 1405.06,-276.79"/>
</g>
<!-- Node16 -->
<g id="node16" class="node">
<title>Node16</title>
<g id="a_node16"><a xlink:href="../../d3/dba/classSDK_1_1UEFParticleSoundContainerWeaponHitSet.html" target="_top" xlink:title=" ">
<polygon fill="white" stroke="black" points="2431,-6 2431,-184 2598,-184 2598,-6 2431,-6"/>
<text text-anchor="start" x="2439" y="-172" font-family="Helvetica,sans-Serif" font-size="10.00">SDK::UEFParticleSoundContainer</text>
<text text-anchor="middle" x="2514.5" y="-161" font-family="Helvetica,sans-Serif" font-size="10.00">WeaponHitSet</text>
<polyline fill="none" stroke="black" points="2431,-154 2598,-154 "/>
<text text-anchor="start" x="2439" y="-142" font-family="Helvetica,sans-Serif" font-size="10.00">+ WeaponSetEffectArr</text>
<text text-anchor="start" x="2439" y="-131" font-family="Helvetica,sans-Serif" font-size="10.00">+ Default</text>
<text text-anchor="start" x="2439" y="-120" font-family="Helvetica,sans-Serif" font-size="10.00">+ Sword</text>
<text text-anchor="start" x="2439" y="-109" font-family="Helvetica,sans-Serif" font-size="10.00">+ Bow</text>
<text text-anchor="start" x="2439" y="-98" font-family="Helvetica,sans-Serif" font-size="10.00">+ Gun</text>
<text text-anchor="start" x="2439" y="-87" font-family="Helvetica,sans-Serif" font-size="10.00">+ Spear</text>
<text text-anchor="start" x="2439" y="-76" font-family="Helvetica,sans-Serif" font-size="10.00">+ Gauntlet</text>
<text text-anchor="start" x="2439" y="-65" font-family="Helvetica,sans-Serif" font-size="10.00">+ Instrument</text>
<text text-anchor="start" x="2439" y="-54" font-family="Helvetica,sans-Serif" font-size="10.00">+ Hammer</text>
<text text-anchor="start" x="2439" y="-43" font-family="Helvetica,sans-Serif" font-size="10.00">+ Dagger</text>
<text text-anchor="start" x="2439" y="-32" font-family="Helvetica,sans-Serif" font-size="10.00">and 13 more...</text>
<polyline fill="none" stroke="black" points="2431,-25 2598,-25 "/>
<text text-anchor="start" x="2439" y="-13" font-family="Helvetica,sans-Serif" font-size="10.00">+ StaticClass()</text>
</a>
</g>
</g>
<!-- Node1&#45;&gt;Node16 -->
<g id="edge15" class="edge">
<title>Node1&#45;&gt;Node16</title>
<path fill="none" stroke="midnightblue" d="M1405.42,-282.1C1639.53,-282.27 2243.1,-274.27 2422.5,-190 2426.22,-188.25 2429.87,-186.29 2433.45,-184.14"/>
<polygon fill="none" stroke="midnightblue" points="1405.23,-278.6 1395.22,-282.08 1405.22,-285.6 1405.23,-278.6"/>
</g>
<!-- Node2 -->
<g id="node2" class="node">
<title>Node2</title>
<g id="a_node2"><a xlink:href="../../d9/d45/classSDK_1_1UObject.html" target="_top" xlink:title=" ">
<polygon fill="white" stroke="black" points="1212.5,-375.5 1212.5,-729.5 1410.5,-729.5 1410.5,-375.5 1212.5,-375.5"/>
<text text-anchor="middle" x="1311.5" y="-717.5" font-family="Helvetica,sans-Serif" font-size="10.00">SDK::UObject</text>
<polyline fill="none" stroke="black" points="1212.5,-710.5 1410.5,-710.5 "/>
<text text-anchor="start" x="1220.5" y="-698.5" font-family="Helvetica,sans-Serif" font-size="10.00">+ VfTableObject</text>
<text text-anchor="start" x="1220.5" y="-687.5" font-family="Helvetica,sans-Serif" font-size="10.00">+ ObjectFlags</text>
<text text-anchor="start" x="1220.5" y="-676.5" font-family="Helvetica,sans-Serif" font-size="10.00">+ StateFrame</text>
<text text-anchor="start" x="1220.5" y="-665.5" font-family="Helvetica,sans-Serif" font-size="10.00">+ Linker</text>
<text text-anchor="start" x="1220.5" y="-654.5" font-family="Helvetica,sans-Serif" font-size="10.00">+ LinkerIndex</text>
<text text-anchor="start" x="1220.5" y="-643.5" font-family="Helvetica,sans-Serif" font-size="10.00">+ ObjectInternalInteger</text>
<text text-anchor="start" x="1220.5" y="-632.5" font-family="Helvetica,sans-Serif" font-size="10.00">+ NetIndex</text>
<text text-anchor="start" x="1220.5" y="-621.5" font-family="Helvetica,sans-Serif" font-size="10.00">+ Outer</text>
<text text-anchor="start" x="1220.5" y="-610.5" font-family="Helvetica,sans-Serif" font-size="10.00">+ Name</text>
<text text-anchor="start" x="1220.5" y="-599.5" font-family="Helvetica,sans-Serif" font-size="10.00">+ Class</text>
<text text-anchor="start" x="1220.5" y="-588.5" font-family="Helvetica,sans-Serif" font-size="10.00">+ ObjectArchetype</text>
<text text-anchor="start" x="1220.5" y="-577.5" font-family="Helvetica,sans-Serif" font-size="10.00">+ GObjects</text>
<polyline fill="none" stroke="black" points="1212.5,-570.5 1410.5,-570.5 "/>
<text text-anchor="start" x="1220.5" y="-558.5" font-family="Helvetica,sans-Serif" font-size="10.00">+ UObject::GetName()</text>
<text text-anchor="start" x="1220.5" y="-547.5" font-family="Helvetica,sans-Serif" font-size="10.00">+ GetFullName()</text>
<text text-anchor="start" x="1220.5" y="-536.5" font-family="Helvetica,sans-Serif" font-size="10.00">+ IsA()</text>
<text text-anchor="start" x="1220.5" y="-525.5" font-family="Helvetica,sans-Serif" font-size="10.00">+ ProcessEvent()</text>
<text text-anchor="start" x="1220.5" y="-514.5" font-family="Helvetica,sans-Serif" font-size="10.00">+ STATIC_ProfNodeEvent()</text>
<text text-anchor="start" x="1220.5" y="-503.5" font-family="Helvetica,sans-Serif" font-size="10.00">+ STATIC_ProfNodeSetDepthThreshold()</text>
<text text-anchor="start" x="1220.5" y="-492.5" font-family="Helvetica,sans-Serif" font-size="10.00">+ STATIC_ProfNodeSetTimeThreshold</text>
<text text-anchor="start" x="1220.5" y="-481.5" font-family="Helvetica,sans-Serif" font-size="10.00">Seconds()</text>
<text text-anchor="start" x="1220.5" y="-470.5" font-family="Helvetica,sans-Serif" font-size="10.00">+ STATIC_ProfNodeStop()</text>
<text text-anchor="start" x="1220.5" y="-459.5" font-family="Helvetica,sans-Serif" font-size="10.00">+ STATIC_ProfNodeStart()</text>
<text text-anchor="start" x="1220.5" y="-448.5" font-family="Helvetica,sans-Serif" font-size="10.00">+ STATIC_GetStringFromGuid()</text>
<text text-anchor="start" x="1220.5" y="-437.5" font-family="Helvetica,sans-Serif" font-size="10.00">and 298 more...</text>
<text text-anchor="start" x="1220.5" y="-426.5" font-family="Helvetica,sans-Serif" font-size="10.00">+ GetGlobalObjects()</text>
<text text-anchor="start" x="1220.5" y="-415.5" font-family="Helvetica,sans-Serif" font-size="10.00">+ FindObject()</text>
<text text-anchor="start" x="1220.5" y="-404.5" font-family="Helvetica,sans-Serif" font-size="10.00">+ FindClass()</text>
<text text-anchor="start" x="1220.5" y="-393.5" font-family="Helvetica,sans-Serif" font-size="10.00">+ GetObjectCasted()</text>
<text text-anchor="start" x="1220.5" y="-382.5" font-family="Helvetica,sans-Serif" font-size="10.00">+ StaticClass()</text>
</a>
</g>
</g>
<!-- Node2&#45;&gt;Node1 -->
<g id="edge1" class="edge">
<title>Node2&#45;&gt;Node1</title>
<path fill="none" stroke="midnightblue" d="M1311.5,-365.15C1311.5,-355.87 1311.5,-347 1311.5,-338.74"/>
<polygon fill="none" stroke="midnightblue" points="1308,-365.36 1311.5,-375.36 1315,-365.36 1308,-365.36"/>
</g>
</g>
</svg>
