<?xml version="1.0" encoding="UTF-8" standalone="no"?>
<!DOCTYPE svg PUBLIC "-//W3C//DTD SVG 1.1//EN"
 "http://www.w3.org/Graphics/SVG/1.1/DTD/svg11.dtd">
<!-- Generated by graphviz version 2.41.20171026.1811 (20171026.1811)
 -->
<!-- Title: SDK::FParameterValueOverTime Pages: 1 -->
<!--zoomable 270 -->
<svg id="main" version="1.1" xmlns="http://www.w3.org/2000/svg" xmlns:xlink="http://www.w3.org/1999/xlink" xml:space="preserve" onload="init(evt)">
<style type="text/css"><![CDATA[
.edge:hover path { stroke: red; }
.edge:hover polygon { stroke: red; fill: red; }
]]></style>
<script type="text/javascript"><![CDATA[
var edges = document.getElementsByTagName('g');
if (edges && edges.length) {
  for (var i=0;i<edges.length;i++) {
    if (edges[i].id.substr(0,4)=='edge') {
      edges[i].setAttribute('class','edge');
    }
  }
}
]]></script>
        <defs>
                <circle id="rim" cx="0" cy="0" r="7"/>
                <circle id="rim2" cx="0" cy="0" r="3.5"/>
                <g id="zoomPlus">
                        <use xlink:href="#rim" fill="#404040">
                                <set attributeName="fill" to="#808080" begin="zoomplus.mouseover" end="zoomplus.mouseout"/>
                        </use>
                        <path d="M-4,0h8M0,-4v8" fill="none" stroke="white" stroke-width="1.5" pointer-events="none"/>
                </g>
                <g id="zoomMin">
                        <use xlink:href="#rim" fill="#404040">
                                <set attributeName="fill" to="#808080" begin="zoomminus.mouseover" end="zoomminus.mouseout"/>
                        </use>
                        <path d="M-4,0h8" fill="none" stroke="white" stroke-width="1.5" pointer-events="none"/>
                </g>
                <g id="dirArrow">
                        <path fill="none" stroke="white" stroke-width="1.5" d="M0,-3.0v7 M-2.5,-0.5L0,-3.0L2.5,-0.5"/>
                </g>
               <g id="resetDef">
                       <use xlink:href="#rim2" fill="#404040">
                               <set attributeName="fill" to="#808080" begin="reset.mouseover" end="reset.mouseout"/>
                       </use>
               </g>
        </defs>

<script type="text/javascript">
var viewWidth = 812;
var viewHeight = 270;
var sectionId = 'dynsection-0';
</script>
<script xlink:href="../../svgpan.js"/>
<svg id="graph" class="graph">
<g id="viewport">
<title>SDK::FParameterValueOverTime</title>
<polygon fill="white" stroke="transparent" points="-4,4 -4,-266 807.5,-266 807.5,4 -4,4"/>
<!-- Node1 -->
<g id="node1" class="node">
<title>Node1</title>
<g id="a_node1"><a xlink:title=" ">
<polygon fill="#bfbfbf" stroke="black" points="312.5,-116.5 312.5,-261.5 474.5,-261.5 474.5,-116.5 312.5,-116.5"/>
<text text-anchor="middle" x="393.5" y="-249.5" font-family="Helvetica,sans-Serif" font-size="10.00">SDK::FParameterValueOverTime</text>
<polyline fill="none" stroke="black" points="312.5,-242.5 474.5,-242.5 "/>
<text text-anchor="start" x="320.5" y="-230.5" font-family="Helvetica,sans-Serif" font-size="10.00">+ ExpressionGUID</text>
<text text-anchor="start" x="320.5" y="-219.5" font-family="Helvetica,sans-Serif" font-size="10.00">+ StartTime</text>
<text text-anchor="start" x="320.5" y="-208.5" font-family="Helvetica,sans-Serif" font-size="10.00">+ ParameterName</text>
<text text-anchor="start" x="320.5" y="-197.5" font-family="Helvetica,sans-Serif" font-size="10.00">+ bLoop</text>
<text text-anchor="start" x="320.5" y="-186.5" font-family="Helvetica,sans-Serif" font-size="10.00">+ bAutoActivate</text>
<text text-anchor="start" x="320.5" y="-175.5" font-family="Helvetica,sans-Serif" font-size="10.00">+ CycleTime</text>
<text text-anchor="start" x="320.5" y="-164.5" font-family="Helvetica,sans-Serif" font-size="10.00">+ bNormalizeTime</text>
<text text-anchor="start" x="320.5" y="-153.5" font-family="Helvetica,sans-Serif" font-size="10.00">+ OffsetTime</text>
<text text-anchor="start" x="320.5" y="-142.5" font-family="Helvetica,sans-Serif" font-size="10.00">+ bOffsetFromEnd</text>
<polyline fill="none" stroke="black" points="312.5,-135.5 474.5,-135.5 "/>
<text text-anchor="middle" x="393.5" y="-123.5" font-family="Helvetica,sans-Serif" font-size="10.00"> </text>
</a>
</g>
</g>
<!-- Node2 -->
<g id="node2" class="node">
<title>Node2</title>
<g id="a_node2"><a xlink:href="../../db/d71/structSDK_1_1FFontParameterValueOverTime.html" target="_top" xlink:title=" ">
<polygon fill="white" stroke="black" points="0,-0.5 0,-79.5 139,-79.5 139,-0.5 0,-0.5"/>
<text text-anchor="start" x="8" y="-67.5" font-family="Helvetica,sans-Serif" font-size="10.00">SDK::FFontParameterValue</text>
<text text-anchor="middle" x="69.5" y="-56.5" font-family="Helvetica,sans-Serif" font-size="10.00">OverTime</text>
<polyline fill="none" stroke="black" points="0,-49.5 139,-49.5 "/>
<text text-anchor="start" x="8" y="-37.5" font-family="Helvetica,sans-Serif" font-size="10.00">+ FontValue</text>
<text text-anchor="start" x="8" y="-26.5" font-family="Helvetica,sans-Serif" font-size="10.00">+ FontPage</text>
<polyline fill="none" stroke="black" points="0,-19.5 139,-19.5 "/>
<text text-anchor="middle" x="69.5" y="-7.5" font-family="Helvetica,sans-Serif" font-size="10.00"> </text>
</a>
</g>
</g>
<!-- Node1&#45;&gt;Node2 -->
<g id="edge1" class="edge">
<title>Node1&#45;&gt;Node2</title>
<path fill="none" stroke="midnightblue" d="M302.85,-149.15C256.46,-129 199.23,-103.69 148.5,-80 145.45,-78.58 142.34,-77.11 139.21,-75.62"/>
<polygon fill="none" stroke="midnightblue" points="301.7,-152.47 312.27,-153.24 304.49,-146.05 301.7,-152.47"/>
</g>
<!-- Node3 -->
<g id="node3" class="node">
<title>Node3</title>
<g id="a_node3"><a xlink:href="../../df/dea/structSDK_1_1FLinearColorParameterValueOverTime.html" target="_top" xlink:title=" ">
<polygon fill="white" stroke="black" points="157.5,-0.5 157.5,-79.5 301.5,-79.5 301.5,-0.5 157.5,-0.5"/>
<text text-anchor="start" x="165.5" y="-67.5" font-family="Helvetica,sans-Serif" font-size="10.00">SDK::FLinearColorParameter</text>
<text text-anchor="middle" x="229.5" y="-56.5" font-family="Helvetica,sans-Serif" font-size="10.00">ValueOverTime</text>
<polyline fill="none" stroke="black" points="157.5,-49.5 301.5,-49.5 "/>
<text text-anchor="start" x="165.5" y="-37.5" font-family="Helvetica,sans-Serif" font-size="10.00">+ ParameterValue</text>
<text text-anchor="start" x="165.5" y="-26.5" font-family="Helvetica,sans-Serif" font-size="10.00">+ ParameterValueCurve</text>
<polyline fill="none" stroke="black" points="157.5,-19.5 301.5,-19.5 "/>
<text text-anchor="middle" x="229.5" y="-7.5" font-family="Helvetica,sans-Serif" font-size="10.00"> </text>
</a>
</g>
</g>
<!-- Node1&#45;&gt;Node3 -->
<g id="edge2" class="edge">
<title>Node1&#45;&gt;Node3</title>
<path fill="none" stroke="midnightblue" d="M305.89,-109.47C294.43,-99.2 283.13,-89.07 272.87,-79.87"/>
<polygon fill="none" stroke="midnightblue" points="303.64,-112.15 313.42,-116.22 308.31,-106.94 303.64,-112.15"/>
</g>
<!-- Node4 -->
<g id="node4" class="node">
<title>Node4</title>
<g id="a_node4"><a xlink:href="../../db/db0/structSDK_1_1FScalarParameterValueOverTime.html" target="_top" xlink:title=" ">
<polygon fill="white" stroke="black" points="320,-0.5 320,-79.5 467,-79.5 467,-0.5 320,-0.5"/>
<text text-anchor="start" x="328" y="-67.5" font-family="Helvetica,sans-Serif" font-size="10.00">SDK::FScalarParameterValue</text>
<text text-anchor="middle" x="393.5" y="-56.5" font-family="Helvetica,sans-Serif" font-size="10.00">OverTime</text>
<polyline fill="none" stroke="black" points="320,-49.5 467,-49.5 "/>
<text text-anchor="start" x="328" y="-37.5" font-family="Helvetica,sans-Serif" font-size="10.00">+ ParameterValue</text>
<text text-anchor="start" x="328" y="-26.5" font-family="Helvetica,sans-Serif" font-size="10.00">+ ParameterValueCurve</text>
<polyline fill="none" stroke="black" points="320,-19.5 467,-19.5 "/>
<text text-anchor="middle" x="393.5" y="-7.5" font-family="Helvetica,sans-Serif" font-size="10.00"> </text>
</a>
</g>
</g>
<!-- Node1&#45;&gt;Node4 -->
<g id="edge3" class="edge">
<title>Node1&#45;&gt;Node4</title>
<path fill="none" stroke="midnightblue" d="M393.5,-105.95C393.5,-96.9 393.5,-88.02 393.5,-79.87"/>
<polygon fill="none" stroke="midnightblue" points="390,-106.22 393.5,-116.22 397,-106.22 390,-106.22"/>
</g>
<!-- Node5 -->
<g id="node5" class="node">
<title>Node5</title>
<g id="a_node5"><a xlink:href="../../dc/dc5/structSDK_1_1FTextureParameterValueOverTime.html" target="_top" xlink:title=" ">
<polygon fill="white" stroke="black" points="485.5,-6 485.5,-74 637.5,-74 637.5,-6 485.5,-6"/>
<text text-anchor="start" x="493.5" y="-62" font-family="Helvetica,sans-Serif" font-size="10.00">SDK::FTextureParameterValue</text>
<text text-anchor="middle" x="561.5" y="-51" font-family="Helvetica,sans-Serif" font-size="10.00">OverTime</text>
<polyline fill="none" stroke="black" points="485.5,-44 637.5,-44 "/>
<text text-anchor="start" x="493.5" y="-32" font-family="Helvetica,sans-Serif" font-size="10.00">+ ParameterValue</text>
<polyline fill="none" stroke="black" points="485.5,-25 637.5,-25 "/>
<text text-anchor="middle" x="561.5" y="-13" font-family="Helvetica,sans-Serif" font-size="10.00"> </text>
</a>
</g>
</g>
<!-- Node1&#45;&gt;Node5 -->
<g id="edge4" class="edge">
<title>Node1&#45;&gt;Node5</title>
<path fill="none" stroke="midnightblue" d="M482.17,-110.41C496.74,-97.67 511.11,-85.09 523.54,-74.21"/>
<polygon fill="none" stroke="midnightblue" points="479.77,-107.86 474.55,-117.08 484.38,-113.13 479.77,-107.86"/>
</g>
<!-- Node6 -->
<g id="node6" class="node">
<title>Node6</title>
<g id="a_node6"><a xlink:href="../../da/d44/structSDK_1_1FVectorParameterValueOverTime.html" target="_top" xlink:title=" ">
<polygon fill="white" stroke="black" points="655.5,-0.5 655.5,-79.5 803.5,-79.5 803.5,-0.5 655.5,-0.5"/>
<text text-anchor="start" x="663.5" y="-67.5" font-family="Helvetica,sans-Serif" font-size="10.00">SDK::FVectorParameterValue</text>
<text text-anchor="middle" x="729.5" y="-56.5" font-family="Helvetica,sans-Serif" font-size="10.00">OverTime</text>
<polyline fill="none" stroke="black" points="655.5,-49.5 803.5,-49.5 "/>
<text text-anchor="start" x="663.5" y="-37.5" font-family="Helvetica,sans-Serif" font-size="10.00">+ ParameterValue</text>
<text text-anchor="start" x="663.5" y="-26.5" font-family="Helvetica,sans-Serif" font-size="10.00">+ ParameterValueCurve</text>
<polyline fill="none" stroke="black" points="655.5,-19.5 803.5,-19.5 "/>
<text text-anchor="middle" x="729.5" y="-7.5" font-family="Helvetica,sans-Serif" font-size="10.00"> </text>
</a>
</g>
</g>
<!-- Node1&#45;&gt;Node6 -->
<g id="edge5" class="edge">
<title>Node1&#45;&gt;Node6</title>
<path fill="none" stroke="midnightblue" d="M484.22,-150.2C532.58,-129.82 592.98,-103.99 646.5,-80 649.41,-78.7 652.36,-77.36 655.35,-76"/>
<polygon fill="none" stroke="midnightblue" points="482.58,-147.09 474.72,-154.2 485.29,-153.55 482.58,-147.09"/>
</g>
</g>
</svg>
        <g id="navigator" transform="translate(0 0)" fill="#404254">
                <rect fill="#f2f5e9" fill-opacity="0.5" stroke="#606060" stroke-width=".5" x="0" y="0" width="60" height="60"/>
                <use id="zoomplus" xlink:href="#zoomPlus" x="17" y="9" onmousedown="handleZoom(evt,'in')"/>
                <use id="zoomminus" xlink:href="#zoomMin" x="42" y="9" onmousedown="handleZoom(evt,'out')"/>
                <use id="reset" xlink:href="#resetDef" x="30" y="36" onmousedown="handleReset()"/>
                <g id="arrowUp" xlink:href="#dirArrow" transform="translate(30 24)" onmousedown="handlePan(0,-1)">
                  <use xlink:href="#rim" fill="#404040">
                        <set attributeName="fill" to="#808080" begin="arrowUp.mouseover" end="arrowUp.mouseout"/>
                  </use>
                  <path fill="none" stroke="white" stroke-width="1.5" d="M0,-3.0v7 M-2.5,-0.5L0,-3.0L2.5,-0.5"/>
                </g>
                <g id="arrowRight" xlink:href="#dirArrow" transform="rotate(90) translate(36 -43)" onmousedown="handlePan(1,0)">
                  <use xlink:href="#rim" fill="#404040">
                        <set attributeName="fill" to="#808080" begin="arrowRight.mouseover" end="arrowRight.mouseout"/>
                  </use>
                  <path fill="none" stroke="white" stroke-width="1.5" d="M0,-3.0v7 M-2.5,-0.5L0,-3.0L2.5,-0.5"/>
                </g>
                <g id="arrowDown" xlink:href="#dirArrow" transform="rotate(180) translate(-30 -48)" onmousedown="handlePan(0,1)">
                  <use xlink:href="#rim" fill="#404040">
                        <set attributeName="fill" to="#808080" begin="arrowDown.mouseover" end="arrowDown.mouseout"/>
                  </use>
                  <path fill="none" stroke="white" stroke-width="1.5" d="M0,-3.0v7 M-2.5,-0.5L0,-3.0L2.5,-0.5"/>
                </g>
                <g id="arrowLeft" xlink:href="#dirArrow" transform="rotate(270) translate(-36 17)" onmousedown="handlePan(-1,0)">
                  <use xlink:href="#rim" fill="#404040">
                        <set attributeName="fill" to="#808080" begin="arrowLeft.mouseover" end="arrowLeft.mouseout"/>
                  </use>
                  <path fill="none" stroke="white" stroke-width="1.5" d="M0,-3.0v7 M-2.5,-0.5L0,-3.0L2.5,-0.5"/>
                </g>
        </g>
        <svg viewBox="0 0 15 15" width="100%" height="30px" preserveAspectRatio="xMaxYMin meet">
         <g id="arrow_out" transform="scale(0.3 0.3)">
          <a xlink:href="structSDK_1_1FParameterValueOverTime__inherit__graph_org.svg" target="_base">
           <rect id="button" ry="5" rx="5" y="6" x="6" height="38" width="38"
                fill="#f2f5e9" fill-opacity="0.5" stroke="#606060" stroke-width="1.0"/>
           <path id="arrow"
             d="M 11.500037,31.436501 C 11.940474,20.09759 22.043105,11.32322 32.158766,21.979434 L 37.068811,17.246167 C 37.068811,17.246167 37.088388,32 37.088388,32 L 22.160133,31.978069 C 22.160133,31.978069 26.997745,27.140456 26.997745,27.140456 C 18.528582,18.264221 13.291696,25.230495 11.500037,31.436501 z"
             style="fill:#404040;"/>
          </a>
         </g>
        </svg>
</svg>
