<?xml version="1.0" encoding="UTF-8" standalone="no"?>
<!DOCTYPE svg PUBLIC "-//W3C//DTD SVG 1.1//EN"
 "http://www.w3.org/Graphics/SVG/1.1/DTD/svg11.dtd">
<!-- Generated by graphviz version 2.41.20171026.1811 (20171026.1811)
 -->
<!-- Title: SDK::FstMaterialExpressionParameter Pages: 1 -->
<svg width="626pt" height="226pt"
 viewBox="0.00 0.00 626.00 226.00" xmlns="http://www.w3.org/2000/svg" xmlns:xlink="http://www.w3.org/1999/xlink">
<g id="graph0" class="graph" transform="scale(1 1) rotate(0) translate(4 222)">
<title>SDK::FstMaterialExpressionParameter</title>
<polygon fill="white" stroke="transparent" points="-4,4 -4,-222 622,-222 622,4 -4,4"/>
<!-- Node1 -->
<g id="node1" class="node">
<title>Node1</title>
<g id="a_node1"><a xlink:title=" ">
<polygon fill="#bfbfbf" stroke="black" points="231.5,-127.5 231.5,-217.5 385.5,-217.5 385.5,-127.5 231.5,-127.5"/>
<text text-anchor="start" x="239.5" y="-205.5" font-family="Helvetica,sans-Serif" font-size="10.00">SDK::FstMaterialExpression</text>
<text text-anchor="middle" x="308.5" y="-194.5" font-family="Helvetica,sans-Serif" font-size="10.00">Parameter</text>
<polyline fill="none" stroke="black" points="231.5,-187.5 385.5,-187.5 "/>
<text text-anchor="start" x="239.5" y="-175.5" font-family="Helvetica,sans-Serif" font-size="10.00">+ MaterialExpressionParameter</text>
<text text-anchor="start" x="239.5" y="-164.5" font-family="Helvetica,sans-Serif" font-size="10.00">MsgID</text>
<text text-anchor="start" x="239.5" y="-153.5" font-family="Helvetica,sans-Serif" font-size="10.00">+ ExpressionParameterName</text>
<polyline fill="none" stroke="black" points="231.5,-146.5 385.5,-146.5 "/>
<text text-anchor="middle" x="308.5" y="-134.5" font-family="Helvetica,sans-Serif" font-size="10.00"> </text>
</a>
</g>
</g>
<!-- Node2 -->
<g id="node2" class="node">
<title>Node2</title>
<g id="a_node2"><a xlink:href="../../d0/d0a/structSDK_1_1FstMaterialExpressionBoolParameter.html" target="_top" xlink:title=" ">
<polygon fill="white" stroke="black" points="0,-11.5 0,-79.5 141,-79.5 141,-11.5 0,-11.5"/>
<text text-anchor="start" x="8" y="-67.5" font-family="Helvetica,sans-Serif" font-size="10.00">SDK::FstMaterialExpression</text>
<text text-anchor="middle" x="70.5" y="-56.5" font-family="Helvetica,sans-Serif" font-size="10.00">BoolParameter</text>
<polyline fill="none" stroke="black" points="0,-49.5 141,-49.5 "/>
<text text-anchor="start" x="8" y="-37.5" font-family="Helvetica,sans-Serif" font-size="10.00">+ bDefault</text>
<polyline fill="none" stroke="black" points="0,-30.5 141,-30.5 "/>
<text text-anchor="middle" x="70.5" y="-18.5" font-family="Helvetica,sans-Serif" font-size="10.00"> </text>
</a>
</g>
</g>
<!-- Node1&#45;&gt;Node2 -->
<g id="edge1" class="edge">
<title>Node1&#45;&gt;Node2</title>
<path fill="none" stroke="midnightblue" d="M222.33,-128.75C198.62,-116.75 172.97,-103.54 149.5,-91 142.7,-87.36 135.6,-83.49 128.58,-79.6"/>
<polygon fill="none" stroke="midnightblue" points="220.81,-131.9 231.32,-133.29 223.97,-125.65 220.81,-131.9"/>
</g>
<!-- Node3 -->
<g id="node3" class="node">
<title>Node3</title>
<g id="a_node3"><a xlink:href="../../dd/d3a/structSDK_1_1FstMaterialExpressionScalarParameter.html" target="_top" xlink:title=" ">
<polygon fill="white" stroke="black" points="159,-6 159,-85 300,-85 300,-6 159,-6"/>
<text text-anchor="start" x="167" y="-73" font-family="Helvetica,sans-Serif" font-size="10.00">SDK::FstMaterialExpression</text>
<text text-anchor="middle" x="229.5" y="-62" font-family="Helvetica,sans-Serif" font-size="10.00">ScalarParameter</text>
<polyline fill="none" stroke="black" points="159,-55 300,-55 "/>
<text text-anchor="start" x="167" y="-43" font-family="Helvetica,sans-Serif" font-size="10.00">+ fDefault</text>
<text text-anchor="start" x="167" y="-32" font-family="Helvetica,sans-Serif" font-size="10.00">+ InterpolationRange</text>
<polyline fill="none" stroke="black" points="159,-25 300,-25 "/>
<text text-anchor="middle" x="229.5" y="-13" font-family="Helvetica,sans-Serif" font-size="10.00"> </text>
</a>
</g>
</g>
<!-- Node1&#45;&gt;Node3 -->
<g id="edge2" class="edge">
<title>Node1&#45;&gt;Node3</title>
<path fill="none" stroke="midnightblue" d="M275.26,-118.9C268.11,-107.59 260.69,-95.85 253.95,-85.19"/>
<polygon fill="none" stroke="midnightblue" points="272.35,-120.85 280.65,-127.43 278.26,-117.11 272.35,-120.85"/>
</g>
<!-- Node4 -->
<g id="node4" class="node">
<title>Node4</title>
<g id="a_node4"><a xlink:href="../../d0/dca/structSDK_1_1FstMaterialExpressionTextureSampleParameter.html" target="_top" xlink:title=" ">
<polygon fill="white" stroke="black" points="318,-0.5 318,-90.5 459,-90.5 459,-0.5 318,-0.5"/>
<text text-anchor="start" x="326" y="-78.5" font-family="Helvetica,sans-Serif" font-size="10.00">SDK::FstMaterialExpression</text>
<text text-anchor="middle" x="388.5" y="-67.5" font-family="Helvetica,sans-Serif" font-size="10.00">TextureSampleParameter</text>
<polyline fill="none" stroke="black" points="318,-60.5 459,-60.5 "/>
<text text-anchor="start" x="326" y="-48.5" font-family="Helvetica,sans-Serif" font-size="10.00">+ PaletteName</text>
<text text-anchor="start" x="326" y="-37.5" font-family="Helvetica,sans-Serif" font-size="10.00">+ DefaultTexture</text>
<text text-anchor="start" x="326" y="-26.5" font-family="Helvetica,sans-Serif" font-size="10.00">+ DefaultTexturePath</text>
<polyline fill="none" stroke="black" points="318,-19.5 459,-19.5 "/>
<text text-anchor="middle" x="388.5" y="-7.5" font-family="Helvetica,sans-Serif" font-size="10.00"> </text>
</a>
</g>
</g>
<!-- Node1&#45;&gt;Node4 -->
<g id="edge3" class="edge">
<title>Node1&#45;&gt;Node4</title>
<path fill="none" stroke="midnightblue" d="M342.17,-118.89C348.2,-109.47 354.42,-99.74 360.28,-90.59"/>
<polygon fill="none" stroke="midnightblue" points="339.15,-117.12 336.71,-127.43 345.04,-120.89 339.15,-117.12"/>
</g>
<!-- Node5 -->
<g id="node5" class="node">
<title>Node5</title>
<g id="a_node5"><a xlink:href="../../db/d1c/structSDK_1_1FstMaterialExpressionVectorParameter.html" target="_top" xlink:title=" ">
<polygon fill="white" stroke="black" points="477,-0.5 477,-90.5 618,-90.5 618,-0.5 477,-0.5"/>
<text text-anchor="start" x="485" y="-78.5" font-family="Helvetica,sans-Serif" font-size="10.00">SDK::FstMaterialExpression</text>
<text text-anchor="middle" x="547.5" y="-67.5" font-family="Helvetica,sans-Serif" font-size="10.00">VectorParameter</text>
<polyline fill="none" stroke="black" points="477,-60.5 618,-60.5 "/>
<text text-anchor="start" x="485" y="-48.5" font-family="Helvetica,sans-Serif" font-size="10.00">+ PaletteName</text>
<text text-anchor="start" x="485" y="-37.5" font-family="Helvetica,sans-Serif" font-size="10.00">+ bUseAlpha</text>
<text text-anchor="start" x="485" y="-26.5" font-family="Helvetica,sans-Serif" font-size="10.00">+ DefaultColor</text>
<polyline fill="none" stroke="black" points="477,-19.5 618,-19.5 "/>
<text text-anchor="middle" x="547.5" y="-7.5" font-family="Helvetica,sans-Serif" font-size="10.00"> </text>
</a>
</g>
</g>
<!-- Node1&#45;&gt;Node5 -->
<g id="edge4" class="edge">
<title>Node1&#45;&gt;Node5</title>
<path fill="none" stroke="midnightblue" d="M394.86,-128.98C418.83,-116.93 444.77,-103.64 468.5,-91 471.28,-89.52 474.11,-88 476.96,-86.45"/>
<polygon fill="none" stroke="midnightblue" points="393.15,-125.92 385.78,-133.53 396.29,-132.18 393.15,-125.92"/>
</g>
</g>
</svg>
