<?xml version="1.0" encoding="UTF-8" standalone="no"?>
<!DOCTYPE svg PUBLIC "-//W3C//DTD SVG 1.1//EN"
 "http://www.w3.org/Graphics/SVG/1.1/DTD/svg11.dtd">
<!-- Generated by graphviz version 2.41.20171026.1811 (20171026.1811)
 -->
<!-- Title: SDK::FAttachmentOrigin Pages: 1 -->
<svg width="333pt" height="634pt"
 viewBox="0.00 0.00 333.00 634.00" xmlns="http://www.w3.org/2000/svg" xmlns:xlink="http://www.w3.org/1999/xlink">
<g id="graph0" class="graph" transform="scale(1 1) rotate(0) translate(4 630)">
<title>SDK::FAttachmentOrigin</title>
<polygon fill="white" stroke="transparent" points="-4,4 -4,-630 329,-630 329,4 -4,4"/>
<!-- Node1 -->
<g id="node1" class="node">
<title>Node1</title>
<g id="a_node1"><a xlink:title=" ">
<polygon fill="#bfbfbf" stroke="black" points="67.5,-0.5 67.5,-101.5 192.5,-101.5 192.5,-0.5 67.5,-0.5"/>
<text text-anchor="middle" x="130" y="-89.5" font-family="Helvetica,sans-Serif" font-size="10.00">SDK::FAttachmentOrigin</text>
<polyline fill="none" stroke="black" points="67.5,-82.5 192.5,-82.5 "/>
<text text-anchor="start" x="75.5" y="-70.5" font-family="Helvetica,sans-Serif" font-size="10.00">+ IsUpdated</text>
<text text-anchor="start" x="75.5" y="-59.5" font-family="Helvetica,sans-Serif" font-size="10.00">+ Index</text>
<text text-anchor="start" x="75.5" y="-48.5" font-family="Helvetica,sans-Serif" font-size="10.00">+ CurrentVelocity</text>
<text text-anchor="start" x="75.5" y="-37.5" font-family="Helvetica,sans-Serif" font-size="10.00">+ CheckTime</text>
<text text-anchor="start" x="75.5" y="-26.5" font-family="Helvetica,sans-Serif" font-size="10.00">+ IsStop</text>
<polyline fill="none" stroke="black" points="67.5,-19.5 192.5,-19.5 "/>
<text text-anchor="middle" x="130" y="-7.5" font-family="Helvetica,sans-Serif" font-size="10.00"> </text>
</a>
</g>
</g>
<!-- Node2 -->
<g id="node2" class="node">
<title>Node2</title>
<g id="a_node2"><a xlink:href="../../dd/d43/structSDK_1_1FVector.html" target="_top" xlink:title=" ">
<polygon fill="white" stroke="black" points="0,-546.5 0,-625.5 78,-625.5 78,-546.5 0,-546.5"/>
<text text-anchor="middle" x="39" y="-613.5" font-family="Helvetica,sans-Serif" font-size="10.00">SDK::FVector</text>
<polyline fill="none" stroke="black" points="0,-606.5 78,-606.5 "/>
<text text-anchor="start" x="8" y="-594.5" font-family="Helvetica,sans-Serif" font-size="10.00">+ X</text>
<text text-anchor="start" x="8" y="-583.5" font-family="Helvetica,sans-Serif" font-size="10.00">+ Y</text>
<text text-anchor="start" x="8" y="-572.5" font-family="Helvetica,sans-Serif" font-size="10.00">+ Z</text>
<polyline fill="none" stroke="black" points="0,-565.5 78,-565.5 "/>
<text text-anchor="middle" x="39" y="-553.5" font-family="Helvetica,sans-Serif" font-size="10.00"> </text>
</a>
</g>
</g>
<!-- Node2&#45;&gt;Node1 -->
<g id="edge1" class="edge">
<title>Node2&#45;&gt;Node1</title>
<path fill="none" stroke="#404040" d="M30.35,-546.26C14.77,-467.98 -11.7,-286.7 42,-149 47.26,-135.51 55.35,-122.73 64.53,-111.14"/>
<polygon fill="none" stroke="#404040" points="64.74,-110.89 65.54,-103.72 72.46,-101.7 71.67,-108.87 64.74,-110.89"/>
<text text-anchor="middle" x="43.5" y="-321.5" font-family="Helvetica,sans-Serif" font-size="10.00"> +LastLocation</text>
</g>
<!-- Node4 -->
<g id="node4" class="node">
<title>Node4</title>
<g id="a_node4"><a xlink:href="../../db/d05/structSDK_1_1FAttachmentOriginData.html" target="_top" xlink:title=" ">
<polygon fill="white" stroke="black" points="51,-397.5 51,-454.5 197,-454.5 197,-397.5 51,-397.5"/>
<text text-anchor="middle" x="124" y="-442.5" font-family="Helvetica,sans-Serif" font-size="10.00">SDK::FAttachmentOriginData</text>
<polyline fill="none" stroke="black" points="51,-435.5 197,-435.5 "/>
<text text-anchor="start" x="59" y="-423.5" font-family="Helvetica,sans-Serif" font-size="10.00">+ Time</text>
<polyline fill="none" stroke="black" points="51,-416.5 197,-416.5 "/>
<text text-anchor="middle" x="124" y="-404.5" font-family="Helvetica,sans-Serif" font-size="10.00"> </text>
</a>
</g>
</g>
<!-- Node2&#45;&gt;Node4 -->
<g id="edge4" class="edge">
<title>Node2&#45;&gt;Node4</title>
<path fill="none" stroke="#404040" d="M59.79,-546.35C73.01,-521.79 90.04,-490.12 103.25,-465.57"/>
<polygon fill="none" stroke="#404040" points="103.33,-465.42 102.65,-458.24 109.02,-454.85 109.7,-462.03 103.33,-465.42"/>
<text text-anchor="middle" x="91.5" y="-520" font-family="Helvetica,sans-Serif" font-size="10.00"> +Origin</text>
</g>
<!-- Node3 -->
<g id="node3" class="node">
<title>Node3</title>
<g id="a_node3"><a xlink:href="../../d3/d79/classSDK_1_1TArray.html" target="_top" xlink:title=" ">
<polygon fill="white" stroke="black" points="51,-149.5 51,-294.5 209,-294.5 209,-149.5 51,-149.5"/>
<text text-anchor="start" x="59" y="-282.5" font-family="Helvetica,sans-Serif" font-size="10.00">SDK::TArray&lt; struct</text>
<text text-anchor="middle" x="130" y="-271.5" font-family="Helvetica,sans-Serif" font-size="10.00"> SDK::FAttachmentOriginData &gt;</text>
<polyline fill="none" stroke="black" points="51,-264.5 209,-264.5 "/>
<text text-anchor="start" x="59" y="-252.5" font-family="Helvetica,sans-Serif" font-size="10.00">&#45; Count</text>
<text text-anchor="start" x="59" y="-241.5" font-family="Helvetica,sans-Serif" font-size="10.00">&#45; Max</text>
<polyline fill="none" stroke="black" points="51,-234.5 209,-234.5 "/>
<text text-anchor="start" x="59" y="-222.5" font-family="Helvetica,sans-Serif" font-size="10.00">+ TArray()</text>
<text text-anchor="start" x="59" y="-211.5" font-family="Helvetica,sans-Serif" font-size="10.00">+ Num()</text>
<text text-anchor="start" x="59" y="-200.5" font-family="Helvetica,sans-Serif" font-size="10.00">+ operator[]()</text>
<text text-anchor="start" x="59" y="-189.5" font-family="Helvetica,sans-Serif" font-size="10.00">+ operator[]()</text>
<text text-anchor="start" x="59" y="-178.5" font-family="Helvetica,sans-Serif" font-size="10.00">+ IsValidIndex()</text>
<text text-anchor="start" x="59" y="-167.5" font-family="Helvetica,sans-Serif" font-size="10.00">+ GetByIndex()</text>
<text text-anchor="start" x="59" y="-156.5" font-family="Helvetica,sans-Serif" font-size="10.00">+ GetByIndex()</text>
</a>
</g>
</g>
<!-- Node3&#45;&gt;Node1 -->
<g id="edge2" class="edge">
<title>Node3&#45;&gt;Node1</title>
<path fill="none" stroke="#404040" d="M130,-149.33C130,-137.5 130,-125.33 130,-113.78"/>
<polygon fill="none" stroke="#404040" points="130,-113.52 126,-107.52 130,-101.52 134,-107.52 130,-113.52"/>
<text text-anchor="middle" x="158" y="-123" font-family="Helvetica,sans-Serif" font-size="10.00"> +OriginData</text>
</g>
<!-- Node4&#45;&gt;Node3 -->
<g id="edge3" class="edge">
<title>Node4&#45;&gt;Node3</title>
<path fill="none" stroke="#404040" d="M124.82,-397.34C125.52,-373.96 126.55,-339.21 127.51,-306.87"/>
<polygon fill="none" stroke="#404040" points="127.52,-306.62 123.7,-300.5 127.87,-294.62 131.69,-300.74 127.52,-306.62"/>
<text text-anchor="middle" x="142" y="-321.5" font-family="Helvetica,sans-Serif" font-size="10.00"> &#45;Data</text>
</g>
<!-- Node5 -->
<g id="node5" class="node">
<title>Node5</title>
<g id="a_node5"><a xlink:href="../../d3/d79/classSDK_1_1TArray.html" target="_top" xlink:title=" ">
<polygon fill="white" stroke="black" points="215.5,-353.5 215.5,-498.5 312.5,-498.5 312.5,-353.5 215.5,-353.5"/>
<text text-anchor="middle" x="264" y="-486.5" font-family="Helvetica,sans-Serif" font-size="10.00">SDK::TArray&lt; T &gt;</text>
<polyline fill="none" stroke="black" points="215.5,-479.5 312.5,-479.5 "/>
<text text-anchor="start" x="223.5" y="-467.5" font-family="Helvetica,sans-Serif" font-size="10.00">&#45; Data</text>
<text text-anchor="start" x="223.5" y="-456.5" font-family="Helvetica,sans-Serif" font-size="10.00">&#45; Count</text>
<text text-anchor="start" x="223.5" y="-445.5" font-family="Helvetica,sans-Serif" font-size="10.00">&#45; Max</text>
<polyline fill="none" stroke="black" points="215.5,-438.5 312.5,-438.5 "/>
<text text-anchor="start" x="223.5" y="-426.5" font-family="Helvetica,sans-Serif" font-size="10.00">+ TArray()</text>
<text text-anchor="start" x="223.5" y="-415.5" font-family="Helvetica,sans-Serif" font-size="10.00">+ Num()</text>
<text text-anchor="start" x="223.5" y="-404.5" font-family="Helvetica,sans-Serif" font-size="10.00">+ operator[]()</text>
<text text-anchor="start" x="223.5" y="-393.5" font-family="Helvetica,sans-Serif" font-size="10.00">+ operator[]()</text>
<text text-anchor="start" x="223.5" y="-382.5" font-family="Helvetica,sans-Serif" font-size="10.00">+ IsValidIndex()</text>
<text text-anchor="start" x="223.5" y="-371.5" font-family="Helvetica,sans-Serif" font-size="10.00">+ GetByIndex()</text>
<text text-anchor="start" x="223.5" y="-360.5" font-family="Helvetica,sans-Serif" font-size="10.00">+ GetByIndex()</text>
</a>
</g>
</g>
<!-- Node5&#45;&gt;Node3 -->
<g id="edge5" class="edge">
<title>Node5&#45;&gt;Node3</title>
<path fill="none" stroke="orange" d="M210.87,-344.92C199.88,-328.35 188.37,-310.99 177.59,-294.75"/>
<polygon fill="orange" stroke="orange" points="208.12,-347.1 216.57,-353.5 213.96,-343.23 208.12,-347.1"/>
<text text-anchor="start" x="201" y="-327" font-family="Helvetica,sans-Serif" font-size="10.00"> &lt; struct SDK::FAttachment</text>
<text text-anchor="middle" x="263" y="-316" font-family="Helvetica,sans-Serif" font-size="10.00">OriginData &gt;</text>
</g>
<!-- Node6 -->
<g id="node6" class="node">
<title>Node6</title>
<g id="a_node6"><a xlink:href="../../d6/d39/structSDK_1_1FDouble.html" target="_top" xlink:title=" ">
<polygon fill="white" stroke="black" points="227,-188 227,-256 307,-256 307,-188 227,-188"/>
<text text-anchor="middle" x="267" y="-244" font-family="Helvetica,sans-Serif" font-size="10.00">SDK::FDouble</text>
<polyline fill="none" stroke="black" points="227,-237 307,-237 "/>
<text text-anchor="start" x="235" y="-225" font-family="Helvetica,sans-Serif" font-size="10.00">+ A</text>
<text text-anchor="start" x="235" y="-214" font-family="Helvetica,sans-Serif" font-size="10.00">+ B</text>
<polyline fill="none" stroke="black" points="227,-207 307,-207 "/>
<text text-anchor="middle" x="267" y="-195" font-family="Helvetica,sans-Serif" font-size="10.00"> </text>
</a>
</g>
</g>
<!-- Node6&#45;&gt;Node1 -->
<g id="edge6" class="edge">
<title>Node6&#45;&gt;Node1</title>
<path fill="none" stroke="#404040" d="M245.74,-187.7C237.45,-175.28 227.64,-161.23 218,-149 208.02,-136.33 196.82,-123.24 185.83,-110.93"/>
<polygon fill="none" stroke="#404040" points="185.54,-110.6 178.55,-108.82 177.5,-101.68 184.49,-103.46 185.54,-110.6"/>
<text text-anchor="middle" x="228" y="-123" font-family="Helvetica,sans-Serif" font-size="10.00"> +StartTime</text>
</g>
</g>
</svg>
