<?xml version="1.0" encoding="UTF-8" standalone="no"?>
<!DOCTYPE svg PUBLIC "-//W3C//DTD SVG 1.1//EN"
 "http://www.w3.org/Graphics/SVG/1.1/DTD/svg11.dtd">
<!-- Generated by graphviz version 2.41.20171026.1811 (20171026.1811)
 -->
<!-- Title: SDK::FProjectileEvents Pages: 1 -->
<svg width="129pt" height="171pt"
 viewBox="0.00 0.00 129.00 171.00" xmlns="http://www.w3.org/2000/svg" xmlns:xlink="http://www.w3.org/1999/xlink">
<g id="graph0" class="graph" transform="scale(1 1) rotate(0) translate(4 167)">
<title>SDK::FProjectileEvents</title>
<polygon fill="white" stroke="transparent" points="-4,4 -4,-167 125,-167 125,4 -4,4"/>
<!-- Node1 -->
<g id="node1" class="node">
<title>Node1</title>
<g id="a_node1"><a xlink:title=" ">
<polygon fill="#bfbfbf" stroke="black" points="0,-0.5 0,-57.5 121,-57.5 121,-0.5 0,-0.5"/>
<text text-anchor="middle" x="60.5" y="-45.5" font-family="Helvetica,sans-Serif" font-size="10.00">SDK::FProjectileEvents</text>
<polyline fill="none" stroke="black" points="0,-38.5 121,-38.5 "/>
<text text-anchor="middle" x="60.5" y="-26.5" font-family="Helvetica,sans-Serif" font-size="10.00"> </text>
<polyline fill="none" stroke="black" points="0,-19.5 121,-19.5 "/>
<text text-anchor="middle" x="60.5" y="-7.5" font-family="Helvetica,sans-Serif" font-size="10.00"> </text>
</a>
</g>
</g>
<!-- Node2 -->
<g id="node2" class="node">
<title>Node2</title>
<g id="a_node2"><a xlink:href="../../d9/d59/structSDK_1_1FEventsBase.html" target="_top" xlink:title=" ">
<polygon fill="white" stroke="black" points="9,-94.5 9,-162.5 112,-162.5 112,-94.5 9,-94.5"/>
<text text-anchor="middle" x="60.5" y="-150.5" font-family="Helvetica,sans-Serif" font-size="10.00">SDK::FEventsBase</text>
<polyline fill="none" stroke="black" points="9,-143.5 112,-143.5 "/>
<text text-anchor="start" x="17" y="-131.5" font-family="Helvetica,sans-Serif" font-size="10.00">+ TotalEvents</text>
<text text-anchor="start" x="17" y="-120.5" font-family="Helvetica,sans-Serif" font-size="10.00">+ EventsByClass</text>
<polyline fill="none" stroke="black" points="9,-113.5 112,-113.5 "/>
<text text-anchor="middle" x="60.5" y="-101.5" font-family="Helvetica,sans-Serif" font-size="10.00"> </text>
</a>
</g>
</g>
<!-- Node2&#45;&gt;Node1 -->
<g id="edge1" class="edge">
<title>Node2&#45;&gt;Node1</title>
<path fill="none" stroke="midnightblue" d="M60.5,-84.45C60.5,-75.4 60.5,-66.09 60.5,-57.78"/>
<polygon fill="none" stroke="midnightblue" points="57,-84.49 60.5,-94.49 64,-84.49 57,-84.49"/>
</g>
</g>
</svg>
