<?xml version="1.0" encoding="UTF-8" standalone="no"?>
<!DOCTYPE svg PUBLIC "-//W3C//DTD SVG 1.1//EN"
 "http://www.w3.org/Graphics/SVG/1.1/DTD/svg11.dtd">
<!-- Generated by graphviz version 2.41.20171026.1811 (20171026.1811)
 -->
<!-- Title: SDK::UEFSeqVar_SpawnedObject Pages: 1 -->
<svg width="206pt" height="1003pt"
 viewBox="0.00 0.00 206.00 1003.00" xmlns="http://www.w3.org/2000/svg" xmlns:xlink="http://www.w3.org/1999/xlink">
<g id="graph0" class="graph" transform="scale(1 1) rotate(0) translate(4 999)">
<title>SDK::UEFSeqVar_SpawnedObject</title>
<polygon fill="white" stroke="transparent" points="-4,4 -4,-999 202,-999 202,4 -4,4"/>
<!-- Node1 -->
<g id="node1" class="node">
<title>Node1</title>
<g id="a_node1"><a xlink:title=" ">
<polygon fill="#bfbfbf" stroke="black" points="14,-0.5 14,-68.5 184,-68.5 184,-0.5 14,-0.5"/>
<text text-anchor="middle" x="99" y="-56.5" font-family="Helvetica,sans-Serif" font-size="10.00">SDK::UEFSeqVar_SpawnedObject</text>
<polyline fill="none" stroke="black" points="14,-49.5 184,-49.5 "/>
<text text-anchor="start" x="22" y="-37.5" font-family="Helvetica,sans-Serif" font-size="10.00">+ SpawnIndex</text>
<text text-anchor="start" x="22" y="-26.5" font-family="Helvetica,sans-Serif" font-size="10.00">+ eNamePlateType</text>
<polyline fill="none" stroke="black" points="14,-19.5 184,-19.5 "/>
<text text-anchor="start" x="22" y="-7.5" font-family="Helvetica,sans-Serif" font-size="10.00">+ StaticClass()</text>
</a>
</g>
</g>
<!-- Node2 -->
<g id="node2" class="node">
<title>Node2</title>
<g id="a_node2"><a xlink:href="../../d1/db6/classSDK_1_1USeqVar__Object.html" target="_top" xlink:title=" ">
<polygon fill="white" stroke="black" points="27.5,-105.5 27.5,-217.5 170.5,-217.5 170.5,-105.5 27.5,-105.5"/>
<text text-anchor="middle" x="99" y="-205.5" font-family="Helvetica,sans-Serif" font-size="10.00">SDK::USeqVar_Object</text>
<polyline fill="none" stroke="black" points="27.5,-198.5 170.5,-198.5 "/>
<text text-anchor="start" x="35.5" y="-186.5" font-family="Helvetica,sans-Serif" font-size="10.00">+ ObjValue</text>
<text text-anchor="start" x="35.5" y="-175.5" font-family="Helvetica,sans-Serif" font-size="10.00">+ bHiddenObjectIfTermInterp</text>
<text text-anchor="start" x="35.5" y="-164.5" font-family="Helvetica,sans-Serif" font-size="10.00">+ ActorLocation</text>
<text text-anchor="start" x="35.5" y="-153.5" font-family="Helvetica,sans-Serif" font-size="10.00">+ SupportedClasses</text>
<polyline fill="none" stroke="black" points="27.5,-146.5 170.5,-146.5 "/>
<text text-anchor="start" x="35.5" y="-134.5" font-family="Helvetica,sans-Serif" font-size="10.00">+ SetObjectValue()</text>
<text text-anchor="start" x="35.5" y="-123.5" font-family="Helvetica,sans-Serif" font-size="10.00">+ GetObjectValue()</text>
<text text-anchor="start" x="35.5" y="-112.5" font-family="Helvetica,sans-Serif" font-size="10.00">+ StaticClass()</text>
</a>
</g>
</g>
<!-- Node2&#45;&gt;Node1 -->
<g id="edge1" class="edge">
<title>Node2&#45;&gt;Node1</title>
<path fill="none" stroke="midnightblue" d="M99,-95.26C99,-85.99 99,-76.8 99,-68.51"/>
<polygon fill="none" stroke="midnightblue" points="95.5,-95.31 99,-105.31 102.5,-95.31 95.5,-95.31"/>
</g>
<!-- Node3 -->
<g id="node3" class="node">
<title>Node3</title>
<g id="a_node3"><a xlink:href="../../d4/d54/classSDK_1_1USequenceVariable.html" target="_top" xlink:title=" ">
<polygon fill="white" stroke="black" points="34,-254.5 34,-311.5 164,-311.5 164,-254.5 34,-254.5"/>
<text text-anchor="middle" x="99" y="-299.5" font-family="Helvetica,sans-Serif" font-size="10.00">SDK::USequenceVariable</text>
<polyline fill="none" stroke="black" points="34,-292.5 164,-292.5 "/>
<text text-anchor="start" x="42" y="-280.5" font-family="Helvetica,sans-Serif" font-size="10.00">+ VarName</text>
<polyline fill="none" stroke="black" points="34,-273.5 164,-273.5 "/>
<text text-anchor="start" x="42" y="-261.5" font-family="Helvetica,sans-Serif" font-size="10.00">+ StaticClass()</text>
</a>
</g>
</g>
<!-- Node3&#45;&gt;Node2 -->
<g id="edge2" class="edge">
<title>Node3&#45;&gt;Node2</title>
<path fill="none" stroke="midnightblue" d="M99,-244.11C99,-235.75 99,-226.73 99,-217.83"/>
<polygon fill="none" stroke="midnightblue" points="95.5,-244.28 99,-254.28 102.5,-244.28 95.5,-244.28"/>
</g>
<!-- Node4 -->
<g id="node4" class="node">
<title>Node4</title>
<g id="a_node4"><a xlink:href="../../d6/d03/classSDK_1_1USequenceObject.html" target="_top" xlink:title=" ">
<polygon fill="white" stroke="black" points="18,-348.5 18,-603.5 180,-603.5 180,-348.5 18,-348.5"/>
<text text-anchor="middle" x="99" y="-591.5" font-family="Helvetica,sans-Serif" font-size="10.00">SDK::USequenceObject</text>
<polyline fill="none" stroke="black" points="18,-584.5 180,-584.5 "/>
<text text-anchor="start" x="26" y="-572.5" font-family="Helvetica,sans-Serif" font-size="10.00">+ ObjInstanceVersion</text>
<text text-anchor="start" x="26" y="-561.5" font-family="Helvetica,sans-Serif" font-size="10.00">+ ParentSequence</text>
<text text-anchor="start" x="26" y="-550.5" font-family="Helvetica,sans-Serif" font-size="10.00">+ ObjPosX</text>
<text text-anchor="start" x="26" y="-539.5" font-family="Helvetica,sans-Serif" font-size="10.00">+ ObjPosY</text>
<text text-anchor="start" x="26" y="-528.5" font-family="Helvetica,sans-Serif" font-size="10.00">+ ObjName</text>
<text text-anchor="start" x="26" y="-517.5" font-family="Helvetica,sans-Serif" font-size="10.00">+ ObjCategory</text>
<text text-anchor="start" x="26" y="-506.5" font-family="Helvetica,sans-Serif" font-size="10.00">+ ObjRemoveInProject</text>
<text text-anchor="start" x="26" y="-495.5" font-family="Helvetica,sans-Serif" font-size="10.00">+ ObjColor</text>
<text text-anchor="start" x="26" y="-484.5" font-family="Helvetica,sans-Serif" font-size="10.00">+ ObjComment</text>
<text text-anchor="start" x="26" y="-473.5" font-family="Helvetica,sans-Serif" font-size="10.00">+ bDeletable</text>
<text text-anchor="start" x="26" y="-462.5" font-family="Helvetica,sans-Serif" font-size="10.00">and 7 more...</text>
<polyline fill="none" stroke="black" points="18,-455.5 180,-455.5 "/>
<text text-anchor="start" x="26" y="-443.5" font-family="Helvetica,sans-Serif" font-size="10.00">+ STATIC_GetObjClassVersion()</text>
<text text-anchor="start" x="26" y="-432.5" font-family="Helvetica,sans-Serif" font-size="10.00">+ STATIC_ShouldClearNameOn</text>
<text text-anchor="start" x="26" y="-421.5" font-family="Helvetica,sans-Serif" font-size="10.00">Pasting()</text>
<text text-anchor="start" x="26" y="-410.5" font-family="Helvetica,sans-Serif" font-size="10.00">+ IsPastingIntoLevelSequence</text>
<text text-anchor="start" x="26" y="-399.5" font-family="Helvetica,sans-Serif" font-size="10.00">Allowed()</text>
<text text-anchor="start" x="26" y="-388.5" font-family="Helvetica,sans-Serif" font-size="10.00">+ IsValidLevelSequenceObject()</text>
<text text-anchor="start" x="26" y="-377.5" font-family="Helvetica,sans-Serif" font-size="10.00">+ GetWorldInfo()</text>
<text text-anchor="start" x="26" y="-366.5" font-family="Helvetica,sans-Serif" font-size="10.00">+ ScriptLog()</text>
<text text-anchor="start" x="26" y="-355.5" font-family="Helvetica,sans-Serif" font-size="10.00">+ StaticClass()</text>
</a>
</g>
</g>
<!-- Node4&#45;&gt;Node3 -->
<g id="edge3" class="edge">
<title>Node4&#45;&gt;Node3</title>
<path fill="none" stroke="midnightblue" d="M99,-338.33C99,-328.48 99,-319.36 99,-311.51"/>
<polygon fill="none" stroke="midnightblue" points="95.5,-338.4 99,-348.4 102.5,-338.4 95.5,-338.4"/>
</g>
<!-- Node5 -->
<g id="node5" class="node">
<title>Node5</title>
<g id="a_node5"><a xlink:href="../../d9/d45/classSDK_1_1UObject.html" target="_top" xlink:title=" ">
<polygon fill="white" stroke="black" points="0,-640.5 0,-994.5 198,-994.5 198,-640.5 0,-640.5"/>
<text text-anchor="middle" x="99" y="-982.5" font-family="Helvetica,sans-Serif" font-size="10.00">SDK::UObject</text>
<polyline fill="none" stroke="black" points="0,-975.5 198,-975.5 "/>
<text text-anchor="start" x="8" y="-963.5" font-family="Helvetica,sans-Serif" font-size="10.00">+ VfTableObject</text>
<text text-anchor="start" x="8" y="-952.5" font-family="Helvetica,sans-Serif" font-size="10.00">+ ObjectFlags</text>
<text text-anchor="start" x="8" y="-941.5" font-family="Helvetica,sans-Serif" font-size="10.00">+ StateFrame</text>
<text text-anchor="start" x="8" y="-930.5" font-family="Helvetica,sans-Serif" font-size="10.00">+ Linker</text>
<text text-anchor="start" x="8" y="-919.5" font-family="Helvetica,sans-Serif" font-size="10.00">+ LinkerIndex</text>
<text text-anchor="start" x="8" y="-908.5" font-family="Helvetica,sans-Serif" font-size="10.00">+ ObjectInternalInteger</text>
<text text-anchor="start" x="8" y="-897.5" font-family="Helvetica,sans-Serif" font-size="10.00">+ NetIndex</text>
<text text-anchor="start" x="8" y="-886.5" font-family="Helvetica,sans-Serif" font-size="10.00">+ Outer</text>
<text text-anchor="start" x="8" y="-875.5" font-family="Helvetica,sans-Serif" font-size="10.00">+ Name</text>
<text text-anchor="start" x="8" y="-864.5" font-family="Helvetica,sans-Serif" font-size="10.00">+ Class</text>
<text text-anchor="start" x="8" y="-853.5" font-family="Helvetica,sans-Serif" font-size="10.00">+ ObjectArchetype</text>
<text text-anchor="start" x="8" y="-842.5" font-family="Helvetica,sans-Serif" font-size="10.00">+ GObjects</text>
<polyline fill="none" stroke="black" points="0,-835.5 198,-835.5 "/>
<text text-anchor="start" x="8" y="-823.5" font-family="Helvetica,sans-Serif" font-size="10.00">+ UObject::GetName()</text>
<text text-anchor="start" x="8" y="-812.5" font-family="Helvetica,sans-Serif" font-size="10.00">+ GetFullName()</text>
<text text-anchor="start" x="8" y="-801.5" font-family="Helvetica,sans-Serif" font-size="10.00">+ IsA()</text>
<text text-anchor="start" x="8" y="-790.5" font-family="Helvetica,sans-Serif" font-size="10.00">+ ProcessEvent()</text>
<text text-anchor="start" x="8" y="-779.5" font-family="Helvetica,sans-Serif" font-size="10.00">+ STATIC_ProfNodeEvent()</text>
<text text-anchor="start" x="8" y="-768.5" font-family="Helvetica,sans-Serif" font-size="10.00">+ STATIC_ProfNodeSetDepthThreshold()</text>
<text text-anchor="start" x="8" y="-757.5" font-family="Helvetica,sans-Serif" font-size="10.00">+ STATIC_ProfNodeSetTimeThreshold</text>
<text text-anchor="start" x="8" y="-746.5" font-family="Helvetica,sans-Serif" font-size="10.00">Seconds()</text>
<text text-anchor="start" x="8" y="-735.5" font-family="Helvetica,sans-Serif" font-size="10.00">+ STATIC_ProfNodeStop()</text>
<text text-anchor="start" x="8" y="-724.5" font-family="Helvetica,sans-Serif" font-size="10.00">+ STATIC_ProfNodeStart()</text>
<text text-anchor="start" x="8" y="-713.5" font-family="Helvetica,sans-Serif" font-size="10.00">+ STATIC_GetStringFromGuid()</text>
<text text-anchor="start" x="8" y="-702.5" font-family="Helvetica,sans-Serif" font-size="10.00">and 298 more...</text>
<text text-anchor="start" x="8" y="-691.5" font-family="Helvetica,sans-Serif" font-size="10.00">+ GetGlobalObjects()</text>
<text text-anchor="start" x="8" y="-680.5" font-family="Helvetica,sans-Serif" font-size="10.00">+ FindObject()</text>
<text text-anchor="start" x="8" y="-669.5" font-family="Helvetica,sans-Serif" font-size="10.00">+ FindClass()</text>
<text text-anchor="start" x="8" y="-658.5" font-family="Helvetica,sans-Serif" font-size="10.00">+ GetObjectCasted()</text>
<text text-anchor="start" x="8" y="-647.5" font-family="Helvetica,sans-Serif" font-size="10.00">+ StaticClass()</text>
</a>
</g>
</g>
<!-- Node5&#45;&gt;Node4 -->
<g id="edge4" class="edge">
<title>Node5&#45;&gt;Node4</title>
<path fill="none" stroke="midnightblue" d="M99,-630.24C99,-621.35 99,-612.53 99,-603.87"/>
<polygon fill="none" stroke="midnightblue" points="95.5,-630.29 99,-640.29 102.5,-630.29 95.5,-630.29"/>
</g>
</g>
</svg>
