<?xml version="1.0" encoding="UTF-8" standalone="no"?>
<!DOCTYPE svg PUBLIC "-//W3C//DTD SVG 1.1//EN"
 "http://www.w3.org/Graphics/SVG/1.1/DTD/svg11.dtd">
<!-- Generated by graphviz version 2.41.20171026.1811 (20171026.1811)
 -->
<!-- Title: SDK::FLightmassWorldInfoSettings Pages: 1 -->
<svg width="283pt" height="369pt"
 viewBox="0.00 0.00 283.00 369.00" xmlns="http://www.w3.org/2000/svg" xmlns:xlink="http://www.w3.org/1999/xlink">
<g id="graph0" class="graph" transform="scale(1 1) rotate(0) translate(4 365)">
<title>SDK::FLightmassWorldInfoSettings</title>
<polygon fill="white" stroke="transparent" points="-4,4 -4,-365 279,-365 279,4 -4,4"/>
<!-- Node1 -->
<g id="node1" class="node">
<title>Node1</title>
<g id="a_node1"><a xlink:title=" ">
<polygon fill="#bfbfbf" stroke="black" points="32.5,-0.5 32.5,-200.5 191.5,-200.5 191.5,-0.5 32.5,-0.5"/>
<text text-anchor="start" x="40.5" y="-188.5" font-family="Helvetica,sans-Serif" font-size="10.00">SDK::FLightmassWorldInfo</text>
<text text-anchor="middle" x="112" y="-177.5" font-family="Helvetica,sans-Serif" font-size="10.00">Settings</text>
<polyline fill="none" stroke="black" points="32.5,-170.5 191.5,-170.5 "/>
<text text-anchor="start" x="40.5" y="-158.5" font-family="Helvetica,sans-Serif" font-size="10.00">+ StaticLightingLevelScale</text>
<text text-anchor="start" x="40.5" y="-147.5" font-family="Helvetica,sans-Serif" font-size="10.00">+ NumIndirectLightingBounces</text>
<text text-anchor="start" x="40.5" y="-136.5" font-family="Helvetica,sans-Serif" font-size="10.00">+ EnvironmentIntensity</text>
<text text-anchor="start" x="40.5" y="-125.5" font-family="Helvetica,sans-Serif" font-size="10.00">+ bEnableAdvancedEnvironment</text>
<text text-anchor="start" x="40.5" y="-114.5" font-family="Helvetica,sans-Serif" font-size="10.00">Color</text>
<text text-anchor="start" x="40.5" y="-103.5" font-family="Helvetica,sans-Serif" font-size="10.00">+ EnvironmentSunIntensity</text>
<text text-anchor="start" x="40.5" y="-92.5" font-family="Helvetica,sans-Serif" font-size="10.00">+ EnvironmentLightTerminator</text>
<text text-anchor="start" x="40.5" y="-81.5" font-family="Helvetica,sans-Serif" font-size="10.00">Angle</text>
<text text-anchor="start" x="40.5" y="-70.5" font-family="Helvetica,sans-Serif" font-size="10.00">+ EmissiveBoost</text>
<text text-anchor="start" x="40.5" y="-59.5" font-family="Helvetica,sans-Serif" font-size="10.00">+ DiffuseBoost</text>
<text text-anchor="start" x="40.5" y="-48.5" font-family="Helvetica,sans-Serif" font-size="10.00">+ SpecularBoost</text>
<text text-anchor="start" x="40.5" y="-37.5" font-family="Helvetica,sans-Serif" font-size="10.00">+ IndirectNormalInfluenceBoost</text>
<text text-anchor="start" x="40.5" y="-26.5" font-family="Helvetica,sans-Serif" font-size="10.00">and 10 more...</text>
<polyline fill="none" stroke="black" points="32.5,-19.5 191.5,-19.5 "/>
<text text-anchor="middle" x="112" y="-7.5" font-family="Helvetica,sans-Serif" font-size="10.00"> </text>
</a>
</g>
</g>
<!-- Node2 -->
<g id="node2" class="node">
<title>Node2</title>
<g id="a_node2"><a xlink:href="../../dd/d43/structSDK_1_1FVector.html" target="_top" xlink:title=" ">
<polygon fill="white" stroke="black" points="0,-270.5 0,-349.5 78,-349.5 78,-270.5 0,-270.5"/>
<text text-anchor="middle" x="39" y="-337.5" font-family="Helvetica,sans-Serif" font-size="10.00">SDK::FVector</text>
<polyline fill="none" stroke="black" points="0,-330.5 78,-330.5 "/>
<text text-anchor="start" x="8" y="-318.5" font-family="Helvetica,sans-Serif" font-size="10.00">+ X</text>
<text text-anchor="start" x="8" y="-307.5" font-family="Helvetica,sans-Serif" font-size="10.00">+ Y</text>
<text text-anchor="start" x="8" y="-296.5" font-family="Helvetica,sans-Serif" font-size="10.00">+ Z</text>
<polyline fill="none" stroke="black" points="0,-289.5 78,-289.5 "/>
<text text-anchor="middle" x="39" y="-277.5" font-family="Helvetica,sans-Serif" font-size="10.00"> </text>
</a>
</g>
</g>
<!-- Node2&#45;&gt;Node1 -->
<g id="edge1" class="edge">
<title>Node2&#45;&gt;Node1</title>
<path fill="none" stroke="#404040" d="M34.95,-270.24C34.4,-254.11 35.29,-235.37 40,-219 40.66,-216.72 41.37,-214.43 42.14,-212.15"/>
<polygon fill="none" stroke="#404040" points="42.18,-212.03 40.54,-205.01 46.39,-200.79 48.03,-207.82 42.18,-212.03"/>
<text text-anchor="middle" x="102" y="-227.5" font-family="Helvetica,sans-Serif" font-size="10.00"> +EnvironmentLightDirection</text>
</g>
<!-- Node3 -->
<g id="node3" class="node">
<title>Node3</title>
<g id="a_node3"><a xlink:href="../../d4/daf/structSDK_1_1FColor.html" target="_top" xlink:title=" ">
<polygon fill="white" stroke="black" points="149.5,-259.5 149.5,-360.5 222.5,-360.5 222.5,-259.5 149.5,-259.5"/>
<text text-anchor="middle" x="186" y="-348.5" font-family="Helvetica,sans-Serif" font-size="10.00">SDK::FColor</text>
<polyline fill="none" stroke="black" points="149.5,-341.5 222.5,-341.5 "/>
<text text-anchor="start" x="157.5" y="-329.5" font-family="Helvetica,sans-Serif" font-size="10.00">+ B</text>
<text text-anchor="start" x="157.5" y="-318.5" font-family="Helvetica,sans-Serif" font-size="10.00">+ G</text>
<text text-anchor="start" x="157.5" y="-307.5" font-family="Helvetica,sans-Serif" font-size="10.00">+ R</text>
<text text-anchor="start" x="157.5" y="-296.5" font-family="Helvetica,sans-Serif" font-size="10.00">+ A</text>
<polyline fill="none" stroke="black" points="149.5,-289.5 222.5,-289.5 "/>
<text text-anchor="start" x="157.5" y="-277.5" font-family="Helvetica,sans-Serif" font-size="10.00">+ FColor()</text>
<text text-anchor="start" x="157.5" y="-266.5" font-family="Helvetica,sans-Serif" font-size="10.00">+ FColor()</text>
</a>
</g>
</g>
<!-- Node3&#45;&gt;Node1 -->
<g id="edge2" class="edge">
<title>Node3&#45;&gt;Node1</title>
<path fill="none" stroke="#404040" d="M175.45,-259.03C172.22,-245.88 168.36,-231.79 164,-219 163.23,-216.74 162.44,-214.47 161.62,-212.19"/>
<polygon fill="none" stroke="#404040" points="161.53,-211.95 155.69,-207.71 157.35,-200.7 163.19,-204.93 161.53,-211.95"/>
<text text-anchor="middle" x="222.5" y="-233" font-family="Helvetica,sans-Serif" font-size="10.00"> +EnvironmentSunColor</text>
<text text-anchor="middle" x="222.5" y="-222" font-family="Helvetica,sans-Serif" font-size="10.00">+EnvironmentColor</text>
</g>
</g>
</svg>
