<?xml version="1.0" encoding="UTF-8" standalone="no"?>
<!DOCTYPE svg PUBLIC "-//W3C//DTD SVG 1.1//EN"
 "http://www.w3.org/Graphics/SVG/1.1/DTD/svg11.dtd">
<!-- Generated by graphviz version 2.41.20171026.1811 (20171026.1811)
 -->
<!-- Title: SDK::UEFGFxWidgetPcCreateHUD Pages: 1 -->
<svg width="931pt" height="2656pt"
 viewBox="0.00 0.00 930.50 2656.00" xmlns="http://www.w3.org/2000/svg" xmlns:xlink="http://www.w3.org/1999/xlink">
<g id="graph0" class="graph" transform="scale(1 1) rotate(0) translate(4 2652)">
<title>SDK::UEFGFxWidgetPcCreateHUD</title>
<polygon fill="white" stroke="transparent" points="-4,4 -4,-2652 926.5,-2652 926.5,4 -4,4"/>
<!-- Node1 -->
<g id="node1" class="node">
<title>Node1</title>
<g id="a_node1"><a xlink:title=" ">
<polygon fill="#bfbfbf" stroke="black" points="0,-0.5 0,-112.5 177,-112.5 177,-0.5 0,-0.5"/>
<text text-anchor="middle" x="88.5" y="-100.5" font-family="Helvetica,sans-Serif" font-size="10.00">SDK::UEFGFxWidgetPcCreateHUD</text>
<polyline fill="none" stroke="black" points="0,-93.5 177,-93.5 "/>
<text text-anchor="middle" x="88.5" y="-81.5" font-family="Helvetica,sans-Serif" font-size="10.00"> </text>
<polyline fill="none" stroke="black" points="0,-74.5 177,-74.5 "/>
<text text-anchor="start" x="8" y="-62.5" font-family="Helvetica,sans-Serif" font-size="10.00">+ SetDefaultClassData()</text>
<text text-anchor="start" x="8" y="-51.5" font-family="Helvetica,sans-Serif" font-size="10.00">+ RequestStopMovie()</text>
<text text-anchor="start" x="8" y="-40.5" font-family="Helvetica,sans-Serif" font-size="10.00">+ RequestPlayMovieClassSelect</text>
<text text-anchor="start" x="8" y="-29.5" font-family="Helvetica,sans-Serif" font-size="10.00">Preview()</text>
<text text-anchor="start" x="8" y="-18.5" font-family="Helvetica,sans-Serif" font-size="10.00">+ RequestUpdateClassSelectData()</text>
<text text-anchor="start" x="8" y="-7.5" font-family="Helvetica,sans-Serif" font-size="10.00">+ StaticClass()</text>
</a>
</g>
</g>
<!-- Node2 -->
<g id="node2" class="node">
<title>Node2</title>
<g id="a_node2"><a xlink:href="../../d6/d66/classSDK_1_1UEFUIFrame.html" target="_top" xlink:title=" ">
<polygon fill="white" stroke="black" points="36.5,-150.5 36.5,-240.5 140.5,-240.5 140.5,-150.5 36.5,-150.5"/>
<text text-anchor="middle" x="88.5" y="-228.5" font-family="Helvetica,sans-Serif" font-size="10.00">SDK::UEFUIFrame</text>
<polyline fill="none" stroke="black" points="36.5,-221.5 140.5,-221.5 "/>
<text text-anchor="start" x="44.5" y="-209.5" font-family="Helvetica,sans-Serif" font-size="10.00">+ OnlyModal</text>
<polyline fill="none" stroke="black" points="36.5,-202.5 140.5,-202.5 "/>
<text text-anchor="start" x="44.5" y="-190.5" font-family="Helvetica,sans-Serif" font-size="10.00">+ WidgetInitialized()</text>
<text text-anchor="start" x="44.5" y="-179.5" font-family="Helvetica,sans-Serif" font-size="10.00">+ Deactivate()</text>
<text text-anchor="start" x="44.5" y="-168.5" font-family="Helvetica,sans-Serif" font-size="10.00">+ Activate()</text>
<text text-anchor="start" x="44.5" y="-157.5" font-family="Helvetica,sans-Serif" font-size="10.00">+ StaticClass()</text>
</a>
</g>
</g>
<!-- Node2&#45;&gt;Node1 -->
<g id="edge1" class="edge">
<title>Node2&#45;&gt;Node1</title>
<path fill="none" stroke="midnightblue" d="M88.5,-140.29C88.5,-131.18 88.5,-121.71 88.5,-112.57"/>
<polygon fill="none" stroke="midnightblue" points="85,-140.4 88.5,-150.4 92,-140.4 85,-140.4"/>
</g>
<!-- Node3 -->
<g id="node3" class="node">
<title>Node3</title>
<g id="a_node3"><a xlink:href="../../dd/d3c/classSDK_1_1UEFUIComponent.html" target="_top" xlink:title=" ">
<polygon fill="white" stroke="black" points="26,-278.5 26,-456.5 151,-456.5 151,-278.5 26,-278.5"/>
<text text-anchor="middle" x="88.5" y="-444.5" font-family="Helvetica,sans-Serif" font-size="10.00">SDK::UEFUIComponent</text>
<polyline fill="none" stroke="black" points="26,-437.5 151,-437.5 "/>
<text text-anchor="middle" x="88.5" y="-425.5" font-family="Helvetica,sans-Serif" font-size="10.00"> </text>
<polyline fill="none" stroke="black" points="26,-418.5 151,-418.5 "/>
<text text-anchor="start" x="34" y="-406.5" font-family="Helvetica,sans-Serif" font-size="10.00">+ InvalidateSize()</text>
<text text-anchor="start" x="34" y="-395.5" font-family="Helvetica,sans-Serif" font-size="10.00">+ InvalidateData()</text>
<text text-anchor="start" x="34" y="-384.5" font-family="Helvetica,sans-Serif" font-size="10.00">+ Invalidate()</text>
<text text-anchor="start" x="34" y="-373.5" font-family="Helvetica,sans-Serif" font-size="10.00">+ ValidateNow()</text>
<text text-anchor="start" x="34" y="-362.5" font-family="Helvetica,sans-Serif" font-size="10.00">+ HasFocus()</text>
<text text-anchor="start" x="34" y="-351.5" font-family="Helvetica,sans-Serif" font-size="10.00">+ GetY()</text>
<text text-anchor="start" x="34" y="-340.5" font-family="Helvetica,sans-Serif" font-size="10.00">+ SetY()</text>
<text text-anchor="start" x="34" y="-329.5" font-family="Helvetica,sans-Serif" font-size="10.00">+ GetX()</text>
<text text-anchor="start" x="34" y="-318.5" font-family="Helvetica,sans-Serif" font-size="10.00">+ SetX()</text>
<text text-anchor="start" x="34" y="-307.5" font-family="Helvetica,sans-Serif" font-size="10.00">+ GetHeight()</text>
<text text-anchor="start" x="34" y="-296.5" font-family="Helvetica,sans-Serif" font-size="10.00">and 10 more...</text>
<text text-anchor="start" x="34" y="-285.5" font-family="Helvetica,sans-Serif" font-size="10.00">+ StaticClass()</text>
</a>
</g>
</g>
<!-- Node3&#45;&gt;Node2 -->
<g id="edge2" class="edge">
<title>Node3&#45;&gt;Node2</title>
<path fill="none" stroke="midnightblue" d="M88.5,-267.77C88.5,-258.4 88.5,-249.25 88.5,-240.8"/>
<polygon fill="none" stroke="midnightblue" points="85,-268.01 88.5,-278.01 92,-268.01 85,-268.01"/>
</g>
<!-- Node4 -->
<g id="node4" class="node">
<title>Node4</title>
<g id="a_node4"><a xlink:href="../../dc/dd3/classSDK_1_1UGFxClikWidget.html" target="_top" xlink:title=" ">
<polygon fill="white" stroke="black" points="5,-494.5 5,-639.5 172,-639.5 172,-494.5 5,-494.5"/>
<text text-anchor="middle" x="88.5" y="-627.5" font-family="Helvetica,sans-Serif" font-size="10.00">SDK::UGFxClikWidget</text>
<polyline fill="none" stroke="black" points="5,-620.5 172,-620.5 "/>
<text text-anchor="middle" x="88.5" y="-608.5" font-family="Helvetica,sans-Serif" font-size="10.00"> </text>
<polyline fill="none" stroke="black" points="5,-601.5 172,-601.5 "/>
<text text-anchor="start" x="13" y="-589.5" font-family="Helvetica,sans-Serif" font-size="10.00">+ ASRemoveAllEventListeners()</text>
<text text-anchor="start" x="13" y="-578.5" font-family="Helvetica,sans-Serif" font-size="10.00">+ AS3AddEventListener()</text>
<text text-anchor="start" x="13" y="-567.5" font-family="Helvetica,sans-Serif" font-size="10.00">+ ASAddEventListener()</text>
<text text-anchor="start" x="13" y="-556.5" font-family="Helvetica,sans-Serif" font-size="10.00">+ SetListener()</text>
<text text-anchor="start" x="13" y="-545.5" font-family="Helvetica,sans-Serif" font-size="10.00">+ GetEventStringFromTypename()</text>
<text text-anchor="start" x="13" y="-534.5" font-family="Helvetica,sans-Serif" font-size="10.00">+ RemoveAllEventListeners()</text>
<text text-anchor="start" x="13" y="-523.5" font-family="Helvetica,sans-Serif" font-size="10.00">+ AddEventListener()</text>
<text text-anchor="start" x="13" y="-512.5" font-family="Helvetica,sans-Serif" font-size="10.00">+ EventListener()</text>
<text text-anchor="start" x="13" y="-501.5" font-family="Helvetica,sans-Serif" font-size="10.00">+ StaticClass()</text>
</a>
</g>
</g>
<!-- Node4&#45;&gt;Node3 -->
<g id="edge3" class="edge">
<title>Node4&#45;&gt;Node3</title>
<path fill="none" stroke="midnightblue" d="M88.5,-484.25C88.5,-475.15 88.5,-465.85 88.5,-456.68"/>
<polygon fill="none" stroke="midnightblue" points="85,-484.42 88.5,-494.42 92,-484.42 85,-484.42"/>
</g>
<!-- Node5 -->
<g id="node5" class="node">
<title>Node5</title>
<g id="a_node5"><a xlink:href="../../d2/d23/classSDK_1_1UGFxObject.html" target="_top" xlink:title=" ">
<polygon fill="white" stroke="black" points="627,-677.5 627,-866.5 776,-866.5 776,-677.5 627,-677.5"/>
<text text-anchor="middle" x="701.5" y="-854.5" font-family="Helvetica,sans-Serif" font-size="10.00">SDK::UGFxObject</text>
<polyline fill="none" stroke="black" points="627,-847.5 776,-847.5 "/>
<text text-anchor="start" x="635" y="-835.5" font-family="Helvetica,sans-Serif" font-size="10.00">+ Value</text>
<text text-anchor="start" x="635" y="-824.5" font-family="Helvetica,sans-Serif" font-size="10.00">+ bListenExternalInterfaceCall</text>
<polyline fill="none" stroke="black" points="627,-817.5 776,-817.5 "/>
<text text-anchor="start" x="635" y="-805.5" font-family="Helvetica,sans-Serif" font-size="10.00">+ DestroyGFxObject()</text>
<text text-anchor="start" x="635" y="-794.5" font-family="Helvetica,sans-Serif" font-size="10.00">+ WidgetUnloaded()</text>
<text text-anchor="start" x="635" y="-783.5" font-family="Helvetica,sans-Serif" font-size="10.00">+ WidgetInitialized()</text>
<text text-anchor="start" x="635" y="-772.5" font-family="Helvetica,sans-Serif" font-size="10.00">+ GotoAndStopI()</text>
<text text-anchor="start" x="635" y="-761.5" font-family="Helvetica,sans-Serif" font-size="10.00">+ GotoAndStop()</text>
<text text-anchor="start" x="635" y="-750.5" font-family="Helvetica,sans-Serif" font-size="10.00">+ GotoAndPlayI()</text>
<text text-anchor="start" x="635" y="-739.5" font-family="Helvetica,sans-Serif" font-size="10.00">+ GotoAndPlay()</text>
<text text-anchor="start" x="635" y="-728.5" font-family="Helvetica,sans-Serif" font-size="10.00">+ ActionScriptString()</text>
<text text-anchor="start" x="635" y="-717.5" font-family="Helvetica,sans-Serif" font-size="10.00">+ ActionScriptFloat()</text>
<text text-anchor="start" x="635" y="-706.5" font-family="Helvetica,sans-Serif" font-size="10.00">+ ActionScriptInt()</text>
<text text-anchor="start" x="635" y="-695.5" font-family="Helvetica,sans-Serif" font-size="10.00">and 69 more...</text>
<text text-anchor="start" x="635" y="-684.5" font-family="Helvetica,sans-Serif" font-size="10.00">+ StaticClass()</text>
</a>
</g>
</g>
<!-- Node5&#45;&gt;Node4 -->
<g id="edge4" class="edge">
<title>Node5&#45;&gt;Node4</title>
<path fill="none" stroke="midnightblue" d="M617.29,-743.11C500.15,-704.32 289.26,-634.48 172.32,-595.76"/>
<polygon fill="none" stroke="midnightblue" points="616.35,-746.49 626.95,-746.31 618.55,-739.84 616.35,-746.49"/>
</g>
<!-- Node6 -->
<g id="node6" class="node">
<title>Node6</title>
<g id="a_node6"><a xlink:href="../../d9/d45/classSDK_1_1UObject.html" target="_top" xlink:title=" ">
<polygon fill="white" stroke="black" points="466.5,-1755.5 466.5,-1999.5 664.5,-1999.5 664.5,-1755.5 466.5,-1755.5"/>
<text text-anchor="middle" x="565.5" y="-1987.5" font-family="Helvetica,sans-Serif" font-size="10.00">SDK::UObject</text>
<polyline fill="none" stroke="black" points="466.5,-1980.5 664.5,-1980.5 "/>
<text text-anchor="start" x="474.5" y="-1968.5" font-family="Helvetica,sans-Serif" font-size="10.00">+ ObjectInternalInteger</text>
<text text-anchor="start" x="474.5" y="-1957.5" font-family="Helvetica,sans-Serif" font-size="10.00">+ NetIndex</text>
<polyline fill="none" stroke="black" points="466.5,-1950.5 664.5,-1950.5 "/>
<text text-anchor="start" x="474.5" y="-1938.5" font-family="Helvetica,sans-Serif" font-size="10.00">+ UObject::GetName()</text>
<text text-anchor="start" x="474.5" y="-1927.5" font-family="Helvetica,sans-Serif" font-size="10.00">+ GetFullName()</text>
<text text-anchor="start" x="474.5" y="-1916.5" font-family="Helvetica,sans-Serif" font-size="10.00">+ IsA()</text>
<text text-anchor="start" x="474.5" y="-1905.5" font-family="Helvetica,sans-Serif" font-size="10.00">+ ProcessEvent()</text>
<text text-anchor="start" x="474.5" y="-1894.5" font-family="Helvetica,sans-Serif" font-size="10.00">+ STATIC_ProfNodeEvent()</text>
<text text-anchor="start" x="474.5" y="-1883.5" font-family="Helvetica,sans-Serif" font-size="10.00">+ STATIC_ProfNodeSetDepthThreshold()</text>
<text text-anchor="start" x="474.5" y="-1872.5" font-family="Helvetica,sans-Serif" font-size="10.00">+ STATIC_ProfNodeSetTimeThreshold</text>
<text text-anchor="start" x="474.5" y="-1861.5" font-family="Helvetica,sans-Serif" font-size="10.00">Seconds()</text>
<text text-anchor="start" x="474.5" y="-1850.5" font-family="Helvetica,sans-Serif" font-size="10.00">+ STATIC_ProfNodeStop()</text>
<text text-anchor="start" x="474.5" y="-1839.5" font-family="Helvetica,sans-Serif" font-size="10.00">+ STATIC_ProfNodeStart()</text>
<text text-anchor="start" x="474.5" y="-1828.5" font-family="Helvetica,sans-Serif" font-size="10.00">+ STATIC_GetStringFromGuid()</text>
<text text-anchor="start" x="474.5" y="-1817.5" font-family="Helvetica,sans-Serif" font-size="10.00">and 298 more...</text>
<text text-anchor="start" x="474.5" y="-1806.5" font-family="Helvetica,sans-Serif" font-size="10.00">+ GetGlobalObjects()</text>
<text text-anchor="start" x="474.5" y="-1795.5" font-family="Helvetica,sans-Serif" font-size="10.00">+ FindObject()</text>
<text text-anchor="start" x="474.5" y="-1784.5" font-family="Helvetica,sans-Serif" font-size="10.00">+ FindClass()</text>
<text text-anchor="start" x="474.5" y="-1773.5" font-family="Helvetica,sans-Serif" font-size="10.00">+ GetObjectCasted()</text>
<text text-anchor="start" x="474.5" y="-1762.5" font-family="Helvetica,sans-Serif" font-size="10.00">+ StaticClass()</text>
</a>
</g>
</g>
<!-- Node6&#45;&gt;Node5 -->
<g id="edge5" class="edge">
<title>Node6&#45;&gt;Node5</title>
<path fill="none" stroke="midnightblue" d="M673.89,-1831.45C747.11,-1792.99 830.5,-1729.81 830.5,-1641.5 830.5,-1641.5 830.5,-1641.5 830.5,-986 830.5,-936.5 804.69,-888.67 776.17,-850.92"/>
<polygon fill="none" stroke="midnightblue" points="671.85,-1828.56 664.55,-1836.25 675.05,-1834.79 671.85,-1828.56"/>
</g>
<!-- Node6&#45;&gt;Node6 -->
<g id="edge11" class="edge">
<title>Node6&#45;&gt;Node6</title>
<path fill="none" stroke="#404040" d="M664.51,-1900.53C675.44,-1896.15 682.5,-1888.48 682.5,-1877.5 682.5,-1870.64 679.74,-1865.07 675.01,-1860.78"/>
<polygon fill="none" stroke="#404040" points="674.8,-1860.66 667.59,-1860.99 664.51,-1854.47 671.72,-1854.14 674.8,-1860.66"/>
<text text-anchor="middle" x="722" y="-1886" font-family="Helvetica,sans-Serif" font-size="10.00"> +Outer</text>
<text text-anchor="middle" x="722" y="-1875" font-family="Helvetica,sans-Serif" font-size="10.00">+Linker</text>
<text text-anchor="middle" x="722" y="-1864" font-family="Helvetica,sans-Serif" font-size="10.00">+ObjectArchetype</text>
</g>
<!-- Node12 -->
<g id="node12" class="node">
<title>Node12</title>
<g id="a_node12"><a xlink:href="../../d3/d79/classSDK_1_1TArray.html" target="_top" xlink:title=" ">
<polygon fill="white" stroke="black" points="364,-1573.5 364,-1707.5 525,-1707.5 525,-1573.5 364,-1573.5"/>
<text text-anchor="middle" x="444.5" y="-1695.5" font-family="Helvetica,sans-Serif" font-size="10.00">SDK::TArray&lt; SDK::UObject * &gt;</text>
<polyline fill="none" stroke="black" points="364,-1688.5 525,-1688.5 "/>
<text text-anchor="start" x="372" y="-1676.5" font-family="Helvetica,sans-Serif" font-size="10.00">&#45; Count</text>
<text text-anchor="start" x="372" y="-1665.5" font-family="Helvetica,sans-Serif" font-size="10.00">&#45; Max</text>
<polyline fill="none" stroke="black" points="364,-1658.5 525,-1658.5 "/>
<text text-anchor="start" x="372" y="-1646.5" font-family="Helvetica,sans-Serif" font-size="10.00">+ TArray()</text>
<text text-anchor="start" x="372" y="-1635.5" font-family="Helvetica,sans-Serif" font-size="10.00">+ Num()</text>
<text text-anchor="start" x="372" y="-1624.5" font-family="Helvetica,sans-Serif" font-size="10.00">+ operator[]()</text>
<text text-anchor="start" x="372" y="-1613.5" font-family="Helvetica,sans-Serif" font-size="10.00">+ operator[]()</text>
<text text-anchor="start" x="372" y="-1602.5" font-family="Helvetica,sans-Serif" font-size="10.00">+ IsValidIndex()</text>
<text text-anchor="start" x="372" y="-1591.5" font-family="Helvetica,sans-Serif" font-size="10.00">+ GetByIndex()</text>
<text text-anchor="start" x="372" y="-1580.5" font-family="Helvetica,sans-Serif" font-size="10.00">+ GetByIndex()</text>
</a>
</g>
</g>
<!-- Node6&#45;&gt;Node12 -->
<g id="edge13" class="edge">
<title>Node6&#45;&gt;Node12</title>
<path fill="none" stroke="#404040" d="M468.29,-1755.34C465.08,-1749.28 462.12,-1743.16 459.5,-1737 457.11,-1731.4 455.1,-1725.47 453.41,-1719.42"/>
<polygon fill="none" stroke="#404040" points="453.39,-1719.34 448.07,-1714.46 450.53,-1707.68 455.84,-1712.56 453.39,-1719.34"/>
<text text-anchor="middle" x="473.5" y="-1729" font-family="Helvetica,sans-Serif" font-size="10.00"> &#45;Data</text>
</g>
<!-- Node14 -->
<g id="node14" class="node">
<title>Node14</title>
<g id="a_node14"><a xlink:href="../../d7/d85/classSDK_1_1UClass.html" target="_top" xlink:title=" ">
<polygon fill="white" stroke="black" points="496,-1212.5 496,-1302.5 617,-1302.5 617,-1212.5 496,-1212.5"/>
<text text-anchor="middle" x="556.5" y="-1290.5" font-family="Helvetica,sans-Serif" font-size="10.00">SDK::UClass</text>
<polyline fill="none" stroke="black" points="496,-1283.5 617,-1283.5 "/>
<text text-anchor="start" x="504" y="-1271.5" font-family="Helvetica,sans-Serif" font-size="10.00">+ UnknownData00</text>
<text text-anchor="start" x="504" y="-1260.5" font-family="Helvetica,sans-Serif" font-size="10.00">+ UnknownData01</text>
<polyline fill="none" stroke="black" points="496,-1253.5 617,-1253.5 "/>
<text text-anchor="start" x="504" y="-1241.5" font-family="Helvetica,sans-Serif" font-size="10.00">+ CreateDefaultObject()</text>
<text text-anchor="start" x="504" y="-1230.5" font-family="Helvetica,sans-Serif" font-size="10.00">+ CreateDefaultObject()</text>
<text text-anchor="start" x="504" y="-1219.5" font-family="Helvetica,sans-Serif" font-size="10.00">+ StaticClass()</text>
</a>
</g>
</g>
<!-- Node6&#45;&gt;Node14 -->
<g id="edge23" class="edge">
<title>Node6&#45;&gt;Node14</title>
<path fill="none" stroke="#404040" d="M584.05,-1755.42C588.25,-1718.9 591.5,-1678.65 591.5,-1641.5 591.5,-1641.5 591.5,-1641.5 591.5,-1368 591.5,-1349.92 587.12,-1330.92 581.45,-1313.92"/>
<polygon fill="none" stroke="#404040" points="581.41,-1313.81 575.62,-1309.51 577.37,-1302.51 583.15,-1306.81 581.41,-1313.81"/>
<text text-anchor="middle" x="639" y="-1472.5" font-family="Helvetica,sans-Serif" font-size="10.00"> +ClassDefaultObject</text>
</g>
<!-- Node17 -->
<g id="node17" class="node">
<title>Node17</title>
<g id="a_node17"><a xlink:href="../../de/dd6/classSDK_1_1UField.html" target="_top" xlink:title=" ">
<polygon fill="white" stroke="black" points="670,-1612 670,-1669 753,-1669 753,-1612 670,-1612"/>
<text text-anchor="middle" x="711.5" y="-1657" font-family="Helvetica,sans-Serif" font-size="10.00">SDK::UField</text>
<polyline fill="none" stroke="black" points="670,-1650 753,-1650 "/>
<text text-anchor="middle" x="711.5" y="-1638" font-family="Helvetica,sans-Serif" font-size="10.00"> </text>
<polyline fill="none" stroke="black" points="670,-1631 753,-1631 "/>
<text text-anchor="start" x="678" y="-1619" font-family="Helvetica,sans-Serif" font-size="10.00">+ StaticClass()</text>
</a>
</g>
</g>
<!-- Node6&#45;&gt;Node17 -->
<g id="edge20" class="edge">
<title>Node6&#45;&gt;Node17</title>
<path fill="none" stroke="midnightblue" d="M646.25,-1746.52C664.45,-1717.24 681.99,-1689 694.3,-1669.19"/>
<polygon fill="none" stroke="midnightblue" points="643.16,-1744.87 640.85,-1755.21 649.1,-1748.57 643.16,-1744.87"/>
</g>
<!-- Node22 -->
<g id="node22" class="node">
<title>Node22</title>
<g id="a_node22"><a xlink:href="../../dc/dd6/structSDK_1_1FScriptDelegate.html" target="_top" xlink:title=" ">
<polygon fill="white" stroke="black" points="79.5,-1612 79.5,-1669 193.5,-1669 193.5,-1612 79.5,-1612"/>
<text text-anchor="middle" x="136.5" y="-1657" font-family="Helvetica,sans-Serif" font-size="10.00">SDK::FScriptDelegate</text>
<polyline fill="none" stroke="black" points="79.5,-1650 193.5,-1650 "/>
<text text-anchor="middle" x="136.5" y="-1638" font-family="Helvetica,sans-Serif" font-size="10.00"> </text>
<polyline fill="none" stroke="black" points="79.5,-1631 193.5,-1631 "/>
<text text-anchor="middle" x="136.5" y="-1619" font-family="Helvetica,sans-Serif" font-size="10.00"> </text>
</a>
</g>
</g>
<!-- Node6&#45;&gt;Node22 -->
<g id="edge34" class="edge">
<title>Node6&#45;&gt;Node22</title>
<path fill="none" stroke="#404040" d="M466.27,-1822.14C383.34,-1776.72 267.72,-1713.38 197.71,-1675.03"/>
<polygon fill="none" stroke="#404040" points="197.4,-1674.86 190.22,-1675.49 186.88,-1669.1 194.06,-1668.47 197.4,-1674.86"/>
<text text-anchor="middle" x="319.5" y="-1729" font-family="Helvetica,sans-Serif" font-size="10.00"> +Object</text>
</g>
<!-- Node7 -->
<g id="node7" class="node">
<title>Node7</title>
<g id="a_node7"><a xlink:href="../../d0/d22/structSDK_1_1FQWord.html" target="_top" xlink:title=" ">
<polygon fill="white" stroke="black" points="524.5,-2166 524.5,-2234 604.5,-2234 604.5,-2166 524.5,-2166"/>
<text text-anchor="middle" x="564.5" y="-2222" font-family="Helvetica,sans-Serif" font-size="10.00">SDK::FQWord</text>
<polyline fill="none" stroke="black" points="524.5,-2215 604.5,-2215 "/>
<text text-anchor="start" x="532.5" y="-2203" font-family="Helvetica,sans-Serif" font-size="10.00">+ A</text>
<text text-anchor="start" x="532.5" y="-2192" font-family="Helvetica,sans-Serif" font-size="10.00">+ B</text>
<polyline fill="none" stroke="black" points="524.5,-2185 604.5,-2185 "/>
<text text-anchor="middle" x="564.5" y="-2173" font-family="Helvetica,sans-Serif" font-size="10.00"> </text>
</a>
</g>
</g>
<!-- Node7&#45;&gt;Node6 -->
<g id="edge6" class="edge">
<title>Node7&#45;&gt;Node6</title>
<path fill="none" stroke="#404040" d="M564.6,-2165.91C564.72,-2129.48 564.91,-2068.57 565.08,-2012.19"/>
<polygon fill="none" stroke="#404040" points="565.08,-2011.86 561.1,-2005.85 565.12,-1999.86 569.1,-2005.87 565.08,-2011.86"/>
<text text-anchor="middle" x="596.5" y="-2066.5" font-family="Helvetica,sans-Serif" font-size="10.00"> +ObjectFlags</text>
</g>
<!-- Node8 -->
<g id="node8" class="node">
<title>Node8</title>
<g id="a_node8"><a xlink:href="../../d0/db6/structSDK_1_1FName.html" target="_top" xlink:title=" ">
<polygon fill="white" stroke="black" points="257,-2138.5 257,-2261.5 364,-2261.5 364,-2138.5 257,-2138.5"/>
<text text-anchor="middle" x="310.5" y="-2249.5" font-family="Helvetica,sans-Serif" font-size="10.00">SDK::FName</text>
<polyline fill="none" stroke="black" points="257,-2242.5 364,-2242.5 "/>
<text text-anchor="start" x="265" y="-2230.5" font-family="Helvetica,sans-Serif" font-size="10.00">+ Index</text>
<text text-anchor="start" x="265" y="-2219.5" font-family="Helvetica,sans-Serif" font-size="10.00">+ Number</text>
<polyline fill="none" stroke="black" points="257,-2212.5 364,-2212.5 "/>
<text text-anchor="start" x="265" y="-2200.5" font-family="Helvetica,sans-Serif" font-size="10.00">+ FName()</text>
<text text-anchor="start" x="265" y="-2189.5" font-family="Helvetica,sans-Serif" font-size="10.00">+ FName()</text>
<text text-anchor="start" x="265" y="-2178.5" font-family="Helvetica,sans-Serif" font-size="10.00">+ FName()</text>
<text text-anchor="start" x="265" y="-2167.5" font-family="Helvetica,sans-Serif" font-size="10.00">+ GetName()</text>
<text text-anchor="start" x="265" y="-2156.5" font-family="Helvetica,sans-Serif" font-size="10.00">+ operator==()</text>
<text text-anchor="start" x="265" y="-2145.5" font-family="Helvetica,sans-Serif" font-size="10.00">+ GetGlobalNames()</text>
</a>
</g>
</g>
<!-- Node8&#45;&gt;Node6 -->
<g id="edge7" class="edge">
<title>Node8&#45;&gt;Node6</title>
<path fill="none" stroke="#404040" d="M358.76,-2138.34C387.81,-2101.83 425.95,-2053.89 461.56,-2009.14"/>
<polygon fill="none" stroke="#404040" points="461.64,-2009.04 462.25,-2001.85 469.11,-1999.65 468.51,-2006.83 461.64,-2009.04"/>
<text text-anchor="middle" x="471.5" y="-2066.5" font-family="Helvetica,sans-Serif" font-size="10.00"> +Name</text>
</g>
<!-- Node19 -->
<g id="node19" class="node">
<title>Node19</title>
<g id="a_node19"><a xlink:href="../../d0/d8a/structSDK_1_1FGFxWidgetBinding.html" target="_top" xlink:title=" ">
<polygon fill="white" stroke="black" points="350,-1107.5 350,-1164.5 481,-1164.5 481,-1107.5 350,-1107.5"/>
<text text-anchor="middle" x="415.5" y="-1152.5" font-family="Helvetica,sans-Serif" font-size="10.00">SDK::FGFxWidgetBinding</text>
<polyline fill="none" stroke="black" points="350,-1145.5 481,-1145.5 "/>
<text text-anchor="middle" x="415.5" y="-1133.5" font-family="Helvetica,sans-Serif" font-size="10.00"> </text>
<polyline fill="none" stroke="black" points="350,-1126.5 481,-1126.5 "/>
<text text-anchor="middle" x="415.5" y="-1114.5" font-family="Helvetica,sans-Serif" font-size="10.00"> </text>
</a>
</g>
</g>
<!-- Node8&#45;&gt;Node19 -->
<g id="edge26" class="edge">
<title>Node8&#45;&gt;Node19</title>
<path fill="none" stroke="#404040" d="M314.83,-2138.46C326.8,-1970.51 359.5,-1508.89 359.5,-1476 359.5,-1476 359.5,-1476 359.5,-1256.5 359.5,-1227.23 373.45,-1197.41 387.42,-1174.88"/>
<polygon fill="none" stroke="#404040" points="387.47,-1174.81 387.38,-1167.6 394.01,-1164.75 394.09,-1171.97 387.47,-1174.81"/>
<text text-anchor="middle" x="393" y="-1472.5" font-family="Helvetica,sans-Serif" font-size="10.00"> +WidgetName</text>
</g>
<!-- Node8&#45;&gt;Node22 -->
<g id="edge33" class="edge">
<title>Node8&#45;&gt;Node22</title>
<path fill="none" stroke="#404040" d="M289.42,-2138.21C275.95,-2098.9 258.28,-2046.56 243.5,-2000 206.85,-1884.55 166.82,-1747.07 147.78,-1680.91"/>
<polygon fill="none" stroke="#404040" points="147.68,-1680.57 142.18,-1675.91 144.36,-1669.03 149.87,-1673.7 147.68,-1680.57"/>
<text text-anchor="middle" x="280" y="-1875" font-family="Helvetica,sans-Serif" font-size="10.00"> +FunctionName</text>
</g>
<!-- Node9 -->
<g id="node9" class="node">
<title>Node9</title>
<g id="a_node9"><a xlink:href="../../d3/d79/classSDK_1_1TArray.html" target="_top" xlink:title=" ">
<polygon fill="white" stroke="black" points="206.5,-2315 206.5,-2449 386.5,-2449 386.5,-2315 206.5,-2315"/>
<text text-anchor="middle" x="296.5" y="-2437" font-family="Helvetica,sans-Serif" font-size="10.00">SDK::TArray&lt; SDK::FNameEntry * &gt;</text>
<polyline fill="none" stroke="black" points="206.5,-2430 386.5,-2430 "/>
<text text-anchor="start" x="214.5" y="-2418" font-family="Helvetica,sans-Serif" font-size="10.00">&#45; Count</text>
<text text-anchor="start" x="214.5" y="-2407" font-family="Helvetica,sans-Serif" font-size="10.00">&#45; Max</text>
<polyline fill="none" stroke="black" points="206.5,-2400 386.5,-2400 "/>
<text text-anchor="start" x="214.5" y="-2388" font-family="Helvetica,sans-Serif" font-size="10.00">+ TArray()</text>
<text text-anchor="start" x="214.5" y="-2377" font-family="Helvetica,sans-Serif" font-size="10.00">+ Num()</text>
<text text-anchor="start" x="214.5" y="-2366" font-family="Helvetica,sans-Serif" font-size="10.00">+ operator[]()</text>
<text text-anchor="start" x="214.5" y="-2355" font-family="Helvetica,sans-Serif" font-size="10.00">+ operator[]()</text>
<text text-anchor="start" x="214.5" y="-2344" font-family="Helvetica,sans-Serif" font-size="10.00">+ IsValidIndex()</text>
<text text-anchor="start" x="214.5" y="-2333" font-family="Helvetica,sans-Serif" font-size="10.00">+ GetByIndex()</text>
<text text-anchor="start" x="214.5" y="-2322" font-family="Helvetica,sans-Serif" font-size="10.00">+ GetByIndex()</text>
</a>
</g>
</g>
<!-- Node9&#45;&gt;Node8 -->
<g id="edge8" class="edge">
<title>Node9&#45;&gt;Node8</title>
<path fill="none" stroke="#404040" d="M301.63,-2315C302.67,-2301.63 303.77,-2287.5 304.83,-2273.91"/>
<polygon fill="none" stroke="#404040" points="304.85,-2273.59 301.33,-2267.29 305.78,-2261.62 309.31,-2267.91 304.85,-2273.59"/>
<text text-anchor="middle" x="329" y="-2283" font-family="Helvetica,sans-Serif" font-size="10.00"> +GNames</text>
</g>
<!-- Node10 -->
<g id="node10" class="node">
<title>Node10</title>
<g id="a_node10"><a xlink:href="../../d7/ddf/classSDK_1_1FNameEntry.html" target="_top" xlink:title=" ">
<polygon fill="white" stroke="black" points="86,-2541 86,-2609 185,-2609 185,-2541 86,-2541"/>
<text text-anchor="middle" x="135.5" y="-2597" font-family="Helvetica,sans-Serif" font-size="10.00">SDK::FNameEntry</text>
<polyline fill="none" stroke="black" points="86,-2590 185,-2590 "/>
<text text-anchor="start" x="94" y="-2578" font-family="Helvetica,sans-Serif" font-size="10.00">+ UnknownData00</text>
<text text-anchor="start" x="94" y="-2567" font-family="Helvetica,sans-Serif" font-size="10.00">+ name</text>
<polyline fill="none" stroke="black" points="86,-2560 185,-2560 "/>
<text text-anchor="start" x="94" y="-2548" font-family="Helvetica,sans-Serif" font-size="10.00">+ GetName()</text>
</a>
</g>
</g>
<!-- Node10&#45;&gt;Node9 -->
<g id="edge9" class="edge">
<title>Node10&#45;&gt;Node9</title>
<path fill="none" stroke="#404040" d="M163.54,-2540.73C182.73,-2517.97 208.96,-2486.86 233.05,-2458.28"/>
<polygon fill="none" stroke="#404040" points="233.05,-2458.27 233.86,-2451.11 240.78,-2449.1 239.97,-2456.26 233.05,-2458.27"/>
<text text-anchor="middle" x="230.5" y="-2476" font-family="Helvetica,sans-Serif" font-size="10.00"> &#45;Data</text>
</g>
<!-- Node11 -->
<g id="node11" class="node">
<title>Node11</title>
<g id="a_node11"><a xlink:href="../../d3/d79/classSDK_1_1TArray.html" target="_top" xlink:title=" ">
<polygon fill="white" stroke="black" points="303,-2502.5 303,-2647.5 400,-2647.5 400,-2502.5 303,-2502.5"/>
<text text-anchor="middle" x="351.5" y="-2635.5" font-family="Helvetica,sans-Serif" font-size="10.00">SDK::TArray&lt; T &gt;</text>
<polyline fill="none" stroke="black" points="303,-2628.5 400,-2628.5 "/>
<text text-anchor="start" x="311" y="-2616.5" font-family="Helvetica,sans-Serif" font-size="10.00">&#45; Data</text>
<text text-anchor="start" x="311" y="-2605.5" font-family="Helvetica,sans-Serif" font-size="10.00">&#45; Count</text>
<text text-anchor="start" x="311" y="-2594.5" font-family="Helvetica,sans-Serif" font-size="10.00">&#45; Max</text>
<polyline fill="none" stroke="black" points="303,-2587.5 400,-2587.5 "/>
<text text-anchor="start" x="311" y="-2575.5" font-family="Helvetica,sans-Serif" font-size="10.00">+ TArray()</text>
<text text-anchor="start" x="311" y="-2564.5" font-family="Helvetica,sans-Serif" font-size="10.00">+ Num()</text>
<text text-anchor="start" x="311" y="-2553.5" font-family="Helvetica,sans-Serif" font-size="10.00">+ operator[]()</text>
<text text-anchor="start" x="311" y="-2542.5" font-family="Helvetica,sans-Serif" font-size="10.00">+ operator[]()</text>
<text text-anchor="start" x="311" y="-2531.5" font-family="Helvetica,sans-Serif" font-size="10.00">+ IsValidIndex()</text>
<text text-anchor="start" x="311" y="-2520.5" font-family="Helvetica,sans-Serif" font-size="10.00">+ GetByIndex()</text>
<text text-anchor="start" x="311" y="-2509.5" font-family="Helvetica,sans-Serif" font-size="10.00">+ GetByIndex()</text>
</a>
</g>
</g>
<!-- Node11&#45;&gt;Node9 -->
<g id="edge10" class="edge">
<title>Node11&#45;&gt;Node9</title>
<path fill="none" stroke="orange" d="M297.98,-2504.6C294.59,-2497.89 291.67,-2490.98 289.5,-2484 286.05,-2472.92 284.85,-2460.84 284.96,-2449.02"/>
<polygon fill="orange" stroke="orange" points="295.03,-2506.5 302.88,-2513.61 301.18,-2503.16 295.03,-2506.5"/>
<text text-anchor="middle" x="345" y="-2476" font-family="Helvetica,sans-Serif" font-size="10.00"> &lt; SDK::FNameEntry * &gt;</text>
</g>
<!-- Node11&#45;&gt;Node12 -->
<g id="edge14" class="edge">
<title>Node11&#45;&gt;Node12</title>
<path fill="none" stroke="orange" d="M397.9,-2492.9C398.87,-2489.94 399.75,-2486.96 400.5,-2484 426.05,-2383.65 406.19,-2121.4 400.5,-2018 393.6,-1892.54 376.4,-1862.46 369.5,-1737 369.23,-1732.12 367.76,-1730.57 369.5,-1726 371.9,-1719.67 375.02,-1713.52 378.62,-1707.6"/>
<polygon fill="orange" stroke="orange" points="394.59,-2491.74 394.47,-2502.33 401.17,-2494.13 394.59,-2491.74"/>
<text text-anchor="middle" x="458" y="-2197.5" font-family="Helvetica,sans-Serif" font-size="10.00"> &lt; SDK::UObject * &gt;</text>
</g>
<!-- Node18 -->
<g id="node18" class="node">
<title>Node18</title>
<g id="a_node18"><a xlink:href="../../d3/d79/classSDK_1_1TArray.html" target="_top" xlink:title=" ">
<polygon fill="white" stroke="black" points="344,-914.5 344,-1059.5 487,-1059.5 487,-914.5 344,-914.5"/>
<text text-anchor="start" x="352" y="-1047.5" font-family="Helvetica,sans-Serif" font-size="10.00">SDK::TArray&lt; struct</text>
<text text-anchor="middle" x="415.5" y="-1036.5" font-family="Helvetica,sans-Serif" font-size="10.00"> SDK::FGFxWidgetBinding &gt;</text>
<polyline fill="none" stroke="black" points="344,-1029.5 487,-1029.5 "/>
<text text-anchor="start" x="352" y="-1017.5" font-family="Helvetica,sans-Serif" font-size="10.00">&#45; Count</text>
<text text-anchor="start" x="352" y="-1006.5" font-family="Helvetica,sans-Serif" font-size="10.00">&#45; Max</text>
<polyline fill="none" stroke="black" points="344,-999.5 487,-999.5 "/>
<text text-anchor="start" x="352" y="-987.5" font-family="Helvetica,sans-Serif" font-size="10.00">+ TArray()</text>
<text text-anchor="start" x="352" y="-976.5" font-family="Helvetica,sans-Serif" font-size="10.00">+ Num()</text>
<text text-anchor="start" x="352" y="-965.5" font-family="Helvetica,sans-Serif" font-size="10.00">+ operator[]()</text>
<text text-anchor="start" x="352" y="-954.5" font-family="Helvetica,sans-Serif" font-size="10.00">+ operator[]()</text>
<text text-anchor="start" x="352" y="-943.5" font-family="Helvetica,sans-Serif" font-size="10.00">+ IsValidIndex()</text>
<text text-anchor="start" x="352" y="-932.5" font-family="Helvetica,sans-Serif" font-size="10.00">+ GetByIndex()</text>
<text text-anchor="start" x="352" y="-921.5" font-family="Helvetica,sans-Serif" font-size="10.00">+ GetByIndex()</text>
</a>
</g>
</g>
<!-- Node11&#45;&gt;Node18 -->
<g id="edge28" class="edge">
<title>Node11&#45;&gt;Node18</title>
<path fill="none" stroke="orange" d="M294.21,-2542.67C261.32,-2521.89 221.84,-2491.71 197.5,-2455 179.21,-2427.42 178.5,-2416.1 178.5,-2383 178.5,-2383 178.5,-2383 178.5,-2068 178.5,-1928.75 172.05,-1892.74 192.5,-1755 200.15,-1703.5 221.5,-1693.57 221.5,-1641.5 221.5,-1641.5 221.5,-1641.5 221.5,-1135 221.5,-1071.4 288.55,-1031.78 343.81,-1009.92"/>
<polygon fill="orange" stroke="orange" points="292.51,-2545.73 302.85,-2548.01 296.19,-2539.78 292.51,-2545.73"/>
<text text-anchor="start" x="221.5" y="-1547" font-family="Helvetica,sans-Serif" font-size="10.00"> &lt; struct SDK::FGFxWidget</text>
<text text-anchor="middle" x="283" y="-1536" font-family="Helvetica,sans-Serif" font-size="10.00">Binding &gt;</text>
</g>
<!-- Node21 -->
<g id="node21" class="node">
<title>Node21</title>
<g id="a_node21"><a xlink:href="../../d3/d79/classSDK_1_1TArray.html" target="_top" xlink:title=" ">
<polygon fill="white" stroke="black" points="631,-2309.5 631,-2454.5 756,-2454.5 756,-2309.5 631,-2309.5"/>
<text text-anchor="middle" x="693.5" y="-2442.5" font-family="Helvetica,sans-Serif" font-size="10.00">SDK::TArray&lt; wchar_t &gt;</text>
<polyline fill="none" stroke="black" points="631,-2435.5 756,-2435.5 "/>
<text text-anchor="start" x="639" y="-2423.5" font-family="Helvetica,sans-Serif" font-size="10.00">&#45; Data</text>
<text text-anchor="start" x="639" y="-2412.5" font-family="Helvetica,sans-Serif" font-size="10.00">&#45; Count</text>
<text text-anchor="start" x="639" y="-2401.5" font-family="Helvetica,sans-Serif" font-size="10.00">&#45; Max</text>
<polyline fill="none" stroke="black" points="631,-2394.5 756,-2394.5 "/>
<text text-anchor="start" x="639" y="-2382.5" font-family="Helvetica,sans-Serif" font-size="10.00">+ TArray()</text>
<text text-anchor="start" x="639" y="-2371.5" font-family="Helvetica,sans-Serif" font-size="10.00">+ Num()</text>
<text text-anchor="start" x="639" y="-2360.5" font-family="Helvetica,sans-Serif" font-size="10.00">+ operator[]()</text>
<text text-anchor="start" x="639" y="-2349.5" font-family="Helvetica,sans-Serif" font-size="10.00">+ operator[]()</text>
<text text-anchor="start" x="639" y="-2338.5" font-family="Helvetica,sans-Serif" font-size="10.00">+ IsValidIndex()</text>
<text text-anchor="start" x="639" y="-2327.5" font-family="Helvetica,sans-Serif" font-size="10.00">+ GetByIndex()</text>
<text text-anchor="start" x="639" y="-2316.5" font-family="Helvetica,sans-Serif" font-size="10.00">+ GetByIndex()</text>
</a>
</g>
</g>
<!-- Node11&#45;&gt;Node21 -->
<g id="edge31" class="edge">
<title>Node11&#45;&gt;Node21</title>
<path fill="none" stroke="orange" d="M408.93,-2541.93C470.35,-2507.63 567.44,-2453.4 630.81,-2418.01"/>
<polygon fill="orange" stroke="orange" points="407.16,-2538.91 400.14,-2546.84 410.57,-2545.02 407.16,-2538.91"/>
<text text-anchor="middle" x="550.5" y="-2476" font-family="Helvetica,sans-Serif" font-size="10.00"> &lt; wchar_t &gt;</text>
</g>
<!-- Node12&#45;&gt;Node6 -->
<g id="edge12" class="edge">
<title>Node12&#45;&gt;Node6</title>
<path fill="none" stroke="#404040" d="M478.55,-1707.63C484.55,-1719.28 490.98,-1731.77 497.53,-1744.49"/>
<polygon fill="none" stroke="#404040" points="497.56,-1744.55 503.86,-1748.05 503.05,-1755.21 496.75,-1751.71 497.56,-1744.55"/>
<text text-anchor="middle" x="517" y="-1729" font-family="Helvetica,sans-Serif" font-size="10.00"> +GObjects</text>
</g>
<!-- Node13 -->
<g id="node13" class="node">
<title>Node13</title>
<g id="a_node13"><a xlink:href="../../d9/dfa/structSDK_1_1FPointer.html" target="_top" xlink:title=" ">
<polygon fill="white" stroke="black" points="622.5,-2166 622.5,-2234 720.5,-2234 720.5,-2166 622.5,-2166"/>
<text text-anchor="middle" x="671.5" y="-2222" font-family="Helvetica,sans-Serif" font-size="10.00">SDK::FPointer</text>
<polyline fill="none" stroke="black" points="622.5,-2215 720.5,-2215 "/>
<text text-anchor="start" x="630.5" y="-2203" font-family="Helvetica,sans-Serif" font-size="10.00">+ Dummy</text>
<text text-anchor="start" x="630.5" y="-2192" font-family="Helvetica,sans-Serif" font-size="10.00">+ UnknownData00</text>
<polyline fill="none" stroke="black" points="622.5,-2185 720.5,-2185 "/>
<text text-anchor="middle" x="671.5" y="-2173" font-family="Helvetica,sans-Serif" font-size="10.00"> </text>
</a>
</g>
</g>
<!-- Node13&#45;&gt;Node6 -->
<g id="edge15" class="edge">
<title>Node13&#45;&gt;Node6</title>
<path fill="none" stroke="#404040" d="M666.45,-2165.69C660.34,-2128.91 648.69,-2068.24 631.5,-2018 630.69,-2015.62 629.84,-2013.23 628.98,-2010.84"/>
<polygon fill="none" stroke="#404040" points="628.96,-2010.79 623.11,-2006.59 624.74,-1999.56 630.59,-2003.77 628.96,-2010.79"/>
<text text-anchor="middle" x="692" y="-2077.5" font-family="Helvetica,sans-Serif" font-size="10.00"> +StateFrame</text>
<text text-anchor="middle" x="692" y="-2066.5" font-family="Helvetica,sans-Serif" font-size="10.00">+VfTableObject</text>
<text text-anchor="middle" x="692" y="-2055.5" font-family="Helvetica,sans-Serif" font-size="10.00">+LinkerIndex</text>
</g>
<!-- Node14&#45;&gt;Node6 -->
<g id="edge16" class="edge">
<title>Node14&#45;&gt;Node6</title>
<path fill="none" stroke="#404040" d="M549.46,-1302.6C544.15,-1338.22 537.31,-1389.69 534.5,-1435 532.3,-1470.49 532.98,-1479.48 534.5,-1515 537.74,-1590.69 544.78,-1675.06 551.33,-1743.24"/>
<polygon fill="none" stroke="#404040" points="551.35,-1743.4 555.91,-1748.98 552.5,-1755.34 547.94,-1749.76 551.35,-1743.4"/>
<text text-anchor="middle" x="552" y="-1472.5" font-family="Helvetica,sans-Serif" font-size="10.00"> +Class</text>
</g>
<!-- Node14&#45;&gt;Node19 -->
<g id="edge27" class="edge">
<title>Node14&#45;&gt;Node19</title>
<path fill="none" stroke="#404040" d="M504.4,-1212.34C488.95,-1199.25 472.24,-1185.09 457.52,-1172.61"/>
<polygon fill="none" stroke="#404040" points="457.32,-1172.45 450.16,-1171.62 448.17,-1164.69 455.33,-1165.52 457.32,-1172.45"/>
<text text-anchor="middle" x="515.5" y="-1186" font-family="Helvetica,sans-Serif" font-size="10.00"> +WidgetClass</text>
</g>
<!-- Node15 -->
<g id="node15" class="node">
<title>Node15</title>
<g id="a_node15"><a xlink:href="../../df/d72/classSDK_1_1UState.html" target="_top" xlink:title=" ">
<polygon fill="white" stroke="black" points="653.5,-1340.5 653.5,-1397.5 751.5,-1397.5 751.5,-1340.5 653.5,-1340.5"/>
<text text-anchor="middle" x="702.5" y="-1385.5" font-family="Helvetica,sans-Serif" font-size="10.00">SDK::UState</text>
<polyline fill="none" stroke="black" points="653.5,-1378.5 751.5,-1378.5 "/>
<text text-anchor="start" x="661.5" y="-1366.5" font-family="Helvetica,sans-Serif" font-size="10.00">+ UnknownData00</text>
<polyline fill="none" stroke="black" points="653.5,-1359.5 751.5,-1359.5 "/>
<text text-anchor="start" x="661.5" y="-1347.5" font-family="Helvetica,sans-Serif" font-size="10.00">+ StaticClass()</text>
</a>
</g>
</g>
<!-- Node15&#45;&gt;Node14 -->
<g id="edge17" class="edge">
<title>Node15&#45;&gt;Node14</title>
<path fill="none" stroke="midnightblue" d="M657.54,-1334.28C644.17,-1324.25 629.32,-1313.11 615.21,-1302.53"/>
<polygon fill="none" stroke="midnightblue" points="655.56,-1337.17 665.66,-1340.37 659.76,-1331.57 655.56,-1337.17"/>
</g>
<!-- Node16 -->
<g id="node16" class="node">
<title>Node16</title>
<g id="a_node16"><a xlink:href="../../d8/de9/classSDK_1_1UStruct.html" target="_top" xlink:title=" ">
<polygon fill="white" stroke="black" points="704.5,-1435.5 704.5,-1514.5 802.5,-1514.5 802.5,-1435.5 704.5,-1435.5"/>
<text text-anchor="middle" x="753.5" y="-1502.5" font-family="Helvetica,sans-Serif" font-size="10.00">SDK::UStruct</text>
<polyline fill="none" stroke="black" points="704.5,-1495.5 802.5,-1495.5 "/>
<text text-anchor="start" x="712.5" y="-1483.5" font-family="Helvetica,sans-Serif" font-size="10.00">+ UnknownData00</text>
<text text-anchor="start" x="712.5" y="-1472.5" font-family="Helvetica,sans-Serif" font-size="10.00">+ PropertySize</text>
<text text-anchor="start" x="712.5" y="-1461.5" font-family="Helvetica,sans-Serif" font-size="10.00">+ UnknownData01</text>
<polyline fill="none" stroke="black" points="704.5,-1454.5 802.5,-1454.5 "/>
<text text-anchor="start" x="712.5" y="-1442.5" font-family="Helvetica,sans-Serif" font-size="10.00">+ StaticClass()</text>
</a>
</g>
</g>
<!-- Node16&#45;&gt;Node15 -->
<g id="edge18" class="edge">
<title>Node16&#45;&gt;Node15</title>
<path fill="none" stroke="midnightblue" d="M729.99,-1426.06C725.23,-1416.35 720.37,-1406.44 716.09,-1397.72"/>
<polygon fill="none" stroke="midnightblue" points="726.96,-1427.84 734.51,-1435.27 733.25,-1424.75 726.96,-1427.84"/>
</g>
<!-- Node17&#45;&gt;Node16 -->
<g id="edge19" class="edge">
<title>Node17&#45;&gt;Node16</title>
<path fill="none" stroke="midnightblue" d="M715.68,-1602.01C718.52,-1581.38 722.96,-1555.49 729.5,-1533 731.27,-1526.92 733.5,-1520.61 735.88,-1514.51"/>
<polygon fill="none" stroke="midnightblue" points="712.21,-1601.6 714.38,-1611.97 719.15,-1602.51 712.21,-1601.6"/>
</g>
<!-- Node17&#45;&gt;Node16 -->
<g id="edge22" class="edge">
<title>Node17&#45;&gt;Node16</title>
<path fill="none" stroke="#404040" d="M718.62,-1611.76C724.62,-1588.41 733.36,-1554.4 740.59,-1526.27"/>
<polygon fill="none" stroke="#404040" points="740.59,-1526.24 738.21,-1519.43 743.58,-1514.62 745.96,-1521.42 740.59,-1526.24"/>
<text text-anchor="middle" x="766.5" y="-1547" font-family="Helvetica,sans-Serif" font-size="10.00"> +SuperField</text>
<text text-anchor="middle" x="766.5" y="-1536" font-family="Helvetica,sans-Serif" font-size="10.00">+Children</text>
</g>
<!-- Node17&#45;&gt;Node17 -->
<g id="edge21" class="edge">
<title>Node17&#45;&gt;Node17</title>
<path fill="none" stroke="#404040" d="M753.21,-1657.11C763.41,-1655.88 771,-1650.34 771,-1640.5 771,-1634.96 768.6,-1630.79 764.68,-1627.98"/>
<polygon fill="none" stroke="#404040" points="764.51,-1627.92 757.51,-1629.67 753.21,-1623.89 760.2,-1622.13 764.51,-1627.92"/>
<text text-anchor="middle" x="786.5" y="-1638" font-family="Helvetica,sans-Serif" font-size="10.00"> +Next</text>
</g>
<!-- Node18&#45;&gt;Node5 -->
<g id="edge24" class="edge">
<title>Node18&#45;&gt;Node5</title>
<path fill="none" stroke="#404040" d="M487.3,-932.53C526.75,-903.15 575.9,-866.54 617.16,-835.81"/>
<polygon fill="none" stroke="#404040" points="617.3,-835.71 619.72,-828.92 626.92,-828.54 624.5,-835.33 617.3,-835.71"/>
<text text-anchor="middle" x="598" y="-888" font-family="Helvetica,sans-Serif" font-size="10.00"> +SubWidgetBindings</text>
</g>
<!-- Node19&#45;&gt;Node18 -->
<g id="edge25" class="edge">
<title>Node19&#45;&gt;Node18</title>
<path fill="none" stroke="#404040" d="M415.5,-1107.35C415.5,-1097.01 415.5,-1084.66 415.5,-1071.89"/>
<polygon fill="none" stroke="#404040" points="415.5,-1071.56 411.5,-1065.56 415.5,-1059.56 419.5,-1065.56 415.5,-1071.56"/>
<text text-anchor="middle" x="429.5" y="-1081" font-family="Helvetica,sans-Serif" font-size="10.00"> &#45;Data</text>
</g>
<!-- Node20 -->
<g id="node20" class="node">
<title>Node20</title>
<g id="a_node20"><a xlink:href="../../d3/d88/classSDK_1_1FString.html" target="_top" xlink:title=" ">
<polygon fill="white" stroke="black" points="793,-2018.5 793,-2119.5 868,-2119.5 868,-2018.5 793,-2018.5"/>
<text text-anchor="middle" x="830.5" y="-2107.5" font-family="Helvetica,sans-Serif" font-size="10.00">SDK::FString</text>
<polyline fill="none" stroke="black" points="793,-2100.5 868,-2100.5 "/>
<text text-anchor="middle" x="830.5" y="-2088.5" font-family="Helvetica,sans-Serif" font-size="10.00"> </text>
<polyline fill="none" stroke="black" points="793,-2081.5 868,-2081.5 "/>
<text text-anchor="start" x="801" y="-2069.5" font-family="Helvetica,sans-Serif" font-size="10.00">+ FString()</text>
<text text-anchor="start" x="801" y="-2058.5" font-family="Helvetica,sans-Serif" font-size="10.00">+ FString()</text>
<text text-anchor="start" x="801" y="-2047.5" font-family="Helvetica,sans-Serif" font-size="10.00">+ IsValid()</text>
<text text-anchor="start" x="801" y="-2036.5" font-family="Helvetica,sans-Serif" font-size="10.00">+ c_str()</text>
<text text-anchor="start" x="801" y="-2025.5" font-family="Helvetica,sans-Serif" font-size="10.00">+ ToString()</text>
</a>
</g>
</g>
<!-- Node20&#45;&gt;Node5 -->
<g id="edge29" class="edge">
<title>Node20&#45;&gt;Node5</title>
<path fill="none" stroke="#404040" d="M841.64,-2018.27C855.25,-1953.03 876.5,-1834.8 876.5,-1732.5 876.5,-1732.5 876.5,-1732.5 876.5,-986 876.5,-923.22 830.56,-868.86 785.75,-830.76"/>
<polygon fill="none" stroke="#404040" points="785.47,-830.53 778.3,-829.79 776.22,-822.89 783.4,-823.63 785.47,-830.53"/>
<text text-anchor="middle" x="899.5" y="-1366.5" font-family="Helvetica,sans-Serif" font-size="10.00"> +PathInfo</text>
</g>
<!-- Node21&#45;&gt;Node20 -->
<g id="edge30" class="edge">
<title>Node21&#45;&gt;Node20</title>
<path fill="none" stroke="midnightblue" d="M729.23,-2299.89C754.4,-2242.74 787.3,-2168.07 808.66,-2119.58"/>
<polygon fill="none" stroke="midnightblue" points="725.93,-2298.7 725.1,-2309.26 732.34,-2301.52 725.93,-2298.7"/>
</g>
<!-- Node22&#45;&gt;Node4 -->
<g id="edge32" class="edge">
<title>Node22&#45;&gt;Node4</title>
<path fill="none" stroke="#404040" d="M119.63,-1611.98C101.88,-1580.36 76.5,-1526.34 76.5,-1476 76.5,-1476 76.5,-1476 76.5,-771 76.5,-731.83 78.75,-688.48 81.31,-651.93"/>
<polygon fill="none" stroke="#404040" points="81.32,-651.78 77.76,-645.51 82.18,-639.81 85.74,-646.08 81.32,-651.78"/>
<text text-anchor="middle" x="141.5" y="-1186" font-family="Helvetica,sans-Serif" font-size="10.00"> +__EventListener__Delegate</text>
</g>
</g>
</svg>
