<?xml version="1.0" encoding="UTF-8" standalone="no"?>
<!DOCTYPE svg PUBLIC "-//W3C//DTD SVG 1.1//EN"
 "http://www.w3.org/Graphics/SVG/1.1/DTD/svg11.dtd">
<!-- Generated by graphviz version 2.41.20171026.1811 (20171026.1811)
 -->
<!-- Title: SDK::FActionNotifyPhysicsData Pages: 1 -->
<svg width="168pt" height="182pt"
 viewBox="0.00 0.00 168.00 182.00" xmlns="http://www.w3.org/2000/svg" xmlns:xlink="http://www.w3.org/1999/xlink">
<g id="graph0" class="graph" transform="scale(1 1) rotate(0) translate(4 178)">
<title>SDK::FActionNotifyPhysicsData</title>
<polygon fill="white" stroke="transparent" points="-4,4 -4,-178 164,-178 164,4 -4,4"/>
<!-- Node1 -->
<g id="node1" class="node">
<title>Node1</title>
<g id="a_node1"><a xlink:title=" ">
<polygon fill="#bfbfbf" stroke="black" points="0,-0.5 0,-57.5 160,-57.5 160,-0.5 0,-0.5"/>
<text text-anchor="middle" x="80" y="-45.5" font-family="Helvetica,sans-Serif" font-size="10.00">SDK::FActionNotifyPhysicsData</text>
<polyline fill="none" stroke="black" points="0,-38.5 160,-38.5 "/>
<text text-anchor="start" x="8" y="-26.5" font-family="Helvetica,sans-Serif" font-size="10.00">+ PrevPhysics</text>
<polyline fill="none" stroke="black" points="0,-19.5 160,-19.5 "/>
<text text-anchor="middle" x="80" y="-7.5" font-family="Helvetica,sans-Serif" font-size="10.00"> </text>
</a>
</g>
</g>
<!-- Node2 -->
<g id="node2" class="node">
<title>Node2</title>
<g id="a_node2"><a xlink:href="../../d0/d07/structSDK_1_1FActionNotifyData.html" target="_top" xlink:title=" ">
<polygon fill="white" stroke="black" points="17.5,-94.5 17.5,-173.5 142.5,-173.5 142.5,-94.5 17.5,-94.5"/>
<text text-anchor="middle" x="80" y="-161.5" font-family="Helvetica,sans-Serif" font-size="10.00">SDK::FActionNotifyData</text>
<polyline fill="none" stroke="black" points="17.5,-154.5 142.5,-154.5 "/>
<text text-anchor="start" x="25.5" y="-142.5" font-family="Helvetica,sans-Serif" font-size="10.00">+ LastCheckTime</text>
<text text-anchor="start" x="25.5" y="-131.5" font-family="Helvetica,sans-Serif" font-size="10.00">+ LastRepeatIndex</text>
<text text-anchor="start" x="25.5" y="-120.5" font-family="Helvetica,sans-Serif" font-size="10.00">+ ActiveByMemoryPos</text>
<polyline fill="none" stroke="black" points="17.5,-113.5 142.5,-113.5 "/>
<text text-anchor="middle" x="80" y="-101.5" font-family="Helvetica,sans-Serif" font-size="10.00"> </text>
</a>
</g>
</g>
<!-- Node2&#45;&gt;Node1 -->
<g id="edge1" class="edge">
<title>Node2&#45;&gt;Node1</title>
<path fill="none" stroke="midnightblue" d="M80,-84.16C80,-75.04 80,-65.81 80,-57.61"/>
<polygon fill="none" stroke="midnightblue" points="76.5,-84.35 80,-94.35 83.5,-84.35 76.5,-84.35"/>
</g>
</g>
</svg>
