<?xml version="1.0" encoding="UTF-8" standalone="no"?>
<!DOCTYPE svg PUBLIC "-//W3C//DTD SVG 1.1//EN"
 "http://www.w3.org/Graphics/SVG/1.1/DTD/svg11.dtd">
<!-- Generated by graphviz version 2.41.20171026.1811 (20171026.1811)
 -->
<!-- Title: SDK::FKCachedConvexData Pages: 1 -->
<svg width="310pt" height="772pt"
 viewBox="0.00 0.00 309.50 772.00" xmlns="http://www.w3.org/2000/svg" xmlns:xlink="http://www.w3.org/1999/xlink">
<g id="graph0" class="graph" transform="scale(1 1) rotate(0) translate(4 768)">
<title>SDK::FKCachedConvexData</title>
<polygon fill="white" stroke="transparent" points="-4,4 -4,-768 305.5,-768 305.5,4 -4,4"/>
<!-- Node1 -->
<g id="node1" class="node">
<title>Node1</title>
<g id="a_node1"><a xlink:title=" ">
<polygon fill="#bfbfbf" stroke="black" points="24,-0.5 24,-57.5 169,-57.5 169,-0.5 24,-0.5"/>
<text text-anchor="middle" x="96.5" y="-45.5" font-family="Helvetica,sans-Serif" font-size="10.00">SDK::FKCachedConvexData</text>
<polyline fill="none" stroke="black" points="24,-38.5 169,-38.5 "/>
<text text-anchor="middle" x="96.5" y="-26.5" font-family="Helvetica,sans-Serif" font-size="10.00"> </text>
<polyline fill="none" stroke="black" points="24,-19.5 169,-19.5 "/>
<text text-anchor="middle" x="96.5" y="-7.5" font-family="Helvetica,sans-Serif" font-size="10.00"> </text>
</a>
</g>
</g>
<!-- Node2 -->
<g id="node2" class="node">
<title>Node2</title>
<g id="a_node2"><a xlink:href="../../d3/d79/classSDK_1_1TArray.html" target="_top" xlink:title=" ">
<polygon fill="white" stroke="black" points="0,-105.5 0,-250.5 193,-250.5 193,-105.5 0,-105.5"/>
<text text-anchor="start" x="8" y="-238.5" font-family="Helvetica,sans-Serif" font-size="10.00">SDK::TArray&lt; struct</text>
<text text-anchor="middle" x="96.5" y="-227.5" font-family="Helvetica,sans-Serif" font-size="10.00"> SDK::FKCachedConvexDataElement &gt;</text>
<polyline fill="none" stroke="black" points="0,-220.5 193,-220.5 "/>
<text text-anchor="start" x="8" y="-208.5" font-family="Helvetica,sans-Serif" font-size="10.00">&#45; Count</text>
<text text-anchor="start" x="8" y="-197.5" font-family="Helvetica,sans-Serif" font-size="10.00">&#45; Max</text>
<polyline fill="none" stroke="black" points="0,-190.5 193,-190.5 "/>
<text text-anchor="start" x="8" y="-178.5" font-family="Helvetica,sans-Serif" font-size="10.00">+ TArray()</text>
<text text-anchor="start" x="8" y="-167.5" font-family="Helvetica,sans-Serif" font-size="10.00">+ Num()</text>
<text text-anchor="start" x="8" y="-156.5" font-family="Helvetica,sans-Serif" font-size="10.00">+ operator[]()</text>
<text text-anchor="start" x="8" y="-145.5" font-family="Helvetica,sans-Serif" font-size="10.00">+ operator[]()</text>
<text text-anchor="start" x="8" y="-134.5" font-family="Helvetica,sans-Serif" font-size="10.00">+ IsValidIndex()</text>
<text text-anchor="start" x="8" y="-123.5" font-family="Helvetica,sans-Serif" font-size="10.00">+ GetByIndex()</text>
<text text-anchor="start" x="8" y="-112.5" font-family="Helvetica,sans-Serif" font-size="10.00">+ GetByIndex()</text>
</a>
</g>
</g>
<!-- Node2&#45;&gt;Node1 -->
<g id="edge1" class="edge">
<title>Node2&#45;&gt;Node1</title>
<path fill="none" stroke="#404040" d="M96.5,-105.22C96.5,-93.07 96.5,-80.85 96.5,-69.91"/>
<polygon fill="none" stroke="#404040" points="96.5,-69.71 92.5,-63.71 96.5,-57.71 100.5,-63.71 96.5,-69.71"/>
<text text-anchor="middle" x="155.5" y="-79" font-family="Helvetica,sans-Serif" font-size="10.00"> +CachedConvexElements</text>
</g>
<!-- Node3 -->
<g id="node3" class="node">
<title>Node3</title>
<g id="a_node3"><a xlink:href="../../da/d39/structSDK_1_1FKCachedConvexDataElement.html" target="_top" xlink:title=" ">
<polygon fill="white" stroke="black" points="107,-298.5 107,-355.5 288,-355.5 288,-298.5 107,-298.5"/>
<text text-anchor="middle" x="197.5" y="-343.5" font-family="Helvetica,sans-Serif" font-size="10.00">SDK::FKCachedConvexDataElement</text>
<polyline fill="none" stroke="black" points="107,-336.5 288,-336.5 "/>
<text text-anchor="middle" x="197.5" y="-324.5" font-family="Helvetica,sans-Serif" font-size="10.00"> </text>
<polyline fill="none" stroke="black" points="107,-317.5 288,-317.5 "/>
<text text-anchor="middle" x="197.5" y="-305.5" font-family="Helvetica,sans-Serif" font-size="10.00"> </text>
</a>
</g>
</g>
<!-- Node3&#45;&gt;Node2 -->
<g id="edge2" class="edge">
<title>Node3&#45;&gt;Node2</title>
<path fill="none" stroke="#404040" d="M178.5,-298.35C170.96,-287.37 161.86,-274.13 152.5,-260.51"/>
<polygon fill="none" stroke="#404040" points="152.46,-260.45 145.76,-257.77 145.66,-250.56 152.36,-253.24 152.46,-260.45"/>
<text text-anchor="middle" x="178.5" y="-272" font-family="Helvetica,sans-Serif" font-size="10.00"> &#45;Data</text>
</g>
<!-- Node4 -->
<g id="node4" class="node">
<title>Node4</title>
<g id="a_node4"><a xlink:href="../../d3/d79/classSDK_1_1TArray.html" target="_top" xlink:title=" ">
<polygon fill="white" stroke="black" points="122,-414.5 122,-570.5 243,-570.5 243,-414.5 122,-414.5"/>
<text text-anchor="start" x="130" y="-558.5" font-family="Helvetica,sans-Serif" font-size="10.00">SDK::TArray&lt; unsigned</text>
<text text-anchor="middle" x="182.5" y="-547.5" font-family="Helvetica,sans-Serif" font-size="10.00"> char &gt;</text>
<polyline fill="none" stroke="black" points="122,-540.5 243,-540.5 "/>
<text text-anchor="start" x="130" y="-528.5" font-family="Helvetica,sans-Serif" font-size="10.00">&#45; Data</text>
<text text-anchor="start" x="130" y="-517.5" font-family="Helvetica,sans-Serif" font-size="10.00">&#45; Count</text>
<text text-anchor="start" x="130" y="-506.5" font-family="Helvetica,sans-Serif" font-size="10.00">&#45; Max</text>
<polyline fill="none" stroke="black" points="122,-499.5 243,-499.5 "/>
<text text-anchor="start" x="130" y="-487.5" font-family="Helvetica,sans-Serif" font-size="10.00">+ TArray()</text>
<text text-anchor="start" x="130" y="-476.5" font-family="Helvetica,sans-Serif" font-size="10.00">+ Num()</text>
<text text-anchor="start" x="130" y="-465.5" font-family="Helvetica,sans-Serif" font-size="10.00">+ operator[]()</text>
<text text-anchor="start" x="130" y="-454.5" font-family="Helvetica,sans-Serif" font-size="10.00">+ operator[]()</text>
<text text-anchor="start" x="130" y="-443.5" font-family="Helvetica,sans-Serif" font-size="10.00">+ IsValidIndex()</text>
<text text-anchor="start" x="130" y="-432.5" font-family="Helvetica,sans-Serif" font-size="10.00">+ GetByIndex()</text>
<text text-anchor="start" x="130" y="-421.5" font-family="Helvetica,sans-Serif" font-size="10.00">+ GetByIndex()</text>
</a>
</g>
</g>
<!-- Node4&#45;&gt;Node3 -->
<g id="edge3" class="edge">
<title>Node4&#45;&gt;Node3</title>
<path fill="none" stroke="#404040" d="M199.2,-414.29C200.12,-408.12 200.91,-401.97 201.5,-396 202.46,-386.27 201.92,-383.77 201.5,-374 201.41,-371.96 201.3,-369.88 201.17,-367.77"/>
<polygon fill="none" stroke="#404040" points="201.17,-367.67 196.74,-361.98 200.3,-355.7 204.72,-361.4 201.17,-367.67"/>
<text text-anchor="middle" x="251.5" y="-382.5" font-family="Helvetica,sans-Serif" font-size="10.00"> +ConvexElementData</text>
</g>
<!-- Node5 -->
<g id="node5" class="node">
<title>Node5</title>
<g id="a_node5"><a xlink:href="../../d3/d79/classSDK_1_1TArray.html" target="_top" xlink:title=" ">
<polygon fill="white" stroke="black" points="20,-618.5 20,-763.5 117,-763.5 117,-618.5 20,-618.5"/>
<text text-anchor="middle" x="68.5" y="-751.5" font-family="Helvetica,sans-Serif" font-size="10.00">SDK::TArray&lt; T &gt;</text>
<polyline fill="none" stroke="black" points="20,-744.5 117,-744.5 "/>
<text text-anchor="start" x="28" y="-732.5" font-family="Helvetica,sans-Serif" font-size="10.00">&#45; Data</text>
<text text-anchor="start" x="28" y="-721.5" font-family="Helvetica,sans-Serif" font-size="10.00">&#45; Count</text>
<text text-anchor="start" x="28" y="-710.5" font-family="Helvetica,sans-Serif" font-size="10.00">&#45; Max</text>
<polyline fill="none" stroke="black" points="20,-703.5 117,-703.5 "/>
<text text-anchor="start" x="28" y="-691.5" font-family="Helvetica,sans-Serif" font-size="10.00">+ TArray()</text>
<text text-anchor="start" x="28" y="-680.5" font-family="Helvetica,sans-Serif" font-size="10.00">+ Num()</text>
<text text-anchor="start" x="28" y="-669.5" font-family="Helvetica,sans-Serif" font-size="10.00">+ operator[]()</text>
<text text-anchor="start" x="28" y="-658.5" font-family="Helvetica,sans-Serif" font-size="10.00">+ operator[]()</text>
<text text-anchor="start" x="28" y="-647.5" font-family="Helvetica,sans-Serif" font-size="10.00">+ IsValidIndex()</text>
<text text-anchor="start" x="28" y="-636.5" font-family="Helvetica,sans-Serif" font-size="10.00">+ GetByIndex()</text>
<text text-anchor="start" x="28" y="-625.5" font-family="Helvetica,sans-Serif" font-size="10.00">+ GetByIndex()</text>
</a>
</g>
</g>
<!-- Node5&#45;&gt;Node2 -->
<g id="edge5" class="edge">
<title>Node5&#45;&gt;Node2</title>
<path fill="none" stroke="orange" d="M55.62,-608.23C47.47,-544.29 40.08,-453.26 49.5,-374 54.41,-332.68 64.98,-287.44 74.85,-250.95"/>
<polygon fill="orange" stroke="orange" points="52.16,-608.79 56.93,-618.25 59.1,-607.88 52.16,-608.79"/>
<text text-anchor="start" x="49.5" y="-388" font-family="Helvetica,sans-Serif" font-size="10.00"> &lt; struct SDK::FKCachedConvex</text>
<text text-anchor="middle" x="123.5" y="-377" font-family="Helvetica,sans-Serif" font-size="10.00">DataElement &gt;</text>
</g>
<!-- Node5&#45;&gt;Node4 -->
<g id="edge4" class="edge">
<title>Node5&#45;&gt;Node4</title>
<path fill="none" stroke="orange" d="M115.24,-609.44C122.66,-596.64 130.33,-583.43 137.71,-570.71"/>
<polygon fill="orange" stroke="orange" points="112.13,-607.82 110.14,-618.22 118.19,-611.33 112.13,-607.82"/>
<text text-anchor="middle" x="166.5" y="-592" font-family="Helvetica,sans-Serif" font-size="10.00"> &lt; unsigned char &gt;</text>
</g>
</g>
</svg>
