<?xml version="1.0" encoding="UTF-8" standalone="no"?>
<!DOCTYPE svg PUBLIC "-//W3C//DTD SVG 1.1//EN"
 "http://www.w3.org/Graphics/SVG/1.1/DTD/svg11.dtd">
<!-- Generated by graphviz version 2.41.20171026.1811 (20171026.1811)
 -->
<!-- Title: SDK::FNpcPartTransformSampleDatas Pages: 1 -->
<!--zoomable 612 -->
<svg id="main" version="1.1" xmlns="http://www.w3.org/2000/svg" xmlns:xlink="http://www.w3.org/1999/xlink" xml:space="preserve" onload="init(evt)">
<style type="text/css"><![CDATA[
.edge:hover path { stroke: red; }
.edge:hover polygon { stroke: red; fill: red; }
]]></style>
<script type="text/javascript"><![CDATA[
var edges = document.getElementsByTagName('g');
if (edges && edges.length) {
  for (var i=0;i<edges.length;i++) {
    if (edges[i].id.substr(0,4)=='edge') {
      edges[i].setAttribute('class','edge');
    }
  }
}
]]></script>
        <defs>
                <circle id="rim" cx="0" cy="0" r="7"/>
                <circle id="rim2" cx="0" cy="0" r="3.5"/>
                <g id="zoomPlus">
                        <use xlink:href="#rim" fill="#404040">
                                <set attributeName="fill" to="#808080" begin="zoomplus.mouseover" end="zoomplus.mouseout"/>
                        </use>
                        <path d="M-4,0h8M0,-4v8" fill="none" stroke="white" stroke-width="1.5" pointer-events="none"/>
                </g>
                <g id="zoomMin">
                        <use xlink:href="#rim" fill="#404040">
                                <set attributeName="fill" to="#808080" begin="zoomminus.mouseover" end="zoomminus.mouseout"/>
                        </use>
                        <path d="M-4,0h8" fill="none" stroke="white" stroke-width="1.5" pointer-events="none"/>
                </g>
                <g id="dirArrow">
                        <path fill="none" stroke="white" stroke-width="1.5" d="M0,-3.0v7 M-2.5,-0.5L0,-3.0L2.5,-0.5"/>
                </g>
               <g id="resetDef">
                       <use xlink:href="#rim2" fill="#404040">
                               <set attributeName="fill" to="#808080" begin="reset.mouseover" end="reset.mouseout"/>
                       </use>
               </g>
        </defs>

<script type="text/javascript">
var viewWidth = 377;
var viewHeight = 612;
var sectionId = 'dynsection-0';
</script>
<script xlink:href="../../svgpan.js"/>
<svg id="graph" class="graph">
<g id="viewport">
<title>SDK::FNpcPartTransformSampleDatas</title>
<polygon fill="white" stroke="transparent" points="-4,4 -4,-608 373,-608 373,4 -4,4"/>
<!-- Node1 -->
<g id="node1" class="node">
<title>Node1</title>
<g id="a_node1"><a xlink:title=" ">
<polygon fill="#bfbfbf" stroke="black" points="89.5,-0.5 89.5,-68.5 252.5,-68.5 252.5,-0.5 89.5,-0.5"/>
<text text-anchor="start" x="97.5" y="-56.5" font-family="Helvetica,sans-Serif" font-size="10.00">SDK::FNpcPartTransformSample</text>
<text text-anchor="middle" x="171" y="-45.5" font-family="Helvetica,sans-Serif" font-size="10.00">Datas</text>
<polyline fill="none" stroke="black" points="89.5,-38.5 252.5,-38.5 "/>
<text text-anchor="start" x="97.5" y="-26.5" font-family="Helvetica,sans-Serif" font-size="10.00">+ NpcPartType</text>
<polyline fill="none" stroke="black" points="89.5,-19.5 252.5,-19.5 "/>
<text text-anchor="middle" x="171" y="-7.5" font-family="Helvetica,sans-Serif" font-size="10.00"> </text>
</a>
</g>
</g>
<!-- Node2 -->
<g id="node2" class="node">
<title>Node2</title>
<g id="a_node2"><a xlink:href="../../d3/d79/classSDK_1_1TArray.html" target="_top" xlink:title=" ">
<polygon fill="white" stroke="black" points="88,-116.5 88,-272.5 254,-272.5 254,-116.5 88,-116.5"/>
<text text-anchor="start" x="96" y="-260.5" font-family="Helvetica,sans-Serif" font-size="10.00">SDK::TArray&lt; struct</text>
<text text-anchor="start" x="96" y="-249.5" font-family="Helvetica,sans-Serif" font-size="10.00"> SDK::FNpcPartTransformSample</text>
<text text-anchor="middle" x="171" y="-238.5" font-family="Helvetica,sans-Serif" font-size="10.00">Data &gt;</text>
<polyline fill="none" stroke="black" points="88,-231.5 254,-231.5 "/>
<text text-anchor="start" x="96" y="-219.5" font-family="Helvetica,sans-Serif" font-size="10.00">&#45; Count</text>
<text text-anchor="start" x="96" y="-208.5" font-family="Helvetica,sans-Serif" font-size="10.00">&#45; Max</text>
<polyline fill="none" stroke="black" points="88,-201.5 254,-201.5 "/>
<text text-anchor="start" x="96" y="-189.5" font-family="Helvetica,sans-Serif" font-size="10.00">+ TArray()</text>
<text text-anchor="start" x="96" y="-178.5" font-family="Helvetica,sans-Serif" font-size="10.00">+ Num()</text>
<text text-anchor="start" x="96" y="-167.5" font-family="Helvetica,sans-Serif" font-size="10.00">+ operator[]()</text>
<text text-anchor="start" x="96" y="-156.5" font-family="Helvetica,sans-Serif" font-size="10.00">+ operator[]()</text>
<text text-anchor="start" x="96" y="-145.5" font-family="Helvetica,sans-Serif" font-size="10.00">+ IsValidIndex()</text>
<text text-anchor="start" x="96" y="-134.5" font-family="Helvetica,sans-Serif" font-size="10.00">+ GetByIndex()</text>
<text text-anchor="start" x="96" y="-123.5" font-family="Helvetica,sans-Serif" font-size="10.00">+ GetByIndex()</text>
</a>
</g>
</g>
<!-- Node2&#45;&gt;Node1 -->
<g id="edge1" class="edge">
<title>Node2&#45;&gt;Node1</title>
<path fill="none" stroke="#404040" d="M171,-116.35C171,-104.17 171,-91.93 171,-80.79"/>
<polygon fill="none" stroke="#404040" points="171,-80.75 167,-74.75 171,-68.75 175,-74.75 171,-80.75"/>
<text text-anchor="middle" x="199" y="-90" font-family="Helvetica,sans-Serif" font-size="10.00"> +transforms</text>
</g>
<!-- Node3 -->
<g id="node3" class="node">
<title>Node3</title>
<g id="a_node3"><a xlink:href="../../d0/d06/structSDK_1_1FNpcPartTransformSampleData.html" target="_top" xlink:title=" ">
<polygon fill="white" stroke="black" points="0,-375.5 0,-432.5 184,-432.5 184,-375.5 0,-375.5"/>
<text text-anchor="middle" x="92" y="-420.5" font-family="Helvetica,sans-Serif" font-size="10.00">SDK::FNpcPartTransformSampleData</text>
<polyline fill="none" stroke="black" points="0,-413.5 184,-413.5 "/>
<text text-anchor="middle" x="92" y="-401.5" font-family="Helvetica,sans-Serif" font-size="10.00"> </text>
<polyline fill="none" stroke="black" points="0,-394.5 184,-394.5 "/>
<text text-anchor="middle" x="92" y="-382.5" font-family="Helvetica,sans-Serif" font-size="10.00"> </text>
</a>
</g>
</g>
<!-- Node3&#45;&gt;Node2 -->
<g id="edge2" class="edge">
<title>Node3&#45;&gt;Node2</title>
<path fill="none" stroke="#404040" d="M102.49,-375.45C111.39,-352.07 124.66,-317.2 137.17,-284.37"/>
<polygon fill="none" stroke="#404040" points="137.28,-284.07 135.67,-277.04 141.55,-272.86 143.15,-279.89 137.28,-284.07"/>
<text text-anchor="middle" x="148" y="-299.5" font-family="Helvetica,sans-Serif" font-size="10.00"> &#45;Data</text>
</g>
<!-- Node4 -->
<g id="node4" class="node">
<title>Node4</title>
<g id="a_node4"><a xlink:href="../../dd/db9/structSDK_1_1FRotator.html" target="_top" xlink:title=" ">
<polygon fill="white" stroke="black" points="2,-524.5 2,-603.5 84,-603.5 84,-524.5 2,-524.5"/>
<text text-anchor="middle" x="43" y="-591.5" font-family="Helvetica,sans-Serif" font-size="10.00">SDK::FRotator</text>
<polyline fill="none" stroke="black" points="2,-584.5 84,-584.5 "/>
<text text-anchor="start" x="10" y="-572.5" font-family="Helvetica,sans-Serif" font-size="10.00">+ Pitch</text>
<text text-anchor="start" x="10" y="-561.5" font-family="Helvetica,sans-Serif" font-size="10.00">+ Yaw</text>
<text text-anchor="start" x="10" y="-550.5" font-family="Helvetica,sans-Serif" font-size="10.00">+ Roll</text>
<polyline fill="none" stroke="black" points="2,-543.5 84,-543.5 "/>
<text text-anchor="middle" x="43" y="-531.5" font-family="Helvetica,sans-Serif" font-size="10.00"> </text>
</a>
</g>
</g>
<!-- Node4&#45;&gt;Node3 -->
<g id="edge3" class="edge">
<title>Node4&#45;&gt;Node3</title>
<path fill="none" stroke="#404040" d="M54.99,-524.35C62.5,-500.12 72.16,-468.97 79.73,-444.57"/>
<polygon fill="none" stroke="#404040" points="79.81,-444.31 77.77,-437.39 83.36,-432.85 85.41,-439.76 79.81,-444.31"/>
<text text-anchor="middle" x="87" y="-498" font-family="Helvetica,sans-Serif" font-size="10.00"> +Rotation</text>
</g>
<!-- Node5 -->
<g id="node5" class="node">
<title>Node5</title>
<g id="a_node5"><a xlink:href="../../dd/d43/structSDK_1_1FVector.html" target="_top" xlink:title=" ">
<polygon fill="white" stroke="black" points="102,-524.5 102,-603.5 180,-603.5 180,-524.5 102,-524.5"/>
<text text-anchor="middle" x="141" y="-591.5" font-family="Helvetica,sans-Serif" font-size="10.00">SDK::FVector</text>
<polyline fill="none" stroke="black" points="102,-584.5 180,-584.5 "/>
<text text-anchor="start" x="110" y="-572.5" font-family="Helvetica,sans-Serif" font-size="10.00">+ X</text>
<text text-anchor="start" x="110" y="-561.5" font-family="Helvetica,sans-Serif" font-size="10.00">+ Y</text>
<text text-anchor="start" x="110" y="-550.5" font-family="Helvetica,sans-Serif" font-size="10.00">+ Z</text>
<polyline fill="none" stroke="black" points="102,-543.5 180,-543.5 "/>
<text text-anchor="middle" x="141" y="-531.5" font-family="Helvetica,sans-Serif" font-size="10.00"> </text>
</a>
</g>
</g>
<!-- Node5&#45;&gt;Node3 -->
<g id="edge4" class="edge">
<title>Node5&#45;&gt;Node3</title>
<path fill="none" stroke="#404040" d="M129.01,-524.35C121.5,-500.12 111.84,-468.97 104.27,-444.57"/>
<polygon fill="none" stroke="#404040" points="104.19,-444.31 98.59,-439.76 100.64,-432.85 106.23,-437.39 104.19,-444.31"/>
<text text-anchor="middle" x="145.5" y="-498" font-family="Helvetica,sans-Serif" font-size="10.00"> +Position</text>
</g>
<!-- Node6 -->
<g id="node6" class="node">
<title>Node6</title>
<g id="a_node6"><a xlink:href="../../d3/d79/classSDK_1_1TArray.html" target="_top" xlink:title=" ">
<polygon fill="white" stroke="black" points="202.5,-331.5 202.5,-476.5 299.5,-476.5 299.5,-331.5 202.5,-331.5"/>
<text text-anchor="middle" x="251" y="-464.5" font-family="Helvetica,sans-Serif" font-size="10.00">SDK::TArray&lt; T &gt;</text>
<polyline fill="none" stroke="black" points="202.5,-457.5 299.5,-457.5 "/>
<text text-anchor="start" x="210.5" y="-445.5" font-family="Helvetica,sans-Serif" font-size="10.00">&#45; Data</text>
<text text-anchor="start" x="210.5" y="-434.5" font-family="Helvetica,sans-Serif" font-size="10.00">&#45; Count</text>
<text text-anchor="start" x="210.5" y="-423.5" font-family="Helvetica,sans-Serif" font-size="10.00">&#45; Max</text>
<polyline fill="none" stroke="black" points="202.5,-416.5 299.5,-416.5 "/>
<text text-anchor="start" x="210.5" y="-404.5" font-family="Helvetica,sans-Serif" font-size="10.00">+ TArray()</text>
<text text-anchor="start" x="210.5" y="-393.5" font-family="Helvetica,sans-Serif" font-size="10.00">+ Num()</text>
<text text-anchor="start" x="210.5" y="-382.5" font-family="Helvetica,sans-Serif" font-size="10.00">+ operator[]()</text>
<text text-anchor="start" x="210.5" y="-371.5" font-family="Helvetica,sans-Serif" font-size="10.00">+ operator[]()</text>
<text text-anchor="start" x="210.5" y="-360.5" font-family="Helvetica,sans-Serif" font-size="10.00">+ IsValidIndex()</text>
<text text-anchor="start" x="210.5" y="-349.5" font-family="Helvetica,sans-Serif" font-size="10.00">+ GetByIndex()</text>
<text text-anchor="start" x="210.5" y="-338.5" font-family="Helvetica,sans-Serif" font-size="10.00">+ GetByIndex()</text>
</a>
</g>
</g>
<!-- Node6&#45;&gt;Node2 -->
<g id="edge5" class="edge">
<title>Node6&#45;&gt;Node2</title>
<path fill="none" stroke="orange" d="M219.71,-321.84C213.45,-305.61 206.89,-288.6 200.69,-272.51"/>
<polygon fill="orange" stroke="orange" points="216.49,-323.23 223.36,-331.3 223.02,-320.71 216.49,-323.23"/>
<text text-anchor="start" x="215" y="-305" font-family="Helvetica,sans-Serif" font-size="10.00"> &lt; struct SDK::FNpcPartTransform</text>
<text text-anchor="middle" x="292" y="-294" font-family="Helvetica,sans-Serif" font-size="10.00">SampleData &gt;</text>
</g>
</g>
</svg>
        <g id="navigator" transform="translate(0 0)" fill="#404254">
                <rect fill="#f2f5e9" fill-opacity="0.5" stroke="#606060" stroke-width=".5" x="0" y="0" width="60" height="60"/>
                <use id="zoomplus" xlink:href="#zoomPlus" x="17" y="9" onmousedown="handleZoom(evt,'in')"/>
                <use id="zoomminus" xlink:href="#zoomMin" x="42" y="9" onmousedown="handleZoom(evt,'out')"/>
                <use id="reset" xlink:href="#resetDef" x="30" y="36" onmousedown="handleReset()"/>
                <g id="arrowUp" xlink:href="#dirArrow" transform="translate(30 24)" onmousedown="handlePan(0,-1)">
                  <use xlink:href="#rim" fill="#404040">
                        <set attributeName="fill" to="#808080" begin="arrowUp.mouseover" end="arrowUp.mouseout"/>
                  </use>
                  <path fill="none" stroke="white" stroke-width="1.5" d="M0,-3.0v7 M-2.5,-0.5L0,-3.0L2.5,-0.5"/>
                </g>
                <g id="arrowRight" xlink:href="#dirArrow" transform="rotate(90) translate(36 -43)" onmousedown="handlePan(1,0)">
                  <use xlink:href="#rim" fill="#404040">
                        <set attributeName="fill" to="#808080" begin="arrowRight.mouseover" end="arrowRight.mouseout"/>
                  </use>
                  <path fill="none" stroke="white" stroke-width="1.5" d="M0,-3.0v7 M-2.5,-0.5L0,-3.0L2.5,-0.5"/>
                </g>
                <g id="arrowDown" xlink:href="#dirArrow" transform="rotate(180) translate(-30 -48)" onmousedown="handlePan(0,1)">
                  <use xlink:href="#rim" fill="#404040">
                        <set attributeName="fill" to="#808080" begin="arrowDown.mouseover" end="arrowDown.mouseout"/>
                  </use>
                  <path fill="none" stroke="white" stroke-width="1.5" d="M0,-3.0v7 M-2.5,-0.5L0,-3.0L2.5,-0.5"/>
                </g>
                <g id="arrowLeft" xlink:href="#dirArrow" transform="rotate(270) translate(-36 17)" onmousedown="handlePan(-1,0)">
                  <use xlink:href="#rim" fill="#404040">
                        <set attributeName="fill" to="#808080" begin="arrowLeft.mouseover" end="arrowLeft.mouseout"/>
                  </use>
                  <path fill="none" stroke="white" stroke-width="1.5" d="M0,-3.0v7 M-2.5,-0.5L0,-3.0L2.5,-0.5"/>
                </g>
        </g>
        <svg viewBox="0 0 15 15" width="100%" height="30px" preserveAspectRatio="xMaxYMin meet">
         <g id="arrow_out" transform="scale(0.3 0.3)">
          <a xlink:href="structSDK_1_1FNpcPartTransformSampleDatas__coll__graph_org.svg" target="_base">
           <rect id="button" ry="5" rx="5" y="6" x="6" height="38" width="38"
                fill="#f2f5e9" fill-opacity="0.5" stroke="#606060" stroke-width="1.0"/>
           <path id="arrow"
             d="M 11.500037,31.436501 C 11.940474,20.09759 22.043105,11.32322 32.158766,21.979434 L 37.068811,17.246167 C 37.068811,17.246167 37.088388,32 37.088388,32 L 22.160133,31.978069 C 22.160133,31.978069 26.997745,27.140456 26.997745,27.140456 C 18.528582,18.264221 13.291696,25.230495 11.500037,31.436501 z"
             style="fill:#404040;"/>
          </a>
         </g>
        </svg>
</svg>
