<?xml version="1.0" encoding="UTF-8" standalone="no"?>
<!DOCTYPE svg PUBLIC "-//W3C//DTD SVG 1.1//EN"
 "http://www.w3.org/Graphics/SVG/1.1/DTD/svg11.dtd">
<!-- Generated by graphviz version 2.41.20171026.1811 (20171026.1811)
 -->
<!-- Title: SDK::UPhysXParticleSystem Pages: 1 -->
<!--zoomable 1419 -->
<svg id="main" version="1.1" xmlns="http://www.w3.org/2000/svg" xmlns:xlink="http://www.w3.org/1999/xlink" xml:space="preserve" onload="init(evt)">
<style type="text/css"><![CDATA[
.edge:hover path { stroke: red; }
.edge:hover polygon { stroke: red; fill: red; }
]]></style>
<script type="text/javascript"><![CDATA[
var edges = document.getElementsByTagName('g');
if (edges && edges.length) {
  for (var i=0;i<edges.length;i++) {
    if (edges[i].id.substr(0,4)=='edge') {
      edges[i].setAttribute('class','edge');
    }
  }
}
]]></script>
        <defs>
                <circle id="rim" cx="0" cy="0" r="7"/>
                <circle id="rim2" cx="0" cy="0" r="3.5"/>
                <g id="zoomPlus">
                        <use xlink:href="#rim" fill="#404040">
                                <set attributeName="fill" to="#808080" begin="zoomplus.mouseover" end="zoomplus.mouseout"/>
                        </use>
                        <path d="M-4,0h8M0,-4v8" fill="none" stroke="white" stroke-width="1.5" pointer-events="none"/>
                </g>
                <g id="zoomMin">
                        <use xlink:href="#rim" fill="#404040">
                                <set attributeName="fill" to="#808080" begin="zoomminus.mouseover" end="zoomminus.mouseout"/>
                        </use>
                        <path d="M-4,0h8" fill="none" stroke="white" stroke-width="1.5" pointer-events="none"/>
                </g>
                <g id="dirArrow">
                        <path fill="none" stroke="white" stroke-width="1.5" d="M0,-3.0v7 M-2.5,-0.5L0,-3.0L2.5,-0.5"/>
                </g>
               <g id="resetDef">
                       <use xlink:href="#rim2" fill="#404040">
                               <set attributeName="fill" to="#808080" begin="reset.mouseover" end="reset.mouseout"/>
                       </use>
               </g>
        </defs>

<script type="text/javascript">
var viewWidth = 1402;
var viewHeight = 1419;
var sectionId = 'dynsection-1';
</script>
<script xlink:href="../../svgpan.js"/>
<svg id="graph" class="graph">
<g id="viewport">
<title>SDK::UPhysXParticleSystem</title>
<polygon fill="white" stroke="transparent" points="-4,4 -4,-1415 1397.5,-1415 1397.5,4 -4,4"/>
<!-- Node1 -->
<g id="node1" class="node">
<title>Node1</title>
<g id="a_node1"><a xlink:title=" ">
<polygon fill="#bfbfbf" stroke="black" points="678,-361.5 678,-550.5 843,-550.5 843,-361.5 678,-361.5"/>
<text text-anchor="middle" x="760.5" y="-538.5" font-family="Helvetica,sans-Serif" font-size="10.00">SDK::UPhysXParticleSystem</text>
<polyline fill="none" stroke="black" points="678,-531.5 843,-531.5 "/>
<text text-anchor="start" x="686" y="-519.5" font-family="Helvetica,sans-Serif" font-size="10.00">+ MaxParticles</text>
<text text-anchor="start" x="686" y="-508.5" font-family="Helvetica,sans-Serif" font-size="10.00">+ ParticleSpawnReserve</text>
<text text-anchor="start" x="686" y="-497.5" font-family="Helvetica,sans-Serif" font-size="10.00">+ UnknownData00</text>
<text text-anchor="start" x="686" y="-486.5" font-family="Helvetica,sans-Serif" font-size="10.00">+ CollisionDistance</text>
<text text-anchor="start" x="686" y="-475.5" font-family="Helvetica,sans-Serif" font-size="10.00">+ RestitutionWithStaticShapes</text>
<text text-anchor="start" x="686" y="-464.5" font-family="Helvetica,sans-Serif" font-size="10.00">+ RestitutionWithDynamicShapes</text>
<text text-anchor="start" x="686" y="-453.5" font-family="Helvetica,sans-Serif" font-size="10.00">+ FrictionWithStaticShapes</text>
<text text-anchor="start" x="686" y="-442.5" font-family="Helvetica,sans-Serif" font-size="10.00">+ FrictionWithDynamicShapes</text>
<text text-anchor="start" x="686" y="-431.5" font-family="Helvetica,sans-Serif" font-size="10.00">+ StaticFrictionWithStatic</text>
<text text-anchor="start" x="686" y="-420.5" font-family="Helvetica,sans-Serif" font-size="10.00">Shapes</text>
<text text-anchor="start" x="686" y="-409.5" font-family="Helvetica,sans-Serif" font-size="10.00">+ StaticFrictionWithDynamic</text>
<text text-anchor="start" x="686" y="-398.5" font-family="Helvetica,sans-Serif" font-size="10.00">Shapes</text>
<text text-anchor="start" x="686" y="-387.5" font-family="Helvetica,sans-Serif" font-size="10.00">and 15 more...</text>
<polyline fill="none" stroke="black" points="678,-380.5 843,-380.5 "/>
<text text-anchor="start" x="686" y="-368.5" font-family="Helvetica,sans-Serif" font-size="10.00">+ StaticClass()</text>
</a>
</g>
</g>
<!-- Node2 -->
<g id="node2" class="node">
<title>Node2</title>
<g id="a_node2"><a xlink:href="../../d9/d45/classSDK_1_1UObject.html" target="_top" xlink:title=" ">
<polygon fill="white" stroke="black" points="173.5,-598.5 173.5,-842.5 371.5,-842.5 371.5,-598.5 173.5,-598.5"/>
<text text-anchor="middle" x="272.5" y="-830.5" font-family="Helvetica,sans-Serif" font-size="10.00">SDK::UObject</text>
<polyline fill="none" stroke="black" points="173.5,-823.5 371.5,-823.5 "/>
<text text-anchor="start" x="181.5" y="-811.5" font-family="Helvetica,sans-Serif" font-size="10.00">+ ObjectInternalInteger</text>
<text text-anchor="start" x="181.5" y="-800.5" font-family="Helvetica,sans-Serif" font-size="10.00">+ NetIndex</text>
<polyline fill="none" stroke="black" points="173.5,-793.5 371.5,-793.5 "/>
<text text-anchor="start" x="181.5" y="-781.5" font-family="Helvetica,sans-Serif" font-size="10.00">+ UObject::GetName()</text>
<text text-anchor="start" x="181.5" y="-770.5" font-family="Helvetica,sans-Serif" font-size="10.00">+ GetFullName()</text>
<text text-anchor="start" x="181.5" y="-759.5" font-family="Helvetica,sans-Serif" font-size="10.00">+ IsA()</text>
<text text-anchor="start" x="181.5" y="-748.5" font-family="Helvetica,sans-Serif" font-size="10.00">+ ProcessEvent()</text>
<text text-anchor="start" x="181.5" y="-737.5" font-family="Helvetica,sans-Serif" font-size="10.00">+ STATIC_ProfNodeEvent()</text>
<text text-anchor="start" x="181.5" y="-726.5" font-family="Helvetica,sans-Serif" font-size="10.00">+ STATIC_ProfNodeSetDepthThreshold()</text>
<text text-anchor="start" x="181.5" y="-715.5" font-family="Helvetica,sans-Serif" font-size="10.00">+ STATIC_ProfNodeSetTimeThreshold</text>
<text text-anchor="start" x="181.5" y="-704.5" font-family="Helvetica,sans-Serif" font-size="10.00">Seconds()</text>
<text text-anchor="start" x="181.5" y="-693.5" font-family="Helvetica,sans-Serif" font-size="10.00">+ STATIC_ProfNodeStop()</text>
<text text-anchor="start" x="181.5" y="-682.5" font-family="Helvetica,sans-Serif" font-size="10.00">+ STATIC_ProfNodeStart()</text>
<text text-anchor="start" x="181.5" y="-671.5" font-family="Helvetica,sans-Serif" font-size="10.00">+ STATIC_GetStringFromGuid()</text>
<text text-anchor="start" x="181.5" y="-660.5" font-family="Helvetica,sans-Serif" font-size="10.00">and 298 more...</text>
<text text-anchor="start" x="181.5" y="-649.5" font-family="Helvetica,sans-Serif" font-size="10.00">+ GetGlobalObjects()</text>
<text text-anchor="start" x="181.5" y="-638.5" font-family="Helvetica,sans-Serif" font-size="10.00">+ FindObject()</text>
<text text-anchor="start" x="181.5" y="-627.5" font-family="Helvetica,sans-Serif" font-size="10.00">+ FindClass()</text>
<text text-anchor="start" x="181.5" y="-616.5" font-family="Helvetica,sans-Serif" font-size="10.00">+ GetObjectCasted()</text>
<text text-anchor="start" x="181.5" y="-605.5" font-family="Helvetica,sans-Serif" font-size="10.00">+ StaticClass()</text>
</a>
</g>
</g>
<!-- Node2&#45;&gt;Node1 -->
<g id="edge1" class="edge">
<title>Node2&#45;&gt;Node1</title>
<path fill="none" stroke="midnightblue" d="M380.31,-638.4C414.58,-614.47 453.27,-589.28 490.5,-569 551,-536.05 623.26,-506.55 677.79,-486.11"/>
<polygon fill="none" stroke="midnightblue" points="377.87,-635.84 371.7,-644.46 381.9,-641.57 377.87,-635.84"/>
</g>
<!-- Node2&#45;&gt;Node2 -->
<g id="edge7" class="edge">
<title>Node2&#45;&gt;Node2</title>
<path fill="none" stroke="#404040" d="M371.51,-743.53C382.44,-739.15 389.5,-731.48 389.5,-720.5 389.5,-713.64 386.74,-708.07 382.01,-703.78"/>
<polygon fill="none" stroke="#404040" points="381.8,-703.66 374.59,-703.99 371.51,-697.47 378.72,-697.14 381.8,-703.66"/>
<text text-anchor="middle" x="429" y="-729" font-family="Helvetica,sans-Serif" font-size="10.00"> +Outer</text>
<text text-anchor="middle" x="429" y="-718" font-family="Helvetica,sans-Serif" font-size="10.00">+Linker</text>
<text text-anchor="middle" x="429" y="-707" font-family="Helvetica,sans-Serif" font-size="10.00">+ObjectArchetype</text>
</g>
<!-- Node8 -->
<g id="node8" class="node">
<title>Node8</title>
<g id="a_node8"><a xlink:href="../../d3/d79/classSDK_1_1TArray.html" target="_top" xlink:title=" ">
<polygon fill="white" stroke="black" points="0,-389 0,-523 161,-523 161,-389 0,-389"/>
<text text-anchor="middle" x="80.5" y="-511" font-family="Helvetica,sans-Serif" font-size="10.00">SDK::TArray&lt; SDK::UObject * &gt;</text>
<polyline fill="none" stroke="black" points="0,-504 161,-504 "/>
<text text-anchor="start" x="8" y="-492" font-family="Helvetica,sans-Serif" font-size="10.00">&#45; Count</text>
<text text-anchor="start" x="8" y="-481" font-family="Helvetica,sans-Serif" font-size="10.00">&#45; Max</text>
<polyline fill="none" stroke="black" points="0,-474 161,-474 "/>
<text text-anchor="start" x="8" y="-462" font-family="Helvetica,sans-Serif" font-size="10.00">+ TArray()</text>
<text text-anchor="start" x="8" y="-451" font-family="Helvetica,sans-Serif" font-size="10.00">+ Num()</text>
<text text-anchor="start" x="8" y="-440" font-family="Helvetica,sans-Serif" font-size="10.00">+ operator[]()</text>
<text text-anchor="start" x="8" y="-429" font-family="Helvetica,sans-Serif" font-size="10.00">+ operator[]()</text>
<text text-anchor="start" x="8" y="-418" font-family="Helvetica,sans-Serif" font-size="10.00">+ IsValidIndex()</text>
<text text-anchor="start" x="8" y="-407" font-family="Helvetica,sans-Serif" font-size="10.00">+ GetByIndex()</text>
<text text-anchor="start" x="8" y="-396" font-family="Helvetica,sans-Serif" font-size="10.00">+ GetByIndex()</text>
</a>
</g>
</g>
<!-- Node2&#45;&gt;Node8 -->
<g id="edge9" class="edge">
<title>Node2&#45;&gt;Node8</title>
<path fill="none" stroke="#404040" d="M173.25,-617.29C163.08,-605.09 153.27,-592.52 144.5,-580 134.46,-565.66 124.95,-549.55 116.5,-533.82"/>
<polygon fill="none" stroke="#404040" points="116.4,-533.64 110.07,-530.19 110.81,-523.02 117.15,-526.47 116.4,-533.64"/>
<text text-anchor="middle" x="158.5" y="-572" font-family="Helvetica,sans-Serif" font-size="10.00"> &#45;Data</text>
</g>
<!-- Node10 -->
<g id="node10" class="node">
<title>Node10</title>
<g id="a_node10"><a xlink:href="../../d7/d85/classSDK_1_1UClass.html" target="_top" xlink:title=" ">
<polygon fill="white" stroke="black" points="279,-0.5 279,-90.5 400,-90.5 400,-0.5 279,-0.5"/>
<text text-anchor="middle" x="339.5" y="-78.5" font-family="Helvetica,sans-Serif" font-size="10.00">SDK::UClass</text>
<polyline fill="none" stroke="black" points="279,-71.5 400,-71.5 "/>
<text text-anchor="start" x="287" y="-59.5" font-family="Helvetica,sans-Serif" font-size="10.00">+ UnknownData00</text>
<text text-anchor="start" x="287" y="-48.5" font-family="Helvetica,sans-Serif" font-size="10.00">+ UnknownData01</text>
<polyline fill="none" stroke="black" points="279,-41.5 400,-41.5 "/>
<text text-anchor="start" x="287" y="-29.5" font-family="Helvetica,sans-Serif" font-size="10.00">+ CreateDefaultObject()</text>
<text text-anchor="start" x="287" y="-18.5" font-family="Helvetica,sans-Serif" font-size="10.00">+ CreateDefaultObject()</text>
<text text-anchor="start" x="287" y="-7.5" font-family="Helvetica,sans-Serif" font-size="10.00">+ StaticClass()</text>
</a>
</g>
</g>
<!-- Node2&#45;&gt;Node10 -->
<g id="edge19" class="edge">
<title>Node2&#45;&gt;Node10</title>
<path fill="none" stroke="#404040" d="M366.65,-598.31C390.99,-555.95 410.5,-506.56 410.5,-457 410.5,-457 410.5,-457 410.5,-156 410.5,-136.21 402.23,-117.17 391.34,-100.68"/>
<polygon fill="none" stroke="#404040" points="391.23,-100.53 384.49,-97.96 384.26,-90.75 391,-93.32 391.23,-100.53"/>
<text text-anchor="middle" x="458" y="-260.5" font-family="Helvetica,sans-Serif" font-size="10.00"> +ClassDefaultObject</text>
</g>
<!-- Node13 -->
<g id="node13" class="node">
<title>Node13</title>
<g id="a_node13"><a xlink:href="../../de/dd6/classSDK_1_1UField.html" target="_top" xlink:title=" ">
<polygon fill="white" stroke="black" points="179,-427.5 179,-484.5 262,-484.5 262,-427.5 179,-427.5"/>
<text text-anchor="middle" x="220.5" y="-472.5" font-family="Helvetica,sans-Serif" font-size="10.00">SDK::UField</text>
<polyline fill="none" stroke="black" points="179,-465.5 262,-465.5 "/>
<text text-anchor="middle" x="220.5" y="-453.5" font-family="Helvetica,sans-Serif" font-size="10.00"> </text>
<polyline fill="none" stroke="black" points="179,-446.5 262,-446.5 "/>
<text text-anchor="start" x="187" y="-434.5" font-family="Helvetica,sans-Serif" font-size="10.00">+ StaticClass()</text>
</a>
</g>
</g>
<!-- Node2&#45;&gt;Node13 -->
<g id="edge16" class="edge">
<title>Node2&#45;&gt;Node13</title>
<path fill="none" stroke="midnightblue" d="M260.15,-588.15C259.03,-581.65 257.82,-575.24 256.5,-569 250.29,-539.63 239.34,-507.06 231.14,-484.65"/>
<polygon fill="none" stroke="midnightblue" points="256.76,-589.1 261.82,-598.41 263.67,-587.97 256.76,-589.1"/>
</g>
<!-- Node3 -->
<g id="node3" class="node">
<title>Node3</title>
<g id="a_node3"><a xlink:href="../../d0/d22/structSDK_1_1FQWord.html" target="_top" xlink:title=" ">
<polygon fill="white" stroke="black" points="308.5,-940 308.5,-1008 388.5,-1008 388.5,-940 308.5,-940"/>
<text text-anchor="middle" x="348.5" y="-996" font-family="Helvetica,sans-Serif" font-size="10.00">SDK::FQWord</text>
<polyline fill="none" stroke="black" points="308.5,-989 388.5,-989 "/>
<text text-anchor="start" x="316.5" y="-977" font-family="Helvetica,sans-Serif" font-size="10.00">+ A</text>
<text text-anchor="start" x="316.5" y="-966" font-family="Helvetica,sans-Serif" font-size="10.00">+ B</text>
<polyline fill="none" stroke="black" points="308.5,-959 388.5,-959 "/>
<text text-anchor="middle" x="348.5" y="-947" font-family="Helvetica,sans-Serif" font-size="10.00"> </text>
</a>
</g>
</g>
<!-- Node3&#45;&gt;Node2 -->
<g id="edge2" class="edge">
<title>Node3&#45;&gt;Node2</title>
<path fill="none" stroke="#404040" d="M338.49,-939.86C331.72,-917.47 322.3,-886.28 312.68,-854.48"/>
<polygon fill="none" stroke="#404040" points="312.61,-854.24 307.05,-849.65 309.14,-842.75 314.7,-847.34 312.61,-854.24"/>
<text text-anchor="middle" x="355.5" y="-875" font-family="Helvetica,sans-Serif" font-size="10.00"> +ObjectFlags</text>
</g>
<!-- Node4 -->
<g id="node4" class="node">
<title>Node4</title>
<g id="a_node4"><a xlink:href="../../d0/db6/structSDK_1_1FName.html" target="_top" xlink:title=" ">
<polygon fill="white" stroke="black" points="183,-912.5 183,-1035.5 290,-1035.5 290,-912.5 183,-912.5"/>
<text text-anchor="middle" x="236.5" y="-1023.5" font-family="Helvetica,sans-Serif" font-size="10.00">SDK::FName</text>
<polyline fill="none" stroke="black" points="183,-1016.5 290,-1016.5 "/>
<text text-anchor="start" x="191" y="-1004.5" font-family="Helvetica,sans-Serif" font-size="10.00">+ Index</text>
<text text-anchor="start" x="191" y="-993.5" font-family="Helvetica,sans-Serif" font-size="10.00">+ Number</text>
<polyline fill="none" stroke="black" points="183,-986.5 290,-986.5 "/>
<text text-anchor="start" x="191" y="-974.5" font-family="Helvetica,sans-Serif" font-size="10.00">+ FName()</text>
<text text-anchor="start" x="191" y="-963.5" font-family="Helvetica,sans-Serif" font-size="10.00">+ FName()</text>
<text text-anchor="start" x="191" y="-952.5" font-family="Helvetica,sans-Serif" font-size="10.00">+ FName()</text>
<text text-anchor="start" x="191" y="-941.5" font-family="Helvetica,sans-Serif" font-size="10.00">+ GetName()</text>
<text text-anchor="start" x="191" y="-930.5" font-family="Helvetica,sans-Serif" font-size="10.00">+ operator==()</text>
<text text-anchor="start" x="191" y="-919.5" font-family="Helvetica,sans-Serif" font-size="10.00">+ GetGlobalNames()</text>
</a>
</g>
</g>
<!-- Node4&#45;&gt;Node2 -->
<g id="edge3" class="edge">
<title>Node4&#45;&gt;Node2</title>
<path fill="none" stroke="#404040" d="M245.17,-912.44C247.69,-894.82 250.55,-874.84 253.45,-854.61"/>
<polygon fill="none" stroke="#404040" points="253.45,-854.56 250.34,-848.06 255.15,-842.69 258.26,-849.19 253.45,-854.56"/>
<text text-anchor="middle" x="270.5" y="-875" font-family="Helvetica,sans-Serif" font-size="10.00"> +Name</text>
</g>
<!-- Node5 -->
<g id="node5" class="node">
<title>Node5</title>
<g id="a_node5"><a xlink:href="../../d3/d79/classSDK_1_1TArray.html" target="_top" xlink:title=" ">
<polygon fill="white" stroke="black" points="146.5,-1083.5 146.5,-1217.5 326.5,-1217.5 326.5,-1083.5 146.5,-1083.5"/>
<text text-anchor="middle" x="236.5" y="-1205.5" font-family="Helvetica,sans-Serif" font-size="10.00">SDK::TArray&lt; SDK::FNameEntry * &gt;</text>
<polyline fill="none" stroke="black" points="146.5,-1198.5 326.5,-1198.5 "/>
<text text-anchor="start" x="154.5" y="-1186.5" font-family="Helvetica,sans-Serif" font-size="10.00">&#45; Count</text>
<text text-anchor="start" x="154.5" y="-1175.5" font-family="Helvetica,sans-Serif" font-size="10.00">&#45; Max</text>
<polyline fill="none" stroke="black" points="146.5,-1168.5 326.5,-1168.5 "/>
<text text-anchor="start" x="154.5" y="-1156.5" font-family="Helvetica,sans-Serif" font-size="10.00">+ TArray()</text>
<text text-anchor="start" x="154.5" y="-1145.5" font-family="Helvetica,sans-Serif" font-size="10.00">+ Num()</text>
<text text-anchor="start" x="154.5" y="-1134.5" font-family="Helvetica,sans-Serif" font-size="10.00">+ operator[]()</text>
<text text-anchor="start" x="154.5" y="-1123.5" font-family="Helvetica,sans-Serif" font-size="10.00">+ operator[]()</text>
<text text-anchor="start" x="154.5" y="-1112.5" font-family="Helvetica,sans-Serif" font-size="10.00">+ IsValidIndex()</text>
<text text-anchor="start" x="154.5" y="-1101.5" font-family="Helvetica,sans-Serif" font-size="10.00">+ GetByIndex()</text>
<text text-anchor="start" x="154.5" y="-1090.5" font-family="Helvetica,sans-Serif" font-size="10.00">+ GetByIndex()</text>
</a>
</g>
</g>
<!-- Node5&#45;&gt;Node4 -->
<g id="edge4" class="edge">
<title>Node5&#45;&gt;Node4</title>
<path fill="none" stroke="#404040" d="M236.5,-1083.03C236.5,-1071.45 236.5,-1059.35 236.5,-1047.62"/>
<polygon fill="none" stroke="#404040" points="236.5,-1047.56 232.5,-1041.56 236.5,-1035.56 240.5,-1041.56 236.5,-1047.56"/>
<text text-anchor="middle" x="261" y="-1057" font-family="Helvetica,sans-Serif" font-size="10.00"> +GNames</text>
</g>
<!-- Node6 -->
<g id="node6" class="node">
<title>Node6</title>
<g id="a_node6"><a xlink:href="../../d7/ddf/classSDK_1_1FNameEntry.html" target="_top" xlink:title=" ">
<polygon fill="white" stroke="black" points="191,-1304 191,-1372 290,-1372 290,-1304 191,-1304"/>
<text text-anchor="middle" x="240.5" y="-1360" font-family="Helvetica,sans-Serif" font-size="10.00">SDK::FNameEntry</text>
<polyline fill="none" stroke="black" points="191,-1353 290,-1353 "/>
<text text-anchor="start" x="199" y="-1341" font-family="Helvetica,sans-Serif" font-size="10.00">+ UnknownData00</text>
<text text-anchor="start" x="199" y="-1330" font-family="Helvetica,sans-Serif" font-size="10.00">+ name</text>
<polyline fill="none" stroke="black" points="191,-1323 290,-1323 "/>
<text text-anchor="start" x="199" y="-1311" font-family="Helvetica,sans-Serif" font-size="10.00">+ GetName()</text>
</a>
</g>
</g>
<!-- Node6&#45;&gt;Node5 -->
<g id="edge5" class="edge">
<title>Node6&#45;&gt;Node5</title>
<path fill="none" stroke="#404040" d="M239.78,-1303.84C239.34,-1283.23 238.75,-1255.83 238.19,-1229.95"/>
<polygon fill="none" stroke="#404040" points="238.19,-1229.8 234.06,-1223.89 237.93,-1217.8 242.06,-1223.71 238.19,-1229.8"/>
<text text-anchor="middle" x="252.5" y="-1239" font-family="Helvetica,sans-Serif" font-size="10.00"> &#45;Data</text>
</g>
<!-- Node7 -->
<g id="node7" class="node">
<title>Node7</title>
<g id="a_node7"><a xlink:href="../../d3/d79/classSDK_1_1TArray.html" target="_top" xlink:title=" ">
<polygon fill="white" stroke="black" points="42,-1265.5 42,-1410.5 139,-1410.5 139,-1265.5 42,-1265.5"/>
<text text-anchor="middle" x="90.5" y="-1398.5" font-family="Helvetica,sans-Serif" font-size="10.00">SDK::TArray&lt; T &gt;</text>
<polyline fill="none" stroke="black" points="42,-1391.5 139,-1391.5 "/>
<text text-anchor="start" x="50" y="-1379.5" font-family="Helvetica,sans-Serif" font-size="10.00">&#45; Data</text>
<text text-anchor="start" x="50" y="-1368.5" font-family="Helvetica,sans-Serif" font-size="10.00">&#45; Count</text>
<text text-anchor="start" x="50" y="-1357.5" font-family="Helvetica,sans-Serif" font-size="10.00">&#45; Max</text>
<polyline fill="none" stroke="black" points="42,-1350.5 139,-1350.5 "/>
<text text-anchor="start" x="50" y="-1338.5" font-family="Helvetica,sans-Serif" font-size="10.00">+ TArray()</text>
<text text-anchor="start" x="50" y="-1327.5" font-family="Helvetica,sans-Serif" font-size="10.00">+ Num()</text>
<text text-anchor="start" x="50" y="-1316.5" font-family="Helvetica,sans-Serif" font-size="10.00">+ operator[]()</text>
<text text-anchor="start" x="50" y="-1305.5" font-family="Helvetica,sans-Serif" font-size="10.00">+ operator[]()</text>
<text text-anchor="start" x="50" y="-1294.5" font-family="Helvetica,sans-Serif" font-size="10.00">+ IsValidIndex()</text>
<text text-anchor="start" x="50" y="-1283.5" font-family="Helvetica,sans-Serif" font-size="10.00">+ GetByIndex()</text>
<text text-anchor="start" x="50" y="-1272.5" font-family="Helvetica,sans-Serif" font-size="10.00">+ GetByIndex()</text>
</a>
</g>
</g>
<!-- Node7&#45;&gt;Node5 -->
<g id="edge6" class="edge">
<title>Node7&#45;&gt;Node5</title>
<path fill="none" stroke="orange" d="M112.01,-1255.72C115.33,-1248.77 119.14,-1242.08 123.5,-1236 130.07,-1226.84 137.92,-1218.25 146.39,-1210.31"/>
<polygon fill="orange" stroke="orange" points="108.61,-1254.77 107.78,-1265.33 115.01,-1257.59 108.61,-1254.77"/>
<text text-anchor="middle" x="179" y="-1239" font-family="Helvetica,sans-Serif" font-size="10.00"> &lt; SDK::FNameEntry * &gt;</text>
</g>
<!-- Node7&#45;&gt;Node8 -->
<g id="edge10" class="edge">
<title>Node7&#45;&gt;Node8</title>
<path fill="none" stroke="orange" d="M79.75,-1255.08C76.37,-1222.85 73.5,-1185.5 73.5,-1151.5 73.5,-1151.5 73.5,-1151.5 73.5,-719.5 73.5,-652.6 75.8,-576.14 77.76,-523.06"/>
<polygon fill="orange" stroke="orange" points="76.3,-1255.78 80.86,-1265.35 83.26,-1255.03 76.3,-1255.78"/>
<text text-anchor="middle" x="119" y="-971.5" font-family="Helvetica,sans-Serif" font-size="10.00"> &lt; SDK::UObject * &gt;</text>
</g>
<!-- Node8&#45;&gt;Node2 -->
<g id="edge8" class="edge">
<title>Node8&#45;&gt;Node2</title>
<path fill="none" stroke="#404040" d="M139.95,-523.26C152.42,-538 165.21,-553.78 176.5,-569 181.04,-575.13 185.6,-581.46 190.13,-587.92"/>
<polygon fill="none" stroke="#404040" points="190.38,-588.28 197.08,-590.93 197.21,-598.14 190.5,-595.49 190.38,-588.28"/>
<text text-anchor="middle" x="208" y="-572" font-family="Helvetica,sans-Serif" font-size="10.00"> +GObjects</text>
</g>
<!-- Node9 -->
<g id="node9" class="node">
<title>Node9</title>
<g id="a_node9"><a xlink:href="../../d9/dfa/structSDK_1_1FPointer.html" target="_top" xlink:title=" ">
<polygon fill="white" stroke="black" points="431.5,-940 431.5,-1008 529.5,-1008 529.5,-940 431.5,-940"/>
<text text-anchor="middle" x="480.5" y="-996" font-family="Helvetica,sans-Serif" font-size="10.00">SDK::FPointer</text>
<polyline fill="none" stroke="black" points="431.5,-989 529.5,-989 "/>
<text text-anchor="start" x="439.5" y="-977" font-family="Helvetica,sans-Serif" font-size="10.00">+ Dummy</text>
<text text-anchor="start" x="439.5" y="-966" font-family="Helvetica,sans-Serif" font-size="10.00">+ UnknownData00</text>
<polyline fill="none" stroke="black" points="431.5,-959 529.5,-959 "/>
<text text-anchor="middle" x="480.5" y="-947" font-family="Helvetica,sans-Serif" font-size="10.00"> </text>
</a>
</g>
</g>
<!-- Node9&#45;&gt;Node1 -->
<g id="edge20" class="edge">
<title>Node9&#45;&gt;Node1</title>
<path fill="none" stroke="#404040" d="M483.97,-939.96C485.42,-925.81 487.1,-909.1 488.5,-894 500.71,-762.54 442.46,-709.28 513.5,-598 548.35,-543.41 612.33,-507.74 666.45,-485.94"/>
<polygon fill="none" stroke="#404040" points="666.65,-485.86 670.79,-479.95 677.83,-481.5 673.69,-487.4 666.65,-485.86"/>
<text text-anchor="middle" x="550" y="-723.5" font-family="Helvetica,sans-Serif" font-size="10.00"> +PSys</text>
<text text-anchor="middle" x="550" y="-712.5" font-family="Helvetica,sans-Serif" font-size="10.00">+CascadeScene</text>
</g>
<!-- Node9&#45;&gt;Node2 -->
<g id="edge11" class="edge">
<title>Node9&#45;&gt;Node2</title>
<path fill="none" stroke="#404040" d="M454.33,-939.99C436.49,-917.59 412.24,-887.37 390.5,-861 386.85,-856.57 383.12,-852.06 379.35,-847.52"/>
<polygon fill="none" stroke="#404040" points="379.22,-847.38 372.31,-845.33 371.55,-838.16 378.46,-840.21 379.22,-847.38"/>
<text text-anchor="middle" x="450" y="-886" font-family="Helvetica,sans-Serif" font-size="10.00"> +StateFrame</text>
<text text-anchor="middle" x="450" y="-875" font-family="Helvetica,sans-Serif" font-size="10.00">+VfTableObject</text>
<text text-anchor="middle" x="450" y="-864" font-family="Helvetica,sans-Serif" font-size="10.00">+LinkerIndex</text>
</g>
<!-- Node10&#45;&gt;Node2 -->
<g id="edge12" class="edge">
<title>Node10&#45;&gt;Node2</title>
<path fill="none" stroke="#404040" d="M339.5,-90.72C339.5,-110.67 339.5,-134.52 339.5,-156 339.5,-457 339.5,-457 339.5,-457 339.5,-499.9 330.99,-545.55 320.04,-586.55"/>
<polygon fill="none" stroke="#404040" points="320,-586.7 322.27,-593.55 316.82,-598.27 314.55,-591.42 320,-586.7"/>
<text text-anchor="middle" x="357" y="-260.5" font-family="Helvetica,sans-Serif" font-size="10.00"> +Class</text>
</g>
<!-- Node11 -->
<g id="node11" class="node">
<title>Node11</title>
<g id="a_node11"><a xlink:href="../../df/d72/classSDK_1_1UState.html" target="_top" xlink:title=" ">
<polygon fill="white" stroke="black" points="211.5,-128.5 211.5,-185.5 309.5,-185.5 309.5,-128.5 211.5,-128.5"/>
<text text-anchor="middle" x="260.5" y="-173.5" font-family="Helvetica,sans-Serif" font-size="10.00">SDK::UState</text>
<polyline fill="none" stroke="black" points="211.5,-166.5 309.5,-166.5 "/>
<text text-anchor="start" x="219.5" y="-154.5" font-family="Helvetica,sans-Serif" font-size="10.00">+ UnknownData00</text>
<polyline fill="none" stroke="black" points="211.5,-147.5 309.5,-147.5 "/>
<text text-anchor="start" x="219.5" y="-135.5" font-family="Helvetica,sans-Serif" font-size="10.00">+ StaticClass()</text>
</a>
</g>
</g>
<!-- Node11&#45;&gt;Node10 -->
<g id="edge13" class="edge">
<title>Node11&#45;&gt;Node10</title>
<path fill="none" stroke="midnightblue" d="M286.44,-120.04C293.2,-110.68 300.56,-100.48 307.58,-90.74"/>
<polygon fill="none" stroke="midnightblue" points="283.45,-118.21 280.44,-128.37 289.12,-122.31 283.45,-118.21"/>
</g>
<!-- Node12 -->
<g id="node12" class="node">
<title>Node12</title>
<g id="a_node12"><a xlink:href="../../d8/de9/classSDK_1_1UStruct.html" target="_top" xlink:title=" ">
<polygon fill="white" stroke="black" points="205.5,-223.5 205.5,-302.5 303.5,-302.5 303.5,-223.5 205.5,-223.5"/>
<text text-anchor="middle" x="254.5" y="-290.5" font-family="Helvetica,sans-Serif" font-size="10.00">SDK::UStruct</text>
<polyline fill="none" stroke="black" points="205.5,-283.5 303.5,-283.5 "/>
<text text-anchor="start" x="213.5" y="-271.5" font-family="Helvetica,sans-Serif" font-size="10.00">+ UnknownData00</text>
<text text-anchor="start" x="213.5" y="-260.5" font-family="Helvetica,sans-Serif" font-size="10.00">+ PropertySize</text>
<text text-anchor="start" x="213.5" y="-249.5" font-family="Helvetica,sans-Serif" font-size="10.00">+ UnknownData01</text>
<polyline fill="none" stroke="black" points="205.5,-242.5 303.5,-242.5 "/>
<text text-anchor="start" x="213.5" y="-230.5" font-family="Helvetica,sans-Serif" font-size="10.00">+ StaticClass()</text>
</a>
</g>
</g>
<!-- Node12&#45;&gt;Node11 -->
<g id="edge14" class="edge">
<title>Node12&#45;&gt;Node11</title>
<path fill="none" stroke="midnightblue" d="M257.32,-213.16C257.86,-203.74 258.41,-194.17 258.9,-185.72"/>
<polygon fill="none" stroke="midnightblue" points="253.82,-213.09 256.73,-223.27 260.8,-213.49 253.82,-213.09"/>
</g>
<!-- Node13&#45;&gt;Node12 -->
<g id="edge15" class="edge">
<title>Node13&#45;&gt;Node12</title>
<path fill="none" stroke="midnightblue" d="M236.99,-417.79C245.57,-396.38 255.15,-368.7 259.5,-343 261.13,-333.36 259.93,-330.77 259.5,-321 259.24,-315.05 258.83,-308.75 258.35,-302.6"/>
<polygon fill="none" stroke="midnightblue" points="233.7,-416.57 233.14,-427.15 240.18,-419.23 233.7,-416.57"/>
</g>
<!-- Node13&#45;&gt;Node12 -->
<g id="edge18" class="edge">
<title>Node13&#45;&gt;Node12</title>
<path fill="none" stroke="#404040" d="M207.9,-427.34C197.12,-399.55 185.39,-355.94 199.5,-321 200.65,-318.15 202.02,-315.37 203.55,-312.66"/>
<polygon fill="none" stroke="#404040" points="203.59,-312.6 203.58,-305.39 210.23,-302.6 210.24,-309.82 203.59,-312.6"/>
<text text-anchor="middle" x="227.5" y="-335" font-family="Helvetica,sans-Serif" font-size="10.00"> +SuperField</text>
<text text-anchor="middle" x="227.5" y="-324" font-family="Helvetica,sans-Serif" font-size="10.00">+Children</text>
</g>
<!-- Node13&#45;&gt;Node13 -->
<g id="edge17" class="edge">
<title>Node13&#45;&gt;Node13</title>
<path fill="none" stroke="#404040" d="M262.21,-477.78C272.41,-476.17 280,-468.91 280,-456 280,-448.54 277.46,-442.96 273.35,-439.28"/>
<polygon fill="none" stroke="#404040" points="273.13,-439.18 266.02,-440.34 262.21,-434.22 269.32,-433.06 273.13,-439.18"/>
<text text-anchor="middle" x="295.5" y="-453.5" font-family="Helvetica,sans-Serif" font-size="10.00"> +Next</text>
</g>
<!-- Node14 -->
<g id="node14" class="node">
<title>Node14</title>
<g id="a_node14"><a xlink:href="../../dd/d43/structSDK_1_1FVector.html" target="_top" xlink:title=" ">
<polygon fill="white" stroke="black" points="595.5,-681 595.5,-760 673.5,-760 673.5,-681 595.5,-681"/>
<text text-anchor="middle" x="634.5" y="-748" font-family="Helvetica,sans-Serif" font-size="10.00">SDK::FVector</text>
<polyline fill="none" stroke="black" points="595.5,-741 673.5,-741 "/>
<text text-anchor="start" x="603.5" y="-729" font-family="Helvetica,sans-Serif" font-size="10.00">+ X</text>
<text text-anchor="start" x="603.5" y="-718" font-family="Helvetica,sans-Serif" font-size="10.00">+ Y</text>
<text text-anchor="start" x="603.5" y="-707" font-family="Helvetica,sans-Serif" font-size="10.00">+ Z</text>
<polyline fill="none" stroke="black" points="595.5,-700 673.5,-700 "/>
<text text-anchor="middle" x="634.5" y="-688" font-family="Helvetica,sans-Serif" font-size="10.00"> </text>
</a>
</g>
</g>
<!-- Node14&#45;&gt;Node1 -->
<g id="edge21" class="edge">
<title>Node14&#45;&gt;Node1</title>
<path fill="none" stroke="#404040" d="M633.92,-680.88C634.87,-649.34 639.56,-604.36 656.5,-569 660.53,-560.59 665.42,-552.37 670.84,-544.46"/>
<polygon fill="none" stroke="#404040" points="670.94,-544.32 671.23,-537.12 677.99,-534.61 677.7,-541.81 670.94,-544.32"/>
<text text-anchor="middle" x="706.5" y="-572" font-family="Helvetica,sans-Serif" font-size="10.00"> +ExternalAcceleration</text>
</g>
<!-- Node15 -->
<g id="node15" class="node">
<title>Node15</title>
<g id="a_node15"><a xlink:href="../../d5/d03/structSDK_1_1FRBCollisionChannelContainer.html" target="_top" xlink:title=" ">
<polygon fill="white" stroke="black" points="692,-631.5 692,-809.5 829,-809.5 829,-631.5 692,-631.5"/>
<text text-anchor="start" x="700" y="-797.5" font-family="Helvetica,sans-Serif" font-size="10.00">SDK::FRBCollisionChannel</text>
<text text-anchor="middle" x="760.5" y="-786.5" font-family="Helvetica,sans-Serif" font-size="10.00">Container</text>
<polyline fill="none" stroke="black" points="692,-779.5 829,-779.5 "/>
<text text-anchor="start" x="700" y="-767.5" font-family="Helvetica,sans-Serif" font-size="10.00">+ Default</text>
<text text-anchor="start" x="700" y="-756.5" font-family="Helvetica,sans-Serif" font-size="10.00">+ Nothing</text>
<text text-anchor="start" x="700" y="-745.5" font-family="Helvetica,sans-Serif" font-size="10.00">+ Pawn</text>
<text text-anchor="start" x="700" y="-734.5" font-family="Helvetica,sans-Serif" font-size="10.00">+ Vehicle</text>
<text text-anchor="start" x="700" y="-723.5" font-family="Helvetica,sans-Serif" font-size="10.00">+ Water</text>
<text text-anchor="start" x="700" y="-712.5" font-family="Helvetica,sans-Serif" font-size="10.00">+ GameplayPhysics</text>
<text text-anchor="start" x="700" y="-701.5" font-family="Helvetica,sans-Serif" font-size="10.00">+ EffectPhysics</text>
<text text-anchor="start" x="700" y="-690.5" font-family="Helvetica,sans-Serif" font-size="10.00">+ Untitled1</text>
<text text-anchor="start" x="700" y="-679.5" font-family="Helvetica,sans-Serif" font-size="10.00">+ Untitled2</text>
<text text-anchor="start" x="700" y="-668.5" font-family="Helvetica,sans-Serif" font-size="10.00">+ Untitled3</text>
<text text-anchor="start" x="700" y="-657.5" font-family="Helvetica,sans-Serif" font-size="10.00">and 9 more...</text>
<polyline fill="none" stroke="black" points="692,-650.5 829,-650.5 "/>
<text text-anchor="middle" x="760.5" y="-638.5" font-family="Helvetica,sans-Serif" font-size="10.00"> </text>
</a>
</g>
</g>
<!-- Node15&#45;&gt;Node1 -->
<g id="edge22" class="edge">
<title>Node15&#45;&gt;Node1</title>
<path fill="none" stroke="#404040" d="M760.5,-631.36C760.5,-609.39 760.5,-585.61 760.5,-562.89"/>
<polygon fill="none" stroke="#404040" points="760.5,-562.75 756.5,-556.75 760.5,-550.75 764.5,-556.75 760.5,-562.75"/>
<text text-anchor="middle" x="818" y="-572" font-family="Helvetica,sans-Serif" font-size="10.00"> +RBCollideWithChannels</text>
</g>
<!-- Node16 -->
<g id="node16" class="node">
<title>Node16</title>
<g id="a_node16"><a xlink:href="../../df/d1c/classSDK_1_1TEnumAsByte.html" target="_top" xlink:title=" ">
<polygon fill="white" stroke="black" points="1040,-659 1040,-782 1209,-782 1209,-659 1040,-659"/>
<text text-anchor="start" x="1048" y="-770" font-family="Helvetica,sans-Serif" font-size="10.00">SDK::TEnumAsByte&lt; ESimulation</text>
<text text-anchor="middle" x="1124.5" y="-759" font-family="Helvetica,sans-Serif" font-size="10.00">Method &gt;</text>
<polyline fill="none" stroke="black" points="1040,-752 1209,-752 "/>
<text text-anchor="start" x="1048" y="-740" font-family="Helvetica,sans-Serif" font-size="10.00">&#45; value</text>
<polyline fill="none" stroke="black" points="1040,-733 1209,-733 "/>
<text text-anchor="start" x="1048" y="-721" font-family="Helvetica,sans-Serif" font-size="10.00">+ TEnumAsByte()</text>
<text text-anchor="start" x="1048" y="-710" font-family="Helvetica,sans-Serif" font-size="10.00">+ TEnumAsByte()</text>
<text text-anchor="start" x="1048" y="-699" font-family="Helvetica,sans-Serif" font-size="10.00">+ TEnumAsByte()</text>
<text text-anchor="start" x="1048" y="-688" font-family="Helvetica,sans-Serif" font-size="10.00">+ TEnumAsByte()</text>
<text text-anchor="start" x="1048" y="-677" font-family="Helvetica,sans-Serif" font-size="10.00">+ operator ESimulationMethod()</text>
<text text-anchor="start" x="1048" y="-666" font-family="Helvetica,sans-Serif" font-size="10.00">+ GetValue()</text>
</a>
</g>
</g>
<!-- Node16&#45;&gt;Node1 -->
<g id="edge23" class="edge">
<title>Node16&#45;&gt;Node1</title>
<path fill="none" stroke="#404040" d="M1086.1,-658.79C1070.85,-637.81 1052.04,-615.26 1031.5,-598 978.69,-553.64 909.6,-517.97 854.4,-493.6"/>
<polygon fill="none" stroke="#404040" points="854.21,-493.51 847.11,-494.79 843.2,-488.72 850.3,-487.45 854.21,-493.51"/>
<text text-anchor="middle" x="1048.5" y="-572" font-family="Helvetica,sans-Serif" font-size="10.00"> +SimulationMethod</text>
</g>
<!-- Node17 -->
<g id="node17" class="node">
<title>Node17</title>
<g id="a_node17"><a xlink:href="../../df/d1c/classSDK_1_1TEnumAsByte.html" target="_top" xlink:title=" ">
<polygon fill="white" stroke="black" points="1046,-918 1046,-1030 1203,-1030 1203,-918 1046,-918"/>
<text text-anchor="middle" x="1124.5" y="-1018" font-family="Helvetica,sans-Serif" font-size="10.00">SDK::TEnumAsByte&lt; TEnum &gt;</text>
<polyline fill="none" stroke="black" points="1046,-1011 1203,-1011 "/>
<text text-anchor="start" x="1054" y="-999" font-family="Helvetica,sans-Serif" font-size="10.00">&#45; value</text>
<polyline fill="none" stroke="black" points="1046,-992 1203,-992 "/>
<text text-anchor="start" x="1054" y="-980" font-family="Helvetica,sans-Serif" font-size="10.00">+ TEnumAsByte()</text>
<text text-anchor="start" x="1054" y="-969" font-family="Helvetica,sans-Serif" font-size="10.00">+ TEnumAsByte()</text>
<text text-anchor="start" x="1054" y="-958" font-family="Helvetica,sans-Serif" font-size="10.00">+ TEnumAsByte()</text>
<text text-anchor="start" x="1054" y="-947" font-family="Helvetica,sans-Serif" font-size="10.00">+ TEnumAsByte()</text>
<text text-anchor="start" x="1054" y="-936" font-family="Helvetica,sans-Serif" font-size="10.00">+ operator TEnum()</text>
<text text-anchor="start" x="1054" y="-925" font-family="Helvetica,sans-Serif" font-size="10.00">+ GetValue()</text>
</a>
</g>
</g>
<!-- Node17&#45;&gt;Node16 -->
<g id="edge24" class="edge">
<title>Node17&#45;&gt;Node16</title>
<path fill="none" stroke="orange" d="M1124.5,-907.68C1124.5,-868.95 1124.5,-820.19 1124.5,-782.29"/>
<polygon fill="orange" stroke="orange" points="1121,-907.81 1124.5,-917.81 1128,-907.81 1121,-907.81"/>
<text text-anchor="middle" x="1177.5" y="-875" font-family="Helvetica,sans-Serif" font-size="10.00"> &lt; ESimulationMethod &gt;</text>
</g>
<!-- Node18 -->
<g id="node18" class="node">
<title>Node18</title>
<g id="a_node18"><a xlink:href="../../df/d1c/classSDK_1_1TEnumAsByte.html" target="_top" xlink:title=" ">
<polygon fill="white" stroke="black" points="1227.5,-659 1227.5,-782 1393.5,-782 1393.5,-659 1227.5,-659"/>
<text text-anchor="start" x="1235.5" y="-770" font-family="Helvetica,sans-Serif" font-size="10.00">SDK::TEnumAsByte&lt; EPacket</text>
<text text-anchor="middle" x="1310.5" y="-759" font-family="Helvetica,sans-Serif" font-size="10.00">SizeMultiplier &gt;</text>
<polyline fill="none" stroke="black" points="1227.5,-752 1393.5,-752 "/>
<text text-anchor="start" x="1235.5" y="-740" font-family="Helvetica,sans-Serif" font-size="10.00">&#45; value</text>
<polyline fill="none" stroke="black" points="1227.5,-733 1393.5,-733 "/>
<text text-anchor="start" x="1235.5" y="-721" font-family="Helvetica,sans-Serif" font-size="10.00">+ TEnumAsByte()</text>
<text text-anchor="start" x="1235.5" y="-710" font-family="Helvetica,sans-Serif" font-size="10.00">+ TEnumAsByte()</text>
<text text-anchor="start" x="1235.5" y="-699" font-family="Helvetica,sans-Serif" font-size="10.00">+ TEnumAsByte()</text>
<text text-anchor="start" x="1235.5" y="-688" font-family="Helvetica,sans-Serif" font-size="10.00">+ TEnumAsByte()</text>
<text text-anchor="start" x="1235.5" y="-677" font-family="Helvetica,sans-Serif" font-size="10.00">+ operator EPacketSizeMultiplier()</text>
<text text-anchor="start" x="1235.5" y="-666" font-family="Helvetica,sans-Serif" font-size="10.00">+ GetValue()</text>
</a>
</g>
</g>
<!-- Node17&#45;&gt;Node18 -->
<g id="edge26" class="edge">
<title>Node17&#45;&gt;Node18</title>
<path fill="none" stroke="orange" d="M1210.72,-918.26C1219.36,-910.74 1227.51,-902.62 1234.5,-894 1261.2,-861.09 1280.33,-817.33 1292.72,-782.12"/>
<polygon fill="orange" stroke="orange" points="1208.44,-915.61 1203.01,-924.71 1212.93,-920.97 1208.44,-915.61"/>
<text text-anchor="middle" x="1313.5" y="-875" font-family="Helvetica,sans-Serif" font-size="10.00"> &lt; EPacketSizeMultiplier &gt;</text>
</g>
<!-- Node19 -->
<g id="node19" class="node">
<title>Node19</title>
<g id="a_node19"><a xlink:href="../../df/d1c/classSDK_1_1TEnumAsByte.html" target="_top" xlink:title=" ">
<polygon fill="white" stroke="black" points="847,-659 847,-782 1022,-782 1022,-659 847,-659"/>
<text text-anchor="start" x="855" y="-770" font-family="Helvetica,sans-Serif" font-size="10.00">SDK::TEnumAsByte&lt; ERBCollision</text>
<text text-anchor="middle" x="934.5" y="-759" font-family="Helvetica,sans-Serif" font-size="10.00">Channel &gt;</text>
<polyline fill="none" stroke="black" points="847,-752 1022,-752 "/>
<text text-anchor="start" x="855" y="-740" font-family="Helvetica,sans-Serif" font-size="10.00">&#45; value</text>
<polyline fill="none" stroke="black" points="847,-733 1022,-733 "/>
<text text-anchor="start" x="855" y="-721" font-family="Helvetica,sans-Serif" font-size="10.00">+ TEnumAsByte()</text>
<text text-anchor="start" x="855" y="-710" font-family="Helvetica,sans-Serif" font-size="10.00">+ TEnumAsByte()</text>
<text text-anchor="start" x="855" y="-699" font-family="Helvetica,sans-Serif" font-size="10.00">+ TEnumAsByte()</text>
<text text-anchor="start" x="855" y="-688" font-family="Helvetica,sans-Serif" font-size="10.00">+ TEnumAsByte()</text>
<text text-anchor="start" x="855" y="-677" font-family="Helvetica,sans-Serif" font-size="10.00">+ operator ERBCollisionChannel()</text>
<text text-anchor="start" x="855" y="-666" font-family="Helvetica,sans-Serif" font-size="10.00">+ GetValue()</text>
</a>
</g>
</g>
<!-- Node17&#45;&gt;Node19 -->
<g id="edge28" class="edge">
<title>Node17&#45;&gt;Node19</title>
<path fill="none" stroke="orange" d="M1037.81,-925.28C1025.58,-916.02 1013.97,-905.55 1004.5,-894 977.85,-861.52 960.22,-817.54 949.31,-782.12"/>
<polygon fill="orange" stroke="orange" points="1035.77,-928.12 1045.91,-931.19 1039.89,-922.47 1035.77,-928.12"/>
<text text-anchor="middle" x="1062.5" y="-875" font-family="Helvetica,sans-Serif" font-size="10.00"> &lt; ERBCollisionChannel &gt;</text>
</g>
<!-- Node18&#45;&gt;Node1 -->
<g id="edge25" class="edge">
<title>Node18&#45;&gt;Node1</title>
<path fill="none" stroke="#404040" d="M1275.77,-658.87C1260.64,-637.01 1241.15,-613.85 1218.5,-598 1107.92,-520.6 953.56,-484.68 855.32,-468.74"/>
<polygon fill="none" stroke="#404040" points="855.18,-468.72 848.63,-471.74 843.32,-466.85 849.87,-463.83 855.18,-468.72"/>
<text text-anchor="middle" x="1235" y="-572" font-family="Helvetica,sans-Serif" font-size="10.00"> +PacketSizeMultiplier</text>
</g>
<!-- Node19&#45;&gt;Node1 -->
<g id="edge27" class="edge">
<title>Node19&#45;&gt;Node1</title>
<path fill="none" stroke="#404040" d="M919.43,-658.97C910.56,-630.23 897.5,-596.29 879.5,-569 871.43,-556.76 861.76,-544.9 851.48,-533.76"/>
<polygon fill="none" stroke="#404040" points="851.4,-533.67 844.36,-532.09 843.12,-524.99 850.15,-526.57 851.4,-533.67"/>
<text text-anchor="middle" x="914.5" y="-572" font-family="Helvetica,sans-Serif" font-size="10.00"> +RBChannel</text>
</g>
</g>
</svg>
        <g id="navigator" transform="translate(0 0)" fill="#404254">
                <rect fill="#f2f5e9" fill-opacity="0.5" stroke="#606060" stroke-width=".5" x="0" y="0" width="60" height="60"/>
                <use id="zoomplus" xlink:href="#zoomPlus" x="17" y="9" onmousedown="handleZoom(evt,'in')"/>
                <use id="zoomminus" xlink:href="#zoomMin" x="42" y="9" onmousedown="handleZoom(evt,'out')"/>
                <use id="reset" xlink:href="#resetDef" x="30" y="36" onmousedown="handleReset()"/>
                <g id="arrowUp" xlink:href="#dirArrow" transform="translate(30 24)" onmousedown="handlePan(0,-1)">
                  <use xlink:href="#rim" fill="#404040">
                        <set attributeName="fill" to="#808080" begin="arrowUp.mouseover" end="arrowUp.mouseout"/>
                  </use>
                  <path fill="none" stroke="white" stroke-width="1.5" d="M0,-3.0v7 M-2.5,-0.5L0,-3.0L2.5,-0.5"/>
                </g>
                <g id="arrowRight" xlink:href="#dirArrow" transform="rotate(90) translate(36 -43)" onmousedown="handlePan(1,0)">
                  <use xlink:href="#rim" fill="#404040">
                        <set attributeName="fill" to="#808080" begin="arrowRight.mouseover" end="arrowRight.mouseout"/>
                  </use>
                  <path fill="none" stroke="white" stroke-width="1.5" d="M0,-3.0v7 M-2.5,-0.5L0,-3.0L2.5,-0.5"/>
                </g>
                <g id="arrowDown" xlink:href="#dirArrow" transform="rotate(180) translate(-30 -48)" onmousedown="handlePan(0,1)">
                  <use xlink:href="#rim" fill="#404040">
                        <set attributeName="fill" to="#808080" begin="arrowDown.mouseover" end="arrowDown.mouseout"/>
                  </use>
                  <path fill="none" stroke="white" stroke-width="1.5" d="M0,-3.0v7 M-2.5,-0.5L0,-3.0L2.5,-0.5"/>
                </g>
                <g id="arrowLeft" xlink:href="#dirArrow" transform="rotate(270) translate(-36 17)" onmousedown="handlePan(-1,0)">
                  <use xlink:href="#rim" fill="#404040">
                        <set attributeName="fill" to="#808080" begin="arrowLeft.mouseover" end="arrowLeft.mouseout"/>
                  </use>
                  <path fill="none" stroke="white" stroke-width="1.5" d="M0,-3.0v7 M-2.5,-0.5L0,-3.0L2.5,-0.5"/>
                </g>
        </g>
        <svg viewBox="0 0 15 15" width="100%" height="30px" preserveAspectRatio="xMaxYMin meet">
         <g id="arrow_out" transform="scale(0.3 0.3)">
          <a xlink:href="classSDK_1_1UPhysXParticleSystem__coll__graph_org.svg" target="_base">
           <rect id="button" ry="5" rx="5" y="6" x="6" height="38" width="38"
                fill="#f2f5e9" fill-opacity="0.5" stroke="#606060" stroke-width="1.0"/>
           <path id="arrow"
             d="M 11.500037,31.436501 C 11.940474,20.09759 22.043105,11.32322 32.158766,21.979434 L 37.068811,17.246167 C 37.068811,17.246167 37.088388,32 37.088388,32 L 22.160133,31.978069 C 22.160133,31.978069 26.997745,27.140456 26.997745,27.140456 C 18.528582,18.264221 13.291696,25.230495 11.500037,31.436501 z"
             style="fill:#404040;"/>
          </a>
         </g>
        </svg>
</svg>
