<?xml version="1.0" encoding="UTF-8" standalone="no"?>
<!DOCTYPE svg PUBLIC "-//W3C//DTD SVG 1.1//EN"
 "http://www.w3.org/Graphics/SVG/1.1/DTD/svg11.dtd">
<!-- Generated by graphviz version 2.41.20171026.1811 (20171026.1811)
 -->
<!-- Title: SDK::FstMaterialExpressionVectorParameter Pages: 1 -->
<svg width="568pt" height="1001pt"
 viewBox="0.00 0.00 567.50 1001.00" xmlns="http://www.w3.org/2000/svg" xmlns:xlink="http://www.w3.org/1999/xlink">
<g id="graph0" class="graph" transform="scale(1 1) rotate(0) translate(4 997)">
<title>SDK::FstMaterialExpressionVectorParameter</title>
<polygon fill="white" stroke="transparent" points="-4,4 -4,-997 563.5,-997 563.5,4 -4,4"/>
<!-- Node1 -->
<g id="node1" class="node">
<title>Node1</title>
<g id="a_node1"><a xlink:title=" ">
<polygon fill="#bfbfbf" stroke="black" points="361.5,-0.5 361.5,-68.5 502.5,-68.5 502.5,-0.5 361.5,-0.5"/>
<text text-anchor="start" x="369.5" y="-56.5" font-family="Helvetica,sans-Serif" font-size="10.00">SDK::FstMaterialExpression</text>
<text text-anchor="middle" x="432" y="-45.5" font-family="Helvetica,sans-Serif" font-size="10.00">VectorParameter</text>
<polyline fill="none" stroke="black" points="361.5,-38.5 502.5,-38.5 "/>
<text text-anchor="start" x="369.5" y="-26.5" font-family="Helvetica,sans-Serif" font-size="10.00">+ bUseAlpha</text>
<polyline fill="none" stroke="black" points="361.5,-19.5 502.5,-19.5 "/>
<text text-anchor="middle" x="432" y="-7.5" font-family="Helvetica,sans-Serif" font-size="10.00"> </text>
</a>
</g>
</g>
<!-- Node2 -->
<g id="node2" class="node">
<title>Node2</title>
<g id="a_node2"><a xlink:href="../../dc/d85/structSDK_1_1FstMaterialExpressionParameter.html" target="_top" xlink:title=" ">
<polygon fill="white" stroke="black" points="200.5,-127.5 200.5,-195.5 341.5,-195.5 341.5,-127.5 200.5,-127.5"/>
<text text-anchor="start" x="208.5" y="-183.5" font-family="Helvetica,sans-Serif" font-size="10.00">SDK::FstMaterialExpression</text>
<text text-anchor="middle" x="271" y="-172.5" font-family="Helvetica,sans-Serif" font-size="10.00">Parameter</text>
<polyline fill="none" stroke="black" points="200.5,-165.5 341.5,-165.5 "/>
<text text-anchor="middle" x="271" y="-153.5" font-family="Helvetica,sans-Serif" font-size="10.00"> </text>
<polyline fill="none" stroke="black" points="200.5,-146.5 341.5,-146.5 "/>
<text text-anchor="middle" x="271" y="-134.5" font-family="Helvetica,sans-Serif" font-size="10.00"> </text>
</a>
</g>
</g>
<!-- Node2&#45;&gt;Node1 -->
<g id="edge1" class="edge">
<title>Node2&#45;&gt;Node1</title>
<path fill="none" stroke="midnightblue" d="M321.86,-121.01C343.58,-104.15 368.63,-84.7 389.36,-68.61"/>
<polygon fill="none" stroke="midnightblue" points="319.47,-118.43 313.72,-127.33 323.77,-123.96 319.47,-118.43"/>
</g>
<!-- Node3 -->
<g id="node3" class="node">
<title>Node3</title>
<g id="a_node3"><a xlink:href="../../d5/da8/structSDK_1_1FstGameMsgID.html" target="_top" xlink:title=" ">
<polygon fill="white" stroke="black" points="238.5,-265.5 238.5,-322.5 351.5,-322.5 351.5,-265.5 238.5,-265.5"/>
<text text-anchor="middle" x="295" y="-310.5" font-family="Helvetica,sans-Serif" font-size="10.00">SDK::FstGameMsgID</text>
<polyline fill="none" stroke="black" points="238.5,-303.5 351.5,-303.5 "/>
<text text-anchor="start" x="246.5" y="-291.5" font-family="Helvetica,sans-Serif" font-size="10.00">+ UnknownData00</text>
<polyline fill="none" stroke="black" points="238.5,-284.5 351.5,-284.5 "/>
<text text-anchor="middle" x="295" y="-272.5" font-family="Helvetica,sans-Serif" font-size="10.00"> </text>
</a>
</g>
</g>
<!-- Node3&#45;&gt;Node2 -->
<g id="edge2" class="edge">
<title>Node3&#45;&gt;Node2</title>
<path fill="none" stroke="#404040" d="M278.55,-265.06C275.86,-259.27 273.47,-253.07 272,-247 268.99,-234.6 267.92,-220.86 267.8,-208.14"/>
<polygon fill="none" stroke="#404040" points="267.81,-207.83 263.89,-201.78 267.97,-195.83 271.89,-201.89 267.81,-207.83"/>
<text text-anchor="start" x="272" y="-239" font-family="Helvetica,sans-Serif" font-size="10.00"> +MaterialExpressionParameter</text>
<text text-anchor="middle" x="341" y="-228" font-family="Helvetica,sans-Serif" font-size="10.00">MsgID</text>
</g>
<!-- Node4 -->
<g id="node4" class="node">
<title>Node4</title>
<g id="a_node4"><a xlink:href="../../df/d1c/classSDK_1_1TEnumAsByte.html" target="_top" xlink:title=" ">
<polygon fill="white" stroke="black" points="192.5,-483.5 192.5,-606.5 373.5,-606.5 373.5,-483.5 192.5,-483.5"/>
<text text-anchor="start" x="200.5" y="-594.5" font-family="Helvetica,sans-Serif" font-size="10.00">SDK::TEnumAsByte&lt; EFGAMEMSG</text>
<text text-anchor="middle" x="283" y="-583.5" font-family="Helvetica,sans-Serif" font-size="10.00">_TYPE &gt;</text>
<polyline fill="none" stroke="black" points="192.5,-576.5 373.5,-576.5 "/>
<text text-anchor="start" x="200.5" y="-564.5" font-family="Helvetica,sans-Serif" font-size="10.00">&#45; value</text>
<polyline fill="none" stroke="black" points="192.5,-557.5 373.5,-557.5 "/>
<text text-anchor="start" x="200.5" y="-545.5" font-family="Helvetica,sans-Serif" font-size="10.00">+ TEnumAsByte()</text>
<text text-anchor="start" x="200.5" y="-534.5" font-family="Helvetica,sans-Serif" font-size="10.00">+ TEnumAsByte()</text>
<text text-anchor="start" x="200.5" y="-523.5" font-family="Helvetica,sans-Serif" font-size="10.00">+ TEnumAsByte()</text>
<text text-anchor="start" x="200.5" y="-512.5" font-family="Helvetica,sans-Serif" font-size="10.00">+ TEnumAsByte()</text>
<text text-anchor="start" x="200.5" y="-501.5" font-family="Helvetica,sans-Serif" font-size="10.00">+ operator EFGAMEMSG_TYPE()</text>
<text text-anchor="start" x="200.5" y="-490.5" font-family="Helvetica,sans-Serif" font-size="10.00">+ GetValue()</text>
</a>
</g>
</g>
<!-- Node4&#45;&gt;Node3 -->
<g id="edge3" class="edge">
<title>Node4&#45;&gt;Node3</title>
<path fill="none" stroke="#404040" d="M282.49,-483.49C282.65,-443.07 283.79,-388.76 288,-341 288.18,-338.95 288.39,-336.86 288.63,-334.75"/>
<polygon fill="none" stroke="#404040" points="288.66,-334.56 285.47,-328.09 290.21,-322.66 293.4,-329.13 288.66,-334.56"/>
<text text-anchor="middle" x="315.5" y="-400.5" font-family="Helvetica,sans-Serif" font-size="10.00"> +eMsgType</text>
</g>
<!-- Node5 -->
<g id="node5" class="node">
<title>Node5</title>
<g id="a_node5"><a xlink:href="../../df/d1c/classSDK_1_1TEnumAsByte.html" target="_top" xlink:title=" ">
<polygon fill="white" stroke="black" points="198.5,-671 198.5,-783 355.5,-783 355.5,-671 198.5,-671"/>
<text text-anchor="middle" x="277" y="-771" font-family="Helvetica,sans-Serif" font-size="10.00">SDK::TEnumAsByte&lt; TEnum &gt;</text>
<polyline fill="none" stroke="black" points="198.5,-764 355.5,-764 "/>
<text text-anchor="start" x="206.5" y="-752" font-family="Helvetica,sans-Serif" font-size="10.00">&#45; value</text>
<polyline fill="none" stroke="black" points="198.5,-745 355.5,-745 "/>
<text text-anchor="start" x="206.5" y="-733" font-family="Helvetica,sans-Serif" font-size="10.00">+ TEnumAsByte()</text>
<text text-anchor="start" x="206.5" y="-722" font-family="Helvetica,sans-Serif" font-size="10.00">+ TEnumAsByte()</text>
<text text-anchor="start" x="206.5" y="-711" font-family="Helvetica,sans-Serif" font-size="10.00">+ TEnumAsByte()</text>
<text text-anchor="start" x="206.5" y="-700" font-family="Helvetica,sans-Serif" font-size="10.00">+ TEnumAsByte()</text>
<text text-anchor="start" x="206.5" y="-689" font-family="Helvetica,sans-Serif" font-size="10.00">+ operator TEnum()</text>
<text text-anchor="start" x="206.5" y="-678" font-family="Helvetica,sans-Serif" font-size="10.00">+ GetValue()</text>
</a>
</g>
</g>
<!-- Node5&#45;&gt;Node4 -->
<g id="edge4" class="edge">
<title>Node5&#45;&gt;Node4</title>
<path fill="none" stroke="orange" d="M279.19,-660.36C279.77,-642.8 280.4,-623.89 280.98,-606.61"/>
<polygon fill="orange" stroke="orange" points="275.68,-660.41 278.85,-670.53 282.68,-660.65 275.68,-660.41"/>
<text text-anchor="middle" x="340" y="-628" font-family="Helvetica,sans-Serif" font-size="10.00"> &lt; EFGAMEMSG_TYPE &gt;</text>
</g>
<!-- Node6 -->
<g id="node6" class="node">
<title>Node6</title>
<g id="a_node6"><a xlink:href="../../d3/d88/classSDK_1_1FString.html" target="_top" xlink:title=" ">
<polygon fill="white" stroke="black" points="394.5,-494.5 394.5,-595.5 469.5,-595.5 469.5,-494.5 394.5,-494.5"/>
<text text-anchor="middle" x="432" y="-583.5" font-family="Helvetica,sans-Serif" font-size="10.00">SDK::FString</text>
<polyline fill="none" stroke="black" points="394.5,-576.5 469.5,-576.5 "/>
<text text-anchor="middle" x="432" y="-564.5" font-family="Helvetica,sans-Serif" font-size="10.00"> </text>
<polyline fill="none" stroke="black" points="394.5,-557.5 469.5,-557.5 "/>
<text text-anchor="start" x="402.5" y="-545.5" font-family="Helvetica,sans-Serif" font-size="10.00">+ FString()</text>
<text text-anchor="start" x="402.5" y="-534.5" font-family="Helvetica,sans-Serif" font-size="10.00">+ FString()</text>
<text text-anchor="start" x="402.5" y="-523.5" font-family="Helvetica,sans-Serif" font-size="10.00">+ IsValid()</text>
<text text-anchor="start" x="402.5" y="-512.5" font-family="Helvetica,sans-Serif" font-size="10.00">+ c_str()</text>
<text text-anchor="start" x="402.5" y="-501.5" font-family="Helvetica,sans-Serif" font-size="10.00">+ ToString()</text>
</a>
</g>
</g>
<!-- Node6&#45;&gt;Node1 -->
<g id="edge13" class="edge">
<title>Node6&#45;&gt;Node1</title>
<path fill="none" stroke="#404040" d="M432,-494.32C432,-395.54 432,-175.84 432,-80.78"/>
<polygon fill="none" stroke="#404040" points="432,-80.75 428,-74.75 432,-68.75 436,-74.75 432,-80.75"/>
<text text-anchor="middle" x="465.5" y="-233.5" font-family="Helvetica,sans-Serif" font-size="10.00"> +PaletteName</text>
</g>
<!-- Node6&#45;&gt;Node3 -->
<g id="edge5" class="edge">
<title>Node6&#45;&gt;Node3</title>
<path fill="none" stroke="#404040" d="M394.16,-497.74C380.62,-481.11 368.52,-466.11 368,-465 344.06,-414.13 370.09,-390.26 343,-341 341.31,-337.92 339.33,-334.92 337.18,-332.03"/>
<polygon fill="none" stroke="#404040" points="336.99,-331.8 330.06,-329.8 329.25,-322.63 336.18,-324.64 336.99,-331.8"/>
<text text-anchor="middle" x="393" y="-406" font-family="Helvetica,sans-Serif" font-size="10.00"> +strMsgID</text>
<text text-anchor="middle" x="393" y="-395" font-family="Helvetica,sans-Serif" font-size="10.00">+strMsg</text>
</g>
<!-- Node7 -->
<g id="node7" class="node">
<title>Node7</title>
<g id="a_node7"><a xlink:href="../../d3/d79/classSDK_1_1TArray.html" target="_top" xlink:title=" ">
<polygon fill="white" stroke="black" points="373.5,-654.5 373.5,-799.5 498.5,-799.5 498.5,-654.5 373.5,-654.5"/>
<text text-anchor="middle" x="436" y="-787.5" font-family="Helvetica,sans-Serif" font-size="10.00">SDK::TArray&lt; wchar_t &gt;</text>
<polyline fill="none" stroke="black" points="373.5,-780.5 498.5,-780.5 "/>
<text text-anchor="start" x="381.5" y="-768.5" font-family="Helvetica,sans-Serif" font-size="10.00">&#45; Data</text>
<text text-anchor="start" x="381.5" y="-757.5" font-family="Helvetica,sans-Serif" font-size="10.00">&#45; Count</text>
<text text-anchor="start" x="381.5" y="-746.5" font-family="Helvetica,sans-Serif" font-size="10.00">&#45; Max</text>
<polyline fill="none" stroke="black" points="373.5,-739.5 498.5,-739.5 "/>
<text text-anchor="start" x="381.5" y="-727.5" font-family="Helvetica,sans-Serif" font-size="10.00">+ TArray()</text>
<text text-anchor="start" x="381.5" y="-716.5" font-family="Helvetica,sans-Serif" font-size="10.00">+ Num()</text>
<text text-anchor="start" x="381.5" y="-705.5" font-family="Helvetica,sans-Serif" font-size="10.00">+ operator[]()</text>
<text text-anchor="start" x="381.5" y="-694.5" font-family="Helvetica,sans-Serif" font-size="10.00">+ operator[]()</text>
<text text-anchor="start" x="381.5" y="-683.5" font-family="Helvetica,sans-Serif" font-size="10.00">+ IsValidIndex()</text>
<text text-anchor="start" x="381.5" y="-672.5" font-family="Helvetica,sans-Serif" font-size="10.00">+ GetByIndex()</text>
<text text-anchor="start" x="381.5" y="-661.5" font-family="Helvetica,sans-Serif" font-size="10.00">+ GetByIndex()</text>
</a>
</g>
</g>
<!-- Node7&#45;&gt;Node6 -->
<g id="edge6" class="edge">
<title>Node7&#45;&gt;Node6</title>
<path fill="none" stroke="midnightblue" d="M434.18,-644.09C433.81,-627.52 433.44,-610.58 433.1,-595.55"/>
<polygon fill="none" stroke="midnightblue" points="430.69,-644.42 434.41,-654.34 437.68,-644.27 430.69,-644.42"/>
</g>
<!-- Node8 -->
<g id="node8" class="node">
<title>Node8</title>
<g id="a_node8"><a xlink:href="../../d3/d79/classSDK_1_1TArray.html" target="_top" xlink:title=" ">
<polygon fill="white" stroke="black" points="191.5,-847.5 191.5,-992.5 288.5,-992.5 288.5,-847.5 191.5,-847.5"/>
<text text-anchor="middle" x="240" y="-980.5" font-family="Helvetica,sans-Serif" font-size="10.00">SDK::TArray&lt; T &gt;</text>
<polyline fill="none" stroke="black" points="191.5,-973.5 288.5,-973.5 "/>
<text text-anchor="start" x="199.5" y="-961.5" font-family="Helvetica,sans-Serif" font-size="10.00">&#45; Data</text>
<text text-anchor="start" x="199.5" y="-950.5" font-family="Helvetica,sans-Serif" font-size="10.00">&#45; Count</text>
<text text-anchor="start" x="199.5" y="-939.5" font-family="Helvetica,sans-Serif" font-size="10.00">&#45; Max</text>
<polyline fill="none" stroke="black" points="191.5,-932.5 288.5,-932.5 "/>
<text text-anchor="start" x="199.5" y="-920.5" font-family="Helvetica,sans-Serif" font-size="10.00">+ TArray()</text>
<text text-anchor="start" x="199.5" y="-909.5" font-family="Helvetica,sans-Serif" font-size="10.00">+ Num()</text>
<text text-anchor="start" x="199.5" y="-898.5" font-family="Helvetica,sans-Serif" font-size="10.00">+ operator[]()</text>
<text text-anchor="start" x="199.5" y="-887.5" font-family="Helvetica,sans-Serif" font-size="10.00">+ operator[]()</text>
<text text-anchor="start" x="199.5" y="-876.5" font-family="Helvetica,sans-Serif" font-size="10.00">+ IsValidIndex()</text>
<text text-anchor="start" x="199.5" y="-865.5" font-family="Helvetica,sans-Serif" font-size="10.00">+ GetByIndex()</text>
<text text-anchor="start" x="199.5" y="-854.5" font-family="Helvetica,sans-Serif" font-size="10.00">+ GetByIndex()</text>
</a>
</g>
</g>
<!-- Node8&#45;&gt;Node7 -->
<g id="edge7" class="edge">
<title>Node8&#45;&gt;Node7</title>
<path fill="none" stroke="orange" d="M295.93,-865.79C317.32,-845.32 341.88,-821.67 364,-800 367.03,-797.03 370.13,-793.99 373.25,-790.91"/>
<polygon fill="orange" stroke="orange" points="293.32,-863.45 288.51,-872.89 298.16,-868.51 293.32,-863.45"/>
<text text-anchor="middle" x="372" y="-821" font-family="Helvetica,sans-Serif" font-size="10.00"> &lt; wchar_t &gt;</text>
</g>
<!-- Node10 -->
<g id="node10" class="node">
<title>Node10</title>
<g id="a_node10"><a xlink:href="../../d3/d79/classSDK_1_1TArray.html" target="_top" xlink:title=" ">
<polygon fill="white" stroke="black" points="0,-660 0,-794 180,-794 180,-660 0,-660"/>
<text text-anchor="middle" x="90" y="-782" font-family="Helvetica,sans-Serif" font-size="10.00">SDK::TArray&lt; SDK::FNameEntry * &gt;</text>
<polyline fill="none" stroke="black" points="0,-775 180,-775 "/>
<text text-anchor="start" x="8" y="-763" font-family="Helvetica,sans-Serif" font-size="10.00">&#45; Count</text>
<text text-anchor="start" x="8" y="-752" font-family="Helvetica,sans-Serif" font-size="10.00">&#45; Max</text>
<polyline fill="none" stroke="black" points="0,-745 180,-745 "/>
<text text-anchor="start" x="8" y="-733" font-family="Helvetica,sans-Serif" font-size="10.00">+ TArray()</text>
<text text-anchor="start" x="8" y="-722" font-family="Helvetica,sans-Serif" font-size="10.00">+ Num()</text>
<text text-anchor="start" x="8" y="-711" font-family="Helvetica,sans-Serif" font-size="10.00">+ operator[]()</text>
<text text-anchor="start" x="8" y="-700" font-family="Helvetica,sans-Serif" font-size="10.00">+ operator[]()</text>
<text text-anchor="start" x="8" y="-689" font-family="Helvetica,sans-Serif" font-size="10.00">+ IsValidIndex()</text>
<text text-anchor="start" x="8" y="-678" font-family="Helvetica,sans-Serif" font-size="10.00">+ GetByIndex()</text>
<text text-anchor="start" x="8" y="-667" font-family="Helvetica,sans-Serif" font-size="10.00">+ GetByIndex()</text>
</a>
</g>
</g>
<!-- Node8&#45;&gt;Node10 -->
<g id="edge11" class="edge">
<title>Node8&#45;&gt;Node10</title>
<path fill="none" stroke="orange" d="M184.94,-848.89C170.94,-831.06 155.93,-811.95 142.07,-794.31"/>
<polygon fill="orange" stroke="orange" points="182.37,-851.28 191.3,-856.99 187.88,-846.96 182.37,-851.28"/>
<text text-anchor="middle" x="220.5" y="-821" font-family="Helvetica,sans-Serif" font-size="10.00"> &lt; SDK::FNameEntry * &gt;</text>
</g>
<!-- Node9 -->
<g id="node9" class="node">
<title>Node9</title>
<g id="a_node9"><a xlink:href="../../d0/db6/structSDK_1_1FName.html" target="_top" xlink:title=" ">
<polygon fill="white" stroke="black" points="36.5,-341.5 36.5,-464.5 143.5,-464.5 143.5,-341.5 36.5,-341.5"/>
<text text-anchor="middle" x="90" y="-452.5" font-family="Helvetica,sans-Serif" font-size="10.00">SDK::FName</text>
<polyline fill="none" stroke="black" points="36.5,-445.5 143.5,-445.5 "/>
<text text-anchor="start" x="44.5" y="-433.5" font-family="Helvetica,sans-Serif" font-size="10.00">+ Index</text>
<text text-anchor="start" x="44.5" y="-422.5" font-family="Helvetica,sans-Serif" font-size="10.00">+ Number</text>
<polyline fill="none" stroke="black" points="36.5,-415.5 143.5,-415.5 "/>
<text text-anchor="start" x="44.5" y="-403.5" font-family="Helvetica,sans-Serif" font-size="10.00">+ FName()</text>
<text text-anchor="start" x="44.5" y="-392.5" font-family="Helvetica,sans-Serif" font-size="10.00">+ FName()</text>
<text text-anchor="start" x="44.5" y="-381.5" font-family="Helvetica,sans-Serif" font-size="10.00">+ FName()</text>
<text text-anchor="start" x="44.5" y="-370.5" font-family="Helvetica,sans-Serif" font-size="10.00">+ GetName()</text>
<text text-anchor="start" x="44.5" y="-359.5" font-family="Helvetica,sans-Serif" font-size="10.00">+ operator==()</text>
<text text-anchor="start" x="44.5" y="-348.5" font-family="Helvetica,sans-Serif" font-size="10.00">+ GetGlobalNames()</text>
</a>
</g>
</g>
<!-- Node9&#45;&gt;Node2 -->
<g id="edge8" class="edge">
<title>Node9&#45;&gt;Node2</title>
<path fill="none" stroke="#404040" d="M82.09,-341.31C81.69,-316.06 85.24,-287.46 99,-265 119.47,-231.57 155.27,-207.71 188.93,-191.47"/>
<polygon fill="none" stroke="#404040" points="189.35,-191.28 193.12,-185.13 200.24,-186.25 196.47,-192.39 189.35,-191.28"/>
<text text-anchor="middle" x="164" y="-291.5" font-family="Helvetica,sans-Serif" font-size="10.00"> +ExpressionParameterName</text>
</g>
<!-- Node10&#45;&gt;Node9 -->
<g id="edge9" class="edge">
<title>Node10&#45;&gt;Node9</title>
<path fill="none" stroke="#404040" d="M90,-659.67C90,-606.36 90,-531.56 90,-476.63"/>
<polygon fill="none" stroke="#404040" points="90,-476.53 86,-470.53 90,-464.53 94,-470.53 90,-476.53"/>
<text text-anchor="middle" x="114.5" y="-628" font-family="Helvetica,sans-Serif" font-size="10.00"> +GNames</text>
</g>
<!-- Node11 -->
<g id="node11" class="node">
<title>Node11</title>
<g id="a_node11"><a xlink:href="../../d7/ddf/classSDK_1_1FNameEntry.html" target="_top" xlink:title=" ">
<polygon fill="white" stroke="black" points="40.5,-886 40.5,-954 139.5,-954 139.5,-886 40.5,-886"/>
<text text-anchor="middle" x="90" y="-942" font-family="Helvetica,sans-Serif" font-size="10.00">SDK::FNameEntry</text>
<polyline fill="none" stroke="black" points="40.5,-935 139.5,-935 "/>
<text text-anchor="start" x="48.5" y="-923" font-family="Helvetica,sans-Serif" font-size="10.00">+ UnknownData00</text>
<text text-anchor="start" x="48.5" y="-912" font-family="Helvetica,sans-Serif" font-size="10.00">+ name</text>
<polyline fill="none" stroke="black" points="40.5,-905 139.5,-905 "/>
<text text-anchor="start" x="48.5" y="-893" font-family="Helvetica,sans-Serif" font-size="10.00">+ GetName()</text>
</a>
</g>
</g>
<!-- Node11&#45;&gt;Node10 -->
<g id="edge10" class="edge">
<title>Node11&#45;&gt;Node10</title>
<path fill="none" stroke="#404040" d="M90,-885.73C90,-863.76 90,-834 90,-806.25"/>
<polygon fill="none" stroke="#404040" points="90,-806.1 86,-800.1 90,-794.1 94,-800.1 90,-806.1"/>
<text text-anchor="middle" x="104" y="-821" font-family="Helvetica,sans-Serif" font-size="10.00"> &#45;Data</text>
</g>
<!-- Node12 -->
<g id="node12" class="node">
<title>Node12</title>
<g id="a_node12"><a xlink:href="../../de/d7c/structSDK_1_1FLinearColor.html" target="_top" xlink:title=" ">
<polygon fill="white" stroke="black" points="460.5,-116.5 460.5,-206.5 559.5,-206.5 559.5,-116.5 460.5,-116.5"/>
<text text-anchor="middle" x="510" y="-194.5" font-family="Helvetica,sans-Serif" font-size="10.00">SDK::FLinearColor</text>
<polyline fill="none" stroke="black" points="460.5,-187.5 559.5,-187.5 "/>
<text text-anchor="start" x="468.5" y="-175.5" font-family="Helvetica,sans-Serif" font-size="10.00">+ R</text>
<text text-anchor="start" x="468.5" y="-164.5" font-family="Helvetica,sans-Serif" font-size="10.00">+ G</text>
<text text-anchor="start" x="468.5" y="-153.5" font-family="Helvetica,sans-Serif" font-size="10.00">+ B</text>
<text text-anchor="start" x="468.5" y="-142.5" font-family="Helvetica,sans-Serif" font-size="10.00">+ A</text>
<polyline fill="none" stroke="black" points="460.5,-135.5 559.5,-135.5 "/>
<text text-anchor="middle" x="510" y="-123.5" font-family="Helvetica,sans-Serif" font-size="10.00"> </text>
</a>
</g>
</g>
<!-- Node12&#45;&gt;Node1 -->
<g id="edge12" class="edge">
<title>Node12&#45;&gt;Node1</title>
<path fill="none" stroke="#404040" d="M482.5,-116.43C474.9,-104.25 466.66,-91.05 459.09,-78.91"/>
<polygon fill="none" stroke="#404040" points="458.99,-78.75 452.42,-75.78 452.63,-68.57 459.2,-71.54 458.99,-78.75"/>
<text text-anchor="middle" x="503" y="-90" font-family="Helvetica,sans-Serif" font-size="10.00"> +DefaultColor</text>
</g>
</g>
</svg>
