<?xml version="1.0" encoding="UTF-8" standalone="no"?>
<!DOCTYPE svg PUBLIC "-//W3C//DTD SVG 1.1//EN"
 "http://www.w3.org/Graphics/SVG/1.1/DTD/svg11.dtd">
<!-- Generated by graphviz version 2.41.20171026.1811 (20171026.1811)
 -->
<!-- Title: SDK::FEdgePointer Pages: 1 -->
<svg width="111pt" height="182pt"
 viewBox="0.00 0.00 111.00 182.00" xmlns="http://www.w3.org/2000/svg" xmlns:xlink="http://www.w3.org/1999/xlink">
<g id="graph0" class="graph" transform="scale(1 1) rotate(0) translate(4 178)">
<title>SDK::FEdgePointer</title>
<polygon fill="white" stroke="transparent" points="-4,4 -4,-178 107,-178 107,4 -4,4"/>
<!-- Node1 -->
<g id="node1" class="node">
<title>Node1</title>
<g id="a_node1"><a xlink:title=" ">
<polygon fill="#bfbfbf" stroke="black" points="0,-0.5 0,-57.5 103,-57.5 103,-0.5 0,-0.5"/>
<text text-anchor="middle" x="51.5" y="-45.5" font-family="Helvetica,sans-Serif" font-size="10.00">SDK::FEdgePointer</text>
<polyline fill="none" stroke="black" points="0,-38.5 103,-38.5 "/>
<text text-anchor="middle" x="51.5" y="-26.5" font-family="Helvetica,sans-Serif" font-size="10.00"> </text>
<polyline fill="none" stroke="black" points="0,-19.5 103,-19.5 "/>
<text text-anchor="middle" x="51.5" y="-7.5" font-family="Helvetica,sans-Serif" font-size="10.00"> </text>
</a>
</g>
</g>
<!-- Node2 -->
<g id="node2" class="node">
<title>Node2</title>
<g id="a_node2"><a xlink:href="../../d9/dfa/structSDK_1_1FPointer.html" target="_top" xlink:title=" ">
<polygon fill="white" stroke="black" points="2.5,-105.5 2.5,-173.5 100.5,-173.5 100.5,-105.5 2.5,-105.5"/>
<text text-anchor="middle" x="51.5" y="-161.5" font-family="Helvetica,sans-Serif" font-size="10.00">SDK::FPointer</text>
<polyline fill="none" stroke="black" points="2.5,-154.5 100.5,-154.5 "/>
<text text-anchor="start" x="10.5" y="-142.5" font-family="Helvetica,sans-Serif" font-size="10.00">+ Dummy</text>
<text text-anchor="start" x="10.5" y="-131.5" font-family="Helvetica,sans-Serif" font-size="10.00">+ UnknownData00</text>
<polyline fill="none" stroke="black" points="2.5,-124.5 100.5,-124.5 "/>
<text text-anchor="middle" x="51.5" y="-112.5" font-family="Helvetica,sans-Serif" font-size="10.00"> </text>
</a>
</g>
</g>
<!-- Node2&#45;&gt;Node1 -->
<g id="edge1" class="edge">
<title>Node2&#45;&gt;Node1</title>
<path fill="none" stroke="#404040" d="M51.5,-105.36C51.5,-94.19 51.5,-81.61 51.5,-69.97"/>
<polygon fill="none" stroke="#404040" points="51.5,-69.83 47.5,-63.83 51.5,-57.83 55.5,-63.83 51.5,-69.83"/>
<text text-anchor="middle" x="73.5" y="-79" font-family="Helvetica,sans-Serif" font-size="10.00"> +Dummy</text>
</g>
</g>
</svg>
