<?xml version="1.0" encoding="UTF-8" standalone="no"?>
<!DOCTYPE svg PUBLIC "-//W3C//DTD SVG 1.1//EN"
 "http://www.w3.org/Graphics/SVG/1.1/DTD/svg11.dtd">
<!-- Generated by graphviz version 2.41.20171026.1811 (20171026.1811)
 -->
<!-- Title: SDK::FScriptInterface::GetInterface Pages: 1 -->
<svg width="333pt" height="170pt"
 viewBox="0.00 0.00 333.00 170.00" xmlns="http://www.w3.org/2000/svg" xmlns:xlink="http://www.w3.org/1999/xlink">
<g id="graph0" class="graph" transform="scale(1 1) rotate(0) translate(4 166)">
<title>SDK::FScriptInterface::GetInterface</title>
<polygon fill="white" stroke="transparent" points="-4,4 -4,-166 329,-166 329,4 -4,4"/>
<!-- Node1 -->
<g id="node1" class="node">
<title>Node1</title>
<g id="a_node1"><a xlink:title=" ">
<polygon fill="#bfbfbf" stroke="black" points="212,-66 212,-96 325,-96 325,-66 212,-66"/>
<text text-anchor="start" x="220" y="-84" font-family="Helvetica,sans-Serif" font-size="10.00">SDK::FScriptInterface</text>
<text text-anchor="middle" x="268.5" y="-73" font-family="Helvetica,sans-Serif" font-size="10.00">::GetInterface</text>
</a>
</g>
</g>
<!-- Node2 -->
<g id="node2" class="node">
<title>Node2</title>
<g id="a_node2"><a xlink:href="../../d9/d53/classSDK_1_1TScriptInterface.html#aafab72e37e5e6e2622abdebd01f4e567" target="_top" xlink:title=" ">
<polygon fill="white" stroke="black" points="0,-120.5 0,-161.5 176,-161.5 176,-120.5 0,-120.5"/>
<text text-anchor="start" x="8" y="-149.5" font-family="Helvetica,sans-Serif" font-size="10.00">SDK::TScriptInterface</text>
<text text-anchor="start" x="8" y="-138.5" font-family="Helvetica,sans-Serif" font-size="10.00">&lt; class SDK::UOnlineStatsInterface</text>
<text text-anchor="middle" x="88" y="-127.5" font-family="Helvetica,sans-Serif" font-size="10.00"> &gt;::operator bool</text>
</a>
</g>
</g>
<!-- Node1&#45;&gt;Node2 -->
<g id="edge1" class="edge">
<title>Node1&#45;&gt;Node2</title>
<path fill="none" stroke="midnightblue" d="M212.96,-99.33C193.13,-106 170.58,-113.58 150.21,-120.42"/>
<polygon fill="midnightblue" stroke="midnightblue" points="214.09,-102.64 222.46,-96.14 211.86,-96.01 214.09,-102.64"/>
</g>
<!-- Node3 -->
<g id="node3" class="node">
<title>Node3</title>
<g id="a_node3"><a xlink:href="../../d9/d53/classSDK_1_1TScriptInterface.html#a6c221f27b363c1941dd79f815eb3f69f" target="_top" xlink:title=" ">
<polygon fill="white" stroke="black" points="0,-60.5 0,-101.5 176,-101.5 176,-60.5 0,-60.5"/>
<text text-anchor="start" x="8" y="-89.5" font-family="Helvetica,sans-Serif" font-size="10.00">SDK::TScriptInterface</text>
<text text-anchor="start" x="8" y="-78.5" font-family="Helvetica,sans-Serif" font-size="10.00">&lt; class SDK::UOnlineStatsInterface</text>
<text text-anchor="middle" x="88" y="-67.5" font-family="Helvetica,sans-Serif" font-size="10.00"> &gt;::operator*</text>
</a>
</g>
</g>
<!-- Node1&#45;&gt;Node3 -->
<g id="edge2" class="edge">
<title>Node1&#45;&gt;Node3</title>
<path fill="none" stroke="midnightblue" d="M201.96,-81C193.58,-81 184.91,-81 176.26,-81"/>
<polygon fill="midnightblue" stroke="midnightblue" points="202,-84.5 212,-81 202,-77.5 202,-84.5"/>
</g>
<!-- Node4 -->
<g id="node4" class="node">
<title>Node4</title>
<g id="a_node4"><a xlink:href="../../d9/d53/classSDK_1_1TScriptInterface.html#a52ff41e344d478d3b9f3aa85e3cd9a5d" target="_top" xlink:title=" ">
<polygon fill="white" stroke="black" points="0,-0.5 0,-41.5 176,-41.5 176,-0.5 0,-0.5"/>
<text text-anchor="start" x="8" y="-29.5" font-family="Helvetica,sans-Serif" font-size="10.00">SDK::TScriptInterface</text>
<text text-anchor="start" x="8" y="-18.5" font-family="Helvetica,sans-Serif" font-size="10.00">&lt; class SDK::UOnlineStatsInterface</text>
<text text-anchor="middle" x="88" y="-7.5" font-family="Helvetica,sans-Serif" font-size="10.00"> &gt;::operator&#45;&gt;</text>
</a>
</g>
</g>
<!-- Node1&#45;&gt;Node4 -->
<g id="edge3" class="edge">
<title>Node1&#45;&gt;Node4</title>
<path fill="none" stroke="midnightblue" d="M212.96,-62.67C193.13,-56 170.58,-48.42 150.21,-41.58"/>
<polygon fill="midnightblue" stroke="midnightblue" points="211.86,-65.99 222.46,-65.86 214.09,-59.36 211.86,-65.99"/>
</g>
</g>
</svg>
