<?xml version="1.0" encoding="UTF-8" standalone="no"?>
<!DOCTYPE svg PUBLIC "-//W3C//DTD SVG 1.1//EN"
 "http://www.w3.org/Graphics/SVG/1.1/DTD/svg11.dtd">
<!-- Generated by graphviz version 2.41.20171026.1811 (20171026.1811)
 -->
<!-- Title: SDK::UParticleModuleMeshRotationRate_Seeded Pages: 1 -->
<svg width="1054pt" height="2262pt"
 viewBox="0.00 0.00 1053.50 2262.00" xmlns="http://www.w3.org/2000/svg" xmlns:xlink="http://www.w3.org/1999/xlink">
<g id="graph0" class="graph" transform="scale(1 1) rotate(0) translate(4 2258)">
<title>SDK::UParticleModuleMeshRotationRate_Seeded</title>
<polygon fill="white" stroke="transparent" points="-4,4 -4,-2258 1049.5,-2258 1049.5,4 -4,4"/>
<!-- Node1 -->
<g id="node1" class="node">
<title>Node1</title>
<g id="a_node1"><a xlink:title=" ">
<polygon fill="#bfbfbf" stroke="black" points="21,-0.5 21,-68.5 161,-68.5 161,-0.5 21,-0.5"/>
<text text-anchor="start" x="29" y="-56.5" font-family="Helvetica,sans-Serif" font-size="10.00">SDK::UParticleModuleMesh</text>
<text text-anchor="middle" x="91" y="-45.5" font-family="Helvetica,sans-Serif" font-size="10.00">RotationRate_Seeded</text>
<polyline fill="none" stroke="black" points="21,-38.5 161,-38.5 "/>
<text text-anchor="middle" x="91" y="-26.5" font-family="Helvetica,sans-Serif" font-size="10.00"> </text>
<polyline fill="none" stroke="black" points="21,-19.5 161,-19.5 "/>
<text text-anchor="start" x="29" y="-7.5" font-family="Helvetica,sans-Serif" font-size="10.00">+ StaticClass()</text>
</a>
</g>
</g>
<!-- Node2 -->
<g id="node2" class="node">
<title>Node2</title>
<g id="a_node2"><a xlink:href="../../d8/dc5/classSDK_1_1UParticleModuleMeshRotationRate.html" target="_top" xlink:title=" ">
<polygon fill="white" stroke="black" points="111,-106.5 111,-174.5 251,-174.5 251,-106.5 111,-106.5"/>
<text text-anchor="start" x="119" y="-162.5" font-family="Helvetica,sans-Serif" font-size="10.00">SDK::UParticleModuleMesh</text>
<text text-anchor="middle" x="181" y="-151.5" font-family="Helvetica,sans-Serif" font-size="10.00">RotationRate</text>
<polyline fill="none" stroke="black" points="111,-144.5 251,-144.5 "/>
<text text-anchor="middle" x="181" y="-132.5" font-family="Helvetica,sans-Serif" font-size="10.00"> </text>
<polyline fill="none" stroke="black" points="111,-125.5 251,-125.5 "/>
<text text-anchor="start" x="119" y="-113.5" font-family="Helvetica,sans-Serif" font-size="10.00">+ StaticClass()</text>
</a>
</g>
</g>
<!-- Node2&#45;&gt;Node1 -->
<g id="edge1" class="edge">
<title>Node2&#45;&gt;Node1</title>
<path fill="none" stroke="midnightblue" d="M145.55,-98.53C137,-88.65 127.96,-78.21 119.76,-68.73"/>
<polygon fill="none" stroke="midnightblue" points="143.09,-101.04 152.28,-106.31 148.38,-96.46 143.09,-101.04"/>
</g>
<!-- Node3 -->
<g id="node3" class="node">
<title>Node3</title>
<g id="a_node3"><a xlink:href="../../d9/dee/classSDK_1_1UParticleModuleRotationRateBase.html" target="_top" xlink:title=" ">
<polygon fill="white" stroke="black" points="105,-753.5 105,-821.5 257,-821.5 257,-753.5 105,-753.5"/>
<text text-anchor="start" x="113" y="-809.5" font-family="Helvetica,sans-Serif" font-size="10.00">SDK::UParticleModuleRotation</text>
<text text-anchor="middle" x="181" y="-798.5" font-family="Helvetica,sans-Serif" font-size="10.00">RateBase</text>
<polyline fill="none" stroke="black" points="105,-791.5 257,-791.5 "/>
<text text-anchor="middle" x="181" y="-779.5" font-family="Helvetica,sans-Serif" font-size="10.00"> </text>
<polyline fill="none" stroke="black" points="105,-772.5 257,-772.5 "/>
<text text-anchor="start" x="113" y="-760.5" font-family="Helvetica,sans-Serif" font-size="10.00">+ StaticClass()</text>
</a>
</g>
</g>
<!-- Node3&#45;&gt;Node2 -->
<g id="edge2" class="edge">
<title>Node3&#45;&gt;Node2</title>
<path fill="none" stroke="midnightblue" d="M181,-743.34C181,-718.65 181,-687.08 181,-659 181,-659 181,-659 181,-250 181,-224.76 181,-196.21 181,-174.74"/>
<polygon fill="none" stroke="midnightblue" points="177.5,-743.48 181,-753.48 184.5,-743.48 177.5,-743.48"/>
</g>
<!-- Node4 -->
<g id="node4" class="node">
<title>Node4</title>
<g id="a_node4"><a xlink:href="../../d5/df1/classSDK_1_1UParticleModule.html" target="_top" xlink:title=" ">
<polygon fill="white" stroke="black" points="107.5,-978.5 107.5,-1178.5 260.5,-1178.5 260.5,-978.5 107.5,-978.5"/>
<text text-anchor="middle" x="184" y="-1166.5" font-family="Helvetica,sans-Serif" font-size="10.00">SDK::UParticleModule</text>
<polyline fill="none" stroke="black" points="107.5,-1159.5 260.5,-1159.5 "/>
<text text-anchor="start" x="115.5" y="-1147.5" font-family="Helvetica,sans-Serif" font-size="10.00">+ bSpawnModule</text>
<text text-anchor="start" x="115.5" y="-1136.5" font-family="Helvetica,sans-Serif" font-size="10.00">+ bUpdateModule</text>
<text text-anchor="start" x="115.5" y="-1125.5" font-family="Helvetica,sans-Serif" font-size="10.00">+ bFinalUpdateModule</text>
<text text-anchor="start" x="115.5" y="-1114.5" font-family="Helvetica,sans-Serif" font-size="10.00">+ bCurvesAsColor</text>
<text text-anchor="start" x="115.5" y="-1103.5" font-family="Helvetica,sans-Serif" font-size="10.00">+ b3DDrawMode</text>
<text text-anchor="start" x="115.5" y="-1092.5" font-family="Helvetica,sans-Serif" font-size="10.00">+ EnableToggle3DDrawMode</text>
<text text-anchor="start" x="115.5" y="-1081.5" font-family="Helvetica,sans-Serif" font-size="10.00">+ bSupported3DDrawMode</text>
<text text-anchor="start" x="115.5" y="-1070.5" font-family="Helvetica,sans-Serif" font-size="10.00">+ bEnabled</text>
<text text-anchor="start" x="115.5" y="-1059.5" font-family="Helvetica,sans-Serif" font-size="10.00">+ bEditable</text>
<text text-anchor="start" x="115.5" y="-1048.5" font-family="Helvetica,sans-Serif" font-size="10.00">+ LODDuplicate</text>
<text text-anchor="start" x="115.5" y="-1037.5" font-family="Helvetica,sans-Serif" font-size="10.00">+ bSupportsRandomSeed</text>
<text text-anchor="start" x="115.5" y="-1026.5" font-family="Helvetica,sans-Serif" font-size="10.00">+ bRequiresLoopingNotification</text>
<text text-anchor="start" x="115.5" y="-1015.5" font-family="Helvetica,sans-Serif" font-size="10.00">+ LODValidity</text>
<text text-anchor="start" x="115.5" y="-1004.5" font-family="Helvetica,sans-Serif" font-size="10.00">+ UnknownData00</text>
<polyline fill="none" stroke="black" points="107.5,-997.5 260.5,-997.5 "/>
<text text-anchor="start" x="115.5" y="-985.5" font-family="Helvetica,sans-Serif" font-size="10.00">+ StaticClass()</text>
</a>
</g>
</g>
<!-- Node4&#45;&gt;Node3 -->
<g id="edge3" class="edge">
<title>Node4&#45;&gt;Node3</title>
<path fill="none" stroke="midnightblue" d="M182.87,-968.44C182.33,-916.19 181.71,-857.36 181.34,-821.62"/>
<polygon fill="none" stroke="midnightblue" points="179.37,-968.48 182.97,-978.45 186.37,-968.41 179.37,-968.48"/>
</g>
<!-- Node5 -->
<g id="node5" class="node">
<title>Node5</title>
<g id="a_node5"><a xlink:href="../../d9/d45/classSDK_1_1UObject.html" target="_top" xlink:title=" ">
<polygon fill="white" stroke="black" points="361,-1226.5 361,-1470.5 559,-1470.5 559,-1226.5 361,-1226.5"/>
<text text-anchor="middle" x="460" y="-1458.5" font-family="Helvetica,sans-Serif" font-size="10.00">SDK::UObject</text>
<polyline fill="none" stroke="black" points="361,-1451.5 559,-1451.5 "/>
<text text-anchor="start" x="369" y="-1439.5" font-family="Helvetica,sans-Serif" font-size="10.00">+ ObjectInternalInteger</text>
<text text-anchor="start" x="369" y="-1428.5" font-family="Helvetica,sans-Serif" font-size="10.00">+ NetIndex</text>
<polyline fill="none" stroke="black" points="361,-1421.5 559,-1421.5 "/>
<text text-anchor="start" x="369" y="-1409.5" font-family="Helvetica,sans-Serif" font-size="10.00">+ UObject::GetName()</text>
<text text-anchor="start" x="369" y="-1398.5" font-family="Helvetica,sans-Serif" font-size="10.00">+ GetFullName()</text>
<text text-anchor="start" x="369" y="-1387.5" font-family="Helvetica,sans-Serif" font-size="10.00">+ IsA()</text>
<text text-anchor="start" x="369" y="-1376.5" font-family="Helvetica,sans-Serif" font-size="10.00">+ ProcessEvent()</text>
<text text-anchor="start" x="369" y="-1365.5" font-family="Helvetica,sans-Serif" font-size="10.00">+ STATIC_ProfNodeEvent()</text>
<text text-anchor="start" x="369" y="-1354.5" font-family="Helvetica,sans-Serif" font-size="10.00">+ STATIC_ProfNodeSetDepthThreshold()</text>
<text text-anchor="start" x="369" y="-1343.5" font-family="Helvetica,sans-Serif" font-size="10.00">+ STATIC_ProfNodeSetTimeThreshold</text>
<text text-anchor="start" x="369" y="-1332.5" font-family="Helvetica,sans-Serif" font-size="10.00">Seconds()</text>
<text text-anchor="start" x="369" y="-1321.5" font-family="Helvetica,sans-Serif" font-size="10.00">+ STATIC_ProfNodeStop()</text>
<text text-anchor="start" x="369" y="-1310.5" font-family="Helvetica,sans-Serif" font-size="10.00">+ STATIC_ProfNodeStart()</text>
<text text-anchor="start" x="369" y="-1299.5" font-family="Helvetica,sans-Serif" font-size="10.00">+ STATIC_GetStringFromGuid()</text>
<text text-anchor="start" x="369" y="-1288.5" font-family="Helvetica,sans-Serif" font-size="10.00">and 298 more...</text>
<text text-anchor="start" x="369" y="-1277.5" font-family="Helvetica,sans-Serif" font-size="10.00">+ GetGlobalObjects()</text>
<text text-anchor="start" x="369" y="-1266.5" font-family="Helvetica,sans-Serif" font-size="10.00">+ FindObject()</text>
<text text-anchor="start" x="369" y="-1255.5" font-family="Helvetica,sans-Serif" font-size="10.00">+ FindClass()</text>
<text text-anchor="start" x="369" y="-1244.5" font-family="Helvetica,sans-Serif" font-size="10.00">+ GetObjectCasted()</text>
<text text-anchor="start" x="369" y="-1233.5" font-family="Helvetica,sans-Serif" font-size="10.00">+ StaticClass()</text>
</a>
</g>
</g>
<!-- Node5&#45;&gt;Node4 -->
<g id="edge4" class="edge">
<title>Node5&#45;&gt;Node4</title>
<path fill="none" stroke="midnightblue" d="M353.37,-1243.96C322.5,-1213.98 289.41,-1181.86 260.75,-1154.03"/>
<polygon fill="none" stroke="midnightblue" points="351.14,-1246.67 360.75,-1251.12 356.01,-1241.65 351.14,-1246.67"/>
</g>
<!-- Node5&#45;&gt;Node5 -->
<g id="edge10" class="edge">
<title>Node5&#45;&gt;Node5</title>
<path fill="none" stroke="#404040" d="M559.01,-1371.53C569.94,-1367.15 577,-1359.48 577,-1348.5 577,-1341.64 574.24,-1336.07 569.51,-1331.78"/>
<polygon fill="none" stroke="#404040" points="569.3,-1331.66 562.09,-1331.99 559.01,-1325.47 566.22,-1325.14 569.3,-1331.66"/>
<text text-anchor="middle" x="616.5" y="-1357" font-family="Helvetica,sans-Serif" font-size="10.00"> +Outer</text>
<text text-anchor="middle" x="616.5" y="-1346" font-family="Helvetica,sans-Serif" font-size="10.00">+Linker</text>
<text text-anchor="middle" x="616.5" y="-1335" font-family="Helvetica,sans-Serif" font-size="10.00">+ObjectArchetype</text>
</g>
<!-- Node11 -->
<g id="node11" class="node">
<title>Node11</title>
<g id="a_node11"><a xlink:href="../../d3/d79/classSDK_1_1TArray.html" target="_top" xlink:title=" ">
<polygon fill="white" stroke="black" points="638.5,-1011.5 638.5,-1145.5 799.5,-1145.5 799.5,-1011.5 638.5,-1011.5"/>
<text text-anchor="middle" x="719" y="-1133.5" font-family="Helvetica,sans-Serif" font-size="10.00">SDK::TArray&lt; SDK::UObject * &gt;</text>
<polyline fill="none" stroke="black" points="638.5,-1126.5 799.5,-1126.5 "/>
<text text-anchor="start" x="646.5" y="-1114.5" font-family="Helvetica,sans-Serif" font-size="10.00">&#45; Count</text>
<text text-anchor="start" x="646.5" y="-1103.5" font-family="Helvetica,sans-Serif" font-size="10.00">&#45; Max</text>
<polyline fill="none" stroke="black" points="638.5,-1096.5 799.5,-1096.5 "/>
<text text-anchor="start" x="646.5" y="-1084.5" font-family="Helvetica,sans-Serif" font-size="10.00">+ TArray()</text>
<text text-anchor="start" x="646.5" y="-1073.5" font-family="Helvetica,sans-Serif" font-size="10.00">+ Num()</text>
<text text-anchor="start" x="646.5" y="-1062.5" font-family="Helvetica,sans-Serif" font-size="10.00">+ operator[]()</text>
<text text-anchor="start" x="646.5" y="-1051.5" font-family="Helvetica,sans-Serif" font-size="10.00">+ operator[]()</text>
<text text-anchor="start" x="646.5" y="-1040.5" font-family="Helvetica,sans-Serif" font-size="10.00">+ IsValidIndex()</text>
<text text-anchor="start" x="646.5" y="-1029.5" font-family="Helvetica,sans-Serif" font-size="10.00">+ GetByIndex()</text>
<text text-anchor="start" x="646.5" y="-1018.5" font-family="Helvetica,sans-Serif" font-size="10.00">+ GetByIndex()</text>
</a>
</g>
</g>
<!-- Node5&#45;&gt;Node11 -->
<g id="edge12" class="edge">
<title>Node5&#45;&gt;Node11</title>
<path fill="none" stroke="#404040" d="M559.07,-1297.35C596.85,-1274.3 637.8,-1244.02 667,-1208 679.12,-1193.05 688.74,-1174.91 696.24,-1157.02"/>
<polygon fill="none" stroke="#404040" points="696.32,-1156.8 694.82,-1149.75 700.75,-1145.65 702.26,-1152.7 696.32,-1156.8"/>
<text text-anchor="middle" x="687" y="-1200" font-family="Helvetica,sans-Serif" font-size="10.00"> &#45;Data</text>
</g>
<!-- Node13 -->
<g id="node13" class="node">
<title>Node13</title>
<g id="a_node13"><a xlink:href="../../d7/d85/classSDK_1_1UClass.html" target="_top" xlink:title=" ">
<polygon fill="white" stroke="black" points="448.5,-549.5 448.5,-639.5 569.5,-639.5 569.5,-549.5 448.5,-549.5"/>
<text text-anchor="middle" x="509" y="-627.5" font-family="Helvetica,sans-Serif" font-size="10.00">SDK::UClass</text>
<polyline fill="none" stroke="black" points="448.5,-620.5 569.5,-620.5 "/>
<text text-anchor="start" x="456.5" y="-608.5" font-family="Helvetica,sans-Serif" font-size="10.00">+ UnknownData00</text>
<text text-anchor="start" x="456.5" y="-597.5" font-family="Helvetica,sans-Serif" font-size="10.00">+ UnknownData01</text>
<polyline fill="none" stroke="black" points="448.5,-590.5 569.5,-590.5 "/>
<text text-anchor="start" x="456.5" y="-578.5" font-family="Helvetica,sans-Serif" font-size="10.00">+ CreateDefaultObject()</text>
<text text-anchor="start" x="456.5" y="-567.5" font-family="Helvetica,sans-Serif" font-size="10.00">+ CreateDefaultObject()</text>
<text text-anchor="start" x="456.5" y="-556.5" font-family="Helvetica,sans-Serif" font-size="10.00">+ StaticClass()</text>
</a>
</g>
</g>
<!-- Node5&#45;&gt;Node13 -->
<g id="edge22" class="edge">
<title>Node5&#45;&gt;Node13</title>
<path fill="none" stroke="#404040" d="M435.45,-1226.27C428.12,-1180.48 422,-1127.79 422,-1079.5 422,-1079.5 422,-1079.5 422,-705 422,-684.2 431.75,-665.05 444.71,-648.79"/>
<polygon fill="none" stroke="#404040" points="444.84,-648.64 445.73,-641.48 452.67,-639.55 451.79,-646.71 444.84,-648.64"/>
<text text-anchor="middle" x="469.5" y="-877.5" font-family="Helvetica,sans-Serif" font-size="10.00"> +ClassDefaultObject</text>
</g>
<!-- Node16 -->
<g id="node16" class="node">
<title>Node16</title>
<g id="a_node16"><a xlink:href="../../de/dd6/classSDK_1_1UField.html" target="_top" xlink:title=" ">
<polygon fill="white" stroke="black" points="488.5,-1050 488.5,-1107 571.5,-1107 571.5,-1050 488.5,-1050"/>
<text text-anchor="middle" x="530" y="-1095" font-family="Helvetica,sans-Serif" font-size="10.00">SDK::UField</text>
<polyline fill="none" stroke="black" points="488.5,-1088 571.5,-1088 "/>
<text text-anchor="middle" x="530" y="-1076" font-family="Helvetica,sans-Serif" font-size="10.00"> </text>
<polyline fill="none" stroke="black" points="488.5,-1069 571.5,-1069 "/>
<text text-anchor="start" x="496.5" y="-1057" font-family="Helvetica,sans-Serif" font-size="10.00">+ StaticClass()</text>
</a>
</g>
</g>
<!-- Node5&#45;&gt;Node16 -->
<g id="edge19" class="edge">
<title>Node5&#45;&gt;Node16</title>
<path fill="none" stroke="midnightblue" d="M494.21,-1216.53C504.98,-1175.27 515.86,-1133.63 522.75,-1107.27"/>
<polygon fill="none" stroke="midnightblue" points="490.76,-1215.88 491.62,-1226.44 497.53,-1217.65 490.76,-1215.88"/>
</g>
<!-- Node22 -->
<g id="node22" class="node">
<title>Node22</title>
<g id="a_node22"><a xlink:href="../../dc/d28/classSDK_1_1UComponent.html" target="_top" xlink:title=" ">
<polygon fill="white" stroke="black" points="366.5,-444.5 366.5,-501.5 467.5,-501.5 467.5,-444.5 366.5,-444.5"/>
<text text-anchor="middle" x="417" y="-489.5" font-family="Helvetica,sans-Serif" font-size="10.00">SDK::UComponent</text>
<polyline fill="none" stroke="black" points="366.5,-482.5 467.5,-482.5 "/>
<text text-anchor="middle" x="417" y="-470.5" font-family="Helvetica,sans-Serif" font-size="10.00"> </text>
<polyline fill="none" stroke="black" points="366.5,-463.5 467.5,-463.5 "/>
<text text-anchor="start" x="374.5" y="-451.5" font-family="Helvetica,sans-Serif" font-size="10.00">+ StaticClass()</text>
</a>
</g>
</g>
<!-- Node5&#45;&gt;Node22 -->
<g id="edge30" class="edge">
<title>Node5&#45;&gt;Node22</title>
<path fill="none" stroke="midnightblue" d="M401.72,-1216.61C387.36,-1173.78 376,-1125.4 376,-1079.5 376,-1079.5 376,-1079.5 376,-593.5 376,-560.6 390.08,-525.23 401.73,-501.58"/>
<polygon fill="none" stroke="midnightblue" points="398.46,-1217.91 405.03,-1226.23 405.08,-1215.63 398.46,-1217.91"/>
</g>
<!-- Node6 -->
<g id="node6" class="node">
<title>Node6</title>
<g id="a_node6"><a xlink:href="../../d0/d22/structSDK_1_1FQWord.html" target="_top" xlink:title=" ">
<polygon fill="white" stroke="black" points="420,-1648 420,-1716 500,-1716 500,-1648 420,-1648"/>
<text text-anchor="middle" x="460" y="-1704" font-family="Helvetica,sans-Serif" font-size="10.00">SDK::FQWord</text>
<polyline fill="none" stroke="black" points="420,-1697 500,-1697 "/>
<text text-anchor="start" x="428" y="-1685" font-family="Helvetica,sans-Serif" font-size="10.00">+ A</text>
<text text-anchor="start" x="428" y="-1674" font-family="Helvetica,sans-Serif" font-size="10.00">+ B</text>
<polyline fill="none" stroke="black" points="420,-1667 500,-1667 "/>
<text text-anchor="middle" x="460" y="-1655" font-family="Helvetica,sans-Serif" font-size="10.00"> </text>
</a>
</g>
</g>
<!-- Node6&#45;&gt;Node5 -->
<g id="edge5" class="edge">
<title>Node6&#45;&gt;Node5</title>
<path fill="none" stroke="#404040" d="M460,-1647.7C460,-1609.14 460,-1543.23 460,-1483.16"/>
<polygon fill="none" stroke="#404040" points="460,-1482.84 456,-1476.84 460,-1470.84 464,-1476.84 460,-1482.84"/>
<text text-anchor="middle" x="491" y="-1543" font-family="Helvetica,sans-Serif" font-size="10.00"> +ObjectFlags</text>
</g>
<!-- Node7 -->
<g id="node7" class="node">
<title>Node7</title>
<g id="a_node7"><a xlink:href="../../d0/db6/structSDK_1_1FName.html" target="_top" xlink:title=" ">
<polygon fill="white" stroke="black" points="265.5,-1620.5 265.5,-1743.5 372.5,-1743.5 372.5,-1620.5 265.5,-1620.5"/>
<text text-anchor="middle" x="319" y="-1731.5" font-family="Helvetica,sans-Serif" font-size="10.00">SDK::FName</text>
<polyline fill="none" stroke="black" points="265.5,-1724.5 372.5,-1724.5 "/>
<text text-anchor="start" x="273.5" y="-1712.5" font-family="Helvetica,sans-Serif" font-size="10.00">+ Index</text>
<text text-anchor="start" x="273.5" y="-1701.5" font-family="Helvetica,sans-Serif" font-size="10.00">+ Number</text>
<polyline fill="none" stroke="black" points="265.5,-1694.5 372.5,-1694.5 "/>
<text text-anchor="start" x="273.5" y="-1682.5" font-family="Helvetica,sans-Serif" font-size="10.00">+ FName()</text>
<text text-anchor="start" x="273.5" y="-1671.5" font-family="Helvetica,sans-Serif" font-size="10.00">+ FName()</text>
<text text-anchor="start" x="273.5" y="-1660.5" font-family="Helvetica,sans-Serif" font-size="10.00">+ FName()</text>
<text text-anchor="start" x="273.5" y="-1649.5" font-family="Helvetica,sans-Serif" font-size="10.00">+ GetName()</text>
<text text-anchor="start" x="273.5" y="-1638.5" font-family="Helvetica,sans-Serif" font-size="10.00">+ operator==()</text>
<text text-anchor="start" x="273.5" y="-1627.5" font-family="Helvetica,sans-Serif" font-size="10.00">+ GetGlobalNames()</text>
</a>
</g>
</g>
<!-- Node7&#45;&gt;Node5 -->
<g id="edge6" class="edge">
<title>Node7&#45;&gt;Node5</title>
<path fill="none" stroke="#404040" d="M344.86,-1620.2C361.35,-1581.44 383.36,-1529.68 403.73,-1481.8"/>
<polygon fill="none" stroke="#404040" points="403.76,-1481.74 402.42,-1474.65 408.45,-1470.69 409.78,-1477.78 403.76,-1481.74"/>
<text text-anchor="middle" x="415" y="-1543" font-family="Helvetica,sans-Serif" font-size="10.00"> +Name</text>
</g>
<!-- Node7&#45;&gt;Node22 -->
<g id="edge31" class="edge">
<title>Node7&#45;&gt;Node22</title>
<path fill="none" stroke="#404040" d="M313.61,-1620.46C301.26,-1476.42 272,-1101.93 272,-788.5 272,-788.5 272,-788.5 272,-593.5 272,-547.58 315.84,-516.03 355.31,-496.93"/>
<polygon fill="none" stroke="#404040" points="355.39,-496.89 359.16,-490.75 366.29,-491.87 362.51,-498.01 355.39,-496.89"/>
<text text-anchor="middle" x="311" y="-877.5" font-family="Helvetica,sans-Serif" font-size="10.00"> +TemplateName</text>
</g>
<!-- Node23 -->
<g id="node23" class="node">
<title>Node23</title>
<g id="a_node23"><a xlink:href="../../da/d03/structSDK_1_1FParticleRandomSeedInfo.html" target="_top" xlink:title=" ">
<polygon fill="white" stroke="black" points="0,-1303.5 0,-1393.5 158,-1393.5 158,-1303.5 0,-1303.5"/>
<text text-anchor="middle" x="79" y="-1381.5" font-family="Helvetica,sans-Serif" font-size="10.00">SDK::FParticleRandomSeedInfo</text>
<polyline fill="none" stroke="black" points="0,-1374.5 158,-1374.5 "/>
<text text-anchor="start" x="8" y="-1362.5" font-family="Helvetica,sans-Serif" font-size="10.00">+ bGetSeedFromInstance</text>
<text text-anchor="start" x="8" y="-1351.5" font-family="Helvetica,sans-Serif" font-size="10.00">+ bInstanceSeedIsIndex</text>
<text text-anchor="start" x="8" y="-1340.5" font-family="Helvetica,sans-Serif" font-size="10.00">+ bResetSeedOnEmitterLooping</text>
<text text-anchor="start" x="8" y="-1329.5" font-family="Helvetica,sans-Serif" font-size="10.00">+ bRandomlySelectSeedArray</text>
<polyline fill="none" stroke="black" points="0,-1322.5 158,-1322.5 "/>
<text text-anchor="middle" x="79" y="-1310.5" font-family="Helvetica,sans-Serif" font-size="10.00"> </text>
</a>
</g>
</g>
<!-- Node7&#45;&gt;Node23 -->
<g id="edge35" class="edge">
<title>Node7&#45;&gt;Node23</title>
<path fill="none" stroke="#404040" d="M265.3,-1656.1C241.08,-1642.77 213.58,-1624.44 194,-1602 143.41,-1544 111.17,-1460.04 94.09,-1405.12"/>
<polygon fill="none" stroke="#404040" points="94.05,-1405 88.48,-1400.42 90.57,-1393.52 96.14,-1398.1 94.05,-1405"/>
<text text-anchor="middle" x="234.5" y="-1543" font-family="Helvetica,sans-Serif" font-size="10.00"> +ParameterName</text>
</g>
<!-- Node8 -->
<g id="node8" class="node">
<title>Node8</title>
<g id="a_node8"><a xlink:href="../../d3/d79/classSDK_1_1TArray.html" target="_top" xlink:title=" ">
<polygon fill="white" stroke="black" points="337,-1926.5 337,-2060.5 517,-2060.5 517,-1926.5 337,-1926.5"/>
<text text-anchor="middle" x="427" y="-2048.5" font-family="Helvetica,sans-Serif" font-size="10.00">SDK::TArray&lt; SDK::FNameEntry * &gt;</text>
<polyline fill="none" stroke="black" points="337,-2041.5 517,-2041.5 "/>
<text text-anchor="start" x="345" y="-2029.5" font-family="Helvetica,sans-Serif" font-size="10.00">&#45; Count</text>
<text text-anchor="start" x="345" y="-2018.5" font-family="Helvetica,sans-Serif" font-size="10.00">&#45; Max</text>
<polyline fill="none" stroke="black" points="337,-2011.5 517,-2011.5 "/>
<text text-anchor="start" x="345" y="-1999.5" font-family="Helvetica,sans-Serif" font-size="10.00">+ TArray()</text>
<text text-anchor="start" x="345" y="-1988.5" font-family="Helvetica,sans-Serif" font-size="10.00">+ Num()</text>
<text text-anchor="start" x="345" y="-1977.5" font-family="Helvetica,sans-Serif" font-size="10.00">+ operator[]()</text>
<text text-anchor="start" x="345" y="-1966.5" font-family="Helvetica,sans-Serif" font-size="10.00">+ operator[]()</text>
<text text-anchor="start" x="345" y="-1955.5" font-family="Helvetica,sans-Serif" font-size="10.00">+ IsValidIndex()</text>
<text text-anchor="start" x="345" y="-1944.5" font-family="Helvetica,sans-Serif" font-size="10.00">+ GetByIndex()</text>
<text text-anchor="start" x="345" y="-1933.5" font-family="Helvetica,sans-Serif" font-size="10.00">+ GetByIndex()</text>
</a>
</g>
</g>
<!-- Node8&#45;&gt;Node7 -->
<g id="edge7" class="edge">
<title>Node8&#45;&gt;Node7</title>
<path fill="none" stroke="#404040" d="M403.96,-1926.48C386.4,-1876.14 362.23,-1806.88 344.16,-1755.1"/>
<polygon fill="none" stroke="#404040" points="344.12,-1754.99 338.37,-1750.65 340.17,-1743.66 345.92,-1748.01 344.12,-1754.99"/>
<text text-anchor="middle" x="419.5" y="-1832.5" font-family="Helvetica,sans-Serif" font-size="10.00"> +GNames</text>
</g>
<!-- Node9 -->
<g id="node9" class="node">
<title>Node9</title>
<g id="a_node9"><a xlink:href="../../d7/ddf/classSDK_1_1FNameEntry.html" target="_top" xlink:title=" ">
<polygon fill="white" stroke="black" points="208.5,-2147 208.5,-2215 307.5,-2215 307.5,-2147 208.5,-2147"/>
<text text-anchor="middle" x="258" y="-2203" font-family="Helvetica,sans-Serif" font-size="10.00">SDK::FNameEntry</text>
<polyline fill="none" stroke="black" points="208.5,-2196 307.5,-2196 "/>
<text text-anchor="start" x="216.5" y="-2184" font-family="Helvetica,sans-Serif" font-size="10.00">+ UnknownData00</text>
<text text-anchor="start" x="216.5" y="-2173" font-family="Helvetica,sans-Serif" font-size="10.00">+ name</text>
<polyline fill="none" stroke="black" points="208.5,-2166 307.5,-2166 "/>
<text text-anchor="start" x="216.5" y="-2154" font-family="Helvetica,sans-Serif" font-size="10.00">+ GetName()</text>
</a>
</g>
</g>
<!-- Node9&#45;&gt;Node8 -->
<g id="edge8" class="edge">
<title>Node9&#45;&gt;Node8</title>
<path fill="none" stroke="#404040" d="M250,-2146.64C246.88,-2125.68 246.57,-2098.94 259,-2079 274.41,-2054.27 299.5,-2036.51 325.64,-2023.87"/>
<polygon fill="none" stroke="#404040" points="325.96,-2023.73 329.76,-2017.61 336.88,-2018.76 333.07,-2024.89 325.96,-2023.73"/>
<text text-anchor="middle" x="273" y="-2082" font-family="Helvetica,sans-Serif" font-size="10.00"> &#45;Data</text>
</g>
<!-- Node10 -->
<g id="node10" class="node">
<title>Node10</title>
<g id="a_node10"><a xlink:href="../../d3/d79/classSDK_1_1TArray.html" target="_top" xlink:title=" ">
<polygon fill="white" stroke="black" points="549.5,-2108.5 549.5,-2253.5 646.5,-2253.5 646.5,-2108.5 549.5,-2108.5"/>
<text text-anchor="middle" x="598" y="-2241.5" font-family="Helvetica,sans-Serif" font-size="10.00">SDK::TArray&lt; T &gt;</text>
<polyline fill="none" stroke="black" points="549.5,-2234.5 646.5,-2234.5 "/>
<text text-anchor="start" x="557.5" y="-2222.5" font-family="Helvetica,sans-Serif" font-size="10.00">&#45; Data</text>
<text text-anchor="start" x="557.5" y="-2211.5" font-family="Helvetica,sans-Serif" font-size="10.00">&#45; Count</text>
<text text-anchor="start" x="557.5" y="-2200.5" font-family="Helvetica,sans-Serif" font-size="10.00">&#45; Max</text>
<polyline fill="none" stroke="black" points="549.5,-2193.5 646.5,-2193.5 "/>
<text text-anchor="start" x="557.5" y="-2181.5" font-family="Helvetica,sans-Serif" font-size="10.00">+ TArray()</text>
<text text-anchor="start" x="557.5" y="-2170.5" font-family="Helvetica,sans-Serif" font-size="10.00">+ Num()</text>
<text text-anchor="start" x="557.5" y="-2159.5" font-family="Helvetica,sans-Serif" font-size="10.00">+ operator[]()</text>
<text text-anchor="start" x="557.5" y="-2148.5" font-family="Helvetica,sans-Serif" font-size="10.00">+ operator[]()</text>
<text text-anchor="start" x="557.5" y="-2137.5" font-family="Helvetica,sans-Serif" font-size="10.00">+ IsValidIndex()</text>
<text text-anchor="start" x="557.5" y="-2126.5" font-family="Helvetica,sans-Serif" font-size="10.00">+ GetByIndex()</text>
<text text-anchor="start" x="557.5" y="-2115.5" font-family="Helvetica,sans-Serif" font-size="10.00">+ GetByIndex()</text>
</a>
</g>
</g>
<!-- Node10&#45;&gt;Node8 -->
<g id="edge9" class="edge">
<title>Node10&#45;&gt;Node8</title>
<path fill="none" stroke="orange" d="M542.6,-2119.91C525.12,-2100.94 505.71,-2079.89 487.87,-2060.53"/>
<polygon fill="orange" stroke="orange" points="540.1,-2122.36 549.46,-2127.34 545.25,-2117.61 540.1,-2122.36"/>
<text text-anchor="middle" x="567.5" y="-2082" font-family="Helvetica,sans-Serif" font-size="10.00"> &lt; SDK::FNameEntry * &gt;</text>
</g>
<!-- Node10&#45;&gt;Node11 -->
<g id="edge13" class="edge">
<title>Node10&#45;&gt;Node11</title>
<path fill="none" stroke="orange" d="M656.23,-2164.62C729.82,-2141.25 847,-2089.17 847,-1994.5 847,-1994.5 847,-1994.5 847,-1347.5 847,-1273.12 806.36,-1197.47 770.88,-1145.6"/>
<polygon fill="orange" stroke="orange" points="655.12,-2161.3 646.6,-2167.59 657.19,-2167.99 655.12,-2161.3"/>
<text text-anchor="middle" x="892.5" y="-1679.5" font-family="Helvetica,sans-Serif" font-size="10.00"> &lt; SDK::UObject * &gt;</text>
</g>
<!-- Node20 -->
<g id="node20" class="node">
<title>Node20</title>
<g id="a_node20"><a xlink:href="../../d3/d79/classSDK_1_1TArray.html" target="_top" xlink:title=" ">
<polygon fill="white" stroke="black" points="890,-1762.5 890,-1907.5 1000,-1907.5 1000,-1762.5 890,-1762.5"/>
<text text-anchor="middle" x="945" y="-1895.5" font-family="Helvetica,sans-Serif" font-size="10.00">SDK::TArray&lt; float &gt;</text>
<polyline fill="none" stroke="black" points="890,-1888.5 1000,-1888.5 "/>
<text text-anchor="start" x="898" y="-1876.5" font-family="Helvetica,sans-Serif" font-size="10.00">&#45; Data</text>
<text text-anchor="start" x="898" y="-1865.5" font-family="Helvetica,sans-Serif" font-size="10.00">&#45; Count</text>
<text text-anchor="start" x="898" y="-1854.5" font-family="Helvetica,sans-Serif" font-size="10.00">&#45; Max</text>
<polyline fill="none" stroke="black" points="890,-1847.5 1000,-1847.5 "/>
<text text-anchor="start" x="898" y="-1835.5" font-family="Helvetica,sans-Serif" font-size="10.00">+ TArray()</text>
<text text-anchor="start" x="898" y="-1824.5" font-family="Helvetica,sans-Serif" font-size="10.00">+ Num()</text>
<text text-anchor="start" x="898" y="-1813.5" font-family="Helvetica,sans-Serif" font-size="10.00">+ operator[]()</text>
<text text-anchor="start" x="898" y="-1802.5" font-family="Helvetica,sans-Serif" font-size="10.00">+ operator[]()</text>
<text text-anchor="start" x="898" y="-1791.5" font-family="Helvetica,sans-Serif" font-size="10.00">+ IsValidIndex()</text>
<text text-anchor="start" x="898" y="-1780.5" font-family="Helvetica,sans-Serif" font-size="10.00">+ GetByIndex()</text>
<text text-anchor="start" x="898" y="-1769.5" font-family="Helvetica,sans-Serif" font-size="10.00">+ GetByIndex()</text>
</a>
</g>
</g>
<!-- Node10&#45;&gt;Node20 -->
<g id="edge27" class="edge">
<title>Node10&#45;&gt;Node20</title>
<path fill="none" stroke="orange" d="M656.48,-2174.93C715.69,-2166.75 806.12,-2145.45 861,-2090 909.27,-2041.23 929.81,-1964.14 938.54,-1907.68"/>
<polygon fill="orange" stroke="orange" points="656,-2171.46 646.53,-2176.22 656.9,-2178.41 656,-2171.46"/>
<text text-anchor="middle" x="887" y="-2082" font-family="Helvetica,sans-Serif" font-size="10.00"> &lt; float &gt;</text>
</g>
<!-- Node24 -->
<g id="node24" class="node">
<title>Node24</title>
<g id="a_node24"><a xlink:href="../../d3/d79/classSDK_1_1TArray.html" target="_top" xlink:title=" ">
<polygon fill="white" stroke="black" points="105.5,-1762.5 105.5,-1907.5 206.5,-1907.5 206.5,-1762.5 105.5,-1762.5"/>
<text text-anchor="middle" x="156" y="-1895.5" font-family="Helvetica,sans-Serif" font-size="10.00">SDK::TArray&lt; int &gt;</text>
<polyline fill="none" stroke="black" points="105.5,-1888.5 206.5,-1888.5 "/>
<text text-anchor="start" x="113.5" y="-1876.5" font-family="Helvetica,sans-Serif" font-size="10.00">&#45; Data</text>
<text text-anchor="start" x="113.5" y="-1865.5" font-family="Helvetica,sans-Serif" font-size="10.00">&#45; Count</text>
<text text-anchor="start" x="113.5" y="-1854.5" font-family="Helvetica,sans-Serif" font-size="10.00">&#45; Max</text>
<polyline fill="none" stroke="black" points="105.5,-1847.5 206.5,-1847.5 "/>
<text text-anchor="start" x="113.5" y="-1835.5" font-family="Helvetica,sans-Serif" font-size="10.00">+ TArray()</text>
<text text-anchor="start" x="113.5" y="-1824.5" font-family="Helvetica,sans-Serif" font-size="10.00">+ Num()</text>
<text text-anchor="start" x="113.5" y="-1813.5" font-family="Helvetica,sans-Serif" font-size="10.00">+ operator[]()</text>
<text text-anchor="start" x="113.5" y="-1802.5" font-family="Helvetica,sans-Serif" font-size="10.00">+ operator[]()</text>
<text text-anchor="start" x="113.5" y="-1791.5" font-family="Helvetica,sans-Serif" font-size="10.00">+ IsValidIndex()</text>
<text text-anchor="start" x="113.5" y="-1780.5" font-family="Helvetica,sans-Serif" font-size="10.00">+ GetByIndex()</text>
<text text-anchor="start" x="113.5" y="-1769.5" font-family="Helvetica,sans-Serif" font-size="10.00">+ GetByIndex()</text>
</a>
</g>
</g>
<!-- Node10&#45;&gt;Node24 -->
<g id="edge37" class="edge">
<title>Node10&#45;&gt;Node24</title>
<path fill="none" stroke="orange" d="M539.74,-2163.73C481.77,-2145.49 392.41,-2111.68 328,-2061 274.29,-2018.74 228.19,-1956.04 197.28,-1907.55"/>
<polygon fill="orange" stroke="orange" points="538.89,-2167.13 549.47,-2166.73 540.95,-2160.44 538.89,-2167.13"/>
<text text-anchor="middle" x="381" y="-2082" font-family="Helvetica,sans-Serif" font-size="10.00"> &lt; int &gt;</text>
</g>
<!-- Node11&#45;&gt;Node5 -->
<g id="edge11" class="edge">
<title>Node11&#45;&gt;Node5</title>
<path fill="none" stroke="#404040" d="M660.91,-1145.57C650.72,-1156.83 640.14,-1168.33 630,-1179 610.25,-1199.79 588.8,-1221.61 568,-1242.39"/>
<polygon fill="none" stroke="#404040" points="567.94,-1242.45 566.52,-1249.52 559.44,-1250.92 560.87,-1243.85 567.94,-1242.45"/>
<text text-anchor="middle" x="637.5" y="-1200" font-family="Helvetica,sans-Serif" font-size="10.00"> +GObjects</text>
</g>
<!-- Node12 -->
<g id="node12" class="node">
<title>Node12</title>
<g id="a_node12"><a xlink:href="../../d9/dfa/structSDK_1_1FPointer.html" target="_top" xlink:title=" ">
<polygon fill="white" stroke="black" points="650,-1648 650,-1716 748,-1716 748,-1648 650,-1648"/>
<text text-anchor="middle" x="699" y="-1704" font-family="Helvetica,sans-Serif" font-size="10.00">SDK::FPointer</text>
<polyline fill="none" stroke="black" points="650,-1697 748,-1697 "/>
<text text-anchor="start" x="658" y="-1685" font-family="Helvetica,sans-Serif" font-size="10.00">+ Dummy</text>
<text text-anchor="start" x="658" y="-1674" font-family="Helvetica,sans-Serif" font-size="10.00">+ UnknownData00</text>
<polyline fill="none" stroke="black" points="650,-1667 748,-1667 "/>
<text text-anchor="middle" x="699" y="-1655" font-family="Helvetica,sans-Serif" font-size="10.00"> </text>
</a>
</g>
</g>
<!-- Node12&#45;&gt;Node5 -->
<g id="edge14" class="edge">
<title>Node12&#45;&gt;Node5</title>
<path fill="none" stroke="#404040" d="M674.99,-1647.7C646.84,-1608.66 598.48,-1541.57 554.74,-1480.9"/>
<polygon fill="none" stroke="#404040" points="554.5,-1480.57 547.75,-1478.04 547.48,-1470.84 554.23,-1473.37 554.5,-1480.57"/>
<text text-anchor="middle" x="675.5" y="-1554" font-family="Helvetica,sans-Serif" font-size="10.00"> +StateFrame</text>
<text text-anchor="middle" x="675.5" y="-1543" font-family="Helvetica,sans-Serif" font-size="10.00">+VfTableObject</text>
<text text-anchor="middle" x="675.5" y="-1532" font-family="Helvetica,sans-Serif" font-size="10.00">+LinkerIndex</text>
</g>
<!-- Node21 -->
<g id="node21" class="node">
<title>Node21</title>
<g id="a_node21"><a xlink:href="../../d6/df6/classSDK_1_1UDistributionVector.html" target="_top" xlink:title=" ">
<polygon fill="white" stroke="black" points="610.5,-327.5 610.5,-406.5 739.5,-406.5 739.5,-327.5 610.5,-327.5"/>
<text text-anchor="middle" x="675" y="-394.5" font-family="Helvetica,sans-Serif" font-size="10.00">SDK::UDistributionVector</text>
<polyline fill="none" stroke="black" points="610.5,-387.5 739.5,-387.5 "/>
<text text-anchor="start" x="618.5" y="-375.5" font-family="Helvetica,sans-Serif" font-size="10.00">+ bCanBeBaked</text>
<text text-anchor="start" x="618.5" y="-364.5" font-family="Helvetica,sans-Serif" font-size="10.00">+ bIsDirty</text>
<polyline fill="none" stroke="black" points="610.5,-357.5 739.5,-357.5 "/>
<text text-anchor="start" x="618.5" y="-345.5" font-family="Helvetica,sans-Serif" font-size="10.00">+ GetVectorValue()</text>
<text text-anchor="start" x="618.5" y="-334.5" font-family="Helvetica,sans-Serif" font-size="10.00">+ StaticClass()</text>
</a>
</g>
</g>
<!-- Node12&#45;&gt;Node21 -->
<g id="edge33" class="edge">
<title>Node12&#45;&gt;Node21</title>
<path fill="none" stroke="#404040" d="M709.12,-1647.85C739.53,-1545.23 828,-1223.21 828,-950 828,-950 828,-950 828,-472 828,-430.78 789.55,-404.75 751.2,-389.04"/>
<polygon fill="none" stroke="#404040" points="751.09,-389 744.05,-390.58 739.89,-384.69 746.92,-383.11 751.09,-389"/>
<text text-anchor="middle" x="893.5" y="-785" font-family="Helvetica,sans-Serif" font-size="10.00"> +VfTable_FCurveEdInterface</text>
</g>
<!-- Node13&#45;&gt;Node5 -->
<g id="edge15" class="edge">
<title>Node13&#45;&gt;Node5</title>
<path fill="none" stroke="#404040" d="M511.82,-639.65C514.79,-688.59 519.28,-769.9 521,-840 521.87,-875.54 531.77,-886.11 521,-920 511.44,-950.09 490.37,-948.18 480,-978 453.87,-1053.14 448.34,-1142.05 449.59,-1213.82"/>
<polygon fill="none" stroke="#404040" points="449.6,-1214.1 453.74,-1220.01 449.87,-1226.1 445.74,-1220.19 449.6,-1214.1"/>
<text text-anchor="middle" x="542.5" y="-877.5" font-family="Helvetica,sans-Serif" font-size="10.00"> +Class</text>
</g>
<!-- Node13&#45;&gt;Node22 -->
<g id="edge32" class="edge">
<title>Node13&#45;&gt;Node22</title>
<path fill="none" stroke="#404040" d="M475,-549.34C465.41,-536.88 455.06,-523.44 445.8,-511.41"/>
<polygon fill="none" stroke="#404040" points="445.64,-511.2 438.81,-508.88 438.32,-501.69 445.15,-504 445.64,-511.2"/>
<text text-anchor="middle" x="512" y="-523" font-family="Helvetica,sans-Serif" font-size="10.00"> +TemplateOwnerClass</text>
</g>
<!-- Node14 -->
<g id="node14" class="node">
<title>Node14</title>
<g id="a_node14"><a xlink:href="../../df/d72/classSDK_1_1UState.html" target="_top" xlink:title=" ">
<polygon fill="white" stroke="black" points="588,-677.5 588,-734.5 686,-734.5 686,-677.5 588,-677.5"/>
<text text-anchor="middle" x="637" y="-722.5" font-family="Helvetica,sans-Serif" font-size="10.00">SDK::UState</text>
<polyline fill="none" stroke="black" points="588,-715.5 686,-715.5 "/>
<text text-anchor="start" x="596" y="-703.5" font-family="Helvetica,sans-Serif" font-size="10.00">+ UnknownData00</text>
<polyline fill="none" stroke="black" points="588,-696.5 686,-696.5 "/>
<text text-anchor="start" x="596" y="-684.5" font-family="Helvetica,sans-Serif" font-size="10.00">+ StaticClass()</text>
</a>
</g>
</g>
<!-- Node14&#45;&gt;Node13 -->
<g id="edge16" class="edge">
<title>Node14&#45;&gt;Node13</title>
<path fill="none" stroke="midnightblue" d="M596.96,-670.75C585.48,-660.93 572.8,-650.08 560.72,-639.74"/>
<polygon fill="none" stroke="midnightblue" points="594.83,-673.53 604.7,-677.37 599.38,-668.21 594.83,-673.53"/>
</g>
<!-- Node15 -->
<g id="node15" class="node">
<title>Node15</title>
<g id="a_node15"><a xlink:href="../../d8/de9/classSDK_1_1UStruct.html" target="_top" xlink:title=" ">
<polygon fill="white" stroke="black" points="606,-840.5 606,-919.5 704,-919.5 704,-840.5 606,-840.5"/>
<text text-anchor="middle" x="655" y="-907.5" font-family="Helvetica,sans-Serif" font-size="10.00">SDK::UStruct</text>
<polyline fill="none" stroke="black" points="606,-900.5 704,-900.5 "/>
<text text-anchor="start" x="614" y="-888.5" font-family="Helvetica,sans-Serif" font-size="10.00">+ UnknownData00</text>
<text text-anchor="start" x="614" y="-877.5" font-family="Helvetica,sans-Serif" font-size="10.00">+ PropertySize</text>
<text text-anchor="start" x="614" y="-866.5" font-family="Helvetica,sans-Serif" font-size="10.00">+ UnknownData01</text>
<polyline fill="none" stroke="black" points="606,-859.5 704,-859.5 "/>
<text text-anchor="start" x="614" y="-847.5" font-family="Helvetica,sans-Serif" font-size="10.00">+ StaticClass()</text>
</a>
</g>
</g>
<!-- Node15&#45;&gt;Node14 -->
<g id="edge17" class="edge">
<title>Node15&#45;&gt;Node14</title>
<path fill="none" stroke="midnightblue" d="M649.9,-830.22C646.65,-799.22 642.57,-760.23 639.88,-734.5"/>
<polygon fill="none" stroke="midnightblue" points="646.44,-830.82 650.96,-840.4 653.4,-830.09 646.44,-830.82"/>
</g>
<!-- Node16&#45;&gt;Node15 -->
<g id="edge18" class="edge">
<title>Node16&#45;&gt;Node15</title>
<path fill="none" stroke="midnightblue" d="M553.25,-1040.95C575.19,-1006.47 607.96,-954.95 630.35,-919.76"/>
<polygon fill="none" stroke="midnightblue" points="550.06,-1039.45 547.64,-1049.76 555.96,-1043.2 550.06,-1039.45"/>
</g>
<!-- Node16&#45;&gt;Node15 -->
<g id="edge21" class="edge">
<title>Node16&#45;&gt;Node15</title>
<path fill="none" stroke="#404040" d="M525.67,-1049.8C522.49,-1019.23 522.3,-970.1 547,-938 560.13,-920.93 572.77,-929.71 592,-920 593,-919.49 594.01,-918.97 595.03,-918.45"/>
<polygon fill="none" stroke="#404040" points="595.41,-918.24 598.76,-911.85 605.94,-912.49 602.59,-918.88 595.41,-918.24"/>
<text text-anchor="middle" x="575" y="-952" font-family="Helvetica,sans-Serif" font-size="10.00"> +SuperField</text>
<text text-anchor="middle" x="575" y="-941" font-family="Helvetica,sans-Serif" font-size="10.00">+Children</text>
</g>
<!-- Node16&#45;&gt;Node16 -->
<g id="edge20" class="edge">
<title>Node16&#45;&gt;Node16</title>
<path fill="none" stroke="#404040" d="M571.71,-1101.39C581.91,-1099.69 589.5,-1092.06 589.5,-1078.5 589.5,-1070.66 586.96,-1064.8 582.85,-1060.93"/>
<polygon fill="none" stroke="#404040" points="582.54,-1060.78 575.4,-1061.81 571.71,-1055.61 578.84,-1054.59 582.54,-1060.78"/>
<text text-anchor="middle" x="605" y="-1076" font-family="Helvetica,sans-Serif" font-size="10.00"> +Next</text>
</g>
<!-- Node17 -->
<g id="node17" class="node">
<title>Node17</title>
<g id="a_node17"><a xlink:href="../../d4/daf/structSDK_1_1FColor.html" target="_top" xlink:title=" ">
<polygon fill="white" stroke="black" points="176.5,-1298 176.5,-1399 249.5,-1399 249.5,-1298 176.5,-1298"/>
<text text-anchor="middle" x="213" y="-1387" font-family="Helvetica,sans-Serif" font-size="10.00">SDK::FColor</text>
<polyline fill="none" stroke="black" points="176.5,-1380 249.5,-1380 "/>
<text text-anchor="start" x="184.5" y="-1368" font-family="Helvetica,sans-Serif" font-size="10.00">+ B</text>
<text text-anchor="start" x="184.5" y="-1357" font-family="Helvetica,sans-Serif" font-size="10.00">+ G</text>
<text text-anchor="start" x="184.5" y="-1346" font-family="Helvetica,sans-Serif" font-size="10.00">+ R</text>
<text text-anchor="start" x="184.5" y="-1335" font-family="Helvetica,sans-Serif" font-size="10.00">+ A</text>
<polyline fill="none" stroke="black" points="176.5,-1328 249.5,-1328 "/>
<text text-anchor="start" x="184.5" y="-1316" font-family="Helvetica,sans-Serif" font-size="10.00">+ FColor()</text>
<text text-anchor="start" x="184.5" y="-1305" font-family="Helvetica,sans-Serif" font-size="10.00">+ FColor()</text>
</a>
</g>
</g>
<!-- Node17&#45;&gt;Node4 -->
<g id="edge23" class="edge">
<title>Node17&#45;&gt;Node4</title>
<path fill="none" stroke="#404040" d="M200.63,-1297.81C194.65,-1271.34 188.11,-1238.1 185,-1208 184.41,-1202.33 183.94,-1196.52 183.55,-1190.64"/>
<polygon fill="none" stroke="#404040" points="183.54,-1190.51 179.22,-1184.74 182.88,-1178.52 187.2,-1184.29 183.54,-1190.51"/>
<text text-anchor="middle" x="230" y="-1200" font-family="Helvetica,sans-Serif" font-size="10.00"> +ModuleEditorColor</text>
</g>
<!-- Node18 -->
<g id="node18" class="node">
<title>Node18</title>
<g id="a_node18"><a xlink:href="../../dd/d23/structSDK_1_1FRawDistributionVector.html" target="_top" xlink:title=" ">
<polygon fill="white" stroke="black" points="601,-222.5 601,-279.5 749,-279.5 749,-222.5 601,-222.5"/>
<text text-anchor="middle" x="675" y="-267.5" font-family="Helvetica,sans-Serif" font-size="10.00">SDK::FRawDistributionVector</text>
<polyline fill="none" stroke="black" points="601,-260.5 749,-260.5 "/>
<text text-anchor="middle" x="675" y="-248.5" font-family="Helvetica,sans-Serif" font-size="10.00"> </text>
<polyline fill="none" stroke="black" points="601,-241.5 749,-241.5 "/>
<text text-anchor="middle" x="675" y="-229.5" font-family="Helvetica,sans-Serif" font-size="10.00"> </text>
</a>
</g>
</g>
<!-- Node18&#45;&gt;Node2 -->
<g id="edge24" class="edge">
<title>Node18&#45;&gt;Node2</title>
<path fill="none" stroke="#404040" d="M600.78,-233.7C510.11,-213.78 357.23,-180.21 263.12,-159.54"/>
<polygon fill="none" stroke="#404040" points="263.09,-159.53 256.38,-162.15 251.37,-156.96 258.09,-154.34 263.09,-159.53"/>
<text text-anchor="middle" x="501" y="-196" font-family="Helvetica,sans-Serif" font-size="10.00"> +StartRotationRate</text>
</g>
<!-- Node19 -->
<g id="node19" class="node">
<title>Node19</title>
<g id="a_node19"><a xlink:href="../../dc/d37/structSDK_1_1FRawDistribution.html" target="_top" xlink:title=" ">
<polygon fill="white" stroke="black" points="902.5,-1489.5 902.5,-1601.5 1045.5,-1601.5 1045.5,-1489.5 902.5,-1489.5"/>
<text text-anchor="middle" x="974" y="-1589.5" font-family="Helvetica,sans-Serif" font-size="10.00">SDK::FRawDistribution</text>
<polyline fill="none" stroke="black" points="902.5,-1582.5 1045.5,-1582.5 "/>
<text text-anchor="start" x="910.5" y="-1570.5" font-family="Helvetica,sans-Serif" font-size="10.00">+ Type</text>
<text text-anchor="start" x="910.5" y="-1559.5" font-family="Helvetica,sans-Serif" font-size="10.00">+ Op</text>
<text text-anchor="start" x="910.5" y="-1548.5" font-family="Helvetica,sans-Serif" font-size="10.00">+ LookupTableNumElements</text>
<text text-anchor="start" x="910.5" y="-1537.5" font-family="Helvetica,sans-Serif" font-size="10.00">+ LookupTableChunkSize</text>
<text text-anchor="start" x="910.5" y="-1526.5" font-family="Helvetica,sans-Serif" font-size="10.00">+ LookupTableTimeScale</text>
<text text-anchor="start" x="910.5" y="-1515.5" font-family="Helvetica,sans-Serif" font-size="10.00">+ LookupTableStartTime</text>
<polyline fill="none" stroke="black" points="902.5,-1508.5 1045.5,-1508.5 "/>
<text text-anchor="middle" x="974" y="-1496.5" font-family="Helvetica,sans-Serif" font-size="10.00"> </text>
</a>
</g>
</g>
<!-- Node19&#45;&gt;Node18 -->
<g id="edge25" class="edge">
<title>Node19&#45;&gt;Node18</title>
<path fill="none" stroke="midnightblue" d="M974,-1479.05C974,-1410.4 974,-1299.37 974,-1203.5 974,-1203.5 974,-1203.5 974,-366 974,-318.01 837.85,-282.88 749.29,-265.1"/>
<polygon fill="none" stroke="midnightblue" points="970.5,-1479.28 974,-1489.28 977.5,-1479.28 970.5,-1479.28"/>
</g>
<!-- Node20&#45;&gt;Node19 -->
<g id="edge26" class="edge">
<title>Node20&#45;&gt;Node19</title>
<path fill="none" stroke="#404040" d="M952.24,-1762.19C956.83,-1716.74 962.72,-1658.35 967.21,-1613.79"/>
<polygon fill="none" stroke="#404040" points="967.24,-1613.55 963.86,-1607.18 968.44,-1601.61 971.82,-1607.98 967.24,-1613.55"/>
<text text-anchor="middle" x="998.5" y="-1679.5" font-family="Helvetica,sans-Serif" font-size="10.00"> +LookupTable</text>
</g>
<!-- Node21&#45;&gt;Node18 -->
<g id="edge28" class="edge">
<title>Node21&#45;&gt;Node18</title>
<path fill="none" stroke="#404040" d="M675,-327.4C675,-315.93 675,-303.33 675,-291.78"/>
<polygon fill="none" stroke="#404040" points="675,-291.75 671,-285.75 675,-279.75 679,-285.75 675,-291.75"/>
<text text-anchor="middle" x="704.5" y="-301" font-family="Helvetica,sans-Serif" font-size="10.00"> +Distribution</text>
</g>
<!-- Node22&#45;&gt;Node21 -->
<g id="edge29" class="edge">
<title>Node22&#45;&gt;Node21</title>
<path fill="none" stroke="midnightblue" d="M477.01,-447.81C516.94,-431.71 569.36,-410.58 610.23,-394.11"/>
<polygon fill="none" stroke="midnightblue" points="475.63,-444.59 467.66,-451.58 478.25,-451.08 475.63,-444.59"/>
</g>
<!-- Node23&#45;&gt;Node1 -->
<g id="edge34" class="edge">
<title>Node23&#45;&gt;Node1</title>
<path fill="none" stroke="#404040" d="M79,-1303.4C79,-1250.28 79,-1158.36 79,-1079.5 79,-1079.5 79,-1079.5 79,-139.5 79,-120.15 81.07,-98.92 83.5,-80.71"/>
<polygon fill="none" stroke="#404040" points="83.52,-80.52 80.41,-74.02 85.21,-68.64 88.33,-75.14 83.52,-80.52"/>
<text text-anchor="middle" x="121.5" y="-523" font-family="Helvetica,sans-Serif" font-size="10.00"> +RandomSeedInfo</text>
</g>
<!-- Node24&#45;&gt;Node23 -->
<g id="edge36" class="edge">
<title>Node24&#45;&gt;Node23</title>
<path fill="none" stroke="#404040" d="M144.6,-1762.25C129.16,-1665.14 101.95,-1493.88 87.92,-1405.6"/>
<polygon fill="none" stroke="#404040" points="87.91,-1405.57 83.02,-1400.27 86.03,-1393.71 90.92,-1399.01 87.91,-1405.57"/>
<text text-anchor="middle" x="178" y="-1679.5" font-family="Helvetica,sans-Serif" font-size="10.00"> +RandomSeeds</text>
</g>
</g>
</svg>
