<?xml version="1.0" encoding="UTF-8" standalone="no"?>
<!DOCTYPE svg PUBLIC "-//W3C//DTD SVG 1.1//EN"
 "http://www.w3.org/Graphics/SVG/1.1/DTD/svg11.dtd">
<!-- Generated by graphviz version 2.41.20171026.1811 (20171026.1811)
 -->
<!-- Title: SDK::UActorFactoryAmbientSoundSimpleToggleable Pages: 1 -->
<svg width="206pt" height="860pt"
 viewBox="0.00 0.00 206.00 860.00" xmlns="http://www.w3.org/2000/svg" xmlns:xlink="http://www.w3.org/1999/xlink">
<g id="graph0" class="graph" transform="scale(1 1) rotate(0) translate(4 856)">
<title>SDK::UActorFactoryAmbientSoundSimpleToggleable</title>
<polygon fill="white" stroke="transparent" points="-4,4 -4,-856 202,-856 202,4 -4,4"/>
<!-- Node1 -->
<g id="node1" class="node">
<title>Node1</title>
<g id="a_node1"><a xlink:title=" ">
<polygon fill="#bfbfbf" stroke="black" points="27.5,-105.5 27.5,-173.5 170.5,-173.5 170.5,-105.5 27.5,-105.5"/>
<text text-anchor="start" x="35.5" y="-161.5" font-family="Helvetica,sans-Serif" font-size="10.00">SDK::UActorFactoryAmbient</text>
<text text-anchor="middle" x="99" y="-150.5" font-family="Helvetica,sans-Serif" font-size="10.00">SoundSimpleToggleable</text>
<polyline fill="none" stroke="black" points="27.5,-143.5 170.5,-143.5 "/>
<text text-anchor="middle" x="99" y="-131.5" font-family="Helvetica,sans-Serif" font-size="10.00"> </text>
<polyline fill="none" stroke="black" points="27.5,-124.5 170.5,-124.5 "/>
<text text-anchor="start" x="35.5" y="-112.5" font-family="Helvetica,sans-Serif" font-size="10.00">+ StaticClass()</text>
</a>
</g>
</g>
<!-- Node5 -->
<g id="node5" class="node">
<title>Node5</title>
<g id="a_node5"><a xlink:href="../../da/df3/classSDK_1_1UActorFactoryAmbientSoundNonLoopingToggleable.html" target="_top" xlink:title=" ">
<polygon fill="white" stroke="black" points="27.5,-0.5 27.5,-68.5 170.5,-68.5 170.5,-0.5 27.5,-0.5"/>
<text text-anchor="start" x="35.5" y="-56.5" font-family="Helvetica,sans-Serif" font-size="10.00">SDK::UActorFactoryAmbient</text>
<text text-anchor="middle" x="99" y="-45.5" font-family="Helvetica,sans-Serif" font-size="10.00">SoundNonLoopingToggleable</text>
<polyline fill="none" stroke="black" points="27.5,-38.5 170.5,-38.5 "/>
<text text-anchor="middle" x="99" y="-26.5" font-family="Helvetica,sans-Serif" font-size="10.00"> </text>
<polyline fill="none" stroke="black" points="27.5,-19.5 170.5,-19.5 "/>
<text text-anchor="start" x="35.5" y="-7.5" font-family="Helvetica,sans-Serif" font-size="10.00">+ StaticClass()</text>
</a>
</g>
</g>
<!-- Node1&#45;&gt;Node5 -->
<g id="edge4" class="edge">
<title>Node1&#45;&gt;Node5</title>
<path fill="none" stroke="midnightblue" d="M99,-95.14C99,-86.26 99,-77.04 99,-68.59"/>
<polygon fill="none" stroke="midnightblue" points="95.5,-95.34 99,-105.34 102.5,-95.34 95.5,-95.34"/>
</g>
<!-- Node2 -->
<g id="node2" class="node">
<title>Node2</title>
<g id="a_node2"><a xlink:href="../../df/d41/classSDK_1_1UActorFactoryAmbientSoundSimple.html" target="_top" xlink:title=" ">
<polygon fill="white" stroke="black" points="27.5,-210.5 27.5,-278.5 170.5,-278.5 170.5,-210.5 27.5,-210.5"/>
<text text-anchor="start" x="35.5" y="-266.5" font-family="Helvetica,sans-Serif" font-size="10.00">SDK::UActorFactoryAmbient</text>
<text text-anchor="middle" x="99" y="-255.5" font-family="Helvetica,sans-Serif" font-size="10.00">SoundSimple</text>
<polyline fill="none" stroke="black" points="27.5,-248.5 170.5,-248.5 "/>
<text text-anchor="start" x="35.5" y="-236.5" font-family="Helvetica,sans-Serif" font-size="10.00">+ SoundNodeWave</text>
<polyline fill="none" stroke="black" points="27.5,-229.5 170.5,-229.5 "/>
<text text-anchor="start" x="35.5" y="-217.5" font-family="Helvetica,sans-Serif" font-size="10.00">+ StaticClass()</text>
</a>
</g>
</g>
<!-- Node2&#45;&gt;Node1 -->
<g id="edge1" class="edge">
<title>Node2&#45;&gt;Node1</title>
<path fill="none" stroke="midnightblue" d="M99,-200.14C99,-191.26 99,-182.04 99,-173.59"/>
<polygon fill="none" stroke="midnightblue" points="95.5,-200.34 99,-210.34 102.5,-200.34 95.5,-200.34"/>
</g>
<!-- Node3 -->
<g id="node3" class="node">
<title>Node3</title>
<g id="a_node3"><a xlink:href="../../d8/d94/classSDK_1_1UActorFactory.html" target="_top" xlink:title=" ">
<polygon fill="white" stroke="black" points="29.5,-315.5 29.5,-460.5 168.5,-460.5 168.5,-315.5 29.5,-315.5"/>
<text text-anchor="middle" x="99" y="-448.5" font-family="Helvetica,sans-Serif" font-size="10.00">SDK::UActorFactory</text>
<polyline fill="none" stroke="black" points="29.5,-441.5 168.5,-441.5 "/>
<text text-anchor="start" x="37.5" y="-429.5" font-family="Helvetica,sans-Serif" font-size="10.00">+ GameplayActorClass</text>
<text text-anchor="start" x="37.5" y="-418.5" font-family="Helvetica,sans-Serif" font-size="10.00">+ MenuName</text>
<text text-anchor="start" x="37.5" y="-407.5" font-family="Helvetica,sans-Serif" font-size="10.00">+ MenuPriority</text>
<text text-anchor="start" x="37.5" y="-396.5" font-family="Helvetica,sans-Serif" font-size="10.00">+ AlternateMenuPriority</text>
<text text-anchor="start" x="37.5" y="-385.5" font-family="Helvetica,sans-Serif" font-size="10.00">+ NewActorClassName</text>
<text text-anchor="start" x="37.5" y="-374.5" font-family="Helvetica,sans-Serif" font-size="10.00">+ NewActorClass</text>
<text text-anchor="start" x="37.5" y="-363.5" font-family="Helvetica,sans-Serif" font-size="10.00">+ bPlaceable</text>
<text text-anchor="start" x="37.5" y="-352.5" font-family="Helvetica,sans-Serif" font-size="10.00">+ bShowInEditorQuickMenu</text>
<polyline fill="none" stroke="black" points="29.5,-345.5 168.5,-345.5 "/>
<text text-anchor="start" x="37.5" y="-333.5" font-family="Helvetica,sans-Serif" font-size="10.00">+ PostCreateActor()</text>
<text text-anchor="start" x="37.5" y="-322.5" font-family="Helvetica,sans-Serif" font-size="10.00">+ StaticClass()</text>
</a>
</g>
</g>
<!-- Node3&#45;&gt;Node2 -->
<g id="edge2" class="edge">
<title>Node3&#45;&gt;Node2</title>
<path fill="none" stroke="midnightblue" d="M99,-305.19C99,-295.83 99,-286.73 99,-278.58"/>
<polygon fill="none" stroke="midnightblue" points="95.5,-305.42 99,-315.42 102.5,-305.42 95.5,-305.42"/>
</g>
<!-- Node4 -->
<g id="node4" class="node">
<title>Node4</title>
<g id="a_node4"><a xlink:href="../../d9/d45/classSDK_1_1UObject.html" target="_top" xlink:title=" ">
<polygon fill="white" stroke="black" points="0,-497.5 0,-851.5 198,-851.5 198,-497.5 0,-497.5"/>
<text text-anchor="middle" x="99" y="-839.5" font-family="Helvetica,sans-Serif" font-size="10.00">SDK::UObject</text>
<polyline fill="none" stroke="black" points="0,-832.5 198,-832.5 "/>
<text text-anchor="start" x="8" y="-820.5" font-family="Helvetica,sans-Serif" font-size="10.00">+ VfTableObject</text>
<text text-anchor="start" x="8" y="-809.5" font-family="Helvetica,sans-Serif" font-size="10.00">+ ObjectFlags</text>
<text text-anchor="start" x="8" y="-798.5" font-family="Helvetica,sans-Serif" font-size="10.00">+ StateFrame</text>
<text text-anchor="start" x="8" y="-787.5" font-family="Helvetica,sans-Serif" font-size="10.00">+ Linker</text>
<text text-anchor="start" x="8" y="-776.5" font-family="Helvetica,sans-Serif" font-size="10.00">+ LinkerIndex</text>
<text text-anchor="start" x="8" y="-765.5" font-family="Helvetica,sans-Serif" font-size="10.00">+ ObjectInternalInteger</text>
<text text-anchor="start" x="8" y="-754.5" font-family="Helvetica,sans-Serif" font-size="10.00">+ NetIndex</text>
<text text-anchor="start" x="8" y="-743.5" font-family="Helvetica,sans-Serif" font-size="10.00">+ Outer</text>
<text text-anchor="start" x="8" y="-732.5" font-family="Helvetica,sans-Serif" font-size="10.00">+ Name</text>
<text text-anchor="start" x="8" y="-721.5" font-family="Helvetica,sans-Serif" font-size="10.00">+ Class</text>
<text text-anchor="start" x="8" y="-710.5" font-family="Helvetica,sans-Serif" font-size="10.00">+ ObjectArchetype</text>
<text text-anchor="start" x="8" y="-699.5" font-family="Helvetica,sans-Serif" font-size="10.00">+ GObjects</text>
<polyline fill="none" stroke="black" points="0,-692.5 198,-692.5 "/>
<text text-anchor="start" x="8" y="-680.5" font-family="Helvetica,sans-Serif" font-size="10.00">+ UObject::GetName()</text>
<text text-anchor="start" x="8" y="-669.5" font-family="Helvetica,sans-Serif" font-size="10.00">+ GetFullName()</text>
<text text-anchor="start" x="8" y="-658.5" font-family="Helvetica,sans-Serif" font-size="10.00">+ IsA()</text>
<text text-anchor="start" x="8" y="-647.5" font-family="Helvetica,sans-Serif" font-size="10.00">+ ProcessEvent()</text>
<text text-anchor="start" x="8" y="-636.5" font-family="Helvetica,sans-Serif" font-size="10.00">+ STATIC_ProfNodeEvent()</text>
<text text-anchor="start" x="8" y="-625.5" font-family="Helvetica,sans-Serif" font-size="10.00">+ STATIC_ProfNodeSetDepthThreshold()</text>
<text text-anchor="start" x="8" y="-614.5" font-family="Helvetica,sans-Serif" font-size="10.00">+ STATIC_ProfNodeSetTimeThreshold</text>
<text text-anchor="start" x="8" y="-603.5" font-family="Helvetica,sans-Serif" font-size="10.00">Seconds()</text>
<text text-anchor="start" x="8" y="-592.5" font-family="Helvetica,sans-Serif" font-size="10.00">+ STATIC_ProfNodeStop()</text>
<text text-anchor="start" x="8" y="-581.5" font-family="Helvetica,sans-Serif" font-size="10.00">+ STATIC_ProfNodeStart()</text>
<text text-anchor="start" x="8" y="-570.5" font-family="Helvetica,sans-Serif" font-size="10.00">+ STATIC_GetStringFromGuid()</text>
<text text-anchor="start" x="8" y="-559.5" font-family="Helvetica,sans-Serif" font-size="10.00">and 298 more...</text>
<text text-anchor="start" x="8" y="-548.5" font-family="Helvetica,sans-Serif" font-size="10.00">+ GetGlobalObjects()</text>
<text text-anchor="start" x="8" y="-537.5" font-family="Helvetica,sans-Serif" font-size="10.00">+ FindObject()</text>
<text text-anchor="start" x="8" y="-526.5" font-family="Helvetica,sans-Serif" font-size="10.00">+ FindClass()</text>
<text text-anchor="start" x="8" y="-515.5" font-family="Helvetica,sans-Serif" font-size="10.00">+ GetObjectCasted()</text>
<text text-anchor="start" x="8" y="-504.5" font-family="Helvetica,sans-Serif" font-size="10.00">+ StaticClass()</text>
</a>
</g>
</g>
<!-- Node4&#45;&gt;Node3 -->
<g id="edge3" class="edge">
<title>Node4&#45;&gt;Node3</title>
<path fill="none" stroke="midnightblue" d="M99,-487.31C99,-478.14 99,-469.23 99,-460.77"/>
<polygon fill="none" stroke="midnightblue" points="95.5,-487.37 99,-497.37 102.5,-487.37 95.5,-487.37"/>
</g>
</g>
</svg>
