<?xml version="1.0" encoding="UTF-8" standalone="no"?>
<!DOCTYPE svg PUBLIC "-//W3C//DTD SVG 1.1//EN"
 "http://www.w3.org/Graphics/SVG/1.1/DTD/svg11.dtd">
<!-- Generated by graphviz version 2.41.20171026.1811 (20171026.1811)
 -->
<!-- Title: SDK::UEFInterpTrackInstAnimNodeBlendWeight Pages: 1 -->
<!--zoomable 1375 -->
<svg id="main" version="1.1" xmlns="http://www.w3.org/2000/svg" xmlns:xlink="http://www.w3.org/1999/xlink" xml:space="preserve" onload="init(evt)">
<style type="text/css"><![CDATA[
.edge:hover path { stroke: red; }
.edge:hover polygon { stroke: red; fill: red; }
]]></style>
<script type="text/javascript"><![CDATA[
var edges = document.getElementsByTagName('g');
if (edges && edges.length) {
  for (var i=0;i<edges.length;i++) {
    if (edges[i].id.substr(0,4)=='edge') {
      edges[i].setAttribute('class','edge');
    }
  }
}
]]></script>
        <defs>
                <circle id="rim" cx="0" cy="0" r="7"/>
                <circle id="rim2" cx="0" cy="0" r="3.5"/>
                <g id="zoomPlus">
                        <use xlink:href="#rim" fill="#404040">
                                <set attributeName="fill" to="#808080" begin="zoomplus.mouseover" end="zoomplus.mouseout"/>
                        </use>
                        <path d="M-4,0h8M0,-4v8" fill="none" stroke="white" stroke-width="1.5" pointer-events="none"/>
                </g>
                <g id="zoomMin">
                        <use xlink:href="#rim" fill="#404040">
                                <set attributeName="fill" to="#808080" begin="zoomminus.mouseover" end="zoomminus.mouseout"/>
                        </use>
                        <path d="M-4,0h8" fill="none" stroke="white" stroke-width="1.5" pointer-events="none"/>
                </g>
                <g id="dirArrow">
                        <path fill="none" stroke="white" stroke-width="1.5" d="M0,-3.0v7 M-2.5,-0.5L0,-3.0L2.5,-0.5"/>
                </g>
               <g id="resetDef">
                       <use xlink:href="#rim2" fill="#404040">
                               <set attributeName="fill" to="#808080" begin="reset.mouseover" end="reset.mouseout"/>
                       </use>
               </g>
        </defs>

<script type="text/javascript">
var viewWidth = 624;
var viewHeight = 1375;
var sectionId = 'dynsection-1';
</script>
<script xlink:href="../../svgpan.js"/>
<svg id="graph" class="graph">
<g id="viewport">
<title>SDK::UEFInterpTrackInstAnimNodeBlendWeight</title>
<polygon fill="white" stroke="transparent" points="-4,4 -4,-1371 620,-1371 620,4 -4,4"/>
<!-- Node1 -->
<g id="node1" class="node">
<title>Node1</title>
<g id="a_node1"><a xlink:title=" ">
<polygon fill="#bfbfbf" stroke="black" points="122.5,-128.5 122.5,-196.5 274.5,-196.5 274.5,-128.5 122.5,-128.5"/>
<text text-anchor="start" x="130.5" y="-184.5" font-family="Helvetica,sans-Serif" font-size="10.00">SDK::UEFInterpTrackInstAnim</text>
<text text-anchor="middle" x="198.5" y="-173.5" font-family="Helvetica,sans-Serif" font-size="10.00">NodeBlendWeight</text>
<polyline fill="none" stroke="black" points="122.5,-166.5 274.5,-166.5 "/>
<text text-anchor="middle" x="198.5" y="-154.5" font-family="Helvetica,sans-Serif" font-size="10.00"> </text>
<polyline fill="none" stroke="black" points="122.5,-147.5 274.5,-147.5 "/>
<text text-anchor="start" x="130.5" y="-135.5" font-family="Helvetica,sans-Serif" font-size="10.00">+ StaticClass()</text>
</a>
</g>
</g>
<!-- Node2 -->
<g id="node2" class="node">
<title>Node2</title>
<g id="a_node2"><a xlink:href="../../dc/dff/classSDK_1_1UInterpTrackInstSkelControlStrength.html" target="_top" xlink:title=" ">
<polygon fill="white" stroke="black" points="108.5,-240 108.5,-308 288.5,-308 288.5,-240 108.5,-240"/>
<text text-anchor="start" x="116.5" y="-296" font-family="Helvetica,sans-Serif" font-size="10.00">SDK::UInterpTrackInstSkel</text>
<text text-anchor="middle" x="198.5" y="-285" font-family="Helvetica,sans-Serif" font-size="10.00">ControlStrength</text>
<polyline fill="none" stroke="black" points="108.5,-278 288.5,-278 "/>
<text text-anchor="start" x="116.5" y="-266" font-family="Helvetica,sans-Serif" font-size="10.00">+ bSavedControlledByAnimMetaData</text>
<polyline fill="none" stroke="black" points="108.5,-259 288.5,-259 "/>
<text text-anchor="start" x="116.5" y="-247" font-family="Helvetica,sans-Serif" font-size="10.00">+ StaticClass()</text>
</a>
</g>
</g>
<!-- Node2&#45;&gt;Node1 -->
<g id="edge1" class="edge">
<title>Node2&#45;&gt;Node1</title>
<path fill="none" stroke="midnightblue" d="M198.5,-229.56C198.5,-218.56 198.5,-206.93 198.5,-196.54"/>
<polygon fill="none" stroke="midnightblue" points="195,-229.85 198.5,-239.85 202,-229.85 195,-229.85"/>
</g>
<!-- Node3 -->
<g id="node3" class="node">
<title>Node3</title>
<g id="a_node3"><a xlink:href="../../d8/d3d/classSDK_1_1UInterpTrackInst.html" target="_top" xlink:title=" ">
<polygon fill="white" stroke="black" points="179,-411 179,-468 296,-468 296,-411 179,-411"/>
<text text-anchor="middle" x="237.5" y="-456" font-family="Helvetica,sans-Serif" font-size="10.00">SDK::UInterpTrackInst</text>
<polyline fill="none" stroke="black" points="179,-449 296,-449 "/>
<text text-anchor="middle" x="237.5" y="-437" font-family="Helvetica,sans-Serif" font-size="10.00"> </text>
<polyline fill="none" stroke="black" points="179,-430 296,-430 "/>
<text text-anchor="start" x="187" y="-418" font-family="Helvetica,sans-Serif" font-size="10.00">+ StaticClass()</text>
</a>
</g>
</g>
<!-- Node3&#45;&gt;Node2 -->
<g id="edge2" class="edge">
<title>Node3&#45;&gt;Node2</title>
<path fill="none" stroke="midnightblue" d="M228.54,-400.94C221.87,-372.97 212.84,-335.12 206.43,-308.24"/>
<polygon fill="none" stroke="midnightblue" points="225.16,-401.85 230.88,-410.76 231.97,-400.23 225.16,-401.85"/>
</g>
<!-- Node4 -->
<g id="node4" class="node">
<title>Node4</title>
<g id="a_node4"><a xlink:href="../../d9/d45/classSDK_1_1UObject.html" target="_top" xlink:title=" ">
<polygon fill="white" stroke="black" points="225.5,-554.5 225.5,-798.5 423.5,-798.5 423.5,-554.5 225.5,-554.5"/>
<text text-anchor="middle" x="324.5" y="-786.5" font-family="Helvetica,sans-Serif" font-size="10.00">SDK::UObject</text>
<polyline fill="none" stroke="black" points="225.5,-779.5 423.5,-779.5 "/>
<text text-anchor="start" x="233.5" y="-767.5" font-family="Helvetica,sans-Serif" font-size="10.00">+ ObjectInternalInteger</text>
<text text-anchor="start" x="233.5" y="-756.5" font-family="Helvetica,sans-Serif" font-size="10.00">+ NetIndex</text>
<polyline fill="none" stroke="black" points="225.5,-749.5 423.5,-749.5 "/>
<text text-anchor="start" x="233.5" y="-737.5" font-family="Helvetica,sans-Serif" font-size="10.00">+ UObject::GetName()</text>
<text text-anchor="start" x="233.5" y="-726.5" font-family="Helvetica,sans-Serif" font-size="10.00">+ GetFullName()</text>
<text text-anchor="start" x="233.5" y="-715.5" font-family="Helvetica,sans-Serif" font-size="10.00">+ IsA()</text>
<text text-anchor="start" x="233.5" y="-704.5" font-family="Helvetica,sans-Serif" font-size="10.00">+ ProcessEvent()</text>
<text text-anchor="start" x="233.5" y="-693.5" font-family="Helvetica,sans-Serif" font-size="10.00">+ STATIC_ProfNodeEvent()</text>
<text text-anchor="start" x="233.5" y="-682.5" font-family="Helvetica,sans-Serif" font-size="10.00">+ STATIC_ProfNodeSetDepthThreshold()</text>
<text text-anchor="start" x="233.5" y="-671.5" font-family="Helvetica,sans-Serif" font-size="10.00">+ STATIC_ProfNodeSetTimeThreshold</text>
<text text-anchor="start" x="233.5" y="-660.5" font-family="Helvetica,sans-Serif" font-size="10.00">Seconds()</text>
<text text-anchor="start" x="233.5" y="-649.5" font-family="Helvetica,sans-Serif" font-size="10.00">+ STATIC_ProfNodeStop()</text>
<text text-anchor="start" x="233.5" y="-638.5" font-family="Helvetica,sans-Serif" font-size="10.00">+ STATIC_ProfNodeStart()</text>
<text text-anchor="start" x="233.5" y="-627.5" font-family="Helvetica,sans-Serif" font-size="10.00">+ STATIC_GetStringFromGuid()</text>
<text text-anchor="start" x="233.5" y="-616.5" font-family="Helvetica,sans-Serif" font-size="10.00">and 298 more...</text>
<text text-anchor="start" x="233.5" y="-605.5" font-family="Helvetica,sans-Serif" font-size="10.00">+ GetGlobalObjects()</text>
<text text-anchor="start" x="233.5" y="-594.5" font-family="Helvetica,sans-Serif" font-size="10.00">+ FindObject()</text>
<text text-anchor="start" x="233.5" y="-583.5" font-family="Helvetica,sans-Serif" font-size="10.00">+ FindClass()</text>
<text text-anchor="start" x="233.5" y="-572.5" font-family="Helvetica,sans-Serif" font-size="10.00">+ GetObjectCasted()</text>
<text text-anchor="start" x="233.5" y="-561.5" font-family="Helvetica,sans-Serif" font-size="10.00">+ StaticClass()</text>
</a>
</g>
</g>
<!-- Node4&#45;&gt;Node3 -->
<g id="edge3" class="edge">
<title>Node4&#45;&gt;Node3</title>
<path fill="none" stroke="midnightblue" d="M276.1,-544.76C265.36,-515.75 255.02,-487.83 247.75,-468.19"/>
<polygon fill="none" stroke="midnightblue" points="272.84,-546.05 279.6,-554.21 279.41,-543.62 272.84,-546.05"/>
</g>
<!-- Node4&#45;&gt;Node4 -->
<g id="edge9" class="edge">
<title>Node4&#45;&gt;Node4</title>
<path fill="none" stroke="#404040" d="M423.51,-699.53C434.44,-695.15 441.5,-687.48 441.5,-676.5 441.5,-669.64 438.74,-664.07 434.01,-659.78"/>
<polygon fill="none" stroke="#404040" points="433.8,-659.66 426.59,-659.99 423.51,-653.47 430.72,-653.14 433.8,-659.66"/>
<text text-anchor="middle" x="481" y="-685" font-family="Helvetica,sans-Serif" font-size="10.00"> +Outer</text>
<text text-anchor="middle" x="481" y="-674" font-family="Helvetica,sans-Serif" font-size="10.00">+Linker</text>
<text text-anchor="middle" x="481" y="-663" font-family="Helvetica,sans-Serif" font-size="10.00">+ObjectArchetype</text>
</g>
<!-- Node10 -->
<g id="node10" class="node">
<title>Node10</title>
<g id="a_node10"><a xlink:href="../../d3/d79/classSDK_1_1TArray.html" target="_top" xlink:title=" ">
<polygon fill="white" stroke="black" points="0,-372.5 0,-506.5 161,-506.5 161,-372.5 0,-372.5"/>
<text text-anchor="middle" x="80.5" y="-494.5" font-family="Helvetica,sans-Serif" font-size="10.00">SDK::TArray&lt; SDK::UObject * &gt;</text>
<polyline fill="none" stroke="black" points="0,-487.5 161,-487.5 "/>
<text text-anchor="start" x="8" y="-475.5" font-family="Helvetica,sans-Serif" font-size="10.00">&#45; Count</text>
<text text-anchor="start" x="8" y="-464.5" font-family="Helvetica,sans-Serif" font-size="10.00">&#45; Max</text>
<polyline fill="none" stroke="black" points="0,-457.5 161,-457.5 "/>
<text text-anchor="start" x="8" y="-445.5" font-family="Helvetica,sans-Serif" font-size="10.00">+ TArray()</text>
<text text-anchor="start" x="8" y="-434.5" font-family="Helvetica,sans-Serif" font-size="10.00">+ Num()</text>
<text text-anchor="start" x="8" y="-423.5" font-family="Helvetica,sans-Serif" font-size="10.00">+ operator[]()</text>
<text text-anchor="start" x="8" y="-412.5" font-family="Helvetica,sans-Serif" font-size="10.00">+ operator[]()</text>
<text text-anchor="start" x="8" y="-401.5" font-family="Helvetica,sans-Serif" font-size="10.00">+ IsValidIndex()</text>
<text text-anchor="start" x="8" y="-390.5" font-family="Helvetica,sans-Serif" font-size="10.00">+ GetByIndex()</text>
<text text-anchor="start" x="8" y="-379.5" font-family="Helvetica,sans-Serif" font-size="10.00">+ GetByIndex()</text>
</a>
</g>
</g>
<!-- Node4&#45;&gt;Node10 -->
<g id="edge11" class="edge">
<title>Node4&#45;&gt;Node10</title>
<path fill="none" stroke="#404040" d="M225.11,-609.69C196.36,-588.11 166.12,-562.75 141.5,-536 135.99,-530.02 130.68,-523.48 125.63,-516.72"/>
<polygon fill="none" stroke="#404040" points="125.44,-516.45 118.69,-513.9 118.44,-506.7 125.19,-509.24 125.44,-516.45"/>
<text text-anchor="middle" x="155.5" y="-528" font-family="Helvetica,sans-Serif" font-size="10.00"> &#45;Data</text>
</g>
<!-- Node12 -->
<g id="node12" class="node">
<title>Node12</title>
<g id="a_node12"><a xlink:href="../../d7/d85/classSDK_1_1UClass.html" target="_top" xlink:title=" ">
<polygon fill="white" stroke="black" points="395,-0.5 395,-90.5 516,-90.5 516,-0.5 395,-0.5"/>
<text text-anchor="middle" x="455.5" y="-78.5" font-family="Helvetica,sans-Serif" font-size="10.00">SDK::UClass</text>
<polyline fill="none" stroke="black" points="395,-71.5 516,-71.5 "/>
<text text-anchor="start" x="403" y="-59.5" font-family="Helvetica,sans-Serif" font-size="10.00">+ UnknownData00</text>
<text text-anchor="start" x="403" y="-48.5" font-family="Helvetica,sans-Serif" font-size="10.00">+ UnknownData01</text>
<polyline fill="none" stroke="black" points="395,-41.5 516,-41.5 "/>
<text text-anchor="start" x="403" y="-29.5" font-family="Helvetica,sans-Serif" font-size="10.00">+ CreateDefaultObject()</text>
<text text-anchor="start" x="403" y="-18.5" font-family="Helvetica,sans-Serif" font-size="10.00">+ CreateDefaultObject()</text>
<text text-anchor="start" x="403" y="-7.5" font-family="Helvetica,sans-Serif" font-size="10.00">+ StaticClass()</text>
</a>
</g>
</g>
<!-- Node4&#45;&gt;Node12 -->
<g id="edge21" class="edge">
<title>Node4&#45;&gt;Node12</title>
<path fill="none" stroke="#404040" d="M324.5,-554.44C324.5,-517.83 324.5,-477.52 324.5,-440.5 324.5,-440.5 324.5,-440.5 324.5,-161.5 324.5,-124.93 353.69,-97.26 384.51,-78.24"/>
<polygon fill="none" stroke="#404040" points="384.62,-78.17 387.79,-71.69 394.98,-72.12 391.82,-78.6 384.62,-78.17"/>
<text text-anchor="middle" x="372" y="-271.5" font-family="Helvetica,sans-Serif" font-size="10.00"> +ClassDefaultObject</text>
</g>
<!-- Node15 -->
<g id="node15" class="node">
<title>Node15</title>
<g id="a_node15"><a xlink:href="../../de/dd6/classSDK_1_1UField.html" target="_top" xlink:title=" ">
<polygon fill="white" stroke="black" points="484,-411 484,-468 567,-468 567,-411 484,-411"/>
<text text-anchor="middle" x="525.5" y="-456" font-family="Helvetica,sans-Serif" font-size="10.00">SDK::UField</text>
<polyline fill="none" stroke="black" points="484,-449 567,-449 "/>
<text text-anchor="middle" x="525.5" y="-437" font-family="Helvetica,sans-Serif" font-size="10.00"> </text>
<polyline fill="none" stroke="black" points="484,-430 567,-430 "/>
<text text-anchor="start" x="492" y="-418" font-family="Helvetica,sans-Serif" font-size="10.00">+ StaticClass()</text>
</a>
</g>
</g>
<!-- Node4&#45;&gt;Node15 -->
<g id="edge18" class="edge">
<title>Node4&#45;&gt;Node15</title>
<path fill="none" stroke="midnightblue" d="M431,-579.73C444.58,-565.63 457.81,-550.83 469.5,-536 486.28,-514.72 501.56,-487.91 511.91,-468.12"/>
<polygon fill="none" stroke="midnightblue" points="428.35,-577.44 423.87,-587.04 433.36,-582.33 428.35,-577.44"/>
</g>
<!-- Node5 -->
<g id="node5" class="node">
<title>Node5</title>
<g id="a_node5"><a xlink:href="../../d0/d22/structSDK_1_1FQWord.html" target="_top" xlink:title=" ">
<polygon fill="white" stroke="black" points="400.5,-896 400.5,-964 480.5,-964 480.5,-896 400.5,-896"/>
<text text-anchor="middle" x="440.5" y="-952" font-family="Helvetica,sans-Serif" font-size="10.00">SDK::FQWord</text>
<polyline fill="none" stroke="black" points="400.5,-945 480.5,-945 "/>
<text text-anchor="start" x="408.5" y="-933" font-family="Helvetica,sans-Serif" font-size="10.00">+ A</text>
<text text-anchor="start" x="408.5" y="-922" font-family="Helvetica,sans-Serif" font-size="10.00">+ B</text>
<polyline fill="none" stroke="black" points="400.5,-915 480.5,-915 "/>
<text text-anchor="middle" x="440.5" y="-903" font-family="Helvetica,sans-Serif" font-size="10.00"> </text>
</a>
</g>
</g>
<!-- Node5&#45;&gt;Node4 -->
<g id="edge4" class="edge">
<title>Node5&#45;&gt;Node4</title>
<path fill="none" stroke="#404040" d="M431.86,-895.98C425.46,-873.31 415.89,-842.78 404.5,-817 403.46,-814.66 402.4,-812.3 401.31,-809.94"/>
<polygon fill="none" stroke="#404040" points="401.19,-809.68 395,-805.97 396.04,-798.84 402.23,-802.54 401.19,-809.68"/>
<text text-anchor="middle" x="446.5" y="-831" font-family="Helvetica,sans-Serif" font-size="10.00"> +ObjectFlags</text>
</g>
<!-- Node6 -->
<g id="node6" class="node">
<title>Node6</title>
<g id="a_node6"><a xlink:href="../../d0/db6/structSDK_1_1FName.html" target="_top" xlink:title=" ">
<polygon fill="white" stroke="black" points="160,-868.5 160,-991.5 267,-991.5 267,-868.5 160,-868.5"/>
<text text-anchor="middle" x="213.5" y="-979.5" font-family="Helvetica,sans-Serif" font-size="10.00">SDK::FName</text>
<polyline fill="none" stroke="black" points="160,-972.5 267,-972.5 "/>
<text text-anchor="start" x="168" y="-960.5" font-family="Helvetica,sans-Serif" font-size="10.00">+ Index</text>
<text text-anchor="start" x="168" y="-949.5" font-family="Helvetica,sans-Serif" font-size="10.00">+ Number</text>
<polyline fill="none" stroke="black" points="160,-942.5 267,-942.5 "/>
<text text-anchor="start" x="168" y="-930.5" font-family="Helvetica,sans-Serif" font-size="10.00">+ FName()</text>
<text text-anchor="start" x="168" y="-919.5" font-family="Helvetica,sans-Serif" font-size="10.00">+ FName()</text>
<text text-anchor="start" x="168" y="-908.5" font-family="Helvetica,sans-Serif" font-size="10.00">+ FName()</text>
<text text-anchor="start" x="168" y="-897.5" font-family="Helvetica,sans-Serif" font-size="10.00">+ GetName()</text>
<text text-anchor="start" x="168" y="-886.5" font-family="Helvetica,sans-Serif" font-size="10.00">+ operator==()</text>
<text text-anchor="start" x="168" y="-875.5" font-family="Helvetica,sans-Serif" font-size="10.00">+ GetGlobalNames()</text>
</a>
</g>
</g>
<!-- Node6&#45;&gt;Node4 -->
<g id="edge5" class="edge">
<title>Node6&#45;&gt;Node4</title>
<path fill="none" stroke="#404040" d="M240.23,-868.44C248.11,-850.57 257.07,-830.28 266.13,-809.76"/>
<polygon fill="none" stroke="#404040" points="266.17,-809.66 264.93,-802.56 271.01,-798.69 272.25,-805.79 266.17,-809.66"/>
<text text-anchor="middle" x="280.5" y="-831" font-family="Helvetica,sans-Serif" font-size="10.00"> +Name</text>
</g>
<!-- Node7 -->
<g id="node7" class="node">
<title>Node7</title>
<g id="a_node7"><a xlink:href="../../d3/d79/classSDK_1_1TArray.html" target="_top" xlink:title=" ">
<polygon fill="white" stroke="black" points="123.5,-1039.5 123.5,-1173.5 303.5,-1173.5 303.5,-1039.5 123.5,-1039.5"/>
<text text-anchor="middle" x="213.5" y="-1161.5" font-family="Helvetica,sans-Serif" font-size="10.00">SDK::TArray&lt; SDK::FNameEntry * &gt;</text>
<polyline fill="none" stroke="black" points="123.5,-1154.5 303.5,-1154.5 "/>
<text text-anchor="start" x="131.5" y="-1142.5" font-family="Helvetica,sans-Serif" font-size="10.00">&#45; Count</text>
<text text-anchor="start" x="131.5" y="-1131.5" font-family="Helvetica,sans-Serif" font-size="10.00">&#45; Max</text>
<polyline fill="none" stroke="black" points="123.5,-1124.5 303.5,-1124.5 "/>
<text text-anchor="start" x="131.5" y="-1112.5" font-family="Helvetica,sans-Serif" font-size="10.00">+ TArray()</text>
<text text-anchor="start" x="131.5" y="-1101.5" font-family="Helvetica,sans-Serif" font-size="10.00">+ Num()</text>
<text text-anchor="start" x="131.5" y="-1090.5" font-family="Helvetica,sans-Serif" font-size="10.00">+ operator[]()</text>
<text text-anchor="start" x="131.5" y="-1079.5" font-family="Helvetica,sans-Serif" font-size="10.00">+ operator[]()</text>
<text text-anchor="start" x="131.5" y="-1068.5" font-family="Helvetica,sans-Serif" font-size="10.00">+ IsValidIndex()</text>
<text text-anchor="start" x="131.5" y="-1057.5" font-family="Helvetica,sans-Serif" font-size="10.00">+ GetByIndex()</text>
<text text-anchor="start" x="131.5" y="-1046.5" font-family="Helvetica,sans-Serif" font-size="10.00">+ GetByIndex()</text>
</a>
</g>
</g>
<!-- Node7&#45;&gt;Node6 -->
<g id="edge6" class="edge">
<title>Node7&#45;&gt;Node6</title>
<path fill="none" stroke="#404040" d="M213.5,-1039.03C213.5,-1027.45 213.5,-1015.35 213.5,-1003.62"/>
<polygon fill="none" stroke="#404040" points="213.5,-1003.56 209.5,-997.56 213.5,-991.56 217.5,-997.56 213.5,-1003.56"/>
<text text-anchor="middle" x="238" y="-1013" font-family="Helvetica,sans-Serif" font-size="10.00"> +GNames</text>
</g>
<!-- Node8 -->
<g id="node8" class="node">
<title>Node8</title>
<g id="a_node8"><a xlink:href="../../d7/ddf/classSDK_1_1FNameEntry.html" target="_top" xlink:title=" ">
<polygon fill="white" stroke="black" points="168,-1260 168,-1328 267,-1328 267,-1260 168,-1260"/>
<text text-anchor="middle" x="217.5" y="-1316" font-family="Helvetica,sans-Serif" font-size="10.00">SDK::FNameEntry</text>
<polyline fill="none" stroke="black" points="168,-1309 267,-1309 "/>
<text text-anchor="start" x="176" y="-1297" font-family="Helvetica,sans-Serif" font-size="10.00">+ UnknownData00</text>
<text text-anchor="start" x="176" y="-1286" font-family="Helvetica,sans-Serif" font-size="10.00">+ name</text>
<polyline fill="none" stroke="black" points="168,-1279 267,-1279 "/>
<text text-anchor="start" x="176" y="-1267" font-family="Helvetica,sans-Serif" font-size="10.00">+ GetName()</text>
</a>
</g>
</g>
<!-- Node8&#45;&gt;Node7 -->
<g id="edge7" class="edge">
<title>Node8&#45;&gt;Node7</title>
<path fill="none" stroke="#404040" d="M216.78,-1259.84C216.34,-1239.23 215.75,-1211.83 215.19,-1185.95"/>
<polygon fill="none" stroke="#404040" points="215.19,-1185.8 211.06,-1179.89 214.93,-1173.8 219.06,-1179.71 215.19,-1185.8"/>
<text text-anchor="middle" x="229.5" y="-1195" font-family="Helvetica,sans-Serif" font-size="10.00"> &#45;Data</text>
</g>
<!-- Node9 -->
<g id="node9" class="node">
<title>Node9</title>
<g id="a_node9"><a xlink:href="../../d3/d79/classSDK_1_1TArray.html" target="_top" xlink:title=" ">
<polygon fill="white" stroke="black" points="19,-1221.5 19,-1366.5 116,-1366.5 116,-1221.5 19,-1221.5"/>
<text text-anchor="middle" x="67.5" y="-1354.5" font-family="Helvetica,sans-Serif" font-size="10.00">SDK::TArray&lt; T &gt;</text>
<polyline fill="none" stroke="black" points="19,-1347.5 116,-1347.5 "/>
<text text-anchor="start" x="27" y="-1335.5" font-family="Helvetica,sans-Serif" font-size="10.00">&#45; Data</text>
<text text-anchor="start" x="27" y="-1324.5" font-family="Helvetica,sans-Serif" font-size="10.00">&#45; Count</text>
<text text-anchor="start" x="27" y="-1313.5" font-family="Helvetica,sans-Serif" font-size="10.00">&#45; Max</text>
<polyline fill="none" stroke="black" points="19,-1306.5 116,-1306.5 "/>
<text text-anchor="start" x="27" y="-1294.5" font-family="Helvetica,sans-Serif" font-size="10.00">+ TArray()</text>
<text text-anchor="start" x="27" y="-1283.5" font-family="Helvetica,sans-Serif" font-size="10.00">+ Num()</text>
<text text-anchor="start" x="27" y="-1272.5" font-family="Helvetica,sans-Serif" font-size="10.00">+ operator[]()</text>
<text text-anchor="start" x="27" y="-1261.5" font-family="Helvetica,sans-Serif" font-size="10.00">+ operator[]()</text>
<text text-anchor="start" x="27" y="-1250.5" font-family="Helvetica,sans-Serif" font-size="10.00">+ IsValidIndex()</text>
<text text-anchor="start" x="27" y="-1239.5" font-family="Helvetica,sans-Serif" font-size="10.00">+ GetByIndex()</text>
<text text-anchor="start" x="27" y="-1228.5" font-family="Helvetica,sans-Serif" font-size="10.00">+ GetByIndex()</text>
</a>
</g>
</g>
<!-- Node9&#45;&gt;Node7 -->
<g id="edge8" class="edge">
<title>Node9&#45;&gt;Node7</title>
<path fill="none" stroke="orange" d="M89.01,-1211.72C92.33,-1204.77 96.14,-1198.08 100.5,-1192 107.07,-1182.84 114.92,-1174.25 123.39,-1166.31"/>
<polygon fill="orange" stroke="orange" points="85.61,-1210.77 84.78,-1221.33 92.01,-1213.59 85.61,-1210.77"/>
<text text-anchor="middle" x="156" y="-1195" font-family="Helvetica,sans-Serif" font-size="10.00"> &lt; SDK::FNameEntry * &gt;</text>
</g>
<!-- Node9&#45;&gt;Node10 -->
<g id="edge12" class="edge">
<title>Node9&#45;&gt;Node10</title>
<path fill="none" stroke="orange" d="M56.75,-1211.08C53.37,-1178.85 50.5,-1141.5 50.5,-1107.5 50.5,-1107.5 50.5,-1107.5 50.5,-675.5 50.5,-618.12 59.41,-553.5 67.52,-506.56"/>
<polygon fill="orange" stroke="orange" points="53.3,-1211.78 57.86,-1221.35 60.26,-1211.03 53.3,-1211.78"/>
<text text-anchor="middle" x="96" y="-927.5" font-family="Helvetica,sans-Serif" font-size="10.00"> &lt; SDK::UObject * &gt;</text>
</g>
<!-- Node10&#45;&gt;Node4 -->
<g id="edge10" class="edge">
<title>Node10&#45;&gt;Node4</title>
<path fill="none" stroke="#404040" d="M149.04,-506.51C170,-526.7 193.59,-549.42 216.51,-571.49"/>
<polygon fill="none" stroke="#404040" points="216.61,-571.59 223.71,-572.87 225.26,-579.92 218.16,-578.64 216.61,-571.59"/>
<text text-anchor="middle" x="199" y="-528" font-family="Helvetica,sans-Serif" font-size="10.00"> +GObjects</text>
</g>
<!-- Node11 -->
<g id="node11" class="node">
<title>Node11</title>
<g id="a_node11"><a xlink:href="../../d9/dfa/structSDK_1_1FPointer.html" target="_top" xlink:title=" ">
<polygon fill="white" stroke="black" points="284.5,-896 284.5,-964 382.5,-964 382.5,-896 284.5,-896"/>
<text text-anchor="middle" x="333.5" y="-952" font-family="Helvetica,sans-Serif" font-size="10.00">SDK::FPointer</text>
<polyline fill="none" stroke="black" points="284.5,-945 382.5,-945 "/>
<text text-anchor="start" x="292.5" y="-933" font-family="Helvetica,sans-Serif" font-size="10.00">+ Dummy</text>
<text text-anchor="start" x="292.5" y="-922" font-family="Helvetica,sans-Serif" font-size="10.00">+ UnknownData00</text>
<polyline fill="none" stroke="black" points="284.5,-915 382.5,-915 "/>
<text text-anchor="middle" x="333.5" y="-903" font-family="Helvetica,sans-Serif" font-size="10.00"> </text>
</a>
</g>
</g>
<!-- Node11&#45;&gt;Node4 -->
<g id="edge13" class="edge">
<title>Node11&#45;&gt;Node4</title>
<path fill="none" stroke="#404040" d="M332.31,-895.86C331.52,-873.57 330.41,-842.56 329.27,-810.9"/>
<polygon fill="none" stroke="#404040" points="329.27,-810.74 325.06,-804.89 328.84,-798.75 333.05,-804.6 329.27,-810.74"/>
<text text-anchor="middle" x="366" y="-842" font-family="Helvetica,sans-Serif" font-size="10.00"> +StateFrame</text>
<text text-anchor="middle" x="366" y="-831" font-family="Helvetica,sans-Serif" font-size="10.00">+VfTableObject</text>
<text text-anchor="middle" x="366" y="-820" font-family="Helvetica,sans-Serif" font-size="10.00">+LinkerIndex</text>
</g>
<!-- Node12&#45;&gt;Node4 -->
<g id="edge14" class="edge">
<title>Node12&#45;&gt;Node4</title>
<path fill="none" stroke="#404040" d="M455.5,-90.73C455.5,-112.11 455.5,-138.14 455.5,-161.5 455.5,-440.5 455.5,-440.5 455.5,-440.5 455.5,-476.28 443.77,-511.68 427.34,-543.73"/>
<polygon fill="none" stroke="#404040" points="427.25,-543.89 427.95,-551.07 421.59,-554.47 420.9,-547.29 427.25,-543.89"/>
<text text-anchor="middle" x="473" y="-271.5" font-family="Helvetica,sans-Serif" font-size="10.00"> +Class</text>
</g>
<!-- Node13 -->
<g id="node13" class="node">
<title>Node13</title>
<g id="a_node13"><a xlink:href="../../df/d72/classSDK_1_1UState.html" target="_top" xlink:title=" ">
<polygon fill="white" stroke="black" points="495.5,-134 495.5,-191 593.5,-191 593.5,-134 495.5,-134"/>
<text text-anchor="middle" x="544.5" y="-179" font-family="Helvetica,sans-Serif" font-size="10.00">SDK::UState</text>
<polyline fill="none" stroke="black" points="495.5,-172 593.5,-172 "/>
<text text-anchor="start" x="503.5" y="-160" font-family="Helvetica,sans-Serif" font-size="10.00">+ UnknownData00</text>
<polyline fill="none" stroke="black" points="495.5,-153 593.5,-153 "/>
<text text-anchor="start" x="503.5" y="-141" font-family="Helvetica,sans-Serif" font-size="10.00">+ StaticClass()</text>
</a>
</g>
</g>
<!-- Node13&#45;&gt;Node12 -->
<g id="edge15" class="edge">
<title>Node13&#45;&gt;Node12</title>
<path fill="none" stroke="midnightblue" d="M516.86,-125.79C508.31,-114.74 498.79,-102.44 489.85,-90.88"/>
<polygon fill="none" stroke="midnightblue" points="514.29,-128.19 523.18,-133.95 519.83,-123.9 514.29,-128.19"/>
</g>
<!-- Node14 -->
<g id="node14" class="node">
<title>Node14</title>
<g id="a_node14"><a xlink:href="../../d8/de9/classSDK_1_1UStruct.html" target="_top" xlink:title=" ">
<polygon fill="white" stroke="black" points="508.5,-234.5 508.5,-313.5 606.5,-313.5 606.5,-234.5 508.5,-234.5"/>
<text text-anchor="middle" x="557.5" y="-301.5" font-family="Helvetica,sans-Serif" font-size="10.00">SDK::UStruct</text>
<polyline fill="none" stroke="black" points="508.5,-294.5 606.5,-294.5 "/>
<text text-anchor="start" x="516.5" y="-282.5" font-family="Helvetica,sans-Serif" font-size="10.00">+ UnknownData00</text>
<text text-anchor="start" x="516.5" y="-271.5" font-family="Helvetica,sans-Serif" font-size="10.00">+ PropertySize</text>
<text text-anchor="start" x="516.5" y="-260.5" font-family="Helvetica,sans-Serif" font-size="10.00">+ UnknownData01</text>
<polyline fill="none" stroke="black" points="508.5,-253.5 606.5,-253.5 "/>
<text text-anchor="start" x="516.5" y="-241.5" font-family="Helvetica,sans-Serif" font-size="10.00">+ StaticClass()</text>
</a>
</g>
</g>
<!-- Node14&#45;&gt;Node13 -->
<g id="edge16" class="edge">
<title>Node14&#45;&gt;Node13</title>
<path fill="none" stroke="midnightblue" d="M551.7,-224.14C550.35,-212.81 548.97,-201.14 547.78,-191.1"/>
<polygon fill="none" stroke="midnightblue" points="548.26,-224.88 552.92,-234.39 555.21,-224.05 548.26,-224.88"/>
</g>
<!-- Node15&#45;&gt;Node14 -->
<g id="edge17" class="edge">
<title>Node15&#45;&gt;Node14</title>
<path fill="none" stroke="midnightblue" d="M528.28,-400.47C530.24,-380.01 533.44,-354.44 538.5,-332 539.85,-326 541.59,-319.73 543.47,-313.65"/>
<polygon fill="none" stroke="midnightblue" points="524.77,-400.38 527.36,-410.66 531.75,-401.01 524.77,-400.38"/>
</g>
<!-- Node15&#45;&gt;Node14 -->
<g id="edge20" class="edge">
<title>Node15&#45;&gt;Node14</title>
<path fill="none" stroke="#404040" d="M530.93,-410.76C535.48,-387.51 542.1,-353.7 547.59,-325.64"/>
<polygon fill="none" stroke="#404040" points="547.64,-325.39 544.86,-318.74 549.94,-313.62 552.72,-320.27 547.64,-325.39"/>
<text text-anchor="middle" x="573.5" y="-346" font-family="Helvetica,sans-Serif" font-size="10.00"> +SuperField</text>
<text text-anchor="middle" x="573.5" y="-335" font-family="Helvetica,sans-Serif" font-size="10.00">+Children</text>
</g>
<!-- Node15&#45;&gt;Node15 -->
<g id="edge19" class="edge">
<title>Node15&#45;&gt;Node15</title>
<path fill="none" stroke="#404040" d="M567.21,-456.11C577.41,-454.88 585,-449.34 585,-439.5 585,-433.96 582.6,-429.79 578.68,-426.98"/>
<polygon fill="none" stroke="#404040" points="578.51,-426.92 571.51,-428.67 567.21,-422.89 574.2,-421.13 578.51,-426.92"/>
<text text-anchor="middle" x="600.5" y="-437" font-family="Helvetica,sans-Serif" font-size="10.00"> +Next</text>
</g>
</g>
</svg>
        <g id="navigator" transform="translate(0 0)" fill="#404254">
                <rect fill="#f2f5e9" fill-opacity="0.5" stroke="#606060" stroke-width=".5" x="0" y="0" width="60" height="60"/>
                <use id="zoomplus" xlink:href="#zoomPlus" x="17" y="9" onmousedown="handleZoom(evt,'in')"/>
                <use id="zoomminus" xlink:href="#zoomMin" x="42" y="9" onmousedown="handleZoom(evt,'out')"/>
                <use id="reset" xlink:href="#resetDef" x="30" y="36" onmousedown="handleReset()"/>
                <g id="arrowUp" xlink:href="#dirArrow" transform="translate(30 24)" onmousedown="handlePan(0,-1)">
                  <use xlink:href="#rim" fill="#404040">
                        <set attributeName="fill" to="#808080" begin="arrowUp.mouseover" end="arrowUp.mouseout"/>
                  </use>
                  <path fill="none" stroke="white" stroke-width="1.5" d="M0,-3.0v7 M-2.5,-0.5L0,-3.0L2.5,-0.5"/>
                </g>
                <g id="arrowRight" xlink:href="#dirArrow" transform="rotate(90) translate(36 -43)" onmousedown="handlePan(1,0)">
                  <use xlink:href="#rim" fill="#404040">
                        <set attributeName="fill" to="#808080" begin="arrowRight.mouseover" end="arrowRight.mouseout"/>
                  </use>
                  <path fill="none" stroke="white" stroke-width="1.5" d="M0,-3.0v7 M-2.5,-0.5L0,-3.0L2.5,-0.5"/>
                </g>
                <g id="arrowDown" xlink:href="#dirArrow" transform="rotate(180) translate(-30 -48)" onmousedown="handlePan(0,1)">
                  <use xlink:href="#rim" fill="#404040">
                        <set attributeName="fill" to="#808080" begin="arrowDown.mouseover" end="arrowDown.mouseout"/>
                  </use>
                  <path fill="none" stroke="white" stroke-width="1.5" d="M0,-3.0v7 M-2.5,-0.5L0,-3.0L2.5,-0.5"/>
                </g>
                <g id="arrowLeft" xlink:href="#dirArrow" transform="rotate(270) translate(-36 17)" onmousedown="handlePan(-1,0)">
                  <use xlink:href="#rim" fill="#404040">
                        <set attributeName="fill" to="#808080" begin="arrowLeft.mouseover" end="arrowLeft.mouseout"/>
                  </use>
                  <path fill="none" stroke="white" stroke-width="1.5" d="M0,-3.0v7 M-2.5,-0.5L0,-3.0L2.5,-0.5"/>
                </g>
        </g>
        <svg viewBox="0 0 15 15" width="100%" height="30px" preserveAspectRatio="xMaxYMin meet">
         <g id="arrow_out" transform="scale(0.3 0.3)">
          <a xlink:href="classSDK_1_1UEFInterpTrackInstAnimNodeBlendWeight__coll__graph_org.svg" target="_base">
           <rect id="button" ry="5" rx="5" y="6" x="6" height="38" width="38"
                fill="#f2f5e9" fill-opacity="0.5" stroke="#606060" stroke-width="1.0"/>
           <path id="arrow"
             d="M 11.500037,31.436501 C 11.940474,20.09759 22.043105,11.32322 32.158766,21.979434 L 37.068811,17.246167 C 37.068811,17.246167 37.088388,32 37.088388,32 L 22.160133,31.978069 C 22.160133,31.978069 26.997745,27.140456 26.997745,27.140456 C 18.528582,18.264221 13.291696,25.230495 11.500037,31.436501 z"
             style="fill:#404040;"/>
          </a>
         </g>
        </svg>
</svg>
