<?xml version="1.0" encoding="UTF-8" standalone="no"?>
<!DOCTYPE svg PUBLIC "-//W3C//DTD SVG 1.1//EN"
 "http://www.w3.org/Graphics/SVG/1.1/DTD/svg11.dtd">
<!-- Generated by graphviz version 2.41.20171026.1811 (20171026.1811)
 -->
<!-- Title: SDK::UActorFactorySkeletalMeshMAT Pages: 1 -->
<svg width="206pt" height="766pt"
 viewBox="0.00 0.00 206.00 766.00" xmlns="http://www.w3.org/2000/svg" xmlns:xlink="http://www.w3.org/1999/xlink">
<g id="graph0" class="graph" transform="scale(1 1) rotate(0) translate(4 762)">
<title>SDK::UActorFactorySkeletalMeshMAT</title>
<polygon fill="white" stroke="transparent" points="-4,4 -4,-762 202,-762 202,4 -4,4"/>
<!-- Node1 -->
<g id="node1" class="node">
<title>Node1</title>
<g id="a_node1"><a xlink:title=" ">
<polygon fill="#bfbfbf" stroke="black" points="27.5,-0.5 27.5,-68.5 170.5,-68.5 170.5,-0.5 27.5,-0.5"/>
<text text-anchor="start" x="35.5" y="-56.5" font-family="Helvetica,sans-Serif" font-size="10.00">SDK::UActorFactorySkeletal</text>
<text text-anchor="middle" x="99" y="-45.5" font-family="Helvetica,sans-Serif" font-size="10.00">MeshMAT</text>
<polyline fill="none" stroke="black" points="27.5,-38.5 170.5,-38.5 "/>
<text text-anchor="middle" x="99" y="-26.5" font-family="Helvetica,sans-Serif" font-size="10.00"> </text>
<polyline fill="none" stroke="black" points="27.5,-19.5 170.5,-19.5 "/>
<text text-anchor="start" x="35.5" y="-7.5" font-family="Helvetica,sans-Serif" font-size="10.00">+ StaticClass()</text>
</a>
</g>
</g>
<!-- Node2 -->
<g id="node2" class="node">
<title>Node2</title>
<g id="a_node2"><a xlink:href="../../d3/d33/classSDK_1_1UActorFactorySkeletalMesh.html" target="_top" xlink:title=" ">
<polygon fill="white" stroke="black" points="15.5,-105.5 15.5,-184.5 182.5,-184.5 182.5,-105.5 15.5,-105.5"/>
<text text-anchor="middle" x="99" y="-172.5" font-family="Helvetica,sans-Serif" font-size="10.00">SDK::UActorFactorySkeletalMesh</text>
<polyline fill="none" stroke="black" points="15.5,-165.5 182.5,-165.5 "/>
<text text-anchor="start" x="23.5" y="-153.5" font-family="Helvetica,sans-Serif" font-size="10.00">+ SkeletalMesh</text>
<text text-anchor="start" x="23.5" y="-142.5" font-family="Helvetica,sans-Serif" font-size="10.00">+ AnimSet</text>
<text text-anchor="start" x="23.5" y="-131.5" font-family="Helvetica,sans-Serif" font-size="10.00">+ AnimSequenceName</text>
<polyline fill="none" stroke="black" points="15.5,-124.5 182.5,-124.5 "/>
<text text-anchor="start" x="23.5" y="-112.5" font-family="Helvetica,sans-Serif" font-size="10.00">+ StaticClass()</text>
</a>
</g>
</g>
<!-- Node2&#45;&gt;Node1 -->
<g id="edge1" class="edge">
<title>Node2&#45;&gt;Node1</title>
<path fill="none" stroke="midnightblue" d="M99,-95.35C99,-86.28 99,-77 99,-68.54"/>
<polygon fill="none" stroke="midnightblue" points="95.5,-95.44 99,-105.44 102.5,-95.44 95.5,-95.44"/>
</g>
<!-- Node3 -->
<g id="node3" class="node">
<title>Node3</title>
<g id="a_node3"><a xlink:href="../../d8/d94/classSDK_1_1UActorFactory.html" target="_top" xlink:title=" ">
<polygon fill="white" stroke="black" points="29.5,-221.5 29.5,-366.5 168.5,-366.5 168.5,-221.5 29.5,-221.5"/>
<text text-anchor="middle" x="99" y="-354.5" font-family="Helvetica,sans-Serif" font-size="10.00">SDK::UActorFactory</text>
<polyline fill="none" stroke="black" points="29.5,-347.5 168.5,-347.5 "/>
<text text-anchor="start" x="37.5" y="-335.5" font-family="Helvetica,sans-Serif" font-size="10.00">+ GameplayActorClass</text>
<text text-anchor="start" x="37.5" y="-324.5" font-family="Helvetica,sans-Serif" font-size="10.00">+ MenuName</text>
<text text-anchor="start" x="37.5" y="-313.5" font-family="Helvetica,sans-Serif" font-size="10.00">+ MenuPriority</text>
<text text-anchor="start" x="37.5" y="-302.5" font-family="Helvetica,sans-Serif" font-size="10.00">+ AlternateMenuPriority</text>
<text text-anchor="start" x="37.5" y="-291.5" font-family="Helvetica,sans-Serif" font-size="10.00">+ NewActorClassName</text>
<text text-anchor="start" x="37.5" y="-280.5" font-family="Helvetica,sans-Serif" font-size="10.00">+ NewActorClass</text>
<text text-anchor="start" x="37.5" y="-269.5" font-family="Helvetica,sans-Serif" font-size="10.00">+ bPlaceable</text>
<text text-anchor="start" x="37.5" y="-258.5" font-family="Helvetica,sans-Serif" font-size="10.00">+ bShowInEditorQuickMenu</text>
<polyline fill="none" stroke="black" points="29.5,-251.5 168.5,-251.5 "/>
<text text-anchor="start" x="37.5" y="-239.5" font-family="Helvetica,sans-Serif" font-size="10.00">+ PostCreateActor()</text>
<text text-anchor="start" x="37.5" y="-228.5" font-family="Helvetica,sans-Serif" font-size="10.00">+ StaticClass()</text>
</a>
</g>
</g>
<!-- Node3&#45;&gt;Node2 -->
<g id="edge2" class="edge">
<title>Node3&#45;&gt;Node2</title>
<path fill="none" stroke="midnightblue" d="M99,-210.95C99,-201.9 99,-193.02 99,-184.87"/>
<polygon fill="none" stroke="midnightblue" points="95.5,-211.22 99,-221.22 102.5,-211.22 95.5,-211.22"/>
</g>
<!-- Node4 -->
<g id="node4" class="node">
<title>Node4</title>
<g id="a_node4"><a xlink:href="../../d9/d45/classSDK_1_1UObject.html" target="_top" xlink:title=" ">
<polygon fill="white" stroke="black" points="0,-403.5 0,-757.5 198,-757.5 198,-403.5 0,-403.5"/>
<text text-anchor="middle" x="99" y="-745.5" font-family="Helvetica,sans-Serif" font-size="10.00">SDK::UObject</text>
<polyline fill="none" stroke="black" points="0,-738.5 198,-738.5 "/>
<text text-anchor="start" x="8" y="-726.5" font-family="Helvetica,sans-Serif" font-size="10.00">+ VfTableObject</text>
<text text-anchor="start" x="8" y="-715.5" font-family="Helvetica,sans-Serif" font-size="10.00">+ ObjectFlags</text>
<text text-anchor="start" x="8" y="-704.5" font-family="Helvetica,sans-Serif" font-size="10.00">+ StateFrame</text>
<text text-anchor="start" x="8" y="-693.5" font-family="Helvetica,sans-Serif" font-size="10.00">+ Linker</text>
<text text-anchor="start" x="8" y="-682.5" font-family="Helvetica,sans-Serif" font-size="10.00">+ LinkerIndex</text>
<text text-anchor="start" x="8" y="-671.5" font-family="Helvetica,sans-Serif" font-size="10.00">+ ObjectInternalInteger</text>
<text text-anchor="start" x="8" y="-660.5" font-family="Helvetica,sans-Serif" font-size="10.00">+ NetIndex</text>
<text text-anchor="start" x="8" y="-649.5" font-family="Helvetica,sans-Serif" font-size="10.00">+ Outer</text>
<text text-anchor="start" x="8" y="-638.5" font-family="Helvetica,sans-Serif" font-size="10.00">+ Name</text>
<text text-anchor="start" x="8" y="-627.5" font-family="Helvetica,sans-Serif" font-size="10.00">+ Class</text>
<text text-anchor="start" x="8" y="-616.5" font-family="Helvetica,sans-Serif" font-size="10.00">+ ObjectArchetype</text>
<text text-anchor="start" x="8" y="-605.5" font-family="Helvetica,sans-Serif" font-size="10.00">+ GObjects</text>
<polyline fill="none" stroke="black" points="0,-598.5 198,-598.5 "/>
<text text-anchor="start" x="8" y="-586.5" font-family="Helvetica,sans-Serif" font-size="10.00">+ UObject::GetName()</text>
<text text-anchor="start" x="8" y="-575.5" font-family="Helvetica,sans-Serif" font-size="10.00">+ GetFullName()</text>
<text text-anchor="start" x="8" y="-564.5" font-family="Helvetica,sans-Serif" font-size="10.00">+ IsA()</text>
<text text-anchor="start" x="8" y="-553.5" font-family="Helvetica,sans-Serif" font-size="10.00">+ ProcessEvent()</text>
<text text-anchor="start" x="8" y="-542.5" font-family="Helvetica,sans-Serif" font-size="10.00">+ STATIC_ProfNodeEvent()</text>
<text text-anchor="start" x="8" y="-531.5" font-family="Helvetica,sans-Serif" font-size="10.00">+ STATIC_ProfNodeSetDepthThreshold()</text>
<text text-anchor="start" x="8" y="-520.5" font-family="Helvetica,sans-Serif" font-size="10.00">+ STATIC_ProfNodeSetTimeThreshold</text>
<text text-anchor="start" x="8" y="-509.5" font-family="Helvetica,sans-Serif" font-size="10.00">Seconds()</text>
<text text-anchor="start" x="8" y="-498.5" font-family="Helvetica,sans-Serif" font-size="10.00">+ STATIC_ProfNodeStop()</text>
<text text-anchor="start" x="8" y="-487.5" font-family="Helvetica,sans-Serif" font-size="10.00">+ STATIC_ProfNodeStart()</text>
<text text-anchor="start" x="8" y="-476.5" font-family="Helvetica,sans-Serif" font-size="10.00">+ STATIC_GetStringFromGuid()</text>
<text text-anchor="start" x="8" y="-465.5" font-family="Helvetica,sans-Serif" font-size="10.00">and 298 more...</text>
<text text-anchor="start" x="8" y="-454.5" font-family="Helvetica,sans-Serif" font-size="10.00">+ GetGlobalObjects()</text>
<text text-anchor="start" x="8" y="-443.5" font-family="Helvetica,sans-Serif" font-size="10.00">+ FindObject()</text>
<text text-anchor="start" x="8" y="-432.5" font-family="Helvetica,sans-Serif" font-size="10.00">+ FindClass()</text>
<text text-anchor="start" x="8" y="-421.5" font-family="Helvetica,sans-Serif" font-size="10.00">+ GetObjectCasted()</text>
<text text-anchor="start" x="8" y="-410.5" font-family="Helvetica,sans-Serif" font-size="10.00">+ StaticClass()</text>
</a>
</g>
</g>
<!-- Node4&#45;&gt;Node3 -->
<g id="edge3" class="edge">
<title>Node4&#45;&gt;Node3</title>
<path fill="none" stroke="midnightblue" d="M99,-393.31C99,-384.14 99,-375.23 99,-366.77"/>
<polygon fill="none" stroke="midnightblue" points="95.5,-393.37 99,-403.37 102.5,-393.37 95.5,-393.37"/>
</g>
</g>
</svg>
