<?xml version="1.0" encoding="UTF-8" standalone="no"?>
<!DOCTYPE svg PUBLIC "-//W3C//DTD SVG 1.1//EN"
 "http://www.w3.org/Graphics/SVG/1.1/DTD/svg11.dtd">
<!-- Generated by graphviz version 2.41.20171026.1811 (20171026.1811)
 -->
<!-- Title: SDK::FNavMeshPathParams Pages: 1 -->
<svg width="202pt" height="270pt"
 viewBox="0.00 0.00 202.00 270.00" xmlns="http://www.w3.org/2000/svg" xmlns:xlink="http://www.w3.org/1999/xlink">
<g id="graph0" class="graph" transform="scale(1 1) rotate(0) translate(4 266)">
<title>SDK::FNavMeshPathParams</title>
<polygon fill="white" stroke="transparent" points="-4,4 -4,-266 198,-266 198,4 -4,4"/>
<!-- Node1 -->
<g id="node1" class="node">
<title>Node1</title>
<g id="a_node1"><a xlink:title=" ">
<polygon fill="#bfbfbf" stroke="black" points="19,-0.5 19,-123.5 165,-123.5 165,-0.5 19,-0.5"/>
<text text-anchor="middle" x="92" y="-111.5" font-family="Helvetica,sans-Serif" font-size="10.00">SDK::FNavMeshPathParams</text>
<polyline fill="none" stroke="black" points="19,-104.5 165,-104.5 "/>
<text text-anchor="start" x="27" y="-92.5" font-family="Helvetica,sans-Serif" font-size="10.00">+ bCanMantle</text>
<text text-anchor="start" x="27" y="-81.5" font-family="Helvetica,sans-Serif" font-size="10.00">+ bNeedsMantleValidityTest</text>
<text text-anchor="start" x="27" y="-70.5" font-family="Helvetica,sans-Serif" font-size="10.00">+ bAbleToSearch</text>
<text text-anchor="start" x="27" y="-59.5" font-family="Helvetica,sans-Serif" font-size="10.00">+ SearchLaneMultiplier</text>
<text text-anchor="start" x="27" y="-48.5" font-family="Helvetica,sans-Serif" font-size="10.00">+ MaxDropHeight</text>
<text text-anchor="start" x="27" y="-37.5" font-family="Helvetica,sans-Serif" font-size="10.00">+ MinWalkableZ</text>
<text text-anchor="start" x="27" y="-26.5" font-family="Helvetica,sans-Serif" font-size="10.00">+ MaxHoverDistance</text>
<polyline fill="none" stroke="black" points="19,-19.5 165,-19.5 "/>
<text text-anchor="middle" x="92" y="-7.5" font-family="Helvetica,sans-Serif" font-size="10.00"> </text>
</a>
</g>
</g>
<!-- Node2 -->
<g id="node2" class="node">
<title>Node2</title>
<g id="a_node2"><a xlink:href="../../dd/d43/structSDK_1_1FVector.html" target="_top" xlink:title=" ">
<polygon fill="white" stroke="black" points="0,-182.5 0,-261.5 78,-261.5 78,-182.5 0,-182.5"/>
<text text-anchor="middle" x="39" y="-249.5" font-family="Helvetica,sans-Serif" font-size="10.00">SDK::FVector</text>
<polyline fill="none" stroke="black" points="0,-242.5 78,-242.5 "/>
<text text-anchor="start" x="8" y="-230.5" font-family="Helvetica,sans-Serif" font-size="10.00">+ X</text>
<text text-anchor="start" x="8" y="-219.5" font-family="Helvetica,sans-Serif" font-size="10.00">+ Y</text>
<text text-anchor="start" x="8" y="-208.5" font-family="Helvetica,sans-Serif" font-size="10.00">+ Z</text>
<polyline fill="none" stroke="black" points="0,-201.5 78,-201.5 "/>
<text text-anchor="middle" x="39" y="-189.5" font-family="Helvetica,sans-Serif" font-size="10.00"> </text>
</a>
</g>
</g>
<!-- Node2&#45;&gt;Node1 -->
<g id="edge1" class="edge">
<title>Node2&#45;&gt;Node1</title>
<path fill="none" stroke="#404040" d="M46.23,-182.42C49.08,-169.43 52.7,-154.95 57,-142 57.74,-139.76 58.53,-137.49 59.35,-135.22"/>
<polygon fill="none" stroke="#404040" points="59.43,-135 57.81,-127.98 63.68,-123.78 65.29,-130.81 59.43,-135"/>
<text text-anchor="middle" x="90" y="-156" font-family="Helvetica,sans-Serif" font-size="10.00"> +SearchStart</text>
<text text-anchor="middle" x="90" y="-145" font-family="Helvetica,sans-Serif" font-size="10.00">+SearchExtent</text>
</g>
<!-- Node3 -->
<g id="node3" class="node">
<title>Node3</title>
<g id="a_node3"><a xlink:href="../../d9/dfa/structSDK_1_1FPointer.html" target="_top" xlink:title=" ">
<polygon fill="white" stroke="black" points="96,-188 96,-256 194,-256 194,-188 96,-188"/>
<text text-anchor="middle" x="145" y="-244" font-family="Helvetica,sans-Serif" font-size="10.00">SDK::FPointer</text>
<polyline fill="none" stroke="black" points="96,-237 194,-237 "/>
<text text-anchor="start" x="104" y="-225" font-family="Helvetica,sans-Serif" font-size="10.00">+ Dummy</text>
<text text-anchor="start" x="104" y="-214" font-family="Helvetica,sans-Serif" font-size="10.00">+ UnknownData00</text>
<polyline fill="none" stroke="black" points="96,-207 194,-207 "/>
<text text-anchor="middle" x="145" y="-195" font-family="Helvetica,sans-Serif" font-size="10.00"> </text>
</a>
</g>
</g>
<!-- Node3&#45;&gt;Node1 -->
<g id="edge2" class="edge">
<title>Node3&#45;&gt;Node1</title>
<path fill="none" stroke="#404040" d="M136.54,-187.72C132.73,-173.53 127.97,-156.85 123,-142 122.22,-139.65 121.4,-137.27 120.56,-134.88"/>
<polygon fill="none" stroke="#404040" points="120.56,-134.88 114.76,-130.58 116.5,-123.58 122.29,-127.87 120.56,-134.88"/>
<text text-anchor="middle" x="153" y="-150.5" font-family="Helvetica,sans-Serif" font-size="10.00"> +Interface</text>
</g>
</g>
</svg>
