<?xml version="1.0" encoding="UTF-8" standalone="no"?>
<!DOCTYPE svg PUBLIC "-//W3C//DTD SVG 1.1//EN"
 "http://www.w3.org/Graphics/SVG/1.1/DTD/svg11.dtd">
<!-- Generated by graphviz version 2.41.20171026.1811 (20171026.1811)
 -->
<!-- Title: SDK::FstMeshMorphWeight Pages: 1 -->
<svg width="333pt" height="819pt"
 viewBox="0.00 0.00 333.00 819.00" xmlns="http://www.w3.org/2000/svg" xmlns:xlink="http://www.w3.org/1999/xlink">
<g id="graph0" class="graph" transform="scale(1 1) rotate(0) translate(4 815)">
<title>SDK::FstMeshMorphWeight</title>
<polygon fill="white" stroke="transparent" points="-4,4 -4,-815 329,-815 329,4 -4,4"/>
<!-- Node1 -->
<g id="node1" class="node">
<title>Node1</title>
<g id="a_node1"><a xlink:title=" ">
<polygon fill="#bfbfbf" stroke="black" points="71,-0.5 71,-57.5 211,-57.5 211,-0.5 71,-0.5"/>
<text text-anchor="middle" x="141" y="-45.5" font-family="Helvetica,sans-Serif" font-size="10.00">SDK::FstMeshMorphWeight</text>
<polyline fill="none" stroke="black" points="71,-38.5 211,-38.5 "/>
<text text-anchor="start" x="79" y="-26.5" font-family="Helvetica,sans-Serif" font-size="10.00">+ fMorphWeightFactor</text>
<polyline fill="none" stroke="black" points="71,-19.5 211,-19.5 "/>
<text text-anchor="middle" x="141" y="-7.5" font-family="Helvetica,sans-Serif" font-size="10.00"> </text>
</a>
</g>
</g>
<!-- Node2 -->
<g id="node2" class="node">
<title>Node2</title>
<g id="a_node2"><a xlink:href="../../d0/db6/structSDK_1_1FName.html" target="_top" xlink:title=" ">
<polygon fill="white" stroke="black" points="51.5,-181.5 51.5,-304.5 158.5,-304.5 158.5,-181.5 51.5,-181.5"/>
<text text-anchor="middle" x="105" y="-292.5" font-family="Helvetica,sans-Serif" font-size="10.00">SDK::FName</text>
<polyline fill="none" stroke="black" points="51.5,-285.5 158.5,-285.5 "/>
<text text-anchor="start" x="59.5" y="-273.5" font-family="Helvetica,sans-Serif" font-size="10.00">+ Index</text>
<text text-anchor="start" x="59.5" y="-262.5" font-family="Helvetica,sans-Serif" font-size="10.00">+ Number</text>
<polyline fill="none" stroke="black" points="51.5,-255.5 158.5,-255.5 "/>
<text text-anchor="start" x="59.5" y="-243.5" font-family="Helvetica,sans-Serif" font-size="10.00">+ FName()</text>
<text text-anchor="start" x="59.5" y="-232.5" font-family="Helvetica,sans-Serif" font-size="10.00">+ FName()</text>
<text text-anchor="start" x="59.5" y="-221.5" font-family="Helvetica,sans-Serif" font-size="10.00">+ FName()</text>
<text text-anchor="start" x="59.5" y="-210.5" font-family="Helvetica,sans-Serif" font-size="10.00">+ GetName()</text>
<text text-anchor="start" x="59.5" y="-199.5" font-family="Helvetica,sans-Serif" font-size="10.00">+ operator==()</text>
<text text-anchor="start" x="59.5" y="-188.5" font-family="Helvetica,sans-Serif" font-size="10.00">+ GetGlobalNames()</text>
</a>
</g>
</g>
<!-- Node2&#45;&gt;Node1 -->
<g id="edge1" class="edge">
<title>Node2&#45;&gt;Node1</title>
<path fill="none" stroke="#404040" d="M115.32,-181.25C121.4,-145.44 128.92,-101.15 134.25,-69.77"/>
<polygon fill="none" stroke="#404040" points="134.31,-69.42 131.37,-62.84 136.31,-57.59 139.25,-64.18 134.31,-69.42"/>
<text text-anchor="middle" x="159.5" y="-131.5" font-family="Helvetica,sans-Serif" font-size="10.00"> +MorphName</text>
</g>
<!-- Node3 -->
<g id="node3" class="node">
<title>Node3</title>
<g id="a_node3"><a xlink:href="../../d3/d79/classSDK_1_1TArray.html" target="_top" xlink:title=" ">
<polygon fill="white" stroke="black" points="0,-478 0,-612 180,-612 180,-478 0,-478"/>
<text text-anchor="middle" x="90" y="-600" font-family="Helvetica,sans-Serif" font-size="10.00">SDK::TArray&lt; SDK::FNameEntry * &gt;</text>
<polyline fill="none" stroke="black" points="0,-593 180,-593 "/>
<text text-anchor="start" x="8" y="-581" font-family="Helvetica,sans-Serif" font-size="10.00">&#45; Count</text>
<text text-anchor="start" x="8" y="-570" font-family="Helvetica,sans-Serif" font-size="10.00">&#45; Max</text>
<polyline fill="none" stroke="black" points="0,-563 180,-563 "/>
<text text-anchor="start" x="8" y="-551" font-family="Helvetica,sans-Serif" font-size="10.00">+ TArray()</text>
<text text-anchor="start" x="8" y="-540" font-family="Helvetica,sans-Serif" font-size="10.00">+ Num()</text>
<text text-anchor="start" x="8" y="-529" font-family="Helvetica,sans-Serif" font-size="10.00">+ operator[]()</text>
<text text-anchor="start" x="8" y="-518" font-family="Helvetica,sans-Serif" font-size="10.00">+ operator[]()</text>
<text text-anchor="start" x="8" y="-507" font-family="Helvetica,sans-Serif" font-size="10.00">+ IsValidIndex()</text>
<text text-anchor="start" x="8" y="-496" font-family="Helvetica,sans-Serif" font-size="10.00">+ GetByIndex()</text>
<text text-anchor="start" x="8" y="-485" font-family="Helvetica,sans-Serif" font-size="10.00">+ GetByIndex()</text>
</a>
</g>
</g>
<!-- Node3&#45;&gt;Node2 -->
<g id="edge2" class="edge">
<title>Node3&#45;&gt;Node2</title>
<path fill="none" stroke="#404040" d="M93.31,-477.79C95.69,-430.15 98.9,-365.9 101.36,-316.82"/>
<polygon fill="none" stroke="#404040" points="101.37,-316.67 97.67,-310.47 101.97,-304.68 105.66,-310.87 101.37,-316.67"/>
<text text-anchor="middle" x="119.5" y="-446" font-family="Helvetica,sans-Serif" font-size="10.00"> +GNames</text>
</g>
<!-- Node4 -->
<g id="node4" class="node">
<title>Node4</title>
<g id="a_node4"><a xlink:href="../../d7/ddf/classSDK_1_1FNameEntry.html" target="_top" xlink:title=" ">
<polygon fill="white" stroke="black" points="26.5,-704 26.5,-772 125.5,-772 125.5,-704 26.5,-704"/>
<text text-anchor="middle" x="76" y="-760" font-family="Helvetica,sans-Serif" font-size="10.00">SDK::FNameEntry</text>
<polyline fill="none" stroke="black" points="26.5,-753 125.5,-753 "/>
<text text-anchor="start" x="34.5" y="-741" font-family="Helvetica,sans-Serif" font-size="10.00">+ UnknownData00</text>
<text text-anchor="start" x="34.5" y="-730" font-family="Helvetica,sans-Serif" font-size="10.00">+ name</text>
<polyline fill="none" stroke="black" points="26.5,-723 125.5,-723 "/>
<text text-anchor="start" x="34.5" y="-711" font-family="Helvetica,sans-Serif" font-size="10.00">+ GetName()</text>
</a>
</g>
</g>
<!-- Node4&#45;&gt;Node3 -->
<g id="edge3" class="edge">
<title>Node4&#45;&gt;Node3</title>
<path fill="none" stroke="#404040" d="M75.21,-703.74C75.03,-684.02 75.27,-658.55 77,-636 77.3,-632.14 77.65,-628.2 78.06,-624.22"/>
<polygon fill="none" stroke="#404040" points="78.07,-624.17 74.76,-617.76 79.41,-612.24 82.71,-618.65 78.07,-624.17"/>
<text text-anchor="middle" x="91" y="-639" font-family="Helvetica,sans-Serif" font-size="10.00"> &#45;Data</text>
</g>
<!-- Node5 -->
<g id="node5" class="node">
<title>Node5</title>
<g id="a_node5"><a xlink:href="../../d3/d79/classSDK_1_1TArray.html" target="_top" xlink:title=" ">
<polygon fill="white" stroke="black" points="177.5,-665.5 177.5,-810.5 274.5,-810.5 274.5,-665.5 177.5,-665.5"/>
<text text-anchor="middle" x="226" y="-798.5" font-family="Helvetica,sans-Serif" font-size="10.00">SDK::TArray&lt; T &gt;</text>
<polyline fill="none" stroke="black" points="177.5,-791.5 274.5,-791.5 "/>
<text text-anchor="start" x="185.5" y="-779.5" font-family="Helvetica,sans-Serif" font-size="10.00">&#45; Data</text>
<text text-anchor="start" x="185.5" y="-768.5" font-family="Helvetica,sans-Serif" font-size="10.00">&#45; Count</text>
<text text-anchor="start" x="185.5" y="-757.5" font-family="Helvetica,sans-Serif" font-size="10.00">&#45; Max</text>
<polyline fill="none" stroke="black" points="177.5,-750.5 274.5,-750.5 "/>
<text text-anchor="start" x="185.5" y="-738.5" font-family="Helvetica,sans-Serif" font-size="10.00">+ TArray()</text>
<text text-anchor="start" x="185.5" y="-727.5" font-family="Helvetica,sans-Serif" font-size="10.00">+ Num()</text>
<text text-anchor="start" x="185.5" y="-716.5" font-family="Helvetica,sans-Serif" font-size="10.00">+ operator[]()</text>
<text text-anchor="start" x="185.5" y="-705.5" font-family="Helvetica,sans-Serif" font-size="10.00">+ operator[]()</text>
<text text-anchor="start" x="185.5" y="-694.5" font-family="Helvetica,sans-Serif" font-size="10.00">+ IsValidIndex()</text>
<text text-anchor="start" x="185.5" y="-683.5" font-family="Helvetica,sans-Serif" font-size="10.00">+ GetByIndex()</text>
<text text-anchor="start" x="185.5" y="-672.5" font-family="Helvetica,sans-Serif" font-size="10.00">+ GetByIndex()</text>
</a>
</g>
</g>
<!-- Node5&#45;&gt;Node3 -->
<g id="edge4" class="edge">
<title>Node5&#45;&gt;Node3</title>
<path fill="none" stroke="orange" d="M169.55,-693.42C154.56,-679.8 139.39,-663.87 128,-647 120.82,-636.36 114.76,-624.19 109.74,-612.06"/>
<polygon fill="orange" stroke="orange" points="167.54,-696.32 177.35,-700.33 172.18,-691.08 167.54,-696.32"/>
<text text-anchor="middle" x="183.5" y="-639" font-family="Helvetica,sans-Serif" font-size="10.00"> &lt; SDK::FNameEntry * &gt;</text>
</g>
<!-- Node8 -->
<g id="node8" class="node">
<title>Node8</title>
<g id="a_node8"><a xlink:href="../../d3/d79/classSDK_1_1TArray.html" target="_top" xlink:title=" ">
<polygon fill="white" stroke="black" points="198.5,-472.5 198.5,-617.5 323.5,-617.5 323.5,-472.5 198.5,-472.5"/>
<text text-anchor="middle" x="261" y="-605.5" font-family="Helvetica,sans-Serif" font-size="10.00">SDK::TArray&lt; wchar_t &gt;</text>
<polyline fill="none" stroke="black" points="198.5,-598.5 323.5,-598.5 "/>
<text text-anchor="start" x="206.5" y="-586.5" font-family="Helvetica,sans-Serif" font-size="10.00">&#45; Data</text>
<text text-anchor="start" x="206.5" y="-575.5" font-family="Helvetica,sans-Serif" font-size="10.00">&#45; Count</text>
<text text-anchor="start" x="206.5" y="-564.5" font-family="Helvetica,sans-Serif" font-size="10.00">&#45; Max</text>
<polyline fill="none" stroke="black" points="198.5,-557.5 323.5,-557.5 "/>
<text text-anchor="start" x="206.5" y="-545.5" font-family="Helvetica,sans-Serif" font-size="10.00">+ TArray()</text>
<text text-anchor="start" x="206.5" y="-534.5" font-family="Helvetica,sans-Serif" font-size="10.00">+ Num()</text>
<text text-anchor="start" x="206.5" y="-523.5" font-family="Helvetica,sans-Serif" font-size="10.00">+ operator[]()</text>
<text text-anchor="start" x="206.5" y="-512.5" font-family="Helvetica,sans-Serif" font-size="10.00">+ operator[]()</text>
<text text-anchor="start" x="206.5" y="-501.5" font-family="Helvetica,sans-Serif" font-size="10.00">+ IsValidIndex()</text>
<text text-anchor="start" x="206.5" y="-490.5" font-family="Helvetica,sans-Serif" font-size="10.00">+ GetByIndex()</text>
<text text-anchor="start" x="206.5" y="-479.5" font-family="Helvetica,sans-Serif" font-size="10.00">+ GetByIndex()</text>
</a>
</g>
</g>
<!-- Node5&#45;&gt;Node8 -->
<g id="edge8" class="edge">
<title>Node5&#45;&gt;Node8</title>
<path fill="none" stroke="orange" d="M240.96,-655.38C243.25,-642.87 245.6,-630.03 247.85,-617.75"/>
<polygon fill="orange" stroke="orange" points="237.49,-654.87 239.13,-665.34 244.38,-656.13 237.49,-654.87"/>
<text text-anchor="middle" x="271" y="-639" font-family="Helvetica,sans-Serif" font-size="10.00"> &lt; wchar_t &gt;</text>
</g>
<!-- Node6 -->
<g id="node6" class="node">
<title>Node6</title>
<g id="a_node6"><a xlink:href="../../de/d96/structSDK_1_1FEFIconInfo.html" target="_top" xlink:title=" ">
<polygon fill="white" stroke="black" points="209,-105.5 209,-162.5 307,-162.5 307,-105.5 209,-105.5"/>
<text text-anchor="middle" x="258" y="-150.5" font-family="Helvetica,sans-Serif" font-size="10.00">SDK::FEFIconInfo</text>
<polyline fill="none" stroke="black" points="209,-143.5 307,-143.5 "/>
<text text-anchor="start" x="217" y="-131.5" font-family="Helvetica,sans-Serif" font-size="10.00">+ IconIndex</text>
<polyline fill="none" stroke="black" points="209,-124.5 307,-124.5 "/>
<text text-anchor="middle" x="258" y="-112.5" font-family="Helvetica,sans-Serif" font-size="10.00"> </text>
</a>
</g>
</g>
<!-- Node6&#45;&gt;Node1 -->
<g id="edge5" class="edge">
<title>Node6&#45;&gt;Node1</title>
<path fill="none" stroke="#404040" d="M226.65,-105.4C212.88,-93.28 196.53,-78.88 181.82,-65.94"/>
<polygon fill="none" stroke="#404040" points="181.45,-65.61 174.3,-64.65 172.44,-57.68 179.59,-58.64 181.45,-65.61"/>
<text text-anchor="middle" x="230.5" y="-79" font-family="Helvetica,sans-Serif" font-size="10.00"> +GameIcon</text>
</g>
<!-- Node7 -->
<g id="node7" class="node">
<title>Node7</title>
<g id="a_node7"><a xlink:href="../../d3/d88/classSDK_1_1FString.html" target="_top" xlink:title=" ">
<polygon fill="white" stroke="black" points="221.5,-323.5 221.5,-424.5 296.5,-424.5 296.5,-323.5 221.5,-323.5"/>
<text text-anchor="middle" x="259" y="-412.5" font-family="Helvetica,sans-Serif" font-size="10.00">SDK::FString</text>
<polyline fill="none" stroke="black" points="221.5,-405.5 296.5,-405.5 "/>
<text text-anchor="middle" x="259" y="-393.5" font-family="Helvetica,sans-Serif" font-size="10.00"> </text>
<polyline fill="none" stroke="black" points="221.5,-386.5 296.5,-386.5 "/>
<text text-anchor="start" x="229.5" y="-374.5" font-family="Helvetica,sans-Serif" font-size="10.00">+ FString()</text>
<text text-anchor="start" x="229.5" y="-363.5" font-family="Helvetica,sans-Serif" font-size="10.00">+ FString()</text>
<text text-anchor="start" x="229.5" y="-352.5" font-family="Helvetica,sans-Serif" font-size="10.00">+ IsValid()</text>
<text text-anchor="start" x="229.5" y="-341.5" font-family="Helvetica,sans-Serif" font-size="10.00">+ c_str()</text>
<text text-anchor="start" x="229.5" y="-330.5" font-family="Helvetica,sans-Serif" font-size="10.00">+ ToString()</text>
</a>
</g>
</g>
<!-- Node7&#45;&gt;Node6 -->
<g id="edge6" class="edge">
<title>Node7&#45;&gt;Node6</title>
<path fill="none" stroke="#404040" d="M258.79,-323.4C258.61,-279.29 258.34,-215.64 258.17,-174.79"/>
<polygon fill="none" stroke="#404040" points="258.17,-174.64 254.14,-168.66 258.12,-162.64 262.14,-168.63 258.17,-174.64"/>
<text text-anchor="middle" x="291.5" y="-246" font-family="Helvetica,sans-Serif" font-size="10.00"> +IconPackage</text>
<text text-anchor="middle" x="291.5" y="-235" font-family="Helvetica,sans-Serif" font-size="10.00">+IconName</text>
</g>
<!-- Node8&#45;&gt;Node7 -->
<g id="edge7" class="edge">
<title>Node8&#45;&gt;Node7</title>
<path fill="none" stroke="midnightblue" d="M260.03,-462.08C259.88,-449.24 259.73,-436.33 259.59,-424.52"/>
<polygon fill="none" stroke="midnightblue" points="256.53,-462.37 260.15,-472.33 263.53,-462.29 256.53,-462.37"/>
</g>
</g>
</svg>
