<?xml version="1.0" encoding="UTF-8" standalone="no"?>
<!DOCTYPE svg PUBLIC "-//W3C//DTD SVG 1.1//EN"
 "http://www.w3.org/Graphics/SVG/1.1/DTD/svg11.dtd">
<!-- Generated by graphviz version 2.41.20171026.1811 (20171026.1811)
 -->
<!-- Title: SDK::UOnlinePlaylistGameTypeProvider Pages: 1 -->
<svg width="206pt" height="1020pt"
 viewBox="0.00 0.00 206.00 1020.00" xmlns="http://www.w3.org/2000/svg" xmlns:xlink="http://www.w3.org/1999/xlink">
<g id="graph0" class="graph" transform="scale(1 1) rotate(0) translate(4 1016)">
<title>SDK::UOnlinePlaylistGameTypeProvider</title>
<polygon fill="white" stroke="transparent" points="-4,4 -4,-1016 202,-1016 202,4 -4,4"/>
<!-- Node1 -->
<g id="node1" class="node">
<title>Node1</title>
<g id="a_node1"><a xlink:title=" ">
<polygon fill="#bfbfbf" stroke="black" points="30.5,-0.5 30.5,-101.5 167.5,-101.5 167.5,-0.5 30.5,-0.5"/>
<text text-anchor="start" x="38.5" y="-89.5" font-family="Helvetica,sans-Serif" font-size="10.00">SDK::UOnlinePlaylistGame</text>
<text text-anchor="middle" x="99" y="-78.5" font-family="Helvetica,sans-Serif" font-size="10.00">TypeProvider</text>
<polyline fill="none" stroke="black" points="30.5,-71.5 167.5,-71.5 "/>
<text text-anchor="start" x="38.5" y="-59.5" font-family="Helvetica,sans-Serif" font-size="10.00">+ PlaylistGameTypeName</text>
<text text-anchor="start" x="38.5" y="-48.5" font-family="Helvetica,sans-Serif" font-size="10.00">+ DisplayName</text>
<text text-anchor="start" x="38.5" y="-37.5" font-family="Helvetica,sans-Serif" font-size="10.00">+ Description</text>
<text text-anchor="start" x="38.5" y="-26.5" font-family="Helvetica,sans-Serif" font-size="10.00">+ GameTypeId</text>
<polyline fill="none" stroke="black" points="30.5,-19.5 167.5,-19.5 "/>
<text text-anchor="start" x="38.5" y="-7.5" font-family="Helvetica,sans-Serif" font-size="10.00">+ StaticClass()</text>
</a>
</g>
</g>
<!-- Node2 -->
<g id="node2" class="node">
<title>Node2</title>
<g id="a_node2"><a xlink:href="../../d8/de8/classSDK_1_1UUIResourceDataProvider.html" target="_top" xlink:title=" ">
<polygon fill="white" stroke="black" points="18.5,-138.5 18.5,-206.5 179.5,-206.5 179.5,-138.5 18.5,-138.5"/>
<text text-anchor="middle" x="99" y="-194.5" font-family="Helvetica,sans-Serif" font-size="10.00">SDK::UUIResourceDataProvider</text>
<polyline fill="none" stroke="black" points="18.5,-187.5 179.5,-187.5 "/>
<text text-anchor="start" x="26.5" y="-175.5" font-family="Helvetica,sans-Serif" font-size="10.00">+ bSkipDuringEnumeration</text>
<polyline fill="none" stroke="black" points="18.5,-168.5 179.5,-168.5 "/>
<text text-anchor="start" x="26.5" y="-156.5" font-family="Helvetica,sans-Serif" font-size="10.00">+ InitializeProvider()</text>
<text text-anchor="start" x="26.5" y="-145.5" font-family="Helvetica,sans-Serif" font-size="10.00">+ StaticClass()</text>
</a>
</g>
</g>
<!-- Node2&#45;&gt;Node1 -->
<g id="edge1" class="edge">
<title>Node2&#45;&gt;Node1</title>
<path fill="none" stroke="midnightblue" d="M99,-128.05C99,-119.47 99,-110.41 99,-101.65"/>
<polygon fill="none" stroke="midnightblue" points="95.5,-128.21 99,-138.21 102.5,-128.21 95.5,-128.21"/>
</g>
<!-- Node3 -->
<g id="node3" class="node">
<title>Node3</title>
<g id="a_node3"><a xlink:href="../../d2/d3a/classSDK_1_1UUIPropertyDataProvider.html" target="_top" xlink:title=" ">
<polygon fill="white" stroke="black" points="8.5,-243.5 8.5,-333.5 189.5,-333.5 189.5,-243.5 8.5,-243.5"/>
<text text-anchor="middle" x="99" y="-321.5" font-family="Helvetica,sans-Serif" font-size="10.00">SDK::UUIPropertyDataProvider</text>
<polyline fill="none" stroke="black" points="8.5,-314.5 189.5,-314.5 "/>
<text text-anchor="start" x="16.5" y="-302.5" font-family="Helvetica,sans-Serif" font-size="10.00">+ ComplexPropertyTypes</text>
<text text-anchor="start" x="16.5" y="-291.5" font-family="Helvetica,sans-Serif" font-size="10.00">+ __CanSupportComplexProperty</text>
<text text-anchor="start" x="16.5" y="-280.5" font-family="Helvetica,sans-Serif" font-size="10.00">Type__Delegate</text>
<polyline fill="none" stroke="black" points="8.5,-273.5 189.5,-273.5 "/>
<text text-anchor="start" x="16.5" y="-261.5" font-family="Helvetica,sans-Serif" font-size="10.00">+ CanSupportComplexPropertyType()</text>
<text text-anchor="start" x="16.5" y="-250.5" font-family="Helvetica,sans-Serif" font-size="10.00">+ StaticClass()</text>
</a>
</g>
</g>
<!-- Node3&#45;&gt;Node2 -->
<g id="edge2" class="edge">
<title>Node3&#45;&gt;Node2</title>
<path fill="none" stroke="midnightblue" d="M99,-233.32C99,-224.28 99,-215.16 99,-206.85"/>
<polygon fill="none" stroke="midnightblue" points="95.5,-233.42 99,-243.42 102.5,-233.42 95.5,-233.42"/>
</g>
<!-- Node4 -->
<g id="node4" class="node">
<title>Node4</title>
<g id="a_node4"><a xlink:href="../../d7/dd2/classSDK_1_1UUIDataProvider.html" target="_top" xlink:title=" ">
<polygon fill="white" stroke="black" points="39.5,-370.5 39.5,-427.5 158.5,-427.5 158.5,-370.5 39.5,-370.5"/>
<text text-anchor="middle" x="99" y="-415.5" font-family="Helvetica,sans-Serif" font-size="10.00">SDK::UUIDataProvider</text>
<polyline fill="none" stroke="black" points="39.5,-408.5 158.5,-408.5 "/>
<text text-anchor="middle" x="99" y="-396.5" font-family="Helvetica,sans-Serif" font-size="10.00"> </text>
<polyline fill="none" stroke="black" points="39.5,-389.5 158.5,-389.5 "/>
<text text-anchor="start" x="47.5" y="-377.5" font-family="Helvetica,sans-Serif" font-size="10.00">+ StaticClass()</text>
</a>
</g>
</g>
<!-- Node4&#45;&gt;Node3 -->
<g id="edge3" class="edge">
<title>Node4&#45;&gt;Node3</title>
<path fill="none" stroke="midnightblue" d="M99,-360.21C99,-351.61 99,-342.39 99,-333.55"/>
<polygon fill="none" stroke="midnightblue" points="95.5,-360.34 99,-370.34 102.5,-360.34 95.5,-360.34"/>
</g>
<!-- Node5 -->
<g id="node5" class="node">
<title>Node5</title>
<g id="a_node5"><a xlink:href="../../da/dd4/classSDK_1_1UUIRoot.html" target="_top" xlink:title=" ">
<polygon fill="white" stroke="black" points="2,-464.5 2,-620.5 196,-620.5 196,-464.5 2,-464.5"/>
<text text-anchor="middle" x="99" y="-608.5" font-family="Helvetica,sans-Serif" font-size="10.00">SDK::UUIRoot</text>
<polyline fill="none" stroke="black" points="2,-601.5 196,-601.5 "/>
<text text-anchor="start" x="10" y="-589.5" font-family="Helvetica,sans-Serif" font-size="10.00">+ BadCapsLocContexts</text>
<polyline fill="none" stroke="black" points="2,-582.5 196,-582.5 "/>
<text text-anchor="start" x="10" y="-570.5" font-family="Helvetica,sans-Serif" font-size="10.00">+ STATIC_SafeCaps()</text>
<text text-anchor="start" x="10" y="-559.5" font-family="Helvetica,sans-Serif" font-size="10.00">+ STATIC_GetOnlinePlayerInterfaceEx()</text>
<text text-anchor="start" x="10" y="-548.5" font-family="Helvetica,sans-Serif" font-size="10.00">+ STATIC_GetOnlinePlayerInterface()</text>
<text text-anchor="start" x="10" y="-537.5" font-family="Helvetica,sans-Serif" font-size="10.00">+ STATIC_GetOnlineGameInterface()</text>
<text text-anchor="start" x="10" y="-526.5" font-family="Helvetica,sans-Serif" font-size="10.00">+ STATIC_StaticResolveData</text>
<text text-anchor="start" x="10" y="-515.5" font-family="Helvetica,sans-Serif" font-size="10.00">Store()</text>
<text text-anchor="start" x="10" y="-504.5" font-family="Helvetica,sans-Serif" font-size="10.00">+ STATIC_GetSceneClient()</text>
<text text-anchor="start" x="10" y="-493.5" font-family="Helvetica,sans-Serif" font-size="10.00">+ STATIC_GetCurrentUIController()</text>
<text text-anchor="start" x="10" y="-482.5" font-family="Helvetica,sans-Serif" font-size="10.00">+ STATIC_GetInputPlatformType()</text>
<text text-anchor="start" x="10" y="-471.5" font-family="Helvetica,sans-Serif" font-size="10.00">+ StaticClass()</text>
</a>
</g>
</g>
<!-- Node5&#45;&gt;Node4 -->
<g id="edge4" class="edge">
<title>Node5&#45;&gt;Node4</title>
<path fill="none" stroke="midnightblue" d="M99,-453.84C99,-444.48 99,-435.54 99,-427.72"/>
<polygon fill="none" stroke="midnightblue" points="95.5,-454.13 99,-464.13 102.5,-454.13 95.5,-454.13"/>
</g>
<!-- Node6 -->
<g id="node6" class="node">
<title>Node6</title>
<g id="a_node6"><a xlink:href="../../d9/d45/classSDK_1_1UObject.html" target="_top" xlink:title=" ">
<polygon fill="white" stroke="black" points="0,-657.5 0,-1011.5 198,-1011.5 198,-657.5 0,-657.5"/>
<text text-anchor="middle" x="99" y="-999.5" font-family="Helvetica,sans-Serif" font-size="10.00">SDK::UObject</text>
<polyline fill="none" stroke="black" points="0,-992.5 198,-992.5 "/>
<text text-anchor="start" x="8" y="-980.5" font-family="Helvetica,sans-Serif" font-size="10.00">+ VfTableObject</text>
<text text-anchor="start" x="8" y="-969.5" font-family="Helvetica,sans-Serif" font-size="10.00">+ ObjectFlags</text>
<text text-anchor="start" x="8" y="-958.5" font-family="Helvetica,sans-Serif" font-size="10.00">+ StateFrame</text>
<text text-anchor="start" x="8" y="-947.5" font-family="Helvetica,sans-Serif" font-size="10.00">+ Linker</text>
<text text-anchor="start" x="8" y="-936.5" font-family="Helvetica,sans-Serif" font-size="10.00">+ LinkerIndex</text>
<text text-anchor="start" x="8" y="-925.5" font-family="Helvetica,sans-Serif" font-size="10.00">+ ObjectInternalInteger</text>
<text text-anchor="start" x="8" y="-914.5" font-family="Helvetica,sans-Serif" font-size="10.00">+ NetIndex</text>
<text text-anchor="start" x="8" y="-903.5" font-family="Helvetica,sans-Serif" font-size="10.00">+ Outer</text>
<text text-anchor="start" x="8" y="-892.5" font-family="Helvetica,sans-Serif" font-size="10.00">+ Name</text>
<text text-anchor="start" x="8" y="-881.5" font-family="Helvetica,sans-Serif" font-size="10.00">+ Class</text>
<text text-anchor="start" x="8" y="-870.5" font-family="Helvetica,sans-Serif" font-size="10.00">+ ObjectArchetype</text>
<text text-anchor="start" x="8" y="-859.5" font-family="Helvetica,sans-Serif" font-size="10.00">+ GObjects</text>
<polyline fill="none" stroke="black" points="0,-852.5 198,-852.5 "/>
<text text-anchor="start" x="8" y="-840.5" font-family="Helvetica,sans-Serif" font-size="10.00">+ UObject::GetName()</text>
<text text-anchor="start" x="8" y="-829.5" font-family="Helvetica,sans-Serif" font-size="10.00">+ GetFullName()</text>
<text text-anchor="start" x="8" y="-818.5" font-family="Helvetica,sans-Serif" font-size="10.00">+ IsA()</text>
<text text-anchor="start" x="8" y="-807.5" font-family="Helvetica,sans-Serif" font-size="10.00">+ ProcessEvent()</text>
<text text-anchor="start" x="8" y="-796.5" font-family="Helvetica,sans-Serif" font-size="10.00">+ STATIC_ProfNodeEvent()</text>
<text text-anchor="start" x="8" y="-785.5" font-family="Helvetica,sans-Serif" font-size="10.00">+ STATIC_ProfNodeSetDepthThreshold()</text>
<text text-anchor="start" x="8" y="-774.5" font-family="Helvetica,sans-Serif" font-size="10.00">+ STATIC_ProfNodeSetTimeThreshold</text>
<text text-anchor="start" x="8" y="-763.5" font-family="Helvetica,sans-Serif" font-size="10.00">Seconds()</text>
<text text-anchor="start" x="8" y="-752.5" font-family="Helvetica,sans-Serif" font-size="10.00">+ STATIC_ProfNodeStop()</text>
<text text-anchor="start" x="8" y="-741.5" font-family="Helvetica,sans-Serif" font-size="10.00">+ STATIC_ProfNodeStart()</text>
<text text-anchor="start" x="8" y="-730.5" font-family="Helvetica,sans-Serif" font-size="10.00">+ STATIC_GetStringFromGuid()</text>
<text text-anchor="start" x="8" y="-719.5" font-family="Helvetica,sans-Serif" font-size="10.00">and 298 more...</text>
<text text-anchor="start" x="8" y="-708.5" font-family="Helvetica,sans-Serif" font-size="10.00">+ GetGlobalObjects()</text>
<text text-anchor="start" x="8" y="-697.5" font-family="Helvetica,sans-Serif" font-size="10.00">+ FindObject()</text>
<text text-anchor="start" x="8" y="-686.5" font-family="Helvetica,sans-Serif" font-size="10.00">+ FindClass()</text>
<text text-anchor="start" x="8" y="-675.5" font-family="Helvetica,sans-Serif" font-size="10.00">+ GetObjectCasted()</text>
<text text-anchor="start" x="8" y="-664.5" font-family="Helvetica,sans-Serif" font-size="10.00">+ StaticClass()</text>
</a>
</g>
</g>
<!-- Node6&#45;&gt;Node5 -->
<g id="edge5" class="edge">
<title>Node6&#45;&gt;Node5</title>
<path fill="none" stroke="midnightblue" d="M99,-647.25C99,-638.08 99,-629.15 99,-620.63"/>
<polygon fill="none" stroke="midnightblue" points="95.5,-647.28 99,-657.28 102.5,-647.28 95.5,-647.28"/>
</g>
</g>
</svg>
