<?xml version="1.0" encoding="UTF-8" standalone="no"?>
<!DOCTYPE svg PUBLIC "-//W3C//DTD SVG 1.1//EN"
 "http://www.w3.org/Graphics/SVG/1.1/DTD/svg11.dtd">
<!-- Generated by graphviz version 2.41.20171026.1811 (20171026.1811)
 -->
<!-- Title: SDK::UEFGFxWidgetCustomColorPicker Pages: 1 -->
<svg width="928pt" height="2795pt"
 viewBox="0.00 0.00 927.50 2795.00" xmlns="http://www.w3.org/2000/svg" xmlns:xlink="http://www.w3.org/1999/xlink">
<g id="graph0" class="graph" transform="scale(1 1) rotate(0) translate(4 2791)">
<title>SDK::UEFGFxWidgetCustomColorPicker</title>
<polygon fill="white" stroke="transparent" points="-4,4 -4,-2791 923.5,-2791 923.5,4 -4,4"/>
<!-- Node1 -->
<g id="node1" class="node">
<title>Node1</title>
<g id="a_node1"><a xlink:title=" ">
<polygon fill="#bfbfbf" stroke="black" points="0,-0.5 0,-189.5 171,-189.5 171,-0.5 0,-0.5"/>
<text text-anchor="start" x="8" y="-177.5" font-family="Helvetica,sans-Serif" font-size="10.00">SDK::UEFGFxWidgetCustomColor</text>
<text text-anchor="middle" x="85.5" y="-166.5" font-family="Helvetica,sans-Serif" font-size="10.00">Picker</text>
<polyline fill="none" stroke="black" points="0,-159.5 171,-159.5 "/>
<text text-anchor="middle" x="85.5" y="-147.5" font-family="Helvetica,sans-Serif" font-size="10.00"> </text>
<polyline fill="none" stroke="black" points="0,-140.5 171,-140.5 "/>
<text text-anchor="start" x="8" y="-128.5" font-family="Helvetica,sans-Serif" font-size="10.00">+ SetTargetPosition()</text>
<text text-anchor="start" x="8" y="-117.5" font-family="Helvetica,sans-Serif" font-size="10.00">+ SetTargetCode()</text>
<text text-anchor="start" x="8" y="-106.5" font-family="Helvetica,sans-Serif" font-size="10.00">+ SetColor()</text>
<text text-anchor="start" x="8" y="-95.5" font-family="Helvetica,sans-Serif" font-size="10.00">+ SetInit()</text>
<text text-anchor="start" x="8" y="-84.5" font-family="Helvetica,sans-Serif" font-size="10.00">+ ColorPickerColorChanged()</text>
<text text-anchor="start" x="8" y="-73.5" font-family="Helvetica,sans-Serif" font-size="10.00">+ ColorPickerLightnessChanged()</text>
<text text-anchor="start" x="8" y="-62.5" font-family="Helvetica,sans-Serif" font-size="10.00">+ RequestARKColorPickerDefault</text>
<text text-anchor="start" x="8" y="-51.5" font-family="Helvetica,sans-Serif" font-size="10.00">Setting()</text>
<text text-anchor="start" x="8" y="-40.5" font-family="Helvetica,sans-Serif" font-size="10.00">+ RequestARKColorPickerSave</text>
<text text-anchor="start" x="8" y="-29.5" font-family="Helvetica,sans-Serif" font-size="10.00">Setting()</text>
<text text-anchor="start" x="8" y="-18.5" font-family="Helvetica,sans-Serif" font-size="10.00">+ RequestARKColorPickerClose()</text>
<text text-anchor="start" x="8" y="-7.5" font-family="Helvetica,sans-Serif" font-size="10.00">+ StaticClass()</text>
</a>
</g>
</g>
<!-- Node2 -->
<g id="node2" class="node">
<title>Node2</title>
<g id="a_node2"><a xlink:href="../../d0/d88/classSDK_1_1UEFUIWindowContent.html" target="_top" xlink:title=" ">
<polygon fill="white" stroke="black" points="13.5,-227.5 13.5,-284.5 157.5,-284.5 157.5,-227.5 13.5,-227.5"/>
<text text-anchor="middle" x="85.5" y="-272.5" font-family="Helvetica,sans-Serif" font-size="10.00">SDK::UEFUIWindowContent</text>
<polyline fill="none" stroke="black" points="13.5,-265.5 157.5,-265.5 "/>
<text text-anchor="middle" x="85.5" y="-253.5" font-family="Helvetica,sans-Serif" font-size="10.00"> </text>
<polyline fill="none" stroke="black" points="13.5,-246.5 157.5,-246.5 "/>
<text text-anchor="start" x="21.5" y="-234.5" font-family="Helvetica,sans-Serif" font-size="10.00">+ StaticClass()</text>
</a>
</g>
</g>
<!-- Node2&#45;&gt;Node1 -->
<g id="edge1" class="edge">
<title>Node2&#45;&gt;Node1</title>
<path fill="none" stroke="midnightblue" d="M85.5,-217.08C85.5,-208.6 85.5,-199.24 85.5,-189.6"/>
<polygon fill="none" stroke="midnightblue" points="82,-217.3 85.5,-227.3 89,-217.3 82,-217.3"/>
</g>
<!-- Node3 -->
<g id="node3" class="node">
<title>Node3</title>
<g id="a_node3"><a xlink:href="../../d2/d77/classSDK_1_1UEFUIControl.html" target="_top" xlink:title=" ">
<polygon fill="white" stroke="black" points="32.5,-322.5 32.5,-379.5 138.5,-379.5 138.5,-322.5 32.5,-322.5"/>
<text text-anchor="middle" x="85.5" y="-367.5" font-family="Helvetica,sans-Serif" font-size="10.00">SDK::UEFUIControl</text>
<polyline fill="none" stroke="black" points="32.5,-360.5 138.5,-360.5 "/>
<text text-anchor="middle" x="85.5" y="-348.5" font-family="Helvetica,sans-Serif" font-size="10.00"> </text>
<polyline fill="none" stroke="black" points="32.5,-341.5 138.5,-341.5 "/>
<text text-anchor="start" x="40.5" y="-329.5" font-family="Helvetica,sans-Serif" font-size="10.00">+ StaticClass()</text>
</a>
</g>
</g>
<!-- Node3&#45;&gt;Node2 -->
<g id="edge2" class="edge">
<title>Node3&#45;&gt;Node2</title>
<path fill="none" stroke="midnightblue" d="M85.5,-312.24C85.5,-303.03 85.5,-293.35 85.5,-284.71"/>
<polygon fill="none" stroke="midnightblue" points="82,-312.35 85.5,-322.35 89,-312.35 82,-312.35"/>
</g>
<!-- Node4 -->
<g id="node4" class="node">
<title>Node4</title>
<g id="a_node4"><a xlink:href="../../dd/d3c/classSDK_1_1UEFUIComponent.html" target="_top" xlink:title=" ">
<polygon fill="white" stroke="black" points="23,-417.5 23,-595.5 148,-595.5 148,-417.5 23,-417.5"/>
<text text-anchor="middle" x="85.5" y="-583.5" font-family="Helvetica,sans-Serif" font-size="10.00">SDK::UEFUIComponent</text>
<polyline fill="none" stroke="black" points="23,-576.5 148,-576.5 "/>
<text text-anchor="middle" x="85.5" y="-564.5" font-family="Helvetica,sans-Serif" font-size="10.00"> </text>
<polyline fill="none" stroke="black" points="23,-557.5 148,-557.5 "/>
<text text-anchor="start" x="31" y="-545.5" font-family="Helvetica,sans-Serif" font-size="10.00">+ InvalidateSize()</text>
<text text-anchor="start" x="31" y="-534.5" font-family="Helvetica,sans-Serif" font-size="10.00">+ InvalidateData()</text>
<text text-anchor="start" x="31" y="-523.5" font-family="Helvetica,sans-Serif" font-size="10.00">+ Invalidate()</text>
<text text-anchor="start" x="31" y="-512.5" font-family="Helvetica,sans-Serif" font-size="10.00">+ ValidateNow()</text>
<text text-anchor="start" x="31" y="-501.5" font-family="Helvetica,sans-Serif" font-size="10.00">+ HasFocus()</text>
<text text-anchor="start" x="31" y="-490.5" font-family="Helvetica,sans-Serif" font-size="10.00">+ GetY()</text>
<text text-anchor="start" x="31" y="-479.5" font-family="Helvetica,sans-Serif" font-size="10.00">+ SetY()</text>
<text text-anchor="start" x="31" y="-468.5" font-family="Helvetica,sans-Serif" font-size="10.00">+ GetX()</text>
<text text-anchor="start" x="31" y="-457.5" font-family="Helvetica,sans-Serif" font-size="10.00">+ SetX()</text>
<text text-anchor="start" x="31" y="-446.5" font-family="Helvetica,sans-Serif" font-size="10.00">+ GetHeight()</text>
<text text-anchor="start" x="31" y="-435.5" font-family="Helvetica,sans-Serif" font-size="10.00">and 10 more...</text>
<text text-anchor="start" x="31" y="-424.5" font-family="Helvetica,sans-Serif" font-size="10.00">+ StaticClass()</text>
</a>
</g>
</g>
<!-- Node4&#45;&gt;Node3 -->
<g id="edge3" class="edge">
<title>Node4&#45;&gt;Node3</title>
<path fill="none" stroke="midnightblue" d="M85.5,-407.02C85.5,-397.1 85.5,-387.7 85.5,-379.57"/>
<polygon fill="none" stroke="midnightblue" points="82,-407.1 85.5,-417.1 89,-407.1 82,-407.1"/>
</g>
<!-- Node5 -->
<g id="node5" class="node">
<title>Node5</title>
<g id="a_node5"><a xlink:href="../../dc/dd3/classSDK_1_1UGFxClikWidget.html" target="_top" xlink:title=" ">
<polygon fill="white" stroke="black" points="2,-633.5 2,-778.5 169,-778.5 169,-633.5 2,-633.5"/>
<text text-anchor="middle" x="85.5" y="-766.5" font-family="Helvetica,sans-Serif" font-size="10.00">SDK::UGFxClikWidget</text>
<polyline fill="none" stroke="black" points="2,-759.5 169,-759.5 "/>
<text text-anchor="middle" x="85.5" y="-747.5" font-family="Helvetica,sans-Serif" font-size="10.00"> </text>
<polyline fill="none" stroke="black" points="2,-740.5 169,-740.5 "/>
<text text-anchor="start" x="10" y="-728.5" font-family="Helvetica,sans-Serif" font-size="10.00">+ ASRemoveAllEventListeners()</text>
<text text-anchor="start" x="10" y="-717.5" font-family="Helvetica,sans-Serif" font-size="10.00">+ AS3AddEventListener()</text>
<text text-anchor="start" x="10" y="-706.5" font-family="Helvetica,sans-Serif" font-size="10.00">+ ASAddEventListener()</text>
<text text-anchor="start" x="10" y="-695.5" font-family="Helvetica,sans-Serif" font-size="10.00">+ SetListener()</text>
<text text-anchor="start" x="10" y="-684.5" font-family="Helvetica,sans-Serif" font-size="10.00">+ GetEventStringFromTypename()</text>
<text text-anchor="start" x="10" y="-673.5" font-family="Helvetica,sans-Serif" font-size="10.00">+ RemoveAllEventListeners()</text>
<text text-anchor="start" x="10" y="-662.5" font-family="Helvetica,sans-Serif" font-size="10.00">+ AddEventListener()</text>
<text text-anchor="start" x="10" y="-651.5" font-family="Helvetica,sans-Serif" font-size="10.00">+ EventListener()</text>
<text text-anchor="start" x="10" y="-640.5" font-family="Helvetica,sans-Serif" font-size="10.00">+ StaticClass()</text>
</a>
</g>
</g>
<!-- Node5&#45;&gt;Node4 -->
<g id="edge4" class="edge">
<title>Node5&#45;&gt;Node4</title>
<path fill="none" stroke="midnightblue" d="M85.5,-623.25C85.5,-614.15 85.5,-604.85 85.5,-595.68"/>
<polygon fill="none" stroke="midnightblue" points="82,-623.42 85.5,-633.42 89,-623.42 82,-623.42"/>
</g>
<!-- Node6 -->
<g id="node6" class="node">
<title>Node6</title>
<g id="a_node6"><a xlink:href="../../d2/d23/classSDK_1_1UGFxObject.html" target="_top" xlink:title=" ">
<polygon fill="white" stroke="black" points="624,-816.5 624,-1005.5 773,-1005.5 773,-816.5 624,-816.5"/>
<text text-anchor="middle" x="698.5" y="-993.5" font-family="Helvetica,sans-Serif" font-size="10.00">SDK::UGFxObject</text>
<polyline fill="none" stroke="black" points="624,-986.5 773,-986.5 "/>
<text text-anchor="start" x="632" y="-974.5" font-family="Helvetica,sans-Serif" font-size="10.00">+ Value</text>
<text text-anchor="start" x="632" y="-963.5" font-family="Helvetica,sans-Serif" font-size="10.00">+ bListenExternalInterfaceCall</text>
<polyline fill="none" stroke="black" points="624,-956.5 773,-956.5 "/>
<text text-anchor="start" x="632" y="-944.5" font-family="Helvetica,sans-Serif" font-size="10.00">+ DestroyGFxObject()</text>
<text text-anchor="start" x="632" y="-933.5" font-family="Helvetica,sans-Serif" font-size="10.00">+ WidgetUnloaded()</text>
<text text-anchor="start" x="632" y="-922.5" font-family="Helvetica,sans-Serif" font-size="10.00">+ WidgetInitialized()</text>
<text text-anchor="start" x="632" y="-911.5" font-family="Helvetica,sans-Serif" font-size="10.00">+ GotoAndStopI()</text>
<text text-anchor="start" x="632" y="-900.5" font-family="Helvetica,sans-Serif" font-size="10.00">+ GotoAndStop()</text>
<text text-anchor="start" x="632" y="-889.5" font-family="Helvetica,sans-Serif" font-size="10.00">+ GotoAndPlayI()</text>
<text text-anchor="start" x="632" y="-878.5" font-family="Helvetica,sans-Serif" font-size="10.00">+ GotoAndPlay()</text>
<text text-anchor="start" x="632" y="-867.5" font-family="Helvetica,sans-Serif" font-size="10.00">+ ActionScriptString()</text>
<text text-anchor="start" x="632" y="-856.5" font-family="Helvetica,sans-Serif" font-size="10.00">+ ActionScriptFloat()</text>
<text text-anchor="start" x="632" y="-845.5" font-family="Helvetica,sans-Serif" font-size="10.00">+ ActionScriptInt()</text>
<text text-anchor="start" x="632" y="-834.5" font-family="Helvetica,sans-Serif" font-size="10.00">and 69 more...</text>
<text text-anchor="start" x="632" y="-823.5" font-family="Helvetica,sans-Serif" font-size="10.00">+ StaticClass()</text>
</a>
</g>
</g>
<!-- Node6&#45;&gt;Node5 -->
<g id="edge5" class="edge">
<title>Node6&#45;&gt;Node5</title>
<path fill="none" stroke="midnightblue" d="M614.29,-882.11C497.15,-843.32 286.26,-773.48 169.32,-734.76"/>
<polygon fill="none" stroke="midnightblue" points="613.35,-885.49 623.95,-885.31 615.55,-878.84 613.35,-885.49"/>
</g>
<!-- Node7 -->
<g id="node7" class="node">
<title>Node7</title>
<g id="a_node7"><a xlink:href="../../d9/d45/classSDK_1_1UObject.html" target="_top" xlink:title=" ">
<polygon fill="white" stroke="black" points="463.5,-1894.5 463.5,-2138.5 661.5,-2138.5 661.5,-1894.5 463.5,-1894.5"/>
<text text-anchor="middle" x="562.5" y="-2126.5" font-family="Helvetica,sans-Serif" font-size="10.00">SDK::UObject</text>
<polyline fill="none" stroke="black" points="463.5,-2119.5 661.5,-2119.5 "/>
<text text-anchor="start" x="471.5" y="-2107.5" font-family="Helvetica,sans-Serif" font-size="10.00">+ ObjectInternalInteger</text>
<text text-anchor="start" x="471.5" y="-2096.5" font-family="Helvetica,sans-Serif" font-size="10.00">+ NetIndex</text>
<polyline fill="none" stroke="black" points="463.5,-2089.5 661.5,-2089.5 "/>
<text text-anchor="start" x="471.5" y="-2077.5" font-family="Helvetica,sans-Serif" font-size="10.00">+ UObject::GetName()</text>
<text text-anchor="start" x="471.5" y="-2066.5" font-family="Helvetica,sans-Serif" font-size="10.00">+ GetFullName()</text>
<text text-anchor="start" x="471.5" y="-2055.5" font-family="Helvetica,sans-Serif" font-size="10.00">+ IsA()</text>
<text text-anchor="start" x="471.5" y="-2044.5" font-family="Helvetica,sans-Serif" font-size="10.00">+ ProcessEvent()</text>
<text text-anchor="start" x="471.5" y="-2033.5" font-family="Helvetica,sans-Serif" font-size="10.00">+ STATIC_ProfNodeEvent()</text>
<text text-anchor="start" x="471.5" y="-2022.5" font-family="Helvetica,sans-Serif" font-size="10.00">+ STATIC_ProfNodeSetDepthThreshold()</text>
<text text-anchor="start" x="471.5" y="-2011.5" font-family="Helvetica,sans-Serif" font-size="10.00">+ STATIC_ProfNodeSetTimeThreshold</text>
<text text-anchor="start" x="471.5" y="-2000.5" font-family="Helvetica,sans-Serif" font-size="10.00">Seconds()</text>
<text text-anchor="start" x="471.5" y="-1989.5" font-family="Helvetica,sans-Serif" font-size="10.00">+ STATIC_ProfNodeStop()</text>
<text text-anchor="start" x="471.5" y="-1978.5" font-family="Helvetica,sans-Serif" font-size="10.00">+ STATIC_ProfNodeStart()</text>
<text text-anchor="start" x="471.5" y="-1967.5" font-family="Helvetica,sans-Serif" font-size="10.00">+ STATIC_GetStringFromGuid()</text>
<text text-anchor="start" x="471.5" y="-1956.5" font-family="Helvetica,sans-Serif" font-size="10.00">and 298 more...</text>
<text text-anchor="start" x="471.5" y="-1945.5" font-family="Helvetica,sans-Serif" font-size="10.00">+ GetGlobalObjects()</text>
<text text-anchor="start" x="471.5" y="-1934.5" font-family="Helvetica,sans-Serif" font-size="10.00">+ FindObject()</text>
<text text-anchor="start" x="471.5" y="-1923.5" font-family="Helvetica,sans-Serif" font-size="10.00">+ FindClass()</text>
<text text-anchor="start" x="471.5" y="-1912.5" font-family="Helvetica,sans-Serif" font-size="10.00">+ GetObjectCasted()</text>
<text text-anchor="start" x="471.5" y="-1901.5" font-family="Helvetica,sans-Serif" font-size="10.00">+ StaticClass()</text>
</a>
</g>
</g>
<!-- Node7&#45;&gt;Node6 -->
<g id="edge6" class="edge">
<title>Node7&#45;&gt;Node6</title>
<path fill="none" stroke="midnightblue" d="M670.89,-1970.45C744.11,-1931.99 827.5,-1868.81 827.5,-1780.5 827.5,-1780.5 827.5,-1780.5 827.5,-1125 827.5,-1075.5 801.69,-1027.67 773.17,-989.92"/>
<polygon fill="none" stroke="midnightblue" points="668.85,-1967.56 661.55,-1975.25 672.05,-1973.79 668.85,-1967.56"/>
</g>
<!-- Node7&#45;&gt;Node7 -->
<g id="edge12" class="edge">
<title>Node7&#45;&gt;Node7</title>
<path fill="none" stroke="#404040" d="M661.51,-2039.53C672.44,-2035.15 679.5,-2027.48 679.5,-2016.5 679.5,-2009.64 676.74,-2004.07 672.01,-1999.78"/>
<polygon fill="none" stroke="#404040" points="671.8,-1999.66 664.59,-1999.99 661.51,-1993.47 668.72,-1993.14 671.8,-1999.66"/>
<text text-anchor="middle" x="719" y="-2025" font-family="Helvetica,sans-Serif" font-size="10.00"> +Outer</text>
<text text-anchor="middle" x="719" y="-2014" font-family="Helvetica,sans-Serif" font-size="10.00">+Linker</text>
<text text-anchor="middle" x="719" y="-2003" font-family="Helvetica,sans-Serif" font-size="10.00">+ObjectArchetype</text>
</g>
<!-- Node13 -->
<g id="node13" class="node">
<title>Node13</title>
<g id="a_node13"><a xlink:href="../../d3/d79/classSDK_1_1TArray.html" target="_top" xlink:title=" ">
<polygon fill="white" stroke="black" points="361,-1712.5 361,-1846.5 522,-1846.5 522,-1712.5 361,-1712.5"/>
<text text-anchor="middle" x="441.5" y="-1834.5" font-family="Helvetica,sans-Serif" font-size="10.00">SDK::TArray&lt; SDK::UObject * &gt;</text>
<polyline fill="none" stroke="black" points="361,-1827.5 522,-1827.5 "/>
<text text-anchor="start" x="369" y="-1815.5" font-family="Helvetica,sans-Serif" font-size="10.00">&#45; Count</text>
<text text-anchor="start" x="369" y="-1804.5" font-family="Helvetica,sans-Serif" font-size="10.00">&#45; Max</text>
<polyline fill="none" stroke="black" points="361,-1797.5 522,-1797.5 "/>
<text text-anchor="start" x="369" y="-1785.5" font-family="Helvetica,sans-Serif" font-size="10.00">+ TArray()</text>
<text text-anchor="start" x="369" y="-1774.5" font-family="Helvetica,sans-Serif" font-size="10.00">+ Num()</text>
<text text-anchor="start" x="369" y="-1763.5" font-family="Helvetica,sans-Serif" font-size="10.00">+ operator[]()</text>
<text text-anchor="start" x="369" y="-1752.5" font-family="Helvetica,sans-Serif" font-size="10.00">+ operator[]()</text>
<text text-anchor="start" x="369" y="-1741.5" font-family="Helvetica,sans-Serif" font-size="10.00">+ IsValidIndex()</text>
<text text-anchor="start" x="369" y="-1730.5" font-family="Helvetica,sans-Serif" font-size="10.00">+ GetByIndex()</text>
<text text-anchor="start" x="369" y="-1719.5" font-family="Helvetica,sans-Serif" font-size="10.00">+ GetByIndex()</text>
</a>
</g>
</g>
<!-- Node7&#45;&gt;Node13 -->
<g id="edge14" class="edge">
<title>Node7&#45;&gt;Node13</title>
<path fill="none" stroke="#404040" d="M465.29,-1894.34C462.08,-1888.28 459.12,-1882.16 456.5,-1876 454.11,-1870.4 452.1,-1864.47 450.41,-1858.42"/>
<polygon fill="none" stroke="#404040" points="450.39,-1858.34 445.07,-1853.46 447.53,-1846.68 452.84,-1851.56 450.39,-1858.34"/>
<text text-anchor="middle" x="470.5" y="-1868" font-family="Helvetica,sans-Serif" font-size="10.00"> &#45;Data</text>
</g>
<!-- Node15 -->
<g id="node15" class="node">
<title>Node15</title>
<g id="a_node15"><a xlink:href="../../d7/d85/classSDK_1_1UClass.html" target="_top" xlink:title=" ">
<polygon fill="white" stroke="black" points="493,-1351.5 493,-1441.5 614,-1441.5 614,-1351.5 493,-1351.5"/>
<text text-anchor="middle" x="553.5" y="-1429.5" font-family="Helvetica,sans-Serif" font-size="10.00">SDK::UClass</text>
<polyline fill="none" stroke="black" points="493,-1422.5 614,-1422.5 "/>
<text text-anchor="start" x="501" y="-1410.5" font-family="Helvetica,sans-Serif" font-size="10.00">+ UnknownData00</text>
<text text-anchor="start" x="501" y="-1399.5" font-family="Helvetica,sans-Serif" font-size="10.00">+ UnknownData01</text>
<polyline fill="none" stroke="black" points="493,-1392.5 614,-1392.5 "/>
<text text-anchor="start" x="501" y="-1380.5" font-family="Helvetica,sans-Serif" font-size="10.00">+ CreateDefaultObject()</text>
<text text-anchor="start" x="501" y="-1369.5" font-family="Helvetica,sans-Serif" font-size="10.00">+ CreateDefaultObject()</text>
<text text-anchor="start" x="501" y="-1358.5" font-family="Helvetica,sans-Serif" font-size="10.00">+ StaticClass()</text>
</a>
</g>
</g>
<!-- Node7&#45;&gt;Node15 -->
<g id="edge24" class="edge">
<title>Node7&#45;&gt;Node15</title>
<path fill="none" stroke="#404040" d="M581.05,-1894.42C585.25,-1857.9 588.5,-1817.65 588.5,-1780.5 588.5,-1780.5 588.5,-1780.5 588.5,-1507 588.5,-1488.92 584.12,-1469.92 578.45,-1452.92"/>
<polygon fill="none" stroke="#404040" points="578.41,-1452.81 572.62,-1448.51 574.37,-1441.51 580.15,-1445.81 578.41,-1452.81"/>
<text text-anchor="middle" x="636" y="-1611.5" font-family="Helvetica,sans-Serif" font-size="10.00"> +ClassDefaultObject</text>
</g>
<!-- Node18 -->
<g id="node18" class="node">
<title>Node18</title>
<g id="a_node18"><a xlink:href="../../de/dd6/classSDK_1_1UField.html" target="_top" xlink:title=" ">
<polygon fill="white" stroke="black" points="667,-1751 667,-1808 750,-1808 750,-1751 667,-1751"/>
<text text-anchor="middle" x="708.5" y="-1796" font-family="Helvetica,sans-Serif" font-size="10.00">SDK::UField</text>
<polyline fill="none" stroke="black" points="667,-1789 750,-1789 "/>
<text text-anchor="middle" x="708.5" y="-1777" font-family="Helvetica,sans-Serif" font-size="10.00"> </text>
<polyline fill="none" stroke="black" points="667,-1770 750,-1770 "/>
<text text-anchor="start" x="675" y="-1758" font-family="Helvetica,sans-Serif" font-size="10.00">+ StaticClass()</text>
</a>
</g>
</g>
<!-- Node7&#45;&gt;Node18 -->
<g id="edge21" class="edge">
<title>Node7&#45;&gt;Node18</title>
<path fill="none" stroke="midnightblue" d="M643.25,-1885.52C661.45,-1856.24 678.99,-1828 691.3,-1808.19"/>
<polygon fill="none" stroke="midnightblue" points="640.16,-1883.87 637.85,-1894.21 646.1,-1887.57 640.16,-1883.87"/>
</g>
<!-- Node23 -->
<g id="node23" class="node">
<title>Node23</title>
<g id="a_node23"><a xlink:href="../../dc/dd6/structSDK_1_1FScriptDelegate.html" target="_top" xlink:title=" ">
<polygon fill="white" stroke="black" points="76.5,-1751 76.5,-1808 190.5,-1808 190.5,-1751 76.5,-1751"/>
<text text-anchor="middle" x="133.5" y="-1796" font-family="Helvetica,sans-Serif" font-size="10.00">SDK::FScriptDelegate</text>
<polyline fill="none" stroke="black" points="76.5,-1789 190.5,-1789 "/>
<text text-anchor="middle" x="133.5" y="-1777" font-family="Helvetica,sans-Serif" font-size="10.00"> </text>
<polyline fill="none" stroke="black" points="76.5,-1770 190.5,-1770 "/>
<text text-anchor="middle" x="133.5" y="-1758" font-family="Helvetica,sans-Serif" font-size="10.00"> </text>
</a>
</g>
</g>
<!-- Node7&#45;&gt;Node23 -->
<g id="edge35" class="edge">
<title>Node7&#45;&gt;Node23</title>
<path fill="none" stroke="#404040" d="M463.27,-1961.14C380.34,-1915.72 264.72,-1852.38 194.71,-1814.03"/>
<polygon fill="none" stroke="#404040" points="194.4,-1813.86 187.22,-1814.49 183.88,-1808.1 191.06,-1807.47 194.4,-1813.86"/>
<text text-anchor="middle" x="316.5" y="-1868" font-family="Helvetica,sans-Serif" font-size="10.00"> +Object</text>
</g>
<!-- Node8 -->
<g id="node8" class="node">
<title>Node8</title>
<g id="a_node8"><a xlink:href="../../d0/d22/structSDK_1_1FQWord.html" target="_top" xlink:title=" ">
<polygon fill="white" stroke="black" points="521.5,-2305 521.5,-2373 601.5,-2373 601.5,-2305 521.5,-2305"/>
<text text-anchor="middle" x="561.5" y="-2361" font-family="Helvetica,sans-Serif" font-size="10.00">SDK::FQWord</text>
<polyline fill="none" stroke="black" points="521.5,-2354 601.5,-2354 "/>
<text text-anchor="start" x="529.5" y="-2342" font-family="Helvetica,sans-Serif" font-size="10.00">+ A</text>
<text text-anchor="start" x="529.5" y="-2331" font-family="Helvetica,sans-Serif" font-size="10.00">+ B</text>
<polyline fill="none" stroke="black" points="521.5,-2324 601.5,-2324 "/>
<text text-anchor="middle" x="561.5" y="-2312" font-family="Helvetica,sans-Serif" font-size="10.00"> </text>
</a>
</g>
</g>
<!-- Node8&#45;&gt;Node7 -->
<g id="edge7" class="edge">
<title>Node8&#45;&gt;Node7</title>
<path fill="none" stroke="#404040" d="M561.6,-2304.91C561.72,-2268.48 561.91,-2207.57 562.08,-2151.19"/>
<polygon fill="none" stroke="#404040" points="562.08,-2150.86 558.1,-2144.85 562.12,-2138.86 566.1,-2144.87 562.08,-2150.86"/>
<text text-anchor="middle" x="593.5" y="-2205.5" font-family="Helvetica,sans-Serif" font-size="10.00"> +ObjectFlags</text>
</g>
<!-- Node9 -->
<g id="node9" class="node">
<title>Node9</title>
<g id="a_node9"><a xlink:href="../../d0/db6/structSDK_1_1FName.html" target="_top" xlink:title=" ">
<polygon fill="white" stroke="black" points="254,-2277.5 254,-2400.5 361,-2400.5 361,-2277.5 254,-2277.5"/>
<text text-anchor="middle" x="307.5" y="-2388.5" font-family="Helvetica,sans-Serif" font-size="10.00">SDK::FName</text>
<polyline fill="none" stroke="black" points="254,-2381.5 361,-2381.5 "/>
<text text-anchor="start" x="262" y="-2369.5" font-family="Helvetica,sans-Serif" font-size="10.00">+ Index</text>
<text text-anchor="start" x="262" y="-2358.5" font-family="Helvetica,sans-Serif" font-size="10.00">+ Number</text>
<polyline fill="none" stroke="black" points="254,-2351.5 361,-2351.5 "/>
<text text-anchor="start" x="262" y="-2339.5" font-family="Helvetica,sans-Serif" font-size="10.00">+ FName()</text>
<text text-anchor="start" x="262" y="-2328.5" font-family="Helvetica,sans-Serif" font-size="10.00">+ FName()</text>
<text text-anchor="start" x="262" y="-2317.5" font-family="Helvetica,sans-Serif" font-size="10.00">+ FName()</text>
<text text-anchor="start" x="262" y="-2306.5" font-family="Helvetica,sans-Serif" font-size="10.00">+ GetName()</text>
<text text-anchor="start" x="262" y="-2295.5" font-family="Helvetica,sans-Serif" font-size="10.00">+ operator==()</text>
<text text-anchor="start" x="262" y="-2284.5" font-family="Helvetica,sans-Serif" font-size="10.00">+ GetGlobalNames()</text>
</a>
</g>
</g>
<!-- Node9&#45;&gt;Node7 -->
<g id="edge8" class="edge">
<title>Node9&#45;&gt;Node7</title>
<path fill="none" stroke="#404040" d="M355.76,-2277.34C384.81,-2240.83 422.95,-2192.89 458.56,-2148.14"/>
<polygon fill="none" stroke="#404040" points="458.64,-2148.04 459.25,-2140.85 466.11,-2138.65 465.51,-2145.83 458.64,-2148.04"/>
<text text-anchor="middle" x="468.5" y="-2205.5" font-family="Helvetica,sans-Serif" font-size="10.00"> +Name</text>
</g>
<!-- Node20 -->
<g id="node20" class="node">
<title>Node20</title>
<g id="a_node20"><a xlink:href="../../d0/d8a/structSDK_1_1FGFxWidgetBinding.html" target="_top" xlink:title=" ">
<polygon fill="white" stroke="black" points="347,-1246.5 347,-1303.5 478,-1303.5 478,-1246.5 347,-1246.5"/>
<text text-anchor="middle" x="412.5" y="-1291.5" font-family="Helvetica,sans-Serif" font-size="10.00">SDK::FGFxWidgetBinding</text>
<polyline fill="none" stroke="black" points="347,-1284.5 478,-1284.5 "/>
<text text-anchor="middle" x="412.5" y="-1272.5" font-family="Helvetica,sans-Serif" font-size="10.00"> </text>
<polyline fill="none" stroke="black" points="347,-1265.5 478,-1265.5 "/>
<text text-anchor="middle" x="412.5" y="-1253.5" font-family="Helvetica,sans-Serif" font-size="10.00"> </text>
</a>
</g>
</g>
<!-- Node9&#45;&gt;Node20 -->
<g id="edge27" class="edge">
<title>Node9&#45;&gt;Node20</title>
<path fill="none" stroke="#404040" d="M311.83,-2277.46C323.8,-2109.51 356.5,-1647.89 356.5,-1615 356.5,-1615 356.5,-1615 356.5,-1395.5 356.5,-1366.23 370.45,-1336.41 384.42,-1313.88"/>
<polygon fill="none" stroke="#404040" points="384.47,-1313.81 384.38,-1306.6 391.01,-1303.75 391.09,-1310.97 384.47,-1313.81"/>
<text text-anchor="middle" x="390" y="-1611.5" font-family="Helvetica,sans-Serif" font-size="10.00"> +WidgetName</text>
</g>
<!-- Node9&#45;&gt;Node23 -->
<g id="edge34" class="edge">
<title>Node9&#45;&gt;Node23</title>
<path fill="none" stroke="#404040" d="M286.42,-2277.21C272.95,-2237.9 255.28,-2185.56 240.5,-2139 203.85,-2023.55 163.82,-1886.07 144.78,-1819.91"/>
<polygon fill="none" stroke="#404040" points="144.68,-1819.57 139.18,-1814.91 141.36,-1808.03 146.87,-1812.7 144.68,-1819.57"/>
<text text-anchor="middle" x="277" y="-2014" font-family="Helvetica,sans-Serif" font-size="10.00"> +FunctionName</text>
</g>
<!-- Node10 -->
<g id="node10" class="node">
<title>Node10</title>
<g id="a_node10"><a xlink:href="../../d3/d79/classSDK_1_1TArray.html" target="_top" xlink:title=" ">
<polygon fill="white" stroke="black" points="203.5,-2454 203.5,-2588 383.5,-2588 383.5,-2454 203.5,-2454"/>
<text text-anchor="middle" x="293.5" y="-2576" font-family="Helvetica,sans-Serif" font-size="10.00">SDK::TArray&lt; SDK::FNameEntry * &gt;</text>
<polyline fill="none" stroke="black" points="203.5,-2569 383.5,-2569 "/>
<text text-anchor="start" x="211.5" y="-2557" font-family="Helvetica,sans-Serif" font-size="10.00">&#45; Count</text>
<text text-anchor="start" x="211.5" y="-2546" font-family="Helvetica,sans-Serif" font-size="10.00">&#45; Max</text>
<polyline fill="none" stroke="black" points="203.5,-2539 383.5,-2539 "/>
<text text-anchor="start" x="211.5" y="-2527" font-family="Helvetica,sans-Serif" font-size="10.00">+ TArray()</text>
<text text-anchor="start" x="211.5" y="-2516" font-family="Helvetica,sans-Serif" font-size="10.00">+ Num()</text>
<text text-anchor="start" x="211.5" y="-2505" font-family="Helvetica,sans-Serif" font-size="10.00">+ operator[]()</text>
<text text-anchor="start" x="211.5" y="-2494" font-family="Helvetica,sans-Serif" font-size="10.00">+ operator[]()</text>
<text text-anchor="start" x="211.5" y="-2483" font-family="Helvetica,sans-Serif" font-size="10.00">+ IsValidIndex()</text>
<text text-anchor="start" x="211.5" y="-2472" font-family="Helvetica,sans-Serif" font-size="10.00">+ GetByIndex()</text>
<text text-anchor="start" x="211.5" y="-2461" font-family="Helvetica,sans-Serif" font-size="10.00">+ GetByIndex()</text>
</a>
</g>
</g>
<!-- Node10&#45;&gt;Node9 -->
<g id="edge9" class="edge">
<title>Node10&#45;&gt;Node9</title>
<path fill="none" stroke="#404040" d="M298.63,-2454C299.67,-2440.63 300.77,-2426.5 301.83,-2412.91"/>
<polygon fill="none" stroke="#404040" points="301.85,-2412.59 298.33,-2406.29 302.78,-2400.62 306.31,-2406.91 301.85,-2412.59"/>
<text text-anchor="middle" x="326" y="-2422" font-family="Helvetica,sans-Serif" font-size="10.00"> +GNames</text>
</g>
<!-- Node11 -->
<g id="node11" class="node">
<title>Node11</title>
<g id="a_node11"><a xlink:href="../../d7/ddf/classSDK_1_1FNameEntry.html" target="_top" xlink:title=" ">
<polygon fill="white" stroke="black" points="83,-2680 83,-2748 182,-2748 182,-2680 83,-2680"/>
<text text-anchor="middle" x="132.5" y="-2736" font-family="Helvetica,sans-Serif" font-size="10.00">SDK::FNameEntry</text>
<polyline fill="none" stroke="black" points="83,-2729 182,-2729 "/>
<text text-anchor="start" x="91" y="-2717" font-family="Helvetica,sans-Serif" font-size="10.00">+ UnknownData00</text>
<text text-anchor="start" x="91" y="-2706" font-family="Helvetica,sans-Serif" font-size="10.00">+ name</text>
<polyline fill="none" stroke="black" points="83,-2699 182,-2699 "/>
<text text-anchor="start" x="91" y="-2687" font-family="Helvetica,sans-Serif" font-size="10.00">+ GetName()</text>
</a>
</g>
</g>
<!-- Node11&#45;&gt;Node10 -->
<g id="edge10" class="edge">
<title>Node11&#45;&gt;Node10</title>
<path fill="none" stroke="#404040" d="M160.54,-2679.73C179.73,-2656.97 205.96,-2625.86 230.05,-2597.28"/>
<polygon fill="none" stroke="#404040" points="230.05,-2597.27 230.86,-2590.11 237.78,-2588.1 236.97,-2595.26 230.05,-2597.27"/>
<text text-anchor="middle" x="227.5" y="-2615" font-family="Helvetica,sans-Serif" font-size="10.00"> &#45;Data</text>
</g>
<!-- Node12 -->
<g id="node12" class="node">
<title>Node12</title>
<g id="a_node12"><a xlink:href="../../d3/d79/classSDK_1_1TArray.html" target="_top" xlink:title=" ">
<polygon fill="white" stroke="black" points="300,-2641.5 300,-2786.5 397,-2786.5 397,-2641.5 300,-2641.5"/>
<text text-anchor="middle" x="348.5" y="-2774.5" font-family="Helvetica,sans-Serif" font-size="10.00">SDK::TArray&lt; T &gt;</text>
<polyline fill="none" stroke="black" points="300,-2767.5 397,-2767.5 "/>
<text text-anchor="start" x="308" y="-2755.5" font-family="Helvetica,sans-Serif" font-size="10.00">&#45; Data</text>
<text text-anchor="start" x="308" y="-2744.5" font-family="Helvetica,sans-Serif" font-size="10.00">&#45; Count</text>
<text text-anchor="start" x="308" y="-2733.5" font-family="Helvetica,sans-Serif" font-size="10.00">&#45; Max</text>
<polyline fill="none" stroke="black" points="300,-2726.5 397,-2726.5 "/>
<text text-anchor="start" x="308" y="-2714.5" font-family="Helvetica,sans-Serif" font-size="10.00">+ TArray()</text>
<text text-anchor="start" x="308" y="-2703.5" font-family="Helvetica,sans-Serif" font-size="10.00">+ Num()</text>
<text text-anchor="start" x="308" y="-2692.5" font-family="Helvetica,sans-Serif" font-size="10.00">+ operator[]()</text>
<text text-anchor="start" x="308" y="-2681.5" font-family="Helvetica,sans-Serif" font-size="10.00">+ operator[]()</text>
<text text-anchor="start" x="308" y="-2670.5" font-family="Helvetica,sans-Serif" font-size="10.00">+ IsValidIndex()</text>
<text text-anchor="start" x="308" y="-2659.5" font-family="Helvetica,sans-Serif" font-size="10.00">+ GetByIndex()</text>
<text text-anchor="start" x="308" y="-2648.5" font-family="Helvetica,sans-Serif" font-size="10.00">+ GetByIndex()</text>
</a>
</g>
</g>
<!-- Node12&#45;&gt;Node10 -->
<g id="edge11" class="edge">
<title>Node12&#45;&gt;Node10</title>
<path fill="none" stroke="orange" d="M294.98,-2643.6C291.59,-2636.89 288.67,-2629.98 286.5,-2623 283.05,-2611.92 281.85,-2599.84 281.96,-2588.02"/>
<polygon fill="orange" stroke="orange" points="292.03,-2645.5 299.88,-2652.61 298.18,-2642.16 292.03,-2645.5"/>
<text text-anchor="middle" x="342" y="-2615" font-family="Helvetica,sans-Serif" font-size="10.00"> &lt; SDK::FNameEntry * &gt;</text>
</g>
<!-- Node12&#45;&gt;Node13 -->
<g id="edge15" class="edge">
<title>Node12&#45;&gt;Node13</title>
<path fill="none" stroke="orange" d="M394.9,-2631.9C395.87,-2628.94 396.75,-2625.96 397.5,-2623 423.05,-2522.65 403.19,-2260.4 397.5,-2157 390.6,-2031.54 373.4,-2001.46 366.5,-1876 366.23,-1871.12 364.76,-1869.57 366.5,-1865 368.9,-1858.67 372.02,-1852.52 375.62,-1846.6"/>
<polygon fill="orange" stroke="orange" points="391.59,-2630.74 391.47,-2641.33 398.17,-2633.13 391.59,-2630.74"/>
<text text-anchor="middle" x="455" y="-2336.5" font-family="Helvetica,sans-Serif" font-size="10.00"> &lt; SDK::UObject * &gt;</text>
</g>
<!-- Node19 -->
<g id="node19" class="node">
<title>Node19</title>
<g id="a_node19"><a xlink:href="../../d3/d79/classSDK_1_1TArray.html" target="_top" xlink:title=" ">
<polygon fill="white" stroke="black" points="341,-1053.5 341,-1198.5 484,-1198.5 484,-1053.5 341,-1053.5"/>
<text text-anchor="start" x="349" y="-1186.5" font-family="Helvetica,sans-Serif" font-size="10.00">SDK::TArray&lt; struct</text>
<text text-anchor="middle" x="412.5" y="-1175.5" font-family="Helvetica,sans-Serif" font-size="10.00"> SDK::FGFxWidgetBinding &gt;</text>
<polyline fill="none" stroke="black" points="341,-1168.5 484,-1168.5 "/>
<text text-anchor="start" x="349" y="-1156.5" font-family="Helvetica,sans-Serif" font-size="10.00">&#45; Count</text>
<text text-anchor="start" x="349" y="-1145.5" font-family="Helvetica,sans-Serif" font-size="10.00">&#45; Max</text>
<polyline fill="none" stroke="black" points="341,-1138.5 484,-1138.5 "/>
<text text-anchor="start" x="349" y="-1126.5" font-family="Helvetica,sans-Serif" font-size="10.00">+ TArray()</text>
<text text-anchor="start" x="349" y="-1115.5" font-family="Helvetica,sans-Serif" font-size="10.00">+ Num()</text>
<text text-anchor="start" x="349" y="-1104.5" font-family="Helvetica,sans-Serif" font-size="10.00">+ operator[]()</text>
<text text-anchor="start" x="349" y="-1093.5" font-family="Helvetica,sans-Serif" font-size="10.00">+ operator[]()</text>
<text text-anchor="start" x="349" y="-1082.5" font-family="Helvetica,sans-Serif" font-size="10.00">+ IsValidIndex()</text>
<text text-anchor="start" x="349" y="-1071.5" font-family="Helvetica,sans-Serif" font-size="10.00">+ GetByIndex()</text>
<text text-anchor="start" x="349" y="-1060.5" font-family="Helvetica,sans-Serif" font-size="10.00">+ GetByIndex()</text>
</a>
</g>
</g>
<!-- Node12&#45;&gt;Node19 -->
<g id="edge29" class="edge">
<title>Node12&#45;&gt;Node19</title>
<path fill="none" stroke="orange" d="M291.21,-2681.67C258.32,-2660.89 218.84,-2630.71 194.5,-2594 176.21,-2566.42 175.5,-2555.1 175.5,-2522 175.5,-2522 175.5,-2522 175.5,-2207 175.5,-2067.75 169.05,-2031.74 189.5,-1894 197.15,-1842.5 218.5,-1832.57 218.5,-1780.5 218.5,-1780.5 218.5,-1780.5 218.5,-1274 218.5,-1210.4 285.55,-1170.78 340.81,-1148.92"/>
<polygon fill="orange" stroke="orange" points="289.51,-2684.73 299.85,-2687.01 293.19,-2678.78 289.51,-2684.73"/>
<text text-anchor="start" x="218.5" y="-1686" font-family="Helvetica,sans-Serif" font-size="10.00"> &lt; struct SDK::FGFxWidget</text>
<text text-anchor="middle" x="280" y="-1675" font-family="Helvetica,sans-Serif" font-size="10.00">Binding &gt;</text>
</g>
<!-- Node22 -->
<g id="node22" class="node">
<title>Node22</title>
<g id="a_node22"><a xlink:href="../../d3/d79/classSDK_1_1TArray.html" target="_top" xlink:title=" ">
<polygon fill="white" stroke="black" points="628,-2448.5 628,-2593.5 753,-2593.5 753,-2448.5 628,-2448.5"/>
<text text-anchor="middle" x="690.5" y="-2581.5" font-family="Helvetica,sans-Serif" font-size="10.00">SDK::TArray&lt; wchar_t &gt;</text>
<polyline fill="none" stroke="black" points="628,-2574.5 753,-2574.5 "/>
<text text-anchor="start" x="636" y="-2562.5" font-family="Helvetica,sans-Serif" font-size="10.00">&#45; Data</text>
<text text-anchor="start" x="636" y="-2551.5" font-family="Helvetica,sans-Serif" font-size="10.00">&#45; Count</text>
<text text-anchor="start" x="636" y="-2540.5" font-family="Helvetica,sans-Serif" font-size="10.00">&#45; Max</text>
<polyline fill="none" stroke="black" points="628,-2533.5 753,-2533.5 "/>
<text text-anchor="start" x="636" y="-2521.5" font-family="Helvetica,sans-Serif" font-size="10.00">+ TArray()</text>
<text text-anchor="start" x="636" y="-2510.5" font-family="Helvetica,sans-Serif" font-size="10.00">+ Num()</text>
<text text-anchor="start" x="636" y="-2499.5" font-family="Helvetica,sans-Serif" font-size="10.00">+ operator[]()</text>
<text text-anchor="start" x="636" y="-2488.5" font-family="Helvetica,sans-Serif" font-size="10.00">+ operator[]()</text>
<text text-anchor="start" x="636" y="-2477.5" font-family="Helvetica,sans-Serif" font-size="10.00">+ IsValidIndex()</text>
<text text-anchor="start" x="636" y="-2466.5" font-family="Helvetica,sans-Serif" font-size="10.00">+ GetByIndex()</text>
<text text-anchor="start" x="636" y="-2455.5" font-family="Helvetica,sans-Serif" font-size="10.00">+ GetByIndex()</text>
</a>
</g>
</g>
<!-- Node12&#45;&gt;Node22 -->
<g id="edge32" class="edge">
<title>Node12&#45;&gt;Node22</title>
<path fill="none" stroke="orange" d="M405.93,-2680.93C467.35,-2646.63 564.44,-2592.4 627.81,-2557.01"/>
<polygon fill="orange" stroke="orange" points="404.16,-2677.91 397.14,-2685.84 407.57,-2684.02 404.16,-2677.91"/>
<text text-anchor="middle" x="547.5" y="-2615" font-family="Helvetica,sans-Serif" font-size="10.00"> &lt; wchar_t &gt;</text>
</g>
<!-- Node13&#45;&gt;Node7 -->
<g id="edge13" class="edge">
<title>Node13&#45;&gt;Node7</title>
<path fill="none" stroke="#404040" d="M475.55,-1846.63C481.55,-1858.28 487.98,-1870.77 494.53,-1883.49"/>
<polygon fill="none" stroke="#404040" points="494.56,-1883.55 500.86,-1887.05 500.05,-1894.21 493.75,-1890.71 494.56,-1883.55"/>
<text text-anchor="middle" x="514" y="-1868" font-family="Helvetica,sans-Serif" font-size="10.00"> +GObjects</text>
</g>
<!-- Node14 -->
<g id="node14" class="node">
<title>Node14</title>
<g id="a_node14"><a xlink:href="../../d9/dfa/structSDK_1_1FPointer.html" target="_top" xlink:title=" ">
<polygon fill="white" stroke="black" points="619.5,-2305 619.5,-2373 717.5,-2373 717.5,-2305 619.5,-2305"/>
<text text-anchor="middle" x="668.5" y="-2361" font-family="Helvetica,sans-Serif" font-size="10.00">SDK::FPointer</text>
<polyline fill="none" stroke="black" points="619.5,-2354 717.5,-2354 "/>
<text text-anchor="start" x="627.5" y="-2342" font-family="Helvetica,sans-Serif" font-size="10.00">+ Dummy</text>
<text text-anchor="start" x="627.5" y="-2331" font-family="Helvetica,sans-Serif" font-size="10.00">+ UnknownData00</text>
<polyline fill="none" stroke="black" points="619.5,-2324 717.5,-2324 "/>
<text text-anchor="middle" x="668.5" y="-2312" font-family="Helvetica,sans-Serif" font-size="10.00"> </text>
</a>
</g>
</g>
<!-- Node14&#45;&gt;Node7 -->
<g id="edge16" class="edge">
<title>Node14&#45;&gt;Node7</title>
<path fill="none" stroke="#404040" d="M663.45,-2304.69C657.34,-2267.91 645.69,-2207.24 628.5,-2157 627.69,-2154.62 626.84,-2152.23 625.98,-2149.84"/>
<polygon fill="none" stroke="#404040" points="625.96,-2149.79 620.11,-2145.59 621.74,-2138.56 627.59,-2142.77 625.96,-2149.79"/>
<text text-anchor="middle" x="689" y="-2216.5" font-family="Helvetica,sans-Serif" font-size="10.00"> +StateFrame</text>
<text text-anchor="middle" x="689" y="-2205.5" font-family="Helvetica,sans-Serif" font-size="10.00">+VfTableObject</text>
<text text-anchor="middle" x="689" y="-2194.5" font-family="Helvetica,sans-Serif" font-size="10.00">+LinkerIndex</text>
</g>
<!-- Node15&#45;&gt;Node7 -->
<g id="edge17" class="edge">
<title>Node15&#45;&gt;Node7</title>
<path fill="none" stroke="#404040" d="M546.46,-1441.6C541.15,-1477.22 534.31,-1528.69 531.5,-1574 529.3,-1609.49 529.98,-1618.48 531.5,-1654 534.74,-1729.69 541.78,-1814.06 548.33,-1882.24"/>
<polygon fill="none" stroke="#404040" points="548.35,-1882.4 552.91,-1887.98 549.5,-1894.34 544.94,-1888.76 548.35,-1882.4"/>
<text text-anchor="middle" x="549" y="-1611.5" font-family="Helvetica,sans-Serif" font-size="10.00"> +Class</text>
</g>
<!-- Node15&#45;&gt;Node20 -->
<g id="edge28" class="edge">
<title>Node15&#45;&gt;Node20</title>
<path fill="none" stroke="#404040" d="M501.4,-1351.34C485.95,-1338.25 469.24,-1324.09 454.52,-1311.61"/>
<polygon fill="none" stroke="#404040" points="454.32,-1311.45 447.16,-1310.62 445.17,-1303.69 452.33,-1304.52 454.32,-1311.45"/>
<text text-anchor="middle" x="512.5" y="-1325" font-family="Helvetica,sans-Serif" font-size="10.00"> +WidgetClass</text>
</g>
<!-- Node16 -->
<g id="node16" class="node">
<title>Node16</title>
<g id="a_node16"><a xlink:href="../../df/d72/classSDK_1_1UState.html" target="_top" xlink:title=" ">
<polygon fill="white" stroke="black" points="650.5,-1479.5 650.5,-1536.5 748.5,-1536.5 748.5,-1479.5 650.5,-1479.5"/>
<text text-anchor="middle" x="699.5" y="-1524.5" font-family="Helvetica,sans-Serif" font-size="10.00">SDK::UState</text>
<polyline fill="none" stroke="black" points="650.5,-1517.5 748.5,-1517.5 "/>
<text text-anchor="start" x="658.5" y="-1505.5" font-family="Helvetica,sans-Serif" font-size="10.00">+ UnknownData00</text>
<polyline fill="none" stroke="black" points="650.5,-1498.5 748.5,-1498.5 "/>
<text text-anchor="start" x="658.5" y="-1486.5" font-family="Helvetica,sans-Serif" font-size="10.00">+ StaticClass()</text>
</a>
</g>
</g>
<!-- Node16&#45;&gt;Node15 -->
<g id="edge18" class="edge">
<title>Node16&#45;&gt;Node15</title>
<path fill="none" stroke="midnightblue" d="M654.54,-1473.28C641.17,-1463.25 626.32,-1452.11 612.21,-1441.53"/>
<polygon fill="none" stroke="midnightblue" points="652.56,-1476.17 662.66,-1479.37 656.76,-1470.57 652.56,-1476.17"/>
</g>
<!-- Node17 -->
<g id="node17" class="node">
<title>Node17</title>
<g id="a_node17"><a xlink:href="../../d8/de9/classSDK_1_1UStruct.html" target="_top" xlink:title=" ">
<polygon fill="white" stroke="black" points="701.5,-1574.5 701.5,-1653.5 799.5,-1653.5 799.5,-1574.5 701.5,-1574.5"/>
<text text-anchor="middle" x="750.5" y="-1641.5" font-family="Helvetica,sans-Serif" font-size="10.00">SDK::UStruct</text>
<polyline fill="none" stroke="black" points="701.5,-1634.5 799.5,-1634.5 "/>
<text text-anchor="start" x="709.5" y="-1622.5" font-family="Helvetica,sans-Serif" font-size="10.00">+ UnknownData00</text>
<text text-anchor="start" x="709.5" y="-1611.5" font-family="Helvetica,sans-Serif" font-size="10.00">+ PropertySize</text>
<text text-anchor="start" x="709.5" y="-1600.5" font-family="Helvetica,sans-Serif" font-size="10.00">+ UnknownData01</text>
<polyline fill="none" stroke="black" points="701.5,-1593.5 799.5,-1593.5 "/>
<text text-anchor="start" x="709.5" y="-1581.5" font-family="Helvetica,sans-Serif" font-size="10.00">+ StaticClass()</text>
</a>
</g>
</g>
<!-- Node17&#45;&gt;Node16 -->
<g id="edge19" class="edge">
<title>Node17&#45;&gt;Node16</title>
<path fill="none" stroke="midnightblue" d="M726.99,-1565.06C722.23,-1555.35 717.37,-1545.44 713.09,-1536.72"/>
<polygon fill="none" stroke="midnightblue" points="723.96,-1566.84 731.51,-1574.27 730.25,-1563.75 723.96,-1566.84"/>
</g>
<!-- Node18&#45;&gt;Node17 -->
<g id="edge20" class="edge">
<title>Node18&#45;&gt;Node17</title>
<path fill="none" stroke="midnightblue" d="M712.68,-1741.01C715.52,-1720.38 719.96,-1694.49 726.5,-1672 728.27,-1665.92 730.5,-1659.61 732.88,-1653.51"/>
<polygon fill="none" stroke="midnightblue" points="709.21,-1740.6 711.38,-1750.97 716.15,-1741.51 709.21,-1740.6"/>
</g>
<!-- Node18&#45;&gt;Node17 -->
<g id="edge23" class="edge">
<title>Node18&#45;&gt;Node17</title>
<path fill="none" stroke="#404040" d="M715.62,-1750.76C721.62,-1727.41 730.36,-1693.4 737.59,-1665.27"/>
<polygon fill="none" stroke="#404040" points="737.59,-1665.24 735.21,-1658.43 740.58,-1653.62 742.96,-1660.42 737.59,-1665.24"/>
<text text-anchor="middle" x="763.5" y="-1686" font-family="Helvetica,sans-Serif" font-size="10.00"> +SuperField</text>
<text text-anchor="middle" x="763.5" y="-1675" font-family="Helvetica,sans-Serif" font-size="10.00">+Children</text>
</g>
<!-- Node18&#45;&gt;Node18 -->
<g id="edge22" class="edge">
<title>Node18&#45;&gt;Node18</title>
<path fill="none" stroke="#404040" d="M750.21,-1796.11C760.41,-1794.88 768,-1789.34 768,-1779.5 768,-1773.96 765.6,-1769.79 761.68,-1766.98"/>
<polygon fill="none" stroke="#404040" points="761.51,-1766.92 754.51,-1768.67 750.21,-1762.89 757.2,-1761.13 761.51,-1766.92"/>
<text text-anchor="middle" x="783.5" y="-1777" font-family="Helvetica,sans-Serif" font-size="10.00"> +Next</text>
</g>
<!-- Node19&#45;&gt;Node6 -->
<g id="edge25" class="edge">
<title>Node19&#45;&gt;Node6</title>
<path fill="none" stroke="#404040" d="M484.3,-1071.53C523.75,-1042.15 572.9,-1005.54 614.16,-974.81"/>
<polygon fill="none" stroke="#404040" points="614.3,-974.71 616.72,-967.92 623.92,-967.54 621.5,-974.33 614.3,-974.71"/>
<text text-anchor="middle" x="595" y="-1027" font-family="Helvetica,sans-Serif" font-size="10.00"> +SubWidgetBindings</text>
</g>
<!-- Node20&#45;&gt;Node19 -->
<g id="edge26" class="edge">
<title>Node20&#45;&gt;Node19</title>
<path fill="none" stroke="#404040" d="M412.5,-1246.35C412.5,-1236.01 412.5,-1223.66 412.5,-1210.89"/>
<polygon fill="none" stroke="#404040" points="412.5,-1210.56 408.5,-1204.56 412.5,-1198.56 416.5,-1204.56 412.5,-1210.56"/>
<text text-anchor="middle" x="426.5" y="-1220" font-family="Helvetica,sans-Serif" font-size="10.00"> &#45;Data</text>
</g>
<!-- Node21 -->
<g id="node21" class="node">
<title>Node21</title>
<g id="a_node21"><a xlink:href="../../d3/d88/classSDK_1_1FString.html" target="_top" xlink:title=" ">
<polygon fill="white" stroke="black" points="790,-2157.5 790,-2258.5 865,-2258.5 865,-2157.5 790,-2157.5"/>
<text text-anchor="middle" x="827.5" y="-2246.5" font-family="Helvetica,sans-Serif" font-size="10.00">SDK::FString</text>
<polyline fill="none" stroke="black" points="790,-2239.5 865,-2239.5 "/>
<text text-anchor="middle" x="827.5" y="-2227.5" font-family="Helvetica,sans-Serif" font-size="10.00"> </text>
<polyline fill="none" stroke="black" points="790,-2220.5 865,-2220.5 "/>
<text text-anchor="start" x="798" y="-2208.5" font-family="Helvetica,sans-Serif" font-size="10.00">+ FString()</text>
<text text-anchor="start" x="798" y="-2197.5" font-family="Helvetica,sans-Serif" font-size="10.00">+ FString()</text>
<text text-anchor="start" x="798" y="-2186.5" font-family="Helvetica,sans-Serif" font-size="10.00">+ IsValid()</text>
<text text-anchor="start" x="798" y="-2175.5" font-family="Helvetica,sans-Serif" font-size="10.00">+ c_str()</text>
<text text-anchor="start" x="798" y="-2164.5" font-family="Helvetica,sans-Serif" font-size="10.00">+ ToString()</text>
</a>
</g>
</g>
<!-- Node21&#45;&gt;Node6 -->
<g id="edge30" class="edge">
<title>Node21&#45;&gt;Node6</title>
<path fill="none" stroke="#404040" d="M838.64,-2157.27C852.25,-2092.03 873.5,-1973.8 873.5,-1871.5 873.5,-1871.5 873.5,-1871.5 873.5,-1125 873.5,-1062.22 827.56,-1007.86 782.75,-969.76"/>
<polygon fill="none" stroke="#404040" points="782.47,-969.53 775.3,-968.79 773.22,-961.89 780.4,-962.63 782.47,-969.53"/>
<text text-anchor="middle" x="896.5" y="-1505.5" font-family="Helvetica,sans-Serif" font-size="10.00"> +PathInfo</text>
</g>
<!-- Node22&#45;&gt;Node21 -->
<g id="edge31" class="edge">
<title>Node22&#45;&gt;Node21</title>
<path fill="none" stroke="midnightblue" d="M726.23,-2438.89C751.4,-2381.74 784.3,-2307.07 805.66,-2258.58"/>
<polygon fill="none" stroke="midnightblue" points="722.93,-2437.7 722.1,-2448.26 729.34,-2440.52 722.93,-2437.7"/>
</g>
<!-- Node23&#45;&gt;Node5 -->
<g id="edge33" class="edge">
<title>Node23&#45;&gt;Node5</title>
<path fill="none" stroke="#404040" d="M116.63,-1750.98C98.88,-1719.36 73.5,-1665.34 73.5,-1615 73.5,-1615 73.5,-1615 73.5,-910 73.5,-870.83 75.75,-827.48 78.31,-790.93"/>
<polygon fill="none" stroke="#404040" points="78.32,-790.78 74.76,-784.51 79.18,-778.81 82.74,-785.08 78.32,-790.78"/>
<text text-anchor="middle" x="138.5" y="-1325" font-family="Helvetica,sans-Serif" font-size="10.00"> +__EventListener__Delegate</text>
</g>
</g>
</svg>
