<?xml version="1.0" encoding="UTF-8" standalone="no"?>
<!DOCTYPE svg PUBLIC "-//W3C//DTD SVG 1.1//EN"
 "http://www.w3.org/Graphics/SVG/1.1/DTD/svg11.dtd">
<!-- Generated by graphviz version 2.41.20171026.1811 (20171026.1811)
 -->
<!-- Title: SDK::UNavMeshPath_WithinTraversalDist Pages: 1 -->
<!--zoomable 1397 -->
<svg id="main" version="1.1" xmlns="http://www.w3.org/2000/svg" xmlns:xlink="http://www.w3.org/1999/xlink" xml:space="preserve" onload="init(evt)">
<style type="text/css"><![CDATA[
.edge:hover path { stroke: red; }
.edge:hover polygon { stroke: red; fill: red; }
]]></style>
<script type="text/javascript"><![CDATA[
var edges = document.getElementsByTagName('g');
if (edges && edges.length) {
  for (var i=0;i<edges.length;i++) {
    if (edges[i].id.substr(0,4)=='edge') {
      edges[i].setAttribute('class','edge');
    }
  }
}
]]></script>
        <defs>
                <circle id="rim" cx="0" cy="0" r="7"/>
                <circle id="rim2" cx="0" cy="0" r="3.5"/>
                <g id="zoomPlus">
                        <use xlink:href="#rim" fill="#404040">
                                <set attributeName="fill" to="#808080" begin="zoomplus.mouseover" end="zoomplus.mouseout"/>
                        </use>
                        <path d="M-4,0h8M0,-4v8" fill="none" stroke="white" stroke-width="1.5" pointer-events="none"/>
                </g>
                <g id="zoomMin">
                        <use xlink:href="#rim" fill="#404040">
                                <set attributeName="fill" to="#808080" begin="zoomminus.mouseover" end="zoomminus.mouseout"/>
                        </use>
                        <path d="M-4,0h8" fill="none" stroke="white" stroke-width="1.5" pointer-events="none"/>
                </g>
                <g id="dirArrow">
                        <path fill="none" stroke="white" stroke-width="1.5" d="M0,-3.0v7 M-2.5,-0.5L0,-3.0L2.5,-0.5"/>
                </g>
               <g id="resetDef">
                       <use xlink:href="#rim2" fill="#404040">
                               <set attributeName="fill" to="#808080" begin="reset.mouseover" end="reset.mouseout"/>
                       </use>
               </g>
        </defs>

<script type="text/javascript">
var viewWidth = 759;
var viewHeight = 1397;
var sectionId = 'dynsection-1';
</script>
<script xlink:href="../../svgpan.js"/>
<svg id="graph" class="graph">
<g id="viewport">
<title>SDK::UNavMeshPath_WithinTraversalDist</title>
<polygon fill="white" stroke="transparent" points="-4,4 -4,-1393 755,-1393 755,4 -4,4"/>
<!-- Node1 -->
<g id="node1" class="node">
<title>Node1</title>
<g id="a_node1"><a xlink:title=" ">
<polygon fill="#bfbfbf" stroke="black" points="176.5,-223.5 176.5,-335.5 340.5,-335.5 340.5,-223.5 176.5,-223.5"/>
<text text-anchor="start" x="184.5" y="-323.5" font-family="Helvetica,sans-Serif" font-size="10.00">SDK::UNavMeshPath_Within</text>
<text text-anchor="middle" x="258.5" y="-312.5" font-family="Helvetica,sans-Serif" font-size="10.00">TraversalDist</text>
<polyline fill="none" stroke="black" points="176.5,-305.5 340.5,-305.5 "/>
<text text-anchor="start" x="184.5" y="-293.5" font-family="Helvetica,sans-Serif" font-size="10.00">+ MaxTraversalDist</text>
<text text-anchor="start" x="184.5" y="-282.5" font-family="Helvetica,sans-Serif" font-size="10.00">+ bSoft</text>
<text text-anchor="start" x="184.5" y="-271.5" font-family="Helvetica,sans-Serif" font-size="10.00">+ SoftStartPenalty</text>
<polyline fill="none" stroke="black" points="176.5,-264.5 340.5,-264.5 "/>
<text text-anchor="start" x="184.5" y="-252.5" font-family="Helvetica,sans-Serif" font-size="10.00">+ Recycle()</text>
<text text-anchor="start" x="184.5" y="-241.5" font-family="Helvetica,sans-Serif" font-size="10.00">+ STATIC_DontExceedMaxDist()</text>
<text text-anchor="start" x="184.5" y="-230.5" font-family="Helvetica,sans-Serif" font-size="10.00">+ StaticClass()</text>
</a>
</g>
</g>
<!-- Node2 -->
<g id="node2" class="node">
<title>Node2</title>
<g id="a_node2"><a xlink:href="../../d2/d31/classSDK_1_1UNavMeshPathConstraint.html" target="_top" xlink:title=" ">
<polygon fill="white" stroke="black" points="179.5,-405.5 179.5,-517.5 337.5,-517.5 337.5,-405.5 179.5,-405.5"/>
<text text-anchor="middle" x="258.5" y="-505.5" font-family="Helvetica,sans-Serif" font-size="10.00">SDK::UNavMeshPathConstraint</text>
<polyline fill="none" stroke="black" points="179.5,-498.5 337.5,-498.5 "/>
<text text-anchor="start" x="187.5" y="-486.5" font-family="Helvetica,sans-Serif" font-size="10.00">+ NumNodesProcessed</text>
<text text-anchor="start" x="187.5" y="-475.5" font-family="Helvetica,sans-Serif" font-size="10.00">+ NumThrownOutNodes</text>
<text text-anchor="start" x="187.5" y="-464.5" font-family="Helvetica,sans-Serif" font-size="10.00">+ AddedDirectCost</text>
<text text-anchor="start" x="187.5" y="-453.5" font-family="Helvetica,sans-Serif" font-size="10.00">+ AddedHeuristicCost</text>
<polyline fill="none" stroke="black" points="179.5,-446.5 337.5,-446.5 "/>
<text text-anchor="start" x="187.5" y="-434.5" font-family="Helvetica,sans-Serif" font-size="10.00">+ GetDumpString()</text>
<text text-anchor="start" x="187.5" y="-423.5" font-family="Helvetica,sans-Serif" font-size="10.00">+ Recycle()</text>
<text text-anchor="start" x="187.5" y="-412.5" font-family="Helvetica,sans-Serif" font-size="10.00">+ StaticClass()</text>
</a>
</g>
</g>
<!-- Node2&#45;&gt;Node1 -->
<g id="edge1" class="edge">
<title>Node2&#45;&gt;Node1</title>
<path fill="none" stroke="midnightblue" d="M258.5,-394.77C258.5,-375.41 258.5,-354.43 258.5,-335.79"/>
<polygon fill="none" stroke="midnightblue" points="255,-395.03 258.5,-405.03 262,-395.03 255,-395.03"/>
</g>
<!-- Node2&#45;&gt;Node2 -->
<g id="edge21" class="edge">
<title>Node2&#45;&gt;Node2</title>
<path fill="none" stroke="#404040" d="M337.66,-476.47C348.37,-473.96 355.5,-468.97 355.5,-461.5 355.5,-457.18 353.12,-453.69 349.04,-451.03"/>
<polygon fill="none" stroke="#404040" points="348.82,-450.94 341.77,-452.46 337.66,-446.53 344.71,-445.02 348.82,-450.94"/>
<text text-anchor="middle" x="393.5" y="-459" font-family="Helvetica,sans-Serif" font-size="10.00"> +NextConstraint</text>
</g>
<!-- Node3 -->
<g id="node3" class="node">
<title>Node3</title>
<g id="a_node3"><a xlink:href="../../d9/d45/classSDK_1_1UObject.html" target="_top" xlink:title=" ">
<polygon fill="white" stroke="black" points="266.5,-576.5 266.5,-820.5 464.5,-820.5 464.5,-576.5 266.5,-576.5"/>
<text text-anchor="middle" x="365.5" y="-808.5" font-family="Helvetica,sans-Serif" font-size="10.00">SDK::UObject</text>
<polyline fill="none" stroke="black" points="266.5,-801.5 464.5,-801.5 "/>
<text text-anchor="start" x="274.5" y="-789.5" font-family="Helvetica,sans-Serif" font-size="10.00">+ ObjectInternalInteger</text>
<text text-anchor="start" x="274.5" y="-778.5" font-family="Helvetica,sans-Serif" font-size="10.00">+ NetIndex</text>
<polyline fill="none" stroke="black" points="266.5,-771.5 464.5,-771.5 "/>
<text text-anchor="start" x="274.5" y="-759.5" font-family="Helvetica,sans-Serif" font-size="10.00">+ UObject::GetName()</text>
<text text-anchor="start" x="274.5" y="-748.5" font-family="Helvetica,sans-Serif" font-size="10.00">+ GetFullName()</text>
<text text-anchor="start" x="274.5" y="-737.5" font-family="Helvetica,sans-Serif" font-size="10.00">+ IsA()</text>
<text text-anchor="start" x="274.5" y="-726.5" font-family="Helvetica,sans-Serif" font-size="10.00">+ ProcessEvent()</text>
<text text-anchor="start" x="274.5" y="-715.5" font-family="Helvetica,sans-Serif" font-size="10.00">+ STATIC_ProfNodeEvent()</text>
<text text-anchor="start" x="274.5" y="-704.5" font-family="Helvetica,sans-Serif" font-size="10.00">+ STATIC_ProfNodeSetDepthThreshold()</text>
<text text-anchor="start" x="274.5" y="-693.5" font-family="Helvetica,sans-Serif" font-size="10.00">+ STATIC_ProfNodeSetTimeThreshold</text>
<text text-anchor="start" x="274.5" y="-682.5" font-family="Helvetica,sans-Serif" font-size="10.00">Seconds()</text>
<text text-anchor="start" x="274.5" y="-671.5" font-family="Helvetica,sans-Serif" font-size="10.00">+ STATIC_ProfNodeStop()</text>
<text text-anchor="start" x="274.5" y="-660.5" font-family="Helvetica,sans-Serif" font-size="10.00">+ STATIC_ProfNodeStart()</text>
<text text-anchor="start" x="274.5" y="-649.5" font-family="Helvetica,sans-Serif" font-size="10.00">+ STATIC_GetStringFromGuid()</text>
<text text-anchor="start" x="274.5" y="-638.5" font-family="Helvetica,sans-Serif" font-size="10.00">and 298 more...</text>
<text text-anchor="start" x="274.5" y="-627.5" font-family="Helvetica,sans-Serif" font-size="10.00">+ GetGlobalObjects()</text>
<text text-anchor="start" x="274.5" y="-616.5" font-family="Helvetica,sans-Serif" font-size="10.00">+ FindObject()</text>
<text text-anchor="start" x="274.5" y="-605.5" font-family="Helvetica,sans-Serif" font-size="10.00">+ FindClass()</text>
<text text-anchor="start" x="274.5" y="-594.5" font-family="Helvetica,sans-Serif" font-size="10.00">+ GetObjectCasted()</text>
<text text-anchor="start" x="274.5" y="-583.5" font-family="Helvetica,sans-Serif" font-size="10.00">+ StaticClass()</text>
</a>
</g>
</g>
<!-- Node3&#45;&gt;Node2 -->
<g id="edge2" class="edge">
<title>Node3&#45;&gt;Node2</title>
<path fill="none" stroke="midnightblue" d="M312.67,-566.99C309.63,-560.2 306.56,-553.5 303.5,-547 298.97,-537.38 293.89,-527.28 288.82,-517.56"/>
<polygon fill="none" stroke="midnightblue" points="309.54,-568.57 316.79,-576.29 315.94,-565.73 309.54,-568.57"/>
</g>
<!-- Node3&#45;&gt;Node3 -->
<g id="edge8" class="edge">
<title>Node3&#45;&gt;Node3</title>
<path fill="none" stroke="#404040" d="M464.51,-721.53C475.44,-717.15 482.5,-709.48 482.5,-698.5 482.5,-691.64 479.74,-686.07 475.01,-681.78"/>
<polygon fill="none" stroke="#404040" points="474.8,-681.66 467.59,-681.99 464.51,-675.47 471.72,-675.14 474.8,-681.66"/>
<text text-anchor="middle" x="522" y="-707" font-family="Helvetica,sans-Serif" font-size="10.00"> +Outer</text>
<text text-anchor="middle" x="522" y="-696" font-family="Helvetica,sans-Serif" font-size="10.00">+Linker</text>
<text text-anchor="middle" x="522" y="-685" font-family="Helvetica,sans-Serif" font-size="10.00">+ObjectArchetype</text>
</g>
<!-- Node9 -->
<g id="node9" class="node">
<title>Node9</title>
<g id="a_node9"><a xlink:href="../../d3/d79/classSDK_1_1TArray.html" target="_top" xlink:title=" ">
<polygon fill="white" stroke="black" points="0,-394.5 0,-528.5 161,-528.5 161,-394.5 0,-394.5"/>
<text text-anchor="middle" x="80.5" y="-516.5" font-family="Helvetica,sans-Serif" font-size="10.00">SDK::TArray&lt; SDK::UObject * &gt;</text>
<polyline fill="none" stroke="black" points="0,-509.5 161,-509.5 "/>
<text text-anchor="start" x="8" y="-497.5" font-family="Helvetica,sans-Serif" font-size="10.00">&#45; Count</text>
<text text-anchor="start" x="8" y="-486.5" font-family="Helvetica,sans-Serif" font-size="10.00">&#45; Max</text>
<polyline fill="none" stroke="black" points="0,-479.5 161,-479.5 "/>
<text text-anchor="start" x="8" y="-467.5" font-family="Helvetica,sans-Serif" font-size="10.00">+ TArray()</text>
<text text-anchor="start" x="8" y="-456.5" font-family="Helvetica,sans-Serif" font-size="10.00">+ Num()</text>
<text text-anchor="start" x="8" y="-445.5" font-family="Helvetica,sans-Serif" font-size="10.00">+ operator[]()</text>
<text text-anchor="start" x="8" y="-434.5" font-family="Helvetica,sans-Serif" font-size="10.00">+ operator[]()</text>
<text text-anchor="start" x="8" y="-423.5" font-family="Helvetica,sans-Serif" font-size="10.00">+ IsValidIndex()</text>
<text text-anchor="start" x="8" y="-412.5" font-family="Helvetica,sans-Serif" font-size="10.00">+ GetByIndex()</text>
<text text-anchor="start" x="8" y="-401.5" font-family="Helvetica,sans-Serif" font-size="10.00">+ GetByIndex()</text>
</a>
</g>
</g>
<!-- Node3&#45;&gt;Node9 -->
<g id="edge10" class="edge">
<title>Node3&#45;&gt;Node9</title>
<path fill="none" stroke="#404040" d="M266.28,-639.65C230.26,-616.46 190.37,-588.1 157.5,-558 150.65,-551.73 143.91,-544.82 137.42,-537.68"/>
<polygon fill="none" stroke="#404040" points="137.3,-537.54 130.33,-535.69 129.36,-528.54 136.33,-530.4 137.3,-537.54"/>
<text text-anchor="middle" x="171.5" y="-550" font-family="Helvetica,sans-Serif" font-size="10.00"> &#45;Data</text>
</g>
<!-- Node11 -->
<g id="node11" class="node">
<title>Node11</title>
<g id="a_node11"><a xlink:href="../../d7/d85/classSDK_1_1UClass.html" target="_top" xlink:title=" ">
<polygon fill="white" stroke="black" points="530,-0.5 530,-90.5 651,-90.5 651,-0.5 530,-0.5"/>
<text text-anchor="middle" x="590.5" y="-78.5" font-family="Helvetica,sans-Serif" font-size="10.00">SDK::UClass</text>
<polyline fill="none" stroke="black" points="530,-71.5 651,-71.5 "/>
<text text-anchor="start" x="538" y="-59.5" font-family="Helvetica,sans-Serif" font-size="10.00">+ UnknownData00</text>
<text text-anchor="start" x="538" y="-48.5" font-family="Helvetica,sans-Serif" font-size="10.00">+ UnknownData01</text>
<polyline fill="none" stroke="black" points="530,-41.5 651,-41.5 "/>
<text text-anchor="start" x="538" y="-29.5" font-family="Helvetica,sans-Serif" font-size="10.00">+ CreateDefaultObject()</text>
<text text-anchor="start" x="538" y="-18.5" font-family="Helvetica,sans-Serif" font-size="10.00">+ CreateDefaultObject()</text>
<text text-anchor="start" x="538" y="-7.5" font-family="Helvetica,sans-Serif" font-size="10.00">+ StaticClass()</text>
</a>
</g>
</g>
<!-- Node3&#45;&gt;Node11 -->
<g id="edge20" class="edge">
<title>Node3&#45;&gt;Node11</title>
<path fill="none" stroke="#404040" d="M433.94,-576.37C448.46,-540.79 459.5,-501.06 459.5,-462.5 459.5,-462.5 459.5,-462.5 459.5,-156 459.5,-120.34 488.44,-94.01 519.11,-76.12"/>
<polygon fill="none" stroke="#404040" points="519.47,-75.92 522.8,-69.53 529.98,-70.14 526.65,-76.54 519.47,-75.92"/>
<text text-anchor="middle" x="507" y="-277" font-family="Helvetica,sans-Serif" font-size="10.00"> +ClassDefaultObject</text>
</g>
<!-- Node14 -->
<g id="node14" class="node">
<title>Node14</title>
<g id="a_node14"><a xlink:href="../../de/dd6/classSDK_1_1UField.html" target="_top" xlink:title=" ">
<polygon fill="white" stroke="black" points="619,-433 619,-490 702,-490 702,-433 619,-433"/>
<text text-anchor="middle" x="660.5" y="-478" font-family="Helvetica,sans-Serif" font-size="10.00">SDK::UField</text>
<polyline fill="none" stroke="black" points="619,-471 702,-471 "/>
<text text-anchor="middle" x="660.5" y="-459" font-family="Helvetica,sans-Serif" font-size="10.00"> </text>
<polyline fill="none" stroke="black" points="619,-452 702,-452 "/>
<text text-anchor="start" x="627" y="-440" font-family="Helvetica,sans-Serif" font-size="10.00">+ StaticClass()</text>
</a>
</g>
</g>
<!-- Node3&#45;&gt;Node14 -->
<g id="edge17" class="edge">
<title>Node3&#45;&gt;Node14</title>
<path fill="none" stroke="midnightblue" d="M473.63,-649.51C517.77,-626.3 567.12,-595.31 604.5,-558 624.09,-538.45 639.36,-510.68 648.97,-490.12"/>
<polygon fill="none" stroke="midnightblue" points="471.85,-646.49 464.58,-654.2 475.07,-652.71 471.85,-646.49"/>
</g>
<!-- Node4 -->
<g id="node4" class="node">
<title>Node4</title>
<g id="a_node4"><a xlink:href="../../d0/d22/structSDK_1_1FQWord.html" target="_top" xlink:title=" ">
<polygon fill="white" stroke="black" points="432.5,-918 432.5,-986 512.5,-986 512.5,-918 432.5,-918"/>
<text text-anchor="middle" x="472.5" y="-974" font-family="Helvetica,sans-Serif" font-size="10.00">SDK::FQWord</text>
<polyline fill="none" stroke="black" points="432.5,-967 512.5,-967 "/>
<text text-anchor="start" x="440.5" y="-955" font-family="Helvetica,sans-Serif" font-size="10.00">+ A</text>
<text text-anchor="start" x="440.5" y="-944" font-family="Helvetica,sans-Serif" font-size="10.00">+ B</text>
<polyline fill="none" stroke="black" points="432.5,-937 512.5,-937 "/>
<text text-anchor="middle" x="472.5" y="-925" font-family="Helvetica,sans-Serif" font-size="10.00"> </text>
</a>
</g>
</g>
<!-- Node4&#45;&gt;Node3 -->
<g id="edge3" class="edge">
<title>Node4&#45;&gt;Node3</title>
<path fill="none" stroke="#404040" d="M464.12,-917.6C458.04,-895.03 449.04,-864.77 438.5,-839 437.53,-836.63 436.53,-834.24 435.51,-831.85"/>
<polygon fill="none" stroke="#404040" points="435.39,-831.58 429.32,-827.69 430.57,-820.59 436.65,-824.48 435.39,-831.58"/>
<text text-anchor="middle" x="480.5" y="-853" font-family="Helvetica,sans-Serif" font-size="10.00"> +ObjectFlags</text>
</g>
<!-- Node5 -->
<g id="node5" class="node">
<title>Node5</title>
<g id="a_node5"><a xlink:href="../../d0/db6/structSDK_1_1FName.html" target="_top" xlink:title=" ">
<polygon fill="white" stroke="black" points="192,-890.5 192,-1013.5 299,-1013.5 299,-890.5 192,-890.5"/>
<text text-anchor="middle" x="245.5" y="-1001.5" font-family="Helvetica,sans-Serif" font-size="10.00">SDK::FName</text>
<polyline fill="none" stroke="black" points="192,-994.5 299,-994.5 "/>
<text text-anchor="start" x="200" y="-982.5" font-family="Helvetica,sans-Serif" font-size="10.00">+ Index</text>
<text text-anchor="start" x="200" y="-971.5" font-family="Helvetica,sans-Serif" font-size="10.00">+ Number</text>
<polyline fill="none" stroke="black" points="192,-964.5 299,-964.5 "/>
<text text-anchor="start" x="200" y="-952.5" font-family="Helvetica,sans-Serif" font-size="10.00">+ FName()</text>
<text text-anchor="start" x="200" y="-941.5" font-family="Helvetica,sans-Serif" font-size="10.00">+ FName()</text>
<text text-anchor="start" x="200" y="-930.5" font-family="Helvetica,sans-Serif" font-size="10.00">+ FName()</text>
<text text-anchor="start" x="200" y="-919.5" font-family="Helvetica,sans-Serif" font-size="10.00">+ GetName()</text>
<text text-anchor="start" x="200" y="-908.5" font-family="Helvetica,sans-Serif" font-size="10.00">+ operator==()</text>
<text text-anchor="start" x="200" y="-897.5" font-family="Helvetica,sans-Serif" font-size="10.00">+ GetGlobalNames()</text>
</a>
</g>
</g>
<!-- Node5&#45;&gt;Node3 -->
<g id="edge4" class="edge">
<title>Node5&#45;&gt;Node3</title>
<path fill="none" stroke="#404040" d="M274.4,-890.44C282.92,-872.57 292.6,-852.28 302.39,-831.76"/>
<polygon fill="none" stroke="#404040" points="302.51,-831.52 301.48,-824.38 307.68,-820.69 308.7,-827.82 302.51,-831.52"/>
<text text-anchor="middle" x="316.5" y="-853" font-family="Helvetica,sans-Serif" font-size="10.00"> +Name</text>
</g>
<!-- Node6 -->
<g id="node6" class="node">
<title>Node6</title>
<g id="a_node6"><a xlink:href="../../d3/d79/classSDK_1_1TArray.html" target="_top" xlink:title=" ">
<polygon fill="white" stroke="black" points="155.5,-1061.5 155.5,-1195.5 335.5,-1195.5 335.5,-1061.5 155.5,-1061.5"/>
<text text-anchor="middle" x="245.5" y="-1183.5" font-family="Helvetica,sans-Serif" font-size="10.00">SDK::TArray&lt; SDK::FNameEntry * &gt;</text>
<polyline fill="none" stroke="black" points="155.5,-1176.5 335.5,-1176.5 "/>
<text text-anchor="start" x="163.5" y="-1164.5" font-family="Helvetica,sans-Serif" font-size="10.00">&#45; Count</text>
<text text-anchor="start" x="163.5" y="-1153.5" font-family="Helvetica,sans-Serif" font-size="10.00">&#45; Max</text>
<polyline fill="none" stroke="black" points="155.5,-1146.5 335.5,-1146.5 "/>
<text text-anchor="start" x="163.5" y="-1134.5" font-family="Helvetica,sans-Serif" font-size="10.00">+ TArray()</text>
<text text-anchor="start" x="163.5" y="-1123.5" font-family="Helvetica,sans-Serif" font-size="10.00">+ Num()</text>
<text text-anchor="start" x="163.5" y="-1112.5" font-family="Helvetica,sans-Serif" font-size="10.00">+ operator[]()</text>
<text text-anchor="start" x="163.5" y="-1101.5" font-family="Helvetica,sans-Serif" font-size="10.00">+ operator[]()</text>
<text text-anchor="start" x="163.5" y="-1090.5" font-family="Helvetica,sans-Serif" font-size="10.00">+ IsValidIndex()</text>
<text text-anchor="start" x="163.5" y="-1079.5" font-family="Helvetica,sans-Serif" font-size="10.00">+ GetByIndex()</text>
<text text-anchor="start" x="163.5" y="-1068.5" font-family="Helvetica,sans-Serif" font-size="10.00">+ GetByIndex()</text>
</a>
</g>
</g>
<!-- Node6&#45;&gt;Node5 -->
<g id="edge5" class="edge">
<title>Node6&#45;&gt;Node5</title>
<path fill="none" stroke="#404040" d="M245.5,-1061.03C245.5,-1049.45 245.5,-1037.35 245.5,-1025.62"/>
<polygon fill="none" stroke="#404040" points="245.5,-1025.56 241.5,-1019.56 245.5,-1013.56 249.5,-1019.56 245.5,-1025.56"/>
<text text-anchor="middle" x="270" y="-1035" font-family="Helvetica,sans-Serif" font-size="10.00"> +GNames</text>
</g>
<!-- Node7 -->
<g id="node7" class="node">
<title>Node7</title>
<g id="a_node7"><a xlink:href="../../d7/ddf/classSDK_1_1FNameEntry.html" target="_top" xlink:title=" ">
<polygon fill="white" stroke="black" points="198,-1282 198,-1350 297,-1350 297,-1282 198,-1282"/>
<text text-anchor="middle" x="247.5" y="-1338" font-family="Helvetica,sans-Serif" font-size="10.00">SDK::FNameEntry</text>
<polyline fill="none" stroke="black" points="198,-1331 297,-1331 "/>
<text text-anchor="start" x="206" y="-1319" font-family="Helvetica,sans-Serif" font-size="10.00">+ UnknownData00</text>
<text text-anchor="start" x="206" y="-1308" font-family="Helvetica,sans-Serif" font-size="10.00">+ name</text>
<polyline fill="none" stroke="black" points="198,-1301 297,-1301 "/>
<text text-anchor="start" x="206" y="-1289" font-family="Helvetica,sans-Serif" font-size="10.00">+ GetName()</text>
</a>
</g>
</g>
<!-- Node7&#45;&gt;Node6 -->
<g id="edge6" class="edge">
<title>Node7&#45;&gt;Node6</title>
<path fill="none" stroke="#404040" d="M247.14,-1281.84C246.92,-1261.23 246.62,-1233.83 246.35,-1207.95"/>
<polygon fill="none" stroke="#404040" points="246.34,-1207.8 242.28,-1201.84 246.21,-1195.8 250.28,-1201.76 246.34,-1207.8"/>
<text text-anchor="middle" x="260.5" y="-1217" font-family="Helvetica,sans-Serif" font-size="10.00"> &#45;Data</text>
</g>
<!-- Node8 -->
<g id="node8" class="node">
<title>Node8</title>
<g id="a_node8"><a xlink:href="../../d3/d79/classSDK_1_1TArray.html" target="_top" xlink:title=" ">
<polygon fill="white" stroke="black" points="49,-1243.5 49,-1388.5 146,-1388.5 146,-1243.5 49,-1243.5"/>
<text text-anchor="middle" x="97.5" y="-1376.5" font-family="Helvetica,sans-Serif" font-size="10.00">SDK::TArray&lt; T &gt;</text>
<polyline fill="none" stroke="black" points="49,-1369.5 146,-1369.5 "/>
<text text-anchor="start" x="57" y="-1357.5" font-family="Helvetica,sans-Serif" font-size="10.00">&#45; Data</text>
<text text-anchor="start" x="57" y="-1346.5" font-family="Helvetica,sans-Serif" font-size="10.00">&#45; Count</text>
<text text-anchor="start" x="57" y="-1335.5" font-family="Helvetica,sans-Serif" font-size="10.00">&#45; Max</text>
<polyline fill="none" stroke="black" points="49,-1328.5 146,-1328.5 "/>
<text text-anchor="start" x="57" y="-1316.5" font-family="Helvetica,sans-Serif" font-size="10.00">+ TArray()</text>
<text text-anchor="start" x="57" y="-1305.5" font-family="Helvetica,sans-Serif" font-size="10.00">+ Num()</text>
<text text-anchor="start" x="57" y="-1294.5" font-family="Helvetica,sans-Serif" font-size="10.00">+ operator[]()</text>
<text text-anchor="start" x="57" y="-1283.5" font-family="Helvetica,sans-Serif" font-size="10.00">+ operator[]()</text>
<text text-anchor="start" x="57" y="-1272.5" font-family="Helvetica,sans-Serif" font-size="10.00">+ IsValidIndex()</text>
<text text-anchor="start" x="57" y="-1261.5" font-family="Helvetica,sans-Serif" font-size="10.00">+ GetByIndex()</text>
<text text-anchor="start" x="57" y="-1250.5" font-family="Helvetica,sans-Serif" font-size="10.00">+ GetByIndex()</text>
</a>
</g>
</g>
<!-- Node8&#45;&gt;Node6 -->
<g id="edge7" class="edge">
<title>Node8&#45;&gt;Node6</title>
<path fill="none" stroke="orange" d="M119.6,-1234.17C123.04,-1227.05 126.99,-1220.21 131.5,-1214 138.31,-1204.64 146.46,-1195.86 155.23,-1187.78"/>
<polygon fill="orange" stroke="orange" points="116.4,-1232.75 115.51,-1243.3 122.79,-1235.61 116.4,-1232.75"/>
<text text-anchor="middle" x="187" y="-1217" font-family="Helvetica,sans-Serif" font-size="10.00"> &lt; SDK::FNameEntry * &gt;</text>
</g>
<!-- Node8&#45;&gt;Node9 -->
<g id="edge11" class="edge">
<title>Node8&#45;&gt;Node9</title>
<path fill="none" stroke="orange" d="M86.75,-1233.08C83.37,-1200.85 80.5,-1163.5 80.5,-1129.5 80.5,-1129.5 80.5,-1129.5 80.5,-697.5 80.5,-640.48 80.5,-575.69 80.5,-528.59"/>
<polygon fill="orange" stroke="orange" points="83.3,-1233.78 87.86,-1243.35 90.26,-1233.03 83.3,-1233.78"/>
<text text-anchor="middle" x="126" y="-949.5" font-family="Helvetica,sans-Serif" font-size="10.00"> &lt; SDK::UObject * &gt;</text>
</g>
<!-- Node9&#45;&gt;Node3 -->
<g id="edge9" class="edge">
<title>Node9&#45;&gt;Node3</title>
<path fill="none" stroke="#404040" d="M160.61,-528.56C190.46,-553.17 224.85,-581.52 256.83,-607.89"/>
<polygon fill="none" stroke="#404040" points="256.96,-608 264.14,-608.74 266.22,-615.64 259.05,-614.91 256.96,-608"/>
<text text-anchor="middle" x="215" y="-550" font-family="Helvetica,sans-Serif" font-size="10.00"> +GObjects</text>
</g>
<!-- Node10 -->
<g id="node10" class="node">
<title>Node10</title>
<g id="a_node10"><a xlink:href="../../d9/dfa/structSDK_1_1FPointer.html" target="_top" xlink:title=" ">
<polygon fill="white" stroke="black" points="316.5,-918 316.5,-986 414.5,-986 414.5,-918 316.5,-918"/>
<text text-anchor="middle" x="365.5" y="-974" font-family="Helvetica,sans-Serif" font-size="10.00">SDK::FPointer</text>
<polyline fill="none" stroke="black" points="316.5,-967 414.5,-967 "/>
<text text-anchor="start" x="324.5" y="-955" font-family="Helvetica,sans-Serif" font-size="10.00">+ Dummy</text>
<text text-anchor="start" x="324.5" y="-944" font-family="Helvetica,sans-Serif" font-size="10.00">+ UnknownData00</text>
<polyline fill="none" stroke="black" points="316.5,-937 414.5,-937 "/>
<text text-anchor="middle" x="365.5" y="-925" font-family="Helvetica,sans-Serif" font-size="10.00"> </text>
</a>
</g>
</g>
<!-- Node10&#45;&gt;Node3 -->
<g id="edge12" class="edge">
<title>Node10&#45;&gt;Node3</title>
<path fill="none" stroke="#404040" d="M365.5,-917.86C365.5,-895.57 365.5,-864.56 365.5,-832.9"/>
<polygon fill="none" stroke="#404040" points="365.5,-832.75 361.5,-826.75 365.5,-820.75 369.5,-826.75 365.5,-832.75"/>
<text text-anchor="middle" x="400" y="-864" font-family="Helvetica,sans-Serif" font-size="10.00"> +StateFrame</text>
<text text-anchor="middle" x="400" y="-853" font-family="Helvetica,sans-Serif" font-size="10.00">+VfTableObject</text>
<text text-anchor="middle" x="400" y="-842" font-family="Helvetica,sans-Serif" font-size="10.00">+LinkerIndex</text>
</g>
<!-- Node11&#45;&gt;Node3 -->
<g id="edge13" class="edge">
<title>Node11&#45;&gt;Node3</title>
<path fill="none" stroke="#404040" d="M590.5,-90.72C590.5,-110.67 590.5,-134.52 590.5,-156 590.5,-462.5 590.5,-462.5 590.5,-462.5 590.5,-536.32 531.86,-596.01 474.45,-636.76"/>
<polygon fill="none" stroke="#404040" points="474.38,-636.81 471.73,-643.52 464.52,-643.65 467.17,-636.94 474.38,-636.81"/>
<text text-anchor="middle" x="608" y="-277" font-family="Helvetica,sans-Serif" font-size="10.00"> +Class</text>
</g>
<!-- Node12 -->
<g id="node12" class="node">
<title>Node12</title>
<g id="a_node12"><a xlink:href="../../df/d72/classSDK_1_1UState.html" target="_top" xlink:title=" ">
<polygon fill="white" stroke="black" points="630.5,-128.5 630.5,-185.5 728.5,-185.5 728.5,-128.5 630.5,-128.5"/>
<text text-anchor="middle" x="679.5" y="-173.5" font-family="Helvetica,sans-Serif" font-size="10.00">SDK::UState</text>
<polyline fill="none" stroke="black" points="630.5,-166.5 728.5,-166.5 "/>
<text text-anchor="start" x="638.5" y="-154.5" font-family="Helvetica,sans-Serif" font-size="10.00">+ UnknownData00</text>
<polyline fill="none" stroke="black" points="630.5,-147.5 728.5,-147.5 "/>
<text text-anchor="start" x="638.5" y="-135.5" font-family="Helvetica,sans-Serif" font-size="10.00">+ StaticClass()</text>
</a>
</g>
</g>
<!-- Node12&#45;&gt;Node11 -->
<g id="edge14" class="edge">
<title>Node12&#45;&gt;Node11</title>
<path fill="none" stroke="midnightblue" d="M650.51,-120.33C642.83,-110.89 634.45,-100.58 626.46,-90.74"/>
<polygon fill="none" stroke="midnightblue" points="648.02,-122.82 657.04,-128.37 653.45,-118.4 648.02,-122.82"/>
</g>
<!-- Node13 -->
<g id="node13" class="node">
<title>Node13</title>
<g id="a_node13"><a xlink:href="../../d8/de9/classSDK_1_1UStruct.html" target="_top" xlink:title=" ">
<polygon fill="white" stroke="black" points="643.5,-240 643.5,-319 741.5,-319 741.5,-240 643.5,-240"/>
<text text-anchor="middle" x="692.5" y="-307" font-family="Helvetica,sans-Serif" font-size="10.00">SDK::UStruct</text>
<polyline fill="none" stroke="black" points="643.5,-300 741.5,-300 "/>
<text text-anchor="start" x="651.5" y="-288" font-family="Helvetica,sans-Serif" font-size="10.00">+ UnknownData00</text>
<text text-anchor="start" x="651.5" y="-277" font-family="Helvetica,sans-Serif" font-size="10.00">+ PropertySize</text>
<text text-anchor="start" x="651.5" y="-266" font-family="Helvetica,sans-Serif" font-size="10.00">+ UnknownData01</text>
<polyline fill="none" stroke="black" points="643.5,-259 741.5,-259 "/>
<text text-anchor="start" x="651.5" y="-247" font-family="Helvetica,sans-Serif" font-size="10.00">+ StaticClass()</text>
</a>
</g>
</g>
<!-- Node13&#45;&gt;Node12 -->
<g id="edge15" class="edge">
<title>Node13&#45;&gt;Node12</title>
<path fill="none" stroke="midnightblue" d="M687.22,-229.55C685.61,-214.59 683.89,-198.66 682.48,-185.65"/>
<polygon fill="none" stroke="midnightblue" points="683.76,-230.14 688.32,-239.71 690.72,-229.39 683.76,-230.14"/>
</g>
<!-- Node14&#45;&gt;Node13 -->
<g id="edge16" class="edge">
<title>Node14&#45;&gt;Node13</title>
<path fill="none" stroke="midnightblue" d="M663.9,-422.6C666.04,-402.17 669.22,-376.6 673.5,-354 675.66,-342.6 678.58,-330.36 681.48,-319.19"/>
<polygon fill="none" stroke="midnightblue" points="660.4,-422.46 662.88,-432.76 667.36,-423.16 660.4,-422.46"/>
</g>
<!-- Node14&#45;&gt;Node13 -->
<g id="edge19" class="edge">
<title>Node14&#45;&gt;Node13</title>
<path fill="none" stroke="#404040" d="M665.43,-432.77C670.22,-405.84 677.6,-364.31 683.45,-331.42"/>
<polygon fill="none" stroke="#404040" points="683.5,-331.11 680.62,-324.5 685.6,-319.29 688.49,-325.9 683.5,-331.11"/>
<text text-anchor="middle" x="706.5" y="-368" font-family="Helvetica,sans-Serif" font-size="10.00"> +SuperField</text>
<text text-anchor="middle" x="706.5" y="-357" font-family="Helvetica,sans-Serif" font-size="10.00">+Children</text>
</g>
<!-- Node14&#45;&gt;Node14 -->
<g id="edge18" class="edge">
<title>Node14&#45;&gt;Node14</title>
<path fill="none" stroke="#404040" d="M702.21,-478.11C712.41,-476.88 720,-471.34 720,-461.5 720,-455.96 717.6,-451.79 713.68,-448.98"/>
<polygon fill="none" stroke="#404040" points="713.51,-448.92 706.51,-450.67 702.21,-444.89 709.2,-443.13 713.51,-448.92"/>
<text text-anchor="middle" x="735.5" y="-459" font-family="Helvetica,sans-Serif" font-size="10.00"> +Next</text>
</g>
</g>
</svg>
        <g id="navigator" transform="translate(0 0)" fill="#404254">
                <rect fill="#f2f5e9" fill-opacity="0.5" stroke="#606060" stroke-width=".5" x="0" y="0" width="60" height="60"/>
                <use id="zoomplus" xlink:href="#zoomPlus" x="17" y="9" onmousedown="handleZoom(evt,'in')"/>
                <use id="zoomminus" xlink:href="#zoomMin" x="42" y="9" onmousedown="handleZoom(evt,'out')"/>
                <use id="reset" xlink:href="#resetDef" x="30" y="36" onmousedown="handleReset()"/>
                <g id="arrowUp" xlink:href="#dirArrow" transform="translate(30 24)" onmousedown="handlePan(0,-1)">
                  <use xlink:href="#rim" fill="#404040">
                        <set attributeName="fill" to="#808080" begin="arrowUp.mouseover" end="arrowUp.mouseout"/>
                  </use>
                  <path fill="none" stroke="white" stroke-width="1.5" d="M0,-3.0v7 M-2.5,-0.5L0,-3.0L2.5,-0.5"/>
                </g>
                <g id="arrowRight" xlink:href="#dirArrow" transform="rotate(90) translate(36 -43)" onmousedown="handlePan(1,0)">
                  <use xlink:href="#rim" fill="#404040">
                        <set attributeName="fill" to="#808080" begin="arrowRight.mouseover" end="arrowRight.mouseout"/>
                  </use>
                  <path fill="none" stroke="white" stroke-width="1.5" d="M0,-3.0v7 M-2.5,-0.5L0,-3.0L2.5,-0.5"/>
                </g>
                <g id="arrowDown" xlink:href="#dirArrow" transform="rotate(180) translate(-30 -48)" onmousedown="handlePan(0,1)">
                  <use xlink:href="#rim" fill="#404040">
                        <set attributeName="fill" to="#808080" begin="arrowDown.mouseover" end="arrowDown.mouseout"/>
                  </use>
                  <path fill="none" stroke="white" stroke-width="1.5" d="M0,-3.0v7 M-2.5,-0.5L0,-3.0L2.5,-0.5"/>
                </g>
                <g id="arrowLeft" xlink:href="#dirArrow" transform="rotate(270) translate(-36 17)" onmousedown="handlePan(-1,0)">
                  <use xlink:href="#rim" fill="#404040">
                        <set attributeName="fill" to="#808080" begin="arrowLeft.mouseover" end="arrowLeft.mouseout"/>
                  </use>
                  <path fill="none" stroke="white" stroke-width="1.5" d="M0,-3.0v7 M-2.5,-0.5L0,-3.0L2.5,-0.5"/>
                </g>
        </g>
        <svg viewBox="0 0 15 15" width="100%" height="30px" preserveAspectRatio="xMaxYMin meet">
         <g id="arrow_out" transform="scale(0.3 0.3)">
          <a xlink:href="classSDK_1_1UNavMeshPath__WithinTraversalDist__coll__graph_org.svg" target="_base">
           <rect id="button" ry="5" rx="5" y="6" x="6" height="38" width="38"
                fill="#f2f5e9" fill-opacity="0.5" stroke="#606060" stroke-width="1.0"/>
           <path id="arrow"
             d="M 11.500037,31.436501 C 11.940474,20.09759 22.043105,11.32322 32.158766,21.979434 L 37.068811,17.246167 C 37.068811,17.246167 37.088388,32 37.088388,32 L 22.160133,31.978069 C 22.160133,31.978069 26.997745,27.140456 26.997745,27.140456 C 18.528582,18.264221 13.291696,25.230495 11.500037,31.436501 z"
             style="fill:#404040;"/>
          </a>
         </g>
        </svg>
</svg>
