<?xml version="1.0" encoding="UTF-8" standalone="no"?>
<!DOCTYPE svg PUBLIC "-//W3C//DTD SVG 1.1//EN"
 "http://www.w3.org/Graphics/SVG/1.1/DTD/svg11.dtd">
<!-- Generated by graphviz version 2.41.20171026.1811 (20171026.1811)
 -->
<!-- Title: SDK::ULightComponent Pages: 1 -->
<!--zoomable 1587 -->
<svg id="main" version="1.1" xmlns="http://www.w3.org/2000/svg" xmlns:xlink="http://www.w3.org/1999/xlink" xml:space="preserve" onload="init(evt)">
<style type="text/css"><![CDATA[
.edge:hover path { stroke: red; }
.edge:hover polygon { stroke: red; fill: red; }
]]></style>
<script type="text/javascript"><![CDATA[
var edges = document.getElementsByTagName('g');
if (edges && edges.length) {
  for (var i=0;i<edges.length;i++) {
    if (edges[i].id.substr(0,4)=='edge') {
      edges[i].setAttribute('class','edge');
    }
  }
}
]]></script>
        <defs>
                <circle id="rim" cx="0" cy="0" r="7"/>
                <circle id="rim2" cx="0" cy="0" r="3.5"/>
                <g id="zoomPlus">
                        <use xlink:href="#rim" fill="#404040">
                                <set attributeName="fill" to="#808080" begin="zoomplus.mouseover" end="zoomplus.mouseout"/>
                        </use>
                        <path d="M-4,0h8M0,-4v8" fill="none" stroke="white" stroke-width="1.5" pointer-events="none"/>
                </g>
                <g id="zoomMin">
                        <use xlink:href="#rim" fill="#404040">
                                <set attributeName="fill" to="#808080" begin="zoomminus.mouseover" end="zoomminus.mouseout"/>
                        </use>
                        <path d="M-4,0h8" fill="none" stroke="white" stroke-width="1.5" pointer-events="none"/>
                </g>
                <g id="dirArrow">
                        <path fill="none" stroke="white" stroke-width="1.5" d="M0,-3.0v7 M-2.5,-0.5L0,-3.0L2.5,-0.5"/>
                </g>
               <g id="resetDef">
                       <use xlink:href="#rim2" fill="#404040">
                               <set attributeName="fill" to="#808080" begin="reset.mouseover" end="reset.mouseout"/>
                       </use>
               </g>
        </defs>

<script type="text/javascript">
var viewWidth = 703;
var viewHeight = 1587;
var sectionId = 'dynsection-0';
</script>
<script xlink:href="../../svgpan.js"/>
<svg id="graph" class="graph">
<g id="viewport">
<title>SDK::ULightComponent</title>
<polygon fill="white" stroke="transparent" points="-4,4 -4,-1583 698.5,-1583 698.5,4 -4,4"/>
<!-- Node1 -->
<g id="node1" class="node">
<title>Node1</title>
<g id="a_node1"><a xlink:title=" ">
<polygon fill="#bfbfbf" stroke="black" points="284.5,-535.5 284.5,-845.5 449.5,-845.5 449.5,-535.5 284.5,-535.5"/>
<text text-anchor="middle" x="367" y="-833.5" font-family="Helvetica,sans-Serif" font-size="10.00">SDK::ULightComponent</text>
<polyline fill="none" stroke="black" points="284.5,-826.5 449.5,-826.5 "/>
<text text-anchor="start" x="292.5" y="-814.5" font-family="Helvetica,sans-Serif" font-size="10.00">+ SceneInfo</text>
<text text-anchor="start" x="292.5" y="-803.5" font-family="Helvetica,sans-Serif" font-size="10.00">+ UnknownData00</text>
<text text-anchor="start" x="292.5" y="-792.5" font-family="Helvetica,sans-Serif" font-size="10.00">+ WorldToLight</text>
<text text-anchor="start" x="292.5" y="-781.5" font-family="Helvetica,sans-Serif" font-size="10.00">+ LightToWorld</text>
<text text-anchor="start" x="292.5" y="-770.5" font-family="Helvetica,sans-Serif" font-size="10.00">+ LightGuid</text>
<text text-anchor="start" x="292.5" y="-759.5" font-family="Helvetica,sans-Serif" font-size="10.00">+ LightmapGuid</text>
<text text-anchor="start" x="292.5" y="-748.5" font-family="Helvetica,sans-Serif" font-size="10.00">+ Brightness</text>
<text text-anchor="start" x="292.5" y="-737.5" font-family="Helvetica,sans-Serif" font-size="10.00">+ LightColor</text>
<text text-anchor="start" x="292.5" y="-726.5" font-family="Helvetica,sans-Serif" font-size="10.00">+ Function</text>
<text text-anchor="start" x="292.5" y="-715.5" font-family="Helvetica,sans-Serif" font-size="10.00">+ bEnabled</text>
<text text-anchor="start" x="292.5" y="-704.5" font-family="Helvetica,sans-Serif" font-size="10.00">and 41 more...</text>
<polyline fill="none" stroke="black" points="284.5,-697.5 449.5,-697.5 "/>
<text text-anchor="start" x="292.5" y="-685.5" font-family="Helvetica,sans-Serif" font-size="10.00">+ OnUpdatePropertyDoNothing()</text>
<text text-anchor="start" x="292.5" y="-674.5" font-family="Helvetica,sans-Serif" font-size="10.00">+ OnUpdatePropertyLightColor()</text>
<text text-anchor="start" x="292.5" y="-663.5" font-family="Helvetica,sans-Serif" font-size="10.00">+ OnUpdatePropertyBrightness()</text>
<text text-anchor="start" x="292.5" y="-652.5" font-family="Helvetica,sans-Serif" font-size="10.00">+ OnUpdatePropertyOcclusion</text>
<text text-anchor="start" x="292.5" y="-641.5" font-family="Helvetica,sans-Serif" font-size="10.00">MaskDarkness()</text>
<text text-anchor="start" x="292.5" y="-630.5" font-family="Helvetica,sans-Serif" font-size="10.00">+ OnUpdatePropertyBloomTint()</text>
<text text-anchor="start" x="292.5" y="-619.5" font-family="Helvetica,sans-Serif" font-size="10.00">+ OnUpdatePropertyBloomScale()</text>
<text text-anchor="start" x="292.5" y="-608.5" font-family="Helvetica,sans-Serif" font-size="10.00">+ UpdateLightShaftParameters()</text>
<text text-anchor="start" x="292.5" y="-597.5" font-family="Helvetica,sans-Serif" font-size="10.00">+ UpdateColorAndBrightness()</text>
<text text-anchor="start" x="292.5" y="-586.5" font-family="Helvetica,sans-Serif" font-size="10.00">+ GetDirection()</text>
<text text-anchor="start" x="292.5" y="-575.5" font-family="Helvetica,sans-Serif" font-size="10.00">+ GetOrigin()</text>
<text text-anchor="start" x="292.5" y="-564.5" font-family="Helvetica,sans-Serif" font-size="10.00">+ SetLightProperties()</text>
<text text-anchor="start" x="292.5" y="-553.5" font-family="Helvetica,sans-Serif" font-size="10.00">+ SetEnabled()</text>
<text text-anchor="start" x="292.5" y="-542.5" font-family="Helvetica,sans-Serif" font-size="10.00">+ StaticClass()</text>
</a>
</g>
</g>
<!-- Node5 -->
<g id="node5" class="node">
<title>Node5</title>
<g id="a_node5"><a xlink:href="../../df/dae/classSDK_1_1UDirectionalLightComponent.html" target="_top" xlink:title=" ">
<polygon fill="white" stroke="black" points="0,-320.5 0,-454.5 186,-454.5 186,-320.5 0,-320.5"/>
<text text-anchor="middle" x="93" y="-442.5" font-family="Helvetica,sans-Serif" font-size="10.00">SDK::UDirectionalLightComponent</text>
<polyline fill="none" stroke="black" points="0,-435.5 186,-435.5 "/>
<text text-anchor="start" x="8" y="-423.5" font-family="Helvetica,sans-Serif" font-size="10.00">+ TraceDistance</text>
<text text-anchor="start" x="8" y="-412.5" font-family="Helvetica,sans-Serif" font-size="10.00">+ WholeSceneDynamicShadowRadius</text>
<text text-anchor="start" x="8" y="-401.5" font-family="Helvetica,sans-Serif" font-size="10.00">+ NumWholeSceneDynamicShadow</text>
<text text-anchor="start" x="8" y="-390.5" font-family="Helvetica,sans-Serif" font-size="10.00">Cascades</text>
<text text-anchor="start" x="8" y="-379.5" font-family="Helvetica,sans-Serif" font-size="10.00">+ CascadeDistributionExponent</text>
<text text-anchor="start" x="8" y="-368.5" font-family="Helvetica,sans-Serif" font-size="10.00">+ LightmassSettings</text>
<polyline fill="none" stroke="black" points="0,-361.5 186,-361.5 "/>
<text text-anchor="start" x="8" y="-349.5" font-family="Helvetica,sans-Serif" font-size="10.00">+ OnUpdatePropertyBrightness()</text>
<text text-anchor="start" x="8" y="-338.5" font-family="Helvetica,sans-Serif" font-size="10.00">+ OnUpdatePropertyLightColor()</text>
<text text-anchor="start" x="8" y="-327.5" font-family="Helvetica,sans-Serif" font-size="10.00">+ StaticClass()</text>
</a>
</g>
</g>
<!-- Node1&#45;&gt;Node5 -->
<g id="edge4" class="edge">
<title>Node1&#45;&gt;Node5</title>
<path fill="none" stroke="midnightblue" d="M277.67,-591.37C236.9,-546.58 189.69,-494.72 153.21,-454.65"/>
<polygon fill="none" stroke="midnightblue" points="275.1,-593.74 284.42,-598.78 280.28,-589.03 275.1,-593.74"/>
</g>
<!-- Node7 -->
<g id="node7" class="node">
<title>Node7</title>
<g id="a_node7"><a xlink:href="../../dc/d28/classSDK_1_1UPointLightComponent.html" target="_top" xlink:title=" ">
<polygon fill="white" stroke="black" points="203.5,-276.5 203.5,-498.5 362.5,-498.5 362.5,-276.5 203.5,-276.5"/>
<text text-anchor="middle" x="283" y="-486.5" font-family="Helvetica,sans-Serif" font-size="10.00">SDK::UPointLightComponent</text>
<polyline fill="none" stroke="black" points="203.5,-479.5 362.5,-479.5 "/>
<text text-anchor="start" x="211.5" y="-467.5" font-family="Helvetica,sans-Serif" font-size="10.00">+ ShadowRadiusMultiplier</text>
<text text-anchor="start" x="211.5" y="-456.5" font-family="Helvetica,sans-Serif" font-size="10.00">+ Radius</text>
<text text-anchor="start" x="211.5" y="-445.5" font-family="Helvetica,sans-Serif" font-size="10.00">+ FalloffExponent</text>
<text text-anchor="start" x="211.5" y="-434.5" font-family="Helvetica,sans-Serif" font-size="10.00">+ ShadowFalloffExponent</text>
<text text-anchor="start" x="211.5" y="-423.5" font-family="Helvetica,sans-Serif" font-size="10.00">+ MinShadowFalloffRadius</text>
<text text-anchor="start" x="211.5" y="-412.5" font-family="Helvetica,sans-Serif" font-size="10.00">+ UnknownData00</text>
<text text-anchor="start" x="211.5" y="-401.5" font-family="Helvetica,sans-Serif" font-size="10.00">+ CachedParentToWorld</text>
<text text-anchor="start" x="211.5" y="-390.5" font-family="Helvetica,sans-Serif" font-size="10.00">+ Translation</text>
<text text-anchor="start" x="211.5" y="-379.5" font-family="Helvetica,sans-Serif" font-size="10.00">+ UnknownData01</text>
<text text-anchor="start" x="211.5" y="-368.5" font-family="Helvetica,sans-Serif" font-size="10.00">+ ShadowPlane</text>
<text text-anchor="start" x="211.5" y="-357.5" font-family="Helvetica,sans-Serif" font-size="10.00">+ PreviewLightRadius</text>
<text text-anchor="start" x="211.5" y="-346.5" font-family="Helvetica,sans-Serif" font-size="10.00">+ LightmassSettings</text>
<text text-anchor="start" x="211.5" y="-335.5" font-family="Helvetica,sans-Serif" font-size="10.00">+ PreviewLightSourceRadius</text>
<polyline fill="none" stroke="black" points="203.5,-328.5 362.5,-328.5 "/>
<text text-anchor="start" x="211.5" y="-316.5" font-family="Helvetica,sans-Serif" font-size="10.00">+ OnUpdatePropertyBrightness()</text>
<text text-anchor="start" x="211.5" y="-305.5" font-family="Helvetica,sans-Serif" font-size="10.00">+ OnUpdatePropertyLightColor()</text>
<text text-anchor="start" x="211.5" y="-294.5" font-family="Helvetica,sans-Serif" font-size="10.00">+ SetTranslation()</text>
<text text-anchor="start" x="211.5" y="-283.5" font-family="Helvetica,sans-Serif" font-size="10.00">+ StaticClass()</text>
</a>
</g>
</g>
<!-- Node1&#45;&gt;Node7 -->
<g id="edge6" class="edge">
<title>Node1&#45;&gt;Node7</title>
<path fill="none" stroke="midnightblue" d="M321.25,-525.57C318.71,-516.47 316.19,-507.43 313.72,-498.59"/>
<polygon fill="none" stroke="midnightblue" points="317.96,-526.78 324.02,-535.47 324.7,-524.9 317.96,-526.78"/>
</g>
<!-- Node11 -->
<g id="node11" class="node">
<title>Node11</title>
<g id="a_node11"><a xlink:href="../../d4/d0d/classSDK_1_1USkyLightComponent.html" target="_top" xlink:title=" ">
<polygon fill="white" stroke="black" points="381,-353.5 381,-421.5 521,-421.5 521,-353.5 381,-353.5"/>
<text text-anchor="middle" x="451" y="-409.5" font-family="Helvetica,sans-Serif" font-size="10.00">SDK::USkyLightComponent</text>
<polyline fill="none" stroke="black" points="381,-402.5 521,-402.5 "/>
<text text-anchor="start" x="389" y="-390.5" font-family="Helvetica,sans-Serif" font-size="10.00">+ LowerBrightness</text>
<text text-anchor="start" x="389" y="-379.5" font-family="Helvetica,sans-Serif" font-size="10.00">+ LowerColor</text>
<polyline fill="none" stroke="black" points="381,-372.5 521,-372.5 "/>
<text text-anchor="start" x="389" y="-360.5" font-family="Helvetica,sans-Serif" font-size="10.00">+ StaticClass()</text>
</a>
</g>
</g>
<!-- Node1&#45;&gt;Node11 -->
<g id="edge10" class="edge">
<title>Node1&#45;&gt;Node11</title>
<path fill="none" stroke="midnightblue" d="M412.72,-525.67C423.76,-486.11 434.45,-447.79 441.72,-421.76"/>
<polygon fill="none" stroke="midnightblue" points="409.3,-524.9 409.98,-535.47 416.04,-526.78 409.3,-524.9"/>
</g>
<!-- Node12 -->
<g id="node12" class="node">
<title>Node12</title>
<g id="a_node12"><a xlink:href="../../d5/d86/classSDK_1_1USphericalHarmonicLightComponent.html" target="_top" xlink:title=" ">
<polygon fill="white" stroke="black" points="539.5,-348 539.5,-427 694.5,-427 694.5,-348 539.5,-348"/>
<text text-anchor="start" x="547.5" y="-415" font-family="Helvetica,sans-Serif" font-size="10.00">SDK::USphericalHarmonicLight</text>
<text text-anchor="middle" x="617" y="-404" font-family="Helvetica,sans-Serif" font-size="10.00">Component</text>
<polyline fill="none" stroke="black" points="539.5,-397 694.5,-397 "/>
<text text-anchor="start" x="547.5" y="-385" font-family="Helvetica,sans-Serif" font-size="10.00">+ WorldSpaceIncidentLighting</text>
<text text-anchor="start" x="547.5" y="-374" font-family="Helvetica,sans-Serif" font-size="10.00">+ bRenderBeforeModShadows</text>
<polyline fill="none" stroke="black" points="539.5,-367 694.5,-367 "/>
<text text-anchor="start" x="547.5" y="-355" font-family="Helvetica,sans-Serif" font-size="10.00">+ StaticClass()</text>
</a>
</g>
</g>
<!-- Node1&#45;&gt;Node12 -->
<g id="edge11" class="edge">
<title>Node1&#45;&gt;Node12</title>
<path fill="none" stroke="midnightblue" d="M456.59,-586.34C480.66,-558.21 506.52,-527.6 530,-499 549.37,-475.41 570.56,-448.51 587.18,-427.16"/>
<polygon fill="none" stroke="midnightblue" points="453.7,-584.34 449.86,-594.21 459.02,-588.89 453.7,-584.34"/>
</g>
<!-- Node2 -->
<g id="node2" class="node">
<title>Node2</title>
<g id="a_node2"><a xlink:href="../../d4/d47/classSDK_1_1UActorComponent.html" target="_top" xlink:title=" ">
<polygon fill="white" stroke="black" points="291.5,-882.5 291.5,-1082.5 442.5,-1082.5 442.5,-882.5 291.5,-882.5"/>
<text text-anchor="middle" x="367" y="-1070.5" font-family="Helvetica,sans-Serif" font-size="10.00">SDK::UActorComponent</text>
<polyline fill="none" stroke="black" points="291.5,-1063.5 442.5,-1063.5 "/>
<text text-anchor="start" x="299.5" y="-1051.5" font-family="Helvetica,sans-Serif" font-size="10.00">+ Scene</text>
<text text-anchor="start" x="299.5" y="-1040.5" font-family="Helvetica,sans-Serif" font-size="10.00">+ Owner</text>
<text text-anchor="start" x="299.5" y="-1029.5" font-family="Helvetica,sans-Serif" font-size="10.00">+ bAttached</text>
<text text-anchor="start" x="299.5" y="-1018.5" font-family="Helvetica,sans-Serif" font-size="10.00">+ bTickInEditor</text>
<text text-anchor="start" x="299.5" y="-1007.5" font-family="Helvetica,sans-Serif" font-size="10.00">+ bNeedsReattach</text>
<text text-anchor="start" x="299.5" y="-996.5" font-family="Helvetica,sans-Serif" font-size="10.00">+ bNeedsUpdateTransform</text>
<text text-anchor="start" x="299.5" y="-985.5" font-family="Helvetica,sans-Serif" font-size="10.00">+ bAttachedToSkelComponent</text>
<text text-anchor="start" x="299.5" y="-974.5" font-family="Helvetica,sans-Serif" font-size="10.00">+ TickGroup</text>
<text text-anchor="start" x="299.5" y="-963.5" font-family="Helvetica,sans-Serif" font-size="10.00">+ UnknownData00</text>
<text text-anchor="start" x="299.5" y="-952.5" font-family="Helvetica,sans-Serif" font-size="10.00">+ AccumTickDeltaseconds</text>
<polyline fill="none" stroke="black" points="291.5,-945.5 442.5,-945.5 "/>
<text text-anchor="start" x="299.5" y="-933.5" font-family="Helvetica,sans-Serif" font-size="10.00">+ DetachFromAny()</text>
<text text-anchor="start" x="299.5" y="-922.5" font-family="Helvetica,sans-Serif" font-size="10.00">+ ForceUpdate()</text>
<text text-anchor="start" x="299.5" y="-911.5" font-family="Helvetica,sans-Serif" font-size="10.00">+ SetComponentRBFixed()</text>
<text text-anchor="start" x="299.5" y="-900.5" font-family="Helvetica,sans-Serif" font-size="10.00">+ SetTickGroup()</text>
<text text-anchor="start" x="299.5" y="-889.5" font-family="Helvetica,sans-Serif" font-size="10.00">+ StaticClass()</text>
</a>
</g>
</g>
<!-- Node2&#45;&gt;Node1 -->
<g id="edge1" class="edge">
<title>Node2&#45;&gt;Node1</title>
<path fill="none" stroke="midnightblue" d="M367,-872.04C367,-863.4 367,-854.57 367,-845.7"/>
<polygon fill="none" stroke="midnightblue" points="363.5,-872.1 367,-882.1 370.5,-872.1 363.5,-872.1"/>
</g>
<!-- Node3 -->
<g id="node3" class="node">
<title>Node3</title>
<g id="a_node3"><a xlink:href="../../dc/d28/classSDK_1_1UComponent.html" target="_top" xlink:title=" ">
<polygon fill="white" stroke="black" points="307,-1119.5 307,-1187.5 427,-1187.5 427,-1119.5 307,-1119.5"/>
<text text-anchor="middle" x="367" y="-1175.5" font-family="Helvetica,sans-Serif" font-size="10.00">SDK::UComponent</text>
<polyline fill="none" stroke="black" points="307,-1168.5 427,-1168.5 "/>
<text text-anchor="start" x="315" y="-1156.5" font-family="Helvetica,sans-Serif" font-size="10.00">+ TemplateOwnerClass</text>
<text text-anchor="start" x="315" y="-1145.5" font-family="Helvetica,sans-Serif" font-size="10.00">+ TemplateName</text>
<polyline fill="none" stroke="black" points="307,-1138.5 427,-1138.5 "/>
<text text-anchor="start" x="315" y="-1126.5" font-family="Helvetica,sans-Serif" font-size="10.00">+ StaticClass()</text>
</a>
</g>
</g>
<!-- Node3&#45;&gt;Node2 -->
<g id="edge2" class="edge">
<title>Node3&#45;&gt;Node2</title>
<path fill="none" stroke="midnightblue" d="M367,-1109.08C367,-1100.84 367,-1091.92 367,-1082.76"/>
<polygon fill="none" stroke="midnightblue" points="363.5,-1109.11 367,-1119.11 370.5,-1109.11 363.5,-1109.11"/>
</g>
<!-- Node4 -->
<g id="node4" class="node">
<title>Node4</title>
<g id="a_node4"><a xlink:href="../../d9/d45/classSDK_1_1UObject.html" target="_top" xlink:title=" ">
<polygon fill="white" stroke="black" points="268,-1224.5 268,-1578.5 466,-1578.5 466,-1224.5 268,-1224.5"/>
<text text-anchor="middle" x="367" y="-1566.5" font-family="Helvetica,sans-Serif" font-size="10.00">SDK::UObject</text>
<polyline fill="none" stroke="black" points="268,-1559.5 466,-1559.5 "/>
<text text-anchor="start" x="276" y="-1547.5" font-family="Helvetica,sans-Serif" font-size="10.00">+ VfTableObject</text>
<text text-anchor="start" x="276" y="-1536.5" font-family="Helvetica,sans-Serif" font-size="10.00">+ ObjectFlags</text>
<text text-anchor="start" x="276" y="-1525.5" font-family="Helvetica,sans-Serif" font-size="10.00">+ StateFrame</text>
<text text-anchor="start" x="276" y="-1514.5" font-family="Helvetica,sans-Serif" font-size="10.00">+ Linker</text>
<text text-anchor="start" x="276" y="-1503.5" font-family="Helvetica,sans-Serif" font-size="10.00">+ LinkerIndex</text>
<text text-anchor="start" x="276" y="-1492.5" font-family="Helvetica,sans-Serif" font-size="10.00">+ ObjectInternalInteger</text>
<text text-anchor="start" x="276" y="-1481.5" font-family="Helvetica,sans-Serif" font-size="10.00">+ NetIndex</text>
<text text-anchor="start" x="276" y="-1470.5" font-family="Helvetica,sans-Serif" font-size="10.00">+ Outer</text>
<text text-anchor="start" x="276" y="-1459.5" font-family="Helvetica,sans-Serif" font-size="10.00">+ Name</text>
<text text-anchor="start" x="276" y="-1448.5" font-family="Helvetica,sans-Serif" font-size="10.00">+ Class</text>
<text text-anchor="start" x="276" y="-1437.5" font-family="Helvetica,sans-Serif" font-size="10.00">+ ObjectArchetype</text>
<text text-anchor="start" x="276" y="-1426.5" font-family="Helvetica,sans-Serif" font-size="10.00">+ GObjects</text>
<polyline fill="none" stroke="black" points="268,-1419.5 466,-1419.5 "/>
<text text-anchor="start" x="276" y="-1407.5" font-family="Helvetica,sans-Serif" font-size="10.00">+ UObject::GetName()</text>
<text text-anchor="start" x="276" y="-1396.5" font-family="Helvetica,sans-Serif" font-size="10.00">+ GetFullName()</text>
<text text-anchor="start" x="276" y="-1385.5" font-family="Helvetica,sans-Serif" font-size="10.00">+ IsA()</text>
<text text-anchor="start" x="276" y="-1374.5" font-family="Helvetica,sans-Serif" font-size="10.00">+ ProcessEvent()</text>
<text text-anchor="start" x="276" y="-1363.5" font-family="Helvetica,sans-Serif" font-size="10.00">+ STATIC_ProfNodeEvent()</text>
<text text-anchor="start" x="276" y="-1352.5" font-family="Helvetica,sans-Serif" font-size="10.00">+ STATIC_ProfNodeSetDepthThreshold()</text>
<text text-anchor="start" x="276" y="-1341.5" font-family="Helvetica,sans-Serif" font-size="10.00">+ STATIC_ProfNodeSetTimeThreshold</text>
<text text-anchor="start" x="276" y="-1330.5" font-family="Helvetica,sans-Serif" font-size="10.00">Seconds()</text>
<text text-anchor="start" x="276" y="-1319.5" font-family="Helvetica,sans-Serif" font-size="10.00">+ STATIC_ProfNodeStop()</text>
<text text-anchor="start" x="276" y="-1308.5" font-family="Helvetica,sans-Serif" font-size="10.00">+ STATIC_ProfNodeStart()</text>
<text text-anchor="start" x="276" y="-1297.5" font-family="Helvetica,sans-Serif" font-size="10.00">+ STATIC_GetStringFromGuid()</text>
<text text-anchor="start" x="276" y="-1286.5" font-family="Helvetica,sans-Serif" font-size="10.00">and 298 more...</text>
<text text-anchor="start" x="276" y="-1275.5" font-family="Helvetica,sans-Serif" font-size="10.00">+ GetGlobalObjects()</text>
<text text-anchor="start" x="276" y="-1264.5" font-family="Helvetica,sans-Serif" font-size="10.00">+ FindObject()</text>
<text text-anchor="start" x="276" y="-1253.5" font-family="Helvetica,sans-Serif" font-size="10.00">+ FindClass()</text>
<text text-anchor="start" x="276" y="-1242.5" font-family="Helvetica,sans-Serif" font-size="10.00">+ GetObjectCasted()</text>
<text text-anchor="start" x="276" y="-1231.5" font-family="Helvetica,sans-Serif" font-size="10.00">+ StaticClass()</text>
</a>
</g>
</g>
<!-- Node4&#45;&gt;Node3 -->
<g id="edge3" class="edge">
<title>Node4&#45;&gt;Node3</title>
<path fill="none" stroke="midnightblue" d="M367,-1214.08C367,-1204.47 367,-1195.57 367,-1187.74"/>
<polygon fill="none" stroke="midnightblue" points="363.5,-1214.34 367,-1224.34 370.5,-1214.34 363.5,-1214.34"/>
</g>
<!-- Node6 -->
<g id="node6" class="node">
<title>Node6</title>
<g id="a_node6"><a xlink:href="../../d1/d1f/classSDK_1_1UDominantDirectionalLightComponent.html" target="_top" xlink:title=" ">
<polygon fill="white" stroke="black" points="21.5,-138.5 21.5,-217.5 164.5,-217.5 164.5,-138.5 21.5,-138.5"/>
<text text-anchor="start" x="29.5" y="-205.5" font-family="Helvetica,sans-Serif" font-size="10.00">SDK::UDominantDirectional</text>
<text text-anchor="middle" x="93" y="-194.5" font-family="Helvetica,sans-Serif" font-size="10.00">LightComponent</text>
<polyline fill="none" stroke="black" points="21.5,-187.5 164.5,-187.5 "/>
<text text-anchor="start" x="29.5" y="-175.5" font-family="Helvetica,sans-Serif" font-size="10.00">+ DominantLightShadowInfo</text>
<text text-anchor="start" x="29.5" y="-164.5" font-family="Helvetica,sans-Serif" font-size="10.00">+ DominantLightShadowMap</text>
<polyline fill="none" stroke="black" points="21.5,-157.5 164.5,-157.5 "/>
<text text-anchor="start" x="29.5" y="-145.5" font-family="Helvetica,sans-Serif" font-size="10.00">+ StaticClass()</text>
</a>
</g>
</g>
<!-- Node5&#45;&gt;Node6 -->
<g id="edge5" class="edge">
<title>Node5&#45;&gt;Node6</title>
<path fill="none" stroke="midnightblue" d="M93,-310.21C93,-278.78 93,-243.72 93,-217.75"/>
<polygon fill="none" stroke="midnightblue" points="89.5,-310.28 93,-320.28 96.5,-310.28 89.5,-310.28"/>
</g>
<!-- Node8 -->
<g id="node8" class="node">
<title>Node8</title>
<g id="a_node8"><a xlink:href="../../d0/d95/classSDK_1_1UDominantPointLightComponent.html" target="_top" xlink:title=" ">
<polygon fill="white" stroke="black" points="198.5,-144 198.5,-212 335.5,-212 335.5,-144 198.5,-144"/>
<text text-anchor="start" x="206.5" y="-200" font-family="Helvetica,sans-Serif" font-size="10.00">SDK::UDominantPointLight</text>
<text text-anchor="middle" x="267" y="-189" font-family="Helvetica,sans-Serif" font-size="10.00">Component</text>
<polyline fill="none" stroke="black" points="198.5,-182 335.5,-182 "/>
<text text-anchor="middle" x="267" y="-170" font-family="Helvetica,sans-Serif" font-size="10.00"> </text>
<polyline fill="none" stroke="black" points="198.5,-163 335.5,-163 "/>
<text text-anchor="start" x="206.5" y="-151" font-family="Helvetica,sans-Serif" font-size="10.00">+ StaticClass()</text>
</a>
</g>
</g>
<!-- Node7&#45;&gt;Node8 -->
<g id="edge7" class="edge">
<title>Node7&#45;&gt;Node8</title>
<path fill="none" stroke="midnightblue" d="M273.73,-266.23C272.19,-246.35 270.72,-227.29 269.55,-212.09"/>
<polygon fill="none" stroke="midnightblue" points="270.25,-266.67 274.51,-276.37 277.23,-266.13 270.25,-266.67"/>
</g>
<!-- Node9 -->
<g id="node9" class="node">
<title>Node9</title>
<g id="a_node9"><a xlink:href="../../da/d44/classSDK_1_1USpotLightComponent.html" target="_top" xlink:title=" ">
<polygon fill="white" stroke="black" points="353.5,-116.5 353.5,-239.5 496.5,-239.5 496.5,-116.5 353.5,-116.5"/>
<text text-anchor="middle" x="425" y="-227.5" font-family="Helvetica,sans-Serif" font-size="10.00">SDK::USpotLightComponent</text>
<polyline fill="none" stroke="black" points="353.5,-220.5 496.5,-220.5 "/>
<text text-anchor="start" x="361.5" y="-208.5" font-family="Helvetica,sans-Serif" font-size="10.00">+ InnerConeAngle</text>
<text text-anchor="start" x="361.5" y="-197.5" font-family="Helvetica,sans-Serif" font-size="10.00">+ OuterConeAngle</text>
<text text-anchor="start" x="361.5" y="-186.5" font-family="Helvetica,sans-Serif" font-size="10.00">+ LightShaftConeAngle</text>
<text text-anchor="start" x="361.5" y="-175.5" font-family="Helvetica,sans-Serif" font-size="10.00">+ PreviewInnerCone</text>
<text text-anchor="start" x="361.5" y="-164.5" font-family="Helvetica,sans-Serif" font-size="10.00">+ PreviewOuterCone</text>
<text text-anchor="start" x="361.5" y="-153.5" font-family="Helvetica,sans-Serif" font-size="10.00">+ Rotation</text>
<polyline fill="none" stroke="black" points="353.5,-146.5 496.5,-146.5 "/>
<text text-anchor="start" x="361.5" y="-134.5" font-family="Helvetica,sans-Serif" font-size="10.00">+ SetRotation()</text>
<text text-anchor="start" x="361.5" y="-123.5" font-family="Helvetica,sans-Serif" font-size="10.00">+ StaticClass()</text>
</a>
</g>
</g>
<!-- Node7&#45;&gt;Node9 -->
<g id="edge8" class="edge">
<title>Node7&#45;&gt;Node9</title>
<path fill="none" stroke="midnightblue" d="M364.21,-267.83C370.84,-258.15 377.34,-248.65 383.48,-239.67"/>
<polygon fill="none" stroke="midnightblue" points="361.12,-266.14 358.37,-276.37 366.9,-270.09 361.12,-266.14"/>
</g>
<!-- Node10 -->
<g id="node10" class="node">
<title>Node10</title>
<g id="a_node10"><a xlink:href="../../d4/dde/classSDK_1_1UDominantSpotLightComponent.html" target="_top" xlink:title=" ">
<polygon fill="white" stroke="black" points="332.5,-0.5 332.5,-79.5 517.5,-79.5 517.5,-0.5 332.5,-0.5"/>
<text text-anchor="middle" x="425" y="-67.5" font-family="Helvetica,sans-Serif" font-size="10.00">SDK::UDominantSpotLightComponent</text>
<polyline fill="none" stroke="black" points="332.5,-60.5 517.5,-60.5 "/>
<text text-anchor="start" x="340.5" y="-48.5" font-family="Helvetica,sans-Serif" font-size="10.00">+ UnknownData00</text>
<text text-anchor="start" x="340.5" y="-37.5" font-family="Helvetica,sans-Serif" font-size="10.00">+ DominantLightShadowInfo</text>
<text text-anchor="start" x="340.5" y="-26.5" font-family="Helvetica,sans-Serif" font-size="10.00">+ DominantLightShadowMap</text>
<polyline fill="none" stroke="black" points="332.5,-19.5 517.5,-19.5 "/>
<text text-anchor="start" x="340.5" y="-7.5" font-family="Helvetica,sans-Serif" font-size="10.00">+ StaticClass()</text>
</a>
</g>
</g>
<!-- Node9&#45;&gt;Node10 -->
<g id="edge9" class="edge">
<title>Node9&#45;&gt;Node10</title>
<path fill="none" stroke="midnightblue" d="M425,-105.91C425,-96.83 425,-87.82 425,-79.54"/>
<polygon fill="none" stroke="midnightblue" points="421.5,-106.16 425,-116.16 428.5,-106.16 421.5,-106.16"/>
</g>
</g>
</svg>
        <g id="navigator" transform="translate(0 0)" fill="#404254">
                <rect fill="#f2f5e9" fill-opacity="0.5" stroke="#606060" stroke-width=".5" x="0" y="0" width="60" height="60"/>
                <use id="zoomplus" xlink:href="#zoomPlus" x="17" y="9" onmousedown="handleZoom(evt,'in')"/>
                <use id="zoomminus" xlink:href="#zoomMin" x="42" y="9" onmousedown="handleZoom(evt,'out')"/>
                <use id="reset" xlink:href="#resetDef" x="30" y="36" onmousedown="handleReset()"/>
                <g id="arrowUp" xlink:href="#dirArrow" transform="translate(30 24)" onmousedown="handlePan(0,-1)">
                  <use xlink:href="#rim" fill="#404040">
                        <set attributeName="fill" to="#808080" begin="arrowUp.mouseover" end="arrowUp.mouseout"/>
                  </use>
                  <path fill="none" stroke="white" stroke-width="1.5" d="M0,-3.0v7 M-2.5,-0.5L0,-3.0L2.5,-0.5"/>
                </g>
                <g id="arrowRight" xlink:href="#dirArrow" transform="rotate(90) translate(36 -43)" onmousedown="handlePan(1,0)">
                  <use xlink:href="#rim" fill="#404040">
                        <set attributeName="fill" to="#808080" begin="arrowRight.mouseover" end="arrowRight.mouseout"/>
                  </use>
                  <path fill="none" stroke="white" stroke-width="1.5" d="M0,-3.0v7 M-2.5,-0.5L0,-3.0L2.5,-0.5"/>
                </g>
                <g id="arrowDown" xlink:href="#dirArrow" transform="rotate(180) translate(-30 -48)" onmousedown="handlePan(0,1)">
                  <use xlink:href="#rim" fill="#404040">
                        <set attributeName="fill" to="#808080" begin="arrowDown.mouseover" end="arrowDown.mouseout"/>
                  </use>
                  <path fill="none" stroke="white" stroke-width="1.5" d="M0,-3.0v7 M-2.5,-0.5L0,-3.0L2.5,-0.5"/>
                </g>
                <g id="arrowLeft" xlink:href="#dirArrow" transform="rotate(270) translate(-36 17)" onmousedown="handlePan(-1,0)">
                  <use xlink:href="#rim" fill="#404040">
                        <set attributeName="fill" to="#808080" begin="arrowLeft.mouseover" end="arrowLeft.mouseout"/>
                  </use>
                  <path fill="none" stroke="white" stroke-width="1.5" d="M0,-3.0v7 M-2.5,-0.5L0,-3.0L2.5,-0.5"/>
                </g>
        </g>
        <svg viewBox="0 0 15 15" width="100%" height="30px" preserveAspectRatio="xMaxYMin meet">
         <g id="arrow_out" transform="scale(0.3 0.3)">
          <a xlink:href="classSDK_1_1ULightComponent__inherit__graph_org.svg" target="_base">
           <rect id="button" ry="5" rx="5" y="6" x="6" height="38" width="38"
                fill="#f2f5e9" fill-opacity="0.5" stroke="#606060" stroke-width="1.0"/>
           <path id="arrow"
             d="M 11.500037,31.436501 C 11.940474,20.09759 22.043105,11.32322 32.158766,21.979434 L 37.068811,17.246167 C 37.068811,17.246167 37.088388,32 37.088388,32 L 22.160133,31.978069 C 22.160133,31.978069 26.997745,27.140456 26.997745,27.140456 C 18.528582,18.264221 13.291696,25.230495 11.500037,31.436501 z"
             style="fill:#404040;"/>
          </a>
         </g>
        </svg>
</svg>
