<?xml version="1.0" encoding="UTF-8" standalone="no"?>
<!DOCTYPE svg PUBLIC "-//W3C//DTD SVG 1.1//EN"
 "http://www.w3.org/Graphics/SVG/1.1/DTD/svg11.dtd">
<!-- Generated by graphviz version 2.41.20171026.1811 (20171026.1811)
 -->
<!-- Title: SDK::FInputTimingInfo Pages: 1 -->
<!--zoomable 606 -->
<svg id="main" version="1.1" xmlns="http://www.w3.org/2000/svg" xmlns:xlink="http://www.w3.org/1999/xlink" xml:space="preserve" onload="init(evt)">
<style type="text/css"><![CDATA[
.edge:hover path { stroke: red; }
.edge:hover polygon { stroke: red; fill: red; }
]]></style>
<script type="text/javascript"><![CDATA[
var edges = document.getElementsByTagName('g');
if (edges && edges.length) {
  for (var i=0;i<edges.length;i++) {
    if (edges[i].id.substr(0,4)=='edge') {
      edges[i].setAttribute('class','edge');
    }
  }
}
]]></script>
        <defs>
                <circle id="rim" cx="0" cy="0" r="7"/>
                <circle id="rim2" cx="0" cy="0" r="3.5"/>
                <g id="zoomPlus">
                        <use xlink:href="#rim" fill="#404040">
                                <set attributeName="fill" to="#808080" begin="zoomplus.mouseover" end="zoomplus.mouseout"/>
                        </use>
                        <path d="M-4,0h8M0,-4v8" fill="none" stroke="white" stroke-width="1.5" pointer-events="none"/>
                </g>
                <g id="zoomMin">
                        <use xlink:href="#rim" fill="#404040">
                                <set attributeName="fill" to="#808080" begin="zoomminus.mouseover" end="zoomminus.mouseout"/>
                        </use>
                        <path d="M-4,0h8" fill="none" stroke="white" stroke-width="1.5" pointer-events="none"/>
                </g>
                <g id="dirArrow">
                        <path fill="none" stroke="white" stroke-width="1.5" d="M0,-3.0v7 M-2.5,-0.5L0,-3.0L2.5,-0.5"/>
                </g>
               <g id="resetDef">
                       <use xlink:href="#rim2" fill="#404040">
                               <set attributeName="fill" to="#808080" begin="reset.mouseover" end="reset.mouseout"/>
                       </use>
               </g>
        </defs>

<script type="text/javascript">
var viewWidth = 441;
var viewHeight = 606;
var sectionId = 'dynsection-0';
</script>
<script xlink:href="../../svgpan.js"/>
<svg id="graph" class="graph">
<g id="viewport">
<title>SDK::FInputTimingInfo</title>
<polygon fill="white" stroke="transparent" points="-4,4 -4,-602 437,-602 437,4 -4,4"/>
<!-- Node1 -->
<g id="node1" class="node">
<title>Node1</title>
<g id="a_node1"><a xlink:title=" ">
<polygon fill="#bfbfbf" stroke="black" points="160,-0.5 160,-211.5 318,-211.5 318,-0.5 160,-0.5"/>
<text text-anchor="middle" x="239" y="-199.5" font-family="Helvetica,sans-Serif" font-size="10.00">SDK::FInputTimingInfo</text>
<polyline fill="none" stroke="black" points="160,-192.5 318,-192.5 "/>
<text text-anchor="start" x="168" y="-180.5" font-family="Helvetica,sans-Serif" font-size="10.00">+ UnknownData00</text>
<text text-anchor="start" x="168" y="-169.5" font-family="Helvetica,sans-Serif" font-size="10.00">+ bInstant</text>
<text text-anchor="start" x="168" y="-158.5" font-family="Helvetica,sans-Serif" font-size="10.00">+ bOnlyReserveInput</text>
<text text-anchor="start" x="168" y="-147.5" font-family="Helvetica,sans-Serif" font-size="10.00">+ bSyncAnimEnd</text>
<text text-anchor="start" x="168" y="-136.5" font-family="Helvetica,sans-Serif" font-size="10.00">+ bAttackProhibit</text>
<text text-anchor="start" x="168" y="-125.5" font-family="Helvetica,sans-Serif" font-size="10.00">+ bAttackProhibitByRepeatInput</text>
<text text-anchor="start" x="168" y="-114.5" font-family="Helvetica,sans-Serif" font-size="10.00">+ NextStageIndex</text>
<text text-anchor="start" x="168" y="-103.5" font-family="Helvetica,sans-Serif" font-size="10.00">+ bChangeStageServer</text>
<text text-anchor="start" x="168" y="-92.5" font-family="Helvetica,sans-Serif" font-size="10.00">+ bMoveCancelBySkillInput</text>
<text text-anchor="start" x="168" y="-81.5" font-family="Helvetica,sans-Serif" font-size="10.00">+ bSkillCancelBySameSkill</text>
<text text-anchor="start" x="168" y="-70.5" font-family="Helvetica,sans-Serif" font-size="10.00">+ bEnable</text>
<text text-anchor="start" x="168" y="-59.5" font-family="Helvetica,sans-Serif" font-size="10.00">+ bActivating</text>
<text text-anchor="start" x="168" y="-48.5" font-family="Helvetica,sans-Serif" font-size="10.00">+ bStartActivating</text>
<text text-anchor="start" x="168" y="-37.5" font-family="Helvetica,sans-Serif" font-size="10.00">+ bDelayActivating</text>
<text text-anchor="start" x="168" y="-26.5" font-family="Helvetica,sans-Serif" font-size="10.00">+ PerfectZoneNextStageIndex</text>
<polyline fill="none" stroke="black" points="160,-19.5 318,-19.5 "/>
<text text-anchor="middle" x="239" y="-7.5" font-family="Helvetica,sans-Serif" font-size="10.00"> </text>
</a>
</g>
</g>
<!-- Node2 -->
<g id="node2" class="node">
<title>Node2</title>
<g id="a_node2"><a xlink:href="../../df/d1c/classSDK_1_1TEnumAsByte.html" target="_top" xlink:title=" ">
<polygon fill="white" stroke="black" points="0,-270.5 0,-393.5 146,-393.5 146,-270.5 0,-270.5"/>
<text text-anchor="start" x="8" y="-381.5" font-family="Helvetica,sans-Serif" font-size="10.00">SDK::TEnumAsByte&lt; EInput</text>
<text text-anchor="middle" x="73" y="-370.5" font-family="Helvetica,sans-Serif" font-size="10.00">EventType &gt;</text>
<polyline fill="none" stroke="black" points="0,-363.5 146,-363.5 "/>
<text text-anchor="start" x="8" y="-351.5" font-family="Helvetica,sans-Serif" font-size="10.00">&#45; value</text>
<polyline fill="none" stroke="black" points="0,-344.5 146,-344.5 "/>
<text text-anchor="start" x="8" y="-332.5" font-family="Helvetica,sans-Serif" font-size="10.00">+ TEnumAsByte()</text>
<text text-anchor="start" x="8" y="-321.5" font-family="Helvetica,sans-Serif" font-size="10.00">+ TEnumAsByte()</text>
<text text-anchor="start" x="8" y="-310.5" font-family="Helvetica,sans-Serif" font-size="10.00">+ TEnumAsByte()</text>
<text text-anchor="start" x="8" y="-299.5" font-family="Helvetica,sans-Serif" font-size="10.00">+ TEnumAsByte()</text>
<text text-anchor="start" x="8" y="-288.5" font-family="Helvetica,sans-Serif" font-size="10.00">+ operator EInputEventType()</text>
<text text-anchor="start" x="8" y="-277.5" font-family="Helvetica,sans-Serif" font-size="10.00">+ GetValue()</text>
</a>
</g>
</g>
<!-- Node2&#45;&gt;Node1 -->
<g id="edge1" class="edge">
<title>Node2&#45;&gt;Node1</title>
<path fill="none" stroke="#404040" d="M117.92,-270.38C129.16,-255.22 141.59,-238.45 154.07,-221.6"/>
<polygon fill="none" stroke="#404040" points="154.27,-221.33 154.63,-214.13 161.42,-211.69 161.06,-218.89 154.27,-221.33"/>
<text text-anchor="middle" x="175.5" y="-233" font-family="Helvetica,sans-Serif" font-size="10.00"> +InputEvent</text>
</g>
<!-- Node3 -->
<g id="node3" class="node">
<title>Node3</title>
<g id="a_node3"><a xlink:href="../../df/d1c/classSDK_1_1TEnumAsByte.html" target="_top" xlink:title=" ">
<polygon fill="white" stroke="black" points="99.5,-469 99.5,-581 256.5,-581 256.5,-469 99.5,-469"/>
<text text-anchor="middle" x="178" y="-569" font-family="Helvetica,sans-Serif" font-size="10.00">SDK::TEnumAsByte&lt; TEnum &gt;</text>
<polyline fill="none" stroke="black" points="99.5,-562 256.5,-562 "/>
<text text-anchor="start" x="107.5" y="-550" font-family="Helvetica,sans-Serif" font-size="10.00">&#45; value</text>
<polyline fill="none" stroke="black" points="99.5,-543 256.5,-543 "/>
<text text-anchor="start" x="107.5" y="-531" font-family="Helvetica,sans-Serif" font-size="10.00">+ TEnumAsByte()</text>
<text text-anchor="start" x="107.5" y="-520" font-family="Helvetica,sans-Serif" font-size="10.00">+ TEnumAsByte()</text>
<text text-anchor="start" x="107.5" y="-509" font-family="Helvetica,sans-Serif" font-size="10.00">+ TEnumAsByte()</text>
<text text-anchor="start" x="107.5" y="-498" font-family="Helvetica,sans-Serif" font-size="10.00">+ TEnumAsByte()</text>
<text text-anchor="start" x="107.5" y="-487" font-family="Helvetica,sans-Serif" font-size="10.00">+ operator TEnum()</text>
<text text-anchor="start" x="107.5" y="-476" font-family="Helvetica,sans-Serif" font-size="10.00">+ GetValue()</text>
</a>
</g>
</g>
<!-- Node3&#45;&gt;Node2 -->
<g id="edge2" class="edge">
<title>Node3&#45;&gt;Node2</title>
<path fill="none" stroke="orange" d="M124.68,-460.63C118.61,-451.97 112.87,-442.96 108,-434 101.18,-421.44 95.3,-407.3 90.41,-393.66"/>
<polygon fill="orange" stroke="orange" points="121.9,-462.75 130.58,-468.82 127.57,-458.66 121.9,-462.75"/>
<text text-anchor="middle" x="156.5" y="-426" font-family="Helvetica,sans-Serif" font-size="10.00"> &lt; EInputEventType &gt;</text>
</g>
<!-- Node6 -->
<g id="node6" class="node">
<title>Node6</title>
<g id="a_node6"><a xlink:href="../../df/d1c/classSDK_1_1TEnumAsByte.html" target="_top" xlink:title=" ">
<polygon fill="white" stroke="black" points="164.5,-270.5 164.5,-393.5 313.5,-393.5 313.5,-270.5 164.5,-270.5"/>
<text text-anchor="start" x="172.5" y="-381.5" font-family="Helvetica,sans-Serif" font-size="10.00">SDK::TEnumAsByte&lt; EInput</text>
<text text-anchor="middle" x="239" y="-370.5" font-family="Helvetica,sans-Serif" font-size="10.00">TimingType &gt;</text>
<polyline fill="none" stroke="black" points="164.5,-363.5 313.5,-363.5 "/>
<text text-anchor="start" x="172.5" y="-351.5" font-family="Helvetica,sans-Serif" font-size="10.00">&#45; value</text>
<polyline fill="none" stroke="black" points="164.5,-344.5 313.5,-344.5 "/>
<text text-anchor="start" x="172.5" y="-332.5" font-family="Helvetica,sans-Serif" font-size="10.00">+ TEnumAsByte()</text>
<text text-anchor="start" x="172.5" y="-321.5" font-family="Helvetica,sans-Serif" font-size="10.00">+ TEnumAsByte()</text>
<text text-anchor="start" x="172.5" y="-310.5" font-family="Helvetica,sans-Serif" font-size="10.00">+ TEnumAsByte()</text>
<text text-anchor="start" x="172.5" y="-299.5" font-family="Helvetica,sans-Serif" font-size="10.00">+ TEnumAsByte()</text>
<text text-anchor="start" x="172.5" y="-288.5" font-family="Helvetica,sans-Serif" font-size="10.00">+ operator EInputTimingType()</text>
<text text-anchor="start" x="172.5" y="-277.5" font-family="Helvetica,sans-Serif" font-size="10.00">+ GetValue()</text>
</a>
</g>
</g>
<!-- Node3&#45;&gt;Node6 -->
<g id="edge6" class="edge">
<title>Node3&#45;&gt;Node6</title>
<path fill="none" stroke="orange" d="M198.69,-459.21C205.45,-438.06 212.92,-414.66 219.58,-393.81"/>
<polygon fill="orange" stroke="orange" points="195.35,-458.16 195.64,-468.75 202.02,-460.29 195.35,-458.16"/>
<text text-anchor="middle" x="259.5" y="-426" font-family="Helvetica,sans-Serif" font-size="10.00"> &lt; EInputTimingType &gt;</text>
</g>
<!-- Node4 -->
<g id="node4" class="node">
<title>Node4</title>
<g id="a_node4"><a xlink:href="../../d3/d79/classSDK_1_1TArray.html" target="_top" xlink:title=" ">
<polygon fill="white" stroke="black" points="331.5,-259.5 331.5,-404.5 432.5,-404.5 432.5,-259.5 331.5,-259.5"/>
<text text-anchor="middle" x="382" y="-392.5" font-family="Helvetica,sans-Serif" font-size="10.00">SDK::TArray&lt; int &gt;</text>
<polyline fill="none" stroke="black" points="331.5,-385.5 432.5,-385.5 "/>
<text text-anchor="start" x="339.5" y="-373.5" font-family="Helvetica,sans-Serif" font-size="10.00">&#45; Data</text>
<text text-anchor="start" x="339.5" y="-362.5" font-family="Helvetica,sans-Serif" font-size="10.00">&#45; Count</text>
<text text-anchor="start" x="339.5" y="-351.5" font-family="Helvetica,sans-Serif" font-size="10.00">&#45; Max</text>
<polyline fill="none" stroke="black" points="331.5,-344.5 432.5,-344.5 "/>
<text text-anchor="start" x="339.5" y="-332.5" font-family="Helvetica,sans-Serif" font-size="10.00">+ TArray()</text>
<text text-anchor="start" x="339.5" y="-321.5" font-family="Helvetica,sans-Serif" font-size="10.00">+ Num()</text>
<text text-anchor="start" x="339.5" y="-310.5" font-family="Helvetica,sans-Serif" font-size="10.00">+ operator[]()</text>
<text text-anchor="start" x="339.5" y="-299.5" font-family="Helvetica,sans-Serif" font-size="10.00">+ operator[]()</text>
<text text-anchor="start" x="339.5" y="-288.5" font-family="Helvetica,sans-Serif" font-size="10.00">+ IsValidIndex()</text>
<text text-anchor="start" x="339.5" y="-277.5" font-family="Helvetica,sans-Serif" font-size="10.00">+ GetByIndex()</text>
<text text-anchor="start" x="339.5" y="-266.5" font-family="Helvetica,sans-Serif" font-size="10.00">+ GetByIndex()</text>
</a>
</g>
</g>
<!-- Node4&#45;&gt;Node1 -->
<g id="edge3" class="edge">
<title>Node4&#45;&gt;Node1</title>
<path fill="none" stroke="#404040" d="M336.16,-259.2C328.56,-247.29 320.5,-234.67 312.42,-222"/>
<polygon fill="none" stroke="#404040" points="312.39,-221.96 305.79,-219.06 305.93,-211.85 312.53,-214.75 312.39,-221.96"/>
<text text-anchor="middle" x="378.5" y="-233" font-family="Helvetica,sans-Serif" font-size="10.00"> +SkillCancelSkillIdArray</text>
</g>
<!-- Node5 -->
<g id="node5" class="node">
<title>Node5</title>
<g id="a_node5"><a xlink:href="../../d3/d79/classSDK_1_1TArray.html" target="_top" xlink:title=" ">
<polygon fill="white" stroke="black" points="333.5,-452.5 333.5,-597.5 430.5,-597.5 430.5,-452.5 333.5,-452.5"/>
<text text-anchor="middle" x="382" y="-585.5" font-family="Helvetica,sans-Serif" font-size="10.00">SDK::TArray&lt; T &gt;</text>
<polyline fill="none" stroke="black" points="333.5,-578.5 430.5,-578.5 "/>
<text text-anchor="start" x="341.5" y="-566.5" font-family="Helvetica,sans-Serif" font-size="10.00">&#45; Data</text>
<text text-anchor="start" x="341.5" y="-555.5" font-family="Helvetica,sans-Serif" font-size="10.00">&#45; Count</text>
<text text-anchor="start" x="341.5" y="-544.5" font-family="Helvetica,sans-Serif" font-size="10.00">&#45; Max</text>
<polyline fill="none" stroke="black" points="333.5,-537.5 430.5,-537.5 "/>
<text text-anchor="start" x="341.5" y="-525.5" font-family="Helvetica,sans-Serif" font-size="10.00">+ TArray()</text>
<text text-anchor="start" x="341.5" y="-514.5" font-family="Helvetica,sans-Serif" font-size="10.00">+ Num()</text>
<text text-anchor="start" x="341.5" y="-503.5" font-family="Helvetica,sans-Serif" font-size="10.00">+ operator[]()</text>
<text text-anchor="start" x="341.5" y="-492.5" font-family="Helvetica,sans-Serif" font-size="10.00">+ operator[]()</text>
<text text-anchor="start" x="341.5" y="-481.5" font-family="Helvetica,sans-Serif" font-size="10.00">+ IsValidIndex()</text>
<text text-anchor="start" x="341.5" y="-470.5" font-family="Helvetica,sans-Serif" font-size="10.00">+ GetByIndex()</text>
<text text-anchor="start" x="341.5" y="-459.5" font-family="Helvetica,sans-Serif" font-size="10.00">+ GetByIndex()</text>
</a>
</g>
</g>
<!-- Node5&#45;&gt;Node4 -->
<g id="edge4" class="edge">
<title>Node5&#45;&gt;Node4</title>
<path fill="none" stroke="orange" d="M382,-442.01C382,-429.62 382,-416.91 382,-404.75"/>
<polygon fill="orange" stroke="orange" points="378.5,-442.34 382,-452.34 385.5,-442.34 378.5,-442.34"/>
<text text-anchor="middle" x="398" y="-426" font-family="Helvetica,sans-Serif" font-size="10.00"> &lt; int &gt;</text>
</g>
<!-- Node6&#45;&gt;Node1 -->
<g id="edge5" class="edge">
<title>Node6&#45;&gt;Node1</title>
<path fill="none" stroke="#404040" d="M239,-270.38C239,-255.93 239,-240.01 239,-223.97"/>
<polygon fill="none" stroke="#404040" points="239,-223.69 235,-217.69 239,-211.69 243,-217.69 239,-223.69"/>
<text text-anchor="middle" x="265.5" y="-233" font-family="Helvetica,sans-Serif" font-size="10.00"> +InputType</text>
</g>
</g>
</svg>
        <g id="navigator" transform="translate(0 0)" fill="#404254">
                <rect fill="#f2f5e9" fill-opacity="0.5" stroke="#606060" stroke-width=".5" x="0" y="0" width="60" height="60"/>
                <use id="zoomplus" xlink:href="#zoomPlus" x="17" y="9" onmousedown="handleZoom(evt,'in')"/>
                <use id="zoomminus" xlink:href="#zoomMin" x="42" y="9" onmousedown="handleZoom(evt,'out')"/>
                <use id="reset" xlink:href="#resetDef" x="30" y="36" onmousedown="handleReset()"/>
                <g id="arrowUp" xlink:href="#dirArrow" transform="translate(30 24)" onmousedown="handlePan(0,-1)">
                  <use xlink:href="#rim" fill="#404040">
                        <set attributeName="fill" to="#808080" begin="arrowUp.mouseover" end="arrowUp.mouseout"/>
                  </use>
                  <path fill="none" stroke="white" stroke-width="1.5" d="M0,-3.0v7 M-2.5,-0.5L0,-3.0L2.5,-0.5"/>
                </g>
                <g id="arrowRight" xlink:href="#dirArrow" transform="rotate(90) translate(36 -43)" onmousedown="handlePan(1,0)">
                  <use xlink:href="#rim" fill="#404040">
                        <set attributeName="fill" to="#808080" begin="arrowRight.mouseover" end="arrowRight.mouseout"/>
                  </use>
                  <path fill="none" stroke="white" stroke-width="1.5" d="M0,-3.0v7 M-2.5,-0.5L0,-3.0L2.5,-0.5"/>
                </g>
                <g id="arrowDown" xlink:href="#dirArrow" transform="rotate(180) translate(-30 -48)" onmousedown="handlePan(0,1)">
                  <use xlink:href="#rim" fill="#404040">
                        <set attributeName="fill" to="#808080" begin="arrowDown.mouseover" end="arrowDown.mouseout"/>
                  </use>
                  <path fill="none" stroke="white" stroke-width="1.5" d="M0,-3.0v7 M-2.5,-0.5L0,-3.0L2.5,-0.5"/>
                </g>
                <g id="arrowLeft" xlink:href="#dirArrow" transform="rotate(270) translate(-36 17)" onmousedown="handlePan(-1,0)">
                  <use xlink:href="#rim" fill="#404040">
                        <set attributeName="fill" to="#808080" begin="arrowLeft.mouseover" end="arrowLeft.mouseout"/>
                  </use>
                  <path fill="none" stroke="white" stroke-width="1.5" d="M0,-3.0v7 M-2.5,-0.5L0,-3.0L2.5,-0.5"/>
                </g>
        </g>
        <svg viewBox="0 0 15 15" width="100%" height="30px" preserveAspectRatio="xMaxYMin meet">
         <g id="arrow_out" transform="scale(0.3 0.3)">
          <a xlink:href="structSDK_1_1FInputTimingInfo__coll__graph_org.svg" target="_base">
           <rect id="button" ry="5" rx="5" y="6" x="6" height="38" width="38"
                fill="#f2f5e9" fill-opacity="0.5" stroke="#606060" stroke-width="1.0"/>
           <path id="arrow"
             d="M 11.500037,31.436501 C 11.940474,20.09759 22.043105,11.32322 32.158766,21.979434 L 37.068811,17.246167 C 37.068811,17.246167 37.088388,32 37.088388,32 L 22.160133,31.978069 C 22.160133,31.978069 26.997745,27.140456 26.997745,27.140456 C 18.528582,18.264221 13.291696,25.230495 11.500037,31.436501 z"
             style="fill:#404040;"/>
          </a>
         </g>
        </svg>
</svg>
