<?xml version="1.0" encoding="UTF-8" standalone="no"?>
<!DOCTYPE svg PUBLIC "-//W3C//DTD SVG 1.1//EN"
 "http://www.w3.org/Graphics/SVG/1.1/DTD/svg11.dtd">
<!-- Generated by graphviz version 2.41.20171026.1811 (20171026.1811)
 -->
<!-- Title: SDK::FCutomizingZoomStepInfo Pages: 1 -->
<svg width="181pt" height="215pt"
 viewBox="0.00 0.00 180.50 215.00" xmlns="http://www.w3.org/2000/svg" xmlns:xlink="http://www.w3.org/1999/xlink">
<g id="graph0" class="graph" transform="scale(1 1) rotate(0) translate(4 211)">
<title>SDK::FCutomizingZoomStepInfo</title>
<polygon fill="white" stroke="transparent" points="-4,4 -4,-211 176.5,-211 176.5,4 -4,4"/>
<!-- Node1 -->
<g id="node1" class="node">
<title>Node1</title>
<g id="a_node1"><a xlink:title=" ">
<polygon fill="#bfbfbf" stroke="black" points="0,-0.5 0,-79.5 161,-79.5 161,-0.5 0,-0.5"/>
<text text-anchor="middle" x="80.5" y="-67.5" font-family="Helvetica,sans-Serif" font-size="10.00">SDK::FCutomizingZoomStepInfo</text>
<polyline fill="none" stroke="black" points="0,-60.5 161,-60.5 "/>
<text text-anchor="start" x="8" y="-48.5" font-family="Helvetica,sans-Serif" font-size="10.00">+ FOV</text>
<text text-anchor="start" x="8" y="-37.5" font-family="Helvetica,sans-Serif" font-size="10.00">+ ZoomDist</text>
<text text-anchor="start" x="8" y="-26.5" font-family="Helvetica,sans-Serif" font-size="10.00">+ Pitch</text>
<polyline fill="none" stroke="black" points="0,-19.5 161,-19.5 "/>
<text text-anchor="middle" x="80.5" y="-7.5" font-family="Helvetica,sans-Serif" font-size="10.00"> </text>
</a>
</g>
</g>
<!-- Node2 -->
<g id="node2" class="node">
<title>Node2</title>
<g id="a_node2"><a xlink:href="../../dd/d43/structSDK_1_1FVector.html" target="_top" xlink:title=" ">
<polygon fill="white" stroke="black" points="41.5,-127.5 41.5,-206.5 119.5,-206.5 119.5,-127.5 41.5,-127.5"/>
<text text-anchor="middle" x="80.5" y="-194.5" font-family="Helvetica,sans-Serif" font-size="10.00">SDK::FVector</text>
<polyline fill="none" stroke="black" points="41.5,-187.5 119.5,-187.5 "/>
<text text-anchor="start" x="49.5" y="-175.5" font-family="Helvetica,sans-Serif" font-size="10.00">+ X</text>
<text text-anchor="start" x="49.5" y="-164.5" font-family="Helvetica,sans-Serif" font-size="10.00">+ Y</text>
<text text-anchor="start" x="49.5" y="-153.5" font-family="Helvetica,sans-Serif" font-size="10.00">+ Z</text>
<polyline fill="none" stroke="black" points="41.5,-146.5 119.5,-146.5 "/>
<text text-anchor="middle" x="80.5" y="-134.5" font-family="Helvetica,sans-Serif" font-size="10.00"> </text>
</a>
</g>
</g>
<!-- Node2&#45;&gt;Node1 -->
<g id="edge1" class="edge">
<title>Node2&#45;&gt;Node1</title>
<path fill="none" stroke="#404040" d="M80.5,-127.48C80.5,-116.19 80.5,-103.67 80.5,-91.75"/>
<polygon fill="none" stroke="#404040" points="80.5,-91.61 76.5,-85.61 80.5,-79.61 84.5,-85.61 80.5,-91.61"/>
<text text-anchor="middle" x="126.5" y="-101" font-family="Helvetica,sans-Serif" font-size="10.00"> +RelativeCenterPos</text>
</g>
</g>
</svg>
