<?xml version="1.0" encoding="UTF-8" standalone="no"?>
<!DOCTYPE svg PUBLIC "-//W3C//DTD SVG 1.1//EN"
 "http://www.w3.org/Graphics/SVG/1.1/DTD/svg11.dtd">
<!-- Generated by graphviz version 2.41.20171026.1811 (20171026.1811)
 -->
<!-- Title: SDK::UNavMeshPathGoalEvaluator Pages: 1 -->
<svg width="1434pt" height="760pt"
 viewBox="0.00 0.00 1434.00 760.00" xmlns="http://www.w3.org/2000/svg" xmlns:xlink="http://www.w3.org/1999/xlink">
<g id="graph0" class="graph" transform="scale(1 1) rotate(0) translate(4 756)">
<title>SDK::UNavMeshPathGoalEvaluator</title>
<polygon fill="white" stroke="transparent" points="-4,4 -4,-756 1430,-756 1430,4 -4,4"/>
<!-- Node1 -->
<g id="node1" class="node">
<title>Node1</title>
<g id="a_node1"><a xlink:title=" ">
<polygon fill="#bfbfbf" stroke="black" points="578,-215.5 578,-360.5 753,-360.5 753,-215.5 578,-215.5"/>
<text text-anchor="middle" x="665.5" y="-348.5" font-family="Helvetica,sans-Serif" font-size="10.00">SDK::UNavMeshPathGoalEvaluator</text>
<polyline fill="none" stroke="black" points="578,-341.5 753,-341.5 "/>
<text text-anchor="start" x="586" y="-329.5" font-family="Helvetica,sans-Serif" font-size="10.00">+ NextEvaluator</text>
<text text-anchor="start" x="586" y="-318.5" font-family="Helvetica,sans-Serif" font-size="10.00">+ MaxPathVisits</text>
<text text-anchor="start" x="586" y="-307.5" font-family="Helvetica,sans-Serif" font-size="10.00">+ bAlwaysCallEvaluateGoal</text>
<text text-anchor="start" x="586" y="-296.5" font-family="Helvetica,sans-Serif" font-size="10.00">+ bDoPartialAStar</text>
<text text-anchor="start" x="586" y="-285.5" font-family="Helvetica,sans-Serif" font-size="10.00">+ NumNodesThrownOut</text>
<text text-anchor="start" x="586" y="-274.5" font-family="Helvetica,sans-Serif" font-size="10.00">+ NumNodesProcessed</text>
<text text-anchor="start" x="586" y="-263.5" font-family="Helvetica,sans-Serif" font-size="10.00">+ MaxOpenListSize</text>
<polyline fill="none" stroke="black" points="578,-256.5 753,-256.5 "/>
<text text-anchor="start" x="586" y="-244.5" font-family="Helvetica,sans-Serif" font-size="10.00">+ GetDumpString()</text>
<text text-anchor="start" x="586" y="-233.5" font-family="Helvetica,sans-Serif" font-size="10.00">+ Recycle()</text>
<text text-anchor="start" x="586" y="-222.5" font-family="Helvetica,sans-Serif" font-size="10.00">+ StaticClass()</text>
</a>
</g>
</g>
<!-- Node3 -->
<g id="node3" class="node">
<title>Node3</title>
<g id="a_node3"><a xlink:href="../../d7/d82/classSDK_1_1UNavMeshGoal__At.html" target="_top" xlink:title=" ">
<polygon fill="white" stroke="black" points="0,-0.5 0,-178.5 147,-178.5 147,-0.5 0,-0.5"/>
<text text-anchor="middle" x="73.5" y="-166.5" font-family="Helvetica,sans-Serif" font-size="10.00">SDK::UNavMeshGoal_At</text>
<polyline fill="none" stroke="black" points="0,-159.5 147,-159.5 "/>
<text text-anchor="start" x="8" y="-147.5" font-family="Helvetica,sans-Serif" font-size="10.00">+ Goal</text>
<text text-anchor="start" x="8" y="-136.5" font-family="Helvetica,sans-Serif" font-size="10.00">+ GoalDist</text>
<text text-anchor="start" x="8" y="-125.5" font-family="Helvetica,sans-Serif" font-size="10.00">+ bKeepPartial</text>
<text text-anchor="start" x="8" y="-114.5" font-family="Helvetica,sans-Serif" font-size="10.00">+ bWeightPartialByDist</text>
<text text-anchor="start" x="8" y="-103.5" font-family="Helvetica,sans-Serif" font-size="10.00">+ bGoalInSamePolyAsAnchor</text>
<text text-anchor="start" x="8" y="-92.5" font-family="Helvetica,sans-Serif" font-size="10.00">+ PartialDistSq</text>
<text text-anchor="start" x="8" y="-81.5" font-family="Helvetica,sans-Serif" font-size="10.00">+ GoalPoly</text>
<text text-anchor="start" x="8" y="-70.5" font-family="Helvetica,sans-Serif" font-size="10.00">+ PartialGoal</text>
<polyline fill="none" stroke="black" points="0,-63.5 147,-63.5 "/>
<text text-anchor="start" x="8" y="-51.5" font-family="Helvetica,sans-Serif" font-size="10.00">+ Recycle()</text>
<text text-anchor="start" x="8" y="-40.5" font-family="Helvetica,sans-Serif" font-size="10.00">+ STATIC_AtLocation()</text>
<text text-anchor="start" x="8" y="-29.5" font-family="Helvetica,sans-Serif" font-size="10.00">+ STATIC_AtActor()</text>
<text text-anchor="start" x="8" y="-18.5" font-family="Helvetica,sans-Serif" font-size="10.00">+ RecycleNative()</text>
<text text-anchor="start" x="8" y="-7.5" font-family="Helvetica,sans-Serif" font-size="10.00">+ StaticClass()</text>
</a>
</g>
</g>
<!-- Node1&#45;&gt;Node3 -->
<g id="edge2" class="edge">
<title>Node1&#45;&gt;Node3</title>
<path fill="none" stroke="midnightblue" d="M567.83,-283.53C460.62,-275.95 286.48,-252.27 156.5,-179 153.29,-177.19 150.13,-175.21 147.03,-173.1"/>
<polygon fill="none" stroke="midnightblue" points="567.78,-287.03 577.99,-284.21 568.25,-280.05 567.78,-287.03"/>
</g>
<!-- Node4 -->
<g id="node4" class="node">
<title>Node4</title>
<g id="a_node4"><a xlink:href="../../d7/d32/classSDK_1_1UNavMeshGoal__ClosestActorInList.html" target="_top" xlink:title=" ">
<polygon fill="white" stroke="black" points="165.5,-28 165.5,-151 319.5,-151 319.5,-28 165.5,-28"/>
<text text-anchor="start" x="173.5" y="-139" font-family="Helvetica,sans-Serif" font-size="10.00">SDK::UNavMeshGoal_Closest</text>
<text text-anchor="middle" x="242.5" y="-128" font-family="Helvetica,sans-Serif" font-size="10.00">ActorInList</text>
<polyline fill="none" stroke="black" points="165.5,-121 319.5,-121 "/>
<text text-anchor="start" x="173.5" y="-109" font-family="Helvetica,sans-Serif" font-size="10.00">+ GoalList</text>
<text text-anchor="start" x="173.5" y="-98" font-family="Helvetica,sans-Serif" font-size="10.00">+ PolyToGoalActorMap</text>
<text text-anchor="start" x="173.5" y="-87" font-family="Helvetica,sans-Serif" font-size="10.00">+ CachedAnchorPoly</text>
<polyline fill="none" stroke="black" points="165.5,-80 319.5,-80 "/>
<text text-anchor="start" x="173.5" y="-68" font-family="Helvetica,sans-Serif" font-size="10.00">+ RecycleInternal()</text>
<text text-anchor="start" x="173.5" y="-57" font-family="Helvetica,sans-Serif" font-size="10.00">+ Recycle()</text>
<text text-anchor="start" x="173.5" y="-46" font-family="Helvetica,sans-Serif" font-size="10.00">+ STATIC_ClosestActorInList()</text>
<text text-anchor="start" x="173.5" y="-35" font-family="Helvetica,sans-Serif" font-size="10.00">+ StaticClass()</text>
</a>
</g>
</g>
<!-- Node1&#45;&gt;Node4 -->
<g id="edge3" class="edge">
<title>Node1&#45;&gt;Node4</title>
<path fill="none" stroke="midnightblue" d="M567.6,-268.93C497.29,-252.89 402.29,-224.74 328.5,-179 316.12,-171.32 304.25,-161.48 293.49,-151.17"/>
<polygon fill="none" stroke="midnightblue" points="567.27,-272.44 577.8,-271.21 568.8,-265.61 567.27,-272.44"/>
</g>
<!-- Node5 -->
<g id="node5" class="node">
<title>Node5</title>
<g id="a_node5"><a xlink:href="../../d2/dcf/classSDK_1_1UNavMeshGoal__GenericFilterContainer.html" target="_top" xlink:title=" ">
<polygon fill="white" stroke="black" points="337.5,-0.5 337.5,-178.5 489.5,-178.5 489.5,-0.5 337.5,-0.5"/>
<text text-anchor="start" x="345.5" y="-166.5" font-family="Helvetica,sans-Serif" font-size="10.00">SDK::UNavMeshGoal_Generic</text>
<text text-anchor="middle" x="413.5" y="-155.5" font-family="Helvetica,sans-Serif" font-size="10.00">FilterContainer</text>
<polyline fill="none" stroke="black" points="337.5,-148.5 489.5,-148.5 "/>
<text text-anchor="start" x="345.5" y="-136.5" font-family="Helvetica,sans-Serif" font-size="10.00">+ GoalFilters</text>
<text text-anchor="start" x="345.5" y="-125.5" font-family="Helvetica,sans-Serif" font-size="10.00">+ SuccessfulGoal</text>
<text text-anchor="start" x="345.5" y="-114.5" font-family="Helvetica,sans-Serif" font-size="10.00">+ MyNavigationHandle</text>
<text text-anchor="start" x="345.5" y="-103.5" font-family="Helvetica,sans-Serif" font-size="10.00">+ SeedLocations</text>
<polyline fill="none" stroke="black" points="337.5,-96.5 489.5,-96.5 "/>
<text text-anchor="start" x="345.5" y="-84.5" font-family="Helvetica,sans-Serif" font-size="10.00">+ Recycle()</text>
<text text-anchor="start" x="345.5" y="-73.5" font-family="Helvetica,sans-Serif" font-size="10.00">+ GetGoalPoint()</text>
<text text-anchor="start" x="345.5" y="-62.5" font-family="Helvetica,sans-Serif" font-size="10.00">+ GetFilterOfType()</text>
<text text-anchor="start" x="345.5" y="-51.5" font-family="Helvetica,sans-Serif" font-size="10.00">+ STATIC_CreateAndAddFilter</text>
<text text-anchor="start" x="345.5" y="-40.5" font-family="Helvetica,sans-Serif" font-size="10.00">ToNavHandleFromSeedList()</text>
<text text-anchor="start" x="345.5" y="-29.5" font-family="Helvetica,sans-Serif" font-size="10.00">+ STATIC_CreateAndAddFilter</text>
<text text-anchor="start" x="345.5" y="-18.5" font-family="Helvetica,sans-Serif" font-size="10.00">ToNavHandle()</text>
<text text-anchor="start" x="345.5" y="-7.5" font-family="Helvetica,sans-Serif" font-size="10.00">+ StaticClass()</text>
</a>
</g>
</g>
<!-- Node1&#45;&gt;Node5 -->
<g id="edge4" class="edge">
<title>Node1&#45;&gt;Node5</title>
<path fill="none" stroke="midnightblue" d="M569.45,-230.28C545.5,-214.7 520.42,-197.08 498.5,-179 495.54,-176.56 492.58,-174.02 489.63,-171.42"/>
<polygon fill="none" stroke="midnightblue" points="567.57,-233.23 577.87,-235.71 571.36,-227.35 567.57,-233.23"/>
</g>
<!-- Node6 -->
<g id="node6" class="node">
<title>Node6</title>
<g id="a_node6"><a xlink:href="../../dd/d7e/classSDK_1_1UNavMeshGoal__Null.html" target="_top" xlink:title=" ">
<polygon fill="white" stroke="black" points="507.5,-44.5 507.5,-134.5 643.5,-134.5 643.5,-44.5 507.5,-44.5"/>
<text text-anchor="middle" x="575.5" y="-122.5" font-family="Helvetica,sans-Serif" font-size="10.00">SDK::UNavMeshGoal_Null</text>
<polyline fill="none" stroke="black" points="507.5,-115.5 643.5,-115.5 "/>
<text text-anchor="start" x="515.5" y="-103.5" font-family="Helvetica,sans-Serif" font-size="10.00">+ PartialGoal</text>
<polyline fill="none" stroke="black" points="507.5,-96.5 643.5,-96.5 "/>
<text text-anchor="start" x="515.5" y="-84.5" font-family="Helvetica,sans-Serif" font-size="10.00">+ Recycle()</text>
<text text-anchor="start" x="515.5" y="-73.5" font-family="Helvetica,sans-Serif" font-size="10.00">+ RecycleNative()</text>
<text text-anchor="start" x="515.5" y="-62.5" font-family="Helvetica,sans-Serif" font-size="10.00">+ STATIC_GoUntilBust()</text>
<text text-anchor="start" x="515.5" y="-51.5" font-family="Helvetica,sans-Serif" font-size="10.00">+ StaticClass()</text>
</a>
</g>
</g>
<!-- Node1&#45;&gt;Node6 -->
<g id="edge5" class="edge">
<title>Node1&#45;&gt;Node6</title>
<path fill="none" stroke="midnightblue" d="M628.38,-205.96C617.21,-181.57 605.37,-155.72 595.73,-134.68"/>
<polygon fill="none" stroke="midnightblue" points="625.28,-207.59 632.63,-215.22 631.64,-204.68 625.28,-207.59"/>
</g>
<!-- Node7 -->
<g id="node7" class="node">
<title>Node7</title>
<g id="a_node7"><a xlink:href="../../d7/dae/classSDK_1_1UNavMeshGoal__OutOfViewFrom.html" target="_top" xlink:title=" ">
<polygon fill="white" stroke="black" points="662,-28 662,-151 851,-151 851,-28 662,-28"/>
<text text-anchor="middle" x="756.5" y="-139" font-family="Helvetica,sans-Serif" font-size="10.00">SDK::UNavMeshGoal_OutOfViewFrom</text>
<polyline fill="none" stroke="black" points="662,-132 851,-132 "/>
<text text-anchor="start" x="670" y="-120" font-family="Helvetica,sans-Serif" font-size="10.00">+ GoalPoly</text>
<text text-anchor="start" x="670" y="-109" font-family="Helvetica,sans-Serif" font-size="10.00">+ OutOfViewLocation</text>
<text text-anchor="start" x="670" y="-98" font-family="Helvetica,sans-Serif" font-size="10.00">+ bShowDebug</text>
<polyline fill="none" stroke="black" points="662,-91 851,-91 "/>
<text text-anchor="start" x="670" y="-79" font-family="Helvetica,sans-Serif" font-size="10.00">+ Recycle()</text>
<text text-anchor="start" x="670" y="-68" font-family="Helvetica,sans-Serif" font-size="10.00">+ STATIC_MustBeHiddenFromThis</text>
<text text-anchor="start" x="670" y="-57" font-family="Helvetica,sans-Serif" font-size="10.00">Point()</text>
<text text-anchor="start" x="670" y="-46" font-family="Helvetica,sans-Serif" font-size="10.00">+ RecycleNative()</text>
<text text-anchor="start" x="670" y="-35" font-family="Helvetica,sans-Serif" font-size="10.00">+ StaticClass()</text>
</a>
</g>
</g>
<!-- Node1&#45;&gt;Node7 -->
<g id="edge6" class="edge">
<title>Node1&#45;&gt;Node7</title>
<path fill="none" stroke="midnightblue" d="M703.01,-206C711.52,-187.64 720.4,-168.44 728.44,-151.09"/>
<polygon fill="none" stroke="midnightblue" points="699.77,-204.68 698.74,-215.22 706.12,-207.62 699.77,-204.68"/>
</g>
<!-- Node8 -->
<g id="node8" class="node">
<title>Node8</title>
<g id="a_node8"><a xlink:href="../../d4/d82/classSDK_1_1UNavMeshGoal__PolyEncompassesAI.html" target="_top" xlink:title=" ">
<polygon fill="white" stroke="black" points="869.5,-50 869.5,-129 1079.5,-129 1079.5,-50 869.5,-50"/>
<text text-anchor="middle" x="974.5" y="-117" font-family="Helvetica,sans-Serif" font-size="10.00">SDK::UNavMeshGoal_PolyEncompassesAI</text>
<polyline fill="none" stroke="black" points="869.5,-110 1079.5,-110 "/>
<text text-anchor="start" x="877.5" y="-98" font-family="Helvetica,sans-Serif" font-size="10.00">+ OverrideExtentToCheck</text>
<polyline fill="none" stroke="black" points="869.5,-91 1079.5,-91 "/>
<text text-anchor="start" x="877.5" y="-79" font-family="Helvetica,sans-Serif" font-size="10.00">+ Recycle()</text>
<text text-anchor="start" x="877.5" y="-68" font-family="Helvetica,sans-Serif" font-size="10.00">+ STATIC_MakeSureAIFits()</text>
<text text-anchor="start" x="877.5" y="-57" font-family="Helvetica,sans-Serif" font-size="10.00">+ StaticClass()</text>
</a>
</g>
</g>
<!-- Node1&#45;&gt;Node8 -->
<g id="edge7" class="edge">
<title>Node1&#45;&gt;Node8</title>
<path fill="none" stroke="midnightblue" d="M762.02,-237.37C793.99,-219.94 829.34,-199.54 860.5,-179 883.51,-163.83 907.79,-145.35 928.01,-129.22"/>
<polygon fill="none" stroke="midnightblue" points="760.22,-234.37 753.1,-242.21 763.56,-240.52 760.22,-234.37"/>
</g>
<!-- Node9 -->
<g id="node9" class="node">
<title>Node9</title>
<g id="a_node9"><a xlink:href="../../da/d6a/classSDK_1_1UNavMeshGoal__Random.html" target="_top" xlink:title=" ">
<polygon fill="white" stroke="black" points="1098,-33.5 1098,-145.5 1253,-145.5 1253,-33.5 1098,-33.5"/>
<text text-anchor="middle" x="1175.5" y="-133.5" font-family="Helvetica,sans-Serif" font-size="10.00">SDK::UNavMeshGoal_Random</text>
<polyline fill="none" stroke="black" points="1098,-126.5 1253,-126.5 "/>
<text text-anchor="start" x="1106" y="-114.5" font-family="Helvetica,sans-Serif" font-size="10.00">+ MinDist</text>
<text text-anchor="start" x="1106" y="-103.5" font-family="Helvetica,sans-Serif" font-size="10.00">+ BestRating</text>
<text text-anchor="start" x="1106" y="-92.5" font-family="Helvetica,sans-Serif" font-size="10.00">+ PartialGoal</text>
<polyline fill="none" stroke="black" points="1098,-85.5 1253,-85.5 "/>
<text text-anchor="start" x="1106" y="-73.5" font-family="Helvetica,sans-Serif" font-size="10.00">+ Recycle()</text>
<text text-anchor="start" x="1106" y="-62.5" font-family="Helvetica,sans-Serif" font-size="10.00">+ RecycleNative()</text>
<text text-anchor="start" x="1106" y="-51.5" font-family="Helvetica,sans-Serif" font-size="10.00">+ STATIC_FindRandom()</text>
<text text-anchor="start" x="1106" y="-40.5" font-family="Helvetica,sans-Serif" font-size="10.00">+ StaticClass()</text>
</a>
</g>
</g>
<!-- Node1&#45;&gt;Node9 -->
<g id="edge8" class="edge">
<title>Node1&#45;&gt;Node9</title>
<path fill="none" stroke="midnightblue" d="M763.47,-277.19C853.03,-264.82 986.65,-237.58 1088.5,-179 1103.63,-170.3 1117.89,-158.24 1130.33,-145.83"/>
<polygon fill="none" stroke="midnightblue" points="762.77,-273.75 753.32,-278.56 763.7,-280.69 762.77,-273.75"/>
</g>
<!-- Node10 -->
<g id="node10" class="node">
<title>Node10</title>
<g id="a_node10"><a xlink:href="../../d8/d48/classSDK_1_1UNavMeshGoal__WithinDistanceEnvelope.html" target="_top" xlink:title=" ">
<polygon fill="white" stroke="black" points="1271,-22.5 1271,-156.5 1426,-156.5 1426,-22.5 1271,-22.5"/>
<text text-anchor="start" x="1279" y="-144.5" font-family="Helvetica,sans-Serif" font-size="10.00">SDK::UNavMeshGoal_Within</text>
<text text-anchor="middle" x="1348.5" y="-133.5" font-family="Helvetica,sans-Serif" font-size="10.00">DistanceEnvelope</text>
<polyline fill="none" stroke="black" points="1271,-126.5 1426,-126.5 "/>
<text text-anchor="start" x="1279" y="-114.5" font-family="Helvetica,sans-Serif" font-size="10.00">+ MaxDistance</text>
<text text-anchor="start" x="1279" y="-103.5" font-family="Helvetica,sans-Serif" font-size="10.00">+ MinDistance</text>
<text text-anchor="start" x="1279" y="-92.5" font-family="Helvetica,sans-Serif" font-size="10.00">+ MinTraversalDist</text>
<text text-anchor="start" x="1279" y="-81.5" font-family="Helvetica,sans-Serif" font-size="10.00">+ EnvelopeTestPoint</text>
<polyline fill="none" stroke="black" points="1271,-74.5 1426,-74.5 "/>
<text text-anchor="start" x="1279" y="-62.5" font-family="Helvetica,sans-Serif" font-size="10.00">+ Recycle()</text>
<text text-anchor="start" x="1279" y="-51.5" font-family="Helvetica,sans-Serif" font-size="10.00">+ STATIC_GoalWithinEnvelope</text>
<text text-anchor="start" x="1279" y="-40.5" font-family="Helvetica,sans-Serif" font-size="10.00">ToLoc()</text>
<text text-anchor="start" x="1279" y="-29.5" font-family="Helvetica,sans-Serif" font-size="10.00">+ StaticClass()</text>
</a>
</g>
</g>
<!-- Node1&#45;&gt;Node10 -->
<g id="edge9" class="edge">
<title>Node1&#45;&gt;Node10</title>
<path fill="none" stroke="midnightblue" d="M763.37,-287.28C886.76,-283.75 1102.11,-264.42 1262.5,-179 1273.66,-173.06 1284.24,-165.15 1293.92,-156.51"/>
<polygon fill="none" stroke="midnightblue" points="763.09,-283.79 753.19,-287.55 763.27,-290.79 763.09,-283.79"/>
</g>
<!-- Node2 -->
<g id="node2" class="node">
<title>Node2</title>
<g id="a_node2"><a xlink:href="../../d9/d45/classSDK_1_1UObject.html" target="_top" xlink:title=" ">
<polygon fill="white" stroke="black" points="566.5,-397.5 566.5,-751.5 764.5,-751.5 764.5,-397.5 566.5,-397.5"/>
<text text-anchor="middle" x="665.5" y="-739.5" font-family="Helvetica,sans-Serif" font-size="10.00">SDK::UObject</text>
<polyline fill="none" stroke="black" points="566.5,-732.5 764.5,-732.5 "/>
<text text-anchor="start" x="574.5" y="-720.5" font-family="Helvetica,sans-Serif" font-size="10.00">+ VfTableObject</text>
<text text-anchor="start" x="574.5" y="-709.5" font-family="Helvetica,sans-Serif" font-size="10.00">+ ObjectFlags</text>
<text text-anchor="start" x="574.5" y="-698.5" font-family="Helvetica,sans-Serif" font-size="10.00">+ StateFrame</text>
<text text-anchor="start" x="574.5" y="-687.5" font-family="Helvetica,sans-Serif" font-size="10.00">+ Linker</text>
<text text-anchor="start" x="574.5" y="-676.5" font-family="Helvetica,sans-Serif" font-size="10.00">+ LinkerIndex</text>
<text text-anchor="start" x="574.5" y="-665.5" font-family="Helvetica,sans-Serif" font-size="10.00">+ ObjectInternalInteger</text>
<text text-anchor="start" x="574.5" y="-654.5" font-family="Helvetica,sans-Serif" font-size="10.00">+ NetIndex</text>
<text text-anchor="start" x="574.5" y="-643.5" font-family="Helvetica,sans-Serif" font-size="10.00">+ Outer</text>
<text text-anchor="start" x="574.5" y="-632.5" font-family="Helvetica,sans-Serif" font-size="10.00">+ Name</text>
<text text-anchor="start" x="574.5" y="-621.5" font-family="Helvetica,sans-Serif" font-size="10.00">+ Class</text>
<text text-anchor="start" x="574.5" y="-610.5" font-family="Helvetica,sans-Serif" font-size="10.00">+ ObjectArchetype</text>
<text text-anchor="start" x="574.5" y="-599.5" font-family="Helvetica,sans-Serif" font-size="10.00">+ GObjects</text>
<polyline fill="none" stroke="black" points="566.5,-592.5 764.5,-592.5 "/>
<text text-anchor="start" x="574.5" y="-580.5" font-family="Helvetica,sans-Serif" font-size="10.00">+ UObject::GetName()</text>
<text text-anchor="start" x="574.5" y="-569.5" font-family="Helvetica,sans-Serif" font-size="10.00">+ GetFullName()</text>
<text text-anchor="start" x="574.5" y="-558.5" font-family="Helvetica,sans-Serif" font-size="10.00">+ IsA()</text>
<text text-anchor="start" x="574.5" y="-547.5" font-family="Helvetica,sans-Serif" font-size="10.00">+ ProcessEvent()</text>
<text text-anchor="start" x="574.5" y="-536.5" font-family="Helvetica,sans-Serif" font-size="10.00">+ STATIC_ProfNodeEvent()</text>
<text text-anchor="start" x="574.5" y="-525.5" font-family="Helvetica,sans-Serif" font-size="10.00">+ STATIC_ProfNodeSetDepthThreshold()</text>
<text text-anchor="start" x="574.5" y="-514.5" font-family="Helvetica,sans-Serif" font-size="10.00">+ STATIC_ProfNodeSetTimeThreshold</text>
<text text-anchor="start" x="574.5" y="-503.5" font-family="Helvetica,sans-Serif" font-size="10.00">Seconds()</text>
<text text-anchor="start" x="574.5" y="-492.5" font-family="Helvetica,sans-Serif" font-size="10.00">+ STATIC_ProfNodeStop()</text>
<text text-anchor="start" x="574.5" y="-481.5" font-family="Helvetica,sans-Serif" font-size="10.00">+ STATIC_ProfNodeStart()</text>
<text text-anchor="start" x="574.5" y="-470.5" font-family="Helvetica,sans-Serif" font-size="10.00">+ STATIC_GetStringFromGuid()</text>
<text text-anchor="start" x="574.5" y="-459.5" font-family="Helvetica,sans-Serif" font-size="10.00">and 298 more...</text>
<text text-anchor="start" x="574.5" y="-448.5" font-family="Helvetica,sans-Serif" font-size="10.00">+ GetGlobalObjects()</text>
<text text-anchor="start" x="574.5" y="-437.5" font-family="Helvetica,sans-Serif" font-size="10.00">+ FindObject()</text>
<text text-anchor="start" x="574.5" y="-426.5" font-family="Helvetica,sans-Serif" font-size="10.00">+ FindClass()</text>
<text text-anchor="start" x="574.5" y="-415.5" font-family="Helvetica,sans-Serif" font-size="10.00">+ GetObjectCasted()</text>
<text text-anchor="start" x="574.5" y="-404.5" font-family="Helvetica,sans-Serif" font-size="10.00">+ StaticClass()</text>
</a>
</g>
</g>
<!-- Node2&#45;&gt;Node1 -->
<g id="edge1" class="edge">
<title>Node2&#45;&gt;Node1</title>
<path fill="none" stroke="midnightblue" d="M665.5,-387.31C665.5,-378.14 665.5,-369.23 665.5,-360.77"/>
<polygon fill="none" stroke="midnightblue" points="662,-387.37 665.5,-397.37 669,-387.37 662,-387.37"/>
</g>
</g>
</svg>
