<?xml version="1.0" encoding="UTF-8" standalone="no"?>
<!DOCTYPE svg PUBLIC "-//W3C//DTD SVG 1.1//EN"
 "http://www.w3.org/Graphics/SVG/1.1/DTD/svg11.dtd">
<!-- Generated by graphviz version 2.41.20171026.1811 (20171026.1811)
 -->
<!-- Title: SDK::UPMESTG_LeaveADecalBase Pages: 1 -->
<svg width="646pt" height="1538pt"
 viewBox="0.00 0.00 645.50 1538.00" xmlns="http://www.w3.org/2000/svg" xmlns:xlink="http://www.w3.org/1999/xlink">
<g id="graph0" class="graph" transform="scale(1 1) rotate(0) translate(4 1534)">
<title>SDK::UPMESTG_LeaveADecalBase</title>
<polygon fill="white" stroke="transparent" points="-4,4 -4,-1534 641.5,-1534 641.5,4 -4,4"/>
<!-- Node1 -->
<g id="node1" class="node">
<title>Node1</title>
<g id="a_node1"><a xlink:title=" ">
<polygon fill="#bfbfbf" stroke="black" points="17,-0.5 17,-57.5 196,-57.5 196,-0.5 17,-0.5"/>
<text text-anchor="middle" x="106.5" y="-45.5" font-family="Helvetica,sans-Serif" font-size="10.00">SDK::UPMESTG_LeaveADecalBase</text>
<polyline fill="none" stroke="black" points="17,-38.5 196,-38.5 "/>
<text text-anchor="middle" x="106.5" y="-26.5" font-family="Helvetica,sans-Serif" font-size="10.00"> </text>
<polyline fill="none" stroke="black" points="17,-19.5 196,-19.5 "/>
<text text-anchor="start" x="25" y="-7.5" font-family="Helvetica,sans-Serif" font-size="10.00">+ StaticClass()</text>
</a>
</g>
</g>
<!-- Node2 -->
<g id="node2" class="node">
<title>Node2</title>
<g id="a_node2"><a xlink:href="../../db/d18/classSDK_1_1UParticleModuleEventSendToGame.html" target="_top" xlink:title=" ">
<polygon fill="white" stroke="black" points="0,-437.5 0,-516.5 141,-516.5 141,-437.5 0,-437.5"/>
<text text-anchor="start" x="8" y="-504.5" font-family="Helvetica,sans-Serif" font-size="10.00">SDK::UParticleModuleEvent</text>
<text text-anchor="middle" x="70.5" y="-493.5" font-family="Helvetica,sans-Serif" font-size="10.00">SendToGame</text>
<polyline fill="none" stroke="black" points="0,-486.5 141,-486.5 "/>
<text text-anchor="middle" x="70.5" y="-474.5" font-family="Helvetica,sans-Serif" font-size="10.00"> </text>
<polyline fill="none" stroke="black" points="0,-467.5 141,-467.5 "/>
<text text-anchor="start" x="8" y="-455.5" font-family="Helvetica,sans-Serif" font-size="10.00">+ DoEvent()</text>
<text text-anchor="start" x="8" y="-444.5" font-family="Helvetica,sans-Serif" font-size="10.00">+ StaticClass()</text>
</a>
</g>
</g>
<!-- Node2&#45;&gt;Node1 -->
<g id="edge1" class="edge">
<title>Node2&#45;&gt;Node1</title>
<path fill="none" stroke="midnightblue" d="M80.02,-427.39C85.18,-396.95 90.5,-356.83 90.5,-321 90.5,-321 90.5,-321 90.5,-160.5 90.5,-124.78 96.48,-83.96 101.13,-57.63"/>
<polygon fill="none" stroke="midnightblue" points="76.56,-426.87 78.29,-437.32 83.46,-428.07 76.56,-426.87"/>
</g>
<!-- Node3 -->
<g id="node3" class="node">
<title>Node3</title>
<g id="a_node3"><a xlink:href="../../d9/d45/classSDK_1_1UObject.html" target="_top" xlink:title=" ">
<polygon fill="white" stroke="black" points="223.5,-717.5 223.5,-961.5 421.5,-961.5 421.5,-717.5 223.5,-717.5"/>
<text text-anchor="middle" x="322.5" y="-949.5" font-family="Helvetica,sans-Serif" font-size="10.00">SDK::UObject</text>
<polyline fill="none" stroke="black" points="223.5,-942.5 421.5,-942.5 "/>
<text text-anchor="start" x="231.5" y="-930.5" font-family="Helvetica,sans-Serif" font-size="10.00">+ ObjectInternalInteger</text>
<text text-anchor="start" x="231.5" y="-919.5" font-family="Helvetica,sans-Serif" font-size="10.00">+ NetIndex</text>
<polyline fill="none" stroke="black" points="223.5,-912.5 421.5,-912.5 "/>
<text text-anchor="start" x="231.5" y="-900.5" font-family="Helvetica,sans-Serif" font-size="10.00">+ UObject::GetName()</text>
<text text-anchor="start" x="231.5" y="-889.5" font-family="Helvetica,sans-Serif" font-size="10.00">+ GetFullName()</text>
<text text-anchor="start" x="231.5" y="-878.5" font-family="Helvetica,sans-Serif" font-size="10.00">+ IsA()</text>
<text text-anchor="start" x="231.5" y="-867.5" font-family="Helvetica,sans-Serif" font-size="10.00">+ ProcessEvent()</text>
<text text-anchor="start" x="231.5" y="-856.5" font-family="Helvetica,sans-Serif" font-size="10.00">+ STATIC_ProfNodeEvent()</text>
<text text-anchor="start" x="231.5" y="-845.5" font-family="Helvetica,sans-Serif" font-size="10.00">+ STATIC_ProfNodeSetDepthThreshold()</text>
<text text-anchor="start" x="231.5" y="-834.5" font-family="Helvetica,sans-Serif" font-size="10.00">+ STATIC_ProfNodeSetTimeThreshold</text>
<text text-anchor="start" x="231.5" y="-823.5" font-family="Helvetica,sans-Serif" font-size="10.00">Seconds()</text>
<text text-anchor="start" x="231.5" y="-812.5" font-family="Helvetica,sans-Serif" font-size="10.00">+ STATIC_ProfNodeStop()</text>
<text text-anchor="start" x="231.5" y="-801.5" font-family="Helvetica,sans-Serif" font-size="10.00">+ STATIC_ProfNodeStart()</text>
<text text-anchor="start" x="231.5" y="-790.5" font-family="Helvetica,sans-Serif" font-size="10.00">+ STATIC_GetStringFromGuid()</text>
<text text-anchor="start" x="231.5" y="-779.5" font-family="Helvetica,sans-Serif" font-size="10.00">and 298 more...</text>
<text text-anchor="start" x="231.5" y="-768.5" font-family="Helvetica,sans-Serif" font-size="10.00">+ GetGlobalObjects()</text>
<text text-anchor="start" x="231.5" y="-757.5" font-family="Helvetica,sans-Serif" font-size="10.00">+ FindObject()</text>
<text text-anchor="start" x="231.5" y="-746.5" font-family="Helvetica,sans-Serif" font-size="10.00">+ FindClass()</text>
<text text-anchor="start" x="231.5" y="-735.5" font-family="Helvetica,sans-Serif" font-size="10.00">+ GetObjectCasted()</text>
<text text-anchor="start" x="231.5" y="-724.5" font-family="Helvetica,sans-Serif" font-size="10.00">+ StaticClass()</text>
</a>
</g>
</g>
<!-- Node3&#45;&gt;Node2 -->
<g id="edge2" class="edge">
<title>Node3&#45;&gt;Node2</title>
<path fill="none" stroke="midnightblue" d="M214.92,-771.85C188.3,-751.2 161.88,-726.54 142.5,-699 102.9,-642.73 84.11,-563.39 75.98,-516.66"/>
<polygon fill="none" stroke="midnightblue" points="213.1,-774.86 223.18,-778.13 217.33,-769.29 213.1,-774.86"/>
</g>
<!-- Node3&#45;&gt;Node3 -->
<g id="edge8" class="edge">
<title>Node3&#45;&gt;Node3</title>
<path fill="none" stroke="#404040" d="M421.51,-862.53C432.44,-858.15 439.5,-850.48 439.5,-839.5 439.5,-832.64 436.74,-827.07 432.01,-822.78"/>
<polygon fill="none" stroke="#404040" points="431.8,-822.66 424.59,-822.99 421.51,-816.47 428.72,-816.14 431.8,-822.66"/>
<text text-anchor="middle" x="479" y="-848" font-family="Helvetica,sans-Serif" font-size="10.00"> +Outer</text>
<text text-anchor="middle" x="479" y="-837" font-family="Helvetica,sans-Serif" font-size="10.00">+Linker</text>
<text text-anchor="middle" x="479" y="-826" font-family="Helvetica,sans-Serif" font-size="10.00">+ObjectArchetype</text>
</g>
<!-- Node9 -->
<g id="node9" class="node">
<title>Node9</title>
<g id="a_node9"><a xlink:href="../../d3/d79/classSDK_1_1TArray.html" target="_top" xlink:title=" ">
<polygon fill="white" stroke="black" points="466,-535.5 466,-669.5 627,-669.5 627,-535.5 466,-535.5"/>
<text text-anchor="middle" x="546.5" y="-657.5" font-family="Helvetica,sans-Serif" font-size="10.00">SDK::TArray&lt; SDK::UObject * &gt;</text>
<polyline fill="none" stroke="black" points="466,-650.5 627,-650.5 "/>
<text text-anchor="start" x="474" y="-638.5" font-family="Helvetica,sans-Serif" font-size="10.00">&#45; Count</text>
<text text-anchor="start" x="474" y="-627.5" font-family="Helvetica,sans-Serif" font-size="10.00">&#45; Max</text>
<polyline fill="none" stroke="black" points="466,-620.5 627,-620.5 "/>
<text text-anchor="start" x="474" y="-608.5" font-family="Helvetica,sans-Serif" font-size="10.00">+ TArray()</text>
<text text-anchor="start" x="474" y="-597.5" font-family="Helvetica,sans-Serif" font-size="10.00">+ Num()</text>
<text text-anchor="start" x="474" y="-586.5" font-family="Helvetica,sans-Serif" font-size="10.00">+ operator[]()</text>
<text text-anchor="start" x="474" y="-575.5" font-family="Helvetica,sans-Serif" font-size="10.00">+ operator[]()</text>
<text text-anchor="start" x="474" y="-564.5" font-family="Helvetica,sans-Serif" font-size="10.00">+ IsValidIndex()</text>
<text text-anchor="start" x="474" y="-553.5" font-family="Helvetica,sans-Serif" font-size="10.00">+ GetByIndex()</text>
<text text-anchor="start" x="474" y="-542.5" font-family="Helvetica,sans-Serif" font-size="10.00">+ GetByIndex()</text>
</a>
</g>
</g>
<!-- Node3&#45;&gt;Node9 -->
<g id="edge10" class="edge">
<title>Node3&#45;&gt;Node9</title>
<path fill="none" stroke="#404040" d="M401.05,-717.37C409.77,-706.96 418.97,-696.99 428.5,-688 437.47,-679.54 442.73,-678.59 455.52,-670.9"/>
<polygon fill="none" stroke="#404040" points="455.62,-670.83 458.5,-664.22 465.71,-664.33 462.83,-670.94 455.62,-670.83"/>
<text text-anchor="middle" x="442.5" y="-691" font-family="Helvetica,sans-Serif" font-size="10.00"> &#45;Data</text>
</g>
<!-- Node11 -->
<g id="node11" class="node">
<title>Node11</title>
<g id="a_node11"><a xlink:href="../../d7/d85/classSDK_1_1UClass.html" target="_top" xlink:title=" ">
<polygon fill="white" stroke="black" points="181,-116.5 181,-206.5 302,-206.5 302,-116.5 181,-116.5"/>
<text text-anchor="middle" x="241.5" y="-194.5" font-family="Helvetica,sans-Serif" font-size="10.00">SDK::UClass</text>
<polyline fill="none" stroke="black" points="181,-187.5 302,-187.5 "/>
<text text-anchor="start" x="189" y="-175.5" font-family="Helvetica,sans-Serif" font-size="10.00">+ UnknownData00</text>
<text text-anchor="start" x="189" y="-164.5" font-family="Helvetica,sans-Serif" font-size="10.00">+ UnknownData01</text>
<polyline fill="none" stroke="black" points="181,-157.5 302,-157.5 "/>
<text text-anchor="start" x="189" y="-145.5" font-family="Helvetica,sans-Serif" font-size="10.00">+ CreateDefaultObject()</text>
<text text-anchor="start" x="189" y="-134.5" font-family="Helvetica,sans-Serif" font-size="10.00">+ CreateDefaultObject()</text>
<text text-anchor="start" x="189" y="-123.5" font-family="Helvetica,sans-Serif" font-size="10.00">+ StaticClass()</text>
</a>
</g>
</g>
<!-- Node3&#45;&gt;Node11 -->
<g id="edge20" class="edge">
<title>Node3&#45;&gt;Node11</title>
<path fill="none" stroke="#404040" d="M223.3,-751.37C187.85,-710.72 156.5,-659.07 156.5,-603.5 156.5,-603.5 156.5,-603.5 156.5,-272 156.5,-251.28 166.12,-232.11 178.88,-215.79"/>
<polygon fill="none" stroke="#404040" points="178.96,-215.69 179.78,-208.53 186.71,-206.52 185.89,-213.69 178.96,-215.69"/>
<text text-anchor="middle" x="204" y="-376.5" font-family="Helvetica,sans-Serif" font-size="10.00"> +ClassDefaultObject</text>
</g>
<!-- Node14 -->
<g id="node14" class="node">
<title>Node14</title>
<g id="a_node14"><a xlink:href="../../de/dd6/classSDK_1_1UField.html" target="_top" xlink:title=" ">
<polygon fill="white" stroke="black" points="316,-574 316,-631 399,-631 399,-574 316,-574"/>
<text text-anchor="middle" x="357.5" y="-619" font-family="Helvetica,sans-Serif" font-size="10.00">SDK::UField</text>
<polyline fill="none" stroke="black" points="316,-612 399,-612 "/>
<text text-anchor="middle" x="357.5" y="-600" font-family="Helvetica,sans-Serif" font-size="10.00"> </text>
<polyline fill="none" stroke="black" points="316,-593 399,-593 "/>
<text text-anchor="start" x="324" y="-581" font-family="Helvetica,sans-Serif" font-size="10.00">+ StaticClass()</text>
</a>
</g>
</g>
<!-- Node3&#45;&gt;Node14 -->
<g id="edge17" class="edge">
<title>Node3&#45;&gt;Node14</title>
<path fill="none" stroke="midnightblue" d="M342.08,-707.01C346.36,-678.27 350.48,-650.66 353.38,-631.19"/>
<polygon fill="none" stroke="midnightblue" points="338.58,-706.81 340.56,-717.21 345.5,-707.84 338.58,-706.81"/>
</g>
<!-- Node4 -->
<g id="node4" class="node">
<title>Node4</title>
<g id="a_node4"><a xlink:href="../../d0/d22/structSDK_1_1FQWord.html" target="_top" xlink:title=" ">
<polygon fill="white" stroke="black" points="184.5,-1059 184.5,-1127 264.5,-1127 264.5,-1059 184.5,-1059"/>
<text text-anchor="middle" x="224.5" y="-1115" font-family="Helvetica,sans-Serif" font-size="10.00">SDK::FQWord</text>
<polyline fill="none" stroke="black" points="184.5,-1108 264.5,-1108 "/>
<text text-anchor="start" x="192.5" y="-1096" font-family="Helvetica,sans-Serif" font-size="10.00">+ A</text>
<text text-anchor="start" x="192.5" y="-1085" font-family="Helvetica,sans-Serif" font-size="10.00">+ B</text>
<polyline fill="none" stroke="black" points="184.5,-1078 264.5,-1078 "/>
<text text-anchor="middle" x="224.5" y="-1066" font-family="Helvetica,sans-Serif" font-size="10.00"> </text>
</a>
</g>
</g>
<!-- Node4&#45;&gt;Node3 -->
<g id="edge3" class="edge">
<title>Node4&#45;&gt;Node3</title>
<path fill="none" stroke="#404040" d="M235.38,-1058.96C242.91,-1036.55 253.36,-1006.32 263.5,-980 264.4,-977.65 265.32,-975.28 266.26,-972.9"/>
<polygon fill="none" stroke="#404040" points="266.29,-972.82 264.77,-965.77 270.7,-961.66 272.21,-968.71 266.29,-972.82"/>
<text text-anchor="middle" x="294.5" y="-994" font-family="Helvetica,sans-Serif" font-size="10.00"> +ObjectFlags</text>
</g>
<!-- Node5 -->
<g id="node5" class="node">
<title>Node5</title>
<g id="a_node5"><a xlink:href="../../d0/db6/structSDK_1_1FName.html" target="_top" xlink:title=" ">
<polygon fill="white" stroke="black" points="283,-1031.5 283,-1154.5 390,-1154.5 390,-1031.5 283,-1031.5"/>
<text text-anchor="middle" x="336.5" y="-1142.5" font-family="Helvetica,sans-Serif" font-size="10.00">SDK::FName</text>
<polyline fill="none" stroke="black" points="283,-1135.5 390,-1135.5 "/>
<text text-anchor="start" x="291" y="-1123.5" font-family="Helvetica,sans-Serif" font-size="10.00">+ Index</text>
<text text-anchor="start" x="291" y="-1112.5" font-family="Helvetica,sans-Serif" font-size="10.00">+ Number</text>
<polyline fill="none" stroke="black" points="283,-1105.5 390,-1105.5 "/>
<text text-anchor="start" x="291" y="-1093.5" font-family="Helvetica,sans-Serif" font-size="10.00">+ FName()</text>
<text text-anchor="start" x="291" y="-1082.5" font-family="Helvetica,sans-Serif" font-size="10.00">+ FName()</text>
<text text-anchor="start" x="291" y="-1071.5" font-family="Helvetica,sans-Serif" font-size="10.00">+ FName()</text>
<text text-anchor="start" x="291" y="-1060.5" font-family="Helvetica,sans-Serif" font-size="10.00">+ GetName()</text>
<text text-anchor="start" x="291" y="-1049.5" font-family="Helvetica,sans-Serif" font-size="10.00">+ operator==()</text>
<text text-anchor="start" x="291" y="-1038.5" font-family="Helvetica,sans-Serif" font-size="10.00">+ GetGlobalNames()</text>
</a>
</g>
</g>
<!-- Node5&#45;&gt;Node3 -->
<g id="edge4" class="edge">
<title>Node5&#45;&gt;Node3</title>
<path fill="none" stroke="#404040" d="M333.13,-1031.44C332.15,-1013.9 331.05,-994.03 329.93,-973.9"/>
<polygon fill="none" stroke="#404040" points="329.91,-973.67 325.59,-967.9 329.25,-961.69 333.57,-967.45 329.91,-973.67"/>
<text text-anchor="middle" x="349.5" y="-994" font-family="Helvetica,sans-Serif" font-size="10.00"> +Name</text>
</g>
<!-- Node6 -->
<g id="node6" class="node">
<title>Node6</title>
<g id="a_node6"><a xlink:href="../../d3/d79/classSDK_1_1TArray.html" target="_top" xlink:title=" ">
<polygon fill="white" stroke="black" points="267.5,-1202.5 267.5,-1336.5 447.5,-1336.5 447.5,-1202.5 267.5,-1202.5"/>
<text text-anchor="middle" x="357.5" y="-1324.5" font-family="Helvetica,sans-Serif" font-size="10.00">SDK::TArray&lt; SDK::FNameEntry * &gt;</text>
<polyline fill="none" stroke="black" points="267.5,-1317.5 447.5,-1317.5 "/>
<text text-anchor="start" x="275.5" y="-1305.5" font-family="Helvetica,sans-Serif" font-size="10.00">&#45; Count</text>
<text text-anchor="start" x="275.5" y="-1294.5" font-family="Helvetica,sans-Serif" font-size="10.00">&#45; Max</text>
<polyline fill="none" stroke="black" points="267.5,-1287.5 447.5,-1287.5 "/>
<text text-anchor="start" x="275.5" y="-1275.5" font-family="Helvetica,sans-Serif" font-size="10.00">+ TArray()</text>
<text text-anchor="start" x="275.5" y="-1264.5" font-family="Helvetica,sans-Serif" font-size="10.00">+ Num()</text>
<text text-anchor="start" x="275.5" y="-1253.5" font-family="Helvetica,sans-Serif" font-size="10.00">+ operator[]()</text>
<text text-anchor="start" x="275.5" y="-1242.5" font-family="Helvetica,sans-Serif" font-size="10.00">+ operator[]()</text>
<text text-anchor="start" x="275.5" y="-1231.5" font-family="Helvetica,sans-Serif" font-size="10.00">+ IsValidIndex()</text>
<text text-anchor="start" x="275.5" y="-1220.5" font-family="Helvetica,sans-Serif" font-size="10.00">+ GetByIndex()</text>
<text text-anchor="start" x="275.5" y="-1209.5" font-family="Helvetica,sans-Serif" font-size="10.00">+ GetByIndex()</text>
</a>
</g>
</g>
<!-- Node6&#45;&gt;Node5 -->
<g id="edge5" class="edge">
<title>Node6&#45;&gt;Node5</title>
<path fill="none" stroke="#404040" d="M349.5,-1202.03C348.11,-1190.45 346.65,-1178.35 345.24,-1166.62"/>
<polygon fill="none" stroke="#404040" points="345.22,-1166.47 340.53,-1160.99 343.79,-1154.56 348.48,-1160.03 345.22,-1166.47"/>
<text text-anchor="middle" x="371" y="-1176" font-family="Helvetica,sans-Serif" font-size="10.00"> +GNames</text>
</g>
<!-- Node7 -->
<g id="node7" class="node">
<title>Node7</title>
<g id="a_node7"><a xlink:href="../../d7/ddf/classSDK_1_1FNameEntry.html" target="_top" xlink:title=" ">
<polygon fill="white" stroke="black" points="308,-1423 308,-1491 407,-1491 407,-1423 308,-1423"/>
<text text-anchor="middle" x="357.5" y="-1479" font-family="Helvetica,sans-Serif" font-size="10.00">SDK::FNameEntry</text>
<polyline fill="none" stroke="black" points="308,-1472 407,-1472 "/>
<text text-anchor="start" x="316" y="-1460" font-family="Helvetica,sans-Serif" font-size="10.00">+ UnknownData00</text>
<text text-anchor="start" x="316" y="-1449" font-family="Helvetica,sans-Serif" font-size="10.00">+ name</text>
<polyline fill="none" stroke="black" points="308,-1442 407,-1442 "/>
<text text-anchor="start" x="316" y="-1430" font-family="Helvetica,sans-Serif" font-size="10.00">+ GetName()</text>
</a>
</g>
</g>
<!-- Node7&#45;&gt;Node6 -->
<g id="edge6" class="edge">
<title>Node7&#45;&gt;Node6</title>
<path fill="none" stroke="#404040" d="M357.5,-1422.84C357.5,-1402.23 357.5,-1374.83 357.5,-1348.95"/>
<polygon fill="none" stroke="#404040" points="357.5,-1348.8 353.5,-1342.8 357.5,-1336.8 361.5,-1342.8 357.5,-1348.8"/>
<text text-anchor="middle" x="371.5" y="-1358" font-family="Helvetica,sans-Serif" font-size="10.00"> &#45;Data</text>
</g>
<!-- Node8 -->
<g id="node8" class="node">
<title>Node8</title>
<g id="a_node8"><a xlink:href="../../d3/d79/classSDK_1_1TArray.html" target="_top" xlink:title=" ">
<polygon fill="white" stroke="black" points="455,-1384.5 455,-1529.5 552,-1529.5 552,-1384.5 455,-1384.5"/>
<text text-anchor="middle" x="503.5" y="-1517.5" font-family="Helvetica,sans-Serif" font-size="10.00">SDK::TArray&lt; T &gt;</text>
<polyline fill="none" stroke="black" points="455,-1510.5 552,-1510.5 "/>
<text text-anchor="start" x="463" y="-1498.5" font-family="Helvetica,sans-Serif" font-size="10.00">&#45; Data</text>
<text text-anchor="start" x="463" y="-1487.5" font-family="Helvetica,sans-Serif" font-size="10.00">&#45; Count</text>
<text text-anchor="start" x="463" y="-1476.5" font-family="Helvetica,sans-Serif" font-size="10.00">&#45; Max</text>
<polyline fill="none" stroke="black" points="455,-1469.5 552,-1469.5 "/>
<text text-anchor="start" x="463" y="-1457.5" font-family="Helvetica,sans-Serif" font-size="10.00">+ TArray()</text>
<text text-anchor="start" x="463" y="-1446.5" font-family="Helvetica,sans-Serif" font-size="10.00">+ Num()</text>
<text text-anchor="start" x="463" y="-1435.5" font-family="Helvetica,sans-Serif" font-size="10.00">+ operator[]()</text>
<text text-anchor="start" x="463" y="-1424.5" font-family="Helvetica,sans-Serif" font-size="10.00">+ operator[]()</text>
<text text-anchor="start" x="463" y="-1413.5" font-family="Helvetica,sans-Serif" font-size="10.00">+ IsValidIndex()</text>
<text text-anchor="start" x="463" y="-1402.5" font-family="Helvetica,sans-Serif" font-size="10.00">+ GetByIndex()</text>
<text text-anchor="start" x="463" y="-1391.5" font-family="Helvetica,sans-Serif" font-size="10.00">+ GetByIndex()</text>
</a>
</g>
</g>
<!-- Node8&#45;&gt;Node6 -->
<g id="edge7" class="edge">
<title>Node8&#45;&gt;Node6</title>
<path fill="none" stroke="orange" d="M448.21,-1397.82C439.02,-1387.45 429.79,-1376.58 421.5,-1366 414.24,-1356.73 406.92,-1346.66 399.97,-1336.65"/>
<polygon fill="orange" stroke="orange" points="445.6,-1400.16 454.88,-1405.27 450.82,-1395.49 445.6,-1400.16"/>
<text text-anchor="middle" x="477" y="-1358" font-family="Helvetica,sans-Serif" font-size="10.00"> &lt; SDK::FNameEntry * &gt;</text>
</g>
<!-- Node8&#45;&gt;Node9 -->
<g id="edge11" class="edge">
<title>Node8&#45;&gt;Node9</title>
<path fill="none" stroke="orange" d="M530.81,-1374.45C539.31,-1342.42 546.5,-1305.1 546.5,-1270.5 546.5,-1270.5 546.5,-1270.5 546.5,-838.5 546.5,-781.48 546.5,-716.69 546.5,-669.59"/>
<polygon fill="orange" stroke="orange" points="527.41,-1373.64 528.14,-1384.21 534.16,-1375.49 527.41,-1373.64"/>
<text text-anchor="middle" x="592" y="-1090.5" font-family="Helvetica,sans-Serif" font-size="10.00"> &lt; SDK::UObject * &gt;</text>
</g>
<!-- Node9&#45;&gt;Node3 -->
<g id="edge9" class="edge">
<title>Node9&#45;&gt;Node3</title>
<path fill="none" stroke="#404040" d="M483.4,-669.7C466.77,-687.14 448.36,-706.46 430.1,-725.62"/>
<polygon fill="none" stroke="#404040" points="430.01,-725.71 428.76,-732.82 421.73,-734.4 422.97,-727.3 430.01,-725.71"/>
<text text-anchor="middle" x="486" y="-691" font-family="Helvetica,sans-Serif" font-size="10.00"> +GObjects</text>
</g>
<!-- Node10 -->
<g id="node10" class="node">
<title>Node10</title>
<g id="a_node10"><a xlink:href="../../d9/dfa/structSDK_1_1FPointer.html" target="_top" xlink:title=" ">
<polygon fill="white" stroke="black" points="407.5,-1059 407.5,-1127 505.5,-1127 505.5,-1059 407.5,-1059"/>
<text text-anchor="middle" x="456.5" y="-1115" font-family="Helvetica,sans-Serif" font-size="10.00">SDK::FPointer</text>
<polyline fill="none" stroke="black" points="407.5,-1108 505.5,-1108 "/>
<text text-anchor="start" x="415.5" y="-1096" font-family="Helvetica,sans-Serif" font-size="10.00">+ Dummy</text>
<text text-anchor="start" x="415.5" y="-1085" font-family="Helvetica,sans-Serif" font-size="10.00">+ UnknownData00</text>
<polyline fill="none" stroke="black" points="407.5,-1078 505.5,-1078 "/>
<text text-anchor="middle" x="456.5" y="-1066" font-family="Helvetica,sans-Serif" font-size="10.00"> </text>
</a>
</g>
</g>
<!-- Node10&#45;&gt;Node3 -->
<g id="edge12" class="edge">
<title>Node10&#45;&gt;Node3</title>
<path fill="none" stroke="#404040" d="M438.84,-1058.86C426.81,-1036.27 410.01,-1004.74 392.91,-972.64"/>
<polygon fill="none" stroke="#404040" points="392.74,-972.34 386.39,-968.93 387.1,-961.75 393.45,-965.16 392.74,-972.34"/>
<text text-anchor="middle" x="447" y="-1005" font-family="Helvetica,sans-Serif" font-size="10.00"> +StateFrame</text>
<text text-anchor="middle" x="447" y="-994" font-family="Helvetica,sans-Serif" font-size="10.00">+VfTableObject</text>
<text text-anchor="middle" x="447" y="-983" font-family="Helvetica,sans-Serif" font-size="10.00">+LinkerIndex</text>
</g>
<!-- Node11&#45;&gt;Node1 -->
<g id="edge21" class="edge">
<title>Node11&#45;&gt;Node1</title>
<path fill="none" stroke="#404040" d="M195.8,-116.32C179.04,-100.12 160.28,-81.99 144.3,-66.54"/>
<polygon fill="none" stroke="#404040" points="143.87,-66.13 136.78,-64.83 135.24,-57.79 142.34,-59.08 143.87,-66.13"/>
<text text-anchor="start" x="174.5" y="-90" font-family="Helvetica,sans-Serif" font-size="10.00"> +PhysicalMaterialProperty</text>
<text text-anchor="middle" x="233.5" y="-79" font-family="Helvetica,sans-Serif" font-size="10.00">Class</text>
</g>
<!-- Node11&#45;&gt;Node3 -->
<g id="edge13" class="edge">
<title>Node11&#45;&gt;Node3</title>
<path fill="none" stroke="#404040" d="M269.32,-206.59C279.01,-225.91 287.5,-249.32 287.5,-272 287.5,-603.5 287.5,-603.5 287.5,-603.5 287.5,-636.66 290.95,-672.16 295.68,-705.26"/>
<polygon fill="none" stroke="#404040" points="295.72,-705.48 300.56,-710.82 297.48,-717.34 292.64,-712 295.72,-705.48"/>
<text text-anchor="middle" x="305" y="-376.5" font-family="Helvetica,sans-Serif" font-size="10.00"> +Class</text>
</g>
<!-- Node12 -->
<g id="node12" class="node">
<title>Node12</title>
<g id="a_node12"><a xlink:href="../../df/d72/classSDK_1_1UState.html" target="_top" xlink:title=" ">
<polygon fill="white" stroke="black" points="327.5,-244.5 327.5,-301.5 425.5,-301.5 425.5,-244.5 327.5,-244.5"/>
<text text-anchor="middle" x="376.5" y="-289.5" font-family="Helvetica,sans-Serif" font-size="10.00">SDK::UState</text>
<polyline fill="none" stroke="black" points="327.5,-282.5 425.5,-282.5 "/>
<text text-anchor="start" x="335.5" y="-270.5" font-family="Helvetica,sans-Serif" font-size="10.00">+ UnknownData00</text>
<polyline fill="none" stroke="black" points="327.5,-263.5 425.5,-263.5 "/>
<text text-anchor="start" x="335.5" y="-251.5" font-family="Helvetica,sans-Serif" font-size="10.00">+ StaticClass()</text>
</a>
</g>
</g>
<!-- Node12&#45;&gt;Node11 -->
<g id="edge14" class="edge">
<title>Node12&#45;&gt;Node11</title>
<path fill="none" stroke="midnightblue" d="M334.58,-238C322.31,-228.04 308.71,-217.01 295.78,-206.53"/>
<polygon fill="none" stroke="midnightblue" points="332.46,-240.79 342.43,-244.37 336.87,-235.35 332.46,-240.79"/>
</g>
<!-- Node13 -->
<g id="node13" class="node">
<title>Node13</title>
<g id="a_node13"><a xlink:href="../../d8/de9/classSDK_1_1UStruct.html" target="_top" xlink:title=" ">
<polygon fill="white" stroke="black" points="340.5,-339.5 340.5,-418.5 438.5,-418.5 438.5,-339.5 340.5,-339.5"/>
<text text-anchor="middle" x="389.5" y="-406.5" font-family="Helvetica,sans-Serif" font-size="10.00">SDK::UStruct</text>
<polyline fill="none" stroke="black" points="340.5,-399.5 438.5,-399.5 "/>
<text text-anchor="start" x="348.5" y="-387.5" font-family="Helvetica,sans-Serif" font-size="10.00">+ UnknownData00</text>
<text text-anchor="start" x="348.5" y="-376.5" font-family="Helvetica,sans-Serif" font-size="10.00">+ PropertySize</text>
<text text-anchor="start" x="348.5" y="-365.5" font-family="Helvetica,sans-Serif" font-size="10.00">+ UnknownData01</text>
<polyline fill="none" stroke="black" points="340.5,-358.5 438.5,-358.5 "/>
<text text-anchor="start" x="348.5" y="-346.5" font-family="Helvetica,sans-Serif" font-size="10.00">+ StaticClass()</text>
</a>
</g>
</g>
<!-- Node13&#45;&gt;Node12 -->
<g id="edge15" class="edge">
<title>Node13&#45;&gt;Node12</title>
<path fill="none" stroke="midnightblue" d="M383.4,-329.16C382.22,-319.74 381.02,-310.17 379.96,-301.72"/>
<polygon fill="none" stroke="midnightblue" points="379.95,-329.79 384.66,-339.27 386.89,-328.92 379.95,-329.79"/>
</g>
<!-- Node14&#45;&gt;Node13 -->
<g id="edge16" class="edge">
<title>Node14&#45;&gt;Node13</title>
<path fill="none" stroke="midnightblue" d="M357.89,-563.57C358.86,-529.99 361.81,-479.81 370.5,-437 371.72,-430.97 373.39,-424.69 375.24,-418.6"/>
<polygon fill="none" stroke="midnightblue" points="354.39,-563.78 357.65,-573.86 361.39,-563.94 354.39,-563.78"/>
</g>
<!-- Node14&#45;&gt;Node13 -->
<g id="edge19" class="edge">
<title>Node14&#45;&gt;Node13</title>
<path fill="none" stroke="#404040" d="M361.49,-573.89C366.65,-538.17 375.74,-475.25 382.16,-430.79"/>
<polygon fill="none" stroke="#404040" points="382.18,-430.65 379.08,-424.14 383.9,-418.77 387,-425.28 382.18,-430.65"/>
<text text-anchor="middle" x="408.5" y="-480" font-family="Helvetica,sans-Serif" font-size="10.00"> +SuperField</text>
<text text-anchor="middle" x="408.5" y="-469" font-family="Helvetica,sans-Serif" font-size="10.00">+Children</text>
</g>
<!-- Node14&#45;&gt;Node14 -->
<g id="edge18" class="edge">
<title>Node14&#45;&gt;Node14</title>
<path fill="none" stroke="#404040" d="M399.21,-619.11C409.41,-617.88 417,-612.34 417,-602.5 417,-596.96 414.6,-592.79 410.68,-589.98"/>
<polygon fill="none" stroke="#404040" points="410.51,-589.92 403.51,-591.67 399.21,-585.89 406.2,-584.13 410.51,-589.92"/>
<text text-anchor="middle" x="432.5" y="-600" font-family="Helvetica,sans-Serif" font-size="10.00"> +Next</text>
</g>
</g>
</svg>
