<?xml version="1.0" encoding="UTF-8" standalone="no"?>
<!DOCTYPE svg PUBLIC "-//W3C//DTD SVG 1.1//EN"
 "http://www.w3.org/Graphics/SVG/1.1/DTD/svg11.dtd">
<!-- Generated by graphviz version 2.41.20171026.1811 (20171026.1811)
 -->
<!-- Title: SDK::UAnimNotify_CameraEffect Pages: 1 -->
<!--zoomable 1469 -->
<svg id="main" version="1.1" xmlns="http://www.w3.org/2000/svg" xmlns:xlink="http://www.w3.org/1999/xlink" xml:space="preserve" onload="init(evt)">
<style type="text/css"><![CDATA[
.edge:hover path { stroke: red; }
.edge:hover polygon { stroke: red; fill: red; }
]]></style>
<script type="text/javascript"><![CDATA[
var edges = document.getElementsByTagName('g');
if (edges && edges.length) {
  for (var i=0;i<edges.length;i++) {
    if (edges[i].id.substr(0,4)=='edge') {
      edges[i].setAttribute('class','edge');
    }
  }
}
]]></script>
        <defs>
                <circle id="rim" cx="0" cy="0" r="7"/>
                <circle id="rim2" cx="0" cy="0" r="3.5"/>
                <g id="zoomPlus">
                        <use xlink:href="#rim" fill="#404040">
                                <set attributeName="fill" to="#808080" begin="zoomplus.mouseover" end="zoomplus.mouseout"/>
                        </use>
                        <path d="M-4,0h8M0,-4v8" fill="none" stroke="white" stroke-width="1.5" pointer-events="none"/>
                </g>
                <g id="zoomMin">
                        <use xlink:href="#rim" fill="#404040">
                                <set attributeName="fill" to="#808080" begin="zoomminus.mouseover" end="zoomminus.mouseout"/>
                        </use>
                        <path d="M-4,0h8" fill="none" stroke="white" stroke-width="1.5" pointer-events="none"/>
                </g>
                <g id="dirArrow">
                        <path fill="none" stroke="white" stroke-width="1.5" d="M0,-3.0v7 M-2.5,-0.5L0,-3.0L2.5,-0.5"/>
                </g>
               <g id="resetDef">
                       <use xlink:href="#rim2" fill="#404040">
                               <set attributeName="fill" to="#808080" begin="reset.mouseover" end="reset.mouseout"/>
                       </use>
               </g>
        </defs>

<script type="text/javascript">
var viewWidth = 609;
var viewHeight = 1469;
var sectionId = 'dynsection-1';
</script>
<script xlink:href="../../svgpan.js"/>
<svg id="graph" class="graph">
<g id="viewport">
<title>SDK::UAnimNotify_CameraEffect</title>
<polygon fill="white" stroke="transparent" points="-4,4 -4,-1465 604.5,-1465 604.5,4 -4,4"/>
<!-- Node1 -->
<g id="node1" class="node">
<title>Node1</title>
<g id="a_node1"><a xlink:title=" ">
<polygon fill="#bfbfbf" stroke="black" points="353.5,-0.5 353.5,-57.5 519.5,-57.5 519.5,-0.5 353.5,-0.5"/>
<text text-anchor="middle" x="436.5" y="-45.5" font-family="Helvetica,sans-Serif" font-size="10.00">SDK::UAnimNotify_CameraEffect</text>
<polyline fill="none" stroke="black" points="353.5,-38.5 519.5,-38.5 "/>
<text text-anchor="middle" x="436.5" y="-26.5" font-family="Helvetica,sans-Serif" font-size="10.00"> </text>
<polyline fill="none" stroke="black" points="353.5,-19.5 519.5,-19.5 "/>
<text text-anchor="start" x="361.5" y="-7.5" font-family="Helvetica,sans-Serif" font-size="10.00">+ StaticClass()</text>
</a>
</g>
</g>
<!-- Node2 -->
<g id="node2" class="node">
<title>Node2</title>
<g id="a_node2"><a xlink:href="../../d8/dc5/classSDK_1_1UAnimNotify.html" target="_top" xlink:title=" ">
<polygon fill="white" stroke="black" points="466.5,-499.5 466.5,-567.5 600.5,-567.5 600.5,-499.5 466.5,-499.5"/>
<text text-anchor="middle" x="533.5" y="-555.5" font-family="Helvetica,sans-Serif" font-size="10.00">SDK::UAnimNotify</text>
<polyline fill="none" stroke="black" points="466.5,-548.5 600.5,-548.5 "/>
<text text-anchor="start" x="474.5" y="-536.5" font-family="Helvetica,sans-Serif" font-size="10.00">+ DrawNodeIndex</text>
<polyline fill="none" stroke="black" points="466.5,-529.5 600.5,-529.5 "/>
<text text-anchor="start" x="474.5" y="-517.5" font-family="Helvetica,sans-Serif" font-size="10.00">+ FindNextNotifyOfClass()</text>
<text text-anchor="start" x="474.5" y="-506.5" font-family="Helvetica,sans-Serif" font-size="10.00">+ StaticClass()</text>
</a>
</g>
</g>
<!-- Node2&#45;&gt;Node1 -->
<g id="edge1" class="edge">
<title>Node2&#45;&gt;Node1</title>
<path fill="none" stroke="midnightblue" d="M533.5,-489.11C533.5,-456.16 533.5,-409.73 533.5,-369 533.5,-369 533.5,-369 533.5,-149.5 533.5,-113.87 523.98,-103.64 501.5,-76 496.09,-69.35 489.49,-63.22 482.59,-57.76"/>
<polygon fill="none" stroke="midnightblue" points="530,-489.31 533.5,-499.31 537,-489.31 530,-489.31"/>
</g>
<!-- Node3 -->
<g id="node3" class="node">
<title>Node3</title>
<g id="a_node3"><a xlink:href="../../d9/d45/classSDK_1_1UObject.html" target="_top" xlink:title=" ">
<polygon fill="white" stroke="black" points="198.5,-648.5 198.5,-892.5 396.5,-892.5 396.5,-648.5 198.5,-648.5"/>
<text text-anchor="middle" x="297.5" y="-880.5" font-family="Helvetica,sans-Serif" font-size="10.00">SDK::UObject</text>
<polyline fill="none" stroke="black" points="198.5,-873.5 396.5,-873.5 "/>
<text text-anchor="start" x="206.5" y="-861.5" font-family="Helvetica,sans-Serif" font-size="10.00">+ ObjectInternalInteger</text>
<text text-anchor="start" x="206.5" y="-850.5" font-family="Helvetica,sans-Serif" font-size="10.00">+ NetIndex</text>
<polyline fill="none" stroke="black" points="198.5,-843.5 396.5,-843.5 "/>
<text text-anchor="start" x="206.5" y="-831.5" font-family="Helvetica,sans-Serif" font-size="10.00">+ UObject::GetName()</text>
<text text-anchor="start" x="206.5" y="-820.5" font-family="Helvetica,sans-Serif" font-size="10.00">+ GetFullName()</text>
<text text-anchor="start" x="206.5" y="-809.5" font-family="Helvetica,sans-Serif" font-size="10.00">+ IsA()</text>
<text text-anchor="start" x="206.5" y="-798.5" font-family="Helvetica,sans-Serif" font-size="10.00">+ ProcessEvent()</text>
<text text-anchor="start" x="206.5" y="-787.5" font-family="Helvetica,sans-Serif" font-size="10.00">+ STATIC_ProfNodeEvent()</text>
<text text-anchor="start" x="206.5" y="-776.5" font-family="Helvetica,sans-Serif" font-size="10.00">+ STATIC_ProfNodeSetDepthThreshold()</text>
<text text-anchor="start" x="206.5" y="-765.5" font-family="Helvetica,sans-Serif" font-size="10.00">+ STATIC_ProfNodeSetTimeThreshold</text>
<text text-anchor="start" x="206.5" y="-754.5" font-family="Helvetica,sans-Serif" font-size="10.00">Seconds()</text>
<text text-anchor="start" x="206.5" y="-743.5" font-family="Helvetica,sans-Serif" font-size="10.00">+ STATIC_ProfNodeStop()</text>
<text text-anchor="start" x="206.5" y="-732.5" font-family="Helvetica,sans-Serif" font-size="10.00">+ STATIC_ProfNodeStart()</text>
<text text-anchor="start" x="206.5" y="-721.5" font-family="Helvetica,sans-Serif" font-size="10.00">+ STATIC_GetStringFromGuid()</text>
<text text-anchor="start" x="206.5" y="-710.5" font-family="Helvetica,sans-Serif" font-size="10.00">and 298 more...</text>
<text text-anchor="start" x="206.5" y="-699.5" font-family="Helvetica,sans-Serif" font-size="10.00">+ GetGlobalObjects()</text>
<text text-anchor="start" x="206.5" y="-688.5" font-family="Helvetica,sans-Serif" font-size="10.00">+ FindObject()</text>
<text text-anchor="start" x="206.5" y="-677.5" font-family="Helvetica,sans-Serif" font-size="10.00">+ FindClass()</text>
<text text-anchor="start" x="206.5" y="-666.5" font-family="Helvetica,sans-Serif" font-size="10.00">+ GetObjectCasted()</text>
<text text-anchor="start" x="206.5" y="-655.5" font-family="Helvetica,sans-Serif" font-size="10.00">+ StaticClass()</text>
</a>
</g>
</g>
<!-- Node3&#45;&gt;Node2 -->
<g id="edge2" class="edge">
<title>Node3&#45;&gt;Node2</title>
<path fill="none" stroke="midnightblue" d="M403.98,-663.47C438.85,-628.74 475.09,-592.66 500.33,-567.53"/>
<polygon fill="none" stroke="midnightblue" points="401.18,-661.32 396.56,-670.86 406.12,-666.28 401.18,-661.32"/>
</g>
<!-- Node3&#45;&gt;Node3 -->
<g id="edge8" class="edge">
<title>Node3&#45;&gt;Node3</title>
<path fill="none" stroke="#404040" d="M396.51,-793.53C407.44,-789.15 414.5,-781.48 414.5,-770.5 414.5,-763.64 411.74,-758.07 407.01,-753.78"/>
<polygon fill="none" stroke="#404040" points="406.8,-753.66 399.59,-753.99 396.51,-747.47 403.72,-747.14 406.8,-753.66"/>
<text text-anchor="middle" x="454" y="-779" font-family="Helvetica,sans-Serif" font-size="10.00"> +Outer</text>
<text text-anchor="middle" x="454" y="-768" font-family="Helvetica,sans-Serif" font-size="10.00">+Linker</text>
<text text-anchor="middle" x="454" y="-757" font-family="Helvetica,sans-Serif" font-size="10.00">+ObjectArchetype</text>
</g>
<!-- Node9 -->
<g id="node9" class="node">
<title>Node9</title>
<g id="a_node9"><a xlink:href="../../d3/d79/classSDK_1_1TArray.html" target="_top" xlink:title=" ">
<polygon fill="white" stroke="black" points="0,-466.5 0,-600.5 161,-600.5 161,-466.5 0,-466.5"/>
<text text-anchor="middle" x="80.5" y="-588.5" font-family="Helvetica,sans-Serif" font-size="10.00">SDK::TArray&lt; SDK::UObject * &gt;</text>
<polyline fill="none" stroke="black" points="0,-581.5 161,-581.5 "/>
<text text-anchor="start" x="8" y="-569.5" font-family="Helvetica,sans-Serif" font-size="10.00">&#45; Count</text>
<text text-anchor="start" x="8" y="-558.5" font-family="Helvetica,sans-Serif" font-size="10.00">&#45; Max</text>
<polyline fill="none" stroke="black" points="0,-551.5 161,-551.5 "/>
<text text-anchor="start" x="8" y="-539.5" font-family="Helvetica,sans-Serif" font-size="10.00">+ TArray()</text>
<text text-anchor="start" x="8" y="-528.5" font-family="Helvetica,sans-Serif" font-size="10.00">+ Num()</text>
<text text-anchor="start" x="8" y="-517.5" font-family="Helvetica,sans-Serif" font-size="10.00">+ operator[]()</text>
<text text-anchor="start" x="8" y="-506.5" font-family="Helvetica,sans-Serif" font-size="10.00">+ operator[]()</text>
<text text-anchor="start" x="8" y="-495.5" font-family="Helvetica,sans-Serif" font-size="10.00">+ IsValidIndex()</text>
<text text-anchor="start" x="8" y="-484.5" font-family="Helvetica,sans-Serif" font-size="10.00">+ GetByIndex()</text>
<text text-anchor="start" x="8" y="-473.5" font-family="Helvetica,sans-Serif" font-size="10.00">+ GetByIndex()</text>
</a>
</g>
</g>
<!-- Node3&#45;&gt;Node9 -->
<g id="edge10" class="edge">
<title>Node3&#45;&gt;Node9</title>
<path fill="none" stroke="#404040" d="M198.44,-698.48C174.06,-678.12 149.3,-654.7 129.5,-630 124.79,-624.13 120.36,-617.74 116.21,-611.14"/>
<polygon fill="none" stroke="#404040" points="116.1,-610.94 109.59,-607.83 109.96,-600.63 116.46,-603.74 116.1,-610.94"/>
<text text-anchor="middle" x="143.5" y="-622" font-family="Helvetica,sans-Serif" font-size="10.00"> &#45;Data</text>
</g>
<!-- Node11 -->
<g id="node11" class="node">
<title>Node11</title>
<g id="a_node11"><a xlink:href="../../d7/d85/classSDK_1_1UClass.html" target="_top" xlink:title=" ">
<polygon fill="white" stroke="black" points="301,-105.5 301,-195.5 422,-195.5 422,-105.5 301,-105.5"/>
<text text-anchor="middle" x="361.5" y="-183.5" font-family="Helvetica,sans-Serif" font-size="10.00">SDK::UClass</text>
<polyline fill="none" stroke="black" points="301,-176.5 422,-176.5 "/>
<text text-anchor="start" x="309" y="-164.5" font-family="Helvetica,sans-Serif" font-size="10.00">+ UnknownData00</text>
<text text-anchor="start" x="309" y="-153.5" font-family="Helvetica,sans-Serif" font-size="10.00">+ UnknownData01</text>
<polyline fill="none" stroke="black" points="301,-146.5 422,-146.5 "/>
<text text-anchor="start" x="309" y="-134.5" font-family="Helvetica,sans-Serif" font-size="10.00">+ CreateDefaultObject()</text>
<text text-anchor="start" x="309" y="-123.5" font-family="Helvetica,sans-Serif" font-size="10.00">+ CreateDefaultObject()</text>
<text text-anchor="start" x="309" y="-112.5" font-family="Helvetica,sans-Serif" font-size="10.00">+ StaticClass()</text>
</a>
</g>
</g>
<!-- Node3&#45;&gt;Node11 -->
<g id="edge20" class="edge">
<title>Node3&#45;&gt;Node11</title>
<path fill="none" stroke="#404040" d="M380.51,-648.36C397.6,-613.18 410.5,-573.66 410.5,-534.5 410.5,-534.5 410.5,-534.5 410.5,-261 410.5,-242.29 404.47,-223.23 396.64,-206.37"/>
<polygon fill="none" stroke="#404040" points="396.63,-206.37 390.38,-202.79 391.27,-195.63 397.53,-199.21 396.63,-206.37"/>
<text text-anchor="middle" x="458" y="-365.5" font-family="Helvetica,sans-Serif" font-size="10.00"> +ClassDefaultObject</text>
</g>
<!-- Node14 -->
<g id="node14" class="node">
<title>Node14</title>
<g id="a_node14"><a xlink:href="../../de/dd6/classSDK_1_1UField.html" target="_top" xlink:title=" ">
<polygon fill="white" stroke="black" points="179,-505 179,-562 262,-562 262,-505 179,-505"/>
<text text-anchor="middle" x="220.5" y="-550" font-family="Helvetica,sans-Serif" font-size="10.00">SDK::UField</text>
<polyline fill="none" stroke="black" points="179,-543 262,-543 "/>
<text text-anchor="middle" x="220.5" y="-531" font-family="Helvetica,sans-Serif" font-size="10.00"> </text>
<polyline fill="none" stroke="black" points="179,-524 262,-524 "/>
<text text-anchor="start" x="187" y="-512" font-family="Helvetica,sans-Serif" font-size="10.00">+ StaticClass()</text>
</a>
</g>
</g>
<!-- Node3&#45;&gt;Node14 -->
<g id="edge17" class="edge">
<title>Node3&#45;&gt;Node14</title>
<path fill="none" stroke="midnightblue" d="M271,-638.54C268.96,-631.88 266.8,-625.34 264.5,-619 257.34,-599.25 246.45,-578.3 237.3,-562.2"/>
<polygon fill="none" stroke="midnightblue" points="267.71,-639.75 273.89,-648.35 274.42,-637.77 267.71,-639.75"/>
</g>
<!-- Node4 -->
<g id="node4" class="node">
<title>Node4</title>
<g id="a_node4"><a xlink:href="../../d0/d22/structSDK_1_1FQWord.html" target="_top" xlink:title=" ">
<polygon fill="white" stroke="black" points="308.5,-990 308.5,-1058 388.5,-1058 388.5,-990 308.5,-990"/>
<text text-anchor="middle" x="348.5" y="-1046" font-family="Helvetica,sans-Serif" font-size="10.00">SDK::FQWord</text>
<polyline fill="none" stroke="black" points="308.5,-1039 388.5,-1039 "/>
<text text-anchor="start" x="316.5" y="-1027" font-family="Helvetica,sans-Serif" font-size="10.00">+ A</text>
<text text-anchor="start" x="316.5" y="-1016" font-family="Helvetica,sans-Serif" font-size="10.00">+ B</text>
<polyline fill="none" stroke="black" points="308.5,-1009 388.5,-1009 "/>
<text text-anchor="middle" x="348.5" y="-997" font-family="Helvetica,sans-Serif" font-size="10.00"> </text>
</a>
</g>
</g>
<!-- Node4&#45;&gt;Node3 -->
<g id="edge3" class="edge">
<title>Node4&#45;&gt;Node3</title>
<path fill="none" stroke="#404040" d="M341.78,-989.86C337.26,-967.57 330.97,-936.56 324.55,-904.9"/>
<polygon fill="none" stroke="#404040" points="324.47,-904.51 319.36,-899.43 322.09,-892.75 327.2,-897.84 324.47,-904.51"/>
<text text-anchor="middle" x="363.5" y="-925" font-family="Helvetica,sans-Serif" font-size="10.00"> +ObjectFlags</text>
</g>
<!-- Node5 -->
<g id="node5" class="node">
<title>Node5</title>
<g id="a_node5"><a xlink:href="../../d0/db6/structSDK_1_1FName.html" target="_top" xlink:title=" ">
<polygon fill="white" stroke="black" points="183,-962.5 183,-1085.5 290,-1085.5 290,-962.5 183,-962.5"/>
<text text-anchor="middle" x="236.5" y="-1073.5" font-family="Helvetica,sans-Serif" font-size="10.00">SDK::FName</text>
<polyline fill="none" stroke="black" points="183,-1066.5 290,-1066.5 "/>
<text text-anchor="start" x="191" y="-1054.5" font-family="Helvetica,sans-Serif" font-size="10.00">+ Index</text>
<text text-anchor="start" x="191" y="-1043.5" font-family="Helvetica,sans-Serif" font-size="10.00">+ Number</text>
<polyline fill="none" stroke="black" points="183,-1036.5 290,-1036.5 "/>
<text text-anchor="start" x="191" y="-1024.5" font-family="Helvetica,sans-Serif" font-size="10.00">+ FName()</text>
<text text-anchor="start" x="191" y="-1013.5" font-family="Helvetica,sans-Serif" font-size="10.00">+ FName()</text>
<text text-anchor="start" x="191" y="-1002.5" font-family="Helvetica,sans-Serif" font-size="10.00">+ FName()</text>
<text text-anchor="start" x="191" y="-991.5" font-family="Helvetica,sans-Serif" font-size="10.00">+ GetName()</text>
<text text-anchor="start" x="191" y="-980.5" font-family="Helvetica,sans-Serif" font-size="10.00">+ operator==()</text>
<text text-anchor="start" x="191" y="-969.5" font-family="Helvetica,sans-Serif" font-size="10.00">+ GetGlobalNames()</text>
</a>
</g>
</g>
<!-- Node5&#45;&gt;Node3 -->
<g id="edge4" class="edge">
<title>Node5&#45;&gt;Node3</title>
<path fill="none" stroke="#404040" d="M251.19,-962.44C255.46,-944.82 260.31,-924.84 265.21,-904.61"/>
<polygon fill="none" stroke="#404040" points="265.28,-904.35 262.81,-897.57 268.11,-892.69 270.58,-899.46 265.28,-904.35"/>
<text text-anchor="middle" x="281.5" y="-925" font-family="Helvetica,sans-Serif" font-size="10.00"> +Name</text>
</g>
<!-- Node6 -->
<g id="node6" class="node">
<title>Node6</title>
<g id="a_node6"><a xlink:href="../../d3/d79/classSDK_1_1TArray.html" target="_top" xlink:title=" ">
<polygon fill="white" stroke="black" points="146.5,-1133.5 146.5,-1267.5 326.5,-1267.5 326.5,-1133.5 146.5,-1133.5"/>
<text text-anchor="middle" x="236.5" y="-1255.5" font-family="Helvetica,sans-Serif" font-size="10.00">SDK::TArray&lt; SDK::FNameEntry * &gt;</text>
<polyline fill="none" stroke="black" points="146.5,-1248.5 326.5,-1248.5 "/>
<text text-anchor="start" x="154.5" y="-1236.5" font-family="Helvetica,sans-Serif" font-size="10.00">&#45; Count</text>
<text text-anchor="start" x="154.5" y="-1225.5" font-family="Helvetica,sans-Serif" font-size="10.00">&#45; Max</text>
<polyline fill="none" stroke="black" points="146.5,-1218.5 326.5,-1218.5 "/>
<text text-anchor="start" x="154.5" y="-1206.5" font-family="Helvetica,sans-Serif" font-size="10.00">+ TArray()</text>
<text text-anchor="start" x="154.5" y="-1195.5" font-family="Helvetica,sans-Serif" font-size="10.00">+ Num()</text>
<text text-anchor="start" x="154.5" y="-1184.5" font-family="Helvetica,sans-Serif" font-size="10.00">+ operator[]()</text>
<text text-anchor="start" x="154.5" y="-1173.5" font-family="Helvetica,sans-Serif" font-size="10.00">+ operator[]()</text>
<text text-anchor="start" x="154.5" y="-1162.5" font-family="Helvetica,sans-Serif" font-size="10.00">+ IsValidIndex()</text>
<text text-anchor="start" x="154.5" y="-1151.5" font-family="Helvetica,sans-Serif" font-size="10.00">+ GetByIndex()</text>
<text text-anchor="start" x="154.5" y="-1140.5" font-family="Helvetica,sans-Serif" font-size="10.00">+ GetByIndex()</text>
</a>
</g>
</g>
<!-- Node6&#45;&gt;Node5 -->
<g id="edge5" class="edge">
<title>Node6&#45;&gt;Node5</title>
<path fill="none" stroke="#404040" d="M236.5,-1133.03C236.5,-1121.45 236.5,-1109.35 236.5,-1097.62"/>
<polygon fill="none" stroke="#404040" points="236.5,-1097.56 232.5,-1091.56 236.5,-1085.56 240.5,-1091.56 236.5,-1097.56"/>
<text text-anchor="middle" x="261" y="-1107" font-family="Helvetica,sans-Serif" font-size="10.00"> +GNames</text>
</g>
<!-- Node7 -->
<g id="node7" class="node">
<title>Node7</title>
<g id="a_node7"><a xlink:href="../../d7/ddf/classSDK_1_1FNameEntry.html" target="_top" xlink:title=" ">
<polygon fill="white" stroke="black" points="191,-1354 191,-1422 290,-1422 290,-1354 191,-1354"/>
<text text-anchor="middle" x="240.5" y="-1410" font-family="Helvetica,sans-Serif" font-size="10.00">SDK::FNameEntry</text>
<polyline fill="none" stroke="black" points="191,-1403 290,-1403 "/>
<text text-anchor="start" x="199" y="-1391" font-family="Helvetica,sans-Serif" font-size="10.00">+ UnknownData00</text>
<text text-anchor="start" x="199" y="-1380" font-family="Helvetica,sans-Serif" font-size="10.00">+ name</text>
<polyline fill="none" stroke="black" points="191,-1373 290,-1373 "/>
<text text-anchor="start" x="199" y="-1361" font-family="Helvetica,sans-Serif" font-size="10.00">+ GetName()</text>
</a>
</g>
</g>
<!-- Node7&#45;&gt;Node6 -->
<g id="edge6" class="edge">
<title>Node7&#45;&gt;Node6</title>
<path fill="none" stroke="#404040" d="M239.78,-1353.84C239.34,-1333.23 238.75,-1305.83 238.19,-1279.95"/>
<polygon fill="none" stroke="#404040" points="238.19,-1279.8 234.06,-1273.89 237.93,-1267.8 242.06,-1273.71 238.19,-1279.8"/>
<text text-anchor="middle" x="252.5" y="-1289" font-family="Helvetica,sans-Serif" font-size="10.00"> &#45;Data</text>
</g>
<!-- Node8 -->
<g id="node8" class="node">
<title>Node8</title>
<g id="a_node8"><a xlink:href="../../d3/d79/classSDK_1_1TArray.html" target="_top" xlink:title=" ">
<polygon fill="white" stroke="black" points="42,-1315.5 42,-1460.5 139,-1460.5 139,-1315.5 42,-1315.5"/>
<text text-anchor="middle" x="90.5" y="-1448.5" font-family="Helvetica,sans-Serif" font-size="10.00">SDK::TArray&lt; T &gt;</text>
<polyline fill="none" stroke="black" points="42,-1441.5 139,-1441.5 "/>
<text text-anchor="start" x="50" y="-1429.5" font-family="Helvetica,sans-Serif" font-size="10.00">&#45; Data</text>
<text text-anchor="start" x="50" y="-1418.5" font-family="Helvetica,sans-Serif" font-size="10.00">&#45; Count</text>
<text text-anchor="start" x="50" y="-1407.5" font-family="Helvetica,sans-Serif" font-size="10.00">&#45; Max</text>
<polyline fill="none" stroke="black" points="42,-1400.5 139,-1400.5 "/>
<text text-anchor="start" x="50" y="-1388.5" font-family="Helvetica,sans-Serif" font-size="10.00">+ TArray()</text>
<text text-anchor="start" x="50" y="-1377.5" font-family="Helvetica,sans-Serif" font-size="10.00">+ Num()</text>
<text text-anchor="start" x="50" y="-1366.5" font-family="Helvetica,sans-Serif" font-size="10.00">+ operator[]()</text>
<text text-anchor="start" x="50" y="-1355.5" font-family="Helvetica,sans-Serif" font-size="10.00">+ operator[]()</text>
<text text-anchor="start" x="50" y="-1344.5" font-family="Helvetica,sans-Serif" font-size="10.00">+ IsValidIndex()</text>
<text text-anchor="start" x="50" y="-1333.5" font-family="Helvetica,sans-Serif" font-size="10.00">+ GetByIndex()</text>
<text text-anchor="start" x="50" y="-1322.5" font-family="Helvetica,sans-Serif" font-size="10.00">+ GetByIndex()</text>
</a>
</g>
</g>
<!-- Node8&#45;&gt;Node6 -->
<g id="edge7" class="edge">
<title>Node8&#45;&gt;Node6</title>
<path fill="none" stroke="orange" d="M112.01,-1305.72C115.33,-1298.77 119.14,-1292.08 123.5,-1286 130.07,-1276.84 137.92,-1268.25 146.39,-1260.31"/>
<polygon fill="orange" stroke="orange" points="108.61,-1304.77 107.78,-1315.33 115.01,-1307.59 108.61,-1304.77"/>
<text text-anchor="middle" x="179" y="-1289" font-family="Helvetica,sans-Serif" font-size="10.00"> &lt; SDK::FNameEntry * &gt;</text>
</g>
<!-- Node8&#45;&gt;Node9 -->
<g id="edge11" class="edge">
<title>Node8&#45;&gt;Node9</title>
<path fill="none" stroke="orange" d="M79.75,-1305.08C76.37,-1272.85 73.5,-1235.5 73.5,-1201.5 73.5,-1201.5 73.5,-1201.5 73.5,-769.5 73.5,-712.46 75.59,-647.66 77.48,-600.58"/>
<polygon fill="orange" stroke="orange" points="76.3,-1305.78 80.86,-1315.35 83.26,-1305.03 76.3,-1305.78"/>
<text text-anchor="middle" x="119" y="-1021.5" font-family="Helvetica,sans-Serif" font-size="10.00"> &lt; SDK::UObject * &gt;</text>
</g>
<!-- Node9&#45;&gt;Node3 -->
<g id="edge9" class="edge">
<title>Node9&#45;&gt;Node3</title>
<path fill="none" stroke="#404040" d="M144.36,-600.75C150.18,-606.9 155.96,-613.05 161.5,-619 170.87,-629.07 180.55,-639.57 190.22,-650.14"/>
<polygon fill="none" stroke="#404040" points="190.25,-650.16 197.25,-651.89 198.34,-659.02 191.34,-657.29 190.25,-650.16"/>
<text text-anchor="middle" x="195" y="-622" font-family="Helvetica,sans-Serif" font-size="10.00"> +GObjects</text>
</g>
<!-- Node10 -->
<g id="node10" class="node">
<title>Node10</title>
<g id="a_node10"><a xlink:href="../../d9/dfa/structSDK_1_1FPointer.html" target="_top" xlink:title=" ">
<polygon fill="white" stroke="black" points="406.5,-990 406.5,-1058 504.5,-1058 504.5,-990 406.5,-990"/>
<text text-anchor="middle" x="455.5" y="-1046" font-family="Helvetica,sans-Serif" font-size="10.00">SDK::FPointer</text>
<polyline fill="none" stroke="black" points="406.5,-1039 504.5,-1039 "/>
<text text-anchor="start" x="414.5" y="-1027" font-family="Helvetica,sans-Serif" font-size="10.00">+ Dummy</text>
<text text-anchor="start" x="414.5" y="-1016" font-family="Helvetica,sans-Serif" font-size="10.00">+ UnknownData00</text>
<polyline fill="none" stroke="black" points="406.5,-1009 504.5,-1009 "/>
<text text-anchor="middle" x="455.5" y="-997" font-family="Helvetica,sans-Serif" font-size="10.00"> </text>
</a>
</g>
</g>
<!-- Node10&#45;&gt;Node3 -->
<g id="edge12" class="edge">
<title>Node10&#45;&gt;Node3</title>
<path fill="none" stroke="#404040" d="M440.34,-989.92C429.54,-967.23 414.2,-936.69 398.5,-911 396.9,-908.38 395.26,-905.74 393.59,-903.09"/>
<polygon fill="none" stroke="#404040" points="393.51,-902.96 386.9,-900.06 387.03,-892.85 393.64,-895.75 393.51,-902.96"/>
<text text-anchor="middle" x="451" y="-936" font-family="Helvetica,sans-Serif" font-size="10.00"> +StateFrame</text>
<text text-anchor="middle" x="451" y="-925" font-family="Helvetica,sans-Serif" font-size="10.00">+VfTableObject</text>
<text text-anchor="middle" x="451" y="-914" font-family="Helvetica,sans-Serif" font-size="10.00">+LinkerIndex</text>
</g>
<!-- Node11&#45;&gt;Node1 -->
<g id="edge22" class="edge">
<title>Node11&#45;&gt;Node1</title>
<path fill="none" stroke="#404040" d="M389.21,-105.34C396.88,-93.13 405.14,-79.97 412.57,-68.13"/>
<polygon fill="none" stroke="#404040" points="412.74,-67.85 412.55,-60.64 419.12,-57.69 419.32,-64.9 412.74,-67.85"/>
<text text-anchor="middle" x="452" y="-79" font-family="Helvetica,sans-Serif" font-size="10.00"> +CameraLensEffect</text>
</g>
<!-- Node11&#45;&gt;Node3 -->
<g id="edge13" class="edge">
<title>Node11&#45;&gt;Node3</title>
<path fill="none" stroke="#404040" d="M348.51,-195.58C343.75,-215.4 339.5,-239.19 339.5,-261 339.5,-534.5 339.5,-534.5 339.5,-534.5 339.5,-567.72 335.38,-603.18 329.73,-636.21"/>
<polygon fill="none" stroke="#404040" points="329.68,-636.45 332.57,-643.06 327.58,-648.26 324.69,-641.66 329.68,-636.45"/>
<text text-anchor="middle" x="357" y="-365.5" font-family="Helvetica,sans-Serif" font-size="10.00"> +Class</text>
</g>
<!-- Node12 -->
<g id="node12" class="node">
<title>Node12</title>
<g id="a_node12"><a xlink:href="../../df/d72/classSDK_1_1UState.html" target="_top" xlink:title=" ">
<polygon fill="white" stroke="black" points="211.5,-233.5 211.5,-290.5 309.5,-290.5 309.5,-233.5 211.5,-233.5"/>
<text text-anchor="middle" x="260.5" y="-278.5" font-family="Helvetica,sans-Serif" font-size="10.00">SDK::UState</text>
<polyline fill="none" stroke="black" points="211.5,-271.5 309.5,-271.5 "/>
<text text-anchor="start" x="219.5" y="-259.5" font-family="Helvetica,sans-Serif" font-size="10.00">+ UnknownData00</text>
<polyline fill="none" stroke="black" points="211.5,-252.5 309.5,-252.5 "/>
<text text-anchor="start" x="219.5" y="-240.5" font-family="Helvetica,sans-Serif" font-size="10.00">+ StaticClass()</text>
</a>
</g>
</g>
<!-- Node12&#45;&gt;Node11 -->
<g id="edge14" class="edge">
<title>Node12&#45;&gt;Node11</title>
<path fill="none" stroke="midnightblue" d="M292.88,-225.9C301.73,-216.3 311.44,-205.78 320.69,-195.74"/>
<polygon fill="none" stroke="midnightblue" points="290.19,-223.64 285.99,-233.37 295.34,-228.39 290.19,-223.64"/>
</g>
<!-- Node13 -->
<g id="node13" class="node">
<title>Node13</title>
<g id="a_node13"><a xlink:href="../../d8/de9/classSDK_1_1UStruct.html" target="_top" xlink:title=" ">
<polygon fill="white" stroke="black" points="205.5,-328.5 205.5,-407.5 303.5,-407.5 303.5,-328.5 205.5,-328.5"/>
<text text-anchor="middle" x="254.5" y="-395.5" font-family="Helvetica,sans-Serif" font-size="10.00">SDK::UStruct</text>
<polyline fill="none" stroke="black" points="205.5,-388.5 303.5,-388.5 "/>
<text text-anchor="start" x="213.5" y="-376.5" font-family="Helvetica,sans-Serif" font-size="10.00">+ UnknownData00</text>
<text text-anchor="start" x="213.5" y="-365.5" font-family="Helvetica,sans-Serif" font-size="10.00">+ PropertySize</text>
<text text-anchor="start" x="213.5" y="-354.5" font-family="Helvetica,sans-Serif" font-size="10.00">+ UnknownData01</text>
<polyline fill="none" stroke="black" points="205.5,-347.5 303.5,-347.5 "/>
<text text-anchor="start" x="213.5" y="-335.5" font-family="Helvetica,sans-Serif" font-size="10.00">+ StaticClass()</text>
</a>
</g>
</g>
<!-- Node13&#45;&gt;Node12 -->
<g id="edge15" class="edge">
<title>Node13&#45;&gt;Node12</title>
<path fill="none" stroke="midnightblue" d="M257.32,-318.16C257.86,-308.74 258.41,-299.17 258.9,-290.72"/>
<polygon fill="none" stroke="midnightblue" points="253.82,-318.09 256.73,-328.27 260.8,-318.49 253.82,-318.09"/>
</g>
<!-- Node14&#45;&gt;Node13 -->
<g id="edge16" class="edge">
<title>Node14&#45;&gt;Node13</title>
<path fill="none" stroke="midnightblue" d="M241.74,-495.6C248.87,-481.23 255.92,-464.31 259.5,-448 262.36,-434.98 262.33,-420.48 261.2,-407.5"/>
<polygon fill="none" stroke="midnightblue" points="238.55,-494.15 237.08,-504.64 244.77,-497.36 238.55,-494.15"/>
</g>
<!-- Node14&#45;&gt;Node13 -->
<g id="edge19" class="edge">
<title>Node14&#45;&gt;Node13</title>
<path fill="none" stroke="#404040" d="M206.68,-504.99C197.59,-482.99 189.13,-451.69 199.5,-426 200.65,-423.15 202.02,-420.37 203.55,-417.66"/>
<polygon fill="none" stroke="#404040" points="203.59,-417.6 203.58,-410.39 210.23,-407.6 210.24,-414.82 203.59,-417.6"/>
<text text-anchor="middle" x="227.5" y="-440" font-family="Helvetica,sans-Serif" font-size="10.00"> +SuperField</text>
<text text-anchor="middle" x="227.5" y="-429" font-family="Helvetica,sans-Serif" font-size="10.00">+Children</text>
</g>
<!-- Node14&#45;&gt;Node14 -->
<g id="edge18" class="edge">
<title>Node14&#45;&gt;Node14</title>
<path fill="none" stroke="#404040" d="M262.21,-550.11C272.41,-548.88 280,-543.34 280,-533.5 280,-527.96 277.6,-523.79 273.68,-520.98"/>
<polygon fill="none" stroke="#404040" points="273.51,-520.92 266.51,-522.67 262.21,-516.89 269.2,-515.13 273.51,-520.92"/>
<text text-anchor="middle" x="295.5" y="-531" font-family="Helvetica,sans-Serif" font-size="10.00"> +Next</text>
</g>
<!-- Node15 -->
<g id="node15" class="node">
<title>Node15</title>
<g id="a_node15"><a xlink:href="../../d4/daf/structSDK_1_1FColor.html" target="_top" xlink:title=" ">
<polygon fill="white" stroke="black" points="512,-720 512,-821 585,-821 585,-720 512,-720"/>
<text text-anchor="middle" x="548.5" y="-809" font-family="Helvetica,sans-Serif" font-size="10.00">SDK::FColor</text>
<polyline fill="none" stroke="black" points="512,-802 585,-802 "/>
<text text-anchor="start" x="520" y="-790" font-family="Helvetica,sans-Serif" font-size="10.00">+ B</text>
<text text-anchor="start" x="520" y="-779" font-family="Helvetica,sans-Serif" font-size="10.00">+ G</text>
<text text-anchor="start" x="520" y="-768" font-family="Helvetica,sans-Serif" font-size="10.00">+ R</text>
<text text-anchor="start" x="520" y="-757" font-family="Helvetica,sans-Serif" font-size="10.00">+ A</text>
<polyline fill="none" stroke="black" points="512,-750 585,-750 "/>
<text text-anchor="start" x="520" y="-738" font-family="Helvetica,sans-Serif" font-size="10.00">+ FColor()</text>
<text text-anchor="start" x="520" y="-727" font-family="Helvetica,sans-Serif" font-size="10.00">+ FColor()</text>
</a>
</g>
</g>
<!-- Node15&#45;&gt;Node2 -->
<g id="edge21" class="edge">
<title>Node15&#45;&gt;Node2</title>
<path fill="none" stroke="#404040" d="M545.34,-719.95C542.69,-678.55 538.96,-619.99 536.39,-579.82"/>
<polygon fill="none" stroke="#404040" points="536.39,-579.7 532.01,-573.97 535.62,-567.72 539.99,-573.46 536.39,-579.7"/>
<text text-anchor="middle" x="569" y="-622" font-family="Helvetica,sans-Serif" font-size="10.00"> +NotifyColor</text>
</g>
</g>
</svg>
        <g id="navigator" transform="translate(0 0)" fill="#404254">
                <rect fill="#f2f5e9" fill-opacity="0.5" stroke="#606060" stroke-width=".5" x="0" y="0" width="60" height="60"/>
                <use id="zoomplus" xlink:href="#zoomPlus" x="17" y="9" onmousedown="handleZoom(evt,'in')"/>
                <use id="zoomminus" xlink:href="#zoomMin" x="42" y="9" onmousedown="handleZoom(evt,'out')"/>
                <use id="reset" xlink:href="#resetDef" x="30" y="36" onmousedown="handleReset()"/>
                <g id="arrowUp" xlink:href="#dirArrow" transform="translate(30 24)" onmousedown="handlePan(0,-1)">
                  <use xlink:href="#rim" fill="#404040">
                        <set attributeName="fill" to="#808080" begin="arrowUp.mouseover" end="arrowUp.mouseout"/>
                  </use>
                  <path fill="none" stroke="white" stroke-width="1.5" d="M0,-3.0v7 M-2.5,-0.5L0,-3.0L2.5,-0.5"/>
                </g>
                <g id="arrowRight" xlink:href="#dirArrow" transform="rotate(90) translate(36 -43)" onmousedown="handlePan(1,0)">
                  <use xlink:href="#rim" fill="#404040">
                        <set attributeName="fill" to="#808080" begin="arrowRight.mouseover" end="arrowRight.mouseout"/>
                  </use>
                  <path fill="none" stroke="white" stroke-width="1.5" d="M0,-3.0v7 M-2.5,-0.5L0,-3.0L2.5,-0.5"/>
                </g>
                <g id="arrowDown" xlink:href="#dirArrow" transform="rotate(180) translate(-30 -48)" onmousedown="handlePan(0,1)">
                  <use xlink:href="#rim" fill="#404040">
                        <set attributeName="fill" to="#808080" begin="arrowDown.mouseover" end="arrowDown.mouseout"/>
                  </use>
                  <path fill="none" stroke="white" stroke-width="1.5" d="M0,-3.0v7 M-2.5,-0.5L0,-3.0L2.5,-0.5"/>
                </g>
                <g id="arrowLeft" xlink:href="#dirArrow" transform="rotate(270) translate(-36 17)" onmousedown="handlePan(-1,0)">
                  <use xlink:href="#rim" fill="#404040">
                        <set attributeName="fill" to="#808080" begin="arrowLeft.mouseover" end="arrowLeft.mouseout"/>
                  </use>
                  <path fill="none" stroke="white" stroke-width="1.5" d="M0,-3.0v7 M-2.5,-0.5L0,-3.0L2.5,-0.5"/>
                </g>
        </g>
        <svg viewBox="0 0 15 15" width="100%" height="30px" preserveAspectRatio="xMaxYMin meet">
         <g id="arrow_out" transform="scale(0.3 0.3)">
          <a xlink:href="classSDK_1_1UAnimNotify__CameraEffect__coll__graph_org.svg" target="_base">
           <rect id="button" ry="5" rx="5" y="6" x="6" height="38" width="38"
                fill="#f2f5e9" fill-opacity="0.5" stroke="#606060" stroke-width="1.0"/>
           <path id="arrow"
             d="M 11.500037,31.436501 C 11.940474,20.09759 22.043105,11.32322 32.158766,21.979434 L 37.068811,17.246167 C 37.068811,17.246167 37.088388,32 37.088388,32 L 22.160133,31.978069 C 22.160133,31.978069 26.997745,27.140456 26.997745,27.140456 C 18.528582,18.264221 13.291696,25.230495 11.500037,31.436501 z"
             style="fill:#404040;"/>
          </a>
         </g>
        </svg>
</svg>
