<?xml version="1.0" encoding="UTF-8" standalone="no"?>
<!DOCTYPE svg PUBLIC "-//W3C//DTD SVG 1.1//EN"
 "http://www.w3.org/Graphics/SVG/1.1/DTD/svg11.dtd">
<!-- Generated by graphviz version 2.41.20171026.1811 (20171026.1811)
 -->
<!-- Title: SDK::UCheatManager Pages: 1 -->
<!--zoomable 1488 -->
<svg id="main" version="1.1" xmlns="http://www.w3.org/2000/svg" xmlns:xlink="http://www.w3.org/1999/xlink" xml:space="preserve" onload="init(evt)">
<style type="text/css"><![CDATA[
.edge:hover path { stroke: red; }
.edge:hover polygon { stroke: red; fill: red; }
]]></style>
<script type="text/javascript"><![CDATA[
var edges = document.getElementsByTagName('g');
if (edges && edges.length) {
  for (var i=0;i<edges.length;i++) {
    if (edges[i].id.substr(0,4)=='edge') {
      edges[i].setAttribute('class','edge');
    }
  }
}
]]></script>
        <defs>
                <circle id="rim" cx="0" cy="0" r="7"/>
                <circle id="rim2" cx="0" cy="0" r="3.5"/>
                <g id="zoomPlus">
                        <use xlink:href="#rim" fill="#404040">
                                <set attributeName="fill" to="#808080" begin="zoomplus.mouseover" end="zoomplus.mouseout"/>
                        </use>
                        <path d="M-4,0h8M0,-4v8" fill="none" stroke="white" stroke-width="1.5" pointer-events="none"/>
                </g>
                <g id="zoomMin">
                        <use xlink:href="#rim" fill="#404040">
                                <set attributeName="fill" to="#808080" begin="zoomminus.mouseover" end="zoomminus.mouseout"/>
                        </use>
                        <path d="M-4,0h8" fill="none" stroke="white" stroke-width="1.5" pointer-events="none"/>
                </g>
                <g id="dirArrow">
                        <path fill="none" stroke="white" stroke-width="1.5" d="M0,-3.0v7 M-2.5,-0.5L0,-3.0L2.5,-0.5"/>
                </g>
               <g id="resetDef">
                       <use xlink:href="#rim2" fill="#404040">
                               <set attributeName="fill" to="#808080" begin="reset.mouseover" end="reset.mouseout"/>
                       </use>
               </g>
        </defs>

<script type="text/javascript">
var viewWidth = 685;
var viewHeight = 1488;
var sectionId = 'dynsection-1';
</script>
<script xlink:href="../../svgpan.js"/>
<svg id="graph" class="graph">
<g id="viewport">
<title>SDK::UCheatManager</title>
<polygon fill="white" stroke="transparent" points="-4,4 -4,-1484 681,-1484 681,4 -4,4"/>
<!-- Node1 -->
<g id="node1" class="node">
<title>Node1</title>
<g id="a_node1"><a xlink:title=" ">
<polygon fill="#bfbfbf" stroke="black" points="489,-361.5 489,-539.5 677,-539.5 677,-361.5 489,-361.5"/>
<text text-anchor="middle" x="583" y="-527.5" font-family="Helvetica,sans-Serif" font-size="10.00">SDK::UCheatManager</text>
<polyline fill="none" stroke="black" points="489,-520.5 677,-520.5 "/>
<text text-anchor="middle" x="583" y="-508.5" font-family="Helvetica,sans-Serif" font-size="10.00"> </text>
<polyline fill="none" stroke="black" points="489,-501.5 677,-501.5 "/>
<text text-anchor="start" x="497" y="-489.5" font-family="Helvetica,sans-Serif" font-size="10.00">+ OnGoogleSubscriptionAddComplete()</text>
<text text-anchor="start" x="497" y="-478.5" font-family="Helvetica,sans-Serif" font-size="10.00">+ SubscribeToChairChannel()</text>
<text text-anchor="start" x="497" y="-467.5" font-family="Helvetica,sans-Serif" font-size="10.00">+ OnGoogleSubscriptionsComplete()</text>
<text text-anchor="start" x="497" y="-456.5" font-family="Helvetica,sans-Serif" font-size="10.00">+ OnGoogleFriendsComplete()</text>
<text text-anchor="start" x="497" y="-445.5" font-family="Helvetica,sans-Serif" font-size="10.00">+ GoogleRevoke()</text>
<text text-anchor="start" x="497" y="-434.5" font-family="Helvetica,sans-Serif" font-size="10.00">+ OnGoogleAuthComplete()</text>
<text text-anchor="start" x="497" y="-423.5" font-family="Helvetica,sans-Serif" font-size="10.00">+ GoogleAuth()</text>
<text text-anchor="start" x="497" y="-412.5" font-family="Helvetica,sans-Serif" font-size="10.00">+ AnalyticsEndSession()</text>
<text text-anchor="start" x="497" y="-401.5" font-family="Helvetica,sans-Serif" font-size="10.00">+ AnalyticsStartSession()</text>
<text text-anchor="start" x="497" y="-390.5" font-family="Helvetica,sans-Serif" font-size="10.00">+ GetAnalyticsUserId()</text>
<text text-anchor="start" x="497" y="-379.5" font-family="Helvetica,sans-Serif" font-size="10.00">and 90 more...</text>
<text text-anchor="start" x="497" y="-368.5" font-family="Helvetica,sans-Serif" font-size="10.00">+ StaticClass()</text>
</a>
</g>
</g>
<!-- Node2 -->
<g id="node2" class="node">
<title>Node2</title>
<g id="a_node2"><a xlink:href="../../d9/d45/classSDK_1_1UObject.html" target="_top" xlink:title=" ">
<polygon fill="white" stroke="black" points="111,-587.5 111,-831.5 309,-831.5 309,-587.5 111,-587.5"/>
<text text-anchor="middle" x="210" y="-819.5" font-family="Helvetica,sans-Serif" font-size="10.00">SDK::UObject</text>
<polyline fill="none" stroke="black" points="111,-812.5 309,-812.5 "/>
<text text-anchor="start" x="119" y="-800.5" font-family="Helvetica,sans-Serif" font-size="10.00">+ ObjectInternalInteger</text>
<text text-anchor="start" x="119" y="-789.5" font-family="Helvetica,sans-Serif" font-size="10.00">+ NetIndex</text>
<polyline fill="none" stroke="black" points="111,-782.5 309,-782.5 "/>
<text text-anchor="start" x="119" y="-770.5" font-family="Helvetica,sans-Serif" font-size="10.00">+ UObject::GetName()</text>
<text text-anchor="start" x="119" y="-759.5" font-family="Helvetica,sans-Serif" font-size="10.00">+ GetFullName()</text>
<text text-anchor="start" x="119" y="-748.5" font-family="Helvetica,sans-Serif" font-size="10.00">+ IsA()</text>
<text text-anchor="start" x="119" y="-737.5" font-family="Helvetica,sans-Serif" font-size="10.00">+ ProcessEvent()</text>
<text text-anchor="start" x="119" y="-726.5" font-family="Helvetica,sans-Serif" font-size="10.00">+ STATIC_ProfNodeEvent()</text>
<text text-anchor="start" x="119" y="-715.5" font-family="Helvetica,sans-Serif" font-size="10.00">+ STATIC_ProfNodeSetDepthThreshold()</text>
<text text-anchor="start" x="119" y="-704.5" font-family="Helvetica,sans-Serif" font-size="10.00">+ STATIC_ProfNodeSetTimeThreshold</text>
<text text-anchor="start" x="119" y="-693.5" font-family="Helvetica,sans-Serif" font-size="10.00">Seconds()</text>
<text text-anchor="start" x="119" y="-682.5" font-family="Helvetica,sans-Serif" font-size="10.00">+ STATIC_ProfNodeStop()</text>
<text text-anchor="start" x="119" y="-671.5" font-family="Helvetica,sans-Serif" font-size="10.00">+ STATIC_ProfNodeStart()</text>
<text text-anchor="start" x="119" y="-660.5" font-family="Helvetica,sans-Serif" font-size="10.00">+ STATIC_GetStringFromGuid()</text>
<text text-anchor="start" x="119" y="-649.5" font-family="Helvetica,sans-Serif" font-size="10.00">and 298 more...</text>
<text text-anchor="start" x="119" y="-638.5" font-family="Helvetica,sans-Serif" font-size="10.00">+ GetGlobalObjects()</text>
<text text-anchor="start" x="119" y="-627.5" font-family="Helvetica,sans-Serif" font-size="10.00">+ FindObject()</text>
<text text-anchor="start" x="119" y="-616.5" font-family="Helvetica,sans-Serif" font-size="10.00">+ FindClass()</text>
<text text-anchor="start" x="119" y="-605.5" font-family="Helvetica,sans-Serif" font-size="10.00">+ GetObjectCasted()</text>
<text text-anchor="start" x="119" y="-594.5" font-family="Helvetica,sans-Serif" font-size="10.00">+ StaticClass()</text>
</a>
</g>
</g>
<!-- Node2&#45;&gt;Node1 -->
<g id="edge1" class="edge">
<title>Node2&#45;&gt;Node1</title>
<path fill="none" stroke="midnightblue" d="M317.85,-646.34C368.28,-615.99 428.45,-577.9 480,-540 482.94,-537.84 485.91,-535.61 488.88,-533.34"/>
<polygon fill="none" stroke="midnightblue" points="315.98,-643.38 309.2,-651.53 319.58,-649.39 315.98,-643.38"/>
</g>
<!-- Node2&#45;&gt;Node2 -->
<g id="edge7" class="edge">
<title>Node2&#45;&gt;Node2</title>
<path fill="none" stroke="#404040" d="M309.01,-732.53C319.94,-728.15 327,-720.48 327,-709.5 327,-702.64 324.24,-697.07 319.51,-692.78"/>
<polygon fill="none" stroke="#404040" points="319.3,-692.66 312.09,-692.99 309.01,-686.47 316.22,-686.14 319.3,-692.66"/>
<text text-anchor="middle" x="366.5" y="-718" font-family="Helvetica,sans-Serif" font-size="10.00"> +Outer</text>
<text text-anchor="middle" x="366.5" y="-707" font-family="Helvetica,sans-Serif" font-size="10.00">+Linker</text>
<text text-anchor="middle" x="366.5" y="-696" font-family="Helvetica,sans-Serif" font-size="10.00">+ObjectArchetype</text>
</g>
<!-- Node8 -->
<g id="node8" class="node">
<title>Node8</title>
<g id="a_node8"><a xlink:href="../../d3/d79/classSDK_1_1TArray.html" target="_top" xlink:title=" ">
<polygon fill="white" stroke="black" points="309.5,-383.5 309.5,-517.5 470.5,-517.5 470.5,-383.5 309.5,-383.5"/>
<text text-anchor="middle" x="390" y="-505.5" font-family="Helvetica,sans-Serif" font-size="10.00">SDK::TArray&lt; SDK::UObject * &gt;</text>
<polyline fill="none" stroke="black" points="309.5,-498.5 470.5,-498.5 "/>
<text text-anchor="start" x="317.5" y="-486.5" font-family="Helvetica,sans-Serif" font-size="10.00">&#45; Count</text>
<text text-anchor="start" x="317.5" y="-475.5" font-family="Helvetica,sans-Serif" font-size="10.00">&#45; Max</text>
<polyline fill="none" stroke="black" points="309.5,-468.5 470.5,-468.5 "/>
<text text-anchor="start" x="317.5" y="-456.5" font-family="Helvetica,sans-Serif" font-size="10.00">+ TArray()</text>
<text text-anchor="start" x="317.5" y="-445.5" font-family="Helvetica,sans-Serif" font-size="10.00">+ Num()</text>
<text text-anchor="start" x="317.5" y="-434.5" font-family="Helvetica,sans-Serif" font-size="10.00">+ operator[]()</text>
<text text-anchor="start" x="317.5" y="-423.5" font-family="Helvetica,sans-Serif" font-size="10.00">+ operator[]()</text>
<text text-anchor="start" x="317.5" y="-412.5" font-family="Helvetica,sans-Serif" font-size="10.00">+ IsValidIndex()</text>
<text text-anchor="start" x="317.5" y="-401.5" font-family="Helvetica,sans-Serif" font-size="10.00">+ GetByIndex()</text>
<text text-anchor="start" x="317.5" y="-390.5" font-family="Helvetica,sans-Serif" font-size="10.00">+ GetByIndex()</text>
</a>
</g>
</g>
<!-- Node2&#45;&gt;Node8 -->
<g id="edge9" class="edge">
<title>Node2&#45;&gt;Node8</title>
<path fill="none" stroke="#404040" d="M258.41,-587.14C264.39,-576.9 270.92,-567.02 278,-558 286.02,-547.79 291.27,-548.59 301,-540 306,-535.58 311.08,-530.96 316.15,-526.23"/>
<polygon fill="none" stroke="#404040" points="316.51,-525.89 318.12,-518.86 325.23,-517.65 323.62,-524.68 316.51,-525.89"/>
<text text-anchor="middle" x="292" y="-561" font-family="Helvetica,sans-Serif" font-size="10.00"> &#45;Data</text>
</g>
<!-- Node10 -->
<g id="node10" class="node">
<title>Node10</title>
<g id="a_node10"><a xlink:href="../../d7/d85/classSDK_1_1UClass.html" target="_top" xlink:title=" ">
<polygon fill="white" stroke="black" points="70.5,-0.5 70.5,-90.5 191.5,-90.5 191.5,-0.5 70.5,-0.5"/>
<text text-anchor="middle" x="131" y="-78.5" font-family="Helvetica,sans-Serif" font-size="10.00">SDK::UClass</text>
<polyline fill="none" stroke="black" points="70.5,-71.5 191.5,-71.5 "/>
<text text-anchor="start" x="78.5" y="-59.5" font-family="Helvetica,sans-Serif" font-size="10.00">+ UnknownData00</text>
<text text-anchor="start" x="78.5" y="-48.5" font-family="Helvetica,sans-Serif" font-size="10.00">+ UnknownData01</text>
<polyline fill="none" stroke="black" points="70.5,-41.5 191.5,-41.5 "/>
<text text-anchor="start" x="78.5" y="-29.5" font-family="Helvetica,sans-Serif" font-size="10.00">+ CreateDefaultObject()</text>
<text text-anchor="start" x="78.5" y="-18.5" font-family="Helvetica,sans-Serif" font-size="10.00">+ CreateDefaultObject()</text>
<text text-anchor="start" x="78.5" y="-7.5" font-family="Helvetica,sans-Serif" font-size="10.00">+ StaticClass()</text>
</a>
</g>
</g>
<!-- Node2&#45;&gt;Node10 -->
<g id="edge19" class="edge">
<title>Node2&#45;&gt;Node10</title>
<path fill="none" stroke="#404040" d="M110.84,-640.34C56.47,-594.26 0,-527.99 0,-451.5 0,-451.5 0,-451.5 0,-156 0,-120.34 28.94,-94.01 59.61,-76.12"/>
<polygon fill="none" stroke="#404040" points="59.97,-75.92 63.3,-69.53 70.48,-70.14 67.15,-76.54 59.97,-75.92"/>
<text text-anchor="middle" x="47.5" y="-260.5" font-family="Helvetica,sans-Serif" font-size="10.00"> +ClassDefaultObject</text>
</g>
<!-- Node13 -->
<g id="node13" class="node">
<title>Node13</title>
<g id="a_node13"><a xlink:href="../../de/dd6/classSDK_1_1UField.html" target="_top" xlink:title=" ">
<polygon fill="white" stroke="black" points="159.5,-422 159.5,-479 242.5,-479 242.5,-422 159.5,-422"/>
<text text-anchor="middle" x="201" y="-467" font-family="Helvetica,sans-Serif" font-size="10.00">SDK::UField</text>
<polyline fill="none" stroke="black" points="159.5,-460 242.5,-460 "/>
<text text-anchor="middle" x="201" y="-448" font-family="Helvetica,sans-Serif" font-size="10.00"> </text>
<polyline fill="none" stroke="black" points="159.5,-441 242.5,-441 "/>
<text text-anchor="start" x="167.5" y="-429" font-family="Helvetica,sans-Serif" font-size="10.00">+ StaticClass()</text>
</a>
</g>
</g>
<!-- Node2&#45;&gt;Node13 -->
<g id="edge16" class="edge">
<title>Node2&#45;&gt;Node13</title>
<path fill="none" stroke="midnightblue" d="M205.39,-576.72C204.09,-539.73 202.81,-503.11 201.97,-479.12"/>
<polygon fill="none" stroke="midnightblue" points="201.9,-577.28 205.75,-587.15 208.9,-577.03 201.9,-577.28"/>
</g>
<!-- Node3 -->
<g id="node3" class="node">
<title>Node3</title>
<g id="a_node3"><a xlink:href="../../d0/d22/structSDK_1_1FQWord.html" target="_top" xlink:title=" ">
<polygon fill="white" stroke="black" points="63,-998 63,-1066 143,-1066 143,-998 63,-998"/>
<text text-anchor="middle" x="103" y="-1054" font-family="Helvetica,sans-Serif" font-size="10.00">SDK::FQWord</text>
<polyline fill="none" stroke="black" points="63,-1047 143,-1047 "/>
<text text-anchor="start" x="71" y="-1035" font-family="Helvetica,sans-Serif" font-size="10.00">+ A</text>
<text text-anchor="start" x="71" y="-1024" font-family="Helvetica,sans-Serif" font-size="10.00">+ B</text>
<polyline fill="none" stroke="black" points="63,-1017 143,-1017 "/>
<text text-anchor="middle" x="103" y="-1005" font-family="Helvetica,sans-Serif" font-size="10.00"> </text>
</a>
</g>
</g>
<!-- Node3&#45;&gt;Node2 -->
<g id="edge2" class="edge">
<title>Node3&#45;&gt;Node2</title>
<path fill="none" stroke="#404040" d="M108.28,-997.7C114.64,-960.92 126.66,-900.25 144,-850 144.82,-847.63 145.67,-845.24 146.54,-842.84"/>
<polygon fill="none" stroke="#404040" points="146.56,-842.8 144.94,-835.77 150.8,-831.58 152.42,-838.6 146.56,-842.8"/>
<text text-anchor="middle" x="175" y="-898.5" font-family="Helvetica,sans-Serif" font-size="10.00"> +ObjectFlags</text>
</g>
<!-- Node4 -->
<g id="node4" class="node">
<title>Node4</title>
<g id="a_node4"><a xlink:href="../../d0/db6/structSDK_1_1FName.html" target="_top" xlink:title=" ">
<polygon fill="white" stroke="black" points="276.5,-970.5 276.5,-1093.5 383.5,-1093.5 383.5,-970.5 276.5,-970.5"/>
<text text-anchor="middle" x="330" y="-1081.5" font-family="Helvetica,sans-Serif" font-size="10.00">SDK::FName</text>
<polyline fill="none" stroke="black" points="276.5,-1074.5 383.5,-1074.5 "/>
<text text-anchor="start" x="284.5" y="-1062.5" font-family="Helvetica,sans-Serif" font-size="10.00">+ Index</text>
<text text-anchor="start" x="284.5" y="-1051.5" font-family="Helvetica,sans-Serif" font-size="10.00">+ Number</text>
<polyline fill="none" stroke="black" points="276.5,-1044.5 383.5,-1044.5 "/>
<text text-anchor="start" x="284.5" y="-1032.5" font-family="Helvetica,sans-Serif" font-size="10.00">+ FName()</text>
<text text-anchor="start" x="284.5" y="-1021.5" font-family="Helvetica,sans-Serif" font-size="10.00">+ FName()</text>
<text text-anchor="start" x="284.5" y="-1010.5" font-family="Helvetica,sans-Serif" font-size="10.00">+ FName()</text>
<text text-anchor="start" x="284.5" y="-999.5" font-family="Helvetica,sans-Serif" font-size="10.00">+ GetName()</text>
<text text-anchor="start" x="284.5" y="-988.5" font-family="Helvetica,sans-Serif" font-size="10.00">+ operator==()</text>
<text text-anchor="start" x="284.5" y="-977.5" font-family="Helvetica,sans-Serif" font-size="10.00">+ GetGlobalNames()</text>
</a>
</g>
</g>
<!-- Node4&#45;&gt;Node2 -->
<g id="edge3" class="edge">
<title>Node4&#45;&gt;Node2</title>
<path fill="none" stroke="#404040" d="M317.9,-970.41C309.89,-934.73 298.07,-889.08 283,-850 282.1,-847.66 281.17,-845.31 280.21,-842.95"/>
<polygon fill="none" stroke="#404040" points="280.2,-842.92 274.18,-838.94 275.55,-831.86 281.56,-835.84 280.2,-842.92"/>
<text text-anchor="middle" x="331" y="-898.5" font-family="Helvetica,sans-Serif" font-size="10.00"> +Name</text>
</g>
<!-- Node5 -->
<g id="node5" class="node">
<title>Node5</title>
<g id="a_node5"><a xlink:href="../../d3/d79/classSDK_1_1TArray.html" target="_top" xlink:title=" ">
<polygon fill="white" stroke="black" points="240,-1147 240,-1281 420,-1281 420,-1147 240,-1147"/>
<text text-anchor="middle" x="330" y="-1269" font-family="Helvetica,sans-Serif" font-size="10.00">SDK::TArray&lt; SDK::FNameEntry * &gt;</text>
<polyline fill="none" stroke="black" points="240,-1262 420,-1262 "/>
<text text-anchor="start" x="248" y="-1250" font-family="Helvetica,sans-Serif" font-size="10.00">&#45; Count</text>
<text text-anchor="start" x="248" y="-1239" font-family="Helvetica,sans-Serif" font-size="10.00">&#45; Max</text>
<polyline fill="none" stroke="black" points="240,-1232 420,-1232 "/>
<text text-anchor="start" x="248" y="-1220" font-family="Helvetica,sans-Serif" font-size="10.00">+ TArray()</text>
<text text-anchor="start" x="248" y="-1209" font-family="Helvetica,sans-Serif" font-size="10.00">+ Num()</text>
<text text-anchor="start" x="248" y="-1198" font-family="Helvetica,sans-Serif" font-size="10.00">+ operator[]()</text>
<text text-anchor="start" x="248" y="-1187" font-family="Helvetica,sans-Serif" font-size="10.00">+ operator[]()</text>
<text text-anchor="start" x="248" y="-1176" font-family="Helvetica,sans-Serif" font-size="10.00">+ IsValidIndex()</text>
<text text-anchor="start" x="248" y="-1165" font-family="Helvetica,sans-Serif" font-size="10.00">+ GetByIndex()</text>
<text text-anchor="start" x="248" y="-1154" font-family="Helvetica,sans-Serif" font-size="10.00">+ GetByIndex()</text>
</a>
</g>
</g>
<!-- Node5&#45;&gt;Node4 -->
<g id="edge4" class="edge">
<title>Node5&#45;&gt;Node4</title>
<path fill="none" stroke="#404040" d="M330,-1147C330,-1133.63 330,-1119.5 330,-1105.91"/>
<polygon fill="none" stroke="#404040" points="330,-1105.62 326,-1099.62 330,-1093.62 334,-1099.62 330,-1105.62"/>
<text text-anchor="middle" x="354.5" y="-1115" font-family="Helvetica,sans-Serif" font-size="10.00"> +GNames</text>
</g>
<!-- Node6 -->
<g id="node6" class="node">
<title>Node6</title>
<g id="a_node6"><a xlink:href="../../d7/ddf/classSDK_1_1FNameEntry.html" target="_top" xlink:title=" ">
<polygon fill="white" stroke="black" points="233.5,-1373 233.5,-1441 332.5,-1441 332.5,-1373 233.5,-1373"/>
<text text-anchor="middle" x="283" y="-1429" font-family="Helvetica,sans-Serif" font-size="10.00">SDK::FNameEntry</text>
<polyline fill="none" stroke="black" points="233.5,-1422 332.5,-1422 "/>
<text text-anchor="start" x="241.5" y="-1410" font-family="Helvetica,sans-Serif" font-size="10.00">+ UnknownData00</text>
<text text-anchor="start" x="241.5" y="-1399" font-family="Helvetica,sans-Serif" font-size="10.00">+ name</text>
<polyline fill="none" stroke="black" points="233.5,-1392 332.5,-1392 "/>
<text text-anchor="start" x="241.5" y="-1380" font-family="Helvetica,sans-Serif" font-size="10.00">+ GetName()</text>
</a>
</g>
</g>
<!-- Node6&#45;&gt;Node5 -->
<g id="edge5" class="edge">
<title>Node6&#45;&gt;Node5</title>
<path fill="none" stroke="#404040" d="M279.53,-1372.77C278.38,-1352.84 278.55,-1327.14 284,-1305 285,-1300.91 286.23,-1296.8 287.61,-1292.71"/>
<polygon fill="none" stroke="#404040" points="287.7,-1292.48 286.06,-1285.46 291.92,-1281.25 293.55,-1288.27 287.7,-1292.48"/>
<text text-anchor="middle" x="298" y="-1308" font-family="Helvetica,sans-Serif" font-size="10.00"> &#45;Data</text>
</g>
<!-- Node7 -->
<g id="node7" class="node">
<title>Node7</title>
<g id="a_node7"><a xlink:href="../../d3/d79/classSDK_1_1TArray.html" target="_top" xlink:title=" ">
<polygon fill="white" stroke="black" points="411.5,-1334.5 411.5,-1479.5 508.5,-1479.5 508.5,-1334.5 411.5,-1334.5"/>
<text text-anchor="middle" x="460" y="-1467.5" font-family="Helvetica,sans-Serif" font-size="10.00">SDK::TArray&lt; T &gt;</text>
<polyline fill="none" stroke="black" points="411.5,-1460.5 508.5,-1460.5 "/>
<text text-anchor="start" x="419.5" y="-1448.5" font-family="Helvetica,sans-Serif" font-size="10.00">&#45; Data</text>
<text text-anchor="start" x="419.5" y="-1437.5" font-family="Helvetica,sans-Serif" font-size="10.00">&#45; Count</text>
<text text-anchor="start" x="419.5" y="-1426.5" font-family="Helvetica,sans-Serif" font-size="10.00">&#45; Max</text>
<polyline fill="none" stroke="black" points="411.5,-1419.5 508.5,-1419.5 "/>
<text text-anchor="start" x="419.5" y="-1407.5" font-family="Helvetica,sans-Serif" font-size="10.00">+ TArray()</text>
<text text-anchor="start" x="419.5" y="-1396.5" font-family="Helvetica,sans-Serif" font-size="10.00">+ Num()</text>
<text text-anchor="start" x="419.5" y="-1385.5" font-family="Helvetica,sans-Serif" font-size="10.00">+ operator[]()</text>
<text text-anchor="start" x="419.5" y="-1374.5" font-family="Helvetica,sans-Serif" font-size="10.00">+ operator[]()</text>
<text text-anchor="start" x="419.5" y="-1363.5" font-family="Helvetica,sans-Serif" font-size="10.00">+ IsValidIndex()</text>
<text text-anchor="start" x="419.5" y="-1352.5" font-family="Helvetica,sans-Serif" font-size="10.00">+ GetByIndex()</text>
<text text-anchor="start" x="419.5" y="-1341.5" font-family="Helvetica,sans-Serif" font-size="10.00">+ GetByIndex()</text>
</a>
</g>
</g>
<!-- Node7&#45;&gt;Node5 -->
<g id="edge6" class="edge">
<title>Node7&#45;&gt;Node5</title>
<path fill="none" stroke="orange" d="M402.51,-1379.42C377.22,-1364.55 349.91,-1343.42 335,-1316 329.25,-1305.44 326.23,-1293.29 324.87,-1281.17"/>
<polygon fill="orange" stroke="orange" points="400.92,-1382.54 411.35,-1384.42 404.37,-1376.45 400.92,-1382.54"/>
<text text-anchor="middle" x="390.5" y="-1308" font-family="Helvetica,sans-Serif" font-size="10.00"> &lt; SDK::FNameEntry * &gt;</text>
</g>
<!-- Node7&#45;&gt;Node8 -->
<g id="edge10" class="edge">
<title>Node7&#45;&gt;Node8</title>
<path fill="none" stroke="orange" d="M460,-1324.06C460,-1290.29 460,-1250.76 460,-1215 460,-1215 460,-1215 460,-708.5 460,-641.79 437.77,-568.66 418.37,-517.53"/>
<polygon fill="orange" stroke="orange" points="456.5,-1324.35 460,-1334.35 463.5,-1324.35 456.5,-1324.35"/>
<text text-anchor="middle" x="505.5" y="-1029.5" font-family="Helvetica,sans-Serif" font-size="10.00"> &lt; SDK::UObject * &gt;</text>
</g>
<!-- Node15 -->
<g id="node15" class="node">
<title>Node15</title>
<g id="a_node15"><a xlink:href="../../d3/d79/classSDK_1_1TArray.html" target="_top" xlink:title=" ">
<polygon fill="white" stroke="black" points="503.5,-1141.5 503.5,-1286.5 628.5,-1286.5 628.5,-1141.5 503.5,-1141.5"/>
<text text-anchor="middle" x="566" y="-1274.5" font-family="Helvetica,sans-Serif" font-size="10.00">SDK::TArray&lt; wchar_t &gt;</text>
<polyline fill="none" stroke="black" points="503.5,-1267.5 628.5,-1267.5 "/>
<text text-anchor="start" x="511.5" y="-1255.5" font-family="Helvetica,sans-Serif" font-size="10.00">&#45; Data</text>
<text text-anchor="start" x="511.5" y="-1244.5" font-family="Helvetica,sans-Serif" font-size="10.00">&#45; Count</text>
<text text-anchor="start" x="511.5" y="-1233.5" font-family="Helvetica,sans-Serif" font-size="10.00">&#45; Max</text>
<polyline fill="none" stroke="black" points="503.5,-1226.5 628.5,-1226.5 "/>
<text text-anchor="start" x="511.5" y="-1214.5" font-family="Helvetica,sans-Serif" font-size="10.00">+ TArray()</text>
<text text-anchor="start" x="511.5" y="-1203.5" font-family="Helvetica,sans-Serif" font-size="10.00">+ Num()</text>
<text text-anchor="start" x="511.5" y="-1192.5" font-family="Helvetica,sans-Serif" font-size="10.00">+ operator[]()</text>
<text text-anchor="start" x="511.5" y="-1181.5" font-family="Helvetica,sans-Serif" font-size="10.00">+ operator[]()</text>
<text text-anchor="start" x="511.5" y="-1170.5" font-family="Helvetica,sans-Serif" font-size="10.00">+ IsValidIndex()</text>
<text text-anchor="start" x="511.5" y="-1159.5" font-family="Helvetica,sans-Serif" font-size="10.00">+ GetByIndex()</text>
<text text-anchor="start" x="511.5" y="-1148.5" font-family="Helvetica,sans-Serif" font-size="10.00">+ GetByIndex()</text>
</a>
</g>
</g>
<!-- Node7&#45;&gt;Node15 -->
<g id="edge22" class="edge">
<title>Node7&#45;&gt;Node15</title>
<path fill="none" stroke="orange" d="M504.68,-1325.5C511.82,-1312.63 519.16,-1299.39 526.18,-1286.75"/>
<polygon fill="orange" stroke="orange" points="501.56,-1323.89 499.77,-1334.34 507.68,-1327.29 501.56,-1323.89"/>
<text text-anchor="middle" x="541" y="-1308" font-family="Helvetica,sans-Serif" font-size="10.00"> &lt; wchar_t &gt;</text>
</g>
<!-- Node8&#45;&gt;Node2 -->
<g id="edge8" class="edge">
<title>Node8&#45;&gt;Node2</title>
<path fill="none" stroke="#404040" d="M343.61,-517.74C330.82,-536 316.48,-556.48 302.07,-577.05"/>
<polygon fill="none" stroke="#404040" points="301.88,-577.32 301.71,-584.53 294.99,-587.15 295.16,-579.94 301.88,-577.32"/>
<text text-anchor="middle" x="335.5" y="-561" font-family="Helvetica,sans-Serif" font-size="10.00"> +GObjects</text>
</g>
<!-- Node9 -->
<g id="node9" class="node">
<title>Node9</title>
<g id="a_node9"><a xlink:href="../../d9/dfa/structSDK_1_1FPointer.html" target="_top" xlink:title=" ">
<polygon fill="white" stroke="black" points="161,-998 161,-1066 259,-1066 259,-998 161,-998"/>
<text text-anchor="middle" x="210" y="-1054" font-family="Helvetica,sans-Serif" font-size="10.00">SDK::FPointer</text>
<polyline fill="none" stroke="black" points="161,-1047 259,-1047 "/>
<text text-anchor="start" x="169" y="-1035" font-family="Helvetica,sans-Serif" font-size="10.00">+ Dummy</text>
<text text-anchor="start" x="169" y="-1024" font-family="Helvetica,sans-Serif" font-size="10.00">+ UnknownData00</text>
<polyline fill="none" stroke="black" points="161,-1017 259,-1017 "/>
<text text-anchor="middle" x="210" y="-1005" font-family="Helvetica,sans-Serif" font-size="10.00"> </text>
</a>
</g>
</g>
<!-- Node9&#45;&gt;Node2 -->
<g id="edge11" class="edge">
<title>Node9&#45;&gt;Node2</title>
<path fill="none" stroke="#404040" d="M210,-997.91C210,-961.48 210,-900.57 210,-844.19"/>
<polygon fill="none" stroke="#404040" points="210,-843.86 206,-837.86 210,-831.86 214,-837.86 210,-843.86"/>
<text text-anchor="middle" x="244.5" y="-909.5" font-family="Helvetica,sans-Serif" font-size="10.00"> +StateFrame</text>
<text text-anchor="middle" x="244.5" y="-898.5" font-family="Helvetica,sans-Serif" font-size="10.00">+VfTableObject</text>
<text text-anchor="middle" x="244.5" y="-887.5" font-family="Helvetica,sans-Serif" font-size="10.00">+LinkerIndex</text>
</g>
<!-- Node10&#45;&gt;Node2 -->
<g id="edge12" class="edge">
<title>Node10&#45;&gt;Node2</title>
<path fill="none" stroke="#404040" d="M131,-90.72C131,-110.67 131,-134.52 131,-156 131,-451.5 131,-451.5 131,-451.5 131,-492.92 140.49,-536.51 152.9,-575.78"/>
<polygon fill="none" stroke="#404040" points="152.93,-575.87 158.59,-580.33 156.65,-587.28 150.98,-582.82 152.93,-575.87"/>
<text text-anchor="middle" x="148.5" y="-260.5" font-family="Helvetica,sans-Serif" font-size="10.00"> +Class</text>
</g>
<!-- Node11 -->
<g id="node11" class="node">
<title>Node11</title>
<g id="a_node11"><a xlink:href="../../df/d72/classSDK_1_1UState.html" target="_top" xlink:title=" ">
<polygon fill="white" stroke="black" points="171,-128.5 171,-185.5 269,-185.5 269,-128.5 171,-128.5"/>
<text text-anchor="middle" x="220" y="-173.5" font-family="Helvetica,sans-Serif" font-size="10.00">SDK::UState</text>
<polyline fill="none" stroke="black" points="171,-166.5 269,-166.5 "/>
<text text-anchor="start" x="179" y="-154.5" font-family="Helvetica,sans-Serif" font-size="10.00">+ UnknownData00</text>
<polyline fill="none" stroke="black" points="171,-147.5 269,-147.5 "/>
<text text-anchor="start" x="179" y="-135.5" font-family="Helvetica,sans-Serif" font-size="10.00">+ StaticClass()</text>
</a>
</g>
</g>
<!-- Node11&#45;&gt;Node10 -->
<g id="edge13" class="edge">
<title>Node11&#45;&gt;Node10</title>
<path fill="none" stroke="midnightblue" d="M191.01,-120.33C183.33,-110.89 174.95,-100.58 166.96,-90.74"/>
<polygon fill="none" stroke="midnightblue" points="188.52,-122.82 197.54,-128.37 193.95,-118.4 188.52,-122.82"/>
</g>
<!-- Node12 -->
<g id="node12" class="node">
<title>Node12</title>
<g id="a_node12"><a xlink:href="../../d8/de9/classSDK_1_1UStruct.html" target="_top" xlink:title=" ">
<polygon fill="white" stroke="black" points="184,-223.5 184,-302.5 282,-302.5 282,-223.5 184,-223.5"/>
<text text-anchor="middle" x="233" y="-290.5" font-family="Helvetica,sans-Serif" font-size="10.00">SDK::UStruct</text>
<polyline fill="none" stroke="black" points="184,-283.5 282,-283.5 "/>
<text text-anchor="start" x="192" y="-271.5" font-family="Helvetica,sans-Serif" font-size="10.00">+ UnknownData00</text>
<text text-anchor="start" x="192" y="-260.5" font-family="Helvetica,sans-Serif" font-size="10.00">+ PropertySize</text>
<text text-anchor="start" x="192" y="-249.5" font-family="Helvetica,sans-Serif" font-size="10.00">+ UnknownData01</text>
<polyline fill="none" stroke="black" points="184,-242.5 282,-242.5 "/>
<text text-anchor="start" x="192" y="-230.5" font-family="Helvetica,sans-Serif" font-size="10.00">+ StaticClass()</text>
</a>
</g>
</g>
<!-- Node12&#45;&gt;Node11 -->
<g id="edge14" class="edge">
<title>Node12&#45;&gt;Node11</title>
<path fill="none" stroke="midnightblue" d="M226.9,-213.16C225.72,-203.74 224.52,-194.17 223.46,-185.72"/>
<polygon fill="none" stroke="midnightblue" points="223.45,-213.79 228.16,-223.27 230.39,-212.92 223.45,-213.79"/>
</g>
<!-- Node13&#45;&gt;Node12 -->
<g id="edge15" class="edge">
<title>Node13&#45;&gt;Node12</title>
<path fill="none" stroke="midnightblue" d="M202.64,-411.55C204.28,-385.78 207.55,-351.06 214,-321 215.29,-314.98 217,-308.71 218.86,-302.62"/>
<polygon fill="none" stroke="midnightblue" points="199.13,-411.46 202.04,-421.65 206.12,-411.87 199.13,-411.46"/>
</g>
<!-- Node13&#45;&gt;Node12 -->
<g id="edge18" class="edge">
<title>Node13&#45;&gt;Node12</title>
<path fill="none" stroke="#404040" d="M205.79,-421.73C210.65,-393.55 218.28,-349.3 224.23,-314.83"/>
<polygon fill="none" stroke="#404040" points="224.3,-314.45 221.38,-307.86 226.34,-302.62 229.26,-309.22 224.3,-314.45"/>
<text text-anchor="middle" x="250" y="-335" font-family="Helvetica,sans-Serif" font-size="10.00"> +SuperField</text>
<text text-anchor="middle" x="250" y="-324" font-family="Helvetica,sans-Serif" font-size="10.00">+Children</text>
</g>
<!-- Node13&#45;&gt;Node13 -->
<g id="edge17" class="edge">
<title>Node13&#45;&gt;Node13</title>
<path fill="none" stroke="#404040" d="M242.71,-471.17C252.91,-469.64 260.5,-462.75 260.5,-450.5 260.5,-443.42 257.96,-438.13 253.85,-434.63"/>
<polygon fill="none" stroke="#404040" points="253.73,-434.57 246.63,-435.88 242.71,-429.83 249.8,-428.53 253.73,-434.57"/>
<text text-anchor="middle" x="276" y="-448" font-family="Helvetica,sans-Serif" font-size="10.00"> +Next</text>
</g>
<!-- Node14 -->
<g id="node14" class="node">
<title>Node14</title>
<g id="a_node14"><a xlink:href="../../d3/d88/classSDK_1_1FString.html" target="_top" xlink:title=" ">
<polygon fill="white" stroke="black" points="544.5,-850.5 544.5,-951.5 619.5,-951.5 619.5,-850.5 544.5,-850.5"/>
<text text-anchor="middle" x="582" y="-939.5" font-family="Helvetica,sans-Serif" font-size="10.00">SDK::FString</text>
<polyline fill="none" stroke="black" points="544.5,-932.5 619.5,-932.5 "/>
<text text-anchor="middle" x="582" y="-920.5" font-family="Helvetica,sans-Serif" font-size="10.00"> </text>
<polyline fill="none" stroke="black" points="544.5,-913.5 619.5,-913.5 "/>
<text text-anchor="start" x="552.5" y="-901.5" font-family="Helvetica,sans-Serif" font-size="10.00">+ FString()</text>
<text text-anchor="start" x="552.5" y="-890.5" font-family="Helvetica,sans-Serif" font-size="10.00">+ FString()</text>
<text text-anchor="start" x="552.5" y="-879.5" font-family="Helvetica,sans-Serif" font-size="10.00">+ IsValid()</text>
<text text-anchor="start" x="552.5" y="-868.5" font-family="Helvetica,sans-Serif" font-size="10.00">+ c_str()</text>
<text text-anchor="start" x="552.5" y="-857.5" font-family="Helvetica,sans-Serif" font-size="10.00">+ ToString()</text>
</a>
</g>
</g>
<!-- Node14&#45;&gt;Node1 -->
<g id="edge20" class="edge">
<title>Node14&#45;&gt;Node1</title>
<path fill="none" stroke="#404040" d="M582.11,-850.29C582.27,-778.59 582.57,-644.58 582.78,-551.82"/>
<polygon fill="none" stroke="#404040" points="582.78,-551.58 578.79,-545.58 582.8,-539.58 586.79,-545.59 582.78,-551.58"/>
<text text-anchor="middle" x="614" y="-712.5" font-family="Helvetica,sans-Serif" font-size="10.00"> +OwnCamera</text>
<text text-anchor="middle" x="614" y="-701.5" font-family="Helvetica,sans-Serif" font-size="10.00">+ViewingFrom</text>
</g>
<!-- Node15&#45;&gt;Node14 -->
<g id="edge21" class="edge">
<title>Node15&#45;&gt;Node14</title>
<path fill="none" stroke="midnightblue" d="M570.21,-1131.18C573.14,-1074.13 576.97,-999.87 579.45,-951.58"/>
<polygon fill="none" stroke="midnightblue" points="566.71,-1131.09 569.69,-1141.26 573.7,-1131.45 566.71,-1131.09"/>
</g>
</g>
</svg>
        <g id="navigator" transform="translate(0 0)" fill="#404254">
                <rect fill="#f2f5e9" fill-opacity="0.5" stroke="#606060" stroke-width=".5" x="0" y="0" width="60" height="60"/>
                <use id="zoomplus" xlink:href="#zoomPlus" x="17" y="9" onmousedown="handleZoom(evt,'in')"/>
                <use id="zoomminus" xlink:href="#zoomMin" x="42" y="9" onmousedown="handleZoom(evt,'out')"/>
                <use id="reset" xlink:href="#resetDef" x="30" y="36" onmousedown="handleReset()"/>
                <g id="arrowUp" xlink:href="#dirArrow" transform="translate(30 24)" onmousedown="handlePan(0,-1)">
                  <use xlink:href="#rim" fill="#404040">
                        <set attributeName="fill" to="#808080" begin="arrowUp.mouseover" end="arrowUp.mouseout"/>
                  </use>
                  <path fill="none" stroke="white" stroke-width="1.5" d="M0,-3.0v7 M-2.5,-0.5L0,-3.0L2.5,-0.5"/>
                </g>
                <g id="arrowRight" xlink:href="#dirArrow" transform="rotate(90) translate(36 -43)" onmousedown="handlePan(1,0)">
                  <use xlink:href="#rim" fill="#404040">
                        <set attributeName="fill" to="#808080" begin="arrowRight.mouseover" end="arrowRight.mouseout"/>
                  </use>
                  <path fill="none" stroke="white" stroke-width="1.5" d="M0,-3.0v7 M-2.5,-0.5L0,-3.0L2.5,-0.5"/>
                </g>
                <g id="arrowDown" xlink:href="#dirArrow" transform="rotate(180) translate(-30 -48)" onmousedown="handlePan(0,1)">
                  <use xlink:href="#rim" fill="#404040">
                        <set attributeName="fill" to="#808080" begin="arrowDown.mouseover" end="arrowDown.mouseout"/>
                  </use>
                  <path fill="none" stroke="white" stroke-width="1.5" d="M0,-3.0v7 M-2.5,-0.5L0,-3.0L2.5,-0.5"/>
                </g>
                <g id="arrowLeft" xlink:href="#dirArrow" transform="rotate(270) translate(-36 17)" onmousedown="handlePan(-1,0)">
                  <use xlink:href="#rim" fill="#404040">
                        <set attributeName="fill" to="#808080" begin="arrowLeft.mouseover" end="arrowLeft.mouseout"/>
                  </use>
                  <path fill="none" stroke="white" stroke-width="1.5" d="M0,-3.0v7 M-2.5,-0.5L0,-3.0L2.5,-0.5"/>
                </g>
        </g>
        <svg viewBox="0 0 15 15" width="100%" height="30px" preserveAspectRatio="xMaxYMin meet">
         <g id="arrow_out" transform="scale(0.3 0.3)">
          <a xlink:href="classSDK_1_1UCheatManager__coll__graph_org.svg" target="_base">
           <rect id="button" ry="5" rx="5" y="6" x="6" height="38" width="38"
                fill="#f2f5e9" fill-opacity="0.5" stroke="#606060" stroke-width="1.0"/>
           <path id="arrow"
             d="M 11.500037,31.436501 C 11.940474,20.09759 22.043105,11.32322 32.158766,21.979434 L 37.068811,17.246167 C 37.068811,17.246167 37.088388,32 37.088388,32 L 22.160133,31.978069 C 22.160133,31.978069 26.997745,27.140456 26.997745,27.140456 C 18.528582,18.264221 13.291696,25.230495 11.500037,31.436501 z"
             style="fill:#404040;"/>
          </a>
         </g>
        </svg>
</svg>
