<?xml version="1.0" encoding="UTF-8" standalone="no"?>
<!DOCTYPE svg PUBLIC "-//W3C//DTD SVG 1.1//EN"
 "http://www.w3.org/Graphics/SVG/1.1/DTD/svg11.dtd">
<!-- Generated by graphviz version 2.41.20171026.1811 (20171026.1811)
 -->
<!-- Title: SDK::ULightmassPrimitiveSettingsObject Pages: 1 -->
<svg width="652pt" height="1364pt"
 viewBox="0.00 0.00 651.50 1364.00" xmlns="http://www.w3.org/2000/svg" xmlns:xlink="http://www.w3.org/1999/xlink">
<g id="graph0" class="graph" transform="scale(1 1) rotate(0) translate(4 1360)">
<title>SDK::ULightmassPrimitiveSettingsObject</title>
<polygon fill="white" stroke="transparent" points="-4,4 -4,-1360 647.5,-1360 647.5,4 -4,4"/>
<!-- Node1 -->
<g id="node1" class="node">
<title>Node1</title>
<g id="a_node1"><a xlink:title=" ">
<polygon fill="#bfbfbf" stroke="black" points="480.5,-394.5 480.5,-462.5 614.5,-462.5 614.5,-394.5 480.5,-394.5"/>
<text text-anchor="start" x="488.5" y="-450.5" font-family="Helvetica,sans-Serif" font-size="10.00">SDK::ULightmassPrimitive</text>
<text text-anchor="middle" x="547.5" y="-439.5" font-family="Helvetica,sans-Serif" font-size="10.00">SettingsObject</text>
<polyline fill="none" stroke="black" points="480.5,-432.5 614.5,-432.5 "/>
<text text-anchor="middle" x="547.5" y="-420.5" font-family="Helvetica,sans-Serif" font-size="10.00"> </text>
<polyline fill="none" stroke="black" points="480.5,-413.5 614.5,-413.5 "/>
<text text-anchor="start" x="488.5" y="-401.5" font-family="Helvetica,sans-Serif" font-size="10.00">+ StaticClass()</text>
</a>
</g>
</g>
<!-- Node2 -->
<g id="node2" class="node">
<title>Node2</title>
<g id="a_node2"><a xlink:href="../../d9/d45/classSDK_1_1UObject.html" target="_top" xlink:title=" ">
<polygon fill="white" stroke="black" points="164.5,-543.5 164.5,-787.5 362.5,-787.5 362.5,-543.5 164.5,-543.5"/>
<text text-anchor="middle" x="263.5" y="-775.5" font-family="Helvetica,sans-Serif" font-size="10.00">SDK::UObject</text>
<polyline fill="none" stroke="black" points="164.5,-768.5 362.5,-768.5 "/>
<text text-anchor="start" x="172.5" y="-756.5" font-family="Helvetica,sans-Serif" font-size="10.00">+ ObjectInternalInteger</text>
<text text-anchor="start" x="172.5" y="-745.5" font-family="Helvetica,sans-Serif" font-size="10.00">+ NetIndex</text>
<polyline fill="none" stroke="black" points="164.5,-738.5 362.5,-738.5 "/>
<text text-anchor="start" x="172.5" y="-726.5" font-family="Helvetica,sans-Serif" font-size="10.00">+ UObject::GetName()</text>
<text text-anchor="start" x="172.5" y="-715.5" font-family="Helvetica,sans-Serif" font-size="10.00">+ GetFullName()</text>
<text text-anchor="start" x="172.5" y="-704.5" font-family="Helvetica,sans-Serif" font-size="10.00">+ IsA()</text>
<text text-anchor="start" x="172.5" y="-693.5" font-family="Helvetica,sans-Serif" font-size="10.00">+ ProcessEvent()</text>
<text text-anchor="start" x="172.5" y="-682.5" font-family="Helvetica,sans-Serif" font-size="10.00">+ STATIC_ProfNodeEvent()</text>
<text text-anchor="start" x="172.5" y="-671.5" font-family="Helvetica,sans-Serif" font-size="10.00">+ STATIC_ProfNodeSetDepthThreshold()</text>
<text text-anchor="start" x="172.5" y="-660.5" font-family="Helvetica,sans-Serif" font-size="10.00">+ STATIC_ProfNodeSetTimeThreshold</text>
<text text-anchor="start" x="172.5" y="-649.5" font-family="Helvetica,sans-Serif" font-size="10.00">Seconds()</text>
<text text-anchor="start" x="172.5" y="-638.5" font-family="Helvetica,sans-Serif" font-size="10.00">+ STATIC_ProfNodeStop()</text>
<text text-anchor="start" x="172.5" y="-627.5" font-family="Helvetica,sans-Serif" font-size="10.00">+ STATIC_ProfNodeStart()</text>
<text text-anchor="start" x="172.5" y="-616.5" font-family="Helvetica,sans-Serif" font-size="10.00">+ STATIC_GetStringFromGuid()</text>
<text text-anchor="start" x="172.5" y="-605.5" font-family="Helvetica,sans-Serif" font-size="10.00">and 298 more...</text>
<text text-anchor="start" x="172.5" y="-594.5" font-family="Helvetica,sans-Serif" font-size="10.00">+ GetGlobalObjects()</text>
<text text-anchor="start" x="172.5" y="-583.5" font-family="Helvetica,sans-Serif" font-size="10.00">+ FindObject()</text>
<text text-anchor="start" x="172.5" y="-572.5" font-family="Helvetica,sans-Serif" font-size="10.00">+ FindClass()</text>
<text text-anchor="start" x="172.5" y="-561.5" font-family="Helvetica,sans-Serif" font-size="10.00">+ GetObjectCasted()</text>
<text text-anchor="start" x="172.5" y="-550.5" font-family="Helvetica,sans-Serif" font-size="10.00">+ StaticClass()</text>
</a>
</g>
</g>
<!-- Node2&#45;&gt;Node1 -->
<g id="edge1" class="edge">
<title>Node2&#45;&gt;Node1</title>
<path fill="none" stroke="midnightblue" d="M370.83,-590.96C398.8,-570.5 428.39,-547.66 454.5,-525 476.87,-505.58 500.12,-481.71 517.78,-462.69"/>
<polygon fill="none" stroke="midnightblue" points="368.63,-588.23 362.61,-596.94 372.75,-593.89 368.63,-588.23"/>
</g>
<!-- Node2&#45;&gt;Node2 -->
<g id="edge7" class="edge">
<title>Node2&#45;&gt;Node2</title>
<path fill="none" stroke="#404040" d="M362.51,-688.53C373.44,-684.15 380.5,-676.48 380.5,-665.5 380.5,-658.64 377.74,-653.07 373.01,-648.78"/>
<polygon fill="none" stroke="#404040" points="372.8,-648.66 365.59,-648.99 362.51,-642.47 369.72,-642.14 372.8,-648.66"/>
<text text-anchor="middle" x="420" y="-674" font-family="Helvetica,sans-Serif" font-size="10.00"> +Outer</text>
<text text-anchor="middle" x="420" y="-663" font-family="Helvetica,sans-Serif" font-size="10.00">+Linker</text>
<text text-anchor="middle" x="420" y="-652" font-family="Helvetica,sans-Serif" font-size="10.00">+ObjectArchetype</text>
</g>
<!-- Node8 -->
<g id="node8" class="node">
<title>Node8</title>
<g id="a_node8"><a xlink:href="../../d3/d79/classSDK_1_1TArray.html" target="_top" xlink:title=" ">
<polygon fill="white" stroke="black" points="30,-361.5 30,-495.5 191,-495.5 191,-361.5 30,-361.5"/>
<text text-anchor="middle" x="110.5" y="-483.5" font-family="Helvetica,sans-Serif" font-size="10.00">SDK::TArray&lt; SDK::UObject * &gt;</text>
<polyline fill="none" stroke="black" points="30,-476.5 191,-476.5 "/>
<text text-anchor="start" x="38" y="-464.5" font-family="Helvetica,sans-Serif" font-size="10.00">&#45; Count</text>
<text text-anchor="start" x="38" y="-453.5" font-family="Helvetica,sans-Serif" font-size="10.00">&#45; Max</text>
<polyline fill="none" stroke="black" points="30,-446.5 191,-446.5 "/>
<text text-anchor="start" x="38" y="-434.5" font-family="Helvetica,sans-Serif" font-size="10.00">+ TArray()</text>
<text text-anchor="start" x="38" y="-423.5" font-family="Helvetica,sans-Serif" font-size="10.00">+ Num()</text>
<text text-anchor="start" x="38" y="-412.5" font-family="Helvetica,sans-Serif" font-size="10.00">+ operator[]()</text>
<text text-anchor="start" x="38" y="-401.5" font-family="Helvetica,sans-Serif" font-size="10.00">+ operator[]()</text>
<text text-anchor="start" x="38" y="-390.5" font-family="Helvetica,sans-Serif" font-size="10.00">+ IsValidIndex()</text>
<text text-anchor="start" x="38" y="-379.5" font-family="Helvetica,sans-Serif" font-size="10.00">+ GetByIndex()</text>
<text text-anchor="start" x="38" y="-368.5" font-family="Helvetica,sans-Serif" font-size="10.00">+ GetByIndex()</text>
</a>
</g>
</g>
<!-- Node2&#45;&gt;Node8 -->
<g id="edge9" class="edge">
<title>Node2&#45;&gt;Node8</title>
<path fill="none" stroke="#404040" d="M164.47,-568.12C153.63,-554.39 143.6,-539.86 135.5,-525 132.4,-519.31 129.67,-513.22 127.26,-506.97"/>
<polygon fill="none" stroke="#404040" points="127.25,-506.92 121.49,-502.58 123.29,-495.59 129.04,-499.94 127.25,-506.92"/>
<text text-anchor="middle" x="149.5" y="-517" font-family="Helvetica,sans-Serif" font-size="10.00"> &#45;Data</text>
</g>
<!-- Node10 -->
<g id="node10" class="node">
<title>Node10</title>
<g id="a_node10"><a xlink:href="../../d7/d85/classSDK_1_1UClass.html" target="_top" xlink:title=" ">
<polygon fill="white" stroke="black" points="309,-0.5 309,-90.5 430,-90.5 430,-0.5 309,-0.5"/>
<text text-anchor="middle" x="369.5" y="-78.5" font-family="Helvetica,sans-Serif" font-size="10.00">SDK::UClass</text>
<polyline fill="none" stroke="black" points="309,-71.5 430,-71.5 "/>
<text text-anchor="start" x="317" y="-59.5" font-family="Helvetica,sans-Serif" font-size="10.00">+ UnknownData00</text>
<text text-anchor="start" x="317" y="-48.5" font-family="Helvetica,sans-Serif" font-size="10.00">+ UnknownData01</text>
<polyline fill="none" stroke="black" points="309,-41.5 430,-41.5 "/>
<text text-anchor="start" x="317" y="-29.5" font-family="Helvetica,sans-Serif" font-size="10.00">+ CreateDefaultObject()</text>
<text text-anchor="start" x="317" y="-18.5" font-family="Helvetica,sans-Serif" font-size="10.00">+ CreateDefaultObject()</text>
<text text-anchor="start" x="317" y="-7.5" font-family="Helvetica,sans-Serif" font-size="10.00">+ StaticClass()</text>
</a>
</g>
</g>
<!-- Node2&#45;&gt;Node10 -->
<g id="edge19" class="edge">
<title>Node2&#45;&gt;Node10</title>
<path fill="none" stroke="#404040" d="M362.61,-585.54C403.05,-544.18 440.5,-489.64 440.5,-429.5 440.5,-429.5 440.5,-429.5 440.5,-156 440.5,-136.21 432.23,-117.17 421.34,-100.68"/>
<polygon fill="none" stroke="#404040" points="421.23,-100.53 414.49,-97.96 414.26,-90.75 421,-93.32 421.23,-100.53"/>
<text text-anchor="middle" x="488" y="-260.5" font-family="Helvetica,sans-Serif" font-size="10.00"> +ClassDefaultObject</text>
</g>
<!-- Node13 -->
<g id="node13" class="node">
<title>Node13</title>
<g id="a_node13"><a xlink:href="../../de/dd6/classSDK_1_1UField.html" target="_top" xlink:title=" ">
<polygon fill="white" stroke="black" points="209,-400 209,-457 292,-457 292,-400 209,-400"/>
<text text-anchor="middle" x="250.5" y="-445" font-family="Helvetica,sans-Serif" font-size="10.00">SDK::UField</text>
<polyline fill="none" stroke="black" points="209,-438 292,-438 "/>
<text text-anchor="middle" x="250.5" y="-426" font-family="Helvetica,sans-Serif" font-size="10.00"> </text>
<polyline fill="none" stroke="black" points="209,-419 292,-419 "/>
<text text-anchor="start" x="217" y="-407" font-family="Helvetica,sans-Serif" font-size="10.00">+ StaticClass()</text>
</a>
</g>
</g>
<!-- Node2&#45;&gt;Node13 -->
<g id="edge16" class="edge">
<title>Node2&#45;&gt;Node13</title>
<path fill="none" stroke="midnightblue" d="M256.23,-533.01C254.64,-504.27 253.11,-476.66 252.03,-457.19"/>
<polygon fill="none" stroke="midnightblue" points="252.74,-533.42 256.79,-543.21 259.73,-533.04 252.74,-533.42"/>
</g>
<!-- Node3 -->
<g id="node3" class="node">
<title>Node3</title>
<g id="a_node3"><a xlink:href="../../d0/d22/structSDK_1_1FQWord.html" target="_top" xlink:title=" ">
<polygon fill="white" stroke="black" points="266.5,-885 266.5,-953 346.5,-953 346.5,-885 266.5,-885"/>
<text text-anchor="middle" x="306.5" y="-941" font-family="Helvetica,sans-Serif" font-size="10.00">SDK::FQWord</text>
<polyline fill="none" stroke="black" points="266.5,-934 346.5,-934 "/>
<text text-anchor="start" x="274.5" y="-922" font-family="Helvetica,sans-Serif" font-size="10.00">+ A</text>
<text text-anchor="start" x="274.5" y="-911" font-family="Helvetica,sans-Serif" font-size="10.00">+ B</text>
<polyline fill="none" stroke="black" points="266.5,-904 346.5,-904 "/>
<text text-anchor="middle" x="306.5" y="-892" font-family="Helvetica,sans-Serif" font-size="10.00"> </text>
</a>
</g>
</g>
<!-- Node3&#45;&gt;Node2 -->
<g id="edge2" class="edge">
<title>Node3&#45;&gt;Node2</title>
<path fill="none" stroke="#404040" d="M300.83,-884.86C297.02,-862.57 291.72,-831.56 286.31,-799.9"/>
<polygon fill="none" stroke="#404040" points="286.25,-799.58 281.3,-794.34 284.23,-787.75 289.18,-792.99 286.25,-799.58"/>
<text text-anchor="middle" x="324.5" y="-820" font-family="Helvetica,sans-Serif" font-size="10.00"> +ObjectFlags</text>
</g>
<!-- Node4 -->
<g id="node4" class="node">
<title>Node4</title>
<g id="a_node4"><a xlink:href="../../d0/db6/structSDK_1_1FName.html" target="_top" xlink:title=" ">
<polygon fill="white" stroke="black" points="141,-857.5 141,-980.5 248,-980.5 248,-857.5 141,-857.5"/>
<text text-anchor="middle" x="194.5" y="-968.5" font-family="Helvetica,sans-Serif" font-size="10.00">SDK::FName</text>
<polyline fill="none" stroke="black" points="141,-961.5 248,-961.5 "/>
<text text-anchor="start" x="149" y="-949.5" font-family="Helvetica,sans-Serif" font-size="10.00">+ Index</text>
<text text-anchor="start" x="149" y="-938.5" font-family="Helvetica,sans-Serif" font-size="10.00">+ Number</text>
<polyline fill="none" stroke="black" points="141,-931.5 248,-931.5 "/>
<text text-anchor="start" x="149" y="-919.5" font-family="Helvetica,sans-Serif" font-size="10.00">+ FName()</text>
<text text-anchor="start" x="149" y="-908.5" font-family="Helvetica,sans-Serif" font-size="10.00">+ FName()</text>
<text text-anchor="start" x="149" y="-897.5" font-family="Helvetica,sans-Serif" font-size="10.00">+ FName()</text>
<text text-anchor="start" x="149" y="-886.5" font-family="Helvetica,sans-Serif" font-size="10.00">+ GetName()</text>
<text text-anchor="start" x="149" y="-875.5" font-family="Helvetica,sans-Serif" font-size="10.00">+ operator==()</text>
<text text-anchor="start" x="149" y="-864.5" font-family="Helvetica,sans-Serif" font-size="10.00">+ GetGlobalNames()</text>
</a>
</g>
</g>
<!-- Node4&#45;&gt;Node2 -->
<g id="edge3" class="edge">
<title>Node4&#45;&gt;Node2</title>
<path fill="none" stroke="#404040" d="M211.12,-857.44C215.97,-839.74 221.48,-819.66 227.06,-799.33"/>
<polygon fill="none" stroke="#404040" points="227.08,-799.26 224.81,-792.41 230.25,-787.69 232.52,-794.53 227.08,-799.26"/>
<text text-anchor="middle" x="243.5" y="-820" font-family="Helvetica,sans-Serif" font-size="10.00"> +Name</text>
</g>
<!-- Node5 -->
<g id="node5" class="node">
<title>Node5</title>
<g id="a_node5"><a xlink:href="../../d3/d79/classSDK_1_1TArray.html" target="_top" xlink:title=" ">
<polygon fill="white" stroke="black" points="104.5,-1028.5 104.5,-1162.5 284.5,-1162.5 284.5,-1028.5 104.5,-1028.5"/>
<text text-anchor="middle" x="194.5" y="-1150.5" font-family="Helvetica,sans-Serif" font-size="10.00">SDK::TArray&lt; SDK::FNameEntry * &gt;</text>
<polyline fill="none" stroke="black" points="104.5,-1143.5 284.5,-1143.5 "/>
<text text-anchor="start" x="112.5" y="-1131.5" font-family="Helvetica,sans-Serif" font-size="10.00">&#45; Count</text>
<text text-anchor="start" x="112.5" y="-1120.5" font-family="Helvetica,sans-Serif" font-size="10.00">&#45; Max</text>
<polyline fill="none" stroke="black" points="104.5,-1113.5 284.5,-1113.5 "/>
<text text-anchor="start" x="112.5" y="-1101.5" font-family="Helvetica,sans-Serif" font-size="10.00">+ TArray()</text>
<text text-anchor="start" x="112.5" y="-1090.5" font-family="Helvetica,sans-Serif" font-size="10.00">+ Num()</text>
<text text-anchor="start" x="112.5" y="-1079.5" font-family="Helvetica,sans-Serif" font-size="10.00">+ operator[]()</text>
<text text-anchor="start" x="112.5" y="-1068.5" font-family="Helvetica,sans-Serif" font-size="10.00">+ operator[]()</text>
<text text-anchor="start" x="112.5" y="-1057.5" font-family="Helvetica,sans-Serif" font-size="10.00">+ IsValidIndex()</text>
<text text-anchor="start" x="112.5" y="-1046.5" font-family="Helvetica,sans-Serif" font-size="10.00">+ GetByIndex()</text>
<text text-anchor="start" x="112.5" y="-1035.5" font-family="Helvetica,sans-Serif" font-size="10.00">+ GetByIndex()</text>
</a>
</g>
</g>
<!-- Node5&#45;&gt;Node4 -->
<g id="edge4" class="edge">
<title>Node5&#45;&gt;Node4</title>
<path fill="none" stroke="#404040" d="M194.5,-1028.03C194.5,-1016.45 194.5,-1004.35 194.5,-992.62"/>
<polygon fill="none" stroke="#404040" points="194.5,-992.56 190.5,-986.56 194.5,-980.56 198.5,-986.56 194.5,-992.56"/>
<text text-anchor="middle" x="219" y="-1002" font-family="Helvetica,sans-Serif" font-size="10.00"> +GNames</text>
</g>
<!-- Node6 -->
<g id="node6" class="node">
<title>Node6</title>
<g id="a_node6"><a xlink:href="../../d7/ddf/classSDK_1_1FNameEntry.html" target="_top" xlink:title=" ">
<polygon fill="white" stroke="black" points="149,-1249 149,-1317 248,-1317 248,-1249 149,-1249"/>
<text text-anchor="middle" x="198.5" y="-1305" font-family="Helvetica,sans-Serif" font-size="10.00">SDK::FNameEntry</text>
<polyline fill="none" stroke="black" points="149,-1298 248,-1298 "/>
<text text-anchor="start" x="157" y="-1286" font-family="Helvetica,sans-Serif" font-size="10.00">+ UnknownData00</text>
<text text-anchor="start" x="157" y="-1275" font-family="Helvetica,sans-Serif" font-size="10.00">+ name</text>
<polyline fill="none" stroke="black" points="149,-1268 248,-1268 "/>
<text text-anchor="start" x="157" y="-1256" font-family="Helvetica,sans-Serif" font-size="10.00">+ GetName()</text>
</a>
</g>
</g>
<!-- Node6&#45;&gt;Node5 -->
<g id="edge5" class="edge">
<title>Node6&#45;&gt;Node5</title>
<path fill="none" stroke="#404040" d="M197.78,-1248.84C197.34,-1228.23 196.75,-1200.83 196.19,-1174.95"/>
<polygon fill="none" stroke="#404040" points="196.19,-1174.8 192.06,-1168.89 195.93,-1162.8 200.06,-1168.71 196.19,-1174.8"/>
<text text-anchor="middle" x="210.5" y="-1184" font-family="Helvetica,sans-Serif" font-size="10.00"> &#45;Data</text>
</g>
<!-- Node7 -->
<g id="node7" class="node">
<title>Node7</title>
<g id="a_node7"><a xlink:href="../../d3/d79/classSDK_1_1TArray.html" target="_top" xlink:title=" ">
<polygon fill="white" stroke="black" points="0,-1210.5 0,-1355.5 97,-1355.5 97,-1210.5 0,-1210.5"/>
<text text-anchor="middle" x="48.5" y="-1343.5" font-family="Helvetica,sans-Serif" font-size="10.00">SDK::TArray&lt; T &gt;</text>
<polyline fill="none" stroke="black" points="0,-1336.5 97,-1336.5 "/>
<text text-anchor="start" x="8" y="-1324.5" font-family="Helvetica,sans-Serif" font-size="10.00">&#45; Data</text>
<text text-anchor="start" x="8" y="-1313.5" font-family="Helvetica,sans-Serif" font-size="10.00">&#45; Count</text>
<text text-anchor="start" x="8" y="-1302.5" font-family="Helvetica,sans-Serif" font-size="10.00">&#45; Max</text>
<polyline fill="none" stroke="black" points="0,-1295.5 97,-1295.5 "/>
<text text-anchor="start" x="8" y="-1283.5" font-family="Helvetica,sans-Serif" font-size="10.00">+ TArray()</text>
<text text-anchor="start" x="8" y="-1272.5" font-family="Helvetica,sans-Serif" font-size="10.00">+ Num()</text>
<text text-anchor="start" x="8" y="-1261.5" font-family="Helvetica,sans-Serif" font-size="10.00">+ operator[]()</text>
<text text-anchor="start" x="8" y="-1250.5" font-family="Helvetica,sans-Serif" font-size="10.00">+ operator[]()</text>
<text text-anchor="start" x="8" y="-1239.5" font-family="Helvetica,sans-Serif" font-size="10.00">+ IsValidIndex()</text>
<text text-anchor="start" x="8" y="-1228.5" font-family="Helvetica,sans-Serif" font-size="10.00">+ GetByIndex()</text>
<text text-anchor="start" x="8" y="-1217.5" font-family="Helvetica,sans-Serif" font-size="10.00">+ GetByIndex()</text>
</a>
</g>
</g>
<!-- Node7&#45;&gt;Node5 -->
<g id="edge6" class="edge">
<title>Node7&#45;&gt;Node5</title>
<path fill="none" stroke="orange" d="M70.01,-1200.72C73.33,-1193.77 77.14,-1187.08 81.5,-1181 88.07,-1171.84 95.92,-1163.25 104.39,-1155.31"/>
<polygon fill="orange" stroke="orange" points="66.61,-1199.77 65.78,-1210.33 73.01,-1202.59 66.61,-1199.77"/>
<text text-anchor="middle" x="137" y="-1184" font-family="Helvetica,sans-Serif" font-size="10.00"> &lt; SDK::FNameEntry * &gt;</text>
</g>
<!-- Node7&#45;&gt;Node8 -->
<g id="edge10" class="edge">
<title>Node7&#45;&gt;Node8</title>
<path fill="none" stroke="orange" d="M37.75,-1200.08C34.37,-1167.85 31.5,-1130.5 31.5,-1096.5 31.5,-1096.5 31.5,-1096.5 31.5,-664.5 31.5,-605.21 54.37,-541.68 75.5,-495.65"/>
<polygon fill="orange" stroke="orange" points="34.3,-1200.78 38.86,-1210.35 41.26,-1200.03 34.3,-1200.78"/>
<text text-anchor="middle" x="77" y="-916.5" font-family="Helvetica,sans-Serif" font-size="10.00"> &lt; SDK::UObject * &gt;</text>
</g>
<!-- Node8&#45;&gt;Node2 -->
<g id="edge8" class="edge">
<title>Node8&#45;&gt;Node2</title>
<path fill="none" stroke="#404040" d="M155.47,-495.82C159.56,-501.95 163.62,-508.08 167.5,-514 171.57,-520.21 175.72,-526.57 179.9,-533.01"/>
<polygon fill="none" stroke="#404040" points="179.96,-533.09 186.58,-535.96 186.48,-543.17 179.86,-540.31 179.96,-533.09"/>
<text text-anchor="middle" x="199" y="-517" font-family="Helvetica,sans-Serif" font-size="10.00"> +GObjects</text>
</g>
<!-- Node9 -->
<g id="node9" class="node">
<title>Node9</title>
<g id="a_node9"><a xlink:href="../../d9/dfa/structSDK_1_1FPointer.html" target="_top" xlink:title=" ">
<polygon fill="white" stroke="black" points="364.5,-885 364.5,-953 462.5,-953 462.5,-885 364.5,-885"/>
<text text-anchor="middle" x="413.5" y="-941" font-family="Helvetica,sans-Serif" font-size="10.00">SDK::FPointer</text>
<polyline fill="none" stroke="black" points="364.5,-934 462.5,-934 "/>
<text text-anchor="start" x="372.5" y="-922" font-family="Helvetica,sans-Serif" font-size="10.00">+ Dummy</text>
<text text-anchor="start" x="372.5" y="-911" font-family="Helvetica,sans-Serif" font-size="10.00">+ UnknownData00</text>
<polyline fill="none" stroke="black" points="364.5,-904 462.5,-904 "/>
<text text-anchor="middle" x="413.5" y="-892" font-family="Helvetica,sans-Serif" font-size="10.00"> </text>
</a>
</g>
</g>
<!-- Node9&#45;&gt;Node2 -->
<g id="edge11" class="edge">
<title>Node9&#45;&gt;Node2</title>
<path fill="none" stroke="#404040" d="M399.19,-884.97C388.98,-862.3 374.46,-831.76 359.5,-806 357.95,-803.33 356.37,-800.65 354.75,-797.95"/>
<polygon fill="none" stroke="#404040" points="354.64,-797.77 348.1,-794.72 348.4,-787.52 354.94,-790.56 354.64,-797.77"/>
<text text-anchor="middle" x="411" y="-831" font-family="Helvetica,sans-Serif" font-size="10.00"> +StateFrame</text>
<text text-anchor="middle" x="411" y="-820" font-family="Helvetica,sans-Serif" font-size="10.00">+VfTableObject</text>
<text text-anchor="middle" x="411" y="-809" font-family="Helvetica,sans-Serif" font-size="10.00">+LinkerIndex</text>
</g>
<!-- Node10&#45;&gt;Node2 -->
<g id="edge12" class="edge">
<title>Node10&#45;&gt;Node2</title>
<path fill="none" stroke="#404040" d="M369.5,-90.72C369.5,-110.67 369.5,-134.52 369.5,-156 369.5,-429.5 369.5,-429.5 369.5,-429.5 369.5,-464.33 359.7,-499.7 346.07,-532.07"/>
<polygon fill="none" stroke="#404040" points="345.92,-532.4 347.17,-539.5 341.09,-543.38 339.85,-536.28 345.92,-532.4"/>
<text text-anchor="middle" x="387" y="-260.5" font-family="Helvetica,sans-Serif" font-size="10.00"> +Class</text>
</g>
<!-- Node11 -->
<g id="node11" class="node">
<title>Node11</title>
<g id="a_node11"><a xlink:href="../../df/d72/classSDK_1_1UState.html" target="_top" xlink:title=" ">
<polygon fill="white" stroke="black" points="241.5,-128.5 241.5,-185.5 339.5,-185.5 339.5,-128.5 241.5,-128.5"/>
<text text-anchor="middle" x="290.5" y="-173.5" font-family="Helvetica,sans-Serif" font-size="10.00">SDK::UState</text>
<polyline fill="none" stroke="black" points="241.5,-166.5 339.5,-166.5 "/>
<text text-anchor="start" x="249.5" y="-154.5" font-family="Helvetica,sans-Serif" font-size="10.00">+ UnknownData00</text>
<polyline fill="none" stroke="black" points="241.5,-147.5 339.5,-147.5 "/>
<text text-anchor="start" x="249.5" y="-135.5" font-family="Helvetica,sans-Serif" font-size="10.00">+ StaticClass()</text>
</a>
</g>
</g>
<!-- Node11&#45;&gt;Node10 -->
<g id="edge13" class="edge">
<title>Node11&#45;&gt;Node10</title>
<path fill="none" stroke="midnightblue" d="M316.44,-120.04C323.2,-110.68 330.56,-100.48 337.58,-90.74"/>
<polygon fill="none" stroke="midnightblue" points="313.45,-118.21 310.44,-128.37 319.12,-122.31 313.45,-118.21"/>
</g>
<!-- Node12 -->
<g id="node12" class="node">
<title>Node12</title>
<g id="a_node12"><a xlink:href="../../d8/de9/classSDK_1_1UStruct.html" target="_top" xlink:title=" ">
<polygon fill="white" stroke="black" points="235.5,-223.5 235.5,-302.5 333.5,-302.5 333.5,-223.5 235.5,-223.5"/>
<text text-anchor="middle" x="284.5" y="-290.5" font-family="Helvetica,sans-Serif" font-size="10.00">SDK::UStruct</text>
<polyline fill="none" stroke="black" points="235.5,-283.5 333.5,-283.5 "/>
<text text-anchor="start" x="243.5" y="-271.5" font-family="Helvetica,sans-Serif" font-size="10.00">+ UnknownData00</text>
<text text-anchor="start" x="243.5" y="-260.5" font-family="Helvetica,sans-Serif" font-size="10.00">+ PropertySize</text>
<text text-anchor="start" x="243.5" y="-249.5" font-family="Helvetica,sans-Serif" font-size="10.00">+ UnknownData01</text>
<polyline fill="none" stroke="black" points="235.5,-242.5 333.5,-242.5 "/>
<text text-anchor="start" x="243.5" y="-230.5" font-family="Helvetica,sans-Serif" font-size="10.00">+ StaticClass()</text>
</a>
</g>
</g>
<!-- Node12&#45;&gt;Node11 -->
<g id="edge14" class="edge">
<title>Node12&#45;&gt;Node11</title>
<path fill="none" stroke="midnightblue" d="M287.32,-213.16C287.86,-203.74 288.41,-194.17 288.9,-185.72"/>
<polygon fill="none" stroke="midnightblue" points="283.82,-213.09 286.73,-223.27 290.8,-213.49 283.82,-213.09"/>
</g>
<!-- Node13&#45;&gt;Node12 -->
<g id="edge15" class="edge">
<title>Node13&#45;&gt;Node12</title>
<path fill="none" stroke="midnightblue" d="M271.03,-390.88C278.04,-376.43 284.99,-359.38 288.5,-343 291.27,-330.11 291.39,-315.78 290.47,-302.9"/>
<polygon fill="none" stroke="midnightblue" points="267.83,-389.46 266.46,-399.97 274.08,-392.61 267.83,-389.46"/>
</g>
<!-- Node13&#45;&gt;Node12 -->
<g id="edge18" class="edge">
<title>Node13&#45;&gt;Node12</title>
<path fill="none" stroke="#404040" d="M236.22,-399.99C226.81,-377.99 217.99,-346.69 228.5,-321 229.67,-318.14 231.06,-315.34 232.63,-312.61"/>
<polygon fill="none" stroke="#404040" points="232.73,-312.47 232.76,-305.26 239.43,-302.52 239.4,-309.73 232.73,-312.47"/>
<text text-anchor="middle" x="256.5" y="-335" font-family="Helvetica,sans-Serif" font-size="10.00"> +SuperField</text>
<text text-anchor="middle" x="256.5" y="-324" font-family="Helvetica,sans-Serif" font-size="10.00">+Children</text>
</g>
<!-- Node13&#45;&gt;Node13 -->
<g id="edge17" class="edge">
<title>Node13&#45;&gt;Node13</title>
<path fill="none" stroke="#404040" d="M292.21,-445.11C302.41,-443.88 310,-438.34 310,-428.5 310,-422.96 307.6,-418.79 303.68,-415.98"/>
<polygon fill="none" stroke="#404040" points="303.51,-415.92 296.51,-417.67 292.21,-411.89 299.2,-410.13 303.51,-415.92"/>
<text text-anchor="middle" x="325.5" y="-426" font-family="Helvetica,sans-Serif" font-size="10.00"> +Next</text>
</g>
<!-- Node14 -->
<g id="node14" class="node">
<title>Node14</title>
<g id="a_node14"><a xlink:href="../../d5/d7d/structSDK_1_1FLightmassPrimitiveSettings.html" target="_top" xlink:title=" ">
<polygon fill="white" stroke="black" points="478,-582 478,-749 641,-749 641,-582 478,-582"/>
<text text-anchor="start" x="486" y="-737" font-family="Helvetica,sans-Serif" font-size="10.00">SDK::FLightmassPrimitive</text>
<text text-anchor="middle" x="559.5" y="-726" font-family="Helvetica,sans-Serif" font-size="10.00">Settings</text>
<polyline fill="none" stroke="black" points="478,-719 641,-719 "/>
<text text-anchor="start" x="486" y="-707" font-family="Helvetica,sans-Serif" font-size="10.00">+ bUseTwoSidedLighting</text>
<text text-anchor="start" x="486" y="-696" font-family="Helvetica,sans-Serif" font-size="10.00">+ bShadowIndirectOnly</text>
<text text-anchor="start" x="486" y="-685" font-family="Helvetica,sans-Serif" font-size="10.00">+ bUseEmissiveForStaticLighting</text>
<text text-anchor="start" x="486" y="-674" font-family="Helvetica,sans-Serif" font-size="10.00">+ EmissiveLightFalloffExponent</text>
<text text-anchor="start" x="486" y="-663" font-family="Helvetica,sans-Serif" font-size="10.00">+ EmissiveLightExplicitInfluence</text>
<text text-anchor="start" x="486" y="-652" font-family="Helvetica,sans-Serif" font-size="10.00">Radius</text>
<text text-anchor="start" x="486" y="-641" font-family="Helvetica,sans-Serif" font-size="10.00">+ EmissiveBoost</text>
<text text-anchor="start" x="486" y="-630" font-family="Helvetica,sans-Serif" font-size="10.00">+ DiffuseBoost</text>
<text text-anchor="start" x="486" y="-619" font-family="Helvetica,sans-Serif" font-size="10.00">+ SpecularBoost</text>
<text text-anchor="start" x="486" y="-608" font-family="Helvetica,sans-Serif" font-size="10.00">+ FullyOccludedSamplesFraction</text>
<polyline fill="none" stroke="black" points="478,-601 641,-601 "/>
<text text-anchor="middle" x="559.5" y="-589" font-family="Helvetica,sans-Serif" font-size="10.00"> </text>
</a>
</g>
</g>
<!-- Node14&#45;&gt;Node1 -->
<g id="edge20" class="edge">
<title>Node14&#45;&gt;Node1</title>
<path fill="none" stroke="#404040" d="M555.29,-581.98C553.45,-545.99 551.36,-505.18 549.82,-474.85"/>
<polygon fill="none" stroke="#404040" points="549.8,-474.52 545.5,-468.73 549.19,-462.53 553.49,-468.32 549.8,-474.52"/>
<text text-anchor="middle" x="598" y="-517" font-family="Helvetica,sans-Serif" font-size="10.00"> +LightmassSettings</text>
</g>
</g>
</svg>
