<?xml version="1.0" encoding="UTF-8" standalone="no"?>
<!DOCTYPE svg PUBLIC "-//W3C//DTD SVG 1.1//EN"
 "http://www.w3.org/Graphics/SVG/1.1/DTD/svg11.dtd">
<!-- Generated by graphviz version 2.41.20171026.1811 (20171026.1811)
 -->
<!-- Title: SDK/LA_XAudio2_structs.hpp Pages: 1 -->
<svg width="228pt" height="364pt"
 viewBox="0.00 0.00 227.50 364.00" xmlns="http://www.w3.org/2000/svg" xmlns:xlink="http://www.w3.org/1999/xlink">
<g id="graph0" class="graph" transform="scale(1 1) rotate(0) translate(4 360)">
<title>SDK/LA_XAudio2_structs.hpp</title>
<polygon fill="white" stroke="transparent" points="-4,4 -4,-360 223.5,-360 223.5,4 -4,4"/>
<!-- Node1 -->
<g id="node1" class="node">
<title>Node1</title>
<g id="a_node1"><a xlink:title=" ">
<polygon fill="#bfbfbf" stroke="black" points="9.5,-336.5 9.5,-355.5 158.5,-355.5 158.5,-336.5 9.5,-336.5"/>
<text text-anchor="middle" x="84" y="-343.5" font-family="Helvetica,sans-Serif" font-size="10.00">SDK/LA_XAudio2_structs.hpp</text>
</a>
</g>
</g>
<!-- Node2 -->
<g id="node2" class="node">
<title>Node2</title>
<g id="a_node2"><a xlink:href="../../d1/db4/LA__Basic_8hpp.html" target="_top" xlink:title=" ">
<polygon fill="white" stroke="black" points="39.5,-56.5 39.5,-75.5 116.5,-75.5 116.5,-56.5 39.5,-56.5"/>
<text text-anchor="middle" x="78" y="-63.5" font-family="Helvetica,sans-Serif" font-size="10.00">LA_Basic.hpp</text>
</a>
</g>
</g>
<!-- Node1&#45;&gt;Node2 -->
<g id="edge1" class="edge">
<title>Node1&#45;&gt;Node2</title>
<path fill="none" stroke="midnightblue" d="M77.88,-336.35C65.79,-318.38 40,-275.31 40,-235 40,-235 40,-235 40,-177 40,-142.81 56.6,-105.76 67.86,-84.57"/>
<polygon fill="midnightblue" stroke="midnightblue" points="70.95,-86.22 72.72,-75.77 64.82,-82.83 70.95,-86.22"/>
</g>
<!-- Node5 -->
<g id="node5" class="node">
<title>Node5</title>
<g id="a_node5"><a xlink:href="../../d8/db4/LA__Engine__classes_8hpp.html" target="_top" xlink:title=" ">
<polygon fill="white" stroke="black" points="68,-280.5 68,-299.5 190,-299.5 190,-280.5 68,-280.5"/>
<text text-anchor="middle" x="129" y="-287.5" font-family="Helvetica,sans-Serif" font-size="10.00">LA_Engine_classes.hpp</text>
</a>
</g>
</g>
<!-- Node1&#45;&gt;Node5 -->
<g id="edge4" class="edge">
<title>Node1&#45;&gt;Node5</title>
<path fill="none" stroke="midnightblue" d="M91.43,-336.08C97.85,-328.38 107.31,-317.03 115.12,-307.65"/>
<polygon fill="midnightblue" stroke="midnightblue" points="117.99,-309.67 121.71,-299.75 112.62,-305.19 117.99,-309.67"/>
</g>
<!-- Node3 -->
<g id="node3" class="node">
<title>Node3</title>
<g id="a_node3"><a xlink:title=" ">
<polygon fill="white" stroke="#bfbfbf" points="0,-0.5 0,-19.5 78,-19.5 78,-0.5 0,-0.5"/>
<text text-anchor="middle" x="39" y="-7.5" font-family="Helvetica,sans-Serif" font-size="10.00">unordered_set</text>
</a>
</g>
</g>
<!-- Node2&#45;&gt;Node3 -->
<g id="edge2" class="edge">
<title>Node2&#45;&gt;Node3</title>
<path fill="none" stroke="midnightblue" d="M71.56,-56.08C66.05,-48.46 57.97,-37.26 51.24,-27.94"/>
<polygon fill="midnightblue" stroke="midnightblue" points="54.01,-25.81 45.32,-19.75 48.34,-29.91 54.01,-25.81"/>
</g>
<!-- Node4 -->
<g id="node4" class="node">
<title>Node4</title>
<g id="a_node4"><a xlink:title=" ">
<polygon fill="white" stroke="#bfbfbf" points="96.5,-0.5 96.5,-19.5 137.5,-19.5 137.5,-0.5 96.5,-0.5"/>
<text text-anchor="middle" x="117" y="-7.5" font-family="Helvetica,sans-Serif" font-size="10.00">string</text>
</a>
</g>
</g>
<!-- Node2&#45;&gt;Node4 -->
<g id="edge3" class="edge">
<title>Node2&#45;&gt;Node4</title>
<path fill="none" stroke="midnightblue" d="M84.44,-56.08C89.95,-48.46 98.03,-37.26 104.76,-27.94"/>
<polygon fill="midnightblue" stroke="midnightblue" points="107.66,-29.91 110.68,-19.75 101.99,-25.81 107.66,-29.91"/>
</g>
<!-- Node6 -->
<g id="node6" class="node">
<title>Node6</title>
<g id="a_node6"><a xlink:href="../../d3/dab/LA__Engine__structs_8hpp.html" target="_top" xlink:title=" ">
<polygon fill="white" stroke="black" points="70,-224.5 70,-243.5 188,-243.5 188,-224.5 70,-224.5"/>
<text text-anchor="middle" x="129" y="-231.5" font-family="Helvetica,sans-Serif" font-size="10.00">LA_Engine_structs.hpp</text>
</a>
</g>
</g>
<!-- Node5&#45;&gt;Node6 -->
<g id="edge5" class="edge">
<title>Node5&#45;&gt;Node6</title>
<path fill="none" stroke="midnightblue" d="M129,-280.08C129,-273.01 129,-262.86 129,-253.99"/>
<polygon fill="midnightblue" stroke="midnightblue" points="132.5,-253.75 129,-243.75 125.5,-253.75 132.5,-253.75"/>
</g>
<!-- Node6&#45;&gt;Node2 -->
<g id="edge6" class="edge">
<title>Node6&#45;&gt;Node2</title>
<path fill="none" stroke="midnightblue" d="M121.32,-224.38C114.1,-215.78 103.61,-201.9 98,-188 84.11,-153.57 79.86,-109.9 78.57,-85.56"/>
<polygon fill="midnightblue" stroke="midnightblue" points="82.06,-85.4 78.15,-75.56 75.07,-85.69 82.06,-85.4"/>
</g>
<!-- Node7 -->
<g id="node7" class="node">
<title>Node7</title>
<g id="a_node7"><a xlink:href="../../d8/dd2/LA__Core__classes_8hpp.html" target="_top" xlink:title=" ">
<polygon fill="white" stroke="black" points="106.5,-168.5 106.5,-187.5 219.5,-187.5 219.5,-168.5 106.5,-168.5"/>
<text text-anchor="middle" x="163" y="-175.5" font-family="Helvetica,sans-Serif" font-size="10.00">LA_Core_classes.hpp</text>
</a>
</g>
</g>
<!-- Node6&#45;&gt;Node7 -->
<g id="edge7" class="edge">
<title>Node6&#45;&gt;Node7</title>
<path fill="none" stroke="midnightblue" d="M134.61,-224.08C139.37,-216.53 146.32,-205.49 152.15,-196.23"/>
<polygon fill="midnightblue" stroke="midnightblue" points="155.12,-198.08 157.49,-187.75 149.2,-194.35 155.12,-198.08"/>
</g>
<!-- Node8 -->
<g id="node8" class="node">
<title>Node8</title>
<g id="a_node8"><a xlink:href="../../de/d77/LA__Core__structs_8hpp.html" target="_top" xlink:title=" ">
<polygon fill="white" stroke="black" points="107.5,-112.5 107.5,-131.5 216.5,-131.5 216.5,-112.5 107.5,-112.5"/>
<text text-anchor="middle" x="162" y="-119.5" font-family="Helvetica,sans-Serif" font-size="10.00">LA_Core_structs.hpp</text>
</a>
</g>
</g>
<!-- Node7&#45;&gt;Node8 -->
<g id="edge8" class="edge">
<title>Node7&#45;&gt;Node8</title>
<path fill="none" stroke="midnightblue" d="M162.83,-168.08C162.7,-161.01 162.52,-150.86 162.35,-141.99"/>
<polygon fill="midnightblue" stroke="midnightblue" points="165.85,-141.68 162.16,-131.75 158.85,-141.81 165.85,-141.68"/>
</g>
<!-- Node8&#45;&gt;Node2 -->
<g id="edge9" class="edge">
<title>Node8&#45;&gt;Node2</title>
<path fill="none" stroke="midnightblue" d="M148.5,-112.32C135.4,-103.9 115.29,-90.97 99.89,-81.07"/>
<polygon fill="midnightblue" stroke="midnightblue" points="101.77,-78.12 91.46,-75.65 97.98,-84.01 101.77,-78.12"/>
</g>
</g>
</svg>
