<?xml version="1.0" encoding="UTF-8" standalone="no"?>
<!DOCTYPE svg PUBLIC "-//W3C//DTD SVG 1.1//EN"
 "http://www.w3.org/Graphics/SVG/1.1/DTD/svg11.dtd">
<!-- Generated by graphviz version 2.41.20171026.1811 (20171026.1811)
 -->
<!-- Title: SDK::UObjectRedirector Pages: 1 -->
<svg width="632pt" height="1364pt"
 viewBox="0.00 0.00 632.00 1364.00" xmlns="http://www.w3.org/2000/svg" xmlns:xlink="http://www.w3.org/1999/xlink">
<g id="graph0" class="graph" transform="scale(1 1) rotate(0) translate(4 1360)">
<title>SDK::UObjectRedirector</title>
<polygon fill="white" stroke="transparent" points="-4,4 -4,-1360 628,-1360 628,4 -4,4"/>
<!-- Node1 -->
<g id="node1" class="node">
<title>Node1</title>
<g id="a_node1"><a xlink:title=" ">
<polygon fill="#bfbfbf" stroke="black" points="179,-400 179,-457 304,-457 304,-400 179,-400"/>
<text text-anchor="middle" x="241.5" y="-445" font-family="Helvetica,sans-Serif" font-size="10.00">SDK::UObjectRedirector</text>
<polyline fill="none" stroke="black" points="179,-438 304,-438 "/>
<text text-anchor="start" x="187" y="-426" font-family="Helvetica,sans-Serif" font-size="10.00">+ UnknownData00</text>
<polyline fill="none" stroke="black" points="179,-419 304,-419 "/>
<text text-anchor="start" x="187" y="-407" font-family="Helvetica,sans-Serif" font-size="10.00">+ StaticClass()</text>
</a>
</g>
</g>
<!-- Node2 -->
<g id="node2" class="node">
<title>Node2</title>
<g id="a_node2"><a xlink:href="../../d9/d45/classSDK_1_1UObject.html" target="_top" xlink:title=" ">
<polygon fill="white" stroke="black" points="233.5,-543.5 233.5,-787.5 431.5,-787.5 431.5,-543.5 233.5,-543.5"/>
<text text-anchor="middle" x="332.5" y="-775.5" font-family="Helvetica,sans-Serif" font-size="10.00">SDK::UObject</text>
<polyline fill="none" stroke="black" points="233.5,-768.5 431.5,-768.5 "/>
<text text-anchor="start" x="241.5" y="-756.5" font-family="Helvetica,sans-Serif" font-size="10.00">+ ObjectInternalInteger</text>
<text text-anchor="start" x="241.5" y="-745.5" font-family="Helvetica,sans-Serif" font-size="10.00">+ NetIndex</text>
<polyline fill="none" stroke="black" points="233.5,-738.5 431.5,-738.5 "/>
<text text-anchor="start" x="241.5" y="-726.5" font-family="Helvetica,sans-Serif" font-size="10.00">+ UObject::GetName()</text>
<text text-anchor="start" x="241.5" y="-715.5" font-family="Helvetica,sans-Serif" font-size="10.00">+ GetFullName()</text>
<text text-anchor="start" x="241.5" y="-704.5" font-family="Helvetica,sans-Serif" font-size="10.00">+ IsA()</text>
<text text-anchor="start" x="241.5" y="-693.5" font-family="Helvetica,sans-Serif" font-size="10.00">+ ProcessEvent()</text>
<text text-anchor="start" x="241.5" y="-682.5" font-family="Helvetica,sans-Serif" font-size="10.00">+ STATIC_ProfNodeEvent()</text>
<text text-anchor="start" x="241.5" y="-671.5" font-family="Helvetica,sans-Serif" font-size="10.00">+ STATIC_ProfNodeSetDepthThreshold()</text>
<text text-anchor="start" x="241.5" y="-660.5" font-family="Helvetica,sans-Serif" font-size="10.00">+ STATIC_ProfNodeSetTimeThreshold</text>
<text text-anchor="start" x="241.5" y="-649.5" font-family="Helvetica,sans-Serif" font-size="10.00">Seconds()</text>
<text text-anchor="start" x="241.5" y="-638.5" font-family="Helvetica,sans-Serif" font-size="10.00">+ STATIC_ProfNodeStop()</text>
<text text-anchor="start" x="241.5" y="-627.5" font-family="Helvetica,sans-Serif" font-size="10.00">+ STATIC_ProfNodeStart()</text>
<text text-anchor="start" x="241.5" y="-616.5" font-family="Helvetica,sans-Serif" font-size="10.00">+ STATIC_GetStringFromGuid()</text>
<text text-anchor="start" x="241.5" y="-605.5" font-family="Helvetica,sans-Serif" font-size="10.00">and 298 more...</text>
<text text-anchor="start" x="241.5" y="-594.5" font-family="Helvetica,sans-Serif" font-size="10.00">+ GetGlobalObjects()</text>
<text text-anchor="start" x="241.5" y="-583.5" font-family="Helvetica,sans-Serif" font-size="10.00">+ FindObject()</text>
<text text-anchor="start" x="241.5" y="-572.5" font-family="Helvetica,sans-Serif" font-size="10.00">+ FindClass()</text>
<text text-anchor="start" x="241.5" y="-561.5" font-family="Helvetica,sans-Serif" font-size="10.00">+ GetObjectCasted()</text>
<text text-anchor="start" x="241.5" y="-550.5" font-family="Helvetica,sans-Serif" font-size="10.00">+ StaticClass()</text>
</a>
</g>
</g>
<!-- Node2&#45;&gt;Node1 -->
<g id="edge1" class="edge">
<title>Node2&#45;&gt;Node1</title>
<path fill="none" stroke="midnightblue" d="M281.87,-533.76C270.64,-504.75 259.83,-476.83 252.22,-457.19"/>
<polygon fill="none" stroke="midnightblue" points="278.66,-535.15 285.53,-543.21 285.19,-532.62 278.66,-535.15"/>
</g>
<!-- Node2&#45;&gt;Node2 -->
<g id="edge7" class="edge">
<title>Node2&#45;&gt;Node2</title>
<path fill="none" stroke="#404040" d="M431.51,-688.53C442.44,-684.15 449.5,-676.48 449.5,-665.5 449.5,-658.64 446.74,-653.07 442.01,-648.78"/>
<polygon fill="none" stroke="#404040" points="441.8,-648.66 434.59,-648.99 431.51,-642.47 438.72,-642.14 441.8,-648.66"/>
<text text-anchor="middle" x="489" y="-674" font-family="Helvetica,sans-Serif" font-size="10.00"> +Outer</text>
<text text-anchor="middle" x="489" y="-663" font-family="Helvetica,sans-Serif" font-size="10.00">+Linker</text>
<text text-anchor="middle" x="489" y="-652" font-family="Helvetica,sans-Serif" font-size="10.00">+ObjectArchetype</text>
</g>
<!-- Node8 -->
<g id="node8" class="node">
<title>Node8</title>
<g id="a_node8"><a xlink:href="../../d3/d79/classSDK_1_1TArray.html" target="_top" xlink:title=" ">
<polygon fill="white" stroke="black" points="0,-361.5 0,-495.5 161,-495.5 161,-361.5 0,-361.5"/>
<text text-anchor="middle" x="80.5" y="-483.5" font-family="Helvetica,sans-Serif" font-size="10.00">SDK::TArray&lt; SDK::UObject * &gt;</text>
<polyline fill="none" stroke="black" points="0,-476.5 161,-476.5 "/>
<text text-anchor="start" x="8" y="-464.5" font-family="Helvetica,sans-Serif" font-size="10.00">&#45; Count</text>
<text text-anchor="start" x="8" y="-453.5" font-family="Helvetica,sans-Serif" font-size="10.00">&#45; Max</text>
<polyline fill="none" stroke="black" points="0,-446.5 161,-446.5 "/>
<text text-anchor="start" x="8" y="-434.5" font-family="Helvetica,sans-Serif" font-size="10.00">+ TArray()</text>
<text text-anchor="start" x="8" y="-423.5" font-family="Helvetica,sans-Serif" font-size="10.00">+ Num()</text>
<text text-anchor="start" x="8" y="-412.5" font-family="Helvetica,sans-Serif" font-size="10.00">+ operator[]()</text>
<text text-anchor="start" x="8" y="-401.5" font-family="Helvetica,sans-Serif" font-size="10.00">+ operator[]()</text>
<text text-anchor="start" x="8" y="-390.5" font-family="Helvetica,sans-Serif" font-size="10.00">+ IsValidIndex()</text>
<text text-anchor="start" x="8" y="-379.5" font-family="Helvetica,sans-Serif" font-size="10.00">+ GetByIndex()</text>
<text text-anchor="start" x="8" y="-368.5" font-family="Helvetica,sans-Serif" font-size="10.00">+ GetByIndex()</text>
</a>
</g>
</g>
<!-- Node2&#45;&gt;Node8 -->
<g id="edge9" class="edge">
<title>Node2&#45;&gt;Node8</title>
<path fill="none" stroke="#404040" d="M233.29,-599.94C203.36,-578.06 171.55,-552.21 145.5,-525 139.77,-519.01 134.19,-512.47 128.87,-505.71"/>
<polygon fill="none" stroke="#404040" points="128.52,-505.25 121.71,-502.88 121.28,-495.69 128.09,-498.05 128.52,-505.25"/>
<text text-anchor="middle" x="159.5" y="-517" font-family="Helvetica,sans-Serif" font-size="10.00"> &#45;Data</text>
</g>
<!-- Node10 -->
<g id="node10" class="node">
<title>Node10</title>
<g id="a_node10"><a xlink:href="../../d7/d85/classSDK_1_1UClass.html" target="_top" xlink:title=" ">
<polygon fill="white" stroke="black" points="403,-0.5 403,-90.5 524,-90.5 524,-0.5 403,-0.5"/>
<text text-anchor="middle" x="463.5" y="-78.5" font-family="Helvetica,sans-Serif" font-size="10.00">SDK::UClass</text>
<polyline fill="none" stroke="black" points="403,-71.5 524,-71.5 "/>
<text text-anchor="start" x="411" y="-59.5" font-family="Helvetica,sans-Serif" font-size="10.00">+ UnknownData00</text>
<text text-anchor="start" x="411" y="-48.5" font-family="Helvetica,sans-Serif" font-size="10.00">+ UnknownData01</text>
<polyline fill="none" stroke="black" points="403,-41.5 524,-41.5 "/>
<text text-anchor="start" x="411" y="-29.5" font-family="Helvetica,sans-Serif" font-size="10.00">+ CreateDefaultObject()</text>
<text text-anchor="start" x="411" y="-18.5" font-family="Helvetica,sans-Serif" font-size="10.00">+ CreateDefaultObject()</text>
<text text-anchor="start" x="411" y="-7.5" font-family="Helvetica,sans-Serif" font-size="10.00">+ StaticClass()</text>
</a>
</g>
</g>
<!-- Node2&#45;&gt;Node10 -->
<g id="edge19" class="edge">
<title>Node2&#45;&gt;Node10</title>
<path fill="none" stroke="#404040" d="M332.5,-543.44C332.5,-506.83 332.5,-466.52 332.5,-429.5 332.5,-429.5 332.5,-429.5 332.5,-156 332.5,-120.34 361.44,-94.01 392.11,-76.12"/>
<polygon fill="none" stroke="#404040" points="392.47,-75.92 395.8,-69.53 402.98,-70.14 399.65,-76.54 392.47,-75.92"/>
<text text-anchor="middle" x="380" y="-260.5" font-family="Helvetica,sans-Serif" font-size="10.00"> +ClassDefaultObject</text>
</g>
<!-- Node13 -->
<g id="node13" class="node">
<title>Node13</title>
<g id="a_node13"><a xlink:href="../../de/dd6/classSDK_1_1UField.html" target="_top" xlink:title=" ">
<polygon fill="white" stroke="black" points="492,-400 492,-457 575,-457 575,-400 492,-400"/>
<text text-anchor="middle" x="533.5" y="-445" font-family="Helvetica,sans-Serif" font-size="10.00">SDK::UField</text>
<polyline fill="none" stroke="black" points="492,-438 575,-438 "/>
<text text-anchor="middle" x="533.5" y="-426" font-family="Helvetica,sans-Serif" font-size="10.00"> </text>
<polyline fill="none" stroke="black" points="492,-419 575,-419 "/>
<text text-anchor="start" x="500" y="-407" font-family="Helvetica,sans-Serif" font-size="10.00">+ StaticClass()</text>
</a>
</g>
</g>
<!-- Node2&#45;&gt;Node13 -->
<g id="edge16" class="edge">
<title>Node2&#45;&gt;Node13</title>
<path fill="none" stroke="midnightblue" d="M439,-568.73C452.58,-554.63 465.81,-539.83 477.5,-525 494.28,-503.72 509.56,-476.91 519.91,-457.12"/>
<polygon fill="none" stroke="midnightblue" points="436.35,-566.44 431.87,-576.04 441.36,-571.33 436.35,-566.44"/>
</g>
<!-- Node3 -->
<g id="node3" class="node">
<title>Node3</title>
<g id="a_node3"><a xlink:href="../../d0/d22/structSDK_1_1FQWord.html" target="_top" xlink:title=" ">
<polygon fill="white" stroke="black" points="404.5,-885 404.5,-953 484.5,-953 484.5,-885 404.5,-885"/>
<text text-anchor="middle" x="444.5" y="-941" font-family="Helvetica,sans-Serif" font-size="10.00">SDK::FQWord</text>
<polyline fill="none" stroke="black" points="404.5,-934 484.5,-934 "/>
<text text-anchor="start" x="412.5" y="-922" font-family="Helvetica,sans-Serif" font-size="10.00">+ A</text>
<text text-anchor="start" x="412.5" y="-911" font-family="Helvetica,sans-Serif" font-size="10.00">+ B</text>
<polyline fill="none" stroke="black" points="404.5,-904 484.5,-904 "/>
<text text-anchor="middle" x="444.5" y="-892" font-family="Helvetica,sans-Serif" font-size="10.00"> </text>
</a>
</g>
</g>
<!-- Node3&#45;&gt;Node2 -->
<g id="edge2" class="edge">
<title>Node3&#45;&gt;Node2</title>
<path fill="none" stroke="#404040" d="M435.95,-884.53C429.71,-861.94 420.46,-831.67 409.5,-806 408.44,-803.52 407.35,-801.03 406.23,-798.52"/>
<polygon fill="none" stroke="#404040" points="406.18,-798.41 400.04,-794.63 401.17,-787.51 407.31,-791.29 406.18,-798.41"/>
<text text-anchor="middle" x="451.5" y="-820" font-family="Helvetica,sans-Serif" font-size="10.00"> +ObjectFlags</text>
</g>
<!-- Node4 -->
<g id="node4" class="node">
<title>Node4</title>
<g id="a_node4"><a xlink:href="../../d0/db6/structSDK_1_1FName.html" target="_top" xlink:title=" ">
<polygon fill="white" stroke="black" points="164,-857.5 164,-980.5 271,-980.5 271,-857.5 164,-857.5"/>
<text text-anchor="middle" x="217.5" y="-968.5" font-family="Helvetica,sans-Serif" font-size="10.00">SDK::FName</text>
<polyline fill="none" stroke="black" points="164,-961.5 271,-961.5 "/>
<text text-anchor="start" x="172" y="-949.5" font-family="Helvetica,sans-Serif" font-size="10.00">+ Index</text>
<text text-anchor="start" x="172" y="-938.5" font-family="Helvetica,sans-Serif" font-size="10.00">+ Number</text>
<polyline fill="none" stroke="black" points="164,-931.5 271,-931.5 "/>
<text text-anchor="start" x="172" y="-919.5" font-family="Helvetica,sans-Serif" font-size="10.00">+ FName()</text>
<text text-anchor="start" x="172" y="-908.5" font-family="Helvetica,sans-Serif" font-size="10.00">+ FName()</text>
<text text-anchor="start" x="172" y="-897.5" font-family="Helvetica,sans-Serif" font-size="10.00">+ FName()</text>
<text text-anchor="start" x="172" y="-886.5" font-family="Helvetica,sans-Serif" font-size="10.00">+ GetName()</text>
<text text-anchor="start" x="172" y="-875.5" font-family="Helvetica,sans-Serif" font-size="10.00">+ operator==()</text>
<text text-anchor="start" x="172" y="-864.5" font-family="Helvetica,sans-Serif" font-size="10.00">+ GetGlobalNames()</text>
</a>
</g>
</g>
<!-- Node4&#45;&gt;Node2 -->
<g id="edge3" class="edge">
<title>Node4&#45;&gt;Node2</title>
<path fill="none" stroke="#404040" d="M245.19,-857.44C253.36,-839.57 262.64,-819.28 272.02,-798.76"/>
<polygon fill="none" stroke="#404040" points="272.1,-798.6 270.95,-791.48 277.09,-787.69 278.23,-794.81 272.1,-798.6"/>
<text text-anchor="middle" x="286.5" y="-820" font-family="Helvetica,sans-Serif" font-size="10.00"> +Name</text>
</g>
<!-- Node5 -->
<g id="node5" class="node">
<title>Node5</title>
<g id="a_node5"><a xlink:href="../../d3/d79/classSDK_1_1TArray.html" target="_top" xlink:title=" ">
<polygon fill="white" stroke="black" points="127.5,-1028.5 127.5,-1162.5 307.5,-1162.5 307.5,-1028.5 127.5,-1028.5"/>
<text text-anchor="middle" x="217.5" y="-1150.5" font-family="Helvetica,sans-Serif" font-size="10.00">SDK::TArray&lt; SDK::FNameEntry * &gt;</text>
<polyline fill="none" stroke="black" points="127.5,-1143.5 307.5,-1143.5 "/>
<text text-anchor="start" x="135.5" y="-1131.5" font-family="Helvetica,sans-Serif" font-size="10.00">&#45; Count</text>
<text text-anchor="start" x="135.5" y="-1120.5" font-family="Helvetica,sans-Serif" font-size="10.00">&#45; Max</text>
<polyline fill="none" stroke="black" points="127.5,-1113.5 307.5,-1113.5 "/>
<text text-anchor="start" x="135.5" y="-1101.5" font-family="Helvetica,sans-Serif" font-size="10.00">+ TArray()</text>
<text text-anchor="start" x="135.5" y="-1090.5" font-family="Helvetica,sans-Serif" font-size="10.00">+ Num()</text>
<text text-anchor="start" x="135.5" y="-1079.5" font-family="Helvetica,sans-Serif" font-size="10.00">+ operator[]()</text>
<text text-anchor="start" x="135.5" y="-1068.5" font-family="Helvetica,sans-Serif" font-size="10.00">+ operator[]()</text>
<text text-anchor="start" x="135.5" y="-1057.5" font-family="Helvetica,sans-Serif" font-size="10.00">+ IsValidIndex()</text>
<text text-anchor="start" x="135.5" y="-1046.5" font-family="Helvetica,sans-Serif" font-size="10.00">+ GetByIndex()</text>
<text text-anchor="start" x="135.5" y="-1035.5" font-family="Helvetica,sans-Serif" font-size="10.00">+ GetByIndex()</text>
</a>
</g>
</g>
<!-- Node5&#45;&gt;Node4 -->
<g id="edge4" class="edge">
<title>Node5&#45;&gt;Node4</title>
<path fill="none" stroke="#404040" d="M217.5,-1028.03C217.5,-1016.45 217.5,-1004.35 217.5,-992.62"/>
<polygon fill="none" stroke="#404040" points="217.5,-992.56 213.5,-986.56 217.5,-980.56 221.5,-986.56 217.5,-992.56"/>
<text text-anchor="middle" x="242" y="-1002" font-family="Helvetica,sans-Serif" font-size="10.00"> +GNames</text>
</g>
<!-- Node6 -->
<g id="node6" class="node">
<title>Node6</title>
<g id="a_node6"><a xlink:href="../../d7/ddf/classSDK_1_1FNameEntry.html" target="_top" xlink:title=" ">
<polygon fill="white" stroke="black" points="172,-1249 172,-1317 271,-1317 271,-1249 172,-1249"/>
<text text-anchor="middle" x="221.5" y="-1305" font-family="Helvetica,sans-Serif" font-size="10.00">SDK::FNameEntry</text>
<polyline fill="none" stroke="black" points="172,-1298 271,-1298 "/>
<text text-anchor="start" x="180" y="-1286" font-family="Helvetica,sans-Serif" font-size="10.00">+ UnknownData00</text>
<text text-anchor="start" x="180" y="-1275" font-family="Helvetica,sans-Serif" font-size="10.00">+ name</text>
<polyline fill="none" stroke="black" points="172,-1268 271,-1268 "/>
<text text-anchor="start" x="180" y="-1256" font-family="Helvetica,sans-Serif" font-size="10.00">+ GetName()</text>
</a>
</g>
</g>
<!-- Node6&#45;&gt;Node5 -->
<g id="edge5" class="edge">
<title>Node6&#45;&gt;Node5</title>
<path fill="none" stroke="#404040" d="M220.78,-1248.84C220.34,-1228.23 219.75,-1200.83 219.19,-1174.95"/>
<polygon fill="none" stroke="#404040" points="219.19,-1174.8 215.06,-1168.89 218.93,-1162.8 223.06,-1168.71 219.19,-1174.8"/>
<text text-anchor="middle" x="233.5" y="-1184" font-family="Helvetica,sans-Serif" font-size="10.00"> &#45;Data</text>
</g>
<!-- Node7 -->
<g id="node7" class="node">
<title>Node7</title>
<g id="a_node7"><a xlink:href="../../d3/d79/classSDK_1_1TArray.html" target="_top" xlink:title=" ">
<polygon fill="white" stroke="black" points="23,-1210.5 23,-1355.5 120,-1355.5 120,-1210.5 23,-1210.5"/>
<text text-anchor="middle" x="71.5" y="-1343.5" font-family="Helvetica,sans-Serif" font-size="10.00">SDK::TArray&lt; T &gt;</text>
<polyline fill="none" stroke="black" points="23,-1336.5 120,-1336.5 "/>
<text text-anchor="start" x="31" y="-1324.5" font-family="Helvetica,sans-Serif" font-size="10.00">&#45; Data</text>
<text text-anchor="start" x="31" y="-1313.5" font-family="Helvetica,sans-Serif" font-size="10.00">&#45; Count</text>
<text text-anchor="start" x="31" y="-1302.5" font-family="Helvetica,sans-Serif" font-size="10.00">&#45; Max</text>
<polyline fill="none" stroke="black" points="23,-1295.5 120,-1295.5 "/>
<text text-anchor="start" x="31" y="-1283.5" font-family="Helvetica,sans-Serif" font-size="10.00">+ TArray()</text>
<text text-anchor="start" x="31" y="-1272.5" font-family="Helvetica,sans-Serif" font-size="10.00">+ Num()</text>
<text text-anchor="start" x="31" y="-1261.5" font-family="Helvetica,sans-Serif" font-size="10.00">+ operator[]()</text>
<text text-anchor="start" x="31" y="-1250.5" font-family="Helvetica,sans-Serif" font-size="10.00">+ operator[]()</text>
<text text-anchor="start" x="31" y="-1239.5" font-family="Helvetica,sans-Serif" font-size="10.00">+ IsValidIndex()</text>
<text text-anchor="start" x="31" y="-1228.5" font-family="Helvetica,sans-Serif" font-size="10.00">+ GetByIndex()</text>
<text text-anchor="start" x="31" y="-1217.5" font-family="Helvetica,sans-Serif" font-size="10.00">+ GetByIndex()</text>
</a>
</g>
</g>
<!-- Node7&#45;&gt;Node5 -->
<g id="edge6" class="edge">
<title>Node7&#45;&gt;Node5</title>
<path fill="none" stroke="orange" d="M93.01,-1200.72C96.33,-1193.77 100.14,-1187.08 104.5,-1181 111.07,-1171.84 118.92,-1163.25 127.39,-1155.31"/>
<polygon fill="orange" stroke="orange" points="89.61,-1199.77 88.78,-1210.33 96.01,-1202.59 89.61,-1199.77"/>
<text text-anchor="middle" x="160" y="-1184" font-family="Helvetica,sans-Serif" font-size="10.00"> &lt; SDK::FNameEntry * &gt;</text>
</g>
<!-- Node7&#45;&gt;Node8 -->
<g id="edge10" class="edge">
<title>Node7&#45;&gt;Node8</title>
<path fill="none" stroke="orange" d="M60.75,-1200.08C57.37,-1167.85 54.5,-1130.5 54.5,-1096.5 54.5,-1096.5 54.5,-1096.5 54.5,-664.5 54.5,-607.24 62.22,-542.6 69.25,-495.63"/>
<polygon fill="orange" stroke="orange" points="57.3,-1200.78 61.86,-1210.35 64.26,-1200.03 57.3,-1200.78"/>
<text text-anchor="middle" x="100" y="-916.5" font-family="Helvetica,sans-Serif" font-size="10.00"> &lt; SDK::UObject * &gt;</text>
</g>
<!-- Node8&#45;&gt;Node2 -->
<g id="edge8" class="edge">
<title>Node8&#45;&gt;Node2</title>
<path fill="none" stroke="#404040" d="M151.63,-495.83C174.2,-516.88 199.69,-540.65 224.26,-563.56"/>
<polygon fill="none" stroke="#404040" points="224.49,-563.77 231.6,-564.94 233.26,-571.96 226.15,-570.79 224.49,-563.77"/>
<text text-anchor="middle" x="203" y="-517" font-family="Helvetica,sans-Serif" font-size="10.00"> +GObjects</text>
</g>
<!-- Node9 -->
<g id="node9" class="node">
<title>Node9</title>
<g id="a_node9"><a xlink:href="../../d9/dfa/structSDK_1_1FPointer.html" target="_top" xlink:title=" ">
<polygon fill="white" stroke="black" points="288.5,-885 288.5,-953 386.5,-953 386.5,-885 288.5,-885"/>
<text text-anchor="middle" x="337.5" y="-941" font-family="Helvetica,sans-Serif" font-size="10.00">SDK::FPointer</text>
<polyline fill="none" stroke="black" points="288.5,-934 386.5,-934 "/>
<text text-anchor="start" x="296.5" y="-922" font-family="Helvetica,sans-Serif" font-size="10.00">+ Dummy</text>
<text text-anchor="start" x="296.5" y="-911" font-family="Helvetica,sans-Serif" font-size="10.00">+ UnknownData00</text>
<polyline fill="none" stroke="black" points="288.5,-904 386.5,-904 "/>
<text text-anchor="middle" x="337.5" y="-892" font-family="Helvetica,sans-Serif" font-size="10.00"> </text>
</a>
</g>
</g>
<!-- Node9&#45;&gt;Node2 -->
<g id="edge11" class="edge">
<title>Node9&#45;&gt;Node2</title>
<path fill="none" stroke="#404040" d="M336.84,-884.86C336.4,-862.57 335.78,-831.56 335.15,-799.9"/>
<polygon fill="none" stroke="#404040" points="335.15,-799.75 331.03,-793.83 334.91,-787.75 339.03,-793.67 335.15,-799.75"/>
<text text-anchor="middle" x="371" y="-831" font-family="Helvetica,sans-Serif" font-size="10.00"> +StateFrame</text>
<text text-anchor="middle" x="371" y="-820" font-family="Helvetica,sans-Serif" font-size="10.00">+VfTableObject</text>
<text text-anchor="middle" x="371" y="-809" font-family="Helvetica,sans-Serif" font-size="10.00">+LinkerIndex</text>
</g>
<!-- Node10&#45;&gt;Node2 -->
<g id="edge12" class="edge">
<title>Node10&#45;&gt;Node2</title>
<path fill="none" stroke="#404040" d="M463.5,-90.72C463.5,-110.67 463.5,-134.52 463.5,-156 463.5,-429.5 463.5,-429.5 463.5,-429.5 463.5,-465.28 451.77,-500.68 435.34,-532.73"/>
<polygon fill="none" stroke="#404040" points="435.25,-532.89 435.95,-540.07 429.59,-543.47 428.9,-536.29 435.25,-532.89"/>
<text text-anchor="middle" x="481" y="-260.5" font-family="Helvetica,sans-Serif" font-size="10.00"> +Class</text>
</g>
<!-- Node11 -->
<g id="node11" class="node">
<title>Node11</title>
<g id="a_node11"><a xlink:href="../../df/d72/classSDK_1_1UState.html" target="_top" xlink:title=" ">
<polygon fill="white" stroke="black" points="503.5,-128.5 503.5,-185.5 601.5,-185.5 601.5,-128.5 503.5,-128.5"/>
<text text-anchor="middle" x="552.5" y="-173.5" font-family="Helvetica,sans-Serif" font-size="10.00">SDK::UState</text>
<polyline fill="none" stroke="black" points="503.5,-166.5 601.5,-166.5 "/>
<text text-anchor="start" x="511.5" y="-154.5" font-family="Helvetica,sans-Serif" font-size="10.00">+ UnknownData00</text>
<polyline fill="none" stroke="black" points="503.5,-147.5 601.5,-147.5 "/>
<text text-anchor="start" x="511.5" y="-135.5" font-family="Helvetica,sans-Serif" font-size="10.00">+ StaticClass()</text>
</a>
</g>
</g>
<!-- Node11&#45;&gt;Node10 -->
<g id="edge13" class="edge">
<title>Node11&#45;&gt;Node10</title>
<path fill="none" stroke="midnightblue" d="M523.51,-120.33C515.83,-110.89 507.45,-100.58 499.46,-90.74"/>
<polygon fill="none" stroke="midnightblue" points="521.02,-122.82 530.04,-128.37 526.45,-118.4 521.02,-122.82"/>
</g>
<!-- Node12 -->
<g id="node12" class="node">
<title>Node12</title>
<g id="a_node12"><a xlink:href="../../d8/de9/classSDK_1_1UStruct.html" target="_top" xlink:title=" ">
<polygon fill="white" stroke="black" points="516.5,-223.5 516.5,-302.5 614.5,-302.5 614.5,-223.5 516.5,-223.5"/>
<text text-anchor="middle" x="565.5" y="-290.5" font-family="Helvetica,sans-Serif" font-size="10.00">SDK::UStruct</text>
<polyline fill="none" stroke="black" points="516.5,-283.5 614.5,-283.5 "/>
<text text-anchor="start" x="524.5" y="-271.5" font-family="Helvetica,sans-Serif" font-size="10.00">+ UnknownData00</text>
<text text-anchor="start" x="524.5" y="-260.5" font-family="Helvetica,sans-Serif" font-size="10.00">+ PropertySize</text>
<text text-anchor="start" x="524.5" y="-249.5" font-family="Helvetica,sans-Serif" font-size="10.00">+ UnknownData01</text>
<polyline fill="none" stroke="black" points="516.5,-242.5 614.5,-242.5 "/>
<text text-anchor="start" x="524.5" y="-230.5" font-family="Helvetica,sans-Serif" font-size="10.00">+ StaticClass()</text>
</a>
</g>
</g>
<!-- Node12&#45;&gt;Node11 -->
<g id="edge14" class="edge">
<title>Node12&#45;&gt;Node11</title>
<path fill="none" stroke="midnightblue" d="M559.4,-213.16C558.22,-203.74 557.02,-194.17 555.96,-185.72"/>
<polygon fill="none" stroke="midnightblue" points="555.95,-213.79 560.66,-223.27 562.89,-212.92 555.95,-213.79"/>
</g>
<!-- Node13&#45;&gt;Node12 -->
<g id="edge15" class="edge">
<title>Node13&#45;&gt;Node12</title>
<path fill="none" stroke="midnightblue" d="M536.28,-389.47C538.24,-369.01 541.44,-343.44 546.5,-321 547.85,-315 549.59,-308.73 551.47,-302.65"/>
<polygon fill="none" stroke="midnightblue" points="532.77,-389.38 535.36,-399.66 539.75,-390.01 532.77,-389.38"/>
</g>
<!-- Node13&#45;&gt;Node12 -->
<g id="edge18" class="edge">
<title>Node13&#45;&gt;Node12</title>
<path fill="none" stroke="#404040" d="M538.93,-399.76C543.48,-376.51 550.1,-342.7 555.59,-314.64"/>
<polygon fill="none" stroke="#404040" points="555.64,-314.39 552.86,-307.74 557.94,-302.62 560.72,-309.27 555.64,-314.39"/>
<text text-anchor="middle" x="581.5" y="-335" font-family="Helvetica,sans-Serif" font-size="10.00"> +SuperField</text>
<text text-anchor="middle" x="581.5" y="-324" font-family="Helvetica,sans-Serif" font-size="10.00">+Children</text>
</g>
<!-- Node13&#45;&gt;Node13 -->
<g id="edge17" class="edge">
<title>Node13&#45;&gt;Node13</title>
<path fill="none" stroke="#404040" d="M575.21,-445.11C585.41,-443.88 593,-438.34 593,-428.5 593,-422.96 590.6,-418.79 586.68,-415.98"/>
<polygon fill="none" stroke="#404040" points="586.51,-415.92 579.51,-417.67 575.21,-411.89 582.2,-410.13 586.51,-415.92"/>
<text text-anchor="middle" x="608.5" y="-426" font-family="Helvetica,sans-Serif" font-size="10.00"> +Next</text>
</g>
</g>
</svg>
