<?xml version="1.0" encoding="UTF-8" standalone="no"?>
<!DOCTYPE svg PUBLIC "-//W3C//DTD SVG 1.1//EN"
 "http://www.w3.org/Graphics/SVG/1.1/DTD/svg11.dtd">
<!-- Generated by graphviz version 2.41.20171026.1811 (20171026.1811)
 -->
<!-- Title: SDK::USeqVar_Group Pages: 1 -->
<svg width="206pt" height="1014pt"
 viewBox="0.00 0.00 206.00 1014.00" xmlns="http://www.w3.org/2000/svg" xmlns:xlink="http://www.w3.org/1999/xlink">
<g id="graph0" class="graph" transform="scale(1 1) rotate(0) translate(4 1010)">
<title>SDK::USeqVar_Group</title>
<polygon fill="white" stroke="transparent" points="-4,4 -4,-1010 202,-1010 202,4 -4,4"/>
<!-- Node1 -->
<g id="node1" class="node">
<title>Node1</title>
<g id="a_node1"><a xlink:title=" ">
<polygon fill="#bfbfbf" stroke="black" points="41.5,-0.5 41.5,-79.5 156.5,-79.5 156.5,-0.5 41.5,-0.5"/>
<text text-anchor="middle" x="99" y="-67.5" font-family="Helvetica,sans-Serif" font-size="10.00">SDK::USeqVar_Group</text>
<polyline fill="none" stroke="black" points="41.5,-60.5 156.5,-60.5 "/>
<text text-anchor="start" x="49.5" y="-48.5" font-family="Helvetica,sans-Serif" font-size="10.00">+ GroupName</text>
<text text-anchor="start" x="49.5" y="-37.5" font-family="Helvetica,sans-Serif" font-size="10.00">+ bCachedList</text>
<text text-anchor="start" x="49.5" y="-26.5" font-family="Helvetica,sans-Serif" font-size="10.00">+ Actors</text>
<polyline fill="none" stroke="black" points="41.5,-19.5 156.5,-19.5 "/>
<text text-anchor="start" x="49.5" y="-7.5" font-family="Helvetica,sans-Serif" font-size="10.00">+ StaticClass()</text>
</a>
</g>
</g>
<!-- Node2 -->
<g id="node2" class="node">
<title>Node2</title>
<g id="a_node2"><a xlink:href="../../d1/db6/classSDK_1_1USeqVar__Object.html" target="_top" xlink:title=" ">
<polygon fill="white" stroke="black" points="27.5,-116.5 27.5,-228.5 170.5,-228.5 170.5,-116.5 27.5,-116.5"/>
<text text-anchor="middle" x="99" y="-216.5" font-family="Helvetica,sans-Serif" font-size="10.00">SDK::USeqVar_Object</text>
<polyline fill="none" stroke="black" points="27.5,-209.5 170.5,-209.5 "/>
<text text-anchor="start" x="35.5" y="-197.5" font-family="Helvetica,sans-Serif" font-size="10.00">+ ObjValue</text>
<text text-anchor="start" x="35.5" y="-186.5" font-family="Helvetica,sans-Serif" font-size="10.00">+ bHiddenObjectIfTermInterp</text>
<text text-anchor="start" x="35.5" y="-175.5" font-family="Helvetica,sans-Serif" font-size="10.00">+ ActorLocation</text>
<text text-anchor="start" x="35.5" y="-164.5" font-family="Helvetica,sans-Serif" font-size="10.00">+ SupportedClasses</text>
<polyline fill="none" stroke="black" points="27.5,-157.5 170.5,-157.5 "/>
<text text-anchor="start" x="35.5" y="-145.5" font-family="Helvetica,sans-Serif" font-size="10.00">+ SetObjectValue()</text>
<text text-anchor="start" x="35.5" y="-134.5" font-family="Helvetica,sans-Serif" font-size="10.00">+ GetObjectValue()</text>
<text text-anchor="start" x="35.5" y="-123.5" font-family="Helvetica,sans-Serif" font-size="10.00">+ StaticClass()</text>
</a>
</g>
</g>
<!-- Node2&#45;&gt;Node1 -->
<g id="edge1" class="edge">
<title>Node2&#45;&gt;Node1</title>
<path fill="none" stroke="midnightblue" d="M99,-106.06C99,-97.08 99,-88.11 99,-79.82"/>
<polygon fill="none" stroke="midnightblue" points="95.5,-106.16 99,-116.16 102.5,-106.16 95.5,-106.16"/>
</g>
<!-- Node3 -->
<g id="node3" class="node">
<title>Node3</title>
<g id="a_node3"><a xlink:href="../../d4/d54/classSDK_1_1USequenceVariable.html" target="_top" xlink:title=" ">
<polygon fill="white" stroke="black" points="34,-265.5 34,-322.5 164,-322.5 164,-265.5 34,-265.5"/>
<text text-anchor="middle" x="99" y="-310.5" font-family="Helvetica,sans-Serif" font-size="10.00">SDK::USequenceVariable</text>
<polyline fill="none" stroke="black" points="34,-303.5 164,-303.5 "/>
<text text-anchor="start" x="42" y="-291.5" font-family="Helvetica,sans-Serif" font-size="10.00">+ VarName</text>
<polyline fill="none" stroke="black" points="34,-284.5 164,-284.5 "/>
<text text-anchor="start" x="42" y="-272.5" font-family="Helvetica,sans-Serif" font-size="10.00">+ StaticClass()</text>
</a>
</g>
</g>
<!-- Node3&#45;&gt;Node2 -->
<g id="edge2" class="edge">
<title>Node3&#45;&gt;Node2</title>
<path fill="none" stroke="midnightblue" d="M99,-255.11C99,-246.75 99,-237.73 99,-228.83"/>
<polygon fill="none" stroke="midnightblue" points="95.5,-255.28 99,-265.28 102.5,-255.28 95.5,-255.28"/>
</g>
<!-- Node4 -->
<g id="node4" class="node">
<title>Node4</title>
<g id="a_node4"><a xlink:href="../../d6/d03/classSDK_1_1USequenceObject.html" target="_top" xlink:title=" ">
<polygon fill="white" stroke="black" points="18,-359.5 18,-614.5 180,-614.5 180,-359.5 18,-359.5"/>
<text text-anchor="middle" x="99" y="-602.5" font-family="Helvetica,sans-Serif" font-size="10.00">SDK::USequenceObject</text>
<polyline fill="none" stroke="black" points="18,-595.5 180,-595.5 "/>
<text text-anchor="start" x="26" y="-583.5" font-family="Helvetica,sans-Serif" font-size="10.00">+ ObjInstanceVersion</text>
<text text-anchor="start" x="26" y="-572.5" font-family="Helvetica,sans-Serif" font-size="10.00">+ ParentSequence</text>
<text text-anchor="start" x="26" y="-561.5" font-family="Helvetica,sans-Serif" font-size="10.00">+ ObjPosX</text>
<text text-anchor="start" x="26" y="-550.5" font-family="Helvetica,sans-Serif" font-size="10.00">+ ObjPosY</text>
<text text-anchor="start" x="26" y="-539.5" font-family="Helvetica,sans-Serif" font-size="10.00">+ ObjName</text>
<text text-anchor="start" x="26" y="-528.5" font-family="Helvetica,sans-Serif" font-size="10.00">+ ObjCategory</text>
<text text-anchor="start" x="26" y="-517.5" font-family="Helvetica,sans-Serif" font-size="10.00">+ ObjRemoveInProject</text>
<text text-anchor="start" x="26" y="-506.5" font-family="Helvetica,sans-Serif" font-size="10.00">+ ObjColor</text>
<text text-anchor="start" x="26" y="-495.5" font-family="Helvetica,sans-Serif" font-size="10.00">+ ObjComment</text>
<text text-anchor="start" x="26" y="-484.5" font-family="Helvetica,sans-Serif" font-size="10.00">+ bDeletable</text>
<text text-anchor="start" x="26" y="-473.5" font-family="Helvetica,sans-Serif" font-size="10.00">and 7 more...</text>
<polyline fill="none" stroke="black" points="18,-466.5 180,-466.5 "/>
<text text-anchor="start" x="26" y="-454.5" font-family="Helvetica,sans-Serif" font-size="10.00">+ STATIC_GetObjClassVersion()</text>
<text text-anchor="start" x="26" y="-443.5" font-family="Helvetica,sans-Serif" font-size="10.00">+ STATIC_ShouldClearNameOn</text>
<text text-anchor="start" x="26" y="-432.5" font-family="Helvetica,sans-Serif" font-size="10.00">Pasting()</text>
<text text-anchor="start" x="26" y="-421.5" font-family="Helvetica,sans-Serif" font-size="10.00">+ IsPastingIntoLevelSequence</text>
<text text-anchor="start" x="26" y="-410.5" font-family="Helvetica,sans-Serif" font-size="10.00">Allowed()</text>
<text text-anchor="start" x="26" y="-399.5" font-family="Helvetica,sans-Serif" font-size="10.00">+ IsValidLevelSequenceObject()</text>
<text text-anchor="start" x="26" y="-388.5" font-family="Helvetica,sans-Serif" font-size="10.00">+ GetWorldInfo()</text>
<text text-anchor="start" x="26" y="-377.5" font-family="Helvetica,sans-Serif" font-size="10.00">+ ScriptLog()</text>
<text text-anchor="start" x="26" y="-366.5" font-family="Helvetica,sans-Serif" font-size="10.00">+ StaticClass()</text>
</a>
</g>
</g>
<!-- Node4&#45;&gt;Node3 -->
<g id="edge3" class="edge">
<title>Node4&#45;&gt;Node3</title>
<path fill="none" stroke="midnightblue" d="M99,-349.33C99,-339.48 99,-330.36 99,-322.51"/>
<polygon fill="none" stroke="midnightblue" points="95.5,-349.4 99,-359.4 102.5,-349.4 95.5,-349.4"/>
</g>
<!-- Node5 -->
<g id="node5" class="node">
<title>Node5</title>
<g id="a_node5"><a xlink:href="../../d9/d45/classSDK_1_1UObject.html" target="_top" xlink:title=" ">
<polygon fill="white" stroke="black" points="0,-651.5 0,-1005.5 198,-1005.5 198,-651.5 0,-651.5"/>
<text text-anchor="middle" x="99" y="-993.5" font-family="Helvetica,sans-Serif" font-size="10.00">SDK::UObject</text>
<polyline fill="none" stroke="black" points="0,-986.5 198,-986.5 "/>
<text text-anchor="start" x="8" y="-974.5" font-family="Helvetica,sans-Serif" font-size="10.00">+ VfTableObject</text>
<text text-anchor="start" x="8" y="-963.5" font-family="Helvetica,sans-Serif" font-size="10.00">+ ObjectFlags</text>
<text text-anchor="start" x="8" y="-952.5" font-family="Helvetica,sans-Serif" font-size="10.00">+ StateFrame</text>
<text text-anchor="start" x="8" y="-941.5" font-family="Helvetica,sans-Serif" font-size="10.00">+ Linker</text>
<text text-anchor="start" x="8" y="-930.5" font-family="Helvetica,sans-Serif" font-size="10.00">+ LinkerIndex</text>
<text text-anchor="start" x="8" y="-919.5" font-family="Helvetica,sans-Serif" font-size="10.00">+ ObjectInternalInteger</text>
<text text-anchor="start" x="8" y="-908.5" font-family="Helvetica,sans-Serif" font-size="10.00">+ NetIndex</text>
<text text-anchor="start" x="8" y="-897.5" font-family="Helvetica,sans-Serif" font-size="10.00">+ Outer</text>
<text text-anchor="start" x="8" y="-886.5" font-family="Helvetica,sans-Serif" font-size="10.00">+ Name</text>
<text text-anchor="start" x="8" y="-875.5" font-family="Helvetica,sans-Serif" font-size="10.00">+ Class</text>
<text text-anchor="start" x="8" y="-864.5" font-family="Helvetica,sans-Serif" font-size="10.00">+ ObjectArchetype</text>
<text text-anchor="start" x="8" y="-853.5" font-family="Helvetica,sans-Serif" font-size="10.00">+ GObjects</text>
<polyline fill="none" stroke="black" points="0,-846.5 198,-846.5 "/>
<text text-anchor="start" x="8" y="-834.5" font-family="Helvetica,sans-Serif" font-size="10.00">+ UObject::GetName()</text>
<text text-anchor="start" x="8" y="-823.5" font-family="Helvetica,sans-Serif" font-size="10.00">+ GetFullName()</text>
<text text-anchor="start" x="8" y="-812.5" font-family="Helvetica,sans-Serif" font-size="10.00">+ IsA()</text>
<text text-anchor="start" x="8" y="-801.5" font-family="Helvetica,sans-Serif" font-size="10.00">+ ProcessEvent()</text>
<text text-anchor="start" x="8" y="-790.5" font-family="Helvetica,sans-Serif" font-size="10.00">+ STATIC_ProfNodeEvent()</text>
<text text-anchor="start" x="8" y="-779.5" font-family="Helvetica,sans-Serif" font-size="10.00">+ STATIC_ProfNodeSetDepthThreshold()</text>
<text text-anchor="start" x="8" y="-768.5" font-family="Helvetica,sans-Serif" font-size="10.00">+ STATIC_ProfNodeSetTimeThreshold</text>
<text text-anchor="start" x="8" y="-757.5" font-family="Helvetica,sans-Serif" font-size="10.00">Seconds()</text>
<text text-anchor="start" x="8" y="-746.5" font-family="Helvetica,sans-Serif" font-size="10.00">+ STATIC_ProfNodeStop()</text>
<text text-anchor="start" x="8" y="-735.5" font-family="Helvetica,sans-Serif" font-size="10.00">+ STATIC_ProfNodeStart()</text>
<text text-anchor="start" x="8" y="-724.5" font-family="Helvetica,sans-Serif" font-size="10.00">+ STATIC_GetStringFromGuid()</text>
<text text-anchor="start" x="8" y="-713.5" font-family="Helvetica,sans-Serif" font-size="10.00">and 298 more...</text>
<text text-anchor="start" x="8" y="-702.5" font-family="Helvetica,sans-Serif" font-size="10.00">+ GetGlobalObjects()</text>
<text text-anchor="start" x="8" y="-691.5" font-family="Helvetica,sans-Serif" font-size="10.00">+ FindObject()</text>
<text text-anchor="start" x="8" y="-680.5" font-family="Helvetica,sans-Serif" font-size="10.00">+ FindClass()</text>
<text text-anchor="start" x="8" y="-669.5" font-family="Helvetica,sans-Serif" font-size="10.00">+ GetObjectCasted()</text>
<text text-anchor="start" x="8" y="-658.5" font-family="Helvetica,sans-Serif" font-size="10.00">+ StaticClass()</text>
</a>
</g>
</g>
<!-- Node5&#45;&gt;Node4 -->
<g id="edge4" class="edge">
<title>Node5&#45;&gt;Node4</title>
<path fill="none" stroke="midnightblue" d="M99,-641.24C99,-632.35 99,-623.53 99,-614.87"/>
<polygon fill="none" stroke="midnightblue" points="95.5,-641.29 99,-651.29 102.5,-641.29 95.5,-641.29"/>
</g>
</g>
</svg>
