<?xml version="1.0" encoding="UTF-8" standalone="no"?>
<!DOCTYPE svg PUBLIC "-//W3C//DTD SVG 1.1//EN"
 "http://www.w3.org/Graphics/SVG/1.1/DTD/svg11.dtd">
<!-- Generated by graphviz version 2.41.20171026.1811 (20171026.1811)
 -->
<!-- Title: SDK::FWrappedStringElement Pages: 1 -->
<svg width="217pt" height="591pt"
 viewBox="0.00 0.00 217.00 591.00" xmlns="http://www.w3.org/2000/svg" xmlns:xlink="http://www.w3.org/1999/xlink">
<g id="graph0" class="graph" transform="scale(1 1) rotate(0) translate(4 587)">
<title>SDK::FWrappedStringElement</title>
<polygon fill="white" stroke="transparent" points="-4,4 -4,-587 213,-587 213,4 -4,4"/>
<!-- Node1 -->
<g id="node1" class="node">
<title>Node1</title>
<g id="a_node1"><a xlink:title=" ">
<polygon fill="#bfbfbf" stroke="black" points="15.5,-0.5 15.5,-57.5 165.5,-57.5 165.5,-0.5 15.5,-0.5"/>
<text text-anchor="middle" x="90.5" y="-45.5" font-family="Helvetica,sans-Serif" font-size="10.00">SDK::FWrappedStringElement</text>
<polyline fill="none" stroke="black" points="15.5,-38.5 165.5,-38.5 "/>
<text text-anchor="middle" x="90.5" y="-26.5" font-family="Helvetica,sans-Serif" font-size="10.00"> </text>
<polyline fill="none" stroke="black" points="15.5,-19.5 165.5,-19.5 "/>
<text text-anchor="middle" x="90.5" y="-7.5" font-family="Helvetica,sans-Serif" font-size="10.00"> </text>
</a>
</g>
</g>
<!-- Node2 -->
<g id="node2" class="node">
<title>Node2</title>
<g id="a_node2"><a xlink:href="../../db/da8/structSDK_1_1FVector2D.html" target="_top" xlink:title=" ">
<polygon fill="white" stroke="black" points="0,-122 0,-190 91,-190 91,-122 0,-122"/>
<text text-anchor="middle" x="45.5" y="-178" font-family="Helvetica,sans-Serif" font-size="10.00">SDK::FVector2D</text>
<polyline fill="none" stroke="black" points="0,-171 91,-171 "/>
<text text-anchor="start" x="8" y="-159" font-family="Helvetica,sans-Serif" font-size="10.00">+ X</text>
<text text-anchor="start" x="8" y="-148" font-family="Helvetica,sans-Serif" font-size="10.00">+ Y</text>
<polyline fill="none" stroke="black" points="0,-141 91,-141 "/>
<text text-anchor="middle" x="45.5" y="-129" font-family="Helvetica,sans-Serif" font-size="10.00"> </text>
</a>
</g>
</g>
<!-- Node2&#45;&gt;Node1 -->
<g id="edge1" class="edge">
<title>Node2&#45;&gt;Node1</title>
<path fill="none" stroke="#404040" d="M47.06,-121.79C48.61,-107.31 51.64,-90.39 57.5,-76 58.58,-73.35 59.84,-70.71 61.22,-68.11"/>
<polygon fill="none" stroke="#404040" points="61.29,-68 60.97,-60.79 67.49,-57.72 67.82,-64.92 61.29,-68"/>
<text text-anchor="middle" x="85.5" y="-79" font-family="Helvetica,sans-Serif" font-size="10.00"> +LineExtent</text>
</g>
<!-- Node3 -->
<g id="node3" class="node">
<title>Node3</title>
<g id="a_node3"><a xlink:href="../../d3/d88/classSDK_1_1FString.html" target="_top" xlink:title=" ">
<polygon fill="white" stroke="black" points="109,-105.5 109,-206.5 184,-206.5 184,-105.5 109,-105.5"/>
<text text-anchor="middle" x="146.5" y="-194.5" font-family="Helvetica,sans-Serif" font-size="10.00">SDK::FString</text>
<polyline fill="none" stroke="black" points="109,-187.5 184,-187.5 "/>
<text text-anchor="middle" x="146.5" y="-175.5" font-family="Helvetica,sans-Serif" font-size="10.00"> </text>
<polyline fill="none" stroke="black" points="109,-168.5 184,-168.5 "/>
<text text-anchor="start" x="117" y="-156.5" font-family="Helvetica,sans-Serif" font-size="10.00">+ FString()</text>
<text text-anchor="start" x="117" y="-145.5" font-family="Helvetica,sans-Serif" font-size="10.00">+ FString()</text>
<text text-anchor="start" x="117" y="-134.5" font-family="Helvetica,sans-Serif" font-size="10.00">+ IsValid()</text>
<text text-anchor="start" x="117" y="-123.5" font-family="Helvetica,sans-Serif" font-size="10.00">+ c_str()</text>
<text text-anchor="start" x="117" y="-112.5" font-family="Helvetica,sans-Serif" font-size="10.00">+ ToString()</text>
</a>
</g>
</g>
<!-- Node3&#45;&gt;Node1 -->
<g id="edge2" class="edge">
<title>Node3&#45;&gt;Node1</title>
<path fill="none" stroke="#404040" d="M126.42,-105.47C122.27,-95.65 117.83,-85.46 113.5,-76 112.38,-73.56 111.21,-71.06 110.01,-68.54"/>
<polygon fill="none" stroke="#404040" points="109.93,-68.37 103.7,-64.73 104.67,-57.58 110.9,-61.23 109.93,-68.37"/>
<text text-anchor="middle" x="134.5" y="-79" font-family="Helvetica,sans-Serif" font-size="10.00"> +Value</text>
</g>
<!-- Node4 -->
<g id="node4" class="node">
<title>Node4</title>
<g id="a_node4"><a xlink:href="../../d3/d79/classSDK_1_1TArray.html" target="_top" xlink:title=" ">
<polygon fill="white" stroke="black" points="84,-244.5 84,-389.5 209,-389.5 209,-244.5 84,-244.5"/>
<text text-anchor="middle" x="146.5" y="-377.5" font-family="Helvetica,sans-Serif" font-size="10.00">SDK::TArray&lt; wchar_t &gt;</text>
<polyline fill="none" stroke="black" points="84,-370.5 209,-370.5 "/>
<text text-anchor="start" x="92" y="-358.5" font-family="Helvetica,sans-Serif" font-size="10.00">&#45; Data</text>
<text text-anchor="start" x="92" y="-347.5" font-family="Helvetica,sans-Serif" font-size="10.00">&#45; Count</text>
<text text-anchor="start" x="92" y="-336.5" font-family="Helvetica,sans-Serif" font-size="10.00">&#45; Max</text>
<polyline fill="none" stroke="black" points="84,-329.5 209,-329.5 "/>
<text text-anchor="start" x="92" y="-317.5" font-family="Helvetica,sans-Serif" font-size="10.00">+ TArray()</text>
<text text-anchor="start" x="92" y="-306.5" font-family="Helvetica,sans-Serif" font-size="10.00">+ Num()</text>
<text text-anchor="start" x="92" y="-295.5" font-family="Helvetica,sans-Serif" font-size="10.00">+ operator[]()</text>
<text text-anchor="start" x="92" y="-284.5" font-family="Helvetica,sans-Serif" font-size="10.00">+ operator[]()</text>
<text text-anchor="start" x="92" y="-273.5" font-family="Helvetica,sans-Serif" font-size="10.00">+ IsValidIndex()</text>
<text text-anchor="start" x="92" y="-262.5" font-family="Helvetica,sans-Serif" font-size="10.00">+ GetByIndex()</text>
<text text-anchor="start" x="92" y="-251.5" font-family="Helvetica,sans-Serif" font-size="10.00">+ GetByIndex()</text>
</a>
</g>
</g>
<!-- Node4&#45;&gt;Node3 -->
<g id="edge3" class="edge">
<title>Node4&#45;&gt;Node3</title>
<path fill="none" stroke="midnightblue" d="M146.5,-234.26C146.5,-224.9 146.5,-215.58 146.5,-206.82"/>
<polygon fill="none" stroke="midnightblue" points="143,-234.41 146.5,-244.41 150,-234.41 143,-234.41"/>
</g>
<!-- Node5 -->
<g id="node5" class="node">
<title>Node5</title>
<g id="a_node5"><a xlink:href="../../d3/d79/classSDK_1_1TArray.html" target="_top" xlink:title=" ">
<polygon fill="white" stroke="black" points="98,-437.5 98,-582.5 195,-582.5 195,-437.5 98,-437.5"/>
<text text-anchor="middle" x="146.5" y="-570.5" font-family="Helvetica,sans-Serif" font-size="10.00">SDK::TArray&lt; T &gt;</text>
<polyline fill="none" stroke="black" points="98,-563.5 195,-563.5 "/>
<text text-anchor="start" x="106" y="-551.5" font-family="Helvetica,sans-Serif" font-size="10.00">&#45; Data</text>
<text text-anchor="start" x="106" y="-540.5" font-family="Helvetica,sans-Serif" font-size="10.00">&#45; Count</text>
<text text-anchor="start" x="106" y="-529.5" font-family="Helvetica,sans-Serif" font-size="10.00">&#45; Max</text>
<polyline fill="none" stroke="black" points="98,-522.5 195,-522.5 "/>
<text text-anchor="start" x="106" y="-510.5" font-family="Helvetica,sans-Serif" font-size="10.00">+ TArray()</text>
<text text-anchor="start" x="106" y="-499.5" font-family="Helvetica,sans-Serif" font-size="10.00">+ Num()</text>
<text text-anchor="start" x="106" y="-488.5" font-family="Helvetica,sans-Serif" font-size="10.00">+ operator[]()</text>
<text text-anchor="start" x="106" y="-477.5" font-family="Helvetica,sans-Serif" font-size="10.00">+ operator[]()</text>
<text text-anchor="start" x="106" y="-466.5" font-family="Helvetica,sans-Serif" font-size="10.00">+ IsValidIndex()</text>
<text text-anchor="start" x="106" y="-455.5" font-family="Helvetica,sans-Serif" font-size="10.00">+ GetByIndex()</text>
<text text-anchor="start" x="106" y="-444.5" font-family="Helvetica,sans-Serif" font-size="10.00">+ GetByIndex()</text>
</a>
</g>
</g>
<!-- Node5&#45;&gt;Node4 -->
<g id="edge4" class="edge">
<title>Node5&#45;&gt;Node4</title>
<path fill="none" stroke="orange" d="M146.5,-427.01C146.5,-414.62 146.5,-401.91 146.5,-389.75"/>
<polygon fill="orange" stroke="orange" points="143,-427.34 146.5,-437.34 150,-427.34 143,-427.34"/>
<text text-anchor="middle" x="174.5" y="-411" font-family="Helvetica,sans-Serif" font-size="10.00"> &lt; wchar_t &gt;</text>
</g>
</g>
</svg>
