<?xml version="1.0" encoding="UTF-8" standalone="no"?>
<!DOCTYPE svg PUBLIC "-//W3C//DTD SVG 1.1//EN"
 "http://www.w3.org/Graphics/SVG/1.1/DTD/svg11.dtd">
<!-- Generated by graphviz version 2.41.20171026.1811 (20171026.1811)
 -->
<!-- Title: SDK::UAnimNodeBlendPerBone Pages: 1 -->
<!--zoomable 1367 -->
<svg id="main" version="1.1" xmlns="http://www.w3.org/2000/svg" xmlns:xlink="http://www.w3.org/1999/xlink" xml:space="preserve" onload="init(evt)">
<style type="text/css"><![CDATA[
.edge:hover path { stroke: red; }
.edge:hover polygon { stroke: red; fill: red; }
]]></style>
<script type="text/javascript"><![CDATA[
var edges = document.getElementsByTagName('g');
if (edges && edges.length) {
  for (var i=0;i<edges.length;i++) {
    if (edges[i].id.substr(0,4)=='edge') {
      edges[i].setAttribute('class','edge');
    }
  }
}
]]></script>
        <defs>
                <circle id="rim" cx="0" cy="0" r="7"/>
                <circle id="rim2" cx="0" cy="0" r="3.5"/>
                <g id="zoomPlus">
                        <use xlink:href="#rim" fill="#404040">
                                <set attributeName="fill" to="#808080" begin="zoomplus.mouseover" end="zoomplus.mouseout"/>
                        </use>
                        <path d="M-4,0h8M0,-4v8" fill="none" stroke="white" stroke-width="1.5" pointer-events="none"/>
                </g>
                <g id="zoomMin">
                        <use xlink:href="#rim" fill="#404040">
                                <set attributeName="fill" to="#808080" begin="zoomminus.mouseover" end="zoomminus.mouseout"/>
                        </use>
                        <path d="M-4,0h8" fill="none" stroke="white" stroke-width="1.5" pointer-events="none"/>
                </g>
                <g id="dirArrow">
                        <path fill="none" stroke="white" stroke-width="1.5" d="M0,-3.0v7 M-2.5,-0.5L0,-3.0L2.5,-0.5"/>
                </g>
               <g id="resetDef">
                       <use xlink:href="#rim2" fill="#404040">
                               <set attributeName="fill" to="#808080" begin="reset.mouseover" end="reset.mouseout"/>
                       </use>
               </g>
        </defs>

<script type="text/javascript">
var viewWidth = 206;
var viewHeight = 1367;
var sectionId = 'dynsection-0';
</script>
<script xlink:href="../../svgpan.js"/>
<svg id="graph" class="graph">
<g id="viewport">
<title>SDK::UAnimNodeBlendPerBone</title>
<polygon fill="white" stroke="transparent" points="-4,4 -4,-1363 202,-1363 202,4 -4,4"/>
<!-- Node1 -->
<g id="node1" class="node">
<title>Node1</title>
<g id="a_node1"><a xlink:title=" ">
<polygon fill="#bfbfbf" stroke="black" points="19.5,-116.5 19.5,-217.5 178.5,-217.5 178.5,-116.5 19.5,-116.5"/>
<text text-anchor="middle" x="99" y="-205.5" font-family="Helvetica,sans-Serif" font-size="10.00">SDK::UAnimNodeBlendPerBone</text>
<polyline fill="none" stroke="black" points="19.5,-198.5 178.5,-198.5 "/>
<text text-anchor="start" x="27.5" y="-186.5" font-family="Helvetica,sans-Serif" font-size="10.00">+ bForceLocalSpaceBlend</text>
<text text-anchor="start" x="27.5" y="-175.5" font-family="Helvetica,sans-Serif" font-size="10.00">+ BranchStartBoneName</text>
<text text-anchor="start" x="27.5" y="-164.5" font-family="Helvetica,sans-Serif" font-size="10.00">+ Child2PerBoneWeight</text>
<text text-anchor="start" x="27.5" y="-153.5" font-family="Helvetica,sans-Serif" font-size="10.00">+ LocalToCompReqBones</text>
<polyline fill="none" stroke="black" points="19.5,-146.5 178.5,-146.5 "/>
<text text-anchor="start" x="27.5" y="-134.5" font-family="Helvetica,sans-Serif" font-size="10.00">+ SetBlendTarget()</text>
<text text-anchor="start" x="27.5" y="-123.5" font-family="Helvetica,sans-Serif" font-size="10.00">+ StaticClass()</text>
</a>
</g>
</g>
<!-- Node7 -->
<g id="node7" class="node">
<title>Node7</title>
<g id="a_node7"><a xlink:href="../../df/d28/classSDK_1_1UEFAnimNodeBlendPerBone.html" target="_top" xlink:title=" ">
<polygon fill="white" stroke="black" points="13,-0.5 13,-79.5 185,-79.5 185,-0.5 13,-0.5"/>
<text text-anchor="middle" x="99" y="-67.5" font-family="Helvetica,sans-Serif" font-size="10.00">SDK::UEFAnimNodeBlendPerBone</text>
<polyline fill="none" stroke="black" points="13,-60.5 185,-60.5 "/>
<text text-anchor="start" x="21" y="-48.5" font-family="Helvetica,sans-Serif" font-size="10.00">+ iForceActiveIndex</text>
<text text-anchor="start" x="21" y="-37.5" font-family="Helvetica,sans-Serif" font-size="10.00">+ iNextForceActiveIndex</text>
<text text-anchor="start" x="21" y="-26.5" font-family="Helvetica,sans-Serif" font-size="10.00">+ fSkipBlendInTime</text>
<polyline fill="none" stroke="black" points="13,-19.5 185,-19.5 "/>
<text text-anchor="start" x="21" y="-7.5" font-family="Helvetica,sans-Serif" font-size="10.00">+ StaticClass()</text>
</a>
</g>
</g>
<!-- Node1&#45;&gt;Node7 -->
<g id="edge6" class="edge">
<title>Node1&#45;&gt;Node7</title>
<path fill="none" stroke="midnightblue" d="M99,-106.19C99,-97.22 99,-88.18 99,-79.81"/>
<polygon fill="none" stroke="midnightblue" points="95.5,-106.24 99,-116.24 102.5,-106.24 95.5,-106.24"/>
</g>
<!-- Node2 -->
<g id="node2" class="node">
<title>Node2</title>
<g id="a_node2"><a xlink:href="../../d1/d9e/classSDK_1_1UAnimNodeBlend.html" target="_top" xlink:title=" ">
<polygon fill="white" stroke="black" points="20,-254.5 20,-366.5 178,-366.5 178,-254.5 20,-254.5"/>
<text text-anchor="middle" x="99" y="-354.5" font-family="Helvetica,sans-Serif" font-size="10.00">SDK::UAnimNodeBlend</text>
<polyline fill="none" stroke="black" points="20,-347.5 178,-347.5 "/>
<text text-anchor="start" x="28" y="-335.5" font-family="Helvetica,sans-Serif" font-size="10.00">+ UnknownData00</text>
<text text-anchor="start" x="28" y="-324.5" font-family="Helvetica,sans-Serif" font-size="10.00">+ Child2Weight</text>
<text text-anchor="start" x="28" y="-313.5" font-family="Helvetica,sans-Serif" font-size="10.00">+ Child2WeightTarget</text>
<text text-anchor="start" x="28" y="-302.5" font-family="Helvetica,sans-Serif" font-size="10.00">+ BlendTimeToGo</text>
<text text-anchor="start" x="28" y="-291.5" font-family="Helvetica,sans-Serif" font-size="10.00">+ bSkipBlendWhenNotRendered</text>
<polyline fill="none" stroke="black" points="20,-284.5 178,-284.5 "/>
<text text-anchor="start" x="28" y="-272.5" font-family="Helvetica,sans-Serif" font-size="10.00">+ SetBlendTarget()</text>
<text text-anchor="start" x="28" y="-261.5" font-family="Helvetica,sans-Serif" font-size="10.00">+ StaticClass()</text>
</a>
</g>
</g>
<!-- Node2&#45;&gt;Node1 -->
<g id="edge1" class="edge">
<title>Node2&#45;&gt;Node1</title>
<path fill="none" stroke="midnightblue" d="M99,-244.34C99,-235.38 99,-226.29 99,-217.66"/>
<polygon fill="none" stroke="midnightblue" points="95.5,-244.39 99,-254.39 102.5,-244.39 95.5,-244.39"/>
</g>
<!-- Node3 -->
<g id="node3" class="node">
<title>Node3</title>
<g id="a_node3"><a xlink:href="../../db/d28/classSDK_1_1UAnimNodeBlendBase.html" target="_top" xlink:title=" ">
<polygon fill="white" stroke="black" points="27,-403.5 27,-515.5 171,-515.5 171,-403.5 27,-403.5"/>
<text text-anchor="middle" x="99" y="-503.5" font-family="Helvetica,sans-Serif" font-size="10.00">SDK::UAnimNodeBlendBase</text>
<polyline fill="none" stroke="black" points="27,-496.5 171,-496.5 "/>
<text text-anchor="start" x="35" y="-484.5" font-family="Helvetica,sans-Serif" font-size="10.00">+ Children</text>
<text text-anchor="start" x="35" y="-473.5" font-family="Helvetica,sans-Serif" font-size="10.00">+ bFixNumChildren</text>
<text text-anchor="start" x="35" y="-462.5" font-family="Helvetica,sans-Serif" font-size="10.00">+ BlendType</text>
<polyline fill="none" stroke="black" points="27,-455.5 171,-455.5 "/>
<text text-anchor="start" x="35" y="-443.5" font-family="Helvetica,sans-Serif" font-size="10.00">+ ReplayAnim()</text>
<text text-anchor="start" x="35" y="-432.5" font-family="Helvetica,sans-Serif" font-size="10.00">+ StopAnim()</text>
<text text-anchor="start" x="35" y="-421.5" font-family="Helvetica,sans-Serif" font-size="10.00">+ PlayAnim()</text>
<text text-anchor="start" x="35" y="-410.5" font-family="Helvetica,sans-Serif" font-size="10.00">+ StaticClass()</text>
</a>
</g>
</g>
<!-- Node3&#45;&gt;Node2 -->
<g id="edge2" class="edge">
<title>Node3&#45;&gt;Node2</title>
<path fill="none" stroke="midnightblue" d="M99,-393.18C99,-384.43 99,-375.52 99,-366.96"/>
<polygon fill="none" stroke="midnightblue" points="95.5,-393.34 99,-403.34 102.5,-393.34 95.5,-393.34"/>
</g>
<!-- Node4 -->
<g id="node4" class="node">
<title>Node4</title>
<g id="a_node4"><a xlink:href="../../db/d08/classSDK_1_1UAnimNode.html" target="_top" xlink:title=" ">
<polygon fill="white" stroke="black" points="9.5,-552.5 9.5,-807.5 188.5,-807.5 188.5,-552.5 9.5,-552.5"/>
<text text-anchor="middle" x="99" y="-795.5" font-family="Helvetica,sans-Serif" font-size="10.00">SDK::UAnimNode</text>
<polyline fill="none" stroke="black" points="9.5,-788.5 188.5,-788.5 "/>
<text text-anchor="start" x="17.5" y="-776.5" font-family="Helvetica,sans-Serif" font-size="10.00">+ bRelevant</text>
<text text-anchor="start" x="17.5" y="-765.5" font-family="Helvetica,sans-Serif" font-size="10.00">+ bJustBecameRelevant</text>
<text text-anchor="start" x="17.5" y="-754.5" font-family="Helvetica,sans-Serif" font-size="10.00">+ bTickDuringPausedAnims</text>
<text text-anchor="start" x="17.5" y="-743.5" font-family="Helvetica,sans-Serif" font-size="10.00">+ bEditorOnly</text>
<text text-anchor="start" x="17.5" y="-732.5" font-family="Helvetica,sans-Serif" font-size="10.00">+ bDisableCaching</text>
<text text-anchor="start" x="17.5" y="-721.5" font-family="Helvetica,sans-Serif" font-size="10.00">+ bCallScriptEventOnInit</text>
<text text-anchor="start" x="17.5" y="-710.5" font-family="Helvetica,sans-Serif" font-size="10.00">+ bCallScriptEventOnBecome</text>
<text text-anchor="start" x="17.5" y="-699.5" font-family="Helvetica,sans-Serif" font-size="10.00">Relevant</text>
<text text-anchor="start" x="17.5" y="-688.5" font-family="Helvetica,sans-Serif" font-size="10.00">+ bCallScriptEventOnCeaseRelevant</text>
<text text-anchor="start" x="17.5" y="-677.5" font-family="Helvetica,sans-Serif" font-size="10.00">+ NodeTickTag</text>
<text text-anchor="start" x="17.5" y="-666.5" font-family="Helvetica,sans-Serif" font-size="10.00">+ NodeInitTag</text>
<text text-anchor="start" x="17.5" y="-655.5" font-family="Helvetica,sans-Serif" font-size="10.00">and 15 more...</text>
<polyline fill="none" stroke="black" points="9.5,-648.5 188.5,-648.5 "/>
<text text-anchor="start" x="17.5" y="-636.5" font-family="Helvetica,sans-Serif" font-size="10.00">+ ReplayAnim()</text>
<text text-anchor="start" x="17.5" y="-625.5" font-family="Helvetica,sans-Serif" font-size="10.00">+ StopAnim()</text>
<text text-anchor="start" x="17.5" y="-614.5" font-family="Helvetica,sans-Serif" font-size="10.00">+ PlayAnim()</text>
<text text-anchor="start" x="17.5" y="-603.5" font-family="Helvetica,sans-Serif" font-size="10.00">+ FindAnimNode()</text>
<text text-anchor="start" x="17.5" y="-592.5" font-family="Helvetica,sans-Serif" font-size="10.00">+ OnCeaseRelevant()</text>
<text text-anchor="start" x="17.5" y="-581.5" font-family="Helvetica,sans-Serif" font-size="10.00">+ OnBecomeRelevant()</text>
<text text-anchor="start" x="17.5" y="-570.5" font-family="Helvetica,sans-Serif" font-size="10.00">+ OnInit()</text>
<text text-anchor="start" x="17.5" y="-559.5" font-family="Helvetica,sans-Serif" font-size="10.00">+ StaticClass()</text>
</a>
</g>
</g>
<!-- Node4&#45;&gt;Node3 -->
<g id="edge3" class="edge">
<title>Node4&#45;&gt;Node3</title>
<path fill="none" stroke="midnightblue" d="M99,-542.1C99,-532.86 99,-523.91 99,-515.53"/>
<polygon fill="none" stroke="midnightblue" points="95.5,-542.21 99,-552.21 102.5,-542.21 95.5,-542.21"/>
</g>
<!-- Node5 -->
<g id="node5" class="node">
<title>Node5</title>
<g id="a_node5"><a xlink:href="../../de/d78/classSDK_1_1UAnimObject.html" target="_top" xlink:title=" ">
<polygon fill="white" stroke="black" points="48,-844.5 48,-967.5 150,-967.5 150,-844.5 48,-844.5"/>
<text text-anchor="middle" x="99" y="-955.5" font-family="Helvetica,sans-Serif" font-size="10.00">SDK::UAnimObject</text>
<polyline fill="none" stroke="black" points="48,-948.5 150,-948.5 "/>
<text text-anchor="start" x="56" y="-936.5" font-family="Helvetica,sans-Serif" font-size="10.00">+ DrawWidth</text>
<text text-anchor="start" x="56" y="-925.5" font-family="Helvetica,sans-Serif" font-size="10.00">+ DrawHeight</text>
<text text-anchor="start" x="56" y="-914.5" font-family="Helvetica,sans-Serif" font-size="10.00">+ NodePosX</text>
<text text-anchor="start" x="56" y="-903.5" font-family="Helvetica,sans-Serif" font-size="10.00">+ NodePosY</text>
<text text-anchor="start" x="56" y="-892.5" font-family="Helvetica,sans-Serif" font-size="10.00">+ OutDrawY</text>
<text text-anchor="start" x="56" y="-881.5" font-family="Helvetica,sans-Serif" font-size="10.00">+ CategoryDesc</text>
<text text-anchor="start" x="56" y="-870.5" font-family="Helvetica,sans-Serif" font-size="10.00">+ SkelComponent</text>
<polyline fill="none" stroke="black" points="48,-863.5 150,-863.5 "/>
<text text-anchor="start" x="56" y="-851.5" font-family="Helvetica,sans-Serif" font-size="10.00">+ StaticClass()</text>
</a>
</g>
</g>
<!-- Node5&#45;&gt;Node4 -->
<g id="edge4" class="edge">
<title>Node5&#45;&gt;Node4</title>
<path fill="none" stroke="midnightblue" d="M99,-834.17C99,-825.63 99,-816.72 99,-807.68"/>
<polygon fill="none" stroke="midnightblue" points="95.5,-834.38 99,-844.38 102.5,-834.38 95.5,-834.38"/>
</g>
<!-- Node6 -->
<g id="node6" class="node">
<title>Node6</title>
<g id="a_node6"><a xlink:href="../../d9/d45/classSDK_1_1UObject.html" target="_top" xlink:title=" ">
<polygon fill="white" stroke="black" points="0,-1004.5 0,-1358.5 198,-1358.5 198,-1004.5 0,-1004.5"/>
<text text-anchor="middle" x="99" y="-1346.5" font-family="Helvetica,sans-Serif" font-size="10.00">SDK::UObject</text>
<polyline fill="none" stroke="black" points="0,-1339.5 198,-1339.5 "/>
<text text-anchor="start" x="8" y="-1327.5" font-family="Helvetica,sans-Serif" font-size="10.00">+ VfTableObject</text>
<text text-anchor="start" x="8" y="-1316.5" font-family="Helvetica,sans-Serif" font-size="10.00">+ ObjectFlags</text>
<text text-anchor="start" x="8" y="-1305.5" font-family="Helvetica,sans-Serif" font-size="10.00">+ StateFrame</text>
<text text-anchor="start" x="8" y="-1294.5" font-family="Helvetica,sans-Serif" font-size="10.00">+ Linker</text>
<text text-anchor="start" x="8" y="-1283.5" font-family="Helvetica,sans-Serif" font-size="10.00">+ LinkerIndex</text>
<text text-anchor="start" x="8" y="-1272.5" font-family="Helvetica,sans-Serif" font-size="10.00">+ ObjectInternalInteger</text>
<text text-anchor="start" x="8" y="-1261.5" font-family="Helvetica,sans-Serif" font-size="10.00">+ NetIndex</text>
<text text-anchor="start" x="8" y="-1250.5" font-family="Helvetica,sans-Serif" font-size="10.00">+ Outer</text>
<text text-anchor="start" x="8" y="-1239.5" font-family="Helvetica,sans-Serif" font-size="10.00">+ Name</text>
<text text-anchor="start" x="8" y="-1228.5" font-family="Helvetica,sans-Serif" font-size="10.00">+ Class</text>
<text text-anchor="start" x="8" y="-1217.5" font-family="Helvetica,sans-Serif" font-size="10.00">+ ObjectArchetype</text>
<text text-anchor="start" x="8" y="-1206.5" font-family="Helvetica,sans-Serif" font-size="10.00">+ GObjects</text>
<polyline fill="none" stroke="black" points="0,-1199.5 198,-1199.5 "/>
<text text-anchor="start" x="8" y="-1187.5" font-family="Helvetica,sans-Serif" font-size="10.00">+ UObject::GetName()</text>
<text text-anchor="start" x="8" y="-1176.5" font-family="Helvetica,sans-Serif" font-size="10.00">+ GetFullName()</text>
<text text-anchor="start" x="8" y="-1165.5" font-family="Helvetica,sans-Serif" font-size="10.00">+ IsA()</text>
<text text-anchor="start" x="8" y="-1154.5" font-family="Helvetica,sans-Serif" font-size="10.00">+ ProcessEvent()</text>
<text text-anchor="start" x="8" y="-1143.5" font-family="Helvetica,sans-Serif" font-size="10.00">+ STATIC_ProfNodeEvent()</text>
<text text-anchor="start" x="8" y="-1132.5" font-family="Helvetica,sans-Serif" font-size="10.00">+ STATIC_ProfNodeSetDepthThreshold()</text>
<text text-anchor="start" x="8" y="-1121.5" font-family="Helvetica,sans-Serif" font-size="10.00">+ STATIC_ProfNodeSetTimeThreshold</text>
<text text-anchor="start" x="8" y="-1110.5" font-family="Helvetica,sans-Serif" font-size="10.00">Seconds()</text>
<text text-anchor="start" x="8" y="-1099.5" font-family="Helvetica,sans-Serif" font-size="10.00">+ STATIC_ProfNodeStop()</text>
<text text-anchor="start" x="8" y="-1088.5" font-family="Helvetica,sans-Serif" font-size="10.00">+ STATIC_ProfNodeStart()</text>
<text text-anchor="start" x="8" y="-1077.5" font-family="Helvetica,sans-Serif" font-size="10.00">+ STATIC_GetStringFromGuid()</text>
<text text-anchor="start" x="8" y="-1066.5" font-family="Helvetica,sans-Serif" font-size="10.00">and 298 more...</text>
<text text-anchor="start" x="8" y="-1055.5" font-family="Helvetica,sans-Serif" font-size="10.00">+ GetGlobalObjects()</text>
<text text-anchor="start" x="8" y="-1044.5" font-family="Helvetica,sans-Serif" font-size="10.00">+ FindObject()</text>
<text text-anchor="start" x="8" y="-1033.5" font-family="Helvetica,sans-Serif" font-size="10.00">+ FindClass()</text>
<text text-anchor="start" x="8" y="-1022.5" font-family="Helvetica,sans-Serif" font-size="10.00">+ GetObjectCasted()</text>
<text text-anchor="start" x="8" y="-1011.5" font-family="Helvetica,sans-Serif" font-size="10.00">+ StaticClass()</text>
</a>
</g>
</g>
<!-- Node6&#45;&gt;Node5 -->
<g id="edge5" class="edge">
<title>Node6&#45;&gt;Node5</title>
<path fill="none" stroke="midnightblue" d="M99,-994.1C99,-984.91 99,-976.07 99,-967.77"/>
<polygon fill="none" stroke="midnightblue" points="95.5,-994.2 99,-1004.2 102.5,-994.2 95.5,-994.2"/>
</g>
</g>
</svg>
        <g id="navigator" transform="translate(0 0)" fill="#404254">
                <rect fill="#f2f5e9" fill-opacity="0.5" stroke="#606060" stroke-width=".5" x="0" y="0" width="60" height="60"/>
                <use id="zoomplus" xlink:href="#zoomPlus" x="17" y="9" onmousedown="handleZoom(evt,'in')"/>
                <use id="zoomminus" xlink:href="#zoomMin" x="42" y="9" onmousedown="handleZoom(evt,'out')"/>
                <use id="reset" xlink:href="#resetDef" x="30" y="36" onmousedown="handleReset()"/>
                <g id="arrowUp" xlink:href="#dirArrow" transform="translate(30 24)" onmousedown="handlePan(0,-1)">
                  <use xlink:href="#rim" fill="#404040">
                        <set attributeName="fill" to="#808080" begin="arrowUp.mouseover" end="arrowUp.mouseout"/>
                  </use>
                  <path fill="none" stroke="white" stroke-width="1.5" d="M0,-3.0v7 M-2.5,-0.5L0,-3.0L2.5,-0.5"/>
                </g>
                <g id="arrowRight" xlink:href="#dirArrow" transform="rotate(90) translate(36 -43)" onmousedown="handlePan(1,0)">
                  <use xlink:href="#rim" fill="#404040">
                        <set attributeName="fill" to="#808080" begin="arrowRight.mouseover" end="arrowRight.mouseout"/>
                  </use>
                  <path fill="none" stroke="white" stroke-width="1.5" d="M0,-3.0v7 M-2.5,-0.5L0,-3.0L2.5,-0.5"/>
                </g>
                <g id="arrowDown" xlink:href="#dirArrow" transform="rotate(180) translate(-30 -48)" onmousedown="handlePan(0,1)">
                  <use xlink:href="#rim" fill="#404040">
                        <set attributeName="fill" to="#808080" begin="arrowDown.mouseover" end="arrowDown.mouseout"/>
                  </use>
                  <path fill="none" stroke="white" stroke-width="1.5" d="M0,-3.0v7 M-2.5,-0.5L0,-3.0L2.5,-0.5"/>
                </g>
                <g id="arrowLeft" xlink:href="#dirArrow" transform="rotate(270) translate(-36 17)" onmousedown="handlePan(-1,0)">
                  <use xlink:href="#rim" fill="#404040">
                        <set attributeName="fill" to="#808080" begin="arrowLeft.mouseover" end="arrowLeft.mouseout"/>
                  </use>
                  <path fill="none" stroke="white" stroke-width="1.5" d="M0,-3.0v7 M-2.5,-0.5L0,-3.0L2.5,-0.5"/>
                </g>
        </g>
        <svg viewBox="0 0 15 15" width="100%" height="30px" preserveAspectRatio="xMaxYMin meet">
         <g id="arrow_out" transform="scale(0.3 0.3)">
          <a xlink:href="classSDK_1_1UAnimNodeBlendPerBone__inherit__graph_org.svg" target="_base">
           <rect id="button" ry="5" rx="5" y="6" x="6" height="38" width="38"
                fill="#f2f5e9" fill-opacity="0.5" stroke="#606060" stroke-width="1.0"/>
           <path id="arrow"
             d="M 11.500037,31.436501 C 11.940474,20.09759 22.043105,11.32322 32.158766,21.979434 L 37.068811,17.246167 C 37.068811,17.246167 37.088388,32 37.088388,32 L 22.160133,31.978069 C 22.160133,31.978069 26.997745,27.140456 26.997745,27.140456 C 18.528582,18.264221 13.291696,25.230495 11.500037,31.436501 z"
             style="fill:#404040;"/>
          </a>
         </g>
        </svg>
</svg>
