<?xml version="1.0" encoding="UTF-8" standalone="no"?>
<!DOCTYPE svg PUBLIC "-//W3C//DTD SVG 1.1//EN"
 "http://www.w3.org/Graphics/SVG/1.1/DTD/svg11.dtd">
<!-- Generated by graphviz version 2.41.20171026.1811 (20171026.1811)
 -->
<!-- Title: SDK::FIniLocFileEntry Pages: 1 -->
<svg width="123pt" height="215pt"
 viewBox="0.00 0.00 123.00 215.00" xmlns="http://www.w3.org/2000/svg" xmlns:xlink="http://www.w3.org/1999/xlink">
<g id="graph0" class="graph" transform="scale(1 1) rotate(0) translate(4 211)">
<title>SDK::FIniLocFileEntry</title>
<polygon fill="white" stroke="transparent" points="-4,4 -4,-211 119,-211 119,4 -4,4"/>
<!-- Node1 -->
<g id="node1" class="node">
<title>Node1</title>
<g id="a_node1"><a xlink:title=" ">
<polygon fill="#bfbfbf" stroke="black" points="0,-0.5 0,-68.5 115,-68.5 115,-0.5 0,-0.5"/>
<text text-anchor="middle" x="57.5" y="-56.5" font-family="Helvetica,sans-Serif" font-size="10.00">SDK::FIniLocFileEntry</text>
<polyline fill="none" stroke="black" points="0,-49.5 115,-49.5 "/>
<text text-anchor="start" x="8" y="-37.5" font-family="Helvetica,sans-Serif" font-size="10.00">+ bIsUnicode</text>
<text text-anchor="start" x="8" y="-26.5" font-family="Helvetica,sans-Serif" font-size="10.00">+ ReadState</text>
<polyline fill="none" stroke="black" points="0,-19.5 115,-19.5 "/>
<text text-anchor="middle" x="57.5" y="-7.5" font-family="Helvetica,sans-Serif" font-size="10.00"> </text>
</a>
</g>
</g>
<!-- Node2 -->
<g id="node2" class="node">
<title>Node2</title>
<g id="a_node2"><a xlink:href="../../d9/d19/structSDK_1_1FEmsFile.html" target="_top" xlink:title=" ">
<polygon fill="white" stroke="black" points="2.5,-105.5 2.5,-206.5 112.5,-206.5 112.5,-105.5 2.5,-105.5"/>
<text text-anchor="middle" x="57.5" y="-194.5" font-family="Helvetica,sans-Serif" font-size="10.00">SDK::FEmsFile</text>
<polyline fill="none" stroke="black" points="2.5,-187.5 112.5,-187.5 "/>
<text text-anchor="start" x="10.5" y="-175.5" font-family="Helvetica,sans-Serif" font-size="10.00">+ Hash</text>
<text text-anchor="start" x="10.5" y="-164.5" font-family="Helvetica,sans-Serif" font-size="10.00">+ DLName</text>
<text text-anchor="start" x="10.5" y="-153.5" font-family="Helvetica,sans-Serif" font-size="10.00">+ Filename</text>
<text text-anchor="start" x="10.5" y="-142.5" font-family="Helvetica,sans-Serif" font-size="10.00">+ FileSize</text>
<text text-anchor="start" x="10.5" y="-131.5" font-family="Helvetica,sans-Serif" font-size="10.00">+ UploadedDateTime</text>
<polyline fill="none" stroke="black" points="2.5,-124.5 112.5,-124.5 "/>
<text text-anchor="middle" x="57.5" y="-112.5" font-family="Helvetica,sans-Serif" font-size="10.00"> </text>
</a>
</g>
</g>
<!-- Node2&#45;&gt;Node1 -->
<g id="edge1" class="edge">
<title>Node2&#45;&gt;Node1</title>
<path fill="none" stroke="midnightblue" d="M57.5,-95.17C57.5,-86.11 57.5,-77.05 57.5,-68.83"/>
<polygon fill="none" stroke="midnightblue" points="54,-95.36 57.5,-105.36 61,-95.36 54,-95.36"/>
</g>
</g>
</svg>
