<?xml version="1.0" encoding="UTF-8" standalone="no"?>
<!DOCTYPE svg PUBLIC "-//W3C//DTD SVG 1.1//EN"
 "http://www.w3.org/Graphics/SVG/1.1/DTD/svg11.dtd">
<!-- Generated by graphviz version 2.41.20171026.1811 (20171026.1811)
 -->
<!-- Title: SDK::UEFUIComponent Pages: 1 -->
<!--zoomable 2378 -->
<svg id="main" version="1.1" xmlns="http://www.w3.org/2000/svg" xmlns:xlink="http://www.w3.org/1999/xlink" xml:space="preserve" onload="init(evt)">
<style type="text/css"><![CDATA[
.edge:hover path { stroke: red; }
.edge:hover polygon { stroke: red; fill: red; }
]]></style>
<script type="text/javascript"><![CDATA[
var edges = document.getElementsByTagName('g');
if (edges && edges.length) {
  for (var i=0;i<edges.length;i++) {
    if (edges[i].id.substr(0,4)=='edge') {
      edges[i].setAttribute('class','edge');
    }
  }
}
]]></script>
        <defs>
                <circle id="rim" cx="0" cy="0" r="7"/>
                <circle id="rim2" cx="0" cy="0" r="3.5"/>
                <g id="zoomPlus">
                        <use xlink:href="#rim" fill="#404040">
                                <set attributeName="fill" to="#808080" begin="zoomplus.mouseover" end="zoomplus.mouseout"/>
                        </use>
                        <path d="M-4,0h8M0,-4v8" fill="none" stroke="white" stroke-width="1.5" pointer-events="none"/>
                </g>
                <g id="zoomMin">
                        <use xlink:href="#rim" fill="#404040">
                                <set attributeName="fill" to="#808080" begin="zoomminus.mouseover" end="zoomminus.mouseout"/>
                        </use>
                        <path d="M-4,0h8" fill="none" stroke="white" stroke-width="1.5" pointer-events="none"/>
                </g>
                <g id="dirArrow">
                        <path fill="none" stroke="white" stroke-width="1.5" d="M0,-3.0v7 M-2.5,-0.5L0,-3.0L2.5,-0.5"/>
                </g>
               <g id="resetDef">
                       <use xlink:href="#rim2" fill="#404040">
                               <set attributeName="fill" to="#808080" begin="reset.mouseover" end="reset.mouseout"/>
                       </use>
               </g>
        </defs>

<script type="text/javascript">
var viewWidth = 926;
var viewHeight = 2378;
var sectionId = 'dynsection-1';
</script>
<script xlink:href="../../svgpan.js"/>
<svg id="graph" class="graph">
<g id="viewport">
<title>SDK::UEFUIComponent</title>
<polygon fill="white" stroke="transparent" points="-4,4 -4,-2374 921.5,-2374 921.5,4 -4,4"/>
<!-- Node1 -->
<g id="node1" class="node">
<title>Node1</title>
<g id="a_node1"><a xlink:title=" ">
<polygon fill="#bfbfbf" stroke="black" points="21,-0.5 21,-178.5 146,-178.5 146,-0.5 21,-0.5"/>
<text text-anchor="middle" x="83.5" y="-166.5" font-family="Helvetica,sans-Serif" font-size="10.00">SDK::UEFUIComponent</text>
<polyline fill="none" stroke="black" points="21,-159.5 146,-159.5 "/>
<text text-anchor="middle" x="83.5" y="-147.5" font-family="Helvetica,sans-Serif" font-size="10.00"> </text>
<polyline fill="none" stroke="black" points="21,-140.5 146,-140.5 "/>
<text text-anchor="start" x="29" y="-128.5" font-family="Helvetica,sans-Serif" font-size="10.00">+ InvalidateSize()</text>
<text text-anchor="start" x="29" y="-117.5" font-family="Helvetica,sans-Serif" font-size="10.00">+ InvalidateData()</text>
<text text-anchor="start" x="29" y="-106.5" font-family="Helvetica,sans-Serif" font-size="10.00">+ Invalidate()</text>
<text text-anchor="start" x="29" y="-95.5" font-family="Helvetica,sans-Serif" font-size="10.00">+ ValidateNow()</text>
<text text-anchor="start" x="29" y="-84.5" font-family="Helvetica,sans-Serif" font-size="10.00">+ HasFocus()</text>
<text text-anchor="start" x="29" y="-73.5" font-family="Helvetica,sans-Serif" font-size="10.00">+ GetY()</text>
<text text-anchor="start" x="29" y="-62.5" font-family="Helvetica,sans-Serif" font-size="10.00">+ SetY()</text>
<text text-anchor="start" x="29" y="-51.5" font-family="Helvetica,sans-Serif" font-size="10.00">+ GetX()</text>
<text text-anchor="start" x="29" y="-40.5" font-family="Helvetica,sans-Serif" font-size="10.00">+ SetX()</text>
<text text-anchor="start" x="29" y="-29.5" font-family="Helvetica,sans-Serif" font-size="10.00">+ GetHeight()</text>
<text text-anchor="start" x="29" y="-18.5" font-family="Helvetica,sans-Serif" font-size="10.00">and 10 more...</text>
<text text-anchor="start" x="29" y="-7.5" font-family="Helvetica,sans-Serif" font-size="10.00">+ StaticClass()</text>
</a>
</g>
</g>
<!-- Node2 -->
<g id="node2" class="node">
<title>Node2</title>
<g id="a_node2"><a xlink:href="../../dc/dd3/classSDK_1_1UGFxClikWidget.html" target="_top" xlink:title=" ">
<polygon fill="white" stroke="black" points="0,-216.5 0,-361.5 167,-361.5 167,-216.5 0,-216.5"/>
<text text-anchor="middle" x="83.5" y="-349.5" font-family="Helvetica,sans-Serif" font-size="10.00">SDK::UGFxClikWidget</text>
<polyline fill="none" stroke="black" points="0,-342.5 167,-342.5 "/>
<text text-anchor="middle" x="83.5" y="-330.5" font-family="Helvetica,sans-Serif" font-size="10.00"> </text>
<polyline fill="none" stroke="black" points="0,-323.5 167,-323.5 "/>
<text text-anchor="start" x="8" y="-311.5" font-family="Helvetica,sans-Serif" font-size="10.00">+ ASRemoveAllEventListeners()</text>
<text text-anchor="start" x="8" y="-300.5" font-family="Helvetica,sans-Serif" font-size="10.00">+ AS3AddEventListener()</text>
<text text-anchor="start" x="8" y="-289.5" font-family="Helvetica,sans-Serif" font-size="10.00">+ ASAddEventListener()</text>
<text text-anchor="start" x="8" y="-278.5" font-family="Helvetica,sans-Serif" font-size="10.00">+ SetListener()</text>
<text text-anchor="start" x="8" y="-267.5" font-family="Helvetica,sans-Serif" font-size="10.00">+ GetEventStringFromTypename()</text>
<text text-anchor="start" x="8" y="-256.5" font-family="Helvetica,sans-Serif" font-size="10.00">+ RemoveAllEventListeners()</text>
<text text-anchor="start" x="8" y="-245.5" font-family="Helvetica,sans-Serif" font-size="10.00">+ AddEventListener()</text>
<text text-anchor="start" x="8" y="-234.5" font-family="Helvetica,sans-Serif" font-size="10.00">+ EventListener()</text>
<text text-anchor="start" x="8" y="-223.5" font-family="Helvetica,sans-Serif" font-size="10.00">+ StaticClass()</text>
</a>
</g>
</g>
<!-- Node2&#45;&gt;Node1 -->
<g id="edge1" class="edge">
<title>Node2&#45;&gt;Node1</title>
<path fill="none" stroke="midnightblue" d="M83.5,-206.25C83.5,-197.15 83.5,-187.85 83.5,-178.68"/>
<polygon fill="none" stroke="midnightblue" points="80,-206.42 83.5,-216.42 87,-206.42 80,-206.42"/>
</g>
<!-- Node3 -->
<g id="node3" class="node">
<title>Node3</title>
<g id="a_node3"><a xlink:href="../../d2/d23/classSDK_1_1UGFxObject.html" target="_top" xlink:title=" ">
<polygon fill="white" stroke="black" points="622,-399.5 622,-588.5 771,-588.5 771,-399.5 622,-399.5"/>
<text text-anchor="middle" x="696.5" y="-576.5" font-family="Helvetica,sans-Serif" font-size="10.00">SDK::UGFxObject</text>
<polyline fill="none" stroke="black" points="622,-569.5 771,-569.5 "/>
<text text-anchor="start" x="630" y="-557.5" font-family="Helvetica,sans-Serif" font-size="10.00">+ Value</text>
<text text-anchor="start" x="630" y="-546.5" font-family="Helvetica,sans-Serif" font-size="10.00">+ bListenExternalInterfaceCall</text>
<polyline fill="none" stroke="black" points="622,-539.5 771,-539.5 "/>
<text text-anchor="start" x="630" y="-527.5" font-family="Helvetica,sans-Serif" font-size="10.00">+ DestroyGFxObject()</text>
<text text-anchor="start" x="630" y="-516.5" font-family="Helvetica,sans-Serif" font-size="10.00">+ WidgetUnloaded()</text>
<text text-anchor="start" x="630" y="-505.5" font-family="Helvetica,sans-Serif" font-size="10.00">+ WidgetInitialized()</text>
<text text-anchor="start" x="630" y="-494.5" font-family="Helvetica,sans-Serif" font-size="10.00">+ GotoAndStopI()</text>
<text text-anchor="start" x="630" y="-483.5" font-family="Helvetica,sans-Serif" font-size="10.00">+ GotoAndStop()</text>
<text text-anchor="start" x="630" y="-472.5" font-family="Helvetica,sans-Serif" font-size="10.00">+ GotoAndPlayI()</text>
<text text-anchor="start" x="630" y="-461.5" font-family="Helvetica,sans-Serif" font-size="10.00">+ GotoAndPlay()</text>
<text text-anchor="start" x="630" y="-450.5" font-family="Helvetica,sans-Serif" font-size="10.00">+ ActionScriptString()</text>
<text text-anchor="start" x="630" y="-439.5" font-family="Helvetica,sans-Serif" font-size="10.00">+ ActionScriptFloat()</text>
<text text-anchor="start" x="630" y="-428.5" font-family="Helvetica,sans-Serif" font-size="10.00">+ ActionScriptInt()</text>
<text text-anchor="start" x="630" y="-417.5" font-family="Helvetica,sans-Serif" font-size="10.00">and 69 more...</text>
<text text-anchor="start" x="630" y="-406.5" font-family="Helvetica,sans-Serif" font-size="10.00">+ StaticClass()</text>
</a>
</g>
</g>
<!-- Node3&#45;&gt;Node2 -->
<g id="edge2" class="edge">
<title>Node3&#45;&gt;Node2</title>
<path fill="none" stroke="midnightblue" d="M612.29,-465.11C495.15,-426.32 284.26,-356.48 167.32,-317.76"/>
<polygon fill="none" stroke="midnightblue" points="611.35,-468.49 621.95,-468.31 613.55,-461.84 611.35,-468.49"/>
</g>
<!-- Node4 -->
<g id="node4" class="node">
<title>Node4</title>
<g id="a_node4"><a xlink:href="../../d9/d45/classSDK_1_1UObject.html" target="_top" xlink:title=" ">
<polygon fill="white" stroke="black" points="461.5,-1477.5 461.5,-1721.5 659.5,-1721.5 659.5,-1477.5 461.5,-1477.5"/>
<text text-anchor="middle" x="560.5" y="-1709.5" font-family="Helvetica,sans-Serif" font-size="10.00">SDK::UObject</text>
<polyline fill="none" stroke="black" points="461.5,-1702.5 659.5,-1702.5 "/>
<text text-anchor="start" x="469.5" y="-1690.5" font-family="Helvetica,sans-Serif" font-size="10.00">+ ObjectInternalInteger</text>
<text text-anchor="start" x="469.5" y="-1679.5" font-family="Helvetica,sans-Serif" font-size="10.00">+ NetIndex</text>
<polyline fill="none" stroke="black" points="461.5,-1672.5 659.5,-1672.5 "/>
<text text-anchor="start" x="469.5" y="-1660.5" font-family="Helvetica,sans-Serif" font-size="10.00">+ UObject::GetName()</text>
<text text-anchor="start" x="469.5" y="-1649.5" font-family="Helvetica,sans-Serif" font-size="10.00">+ GetFullName()</text>
<text text-anchor="start" x="469.5" y="-1638.5" font-family="Helvetica,sans-Serif" font-size="10.00">+ IsA()</text>
<text text-anchor="start" x="469.5" y="-1627.5" font-family="Helvetica,sans-Serif" font-size="10.00">+ ProcessEvent()</text>
<text text-anchor="start" x="469.5" y="-1616.5" font-family="Helvetica,sans-Serif" font-size="10.00">+ STATIC_ProfNodeEvent()</text>
<text text-anchor="start" x="469.5" y="-1605.5" font-family="Helvetica,sans-Serif" font-size="10.00">+ STATIC_ProfNodeSetDepthThreshold()</text>
<text text-anchor="start" x="469.5" y="-1594.5" font-family="Helvetica,sans-Serif" font-size="10.00">+ STATIC_ProfNodeSetTimeThreshold</text>
<text text-anchor="start" x="469.5" y="-1583.5" font-family="Helvetica,sans-Serif" font-size="10.00">Seconds()</text>
<text text-anchor="start" x="469.5" y="-1572.5" font-family="Helvetica,sans-Serif" font-size="10.00">+ STATIC_ProfNodeStop()</text>
<text text-anchor="start" x="469.5" y="-1561.5" font-family="Helvetica,sans-Serif" font-size="10.00">+ STATIC_ProfNodeStart()</text>
<text text-anchor="start" x="469.5" y="-1550.5" font-family="Helvetica,sans-Serif" font-size="10.00">+ STATIC_GetStringFromGuid()</text>
<text text-anchor="start" x="469.5" y="-1539.5" font-family="Helvetica,sans-Serif" font-size="10.00">and 298 more...</text>
<text text-anchor="start" x="469.5" y="-1528.5" font-family="Helvetica,sans-Serif" font-size="10.00">+ GetGlobalObjects()</text>
<text text-anchor="start" x="469.5" y="-1517.5" font-family="Helvetica,sans-Serif" font-size="10.00">+ FindObject()</text>
<text text-anchor="start" x="469.5" y="-1506.5" font-family="Helvetica,sans-Serif" font-size="10.00">+ FindClass()</text>
<text text-anchor="start" x="469.5" y="-1495.5" font-family="Helvetica,sans-Serif" font-size="10.00">+ GetObjectCasted()</text>
<text text-anchor="start" x="469.5" y="-1484.5" font-family="Helvetica,sans-Serif" font-size="10.00">+ StaticClass()</text>
</a>
</g>
</g>
<!-- Node4&#45;&gt;Node3 -->
<g id="edge3" class="edge">
<title>Node4&#45;&gt;Node3</title>
<path fill="none" stroke="midnightblue" d="M668.89,-1553.45C742.11,-1514.99 825.5,-1451.81 825.5,-1363.5 825.5,-1363.5 825.5,-1363.5 825.5,-708 825.5,-658.5 799.69,-610.67 771.17,-572.92"/>
<polygon fill="none" stroke="midnightblue" points="666.85,-1550.56 659.55,-1558.25 670.05,-1556.79 666.85,-1550.56"/>
</g>
<!-- Node4&#45;&gt;Node4 -->
<g id="edge9" class="edge">
<title>Node4&#45;&gt;Node4</title>
<path fill="none" stroke="#404040" d="M659.51,-1622.53C670.44,-1618.15 677.5,-1610.48 677.5,-1599.5 677.5,-1592.64 674.74,-1587.07 670.01,-1582.78"/>
<polygon fill="none" stroke="#404040" points="669.8,-1582.66 662.59,-1582.99 659.51,-1576.47 666.72,-1576.14 669.8,-1582.66"/>
<text text-anchor="middle" x="717" y="-1608" font-family="Helvetica,sans-Serif" font-size="10.00"> +Outer</text>
<text text-anchor="middle" x="717" y="-1597" font-family="Helvetica,sans-Serif" font-size="10.00">+Linker</text>
<text text-anchor="middle" x="717" y="-1586" font-family="Helvetica,sans-Serif" font-size="10.00">+ObjectArchetype</text>
</g>
<!-- Node10 -->
<g id="node10" class="node">
<title>Node10</title>
<g id="a_node10"><a xlink:href="../../d3/d79/classSDK_1_1TArray.html" target="_top" xlink:title=" ">
<polygon fill="white" stroke="black" points="359,-1295.5 359,-1429.5 520,-1429.5 520,-1295.5 359,-1295.5"/>
<text text-anchor="middle" x="439.5" y="-1417.5" font-family="Helvetica,sans-Serif" font-size="10.00">SDK::TArray&lt; SDK::UObject * &gt;</text>
<polyline fill="none" stroke="black" points="359,-1410.5 520,-1410.5 "/>
<text text-anchor="start" x="367" y="-1398.5" font-family="Helvetica,sans-Serif" font-size="10.00">&#45; Count</text>
<text text-anchor="start" x="367" y="-1387.5" font-family="Helvetica,sans-Serif" font-size="10.00">&#45; Max</text>
<polyline fill="none" stroke="black" points="359,-1380.5 520,-1380.5 "/>
<text text-anchor="start" x="367" y="-1368.5" font-family="Helvetica,sans-Serif" font-size="10.00">+ TArray()</text>
<text text-anchor="start" x="367" y="-1357.5" font-family="Helvetica,sans-Serif" font-size="10.00">+ Num()</text>
<text text-anchor="start" x="367" y="-1346.5" font-family="Helvetica,sans-Serif" font-size="10.00">+ operator[]()</text>
<text text-anchor="start" x="367" y="-1335.5" font-family="Helvetica,sans-Serif" font-size="10.00">+ operator[]()</text>
<text text-anchor="start" x="367" y="-1324.5" font-family="Helvetica,sans-Serif" font-size="10.00">+ IsValidIndex()</text>
<text text-anchor="start" x="367" y="-1313.5" font-family="Helvetica,sans-Serif" font-size="10.00">+ GetByIndex()</text>
<text text-anchor="start" x="367" y="-1302.5" font-family="Helvetica,sans-Serif" font-size="10.00">+ GetByIndex()</text>
</a>
</g>
</g>
<!-- Node4&#45;&gt;Node10 -->
<g id="edge11" class="edge">
<title>Node4&#45;&gt;Node10</title>
<path fill="none" stroke="#404040" d="M463.29,-1477.34C460.08,-1471.28 457.12,-1465.16 454.5,-1459 452.11,-1453.4 450.1,-1447.47 448.41,-1441.42"/>
<polygon fill="none" stroke="#404040" points="448.39,-1441.34 443.07,-1436.46 445.53,-1429.68 450.84,-1434.56 448.39,-1441.34"/>
<text text-anchor="middle" x="468.5" y="-1451" font-family="Helvetica,sans-Serif" font-size="10.00"> &#45;Data</text>
</g>
<!-- Node12 -->
<g id="node12" class="node">
<title>Node12</title>
<g id="a_node12"><a xlink:href="../../d7/d85/classSDK_1_1UClass.html" target="_top" xlink:title=" ">
<polygon fill="white" stroke="black" points="491,-934.5 491,-1024.5 612,-1024.5 612,-934.5 491,-934.5"/>
<text text-anchor="middle" x="551.5" y="-1012.5" font-family="Helvetica,sans-Serif" font-size="10.00">SDK::UClass</text>
<polyline fill="none" stroke="black" points="491,-1005.5 612,-1005.5 "/>
<text text-anchor="start" x="499" y="-993.5" font-family="Helvetica,sans-Serif" font-size="10.00">+ UnknownData00</text>
<text text-anchor="start" x="499" y="-982.5" font-family="Helvetica,sans-Serif" font-size="10.00">+ UnknownData01</text>
<polyline fill="none" stroke="black" points="491,-975.5 612,-975.5 "/>
<text text-anchor="start" x="499" y="-963.5" font-family="Helvetica,sans-Serif" font-size="10.00">+ CreateDefaultObject()</text>
<text text-anchor="start" x="499" y="-952.5" font-family="Helvetica,sans-Serif" font-size="10.00">+ CreateDefaultObject()</text>
<text text-anchor="start" x="499" y="-941.5" font-family="Helvetica,sans-Serif" font-size="10.00">+ StaticClass()</text>
</a>
</g>
</g>
<!-- Node4&#45;&gt;Node12 -->
<g id="edge21" class="edge">
<title>Node4&#45;&gt;Node12</title>
<path fill="none" stroke="#404040" d="M579.05,-1477.42C583.25,-1440.9 586.5,-1400.65 586.5,-1363.5 586.5,-1363.5 586.5,-1363.5 586.5,-1090 586.5,-1071.92 582.12,-1052.92 576.45,-1035.92"/>
<polygon fill="none" stroke="#404040" points="576.41,-1035.81 570.62,-1031.51 572.37,-1024.51 578.15,-1028.81 576.41,-1035.81"/>
<text text-anchor="middle" x="634" y="-1194.5" font-family="Helvetica,sans-Serif" font-size="10.00"> +ClassDefaultObject</text>
</g>
<!-- Node15 -->
<g id="node15" class="node">
<title>Node15</title>
<g id="a_node15"><a xlink:href="../../de/dd6/classSDK_1_1UField.html" target="_top" xlink:title=" ">
<polygon fill="white" stroke="black" points="665,-1334 665,-1391 748,-1391 748,-1334 665,-1334"/>
<text text-anchor="middle" x="706.5" y="-1379" font-family="Helvetica,sans-Serif" font-size="10.00">SDK::UField</text>
<polyline fill="none" stroke="black" points="665,-1372 748,-1372 "/>
<text text-anchor="middle" x="706.5" y="-1360" font-family="Helvetica,sans-Serif" font-size="10.00"> </text>
<polyline fill="none" stroke="black" points="665,-1353 748,-1353 "/>
<text text-anchor="start" x="673" y="-1341" font-family="Helvetica,sans-Serif" font-size="10.00">+ StaticClass()</text>
</a>
</g>
</g>
<!-- Node4&#45;&gt;Node15 -->
<g id="edge18" class="edge">
<title>Node4&#45;&gt;Node15</title>
<path fill="none" stroke="midnightblue" d="M641.25,-1468.52C659.45,-1439.24 676.99,-1411 689.3,-1391.19"/>
<polygon fill="none" stroke="midnightblue" points="638.16,-1466.87 635.85,-1477.21 644.1,-1470.57 638.16,-1466.87"/>
</g>
<!-- Node20 -->
<g id="node20" class="node">
<title>Node20</title>
<g id="a_node20"><a xlink:href="../../dc/dd6/structSDK_1_1FScriptDelegate.html" target="_top" xlink:title=" ">
<polygon fill="white" stroke="black" points="74.5,-1334 74.5,-1391 188.5,-1391 188.5,-1334 74.5,-1334"/>
<text text-anchor="middle" x="131.5" y="-1379" font-family="Helvetica,sans-Serif" font-size="10.00">SDK::FScriptDelegate</text>
<polyline fill="none" stroke="black" points="74.5,-1372 188.5,-1372 "/>
<text text-anchor="middle" x="131.5" y="-1360" font-family="Helvetica,sans-Serif" font-size="10.00"> </text>
<polyline fill="none" stroke="black" points="74.5,-1353 188.5,-1353 "/>
<text text-anchor="middle" x="131.5" y="-1341" font-family="Helvetica,sans-Serif" font-size="10.00"> </text>
</a>
</g>
</g>
<!-- Node4&#45;&gt;Node20 -->
<g id="edge32" class="edge">
<title>Node4&#45;&gt;Node20</title>
<path fill="none" stroke="#404040" d="M461.27,-1544.14C378.34,-1498.72 262.72,-1435.38 192.71,-1397.03"/>
<polygon fill="none" stroke="#404040" points="192.4,-1396.86 185.22,-1397.49 181.88,-1391.1 189.06,-1390.47 192.4,-1396.86"/>
<text text-anchor="middle" x="314.5" y="-1451" font-family="Helvetica,sans-Serif" font-size="10.00"> +Object</text>
</g>
<!-- Node5 -->
<g id="node5" class="node">
<title>Node5</title>
<g id="a_node5"><a xlink:href="../../d0/d22/structSDK_1_1FQWord.html" target="_top" xlink:title=" ">
<polygon fill="white" stroke="black" points="519.5,-1888 519.5,-1956 599.5,-1956 599.5,-1888 519.5,-1888"/>
<text text-anchor="middle" x="559.5" y="-1944" font-family="Helvetica,sans-Serif" font-size="10.00">SDK::FQWord</text>
<polyline fill="none" stroke="black" points="519.5,-1937 599.5,-1937 "/>
<text text-anchor="start" x="527.5" y="-1925" font-family="Helvetica,sans-Serif" font-size="10.00">+ A</text>
<text text-anchor="start" x="527.5" y="-1914" font-family="Helvetica,sans-Serif" font-size="10.00">+ B</text>
<polyline fill="none" stroke="black" points="519.5,-1907 599.5,-1907 "/>
<text text-anchor="middle" x="559.5" y="-1895" font-family="Helvetica,sans-Serif" font-size="10.00"> </text>
</a>
</g>
</g>
<!-- Node5&#45;&gt;Node4 -->
<g id="edge4" class="edge">
<title>Node5&#45;&gt;Node4</title>
<path fill="none" stroke="#404040" d="M559.6,-1887.91C559.72,-1851.48 559.91,-1790.57 560.08,-1734.19"/>
<polygon fill="none" stroke="#404040" points="560.08,-1733.86 556.1,-1727.85 560.12,-1721.86 564.1,-1727.87 560.08,-1733.86"/>
<text text-anchor="middle" x="591.5" y="-1788.5" font-family="Helvetica,sans-Serif" font-size="10.00"> +ObjectFlags</text>
</g>
<!-- Node6 -->
<g id="node6" class="node">
<title>Node6</title>
<g id="a_node6"><a xlink:href="../../d0/db6/structSDK_1_1FName.html" target="_top" xlink:title=" ">
<polygon fill="white" stroke="black" points="252,-1860.5 252,-1983.5 359,-1983.5 359,-1860.5 252,-1860.5"/>
<text text-anchor="middle" x="305.5" y="-1971.5" font-family="Helvetica,sans-Serif" font-size="10.00">SDK::FName</text>
<polyline fill="none" stroke="black" points="252,-1964.5 359,-1964.5 "/>
<text text-anchor="start" x="260" y="-1952.5" font-family="Helvetica,sans-Serif" font-size="10.00">+ Index</text>
<text text-anchor="start" x="260" y="-1941.5" font-family="Helvetica,sans-Serif" font-size="10.00">+ Number</text>
<polyline fill="none" stroke="black" points="252,-1934.5 359,-1934.5 "/>
<text text-anchor="start" x="260" y="-1922.5" font-family="Helvetica,sans-Serif" font-size="10.00">+ FName()</text>
<text text-anchor="start" x="260" y="-1911.5" font-family="Helvetica,sans-Serif" font-size="10.00">+ FName()</text>
<text text-anchor="start" x="260" y="-1900.5" font-family="Helvetica,sans-Serif" font-size="10.00">+ FName()</text>
<text text-anchor="start" x="260" y="-1889.5" font-family="Helvetica,sans-Serif" font-size="10.00">+ GetName()</text>
<text text-anchor="start" x="260" y="-1878.5" font-family="Helvetica,sans-Serif" font-size="10.00">+ operator==()</text>
<text text-anchor="start" x="260" y="-1867.5" font-family="Helvetica,sans-Serif" font-size="10.00">+ GetGlobalNames()</text>
</a>
</g>
</g>
<!-- Node6&#45;&gt;Node4 -->
<g id="edge5" class="edge">
<title>Node6&#45;&gt;Node4</title>
<path fill="none" stroke="#404040" d="M353.76,-1860.34C382.81,-1823.83 420.95,-1775.89 456.56,-1731.14"/>
<polygon fill="none" stroke="#404040" points="456.64,-1731.04 457.25,-1723.85 464.11,-1721.65 463.51,-1728.83 456.64,-1731.04"/>
<text text-anchor="middle" x="466.5" y="-1788.5" font-family="Helvetica,sans-Serif" font-size="10.00"> +Name</text>
</g>
<!-- Node17 -->
<g id="node17" class="node">
<title>Node17</title>
<g id="a_node17"><a xlink:href="../../d0/d8a/structSDK_1_1FGFxWidgetBinding.html" target="_top" xlink:title=" ">
<polygon fill="white" stroke="black" points="345,-829.5 345,-886.5 476,-886.5 476,-829.5 345,-829.5"/>
<text text-anchor="middle" x="410.5" y="-874.5" font-family="Helvetica,sans-Serif" font-size="10.00">SDK::FGFxWidgetBinding</text>
<polyline fill="none" stroke="black" points="345,-867.5 476,-867.5 "/>
<text text-anchor="middle" x="410.5" y="-855.5" font-family="Helvetica,sans-Serif" font-size="10.00"> </text>
<polyline fill="none" stroke="black" points="345,-848.5 476,-848.5 "/>
<text text-anchor="middle" x="410.5" y="-836.5" font-family="Helvetica,sans-Serif" font-size="10.00"> </text>
</a>
</g>
</g>
<!-- Node6&#45;&gt;Node17 -->
<g id="edge24" class="edge">
<title>Node6&#45;&gt;Node17</title>
<path fill="none" stroke="#404040" d="M309.83,-1860.46C321.8,-1692.51 354.5,-1230.89 354.5,-1198 354.5,-1198 354.5,-1198 354.5,-978.5 354.5,-949.23 368.45,-919.41 382.42,-896.88"/>
<polygon fill="none" stroke="#404040" points="382.47,-896.81 382.38,-889.6 389.01,-886.75 389.09,-893.97 382.47,-896.81"/>
<text text-anchor="middle" x="388" y="-1194.5" font-family="Helvetica,sans-Serif" font-size="10.00"> +WidgetName</text>
</g>
<!-- Node6&#45;&gt;Node20 -->
<g id="edge31" class="edge">
<title>Node6&#45;&gt;Node20</title>
<path fill="none" stroke="#404040" d="M284.42,-1860.21C270.95,-1820.9 253.28,-1768.56 238.5,-1722 201.85,-1606.55 161.82,-1469.07 142.78,-1402.91"/>
<polygon fill="none" stroke="#404040" points="142.68,-1402.57 137.18,-1397.91 139.36,-1391.03 144.87,-1395.7 142.68,-1402.57"/>
<text text-anchor="middle" x="275" y="-1597" font-family="Helvetica,sans-Serif" font-size="10.00"> +FunctionName</text>
</g>
<!-- Node7 -->
<g id="node7" class="node">
<title>Node7</title>
<g id="a_node7"><a xlink:href="../../d3/d79/classSDK_1_1TArray.html" target="_top" xlink:title=" ">
<polygon fill="white" stroke="black" points="201.5,-2037 201.5,-2171 381.5,-2171 381.5,-2037 201.5,-2037"/>
<text text-anchor="middle" x="291.5" y="-2159" font-family="Helvetica,sans-Serif" font-size="10.00">SDK::TArray&lt; SDK::FNameEntry * &gt;</text>
<polyline fill="none" stroke="black" points="201.5,-2152 381.5,-2152 "/>
<text text-anchor="start" x="209.5" y="-2140" font-family="Helvetica,sans-Serif" font-size="10.00">&#45; Count</text>
<text text-anchor="start" x="209.5" y="-2129" font-family="Helvetica,sans-Serif" font-size="10.00">&#45; Max</text>
<polyline fill="none" stroke="black" points="201.5,-2122 381.5,-2122 "/>
<text text-anchor="start" x="209.5" y="-2110" font-family="Helvetica,sans-Serif" font-size="10.00">+ TArray()</text>
<text text-anchor="start" x="209.5" y="-2099" font-family="Helvetica,sans-Serif" font-size="10.00">+ Num()</text>
<text text-anchor="start" x="209.5" y="-2088" font-family="Helvetica,sans-Serif" font-size="10.00">+ operator[]()</text>
<text text-anchor="start" x="209.5" y="-2077" font-family="Helvetica,sans-Serif" font-size="10.00">+ operator[]()</text>
<text text-anchor="start" x="209.5" y="-2066" font-family="Helvetica,sans-Serif" font-size="10.00">+ IsValidIndex()</text>
<text text-anchor="start" x="209.5" y="-2055" font-family="Helvetica,sans-Serif" font-size="10.00">+ GetByIndex()</text>
<text text-anchor="start" x="209.5" y="-2044" font-family="Helvetica,sans-Serif" font-size="10.00">+ GetByIndex()</text>
</a>
</g>
</g>
<!-- Node7&#45;&gt;Node6 -->
<g id="edge6" class="edge">
<title>Node7&#45;&gt;Node6</title>
<path fill="none" stroke="#404040" d="M296.63,-2037C297.67,-2023.63 298.77,-2009.5 299.83,-1995.91"/>
<polygon fill="none" stroke="#404040" points="299.85,-1995.59 296.33,-1989.29 300.78,-1983.62 304.31,-1989.91 299.85,-1995.59"/>
<text text-anchor="middle" x="324" y="-2005" font-family="Helvetica,sans-Serif" font-size="10.00"> +GNames</text>
</g>
<!-- Node8 -->
<g id="node8" class="node">
<title>Node8</title>
<g id="a_node8"><a xlink:href="../../d7/ddf/classSDK_1_1FNameEntry.html" target="_top" xlink:title=" ">
<polygon fill="white" stroke="black" points="81,-2263 81,-2331 180,-2331 180,-2263 81,-2263"/>
<text text-anchor="middle" x="130.5" y="-2319" font-family="Helvetica,sans-Serif" font-size="10.00">SDK::FNameEntry</text>
<polyline fill="none" stroke="black" points="81,-2312 180,-2312 "/>
<text text-anchor="start" x="89" y="-2300" font-family="Helvetica,sans-Serif" font-size="10.00">+ UnknownData00</text>
<text text-anchor="start" x="89" y="-2289" font-family="Helvetica,sans-Serif" font-size="10.00">+ name</text>
<polyline fill="none" stroke="black" points="81,-2282 180,-2282 "/>
<text text-anchor="start" x="89" y="-2270" font-family="Helvetica,sans-Serif" font-size="10.00">+ GetName()</text>
</a>
</g>
</g>
<!-- Node8&#45;&gt;Node7 -->
<g id="edge7" class="edge">
<title>Node8&#45;&gt;Node7</title>
<path fill="none" stroke="#404040" d="M158.54,-2262.73C177.73,-2239.97 203.96,-2208.86 228.05,-2180.28"/>
<polygon fill="none" stroke="#404040" points="228.05,-2180.27 228.86,-2173.11 235.78,-2171.1 234.97,-2178.26 228.05,-2180.27"/>
<text text-anchor="middle" x="225.5" y="-2198" font-family="Helvetica,sans-Serif" font-size="10.00"> &#45;Data</text>
</g>
<!-- Node9 -->
<g id="node9" class="node">
<title>Node9</title>
<g id="a_node9"><a xlink:href="../../d3/d79/classSDK_1_1TArray.html" target="_top" xlink:title=" ">
<polygon fill="white" stroke="black" points="298,-2224.5 298,-2369.5 395,-2369.5 395,-2224.5 298,-2224.5"/>
<text text-anchor="middle" x="346.5" y="-2357.5" font-family="Helvetica,sans-Serif" font-size="10.00">SDK::TArray&lt; T &gt;</text>
<polyline fill="none" stroke="black" points="298,-2350.5 395,-2350.5 "/>
<text text-anchor="start" x="306" y="-2338.5" font-family="Helvetica,sans-Serif" font-size="10.00">&#45; Data</text>
<text text-anchor="start" x="306" y="-2327.5" font-family="Helvetica,sans-Serif" font-size="10.00">&#45; Count</text>
<text text-anchor="start" x="306" y="-2316.5" font-family="Helvetica,sans-Serif" font-size="10.00">&#45; Max</text>
<polyline fill="none" stroke="black" points="298,-2309.5 395,-2309.5 "/>
<text text-anchor="start" x="306" y="-2297.5" font-family="Helvetica,sans-Serif" font-size="10.00">+ TArray()</text>
<text text-anchor="start" x="306" y="-2286.5" font-family="Helvetica,sans-Serif" font-size="10.00">+ Num()</text>
<text text-anchor="start" x="306" y="-2275.5" font-family="Helvetica,sans-Serif" font-size="10.00">+ operator[]()</text>
<text text-anchor="start" x="306" y="-2264.5" font-family="Helvetica,sans-Serif" font-size="10.00">+ operator[]()</text>
<text text-anchor="start" x="306" y="-2253.5" font-family="Helvetica,sans-Serif" font-size="10.00">+ IsValidIndex()</text>
<text text-anchor="start" x="306" y="-2242.5" font-family="Helvetica,sans-Serif" font-size="10.00">+ GetByIndex()</text>
<text text-anchor="start" x="306" y="-2231.5" font-family="Helvetica,sans-Serif" font-size="10.00">+ GetByIndex()</text>
</a>
</g>
</g>
<!-- Node9&#45;&gt;Node7 -->
<g id="edge8" class="edge">
<title>Node9&#45;&gt;Node7</title>
<path fill="none" stroke="orange" d="M292.98,-2226.6C289.59,-2219.89 286.67,-2212.98 284.5,-2206 281.05,-2194.92 279.85,-2182.84 279.96,-2171.02"/>
<polygon fill="orange" stroke="orange" points="290.03,-2228.5 297.88,-2235.61 296.18,-2225.16 290.03,-2228.5"/>
<text text-anchor="middle" x="340" y="-2198" font-family="Helvetica,sans-Serif" font-size="10.00"> &lt; SDK::FNameEntry * &gt;</text>
</g>
<!-- Node9&#45;&gt;Node10 -->
<g id="edge12" class="edge">
<title>Node9&#45;&gt;Node10</title>
<path fill="none" stroke="orange" d="M392.9,-2214.9C393.87,-2211.94 394.75,-2208.96 395.5,-2206 421.05,-2105.65 401.19,-1843.4 395.5,-1740 388.6,-1614.54 371.4,-1584.46 364.5,-1459 364.23,-1454.12 362.76,-1452.57 364.5,-1448 366.9,-1441.67 370.02,-1435.52 373.62,-1429.6"/>
<polygon fill="orange" stroke="orange" points="389.59,-2213.74 389.47,-2224.33 396.17,-2216.13 389.59,-2213.74"/>
<text text-anchor="middle" x="453" y="-1919.5" font-family="Helvetica,sans-Serif" font-size="10.00"> &lt; SDK::UObject * &gt;</text>
</g>
<!-- Node16 -->
<g id="node16" class="node">
<title>Node16</title>
<g id="a_node16"><a xlink:href="../../d3/d79/classSDK_1_1TArray.html" target="_top" xlink:title=" ">
<polygon fill="white" stroke="black" points="339,-636.5 339,-781.5 482,-781.5 482,-636.5 339,-636.5"/>
<text text-anchor="start" x="347" y="-769.5" font-family="Helvetica,sans-Serif" font-size="10.00">SDK::TArray&lt; struct</text>
<text text-anchor="middle" x="410.5" y="-758.5" font-family="Helvetica,sans-Serif" font-size="10.00"> SDK::FGFxWidgetBinding &gt;</text>
<polyline fill="none" stroke="black" points="339,-751.5 482,-751.5 "/>
<text text-anchor="start" x="347" y="-739.5" font-family="Helvetica,sans-Serif" font-size="10.00">&#45; Count</text>
<text text-anchor="start" x="347" y="-728.5" font-family="Helvetica,sans-Serif" font-size="10.00">&#45; Max</text>
<polyline fill="none" stroke="black" points="339,-721.5 482,-721.5 "/>
<text text-anchor="start" x="347" y="-709.5" font-family="Helvetica,sans-Serif" font-size="10.00">+ TArray()</text>
<text text-anchor="start" x="347" y="-698.5" font-family="Helvetica,sans-Serif" font-size="10.00">+ Num()</text>
<text text-anchor="start" x="347" y="-687.5" font-family="Helvetica,sans-Serif" font-size="10.00">+ operator[]()</text>
<text text-anchor="start" x="347" y="-676.5" font-family="Helvetica,sans-Serif" font-size="10.00">+ operator[]()</text>
<text text-anchor="start" x="347" y="-665.5" font-family="Helvetica,sans-Serif" font-size="10.00">+ IsValidIndex()</text>
<text text-anchor="start" x="347" y="-654.5" font-family="Helvetica,sans-Serif" font-size="10.00">+ GetByIndex()</text>
<text text-anchor="start" x="347" y="-643.5" font-family="Helvetica,sans-Serif" font-size="10.00">+ GetByIndex()</text>
</a>
</g>
</g>
<!-- Node9&#45;&gt;Node16 -->
<g id="edge26" class="edge">
<title>Node9&#45;&gt;Node16</title>
<path fill="none" stroke="orange" d="M289.21,-2264.67C256.32,-2243.89 216.84,-2213.71 192.5,-2177 174.21,-2149.42 173.5,-2138.1 173.5,-2105 173.5,-2105 173.5,-2105 173.5,-1790 173.5,-1650.75 167.05,-1614.74 187.5,-1477 195.15,-1425.5 216.5,-1415.57 216.5,-1363.5 216.5,-1363.5 216.5,-1363.5 216.5,-857 216.5,-793.4 283.55,-753.78 338.81,-731.92"/>
<polygon fill="orange" stroke="orange" points="287.51,-2267.73 297.85,-2270.01 291.19,-2261.78 287.51,-2267.73"/>
<text text-anchor="start" x="216.5" y="-1269" font-family="Helvetica,sans-Serif" font-size="10.00"> &lt; struct SDK::FGFxWidget</text>
<text text-anchor="middle" x="278" y="-1258" font-family="Helvetica,sans-Serif" font-size="10.00">Binding &gt;</text>
</g>
<!-- Node19 -->
<g id="node19" class="node">
<title>Node19</title>
<g id="a_node19"><a xlink:href="../../d3/d79/classSDK_1_1TArray.html" target="_top" xlink:title=" ">
<polygon fill="white" stroke="black" points="626,-2031.5 626,-2176.5 751,-2176.5 751,-2031.5 626,-2031.5"/>
<text text-anchor="middle" x="688.5" y="-2164.5" font-family="Helvetica,sans-Serif" font-size="10.00">SDK::TArray&lt; wchar_t &gt;</text>
<polyline fill="none" stroke="black" points="626,-2157.5 751,-2157.5 "/>
<text text-anchor="start" x="634" y="-2145.5" font-family="Helvetica,sans-Serif" font-size="10.00">&#45; Data</text>
<text text-anchor="start" x="634" y="-2134.5" font-family="Helvetica,sans-Serif" font-size="10.00">&#45; Count</text>
<text text-anchor="start" x="634" y="-2123.5" font-family="Helvetica,sans-Serif" font-size="10.00">&#45; Max</text>
<polyline fill="none" stroke="black" points="626,-2116.5 751,-2116.5 "/>
<text text-anchor="start" x="634" y="-2104.5" font-family="Helvetica,sans-Serif" font-size="10.00">+ TArray()</text>
<text text-anchor="start" x="634" y="-2093.5" font-family="Helvetica,sans-Serif" font-size="10.00">+ Num()</text>
<text text-anchor="start" x="634" y="-2082.5" font-family="Helvetica,sans-Serif" font-size="10.00">+ operator[]()</text>
<text text-anchor="start" x="634" y="-2071.5" font-family="Helvetica,sans-Serif" font-size="10.00">+ operator[]()</text>
<text text-anchor="start" x="634" y="-2060.5" font-family="Helvetica,sans-Serif" font-size="10.00">+ IsValidIndex()</text>
<text text-anchor="start" x="634" y="-2049.5" font-family="Helvetica,sans-Serif" font-size="10.00">+ GetByIndex()</text>
<text text-anchor="start" x="634" y="-2038.5" font-family="Helvetica,sans-Serif" font-size="10.00">+ GetByIndex()</text>
</a>
</g>
</g>
<!-- Node9&#45;&gt;Node19 -->
<g id="edge29" class="edge">
<title>Node9&#45;&gt;Node19</title>
<path fill="none" stroke="orange" d="M403.93,-2263.93C465.35,-2229.63 562.44,-2175.4 625.81,-2140.01"/>
<polygon fill="orange" stroke="orange" points="402.16,-2260.91 395.14,-2268.84 405.57,-2267.02 402.16,-2260.91"/>
<text text-anchor="middle" x="545.5" y="-2198" font-family="Helvetica,sans-Serif" font-size="10.00"> &lt; wchar_t &gt;</text>
</g>
<!-- Node10&#45;&gt;Node4 -->
<g id="edge10" class="edge">
<title>Node10&#45;&gt;Node4</title>
<path fill="none" stroke="#404040" d="M473.55,-1429.63C479.55,-1441.28 485.98,-1453.77 492.53,-1466.49"/>
<polygon fill="none" stroke="#404040" points="492.56,-1466.55 498.86,-1470.05 498.05,-1477.21 491.75,-1473.71 492.56,-1466.55"/>
<text text-anchor="middle" x="512" y="-1451" font-family="Helvetica,sans-Serif" font-size="10.00"> +GObjects</text>
</g>
<!-- Node11 -->
<g id="node11" class="node">
<title>Node11</title>
<g id="a_node11"><a xlink:href="../../d9/dfa/structSDK_1_1FPointer.html" target="_top" xlink:title=" ">
<polygon fill="white" stroke="black" points="617.5,-1888 617.5,-1956 715.5,-1956 715.5,-1888 617.5,-1888"/>
<text text-anchor="middle" x="666.5" y="-1944" font-family="Helvetica,sans-Serif" font-size="10.00">SDK::FPointer</text>
<polyline fill="none" stroke="black" points="617.5,-1937 715.5,-1937 "/>
<text text-anchor="start" x="625.5" y="-1925" font-family="Helvetica,sans-Serif" font-size="10.00">+ Dummy</text>
<text text-anchor="start" x="625.5" y="-1914" font-family="Helvetica,sans-Serif" font-size="10.00">+ UnknownData00</text>
<polyline fill="none" stroke="black" points="617.5,-1907 715.5,-1907 "/>
<text text-anchor="middle" x="666.5" y="-1895" font-family="Helvetica,sans-Serif" font-size="10.00"> </text>
</a>
</g>
</g>
<!-- Node11&#45;&gt;Node4 -->
<g id="edge13" class="edge">
<title>Node11&#45;&gt;Node4</title>
<path fill="none" stroke="#404040" d="M661.45,-1887.69C655.34,-1850.91 643.69,-1790.24 626.5,-1740 625.69,-1737.62 624.84,-1735.23 623.98,-1732.84"/>
<polygon fill="none" stroke="#404040" points="623.96,-1732.79 618.11,-1728.59 619.74,-1721.56 625.59,-1725.77 623.96,-1732.79"/>
<text text-anchor="middle" x="687" y="-1799.5" font-family="Helvetica,sans-Serif" font-size="10.00"> +StateFrame</text>
<text text-anchor="middle" x="687" y="-1788.5" font-family="Helvetica,sans-Serif" font-size="10.00">+VfTableObject</text>
<text text-anchor="middle" x="687" y="-1777.5" font-family="Helvetica,sans-Serif" font-size="10.00">+LinkerIndex</text>
</g>
<!-- Node12&#45;&gt;Node4 -->
<g id="edge14" class="edge">
<title>Node12&#45;&gt;Node4</title>
<path fill="none" stroke="#404040" d="M544.46,-1024.6C539.15,-1060.22 532.31,-1111.69 529.5,-1157 527.3,-1192.49 527.98,-1201.48 529.5,-1237 532.74,-1312.69 539.78,-1397.06 546.33,-1465.24"/>
<polygon fill="none" stroke="#404040" points="546.35,-1465.4 550.91,-1470.98 547.5,-1477.34 542.94,-1471.76 546.35,-1465.4"/>
<text text-anchor="middle" x="547" y="-1194.5" font-family="Helvetica,sans-Serif" font-size="10.00"> +Class</text>
</g>
<!-- Node12&#45;&gt;Node17 -->
<g id="edge25" class="edge">
<title>Node12&#45;&gt;Node17</title>
<path fill="none" stroke="#404040" d="M499.4,-934.34C483.95,-921.25 467.24,-907.09 452.52,-894.61"/>
<polygon fill="none" stroke="#404040" points="452.32,-894.45 445.16,-893.62 443.17,-886.69 450.33,-887.52 452.32,-894.45"/>
<text text-anchor="middle" x="510.5" y="-908" font-family="Helvetica,sans-Serif" font-size="10.00"> +WidgetClass</text>
</g>
<!-- Node13 -->
<g id="node13" class="node">
<title>Node13</title>
<g id="a_node13"><a xlink:href="../../df/d72/classSDK_1_1UState.html" target="_top" xlink:title=" ">
<polygon fill="white" stroke="black" points="648.5,-1062.5 648.5,-1119.5 746.5,-1119.5 746.5,-1062.5 648.5,-1062.5"/>
<text text-anchor="middle" x="697.5" y="-1107.5" font-family="Helvetica,sans-Serif" font-size="10.00">SDK::UState</text>
<polyline fill="none" stroke="black" points="648.5,-1100.5 746.5,-1100.5 "/>
<text text-anchor="start" x="656.5" y="-1088.5" font-family="Helvetica,sans-Serif" font-size="10.00">+ UnknownData00</text>
<polyline fill="none" stroke="black" points="648.5,-1081.5 746.5,-1081.5 "/>
<text text-anchor="start" x="656.5" y="-1069.5" font-family="Helvetica,sans-Serif" font-size="10.00">+ StaticClass()</text>
</a>
</g>
</g>
<!-- Node13&#45;&gt;Node12 -->
<g id="edge15" class="edge">
<title>Node13&#45;&gt;Node12</title>
<path fill="none" stroke="midnightblue" d="M652.54,-1056.28C639.17,-1046.25 624.32,-1035.11 610.21,-1024.53"/>
<polygon fill="none" stroke="midnightblue" points="650.56,-1059.17 660.66,-1062.37 654.76,-1053.57 650.56,-1059.17"/>
</g>
<!-- Node14 -->
<g id="node14" class="node">
<title>Node14</title>
<g id="a_node14"><a xlink:href="../../d8/de9/classSDK_1_1UStruct.html" target="_top" xlink:title=" ">
<polygon fill="white" stroke="black" points="699.5,-1157.5 699.5,-1236.5 797.5,-1236.5 797.5,-1157.5 699.5,-1157.5"/>
<text text-anchor="middle" x="748.5" y="-1224.5" font-family="Helvetica,sans-Serif" font-size="10.00">SDK::UStruct</text>
<polyline fill="none" stroke="black" points="699.5,-1217.5 797.5,-1217.5 "/>
<text text-anchor="start" x="707.5" y="-1205.5" font-family="Helvetica,sans-Serif" font-size="10.00">+ UnknownData00</text>
<text text-anchor="start" x="707.5" y="-1194.5" font-family="Helvetica,sans-Serif" font-size="10.00">+ PropertySize</text>
<text text-anchor="start" x="707.5" y="-1183.5" font-family="Helvetica,sans-Serif" font-size="10.00">+ UnknownData01</text>
<polyline fill="none" stroke="black" points="699.5,-1176.5 797.5,-1176.5 "/>
<text text-anchor="start" x="707.5" y="-1164.5" font-family="Helvetica,sans-Serif" font-size="10.00">+ StaticClass()</text>
</a>
</g>
</g>
<!-- Node14&#45;&gt;Node13 -->
<g id="edge16" class="edge">
<title>Node14&#45;&gt;Node13</title>
<path fill="none" stroke="midnightblue" d="M724.99,-1148.06C720.23,-1138.35 715.37,-1128.44 711.09,-1119.72"/>
<polygon fill="none" stroke="midnightblue" points="721.96,-1149.84 729.51,-1157.27 728.25,-1146.75 721.96,-1149.84"/>
</g>
<!-- Node15&#45;&gt;Node14 -->
<g id="edge17" class="edge">
<title>Node15&#45;&gt;Node14</title>
<path fill="none" stroke="midnightblue" d="M710.68,-1324.01C713.52,-1303.38 717.96,-1277.49 724.5,-1255 726.27,-1248.92 728.5,-1242.61 730.88,-1236.51"/>
<polygon fill="none" stroke="midnightblue" points="707.21,-1323.6 709.38,-1333.97 714.15,-1324.51 707.21,-1323.6"/>
</g>
<!-- Node15&#45;&gt;Node14 -->
<g id="edge20" class="edge">
<title>Node15&#45;&gt;Node14</title>
<path fill="none" stroke="#404040" d="M713.62,-1333.76C719.62,-1310.41 728.36,-1276.4 735.59,-1248.27"/>
<polygon fill="none" stroke="#404040" points="735.59,-1248.24 733.21,-1241.43 738.58,-1236.62 740.96,-1243.42 735.59,-1248.24"/>
<text text-anchor="middle" x="761.5" y="-1269" font-family="Helvetica,sans-Serif" font-size="10.00"> +SuperField</text>
<text text-anchor="middle" x="761.5" y="-1258" font-family="Helvetica,sans-Serif" font-size="10.00">+Children</text>
</g>
<!-- Node15&#45;&gt;Node15 -->
<g id="edge19" class="edge">
<title>Node15&#45;&gt;Node15</title>
<path fill="none" stroke="#404040" d="M748.21,-1379.11C758.41,-1377.88 766,-1372.34 766,-1362.5 766,-1356.96 763.6,-1352.79 759.68,-1349.98"/>
<polygon fill="none" stroke="#404040" points="759.51,-1349.92 752.51,-1351.67 748.21,-1345.89 755.2,-1344.13 759.51,-1349.92"/>
<text text-anchor="middle" x="781.5" y="-1360" font-family="Helvetica,sans-Serif" font-size="10.00"> +Next</text>
</g>
<!-- Node16&#45;&gt;Node3 -->
<g id="edge22" class="edge">
<title>Node16&#45;&gt;Node3</title>
<path fill="none" stroke="#404040" d="M482.3,-654.53C521.75,-625.15 570.9,-588.54 612.16,-557.81"/>
<polygon fill="none" stroke="#404040" points="612.3,-557.71 614.72,-550.92 621.92,-550.54 619.5,-557.33 612.3,-557.71"/>
<text text-anchor="middle" x="593" y="-610" font-family="Helvetica,sans-Serif" font-size="10.00"> +SubWidgetBindings</text>
</g>
<!-- Node17&#45;&gt;Node16 -->
<g id="edge23" class="edge">
<title>Node17&#45;&gt;Node16</title>
<path fill="none" stroke="#404040" d="M410.5,-829.35C410.5,-819.01 410.5,-806.66 410.5,-793.89"/>
<polygon fill="none" stroke="#404040" points="410.5,-793.56 406.5,-787.56 410.5,-781.56 414.5,-787.56 410.5,-793.56"/>
<text text-anchor="middle" x="424.5" y="-803" font-family="Helvetica,sans-Serif" font-size="10.00"> &#45;Data</text>
</g>
<!-- Node18 -->
<g id="node18" class="node">
<title>Node18</title>
<g id="a_node18"><a xlink:href="../../d3/d88/classSDK_1_1FString.html" target="_top" xlink:title=" ">
<polygon fill="white" stroke="black" points="788,-1740.5 788,-1841.5 863,-1841.5 863,-1740.5 788,-1740.5"/>
<text text-anchor="middle" x="825.5" y="-1829.5" font-family="Helvetica,sans-Serif" font-size="10.00">SDK::FString</text>
<polyline fill="none" stroke="black" points="788,-1822.5 863,-1822.5 "/>
<text text-anchor="middle" x="825.5" y="-1810.5" font-family="Helvetica,sans-Serif" font-size="10.00"> </text>
<polyline fill="none" stroke="black" points="788,-1803.5 863,-1803.5 "/>
<text text-anchor="start" x="796" y="-1791.5" font-family="Helvetica,sans-Serif" font-size="10.00">+ FString()</text>
<text text-anchor="start" x="796" y="-1780.5" font-family="Helvetica,sans-Serif" font-size="10.00">+ FString()</text>
<text text-anchor="start" x="796" y="-1769.5" font-family="Helvetica,sans-Serif" font-size="10.00">+ IsValid()</text>
<text text-anchor="start" x="796" y="-1758.5" font-family="Helvetica,sans-Serif" font-size="10.00">+ c_str()</text>
<text text-anchor="start" x="796" y="-1747.5" font-family="Helvetica,sans-Serif" font-size="10.00">+ ToString()</text>
</a>
</g>
</g>
<!-- Node18&#45;&gt;Node3 -->
<g id="edge27" class="edge">
<title>Node18&#45;&gt;Node3</title>
<path fill="none" stroke="#404040" d="M836.64,-1740.27C850.25,-1675.03 871.5,-1556.8 871.5,-1454.5 871.5,-1454.5 871.5,-1454.5 871.5,-708 871.5,-645.22 825.56,-590.86 780.75,-552.76"/>
<polygon fill="none" stroke="#404040" points="780.47,-552.53 773.3,-551.79 771.22,-544.89 778.4,-545.63 780.47,-552.53"/>
<text text-anchor="middle" x="894.5" y="-1088.5" font-family="Helvetica,sans-Serif" font-size="10.00"> +PathInfo</text>
</g>
<!-- Node19&#45;&gt;Node18 -->
<g id="edge28" class="edge">
<title>Node19&#45;&gt;Node18</title>
<path fill="none" stroke="midnightblue" d="M724.23,-2021.89C749.4,-1964.74 782.3,-1890.07 803.66,-1841.58"/>
<polygon fill="none" stroke="midnightblue" points="720.93,-2020.7 720.1,-2031.26 727.34,-2023.52 720.93,-2020.7"/>
</g>
<!-- Node20&#45;&gt;Node2 -->
<g id="edge30" class="edge">
<title>Node20&#45;&gt;Node2</title>
<path fill="none" stroke="#404040" d="M114.63,-1333.98C96.88,-1302.36 71.5,-1248.34 71.5,-1198 71.5,-1198 71.5,-1198 71.5,-493 71.5,-453.83 73.75,-410.48 76.31,-373.93"/>
<polygon fill="none" stroke="#404040" points="76.32,-373.78 72.76,-367.51 77.18,-361.81 80.74,-368.08 76.32,-373.78"/>
<text text-anchor="middle" x="136.5" y="-908" font-family="Helvetica,sans-Serif" font-size="10.00"> +__EventListener__Delegate</text>
</g>
</g>
</svg>
        <g id="navigator" transform="translate(0 0)" fill="#404254">
                <rect fill="#f2f5e9" fill-opacity="0.5" stroke="#606060" stroke-width=".5" x="0" y="0" width="60" height="60"/>
                <use id="zoomplus" xlink:href="#zoomPlus" x="17" y="9" onmousedown="handleZoom(evt,'in')"/>
                <use id="zoomminus" xlink:href="#zoomMin" x="42" y="9" onmousedown="handleZoom(evt,'out')"/>
                <use id="reset" xlink:href="#resetDef" x="30" y="36" onmousedown="handleReset()"/>
                <g id="arrowUp" xlink:href="#dirArrow" transform="translate(30 24)" onmousedown="handlePan(0,-1)">
                  <use xlink:href="#rim" fill="#404040">
                        <set attributeName="fill" to="#808080" begin="arrowUp.mouseover" end="arrowUp.mouseout"/>
                  </use>
                  <path fill="none" stroke="white" stroke-width="1.5" d="M0,-3.0v7 M-2.5,-0.5L0,-3.0L2.5,-0.5"/>
                </g>
                <g id="arrowRight" xlink:href="#dirArrow" transform="rotate(90) translate(36 -43)" onmousedown="handlePan(1,0)">
                  <use xlink:href="#rim" fill="#404040">
                        <set attributeName="fill" to="#808080" begin="arrowRight.mouseover" end="arrowRight.mouseout"/>
                  </use>
                  <path fill="none" stroke="white" stroke-width="1.5" d="M0,-3.0v7 M-2.5,-0.5L0,-3.0L2.5,-0.5"/>
                </g>
                <g id="arrowDown" xlink:href="#dirArrow" transform="rotate(180) translate(-30 -48)" onmousedown="handlePan(0,1)">
                  <use xlink:href="#rim" fill="#404040">
                        <set attributeName="fill" to="#808080" begin="arrowDown.mouseover" end="arrowDown.mouseout"/>
                  </use>
                  <path fill="none" stroke="white" stroke-width="1.5" d="M0,-3.0v7 M-2.5,-0.5L0,-3.0L2.5,-0.5"/>
                </g>
                <g id="arrowLeft" xlink:href="#dirArrow" transform="rotate(270) translate(-36 17)" onmousedown="handlePan(-1,0)">
                  <use xlink:href="#rim" fill="#404040">
                        <set attributeName="fill" to="#808080" begin="arrowLeft.mouseover" end="arrowLeft.mouseout"/>
                  </use>
                  <path fill="none" stroke="white" stroke-width="1.5" d="M0,-3.0v7 M-2.5,-0.5L0,-3.0L2.5,-0.5"/>
                </g>
        </g>
        <svg viewBox="0 0 15 15" width="100%" height="30px" preserveAspectRatio="xMaxYMin meet">
         <g id="arrow_out" transform="scale(0.3 0.3)">
          <a xlink:href="classSDK_1_1UEFUIComponent__coll__graph_org.svg" target="_base">
           <rect id="button" ry="5" rx="5" y="6" x="6" height="38" width="38"
                fill="#f2f5e9" fill-opacity="0.5" stroke="#606060" stroke-width="1.0"/>
           <path id="arrow"
             d="M 11.500037,31.436501 C 11.940474,20.09759 22.043105,11.32322 32.158766,21.979434 L 37.068811,17.246167 C 37.068811,17.246167 37.088388,32 37.088388,32 L 22.160133,31.978069 C 22.160133,31.978069 26.997745,27.140456 26.997745,27.140456 C 18.528582,18.264221 13.291696,25.230495 11.500037,31.436501 z"
             style="fill:#404040;"/>
          </a>
         </g>
        </svg>
</svg>
