<?xml version="1.0" encoding="UTF-8" standalone="no"?>
<!DOCTYPE svg PUBLIC "-//W3C//DTD SVG 1.1//EN"
 "http://www.w3.org/Graphics/SVG/1.1/DTD/svg11.dtd">
<!-- Generated by graphviz version 2.41.20171026.1811 (20171026.1811)
 -->
<!-- Title: SDK::FEFPPMaterialVectorParam Pages: 1 -->
<svg width="286pt" height="623pt"
 viewBox="0.00 0.00 286.00 623.00" xmlns="http://www.w3.org/2000/svg" xmlns:xlink="http://www.w3.org/1999/xlink">
<g id="graph0" class="graph" transform="scale(1 1) rotate(0) translate(4 619)">
<title>SDK::FEFPPMaterialVectorParam</title>
<polygon fill="white" stroke="transparent" points="-4,4 -4,-619 282,-619 282,4 -4,4"/>
<!-- Node1 -->
<g id="node1" class="node">
<title>Node1</title>
<g id="a_node1"><a xlink:title=" ">
<polygon fill="#bfbfbf" stroke="black" points="115,-0.5 115,-68.5 254,-68.5 254,-0.5 115,-0.5"/>
<text text-anchor="start" x="123" y="-56.5" font-family="Helvetica,sans-Serif" font-size="10.00">SDK::FEFPPMaterialVector</text>
<text text-anchor="middle" x="184.5" y="-45.5" font-family="Helvetica,sans-Serif" font-size="10.00">Param</text>
<polyline fill="none" stroke="black" points="115,-38.5 254,-38.5 "/>
<text text-anchor="middle" x="184.5" y="-26.5" font-family="Helvetica,sans-Serif" font-size="10.00"> </text>
<polyline fill="none" stroke="black" points="115,-19.5 254,-19.5 "/>
<text text-anchor="middle" x="184.5" y="-7.5" font-family="Helvetica,sans-Serif" font-size="10.00"> </text>
</a>
</g>
</g>
<!-- Node2 -->
<g id="node2" class="node">
<title>Node2</title>
<g id="a_node2"><a xlink:href="../../d0/db6/structSDK_1_1FName.html" target="_top" xlink:title=" ">
<polygon fill="white" stroke="black" points="54,-116.5 54,-239.5 161,-239.5 161,-116.5 54,-116.5"/>
<text text-anchor="middle" x="107.5" y="-227.5" font-family="Helvetica,sans-Serif" font-size="10.00">SDK::FName</text>
<polyline fill="none" stroke="black" points="54,-220.5 161,-220.5 "/>
<text text-anchor="start" x="62" y="-208.5" font-family="Helvetica,sans-Serif" font-size="10.00">+ Index</text>
<text text-anchor="start" x="62" y="-197.5" font-family="Helvetica,sans-Serif" font-size="10.00">+ Number</text>
<polyline fill="none" stroke="black" points="54,-190.5 161,-190.5 "/>
<text text-anchor="start" x="62" y="-178.5" font-family="Helvetica,sans-Serif" font-size="10.00">+ FName()</text>
<text text-anchor="start" x="62" y="-167.5" font-family="Helvetica,sans-Serif" font-size="10.00">+ FName()</text>
<text text-anchor="start" x="62" y="-156.5" font-family="Helvetica,sans-Serif" font-size="10.00">+ FName()</text>
<text text-anchor="start" x="62" y="-145.5" font-family="Helvetica,sans-Serif" font-size="10.00">+ GetName()</text>
<text text-anchor="start" x="62" y="-134.5" font-family="Helvetica,sans-Serif" font-size="10.00">+ operator==()</text>
<text text-anchor="start" x="62" y="-123.5" font-family="Helvetica,sans-Serif" font-size="10.00">+ GetGlobalNames()</text>
</a>
</g>
</g>
<!-- Node2&#45;&gt;Node1 -->
<g id="edge1" class="edge">
<title>Node2&#45;&gt;Node1</title>
<path fill="none" stroke="#404040" d="M119.73,-116.17C123.06,-106.05 127.25,-95.95 132.5,-87 134.28,-83.97 136.28,-80.99 138.43,-78.09"/>
<polygon fill="none" stroke="#404040" points="138.64,-77.84 139.35,-70.67 146.25,-68.57 145.54,-75.74 138.64,-77.84"/>
<text text-anchor="middle" x="164.5" y="-90" font-family="Helvetica,sans-Serif" font-size="10.00"> +ParamName</text>
</g>
<!-- Node3 -->
<g id="node3" class="node">
<title>Node3</title>
<g id="a_node3"><a xlink:href="../../d3/d79/classSDK_1_1TArray.html" target="_top" xlink:title=" ">
<polygon fill="white" stroke="black" points="17.5,-287.5 17.5,-421.5 197.5,-421.5 197.5,-287.5 17.5,-287.5"/>
<text text-anchor="middle" x="107.5" y="-409.5" font-family="Helvetica,sans-Serif" font-size="10.00">SDK::TArray&lt; SDK::FNameEntry * &gt;</text>
<polyline fill="none" stroke="black" points="17.5,-402.5 197.5,-402.5 "/>
<text text-anchor="start" x="25.5" y="-390.5" font-family="Helvetica,sans-Serif" font-size="10.00">&#45; Count</text>
<text text-anchor="start" x="25.5" y="-379.5" font-family="Helvetica,sans-Serif" font-size="10.00">&#45; Max</text>
<polyline fill="none" stroke="black" points="17.5,-372.5 197.5,-372.5 "/>
<text text-anchor="start" x="25.5" y="-360.5" font-family="Helvetica,sans-Serif" font-size="10.00">+ TArray()</text>
<text text-anchor="start" x="25.5" y="-349.5" font-family="Helvetica,sans-Serif" font-size="10.00">+ Num()</text>
<text text-anchor="start" x="25.5" y="-338.5" font-family="Helvetica,sans-Serif" font-size="10.00">+ operator[]()</text>
<text text-anchor="start" x="25.5" y="-327.5" font-family="Helvetica,sans-Serif" font-size="10.00">+ operator[]()</text>
<text text-anchor="start" x="25.5" y="-316.5" font-family="Helvetica,sans-Serif" font-size="10.00">+ IsValidIndex()</text>
<text text-anchor="start" x="25.5" y="-305.5" font-family="Helvetica,sans-Serif" font-size="10.00">+ GetByIndex()</text>
<text text-anchor="start" x="25.5" y="-294.5" font-family="Helvetica,sans-Serif" font-size="10.00">+ GetByIndex()</text>
</a>
</g>
</g>
<!-- Node3&#45;&gt;Node2 -->
<g id="edge2" class="edge">
<title>Node3&#45;&gt;Node2</title>
<path fill="none" stroke="#404040" d="M107.5,-287.03C107.5,-275.45 107.5,-263.35 107.5,-251.62"/>
<polygon fill="none" stroke="#404040" points="107.5,-251.56 103.5,-245.56 107.5,-239.56 111.5,-245.56 107.5,-251.56"/>
<text text-anchor="middle" x="132" y="-261" font-family="Helvetica,sans-Serif" font-size="10.00"> +GNames</text>
</g>
<!-- Node4 -->
<g id="node4" class="node">
<title>Node4</title>
<g id="a_node4"><a xlink:href="../../d7/ddf/classSDK_1_1FNameEntry.html" target="_top" xlink:title=" ">
<polygon fill="white" stroke="black" points="0,-508 0,-576 99,-576 99,-508 0,-508"/>
<text text-anchor="middle" x="49.5" y="-564" font-family="Helvetica,sans-Serif" font-size="10.00">SDK::FNameEntry</text>
<polyline fill="none" stroke="black" points="0,-557 99,-557 "/>
<text text-anchor="start" x="8" y="-545" font-family="Helvetica,sans-Serif" font-size="10.00">+ UnknownData00</text>
<text text-anchor="start" x="8" y="-534" font-family="Helvetica,sans-Serif" font-size="10.00">+ name</text>
<polyline fill="none" stroke="black" points="0,-527 99,-527 "/>
<text text-anchor="start" x="8" y="-515" font-family="Helvetica,sans-Serif" font-size="10.00">+ GetName()</text>
</a>
</g>
</g>
<!-- Node4&#45;&gt;Node3 -->
<g id="edge3" class="edge">
<title>Node4&#45;&gt;Node3</title>
<path fill="none" stroke="#404040" d="M59.87,-507.84C66.34,-487.14 74.96,-459.58 83.08,-433.6"/>
<polygon fill="none" stroke="#404040" points="83.19,-433.25 81.16,-426.33 86.77,-421.8 88.8,-428.72 83.19,-433.25"/>
<text text-anchor="middle" x="94.5" y="-443" font-family="Helvetica,sans-Serif" font-size="10.00"> &#45;Data</text>
</g>
<!-- Node5 -->
<g id="node5" class="node">
<title>Node5</title>
<g id="a_node5"><a xlink:href="../../d3/d79/classSDK_1_1TArray.html" target="_top" xlink:title=" ">
<polygon fill="white" stroke="black" points="117,-469.5 117,-614.5 214,-614.5 214,-469.5 117,-469.5"/>
<text text-anchor="middle" x="165.5" y="-602.5" font-family="Helvetica,sans-Serif" font-size="10.00">SDK::TArray&lt; T &gt;</text>
<polyline fill="none" stroke="black" points="117,-595.5 214,-595.5 "/>
<text text-anchor="start" x="125" y="-583.5" font-family="Helvetica,sans-Serif" font-size="10.00">&#45; Data</text>
<text text-anchor="start" x="125" y="-572.5" font-family="Helvetica,sans-Serif" font-size="10.00">&#45; Count</text>
<text text-anchor="start" x="125" y="-561.5" font-family="Helvetica,sans-Serif" font-size="10.00">&#45; Max</text>
<polyline fill="none" stroke="black" points="117,-554.5 214,-554.5 "/>
<text text-anchor="start" x="125" y="-542.5" font-family="Helvetica,sans-Serif" font-size="10.00">+ TArray()</text>
<text text-anchor="start" x="125" y="-531.5" font-family="Helvetica,sans-Serif" font-size="10.00">+ Num()</text>
<text text-anchor="start" x="125" y="-520.5" font-family="Helvetica,sans-Serif" font-size="10.00">+ operator[]()</text>
<text text-anchor="start" x="125" y="-509.5" font-family="Helvetica,sans-Serif" font-size="10.00">+ operator[]()</text>
<text text-anchor="start" x="125" y="-498.5" font-family="Helvetica,sans-Serif" font-size="10.00">+ IsValidIndex()</text>
<text text-anchor="start" x="125" y="-487.5" font-family="Helvetica,sans-Serif" font-size="10.00">+ GetByIndex()</text>
<text text-anchor="start" x="125" y="-476.5" font-family="Helvetica,sans-Serif" font-size="10.00">+ GetByIndex()</text>
</a>
</g>
</g>
<!-- Node5&#45;&gt;Node3 -->
<g id="edge4" class="edge">
<title>Node5&#45;&gt;Node3</title>
<path fill="none" stroke="orange" d="M140.06,-459.62C136.08,-446.9 132.01,-433.89 128.16,-421.56"/>
<polygon fill="orange" stroke="orange" points="136.75,-460.78 143.08,-469.28 143.43,-458.69 136.75,-460.78"/>
<text text-anchor="middle" x="192" y="-443" font-family="Helvetica,sans-Serif" font-size="10.00"> &lt; SDK::FNameEntry * &gt;</text>
</g>
<!-- Node6 -->
<g id="node6" class="node">
<title>Node6</title>
<g id="a_node6"><a xlink:href="../../de/d7c/structSDK_1_1FLinearColor.html" target="_top" xlink:title=" ">
<polygon fill="white" stroke="black" points="179,-133 179,-223 278,-223 278,-133 179,-133"/>
<text text-anchor="middle" x="228.5" y="-211" font-family="Helvetica,sans-Serif" font-size="10.00">SDK::FLinearColor</text>
<polyline fill="none" stroke="black" points="179,-204 278,-204 "/>
<text text-anchor="start" x="187" y="-192" font-family="Helvetica,sans-Serif" font-size="10.00">+ R</text>
<text text-anchor="start" x="187" y="-181" font-family="Helvetica,sans-Serif" font-size="10.00">+ G</text>
<text text-anchor="start" x="187" y="-170" font-family="Helvetica,sans-Serif" font-size="10.00">+ B</text>
<text text-anchor="start" x="187" y="-159" font-family="Helvetica,sans-Serif" font-size="10.00">+ A</text>
<polyline fill="none" stroke="black" points="179,-152 278,-152 "/>
<text text-anchor="middle" x="228.5" y="-140" font-family="Helvetica,sans-Serif" font-size="10.00"> </text>
</a>
</g>
</g>
<!-- Node6&#45;&gt;Node1 -->
<g id="edge5" class="edge">
<title>Node6&#45;&gt;Node1</title>
<path fill="none" stroke="#404040" d="M214.7,-132.62C209.55,-116.05 203.7,-97.23 198.53,-80.6"/>
<polygon fill="none" stroke="#404040" points="198.46,-80.4 192.86,-75.86 194.9,-68.95 200.5,-73.49 198.46,-80.4"/>
<text text-anchor="middle" x="220.5" y="-90" font-family="Helvetica,sans-Serif" font-size="10.00"> +Value</text>
</g>
</g>
</svg>
